<?xml version="1.0" encoding="utf-8"?>
<!-- Generator: Adobe Illustrator 16.0.0, SVG Export Plug-In . SVG Version: 6.00 Build 0)  -->
<!DOCTYPE svg PUBLIC "-//W3C//DTD SVG 1.1//EN" "http://www.w3.org/Graphics/SVG/1.1/DTD/svg11.dtd">
<svg version="1.1" id="Layer_1" xmlns="http://www.w3.org/2000/svg" xmlns:xlink="http://www.w3.org/1999/xlink" x="0px" y="0px"
	 width="1152.121px" height="1008.101px" viewBox="0 0 1152.121 1008.101" enable-background="new 0 0 1152.121 1008.101"
	 xml:space="preserve">
<g id="background">
</g>
<g id="etc">
	<path fill="#CECECE" stroke="#494949" stroke-miterlimit="10" d="M412.72,263.74v172.501h-24.5v3.333h-19.25v-3.333h-36.5v3.333
		h-21.25v-3.333h-34v3.333h-20.334v-3.333h-35.333v3.333h-20.667v-3.333h-35.333v3.333H144.22v-3.333h-32.667l0.168,23.999h-3v27.5
		h8v29.5h-8v28h6v29h-6v27h7v28.5h-7v26.5h8.5v29h-8.5v28h7.5v29h-7.5v25.5h7.5v30.5h-7.5v26h2.832v20.5h15.418v24.25l26.75,26.75
		h24v9.5h20v9h29v-8h24.5v8h30.5v-8h26v8h28v-8.5h26v8.5h26.5v-7.5h29.5v7.5h28.5v-7.5h26v7.5h28.5v-6.5h27v6.5h27v-5.5h17.5v-30h7
		v-28.5h-7.5v-26.5h7v-27h-8v-27.5h8v-27h-8v-26h9v-26h-8v-27h7v-27.5h-7v-23h6.5v-29.5h-5.5c0,0,0-6.5,0-12
		c71.5-33,28.25-105.75,28.25-105.75l13.75-13.75v-46h8v-142H412.72z"/>
	<g>
		<path fill="#CECECE" stroke="#494949" stroke-miterlimit="10" d="M622.72,386.966c0.497,0,0.659,0,0.655,0"/>
		<path fill="#CECECE" stroke="#494949" stroke-miterlimit="10" d="M600.97,465.49l13.75-13.75v-46h8v-18.774
			c-1.993,0-9.387,0-33.168,0c-41.334,0-35.333,39.274-35.333,39.274v46h50.188C602.449,467.98,600.97,465.49,600.97,465.49z"/>
	</g>
	<g>
		<rect x="335.47" y="483.74" fill="#A3A3A3" stroke="#494949" stroke-miterlimit="10" width="60.5" height="71.835"/>
		<rect x="379.47" y="483.74" fill="#A3A3A3" stroke="#494949" stroke-miterlimit="10" width="16.5" height="13.834"/>
		<rect x="379.47" y="497.574" fill="#A3A3A3" stroke="#494949" stroke-miterlimit="10" width="16.5" height="13.666"/>
		<rect x="364.47" y="526.24" fill="#A3A3A3" stroke="#494949" stroke-miterlimit="10" width="31.5" height="15.5"/>
		<line fill="none" stroke="#494949" stroke-miterlimit="10" x1="335.47" y1="541.74" x2="395.97" y2="541.74"/>
		<rect x="377.47" y="511.24" fill="#A3A3A3" stroke="#494949" stroke-miterlimit="10" width="18.5" height="15"/>
	</g>
	<g>
		<rect x="296.554" y="631.906" fill="#A3A3A3" stroke="#494949" stroke-miterlimit="10" width="50.667" height="52.668"/>
		<rect x="300.22" y="623.906" fill="#A3A3A3" stroke="#494949" stroke-miterlimit="10" width="11" height="71"/>
		<rect x="332.22" y="623.906" fill="#A3A3A3" stroke="#494949" stroke-miterlimit="10" width="10.333" height="71"/>
	</g>
	<rect x="622.72" y="112.24" fill="#CECECE" stroke="#494949" stroke-miterlimit="10" width="255.065" height="188"/>
</g>
<g id="rooms">
	<rect id="thaithai" x="622.72" y="300.24" fill="#5A5A5A" stroke="#494949" stroke-miterlimit="10" width="255.065" height="104"/>
	<path id="r211" fill="#5A5A5A" stroke="#494949" stroke-miterlimit="10" d="M412.72,263.74v99.688l46.359,22.521
		c3.541-18.001,10.254-32.206,18.641-43.432V263.74H412.72z"/>
	<path id="r210" fill="#5A5A5A" stroke="#494949" stroke-miterlimit="10" d="M482.886,263.74h-5.166v78.775
		c1.662-2.225,3.384-4.344,5.166-6.34c8.759-9.809,18.828-16.927,28.834-22.1V263.74H482.886z"/>
	<polygon id="r208" fill="#5A5A5A" stroke="#494949" stroke-miterlimit="10" points="595.22,263.74 588.219,263.74 564.72,263.74 
		564.72,300.351 588.219,300.351 595.22,300.351 595.22,300.35 622.72,300.35 622.72,263.74 	"/>
	<path id="r209" fill="#5A5A5A" stroke="#494949" stroke-miterlimit="10" d="M552.219,263.74h-38h-2.499v50.336
		c0.834-0.431,1.667-0.854,2.499-1.258c14.423-7.009,28.474-10.078,38-11.422c7.406-1.044,12.083-1.046,12.083-1.046h0.418v-36.61
		H552.219z"/>
	<g id="r201">
		<path fill="#5A5A5A" stroke="#494949" stroke-miterlimit="10" d="M412.72,391.27v44.972h-16.75v35.999h60.338
			c0-3.736,0-16.76,0-56.396c0-2.676,0.077-5.269,0.19-7.822c0.352-7.931,1.242-15.271,2.581-22.075l-46.359-22.521V391.27z"/>
		<path fill="#5A5A5A" stroke="#494949" stroke-miterlimit="10" d="M502.332,425.562c0.176,3.317,0.475,5.279,0.475,5.279v41.396
			h51.413v-40.076l-51.056-24.801C502.093,414.852,502.108,421.324,502.332,425.562z"/>
	</g>
	<path id="r203" fill="#5A5A5A" stroke="#494949" stroke-miterlimit="10" d="M562.704,396.426L562.704,396.426
		c2.942-3.04,6.851-5.628,12.016-7.325v-45.209c-26.801,2.777-43.814,12.644-54.564,24.79l40.603,29.991
		C561.354,397.902,562.001,397.151,562.704,396.426z"/>
	<path id="r202" fill="#5A5A5A" stroke="#494949" stroke-miterlimit="10" d="M560.756,398.672l-40.603-29.991
		c-1.71,1.933-3.27,3.921-4.677,5.95c-7.485,10.801-10.88,22.683-12.312,32.731l51.056,24.801v-5.924
		C554.22,426.24,551.782,410.247,560.756,398.672z"/>
	<path id="r204" fill="#5A5A5A" stroke="#494949" stroke-miterlimit="10" d="M590.551,343.099c-5.629,0-10.89,0.28-15.831,0.793
		v45.209c4.103-1.348,8.991-2.135,14.832-2.135c3.793,0,7.164,0,10.168,0v-43.867C596.965,343.099,593.925,343.099,590.551,343.099z
		"/>
	<path id="r205" fill="#5A5A5A" stroke="#494949" stroke-miterlimit="10" d="M622.72,343.099c0,0-5.546,0-23,0v43.867
		c15.83,0,21.324,0,23,0V343.099z"/>
	<path id="marks-spencer" fill="#5A5A5A" stroke="#494949" stroke-miterlimit="10" d="M502.209,774.24h68.511v-5h8v-27h-8v-26h9v-26
		h-8v-27h7v-27.5h-7v-23h6.5v-29.5h-5.5c0,0,0-6.5,0-12c31.739-14.648,40.858-37.127,41.195-57.604v-2.396H502.806L502.209,774.24z"
		/>
	<polygon id="women-s-bag" fill="#5A5A5A" stroke="#494949" stroke-miterlimit="10" points="296.554,806.615 296.554,684.574 
		117.22,684.574 117.22,685.24 108.72,685.24 108.72,713.24 116.22,713.24 116.22,742.24 108.72,742.24 108.72,767.74 
		116.22,767.74 116.22,798.24 108.72,798.24 108.72,824.24 111.552,824.24 111.552,844.74 126.97,844.74 126.97,868.99 
		153.72,895.74 177.72,895.74 177.72,905.24 197.72,905.24 197.72,914.24 226.72,914.24 226.72,906.24 251.22,906.24 251.22,914.24 
		281.72,914.24 281.72,906.24 296.887,906.24 296.887,806.615 	"/>
	<polygon id="women-s-shoes" fill="#5A5A5A" stroke="#494949" stroke-miterlimit="10" points="347.22,806.244 347.22,806.615 
		296.887,806.615 296.887,906.24 307.72,906.24 307.72,914.24 335.72,914.24 335.72,905.74 361.72,905.74 361.72,914.24 
		388.22,914.24 388.22,906.74 417.72,906.74 417.72,914.24 446.22,914.24 446.22,906.74 472.22,906.74 472.22,914.24 500.72,914.24 
		500.72,907.74 502.221,907.74 502.221,806.244 	"/>
	<g id="jewelry">
		<polygon fill="#5A5A5A" stroke="#494949" stroke-miterlimit="10" points="571.72,850.24 571.72,823.74 578.72,823.74 
			578.72,796.74 570.72,796.74 570.72,774.24 502.221,774.24 502.221,806.244 502.221,806.244 502.221,907.74 527.72,907.74 
			527.72,914.24 554.72,914.24 554.72,908.74 572.22,908.74 572.22,878.74 579.22,878.74 579.22,850.24 		"/>
		<rect x="347.22" y="555.576" fill="#5A5A5A" stroke="#494949" stroke-miterlimit="10" width="109" height="128.998"/>
	</g>
	<g id="women-s-wear_1_">
		<polygon fill="#5A5A5A" stroke="#494949" stroke-miterlimit="10" points="502.806,472.24 456.22,472.24 456.22,684.574 
			347.22,684.574 347.22,806.244 502.221,806.244 		"/>
		<polygon fill="#5A5A5A" stroke="#494949" stroke-miterlimit="10" points="395.97,436.241 388.22,436.241 388.22,439.574 
			368.97,439.574 368.97,436.241 332.47,436.241 332.47,439.574 311.22,439.574 311.22,436.241 277.22,436.241 277.22,439.574 
			256.886,439.574 256.886,436.241 221.552,436.241 221.552,439.574 200.886,439.574 200.886,436.241 165.552,436.241 
			165.552,439.574 144.219,439.574 144.219,436.241 111.552,436.241 111.72,460.24 108.72,460.24 108.72,487.74 116.72,487.74 
			116.72,517.24 108.72,517.24 108.72,545.24 114.72,545.24 114.72,574.24 108.72,574.24 108.72,601.24 115.72,601.24 
			115.72,629.74 108.72,629.74 108.72,656.24 117.22,656.24 117.22,684.574 249.317,684.574 249.317,555.576 335.47,555.576 
			335.47,483.74 395.97,483.74 		"/>
	</g>
	
		<rect id="sunglasses" x="249.317" y="555.576" fill="#5A5A5A" stroke="#494949" stroke-miterlimit="10" width="47.236" height="128.998"/>
	<path id="r207" fill="#5A5A5A" stroke="#494949" stroke-miterlimit="10" d="M622.72,112.24v151.5h72.5v-50.567
		c-15.815-2.192-28-15.761-28-32.183c0-16.421,12.185-29.99,28-32.183v-0.567h182.565v-36H622.72z"/>
</g>
<g id="signs">
	<rect id="lift" x="314.887" y="483.74" width="45" height="45"/>
	<g id="escalator">
		<rect id="escalator-1" x="792.47" y="235.74" width="45" height="45"/>
		<rect id="escalator-2" x="299.387" y="635.74" width="45" height="45"/>
	</g>
	<rect id="entrance" x="855.286" y="326.211" width="45" height="45"/>
	<rect id="atm" x="394.22" y="468.157" width="45" height="45"/>
	<rect id="telephone" x="365.22" y="488.74" width="45" height="45"/>
	<rect id="toilet" x="365.22" y="455.532" width="45" height="45"/>
</g>
</svg>
