<?xml version="1.0" encoding="utf-8"?>
<!-- Generator: Adobe Illustrator 16.0.0, SVG Export Plug-In . SVG Version: 6.00 Build 0)  -->
<!DOCTYPE svg PUBLIC "-//W3C//DTD SVG 1.1//EN" "http://www.w3.org/Graphics/SVG/1.1/DTD/svg11.dtd">
<svg version="1.1" id="Layer_1" xmlns="http://www.w3.org/2000/svg" xmlns:xlink="http://www.w3.org/1999/xlink" x="0px" y="0px"
	 width="1152.121px" height="1008.101px" viewBox="0 0 1152.121 1008.101" enable-background="new 0 0 1152.121 1008.101"
	 xml:space="preserve">
<g id="background">
</g>
<g id="etc">
	<path fill="#CECECE" stroke="#494949" stroke-miterlimit="10" d="M412.72,263.74v172.501h-24.5v3.333h-19.25v-3.333h-36.5v3.333
		h-21.25v-3.333h-34v3.333h-20.334v-3.333h-35.333v3.333h-20.667v-3.333h-35.333v3.333H144.22v-3.333h-32.667l0.168,23.999h-3v27.5
		h8v29.5h-8v28h6v29h-6v27h7v28.5h-7v26.5h8.5v29h-8.5v28h7.5v29h-7.5v25.5h7.5v30.5h-7.5v26h2.832v20.5h15.418v24.25l26.75,26.75
		h24v9.5h20v9h29v-8h24.5v8h30.5v-8h26v8h28v-8.5h26v8.5h26.5v-7.5h29.5v7.5h28.5v-7.5h26v7.5h28.5v-6.5h27v6.5h27v-5.5h17.5v-30h7
		v-28.5h-7.5v-26.5h7v-27h-8v-27.5h8v-27h-8v-26h9v-26h-8v-27h7v-27.5h-7v-23h6.5v-29.5h-5.5c0,0,0-6.5,0-12
		c71.5-33,28.25-105.75,28.25-105.75l13.75-13.75v-46h8v-142H412.72z"/>
	<g>
		<rect x="296.554" y="631.906" fill="#A3A3A3" stroke="#494949" stroke-miterlimit="10" width="50.667" height="52.668"/>
		<rect x="300.22" y="623.906" fill="#A3A3A3" stroke="#494949" stroke-miterlimit="10" width="11" height="71"/>
		<rect x="332.22" y="623.906" fill="#A3A3A3" stroke="#494949" stroke-miterlimit="10" width="10.333" height="71"/>
	</g>
	<g>
		<rect x="335.47" y="483.74" fill="#A3A3A3" stroke="#494949" stroke-miterlimit="10" width="60.5" height="71.835"/>
		<rect x="379.47" y="483.74" fill="#A3A3A3" stroke="#494949" stroke-miterlimit="10" width="16.5" height="13.834"/>
		<rect x="379.47" y="497.574" fill="#A3A3A3" stroke="#494949" stroke-miterlimit="10" width="16.5" height="13.666"/>
		<rect x="364.47" y="526.24" fill="#A3A3A3" stroke="#494949" stroke-miterlimit="10" width="31.5" height="15.5"/>
		<line fill="none" stroke="#494949" stroke-miterlimit="10" x1="335.47" y1="541.74" x2="395.97" y2="541.74"/>
		<rect x="377.47" y="511.24" fill="#A3A3A3" stroke="#494949" stroke-miterlimit="10" width="18.5" height="15"/>
	</g>
</g>
<g id="rooms">
	<rect id="r501" x="412.72" y="524.24" fill="#5A5A5A" stroke="#494949" stroke-miterlimit="10" width="35.5" height="46"/>
	<path id="power-buy" fill="#5A5A5A" stroke="#494949" stroke-miterlimit="10" d="M622.72,263.74h-210v116.5v25.5v16.5v14.001
		v87.999h35.5v46h126.574c68.553-33.441,26.176-104.75,26.176-104.75l13.75-13.75v-29.5v-16.5h8V263.74z"/>
	
		<rect id="houseware" x="132.22" y="555.576" fill="#5A5A5A" stroke="#494949" stroke-miterlimit="10" width="164.333" height="100.975"/>
	
		<rect id="lighting" x="132.22" y="656.55" fill="#5A5A5A" stroke="#494949" stroke-miterlimit="10" width="164.333" height="92.189"/>
	<polygon id="small-applicances" fill="#5A5A5A" stroke="#494949" stroke-miterlimit="10" points="177.554,850.24 177.762,895.74 
		177.72,895.74 177.72,905.24 197.72,905.24 197.72,914.24 226.72,914.24 226.72,906.24 251.22,906.24 251.22,914.24 281.72,914.24 
		281.72,906.24 296.554,906.24 296.554,748.74 132.22,748.74 132.22,850.24 	"/>
	<polygon id="mattress" fill="#5A5A5A" stroke="#494949" stroke-miterlimit="10" points="474.22,742.24 474.22,914.24 
		500.72,914.24 500.72,907.74 527.72,907.74 527.72,914.24 533.22,914.24 533.22,742.24 	"/>
	
		<rect id="auto-accessories" x="474.22" y="570.24" fill="#5A5A5A" stroke="#494949" stroke-miterlimit="10" width="59" height="172"/>
	<polygon id="gift-registry" fill="#5A5A5A" stroke="#494949" stroke-miterlimit="10" points="388.22,850.24 388.22,906.74 
		417.72,906.74 417.72,914.24 446.22,914.24 446.22,906.74 472.22,906.74 472.22,914.24 474.22,914.24 474.22,850.24 	"/>
	<polygon id="artificial-flowers" fill="#5A5A5A" stroke="#494949" stroke-miterlimit="10" points="296.554,850.24 296.554,906.24 
		307.72,906.24 307.72,914.24 335.72,914.24 335.72,905.74 361.72,905.74 361.72,914.24 388.22,914.24 388.22,906.74 388.22,850.24 
			"/>
	
		<rect id="bath-and-towels" x="347.22" y="631.906" fill="#5A5A5A" stroke="#494949" stroke-miterlimit="10" width="127" height="110.334"/>
	
		<rect id="thai-handicrafts" x="347.22" y="742.24" fill="#5A5A5A" stroke="#494949" stroke-miterlimit="10" width="127" height="108"/>
	
		<rect id="china-silver-crystal" x="296.554" y="725.24" fill="#5A5A5A" stroke="#494949" stroke-miterlimit="10" width="50.667" height="62"/>
	<g id="linen-domestics">
		<rect x="148.22" y="467.24" fill="#5A5A5A" stroke="#494949" stroke-miterlimit="10" width="187.25" height="88.335"/>
		<rect x="296.554" y="787.24" fill="#5A5A5A" stroke="#494949" stroke-miterlimit="10" width="50.667" height="63"/>
	</g>
</g>
<g id="signs">
	<rect id="lift" x="314.887" y="483.74" width="45" height="45"/>
	<rect id="escalator" x="299.387" y="635.74" width="45" height="45"/>
	<rect id="toilet" x="365.22" y="455.532" width="45" height="45"/>
	<rect id="telephone" x="365.22" y="488.74" width="45" height="45"/>
</g>
</svg>
