<?xml version="1.0" encoding="utf-8"?>
<!-- Generator: Adobe Illustrator 16.0.0, SVG Export Plug-In . SVG Version: 6.00 Build 0)  -->
<!DOCTYPE svg PUBLIC "-//W3C//DTD SVG 1.1//EN" "http://www.w3.org/Graphics/SVG/1.1/DTD/svg11.dtd">
<svg version="1.1" id="Layer_1" xmlns="http://www.w3.org/2000/svg" xmlns:xlink="http://www.w3.org/1999/xlink" x="0px" y="0px"
	 width="1152.121px" height="1008.101px" viewBox="0 0 1152.121 1008.101" enable-background="new 0 0 1152.121 1008.101"
	 xml:space="preserve">
<g id="brackground">
</g>
<g id="etc">
	<path fill="#CECECE" stroke="#494949" stroke-miterlimit="10" d="M412.72,263.74v172.501h-24.5v3.333h-19.25v-3.333h-36.5v3.333
		h-21.25v-3.333h-34v3.333h-20.334v-3.333h-35.333v3.333h-20.667v-3.333h-35.333v3.333H144.22v-3.333h-32.667l0.168,23.999h-3v27.5
		h8v29.5h-8v28h6v29h-6v27h7v28.5h-7v26.5h8.5v29h-8.5v28h7.5v29h-7.5v25.5h7.5v30.5h-7.5v26h2.832v20.5h15.418v24.25l26.75,26.75
		h24v9.5h20v9h29v-8h24.5v8h30.5v-8h26v8h28v-8.5h26v8.5h26.5v-7.5h29.5v7.5h28.5v-7.5h26v7.5h28.5v-6.5h27v6.5h27v-5.5h17.5v-30h7
		v-28.5h-7.5v-26.5h7v-27h-8v-27.5h8v-27h-8v-26h9v-26h-8v-27h7v-27.5h-7v-23h6.5v-29.5h-5.5c0,0,0-6.5,0-12
		c71.5-33,28.25-105.75,28.25-105.75l13.75-13.75v-46h8v-142H412.72z"/>
	<g>
		<rect x="296.554" y="631.906" fill="#A3A3A3" stroke="#494949" stroke-miterlimit="10" width="50.667" height="52.668"/>
		<rect x="300.22" y="623.906" fill="#A3A3A3" stroke="#494949" stroke-miterlimit="10" width="11" height="71"/>
		<rect x="332.22" y="623.906" fill="#A3A3A3" stroke="#494949" stroke-miterlimit="10" width="10.333" height="71"/>
	</g>
	<g>
		<rect x="335.47" y="483.74" fill="#A3A3A3" stroke="#494949" stroke-miterlimit="10" width="60.5" height="71.835"/>
		<rect x="379.47" y="483.74" fill="#A3A3A3" stroke="#494949" stroke-miterlimit="10" width="16.5" height="13.834"/>
		<rect x="379.47" y="497.574" fill="#A3A3A3" stroke="#494949" stroke-miterlimit="10" width="16.5" height="13.666"/>
		<rect x="364.47" y="526.24" fill="#A3A3A3" stroke="#494949" stroke-miterlimit="10" width="31.5" height="15.5"/>
		<line fill="none" stroke="#494949" stroke-miterlimit="10" x1="335.47" y1="541.74" x2="395.97" y2="541.74"/>
		<rect x="377.47" y="511.24" fill="#A3A3A3" stroke="#494949" stroke-miterlimit="10" width="18.5" height="15"/>
	</g>
</g>
<g id="rooms">
	<rect id="b2s" x="249.72" y="728.74" fill="#5A5A5A" stroke="#494949" stroke-miterlimit="10" width="252.5" height="128.5"/>
	<rect id="r701" x="196.82" y="483.74" fill="#5A5A5A" stroke="#494949" stroke-miterlimit="10" width="99.733" height="32.5"/>
	<rect id="luggage" x="175.22" y="630.74" fill="#5A5A5A" stroke="#494949" stroke-miterlimit="10" width="121.333" height="98"/>
	<rect id="zeenzone" x="175.22" y="728.74" fill="#5A5A5A" stroke="#494949" stroke-miterlimit="10" width="74.5" height="128.5"/>
	<path id="foodloft" fill="#5A5A5A" stroke="#494949" stroke-miterlimit="10" d="M412.72,436.241l1.334,292.499H570.72v-12.5h9v-26
		h-8v-27h7v-27.5h-7v-23h6.5v-29.5h-5.5c0,0,0-6.5,0-12c71.5-33,28.25-105.75,28.25-105.75l13.75-13.75v-46h8v-142h-210V436.241
		L412.72,436.241z"/>
	<polygon id="r703" fill="#5A5A5A" stroke="#494949" stroke-miterlimit="10" points="175.22,436.241 165.552,436.241 
		165.552,439.574 144.219,439.574 144.219,436.241 111.552,436.241 111.72,460.24 108.72,460.24 108.72,487.74 116.72,487.74 
		116.72,517.24 108.72,517.24 108.72,545.24 114.72,545.24 114.72,574.24 175.22,574.24 	"/>
	<polygon id="western-union" fill="#5A5A5A" stroke="#494949" stroke-miterlimit="10" points="175.22,574.24 114.72,574.24 
		108.72,574.24 108.72,601.24 115.72,601.24 115.72,629.74 108.72,629.74 108.72,639.55 175.22,639.55 	"/>
	<polygon id="r702" fill="#5A5A5A" stroke="#494949" stroke-miterlimit="10" points="412.72,436.241 388.22,436.241 388.22,439.574 
		368.97,439.574 368.97,436.241 332.47,436.241 332.47,439.574 311.22,439.574 311.22,436.241 277.22,436.241 277.22,439.574 
		256.886,439.574 256.886,436.241 221.552,436.241 221.552,439.574 200.886,439.574 200.886,436.241 175.054,436.241 
		175.054,483.74 412.938,483.74 	"/>
</g>
<g id="signs">
	<rect id="lift" x="314.887" y="483.74" width="45" height="45"/>
	<rect id="escalator" x="299.387" y="635.74" width="45" height="45"/>
	<rect id="toilet" x="364.296" y="468.764" width="45" height="45"/>
	<rect id="telephone" x="365.22" y="488.74" width="45" height="45"/>
	<g id="atm_2_">
		<rect id="atm-2" x="364.22" y="512.49" width="45" height="45"/>
		<rect id="atm-1" x="431.22" y="288.49" width="45" height="45"/>
	</g>
</g>
</svg>
