<?xml version="1.0" encoding="utf-8"?>
<!-- Generator: Adobe Illustrator 16.0.0, SVG Export Plug-In . SVG Version: 6.00 Build 0)  -->
<!DOCTYPE svg PUBLIC "-//W3C//DTD SVG 1.1//EN" "http://www.w3.org/Graphics/SVG/1.1/DTD/svg11.dtd">
<svg version="1.1" id="Layer_1" xmlns="http://www.w3.org/2000/svg" xmlns:xlink="http://www.w3.org/1999/xlink" x="0px" y="0px"
	 width="1152.121px" height="1008.101px" viewBox="0 0 1152.121 1008.101" enable-background="new 0 0 1152.121 1008.101"
	 xml:space="preserve">
<g id="background">
</g>
<g id="etc">
	<path fill="#CECECE" stroke="#494949" stroke-miterlimit="10" d="M412.72,263.74v172.501h-24.5v3.333h-19.25v-3.333h-36.5v3.333
		h-21.25v-3.333h-34v3.333h-20.334v-3.333h-35.333v3.333h-20.667v-3.333h-35.333v3.333H144.22v-3.333h-32.667l0.168,23.999h-3v27.5
		h8v29.5h-8v28h6v29h-6v27h7v28.5h-7v26.5h8.5v29h-8.5v28h7.5v29h-7.5v25.5h7.5v30.5h-7.5v26h2.832v20.5h15.418v24.25l26.75,26.75
		h24v9.5h20v9h29v-8h24.5v8h30.5v-8h26v8h28v-8.5h26v8.5h26.5v-7.5h29.5v7.5h28.5v-7.5h26v7.5h28.5v-6.5h27v6.5h27v-5.5h17.5v-30h7
		v-28.5h-7.5v-26.5h7v-27h-8v-27.5h8v-27h-8v-26h9v-26h-8v-27h7v-27.5h-7v-23h6.5v-29.5h-5.5c0,0,0-6.5,0-12
		c71.5-33,28.25-105.75,28.25-105.75l13.75-13.75v-46h8v-142H412.72z"/>
	<g>
		<rect x="296.554" y="631.906" fill="#A3A3A3" stroke="#494949" stroke-miterlimit="10" width="50.667" height="52.668"/>
		<rect x="300.22" y="623.906" fill="#A3A3A3" stroke="#494949" stroke-miterlimit="10" width="11" height="71"/>
		<rect x="332.22" y="623.906" fill="#A3A3A3" stroke="#494949" stroke-miterlimit="10" width="10.333" height="71"/>
	</g>
	<g>
		<rect x="335.47" y="483.74" fill="#A3A3A3" stroke="#494949" stroke-miterlimit="10" width="60.5" height="71.835"/>
		<rect x="379.47" y="483.74" fill="#A3A3A3" stroke="#494949" stroke-miterlimit="10" width="16.5" height="13.834"/>
		<rect x="379.47" y="497.574" fill="#A3A3A3" stroke="#494949" stroke-miterlimit="10" width="16.5" height="13.666"/>
		<rect x="364.47" y="526.24" fill="#A3A3A3" stroke="#494949" stroke-miterlimit="10" width="31.5" height="15.5"/>
		<line fill="none" stroke="#494949" stroke-miterlimit="10" x1="335.47" y1="541.74" x2="395.97" y2="541.74"/>
		<rect x="377.47" y="511.24" fill="#A3A3A3" stroke="#494949" stroke-miterlimit="10" width="18.5" height="15"/>
	</g>
</g>
<g id="rooms">
	
		<rect id="central-friendly-land" x="412.721" y="263.74" fill="#5A5A5A" stroke="#494949" stroke-miterlimit="10" width="134.5" height="69.5"/>
	
		<rect id="central-workshop" x="547.221" y="263.74" fill="#5A5A5A" stroke="#494949" stroke-miterlimit="10" width="75.5" height="69.5"/>
	
		<rect id="luxe-kids" x="347.221" y="555.576" fill="#5A5A5A" stroke="#494949" stroke-miterlimit="10" width="131.25" height="128.998"/>
	
		<rect id="build-a-bear-workshop" x="412.721" y="333.24" fill="#5A5A5A" stroke="#494949" stroke-miterlimit="10" width="48.875" height="112.247"/>
	
		<rect id="sanrio" x="412.721" y="445.487" fill="#5A5A5A" stroke="#494949" stroke-miterlimit="10" width="48.875" height="110.088"/>
	<path id="central-kids-club" fill="#5A5A5A" stroke="#494949" stroke-miterlimit="10" d="M600.971,465.49l13.75-13.75v-46h-67.5
		v105.5h66.695C613.514,486.604,600.971,465.49,600.971,465.49z"/>
	<path id="toys" fill="#5A5A5A" stroke="#494949" stroke-miterlimit="10" d="M547.221,511.24v-74.999V333.24h-85.625v222.335h16.875
		v15.414h94.771c32.542-15.23,41.018-38.768,40.677-59.744c0-0.002,0-0.004,0-0.006H547.221L547.221,511.24z"/>
	
		<rect id="needle-world" x="159.221" y="497.574" fill="#5A5A5A" stroke="#494949" stroke-miterlimit="10" width="52" height="50.666"/>
	<polygon id="r601" fill="#5A5A5A" stroke="#494949" stroke-miterlimit="10" points="262.818,439.574 256.887,439.574 
		256.887,436.241 221.553,436.241 221.553,439.574 200.887,439.574 200.887,436.241 165.553,436.241 165.553,439.574 
		144.22,439.574 144.22,436.241 111.553,436.241 111.721,460.24 108.721,460.24 108.721,487.74 116.721,487.74 116.721,497.574 
		262.818,497.574 	"/>
	<polygon id="children-s-shoes" fill="#5A5A5A" stroke="#494949" stroke-miterlimit="10" points="404.221,812.24 290.221,812.24 
		290.221,906.24 307.721,906.24 307.721,914.24 335.721,914.24 335.721,905.74 361.721,905.74 361.721,914.24 388.221,914.24 
		388.221,906.74 404.221,906.74 	"/>
	<polygon id="mothercare" fill="#5A5A5A" stroke="#494949" stroke-miterlimit="10" points="404.221,812.55 404.221,866.24 
		533.328,866.24 552.221,825.318 552.221,812.55 	"/>
	<g id="children-s-wear">
		<polygon fill="#5A5A5A" stroke="#494949" stroke-miterlimit="10" points="290.221,725.24 116.221,725.24 116.221,742.24 
			108.721,742.24 108.721,767.74 116.221,767.74 116.221,798.24 108.721,798.24 108.721,824.24 111.553,824.24 111.553,825.318 
			163.221,825.318 163.221,866.24 290.221,866.24 		"/>
		<polygon fill="#5A5A5A" stroke="#494949" stroke-miterlimit="10" points="552.221,612.74 578.221,612.74 578.221,583.24 
			572.721,583.24 572.721,570.99 478.471,570.99 478.471,684.574 290.221,684.574 290.221,812.24 404.221,812.24 404.221,812.55 
			552.221,812.55 		"/>
	</g>
	<polygon id="lingerie-swimwear" fill="#5A5A5A" stroke="#494949" stroke-miterlimit="10" points="116.221,725.24 290.221,725.24 
		290.221,684.574 296.555,684.574 296.555,631.906 347.221,631.906 347.221,555.576 335.471,555.576 335.471,483.74 412.721,483.74 
		412.721,436.241 388.221,436.241 388.221,439.574 368.971,439.574 368.971,436.241 332.471,436.241 332.471,439.574 
		311.221,439.574 311.221,436.241 277.221,436.241 277.221,439.574 262.818,439.574 262.818,497.574 211.221,497.574 
		211.221,548.24 159.221,548.24 159.221,635.74 108.721,635.74 108.721,656.24 117.221,656.24 117.221,685.24 108.721,685.24 
		108.721,713.24 116.221,713.24 	"/>
</g>
<g id="signs">
	<rect id="lift" x="314.887" y="483.74" width="45" height="45"/>
	<rect id="escalator" x="299.387" y="635.74" width="45" height="45"/>
	<rect id="toilet" x="365.22" y="455.532" width="45" height="45"/>
	<rect id="telephone" x="365.22" y="488.74" width="45" height="45"/>
	<rect id="prayer-room" x="562.47" y="346.364" width="45" height="45"/>
</g>
</svg>
