<?xml version="1.0" encoding="utf-8"?>
<!-- Generator: Adobe Illustrator 16.0.0, SVG Export Plug-In . SVG Version: 6.00 Build 0)  -->
<!DOCTYPE svg PUBLIC "-//W3C//DTD SVG 1.1//EN" "http://www.w3.org/Graphics/SVG/1.1/DTD/svg11.dtd">
<svg version="1.1" id="Layer_1" xmlns="http://www.w3.org/2000/svg" xmlns:xlink="http://www.w3.org/1999/xlink" x="0px" y="0px"
	 width="1152.117px" height="1008.101px" viewBox="0 0 1152.117 1008.101" enable-background="new 0 0 1152.117 1008.101"
	 xml:space="preserve">
<g id="background">
</g>
<g id="etc">
	<path fill="#CECECE" stroke="#494949" stroke-miterlimit="10" d="M111.551,436.24h32.667v3.333h21.333v-3.333h35.333v3.333h20.667
		v-3.333h35.333v3.333h20.334v-3.333h34v3.333h21.25v-3.333h36.5v3.333h19.25v-3.333h24.5v-172.5h210v142h-8v46l-13.75,13.75
		c0,0,43.25,72.75-28.25,105.75c0,5.5,0,12,0,12h5.5v29.5h-6.5v23h7v27.5h-7v27h8v26h-9v26h8v27h-8v27.5h8v27h-7v26.5h7.5v28.5h-7
		v30h-17.5v5.5h-27v-6.5h-27v6.5h-28.5v-7.5h-26v7.5h-28.5v-7.5h-29.5v7.5h-26.5v-8.5h-26v8.5h-28v-8h-26v8h-30.5v-8h-24.5v8h-29v-9
		h-20v-9.5h-24l-26.75-26.75v-24.25H111.55v-20.5h-2.832v-26h7.5v-30.5h-7.5v-25.5h7.5v-29h-7.5v-28h8.5v-29h-8.5v-26.5h7v-28.5h-7
		v-27h6v-29h-6v-28h8v-29.5h-8v-27.5h3L111.551,436.24z"/>
	<rect x="622.718" y="112.24" fill="#CECECE" stroke="#494949" stroke-miterlimit="10" width="429.5" height="292"/>
	<g>
		<rect x="335.469" y="483.74" fill="#A3A3A3" stroke="#494949" stroke-miterlimit="10" width="60.5" height="71.835"/>
		<rect x="379.469" y="483.74" fill="#A3A3A3" stroke="#494949" stroke-miterlimit="10" width="16.5" height="13.833"/>
		<rect x="379.469" y="497.573" fill="#A3A3A3" stroke="#494949" stroke-miterlimit="10" width="16.5" height="13.667"/>
		<rect x="364.469" y="526.24" fill="#A3A3A3" stroke="#494949" stroke-miterlimit="10" width="31.5" height="15.5"/>
		<line fill="none" stroke="#494949" stroke-miterlimit="10" x1="335.469" y1="541.74" x2="395.969" y2="541.74"/>
		<rect x="377.469" y="511.24" fill="#A3A3A3" stroke="#494949" stroke-miterlimit="10" width="18.5" height="15"/>
	</g>
	<g>
		<rect x="296.553" y="631.906" fill="#A3A3A3" stroke="#494949" stroke-miterlimit="10" width="50.667" height="52.668"/>
		<rect x="300.219" y="623.906" fill="#A3A3A3" stroke="#494949" stroke-miterlimit="10" width="11" height="71"/>
		<rect x="332.219" y="623.906" fill="#A3A3A3" stroke="#494949" stroke-miterlimit="10" width="10.333" height="71"/>
	</g>
</g>
<g id="rooms">
	<path id="r115" fill="#5B5B5B" stroke="#494949" stroke-miterlimit="10" d="M578.718,663.24v-27.5h-7v-23h6.5v-29.5h-5.5
		c0,0,0-2.652,0-6h-67.5v96v5h66.5v-15H578.718z"/>
	<polygon id="r103" fill="#5B5B5B" stroke="#494949" stroke-miterlimit="10" points="182.219,769.24 182.219,742.24 116.219,742.24 
		108.719,742.24 108.719,767.74 116.219,767.74 116.219,769.24 116.219,780.24 182.219,780.24 	"/>
	<polygon id="r104" fill="#5B5B5B" stroke="#494949" stroke-miterlimit="10" points="182.219,796.24 182.219,780.24 116.219,780.24 
		116.219,796.24 116.219,798.24 108.719,798.24 108.719,814.24 182.219,814.24 	"/>
	<polygon id="r105" fill="#5B5B5B" stroke="#494949" stroke-miterlimit="10" points="108.719,814.24 108.719,824.24 111.551,824.24 
		111.551,844.74 126.969,844.74 126.969,845.24 182.219,845.24 182.219,814.24 	"/>
	<polygon id="r106" fill="#5B5B5B" stroke="#494949" stroke-miterlimit="10" points="182.219,846.24 182.219,845.24 126.969,845.24 
		126.969,868.99 153.719,895.74 177.719,895.74 177.719,905.24 197.719,905.24 197.719,914.24 226.219,914.24 226.219,846.24 	"/>
	<polygon id="r107" fill="#5B5B5B" stroke="#494949" stroke-miterlimit="10" points="226.219,846.24 226.219,914.24 226.719,914.24 
		226.719,906.24 251.219,906.24 251.219,914.24 281.719,914.24 281.719,906.24 296.219,906.24 296.219,846.24 	"/>
	<polygon id="r108" fill="#5B5B5B" stroke="#494949" stroke-miterlimit="10" points="346.219,846.24 346.219,905.74 361.719,905.74 
		361.719,914.24 388.219,914.24 388.219,906.74 417.719,906.74 417.719,914.24 425.219,914.24 425.219,846.24 	"/>
	<polygon id="r109" fill="#5B5B5B" stroke="#494949" stroke-miterlimit="10" points="425.219,846.24 425.219,914.24 446.219,914.24 
		446.219,906.74 472.219,906.74 472.219,914.24 491.219,914.24 491.219,846.24 485.219,846.24 	"/>
	<polygon id="r111" fill="#5B5B5B" stroke="#494949" stroke-miterlimit="10" points="571.719,846.24 510.219,846.24 491.219,846.24 
		491.219,914.24 500.719,914.24 500.719,907.74 527.719,907.74 527.719,914.24 554.719,914.24 554.719,908.74 572.219,908.74 
		572.219,878.74 579.218,878.74 579.218,850.24 571.719,850.24 	"/>
	<polygon id="r114" fill="#5B5B5B" stroke="#494949" stroke-miterlimit="10" points="570.719,769.24 578.718,769.24 
		578.718,742.24 570.719,742.24 510.219,742.24 510.219,780.24 570.719,780.24 	"/>
	<polygon id="r113" fill="#5B5B5B" stroke="#494949" stroke-miterlimit="10" points="578.718,796.74 570.719,796.74 570.719,780.24 
		510.219,780.24 510.219,813.24 578.718,813.24 	"/>
	<polygon id="r112" fill="#5B5B5B" stroke="#494949" stroke-miterlimit="10" points="510.219,813.24 510.219,846.24 571.719,846.24 
		571.719,823.74 578.718,823.74 578.718,813.24 	"/>
	<polygon id="r101" fill="#5B5B5B" stroke="#494949" stroke-miterlimit="10" points="181.219,503.24 116.719,503.24 116.719,517.24 
		108.719,517.24 108.719,545.24 114.719,545.24 114.719,574.24 108.719,574.24 108.719,581.24 181.219,581.24 	"/>
	<polygon id="r102" fill="#5B5B5B" stroke="#494949" stroke-miterlimit="10" points="108.719,581.24 108.719,601.24 115.719,601.24 
		115.719,629.74 108.719,629.74 108.719,656.24 117.219,656.24 181.219,656.24 181.219,581.24 	"/>
	<rect id="take-home" x="896.218" y="195.74" fill="#5B5B5B" stroke="#494949" stroke-miterlimit="10" width="125" height="125"/>
	<polygon id="luxe-galerie" fill="#5B5B5B" stroke="#494949" stroke-miterlimit="10" points="510.219,846.24 346.22,846.24 
		346.219,905.74 335.72,905.845 335.719,914.24 307.719,914.24 307.72,906.125 296.219,906.24 296.219,846.24 182.219,846.24 
		182.219,742.24 510.219,742.24 	"/>
	<polygon id="fragrance" fill="#5B5B5B" stroke="#494949" stroke-miterlimit="10" points="614.718,428.24 465.219,428.24 
		465.219,304.24 622.718,304.24 622.718,405.74 614.718,405.739 	"/>
	
		<rect id="central-food-hall" x="622.718" y="112.24" fill="#5B5B5B" stroke="#494949" stroke-miterlimit="10" width="198.841" height="192"/>
	<rect id="r116" x="1021.218" y="112.24" fill="#5B5B5B" stroke="#494949" stroke-miterlimit="10" width="31" height="105.31"/>
	<rect id="r117" x="1021.218" y="217.55" fill="#5B5B5B" stroke="#494949" stroke-miterlimit="10" width="31" height="103.19"/>
	<path id="beauty-galerie" fill="#5B5B5B" stroke="#494949" stroke-miterlimit="10" d="M614.718,428.24h-202v8h-24.5v3.333h-19.25
		v-3.333h-36.5v3.333h-21.25v-3.333h-34v3.333h-20.334v-3.333h-35.333v3.333h-20.667v-3.333h-19.666v220h115.333v-24.334h2.833v-8
		h11.833v8h21v-8h10.333v8h4.667v24.334h158v-79h67.5c0-1.896,0-4.012,0-6c71.5-33,28.25-105.75,28.25-105.75l13.75-13.75
		L614.718,428.24z M395.969,497.573v13.667v15v15.5v13.836h-60.5V483.74h44h16.5V497.573z"/>
	<rect id="jewelry" x="408.219" y="533.99" fill="#5B5B5B" stroke="#494949" stroke-miterlimit="10" width="34" height="21.166"/>
</g>
<g id="signs">
	<g id="entrance">
		<rect id="entrance-4" x="729.218" y="89.74" width="45" height="45"/>
		<rect id="entrance-3" x="299.386" y="879.74" width="45" height="45"/>
		<rect id="entrance-2" x="556.219" y="684.574" width="45" height="45"/>
		<rect id="entrance-1" x="104.469" y="684.574" width="45" height="45"/>
	</g>
	<rect id="lift" x="314.886" y="483.74" width="45" height="45"/>
	<g id="escalator">
		<rect id="escalator-2" x="792.468" y="235.74" width="45" height="45"/>
		<rect id="escalator-1" x="299.386" y="635.74" width="45" height="45"/>
	</g>
	<rect id="atm" x="622.718" y="112.24" width="45" height="45"/>
	<g id="taxi">
		<rect id="taxi-2" x="22.745" y="684.574" width="45" height="45"/>
		<rect id="taxi-1" x="634.742" y="684.574" width="45" height="45"/>
		<rect id="taxi-3" x="634.742" y="757.74" width="45" height="45"/>
	</g>
</g>
</svg>
