<?xml version="1.0" encoding="utf-8"?>
<!-- Generator: Adobe Illustrator 16.0.0, SVG Export Plug-In . SVG Version: 6.00 Build 0)  -->
<!DOCTYPE svg PUBLIC "-//W3C//DTD SVG 1.1//EN" "http://www.w3.org/Graphics/SVG/1.1/DTD/svg11.dtd">
<svg version="1.1" id="Layer_1" xmlns="http://www.w3.org/2000/svg" xmlns:xlink="http://www.w3.org/1999/xlink" x="0px" y="0px"
	 width="1152.121px" height="1008.101px" viewBox="0 0 1152.121 1008.101" enable-background="new 0 0 1152.121 1008.101"
	 xml:space="preserve">
<g id="background">
</g>
<g id="etc">
	<path fill="#CECECE" stroke="#494949" stroke-miterlimit="10" d="M412.72,263.74v172.501h-24.5v3.333h-19.25v-3.333h-36.5v3.333
		h-21.25v-3.333h-34v3.333h-20.334v-3.333h-35.333v3.333h-20.667v-3.333h-35.333v3.333H144.22v-3.333h-32.667l0.168,23.999h-3v27.5
		h8v29.5h-8v28h6v29h-6v27h7v28.5h-7v26.5h8.5v29h-8.5v28h7.5v29h-7.5v25.5h7.5v30.5h-7.5v26h2.832v20.5h15.418v24.25l26.75,26.75
		h24v9.5h20v9h29v-8h24.5v8h30.5v-8h26v8h28v-8.5h26v8.5h26.5v-7.5h29.5v7.5h28.5v-7.5h26v7.5h28.5v-6.5h27v6.5h27v-5.5h17.5v-30h7
		v-28.5h-7.5v-26.5h7v-27h-8v-27.5h8v-27h-8v-26h9v-26h-8v-27h7v-27.5h-7v-23h6.5v-29.5h-5.5c0,0,0-6.5,0-12
		c71.5-33,28.25-105.75,28.25-105.75l13.75-13.75v-46h8v-142H412.72z"/>
	<g>
		<rect x="335.47" y="483.74" fill="#A3A3A3" stroke="#494949" stroke-miterlimit="10" width="60.5" height="71.835"/>
		<rect x="379.47" y="483.74" fill="#A3A3A3" stroke="#494949" stroke-miterlimit="10" width="16.5" height="13.834"/>
		<rect x="379.47" y="497.574" fill="#A3A3A3" stroke="#494949" stroke-miterlimit="10" width="16.5" height="13.666"/>
		<rect x="364.47" y="526.24" fill="#A3A3A3" stroke="#494949" stroke-miterlimit="10" width="31.5" height="15.5"/>
		<line fill="none" stroke="#494949" stroke-miterlimit="10" x1="335.47" y1="541.74" x2="395.97" y2="541.74"/>
		<rect x="377.47" y="511.24" fill="#A3A3A3" stroke="#494949" stroke-miterlimit="10" width="18.5" height="15"/>
	</g>
	<g>
		<rect x="296.554" y="631.906" fill="#A3A3A3" stroke="#494949" stroke-miterlimit="10" width="50.667" height="52.668"/>
		<rect x="300.22" y="623.906" fill="#A3A3A3" stroke="#494949" stroke-miterlimit="10" width="11" height="71"/>
		<rect x="332.22" y="623.906" fill="#A3A3A3" stroke="#494949" stroke-miterlimit="10" width="10.333" height="71"/>
	</g>
</g>
<g id="rooms">
	<polygon id="the-event-hall" fill="#5A5A5A" stroke="#494949" stroke-miterlimit="10" points="412.72,263.74 413.052,438.24 
		614.72,438.24 614.72,405.74 622.72,405.74 622.72,263.74 	"/>
	<path id="r311" fill="#5A5A5A" stroke="#494949" stroke-miterlimit="10" d="M614.72,438.24h-162.5v145c0,0,107-1,120.5,0
		c0,0,0-6.5,0-12c71.5-33,28.25-105.75,28.25-105.75l13.75-13.75V438.24z"/>
	<path id="muji" fill="#5A5A5A" stroke="#494949" stroke-miterlimit="10" d="M264.22,439.574h-7.334v-3.333h-35.333v3.333h-20.667
		v-3.333h-35.333v3.333H144.22v-3.333h-32.667l0.168,23.999h-3v27.5h8v29.5h-8v28h6v29h-6v27h7v17h148.5
		C264.22,618.24,264.22,485.482,264.22,439.574z"/>
	<polygon id="r304" fill="#5A5A5A" stroke="#494949" stroke-miterlimit="10" points="316.22,869.24 316.22,914.24 335.72,914.24 
		335.72,905.74 361.72,905.74 361.72,914.24 387.22,914.24 387.22,869.24 	"/>
	<polygon id="r305" fill="#5A5A5A" stroke="#494949" stroke-miterlimit="10" points="387.22,869.24 387.22,914.24 388.22,914.24 
		388.22,906.74 417.72,906.74 417.72,914.24 446.22,914.24 446.22,906.74 456.22,906.74 456.22,869.24 	"/>
	<polygon id="r306" fill="#5A5A5A" stroke="#494949" stroke-miterlimit="10" points="456.22,869.24 456.22,906.74 472.22,906.74 
		472.22,914.24 500.72,914.24 500.72,907.74 525.22,907.74 525.22,869.24 510.22,869.24 	"/>
	<polygon id="r310" fill="#5A5A5A" stroke="#494949" stroke-miterlimit="10" points="571.72,663.24 578.72,663.24 578.72,635.74 
		571.72,635.74 571.72,612.74 578.22,612.74 527.22,612.74 527.22,689.24 571.72,689.24 	"/>
	<polygon id="r309" fill="#5A5A5A" stroke="#494949" stroke-miterlimit="10" points="570.72,769.24 578.72,769.24 578.72,742.24 
		570.72,742.24 570.72,716.24 579.72,716.24 579.72,690.24 571.72,690.24 571.72,689.24 527.22,689.24 527.22,777.24 570.72,777.24 
			"/>
	<polygon id="r308" fill="#5A5A5A" stroke="#494949" stroke-miterlimit="10" points="571.72,823.74 578.72,823.74 578.72,796.74 
		570.72,796.74 570.72,777.24 527.22,777.24 527.22,869.24 579.22,869.24 579.22,850.24 571.72,850.24 	"/>
	<polygon id="r307" fill="#5A5A5A" stroke="#494949" stroke-miterlimit="10" points="527.22,869.24 525.22,869.24 525.22,907.74 
		527.22,907.74 527.72,907.74 527.72,914.24 554.72,914.24 554.72,908.74 572.22,908.74 572.22,878.74 579.22,878.74 579.22,869.24 
			"/>
	<path id="unisex-fashion" fill="#5A5A5A" stroke="#494949" stroke-miterlimit="10" d="M296.554,869.24v-251H115.72v11.5h-7v26.5
		h8.5v29h-8.5v28h7.5v29h-7.5v25.5h7.5v30.5h-7.5v26h2.832v20.5h15.418h38.25l12.25,12.25v38.75h0.25v9.5h20v9h11.5
		c0-21.043,0-41,0-41v-4h43H296.554z"/>
	<polygon id="r301" fill="#5A5A5A" stroke="#494949" stroke-miterlimit="10" points="126.97,844.74 165.22,844.74 177.47,856.99 
		177.47,895.74 153.72,895.74 126.97,868.99 	"/>
	<path id="r302" fill="#5A5A5A" stroke="#494949" stroke-miterlimit="10" d="M209.22,869.24v4c0,0,0,19.957,0,41h17.5v-8h24.5v8h1
		v-45H209.22z"/>
	<polygon id="r303-1" fill="#5A5A5A" stroke="#494949" stroke-miterlimit="10" points="252.22,869.24 252.22,914.24 281.72,914.24 
		281.72,906.24 286.265,906.24 286.265,869.24 	"/>
	<polygon id="r303-2" fill="#5A5A5A" stroke="#494949" stroke-miterlimit="10" points="286.265,869.24 286.265,906.24 
		307.72,906.24 307.72,914.24 316.22,914.24 316.22,869.24 	"/>
	<polygon id="young-miss" fill="#5A5A5A" stroke="#494949" stroke-miterlimit="10" points="296.554,684.574 347.22,684.574 
		347.22,555.576 395.97,555.576 395.97,436.241 413.048,436.241 413.052,438.24 452.22,438.24 452.22,583.24 578.22,583.24 
		578.22,612.74 527.22,612.74 527.22,869.24 296.554,869.24 	"/>
	<polygon id="watches-clocks-pens" fill="#5A5A5A" stroke="#494949" stroke-miterlimit="10" points="264.22,618.24 296.554,618.24 
		296.554,631.906 347.22,631.906 347.22,555.576 335.47,555.576 335.47,483.74 395.97,483.74 395.97,436.241 388.22,436.241 
		388.22,439.574 368.97,439.574 368.97,436.241 332.47,436.241 332.47,439.574 311.22,439.574 311.22,436.241 277.22,436.241 
		277.22,439.574 264.22,439.574 	"/>
</g>
<g id="signs">
	<rect id="lift" x="314.887" y="483.74" width="45" height="45"/>
	<rect id="escalator" x="299.387" y="635.74" width="45" height="45"/>
	<rect id="bts" x="98.47" y="890.74" width="45" height="45"/>
	<rect id="atm" x="185.046" y="847.429" width="45" height="45"/>
	<rect id="toilet" x="365.22" y="455.532" width="45" height="45"/>
	<rect id="telephone" x="365.22" y="488.74" width="45" height="45"/>
</g>
</svg>
