<?xml version="1.0" encoding="utf-8"?>
<!-- Generator: Adobe Illustrator 16.0.0, SVG Export Plug-In . SVG Version: 6.00 Build 0)  -->
<!DOCTYPE svg PUBLIC "-//W3C//DTD SVG 1.1//EN" "http://www.w3.org/Graphics/SVG/1.1/DTD/svg11.dtd">
<svg version="1.1" id="Layer_1" xmlns="http://www.w3.org/2000/svg" xmlns:xlink="http://www.w3.org/1999/xlink" x="0px" y="0px"
	 width="1152.121px" height="1008.101px" viewBox="0 0 1152.121 1008.101" enable-background="new 0 0 1152.121 1008.101"
	 xml:space="preserve">
<g id="background">
</g>
<g id="etc">
	<path fill="#CECECE" stroke="#494949" stroke-miterlimit="10" d="M412.72,263.74v172.501h-24.5v3.333h-19.25v-3.333h-36.5v3.333
		h-21.25v-3.333h-34v3.333h-20.334v-3.333h-35.333v3.333h-20.667v-3.333h-35.333v3.333H144.22v-3.333h-32.667l0.168,23.999h-3v27.5
		h8v29.5h-8v28h6v29h-6v27h7v28.5h-7v26.5h8.5v29h-8.5v28h7.5v29h-7.5v25.5h7.5v30.5h-7.5v26h2.832v20.5h15.418v24.25l26.75,26.75
		h24v9.5h20v9h29v-8h24.5v8h30.5v-8h26v8h28v-8.5h26v8.5h26.5v-7.5h29.5v7.5h28.5v-7.5h26v7.5h28.5v-6.5h27v6.5h27v-5.5h17.5v-30h7
		v-28.5h-7.5v-26.5h7v-27h-8v-27.5h8v-27h-8v-26h9v-26h-8v-27h7v-27.5h-7v-23h6.5v-29.5h-5.5c0,0,0-6.5,0-12
		c71.5-33,28.25-105.75,28.25-105.75l13.75-13.75v-46h8v-142H412.72z"/>
	<g>
		<rect x="296.554" y="631.906" fill="#A3A3A3" stroke="#494949" stroke-miterlimit="10" width="50.667" height="52.668"/>
		<rect x="300.22" y="623.906" fill="#A3A3A3" stroke="#494949" stroke-miterlimit="10" width="11" height="71"/>
		<rect x="332.22" y="623.906" fill="#A3A3A3" stroke="#494949" stroke-miterlimit="10" width="10.333" height="71"/>
	</g>
	<g>
		<rect x="335.47" y="483.74" fill="#A3A3A3" stroke="#494949" stroke-miterlimit="10" width="60.5" height="71.835"/>
		<rect x="379.47" y="483.74" fill="#A3A3A3" stroke="#494949" stroke-miterlimit="10" width="16.5" height="13.834"/>
		<rect x="379.47" y="497.574" fill="#A3A3A3" stroke="#494949" stroke-miterlimit="10" width="16.5" height="13.666"/>
		<rect x="364.47" y="526.24" fill="#A3A3A3" stroke="#494949" stroke-miterlimit="10" width="31.5" height="15.5"/>
		<line fill="none" stroke="#494949" stroke-miterlimit="10" x1="335.47" y1="541.74" x2="395.97" y2="541.74"/>
		<rect x="377.47" y="511.24" fill="#A3A3A3" stroke="#494949" stroke-miterlimit="10" width="18.5" height="15"/>
	</g>
	<polygon fill="#CECECE" stroke="#494949" stroke-miterlimit="10" points="143.22,869.24 143.22,618.24 115.72,618.24 
		115.72,629.74 108.72,629.74 108.72,656.24 117.22,656.24 117.22,685.24 108.72,685.24 108.72,713.24 116.22,713.24 116.22,742.24 
		108.72,742.24 108.72,767.74 116.22,767.74 116.22,798.24 108.72,798.24 108.72,824.24 111.552,824.24 111.552,844.74 
		126.97,844.74 126.97,868.99 135.47,877.49 143.72,869.24 	"/>
	<polygon fill="#CECECE" stroke="#494949" stroke-miterlimit="10" points="579.72,716.24 579.72,690.24 571.72,690.24 
		571.72,689.24 571.72,663.24 578.72,663.24 578.72,635.74 571.72,635.74 571.72,612.74 578.22,612.74 578.22,583.24 
		527.22,583.404 527.22,689.24 527.22,777.24 527.22,869.24 525.22,869.24 510.22,869.24 456.22,869.24 387.22,869.24 
		316.22,869.24 252.22,869.24 209.22,869.24 143.72,869.24 135.47,877.49 143.22,885.24 153.72,895.74 177.72,895.74 177.72,905.24 
		197.72,905.24 197.72,914.24 209.22,914.24 226.72,914.24 226.72,906.24 251.22,906.24 251.22,914.24 252.22,914.24 281.72,914.24 
		281.72,906.24 307.72,906.24 307.72,914.24 316.22,914.24 335.72,914.24 335.72,905.74 361.72,905.74 361.72,914.24 387.22,914.24 
		388.22,914.24 388.22,906.74 417.72,906.74 417.72,914.24 446.22,914.24 446.22,906.74 456.22,906.74 472.22,906.74 472.22,914.24 
		500.72,914.24 500.72,907.74 525.22,907.74 527.22,907.74 527.72,907.74 527.72,914.24 554.72,914.24 554.72,908.74 572.22,908.74 
		572.22,878.74 579.22,878.74 579.22,869.24 579.22,850.24 571.72,850.24 571.72,823.74 578.72,823.74 578.72,796.74 570.72,796.74 
		570.72,777.24 570.72,769.24 578.72,769.24 578.72,742.24 570.72,742.24 570.72,716.24 	"/>
</g>
<g id="rooms">
	<path id="supersports" fill="#5A5A5A" stroke="#494949" stroke-miterlimit="10" d="M412.72,263.74l0.278,146.5h-0.278v172.781h39.5
		v0.221c0,0,107-1,120.5,0c0,0,0-6.5,0-12c71.5-33,28.25-105.75,28.25-105.75l13.75-13.75v-13.5v-32.5h8v-142L412.72,263.74
		L412.72,263.74z"/>
	<polygon id="r401" fill="#5A5A5A" stroke="#494949" stroke-miterlimit="10" points="243.22,436.241 221.552,436.241 
		221.552,439.574 200.886,439.574 200.886,436.241 165.552,436.241 165.552,439.574 144.219,439.574 144.219,436.241 
		111.552,436.241 111.72,460.24 108.72,460.24 108.72,487.74 116.72,487.74 116.72,497.574 243.22,497.574 	"/>
	
		<rect id="shirts-ties" x="295.595" y="684.574" fill="#5A5A5A" stroke="#494949" stroke-miterlimit="10" width="51.625" height="95.666"/>
	
		<rect id="men-s-accessories" x="347.22" y="583.24" fill="#5A5A5A" stroke="#494949" stroke-miterlimit="10" width="72.375" height="197"/>
	
		<rect id="men-s-shoes" x="252.22" y="780.24" fill="#5A5A5A" stroke="#494949" stroke-miterlimit="10" width="141.338" height="89"/>
	
		<rect id="men-s-furnishings" x="393.561" y="780.24" fill="#5A5A5A" stroke="#494949" stroke-miterlimit="10" width="133.659" height="89"/>
	
		<rect id="men-s-casual" x="419.595" y="583.24" fill="#5A5A5A" stroke="#494949" stroke-miterlimit="10" width="107.625" height="197"/>
	<polygon id="men-s-wear" fill="#5A5A5A" stroke="#494949" stroke-miterlimit="10" points="295.595,684.574 295.595,780.24 
		252.22,780.24 252.22,869.24 143.72,869.24 143.72,684.574 	"/>
	
		<rect id="men-s-business" x="143.72" y="533.99" fill="#5A5A5A" stroke="#494949" stroke-miterlimit="10" width="56.5" height="150.584"/>
	<path id="luxe-men" fill="#5A5A5A" stroke="#494949" stroke-miterlimit="10" d="M388.22,436.241v3.333h-19.25v-3.333h-36.5v3.333
		h-21.25v-3.333h-34v3.333h-20.334v-3.333H243.22v61.333h-99.5v36.416h56.5v150.584h95.375h0.958v-52.668h3.667v-8h11v8h21v-8
		h10.333v8h4.667V583.24h65.5V436.241H388.22z M395.97,497.574v13.666v15v15.5v13.836h-60.5V483.74h44h16.5V497.574z"/>
</g>
<g id="signs">
	<rect id="lift" x="314.887" y="483.74" width="45" height="45"/>
	<rect id="escalator" x="299.387" y="635.74" width="45" height="45"/>
	<rect id="toilet" x="365.22" y="455.532" width="45" height="45"/>
	<rect id="telephone" x="365.22" y="488.74" width="45" height="45"/>
</g>
</svg>
