<?xml version="1.0" encoding="utf-8"?>
<!-- Generator: Adobe Illustrator 16.0.0, SVG Export Plug-In . SVG Version: 6.00 Build 0)  -->
<!DOCTYPE svg PUBLIC "-//W3C//DTD SVG 1.1//EN" "http://www.w3.org/Graphics/SVG/1.1/DTD/svg11.dtd">
<svg version="1.1" id="Layer_1" xmlns="http://www.w3.org/2000/svg" xmlns:xlink="http://www.w3.org/1999/xlink" x="0px" y="0px"
	 width="1000px" height="1000px" viewBox="0 0 1000 1000" enable-background="new 0 0 1000 1000" xml:space="preserve">
<g id="background">
</g>
<g id="etc">
	<path fill="#BFBFBF" stroke="#494949" stroke-miterlimit="10" d="M925.486,572.272c-4.709-9.717-30.644-54.335-30.644-54.335
		s-5.231-10.986-19.955-7.25c-16.966,5.008-74.215,23.169-74.215,23.169s-156.651,57.101-157.923,59.343
		c-1.271,2.242-2.018-0.225-4.26,6.502c-3.214,8.445-14.2,45.366-14.2,45.366s-2.467,8.221,3.513,14.2
		c7.25,11.211,14.947,21.45,14.947,21.45s8.222,6.727,17.414,5.755c9.193-0.972,18.162-0.972,18.162-0.972s9.342-1.196,8.221,13.004
		l41.854-40.209c-1.719-2.84-13.378-23.243,7.923-34.828c4.185-1.494,7.548-2.69,10.239-3.662v-0.074c0,0,20.702-7.25,0,0.074
		l4.185,11.884l35.127-12.93l-3.961-11.211l11.734-4.26c0,0,9.192-3.214,11.733,5.754c2.541,8.969,3.737,34.38,3.737,34.38
		s0.972,7.997-8.222,9.94c-9.192,1.943-58.744,9.342-58.744,9.342s-6.203,0.972-11.285-2.392l-43.423,43.498l-0.599,30.419
		c0,0,0.972,16.218,16.966,17.189c14.948,0,132.811-1.494,132.811-1.494s6.502,0.971,8.744-5.008
		c2.242-5.979,27.429-86.473,27.429-86.473s3.961-9.491,6.727-12.183c2.766-2.69,45.366-56.277,45.366-56.277
		S930.27,581.988,925.486,572.272z M834.081,633.782c-4.709,6.203-6.727,4.26-7.698,3.961s-4.26-26.906-4.26-26.906
		s-0.225-5.456,4.708-5.007c4.933,0.448,8.222,9.939,8.222,9.939S838.789,627.578,834.081,633.782z"/>
	<polygon fill="#868686" stroke="#494949" stroke-miterlimit="10" points="699.178,691.928 695.665,706.651 687.594,706.428 
		687.444,703.887 	"/>
</g>
<g id="rooms">
	<path id="q7a-1" fill="#494949" stroke="#212121" stroke-miterlimit="10" d="M625.859,656.502
		c0.448,0.748,16.442,23.692,16.442,23.692s8.371,6.876,17.938,5.456c11.211-1.271,18.161-0.972,18.161-0.972
		s9.118-0.523,8.222,13.976l10.688-9.939c0,0-16.144-12.855-13.528-33.932l-48.505-1.495L625.859,656.502z"/>
	<path id="q7a-3" fill="#494949" stroke="#212121" stroke-miterlimit="10" d="M652.541,599.327L652.541,599.327l-3.139-10.015
		c-1.346,0.598-2.392,1.195-3.214,1.645c-7.997,3.513-8.445,9.491-8.445,9.491l-14.425,47.534c0,0-0.972,2.541,2.392,8.221
		l9.044-2.84l49.027,1.195c0-0.224,0.075-0.373,0.075-0.598c1.495-10.837,4.708-20.029,9.492-27.354L652.541,599.327
		L652.541,599.327z"/>
	<path id="q7a-6" fill="#494949" stroke="#212121" stroke-miterlimit="10" d="M725.935,560.313l14.499,39.911
		c27.803-9.791,63.527-22.497,63.527-22.497l-11.733-35.351l0,0l-1.645-4.484C769.581,545.067,746.936,552.84,725.935,560.313z"/>
	<path id="q7a-7" fill="#494949" stroke="#212121" stroke-miterlimit="10" d="M895.142,517.938c0,0-5.755-12.183-26.681-6.203
		c-9.193,2.989-40.957,13.527-77.878,26.158l1.645,4.484l13.229-4.709l7.698,22.87l-6.203,2.467l4.708,13.229
		c0,0,16.144-0.673,31.241,7.249l13.004-19.432l54.484-18.909C902.69,531.391,895.142,517.938,895.142,517.938z"/>
	<path id="q7a-8" fill="#494949" stroke="#212121" stroke-miterlimit="10" d="M925.037,571.749
		c-2.615-5.008-8.67-15.919-14.648-26.607l-54.484,18.909l-13.005,19.432c7.399,3.887,14.5,9.791,19.357,18.909
		c0.075,0.225,0.225,0.374,0.299,0.598l64.275-22.944C926.831,577.578,926.308,574.813,925.037,571.749z"/>
	<path id="q7a-11" fill="#494949" stroke="#212121" stroke-miterlimit="10" d="M886.174,638.042
		c2.242-2.766,7.996-10.09,14.424-18.312l-32.586,2.393c1.495,20.478-9.641,38.266-15.919,42.077c-0.075,0-0.075,0.075-0.149,0.075
		l13.453,13.229c3.363-10.613,6.054-18.461,6.875-19.507C876.009,650.972,882.437,642.75,886.174,638.042z"/>
	<path id="q7a-10" fill="#494949" stroke="#212121" stroke-miterlimit="10" d="M926.831,579.97l-64.275,22.945
		c3.289,6.427,4.933,12.93,5.382,19.133l32.586-2.392c10.911-13.977,23.691-30.27,23.691-30.27S926.831,585.725,926.831,579.97z"/>
	<path id="q7a-5" fill="#494949" stroke="#212121" stroke-miterlimit="10" d="M649.402,589.312l3.139,10.015l40.808,27.279
		c7.847-9.641,34.006-20.478,47.01-26.382l-14.499-39.911C691.256,572.571,660.986,583.707,649.402,589.312z"/>
	<path id="q7a-2" fill="#494949" stroke="#212121" stroke-miterlimit="10" d="M705.53,680.643c0,0,14.2-13.453,22.646-22.421
		c-1.943-4.111-3.14-7.773-3.737-11.137l-22.271-13.303C686.995,660.09,705.53,680.643,705.53,680.643z"/>
	<path id="q7a-4" fill="#494949" stroke="#212121" stroke-miterlimit="10" d="M747.16,619.73l-2.99-8.37
		c0,0-17.189,4.484-27.652,9.192c-10.464,6.203-10.464,8.969-14.201,12.93c-0.074,0.075-0.074,0.149-0.148,0.3l22.347,13.303
		C719.73,627.279,747.16,619.73,747.16,619.73z"/>
	<g id="q7a-15">
		<path fill="#494949" stroke="#212121" stroke-miterlimit="10" d="M739.387,662.93c-5.007,0-8.744-2.989-8.744-2.989l-22.87,23.692
			c21.151,17.413,41.106,9.491,41.106,9.491s7.997-2.69,18.012-6.129l-9.043-26.382C748.654,661.884,741.106,662.93,739.387,662.93z
			"/>
		<path fill="#494949" stroke="#212121" stroke-miterlimit="10" d="M686.995,730.792l14.052,0.149l0.522-28.4l2.766-6.502
			c0,0,18.46,16.666,45.591,8.744c2.242,5.979,3.961,11.211,3.961,11.211l-19.656,7.25l9.716,28.4l-39.611,0.224
			C704.26,751.868,684.754,751.271,686.995,730.792z"/>
	</g>
	<g id="q7a-14">
		<path fill="#494949" stroke="#212121" stroke-miterlimit="10" d="M757.848,660.538l9.043,26.383
			c7.175-2.467,15.471-5.307,22.571-7.848l-7.623-22.197C774.365,658.071,765.546,659.417,757.848,660.538z"/>
		<polygon fill="#494949" stroke="#212121" stroke-miterlimit="10" points="757.1,702.541 760.837,713.752 777.056,708.744 
			781.764,721.973 793.572,717.713 784.978,692.825 		"/>
	</g>
	<g id="q7a-13">
		<path fill="#494949" stroke="#212121" stroke-miterlimit="10" d="M811.435,666.144c0,0-3.961-19.656-4.26-16.667
			c-0.299,2.99-8.222,4.709-8.222,4.709s-7.474,1.195-17.114,2.69l7.623,22.197c7.922-2.84,14.499-5.231,16.741-6.203
			C813.154,669.656,811.435,666.144,811.435,666.144z"/>
		<polygon fill="#494949" stroke="#212121" stroke-miterlimit="10" points="803.438,686.323 784.978,692.825 793.572,717.713 
			811.884,710.986 		"/>
	</g>
	<path id="q7a-9" fill="#494949" stroke="#212121" stroke-miterlimit="10" d="M828.326,591.704
		c-6.727,2.242-8.445,12.93-8.445,12.93c8.744-1.271,12.182,5.231,12.705,5.979c0.225,0.299,0.896,1.271,1.645,2.84l14.274-10.986
		C842.975,596.263,833.482,589.985,828.326,591.704z"/>
	<g id="q7a-12">
		<path fill="#494949" stroke="#212121" stroke-miterlimit="10" d="M809.94,683.633l17.713,52.092h4.708l0.225,13.977l6.203-0.225
			c0,0,5.008-0.522,5.979-3.961c0.673-2.466,12.556-42.899,20.553-67.938l-13.453-13.229
			C833.482,678.924,809.94,683.633,809.94,683.633z"/>
		<path fill="#494949" stroke="#212121" stroke-miterlimit="10" d="M857.101,629.372l-21.898,2.392
			c0.972,1.943-7.848,6.951-7.848,6.951l-2.242,0.747c0,0,1.719,6.502,5.231,15.919s15.172-0.149,18.909-5.68L857.101,629.372"/>
	</g>
</g>
<g id="signs">
	<g id="lift">
		<rect id="lift-1" x="750.225" y="601.046" width="33.632" height="33.633"/>
		<rect id="lift-2" x="775.336" y="714.2" width="33.633" height="33.633"/>
	</g>
	<rect id="escalator" x="799.775" y="607.025" width="33.633" height="33.633"/>
	<rect id="toilet" x="745.441" y="716.144" width="33.632" height="33.632"/>
</g>
<path id="q7a-11b" fill="#494949" stroke="#212121" stroke-miterlimit="10" d="M834.23,613.453l14.274-10.986
	c5.904,9.491,9.193,18.535,8.67,26.905l-21.898,2.392C837.817,625.262,836.473,620.329,834.23,613.453z"/>
</svg>
