<?xml version="1.0" encoding="utf-8"?>
<!-- Generator: Adobe Illustrator 16.0.0, SVG Export Plug-In . SVG Version: 6.00 Build 0)  -->
<!DOCTYPE svg PUBLIC "-//W3C//DTD SVG 1.1//EN" "http://www.w3.org/Graphics/SVG/1.1/DTD/svg11.dtd">
<svg version="1.1" id="Layer_1" xmlns="http://www.w3.org/2000/svg" xmlns:xlink="http://www.w3.org/1999/xlink" x="0px" y="0px"
	 width="1338px" height="892px" viewBox="0 0 1338 892" enable-background="new 0 0 1338 892" xml:space="preserve">
<g id="Background">
</g>
<g id="Original" display="none">
	
		<image display="inline" overflow="visible" opacity="0.8" enable-background="new    " width="1800" height="1338" xlink:href="AEA3CA6.jpeg"  transform="matrix(1.3804 0.0098 -0.0098 1.3804 9.7192 -87.7603)">
	</image>
</g>
<g id="ETC">
	<path fill="#BFBFBF" stroke="#494949" stroke-miterlimit="10" d="M1245.467,261.264c10.997-13.114,2.116-27.378,2.116-27.378
		s-64.646-103.069-72.698-112.271c-8.052-9.203-9.664-5.756-9.664-5.756L688.065,450.403c0,0-8.028,4.932-10.934,6.388
		c-2.762,1.384-11.732,4.971-11.732,4.971l-0.896-1.235L190.944,601.67l0.181,0.608l27.139,91.494c0,0,23.007,51.073,36.351,78.682
		c13.344,27.607,37.731,21.627,37.731,21.627s413.201-0.461,439.429-0.921c26.228-0.46,52.915-37.73,55.216-39.111
		s14.723-14.265,57.516-17.026c42.793-2.761,60.278,25.31,68.102,42.334C920.43,796.381,938.375,795,938.375,795
		s146.78,4.146,167.027,3.225c20.246-0.919,27.147-37.729,27.147-37.729s9.662-60.276,15.185-80.982
		c5.521-20.706,24.387-21.626,24.387-21.626l38.19-3.681c43.714,1.38,28.988-34.965,27.608-36.805
		c-1.381-1.841-35.891-120.554-40.032-132.058c-4.141-11.503-2.761-41.314-2.761-41.314c-3.221-18.77,15.645-88.668,15.645-88.668
		L1245.467,261.264z M891.899,568.29c-7.361,2.639-48.313,19.236-48.313,19.236s-22.086,17.913-13.804,49.662
		c3.682,6.901,13.804,23.926,13.804,23.926s2.301,6.901-4.601,8.283c-6.902,1.381-68.562,11.503-68.562,11.503
		s-16.104,6.902-21.625-6.441l-3.222-6.442l8.283-4.601l-16.565-30.369l-17.484,11.043l-28.527-89.266l186.813-62.333l20.246,63.713
		C898.342,556.204,899.262,565.651,891.899,568.29z M1146.976,483.628c0,0-178.691,60.153-190.654,63.098
		c-11.964,2.945-16.911-3.521-16.911-3.521l-36.775-56.804l233.827-78.476l17.945,59.702
		C1159.928,482.468,1146.976,483.628,1146.976,483.628z"/>
	<path fill="#878787" stroke="#494949" stroke-miterlimit="10" d="M627.093,408.961c0,0-31.749-45.208-49.693-63.498
		c-26.917-23.467-69.365-6.902-69.365-6.902S157.067,443.817,142.228,449.338c-14.839,5.521-36.926,30.714-38.651,54.871
		c-1.726,24.157,11.388,43.828,11.388,43.828c11.043,21.741,30.6,28.874,30.6,28.874l7.362,16.564l33.129-8.282l4.888,16.478
		l473.559-141.145L627.093,408.961z"/>
	<path fill="#919191" stroke="#494949" stroke-miterlimit="10" d="M653.321,680.9h43.481c0,0,15.645,10.583,0,21.626
		c-3.682,0.46-43.481,0-43.481,0S637.908,691.943,653.321,680.9z"/>
	<polygon fill="#878787" stroke="#494949" stroke-miterlimit="10" points="1031.896,256.083 1069.855,229.165 1115.755,296.804 
		1063.99,333.385 1055.708,321.651 1068.821,312.333 	"/>
	<polygon fill="#919191" stroke="#494949" stroke-miterlimit="10" points="750.471,497.769 750.471,534.578 818.265,512.454 
		798.216,482.125 	"/>
	<path fill="#BFBFBF" stroke="#494949" stroke-miterlimit="10" d="M1195.128,444.028c-3.221-18.77,15.646-88.668,15.646-88.668
		l34.693-94.096c10.997-13.114,2.116-27.378,2.116-27.378s-64.646-103.069-72.698-112.271c-8.052-9.203-9.664-5.756-9.664-5.756
		l-0.299,0.209l0.299,0.481l72.695,112.617c0,0,3.629,4.864-2.32,21.328c-5.948,16.464-20.451,56.599-20.451,56.599l-30.602,77.432
		c0,0-7.282,9.101-19.302,13.126C1153.221,401.675,1136,408,1136,408l0.021,0.073l0.438-0.147l17.945,59.702
		c0,0,4.786,10.352-2.187,13.984c-0.23,0.167-0.466,0.317-0.701,0.459c4.503-1.474,13.701-4.554,13.701-4.554
		s11.493-5.273,15.645,6.441c4.15,11.715,40.768,131.929,40.768,131.929s14.159,25.576-14.736,33.845
		c-15.741,4.504-21.875,6.076-24.203,6.576l22.6-1.62l5.021-0.484c0.468,0.015,0.918,0.02,1.372,0.025l10.503-0.754h0.003
		c1.067-0.188,2.082-0.409,3.041-0.662c1.717-0.47,3.973-1.239,6.277-2.448c10.814-5.954,10.742-17.469,9.065-25.208
		c-0.007-0.021-0.012-0.039-0.019-0.061c-0.591-1.814-1.331-4.137-2.188-6.859c-0.195-0.423-0.354-0.714-0.446-0.839
		c-0.713-0.95-10.266-33.083-19.906-65.518c-8.789-28.963-17.244-57.029-19.99-66.152c-0.047-0.134-0.095-0.274-0.136-0.388
		C1193.748,473.84,1195.128,444.028,1195.128,444.028z"/>
	<path fill="#494949" stroke="#212121" stroke-miterlimit="10" d="M833.35,643.589"/>
	<path fill="#BFBFBF" stroke="#494949" stroke-miterlimit="10" d="M861.532,587.49c6.901,0.919,68.561-22.227,68.561-22.227
		l22.546-6.762v-10.583l-0.401-0.508c-9.016,0.77-12.827-4.206-12.827-4.206l-36.775-56.804l1.016-0.341l-0.509-0.641l-25.026,7.126
		l20.229,63.658c0,0,0.92,9.447-6.441,12.086s-48.313,19.236-48.313,19.236s-22.086,17.913-13.804,49.662
		c0.89,1.669,2.159,3.932,3.567,6.4l0.818-0.841c0.276-2.256,0.856-5.597,2.058-8.785c11.274-29.908,17.665-45.048,24.731-46.437
		C861.152,587.488,861.347,587.465,861.532,587.49z"/>
	<path fill="#BFBFBF" stroke="#494949" stroke-miterlimit="10" d="M843.608,661.185c0.212,0.704,1.886,6.91-4.623,8.213
		c-6.902,1.38-68.562,11.503-68.562,11.503s-16.104,6.902-21.625-6.441l-3.222-6.442l19.787,52.452l-34.05,62.119l-472.001-2.299
		c13.661,18.522,33.033,13.792,33.033,13.792s413.201-0.461,439.429-0.921c26.228-0.46,52.915-37.73,55.216-39.111
		s14.723-14.265,57.516-17.026c30.192-1.947,47.776,11.452,58.268,25.491L843.608,661.185z"/>
	<path id="q-space-gf" fill="#878787" stroke="#494949" stroke-miterlimit="10" d="M974.729,646.853c0,0-3.569-27.725,18.517-26.125
		l5.521,14.275l47.941-18.712l-4.873-12.235l7.315-2.385l49.693,12.281c0,0,12.424,6.776,0.282,16.942l-36.058,24.814l-12.193,0.69
		l-0.345-6.558L974.729,646.853z"/>
	<path id="bhiraj-tower" fill="#878787" stroke="#494949" stroke-miterlimit="10" d="M1003.598,275.408l5.521-4.486l-20.102-30.834
		L750.471,406.65c0,0,8.16,0.772,10.031,2.922c1.871,2.15,27.446,38.014,27.446,38.014l52.417-36.554l13.804-10.008l-4.141-6.902
		l14.147-10.008l15.857,25.164l144.686-102.187L1003.598,275.408z"/>
</g>
<g id="Rooms">
	<polygon id="qgc-3" fill="#494949" stroke="#212121" stroke-miterlimit="10" points="558.435,781.746 599.485,781.946 
		599.485,731.96 558.696,730.947 	"/>
	<polygon id="gourmet-market" fill="#494949" stroke="#212121" stroke-miterlimit="10" points="563.595,598.076 464.206,551.143 
		456.721,522.456 190.944,601.669 219.312,696.094 259.292,780.289 558.435,781.746 558.696,730.947 558.418,730.94 
		558.696,730.947 558.696,730.947 599.485,731.96 599.485,731.285 	"/>
	<polygon id="qgc-5" fill="#494949" stroke="#212121" stroke-miterlimit="10" points="518,504.191 493.667,511.443 506.507,552.964 
		530.29,546.479 	"/>
	<polygon id="qgc-4" fill="#494949" stroke="#212121" stroke-miterlimit="10" points="611.909,524.225 506.507,552.964 
		543.579,571.159 619.501,548.382 	"/>
	<path id="qgb-7" fill="#494949" stroke="#212121" stroke-miterlimit="10" d="M687.135,451.056
		c-8.749,6.135-21.735,10.706-21.735,10.706l-37.616,11.39l15.875,61.428l72.459-39.917l-28.053-44.258
		C687.715,450.649,687.403,450.868,687.135,451.056z"/>
	<path id="qgb-8" fill="#494949" stroke="#212121" stroke-miterlimit="10" d="M787.91,447.613c0,0-21.396-29.679-25.538-35.891
		c-4.142-6.211-11.902-5.072-11.902-5.072s-51.295,35.964-62.405,43.753l28.053,44.258l49.707-27.383l32.392-3.566l-10.268-16.125
		L787.91,447.613z"/>
	<polygon id="qgb-9" fill="#494949" stroke="#212121" stroke-miterlimit="10" points="868.663,450.374 840.365,411.032 
		787.948,447.586 798.216,463.712 861.071,456.792 	"/>
	<polygon id="take-home" fill="#494949" stroke="#212121" stroke-miterlimit="10" points="576.709,578.751 627.784,564.947 
		653.321,665.716 605.007,682.971 	"/>
	<path id="qgc-1" fill="#494949" stroke="#212121" stroke-miterlimit="10" d="M718.661,545.396l-4.142-12.653
		c0,0-0.919-4.142-6.901-1.15c-5.983,2.991-60.968,35.431-60.968,35.431s-2.762,0.92-1.15,7.821
		c1.61,6.902,23.697,90.874,23.697,90.874h21.626l28.987-21.626l-28.758-89.266L718.661,545.396z"/>
	<polygon id="qgc-2" fill="#494949" stroke="#212121" stroke-miterlimit="10" points="628.244,781.946 628.244,725.991 
		636.526,716.328 763.063,716.328 765.364,720.469 731.313,782.588 	"/>
	<polygon id="qgb-10" fill="#494949" stroke="#212121" stroke-miterlimit="10" points="880.034,409.278 880.052,409.307 
		866.248,419.314 882.813,444.028 912.785,422.881 896.499,397.649 	"/>
	<polygon id="qgb-11" fill="#494949" stroke="#212121" stroke-miterlimit="10" points="896.499,397.649 912.785,422.881 
		941.554,402.585 924.367,377.967 	"/>
	<polygon id="qgb-13" fill="#494949" stroke="#212121" stroke-miterlimit="10" points="951.378,358.89 968.186,383.796 
		997.464,363.14 980.972,337.989 	"/>
	<polygon id="qgb-14" fill="#494949" stroke="#212121" stroke-miterlimit="10" points="1024.994,307.502 1024.72,307.092 
		980.972,337.989 997.464,363.14 1027.409,342.012 	"/>
	<polygon id="qgb-12" fill="#494949" stroke="#212121" stroke-miterlimit="10" points="924.367,377.967 941.554,402.585 
		968.186,383.796 951.378,358.89 	"/>
	<path id="qgb-1" fill="#494949" stroke="#212121" stroke-miterlimit="10" d="M1078.697,177.211l76.398,109.24l60.047,20.641
		l23.468-64.94c0,0,2.761-7.811-3.105-18.508c-5.866-10.698-70.284-107.096-70.284-107.096L1078.697,177.211z"/>
	<polygon id="qgb-4" fill="#494949" stroke="#212121" stroke-miterlimit="10" points="983.493,396.151 1002.921,452.007 
		1059.645,433.011 1036.342,358.918 	"/>
	<polygon id="qgb-3" fill="#494949" stroke="#212121" stroke-miterlimit="10" points="1036.382,358.89 1036.342,358.918 
		1059.645,433.011 1116.651,413.921 1099.127,356.823 	"/>
	<path id="qgb-2" fill="#494949" stroke="#212121" stroke-miterlimit="10" d="M1150.61,355.126l-51.483,1.697l17.524,57.098
		l52.938-17.728c0,0,13.804-3.322,17.6-18.226l4.486-10.763L1150.61,355.126z"/>
	<polygon id="qgb-5" fill="#494949" stroke="#212121" stroke-miterlimit="10" points="937.143,428.805 950.527,469.552 
		1002.921,452.007 983.493,396.151 	"/>
	<polygon id="qgb-6" fill="#494949" stroke="#212121" stroke-miterlimit="10" points="887.596,463.712 896.499,487.645 
		950.527,469.552 937.143,428.805 	"/>
	<polygon id="qga-8" fill="#494949" stroke="#212121" stroke-miterlimit="10" points="952.639,547.919 952.639,558.502 
		973.805,604.055 1036.342,582.889 1038.57,583.157 1018.841,526.474 	"/>
	<polygon id="qga-9" fill="#494949" stroke="#212121" stroke-miterlimit="10" points="1050.646,516.17 1018.841,526.474 
		1038.57,583.157 1074.573,587.49 	"/>
	<path id="qga-1" fill="#494949" stroke="#212121" stroke-miterlimit="10" d="M1066.291,510.648l98.93-33.13
		c0,0,11.041-4.141,15.645,6.441c4.603,10.583,15.185,49.695,15.185,49.695l-58.896,20.706l-45.094,35.43h-9.203l-13.805-45.553
		l5.521-3.22L1066.291,510.648z"/>
	<polygon id="qga-5b" fill="#494949" stroke="#212121" stroke-miterlimit="10" points="890.059,703.448 913.525,743.021 
		964.911,725.284 942.496,687.349 	"/>
	<polygon id="qga-5a" fill="#494949" stroke="#212121" stroke-miterlimit="10" points="1016.391,690.143 942.514,687.343 
		942.496,687.349 964.911,725.284 1021.055,707.507 1021.363,708.481 1016.455,690.12 	"/>
	<polygon id="qga-4" fill="#494949" stroke="#212121" stroke-miterlimit="10" points="1065.313,719.489 1051.564,677.681 
		1016.455,690.12 1021.363,708.481 1028.962,732.493 	"/>
	<polygon id="qga-3b" fill="#494949" stroke="#212121" stroke-miterlimit="10" points="1109.543,642.249 1063.069,673.538 
		1070.433,695.165 1141.868,668.364 1125.989,620.727 	"/>
	<path id="qga-2" fill="#494949" stroke="#212121" stroke-miterlimit="10" d="M1223.195,621.083l-14.265-47.394l-61.956,19.733
		l20.144,65.466l1.758-0.658c0,0,30.021-3.099,45.118-11.841C1229.09,637.648,1223.195,621.083,1223.195,621.083z"/>
	<polygon id="qga-3a" fill="#494949" stroke="#212121" stroke-miterlimit="10" points="1146.814,593.475 1125.989,620.727 
		1141.868,668.364 1167.118,658.89 1146.976,593.424 	"/>
	<path id="qga-6" fill="#494949" stroke="#212121" stroke-miterlimit="10" d="M836.226,633.963
		c-2.077,5.513-2.876,9.626-2.876,9.626l28.371,48.616l64.69-33.396l0.563-0.58l-66.017-70.703
		C853.891,588.915,847.5,604.055,836.226,633.963z"/>
	<path id="qga-7" fill="#494949" stroke="#212121" stroke-miterlimit="10" d="M930.093,565.264c0,0-61.658,23.146-68.561,22.227
		c-0.187-0.025-0.38-0.002-0.575,0.036l66.017,70.703l29.348-30.25L930.093,565.264z"/>
</g>
<g id="Signs">
	<g id="escalator">
		<rect id="escalator-3" x="988.921" y="636.39" width="45" height="45"/>
		<rect id="escalator-2" x="756.347" y="482.4" width="45" height="45"/>
		<rect id="escalator-1" x="1052.707" y="250.493" width="44.999" height="45"/>
	</g>
	<g id="lift">
		<rect id="lift-1" x="716.117" y="631.138" width="44.999" height="45"/>
		<rect id="lift-2" x="995.335" y="593.389" width="45" height="45"/>
		<rect id="lift-3" x="1030.207" y="284.591" width="44.999" height="45"/>
		<rect id="lift-4" x="584.625" y="465.145" width="44.999" height="45"/>
		<rect id="lift-5" x="846.163" y="380.086" width="44.999" height="45"/>
		<rect id="lift-6" x="1027.408" y="745.779" width="44.999" height="45"/>
	</g>
	<g id="toilet">
		<rect id="toilet-1" x="1004.909" y="258.775" width="44.999" height="45"/>
		<rect id="toilet-2" x="1075.207" y="733.118" width="44.999" height="45.001"/>
		<rect id="toilet-3" x="521.319" y="496.43" width="44.999" height="45"/>
	</g>
	<rect id="taxi" x="541.058" y="766.9" width="45" height="44.999"/>
	<g id="dropoff">
		<rect id="dropoff-1" x="810.851" y="702.784" width="44.998" height="45"/>
		<rect id="dropoff-2" x="636.344" y="766.9" width="44.998" height="44.999"/>
		<rect id="dropoff-3" x="1151.051" y="414.873" width="44.998" height="45"/>
	</g>
	<rect id="stairs" x="556.461" y="473.931" width="44.998" height="45"/>
	<rect id="parking" x="343.105" y="447.052" width="44.998" height="44.999"/>
	<g id="entrance">
		<rect id="entrance-1" x="1191.677" y="525.192" width="44.998" height="44.999"/>
		<rect id="entrance-2" x="1191.677" y="315.489" width="44.998" height="45"/>
		<rect id="entrance-3" x="865.097" y="465.145" width="44.998" height="44.999"/>
		<rect id="entrance-4" x="919.055" y="542.765" width="44.998" height="44.999"/>
		<rect id="entrance-5" x="857.662" y="672.665" width="44.998" height="45"/>
		<rect id="entrance-6" x="738.617" y="683.813" width="44.998" height="44.998"/>
		<rect id="entrance-7" x="589.755" y="745.781" width="44.998" height="44.999"/>
		<rect id="entrance-8" x="451.669" y="493.671" width="44.998" height="44.999"/>
	</g>
</g>
</svg>
