<?xml version="1.0" encoding="utf-8"?>
<!-- Generator: Adobe Illustrator 19.2.0, SVG Export Plug-In . SVG Version: 6.00 Build 0)  -->
<svg version="1.1" id="Layer_1" xmlns="http://www.w3.org/2000/svg" xmlns:xlink="http://www.w3.org/1999/xlink" x="0px" y="0px"
	 viewBox="0 0 1338 892" style="enable-background:new 0 0 1338 892;" xml:space="preserve">
<style type="text/css">
	.st0{fill:#BFBFBF;stroke:#494949;stroke-miterlimit:10;}
	.st1{fill:#878787;stroke:#494949;stroke-miterlimit:10;}
	.st2{fill:#878787;}
	.st3{fill:#494949;stroke:#212121;stroke-miterlimit:10;}
</style>
<g id="background">
</g>
<g id="etc">
	<path class="st0" d="M1174.1,384.8c0,0,46-120,51-135s0-23,0-23l-98-141.5L633.5,434.7l0,0l-55.6,17.5l9.1,33.6l-5.8,1.9l8.8,28.8
		l15.7,3.5l27,72.1c0,0,21.3,75.6,21.1,98.3c-0.2,14.2,1.2,90.5,1.2,90.5l65.1,0.3l30.5-35l-5-18.5l14-4.5l108-6.5l27,45.5
		c10.5,29,45,33,45,33s131,2.5,155.5,0s27.5-23,27.5-23s12.5-70.5,15.5-89s21-23.5,21-23.5l46.5-12c0,0,19-2,17.5-23.5
		c3-35-25-123.5-35.5-141c-5.5-12-23.5-6.5-23.5-6.5l-76,24l-52.5-61c0,0,113-34.5,125-39S1174.1,384.8,1174.1,384.8z M1055,509.8
		l-213.7,76c0,0-28.2,14-18.7,50c4.4,14.7,14.3,29.3,14.3,29.3l-3.3,4.3c-4,1.5-81.3,16-81.3,16s-9.2,1.3-11.7-1.7s-9-10-9-10
		l15.3-10.3l-17.3-28l-16,9l-27-87L1002,448.2L1055,509.8z"/>
	<path class="st1" d="M155.3,605.6L155.3,605.6L158,616l429-130.2l-9.1-33.6l0,0l0,0l55.6-17.5c-2.9-4.4-42.9-65.5-59.3-82.3
		c-17-17.5-60.5-12.5-60.5-12.5S141.4,448.3,135.8,452.7c-11.2,8.7-35.3,35.3-34.7,69.3s34.7,56.7,34.7,56.7s-1.7,8.7-6.7,16.2
		c-4.1,6.1-0.7,16,0.8,18.5L155.3,605.6L155.3,605.6z"/>
	<path class="st1" d="M969.7,631.3c0,0-2-5,6.5-8s60.5-20.5,60.5-20.5h27.5l13,28.5l-23.5,21.5h-84.2L969.7,631.3z"/>
	<path class="st1" d="M722.2,506.3l4,37.7l67.4-23.4l-16.3-26.8c0,0-2.5-4.5-5.5-4.5S722.2,506.3,722.2,506.3z"/>
	<path id="_x3C_Path_x3E_" class="st1" d="M683.8,551c-6.2-2.8-11,0.2-11,0.2l-21.2,18.4c-3.7,7.3-1.3,11.7-1.3,11.7s1.6,6.5,4,15.7
		l40.4-13.8C689,566.4,685.8,551.9,683.8,551z"/>
	<polygon class="st1" points="1020.7,258.7 1060.3,232.2 1105.7,298.7 1054.2,337.2 1045.7,325.7 1058.3,316.2 	"/>
	<polygon class="st1" points="826.2,372.3 857.7,420.8 900.3,391.3 867.7,342.7 	"/>
	<path class="st0" d="M745.6,727.8l14-4.5l108-6.5l-30.7-51.5l-3.2,4.2c-4,1.5-81.3,16-81.3,16s-6.6,1-10.1-0.6l-2.4,28.1l5.8,15.1
		L745.6,727.8z"/>
	<path class="st0" d="M1035.6,439.8c0,0,4.4-1.3,11.5-3.5l0,0l-44.9,12.2l52.8,61.4l32.7-9.5L1035.6,439.8z"/>
	<path id="q-space-2f" class="st1" d="M654.1,597c6.3,24.1,16,68,18.7,69.9c5.5,4,11.5,3,15-1l25.5-22.6
		c-8.8-28.5-9.6-31.7-18.8-59.8L654.1,597z"/>
	<path class="st2" d="M432.7,663.8l38.5-14.5c0,0,8.5-5.5,14.5,2.5s19,47,19,47s0,4-5.5,6s-53,13-53,13s-12,0.5-13.5-7
		S432.7,663.8,432.7,663.8z"/>
	<polygon id="q2b-3" class="st1" points="627.8,515.7 641.8,542 667.5,522.9 646.7,493.8 	"/>
</g>
<g id="rooms">
	<polygon id="q2c-1" class="st3" points="619.4,556.7 605.7,520 590.1,516.5 581.2,487.7 512.5,508.3 528.6,580.5 	"/>
	<polygon id="q2c-3" class="st3" points="555.2,781.6 655.2,781 654.5,691.8 555.2,710.9 	"/>
	<path id="qurator" class="st3" d="M645.7,642.3c-0.3-0.8-12.7-49.7-12.7-49.7l-13.6-36l-90.8,23.8l-16.1-71.9L158.2,615.8
		l-2.9-10.3l-25.1,7.9c0.3,0.5,0.3,0.3,0.3,0.3l81.2,170.5l343.5-2.7v-70.8l99.1-19.1C654.2,691.8,649.2,652.7,645.7,642.3z
		 M499.2,704.8c-5.5,2-53,13-53,13s-12,0.5-13.5-7s0-47,0-47l38.5-14.5c0,0,8.5-5.5,14.5,2.5s19,47,19,47S504.7,702.8,499.2,704.8z"
		/>
	<polygon id="q2c-2" class="st3" points="654.5,691.5 685.2,712.7 739.8,713 751.5,745.7 720.5,780.7 655.2,781 	"/>
	<polygon id="q2b-6" class="st3" points="833.3,453.8 855.2,447.5 818.5,386.3 799.1,399.8 	"/>
	<polygon id="q2b-5" class="st3" points="633.5,434.7 637.5,446 648.3,442.1 691.5,502.8 706.2,491 833.2,453.6 799.2,400 
		818.3,386.5 814.8,380.3 814.9,380.3 781.9,330.1 	"/>
	<polygon id="q2b-7" class="st3" points="857.8,421 871,440.2 905.9,416 892.8,396.8 	"/>
	<polygon id="scarlet-platinum-lounge" class="st3" points="883.5,331 921.5,304 889.2,254 781.9,330.1 814.9,380.3 867.8,342.3 
		900.5,391.3 892.8,396.8 905.9,416 928.3,400 915.6,380.4 	"/>
	<polygon id="q2b-2b" class="st3" points="837.3,506 829.3,480 874,462.7 881.9,489.8 	"/>
	<polygon id="q2b-2a" class="st3" points="881.9,489.8 874,462.7 976,393.3 1002.7,448.7 	"/>
	<path id="q2b-1" class="st3" d="M1005.3,374.7l30.3,65.2l119.7-37.2c0,0,12-2,17-12s52.7-142,52.7-142s5-12,0.7-19.3
		c-5.4-9.1-98.3-144.3-98.3-144.3L889.2,254l32.3,50l88.5-62l5.4,8.4l59.1-40.4l68.2,102.3l-70.7,50.3l-33.7-11.3L1005.3,374.7z"/>
	<path id="q2a-12" class="st3" d="M961.9,542.4l17.7,57.3l0.4-0.4l40.9-13.9l-18.4-57.1C990.5,532.5,976.5,537.3,961.9,542.4z"/>
	<path id="q2a-13" class="st3" d="M1066,541l-15.7,4.3l-9-30.3c0,0-15.9,5.4-38.8,13.3l18.4,57.1l53.1-18.1L1066,541z"/>
	<path id="q2a-10" class="st3" d="M865.8,576.6l13,41.4l23-8.9l16.1,51.6l19.8-19.5l-26.3-81C894.1,566.2,878.2,572,865.8,576.6z"/>
	<path id="q2a-11" class="st3" d="M961.9,542.4c-16.7,5.8-34.2,11.9-50.6,17.7l26.3,81l42-41.4L961.9,542.4z"/>
	<polygon id="q2a-9" class="st3" points="878.8,617.9 896.7,674.9 907.3,671 917.8,660.7 901.8,609 	"/>
	<path id="q2a-8" class="st3" d="M878.8,617.9l-13-41.4c-13.6,5.1-23,8.8-25.1,10.1C811,604.3,824.3,642,824.3,642l28.7,48.7
		l43.7-15.8L878.8,617.9L878.8,617.9z"/>
	<rect id="q2c-5" x="378.8" y="690.7" class="st3" width="49" height="20.2"/>
	<polygon id="q2c-6" class="st3" points="528.6,580.5 451.2,600.6 437,531.5 512.5,508.3 	"/>
	<polygon id="q2c-7" class="st3" points="456.2,626.3 534.9,607 528.6,580.5 451.2,600.6 	"/>
	
		<rect id="q2c-8" x="596.2" y="599.9" transform="matrix(0.9728 -0.2318 0.2318 0.9728 -127.8456 158.7053)" class="st3" width="30.5" height="46.9"/>
	<polygon id="q2a-6" class="st3" points="1031.7,690.7 1045.3,733 1070.8,724.6 1057.7,681.5 	"/>
	<polygon id="q2a-5" class="st3" points="1097.7,704.8 1083.8,659.8 1058,681.3 1057.7,681.5 1070.8,724.6 1101,714.7 1104.3,723 
		1132.6,715.3 1136.5,693.3 	"/>
	<path id="q2a-4" class="st3" d="M1159.1,659.8l-3.8-17.3l-51.4-5.1l-1.2,6.5l-18.9,15.8l13.9,45l38.7-11.5l1.9-12.8
		c0,0,2.6-7.5,7.9-13C1150.9,662.9,1158.3,660.1,1159.1,659.8z"/>
	<path id="q2a-3" class="st3" d="M1216.8,572.4l-107.2,34.2l-5.7,30.8l51.4,5.1l0,0l0,0l3.8,17.3c16.4-4.5,45.6-11.8,45.6-11.8
		s14-1,18.3-16.7c0.3-12.8,0-22.6-1.3-32.8C1220.4,589.1,1218.4,580.9,1216.8,572.4z"/>
	<path id="q2a-2" class="st3" d="M1209.6,545l-106.3,34.9l6.3,26.1l-0.1,0.7l107.2-34.2C1214.9,562.6,1211.8,553.4,1209.6,545z"/>
	<path id="q2a-7" class="st3" d="M888.4,751.8l16.3-9.5V739L884,706.3l5-4l130.7-8.3l17,54l-15.3,5.3l14.3,43.1l-95.2-1.1
		c0,0-25.2-2.2-39.5-21.3C901,774.4,888.4,751.8,888.4,751.8z"/>
	<polygon id="q2b-8" class="st3" points="946.2,359.4 918,318.5 901.2,330.8 928.7,370.8 915.6,380.4 928.2,400 958.6,377.9 
		958.7,377.8 	"/>
	<polygon id="q2b-9" class="st3" points="1014.5,310 946.2,359.4 958.7,377.8 1020.7,332.8 	"/>
	<path id="q2a-1" class="st3" d="M1189.3,486c0,0-6.7-17.5-27-9.3c-15,6-76,24.3-76,24.3l0.7,11.3l16.3,67.6l106.3-34.9
		C1200.1,508.2,1189.3,486,1189.3,486z"/>
	<polygon id="q2b-4" class="st3" points="637.5,446 649.5,490.3 646.7,493.8 667.5,522.9 691.5,502.8 648.3,442.1 	"/>
	
		<rect id="q2b-11" x="1081.3" y="222" transform="matrix(0.8172 -0.5763 0.5763 0.8172 47.6471 674.6717)" class="st3" width="12.3" height="80.5"/>
	<path id="q2b-12" class="st3" d="M726.1,544l-2.7-26.1c0,0-53.5,12.4-51.4,16.2s11.8,16.9,11.8,16.9l2.9,6.5L726.1,544z"/>
	<polygon id="q2c-4" class="st3" points="174.4,707 269.3,736.7 269.3,783.9 211.7,784.3 	"/>
</g>
<g id="signs">
	<rect id="parking" x="321" y="458" width="45" height="45"/>
	<g id="escalator">
		<rect id="escalator-1" x="441" y="662" width="45" height="45"/>
		<rect id="escalator-2" x="729" y="492" width="45" height="45"/>
		<rect id="escalator-3" x="999" y="624" width="45" height="45"/>
		<rect id="escalator-4" x="1046" y="258" width="45" height="45"/>
	</g>
	<g id="lift">
		<rect id="lift-1" x="579" y="467" width="45" height="45"/>
		<rect id="lift-2" x="1018" y="284" width="45" height="45"/>
		<rect id="lift-3" x="708" y="633" width="45" height="45"/>
		<rect id="lift-4" x="1014" y="744" width="45" height="45"/>
		<rect id="lift-5" x="988" y="595" width="45" height="45"/>
		<rect id="lift-6" x="834" y="383" width="45" height="45"/>
	</g>
	<rect id="stairs" x="548" y="479" width="45" height="45"/>
	<g id="toilet">
		<rect id="toilet-1" x="584" y="435" width="45" height="45"/>
		<rect id="toilet-2" x="1064" y="729" width="45" height="45"/>
		<rect id="toilet-3" x="995" y="261" width="45" height="45"/>
	</g>
	<rect id="information" x="141" y="621" width="45" height="45"/>
	<rect id="entrance" x="525.5" y="479" width="45" height="45"/>
	<polygon id="breastfeeding-room" class="st1" points="883.2,331 915.3,380.2 928.7,370.8 901.2,330.8 918,318.5 946.2,359.4 
		1014.5,310 994.2,279.3 1021.2,259.6 1010,242 	"/>
</g>
</svg>
