<?xml version="1.0" encoding="utf-8"?>
<!-- Generator: Adobe Illustrator 16.0.0, SVG Export Plug-In . SVG Version: 6.00 Build 0)  -->
<!DOCTYPE svg PUBLIC "-//W3C//DTD SVG 1.1//EN" "http://www.w3.org/Graphics/SVG/1.1/DTD/svg11.dtd">
<svg version="1.1" id="Layer_1" xmlns="http://www.w3.org/2000/svg" xmlns:xlink="http://www.w3.org/1999/xlink" x="0px" y="0px"
	 width="1338px" height="892px" viewBox="0 0 1338 892" enable-background="new 0 0 1338 892" xml:space="preserve">
<g id="background">
</g>
<g id="etc">
	<path fill="#BFBFBF" stroke="#494949" stroke-miterlimit="10" d="M1174.107,384.843c0,0,46-120,51-135s0-23,0-23l-98-141.5
		L633.5,434.676l0,0l-55.607,17.49l9.109,33.625l-5.835,1.875L590,516.5l15.662,3.534l27.006,72.138
		c0,0,21.332,75.579,21.082,98.329C653.594,704.693,655,781,655,781l65.108,0.344l30.5-35l-5-18.5l14-4.5l108-6.5l27,45.5
		c10.5,29,45,33,45,33s131,2.5,155.5,0s27.5-23,27.5-23s12.5-70.5,15.5-89s21-23.5,21-23.5l46.5-12c0,0,19-2,17.5-23.5
		c3-35-25-123.5-35.5-141c-5.5-12-23.5-6.5-23.5-6.5l-76,24l-52.5-61c0,0,113-34.5,125-39S1174.107,384.843,1174.107,384.843z
		 M1055,509.838l-213.666,76c0,0-28.167,14-18.667,50c4.36,14.717,14.333,29.333,14.333,29.333l-3.333,4.333
		c-4,1.5-81.333,16-81.333,16s-9.167,1.333-11.667-1.667s-9-10-9-10L747,663.504l-17.333-28l-16,9l-26.982-87.023L1002,448.171
		L1055,509.838z"/>
	<path fill="#878787" stroke="#494949" stroke-miterlimit="10" d="M155.259,605.571L155.259,605.571l2.743,10.43l429-130.209
		l-9.109-33.625l0,0l0,0l55.607-17.49c-2.906-4.365-42.94-65.462-59.333-82.338c-17-17.5-60.5-12.5-60.5-12.5
		S141.43,448.326,135.832,452.67c-11.163,8.663-35.333,35.333-34.667,69.333s34.667,56.667,34.667,56.667s-1.666,8.667-6.666,16.167
		c-4.1,6.149-0.726,15.996,0.836,18.496L155.259,605.571L155.259,605.571z"/>
	<path fill="#878787" stroke="#494949" stroke-miterlimit="10" d="M969.666,631.338c0,0-2-5,6.5-8s60.5-20.5,60.5-20.5h27.5l13,28.5
		l-23.5,21.5h-84.205L969.666,631.338z"/>
	<path fill="#878787" stroke="#494949" stroke-miterlimit="10" d="M722.166,506.338l3.958,37.689l67.369-23.408l-16.327-26.781
		c0,0-2.5-4.5-5.5-4.5S722.166,506.338,722.166,506.338z"/>
	<polygon fill="#878787" stroke="#494949" stroke-miterlimit="10" points="1020.666,258.667 1060.339,232.164 1105.666,298.667 
		1054.166,337.167 1045.666,325.667 1058.333,316.163 	"/>
	<polygon fill="#878787" stroke="#494949" stroke-miterlimit="10" points="826.167,372.334 857.666,420.838 900.335,391.333 
		867.668,342.667 	"/>
	<polygon fill="#878787" stroke="#494949" stroke-miterlimit="10" points="883.167,331 915.334,380.167 928.666,370.838 
		901.166,330.838 918,318.5 946.201,359.354 1014.5,310 994.166,279.338 1021.245,259.551 1010,242 	"/>
	<path fill="#BFBFBF" stroke="#494949" stroke-miterlimit="10" d="M745.608,727.843l14-4.5l107.973-6.499l-30.677-51.548
		l-3.236,4.208c-4,1.5-81.333,16-81.333,16s-6.603,0.953-10.126-0.597l-2.375,28.097l5.839,15.075L745.608,727.843z"/>
	<path fill="#BFBFBF" stroke="#494949" stroke-miterlimit="10" d="M1035.607,439.843c0,0,4.393-1.341,11.519-3.522l-0.039-0.042
		l-44.856,12.16l52.77,61.399l32.694-9.475L1035.607,439.843z"/>
	<path id="q-space-2f" fill="#878787" stroke="#494949" stroke-miterlimit="10" d="M654.149,597
		c6.274,24.057,16.026,67.969,18.684,69.9c5.548,4.034,11.452,2.965,15-1l25.468-22.58c-8.842-28.52-9.607-31.744-18.801-59.846
		L654.149,597z"/>
	<path fill="#878787" d="M432.666,663.838l38.5-14.5c0,0,8.5-5.5,14.5,2.5s19,47,19,47s0,4-5.5,6s-53,13-53,13s-12,0.5-13.5-7
		S432.666,663.838,432.666,663.838z"/>
	<polygon id="q2b-3" fill="#878787" stroke="#494949" stroke-miterlimit="10" points="627.833,515.675 641.833,542.009 
		667.536,522.921 646.713,493.757 	"/>
	<polygon id="q2b-4" fill="#878787" stroke="#494949" stroke-miterlimit="10" points="637.544,445.975 649.5,490.342 
		646.713,493.757 667.536,522.921 691.54,502.787 648.342,442.075 	"/>
	<path id="q2a-1" fill="#878787" stroke="#494949" stroke-miterlimit="10" d="M1189.333,486c0,0-6.655-17.472-27-9.333
		c-15,6-76,24.333-76,24.333l0.667,11.333l16.35,67.565l106.254-34.926C1200.126,508.206,1189.333,486,1189.333,486z"/>
</g>
<g id="rooms">
	<polygon id="q2c-1" fill="#494949" stroke="#212121" stroke-miterlimit="10" points="619.383,556.685 605.662,520.033 
		590.139,516.496 581.167,487.667 512.5,508.333 528.598,580.532 	"/>
	<polygon id="q2c-3" fill="#494949" stroke="#212121" stroke-miterlimit="10" points="555.166,781.639 655.166,781.005 
		654.5,691.75 555.166,710.879 	"/>
	<path id="qurator" fill="#494949" stroke="#212121" stroke-miterlimit="10" d="M645.667,642.333
		C645.395,641.528,633,592.667,633,592.667l-13.617-35.982l-90.785,23.849L512.5,508.667L158.167,615.833l-2.907-10.262
		l-25.093,7.929c0.343,0.549,0.333,0.333,0.333,0.333l81.166,170.505l343.5-2.699V710.88l99.084-19.129
		C654.25,691.75,649.167,652.667,645.667,642.333z M499.166,704.838c-5.5,2-53,13-53,13s-12,0.5-13.5-7s0-47,0-47l38.5-14.5
		c0,0,8.5-5.5,14.5,2.5s19,47,19,47S504.666,702.838,499.166,704.838z"/>
	<polygon id="q2c-2" fill="#494949" stroke="#212121" stroke-miterlimit="10" points="654.5,691.5 685.166,712.671 739.833,713.004 
		751.5,745.671 720.5,780.671 655.166,781.005 	"/>
	<path id="q2b-10" fill="#494949" stroke="#212121" stroke-miterlimit="10" d="M683.75,551c-6.25-2.75-11,0.25-11,0.25
		l-21.25,18.425c-3.667,7.333-1.333,11.667-1.333,11.667s1.596,6.509,3.983,15.659l40.351-13.75
		C688.998,566.432,685.758,551.884,683.75,551z"/>
	<polygon id="q2b-6" fill="#494949" stroke="#212121" stroke-miterlimit="10" points="833.333,453.834 855.167,447.5 818.5,386.342 
		799.128,399.836 	"/>
	<polygon id="q2b-5" fill="#494949" stroke="#212121" stroke-miterlimit="10" points="633.5,434.676 637.544,445.975 
		648.342,442.075 691.54,502.787 706.166,491.009 833.229,453.576 799.167,400 818.334,386.5 814.833,380.342 814.88,380.309 
		781.932,330.083 	"/>
	<polygon id="q2b-7" fill="#494949" stroke="#212121" stroke-miterlimit="10" points="857.834,421 871,440.167 905.889,415.96 
		892.846,396.792 	"/>
	<polygon id="scarlet-platinum-lounge" fill="#494949" stroke="#212121" stroke-miterlimit="10" points="883.5,331 921.5,304.009 
		889.166,254.009 781.932,330.083 814.88,380.309 867.833,342.342 900.5,391.342 892.846,396.792 905.889,415.96 928.333,400 
		915.613,380.424 	"/>
	<polygon id="q2b-2" fill="#494949" stroke="#212121" stroke-miterlimit="10" points="837.333,506.002 829.333,480.002 874,462.669 
		976,393.335 1002.667,448.669 	"/>
	<path id="q2b-1" fill="#494949" stroke="#212121" stroke-miterlimit="10" d="M1005.333,374.667l30.274,65.177l119.726-37.177
		c0,0,12-2,17-12s52.667-142,52.667-142s5-12.001,0.666-19.334C1220.278,220.218,1127.333,85,1127.333,85L889.166,254.009l32.334,50
		L1010,242l5.41,8.445L1074.5,210l68.166,102.333L1072,362.667l-33.667-11.333L1005.333,374.667z"/>
	<path id="q2a-12" fill="#494949" stroke="#212121" stroke-miterlimit="10" d="M961.875,542.405l17.708,57.339l0.417-0.411
		l40.936-13.936l-18.428-57.063C990.456,532.491,976.477,537.326,961.875,542.405z"/>
	<path id="q2a-13" fill="#494949" stroke="#212121" stroke-miterlimit="10" d="M1066,541l-15.666,4.333l-9-30.333
		c0,0-15.933,5.441-38.826,13.335l18.428,57.063L1074,567.333L1066,541z"/>
	<path id="q2a-10" fill="#494949" stroke="#212121" stroke-miterlimit="10" d="M865.766,576.556l13.015,41.388l22.991-8.915
		l16.052,51.628l19.792-19.521l-26.305-81C894.111,566.227,878.171,571.953,865.766,576.556z"/>
	<path id="q2a-11" fill="#494949" stroke="#212121" stroke-miterlimit="10" d="M961.875,542.405
		c-16.695,5.809-34.2,11.935-50.564,17.73l26.305,81l41.969-41.392L961.875,542.405z"/>
	<polygon id="q2a-9" fill="#494949" stroke="#212121" stroke-miterlimit="10" points="878.779,617.942 896.676,674.857 907.334,671 
		917.822,660.655 901.771,609.027 	"/>
	<path id="q2a-8" fill="#494949" stroke="#212121" stroke-miterlimit="10" d="M878.779,617.942l-13.015-41.388
		c-13.644,5.063-23.019,8.77-25.099,10.11C811,604.333,824.333,642,824.333,642L853,690.666l43.676-15.809L878.779,617.942
		L878.779,617.942z"/>
	<polygon id="q2a-6" fill="#494949" stroke="#212121" stroke-miterlimit="10" points="1031.667,690.667 1045.334,733 
		1070.808,724.61 1057.651,681.457 	"/>
	<polygon id="q2a-5" fill="#494949" stroke="#212121" stroke-miterlimit="10" points="1097.723,704.8 1083.778,659.787 
		1058,681.333 1057.651,681.457 1070.808,724.61 1101,714.667 1104.334,723 1132.636,715.328 1136.458,693.324 	"/>
	<path id="q2a-4" fill="#494949" stroke="#212121" stroke-miterlimit="10" d="M1159.107,659.843l-3.792-17.271l-51.447-5.095
		l-1.201,6.521l-18.889,15.788l13.943,45.013l38.735-11.477l1.925-12.754c0,0,2.566-7.519,7.91-13.008
		C1150.88,662.851,1158.281,660.068,1159.107,659.843z"/>
	<path id="q2a-3" fill="#494949" stroke="#212121" stroke-miterlimit="10" d="M1216.752,572.411l-107.206,34.241l-5.678,30.825
		l51.446,5.095l0,0l0,0l3.793,17.271c16.351-4.456,45.56-11.844,45.56-11.844s14-1,18.333-16.667
		c0.328-12.833-0.026-22.61-1.331-32.75C1220.45,589.104,1218.387,580.944,1216.752,572.411z"/>
	<path id="q2a-2" fill="#494949" stroke="#212121" stroke-miterlimit="10" d="M1209.604,544.974l-106.254,34.926l6.316,26.101
		l-0.12,0.653l107.206-34.241C1214.867,562.569,1211.771,553.384,1209.604,544.974z"/>
	<path id="q2a-7" fill="#494949" stroke="#212121" stroke-miterlimit="10" d="M888.354,751.805l16.313-9.472V739L884,706.333l5-4
		L1019.667,694l17,54l-15.333,5.333l14.332,43.11L940.5,795.36c0,0-25.166-2.193-39.509-21.271
		C900.991,774.423,888.354,751.805,888.354,751.805z"/>
	<polygon id="q2b-8" fill="#494949" stroke="#212121" stroke-miterlimit="10" points="946.201,359.354 918,318.5 901.166,330.838 
		928.666,370.838 915.613,380.424 928.167,400 958.6,377.902 958.74,377.801 	"/>
	<polygon id="q2b-9" fill="#494949" stroke="#212121" stroke-miterlimit="10" points="1014.5,310 946.201,359.354 958.74,377.801 
		1020.667,332.833 	"/>
</g>
<g id="signs">
	<rect id="parking" x="321" y="458" width="45" height="45"/>
	<g id="escalator">
		<rect id="escalator-1" x="441" y="662" width="45" height="45"/>
		<rect id="escalator-2" x="729" y="492" width="45" height="45"/>
		<rect id="escalator-3" x="999" y="624" width="45" height="45"/>
		<rect id="escalator-4" x="1046" y="258" width="45" height="45"/>
	</g>
	<g id="lift">
		<rect id="lift-1" x="579" y="467" width="45" height="45"/>
		<rect id="lift-2" x="1018" y="284" width="45" height="45"/>
		<rect id="lift-3" x="708" y="633" width="45" height="45"/>
		<rect id="lift-4" x="1014" y="744" width="45" height="45"/>
		<rect id="lift-5" x="988" y="595" width="45" height="45"/>
		<rect id="lift-6" x="834" y="383" width="45" height="45"/>
	</g>
	<rect id="stairs" x="548" y="479" width="45" height="45"/>
	<g id="toilet">
		<rect id="toilet-1" x="584" y="435" width="45" height="45"/>
		<rect id="toilet-2" x="1064" y="729" width="45" height="45"/>
		<rect id="toilet-3" x="995" y="261" width="45" height="45"/>
	</g>
	<rect id="information" x="141" y="621" width="45" height="45"/>
	<rect id="entrance" x="525.5" y="479" width="45" height="45"/>
</g>
</svg>
