<?xml version="1.0" encoding="utf-8"?>
<!-- Generator: Adobe Illustrator 16.0.0, SVG Export Plug-In . SVG Version: 6.00 Build 0)  -->
<!DOCTYPE svg PUBLIC "-//W3C//DTD SVG 1.1//EN" "http://www.w3.org/Graphics/SVG/1.1/DTD/svg11.dtd">
<svg version="1.1" xmlns="http://www.w3.org/2000/svg" xmlns:xlink="http://www.w3.org/1999/xlink" x="0px" y="0px" width="1338px"
	 height="892px" viewBox="0 0 1338 892" enable-background="new 0 0 1338 892" xml:space="preserve">
<g id="background">
</g>
<g id="etc">
	<polygon fill="#BFBFBF" points="1074.118,212.878 1018.949,250.806 1032.053,270 1032.053,270 1032.053,270 1004.022,289.826 
		1054.205,365.286 1136.443,306.619 	"/>
	<polygon fill="#868686" stroke="#494949" stroke-miterlimit="10" points="1069.5,243 1106,300 1056,335 1034.5,304 1048,294 
		1032.053,270 	"/>
	<path fill="#BFBFBF" stroke="#494949" stroke-miterlimit="10" d="M746.483,694.635l29.254,48.7c1.58-5.24,2.955-10.164,3.59-13.339
		c2-10,8-10,8-10l79.411-3.971l-15.122-27.961L746.483,694.635z"/>
	<polygon fill="#BFBFBF" stroke="#494949" stroke-miterlimit="10" points="1085.011,416.289 1085.01,416.496 1061.668,425.742 
		1062.334,503.289 1084.667,495.915 	"/>
	<path fill="#BFBFBF" stroke="#494949" stroke-miterlimit="10" d="M1231.33,500.665c0,0-8.667-8.667-18.667-26s-41.333-6-41.333-6
		L1084.667,496v-0.085l-22.333,7.374v0.045c0,0-211.669,74.665-228.336,79.999s-12,14.667-12,14.667s2,33.333,3.333,40.667
		s5.333,12.667,5.333,12.667l22,36.667l-1.049,0.065l15.122,27.961l0.589-0.029c0,0,19.137,35.441,33.137,54.774
		c19.333,23.333,49.53,19.893,49.53,19.893s149.333,5.333,158.667,2s8.666-12.667,8.666-12.667s16-82.667,22-103.333
		s21.931-24.422,21.931-24.422s12.072-5.576,36.739-14.243s26.666-22,26.666-22s7.334-37.333,12.667-70.667
		S1231.33,500.665,1231.33,500.665z"/>
	<polygon fill="#868686" stroke="#494949" stroke-miterlimit="10" points="739.274,536.835 738.5,493 788.5,477 811.528,512.004 	
		"/>
	<path id="quartier-hall" fill="#868686" stroke="#494949" stroke-miterlimit="10" d="M1098.099,248.946l38.345,57.672
		l-82.238,58.667l-38.42-57.772L811.528,452.845l32.428,48.003c72.48-24.941,155.984-53.732,217.711-75.182l0.001,0.075
		l23.342-9.246l0.001-0.207c1.431-0.497,62.461-21.668,66.323-22.956c18-6,18-19.333,18-19.333s20.667-101.333,22-108
		s1.333-16.667,1.333-16.667l-13.438-58.112L1098.099,248.946z"/>
	<path fill="#868686" stroke="#494949" stroke-miterlimit="10" d="M973,631l-2.5,29.5c0,0,0,10.5,11,12s25.5-1,25.5-1l73-30.5
		l35.5-45l-15.5-12c0,0-3.5-3.5-8.5,0s-106,36-106,36S974.5,620.5,973,631z"/>
</g>
<g id="rooms">
	<polygon id="virgin-active-fitness-club" fill="#494949" stroke="#212121" stroke-miterlimit="10" points="1004.022,289.826 
		1032.053,270 1018.949,250.806 1074.118,212.878 1098.099,248.946 1179.229,191.221 1168.002,142.667 1126.669,83.333 
		744.886,354.193 811.528,452.845 1015.785,307.514 	"/>
	<path id="quartier-cineart-imax" fill="#494949" stroke="#212121" stroke-miterlimit="10" d="M715.332,644.665l-27.999-90
		c0,0,70.535-24.192,156.624-53.816l-99.07-146.656l-111.552,79.141c0,0-30-52-53.333-78.667s-69.333-14-69.333-14l-321.334,96.667
		L192.667,450c0,0-14.667-6-30-4.667S110,462,101.333,508.667s34.667,72,34.667,72L127.333,598l79.327,186.664
		c0,0,527.334-2.001,544-2.001s17.333-15.333,17.333-15.333s4.347-12.731,7.743-23.995L746.75,695.25L715.332,644.665z M788.5,477
		l23.028,35.004l-72.254,24.831L738.5,493L788.5,477z"/>
	<path id="q4a-8" fill="#494949" stroke="#212121" stroke-miterlimit="10" d="M835,584c0,0-14,2.5-13,15.5s4.5,46,4.5,46
		l26.165,42.499L863.5,688l35.141-17.71l-31.274-97.884L835,584z"/>
	<polygon id="q4a-9" fill="#494949" stroke="#212121" stroke-miterlimit="10" points="867.366,572.405 898.641,670.29 926,656.5 
		939.917,641.022 912.781,556.136 	"/>
	<polygon id="q4a-10" fill="#494949" stroke="#212121" stroke-miterlimit="10" points="912.781,556.136 939.917,641.022 979.5,597 
		979.691,596.934 960.496,539.042 	"/>
	<polygon id="q4a-11" fill="#494949" stroke="#212121" stroke-miterlimit="10" points="960.496,539.042 979.691,596.934 
		1026.511,580.7 1008.391,521.884 	"/>
	<polygon id="q4a-12" fill="#494949" stroke="#212121" stroke-miterlimit="10" points="1072,543 1055.5,548 1045.5,517.5 1063,512 
		1062.5,502.5 1008.391,521.884 1026.511,580.7 1079,562.5 	"/>
	<path id="q4a-6" fill="#494949" stroke="#212121" stroke-miterlimit="10" d="M921.093,695.042l28.034,95.553
		c9.795,0.254,23.425,1.187,37.191,1.246l-29.483-96.626L921.093,695.042z"/>
	<polygon id="q4a-4" fill="#494949" stroke="#212121" stroke-miterlimit="10" points="1062.5,741.5 1044.5,684.5 1016,695.5 
		1011.28,695.477 1030.096,752.61 	"/>
	<path id="q4a-5" fill="#494949" stroke="#212121" stroke-miterlimit="10" d="M1030.096,752.61l-18.815-57.133l-54.136,0.551
		l29.174,95.813c27.113,0.763,55.926,1.434,55.926,1.434L1027.5,753.5L1030.096,752.61z"/>
	<path id="q4a-7" fill="#494949" stroke="#212121" stroke-miterlimit="10" d="M912.5,695l-45.173,20.996
		c0,0,19.818,33.865,26.673,45.004c10,16.25,20.5,25.5,42.5,29c2.336,0.25,6.809,0.444,12.627,0.595l-28.034-95.553L912.5,695z"/>
	<polygon id="q4a-3" fill="#494949" stroke="#212121" stroke-miterlimit="10" points="1087.5,670.5 1055.5,681 1070.5,725 
		1101.875,713.5 	"/>
	<path id="another-story" fill="#494949" stroke="#212121" stroke-miterlimit="10" d="M1238,524c-0.5-12.5-3.5-18.5-6.5-24
		s-23-29-23-29s-2.5-11-24-5.5s-100,29.5-100,29.5v13l8,24.5l33,25l11.5,37l-26.626,41.051l51.79,16.69
		c1.513-0.462,3.114-0.882,4.836-1.241c7-2,42-17.5,42-17.5s9-3.5,13.5-12S1238.5,569.5,1238,524z"/>
	<path id="q4a-2" fill="#494949" stroke="#212121" stroke-miterlimit="10" d="M1087.625,670.625l17,51.375l26.375-8.5
		c0,0,5.354-29.08,9.028-39.04c2.569-6.964,9.473-20.126,22.136-22.219l-51.79-16.69L1087.625,670.625z"/>
</g>
<g id="signs">
	<g id="toilet">
		<rect id="toilet-1" x="984" y="243" width="45" height="45"/>
		<rect id="toilet-2" x="1065.495" y="729.989" width="45" height="45"/>
	</g>
	<g id="escalator">
		<rect id="escalator-1" x="747.511" y="484.002" width="45" height="45"/>
		<rect id="escalator-2" x="1031.509" y="233.517" width="45" height="45"/>
		<rect id="escalator-3" x="1072.506" y="590.499" width="45" height="45"/>
	</g>
	<g id="lift">
		<rect id="lift-1" x="596.53" y="468.505" width="45" height="45"/>
		<rect id="lift-2" x="695.542" y="646.999" width="45" height="45"/>
		<rect id="lift-3" x="1016.526" y="741.494" width="45" height="45"/>
		<rect id="lift-4" x="991.028" y="596.001" width="45" height="45"/>
		<rect id="lift-5" x="1012.026" y="260.018" width="45" height="45"/>
	</g>
</g>
</svg>
