<?xml version="1.0" encoding="utf-8"?>
<!-- Generator: Adobe Illustrator 19.2.0, SVG Export Plug-In . SVG Version: 6.00 Build 0)  -->
<svg version="1.1" id="Layer_1" xmlns="http://www.w3.org/2000/svg" xmlns:xlink="http://www.w3.org/1999/xlink" x="0px" y="0px"
	 viewBox="0 0 1338 892" style="enable-background:new 0 0 1338 892;" xml:space="preserve">
<style type="text/css">
	.st0{fill:#BFBFBF;}
	.st1{fill:#878787;stroke:#494949;stroke-miterlimit:10;}
	.st2{fill:#878787;}
	.st3{opacity:0.7;fill:#494949;stroke:#212121;stroke-miterlimit:10;enable-background:new    ;}
</style>
<g id="background">
</g>
<g id="etc">
	<polygon class="st0" points="1225.4,450.4 1225.6,449.2 1239.6,379.3 1253.9,275.1 1134.3,82.7 633.7,435.2 556.8,327.1 
		123.4,453.1 94.9,504.2 105.4,557.1 211.7,791.3 791,793.2 804.9,768.8 893.7,767 895,766.9 911.1,795.5 1112.2,801.5 1138.9,668 
		1226.3,639.9 1265,436.6 	"/>
	<path id="etc-parking" class="st1" d="M1239.6,379.2L726.6,552l-27-13.3l-25.5,8.3l-0.5,27.6l43.7,69l12-8.7l28.5,39.6l-47.4,11.5
		l-0.1-0.1l-58.7,14.9l-41.6-159.5l-12.9,3.9L572.5,468l43.7-15.9l17.5-17L556.8,327L123.4,453l-28.5,51.1l10.6,52.9l106.3,234.2
		l579.3,1.8l13.8-24.4l88.9-1.8L791,591.5l434.6-142.4L1239.6,379.2z M472.2,552c-13.8,4.1-38.2,10.1-38.2,10.1l-0.9-2.1l-80.5,21.7
		l-14.3-50.4l81-21.6V506l41-11.5c0,0,8.7-0.9,11,7.8c2.3,8.7,8.3,35.9,8.3,35.9S486,547.8,472.2,552z"/>
	<path id="etc-automated-parking" class="st1" d="M1225.4,450.3l0.2-1.2L791,591.5l102.7,175.3l1.3,0l16.1,28.5l201.1,6l26.7-133.4
		l87.4-28.1l38.7-203.4L1225.4,450.3z M939.9,673.9l-20-64.2l104.2-34.5l20.2,62.8L939.9,673.9z"/>
	<polygon class="st2" points="1031,244.3 988,184.8 751.5,351.8 765.7,371.9 792.2,353 809.4,374.6 794.7,385.4 812.1,410.6 
		813.3,412.3 837.3,395.4 837.1,395.1 837.3,395.4 860.7,379 884.8,362.1 884.7,361.9 884.8,362.1 884.9,362 884.7,361.6 884.9,362 
		908.2,345.7 908.6,345.3 908.1,344.7 908.6,345.3 931.3,329.4 932.1,328.9 956,312.1 956,312.1 980.5,294.9 980.6,294.8 
		1003.7,278.7 997.2,269.4 	"/>
	<polygon id="etc-automated-parking-lobby" class="st1" points="919.9,609.7 939.9,673.9 1044.3,638 1024.1,575.2 	"/>
	<path id="etc-parking-lobby" class="st1" d="M433.1,560l0.9,2.1c0,0,24.4-6,38.2-10.1s7.4-13.8,7.4-13.8s-6-27.1-8.3-35.9
		c-2.3-8.7-11-7.8-11-7.8l-41,11.5v3.7l-81,21.6l14.3,50.4L433.1,560z"/>
</g>
<g id="rooms">
	<polygon id="qbb-34" class="st3" points="813.3,412.3 829.7,436 853.8,419.3 837.3,395.4 	"/>
	<polygon id="qbb-36" class="st3" points="860.7,379 877.9,402.6 901.7,386.2 884.9,362 	"/>
	<polygon id="qbb-37" class="st3" points="884.9,362 901.7,386.2 926.2,369.2 908.6,345.3 	"/>
	<polygon id="qbb-38" class="st3" points="908.6,345.3 926.2,369.2 949.5,353 931.3,329.4 	"/>
	<polygon id="qbb-39" class="st3" points="931.3,329.4 949.5,353 998.2,319.3 980.5,294.9 	"/>
	<polygon id="qbb-40" class="st3" points="1003.7,278.7 980.6,294.8 998.2,319.3 1021.1,303.5 	"/>
	<polygon id="qbb-35" class="st3" points="837.3,395.4 853.8,419.3 877.9,402.6 860.7,379 	"/>
	<polygon id="qbb-31" class="st3" points="751.5,351.8 633.7,435.1 646.6,455.3 765.6,371.7 	"/>
	<polygon id="quartier-food-court" class="st3" points="812.2,442.5 765.6,371.9 765.7,371.9 765.6,371.7 646.6,455.3 669.6,491.2 	
		"/>
	<polygon id="qbb-1" class="st3" points="988,184.8 1013.3,219.8 1070.4,179.3 1045.7,144.5 	"/>
	<polygon id="qbb-2" class="st3" points="1045.7,144.5 1070.4,179.3 1125.5,140.1 1101.9,105.3 	"/>
	<polygon id="qbb-4" class="st3" points="1185,164.2 1155.3,186.3 1173.6,214.9 1203.7,194.3 	"/>
	<polygon id="qbb-5" class="st3" points="1222.4,224.3 1203.8,194.4 1203.7,194.3 1173.6,214.9 1192.3,244 	"/>
	<polygon id="qbb-6" class="st3" points="1222.4,224.3 1192.3,244 1210.7,272.6 1218.4,284.6 1212.8,315.8 1248.5,315.8 
		1253.9,275.1 	"/>
	<polygon id="qbb-7" class="st3" points="1240.1,379 1248.5,315.8 1212.8,315.8 1205.6,355.4 1239.6,379.2 	"/>
	<polygon id="qbb-8" class="st3" points="1205.6,355.4 1205.6,355.4 1186.6,376.1 1165.9,382.9 1173.2,401.6 1239.6,379.2 	"/>
	<polygon id="qbb-12" class="st3" points="979.1,444.4 986.8,464.7 1037.7,447.1 1031.5,427.7 	"/>
	<polygon id="qbb-11" class="st3" points="1031.5,427.7 1037.7,447.1 1081.7,432.4 1075.5,413.9 	"/>
	<polygon id="qbb-10" class="st3" points="1119,398.4 1075.5,413.9 1081.7,432.4 1124.9,417.8 	"/>
	<polygon id="qbb-33" class="st3" points="918.5,464.7 926.7,484.6 986.8,464.7 979.1,444.4 	"/>
	<polygon id="qbb-13" class="st3" points="818.3,497.6 825.4,518.7 926.7,484.6 918.5,464.7 	"/>
	<polygon id="qbb-9" class="st3" points="1165.9,382.9 1119,398.4 1124.9,417.8 1173.2,401.6 	"/>
	<polygon id="qbb-14" class="st3" points="1024.1,234.7 1072.4,200.4 1125.5,280.8 1105.9,294.8 1065.2,232.9 1038.2,254.1 	"/>
	<polygon id="qbb-15" class="st3" points="1078.8,195.9 1125.5,164.2 1147.6,202.1 1104.9,233.2 	"/>
	<polygon id="qbb-16" class="st3" points="1111.4,247.6 1157,216.6 1175.6,246 1131.1,276.7 	"/>
	<polygon id="qbb-17" class="st3" points="1138.3,287.7 1165.9,326.4 1179.1,319.3 1187,263.6 1183.2,257.4 	"/>
	<polygon id="qbc-1" class="st3" points="670,621.9 643.3,531.3 610.2,541.2 633.9,632.1 670.1,622 	"/>
	<polygon id="qbc-2" class="st3" points="710.5,685.8 670.1,622 633.9,632.1 651.7,700.7 	"/>
	<polygon id="qbb-3" class="st3" points="1155.3,186.3 1125.6,140 1101.9,105.3 1134.3,82.6 1185,164.2 	"/>
	<path id="qbb-19" class="st3" d="M1125.5,341.5l-22.9-34.7l-10.2,7c0,0-3.9,2.9-1.3,6.8c2.6,3.9,18,26.3,18,26.3
		s2.9,3.9,6.8,1.3C1119.7,345.4,1125.5,341.5,1125.5,341.5z"/>
	<path id="qbb-18" class="st3" d="M1103.2,306.4l22.8,34.6l10.1-6.9c0,0,3.9-2.9,1.3-6.7s-17.9-26.2-17.9-26.2s-2.9-3.9-6.7-1.3
		C1108.9,302.5,1103.2,306.4,1103.2,306.4z"/>
	<path id="qbb-20" class="st3" d="M1078.6,325.2l17.5,26.5c1.7,2.6,1,6.1-1.6,7.8l-14.2,9.3c-2.6,1.7-6.1,1-7.8-1.6l-17.5-26.5
		c-1.7-2.6-1-6.1,1.6-7.8l14.2-9.3C1073.4,321.9,1076.9,322.6,1078.6,325.2z"/>
	<polygon id="qbb-21" class="st3" points="1041,356.9 1031.3,361.9 1022.2,344.1 1032.2,338.9 	"/>
	
		<rect id="qbb-22" x="1035.3" y="358.3" transform="matrix(0.8894 -0.4571 0.4571 0.8894 -53.2671 516.4591)" class="st3" width="10.9" height="20.1"/>
	
		<rect id="qbb-23" x="1020.3" y="344.5" transform="matrix(0.8894 -0.4571 0.4571 0.8894 -53.1708 509.3722)" class="st3" width="11.6" height="40.1"/>
	
		<rect id="qbb-24a" x="978.9" y="364.5" transform="matrix(0.8754 -0.4834 0.4834 0.8754 -57.0765 523.4377)" class="st3" width="15.8" height="15.8"/>
	
		<rect id="qbb-24b" x="965.1" y="372.2" transform="matrix(0.8754 -0.4834 0.4834 0.8754 -62.4828 517.7135)" class="st3" width="15.8" height="15.8"/>
	
		<rect id="qbb-28b" x="951.5" y="379.6" transform="matrix(0.8754 -0.4834 0.4834 0.8754 -67.7798 512.1049)" class="st3" width="15.8" height="15.8"/>
	
		<rect id="qbb-28a" x="938" y="387.1" transform="matrix(0.8754 -0.4834 0.4834 0.8754 -73.066 506.5078)" class="st3" width="15.8" height="15.8"/>
	
		<rect id="qbb-27" x="943.3" y="397.2" transform="matrix(0.8754 -0.4834 0.4834 0.8754 -75.0671 513.6926)" class="st3" width="31.2" height="10.6"/>
	
		<rect id="qbb26" x="946.9" y="398.8" transform="matrix(0.8754 -0.4834 0.4834 0.8754 -73.8772 523.2896)" class="st3" width="62.4" height="12.3"/>
	
		<rect id="qbb-25" x="971" y="382.4" transform="matrix(0.8754 -0.4834 0.4834 0.8754 -64.3862 525.1456)" class="st3" width="30.9" height="10.2"/>
	
		<rect id="qbb-32a" x="857.8" y="432.8" transform="matrix(0.8826 -0.4701 0.4701 0.8826 -107.706 459.8581)" class="st3" width="18.3" height="25.6"/>
	
		<rect id="qbb-31" x="864.4" y="448.9" transform="matrix(0.8826 -0.4701 0.4701 0.8826 -109.1881 471.1099)" class="st3" width="48.6" height="10.5"/>
	<polygon id="qbb-30" class="st3" points="939.9,432.9 912.7,447.4 908.3,438.1 934.7,424 	"/>
	
		<rect id="qbb-32b" x="873.4" y="421.3" transform="matrix(0.8826 -0.4701 0.4701 0.8826 -99.8053 468.6138)" class="st3" width="30" height="25.6"/>
	
		<rect id="qbb-29" x="900.5" y="406.9" transform="matrix(0.8826 -0.4701 0.4701 0.8826 -89.8653 479.6295)" class="st3" width="30" height="25.6"/>
</g>
<g id="signs">
	<g id="escalator">
		<rect id="escalator-1" x="387.2" y="515.6" width="45" height="45"/>
		<rect id="escalator-2" x="764.4" y="491.7" width="45" height="45"/>
		<rect id="escalator-3" x="1050.9" y="254.2" width="45" height="45"/>
	</g>
	<g id="toilet">
		<rect id="toilet-1" x="574.9" y="455.3" width="45" height="45"/>
		<rect id="toilet-2" x="1004.1" y="250.1" width="45" height="45"/>
	</g>
	<g id="lift">
		<rect id="lift-1" x="706.9" y="632.1" width="45" height="45"/>
		<rect id="lift-2" x="966.9" y="624.6" width="45" height="45"/>
		<rect id="lift-3" x="579" y="477.8" width="45" height="45"/>
		<rect id="lift-4" x="774" y="349.2" width="45" height="45"/>
		<rect id="lift-5" x="1030.1" y="270.8" width="45" height="45"/>
	</g>
	<g id="parking">
		<rect id="parking-1" x="409.7" y="624.6" width="45" height="45"/>
		<rect id="parking-2" x="966.9" y="689" width="45" height="45"/>
	</g>
	<g id="driver-waiting-room">
		<rect id="driver-waiting-room-1" x="424" y="508.8" width="45" height="45"/>
		<rect id="driver-waiting-room-2" x="964" y="603.1" width="45" height="45"/>
	</g>
	<g id="entrance">
		<rect id="entrance-2" x="569.5" y="508.8" width="45" height="45"/>
		<rect id="entrance-1" x="345.5" y="526.8" width="45" height="45"/>
	</g>
</g>
</svg>
