<?xml version="1.0" encoding="utf-8"?>
<!-- Generator: Adobe Illustrator 19.2.0, SVG Export Plug-In . SVG Version: 6.00 Build 0)  -->
<svg version="1.1" id="Layer_1" xmlns="http://www.w3.org/2000/svg" xmlns:xlink="http://www.w3.org/1999/xlink" x="0px" y="0px"
	 viewBox="0 0 1338 892" style="enable-background:new 0 0 1338 892;" xml:space="preserve">
<style type="text/css">
	.st0{fill:#BFBFBF;stroke:#494949;stroke-miterlimit:10;}
	.st1{fill:#878787;stroke:#494949;stroke-miterlimit:10;}
	.st2{fill:#494949;stroke:#212121;stroke-miterlimit:10;}
</style>
<g id="background">
</g>
<g id="etc">
	<path class="st0" d="M1221.7,577.5l-16.6-5.5l-12.9-40.5l13.8-17.5c0,0-0.1-11.5-9.2-27.6c-10.1-18-31.8-9.1-31.3-9.2l-75.5,22.1
		c0,0-4.7-83.6,0.8-81.2c5.5,2.4,15.2,0.3,15.2,0.3l63.2-22.1l12.1-19.3c0,0,38.3-103.9,45.9-124.6c7.6-20.7-3.1-30.7-3.1-30.7
		l-92.8-139.8l-489,347.2l-5.8,4.1l-38.4,12l-11.2,4.1l10.3,36.2L160.9,612.5l-3.1-10l-24.8,8.9c0,0.1,0.1,0.2,0.1,0.2l77.3,170.2
		c0,0,526.4-0.9,532.8-2.8c6.4-1.8,8.3-10.1,8.3-10.1l13.8-49.7l103.1-6.4c0,0,30.1,55.1,36.8,62.6c12.9,21.2,43.3,16.6,43.3,16.6
		s121.5,5.5,149.1,3.7c27.6-1.8,26.7-23,26.7-23s14.7-65.3,16.6-89.3c1.8-23.9,25.8-23.9,25.8-23.9s24.8-2.8,37.7-5.5
		c12.9-2.8,25.7-16.6,25.7-16.6L1221.7,577.5z M1065,508l-17.7,4.6L824,594c-10.7,10-6.2,24.6-6.2,24.6l35.5,65.4l-105.8,6.3
		L740,678l15.8-11L737,638l-15.5,11.3L692,554c0,0,155.3-51.4,206.5-69c42-14.5,166.5-59.3,166.5-59.3V508z"/>
	<path class="st0" d="M1205.2,572l-12.9-40.5l13.8-17.5c0,0-0.5-11.3-9.2-27.6c-9.4-17.5-31.3-9.2-31.3-9.2l-47.4,13.9l-53.1,16.2
		v0.7l-15.8,4.1l-4.1,1.3L824,594c-10.7,10-6.2,24.6-6.2,24.6l35.5,65.4l-1.3,0.1l15.8,28.7l0.5,0c0,0,30.1,55.1,36.8,62.6
		c12.9,21.2,43.3,16.6,43.3,16.6s121.5,5.5,149.1,3.7c27.6-1.8,26.7-23,26.7-23s14.7-65.3,16.6-89.3c1.8-23.9,25.8-23.9,25.8-23.9
		s24.8-2.8,37.7-5.5c12.9-2.8,25.7-16.6,25.7-16.6l-8.2-59.8L1205.2,572z"/>
	<path class="st1" d="M157.7,602.5L157.7,602.5l3.1,10l436.3-126.9l-10.3-36.2l0,0l0,0l11.2-4.1l-1,0.3
		c24.2-39.2-2.1-82.7-26.2-98.6c-20.7-14.5-53.1-6.2-53.1-6.2L144.3,450.5c0,0-42.1,17.3-40,64.2c2.1,46.9,33.8,62.8,33.8,62.8
		s-1.4,8.3-6.9,13.8c-5.2,5.2,1,18.5,1.8,20.1L157.7,602.5L157.7,602.5z"/>
	<path class="st1" d="M443.2,653.4l43.5-15.9c0,0,4.8-2.1,9.7,3.5c4.8,5.5,16.6,41.4,16.6,41.4s3.5,9-5.5,12.4
		c-9,3.5-60,13.1-60,13.1L443.2,653.4z"/>
	<path class="st1" d="M530.6,664c0,0,2.3,18.4,7.4,19.3c5.1,0.9,59.4-16.6,59.4-16.6l20.2-13.3l4.6-13.3c0,0-4.1-8.3-5.1-8.3
		s-45.6,8.3-45.6,8.3L530.6,664z"/>
	<path class="st1" d="M949.3,657.6l41.4-40.5l52.5-17.5c0,0,10.1-4.6,16.6,5.5s8.3,23,8.3,23l-73.6,48.8h-50.6L949.3,657.6z"/>
	<polygon class="st1" points="1023.9,258.2 1061.6,228.7 1110.4,295.9 1058.8,334.6 1050.5,322.6 1062.5,311.6 	"/>
	<polygon class="st0" points="853.1,686.1 851.7,684.1 747.5,690.3 765.1,720 765.3,719.2 868.3,712.8 	"/>
	<polygon class="st0" points="1090.1,499.3 1090.2,418.3 1065,426.4 1065,507.4 1094.9,497.9 	"/>
	<polygon class="st1" points="1008.9,240.9 1008.9,240.9 977.8,191.2 781.8,330.1 832.4,404.5 860.7,384.3 878,408.4 875.9,410 
		1017.4,308.9 997.4,276.6 1025.7,257.9 1014.7,240 1014.8,239.9 	"/>
</g>
<g id="rooms">
	<polygon id="q-stadium-1f" class="st2" points="388,719.2 344.7,559 160.9,612.5 157.7,602.5 133,611.6 210.9,783.9 386.3,782.8 
		388.1,719.2 	"/>
	<polygon id="q1c-6" class="st2" points="437.7,714.6 388.1,719.2 386.3,782.8 487.3,782.1 486.4,723.8 	"/>
	<polygon id="q1c-5" class="st2" points="537,708 486.4,723.8 486.4,723.8 487.3,782.1 539.8,781.8 	"/>
	<polygon id="q1c-7" class="st2" points="422.2,536.4 431.2,569.2 372.3,589.5 388.1,653 459,630.1 433.6,533.1 	"/>
	<polygon id="q1c-8" class="st2" points="480.6,565.6 480.6,565.6 480.6,565.6 468.9,522.9 433.6,533.1 459,630.1 486.4,621.2 
		515.8,621.2 500.2,559.7 	"/>
	<polygon id="q1c-9" class="st2" points="468.9,522.9 480.6,565.6 500.2,559.7 502.1,559.1 500.2,559.7 515.8,621.2 564.6,621.2 
		572.6,618.6 539.2,502.4 	"/>
	<polygon id="q1c-10" class="st2" points="625.4,559 610.7,517.7 596.9,517.7 593.2,504.8 562.8,514.9 557.3,497.1 539.2,502.4 
		572.6,618.6 622.2,602.4 	"/>
	<polygon id="q1c-4" class="st2" points="548.3,704.5 548.1,760.2 589.3,760.2 589.3,690.5 	"/>
	<polygon id="q1c-3" class="st2" points="630.2,676.4 589.3,690.5 589.3,760.2 589.3,761.3 589.3,780.6 689.6,780.5 689.6,695.3 	
		"/>
	<polygon id="q1c-2" class="st2" points="689.6,695.3 689.6,780.5 711.4,780.5 711.4,702.2 	"/>
	<path id="q1c-1a" class="st2" d="M738.2,710.7l-10.1,69.7l14.4,0c4.1-0.7,7.5-8.2,7.5-8.2l15-53L738.2,710.7z"/>
	<path id="q1b-2" class="st2" d="M719.3,643.1l-22.1,29.5L662.7,661l-9-30.9v-63.6c0,0-5.5-35.2-20-52.5l20-24.8l-17.3-55.9
		l145.4-103.2l50.6,74.5l56.7,83.7l-195.4,65.2c0,0-2.8-0.4,0,5.7C693.7,558.9,719.3,643.1,719.3,643.1z"/>
	<g id="q1b-1">
		<polygon class="st2" points="863.5,419.5 878.7,442.2 1033.3,332.5 1017.4,308.9 875.9,410 		"/>
		<polygon class="st2" points="904.6,482.9 883.9,451.5 1035.7,343.9 1065,425.7 		"/>
		<path class="st2" d="M1230,228.7l-98-146.8L977.8,191.2l31.1,49.8l5.9-1l66.8-31l62.8,88.3l-2.1,18.6l-70.4,48.3l19,53.8l9.9,1.1
			l68.5-22.8l12.1-19.3l5.4-14.6c0,0,35.5-96.2,40.5-110S1230,228.7,1230,228.7z"/>
	</g>
	<path id="q1a-6" class="st2" d="M870.4,576.5l29.6,94.1C910.7,667,919,664,919,664l26.2-26.1l-25.4-79.2L870.4,576.5z"/>
	<polygon id="q1a-7" class="st2" points="919.7,558.8 945.2,638 984.8,598.6 1032.8,582.2 1013.9,524.8 	"/>
	<polygon id="q1a-8" class="st2" points="1076.3,537.9 1058.4,544.4 1047.8,512.6 1013.9,524.8 1032.8,582.2 1084.6,564.6 	"/>
	<path id="q1a-5" class="st2" d="M824.2,593.2c-10.1,7.4-5.1,27.1-5.1,27.1s32,62,34.5,64c4,0.6,28.6-7.5,46.4-13.6l-29.6-94.1
		L824.2,593.2z"/>
	<path id="q1a-2" class="st2" d="M1101.9,631.3l-0.8,17.5l-38.7,30.8l15.2,49.7l59.3-19.6l4.9-32.8c0,0,3.8-15.1,20.6-17.1
		c16.8-2,41.7-5.9,41.7-5.9s2.6-0.3,6.2-1.6l-17.8-52.7L1101.9,631.3z"/>
	<path id="q1a-1" class="st2" d="M1221.7,577.5l-16.6-5.5l-12.9-40.5l13.8-17.5c0,0-1.7-8.3-2.4-10.9c-0.7-2.5-3.5-9.6-3.5-9.6
		s-6.5-24.5-31.7-17.1c-21.1,6.3-78.4,22.8-78.4,22.8v13.3l15.2,43.3l-3.4,75.4l90.7-31.7l0,0l0,0l17.8,52.7
		c6.3-2.3,15.5-7.6,18.8-19.7C1230.3,627,1221.7,577.5,1221.7,577.5z"/>
	<path id="q1a-4" class="st2" d="M1012.6,761L1012.6,761l-22.1-65.1l-94.8,3.6l-9.9,3.7l19.8,35L889,749.7c0,0,0,0,13.6,22.3
		c13.6,22.3,28.3,19.5,28.3,19.5l116.4,4l-14.4-40.5L1012.6,761L1012.6,761z"/>
	<polygon id="q1a-3" class="st2" points="1068,743.2 1049.3,686.1 1018.3,694.8 990.5,695.9 1012.6,761 1032.9,755 1032.8,754.7 	
		"/>
	<polygon id="g1c-1b" class="st2" points="738.2,710.7 711.4,702.2 711.4,780.5 728.1,780.4 	"/>
	<polygon id="qds1-1" class="st2" points="386.3,782.8 388.1,719.2 385.7,710.7 338.5,729 338.5,782.8 	"/>
	<polygon id="qds1-2" class="st2" points="338.5,729 283.1,746.7 282.8,783.7 338.5,782.8 	"/>
	<polygon id="qds1-3" class="st2" points="283.1,746.7 247.4,756.4 247.9,783.7 282.8,783.7 	"/>
	<polygon id="qds1-4" class="st2" points="247.4,756.4 222.7,721.6 190,737.6 210.9,783.9 247.9,783.7 	"/>
	<polygon id="qds1-6" class="st2" points="193.4,652.3 157.8,666.3 133,611.6 157.7,602.5 160.9,612.5 176.4,608.1 	"/>
	<polygon id="qds1-5" class="st2" points="222.7,721.6 190,737.6 157.8,666.3 193.4,652.3 	"/>
	<polygon id="qds1-7" class="st2" points="238.7,637.4 193.4,652.3 176.4,608.1 224.8,593.9 	"/>
	<polygon id="qds1-10" class="st2" points="357.2,605.2 312.7,616.7 300,572.2 344.7,559 	"/>
	<polygon id="qds1-9" class="st2" points="312.7,616.7 269.9,628.3 256.2,584.8 300,572.2 	"/>
	<polygon id="qds1-8" class="st2" points="269.9,628.3 238.7,637.4 224.8,593.9 256.2,584.8 	"/>
	<polygon id="qds1-14" class="st2" points="236.6,718.3 269.4,709.1 262.8,686 229.5,694.9 	"/>
	<polygon id="qds1-11" class="st2" points="377.1,679 323.2,694.1 309.4,645.3 364.1,630.1 	"/>
	<polygon id="qds1-12" class="st2" points="323.2,694.1 269.4,709.1 255.6,660.4 310.2,645.1 	"/>
	<polygon id="qds1-13" class="st2" points="262.8,686 229.5,694.9 221.8,669.7 255.6,660.4 	"/>
	<polygon id="q1b-4" class="st2" points="1092.7,254.3 1084.4,260.3 1061.6,228.7 1069.8,222.3 	"/>
	<polygon id="q1b-3" class="st2" points="1119.1,288.7 1110.4,295.9 1084.4,260.3 1092.7,254.3 	"/>
</g>
<g id="signs">
	<g id="toilet">
		<rect id="toilet-1" x="593.9" y="437" width="45" height="45"/>
		<rect id="toilet-2" x="372.4" y="538.5" width="45" height="45"/>
		<rect id="toilet-3" x="1000.9" y="262" width="45" height="45"/>
		<rect id="toilet-4" x="1074.4" y="729.5" width="45" height="45"/>
	</g>
	<g id="lift">
		<rect id="lift-1" x="585.9" y="462.5" width="45" height="45"/>
		<rect id="lift-2" x="717.4" y="636" width="45" height="45"/>
		<rect id="lift-3" x="841.9" y="378.1" width="45" height="45"/>
		<rect id="lift-4" x="1021.4" y="282.5" width="45" height="45"/>
		<rect id="lift-5" x="992.9" y="595.5" width="45" height="45"/>
		<rect id="lift-6" x="1022.4" y="744.5" width="45" height="45"/>
	</g>
	<rect id="stairs" x="560.4" y="480" width="45" height="45"/>
	<rect id="parking" x="337.4" y="456.5" width="45" height="45"/>
	<g id="escalator">
		<rect id="escalator-1" x="449.4" y="650" width="45" height="45"/>
		<rect id="escalator-2" x="733.9" y="488" width="45" height="45"/>
		<rect id="escalator-3" x="1049.9" y="248.5" width="45" height="45"/>
		<rect id="escalator-4" x="978.4" y="633" width="45" height="45"/>
	</g>
	<rect id="entrance" x="332.9" y="535.4" width="45" height="45"/>
</g>
</svg>
