<?xml version="1.0" encoding="utf-8"?>
<!-- Generator: Adobe Illustrator 17.0.0, SVG Export Plug-In . SVG Version: 6.00 Build 0)  -->
<!DOCTYPE svg PUBLIC "-//W3C//DTD SVG 1.1//EN" "http://www.w3.org/Graphics/SVG/1.1/DTD/svg11.dtd">
<svg version="1.1" id="Layer_1" xmlns="http://www.w3.org/2000/svg" xmlns:xlink="http://www.w3.org/1999/xlink" x="0px" y="0px"
	 width="1338px" height="892px" viewBox="0 0 1338 892" enable-background="new 0 0 1338 892" xml:space="preserve">
<g id="background">
</g>
<g id="etc">
	<path fill="#BFBFBF" stroke="#494949" stroke-miterlimit="10" d="M1177.777,397.19c0,0,51.532-137.119,57.056-147.242
		c5.521-10.124,0-21.167,0-21.167l-96.631-148.163L642.172,432.17c0,0-3.867,1.535-35.641-43.48
		c2.099,19.499,0.89,39.178-5.4,58.089l22.99,30.651L159.786,615.726l-2.64-7.92l-26.016,7.966c0.181,0.291,0.294,0.452,0.294,0.452
		L212.062,788.2c0,0,518.686-1.728,524.207-2.07c5.521-0.346,13.459-12.079,13.459-12.079l39.343-49.004h86.619
		c0,0,26.918,48.313,36.234,60.394c9.317,12.078,26.229,12.078,26.229,12.078s159.437,3.45,172.896,1.727
		c13.459-1.727,14.839-16.564,14.839-16.564s19.118-90.892,21.741-101.114c4.142-13.113,19.326-17.601,19.326-17.601
		s39.687-8.627,51.074-12.423c11.389-3.796,14.147-18.979,14.147-18.979l-5.866-51.308l-16.908-7.36l-12.079-40.031l11.043-13.806
		c0,0-8.282-31.059-16.22-39.341c-7.938-8.281-21.396-3.104-21.396-3.104l-27.608,8.628l-174.273,54.985
		c0,0-5.981,5.063-12.883-1.842c-6.902-6.9-55.68-51.074-55.68-51.074l237.896-76.392L1177.777,397.19z M905.368,557.327
		c0,0,4.831,5.521,0,8.282c-4.832,2.761-64.189,24.155-64.189,24.155s-24.847,21.514-10.353,52.515s12.425,28.93,12.425,28.93
		l-76.614,15.875c0,0-16.563,2.159-23.467-3.407l-5.98-7.406l15.187-9.661l-17.486-28.3l-14.954,9.434l-27.84-90.416l163.578-55.216
		L905.368,557.327z"/>
	<path fill="#878787" stroke="#494949" stroke-miterlimit="10" d="M157.146,607.806L157.146,607.806l2.64,7.92l464.336-138.294
		l-22.99-30.651c6.29-18.911,7.499-38.591,5.4-58.089c-2.912-4.125-6.053-8.632-9.452-13.577
		c-40.491-58.897-94.788-31.289-94.788-31.289L159.953,447.451c0,0-44.173,4.044-57.056,50.058s33.129,83.744,33.129,83.744
		s3.565-0.804-5.062,10.584c-7.685,10.146-1.318,21.559,0.166,23.933L157.146,607.806L157.146,607.806z"/>
	<polygon fill="#878787" stroke="#494949" stroke-miterlimit="10" points="1027.533,256.4 1065.494,228.102 1112.428,295.741 
		1059.973,333.702 1051.689,322.659 1065.494,312.306 	"/>
	<path fill="#BFBFBF" stroke="#494949" stroke-miterlimit="10" d="M1232.178,632.559l-5.867-51.306l-16.907-7.361l-12.079-40.03
		l11.043-13.806c0,0-2.98-11.171-7.077-21.899c0,0-7.866-19.238-14.85-21.104c-11.438-3.053-28.386,4.523-28.386,4.523
		l-14.912,4.661c0,0-147.161,46.212-170.63,53.806l-4.275,1.622c-0.653,0.407-1.782,0.983-3.24,1.229l-59.274,22.473
		c-0.118,0.081-0.219,0.167-0.353,0.243c-4.832,2.761-64.189,24.156-64.189,24.156s-24.847,21.513-10.353,52.514
		s12.425,28.93,12.425,28.93l-0.494,0.104l32.175,53.731h0.758c0,0,6.949,12.476,15.01,26.329l13.389,22.358
		c3.117,4.983,5.87,9.152,7.838,11.705c9.317,12.077,26.229,12.077,26.229,12.077s159.437,3.45,172.896,1.727
		s14.839-16.564,14.839-16.564s19.118-90.892,21.741-101.113c4.143-13.114,19.326-17.602,19.326-17.602s39.688-8.627,51.073-12.423
		C1229.417,647.743,1232.178,632.559,1232.178,632.559z"/>
	<path fill="#878787" stroke="#494949" stroke-miterlimit="10" d="M975.769,638.081v38.651c0,0,2.763,7.592,11.733,6.9
		c8.973-0.688,35.2,0.044,35.2,0.044v-17.299l28.987,1.38l39.342-29.679l-21.396-27.608l-22.774-3.45l-62.811,21.396
		C984.051,628.418,975.769,629.108,975.769,638.081z"/>
	<path fill="#878787" stroke="#494949" stroke-miterlimit="10" d="M446.155,656.716l36.81-13.804c0,0,11.503-2.53,13.804,2.531
		c2.303,5.062,6.214,18.863,6.214,18.863s0.461,30.829-9.435,41.644h-49.694l-5.752-5.292l1.382-35.892
		C439.483,664.769,439.827,659.089,446.155,656.716z"/>
	<path id="q-space-mf" fill="#878787" stroke="#494949" stroke-miterlimit="10" d="M521.617,663.618c0,0-2.3,19.556,10.123,26.688
		c7.332,1.182,69.479-19.556,69.479-19.556s29.908-9.662,34.279-17.715c4.372-8.053,5.062-26.458,2.301-28.068
		c-2.761-1.608-47.393,4.832-53.146,5.521C578.903,631.179,521.617,663.618,521.617,663.618z"/>
	<path fill="#BFBFBF" stroke="#494949" stroke-miterlimit="10" d="M842.758,671.313L842.758,671.313l-76.12,15.771
		c0,0-16.563,2.159-23.467-3.407l-5.979-7.404l22.435,48.675h29.443l-6.939,8.695l0.039-0.003l6.9-8.595h85.861L842.758,671.313z"/>
	<path id="q-terrace" fill="#878787" stroke="#494949" stroke-miterlimit="10" d="M726.836,724.947h62.233l-41.262,51.717
		c0,0-4.865,9.385-11.541,9.465c-6.674,0.079-9.433,0-9.433,0L726.836,724.947L726.836,724.947z"/>
	<g>
		<path fill="#BFBFBF" stroke="#494949" stroke-miterlimit="10" d="M905.368,565.609c-1.381,0.789,63.498-24.389,63.498-24.389
			s-5.981,5.063-12.883-1.841c-6.902-6.9-55.68-51.075-55.68-51.075l19.174-6.155L855.8,502.253l49.565,55.072
			C905.368,557.327,910.199,562.849,905.368,565.609z"/>
		<polygon fill="#BFBFBF" stroke="#494949" stroke-miterlimit="10" points="847.21,504.968 847.21,504.968 847.212,504.967 		"/>
	</g>
	<polygon id="bhiraj-tower" fill="#878787" stroke="#494949" stroke-miterlimit="10" points="1021.324,309.316 999.238,277.567 
		1027.533,256.4 982.443,191.01 659.492,419.895 670.242,434.473 790.336,355.79 811.106,386.114 863.038,350.268 897.087,397.202 
		888.655,403.615 1021.53,309.925 	"/>
	<path id="quartier-gallery" fill="#878787" stroke="#494949" stroke-miterlimit="10" d="M1130.611,88.129l4.363,17.347
		l-62.576,47.394l85.123,130.678l55.239,21.564l23.722-59.22c0,0,4.51-7.666-2.095-17.791
		c-6.603-10.125-95.521-146.461-95.521-146.461L1130.611,88.129z"/>
</g>
<g id="rooms">
	<polygon id="q-stadium-mf" fill="#494949" stroke="#212121" stroke-miterlimit="10" points="371.748,716.743 371.748,716.743 
		388.139,709.05 339.954,562.066 159.786,615.726 157.146,607.806 131.129,615.771 212.062,788.199 373.18,787.632 	"/>
	<polygon id="qmc-7" fill="#494949" stroke="#212121" stroke-miterlimit="10" points="388.178,709.171 388.139,709.05 
		371.748,716.743 373.18,787.632 438.836,787.399 437.151,718.634 	"/>
	<polygon id="qmc-6" fill="#494949" stroke="#212121" stroke-miterlimit="10" points="538.182,710.552 483.426,727.577 
		437.151,718.634 438.836,787.399 538.182,787.049 	"/>
	<path id="qmc-3-qmc4" fill="#494949" stroke="#212121" stroke-miterlimit="10" d="M635.271,683.667l-45.093,12.687v67.574h8.282
		l0.04,22.888l32.629-0.13l95.704-0.557h10.359c0,0,3.625,0.07,9.992-8.385c6.368-8.456,41.885-52.797,41.885-52.797h-48.278
		L635.271,683.667z"/>
	<polygon id="qmc-5" fill="#494949" stroke="#212121" stroke-miterlimit="10" points="549.226,709.05 549.226,756.106 
		557.508,756.106 557.508,763.928 590.178,763.928 590.178,696.354 	"/>
	<polygon id="qmc-2" fill="#494949" stroke="#212121" stroke-miterlimit="10" points="696.931,573.03 651.835,589.381 
		651.835,621.286 666.1,670.06 698.309,678.343 719.936,647.743 	"/>
	<polygon id="qmc-1" fill="#494949" stroke="#212121" stroke-miterlimit="10" points="690,550.426 651.835,566.53 651.835,589.381 
		696.931,573.03 	"/>
	<polygon id="qmc-8" fill="#494949" stroke="#212121" stroke-miterlimit="10" points="368.854,591.378 390.479,660.398 
		417.579,651.419 398.866,582.028 	"/>
	<polygon id="qmc-10" fill="#494949" stroke="#212121" stroke-miterlimit="10" points="438.184,532.81 466.385,635.249 
		466.862,635.091 515.983,627.587 485.967,518.579 	"/>
	<polygon id="qmc-11" fill="#494949" stroke="#212121" stroke-miterlimit="10" points="485.967,518.622 515.983,627.63 
		566.25,619.95 567.218,619.568 535.416,503.895 	"/>
	<polygon id="qmc-12" fill="#494949" stroke="#212121" stroke-miterlimit="10" points="628.828,562.066 609.502,522.358 
		593.398,519.597 591.558,509.935 563.029,518.217 557.047,497.409 535.416,503.852 567.218,619.525 614.104,601.041 	"/>
	<polygon id="qmc-9" fill="#494949" stroke="#212121" stroke-miterlimit="10" points="418.35,538.717 427.75,573.03 
		398.866,582.028 417.579,651.419 466.385,635.249 438.184,532.81 	"/>
	<polygon id="qmb-4" fill="#494949" stroke="#212121" stroke-miterlimit="10" points="658.738,491.069 634.351,514.536 
		647.695,539.383 709.444,498.267 669.899,436.159 	"/>
	<polygon id="qmb-5" fill="#494949" stroke="#212121" stroke-miterlimit="10" points="670.242,434.473 669.899,436.159 
		709.444,498.267 710.733,497.409 744.333,481.594 699.028,415.613 	"/>
	<polygon id="qmb-6" fill="#494949" stroke="#212121" stroke-miterlimit="10" points="699.028,415.613 744.333,481.594 
		769.171,469.903 781.892,467.002 731.216,394.524 	"/>
	<polygon id="qmb-7" fill="#494949" stroke="#212121" stroke-miterlimit="10" points="731.216,394.524 781.892,467.002 
		821.033,458.078 764.392,372.788 	"/>
	<polygon id="qmb-8" fill="#494949" stroke="#212121" stroke-miterlimit="10" points="847.854,418.828 836.349,422.969 
		790.336,355.79 764.392,372.788 821.033,458.078 867.639,447.451 	"/>
	<polygon id="qmb-9" fill="#494949" stroke="#212121" stroke-miterlimit="10" points="1021.53,309.925 888.655,403.615 
		864.418,422.049 877.762,440.172 1029.605,333.702 	"/>
	<polygon id="qmb-3" fill="#494949" stroke="#212121" stroke-miterlimit="10" points="880.176,468.981 920.894,481.696 
		969.858,465.909 953.556,416.544 	"/>
	<polygon id="qmb-2" fill="#494949" stroke="#212121" stroke-miterlimit="10" points="953.556,416.544 969.858,465.909 
		1038.041,443.927 1015.98,371.932 	"/>
	<path id="qmb-1" fill="#494949" stroke="#212121" stroke-miterlimit="10" d="M1146.938,355.79l-115.606,5.175l-15.349,10.967
		l22.061,71.995l129.948-41.895c7.054-0.519,11.317-8.913,11.317-8.913l8.417-22.298L1146.938,355.79z"/>
	<path id="qma-8" fill="#494949" stroke="#212121" stroke-miterlimit="10" d="M955.669,546.338l94.69-30.924l22.728,72.282
		l-39.687-2.416l-47.279,18.291l-25.537-42.792C960.584,560.778,954.979,550.134,955.669,546.338z"/>
	<path id="qma-1" fill="#494949" stroke="#212121" stroke-miterlimit="10" d="M1064.939,510.824l107.655-33.793
		c0,0,12.992-5.042,18.516,2.715c5.521,7.757,11.62,18.915,16.681,38.24c0.747,3.575-10.469,15.875-10.469,15.875l-64.188,22.086
		l-42.103,32.438h-11.39l-12.769-42.102l9.316-3.451L1064.939,510.824z"/>
	<polygon id="qma-3" fill="#494949" stroke="#212121" stroke-miterlimit="10" points="1062.043,686.049 1076.883,729.187 
		1109.834,717.887 1092.182,662.18 	"/>
	<path id="qma-2" fill="#494949" stroke="#212121" stroke-miterlimit="10" d="M1226.311,581.253l-16.907-7.361l-64.189,22.086
		l-40.03,55.906l-13,10.295l17.652,55.708l32.17-11.033l6.707-28.027c0,0,3.227-10.226,14.498-13.375
		c11.273-3.151,54.819-13.911,54.819-13.911s9.264-4.505,12.742-14.159C1234.248,627.728,1226.311,581.253,1226.311,581.253z"/>
	<path id="qma-5" fill="#494949" stroke="#212121" stroke-miterlimit="10" d="M897.086,704.34l-6.558,4.486l19.671,32.438
		l-18.227,12.301c0,0,14.431,23.826,22.047,34.262c7.614,10.435,19.139,9.2,19.139,9.2l36.268,0.754l-29.355-95.412L897.086,704.34z
		"/>
	<polygon id="qma-4" fill="#494949" stroke="#212121" stroke-miterlimit="10" points="1033.4,758.866 1070.671,744.716 
		1055.142,697.093 940.068,702.369 969.426,797.781 1049.268,799.44 	"/>
	<path id="qma-7" fill="#494949" stroke="#212121" stroke-miterlimit="10" d="M969.426,612.543c0,0-18.85-31.059-26.097-42.102
		s-9.313-15.732-9.313-15.732L869.61,579.16l31.854,102.294l25.646-5.413L969.426,612.543z"/>
	<path id="qma-6" fill="#494949" stroke="#212121" stroke-miterlimit="10" d="M842.56,588.386
		c-27.263,25.192-12.425,52.354-12.425,52.354l28.532,49.616l42.798-8.9L869.608,579.16L842.56,588.386z"/>
	<polygon id="btm-1" fill="#494949" stroke="#212121" stroke-miterlimit="10" points="796.978,365.488 848.343,329.859 
		863.038,350.268 811.81,386.159 	"/>
	<polygon id="qdsm-2" fill="#494949" stroke="#212121" stroke-miterlimit="10" points="237.436,705.95 181.392,722.857 
		131.129,615.771 157.146,607.806 159.786,615.726 202.567,602.685 	"/>
	<polyline id="qdsm-3a" fill="#494949" stroke="#212121" stroke-width="1.1302" stroke-miterlimit="10" points="271.589,582.579 
		202.681,602.538 234.823,698.718 270.155,687.734 263.904,669.937 296.394,659.103 271.589,582.579 	"/>
	<polygon id="qdsm-4" fill="#494949" stroke="#212121" stroke-width="1.1302" stroke-miterlimit="10" points="302.42,677.578 
		371.058,656.236 339.711,562.066 271.415,582.512 	"/>
	<polygon id="qdsm-3b" fill="#494949" stroke="#212121" stroke-miterlimit="10" points="270.297,687.67 263.992,669.892 
		296.394,659.103 302.42,677.578 	"/>
	<polygon id="qdsm-1" fill="#494949" stroke="#212121" stroke-miterlimit="10" points="377.02,675.132 187.205,735.241 
		212.062,788.199 373.18,787.632 373.18,716.384 388.139,709.05 	"/>
</g>
<g id="signs">
	<rect id="parking" x="335.731" y="448.832" width="45" height="45"/>
	<g id="toilet">
		<rect id="toilet-1" x="372.098" y="541.882" width="45" height="45"/>
		<rect id="toilet-2" x="604.949" y="423.571" width="45" height="45"/>
		<rect id="toilet-3" x="1002.273" y="258.402" width="45" height="45"/>
		<rect id="toilet-4" x="1073.833" y="738.667" width="45" height="45"/>
	</g>
	<g id="lift">
		<rect id="lift-1" x="713.82" y="635.033" width="45" height="45"/>
		<rect id="lift-2" x="582.45" y="468.57" width="45" height="45"/>
		<rect id="lift-3" x="840.699" y="345.292" width="45" height="45"/>
		<rect id="lift-4" x="1024.771" y="282.613" width="45" height="45"/>
		<rect id="lift-5" x="994.863" y="603.59" width="45" height="45"/>
		<rect id="lift-6" x="1024.771" y="748.694" width="45" height="45"/>
	</g>
	<g id="escalator">
		<rect id="escalator-1" x="730.385" y="494.232" width="45" height="45"/>
		<rect id="escalator-2" x="448.044" y="657.137" width="45" height="45"/>
		<rect id="escalator-3" x="647.4" y="755.597" width="45" height="45"/>
		<rect id="escalator-4" x="1023.393" y="637.067" width="45" height="45"/>
		<rect id="escalator-5" x="1049.9" y="247.14" width="45" height="45"/>
	</g>
	<rect id="entrance" x="327.101" y="536.993" width="45" height="45"/>
	<rect id="stairs" x="544.718" y="471.332" width="45" height="45"/>
	<rect id="bts" x="1261.689" y="426.62" width="45" height="45"/>
	<g id="atm">
		<rect id="atm-1" x="1051.594" y="714.947" width="45" height="45"/>
		<rect id="atm-2" x="601.622" y="443.409" width="45" height="45"/>
	</g>
</g>
</svg>
