<?xml version="1.0" encoding="utf-8"?>
<!-- Generator: Adobe Illustrator 16.0.0, SVG Export Plug-In . SVG Version: 6.00 Build 0)  -->
<!DOCTYPE svg PUBLIC "-//W3C//DTD SVG 1.1//EN" "http://www.w3.org/Graphics/SVG/1.1/DTD/svg11.dtd">
<svg version="1.1" xmlns="http://www.w3.org/2000/svg" xmlns:xlink="http://www.w3.org/1999/xlink" x="0px" y="0px" width="1338px"
	 height="892px" viewBox="0 0 1338 892" enable-background="new 0 0 1338 892" xml:space="preserve">
<g id="background">
</g>
<g id="etc">
	<path fill="#BFBFBF" stroke="#494949" stroke-miterlimit="10" d="M1248,521.5c0,0-14.5-33.5-29-52s-34-9.5-34-9.5
		s-58.251,17.664-125.624,39.456c-17.955,5.807-36.555,11.907-54.876,18.044c-76.048,25.476-146.706,52.135-153,54
		c-13.5,4-16.5,13-16.5,13l-15.5,48c0,0,12.359,19.656,25,39c11.921,18.243,18.822,31.678,21.492,33.498
		c0.694,1.015,4.763,3.823,9.687,4.857c4.655,0.978,6.177-0.298,9.39-0.667c4.589-0.528,86.536-51.481,86.536-51.481
		c-0.089-0.126-0.183-0.244-0.271-0.373c0,0-16.333-27.334,10.667-44.667c17.333-6,18.166-6,18.166-6l5.166,15.5L1053.166,606
		L1048,590.5l18.333-6.167c0,0,7.667-0.5,10.667,6.667c2.667,8.333,2.667,8.333,2.667,8.333L1081.5,637c0,0-0.167,9.167-2.167,10.5
		c-2.5,2.167-5.833,4.333-5.833,4.333l-71,17.5c0,0-19.125,2.979-28.75-8.583l-85.166,52.167c0,0,20.766,2.312,22.666,2.583
		c3.5,0.5,5,6.75,5,6.75s-1.948,20.379-2.132,32.25c-0.054,3.462,0.043,6.201,0.382,7.5c6.5,24,30.25,21,30.25,21l173.25-2.5
		c0,0,10.25,0.75,12.25-1.75S1164.5,674,1164.5,674s76-129,82-137.5S1248,521.5,1248,521.5z M1116.666,625.167
		c-1.334,2.5-4.166,5.5-9,7.333c-3.5,0.333-4.5-8.167-4.5-8.167s-2.166-21.5-3-28.833c1.166-12.667,11.834-4.667,11.834-4.667
		C1122.834,603.833,1117.833,622,1116.666,625.167z"/>
</g>
<g id="rooms">
	<path id="q6a-12" fill="#494949" stroke="#212121" stroke-miterlimit="10" d="M979.284,744.487l-8.134-22.869
		c-19.834-2.882-32.4-12.869-32.4-12.869l-3.75,8l-1.5,38l-19.382-0.25l0.382,7.5c6,20.75,20.5,20,20.5,20l57,0.25l-12.75-37.75
		L979.284,744.487z"/>
	<path id="q6a-11_1_" fill="#494949" stroke="#212121" stroke-miterlimit="10" d="M1006,735.375c0,0-4.75-15.25-5.25-15.5
		c-12.375,3.375-21.029,2.989-29.6,1.744l8.134,22.869L1006,735.375z"/>
	<polygon id="q6a-10_1_" fill="#494949" stroke="#212121" stroke-miterlimit="10" points="1015.5,732.625 1010.125,717 
		1073.625,695.625 1084.375,729.25 1043.25,743.25 1037.125,725.25 	"/>
	<path id="q6a-9" fill="#494949" stroke="#212121" stroke-miterlimit="10" d="M1128.5,676c0,1.5-45.25,17-45.25,17l22.25,69l7,0.5
		l0.375,17.875h13.5c0,0,3.125-0.25,4.625-3.25s29.375-94.875,29.375-94.5c0,0.155,14.32-24.241,31.106-52.893l-28.816-3.784
		C1160.18,645.881,1148.252,663.038,1128.5,676z"/>
	<path id="q6a-1" fill="#494949" stroke="#212121" stroke-miterlimit="10" d="M872.464,581.463L872.464,581.463l-5.923-15.437
		c-9.134,3.285-14.719,5.313-15.041,5.474c-2,1-14,3-21,24s-11,37-11,37L864,703c0,0,10,12.5,25,4.5s32.5-19,32.5-19
		s-23.924-34.395,4.871-72.327L872.464,581.463L872.464,581.463z"/>
	<path id="q6a-2" fill="#494949" stroke="#212121" stroke-miterlimit="10" d="M960.5,591.5l29.754-10.216l-18.042-53.032
		c-39.937,14.244-83.385,29.758-105.671,37.773l5.923,15.437l53.907,34.71c0.044-0.058,0.085-0.116,0.129-0.173
		C945,593,960.5,591.5,960.5,591.5z"/>
	<path id="q6a-3" fill="#494949" stroke="#212121" stroke-miterlimit="10" d="M1061,504.5l0.099-0.036l-1.723-5.009
		c-0.11,0.035-40.094,12.72-87.164,28.797l18.042,53.032l87.496-29.159L1061,504.5z"/>
	<path id="q6a-5" fill="#494949" stroke="#212121" stroke-miterlimit="10" d="M1219,469.5c0,0-4.5-16.5-34-9.5
		c-28.789,6.831-121.153,38.051-125.624,39.456l1.723,5.009L1079,498l10.25,31l-7.75,3l6.5,18.75c0,0,21.872-1.181,42.103,9.013
		l20.898-29.769l86.354-28.924C1228.938,486.063,1219,469.5,1219,469.5z"/>
	<path id="q6a-6" fill="#494949" stroke="#212121" stroke-miterlimit="10" d="M1237.355,501.07l-86.354,28.924l-20.898,29.769
		c10.564,5.323,20.408,13.544,25.897,26.237c6.124,14.162,8.206,27.588,6.665,39.948l28.816,3.784
		C1215.264,589.139,1244,540,1244,540s9-6.5,4-18.5C1246.218,517.222,1242.02,509.385,1237.355,501.07z"/>
	<path id="q6a-11" fill="#494949" stroke="#212121" stroke-miterlimit="10" d="M1008.25,668c0,0-21.75,7-34.5-7.25l-36.554,22.914
		c0,0,20.054,31.836,61.054,21.586c10.851-3.165,37.233-12.325,56.481-19.103l-9.176-27.426
		C1027.812,663.097,1008.25,668,1008.25,668z"/>
	<path id="q6a-10" fill="#494949" stroke="#212121" stroke-miterlimit="10" d="M1084.5,668.75c-2-9-4.75-21.25-4.75-21.25
		s-3.25,2.25-7,4.25c-2.706,1.145-15.242,4.376-27.194,6.971l9.176,27.426c11.975-3.939,22.269-7.897,22.269-7.897
		S1086.25,676,1084.5,668.75z"/>
	<path id="q6a-4" fill="#494949" stroke="#212121" stroke-miterlimit="10" d="M1110,568c0,0-15.625-3.125-22-2.375
		c-6.5,0.75-35.125,10.375-35.125,10.375s-2.75,2.125-3.25,4s2.384,9.151,2.384,9.151l29.054-9.714c0,0,12.436-2.129,23.723,4.485
		l6.098-15.737C1110.323,568.057,1110,568,1110,568z"/>
	<path id="q6a-8" fill="#494949" stroke="#212121" stroke-miterlimit="10" d="M1103.25,633.5c6,18,9.25,25.5,9.25,25.5
		s3.5,6,10.25,2.25c6-5,16.75-14.5,17.25-17.25c0.023-0.127,0.08-0.289,0.152-0.468l-26.588-14.269
		C1109.907,632.812,1105.378,633.382,1103.25,633.5z"/>
	<path id="q6a-7" fill="#494949" stroke="#212121" stroke-miterlimit="10" d="M1144.25,599.25
		c-8.006-24.019-28.856-30.029-33.367-31.065l-6.098,15.737c5.888,3.451,11.072,9.228,13.215,18.828
		c2.636,14.894-0.357,22.556-4.436,26.513l26.588,14.269C1141.638,639.832,1152.835,625.004,1144.25,599.25z"/>
</g>
<g id="signs">
	<g id="lift">
		<rect id="lift-1" x="1004.667" y="583.333" width="45" height="45"/>
		<rect id="lift-2" x="1034.667" y="731" width="45" height="45"/>
	</g>
	<rect id="toilet" x="992" y="735.667" width="45" height="45"/>
	<g id="escalator">
		<rect id="escalator-1" x="962.667" y="616.333" width="45" height="45"/>
		<rect id="escalator-2" x="1068.334" y="591.667" width="45" height="45"/>
	</g>
</g>
</svg>
