<?xml version="1.0" encoding="utf-8"?>
<!-- Generator: Adobe Illustrator 19.2.0, SVG Export Plug-In . SVG Version: 6.00 Build 0)  -->
<svg version="1.1" id="Layer_1" xmlns="http://www.w3.org/2000/svg" xmlns:xlink="http://www.w3.org/1999/xlink" x="0px" y="0px"
	 viewBox="0 0 1338 892" style="enable-background:new 0 0 1338 892;" xml:space="preserve">
<style type="text/css">
	.st0{fill:#BFBFBF;stroke:#494949;stroke-miterlimit:10;}
	.st1{fill:#878787;stroke:#494949;stroke-miterlimit:10;}
	.st2{fill:#919191;stroke:#494949;stroke-miterlimit:10;}
	.st3{fill:#494949;stroke:#212121;stroke-miterlimit:10;}
</style>
<g id="background">
</g>
<g id="etc">
	<path class="st0" d="M1245.5,261.3c11-13.1,2.1-27.4,2.1-27.4s-64.6-103.1-72.7-112.3c-8.1-9.2-9.7-5.8-9.7-5.8L688.1,450.4
		c0,0-8,4.9-10.9,6.4c-2.8,1.4-11.7,5-11.7,5l-0.9-1.2L190.9,601.7l0.2,0.6l27.1,91.5c0,0,23,51.1,36.4,78.7
		c13.3,27.6,37.7,21.6,37.7,21.6s413.2-0.5,439.4-0.9s52.9-37.7,55.2-39.1s14.7-14.3,57.5-17c42.8-2.8,60.3,25.3,68.1,42.3
		c7.8,17,25.8,15.6,25.8,15.6s146.8,4.1,167,3.2c20.2-0.9,27.1-37.7,27.1-37.7s9.7-60.3,15.2-81c5.5-20.7,24.4-21.6,24.4-21.6
		l38.2-3.7c43.7,1.4,29-35,27.6-36.8c-1.4-1.8-35.9-120.6-40-132.1c-4.1-11.5-2.8-41.3-2.8-41.3c-3.2-18.8,15.6-88.7,15.6-88.7
		L1245.5,261.3z M891.9,568.3c-7.4,2.6-48.3,19.2-48.3,19.2s-22.1,17.9-13.8,49.7c3.7,6.9,13.8,23.9,13.8,23.9s2.3,6.9-4.6,8.3
		c-6.9,1.4-68.6,11.5-68.6,11.5s-16.1,6.9-21.6-6.4l-3.2-6.4l8.3-4.6L737.3,633l-17.5,11l-28.5-89.3l186.8-62.3l20.2,63.7
		C898.3,556.2,899.3,565.7,891.9,568.3z M1147,483.6c0,0-178.7,60.2-190.7,63.1c-12,2.9-16.9-3.5-16.9-3.5l-36.8-56.8l233.8-78.5
		l17.9,59.7C1159.9,482.5,1147,483.6,1147,483.6z"/>
	<path class="st1" d="M627.1,409c0,0-31.7-45.2-49.7-63.5c-26.9-23.5-69.4-6.9-69.4-6.9s-351,105.3-365.8,110.8
		c-14.8,5.5-36.9,30.7-38.7,54.9C101.9,528.4,115,548,115,548c11,21.7,30.6,28.9,30.6,28.9l7.4,16.6l33.1-8.3l4.9,16.5l473.6-141.1
		L627.1,409z"/>
	<path class="st2" d="M653.3,680.9h43.5c0,0,15.6,10.6,0,21.6c-3.7,0.5-43.5,0-43.5,0S637.9,691.9,653.3,680.9z"/>
	<polygon class="st1" points="1031.9,256.1 1069.9,229.2 1115.8,296.8 1064,333.4 1055.7,321.7 1068.8,312.3 	"/>
	<polygon class="st2" points="750.5,497.8 750.5,534.6 818.3,512.5 798.2,482.1 	"/>
	<path class="st0" d="M1195.1,444c-3.2-18.8,15.6-88.7,15.6-88.7l34.7-94.1c11-13.1,2.1-27.4,2.1-27.4s-64.6-103.1-72.7-112.3
		c-8.1-9.2-9.7-5.8-9.7-5.8l-0.3,0.2l0.3,0.5l72.7,112.6c0,0,3.6,4.9-2.3,21.3c-5.9,16.5-20.5,56.6-20.5,56.6l-30.6,77.4
		c0,0-7.3,9.1-19.3,13.1c-12,4-29.2,10.3-29.2,10.3l0,0.1l0.4-0.1l17.9,59.7c0,0,4.8,10.4-2.2,14c-0.2,0.2-0.5,0.3-0.7,0.5
		c4.5-1.5,13.7-4.6,13.7-4.6s11.5-5.3,15.6,6.4c4.2,11.7,40.8,131.9,40.8,131.9s14.2,25.6-14.7,33.8c-15.7,4.5-21.9,6.1-24.2,6.6
		l22.6-1.6l5-0.5c0.5,0,0.9,0,1.4,0l10.5-0.8h0c1.1-0.2,2.1-0.4,3-0.7c1.7-0.5,4-1.2,6.3-2.4c10.8-6,10.7-17.5,9.1-25.2
		c0,0,0,0,0-0.1c-0.6-1.8-1.3-4.1-2.2-6.9c-0.2-0.4-0.4-0.7-0.4-0.8c-0.7-1-10.3-33.1-19.9-65.5c-8.8-29-17.2-57-20-66.2
		c0-0.1-0.1-0.3-0.1-0.4C1193.7,473.8,1195.1,444,1195.1,444z"/>
	<path class="st3" d="M833.3,643.6"/>
	<path class="st0" d="M861.5,587.5c6.9,0.9,68.6-22.2,68.6-22.2l22.5-6.8v-10.6l-0.4-0.5c-9,0.8-12.8-4.2-12.8-4.2l-36.8-56.8l1-0.3
		l-0.5-0.6l-25,7.1l20.2,63.7c0,0,0.9,9.4-6.4,12.1s-48.3,19.2-48.3,19.2s-22.1,17.9-13.8,49.7c0.9,1.7,2.2,3.9,3.6,6.4l0.8-0.8
		c0.3-2.3,0.9-5.6,2.1-8.8c11.3-29.9,17.7-45,24.7-46.4C861.2,587.5,861.3,587.5,861.5,587.5z"/>
	<path class="st0" d="M843.6,661.2c0.2,0.7,1.9,6.9-4.6,8.2c-6.9,1.4-68.6,11.5-68.6,11.5s-16.1,6.9-21.6-6.4l-3.2-6.4l19.8,52.5
		l-34,62.1l-472-2.3c13.7,18.5,33,13.8,33,13.8s413.2-0.5,439.4-0.9c26.2-0.5,52.9-37.7,55.2-39.1s14.7-14.3,57.5-17
		c30.2-1.9,47.8,11.5,58.3,25.5L843.6,661.2z"/>
	<path id="q-space-gf" class="st1" d="M974.7,646.9c0,0-3.6-27.7,18.5-26.1l5.5,14.3l47.9-18.7l-4.9-12.2l7.3-2.4l49.7,12.3
		c0,0,12.4,6.8,0.3,16.9l-36.1,24.8l-12.2,0.7l-0.3-6.6L974.7,646.9z"/>
	<path id="bhiraj-tower" class="st1" d="M1003.6,275.4l5.5-4.5L989,240.1L750.5,406.6c0,0,8.2,0.8,10,2.9c1.9,2.1,27.4,38,27.4,38
		l52.4-36.6l13.8-10l-4.1-6.9l14.1-10l15.9,25.2l144.7-102.2L1003.6,275.4z"/>
</g>
<g id="rooms">
	<polygon id="qgc-3" class="st3" points="558.4,781.7 599.5,781.9 599.5,732 558.7,730.9 	"/>
	<polygon id="gourmet-market" class="st3" points="563.6,598.1 464.2,551.1 456.7,522.5 190.9,601.7 219.3,696.1 259.3,780.3 
		558.4,781.7 558.7,730.9 558.4,730.9 558.7,730.9 558.7,730.9 599.5,732 599.5,731.3 	"/>
	<polygon id="qgc-5" class="st3" points="518,504.2 493.7,511.4 506.5,553 530.3,546.5 	"/>
	<polygon id="qgc-4" class="st3" points="611.9,524.2 506.5,553 543.6,571.2 619.5,548.4 	"/>
	<path id="qgb-7" class="st3" d="M687.1,451.1c-8.7,6.1-21.7,10.7-21.7,10.7l-37.6,11.4l15.9,61.4l72.5-39.9l-28.1-44.3
		C687.7,450.6,687.4,450.9,687.1,451.1z"/>
	<path id="qgb-8" class="st3" d="M787.9,447.6c0,0-21.4-29.7-25.5-35.9c-4.1-6.2-11.9-5.1-11.9-5.1s-51.3,36-62.4,43.8l28.1,44.3
		l49.7-27.4l32.4-3.6L787.9,447.6L787.9,447.6z"/>
	<polygon id="qgb-9" class="st3" points="868.7,450.4 840.4,411 787.9,447.6 798.2,463.7 861.1,456.8 	"/>
	<polygon id="quartier-take-home" class="st3" points="576.7,578.8 627.8,564.9 653.3,665.7 605,683 	"/>
	<polygon id="qgc-2" class="st3" points="628.2,781.9 628.2,726 636.5,716.3 763.1,716.3 765.4,720.5 731.3,782.6 	"/>
	<polygon id="qgb-10" class="st3" points="880,409.3 880.1,409.3 866.2,419.3 882.8,444 912.8,422.9 896.5,397.6 	"/>
	<polygon id="qgb-11" class="st3" points="896.5,397.6 912.8,422.9 941.6,402.6 924.4,378 	"/>
	<polygon id="qgb-13" class="st3" points="951.4,358.9 968.2,383.8 997.5,363.1 981,338 	"/>
	<polygon id="qgb-14" class="st3" points="1025,307.5 1024.7,307.1 981,338 997.5,363.1 1027.4,342 	"/>
	<polygon id="qgb-12" class="st3" points="924.4,378 941.6,402.6 968.2,383.8 951.4,358.9 	"/>
	<path id="qgb-1" class="st3" d="M1078.7,177.2l76.4,109.2l60,20.6l23.5-64.9c0,0,2.8-7.8-3.1-18.5c-5.9-10.7-70.3-107.1-70.3-107.1
		L1078.7,177.2z"/>
	<polygon id="qgb-4" class="st3" points="983.5,396.2 1002.9,452 1059.6,433 1036.3,358.9 	"/>
	<polygon id="qgb-3" class="st3" points="1036.4,358.9 1036.3,358.9 1059.6,433 1116.7,413.9 1099.1,356.8 	"/>
	<path id="qgb-2" class="st3" d="M1150.6,355.1l-51.5,1.7l17.5,57.1l52.9-17.7c0,0,13.8-3.3,17.6-18.2l4.5-10.8L1150.6,355.1z"/>
	<polygon id="qgb-5" class="st3" points="937.1,428.8 950.5,469.6 1002.9,452 983.5,396.2 	"/>
	<polygon id="qgb-6" class="st3" points="887.6,463.7 896.5,487.6 950.5,469.6 937.1,428.8 	"/>
	<polygon id="qga-8" class="st3" points="952.6,547.9 952.6,558.5 973.8,604.1 1036.3,582.9 1038.6,583.2 1018.8,526.5 	"/>
	<polygon id="qga-9" class="st3" points="1050.6,516.2 1018.8,526.5 1038.6,583.2 1074.6,587.5 	"/>
	<path id="qga-1" class="st3" d="M1066.3,510.6l98.9-33.1c0,0,11-4.1,15.6,6.4c4.6,10.6,15.2,49.7,15.2,49.7l-58.9,20.7l-45.1,35.4
		h-9.2l-13.8-45.6l5.5-3.2L1066.3,510.6z"/>
	<polygon id="qga-5b" class="st3" points="890.1,703.4 913.5,743 964.9,725.3 942.5,687.3 	"/>
	<polygon id="qga-5a" class="st3" points="1016.4,690.1 942.5,687.3 942.5,687.3 964.9,725.3 1021.1,707.5 1021.4,708.5 
		1016.5,690.1 	"/>
	<polygon id="qga-4" class="st3" points="1065.3,719.5 1051.6,677.7 1016.5,690.1 1021.4,708.5 1029,732.5 	"/>
	<polygon id="qga-3b" class="st3" points="1109.5,642.2 1063.1,673.5 1070.4,695.2 1141.9,668.4 1126,620.7 	"/>
	<path id="qga-2" class="st3" d="M1223.2,621.1l-14.3-47.4l-62,19.7l20.1,65.5l1.8-0.7c0,0,30-3.1,45.1-11.8
		C1229.1,637.6,1223.2,621.1,1223.2,621.1z"/>
	<polygon id="qga-3a" class="st3" points="1146.8,593.5 1126,620.7 1141.9,668.4 1167.1,658.9 1147,593.4 	"/>
	<path id="qga-6" class="st3" d="M836.2,634c-2.1,5.5-2.9,9.6-2.9,9.6l28.4,48.6l64.7-33.4l0.6-0.6l-66-70.7
		C853.9,588.9,847.5,604.1,836.2,634z"/>
	<path id="qga-7" class="st3" d="M930.1,565.3c0,0-61.7,23.1-68.6,22.2c-0.2,0-0.4,0-0.6,0l66,70.7l29.3-30.2L930.1,565.3z"/>
	<polygon id="qgc-13" class="st3" points="601.3,572.3 627.8,565.1 630.8,577 604.5,584.5 	"/>
	<polygon id="qgc-12" class="st3" points="604.5,584.5 630.9,577.3 633.9,589.2 607.7,596.4 	"/>
	<polygon id="qgc-8" class="st3" points="622.3,648.7 647.1,641.3 650.2,653.5 626.3,661.9 	"/>
	<polygon id="qgc-7" class="st3" points="626.3,661.9 650.2,653.5 653.2,665.4 630.5,674.2 	"/>
	<polygon id="qgc-11" class="st3" points="639.2,610.3 613.9,617 609.8,601.6 635.3,594.7 	"/>
	<polygon id="qgc-9" class="st3" points="642.2,622.9 629.1,626.4 625.6,613.9 638.8,610.4 	"/>
	<polygon id="qgc-10" class="st3" points="629.1,626.4 617.3,629.5 613.9,617 625.6,613.9 	"/>
	
		<rect id="qgb-15" x="983.8" y="207" transform="matrix(0.8196 -0.573 0.573 0.8196 63.6976 634.1398)" class="st3" width="109.9" height="17.8"/>
	<path id="qgc-1" class="st3" d="M686.6,542.9l-42.2,23.2c0,0-0.6,1.3,1,8.2s23.7,90.9,23.7,90.9h21.6l29-21.6l-28.8-89.3
		L686.6,542.9z"/>
	<path id="qgb-7b" class="st3" d="M691,554.2l-4.3-11.3c8.8-5.6,22.9-15.1,25.3-13c2.5,2.2,6.6,14.8,6.6,14.8L691,554.2z"/>
	<circle id="qgc-6" class="st3" cx="633.9" cy="688" r="7.1"/>
	<rect id="qgc-16" x="414.7" y="589.7" class="st3" width="54.1" height="13.5"/>
	<rect id="qgc-17" x="416.2" y="617.6" class="st3" width="25.6" height="17.5"/>
	<rect id="qgc-15" x="457.7" y="613.9" class="st3" width="17.2" height="17.2"/>
</g>
<g id="signs">
	<g id="escalator">
		<rect id="escalator-3" x="988.9" y="636.4" width="45" height="45"/>
		<rect id="escalator-2" x="756.3" y="482.4" width="45" height="45"/>
		<rect id="escalator-1" x="1052.7" y="250.5" width="45" height="45"/>
	</g>
	<g id="lift">
		<rect id="lift-1" x="716.1" y="631.1" width="45" height="45"/>
		<rect id="lift-2" x="995.3" y="593.4" width="45" height="45"/>
		<rect id="lift-3" x="1030.2" y="284.6" width="45" height="45"/>
		<rect id="lift-4" x="584.6" y="465.1" width="45" height="45"/>
		<rect id="lift-5" x="846.2" y="380.1" width="45" height="45"/>
		<rect id="lift-6" x="1027.4" y="745.8" width="45" height="45"/>
	</g>
	<g id="toilet">
		<rect id="toilet-1" x="1004.9" y="258.8" width="45" height="45"/>
		<rect id="toilet-2" x="1075.2" y="733.1" width="45" height="45"/>
		<rect id="toilet-3" x="521.3" y="496.4" width="45" height="45"/>
	</g>
	<rect id="taxi" x="541.1" y="766.9" width="45" height="45"/>
	<g id="dropoff">
		<rect id="dropoff-1" x="810.9" y="702.8" width="45" height="45"/>
		<rect id="dropoff-2" x="636.3" y="766.9" width="45" height="45"/>
		<rect id="dropoff-3" x="1151.1" y="414.9" width="45" height="45"/>
	</g>
	<rect id="stairs" x="556.5" y="473.9" width="45" height="45"/>
	<rect id="parking" x="343.1" y="447.1" width="45" height="45"/>
	<g id="entrance">
		<rect id="entrance-1" x="1191.7" y="525.2" width="45" height="45"/>
		<rect id="entrance-2" x="1191.7" y="315.5" width="45" height="45"/>
		<rect id="entrance-3" x="865.1" y="465.1" width="45" height="45"/>
		<rect id="entrance-4" x="919.1" y="542.8" width="45" height="45"/>
		<rect id="entrance-5" x="857.7" y="672.7" width="45" height="45"/>
		<rect id="entrance-6" x="738.6" y="683.8" width="45" height="45"/>
		<rect id="entrance-7" x="589.8" y="745.8" width="45" height="45"/>
		<rect id="entrance-8" x="451.7" y="493.7" width="45" height="45"/>
	</g>
</g>
</svg>
