<?xml version="1.0" encoding="utf-8"?>
<!-- Generator: Adobe Illustrator 16.0.0, SVG Export Plug-In . SVG Version: 6.00 Build 0)  -->
<!DOCTYPE svg PUBLIC "-//W3C//DTD SVG 1.1//EN" "http://www.w3.org/Graphics/SVG/1.1/DTD/svg11.dtd">
<svg version="1.1" id="Layer_1" xmlns="http://www.w3.org/2000/svg" xmlns:xlink="http://www.w3.org/1999/xlink" x="0px" y="0px"
	 width="1000px" height="1000px" viewBox="0 0 1000 1000" enable-background="new 0 0 1000 1000" xml:space="preserve">
<g id="background">
</g>
<g id="etc">
	<path fill="#BFBFBF" stroke="#494949" stroke-miterlimit="10" d="M913.079,598.281l-12.406-4.111l-9.642-30.269l10.314-13.079
		c0,0-0.075-8.595-6.876-20.628c-7.549-13.453-23.768-6.801-23.394-6.876l-56.428,16.518c0,0-3.513-62.481,0.599-60.688
		c4.11,1.793,11.36,0.224,11.36,0.224l47.234-16.517l9.043-14.425c0,0,28.625-77.653,34.305-93.124
		c5.681-15.471-2.316-22.945-2.316-22.945l-69.357-104.484L480.045,487.369l-4.335,3.064l-28.699,8.969l-8.371,3.064l7.698,27.055
		l-326.084,94.918l-2.316-7.474l-18.535,6.651c0,0.075,0.075,0.149,0.075,0.149l57.772,127.205c0,0,393.423-0.673,398.207-2.093
		c4.783-1.346,6.203-7.549,6.203-7.549l10.313-37.145l77.056-4.783c0,0,22.496,41.181,27.504,46.786
		c9.642,15.845,32.361,12.406,32.361,12.406s90.808,4.11,111.436,2.766c20.628-1.346,19.955-17.19,19.955-17.19
		s10.986-48.804,12.406-66.741c1.346-17.862,19.282-17.862,19.282-17.862s18.535-2.093,28.177-4.11
		c9.642-2.093,19.208-12.406,19.208-12.406L913.079,598.281z M795.964,546.338l-13.229,3.438l-166.891,60.838
		c-7.997,7.474-4.634,18.385-4.634,18.385l26.532,48.879l-79.073,4.709l-5.605-9.192l11.809-8.222l-14.051-21.674l-11.585,8.445
		l-22.048-71.226c0,0,116.069-38.416,154.335-51.569c31.391-10.838,124.439-44.32,124.439-44.32V546.338z"/>
	<path fill="#BFBFBF" stroke="#494949" stroke-miterlimit="10" d="M900.747,594.17l-9.641-30.269l10.313-13.079
		c0,0-0.374-8.445-6.876-20.628c-7.025-13.079-23.393-6.876-23.393-6.876l-35.427,10.389l-39.686,12.107v0.523l-11.809,3.064
		l-3.064,0.972l-165.321,60.239c-7.997,7.474-4.634,18.385-4.634,18.385l26.532,48.879l-0.972,0.075l11.809,21.45h0.373
		c0,0,22.497,41.181,27.504,46.786c9.642,15.845,32.362,12.406,32.362,12.406s90.807,4.11,111.435,2.766
		c20.628-1.346,19.955-17.19,19.955-17.19s10.986-48.804,12.407-66.741c1.345-17.862,19.282-17.862,19.282-17.862
		s18.535-2.093,28.176-4.11c9.642-2.093,19.208-12.407,19.208-12.407l-6.128-44.693L900.747,594.17z"/>
	<path fill="#878787" stroke="#494949" stroke-miterlimit="10" d="M117.862,616.966L117.862,616.966l2.317,7.474l326.083-94.843
		l-7.697-27.056l0,0l0,0l8.37-3.064l-0.747,0.225c18.087-29.298-1.569-61.809-19.582-73.692
		c-15.471-10.837-39.686-4.634-39.686-4.634l-279.073,81.988c0,0-31.465,12.93-29.896,47.982
		c1.569,35.052,25.262,46.936,25.262,46.936s-1.046,6.203-5.157,10.313c-3.886,3.887,0.748,13.827,1.346,15.022L117.862,616.966
		L117.862,616.966z"/>
	<path fill="#878787" stroke="#494949" stroke-miterlimit="10" d="M331.24,655.008l32.512-11.884c0,0,3.588-1.569,7.25,2.616
		c3.587,4.11,12.406,30.941,12.406,30.941s2.615,6.727-4.11,9.268c-6.727,2.616-44.844,9.791-44.844,9.791L331.24,655.008z"/>
	<path fill="#878787" stroke="#494949" stroke-miterlimit="10" d="M396.562,662.93c0,0,1.719,13.752,5.53,14.425
		s44.395-12.407,44.395-12.407l15.097-9.939l3.438-9.94c0,0-3.064-6.203-3.812-6.203c-0.748,0-34.081,6.203-34.081,6.203
		L396.562,662.93z"/>
	<path fill="#878787" stroke="#494949" stroke-miterlimit="10" d="M709.492,658.146l30.941-30.27l39.237-13.079
		c0,0,7.549-3.438,12.407,4.111c4.857,7.548,6.203,17.189,6.203,17.189l-55.008,36.473h-37.817L709.492,658.146z"/>
	<polygon fill="#878787" stroke="#494949" stroke-miterlimit="10" points="765.247,359.641 793.423,337.593 829.896,387.817 
		791.33,416.741 785.127,407.773 794.096,399.552 	"/>
	<polygon fill="#BFBFBF" stroke="#494949" stroke-miterlimit="10" points="637.594,679.447 636.547,677.952 558.67,682.586 
		571.823,704.783 571.973,704.186 648.953,699.402 	"/>
	<polygon fill="#BFBFBF" stroke="#494949" stroke-miterlimit="10" points="814.724,539.836 814.798,479.298 795.964,485.352 
		795.964,545.89 818.311,538.789 	"/>
	<polygon fill="#878787" stroke="#494949" stroke-miterlimit="10" points="754.036,346.711 754.036,346.711 730.792,309.566 
		584.305,413.378 622.123,468.983 643.273,453.887 656.203,471.898 654.634,473.094 760.389,397.534 745.441,373.393 
		766.592,359.417 758.371,346.039 758.445,345.964 	"/>
</g>
<g id="rooms">
	<polygon id="q-stadium-1f" fill="#494949" stroke="#212121" stroke-miterlimit="10" points="289.985,704.186 257.624,584.454 
		120.254,624.439 117.862,616.966 99.402,623.767 157.624,752.541 288.714,751.719 290.06,704.186 	"/>
	<polygon id="q1c-6" fill="#494949" stroke="#212121" stroke-miterlimit="10" points="327.13,700.747 290.06,704.186 
		288.714,751.719 364.2,751.195 363.527,707.623 	"/>
	<polygon id="q1c-5" fill="#494949" stroke="#212121" stroke-miterlimit="10" points="401.346,695.814 363.527,707.623 
		363.527,707.623 364.2,751.195 403.438,750.972 	"/>
	<polygon id="q1c-7" fill="#494949" stroke="#212121" stroke-miterlimit="10" points="315.546,567.563 322.272,592.078 
		278.251,607.25 290.06,654.709 343.049,637.594 324.065,565.097 	"/>
	<polygon id="q1c-8" fill="#494949" stroke="#212121" stroke-miterlimit="10" points="359.193,589.387 359.193,589.387 
		359.193,589.387 350.448,557.474 324.065,565.097 343.049,637.594 363.527,630.941 385.501,630.941 373.842,584.978 	"/>
	<polygon id="q1c-9" fill="#494949" stroke="#212121" stroke-miterlimit="10" points="350.448,557.474 359.193,589.387 
		373.842,584.978 375.262,584.529 373.842,584.978 385.501,630.941 421.973,630.941 427.952,628.998 402.989,542.152 	"/>
	<polygon id="q1c-10" fill="#494949" stroke="#212121" stroke-miterlimit="10" points="467.414,584.454 456.428,553.588 
		446.113,553.588 443.349,543.946 420.628,551.495 416.518,538.191 402.989,542.152 427.952,628.998 465.022,616.891 	"/>
	<polygon id="q1c-4" fill="#494949" stroke="#212121" stroke-miterlimit="10" points="409.791,693.199 409.642,734.828 
		440.434,734.828 440.434,682.735 	"/>
	<polygon id="q1c-3" fill="#494949" stroke="#212121" stroke-miterlimit="10" points="471.002,672.197 440.434,682.735 
		440.434,734.828 440.434,735.65 440.434,750.074 515.396,750 515.396,686.323 	"/>
	<polygon id="q1c-2" fill="#494949" stroke="#212121" stroke-miterlimit="10" points="515.396,686.323 515.396,750 531.689,750 
		531.689,691.479 	"/>
	<path id="q1c-1a" fill="#494949" stroke="#212121" stroke-miterlimit="10" d="M551.719,697.833l-7.549,52.093h10.763
		c3.064-0.523,5.605-6.129,5.605-6.129l11.211-39.611L551.719,697.833z"/>
	<path id="q1b-2" fill="#494949" stroke="#212121" stroke-miterlimit="10" d="M537.594,647.31l-16.518,22.048l-25.785-8.67
		l-6.726-23.094V590.06c0,0-4.111-26.308-14.948-39.237l14.948-18.535l-12.93-41.779l108.669-77.129l37.818,55.68l42.376,62.556
		l-146.038,48.729c0,0-2.093-0.299,0,4.26C518.461,584.38,537.594,647.31,537.594,647.31z"/>
	<g id="q1b-1">
		<polygon fill="#494949" stroke="#212121" stroke-miterlimit="10" points="645.366,480.194 656.727,497.16 772.272,415.172 
			760.389,397.534 654.634,473.094 		"/>
		<polygon fill="#494949" stroke="#212121" stroke-miterlimit="10" points="676.084,527.578 660.613,504.11 774.065,423.692 
			795.964,484.828 		"/>
		<path fill="#494949" stroke="#212121" stroke-miterlimit="10" d="M919.282,337.593l-73.243-109.716l-115.247,81.689l23.244,37.22
			l4.409-0.747l49.926-23.169l46.936,65.994l-1.569,13.901l-52.616,36.099l14.2,40.209l7.399,0.822l51.195-17.04l9.044-14.425
			l4.036-10.912c0,0,26.531-71.898,30.269-82.212C921.002,344.993,919.282,337.593,919.282,337.593z"/>
	</g>
	<path id="q1a-6" fill="#494949" stroke="#212121" stroke-miterlimit="10" d="M650.523,597.533l22.122,70.329
		c7.997-2.69,14.2-4.933,14.2-4.933l19.582-19.507l-18.983-59.192L650.523,597.533z"/>
	<polygon id="q1a-7" fill="#494949" stroke="#212121" stroke-miterlimit="10" points="687.369,584.305 706.428,643.498 
		736.023,614.051 771.898,601.794 757.772,558.894 	"/>
	<polygon id="q1a-8" fill="#494949" stroke="#212121" stroke-miterlimit="10" points="804.41,568.685 791.031,573.543 
		783.109,549.775 757.772,558.894 771.898,601.794 810.613,588.64 	"/>
	<path id="q1a-5" fill="#494949" stroke="#212121" stroke-miterlimit="10" d="M615.994,610.015
		c-7.549,5.531-3.812,20.255-3.812,20.255s23.916,46.337,25.784,47.832c2.99,0.448,21.375-5.605,34.679-10.164l-22.122-70.329
		L615.994,610.015z"/>
	<path id="q1a-2" fill="#494949" stroke="#212121" stroke-miterlimit="10" d="M823.543,638.49l-0.599,13.079l-28.923,23.02
		l11.359,37.146l44.32-14.649l3.662-24.514c0,0,2.84-11.286,15.396-12.78c12.556-1.495,31.166-4.41,31.166-4.41
		s1.942-0.224,4.633-1.195l-13.303-39.388L823.543,638.49z"/>
	<path id="q1a-1" fill="#494949" stroke="#212121" stroke-miterlimit="10" d="M913.079,598.281l-12.406-4.111l-9.642-30.269
		l10.314-13.079c0,0-1.271-6.203-1.794-8.146c-0.523-1.868-2.616-7.175-2.616-7.175s-4.857-18.312-23.691-12.78
		c-15.771,4.708-58.596,17.04-58.596,17.04v9.94l11.36,32.361l-2.541,56.354l67.788-23.692l0,0l0,0l13.303,39.387
		c4.709-1.719,11.585-5.68,14.051-14.724C919.507,635.276,913.079,598.281,913.079,598.281z"/>
	<path id="q1a-4" fill="#494949" stroke="#212121" stroke-miterlimit="10" d="M756.801,735.426L756.801,735.426l-16.517-48.654
		l-70.853,2.69l-7.398,2.766l14.798,26.158l-12.406,8.595c0,0,0,0,10.164,16.667c10.164,16.666,21.151,14.574,21.151,14.574
		l86.995,2.989l-10.763-30.27L756.801,735.426L756.801,735.426z"/>
	<polygon id="q1a-3" fill="#494949" stroke="#212121" stroke-miterlimit="10" points="798.206,722.123 784.23,679.447 
		761.062,685.949 740.284,686.771 756.801,735.426 771.973,730.941 771.898,730.718 	"/>
	<polygon id="g1c-1b" fill="#494949" stroke="#212121" stroke-miterlimit="10" points="551.719,697.833 531.689,691.479 
		531.689,750 544.17,749.926 	"/>
	<polygon id="qds1-1" fill="#494949" stroke="#212121" stroke-miterlimit="10" points="288.714,751.719 290.06,704.186 
		288.266,697.833 252.99,711.51 252.99,751.719 	"/>
	<polygon id="qds1-2" fill="#494949" stroke="#212121" stroke-miterlimit="10" points="252.99,711.51 211.584,724.738 
		211.36,752.392 252.99,751.719 	"/>
	<polygon id="qds1-3" fill="#494949" stroke="#212121" stroke-miterlimit="10" points="211.584,724.738 184.903,731.988 
		185.276,752.392 211.36,752.392 	"/>
	<polygon id="qds1-4" fill="#494949" stroke="#212121" stroke-miterlimit="10" points="184.903,731.988 166.442,705.979 
		142.003,717.938 157.624,752.541 185.276,752.392 	"/>
	<polygon id="qds1-6" fill="#494949" stroke="#212121" stroke-miterlimit="10" points="144.544,654.186 117.938,664.648 
		99.402,623.767 117.862,616.966 120.254,624.439 131.838,621.151 	"/>
	<polygon id="qds1-5" fill="#494949" stroke="#212121" stroke-miterlimit="10" points="166.442,705.979 142.003,717.938 
		117.938,664.648 144.544,654.186 	"/>
	<polygon id="qds1-7" fill="#494949" stroke="#212121" stroke-miterlimit="10" points="178.4,643.05 144.544,654.186 
		131.838,621.151 168.012,610.538 	"/>
	<polygon id="qds1-10" fill="#494949" stroke="#212121" stroke-miterlimit="10" points="266.966,618.983 233.707,627.578 
		224.215,594.32 257.624,584.454 	"/>
	<polygon id="qds1-9" fill="#494949" stroke="#212121" stroke-miterlimit="10" points="233.707,627.578 201.719,636.248 
		191.48,603.737 224.215,594.32 	"/>
	<polygon id="qds1-8" fill="#494949" stroke="#212121" stroke-miterlimit="10" points="201.719,636.248 178.4,643.05 
		168.012,610.538 191.48,603.737 	"/>
	<polygon id="qds1-14" fill="#494949" stroke="#212121" stroke-miterlimit="10" points="176.831,703.513 201.345,696.637 
		196.413,679.372 171.525,686.023 	"/>
	<polygon id="qds1-11" fill="#494949" stroke="#212121" stroke-miterlimit="10" points="281.838,674.141 241.555,685.426 
		231.241,648.954 272.123,637.594 	"/>
	<polygon id="qds1-12" fill="#494949" stroke="#212121" stroke-miterlimit="10" points="241.555,685.426 201.345,696.637 
		191.031,660.239 231.838,648.804 	"/>
	<polygon id="qds1-13" fill="#494949" stroke="#212121" stroke-miterlimit="10" points="196.413,679.372 171.525,686.023 
		165.77,667.189 191.031,660.239 	"/>
	<polygon id="q1b-4" fill="#494949" stroke="#212121" stroke-miterlimit="10" points="816.667,356.727 810.463,361.211 
		793.423,337.593 799.552,332.81 	"/>
	<polygon id="q1b-3" fill="#494949" stroke="#212121" stroke-miterlimit="10" points="836.397,382.437 829.896,387.817 
		810.463,361.211 816.667,356.727 	"/>
</g>
<g id="signs">
	<g id="toilet">
		<rect id="toilet-1" x="443.871" y="493.273" width="33.633" height="33.633"/>
		<rect id="toilet-2" x="278.326" y="569.133" width="33.632" height="33.633"/>
		<rect id="toilet-3" x="748.057" y="362.481" width="33.633" height="33.632"/>
		<rect id="toilet-4" x="802.989" y="711.884" width="33.633" height="33.632"/>
	</g>
	<g id="lift">
		<rect id="lift-1" x="437.893" y="512.332" width="33.632" height="33.632"/>
		<rect id="lift-2" x="536.174" y="642.003" width="33.632" height="33.633"/>
		<rect id="lift-3" x="629.223" y="449.253" width="33.633" height="33.632"/>
		<rect id="lift-4" x="763.378" y="377.803" width="33.633" height="33.632"/>
		<rect id="lift-5" x="742.078" y="611.734" width="33.632" height="33.632"/>
		<rect id="lift-6" x="764.126" y="723.094" width="33.632" height="33.633"/>
	</g>
	<rect id="stairs" x="418.834" y="525.411" width="33.633" height="33.632"/>
	<rect id="parking" x="252.167" y="507.848" width="33.632" height="33.632"/>
	<g id="escalator">
		<rect id="escalator-1" x="335.874" y="652.467" width="33.633" height="33.632"/>
		<rect id="escalator-2" x="548.505" y="531.391" width="33.633" height="33.632"/>
		<rect id="escalator-3" x="784.679" y="352.392" width="33.632" height="33.632"/>
		<rect id="escalator-4" x="731.24" y="639.761" width="33.633" height="33.633"/>
	</g>
	<rect id="entrance" x="248.804" y="566.816" width="33.632" height="33.632"/>
</g>
</svg>
