<?xml version="1.0" encoding="utf-8"?>
<!-- Generator: Adobe Illustrator 16.0.0, SVG Export Plug-In . SVG Version: 6.00 Build 0)  -->
<!DOCTYPE svg PUBLIC "-//W3C//DTD SVG 1.1//EN" "http://www.w3.org/Graphics/SVG/1.1/DTD/svg11.dtd">
<svg version="1.1" id="Layer_1" xmlns="http://www.w3.org/2000/svg" xmlns:xlink="http://www.w3.org/1999/xlink" x="0px" y="0px"
	 width="1000px" height="1000px" viewBox="0 0 1000 1000" enable-background="new 0 0 1000 1000" xml:space="preserve">
<g id="background">
</g>
<g id="etc">
	<path fill="#BFBFBF" stroke="#494949" stroke-miterlimit="10" d="M907.848,583.109c0,0-5.456-15.695-8.222-23.692
		c-2.765-7.997-8.968-11.211-8.968-11.211s-29.672-17.937-39.612-22.944c-9.716-4.709-13.452-2.242-19.656-0.225
		c-5.231,1.495-167.638,59.268-167.638,59.268c-16.442,5.755-18.685,14.2-18.685,14.2s-10.688,28.924-14.948,40.882
		c-4.26,11.959,1.495,16.966,1.495,16.966s5.231,6.951,13.229,18.685c7.474,8.969,16.966,9.193,16.966,9.193
		s14.425-1.271,20.18-0.972s7.697,5.007,7.697,5.007s0.225,4.635,0.449,11.585l32.437-31.764c-0.075-0.075-0.149-0.149-0.225-0.225
		c0,0-6.727-8.221-7.698-17.414c-0.972-9.192,4.484-18.161,4.484-18.161s5.755-4.484,9.94-6.203s17.938-6.503,17.938-6.503
		l3.961,11.211l33.856-11.733l-3.737-11.436l11.436-3.736c0,0,7.997-3.513,10.239,4.708c2.242,8.222,4.484,33.633,4.484,33.633
		s0,7.698-5.232,10.239c-5.231,2.541-60.538,22.646-60.538,22.646s-9.043,0.972-16.666-4.933l-33.782,34.229
		c0.225,7.773,0.225,18.535,0.225,27.43c0.972,19.656,19.058,18.087,19.058,18.087s116.593,0.224,125.785,0
		c9.192-0.225,9.716-6.951,9.716-6.951s12.93-49.104,13.977-52.541c1.046-3.438,9.491-27.877,9.491-27.877
		s36.099-68.535,38.117-71.749C909.417,587.594,907.848,583.109,907.848,583.109z M833.482,629.671
		c-1.271,3.214-3.363,7.399-5.231,8.222c-4.11,1.719-5.007-2.467-5.007-2.467l-3.214-23.691c0,0,0.224-4.709,2.989-5.456
		c2.766-0.748,4.708,2.242,7.25,5.456C832.811,614.947,834.679,626.457,833.482,629.671z"/>
	<polygon fill="#868686" stroke="#494949" stroke-miterlimit="10" points="690.732,704.634 699.178,704.634 701.195,693.946 	"/>
</g>
<g id="rooms">
	<path id="q8a-8" fill="#494949" stroke="#212121" stroke-miterlimit="10" d="M838.938,672.795l-30.045,10.838l17.938,51.942
		l4.634,0.149l-0.225,14.351c0,0,0.972,0,7.25-0.149c6.203-0.15,7.623-6.129,7.623-6.129s4.634-13.453,7.474-28.774
		c2.691-14.724,15.396-51.495,16.368-54.409l-11.884-6.802C850.374,666.816,838.938,672.795,838.938,672.795z"/>
	<path id="q8a-7" fill="#494949" stroke="#212121" stroke-miterlimit="10" d="M858.445,603.662
		c3.363,5.979,5.755,13.229,6.278,22.048c0.673,11.659-2.467,21.002-6.727,28.177l11.884,6.801c0.074-0.149,0.074-0.149,0.074-0.149
		s32.885-61.285,36.023-68.012c1.57-3.363,2.168-5.531,2.317-6.876L858.445,603.662z"/>
	<path id="q8a-3" fill="#494949" stroke="#212121" stroke-miterlimit="10" d="M717.115,608.969l23.842-8.296l-13.827-38.789
		c-32.586,11.51-61.062,21.748-66.068,23.767c-2.915,1.195-5.307,2.466-7.25,3.812l2.392,7.922l40.808,28.401
		C705.605,614.425,717.115,608.969,717.115,608.969z"/>
	<path id="q8a-4" fill="#494949" stroke="#212121" stroke-miterlimit="10" d="M788.341,540.209
		c-18.759,6.577-40.808,14.35-61.211,21.6l13.827,38.789l61.211-21.375L788.341,540.209z"/>
	<path id="q8a-5" fill="#494949" stroke="#212121" stroke-miterlimit="10" d="M891.479,548.58c0,0-32.735-19.806-40.956-24.065
		c-8.222-4.261-10.837-1.495-15.546-0.374c-1.569,0.374-21.151,7.175-46.712,16.068l1.196,3.662l13.378-4.857l0,0l0,0l8.072,23.169
		l-5.83,2.093l4.933,14.051c2.841-0.599,8.969,0.747,17.34,2.093c2.69,0.448,7.175,1.868,12.183,4.708l11.658-18.983l0,0l0,0
		l43.349-14.948C892.899,549.552,891.479,548.58,891.479,548.58z"/>
	<g id="q8a-1">
		<path fill="#494949" stroke="#212121" stroke-miterlimit="10" d="M691.181,674.738c-3.812-11.285-3.736-18.311-3.214-22.122
			l-49.626-0.972l-8.595,2.242c0.673,1.195,1.271,1.793,1.271,1.793s7.324,9.567,14.2,19.433s18.311,8.969,18.311,8.969
			s9.717-0.748,18.312-0.599c8.595,0.15,8.071,5.83,8.071,5.83l0.896,10.463l10.838-10.612
			C701.645,689.088,694.32,684.081,691.181,674.738z"/>
		<path fill="#494949" stroke="#212121" stroke-miterlimit="10" d="M700.896,666.293c2.616,7.324,6.577,12.855,8.819,14.798
			l13.079-13.303c0,0-4.857-5.157-7.1-12.481l-16.442-0.225C699.178,659.268,699.701,663.079,700.896,666.293z"/>
	</g>
	<g id="q8a-2">
		<path fill="#494949" stroke="#212121" stroke-miterlimit="10" d="M638.341,651.569L638.341,651.569l49.626,0.972
			c0.149-0.822,0.149-14.574,9.118-26.906l-40.807-28.4l0,0l0,0l-2.392-7.922c-6.203,4.186-7.698,8.146-7.698,8.146
			s-12.706,32.511-16.592,42.601c-2.616,6.727-1.121,11.36,0.224,13.678L638.341,651.569L638.341,651.569z"/>
		<path fill="#494949" stroke="#212121" stroke-miterlimit="10" d="M719.73,632.138c0,0,3.588-3.737,7.475-5.231
			c3.886-1.495,20.777-7.624,20.777-7.624l-3.14-8.221l-25.784,8.969c0,0-13.453,7.1-16.816,17.937
			c-1.868,6.054-2.915,11.958-2.915,17.19l16.442,0.224c-0.672-2.093-1.121-4.409-1.121-6.801
			C714.35,637.893,719.73,632.138,719.73,632.138z"/>
	</g>
	<g id="q8a-10">
		<path fill="#494949" stroke="#212121" stroke-miterlimit="10" d="M691.479,728.849l13.304,0.149v-28.251l2.616-6.576
			c0,0,18.535,17.04,43.722,9.117c1.121,2.616,4.11,11.062,4.11,11.062l-19.282,7.474l9.865,27.504H709.94
			c0,0-14.051,1.346-17.938-12.854C691.181,729.82,691.479,728.849,691.479,728.849z"/>
		<path fill="#494949" stroke="#212121" stroke-miterlimit="10" d="M741.256,675.037c-6.577,1.869-16.293-5.082-16.293-5.082
			l-12.855,13.304c9.94,9.865,25.262,10.239,33.034,9.716l-3.736-17.938C741.33,675.037,741.256,675.037,741.256,675.037z"/>
	</g>
	<g id="q8a-9">
		<polygon fill="#494949" stroke="#212121" stroke-miterlimit="10" points="761.958,712.406 757.997,701.046 802.093,685.949 
			810.763,710.763 782.138,720.852 777.13,707.175 		"/>
		<path fill="#494949" stroke="#212121" stroke-miterlimit="10" d="M810.015,666.144l-4.335-16.518l-3.736,3.363
			c0,0-53.513,19.955-60.613,22.048l3.737,17.938c2.989-0.225,4.858-0.523,4.858-0.523s53.063-18.311,57.398-20.777
			C811.659,669.208,810.015,666.144,810.015,666.144z"/>
	</g>
	<g id="q8a-6">
		<path fill="#494949" stroke="#212121" stroke-miterlimit="10" d="M908.221,583.707c0,0-6.353-18.087-8.071-24.29
			c-0.896-3.363-3.513-6.353-5.605-8.296l-43.349,14.947l-11.658,18.984c6.502,3.662,13.826,9.641,18.908,18.685l49.851-18.087
			C908.521,584.23,908.221,583.707,908.221,583.707z"/>
		<path fill="#494949" stroke="#212121" stroke-miterlimit="10" d="M817.639,605.53c0,0,8.969-0.373,11.359,4.634
			c2.392,5.008,5.083,12.332,4.484,16.442c-0.598,4.111-2.392,11.36-6.875,12.332c-4.484,0.972-4.484,0.897-4.484,0.897
			l6.726,17.937c0,0,3.14,5.083,6.129,3.588s11.211-10.314,11.211-10.314s9.716-11.958,7.324-27.652
			c-2.392-15.695-14.798-25.785-14.798-25.785l-0.374-0.747c0,0-9.118-4.634-11.211-4.634s-5.979,2.392-7.324,5.605
			C818.46,601.046,817.639,605.53,817.639,605.53z"/>
	</g>
</g>
<g id="signs">
	<g id="lift">
		<rect id="lift-1" x="749.626" y="602.392" width="33.633" height="33.632"/>
		<rect id="lift-2" x="775.037" y="712.257" width="33.633" height="33.633"/>
	</g>
	<rect id="escalator" x="796.338" y="607.25" width="33.632" height="33.632"/>
	<rect id="toilet" x="745.89" y="715.247" width="33.632" height="33.632"/>
</g>
</svg>
