<?xml version="1.0" encoding="utf-8"?>
<!-- Generator: Adobe Illustrator 16.0.0, SVG Export Plug-In . SVG Version: 6.00 Build 0)  -->
<!DOCTYPE svg PUBLIC "-//W3C//DTD SVG 1.1//EN" "http://www.w3.org/Graphics/SVG/1.1/DTD/svg11.dtd">
<svg version="1.1" id="Layer_1" xmlns="http://www.w3.org/2000/svg" xmlns:xlink="http://www.w3.org/1999/xlink" x="0px" y="0px"
	 width="1338px" height="892px" viewBox="0 0 1338 892" enable-background="new 0 0 1338 892" xml:space="preserve">
<g id="background">
</g>
<g id="Original" display="none">
	
		<image display="inline" overflow="visible" enable-background="new    " width="1800" height="1338" xlink:href="4B2CFDEE.jpeg"  transform="matrix(1.3804 0 0 1.3804 19.0566 -85.9302)">
	</image>
</g>
<g id="ETC">
	<polygon fill="#BFBFBF" points="1225.414,450.379 1225.645,449.226 1239.643,379.268 1253.939,275.071 1134.305,82.735 
		633.681,435.198 556.84,327.065 123.394,453.142 94.865,504.216 105.448,557.13 211.739,791.33 791.049,793.172 804.854,768.784 
		893.737,766.971 895.038,766.944 911.144,795.472 1112.223,801.454 1138.908,668.016 1226.333,639.948 1264.984,436.575 	"/>
	<path id="parking_1_" fill="#878787" stroke="#494949" stroke-miterlimit="10" d="M1239.643,379.163L726.629,551.965
		l-26.989-13.344l-25.465,8.283l-0.46,27.605l43.713,69.02l11.984-8.743l28.507,39.572l-47.393,11.502l-0.054-0.083l-58.735,14.891
		l-41.552-159.46l-12.853,3.856l-24.847-77.086l43.712-15.858l17.481-17.026L556.84,326.96L123.394,453.037l-28.529,51.075
		l10.583,52.914l106.291,234.198l579.31,1.843l13.805-24.389l88.885-1.813l-102.691-175.33l434.6-142.416L1239.643,379.163z
		 M472.173,551.964c-13.804,4.141-38.19,10.123-38.19,10.123l-0.921-2.074l-80.522,21.673l-14.264-50.426l80.983-21.627v-3.682
		l40.952-11.503c0,0,8.743-0.921,11.043,7.821c2.3,8.743,8.282,35.891,8.282,35.891S485.977,547.823,472.173,551.964z"/>
	<path id="automated-parking_1_" fill="#878787" stroke="#494949" stroke-miterlimit="10" d="M1225.414,450.273l0.229-1.152
		L791.046,591.537l102.691,175.33l1.301-0.027l16.104,28.527l201.079,5.981l26.687-133.438l87.425-28.067l38.651-203.373
		L1225.414,450.273z M939.898,673.9l-20.017-64.188l104.222-34.51l20.211,62.809L939.898,673.9z"/>
	<polygon fill="#878787" points="1031.005,244.251 987.983,184.78 751.529,351.833 765.729,371.864 792.196,353.044 809.429,374.58 
		794.729,385.398 812.136,410.595 813.283,412.255 837.296,395.403 837.059,395.06 837.296,395.403 860.676,378.996 
		884.784,362.078 884.683,361.93 884.784,362.078 884.945,361.964 884.683,361.585 884.945,361.964 908.178,345.661 
		908.638,345.338 908.149,344.675 908.638,345.338 931.343,329.404 932.129,328.853 955.955,312.132 956.009,312.095 
		980.518,294.896 980.648,294.804 1003.658,278.657 997.186,269.445 	"/>
	<polygon id="automated-parking-lobby" fill="#878787" stroke="#494949" stroke-miterlimit="10" points="919.883,609.712 
		939.898,673.9 1044.314,638.01 1024.104,575.202 	"/>
	<path id="parking-lobby" fill="#878787" stroke="#494949" stroke-miterlimit="10" d="M433.063,560.013l0.92,2.074
		c0,0,24.387-5.982,38.19-10.123s7.362-13.804,7.362-13.804s-5.982-27.147-8.282-35.891c-2.3-8.742-11.043-7.821-11.043-7.821
		l-40.952,11.503v3.682l-80.983,21.627l14.264,50.426L433.063,560.013z"/>
</g>
<g id="Rooms">
	<polygon id="qbb-30" opacity="0.7" fill="#494949" stroke="#212121" stroke-miterlimit="10" enable-background="new    " points="
		813.283,412.255 829.697,436.013 853.805,419.323 837.296,395.403 	"/>
	<polygon id="qbb-28" opacity="0.7" fill="#494949" stroke="#212121" stroke-miterlimit="10" enable-background="new    " points="
		860.676,378.996 877.911,402.634 901.714,386.155 884.945,361.964 	"/>
	<polygon id="qbb-27" opacity="0.7" fill="#494949" stroke="#212121" stroke-miterlimit="10" enable-background="new    " points="
		884.945,361.964 901.714,386.155 926.19,369.21 908.638,345.338 	"/>
	<polygon id="qbb-26" opacity="0.7" fill="#494949" stroke="#212121" stroke-miterlimit="10" enable-background="new    " points="
		908.638,345.338 926.19,369.21 949.543,353.044 931.343,329.405 	"/>
	<polygon id="qbb-25" opacity="0.7" fill="#494949" stroke="#212121" stroke-miterlimit="10" enable-background="new    " points="
		931.343,329.405 949.543,353.044 973.96,336.139 955.955,312.133 	"/>
	<polygon id="qbb-24" opacity="0.7" fill="#494949" stroke="#212121" stroke-miterlimit="10" enable-background="new    " points="
		955.955,312.133 973.96,336.139 998.23,319.336 980.648,294.804 	"/>
	<polygon id="qbb-23" opacity="0.7" fill="#494949" stroke="#212121" stroke-miterlimit="10" enable-background="new    " points="
		1003.658,278.657 980.648,294.804 998.23,319.336 1021.113,303.494 	"/>
	<polygon id="qbb-29" opacity="0.7" fill="#494949" stroke="#212121" stroke-miterlimit="10" enable-background="new    " points="
		837.296,395.403 853.805,419.323 877.911,402.634 860.676,378.996 	"/>
	<polygon id="qbb-31" opacity="0.7" fill="#494949" stroke="#212121" stroke-miterlimit="10" enable-background="new    " points="
		751.529,351.833 633.681,435.093 646.613,455.32 765.6,371.684 	"/>
	
		<polygon id="quartier-food-court" opacity="0.7" fill="#494949" stroke="#212121" stroke-miterlimit="10" enable-background="new    " points="
		812.212,442.454 765.623,371.938 765.729,371.864 765.6,371.684 646.613,455.32 669.571,491.229 	"/>
	<polygon id="qbb-1" opacity="0.7" fill="#494949" stroke="#212121" stroke-miterlimit="10" enable-background="new    " points="
		987.983,184.78 1013.323,219.808 1070.383,179.251 1045.708,144.481 	"/>
	<polygon id="qbb-2" opacity="0.7" fill="#494949" stroke="#212121" stroke-miterlimit="10" enable-background="new    " points="
		1045.708,144.481 1070.383,179.251 1125.48,140.089 1101.88,105.266 	"/>
	<polygon id="qbb-4" opacity="0.7" fill="#494949" stroke="#212121" stroke-miterlimit="10" enable-background="new    " points="
		1185.024,164.171 1155.285,186.329 1173.623,214.891 1203.744,194.266 	"/>
	<polygon id="qbb-5" opacity="0.7" fill="#494949" stroke="#212121" stroke-miterlimit="10" enable-background="new    " points="
		1222.438,224.321 1203.829,194.403 1203.744,194.266 1173.623,214.891 1192.334,244.035 	"/>
	<polygon id="qbb-6" opacity="0.7" fill="#494949" stroke="#212121" stroke-miterlimit="10" enable-background="new    " points="
		1222.438,224.321 1192.334,244.035 1210.689,272.629 1240.309,253.051 	"/>
	<polygon id="qbb-7" opacity="0.7" fill="#494949" stroke="#212121" stroke-miterlimit="10" enable-background="new    " points="
		1240.136,378.996 1253.939,274.965 1240.309,253.051 1210.689,272.629 1218.395,284.627 1205.626,355.371 1239.643,379.163 	"/>
	<polygon id="qbb-8" opacity="0.7" fill="#494949" stroke="#212121" stroke-miterlimit="10" enable-background="new    " points="
		1205.626,355.371 1205.626,355.373 1186.646,376.079 1165.901,382.917 1173.223,401.553 1239.643,379.163 	"/>
	<polygon id="qbb-12" opacity="0.7" fill="#494949" stroke="#212121" stroke-miterlimit="10" enable-background="new    " points="
		907.838,467.977 914.741,488.688 979.918,466.717 973.521,446.327 	"/>
	<polygon id="qbb-11" opacity="0.7" fill="#494949" stroke="#212121" stroke-miterlimit="10" enable-background="new    " points="
		973.521,446.327 979.918,466.717 1050.152,443.041 1044.314,422.993 	"/>
	<polygon id="qbb-10" opacity="0.7" fill="#494949" stroke="#212121" stroke-miterlimit="10" enable-background="new    " points="
		1108.801,401.737 1044.314,422.993 1050.152,443.041 1114.08,421.491 	"/>
	<polygon id="qbb-13" opacity="0.7" fill="#494949" stroke="#212121" stroke-miterlimit="10" enable-background="new    " points="
		837.296,491.229 844.42,512.394 914.741,488.688 907.838,467.977 	"/>
	<polygon id="qbb-9" opacity="0.7" fill="#494949" stroke="#212121" stroke-miterlimit="10" enable-background="new    " points="
		1165.901,382.917 1108.801,401.737 1114.08,421.491 1173.223,401.553 	"/>
	<path id="qbb-22" opacity="0.7" fill="#494949" stroke="#212121" stroke-miterlimit="10" enable-background="new    " d="
		M912.98,443.041h23.121c0,0,16.564-13.816,18.29-16.577c1.727-2.761,3.474-11.504-10.515-10.756
		c-13.987,0.749-30.896,18.003-30.896,18.003S910.91,440.982,912.98,443.041z"/>
	<path id="qbb-21" opacity="0.7" fill="#494949" stroke="#212121" stroke-miterlimit="10" enable-background="new    " d="
		M967.507,399.16c0,0,23.467-32.743,37.961-9.276c11.043,20.016-25.562,28.988-25.55,27.608c0,0-9.306,0.69-14.137-9.318
		C964.377,400.531,967.507,399.16,967.507,399.16z"/>
	<path id="qbb-20" opacity="0.7" fill="#494949" stroke="#212121" stroke-miterlimit="10" enable-background="new    " d="
		M1024.104,357.789c0,0,17.256-1.381,23.468,18.29c6.211,19.671-5.522,28.644-6.559,28.644s-11.732,0.263-16.909-5.563
		C1018.927,393.334,1003.396,366.761,1024.104,357.789z"/>
	<path id="qbb-19" opacity="0.7" fill="#494949" stroke="#212121" stroke-miterlimit="10" enable-background="new    " d="
		M1062.409,375.389c0,0-2.416-15.357,10.008-22.345c12.424-6.988,21.741,9.271,22.776,12.703
		c1.035,3.431-1.562,15.664-16.486,15.667C1062.221,381.416,1062.409,375.389,1062.409,375.389z"/>
	<polygon id="qbb-14" opacity="0.7" fill="#494949" stroke="#212121" stroke-miterlimit="10" enable-background="new    " points="
		1024.091,234.692 1072.417,200.423 1125.48,280.832 1105.892,294.804 1065.17,232.863 1038.193,254.106 	"/>
	<polygon id="qbb-15" opacity="0.7" fill="#494949" stroke="#212121" stroke-miterlimit="10" enable-background="new    " points="
		1078.807,195.937 1125.48,164.171 1147.648,202.149 1104.855,233.208 	"/>
	<polygon id="qbb-16" opacity="0.7" fill="#494949" stroke="#212121" stroke-miterlimit="10" enable-background="new    " points="
		1111.413,247.614 1156.967,216.643 1175.602,245.977 1131.084,276.69 	"/>
	<polygon id="qbb-17" opacity="0.7" fill="#494949" stroke="#212121" stroke-miterlimit="10" enable-background="new    " points="
		1138.331,287.733 1165.901,326.385 1179.053,319.336 1186.99,263.577 1183.194,257.365 	"/>
	<polygon id="qbb-18" opacity="0.7" fill="#494949" stroke="#212121" stroke-miterlimit="10" enable-background="new    " points="
		1109.343,307.059 1130.395,291.875 1155.285,332.588 1136.305,347.091 	"/>
	<polygon id="qbc-1" opacity="0.7" fill="#494949" stroke="#212121" stroke-miterlimit="10" enable-background="new    " points="
		670.034,621.902 643.346,531.26 610.186,541.208 633.874,632.112 670.118,622.035 	"/>
	<polygon id="qbc-2" opacity="0.7" fill="#494949" stroke="#212121" stroke-miterlimit="10" enable-background="new    " points="
		710.473,685.777 670.118,622.035 633.874,632.112 651.737,700.667 	"/>
	<polygon id="qbb-3" opacity="0.7" fill="#494949" stroke="#212121" stroke-miterlimit="10" enable-background="new    " points="
		1155.285,186.329 1125.563,140.031 1101.88,105.266 1134.305,82.629 1185.024,164.171 	"/>
</g>
<g id="Signs">
	<g id="escalator">
		<rect id="_escalator-1" x="387.156" y="515.553" width="45" height="45"/>
		<rect id="_escalator-2" x="764.405" y="491.672" width="44.999" height="45"/>
		<rect id="_escalator-3" x="1050.905" y="254.191" width="44.999" height="45"/>
	</g>
	<g id="toilet">
		<rect id="toilet-1" x="574.891" y="455.32" width="45" height="45"/>
		<rect id="toilet-2" x="1004.136" y="250.128" width="44.999" height="45"/>
	</g>
	<g id="lift">
		<rect id="lift-1" x="706.913" y="632.112" width="44.999" height="45"/>
		<rect id="lift-2" x="966.865" y="624.551" width="44.999" height="45"/>
		<rect id="lift-3" x="579.032" y="477.82" width="45" height="45"/>
		<rect id="lift-4" x="773.999" y="349.184" width="44.999" height="45"/>
		<rect id="lift-5" x="1030.126" y="270.755" width="44.999" height="45"/>
	</g>
	<g id="parking">
		<rect id="parking-1" x="409.656" y="624.551" width="45" height="45"/>
		<rect id="parking-2" x="966.864" y="689.042" width="45" height="45"/>
	</g>
	<g id="driver-waiting-room">
		<rect id="driver-waiting-room-1" x="423.975" y="508.76" width="45" height="45"/>
		<rect id="driver-waiting-room-2" x="963.981" y="603.051" width="45" height="45"/>
	</g>
</g>
<g id="entrance">
	<rect id="entrance-2" x="569.5" y="508.76" width="45" height="45"/>
	<rect id="entrance-1" x="345.5" y="526.82" width="45" height="45"/>
</g>
</svg>
