<?xml version="1.0" encoding="utf-8"?>
<!-- Generator: Adobe Illustrator 16.0.0, SVG Export Plug-In . SVG Version: 6.00 Build 0)  -->
<!DOCTYPE svg PUBLIC "-//W3C//DTD SVG 1.1//EN" "http://www.w3.org/Graphics/SVG/1.1/DTD/svg11.dtd">
<svg version="1.1" id="Layer_1" xmlns="http://www.w3.org/2000/svg" xmlns:xlink="http://www.w3.org/1999/xlink" x="0px" y="0px"
	 width="1000px" height="1000px" viewBox="0 0 1000 1000" enable-background="new 0 0 1000 1000" xml:space="preserve">
<g id="background">
</g>
<g id="etc">
	<path fill="#BFBFBF" stroke="#494949" stroke-miterlimit="10" d="M877.504,454.26c0,0,34.38-89.686,38.116-100.896
		c3.737-11.211,0-17.19,0-17.19l-73.243-105.755L473.468,491.555l0,0l-41.555,13.079l6.802,25.112l-4.335,1.42l6.577,21.524
		l11.733,2.616l20.18,53.886c0,0,15.919,56.503,15.77,73.468c-0.149,10.613,0.897,67.639,0.897,67.639l48.654,0.225l22.795-26.159
		l-3.736-13.826l10.463-3.363l80.718-4.858l20.179,34.007c7.848,21.674,33.633,24.663,33.633,24.663s97.907,1.869,116.218,0
		c18.312-1.868,20.554-17.189,20.554-17.189s9.342-52.69,11.584-66.518c2.242-13.826,15.695-17.563,15.695-17.563l34.753-8.969
		c0,0,14.2-1.494,13.079-17.563c2.242-26.158-18.684-92.302-26.531-105.381c-4.111-8.969-17.563-4.858-17.563-4.858l-56.802,17.938
		l-39.237-45.591c0,0,84.454-25.784,93.423-29.147S877.504,454.26,877.504,454.26z M788.49,547.684l-159.716,56.801
		c0,0-21.076,10.463-13.977,37.369c3.289,10.986,10.688,21.898,10.688,21.898l-2.467,3.214
		c-2.989,1.121-60.763,11.958-60.763,11.958s-6.876,0.972-8.744-1.271s-6.727-7.474-6.727-7.474l11.435-7.698l-12.93-20.927
		l-11.958,6.727l-20.179-65.022l235.725-81.614L788.49,547.684z"/>
	<path fill="#878787" stroke="#494949" stroke-miterlimit="10" d="M116.069,619.282L116.069,619.282l2.018,7.773l320.628-97.31
		l-6.802-25.112l0,0l0,0l41.555-13.079c-2.167-3.289-32.062-48.954-44.319-61.51c-12.706-13.079-45.217-9.342-45.217-9.342
		s-278.251,81.016-282.437,84.305c-8.371,6.502-26.382,26.383-25.934,51.793c0.448,25.411,25.934,42.377,25.934,42.377
		s-1.271,6.502-5.007,12.107c-3.064,4.56-0.523,11.959,0.598,13.827L116.069,619.282L116.069,619.282z"/>
	<path fill="#878787" stroke="#494949" stroke-miterlimit="10" d="M724.738,638.49c0,0-1.494-3.737,4.858-5.979
		c6.353-2.241,45.217-15.321,45.217-15.321h20.553l9.716,21.301l-17.563,16.068h-62.93L724.738,638.49z"/>
	<path fill="#878787" stroke="#494949" stroke-miterlimit="10" d="M539.761,545.067l2.989,28.177l50.374-17.489l-12.183-20.03
		c0,0-1.868-3.363-4.11-3.363S539.761,545.067,539.761,545.067z"/>
	<path id="_x3C_Path_x3E_" fill="#878787" stroke="#494949" stroke-miterlimit="10" d="M511.062,578.476
		c-4.634-2.093-8.222,0.149-8.222,0.149l-15.845,13.752c-2.765,5.456-0.972,8.744-0.972,8.744s1.196,4.858,2.99,11.734
		l30.194-10.314C514.947,589.985,512.556,579.148,511.062,578.476z"/>
	<polygon fill="#878787" stroke="#494949" stroke-miterlimit="10" points="762.855,360.015 792.451,340.209 826.383,389.91 
		787.893,418.685 781.539,410.09 790.957,402.99 	"/>
	<polygon fill="#878787" stroke="#494949" stroke-miterlimit="10" points="617.488,444.918 641.031,481.166 672.87,459.118 
		648.505,422.795 	"/>
	<path fill="#BFBFBF" stroke="#494949" stroke-miterlimit="10" d="M557.25,710.613l10.463-3.363l80.718-4.858l-22.944-38.49
		l-2.393,3.139c-2.989,1.121-60.762,11.958-60.762,11.958s-4.933,0.748-7.549-0.448l-1.794,21.002l4.335,11.285L557.25,710.613z"/>
	<path fill="#BFBFBF" stroke="#494949" stroke-miterlimit="10" d="M773.991,495.366c0,0,3.288-0.972,8.595-2.616l0,0l-33.558,9.118
		l39.462,45.89l24.439-7.1L773.991,495.366z"/>
	<path id="q-space-2f" fill="#878787" stroke="#494949" stroke-miterlimit="10" d="M488.864,612.855
		c4.708,18.012,11.958,50.821,13.976,52.242c4.111,2.989,8.595,2.241,11.211-0.748l19.059-16.891
		c-6.577-21.301-7.175-23.692-14.051-44.693L488.864,612.855z"/>
	<path fill="#878787" d="M323.394,662.78l28.774-10.837c0,0,6.353-4.11,10.837,1.868c4.484,5.979,14.2,35.127,14.2,35.127
		s0,2.989-4.111,4.484c-4.11,1.495-39.611,9.716-39.611,9.716s-8.968,0.374-10.089-5.231S323.394,662.78,323.394,662.78z"/>
	<polygon id="q2b-3" fill="#878787" stroke="#494949" stroke-miterlimit="10" points="469.208,552.093 479.671,571.749 
		498.879,557.474 483.333,535.725 	"/>
</g>
<g id="rooms">
	<polygon id="q2c-1" fill="#494949" stroke="#212121" stroke-miterlimit="10" points="462.93,582.735 452.69,555.307 
		441.031,552.69 434.38,531.166 383.034,546.562 395.067,600.523 	"/>
	<polygon id="q2c-3" fill="#494949" stroke="#212121" stroke-miterlimit="10" points="414.947,750.822 489.687,750.374 
		489.163,683.707 414.947,697.982 	"/>
	<path id="qurator" fill="#494949" stroke="#212121" stroke-miterlimit="10" d="M482.586,646.712
		c-0.225-0.599-9.492-37.146-9.492-37.146l-10.164-26.905l-67.862,17.787l-12.033-53.736l-264.798,80.194l-2.167-7.698
		l-18.759,5.904c0.224,0.373,0.224,0.224,0.224,0.224l60.688,127.43l256.726-2.019v-52.914l74.066-14.275
		C488.938,683.707,485.202,654.484,482.586,646.712z M373.094,693.423c-4.11,1.495-39.611,9.716-39.611,9.716
		s-8.968,0.374-10.089-5.231s0-35.127,0-35.127l28.774-10.837c0,0,6.353-4.11,10.837,1.868c4.484,5.979,14.2,35.127,14.2,35.127
		S377.205,691.928,373.094,693.423z"/>
	<polygon id="q2c-2" fill="#494949" stroke="#212121" stroke-miterlimit="10" points="489.163,683.482 512.107,699.327 
		552.915,699.552 561.659,723.991 538.49,750.149 489.687,750.374 	"/>
	<polygon id="q2b-6" fill="#494949" stroke="#212121" stroke-miterlimit="10" points="622.795,505.83 639.163,501.121 
		611.734,455.381 597.234,465.471 	"/>
	<polygon id="q2b-5" fill="#494949" stroke="#212121" stroke-miterlimit="10" points="473.468,491.555 476.457,500 484.529,497.085 
		516.816,542.451 527.803,533.632 622.721,505.68 597.31,465.62 611.584,455.53 608.969,450.896 609.043,450.896 584.38,413.378 	
		"/>
	<polygon id="q2b-7" fill="#494949" stroke="#212121" stroke-miterlimit="10" points="641.106,481.315 650.972,495.665 
		677.056,477.578 667.265,463.229 	"/>
	<polygon id="scarlet-platinum-lounge" fill="#494949" stroke="#212121" stroke-miterlimit="10" points="660.314,414.051 
		688.715,393.872 664.574,356.502 584.38,413.378 609.043,450.896 648.58,422.496 673.02,459.118 667.265,463.229 677.056,477.578 
		693.797,465.62 684.305,450.972 	"/>
	<polygon id="q2b-2b" fill="#494949" stroke="#212121" stroke-miterlimit="10" points="625.785,544.843 619.806,525.411 
		653.214,512.481 659.118,532.735 	"/>
	<polygon id="q2b-2a" fill="#494949" stroke="#212121" stroke-miterlimit="10" points="659.118,532.735 653.214,512.481 
		729.447,460.613 749.402,502.018 	"/>
	<path id="q2b-1" fill="#494949" stroke="#212121" stroke-miterlimit="10" d="M751.346,446.712l22.646,48.729l89.462-27.803
		c0,0,8.969-1.495,12.705-8.969c3.737-7.474,39.388-106.129,39.388-106.129s3.736-8.969,0.522-14.424
		c-4.035-6.801-73.468-107.848-73.468-107.848L664.574,356.502l24.141,37.369l66.144-46.338l4.035,6.278l44.171-30.194
		l50.972,76.458l-52.841,37.593l-25.187-8.445L751.346,446.712z"/>
	<path id="q2a-12" fill="#494949" stroke="#212121" stroke-miterlimit="10" d="M718.909,572.048l13.229,42.825l0.299-0.299
		l30.568-10.389l-13.752-42.676C740.284,564.648,729.82,568.236,718.909,572.048z"/>
	<path id="q2a-13" fill="#494949" stroke="#212121" stroke-miterlimit="10" d="M796.712,571.002l-11.734,3.213l-6.727-22.646
		c0,0-11.884,4.036-28.998,9.94l13.752,42.676l39.686-13.528L796.712,571.002z"/>
	<path id="q2a-10" fill="#494949" stroke="#212121" stroke-miterlimit="10" d="M647.085,597.608l9.716,30.941l17.19-6.651
		l12.032,38.564l14.799-14.573l-19.656-60.538C668.236,589.836,656.353,594.17,647.085,597.608z"/>
	<path id="q2a-11" fill="#494949" stroke="#212121" stroke-miterlimit="10" d="M718.909,572.048
		c-12.481,4.335-25.561,8.894-37.818,13.229l19.656,60.538l31.391-30.941L718.909,572.048z"/>
	<polygon id="q2a-9" fill="#494949" stroke="#212121" stroke-miterlimit="10" points="656.801,628.476 670.18,671.076 
		678.102,668.161 685.949,660.463 673.991,621.823 	"/>
	<path id="q2a-8" fill="#494949" stroke="#212121" stroke-miterlimit="10" d="M656.801,628.476l-9.716-30.942
		c-10.164,3.812-17.189,6.577-18.759,7.549c-22.197,13.229-12.258,41.405-12.258,41.405l21.45,36.397l32.661-11.809L656.801,628.476
		L656.801,628.476z"/>
	
		<rect id="q2c-5" x="283.109" y="682.885" fill="#494949" stroke="#212121" stroke-miterlimit="10" width="36.621" height="15.098"/>
	<polygon id="q2c-6" fill="#494949" stroke="#212121" stroke-miterlimit="10" points="395.067,600.523 337.22,615.546 
		326.607,563.901 383.034,546.562 	"/>
	<polygon id="q2c-7" fill="#494949" stroke="#212121" stroke-miterlimit="10" points="340.957,634.753 399.775,620.329 
		395.067,600.523 337.22,615.546 	"/>
	
		<rect id="q2c-8" x="445.602" y="615.034" transform="matrix(-0.9728 0.2318 -0.2318 -0.9728 1048.1825 1141.9563)" fill="#494949" stroke="#212121" stroke-miterlimit="10" width="22.796" height="35.053"/>
	<polygon id="q2a-6" fill="#494949" stroke="#212121" stroke-miterlimit="10" points="771.076,682.885 781.24,714.499 
		800.299,708.221 790.508,676.009 	"/>
	<polygon id="q2a-5" fill="#494949" stroke="#212121" stroke-miterlimit="10" points="820.403,693.423 810.015,659.791 
		790.732,675.859 790.508,676.009 800.299,708.221 822.87,700.822 825.336,707.025 846.487,701.271 849.402,684.828 	"/>
	<path id="q2a-4" fill="#494949" stroke="#212121" stroke-miterlimit="10" d="M866.293,659.791l-2.84-12.93l-38.416-3.812
		l-0.896,4.857l-14.126,11.809l10.389,33.633l28.924-8.596l1.42-9.566c0,0,1.943-5.605,5.904-9.716
		C860.164,662.107,865.695,660.015,866.293,659.791z"/>
	<path id="q2a-3" fill="#494949" stroke="#212121" stroke-miterlimit="10" d="M909.417,594.47l-80.119,25.561l-4.261,23.02
		l38.416,3.812l0,0l0,0l2.84,12.93c12.258-3.363,34.081-8.819,34.081-8.819s10.463-0.747,13.677-12.481
		c0.225-9.566,0-16.891-0.972-24.514C912.107,606.95,910.613,600.822,909.417,594.47z"/>
	<path id="q2a-2" fill="#494949" stroke="#212121" stroke-miterlimit="10" d="M904.036,573.991l-79.447,26.084l4.709,19.506
		l-0.075,0.523l80.119-25.561C907.997,587.145,905.68,580.27,904.036,573.991z"/>
	<path id="q2a-7" fill="#494949" stroke="#212121" stroke-miterlimit="10" d="M663.977,728.55l12.182-7.1v-2.467l-15.471-24.439
		l3.737-2.989l97.683-6.203l12.706,40.358l-11.436,3.961l10.688,32.213l-71.15-0.822c0,0-18.834-1.645-29.522-15.92
		C673.394,745.441,663.977,728.55,663.977,728.55z"/>
	<polygon id="q2b-8" fill="#494949" stroke="#212121" stroke-miterlimit="10" points="707.175,435.276 686.099,404.708 
		673.543,413.901 694.096,443.797 684.305,450.972 693.722,465.62 716.442,449.104 716.518,449.028 	"/>
	<polygon id="q2b-9" fill="#494949" stroke="#212121" stroke-miterlimit="10" points="758.221,398.356 707.175,435.276 
		716.518,449.028 762.855,415.396 	"/>
	<path id="q2a-1" fill="#494949" stroke="#212121" stroke-miterlimit="10" d="M888.864,529.896c0,0-5.008-13.079-20.18-6.951
		c-11.211,4.484-56.801,18.162-56.801,18.162l0.522,8.445l12.183,50.522l79.447-26.083
		C896.936,546.487,888.864,529.896,888.864,529.896z"/>
	<polygon id="q2b-4" fill="#494949" stroke="#212121" stroke-miterlimit="10" points="476.457,500 485.426,533.109 483.333,535.725 
		498.879,557.474 516.816,542.451 484.529,497.085 	"/>
	
		<rect id="q2b-11" x="808.143" y="332.613" transform="matrix(-0.8172 0.5763 -0.5763 -0.8172 1685.9617 190.7158)" fill="#494949" stroke="#212121" stroke-miterlimit="10" width="9.193" height="60.162"/>
	<path id="q2b-12" fill="#494949" stroke="#212121" stroke-miterlimit="10" d="M542.676,573.244l-2.018-19.507
		c0,0-39.985,9.268-38.416,12.107s8.819,12.631,8.819,12.631l2.167,4.857L542.676,573.244z"/>
	<polygon id="q2c-4" fill="#494949" stroke="#212121" stroke-miterlimit="10" points="130.344,695.067 201.271,717.265 
		201.271,752.541 158.221,752.84 	"/>
</g>
<g id="signs">
	<rect id="parking" x="239.91" y="508.969" width="33.632" height="33.632"/>
	<g id="escalator">
		<rect id="escalator-1" x="329.597" y="661.435" width="33.632" height="33.633"/>
		<rect id="escalator-2" x="544.843" y="534.38" width="33.633" height="33.632"/>
		<rect id="escalator-3" x="746.637" y="633.034" width="33.633" height="33.633"/>
		<rect id="escalator-4" x="781.764" y="359.492" width="33.633" height="33.632"/>
	</g>
	<g id="lift">
		<rect id="lift-1" x="432.735" y="515.695" width="33.633" height="33.632"/>
		<rect id="lift-2" x="760.837" y="378.924" width="33.633" height="33.632"/>
		<rect id="lift-3" x="529.148" y="639.761" width="33.632" height="33.633"/>
		<rect id="lift-4" x="757.848" y="722.721" width="33.632" height="33.632"/>
		<rect id="lift-5" x="738.416" y="611.36" width="33.632" height="33.632"/>
		<rect id="lift-6" x="623.318" y="452.915" width="33.633" height="33.632"/>
	</g>
	<rect id="stairs" x="409.566" y="524.664" width="33.633" height="33.632"/>
	<g id="toilet">
		<rect id="toilet-1" x="436.473" y="491.778" width="33.632" height="33.633"/>
		<rect id="toilet-2" x="795.217" y="711.51" width="33.632" height="33.632"/>
		<rect id="toilet-3" x="743.647" y="361.734" width="33.632" height="33.632"/>
	</g>
	<rect id="information" x="105.381" y="630.792" width="33.632" height="33.633"/>
	<rect id="entrance" x="392.75" y="524.664" width="33.633" height="33.632"/>
	<polygon id="breastfeeding-room" fill="#878787" stroke="#494949" stroke-miterlimit="10" points="660.09,414.051 684.081,450.822 
		694.096,443.797 673.543,413.901 686.099,404.708 707.175,435.276 758.221,398.356 743.049,375.411 763.229,360.688 
		754.858,347.534 	"/>
</g>
</svg>
