<?xml version="1.0" encoding="utf-8"?>
<!-- Generator: Adobe Illustrator 16.0.0, SVG Export Plug-In . SVG Version: 6.00 Build 0)  -->
<!DOCTYPE svg PUBLIC "-//W3C//DTD SVG 1.1//EN" "http://www.w3.org/Graphics/SVG/1.1/DTD/svg11.dtd">
<svg version="1.1" id="Layer_1" xmlns="http://www.w3.org/2000/svg" xmlns:xlink="http://www.w3.org/1999/xlink" x="0px" y="0px"
	 width="1338px" height="892px" viewBox="0 0 1338 892" enable-background="new 0 0 1338 892" xml:space="preserve">
<g id="background">
</g>
<g id="etc">
	<path fill="#BFBFBF" stroke="#494949" stroke-miterlimit="10" d="M1221.721,577.512l-16.563-5.521l-12.884-40.492l13.805-17.485
		c0,0-0.139-11.459-9.203-27.606c-10.123-18.03-31.75-9.057-31.288-9.203l-75.462,22.086c0,0-4.717-83.629,0.805-81.214
		c5.521,2.416,15.187,0.345,15.187,0.345l63.151-22.086l12.078-19.326c0,0,38.308-103.875,45.898-124.581
		c7.592-20.706-3.106-30.714-3.106-30.714l-92.831-139.766L642.27,429.114l-5.839,4.146l-38.385,11.991l-11.247,4.104l10.341,36.194
		L160.858,612.493l-3.129-10.017l-24.759,8.932c0.046,0.097,0.074,0.15,0.074,0.15l77.304,170.249c0,0,526.392-0.921,532.833-2.761
		c6.442-1.841,8.283-10.123,8.283-10.123l13.806-49.694l103.068-6.44c0,0,30.082,55.091,36.812,62.578
		c12.884,21.167,43.252,16.563,43.252,16.563s121.476,5.521,149.084,3.684c27.605-1.841,26.687-23.007,26.687-23.007
		s14.728-65.341,16.565-89.268c1.84-23.927,25.768-23.926,25.768-23.926s24.849-2.761,37.729-5.521
		c12.885-2.761,25.729-16.563,25.729-16.563L1221.721,577.512z M1065.045,508.002l-17.734,4.632L824,594
		c-10.667,10-6.162,24.626-6.162,24.626L853.334,684l-105.828,6.345L740,678l15.75-11L737,637.95l-15.5,11.3L692,554.002
		c0,0,155.252-51.372,206.5-69.002c42.013-14.453,166.545-59.333,166.545-59.333V508.002z"/>
	<path fill="#BFBFBF" stroke="#494949" stroke-miterlimit="10" d="M1205.155,571.99l-12.884-40.492l13.805-17.485
		c0,0-0.471-11.274-9.203-27.606c-9.373-17.53-31.288-9.203-31.288-9.203l-47.45,13.888l-53.09,16.214v0.698l-15.774,4.121
		l-4.147,1.309L824,594c-10.667,10-6.162,24.626-6.162,24.626L853.334,684l-1.332,0.08l15.818,28.742l0.518-0.032
		c0,0,30.082,55.091,36.812,62.578c12.884,21.167,43.252,16.563,43.252,16.563s121.476,5.521,149.084,3.684
		c27.605-1.84,26.687-23.007,26.687-23.007s14.727-65.34,16.565-89.268c1.84-23.927,25.768-23.926,25.768-23.926
		s24.848-2.761,37.729-5.521c12.885-2.761,25.729-16.563,25.729-16.563l-8.243-59.816L1205.155,571.99z"/>
	<path fill="#878787" stroke="#494949" stroke-miterlimit="10" d="M157.729,602.478L157.729,602.478l3.129,10.017L597.141,485.55
		L586.8,449.354l0,0l0,0l11.247-4.104l-0.957,0.299c24.157-39.208-2.07-82.69-26.228-98.564
		c-20.706-14.494-53.146-6.212-53.146-6.212L144.318,450.515c0,0-42.102,17.257-40.032,64.188
		c2.071,46.934,33.82,62.809,33.82,62.809s-1.382,8.281-6.904,13.805c-5.196,5.194,1.016,18.536,1.767,20.093L157.729,602.478
		L157.729,602.478z"/>
	<path fill="#878787" stroke="#494949" stroke-miterlimit="10" d="M443.175,653.434l43.482-15.875c0,0,4.832-2.069,9.663,3.451
		c4.831,5.522,16.563,41.412,16.563,41.412s3.451,8.974-5.521,12.424c-8.975,3.451-60.047,13.114-60.047,13.114L443.175,653.434z"/>
	<path fill="#878787" stroke="#494949" stroke-miterlimit="10" d="M530.601,664.016c0,0,2.303,18.405,7.362,19.326
		c5.063,0.921,59.357-16.563,59.357-16.563l20.246-13.346l4.602-13.344c0,0-4.142-8.282-5.063-8.282s-45.554,8.282-45.554,8.282
		L530.601,664.016z"/>
	<path fill="#878787" stroke="#494949" stroke-miterlimit="10" d="M949.32,657.592l41.412-40.511l52.455-17.485
		c0,0,10.123-4.601,16.563,5.521s8.282,22.955,8.282,22.955l-73.621,48.826h-50.615L949.32,657.592z"/>
	<polygon fill="#878787" stroke="#494949" stroke-miterlimit="10" points="1023.861,258.175 1061.592,228.727 1110.366,295.906 
		1058.83,334.557 1050.548,322.594 1062.512,311.551 	"/>
	<polygon fill="#BFBFBF" stroke="#494949" stroke-miterlimit="10" points="853.115,686.103 851.693,684.099 747.506,690.345 
		765.057,719.991 765.268,719.231 868.297,712.792 	"/>
	<polygon fill="#BFBFBF" stroke="#494949" stroke-miterlimit="10" points="1090.123,499.289 1090.2,418.311 1065.045,426.442 
		1065.045,507.44 1094.876,497.898 	"/>
	<polygon fill="#878787" stroke="#494949" stroke-miterlimit="10" points="1008.91,240.946 1008.91,240.946 977.837,191.168 
		781.806,330.057 832.426,404.512 860.746,384.255 878.001,408.413 875.931,409.99 1017.425,308.922 997.405,276.584 
		1025.704,257.949 1014.66,240.004 1014.786,239.946 	"/>
</g>
<g id="rooms">
	<polygon id="q-stadium-1f" fill="#494949" stroke="#212121" stroke-miterlimit="10" points="387.959,719.233 344.679,559.007 
		160.858,612.493 157.729,602.478 133.043,611.561 210.922,783.881 386.342,782.775 388.089,719.221 	"/>
	<polygon id="q1c-6" fill="#494949" stroke="#212121" stroke-miterlimit="10" points="437.654,714.631 388.089,719.221 
		386.342,782.775 487.282,782.14 486.415,723.831 	"/>
	<polygon id="q1c-5" fill="#494949" stroke="#212121" stroke-miterlimit="10" points="537.043,707.959 486.428,723.834 
		486.415,723.831 487.282,782.14 539.803,781.81 	"/>
	<polygon id="q1c-7" fill="#494949" stroke="#212121" stroke-miterlimit="10" points="422.225,536.444 431.209,569.228 
		372.313,589.473 388.089,652.972 458.988,630.079 433.571,533.143 	"/>
	<polygon id="q1c-8" fill="#494949" stroke="#212121" stroke-miterlimit="10" points="480.621,565.604 480.621,565.604 
		480.621,565.604 468.869,522.873 433.571,533.143 458.988,630.079 486.415,621.223 515.821,621.223 500.197,559.672 	"/>
	<polygon id="q1c-9" fill="#494949" stroke="#212121" stroke-miterlimit="10" points="468.869,522.873 480.621,565.604 
		500.197,559.672 502.07,559.104 500.197,559.672 515.821,621.223 564.649,621.223 572.565,618.626 539.25,502.394 	"/>
	<polygon id="q1c-10" fill="#494949" stroke="#212121" stroke-miterlimit="10" points="625.386,559.007 610.662,517.692 
		596.857,517.692 593.177,504.809 562.808,514.932 557.286,497.146 539.25,502.394 572.565,618.626 622.167,602.357 	"/>
	<polygon id="q1c-4" fill="#494949" stroke="#212121" stroke-miterlimit="10" points="548.316,704.508 548.086,760.186 
		589.268,760.186 589.268,690.475 	"/>
	<polygon id="q1c-3" fill="#494949" stroke="#212121" stroke-miterlimit="10" points="630.22,676.44 589.268,690.475 
		589.268,760.186 589.268,761.335 589.268,780.646 689.577,780.505 689.577,695.28 	"/>
	<polygon id="q1c-2" fill="#494949" stroke="#212121" stroke-miterlimit="10" points="689.577,695.28 689.577,780.505 
		711.434,780.474 711.434,702.217 	"/>
	<path id="q1c-1" fill="#494949" stroke="#212121" stroke-miterlimit="10" d="M711.434,702.217v78.256l31.061-0.043
		c4.141-0.688,7.543-8.179,7.543-8.179l15.002-53.021L711.434,702.217z"/>
	<path id="q1b-2" fill="#494949" stroke="#212121" stroke-miterlimit="10" d="M719.255,643.081l-22.086,29.488l-34.51-11.543
		l-8.975-30.947v-63.61c0,0-5.521-35.2-20.016-52.455l20.016-24.847l-17.255-55.906l145.375-103.203l50.621,74.455l56.728,83.688
		l-195.437,65.156c0,0-2.761-0.428,0,5.652C693.717,558.876,719.255,643.081,719.255,643.081z"/>
	<g id="q1b-1">
		<polygon fill="#494949" stroke="#212121" stroke-miterlimit="10" points="863.507,419.456 878.691,442.232 1033.296,332.491 
			1017.425,308.922 875.931,409.99 		"/>
		<polygon fill="#494949" stroke="#212121" stroke-miterlimit="10" points="904.554,482.905 883.867,451.55 1035.712,343.879 
			1065.045,425.667 		"/>
		<path fill="#494949" stroke="#212121" stroke-miterlimit="10" d="M1229.964,228.727l-97.97-146.779l-154.157,109.22l31.073,49.778
			l5.876-1l66.823-31.001l62.809,88.346l-2.07,18.635l-70.398,48.314l18.979,53.835l9.878,1.063l68.46-22.804l12.078-19.326
			l5.377-14.584c0,0,35.453-96.208,40.521-109.997C1232.311,238.638,1229.964,228.727,1229.964,228.727z"/>
	</g>
	<path id="q1a-6" fill="#494949" stroke="#212121" stroke-miterlimit="10" d="M870.393,576.51l29.632,94.143
		c10.671-3.665,18.932-6.635,18.932-6.635l26.201-26.066l-25.446-79.198L870.393,576.51z"/>
	<polygon id="q1a-7" fill="#494949" stroke="#212121" stroke-miterlimit="10" points="919.709,558.752 945.155,637.95 
		984.753,598.553 1032.804,582.228 1013.936,524.824 	"/>
	<polygon id="q1a-8" fill="#494949" stroke="#212121" stroke-miterlimit="10" points="1076.32,537.941 1058.375,544.383 
		1047.791,512.634 1013.936,524.824 1032.804,582.228 1084.604,564.629 	"/>
	<path id="q1a-5" fill="#494949" stroke="#212121" stroke-miterlimit="10" d="M824.165,593.155
		c-10.124,7.358-5.063,27.148-5.063,27.148s32.01,61.975,34.512,63.958c4.027,0.576,28.583-7.488,46.407-13.61l-29.631-94.143
		L824.165,593.155z"/>
	<path id="q1a-2" fill="#494949" stroke="#212121" stroke-miterlimit="10" d="M1101.949,631.284l-0.782,17.549l-38.651,30.829
		l15.187,49.694l59.262-19.643l4.935-32.817c0,0,3.779-15.089,20.625-17.07c16.844-1.984,41.714-5.936,41.714-5.936
		s2.633-0.292,6.229-1.583l-17.842-52.721L1101.949,631.284z"/>
	<path id="q1a-1" fill="#494949" stroke="#212121" stroke-miterlimit="10" d="M1221.721,577.512l-16.563-5.521l-12.884-40.492
		l13.805-17.485c0,0-1.685-8.288-2.438-10.9c-0.724-2.502-3.479-9.564-3.479-9.564s-6.49-24.547-31.67-17.073
		c-21.112,6.269-78.364,22.815-78.364,22.815v13.345l15.186,43.252l-3.357,75.398l90.672-31.695l0,0l0,0l17.842,52.722
		c6.271-2.253,15.479-7.559,18.846-19.738C1230.314,627.019,1221.721,577.512,1221.721,577.512z"/>
	<path id="q1a-4" fill="#494949" stroke="#212121" stroke-miterlimit="10" d="M1012.565,760.976L1012.565,760.976l-22.068-65.085
		l-94.78,3.558l-9.894,3.682l19.787,34.97l-16.566,11.595c0,0,0,0,13.573,22.302c13.574,22.302,28.32,19.479,28.32,19.479
		l116.373,4.021l-14.404-40.545L1012.565,760.976L1012.565,760.976z"/>
	<polygon id="q1a-3" fill="#494949" stroke="#212121" stroke-miterlimit="10" points="1068.035,743.16 1049.27,686.103 
		1018.342,694.846 990.497,695.89 1012.565,760.976 1032.906,754.95 1032.804,754.662 	"/>
</g>
<g id="signs">
	<g id="toilet">
		<rect id="toilet-1" x="593.879" y="437" width="45" height="45"/>
		<rect id="toilet-2" x="372.405" y="538.5" width="45" height="45"/>
		<rect id="toilet-3" x="1000.874" y="262.013" width="45" height="45"/>
		<rect id="toilet-4" x="1074.371" y="729.49" width="45" height="45"/>
	</g>
	<g id="lift">
		<rect id="lift-1" x="585.895" y="462.5" width="45" height="45"/>
		<rect id="lift-2" x="717.404" y="635.995" width="45" height="45"/>
		<rect id="lift-3" x="841.896" y="378.108" width="45" height="45"/>
		<rect id="lift-4" x="1021.374" y="282.513" width="45" height="45"/>
		<rect id="lift-5" x="992.875" y="595.496" width="45" height="45"/>
		<rect id="lift-6" x="1022.375" y="744.489" width="45" height="45"/>
	</g>
	<rect id="stairs" x="560.396" y="480" width="45" height="45"/>
	<rect id="parking" x="337.423" y="456.5" width="45" height="45"/>
	<g id="escalator">
		<rect id="escalator-1" x="449.447" y="649.994" width="45" height="45"/>
		<rect id="escalator-2" x="733.905" y="488" width="45" height="45"/>
		<rect id="escalator-3" x="1049.876" y="248.507" width="45" height="45"/>
		<rect id="escalator-4" x="978.374" y="632.995" width="45" height="45"/>
	</g>
	<rect id="entrance" x="332.948" y="535.386" width="45" height="45"/>
</g>
</svg>
