<?xml version="1.0" encoding="utf-8"?>
<!-- Generator: Adobe Illustrator 16.0.0, SVG Export Plug-In . SVG Version: 6.00 Build 0)  -->
<!DOCTYPE svg PUBLIC "-//W3C//DTD SVG 1.1//EN" "http://www.w3.org/Graphics/SVG/1.1/DTD/svg11.dtd">
<svg version="1.1" xmlns="http://www.w3.org/2000/svg" xmlns:xlink="http://www.w3.org/1999/xlink" x="0px" y="0px" width="1338px"
	 height="892px" viewBox="0 0 1338 892" enable-background="new 0 0 1338 892" xml:space="preserve">
<g id="background">
</g>
<g id="etc">
	<path fill="#BFBFBF" stroke="#494949" stroke-miterlimit="10" d="M1238.333,542.667c-6.333-13-41-72.667-41-72.667
		s-6.999-14.667-26.666-9.667c-22.667,6.667-99.334,31-99.334,31S861.667,567.667,860,570.667s-2.667-0.333-5.667,8.667
		c-4.333,11.333-19,60.667-19,60.667S832,651,840,659c9.667,15,20,28.667,20,28.667s10.999,9,23.333,7.667S907.667,694,907.667,694
		s12.526-1.641,11.02,17.368l56.029-53.813c-2.346-3.792-17.875-31.068,10.617-46.553c5.629-1.991,10.133-3.586,13.717-4.858
		l-0.05-0.142c0,0,27.67-9.658,0.05,0.142l5.617,15.858l47-17.333l-5.334-15l15.667-5.667c0,0,12.334-4.333,15.667,7.667s5,46,5,46
		s1.334,10.666-11,13.333S993,663.668,993,663.668s-8.321,1.257-15.095-3.24l-58.072,58.239L919,759.333c0,0,1.334,21.666,22.667,23
		c20,0,177.666-2,177.666-2s8.667,1.334,11.667-6.666S1167.666,658,1167.666,658s5.333-12.666,9-16.333s60.667-75.333,60.667-75.333
		S1244.666,555.667,1238.333,542.667z M1116,625.001c-6.333,8.333-8.999,5.667-10.333,5.333s-5.667-36-5.667-36
		s-0.334-7.333,6.333-6.667s11,13.333,11,13.333S1122.333,616.667,1116,625.001z"/>
	<polygon fill="#868686" stroke="#494949" stroke-miterlimit="10" points="935.5,702.75 930.75,722.5 920,722.25 919.75,718.75 	"/>
</g>
<g id="rooms">
	<path id="q7a-1" fill="#494949" stroke="#212121" stroke-miterlimit="10" d="M837.417,655.417c0.602,1.025,22,31.667,22,31.667
		s11.166,9.167,24,7.333c15.001-1.666,24.334-1.333,24.334-1.333s12.166-0.667,10.999,18.667l14.334-13.332
		c0,0-21.589-17.211-18.084-45.418l-64.918-2.021L837.417,655.417z"/>
	<path id="q7a-3" fill="#494949" stroke="#212121" stroke-miterlimit="10" d="M873.145,578.886L873.145,578.886l-4.208-13.434
		c-1.751,0.838-3.187,1.581-4.269,2.216c-10.667,4.667-11.333,12.667-11.333,12.667l-19.334,63.667c0,0-1.288,3.375,3.208,11.031
		l12.124-3.804l65.58,1.556c0.032-0.263,0.052-0.519,0.089-0.783c2.029-14.542,6.299-26.757,12.745-36.624L873.145,578.886
		L873.145,578.886z"/>
	<path id="q7a-6" fill="#494949" stroke="#212121" stroke-miterlimit="10" d="M971.256,526.698l19.438,53.389
		c37.183-13.086,84.974-30.086,84.974-30.086L1060,502.667l0.009-0.003l-2.217-5.986
		C1029.7,506.275,999.412,516.745,971.256,526.698z"/>
	<path id="q7a-7" fill="#494949" stroke="#212121" stroke-miterlimit="10" d="M1197.668,470.001c0,0-7.667-16.333-35.667-8.333
		c-12.257,3.958-54.838,18.139-104.209,35.009l2.217,5.986l17.657-6.33L1088,527l-8.334,3.333l6.336,17.668
		c0,0,21.617-0.9,41.782,9.69l17.435-25.954l72.896-25.319C1207.818,487.977,1197.668,470.001,1197.668,470.001z"/>
	<path id="q7a-8" fill="#494949" stroke="#212121" stroke-miterlimit="10" d="M1237.667,542
		c-3.494-6.697-11.566-21.279-19.552-35.581l-72.896,25.319l-17.435,25.954c9.882,5.19,19.415,13.14,25.884,25.309
		c0.135,0.254,0.261,0.509,0.392,0.763l86.031-30.726C1240.079,549.792,1239.449,546.06,1237.667,542z"/>
	<path id="q7a-12" fill="#494949" stroke="#212121" stroke-miterlimit="10" d="M1083.668,691.668l23.667,69.666h6.333
		l0.333,18.668l8.334-0.334c0,0,6.667-0.666,8-5.334c0.937-3.277,16.835-57.368,27.487-90.892l-17.977-17.653
		C1115.2,685.357,1083.668,691.668,1083.668,691.668z"/>
	<path id="q7a-11" fill="#494949" stroke="#212121" stroke-miterlimit="10" d="M1185.666,630.667
		c2.956-3.695,10.692-13.536,19.271-24.474l-43.647,3.163c2.03,27.413-12.912,51.236-21.288,56.313
		c-0.052,0.041-0.104,0.08-0.155,0.121l17.977,17.653c4.514-14.206,8.086-24.72,9.178-26.108
		C1172.057,648.002,1180.666,637,1185.666,630.667z"/>
	<path id="q7a-10" fill="#494949" stroke="#212121" stroke-miterlimit="10" d="M1240.091,553.039l-86.031,30.726
		c4.424,8.578,6.611,17.251,7.229,25.591l43.647-3.163c14.638-18.664,31.73-40.526,31.73-40.526S1240.12,560.721,1240.091,553.039z"
		/>
	<path id="q7a-5" fill="#494949" stroke="#212121" stroke-miterlimit="10" d="M868.937,565.452l4.208,13.434l54.602,36.492
		C938.25,602.5,973.25,588,990.694,580.087l-19.438-53.389C924.947,543.069,884.413,558.044,868.937,565.452z"/>
	<path id="q7a-2" fill="#494949" stroke="#212121" stroke-miterlimit="10" d="M944,687.667c0,0,19-18,30.333-30
		c-2.64-5.488-4.213-10.422-4.951-14.856l-29.927-17.769C919.184,660.194,944,687.667,944,687.667z"/>
	<path id="q7a-4" fill="#494949" stroke="#212121" stroke-miterlimit="10" d="M999.666,606.167L995.667,595c0,0-23,6-37,12.333
		c-14,8.333-14,12-19,17.333c-0.073,0.125-0.14,0.25-0.212,0.375l29.927,17.769C963,616.333,999.666,606.167,999.666,606.167z"/>
	<path id="q7a-15" fill="#494949" stroke="#212121" stroke-miterlimit="10" d="M989.333,664c-6.667,0-11.667-4-11.667-4L947,691.666
		c28.334,23.333,55,12.667,55,12.667s10.65-3.585,24.064-8.176l-12.082-35.333C1001.711,662.627,991.62,664,989.333,664z"/>
	<path id="q7a-14" fill="#494949" stroke="#212121" stroke-miterlimit="10" d="M1013.982,660.823l12.082,35.333
		c9.631-3.296,20.685-7.109,30.249-10.488l-10.178-29.736C1036.094,657.496,1024.271,659.311,1013.982,660.823z"/>
	<path id="q7a-13" fill="#494949" stroke="#212121" stroke-miterlimit="10" d="M1085.666,668.333c0,0-5.333-26.333-5.666-22.333
		s-11,6.333-11,6.333s-9.963,1.592-22.864,3.6l10.178,29.736c10.614-3.75,19.396-6.963,22.353-8.336
		C1087.999,673,1085.666,668.333,1085.666,668.333z"/>
	<path id="q7a-15" fill="#494949" stroke="#212121" stroke-miterlimit="10" d="M919.167,754.833L938,755l0.666-38l3.667-8.667
		c0,0,24.667,22.333,61,11.667c3,8,5.333,15,5.333,15l-26.333,9.667l13,38l-53,0.334C942.333,783,916.167,782.167,919.167,754.833z"
		/>
	<polygon id="q7a-14" fill="#494949" stroke="#212121" stroke-miterlimit="10" points="1013,717 1018,732 1039.666,725.333 
		1046,743 1061.79,737.258 1050.263,703.978 	"/>
	<polygon id="q7a-13" fill="#494949" stroke="#212121" stroke-miterlimit="10" points="1075,695.333 1050.263,703.978 
		1061.79,737.258 1086.333,728.333 	"/>
	<path id="q7a-9" fill="#494949" stroke="#212121" stroke-miterlimit="10" d="M1108.333,568.666c-9,3-11.333,17.333-11.333,17.333
		c11.667-1.667,16.333,7,17,8c0.295,0.443,1.179,1.738,2.187,3.821l19.079-14.707
		C1127.891,574.831,1115.15,566.394,1108.333,568.666z"/>
	<path id="q7a-12" fill="#494949" stroke="#212121" stroke-miterlimit="10" d="M1140.333,590.666c-0.89-2.264-2.705-4.9-5.067-7.552
		l-19.079,14.707c1.27,2.623,2.736,6.496,3.479,11.512c0,21.667-12.666,22.333-12.666,22.333l-3,1c0,0,2.333,8.667,7,21.333
		s14,6,15,4.667s11.333-10,18-26.667S1144,600,1140.333,590.666z"/>
</g>
<g id="signs">
	<g id="lift">
		<rect id="lift-1" x="1003.75" y="581.25" width="45" height="45"/>
		<rect id="lift-2" x="1037.416" y="732.583" width="45" height="45"/>
	</g>
	<rect id="escalator" x="1070.084" y="589.25" width="45" height="45"/>
	<rect id="toilet" x="997.417" y="735.25" width="45" height="45"/>
</g>
</svg>
