<?xml version="1.0" encoding="utf-8"?>
<!-- Generator: Adobe Illustrator 16.0.0, SVG Export Plug-In . SVG Version: 6.00 Build 0)  -->
<!DOCTYPE svg PUBLIC "-//W3C//DTD SVG 1.1//EN" "http://www.w3.org/Graphics/SVG/1.1/DTD/svg11.dtd">
<svg version="1.1" id="Layer_1" xmlns="http://www.w3.org/2000/svg" xmlns:xlink="http://www.w3.org/1999/xlink" x="0px" y="0px"
	 width="1338px" height="892px" viewBox="0 0 1338 892" enable-background="new 0 0 1338 892" xml:space="preserve">
<g id="background">
</g>
<g id="etc">
	<path fill="#868686" d="M191.5,450c-0.012-0.005-0.024-0.009-0.036-0.014C191.487,450.035,191.5,450.043,191.5,450z"/>
	<path id="etc-parking" fill="#868686" stroke="#494949" stroke-miterlimit="10" d="M671.431,723.667L620.75,543.125
		c0,0-31.757,12.017-38.5,9.25c-4.875-2-12.417-36.208-12.417-36.208l-11.431,0.979l-7.642-28.015l81.203-25.761l-12.17-16.734
		l14.118-11.263L592,373.5c0,0-23.5-33.5-41.5-32c-51-8.5-72,25-72,25l-3-12l-287,85c0,0,2.627,9.777,2.964,10.486
		c0.012,0.005,0.024,0.009,0.036,0.014c0,0.043-0.013,0.035-0.036-0.014c-18-7.31-45.465,0.68-45.465,0.68S102.666,468,101.333,514
		s34,66.667,34,66.667l-10,20L213,787.5l530-6l4.5-5V724L671.431,723.667z"/>
	<polygon fill="#BFBFBF" stroke="#494949" stroke-miterlimit="10" points="756,694.5 755.601,693.896 747.009,723.967 773.75,724 
		868.844,716.055 852.479,688.532 	"/>
	<path fill="#BFBFBF" stroke="#494949" stroke-miterlimit="10" d="M1225,627c-6-83.5-30.5-144-41.5-151s-22-2.5-22-2.5l-79,24.5
		l-0.375-0.642l-24.642,8.3L1058,506.5l-221.5,80c0,0-27,11.5-19.5,39.5c6.5,16,36,62.5,36,62.5l-0.521,0.032l16.365,27.521
		L869.5,716c0,0,21.5,38.5,33,57.5c13.5,18,39.5,19,39.5,19s143,3,158,1.5c21.5-5.5,20.5-19.5,20.5-19.5s13-79.5,18-97.5
		s21-18.5,21-18.5l50-6.5C1209.5,652,1228.5,644.5,1225,627z"/>
	<polygon fill="#BFBFBF" stroke="#494949" stroke-miterlimit="10" points="1046.005,435.508 1019.189,443.309 1057.483,505.658 
		1082.125,497.358 	"/>
	<path fill="#BFBFBF" stroke="#494949" stroke-miterlimit="10" d="M1220.5,223l-91-139.5L634,435.5l-0.086-0.127l-14.118,11.263
		l12.17,16.734l-81.203,26.095l7.737,27.703l11.333-1c0,0,6.5,30.833,11.833,35.833c4.622,4.333,39.167-9,39.167-9l50.542,180.875
		l75.634,0.092l8.592-30.072L739.5,669.5l6-5l-17-27l-15,10c0,0-6-8.5-6.5-13.5s-30-88-30-88l28-10.5l7,13L1019,443l0.189,0.309
		l26.813-7.801L1046,435.5c0,0,115.5-40,129-45.5c14.5-4,17.5-22.5,17.5-22.5s24.5-102,31.5-118.5S1220.5,223,1220.5,223z"/>
	<polygon fill="#868686" stroke="#494949" stroke-miterlimit="10" points="743,538.5 738,498.5 791,482 813,514.5 	"/>
	<polygon fill="#868686" stroke="#494949" stroke-miterlimit="10" points="1033,275.5 1077.5,244 1115,303.5 1068.5,340.5 
		1042.5,304 1049,299 	"/>
	<polygon fill="#868686" stroke="#494949" stroke-miterlimit="10" points="856,350.5 871.5,373.5 842,395.5 848,405.5 852.5,422.5 
		900,390.5 868,342.5 	"/>
	<polygon fill="#868686" stroke="#494949" stroke-miterlimit="10" points="881.5,331.5 915,381.5 988,329 954.5,279 	"/>
	<polygon fill="#BFBFBF" stroke="#494949" stroke-miterlimit="10" points="500,705 498.5,697.5 428.5,715.5 421,687.5 489,668.5 
		487.5,661.5 570,635 584.5,677.5 	"/>
	<path id="q-space-3f" fill="#868686" stroke="#494949" stroke-miterlimit="10" d="M985.875,620c0.331,0,4.75,14.875,4.75,14.875
		l48-16.75L1034,604l55.625-19.5c0,0,5.25-3.125,10.125-0.125s15,12.125,15,12.125l-17,28.875l-12.125-15.75l-59.25,46.625
		l13,15.875l-57.625,0.25c0,0-8.75,0.375-9.375-7.625c-0.148-1.9,0.729-11.884,0.75-19.875
		C973.166,630.761,973.108,623.967,985.875,620z"/>
</g>
<g id="rooms">
	<path id="q3c-1" fill="#494949" stroke="#212121" stroke-miterlimit="10" d="M656.5,528l-36.75,10.5l15.725,56.289l38.037-9.922
		C664.628,555.079,656.5,528,656.5,528z"/>
	<path id="q3c-2" fill="#494949" stroke="#212121" stroke-miterlimit="10" d="M733.25,723.75l-0.25-8c0,0-31.75-52-37-54
		c0.274-0.274-11.667-40.59-22.489-76.883l-38.037,9.922L671.5,723.75H733.25z"/>
	<polygon id="q3b-6" fill="#494949" stroke="#212121" stroke-miterlimit="10" points="638.75,473.75 647.25,511.75 677.558,503.619 
		659.295,458.341 	"/>
	<polygon id="q3b-7" fill="#494949" stroke="#212121" stroke-miterlimit="10" points="659.295,458.341 677.558,503.619 
		705.508,492.348 674.75,446.625 	"/>
	<polygon id="q3b-9" fill="#494949" stroke="#212121" stroke-miterlimit="10" points="838.5,410 817,378.25 837,363.5 804.75,314.5 
		703.135,386.713 760.74,470.353 847.75,442.5 	"/>
	<polygon id="q3b-8" fill="#494949" stroke="#212121" stroke-miterlimit="10" points="657,419.5 674.75,446.75 705.508,492.348 
		760.74,470.353 703.135,386.713 	"/>
	<polygon id="q3b-10" fill="#494949" stroke="#212121" stroke-miterlimit="10" points="952.314,354.67 914.739,382.255 
		914.739,382.255 914.739,382.255 881.639,332.006 881.639,332.006 881.639,332.006 918.848,305.089 886.266,256.82 804.75,314.5 
		837,363.5 867.5,341.5 900.25,391 852.75,422.5 857.25,439.5 885.25,430.5 965.535,374.256 	"/>
	<path id="q3b-1" fill="#494949" stroke="#212121" stroke-miterlimit="10" d="M1130.5,84L886.266,256.82l32.582,48.269
		l36.147-26.149l0,0l0,0l33.28,49.333l0,0l0,0l-35.961,26.398l13.221,19.586L1023,334l-45.5-69.75l31-23.25l5.75,8.75L1037.5,233
		l3.5,2.5l36.25-20.75l44.02,65.189l93.692-67.157C1195.083,180.977,1130.5,84,1130.5,84z"/>
	<polygon id="q3b-4" fill="#494949" stroke="#212121" stroke-miterlimit="10" points="1028.5,393.75 1037.5,423.75 1045.5,434.75 
		1098.05,416.603 1066.3,366.62 	"/>
	<polygon id="q3b-3" fill="#494949" stroke="#212121" stroke-miterlimit="10" points="1104.895,338.92 1066.3,366.62 
		1098.05,416.603 1146.308,399.937 	"/>
	<path id="q3b-2" fill="#494949" stroke="#212121" stroke-miterlimit="10" d="M1219.5,220.25c-0.983-1.715-2.537-4.265-4.538-7.467
		l-93.692,67.157l21.48,31.811l-37.855,27.17l41.414,61.017L1163.5,394c0,0,18-2.5,24-13.5s35.25-129.5,35.25-129.5
		S1230.25,239,1219.5,220.25z"/>
	<polygon id="q3b-5" fill="#494949" stroke="#212121" stroke-miterlimit="10" points="835.5,506.5 824.5,471.75 895.5,447.75 
		990.5,379.5 996.5,383.25 1009,431.25 1019.25,442.5 	"/>
	<path id="q3a-1" fill="#494949" stroke="#212121" stroke-miterlimit="10" d="M1198,497c-14.273-27.61-19-27.5-37-22.5
		s-77,23.75-77,23.75l17.999,57.435l103.979-36.489C1203.463,510.138,1200.786,502.389,1198,497z"/>
	<path id="q3a-2" fill="#494949" stroke="#212121" stroke-miterlimit="10" d="M1205.979,519.193L1102,555.684l4.251,13.565l31,24.5
		l-3.887,6.158l83.713-28.646C1214.009,553.499,1210.225,534.477,1205.979,519.193z"/>
	<polygon id="q3a-4" fill="#494949" stroke="#212121" stroke-miterlimit="10" points="1101.75,650 1056.25,681 1070.25,726 
		1102.25,714.75 1104.75,722.5 1122.566,717.172 1102.255,649.2 	"/>
	<path id="q3a-3" fill="#494949" stroke="#212121" stroke-miterlimit="10" d="M1217.076,571.265l-83.713,28.646l-31.108,49.292
		l20.313,67.972l8.934-2.672l6.5-37.5c0,0,3.25-17,19.75-18.25c10.5-1.5,49.25-6.75,49.25-6.75s18.5-0.75,18.25-25.5
		C1225.25,626.5,1222.141,600.594,1217.076,571.265z"/>
	<path id="q3a-7" fill="#494949" stroke="#212121" stroke-miterlimit="10" d="M894.25,699.5L886,706l19.25,31.75l-16.5,10.5
		c0,0,7.5,16.75,18.75,30.5S948.75,793,948.75,793l48.308,0.396L966.65,698.72L894.25,699.5z"/>
	<polygon id="q3a-6" fill="#494949" stroke="#212121" stroke-miterlimit="10" points="1028.5,755.25 1028.536,755.237 
		1010.565,698.137 1010.25,698.25 966.649,698.72 997.058,793.396 1040.5,793.75 	"/>
	<polygon id="q3a-5" fill="#494949" stroke="#212121" stroke-miterlimit="10" points="1045,685.75 1010.565,698.137 
		1028.536,755.237 1063.75,742.25 	"/>
	<path id="q3a-8-1" fill="#494949" stroke="#212121" stroke-miterlimit="10" d="M830.75,589c-24.25,18.5-12.584,40.75-12.584,40.75
		l34,58.5l46.75-11.75l6.249-5.78l-45.88-92.563C846.079,582.891,835.852,586.681,830.75,589z"/>
	<path id="q3a-8-2" fill="#494949" stroke="#212121" stroke-miterlimit="10" d="M913.75,558.75
		c-19.946,7.194-39.197,13.931-54.465,19.405l45.88,92.563L940,638.5L913.75,558.75z"/>
	<path id="q3a-9" fill="#494949" stroke="#212121" stroke-miterlimit="10" d="M914,558.75L940,638l39.75-38.75l0.169-0.059
		L962,541.5C946.356,547.018,929.85,553.034,914,558.75z"/>
	<path id="q3a-10" fill="#494949" stroke="#212121" stroke-miterlimit="10" d="M1071.75,551l-4.75-13.75l-17.25,6l-10.25-30
		c0,0-35.418,13.156-77.5,28l17.919,57.941l91.581-31.941L1071.75,551z"/>
</g>
<g id="signs">
	<rect id="parking" x="348" y="535" width="45" height="45"/>
	<g id="escalator">
		<rect id="escalator-1" x="485" y="654" width="45" height="45"/>
		<rect id="escalator-2" x="748" y="485" width="45" height="45"/>
		<rect id="escalator-3" x="1040" y="620" width="45" height="45"/>
		<rect id="escalator-4" x="1055" y="263" width="45" height="45"/>
	</g>
	<g id="lift">
		<rect id="lift-1" x="578" y="459" width="45" height="45"/>
		<rect id="lift-2" x="1011" y="269" width="45" height="45"/>
		<rect id="lift-3" x="988" y="597" width="45" height="45"/>
		<rect id="lift-4" x="707" y="632" width="45" height="45"/>
		<rect id="lift-5" x="834" y="342" width="45" height="45"/>
		<rect id="lift-6" x="1017" y="743" width="45" height="45"/>
	</g>
	<rect id="stairs" x="551" y="469" width="45" height="45"/>
	<g id="toilet">
		<rect id="toilet-1" x="982" y="247" width="45" height="45"/>
		<rect id="toilet-2" x="624" y="421" width="45" height="45"/>
		<rect id="toilet-3" x="1064" y="729" width="45" height="45"/>
	</g>
	<rect id="entrance" x="555.5" y="519" width="45" height="45"/>
</g>
</svg>
