<?xml version="1.0" encoding="utf-8"?>
<!-- Generator: Adobe Illustrator 16.0.0, SVG Export Plug-In . SVG Version: 6.00 Build 0)  -->
<!DOCTYPE svg PUBLIC "-//W3C//DTD SVG 1.1//EN" "http://www.w3.org/Graphics/SVG/1.1/DTD/svg11.dtd">
<svg version="1.1" id="Layer_1" xmlns="http://www.w3.org/2000/svg" xmlns:xlink="http://www.w3.org/1999/xlink" x="0px" y="0px"
	 width="1338px" height="892px" viewBox="0 0 1338 892" enable-background="new 0 0 1338 892" xml:space="preserve">
<g id="background">
</g>
<g id="etc">
	<path fill="#BFBFBF" stroke="#494949" stroke-miterlimit="10" d="M1214.667,557.167c0,0-7.333-21-11-31.667s-12-15-12-15
		s-39.667-24-53-30.667c-13-6.333-18-3-26.334-0.333c-7,2-224.333,79.333-224.333,79.333c-22,7.667-25,19-25,19
		S848.667,616.5,843,632.5s2,22.667,2,22.667s7,9.333,17.667,25c10,12,22.666,12.333,22.666,12.333s19.334-1.667,27-1.333
		s10.334,6.667,10.334,6.667s0.271,6.204,0.565,15.475l43.42-42.483c-0.106-0.109-0.215-0.211-0.319-0.323c0,0-9-11-10.333-23.333
		s6-24.333,6-24.333s7.666-6,13.333-8.333s24-8.667,24-8.667l5.334,15L1050,605.167l-5-15.333l15.333-5
		c0,0,10.667-4.667,13.667,6.333s6,45,6,45s0,10.333-7,13.667s-81,30.333-81,30.333s-12.145,1.344-22.35-6.643l-45.15,45.81
		c0.288,10.369,0.333,24.799,0.333,36.667c1.333,26.334,25.5,24.167,25.5,24.167s156,0.333,168.334,0s13-9.334,13-9.334
		s17.333-65.667,18.667-70.333S1163,663.167,1163,663.167s48.334-91.667,51-96S1214.667,557.167,1214.667,557.167z M1115.166,619.5
		c-1.667,4.333-4.47,9.926-7,11c-5.5,2.333-6.667-3.333-6.667-3.333l-4.333-31.667c0,0,0.333-6.333,4-7.333s6.334,3,9.667,7.333
		S1116.833,615.167,1115.166,619.5z"/>
	<polygon fill="#868686" stroke="#494949" stroke-miterlimit="10" points="924.166,719.833 935.5,719.834 938.25,705.5 	"/>
</g>
<g id="rooms">
	<path id="q8a-8" fill="#494949" stroke="#212121" stroke-miterlimit="10" d="M1122.5,677.25l-40.25,14.5l24,69.5l6.25,0.25
		l-0.334,19.167c0,0,1.334,0,9.667-0.167c8.252-0.165,10.167-8.25,10.167-8.25s6.25-18,10-38.5
		c3.602-19.691,20.579-68.897,21.914-72.751l-15.899-9.065C1137.757,669.208,1122.5,677.25,1122.5,677.25z"/>
	<path id="q8a-7" fill="#494949" stroke="#212121" stroke-miterlimit="10" d="M1148.646,584.705
		c4.487,7.974,7.675,17.717,8.354,29.545c0.895,15.566-3.27,28.058-8.985,37.684l15.899,9.065c0.055-0.158,0.086-0.249,0.086-0.249
		s44-82,48.25-91c2.107-4.463,2.861-7.387,3.087-9.203L1148.646,584.705z"/>
	<path id="q8a-3" fill="#494949" stroke="#212121" stroke-miterlimit="10" d="M959.5,591.75l31.857-11.133l-18.498-51.944
		c-43.557,15.438-81.703,29.104-88.359,31.827c-3.907,1.599-7.078,3.337-9.653,5.06l3.193,10.621l54.63,38.015
		C944.06,599.133,959.5,591.75,959.5,591.75z"/>
	<path id="q8a-4" fill="#494949" stroke="#212121" stroke-miterlimit="10" d="M1054.781,499.797
		c-25.146,8.813-54.598,19.192-81.922,28.876l18.498,51.944L1073.25,552L1054.781,499.797z"/>
	<path id="q8a-5" fill="#494949" stroke="#212121" stroke-miterlimit="10" d="M1192.75,511c0,0-43.75-26.5-54.75-32.25
		s-14.5-2-20.75-0.5c-2.146,0.515-28.338,9.586-62.469,21.547l1.552,4.87l17.861-6.498l0,0l0,0L1085,529.167l-7.834,2.833
		l6.584,18.75c3.75-0.75,12,1,23.25,2.75c3.561,0.554,9.624,2.49,16.328,6.253l15.616-25.354l0,0l0,0l58.043-19.993
		C1194.671,512.271,1192.75,511,1192.75,511z"/>
	<g id="q8a-1">
		<path fill="#494949" stroke="#212121" stroke-miterlimit="10" d="M924.75,679.75
			c-5.083-15.084-5.049-24.485-4.294-29.572l-66.364-1.35l-11.544,3.008c0.886,1.594,1.702,2.414,1.702,2.414s9.75,12.75,19,26
			s24.5,12,24.5,12s13-1,24.5-0.75s10.75,7.75,10.75,7.75l1.25,14l14.5-14.25C938.75,699,928.991,692.335,924.75,679.75z"/>
		<path fill="#494949" stroke="#212121" stroke-miterlimit="10" d="M937.75,668.5c3.5,9.75,8.75,17.25,11.75,19.75
			L967,670.5c0,0-6.476-6.932-9.491-16.699l-21.95-0.264C935.491,659.117,936.206,664.198,937.75,668.5z"/>
	</g>
	<g id="q8a-2">
		<path fill="#494949" stroke="#212121" stroke-miterlimit="10" d="M854.092,648.828L854.092,648.828l66.364,1.35
			c0.165-1.108,0.211-19.512,12.214-35.982l-54.63-38.015l0,0l0,0l-3.193-10.621c-8.301,5.554-10.347,10.94-10.347,10.94
			s-17,43.5-22.25,57c-3.489,8.971-1.458,15.179,0.298,18.336L854.092,648.828L854.092,648.828z"/>
		<path fill="#494949" stroke="#212121" stroke-miterlimit="10" d="M963,622.75c0,0,4.75-5,10-7
			s27.75-10.25,27.75-10.25l-4.25-11l-34.5,12c0,0-18,9.5-22.5,24c-2.515,8.103-3.855,15.97-3.941,23.037l21.95,0.264
			c-0.869-2.814-1.453-5.862-1.509-9.051C955.75,630.5,963,622.75,963,622.75z"/>
	</g>
	<g id="q8a-10">
		<path fill="#494949" stroke="#212121" stroke-miterlimit="10" d="M925.25,752.25L943,752.5v-37.75l3.5-8.75
			c0,0,24.75,22.75,58.5,12.25c1.5,3.5,5.5,14.75,5.5,14.75l-25.75,10L998,779.75h-48c0,0-18.75,1.75-24-17.25
			C924.75,753.5,925.25,752.25,925.25,752.25z"/>
		<path fill="#494949" stroke="#212121" stroke-miterlimit="10" d="M991.75,680.25C983,682.75,970,673.5,970,673.5
			l-17.25,17.75c13.335,13.155,33.813,13.71,44.207,12.994L991.92,680.2C991.865,680.216,991.801,680.235,991.75,680.25z"/>
	</g>
	<g id="q8a-9">
		<polygon fill="#494949" stroke="#212121" stroke-miterlimit="10" points="1019.5,730.25 1014.25,715 1073.25,694.75 
			1084.75,728 1046.5,741.5 1039.75,723.25 		"/>
		<path fill="#494949" stroke="#212121" stroke-miterlimit="10" d="M1083.833,668.333L1078,646.25l-5,4.5
			c0,0-71.646,26.682-81.08,29.45l5.037,24.044c4.025-0.277,6.543-0.744,6.543-0.744s71-24.5,76.75-27.75
			S1083.833,668.333,1083.833,668.333z"/>
	</g>
	<g id="q8a-6">
		<path fill="#494949" stroke="#212121" stroke-miterlimit="10" d="M1215.25,558c0,0-8.5-24.25-10.75-32.5
			c-1.239-4.543-4.674-8.473-7.513-11.093l-58.043,19.993l-15.616,25.354c8.719,4.894,18.521,12.88,25.317,24.952l66.69-24.158
			C1215.566,558.702,1215.25,558,1215.25,558z"/>
		<path fill="#494949" stroke="#212121" stroke-miterlimit="10" d="M1094,587.25c0,0,12-0.5,15.25,6.25s6.75,16.5,6,22
			S1112,630.75,1106,632s-6,1.25-6,1.25l9,24c0,0,4.25,6.75,8.25,4.75s15-13.75,15-13.75s13-16,9.75-37s-19.75-34.5-19.75-34.5
			l-0.5-1c0,0-12.25-6.25-15-6.25s-8,3.25-9.75,7.5S1094,587.25,1094,587.25z"/>
	</g>
</g>
<g id="signs">
	<g id="lift">
		<rect id="lift-1" x="1003" y="583" width="45" height="45"/>
		<rect id="lift-2" x="1037" y="730" width="45" height="45"/>
	</g>
	<rect id="escalator" x="1065.5" y="589.5" width="45" height="45"/>
	<rect id="toilet" x="998" y="734" width="45" height="45"/>
</g>
</svg>
