<?xml version="1.0" encoding="utf-8"?>
<!-- Generator: Adobe Illustrator 16.0.0, SVG Export Plug-In . SVG Version: 6.00 Build 0)  -->
<!DOCTYPE svg PUBLIC "-//W3C//DTD SVG 1.1//EN" "http://www.w3.org/Graphics/SVG/1.1/DTD/svg11.dtd">
<svg version="1.1" id="Layer_1" xmlns="http://www.w3.org/2000/svg" xmlns:xlink="http://www.w3.org/1999/xlink" x="0px" y="0px"
	 width="1000px" height="1000px" viewBox="0 0 1000 1000" enable-background="new 0 0 1000 1000" xml:space="preserve">
<g id="background">
</g>
<g id="etc">
	<path fill="#BFBFBF" stroke="#494949" stroke-miterlimit="10" d="M930.867,361.958c8.221-9.791,1.569-20.478,1.569-20.478
		s-48.281-77.056-54.335-83.931c-6.054-6.876-7.25-4.335-7.25-4.335L514.275,503.288c0,0-5.979,3.663-8.146,4.783
		c-2.093,1.047-8.745,3.737-8.745,3.737l-0.673-0.896L142.676,616.368l0.149,0.448l20.254,68.386c0,0,17.19,38.191,27.205,58.818
		c9.94,20.628,28.176,16.144,28.176,16.144s308.819-0.373,328.401-0.672c19.581-0.3,39.536-28.177,41.255-29.223
		c1.72-1.047,10.987-10.688,42.975-12.706c31.988-2.093,45.067,18.909,50.897,31.614c5.829,12.706,19.282,11.659,19.282,11.659
		s109.716,3.064,124.813,2.392c15.097-0.673,20.254-28.176,20.254-28.176s7.25-45.067,11.36-60.539
		c4.11-15.471,18.236-16.143,18.236-16.143l28.55-2.766c32.66,1.046,21.674-26.158,20.628-27.504
		c-1.047-1.346-26.831-90.135-29.896-98.729s-2.093-30.867-2.093-30.867c-2.392-14.051,11.659-66.293,11.659-66.293L930.867,361.958
		z M666.592,591.405c-5.53,1.943-36.099,14.35-36.099,14.35s-16.517,13.378-10.313,37.145c2.765,5.157,10.313,17.863,10.313,17.863
		s1.719,5.156-3.438,6.203c-5.157,1.046-51.271,8.595-51.271,8.595s-12.033,5.157-16.144-4.783l-2.392-4.783l6.203-3.438
		l-12.406-22.795l-13.08,8.222l-21.3-66.742l139.611-46.562l15.097,47.608C671.375,582.361,672.123,589.462,666.592,591.405z
		 M857.25,528.102c0,0-133.558,44.992-142.526,47.16c-8.969,2.167-12.631-2.616-12.631-2.616l-27.504-42.451l174.738-58.67
		l13.378,44.619C866.891,527.279,857.25,528.102,857.25,528.102z"/>
	<path fill="#878787" stroke="#494949" stroke-miterlimit="10" d="M468.685,472.347c0,0-23.692-33.781-37.145-47.459
		c-20.105-17.563-51.869-5.157-51.869-5.157s-262.332,78.7-273.393,82.81c-11.061,4.11-27.578,22.945-28.923,41.031
		c-1.196,18.012,8.595,32.661,8.595,32.661c8.221,16.218,22.87,21.6,22.87,21.6l5.53,12.406l24.739-6.203l3.662,12.332
		l353.961-105.456L468.685,472.347z"/>
	<path fill="#919191" stroke="#494949" stroke-miterlimit="10" d="M488.266,675.561h32.512c0,0,11.659,7.922,0,16.144
		c-2.766,0.374-32.512,0-32.512,0S476.756,683.782,488.266,675.561z"/>
	<polygon fill="#878787" stroke="#494949" stroke-miterlimit="10" points="771.226,358.072 799.626,337.967 833.932,388.49 
		795.217,415.845 789.014,407.1 798.805,400.075 	"/>
	<polygon fill="#919191" stroke="#494949" stroke-miterlimit="10" points="560.912,538.715 560.912,566.218 611.584,549.701 
		596.562,526.98 	"/>
	<path fill="#BFBFBF" stroke="#494949" stroke-miterlimit="10" d="M893.199,498.505c-2.392-14.051,11.658-66.293,11.658-66.293
		l25.935-70.329c8.222-9.791,1.569-20.478,1.569-20.478s-48.28-77.056-54.334-83.932c-6.055-6.876-7.25-4.334-7.25-4.334
		l-0.225,0.149l0.225,0.374l54.335,84.155c0,0,2.69,3.663-1.72,15.919c-4.409,12.332-15.321,42.302-15.321,42.302l-22.869,57.848
		c0,0-5.456,6.801-14.425,9.79c-8.969,2.99-21.824,7.698-21.824,7.698v0.075l0.3-0.075l13.378,44.619c0,0,3.588,7.772-1.645,10.463
		c-0.149,0.149-0.373,0.225-0.523,0.374c3.363-1.121,10.239-3.438,10.239-3.438s8.596-3.962,11.659,4.783
		c3.14,8.744,30.494,98.579,30.494,98.579s10.612,19.134-10.987,25.262c-11.733,3.363-16.367,4.56-18.086,4.933l16.891-1.195
		l3.737-0.374c0.373,0,0.672,0,1.046,0l7.848-0.598l0,0c0.822-0.149,1.569-0.299,2.242-0.523c1.271-0.373,2.989-0.896,4.708-1.793
		c8.072-4.484,7.997-13.08,6.802-18.835c0,0,0,0,0-0.074c-0.448-1.346-0.972-3.064-1.645-5.157
		c-0.149-0.299-0.299-0.523-0.299-0.598c-0.523-0.747-7.698-24.738-14.873-48.954c-6.577-21.674-12.854-42.601-14.947-49.477
		c0-0.074-0.075-0.224-0.075-0.299C892.152,520.777,893.199,498.505,893.199,498.505z"/>
	<path fill="#494949" stroke="#212121" stroke-miterlimit="10" d="M622.795,647.684"/>
	<path fill="#BFBFBF" stroke="#494949" stroke-miterlimit="10" d="M643.871,605.755c5.157,0.673,51.271-16.592,51.271-16.592
		l16.816-5.082v-7.923l-0.299-0.373c-6.727,0.598-9.566-3.14-9.566-3.14l-27.504-42.451l0.747-0.225l-0.373-0.448l-18.685,5.307
		l15.097,47.608c0,0,0.673,7.025-4.783,9.043c-5.456,2.019-36.099,14.351-36.099,14.351s-16.517,13.378-10.313,37.145
		c0.672,1.271,1.644,2.915,2.69,4.783l0.598-0.598c0.225-1.719,0.673-4.186,1.569-6.577c8.445-22.347,13.229-33.632,18.461-34.679
		C643.647,605.755,643.722,605.755,643.871,605.755z"/>
	<path fill="#BFBFBF" stroke="#494949" stroke-miterlimit="10" d="M630.493,660.837c0.149,0.523,1.42,5.157-3.438,6.129
		c-5.157,1.046-51.271,8.595-51.271,8.595s-12.033,5.157-16.144-4.783l-2.392-4.783l14.798,39.237l-25.411,46.413l-352.765-1.72
		c10.239,13.827,24.664,10.314,24.664,10.314s308.819-0.374,328.4-0.673c19.582-0.374,39.537-28.177,41.256-29.223
		s10.986-10.688,42.975-12.705c22.571-1.421,35.725,8.595,43.572,19.058L630.493,660.837z"/>
	<path id="q-space-gf" fill="#878787" stroke="#494949" stroke-miterlimit="10" d="M728.476,650.149c0,0-2.69-20.702,13.826-19.507
		l4.11,10.688l35.8-13.976l-3.662-9.118l5.456-1.794l37.145,9.192c0,0,9.269,5.083,0.225,12.631l-26.98,18.535l-9.118,0.523
		l-0.224-4.933L728.476,650.149z"/>
	<path id="bhiraj-tower" fill="#878787" stroke="#494949" stroke-miterlimit="10" d="M750.074,372.496l4.111-3.363l-15.022-23.019
		L560.912,470.553c0,0,6.128,0.599,7.474,2.168c1.42,1.569,20.479,28.4,20.479,28.4l39.163-27.354l10.313-7.474l-3.064-5.157
		l10.538-7.474l11.884,18.834l108.146-76.382L750.074,372.496z"/>
</g>
<g id="rooms">
	<polygon id="qgc-3" fill="#494949" stroke="#212121" stroke-miterlimit="10" points="417.34,750.896 448.057,751.047 
		448.057,713.752 417.563,712.93 	"/>
	<polygon id="gourmet-market" fill="#494949" stroke="#212121" stroke-miterlimit="10" points="421.226,613.677 346.936,578.55 
		341.33,557.175 142.676,616.368 163.901,686.921 193.797,749.851 417.34,750.896 417.563,712.93 417.34,712.93 417.563,712.93 
		417.563,712.93 448.057,713.752 448.057,713.229 	"/>
	<polygon id="qgc-5" fill="#494949" stroke="#212121" stroke-miterlimit="10" points="387.145,543.498 368.983,548.879 
		378.55,579.97 396.338,575.112 	"/>
	<polygon id="qgc-4" fill="#494949" stroke="#212121" stroke-miterlimit="10" points="457.324,558.445 378.55,579.97 
		406.278,593.572 463.005,576.532 	"/>
	<path id="qgb-7" fill="#494949" stroke="#212121" stroke-miterlimit="10" d="M513.527,503.812
		c-6.502,4.56-16.218,7.997-16.218,7.997l-28.102,8.521l11.883,45.89l54.186-29.821l-21.001-33.109
		C513.977,503.438,513.752,503.662,513.527,503.812z"/>
	<path id="qgb-8" fill="#494949" stroke="#212121" stroke-miterlimit="10" d="M588.864,501.196c0,0-15.994-22.198-19.059-26.831
		c-3.064-4.635-8.894-3.812-8.894-3.812s-38.341,26.906-46.637,32.735l21.001,33.109l37.146-20.479l24.215-2.69L588.864,501.196
		L588.864,501.196z"/>
	<polygon id="qgb-9" fill="#494949" stroke="#212121" stroke-miterlimit="10" points="649.253,503.288 628.102,473.842 
		588.864,501.196 596.562,513.229 643.572,508.071 	"/>
	<polygon id="quartier-take-home" fill="#494949" stroke="#212121" stroke-miterlimit="10" points="431.017,599.253 
		469.208,588.864 488.266,664.2 452.167,677.13 	"/>
	<polygon id="qgc-2" fill="#494949" stroke="#212121" stroke-miterlimit="10" points="469.507,751.047 469.507,709.268 
		475.71,702.018 570.329,702.018 572.048,705.157 546.562,751.569 	"/>
	<polygon id="qgb-10" fill="#494949" stroke="#212121" stroke-miterlimit="10" points="657.698,472.571 657.772,472.571 
		647.384,480.045 659.791,498.505 682.212,482.735 670.03,463.826 	"/>
	<polygon id="qgb-11" fill="#494949" stroke="#212121" stroke-miterlimit="10" points="670.03,463.826 682.212,482.735 
		703.737,467.563 690.882,449.178 	"/>
	<polygon id="qgb-13" fill="#494949" stroke="#212121" stroke-miterlimit="10" points="711.062,434.902 723.617,453.513 
		745.516,438.042 733.184,419.283 	"/>
	<polygon id="qgb-14" fill="#494949" stroke="#212121" stroke-miterlimit="10" points="766.068,396.487 765.845,396.188 
		733.184,419.283 745.516,438.042 767.862,422.272 	"/>
	<polygon id="qgb-12" fill="#494949" stroke="#212121" stroke-miterlimit="10" points="690.882,449.178 703.737,467.563 
		723.617,453.513 711.062,434.902 	"/>
	<path id="qgb-1" fill="#494949" stroke="#212121" stroke-miterlimit="10" d="M806.203,299.103l57.101,81.615l44.843,15.396
		l17.563-48.505c0,0,2.093-5.83-2.317-13.827c-4.409-7.997-52.541-80.045-52.541-80.045L806.203,299.103z"/>
	<polygon id="qgb-4" fill="#494949" stroke="#212121" stroke-miterlimit="10" points="735.053,462.78 749.552,504.484 
		791.928,490.284 774.515,434.902 	"/>
	<polygon id="qgb-3" fill="#494949" stroke="#212121" stroke-miterlimit="10" points="774.589,434.902 774.515,434.902 
		791.928,490.284 834.604,476.009 821.45,433.333 	"/>
	<path id="qgb-2" fill="#494949" stroke="#212121" stroke-miterlimit="10" d="M859.94,432.062l-38.49,1.271l13.079,42.676
		l39.536-13.229c0,0,10.314-2.467,13.154-13.603l3.363-8.071L859.94,432.062z"/>
	<polygon id="qgb-5" fill="#494949" stroke="#212121" stroke-miterlimit="10" points="700.374,487.145 710.389,517.639 
		749.552,504.484 735.053,462.78 	"/>
	<polygon id="qgb-6" fill="#494949" stroke="#212121" stroke-miterlimit="10" points="663.378,513.229 670.03,531.091 
		710.389,517.639 700.374,487.145 	"/>
	<polygon id="qga-8" fill="#494949" stroke="#212121" stroke-miterlimit="10" points="711.958,576.158 711.958,584.081 
		727.803,618.161 774.515,602.317 776.233,602.541 761.435,560.164 	"/>
	<polygon id="qga-9" fill="#494949" stroke="#212121" stroke-miterlimit="10" points="785.202,552.467 761.435,560.164 
		776.233,602.541 803.139,605.755 	"/>
	<path id="qga-1" fill="#494949" stroke="#212121" stroke-miterlimit="10" d="M796.936,548.281l73.916-24.738
		c0,0,8.222-3.064,11.66,4.783c3.438,7.922,11.359,37.145,11.359,37.145l-44.021,15.471l-33.707,26.458h-6.876l-10.314-34.081
		l4.111-2.392L796.936,548.281z"/>
	<polygon id="qga-5b" fill="#494949" stroke="#212121" stroke-miterlimit="10" points="665.246,692.377 682.735,721.973 
		721.151,708.744 704.409,680.344 	"/>
	<polygon id="qga-5a" fill="#494949" stroke="#212121" stroke-miterlimit="10" points="759.642,682.437 704.409,680.344 
		704.409,680.344 721.151,708.744 763.154,695.441 763.378,696.188 759.716,682.437 	"/>
	<polygon id="qga-4" fill="#494949" stroke="#212121" stroke-miterlimit="10" points="796.188,704.409 785.949,673.169 
		759.716,682.437 763.378,696.188 769.059,714.126 	"/>
	<polygon id="qga-3b" fill="#494949" stroke="#212121" stroke-miterlimit="10" points="829.223,646.637 794.544,670.03 800,686.248 
		853.438,666.219 841.555,630.568 	"/>
	<path id="qga-2" fill="#494949" stroke="#212121" stroke-miterlimit="10" d="M914.2,630.867l-10.688-35.426l-46.338,14.723
		l15.022,48.954l1.346-0.523c0,0,22.421-2.316,33.707-8.819C918.609,643.199,914.2,630.867,914.2,630.867z"/>
	<polygon id="qga-3a" fill="#494949" stroke="#212121" stroke-miterlimit="10" points="857.101,610.239 841.555,630.568 
		853.438,666.219 872.271,659.118 857.25,610.164 	"/>
	<path id="qga-6" fill="#494949" stroke="#212121" stroke-miterlimit="10" d="M624.963,640.508
		c-1.569,4.111-2.168,7.176-2.168,7.176l21.227,36.322l48.355-24.963l0.448-0.448l-49.327-52.84
		C638.191,606.801,633.408,618.161,624.963,640.508z"/>
	<path id="qga-7" fill="#494949" stroke="#212121" stroke-miterlimit="10" d="M695.142,589.163c0,0-46.113,17.265-51.271,16.592
		c-0.149,0-0.299,0-0.448,0l49.327,52.84l21.898-22.571L695.142,589.163z"/>
	<polygon id="qgc-13" fill="#494949" stroke="#212121" stroke-miterlimit="10" points="449.402,594.395 469.208,589.014 
		471.45,597.907 451.794,603.513 	"/>
	<polygon id="qgc-12" fill="#494949" stroke="#212121" stroke-miterlimit="10" points="451.794,603.513 471.524,598.132 
		473.767,607.025 454.186,612.406 	"/>
	<polygon id="qgc-8" fill="#494949" stroke="#212121" stroke-miterlimit="10" points="465.098,651.495 483.633,645.964 
		485.949,655.082 468.087,661.36 	"/>
	<polygon id="qgc-7" fill="#494949" stroke="#212121" stroke-miterlimit="10" points="468.087,661.36 485.949,655.082 
		488.191,663.977 471.226,670.553 	"/>
	<polygon id="qgc-11" fill="#494949" stroke="#212121" stroke-miterlimit="10" points="477.728,622.795 458.819,627.803 
		455.755,616.293 474.813,611.136 	"/>
	<polygon id="qgc-9" fill="#494949" stroke="#212121" stroke-miterlimit="10" points="479.97,632.212 470.18,634.828 
		467.563,625.485 477.429,622.87 	"/>
	<polygon id="qgc-10" fill="#494949" stroke="#212121" stroke-miterlimit="10" points="470.18,634.828 461.36,637.145 
		458.819,627.803 467.563,625.485 	"/>
	
		<rect id="qgb-15" x="735.288" y="321.366" transform="matrix(-0.8196 0.573 -0.573 -0.8196 1600.5861 152.0154)" fill="#494949" stroke="#212121" stroke-miterlimit="10" width="82.141" height="13.304"/>
	<path id="qgc-1" fill="#494949" stroke="#212121" stroke-miterlimit="10" d="M513.154,572.422l-31.54,17.339
		c0,0-0.448,0.972,0.747,6.129c1.196,5.157,17.713,67.937,17.713,67.937h16.145l21.674-16.143l-21.525-66.742L513.154,572.422z"/>
	<path id="qgb-7b" fill="#494949" stroke="#212121" stroke-miterlimit="10" d="M516.442,580.867l-3.214-8.445
		c6.577-4.186,17.115-11.286,18.909-9.717c1.868,1.645,4.933,11.062,4.933,11.062L516.442,580.867z"/>
	<circle id="qgc-6" fill="#494949" stroke="#212121" stroke-miterlimit="10" cx="473.767" cy="680.867" r="5.307"/>
	<rect id="qgc-16" x="309.94" y="607.399" fill="#494949" stroke="#212121" stroke-miterlimit="10" width="40.434" height="10.09"/>
	
		<rect id="qgc-17" x="311.062" y="628.251" fill="#494949" stroke="#212121" stroke-miterlimit="10" width="19.133" height="13.079"/>
	
		<rect id="qgc-15" x="342.078" y="625.485" fill="#494949" stroke="#212121" stroke-miterlimit="10" width="12.854" height="12.855"/>
</g>
<g id="signs">
	<g id="escalator">
		<rect id="escalator-3" x="739.088" y="642.302" width="33.633" height="33.633"/>
		<rect id="escalator-2" x="565.246" y="527.205" width="33.633" height="33.632"/>
		<rect id="escalator-1" x="786.771" y="353.886" width="33.632" height="33.632"/>
	</g>
	<g id="lift">
		<rect id="lift-1" x="535.202" y="638.341" width="33.632" height="33.632"/>
		<rect id="lift-2" x="743.871" y="610.164" width="33.633" height="33.633"/>
		<rect id="lift-3" x="769.955" y="379.372" width="33.633" height="33.632"/>
		<rect id="lift-4" x="436.921" y="514.275" width="33.632" height="33.632"/>
		<rect id="lift-5" x="632.437" y="450.747" width="33.632" height="33.633"/>
		<rect id="lift-6" x="767.862" y="724.065" width="33.633" height="33.633"/>
	</g>
	<g id="toilet">
		<rect id="toilet-1" x="751.047" y="360.09" width="33.632" height="33.632"/>
		<rect id="toilet-2" x="803.588" y="714.574" width="33.632" height="33.632"/>
		<rect id="toilet-3" x="389.611" y="537.668" width="33.633" height="33.633"/>
	</g>
	<rect id="taxi" x="404.409" y="739.836" width="33.633" height="33.632"/>
	<g id="dropoff">
		<rect id="dropoff-1" x="606.054" y="691.928" width="33.633" height="33.633"/>
		<rect id="dropoff-2" x="475.561" y="739.836" width="33.633" height="33.632"/>
		<rect id="dropoff-3" x="860.313" y="476.756" width="33.633" height="33.633"/>
	</g>
	<rect id="stairs" x="415.919" y="520.852" width="33.633" height="33.633"/>
	<rect id="parking" x="256.428" y="500.822" width="33.632" height="33.632"/>
	<g id="entrance">
		<rect id="entrance-1" x="890.658" y="559.192" width="33.632" height="33.633"/>
		<rect id="entrance-2" x="890.658" y="402.466" width="33.632" height="33.632"/>
		<rect id="entrance-3" x="646.562" y="514.275" width="33.632" height="33.632"/>
		<rect id="entrance-4" x="686.921" y="572.347" width="33.632" height="33.633"/>
		<rect id="entrance-5" x="641.031" y="669.432" width="33.633" height="33.633"/>
		<rect id="entrance-6" x="552.018" y="677.728" width="33.633" height="33.633"/>
		<rect id="entrance-7" x="440.808" y="724.065" width="33.632" height="33.633"/>
		<rect id="entrance-8" x="337.594" y="535.65" width="33.632" height="33.632"/>
	</g>
</g>
</svg>
