<?xml version="1.0" encoding="utf-8"?>
<!-- Generator: Adobe Illustrator 16.0.0, SVG Export Plug-In . SVG Version: 6.00 Build 0)  -->
<!DOCTYPE svg PUBLIC "-//W3C//DTD SVG 1.1//EN" "http://www.w3.org/Graphics/SVG/1.1/DTD/svg11.dtd">
<svg version="1.1" id="Layer_1" xmlns="http://www.w3.org/2000/svg" xmlns:xlink="http://www.w3.org/1999/xlink" x="0px" y="0px"
	 width="1338px" height="892px" viewBox="0 0 1338 892" enable-background="new 0 0 1338 892" xml:space="preserve">
<g id="background">
</g>
<g id="etc">
	<path fill="#BFBFBF" stroke="#494949" stroke-miterlimit="10" d="M1215.5,582.5c-4-14.5-54-86.5-63-97S1118,482,1118,482
		s-203.5,73.5-226,82s-25,24-25,24s-16,33.5-20.5,44s-5.5,9.5,6,29s24,18,24,18s23-0.5,37-1s12.5,12,12.5,12
		s-0.191,9.303-0.323,21.357l42.005-41.165c-0.061-0.066-0.121-0.125-0.182-0.192c0,0-4.945-10.283-6.445-18.283
		s-1.037-18.961,5.076-25.433C973.333,618.661,1002,609.5,1002,609.5l4.5,13.5l44.5-15l-4.5-14.5l15.5-6c0,0,12.5-0.5,13.5,10.5
		s1,11,1,11l20-3c0,0-1-18.5,8-13s13.5,29.5,4,39.5s-43,23-49.5,25c-3.414,1.05-20.754,7.34-36.453,13.078l17.809,53.051l0,0l0,0
		l-53.317,18.328l12.881,37.649c50.676,0.059,119.944,0.021,128.082-0.605c13-1,13-11,13-11.5c4.5-56,18-96,22.5-103.5
		s20.5-21,41.5-39.5S1219.5,597,1215.5,582.5z"/>
	<path fill="#868686" stroke="#494949" stroke-miterlimit="10" d="M987.037,741.956L987.037,741.956l53.316-18.328l-17.808-53.051
		c-14.194,5.187-27.047,9.922-27.047,9.922s-11.451,4.087-23.998-6.598l-45.896,45.021c-0.104,13.951-0.08,29.574,0.394,38.576
		c1,19,20,22,20,22s23.641,0.07,53.918,0.104L987.037,741.956L987.037,741.956z"/>
</g>
<g id="rooms">
	<path id="q9a-2" fill="#494949" stroke="#212121" stroke-miterlimit="10" d="M887,566c0,0-3.112,1.619-7.039,4.918l3.027,9.907
		l52.084,36.893c5.871-9.25,14.371-17.175,26.428-22.217c7.477-3.126,19.207-7.474,32.321-12.146l-17.556-50.104L887,566z"/>
	<path id="q9a-4" fill="#494949" stroke="#212121" stroke-miterlimit="10" d="M1056,504l-79.733,29.251l17.556,50.104
		C1028.939,570.843,1074,556,1074,556L1056,504z"/>
	<path id="q9a-5" fill="#494949" stroke="#212121" stroke-miterlimit="10" d="M1149.899,562.122L1149.899,562.122l44.896-15.384
		c-13.892-22.448-29.146-44.673-37.295-55.238c-13.5-17.5-39-9.5-39-9.5l-62.5,22l2,6l16-6l11,29.5l-8,3l7.5,19.5
		c0,0,26,0.5,40.5,28.5c0.188,0.362,0.358,0.703,0.539,1.057L1149.899,562.122L1149.899,562.122z"/>
	<path id="q9a-6" fill="#494949" stroke="#212121" stroke-miterlimit="10" d="M1218,588c-5.549-11.691-14.084-26.524-23.205-41.262
		l-44.896,15.384l-24.36,23.435c7.102,13.878,9.104,35.709,1.961,50.398C1120.743,649.849,1105,657,1105,657l-65.5,23l17,47l33-11
		l15.5,44.5l6,0.5l0.5,17.5c0,0-2,0.5,14.5,0.5s15-11,15-11s9.689-65.464,12.5-75.267c3.045-10.62,10.992-29.332,11.5-30.233
		C1177.968,639.482,1232,617.5,1218,588z"/>
	<path id="q9a-3" fill="#494949" stroke="#212121" stroke-miterlimit="10" d="M1002,609.5l-3.666-13.499L974,605
		c-13.333,4.5-23.633,15.453-27.526,21.284l14.742,9.671c2.101-9.641,9.201-13.872,19.864-18.525
		C991.709,612.792,1002,609.5,1002,609.5z"/>
	<g id="q9a-1">
		<path fill="#494949" stroke="#212121" stroke-miterlimit="10" d="M882.988,580.825L882.988,580.825l-3.027-9.907
			c-3.942,3.313-8.704,8.318-11.961,15.082c-6.5,13.5-23,48.5-23,48.5s-3.5,9.5,1.5,17s10.5,29,41,27.5c29.469-1.449,39-4,38.5,13
			s1.408,17.66,1.408,17.66l13.049-12.788c0,0-18.457-17.372-16.957-40.372c0.843-12.916,4.051-26.935,11.572-38.783
			L882.988,580.825L882.988,580.825z"/>
		<path fill="#494949" stroke="#212121" stroke-miterlimit="10" d="M946.474,626.284
			c-0.163,0.244-0.333,0.495-0.474,0.716c-3.5,5.5-8,22-8,32.5s12.593,27.439,12.593,27.439l17.089-16.747
			c-2.726-3.635-9.654-20.988-6.466-34.237L946.474,626.284z"/>
	</g>
</g>
<g id="signs">
	<g id="lift">
		<rect id="lift-1" x="1005" y="586" width="45" height="45"/>
		<rect id="lift-2" x="1037.5" y="730" width="45" height="45"/>
	</g>
	<rect id="escalator" x="1067.5" y="593" width="45" height="45"/>
	<rect id="toilet" x="1000" y="733.5" width="45" height="45"/>
</g>
</svg>
