<?xml version="1.0" encoding="utf-8"?>
<!-- Generator: Adobe Illustrator 19.2.0, SVG Export Plug-In . SVG Version: 6.00 Build 0)  -->
<svg version="1.1" id="Layer_1" xmlns="http://www.w3.org/2000/svg" xmlns:xlink="http://www.w3.org/1999/xlink" x="0px" y="0px"
	 viewBox="0 0 1338 892" style="enable-background:new 0 0 1338 892;" xml:space="preserve">
<style type="text/css">
	.st0{fill:#BFBFBF;stroke:#494949;stroke-miterlimit:10;}
	.st1{fill:#868686;stroke:#494949;stroke-miterlimit:10;}
	.st2{fill:#494949;stroke:#212121;stroke-miterlimit:10;}
</style>
<g id="background">
</g>
<g id="etc">
	<path class="st0" d="M1238.3,542.7c-6.3-13-41-72.7-41-72.7s-7-14.7-26.7-9.7c-22.7,6.7-99.3,31-99.3,31S861.7,567.7,860,570.7
		s-2.7-0.3-5.7,8.7c-4.3,11.3-19,60.7-19,60.7s-3.3,11,4.7,19c9.7,15,20,28.7,20,28.7s11,9,23.3,7.7s24.3-1.3,24.3-1.3
		s12.5-1.6,11,17.4l56-53.8c-2.3-3.8-17.9-31.1,10.6-46.6c5.6-2,10.1-3.6,13.7-4.9l0-0.1c0,0,27.7-9.7,0,0.1l5.6,15.9l47-17.3
		l-5.3-15l15.7-5.7c0,0,12.3-4.3,15.7,7.7s5,46,5,46s1.3,10.7-11,13.3S993,663.7,993,663.7s-8.3,1.3-15.1-3.2l-58.1,58.2l-0.8,40.7
		c0,0,1.3,21.7,22.7,23c20,0,177.7-2,177.7-2s8.7,1.3,11.7-6.7s36.7-115.7,36.7-115.7s5.3-12.7,9-16.3s60.7-75.3,60.7-75.3
		S1244.7,555.7,1238.3,542.7z M1116,625c-6.3,8.3-9,5.7-10.3,5.3s-5.7-36-5.7-36s-0.3-7.3,6.3-6.7s11,13.3,11,13.3
		S1122.3,616.7,1116,625z"/>
	<polygon class="st1" points="935.5,702.8 930.8,722.5 920,722.2 919.8,718.8 	"/>
</g>
<g id="rooms">
	<path id="q7a-1" class="st2" d="M837.4,655.4c0.6,1,22,31.7,22,31.7s11.2,9.2,24,7.3c15-1.7,24.3-1.3,24.3-1.3s12.2-0.7,11,18.7
		l14.3-13.3c0,0-21.6-17.2-18.1-45.4l-64.9-2L837.4,655.4z"/>
	<path id="q7a-3" class="st2" d="M873.1,578.9L873.1,578.9l-4.2-13.4c-1.8,0.8-3.2,1.6-4.3,2.2c-10.7,4.7-11.3,12.7-11.3,12.7
		L834,644c0,0-1.3,3.4,3.2,11l12.1-3.8l65.6,1.6c0-0.3,0.1-0.5,0.1-0.8c2-14.5,6.3-26.8,12.7-36.6L873.1,578.9L873.1,578.9z"/>
	<path id="q7a-6" class="st2" d="M971.3,526.7l19.4,53.4c37.2-13.1,85-30.1,85-30.1l-15.7-47.3l0,0l-2.2-6
		C1029.7,506.3,999.4,516.7,971.3,526.7z"/>
	<path id="q7a-7" class="st2" d="M1197.7,470c0,0-7.7-16.3-35.7-8.3c-12.3,4-54.8,18.1-104.2,35l2.2,6l17.7-6.3L1088,527l-8.3,3.3
		l6.3,17.7c0,0,21.6-0.9,41.8,9.7l17.4-26l72.9-25.3C1207.8,488,1197.7,470,1197.7,470z"/>
	<path id="q7a-8" class="st2" d="M1237.7,542c-3.5-6.7-11.6-21.3-19.6-35.6l-72.9,25.3l-17.4,26c9.9,5.2,19.4,13.1,25.9,25.3
		c0.1,0.3,0.3,0.5,0.4,0.8l86-30.7C1240.1,549.8,1239.4,546.1,1237.7,542z"/>
	<path id="q7a-11" class="st2" d="M1185.7,630.7c3-3.7,10.7-13.5,19.3-24.5l-43.6,3.2c2,27.4-12.9,51.2-21.3,56.3
		c-0.1,0-0.1,0.1-0.2,0.1l18,17.7c4.5-14.2,8.1-24.7,9.2-26.1C1172.1,648,1180.7,637,1185.7,630.7z"/>
	<path id="q7a-10" class="st2" d="M1240.1,553l-86,30.7c4.4,8.6,6.6,17.3,7.2,25.6l43.6-3.2c14.6-18.7,31.7-40.5,31.7-40.5
		S1240.1,560.7,1240.1,553z"/>
	<path id="q7a-5" class="st2" d="M868.9,565.5l4.2,13.4l54.6,36.5c10.5-12.9,45.5-27.4,62.9-35.3l-19.4-53.4
		C924.9,543.1,884.4,558,868.9,565.5z"/>
	<path id="q7a-2" class="st2" d="M944,687.7c0,0,19-18,30.3-30c-2.6-5.5-4.2-10.4-5-14.9L939.5,625C919.2,660.2,944,687.7,944,687.7
		z"/>
	<path id="q7a-4" class="st2" d="M999.7,606.2l-4-11.2c0,0-23,6-37,12.3c-14,8.3-14,12-19,17.3c-0.1,0.1-0.1,0.2-0.2,0.4l29.9,17.8
		C963,616.3,999.7,606.2,999.7,606.2z"/>
	<g id="q7a-15">
		<path class="st2" d="M989.3,664c-6.7,0-11.7-4-11.7-4L947,691.7c28.3,23.3,55,12.7,55,12.7s10.7-3.6,24.1-8.2l-12.1-35.3
			C1001.7,662.6,991.6,664,989.3,664z"/>
		<path class="st2" d="M919.2,754.8L938,755l0.7-38l3.7-8.7c0,0,24.7,22.3,61,11.7c3,8,5.3,15,5.3,15l-26.3,9.7l13,38l-53,0.3
			C942.3,783,916.2,782.2,919.2,754.8z"/>
	</g>
	<g id="q7a-14">
		<path class="st2" d="M1014,660.8l12.1,35.3c9.6-3.3,20.7-7.1,30.2-10.5l-10.2-29.7C1036.1,657.5,1024.3,659.3,1014,660.8z"/>
		<polygon class="st2" points="1013,717 1018,732 1039.7,725.3 1046,743 1061.8,737.3 1050.3,704 		"/>
	</g>
	<g id="q7a-13">
		<path class="st2" d="M1085.7,668.3c0,0-5.3-26.3-5.7-22.3s-11,6.3-11,6.3s-10,1.6-22.9,3.6l10.2,29.7c10.6-3.8,19.4-7,22.4-8.3
			C1088,673,1085.7,668.3,1085.7,668.3z"/>
		<polygon class="st2" points="1075,695.3 1050.3,704 1061.8,737.3 1086.3,728.3 		"/>
	</g>
	<path id="q7a-9" class="st2" d="M1108.3,568.7c-9,3-11.3,17.3-11.3,17.3c11.7-1.7,16.3,7,17,8c0.3,0.4,1.2,1.7,2.2,3.8l19.1-14.7
		C1127.9,574.8,1115.2,566.4,1108.3,568.7z"/>
	<g id="q7a-12">
		<path class="st2" d="M1083.7,691.7l23.7,69.7h6.3l0.3,18.7l8.3-0.3c0,0,6.7-0.7,8-5.3c0.9-3.3,16.8-57.4,27.5-90.9l-18-17.7
			C1115.2,685.4,1083.7,691.7,1083.7,691.7z"/>
		<path class="st2" d="M1146.8,619.1l-29.3,3.2c1.3,2.6-10.5,9.3-10.5,9.3l-3,1c0,0,2.3,8.7,7,21.3s20.3-0.2,25.3-7.6L1146.8,619.1"
			/>
	</g>
</g>
<g id="signs">
	<g id="lift">
		<rect id="lift-1" x="1003.8" y="581.2" width="45" height="45"/>
		<rect id="lift-2" x="1037.4" y="732.6" width="45" height="45"/>
	</g>
	<rect id="escalator" x="1070.1" y="589.2" width="45" height="45"/>
	<rect id="toilet" x="997.4" y="735.2" width="45" height="45"/>
</g>
<path id="q7a-11b" class="st2" d="M1116.2,597.8l19.1-14.7c7.9,12.7,12.3,24.8,11.6,36l-29.3,3.2
	C1121,613.6,1119.2,607,1116.2,597.8z"/>
</svg>
