<?xml version="1.0" encoding="utf-8"?>
<!-- Generator: Adobe Illustrator 16.0.0, SVG Export Plug-In . SVG Version: 6.00 Build 0)  -->
<!DOCTYPE svg PUBLIC "-//W3C//DTD SVG 1.1//EN" "http://www.w3.org/Graphics/SVG/1.1/DTD/svg11.dtd">
<svg version="1.1" xmlns="http://www.w3.org/2000/svg" xmlns:xlink="http://www.w3.org/1999/xlink" x="0px" y="0px" width="1338px"
	 height="892px" viewBox="0 0 1338 892" enable-background="new 0 0 1338 892" xml:space="preserve">
<g id="background">
</g>
<g id="etc">
	<path fill="#868686" stroke="#494949" stroke-miterlimit="10" d="M1262.5,465c-7-26-35-20-35-20s-150.547,50.856-200,68
		c-44.297,15.356-175,62-175,62c-47,16-18,50-18,50s55.667,90.008,73,115c21.5,31,57,41,57,41s47.273,0.864,91.821,1.485
		c33.583,0.469,65.616,0.798,74.679,0.515c16-0.5,17-23.5,17-23.5s12-58.5,16-85.5s26.5-34.5,63.5-55c36.414-20.175,32-44,32-44
		S1269.5,491,1262.5,465z"/>
	<path fill="#BFBFBF" stroke="#494949" stroke-miterlimit="10" d="M758.052,347.32L641,430c0,0-28-42-51-71s-73-21-73-21L188,440
		l5,14l-18-4c0,0-58-4-73,47c-15,58,34,86,34,86c-14,17-5,31-5,31l84,169c0,0,535-9,548-11s14-16,14-16l5-49l-96-155
		c0,0,76.878-26.432,170.326-58.718l0.988-0.7L758.052,347.32z"/>
	<path fill="#BFBFBF" stroke="#494949" stroke-miterlimit="10" d="M1235,193l-90-119l-104.387,73.733l100.868,142.208l0,0l0,0
		l-40.064,28.618l0,0l0,0l-57.902-79.271l-32.184,24.396l56.859,79.742l0,0l0,0L857.314,492.582l0.198,0.29
		C996.655,444.796,1171.869,383.969,1185,378c22-10,26-29,26-29s22-92,30-118S1235,193,1235,193z"/>
	<path fill="#BFBFBF" stroke="#494949" stroke-miterlimit="10" d="M892,717.5L855,658c0,0,0-4,4-6s47-19,47-19l59,12c0,0,5,20,1,25
		S892,717.5,892,717.5z"/>
	<path fill="#BFBFBF" stroke="#494949" stroke-miterlimit="10" d="M1262.5,465c-7-26-35-20-35-20s-58.309,19.697-114.271,38.707
		L1126,523l-132,47l10,24c49.5-17.5,73.5-24.5,73.5-24.5s38-9.5,53,23.5c2.59,5.698,4.086,11.121,4.737,16.236L1163,632.11L1141,734
		h-82.935v48.51c32.941,0.455,64.029,0.769,72.935,0.49c16-0.5,17-23.5,17-23.5s12-58.5,16-85.5s26.5-34.5,63.5-55
		c36.414-20.175,32-44,32-44S1269.5,491,1262.5,465z"/>
	<path fill="#868686" stroke="#494949" stroke-miterlimit="10" d="M967.5,656c0,0-13-44.5,36.5-62s73.5-24.5,73.5-24.5
		s38-9.5,53,23.5s-6,57-22.5,63s-78.435,28-78.435,28S987,701.5,967.5,656z"/>
	<path id="quartier-water-garden" fill="#868686" stroke="#494949" stroke-miterlimit="10" d="M854.5,656l2.5-3l50-20l59,12
		c0,0-2-36,38-51c2,2-10-24-10-24l132-47l-13-40l-269,94c0,0-32,16-12,42L854.5,656z"/>
</g>
<g id="rooms">
	<polygon id="virgin-active-fitmess-club" fill="#494949" stroke="#212121" stroke-miterlimit="10" points="1011.331,263.684 
		1011.331,263.684 1011.331,263.684 1043.515,239.288 1043.515,239.288 1043.515,239.288 1101.417,318.559 1141.481,289.941 
		1040.613,147.733 758.052,347.32 857.314,492.582 1068.19,343.426 	"/>
	<path id="kasikorn-wisdom-lounge" fill="#494949" stroke="#212121" stroke-miterlimit="10" d="M967.71,629.437l0.454,0.859
		l43.003-20.686L1004,594C980.556,602.288,971.136,616.632,967.71,629.437z"/>
</g>
<g id="signs">
	<g id="toilet">
		<rect id="toilet-1" x="1018.582" y="247.619" width="45" height="45"/>
		<rect id="toilet-2" x="1105.074" y="738.106" width="45" height="45"/>
	</g>
	<g id="lift">
		<rect id="lift-1" x="1052.069" y="269.616" width="45" height="45"/>
		<rect id="lift-2" x="1017.566" y="587.11" width="45" height="45"/>
		<rect id="lift-3" x="1035.565" y="731.103" width="45" height="45"/>
	</g>
	<rect id="escalator" x="1029.565" y="629.109" width="45" height="45"/>
</g>
</svg>
