<?xml version="1.0" encoding="utf-8"?>
<!-- Generator: Adobe Illustrator 19.2.0, SVG Export Plug-In . SVG Version: 6.00 Build 0)  -->
<svg version="1.1" id="Layer_1" xmlns="http://www.w3.org/2000/svg" xmlns:xlink="http://www.w3.org/1999/xlink" x="0px" y="0px"
	 viewBox="0 0 1338 892" style="enable-background:new 0 0 1338 892;" xml:space="preserve">
<style type="text/css">
	.st0{fill:#BFBFBF;stroke:#494949;stroke-miterlimit:10;}
	.st1{fill:#868686;stroke:#494949;stroke-miterlimit:10;}
	.st2{fill:#494949;stroke:#212121;stroke-miterlimit:10;}
</style>
<g id="background">
</g>
<g id="etc">
	<path class="st0" d="M1214.7,557.2c0,0-7.3-21-11-31.7s-12-15-12-15s-39.7-24-53-30.7c-13-6.3-18-3-26.3-0.3
		c-7,2-224.3,79.3-224.3,79.3c-22,7.7-25,19-25,19s-14.3,38.7-20,54.7s2,22.7,2,22.7s7,9.3,17.7,25c10,12,22.7,12.3,22.7,12.3
		s19.3-1.7,27-1.3s10.3,6.7,10.3,6.7s0.3,6.2,0.6,15.5l43.4-42.5c-0.1-0.1-0.2-0.2-0.3-0.3c0,0-9-11-10.3-23.3s6-24.3,6-24.3
		s7.7-6,13.3-8.3s24-8.7,24-8.7l5.3,15l45.3-15.7l-5-15.3l15.3-5c0,0,10.7-4.7,13.7,6.3s6,45,6,45s0,10.3-7,13.7s-81,30.3-81,30.3
		s-12.1,1.3-22.3-6.6l-45.2,45.8c0.3,10.4,0.3,24.8,0.3,36.7c1.3,26.3,25.5,24.2,25.5,24.2s156,0.3,168.3,0s13-9.3,13-9.3
		s17.3-65.7,18.7-70.3s12.7-37.3,12.7-37.3s48.3-91.7,51-96S1214.7,557.2,1214.7,557.2z M1115.2,619.5c-1.7,4.3-4.5,9.9-7,11
		c-5.5,2.3-6.7-3.3-6.7-3.3l-4.3-31.7c0,0,0.3-6.3,4-7.3s6.3,3,9.7,7.3S1116.8,615.2,1115.2,619.5z"/>
	<polygon class="st1" points="924.2,719.8 935.5,719.8 938.2,705.5 	"/>
</g>
<g id="rooms">
	<path id="q8a-8" class="st2" d="M1122.5,677.2l-40.2,14.5l24,69.5l6.2,0.2l-0.3,19.2c0,0,1.3,0,9.7-0.2c8.3-0.2,10.2-8.2,10.2-8.2
		s6.2-18,10-38.5c3.6-19.7,20.6-68.9,21.9-72.8l-15.9-9.1C1137.8,669.2,1122.5,677.2,1122.5,677.2z"/>
	<path id="q8a-7" class="st2" d="M1148.6,584.7c4.5,8,7.7,17.7,8.4,29.5c0.9,15.6-3.3,28.1-9,37.7l15.9,9.1c0.1-0.2,0.1-0.2,0.1-0.2
		s44-82,48.2-91c2.1-4.5,2.9-7.4,3.1-9.2L1148.6,584.7z"/>
	<path id="q8a-3" class="st2" d="M959.5,591.8l31.9-11.1l-18.5-51.9c-43.6,15.4-81.7,29.1-88.4,31.8c-3.9,1.6-7.1,3.3-9.7,5.1
		l3.2,10.6l54.6,38C944.1,599.1,959.5,591.8,959.5,591.8z"/>
	<path id="q8a-4" class="st2" d="M1054.8,499.8c-25.1,8.8-54.6,19.2-81.9,28.9l18.5,51.9l81.9-28.6L1054.8,499.8z"/>
	<path id="q8a-5" class="st2" d="M1192.8,511c0,0-43.8-26.5-54.8-32.2s-14.5-2-20.8-0.5c-2.1,0.5-28.3,9.6-62.5,21.5l1.6,4.9
		l17.9-6.5l0,0l0,0l10.8,31l-7.8,2.8l6.6,18.8c3.8-0.8,12,1,23.2,2.8c3.6,0.6,9.6,2.5,16.3,6.3l15.6-25.4l0,0l0,0l58-20
		C1194.7,512.3,1192.8,511,1192.8,511z"/>
	<g id="q8a-1">
		<path class="st2" d="M924.8,679.8c-5.1-15.1-5-24.5-4.3-29.6l-66.4-1.3l-11.5,3c0.9,1.6,1.7,2.4,1.7,2.4s9.8,12.8,19,26
			s24.5,12,24.5,12s13-1,24.5-0.8s10.8,7.8,10.8,7.8l1.2,14l14.5-14.2C938.8,699,929,692.3,924.8,679.8z"/>
		<path class="st2" d="M937.8,668.5c3.5,9.8,8.8,17.2,11.8,19.8l17.5-17.8c0,0-6.5-6.9-9.5-16.7l-22-0.3
			C935.5,659.1,936.2,664.2,937.8,668.5z"/>
	</g>
	<g id="q8a-2">
		<path class="st2" d="M854.1,648.8L854.1,648.8l66.4,1.3c0.2-1.1,0.2-19.5,12.2-36l-54.6-38l0,0l0,0l-3.2-10.6
			c-8.3,5.6-10.3,10.9-10.3,10.9s-17,43.5-22.2,57c-3.5,9-1.5,15.2,0.3,18.3L854.1,648.8L854.1,648.8z"/>
		<path class="st2" d="M963,622.8c0,0,4.8-5,10-7s27.8-10.2,27.8-10.2l-4.2-11l-34.5,12c0,0-18,9.5-22.5,24c-2.5,8.1-3.9,16-3.9,23
			l22,0.3c-0.9-2.8-1.5-5.9-1.5-9.1C955.8,630.5,963,622.8,963,622.8z"/>
	</g>
	<g id="q8a-10">
		<path class="st2" d="M925.2,752.2l17.8,0.2v-37.8l3.5-8.8c0,0,24.8,22.8,58.5,12.2c1.5,3.5,5.5,14.8,5.5,14.8l-25.8,10l13.2,36.8
			h-48c0,0-18.8,1.8-24-17.2C924.8,753.5,925.2,752.2,925.2,752.2z"/>
		<path class="st2" d="M991.8,680.2c-8.8,2.5-21.8-6.8-21.8-6.8l-17.2,17.8c13.3,13.2,33.8,13.7,44.2,13l-5-24
			C991.9,680.2,991.8,680.2,991.8,680.2z"/>
	</g>
	<g id="q8a-9">
		<polygon class="st2" points="1019.5,730.2 1014.2,715 1073.2,694.8 1084.8,728 1046.5,741.5 1039.8,723.2 		"/>
		<path class="st2" d="M1083.8,668.3l-5.8-22.1l-5,4.5c0,0-71.6,26.7-81.1,29.5l5,24c4-0.3,6.5-0.7,6.5-0.7s71-24.5,76.8-27.8
			S1083.8,668.3,1083.8,668.3z"/>
	</g>
	<g id="q8a-6">
		<path class="st2" d="M1215.2,558c0,0-8.5-24.2-10.8-32.5c-1.2-4.5-4.7-8.5-7.5-11.1l-58,20l-15.6,25.4c8.7,4.9,18.5,12.9,25.3,25
			l66.7-24.2C1215.6,558.7,1215.2,558,1215.2,558z"/>
		<path class="st2" d="M1094,587.2c0,0,12-0.5,15.2,6.2s6.8,16.5,6,22s-3.2,15.2-9.2,16.5s-6,1.2-6,1.2l9,24c0,0,4.2,6.8,8.2,4.8
			s15-13.8,15-13.8s13-16,9.8-37s-19.8-34.5-19.8-34.5l-0.5-1c0,0-12.2-6.2-15-6.2s-8,3.2-9.8,7.5S1094,587.2,1094,587.2z"/>
	</g>
</g>
<g id="signs">
	<g id="lift">
		<rect id="lift-1" x="1003" y="583" width="45" height="45"/>
		<rect id="lift-2" x="1037" y="730" width="45" height="45"/>
	</g>
	<rect id="escalator" x="1065.5" y="589.5" width="45" height="45"/>
	<rect id="toilet" x="998" y="734" width="45" height="45"/>
</g>
</svg>
