<?xml version="1.0" encoding="utf-8"?>
<!-- Generator: Adobe Illustrator 19.2.0, SVG Export Plug-In . SVG Version: 6.00 Build 0)  -->
<svg version="1.1" id="Layer_1" xmlns="http://www.w3.org/2000/svg" xmlns:xlink="http://www.w3.org/1999/xlink" x="0px" y="0px"
	 viewBox="0 0 1120.6 892" style="enable-background:new 0 0 1120.6 892;" xml:space="preserve">
<style type="text/css">
	.st0{fill:#868686;stroke:#6B6B6B;stroke-miterlimit:10;}
	.st1{fill:#BFBFBF;stroke:#494949;stroke-miterlimit:10;}
	.st2{fill:#494949;stroke:#212121;stroke-miterlimit:10;}
</style>
<g id="background">
</g>
<g id="etc">
	<polygon class="st0" points="694,461.1 693.9,461.5 694,461.5 	"/>
	<polygon class="st0" points="700,499.1 705.3,464.1 694,462 694,461.5 693.9,461.5 688.3,497.7 	"/>
	<polygon class="st0" points="856.8,527.9 863,494 827.6,487.3 821.9,522.3 	"/>
	<polygon class="st0" points="425,292.1 425,277.4 390,279 389.1,312.2 425,312.2 	"/>
	<path class="st1" d="M821,522.6l5.8-35l-122.4-23.2l-5.3,35l-11.6-1.4v0v0l5.6-36.2l-58.5,1.3l-0.4-38.4l58.4-1.2l-4.5-317.2
		l-188,1v167l-50.4,2.3v15.9l0,0l0,0h-25.6v20.1l0,0l0,0h-35.9l0,0.2l-212.1,5.5c-37,189,72.7,304.3,72.7,304.3s26.7-18.3,29.3-20
		s8.3,0.7,8.3,0.7s18.3,27.7,20.7,31.3s4.7,1.7,10,2.3s4.7,7.3,4.7,7.3l84.3,16.7l5.7-6l101.3,18.7l1.7,7.7l83,15.7l5.3-6.2
		l12.7,2.2l32.7-22.7l4,0.3l15,18c0,0-1.7,0,5.3,0.7c6,1.7,3.3,8,3.3,8l136,22l2-7l8,2L856,528.2L821,522.6z"/>
	<polygon class="st0" points="450.6,276.3 425,277.4 425,292.1 450.6,292.1 	"/>
	<path class="st0" d="M263.5,406.5l14,1l0.5-15l53.5,0.5c0,0,1,37.5,2,41.5s13.5,39.2,13.5,39.2L299,497l-6-13.5l-11.5,5
		c0,0-14.5-40.5-14.5-46S263.5,406.5,263.5,406.5z"/>
	<path class="st0" d="M348.5,393c0,0,1.8,13.9,3.3,27c1,8.7,1.7,17.1,2.7,20.5c8,7,20.6,19,20.6,19l22.4-12.5l10.5,15l30.5-21.5
		c0,0-13.5-21.5-15-47C401,393,348.5,393,348.5,393z"/>
	<polygon class="st0" points="307.4,584.3 311.1,569 340.5,549.5 462.5,571.6 454.9,613.1 	"/>
	<polygon class="st0" points="610.9,640.9 601.5,690 616.7,692.7 649.2,670.1 652.4,648.6 	"/>
	<polygon class="st0" points="671.8,576.5 669,587.8 653.2,584.8 647.8,608.2 493.3,577.4 484.5,618 610.9,640.9 652.4,648.6 
		652.4,648.6 652.4,648.6 649.2,670.1 649.3,670 653.3,670.3 668.3,688.3 688.2,579.8 	"/>
	<path id="_x3C_Path_x3E_" class="st0" d="M689,497.7L679,552l13,2.7c0,0-21,129.3-23.7,134c6,0.3,12,2.3,8.3,8.3
		c13.7,2,136.7,21.7,136.7,21.7l1.7-7l7.7,2L856.3,528l-34.7-6l5.7-34.7L705,463.7l-5,35.3L689,497.7z"/>
</g>
<g id="rooms">
	<path id="exotique-thai" class="st2" d="M468.9,497.8c0,0-26.8-1.5-46.2-19.3C409,466,397.5,447,397.5,447l-23.7,12.5l-104.2,52.1
		c0,0,4.8,19.1,14.9,39.4c5.8,11.5,22.9,33.3,22.9,33.3l3.8-15.3l29.4-19.5l120.7,22.1l4.3,0.8l10.7-57.8c0,0-4.1-3.2-5.4-6.3
		C468.5,502.8,468.9,497.8,468.9,497.8z"/>
	<path id="e4-7" class="st2" d="M496.7,460.7l0.7,18c0,0,10.2,5,10.7,16c20,3,50,8.7,50,8.7s-0.3-21,13.7-35.3
		c-4.7-4.3-6.7-6.3-6.7-6.3S532,476,496.7,460.7z"/>
	<path id="e4-8" class="st2" d="M507.3,503.7C502,518,489.7,517,489.7,517l-9,58l29.7,5.9l10.3-74.5
		C516.3,505.6,511.8,504.6,507.3,503.7z"/>
	<path id="e4-37" class="st2" d="M692,554.7l105.9,15.2l-2.7,19.4l48.4,9.1l-20.9,115.3l-7.7-2l-1.7,7L676.7,697
		c-2.2-8.3-2.2-8.3-8.3-8.3L692,554.7z"/>
	<path id="e4-9" class="st2" d="M555.9,544.3L555.9,544.3l12.8-15.3c-6.1-7.3-8.6-14.7-8.6-14.7s-18.1-3.4-39.3-7.8l-10.3,74.5l40,8
		L555.9,544.3L555.9,544.3z"/>
	<path id="e4-12" class="st2" d="M656.1,564.7L656.1,564.7L656.1,564.7l2.7-16.9c-12.1-2.5-26.3-5.3-40.2-8L608,600.5l39.3,7.9
		l5.8-23.5l15.8,2.8l2.7-11l0.2,0l-0.8-9.4L656.1,564.7z"/>
	<path id="e4-13" class="st2" d="M692,554.7c0,0-14.1-3-33.2-6.8l-2.7,16.9l15,2.6l0,0l0,0l0.8,9.4l16.1,3L692,554.7z"/>
	<path id="e4-11" class="st2" d="M615.7,539.3c-10.9,4.3-19.9,4.6-27.2,2.7l-8.8,52.7l28.4,5.7l10.6-60.6
		C617.6,539.7,616.6,539.5,615.7,539.3z"/>
	<path id="e4-10" class="st2" d="M568.6,529l-12.8,15.3l-5.5,44.7l29.2,5.8l8.8-52.7C579.6,539.8,573.2,534.4,568.6,529z"/>
	<path id="e4-14" class="st2" d="M634,476.3c0,0,15.7,25,0.3,47.3c2,3.3,3,5,3,5l22,3.3l10-54.3l-31.3-6L634,476.3z"/>
	<path id="e4-3" class="st2" d="M423.7,393l23-1c0,0,0.7,25.7,10.7,36.3c-15,10.3-18.3,12.3-18.3,12.3S425,419.3,423.7,393z"/>
	<path id="e4-4" class="st2" d="M461,391.3h23.3l0.7,51C485,442.3,462,429.7,461,391.3z"/>
	<polygon id="e4-26" class="st2" points="525.7,391.3 525.7,407.3 545.7,425.8 566.6,406.3 551.7,390.7 	"/>
	<path id="e4-1" class="st2" d="M425.1,352.1l-0.8-32.1l-38.9,0.9c0,0,0.3,41.7,0.7,48.7c1,5.3,6.3,6.7,6.3,6.7l33.4-0.4
		L425.1,352.1L425.1,352.1z"/>
	<polygon id="eds4-1" class="st2" points="689,106.1 501.1,107 500.9,274 466.7,275.3 467.7,319 424.3,320.1 425.1,352.1 
		468.3,352.8 468.3,352.8 468.3,352.8 468.9,375.4 504.3,375 504.7,354.7 530.3,327 531,285.7 559.3,286 559.7,328 576.3,352.7 
		577,369.7 635.3,424.7 635.5,424.7 675.2,380.6 692.8,380.6 	"/>
	<polygon id="e4-2" class="st2" points="425.1,352.1 425.7,375.9 468.9,375.4 468.3,352.8 	"/>
	<polygon id="e4-5" class="st2" points="692.8,380.6 675.2,380.6 635.5,424.7 693.3,423 	"/>
	<polygon id="e4-34" class="st2" points="705,463.7 700,499 689,497.7 685.5,516.6 719,523.1 729,468.3 	"/>
	<polygon id="e4-35" class="st2" points="757.6,530 719,523.1 729,468.3 769.3,476 	"/>
	<polygon id="e4-36" class="st2" points="827.3,487.3 812.7,484.5 801.3,539.3 852.4,549.8 856.3,528 821.7,522 	"/>
	<rect id="eds4-4" x="538.7" y="217.5" class="st2" width="36" height="22.5"/>
	<path id="e4-28" class="st2" d="M527.5,422.6l32.5,28.9c0,0-8.8,4-32.5,5C527.5,437,527.5,422.6,527.5,422.6z"/>
	<rect id="eds4-2" x="538.7" y="240" class="st2" width="18" height="18"/>
	<rect id="eds4-3" x="556.7" y="240" class="st2" width="18" height="18"/>
	<rect id="e4-32" x="496" y="391" class="st2" width="9.9" height="21"/>
	<rect id="e4-33" x="505.9" y="391" class="st2" width="9.9" height="21"/>
	<rect id="e4-31" x="496" y="412" class="st2" width="19.8" height="19.8"/>
	<polygon id="e4-30b" class="st2" points="496,431.8 506.7,431.8 506.7,448.7 496,445.5 	"/>
	<polygon id="e4-30a" class="st2" points="506.7,448.7 515.8,451.4 515.8,431.8 506.7,431.8 	"/>
	<polygon id="e4-29" class="st2" points="516.4,455.5 527.5,456.5 527.5,422.6 516.4,412.8 	"/>
	<circle id="e4-38" class="st2" cx="538.7" cy="360" r="23"/>
	<polygon id="e4-25" class="st2" points="581.5,391 566.6,406.3 551.8,390.9 564.3,375.3 	"/>
	<polygon id="e4-24" class="st2" points="598.5,406.5 582.6,422.6 566.6,406.3 581.5,391 	"/>
	<polygon id="e4-23" class="st2" points="617.7,424 584.7,461.7 564,442.7 598.5,406.5 	"/>
	<polygon id="e4-27" class="st2" points="564,442.7 582.6,422.6 566.6,406.3 545.7,425.8 	"/>
	<polygon id="e4-16" class="st2" points="607,443.7 620,429.5 627,436 622.2,454.6 	"/>
	<polygon id="e4-17" class="st2" points="599.1,453.8 607,443.7 622.2,454.6 620.6,463.8 608.6,463.8 	"/>
	<path id="e4-30c" class="st2" d="M496,445.5l19.8,5.9v4.1c-6.1-0.6-12.7-2.6-19.8-6V445.5z"/>
	<polygon id="e4-15" class="st2" points="693.5,423.2 635,424.4 635.4,462.8 693.9,461.5 694,461.1 	"/>
	<path id="e4-22" class="st2" d="M600,477.3v21.8l-21.3-0.4C578.9,486.5,586.4,478.2,600,477.3z"/>
	<path id="e4-21" class="st2" d="M599.1,498.7l-1,21.2c-13.2-1.4-18.4-8.5-19.4-21.2L599.1,498.7z"/>
	<path id="e4-28_1_" class="st2" d="M600,477.3l-0.9,21.3l20.2-9C615.5,481.1,609,477.1,600,477.3z"/>
	<path id="e4-29_1_" class="st2" d="M599.1,498.7l20.2-9c2.8,5.6,2.6,12-0.6,19.2L599.1,498.7z"/>
	<path id="warp-zone" class="st2" d="M610.6,640.4l-126.4-22.9l8.8-40.7l-30.8-5.7l-7.7,41.5l-147.4-28.5l-20.1,18.4
		c0,0,18.3,27.7,20.7,31.3s4.7,1.7,10,2.3s4.7,7.3,4.7,7.3l84.3,16.7l5.7-6l101.3,18.7l1.7,7.7l83,15.7l5.3-6.2l-2.4-0.4
		L610.6,640.4z"/>
	<path id="e4-20" class="st2" d="M599.1,498.7l-1,21.2c9.3,0.3,16.2-3.4,20.7-11.1L599.1,498.7z"/>
	<g id="the-living_1_">
		<path id="the-living" class="st2" d="M307.4,584.6c0,0-17.9-23.8-22.9-33.6c-4.4-8.5-14.9-39.4-14.9-39.4l38.3-18.9L299,497
			l-6-13.5l-11.5,5c0,0-14.5-40.5-14.5-46s-3.5-36-3.5-36l14,1l0.5-15l53.5,0.5c0,0,1,37.5,2,41.5c1,3.8,12.4,35.9,13.4,38.9
			l28.2-13.9l-20.6-19l-6.1-47.5l17.7-0.1l0-0.2v-79.6L177,318c-37,189,72.7,304.3,72.7,304.3l37.7-19.3L307.4,584.6z"/>
		<path class="st2" d="M434,470c0,0,25.5,14.5,38,16.5c2-5.3,6.7-8.7,12.5-9.5c1.5-11,1-21.5,1-21.5l-13.5-10L434,470z"/>
	</g>
</g>
<g id="signs">
	<g id="escalator">
		<rect id="escalator-1" x="523" y="288" width="45" height="45"/>
		<rect id="escalator-2" x="283" y="378" width="45" height="45"/>
		<rect id="escalator-3" x="293" y="458" width="45" height="45"/>
		<rect id="escalator-4" x="608" y="477.6" width="17.8" height="17.8"/>
	</g>
	<g id="lift">
		<rect id="lift-1" x="416" y="261" width="45" height="45"/>
		<rect id="lift-2" x="674" y="458" width="45" height="45"/>
	</g>
	<g id="toilet">
		<rect id="toilet-1" x="384" y="272" width="45" height="45"/>
		<rect id="toilet-2" x="604" y="641" width="45" height="45"/>
		<rect id="toilet-3" x="818" y="485" width="45" height="45"/>
	</g>
</g>
</svg>
