<?xml version="1.0" encoding="utf-8"?>
<!-- Generator: Adobe Illustrator 16.0.0, SVG Export Plug-In . SVG Version: 6.00 Build 0)  -->
<!DOCTYPE svg PUBLIC "-//W3C//DTD SVG 1.1//EN" "http://www.w3.org/Graphics/SVG/1.1/DTD/svg11.dtd">
<svg version="1.1" id="Layer_1" xmlns="http://www.w3.org/2000/svg" xmlns:xlink="http://www.w3.org/1999/xlink" x="0px" y="0px"
	 width="1000px" height="1000px" viewBox="0 0 1000 1000" enable-background="new 0 0 1000 1000" xml:space="preserve">
<g id="background">
</g>
<g id="etc">
	<polygon fill="#868686" stroke="#6D6D6D" stroke-miterlimit="10" points="625.646,229.877 625.558,197.037 596.734,197.037 
		596.734,229.877 	"/>
	<path fill="#BFBFBF" stroke="#494949" stroke-miterlimit="10" d="M626.004,496.431l-0.357-266.554h-28.912l0,0l0,0v-32.84H448.421
		v148.581H223.987v16.063l-72.283-14.278l-3.57,16.062l63.805,13.832l0.446,2.231l-56.22,1.785c0,0-32.126,170.444,61.574,276.638
		c7.139-1.785,27.664-19.187,27.664-19.187l4.462-0.446l21.417,30.787l12.493,1.785c0,0,0.893,7.139,5.801,8.031
		s62.021,11.602,62.021,11.602l10.708-4.017l91.469,18.294l4.462,8.031l66.929,14.278l7.585-5.354l11.155,3.124l28.109-20.079
		l7.14,0.446l12.761,16.331l40.336-219.348l0,0L626.004,496.431z"/>
	<polygon fill="#BFBFBF" stroke="#494949" stroke-miterlimit="10" points="765.661,556.666 770.569,530.341 632.251,502.23 
		591.915,721.578 592.094,721.756 729.52,750.312 758.969,590.13 782.17,593.7 750.491,761.913 872.301,786.899 911.119,587.007 	
		"/>
	<path fill="#868686" stroke="#6D6D6D" stroke-miterlimit="10" d="M224.434,462.521c0,0-2.677,45.511,14.724,76.744
		c20.524-9.37,62.466-29.895,62.466-29.895s-10.262-26.771-8.924-45.512C260.575,462.966,224.434,462.521,224.434,462.521z"/>
	<path fill="#868686" stroke="#6D6D6D" stroke-miterlimit="10" d="M330.627,509.459l-0.893-0.893
		C329.912,508.835,330.181,509.191,330.627,509.459z"/>
	<path fill="#868686" stroke="#6D6D6D" stroke-miterlimit="10" d="M334.643,510.263c3.123-1.339,33.464-17.401,33.464-17.401
		s-5.801-33.911-4.016-41.496c-12.047,0.446-55.327-0.446-55.327-0.446s-0.269,31.322,6.067,43.905l14.457,13.207l0.089-0.089
		c0,0,0.179,0.179,0.357,0.535l0.893,0.893C331.519,510.263,332.946,510.977,334.643,510.263z"/>
	<path fill="#868686" stroke="#6D6D6D" stroke-miterlimit="10" d="M309.209,504.016l14.278,11.601l5.711-7.495l-13.831-12.583
		C315.724,496.252,309.209,504.016,309.209,504.016z"/>
	<path fill="#868686" stroke="#6D6D6D" stroke-miterlimit="10" d="M512.851,549.974c0,0-1.518-19.365,19.364-19.365
		s19.008,19.9,19.008,19.9s0.268,19.632-19.633,19.632C511.69,570.141,512.851,549.974,512.851,549.974z"/>
	<polygon fill="#868686" stroke="#6D6D6D" stroke-miterlimit="10" points="602.088,495.806 600.839,508.745 630.198,514.725 
		632.251,502.23 626.004,496.431 	"/>
	<polygon fill="#868686" stroke="#6D6D6D" stroke-miterlimit="10" points="617.259,523.47 611.012,554.881 622.167,556.934 
		627.967,525.611 	"/>
	<polygon fill="#868686" stroke="#6D6D6D" stroke-miterlimit="10" points="801.714,597.18 782.17,593.7 780.118,604.498 
		799.75,608.067 	"/>
	<polygon fill="#868686" stroke="#6D6D6D" stroke-miterlimit="10" points="801.714,597.18 799.75,608.067 799.75,608.067 
		799.75,608.067 780.118,604.498 772.622,642.959 795.556,646.351 798.233,634.035 819.472,637.604 826.075,601.553 	"/>
	<rect x="368.106" y="346.064" fill="#868686" stroke="#6D6D6D" stroke-miterlimit="10" width="23.202" height="14.278"/>
	<polygon fill="#868686" stroke="#6D6D6D" stroke-miterlimit="10" points="335.534,346.064 335.534,379.975 368.106,379.529 
		368.106,361.949 368.106,360.343 368.106,346.064 	"/>
	<path id="emporium-tower" fill="#868686" stroke="#6D6D6D" stroke-miterlimit="10" d="M573.621,646.796L573.621,646.796
		l-31.857-6.067l0,0l-33.554-6.336l0,0l-35.517-6.782l0,0l0,0l3.748-18.294l-16.509-2.23l0,0l-6.604-0.893l0,0l0,0l1.16-9.638
		l-9.905-1.518l0,0l0,0l0.714-8.924l-33.821-6.514l-0.714,7.317l0,0l0,0l-12.314-1.071l-1.07,7.229l0,0l0,0l-24.541-4.819
		l-2.944,18.294l0,0l0,0l-56.042-11.422l0,0l-10.977-2.231l-0.892,7.317l0,0l0,0l-24.273-4.908l-11.333,7.14l0.268,0.446
		c0,0-4.105,4.104-8.834,5.89l-6.336,29.716h0.089l19.9,30.52c0,0,9.191,1.071,12.493,1.785c0.893,6.692,5.8,8.031,5.8,8.031
		l62.02,11.601l10.709-4.016l91.469,18.294l4.462,8.031l66.929,14.278l7.585-5.354l11.155,3.123l28.109-20.078l7.139,0.446
		l12.762,16.33l12.493-68.892L573.621,646.796z"/>
</g>
<g id="rooms">
	<path id="e1-1" fill="#494949" stroke="#212121" stroke-miterlimit="10" d="M221.935,379.796c0,0-1.785,39.265-1.785,43.995
		c0,4.729,8.924,7.764,8.924,7.764l56.755,1.784l2.588-53.632L221.935,379.796z"/>
	<polygon id="e1-2" fill="#494949" stroke="#212121" stroke-miterlimit="10" points="288.328,379.707 285.829,433.339 
		307.157,433.964 311.173,379.618 	"/>
	<polygon id="e1-3" fill="#494949" stroke="#212121" stroke-miterlimit="10" points="368.106,379.529 311.173,379.618 
		307.157,433.964 364.715,435.749 	"/>
	<polygon id="e1-8" fill="#494949" stroke="#212121" stroke-miterlimit="10" points="277.619,595.306 277.619,595.306 
		301.892,600.304 302.873,592.986 302.873,592.986 302.873,592.986 313.85,595.217 318.044,561.039 306.443,538.551 
		259.415,560.682 255.845,585.668 266.286,602.445 	"/>
	<path id="eds1-4" fill="#494949" stroke="#212121" stroke-miterlimit="10" d="M372.925,588.346l8.567-52.65
		c-9.995-9.014-13.743-16.062-13.743-16.062l-12.493,9.815l-7.139-10.44l-41.585,19.543l11.601,22.488l0,0l0,0l-4.193,34.178
		l56.041,11.423L372.925,588.346L372.925,588.346z"/>
	<path id="e1-10a" fill="#494949" stroke="#212121" stroke-miterlimit="10" d="M398.447,585.937L398.447,585.937L398.447,585.937
		l12.314,1.07l0.714-7.317l0,0l0,0l14.457,2.767l3.391-21.596c0,0,0,0-25.968-9.638c-9.37-5.176-16.509-10.619-21.953-15.438
		l-8.566,52.65l24.54,4.819L398.447,585.937z"/>
	<path id="e1-12" fill="#494949" stroke="#212121" stroke-miterlimit="10" d="M495.003,564.876l-9.37-0.446l-9.103,44.887h0.089
		h-0.089l-3.748,18.294l35.517,6.782l6.961-46.226C500.446,580.403,495.003,564.876,495.003,564.876z"/>
	<path id="e1-13" fill="#494949" stroke="#212121" stroke-miterlimit="10" d="M546.226,589.06
		c-4.641,2.23-10.084,3.569-16.152,3.123c-5.801-0.356-10.709-1.963-14.902-4.104l-6.961,46.225l33.554,6.336l7.228-45.511
		L546.226,589.06z"/>
	<path id="e1-14" fill="#494949" stroke="#212121" stroke-miterlimit="10" d="M563.002,574.692
		c-3.837,5.086-9.459,10.887-16.776,14.367l2.766,6.157l0,0l0,0l-7.228,45.512l31.857,6.067l9.549-57.38L563.002,574.692z"/>
	<path id="e1-15" fill="#494949" stroke="#212121" stroke-miterlimit="10" d="M618.687,574.067l-49.349-9.816
		c0,0-2.142,4.819-6.336,10.441l20.257,14.635l0,0l0,0l-9.548,57.38l30.787,5.89L618.687,574.067z"/>
	<polygon id="e1-10b" fill="#494949" stroke="#212121" stroke-miterlimit="10" points="485.543,564.43 429.323,560.86 
		426.021,582.456 445.387,586.204 444.673,595.128 454.488,596.645 453.418,606.193 476.441,609.316 	"/>
	<path id="e1-7" fill="#494949" stroke="#212121" stroke-miterlimit="10" d="M257.63,608.87
		c-5.89-6.515-17.134-26.771-27.039-49.349l-56.042,27.039c9.905,25.701,23.827,50.33,43.191,71.391
		c6.247-1.16,28.556-20.257,28.556-20.257l4.997,0.892L257.63,608.87L257.63,608.87z"/>
	<path id="e1-6" fill="#494949" stroke="#212121" stroke-miterlimit="10" d="M166.429,562.109c2.32,8.21,5.086,16.331,8.121,24.362
		l56.042-27.039c-2.499-5.712-4.908-11.602-7.05-17.401L166.429,562.109z"/>
	<path id="e1-0" fill="#494949" stroke="#212121" stroke-miterlimit="10" d="M213.011,505.354
		c-5.354-34.535-0.625-125.826-0.625-125.826l-56.22,1.785c0,0-12.672,76.566,4.373,157.148l56.577-15.35
		C215.242,516.776,213.814,510.798,213.011,505.354z"/>
	<path id="e1-5" fill="#494949" stroke="#212121" stroke-miterlimit="10" d="M223.452,542.12c-2.409-6.425-4.64-12.851-6.425-19.008
		l-56.577,15.35c1.696,7.853,3.57,15.795,5.89,23.647L223.452,542.12z"/>
	<path id="e1-17" fill="#494949" stroke="#212121" stroke-miterlimit="10" d="M601.731,496.609h-57.38l-0.446,14.991
		c0,0,13.563,4.284,21.149,18.562l31.769-5.8L601.731,496.609z"/>
	<path id="e1-16" fill="#494949" stroke="#212121" stroke-miterlimit="10" d="M565.055,530.162
		c2.498,4.729,4.283,10.53,4.729,17.669c14.278,3.57,21.863,4.908,21.863,4.908l5.087-28.377L565.055,530.162z"/>
	<path id="eds1-1" fill="#494949" stroke="#212121" stroke-miterlimit="10" d="M597.002,229.609v-32.572H448.867v148.581
		l-41.229,0.179l-0.179,28.378h-28.199l-2.677,96.823c0,0,4.462,54.881,52.65,65.59c53.989,2.23,64.697,2.677,64.697,2.677
		s8.031-23.202,27.218-27.664c0-12.047,0-15.17,0-15.17h23.202v0.179l-7.14-0.179V341.156h88.792V229.609H597.002z M537.212,388.453
		h-30.341v-47.296h30.341V388.453z"/>
	
		<rect id="eds1-2" x="537.212" y="341.156" fill="#494949" stroke="#212121" stroke-miterlimit="10" width="88.792" height="155.274"/>
	
		<rect id="eds1-3" x="590.844" y="484.115" fill="#494949" stroke="#212121" stroke-miterlimit="10" width="35.16" height="12.315"/>
</g>
<g id="signs">
	<g id="escalator">
		<rect id="escalator-1" x="242.727" y="432.179" width="40.157" height="40.157"/>
		<rect id="escalator-2" x="254.328" y="513.386" width="40.157" height="40.157"/>
		<rect id="escalator-3" x="512.226" y="528.556" width="40.157" height="40.157"/>
		<rect id="escalator-4" x="501.518" y="343.833" width="40.156" height="40.157"/>
		<rect id="escalator-5" x="159.736" y="340.264" width="40.157" height="40.157"/>
	</g>
	<g id="lift">
		<rect id="lift-1" x="360.521" y="332.233" width="40.156" height="40.157"/>
		<rect id="lift-2" x="600.571" y="520.524" width="40.157" height="40.157"/>
		<rect id="lift-3" x="300.731" y="488.399" width="40.157" height="40.156"/>
		<rect id="lift-4" x="772.801" y="581.206" width="40.156" height="40.157"/>
	</g>
	<g id="toilet">
		<rect id="toilet-1" x="332.857" y="342.049" width="40.157" height="40.157"/>
		<rect id="toilet-2" x="591.647" y="193.021" width="40.157" height="40.157"/>
	</g>
	<g id="parking">
		<rect id="parking-1" x="659.468" y="616.901" width="40.157" height="40.157"/>
		<rect id="parking-2" x="812.957" y="644.565" width="40.157" height="40.157"/>
	</g>
	<rect id="bts" x="76.745" y="342.495" width="40.157" height="40.157"/>
	<rect id="stairs" x="769.944" y="616.901" width="40.157" height="40.157"/>
	<g id="entrance">
		<rect id="entrance-1" x="203.373" y="340.264" width="40.157" height="40.157"/>
		<rect id="entrance-2" x="600.571" y="544.619" width="40.157" height="40.157"/>
	</g>
</g>
</svg>
