<?xml version="1.0" encoding="utf-8"?>
<!-- Generator: Adobe Illustrator 19.2.0, SVG Export Plug-In . SVG Version: 6.00 Build 0)  -->
<svg version="1.1" id="Layer_1" xmlns="http://www.w3.org/2000/svg" xmlns:xlink="http://www.w3.org/1999/xlink" x="0px" y="0px"
	 viewBox="0 0 1120.6 892" style="enable-background:new 0 0 1120.6 892;" xml:space="preserve">
<style type="text/css">
	.st0{fill:#868686;stroke:#6D6D6D;stroke-miterlimit:10;}
	.st1{fill:#BFBFBF;stroke:#494949;stroke-miterlimit:10;}
	.st2{fill:#494949;stroke:#212121;stroke-miterlimit:10;}
</style>
<g id="background">
</g>
<g id="etc">
	<polygon class="st0" points="701.1,143.3 701,106.5 668.7,106.5 668.7,143.3 	"/>
	<path class="st1" d="M701.5,442l-0.4-298.7h-32.4l0,0l0,0v-36.8H502.5V273H251v18l-81-16l-4,18l71.5,15.5l0.5,2.5l-63,2
		c0,0-36,191,69,310c8-2,31-21.5,31-21.5l5-0.5l24,34.5l14,2c0,0,1,8,6.5,9s69.5,13,69.5,13l12-4.5l102.5,20.5l5,9l75,16l8.5-6
		l12.5,3.5l31.5-22.5l8,0.5l14.3,18.3l45.2-245.8l0,0L701.5,442z"/>
	<polygon class="st1" points="858,509.5 863.5,480 708.5,448.5 663.3,694.3 663.5,694.5 817.5,726.5 850.5,547 876.5,551 841,739.5 
		977.5,767.5 1021,543.5 	"/>
	<path class="st0" d="M251.5,404c0,0-3,51,16.5,86c23-10.5,70-33.5,70-33.5s-11.5-30-10-51C292,404.5,251.5,404,251.5,404z"/>
	<path class="st0" d="M370.5,456.6l-1-1C369.7,455.9,370,456.3,370.5,456.6z"/>
	<path class="st0" d="M375,457.5c3.5-1.5,37.5-19.5,37.5-19.5s-6.5-38-4.5-46.5c-13.5,0.5-62-0.5-62-0.5s-0.3,35.1,6.8,49.2
		l16.2,14.8l0.1-0.1c0,0,0.2,0.2,0.4,0.6l1,1C371.5,457.5,373.1,458.3,375,457.5z"/>
	<path class="st0" d="M346.5,450.5l16,13l6.4-8.4L353.4,441C353.8,441.8,346.5,450.5,346.5,450.5z"/>
	<path class="st0" d="M574.7,502c0,0-1.7-21.7,21.7-21.7s21.3,22.3,21.3,22.3s0.3,22-22,22S574.7,502,574.7,502z"/>
	<polygon class="st0" points="674.7,441.3 673.3,455.8 706.2,462.5 708.5,448.5 701.5,442 	"/>
	<polygon class="st0" points="691.7,472.3 684.7,507.5 697.2,509.8 703.7,474.7 	"/>
	<polygon class="st0" points="898.4,554.9 876.5,551 874.2,563.1 896.2,567.1 	"/>
	<polygon class="st0" points="898.4,554.9 896.2,567.1 896.2,567.1 896.2,567.1 874.2,563.1 865.8,606.2 891.5,610 894.5,596.2 
		918.3,600.2 925.7,559.8 	"/>
	<rect x="412.5" y="273.5" class="st0" width="26" height="16"/>
	<polygon class="st0" points="376,273.5 376,311.5 412.5,311 412.5,291.3 412.5,289.5 412.5,273.5 	"/>
	<path id="emporium-tower" class="st0" d="M642.8,610.5L642.8,610.5l-35.7-6.8l0,0l-37.6-7.1l0,0l-39.8-7.6l0,0l0,0l4.2-20.5
		l-18.5-2.5l0,0l-7.4-1l0,0l0,0l1.3-10.8l-11.1-1.7l0,0l0,0l0.8-10l-37.9-7.3l-0.8,8.2l0,0l0,0l-13.8-1.2l-1.2,8.1l0,0l0,0
		l-27.5-5.4l-3.3,20.5l0,0l0,0l-62.8-12.8l0,0l-12.3-2.5l-1,8.2l0,0l0,0l-27.2-5.5l-12.7,8l0.3,0.5c0,0-4.6,4.6-9.9,6.6l-7.1,33.3
		l0.1,0l22.3,34.2c0,0,10.3,1.2,14,2c1,7.5,6.5,9,6.5,9l69.5,13l12-4.5l102.5,20.5l5,9l75,16l8.5-6l12.5,3.5l31.5-22.5l8,0.5
		l14.3,18.3l14-77.2L642.8,610.5z"/>
</g>
<g id="rooms">
	<path id="e1-1" class="st2" d="M248.7,311.3c0,0-2,44-2,49.3s10,8.7,10,8.7l63.6,2l2.9-60.1L248.7,311.3z"/>
	<polygon id="e1-2" class="st2" points="323.1,311.2 320.3,371.3 344.2,372 348.7,311.1 	"/>
	<polygon id="e1-3" class="st2" points="412.5,311 348.7,311.1 344.2,372 408.7,374 	"/>
	<polygon id="e1-8" class="st2" points="311.1,552.8 311.1,552.8 338.3,558.4 339.4,550.2 339.4,550.2 339.4,550.2 351.7,552.7 
		356.4,514.4 343.4,489.2 290.7,514 286.7,542 298.4,560.8 	"/>
	<path id="eds1-4" class="st2" d="M417.9,545l9.6-59c-11.2-10.1-15.4-18-15.4-18l-14,11l-8-11.7l-46.6,21.9l13,25.2l0,0l0,0
		l-4.7,38.3l62.8,12.8L417.9,545L417.9,545z"/>
	<path id="e1-10a" class="st2" d="M446.5,542.3L446.5,542.3L446.5,542.3l13.8,1.2l0.8-8.2l0,0l0,0l16.2,3.1l3.8-24.2
		c0,0,0,0-29.1-10.8c-10.5-5.8-18.5-11.9-24.6-17.3l-9.6,59l27.5,5.4L446.5,542.3z"/>
	<path id="e1-12" class="st2" d="M554.7,518.7l-10.5-0.5l-10.2,50.3l0.1,0l-0.1,0l-4.2,20.5l39.8,7.6l7.8-51.8
		C560.8,536.1,554.7,518.7,554.7,518.7z"/>
	<path id="e1-13" class="st2" d="M612.1,545.8c-5.2,2.5-11.3,4-18.1,3.5c-6.5-0.4-12-2.2-16.7-4.6l-7.8,51.8l37.6,7.1l8.1-51
		L612.1,545.8z"/>
	<path id="e1-14" class="st2" d="M630.9,529.7c-4.3,5.7-10.6,12.2-18.8,16.1l3.1,6.9l0,0l0,0l-8.1,51l35.7,6.8l10.7-64.3
		L630.9,529.7z"/>
	<path id="e1-15" class="st2" d="M693.3,529L638,518c0,0-2.4,5.4-7.1,11.7l22.7,16.4l0,0l0,0l-10.7,64.3l34.5,6.6L693.3,529z"/>
	<polygon id="e1-10b" class="st2" points="544.1,518.2 481.1,514.2 477.4,538.4 499.1,542.6 498.3,552.6 509.3,554.3 508.1,565 
		533.9,568.5 	"/>
	<path id="e1-7" class="st2" d="M288.7,568c-6.6-7.3-19.2-30-30.3-55.3L195.6,543c11.1,28.8,26.7,56.4,48.4,80
		c7-1.3,32-22.7,32-22.7l5.6,1L288.7,568C288.7,568,288.7,568,288.7,568z"/>
	<path id="e1-6" class="st2" d="M186.5,515.6c2.6,9.2,5.7,18.3,9.1,27.3l62.8-30.3c-2.8-6.4-5.5-13-7.9-19.5L186.5,515.6z"/>
	<path id="e1-0" class="st2" d="M238.7,452c-6-38.7-0.7-141-0.7-141l-63,2c0,0-14.2,85.8,4.9,176.1l63.4-17.2
		C241.2,464.8,239.6,458.1,238.7,452z"/>
	<path id="e1-5" class="st2" d="M250.4,493.2c-2.7-7.2-5.2-14.4-7.2-21.3l-63.4,17.2c1.9,8.8,4,17.7,6.6,26.5L250.4,493.2z"/>
	<path id="e1-17" class="st2" d="M674.3,442.2H610l-0.5,16.8c0,0,15.2,4.8,23.7,20.8l35.6-6.5L674.3,442.2z"/>
	<path id="e1-16" class="st2" d="M633.2,479.8c2.8,5.3,4.8,11.8,5.3,19.8c16,4,24.5,5.5,24.5,5.5l5.7-31.8L633.2,479.8z"/>
	<path id="eds1-1" class="st2" d="M669,143v-36.5H503V273l-46.2,0.2l-0.2,31.8H425l-3,108.5c0,0,5,61.5,59,73.5
		c60.5,2.5,72.5,3,72.5,3s9-26,30.5-31c0-13.5,0-17,0-17h26l0,0.2l-8-0.2V268h99.5V143H669z M602,321h-34v-53h34V321z"/>
	<rect id="eds1-2" x="602" y="268" class="st2" width="99.5" height="174"/>
	<rect id="eds1-3" x="662.1" y="428.2" class="st2" width="39.4" height="13.8"/>
</g>
<g id="signs">
	<g id="escalator">
		<rect id="escalator-1" x="272" y="370" width="45" height="45"/>
		<rect id="escalator-2" x="285" y="461" width="45" height="45"/>
		<rect id="escalator-3" x="574" y="478" width="45" height="45"/>
		<rect id="escalator-4" x="562" y="271" width="45" height="45"/>
		<rect id="escalator-5" x="179" y="267" width="45" height="45"/>
	</g>
	<g id="lift">
		<rect id="lift-1" x="404" y="258" width="45" height="45"/>
		<rect id="lift-2" x="673" y="469" width="45" height="45"/>
		<rect id="lift-3" x="337" y="433" width="45" height="45"/>
		<rect id="lift-4" x="866" y="537" width="45" height="45"/>
	</g>
	<g id="toilet">
		<rect id="toilet-1" x="373" y="269" width="45" height="45"/>
		<rect id="toilet-2" x="663" y="102" width="45" height="45"/>
	</g>
	<g id="parking">
		<rect id="parking-1" x="739" y="577" width="45" height="45"/>
		<rect id="parking-2" x="911" y="608" width="45" height="45"/>
	</g>
	<rect id="bts" x="86" y="269.5" width="45" height="45"/>
	<rect id="stairs" x="862.8" y="577" width="45" height="45"/>
	<g id="entrance">
		<rect id="entrance-1" x="227.9" y="267" width="45" height="45"/>
		<rect id="entrance-2" x="673" y="496" width="45" height="45"/>
	</g>
</g>
</svg>
