<?xml version="1.0" encoding="utf-8"?>
<!-- Generator: Adobe Illustrator 16.0.0, SVG Export Plug-In . SVG Version: 6.00 Build 0)  -->
<!DOCTYPE svg PUBLIC "-//W3C//DTD SVG 1.1//EN" "http://www.w3.org/Graphics/SVG/1.1/DTD/svg11.dtd">
<svg version="1.1" id="Layer_1" xmlns="http://www.w3.org/2000/svg" xmlns:xlink="http://www.w3.org/1999/xlink" x="0px" y="0px"
	 width="1120.58px" height="892px" viewBox="0 0 1120.58 892" enable-background="new 0 0 1120.58 892" xml:space="preserve">
<g id="background">
</g>
<g id="etc">
	<polygon fill="#868686" stroke="#6B6B6B" stroke-miterlimit="10" points="499.592,323.25 498.996,287.513 463.304,288.44 
		463.669,323.25 	"/>
	<path fill="#BFBFBF" d="M675.476,502.951L675.476,502.951l7.399-32.451H630.5c0,0-4.333-18-22-18c-17.333,0-20.071,18-20.071,18
		l-2.295,48.193l103.463,1.526l2.23-13.815L675.476,502.951L675.476,502.951z"/>
	<polygon fill="#868686" stroke="#6B6B6B" stroke-miterlimit="10" points="682.875,470.5 675.476,502.951 691.827,506.405 
		697.623,470.5 	"/>
	<ellipse fill="#868686" stroke="#6B6B6B" stroke-miterlimit="10" cx="601.333" cy="505.333" rx="21.333" ry="21.667"/>
	<path id="emporium-suites" fill="#BFBFBF" stroke="#494949" stroke-miterlimit="10" d="M584.813,519.037
		c-4.918-0.171-37.236-1.963-55.146-19.87C498.5,468,502.013,451.943,502.013,451.943l-3.153-89.778l-115.961,0.778l-0.489-37.923
		L178,327c0,0-52,143,70.5,297.5l35-22.5l0.224,0.322l0.04,0.059l18.398-110.754l280.944,52.782l0.049-0.521l2.251-24.147
		C585.203,519.511,585.004,519.277,584.813,519.037z"/>
</g>
<g id="rooms">
	<path id="aisdc" fill="#494949" stroke="#212121" stroke-miterlimit="10" d="M851,484l1.5-7.5l-151-27.5l-0.029-2.337
		l-9.644,59.741l-2.23,13.815l-71.84-1.062c-3.913,4.789-9.815,7.839-16.423,7.839c-6.334,0-12.021-2.807-15.928-7.259
		l-2.251,24.147l-0.049,0.521l-280.944-52.783L283.764,602.38L306,634.5l12,2l3,7.5l83,15l6-5.5l100,19l1,7l83,15.5l5.5-5.5l13,2
		l31-22h5l16,19.5l13,1.5l0.5,5L809,718l0.5-6l9.5,1l41.5-228.5L851,484z"/>
	<path id="emprive-cineclub_1_" fill="#494949" stroke="#212121" stroke-miterlimit="10" d="M697.5,124l-199,2l0.496,161.513
		l0.596,35.737h-35.923l-0.365-34.811L384,290.5l0.5,34.5l-2.093,0.021l0.489,37.923l115.961-0.778l3.153,89.778
		c0,0-4.232,15.104,26.487,46.057c19.396,19.543,48.974,20.729,56.066,20.722c-2.857-3.687-4.566-8.333-4.566-13.387
		c0-6.632,2.938-12.563,7.558-16.538l0.871-18.296c0,0,2.571-18,20.071-18c18,0,22,18,22,18h52.375h14.748l3.848-23.837L697.5,124z"
		/>
	
		<rect id="thann-spa" x="382.407" y="288.44" fill="#494949" stroke="#212121" stroke-miterlimit="10" width="82.408" height="74.504"/>
</g>
<g id="signs">
	<rect id="toilet" x="459" y="282" width="45" height="45"/>
	<rect id="lift" x="665" y="463" width="45" height="45"/>
	<rect id="escalator" x="579" y="481" width="45" height="45"/>
</g>
</svg>
