<?xml version="1.0" encoding="utf-8"?>
<!-- Generator: Adobe Illustrator 16.0.0, SVG Export Plug-In . SVG Version: 6.00 Build 0)  -->
<!DOCTYPE svg PUBLIC "-//W3C//DTD SVG 1.1//EN" "http://www.w3.org/Graphics/SVG/1.1/DTD/svg11.dtd">
<svg version="1.1" id="Layer_1" xmlns="http://www.w3.org/2000/svg" xmlns:xlink="http://www.w3.org/1999/xlink" x="0px" y="0px"
	 width="1000px" height="1000px" viewBox="0 0 1000 1000" enable-background="new 0 0 1000 1000" xml:space="preserve">
<g id="background">
</g>
<g id="etc">
	<polygon fill="#868686" stroke="#6B6B6B" stroke-miterlimit="10" points="326.383,376.682 307.324,376.682 307.324,389.014 
		326.383,389.014 	"/>
	<path fill="#BFBFBF" stroke="#494949" stroke-miterlimit="10" d="M528.027,502.616l-3.363-247.758H377.429v121.824h-51.046v12.332
		l0,0l0,0h-18.983l0.074,15.844l-26.382,0.149v0.15l-148.729,3.737c0,0-41.48,94.768,52.317,226.831
		c0,0,20.927-15.694,23.169-16.815s5.231,1.868,5.231,1.868l17.19,23.916c0,0,5.979-2.242,8.221,1.495s5.232,5.231,5.232,5.231
		s44.096,8.595,51.943,9.716c7.848,1.121,11.51-2.69,11.51-2.69s55.307,10.464,66.518,11.585c6.353,0,10.463,7.474,10.463,7.474
		l48.206,8.969c0,0,9.717,4.484,12.332,0.373c2.616-4.11,4.484-2.242,4.484-2.242l7.101,2.242l23.916-16.815l5.605,0.747
		l9.342,11.884L528.4,502.69L528.027,502.616z"/>
	<polygon fill="#868686" stroke="#6B6B6B" stroke-miterlimit="10" points="307.324,389.014 307.324,376.682 281.017,376.682 
		281.017,404.933 307.399,404.858 	"/>
	<polygon fill="#868686" stroke="#6B6B6B" stroke-miterlimit="10" points="668.461,579.447 666.891,588.49 666.891,588.49 
		666.891,588.49 652.242,585.8 646.786,615.321 665.77,619.432 668.236,607.772 683.932,610.986 688.565,583.482 	"/>
	<polygon fill="#868686" stroke="#6B6B6B" stroke-miterlimit="10" points="668.461,579.447 653.887,576.606 652.242,585.8 
		666.891,588.49 	"/>
	<polygon fill="#BFBFBF" stroke="#494949" stroke-miterlimit="10" points="639.014,544.47 642.75,525.037 528.4,502.69 
		495.142,682.661 495.516,683.109 609.865,704.036 634.529,572.496 653.961,576.233 653.887,576.606 688.565,583.482 
		688.565,583.482 688.565,583.482 683.932,610.986 683.932,610.986 683.932,610.986 668.236,607.772 665.77,619.432 665.77,619.432 
		665.77,619.432 646.786,615.321 628.55,715.247 729.447,733.932 759.342,568.76 	"/>
	<polygon fill="#868686" stroke="#6B6B6B" stroke-miterlimit="10" points="259.716,478.326 262.93,498.879 278.4,512.332 
		307.922,499.253 304.186,484.305 299.327,484.305 298.58,478.326 	"/>
	<polygon fill="#868686" stroke="#6B6B6B" stroke-miterlimit="10" points="260.09,507.474 265.471,501.346 276.682,511.062 
		271.45,517.339 	"/>
	<path fill="#868686" stroke="#6B6B6B" stroke-miterlimit="10" d="M428.251,544.843c0,0-1.868-17.189,15.471-17.189
		c16.667,0,16.442,16.442,16.442,16.442s0.972,15.695-15.694,15.695C427.877,559.791,428.251,544.843,428.251,544.843z"/>
	<polygon fill="#868686" stroke="#6B6B6B" stroke-miterlimit="10" points="516.068,514.798 525.785,516.592 520.927,542.451 
		511.211,540.583 	"/>
	<polyline fill="#868686" stroke="#6B6B6B" stroke-miterlimit="10" points="524.664,254.858 500.747,254.858 500.747,281.017 
		525.411,281.017 	"/>
	
		<rect id="e-spcae-2f" x="427.504" y="366.966" fill="#868686" stroke="#6B6B6B" stroke-miterlimit="10" width="26.905" height="41.106"/>
	<polygon fill="#868686" stroke="#6B6B6B" stroke-miterlimit="10" points="525.486,281.017 525.187,254.858 501.121,254.858 
		501.121,281.017 	"/>
	<path id="_x3C_Path_x3E_" fill="#868686" stroke="#6B6B6B" stroke-miterlimit="10" d="M191.704,472.721h13.453l0.747-9.716
		l36.996,0.373c0,0-1.121,36.622,10.09,55.681c-23.543,11.584-32.885,16.815-32.885,16.815l-1.121-3.736l-13.453,8.221
		C205.531,540.358,190.583,497.758,191.704,472.721z"/>
</g>
<g id="rooms">
	<polygon id="e2-8" fill="#494949" stroke="#212121" stroke-miterlimit="10" points="265.321,583.932 271.824,558.296 
		258.67,535.127 225.934,551.346 222.646,560.688 229.148,581.839 	"/>
	<path id="e2-14" fill="#494949" stroke="#212121" stroke-miterlimit="10" d="M402.018,608.67l7.698-54.335
		c-15.845,0.374-37.519-2.541-37.519-2.541s-24.664-2.989-39.836-9.492c-15.172-6.502-23.393-19.656-23.393-19.656l-13.453,8.222
		l-6.727-10.688l-30.119,14.947l13.154,23.169l-6.428,25.71l-36.173-2.167l-12.107,19.207l281.988,59.94l6.128-33.408
		L402.018,608.67z"/>
	<path id="e2-15" fill="#494949" stroke="#212121" stroke-miterlimit="10" d="M217.041,601.046c0,0-14.873,21.675-10.613,18.76
		c3.064-2.616,6.651,0.896,6.651,0.896l17.041,23.917c0,0,5.979-1.645,7.922,0.896c3.886,5.83,6.577,5.979,6.577,5.979
		s38.565,7.398,49.029,9.118c10.463,1.719,13.603-2.317,13.603-2.317c0.747,0.448,59.417,10.763,66.666,11.809
		c7.101,0.747,10.165,7.399,10.165,7.399s47.758,8.819,48.206,8.894c0.448,0.075,2.541,1.569,7.025,2.168
		c4.484,0.598,6.054-2.616,6.876-3.438s2.242-0.896,2.242-0.896l1.195,0.673l6.428,2.093l23.916-16.966l5.755,0.522l9.193,12.481
		l4.035-21.898L217.041,601.046z"/>
	<path id="e2-9" fill="#494949" stroke="#212121" stroke-miterlimit="10" d="M415.546,554.036c-1.794,0.149-3.737,0.299-5.83,0.299
		l-7.698,54.335l25.935,4.708l4.11-39.387C420.553,569.059,416.144,557.698,415.546,554.036z"/>
	<path id="e2-10" fill="#494949" stroke="#212121" stroke-miterlimit="10" d="M444.17,576.457c-4.708,0-8.744-0.972-12.182-2.466
		l-4.111,39.387l14.351,2.616l4.708-39.761C446.039,576.383,445.142,576.457,444.17,576.457z"/>
	<path id="e2-11" fill="#494949" stroke="#212121" stroke-miterlimit="10" d="M467.862,563.901
		c-4.634,5.605-11.584,11.435-20.927,12.406l-4.708,39.761l25.71,4.709l6.876-50.225L467.862,563.901z"/>
	<path id="e2-12" fill="#494949" stroke="#212121" stroke-miterlimit="10" d="M517.414,561.062l-42.601-8.222
		c0,0-2.317,5.456-6.951,11.137l6.876,6.576l0,0l0,0l-6.876,50.225l37.295,6.801L517.414,561.062z"/>
	<polygon id="e2-7" fill="#494949" stroke="#212121" stroke-miterlimit="10" points="339.836,404.186 339.836,404.335 
		314.873,404.335 314.873,452.69 346.039,452.69 346.039,404.186 	"/>
	<path id="e2-13" fill="#494949" stroke="#212121" stroke-miterlimit="10" d="M454.409,512.93c0,0,20.927,6.727,20.927,28.177
		c4.709,0.972,18.909,2.989,18.909,2.989l9.268-46.712h-49.104V512.93z"/>
	<path id="eds2-1" fill="#494949" stroke="#212121" stroke-miterlimit="10" d="M525.486,281.017h-24.365v-26.159H377.653v122.048
		h-37.893v27.205h6.203v48.506h0.225v12.481l-32.362,0.224c0,0-2.466,40.358,22.422,54.335c24.888,13.976,52.317,12.93,52.317,12.93
		h25.934c0,0,4.335-17.339,20.927-19.656v-15.695h18.983v0.149h49.104l0.225-1.121h24.439L525.486,281.017z M454.409,408.072
		h-26.905v-41.106h26.905V408.072z"/>
	<polygon id="e2-1" fill="#494949" stroke="#212121" stroke-miterlimit="10" points="174.141,407.773 172.646,450.299 
		194.32,450.598 194.32,407.324 	"/>
	<polygon id="e2-2" fill="#494949" stroke="#212121" stroke-miterlimit="10" points="194.32,407.324 194.32,450.598 
		215.695,450.896 216.293,406.801 	"/>
	<polygon id="e2-3" fill="#494949" stroke="#212121" stroke-miterlimit="10" points="216.293,406.801 215.695,450.896 
		229.148,451.046 229.447,406.502 	"/>
	<polygon id="e2-4" fill="#494949" stroke="#212121" stroke-miterlimit="10" points="229.447,406.502 229.148,451.046 
		244.17,451.271 245.067,406.128 	"/>
	<polygon id="e2-5" fill="#494949" stroke="#212121" stroke-miterlimit="10" points="245.067,406.128 244.17,451.271 
		257.324,451.42 258.819,405.83 	"/>
	<polygon id="e2-6" fill="#494949" stroke="#212121" stroke-miterlimit="10" points="306.428,404.708 258.819,405.83 
		257.324,451.42 307.549,452.167 	"/>
	
		<rect id="e2-12" x="314.327" y="551.881" transform="matrix(-0.9754 -0.2204 0.2204 -0.9754 520.3899 1185.8951)" fill="#494949" stroke="#212121" stroke-miterlimit="10" width="24.066" height="24.065"/>
	
		<rect id="e2-13" x="337.791" y="557.193" transform="matrix(-0.9754 -0.2204 0.2204 -0.9754 565.5956 1201.5521)" fill="#494949" stroke="#212121" stroke-miterlimit="10" width="24.065" height="24.066"/>
	<path id="eds2-2" fill="#494949" stroke="#212121" stroke-miterlimit="10" d="M173.767,407.848l-1.495,42.451l-49.103,2.392
		c1.196-15.246,3.886-29.82,7.997-43.871L173.767,407.848z"/>
	<path id="eds2-3" fill="#494949" stroke="#212121" stroke-miterlimit="10" d="M123.393,452.69c-0.748,27.803,0,48.132,8.819,76.158
		l22.347-2.392l-0.149-75.784L123.393,452.69z"/>
	<polygon id="eds2-8" fill="#494949" stroke="#212121" stroke-miterlimit="10" points="165.471,572.571 151.196,579.521 
		160.912,597.684 173.991,589.761 	"/>
	<polygon id="eds2-9" fill="#494949" stroke="#212121" stroke-miterlimit="10" points="173.991,589.761 160.912,597.684 
		172.496,618.46 185.949,610.389 	"/>
	<polygon id="eds2-10" fill="#494949" stroke="#212121" stroke-miterlimit="10" points="185.949,610.389 172.496,618.46 
		184.604,635.65 197.085,626.383 	"/>
	<path id="eds2-11" fill="#494949" stroke="#212121" stroke-miterlimit="10" d="M229.148,581.839l-22.72,37.967l-8.67,6.651
		c-13.303-16.442-22.795-32.212-32.287-53.812l25.935-16.891l5.68,8.222l25.561-17.115l3.363,4.484l-3.363,9.342L229.148,581.839z"
		/>
	
		<rect id="eds2-7" x="163.897" y="520.767" transform="matrix(-0.9991 0.0418 -0.0418 -0.9991 372.6512 1059.3069)" fill="#494949" stroke="#212121" stroke-miterlimit="10" width="22.72" height="25.56"/>
	
		<rect id="eds2-5" x="162.699" y="492.892" transform="matrix(-0.9991 0.0418 -0.0418 -0.9991 369.0931 1003.6312)" fill="#494949" stroke="#212121" stroke-miterlimit="10" width="22.72" height="25.56"/>
	
		<rect id="eds2-4" x="161.279" y="464.94" transform="matrix(-0.9991 0.0418 -0.0418 -0.9991 365.0858 947.8107)" fill="#494949" stroke="#212121" stroke-miterlimit="10" width="22.72" height="25.56"/>
	<path id="eds2-6" fill="#494949" stroke="#212121" stroke-miterlimit="10" d="M154.559,526.383l10.986,46.188l-14.275,6.801
		c-7.175-14.724-14.125-34.155-18.983-50.598L154.559,526.383z"/>
	<path id="eds2-16" fill="none" stroke="#494949" stroke-width="7" stroke-miterlimit="10" d="M191.704,472.721h13.453l0.747-9.716
		l36.996,0.373c0,0-1.121,36.622,10.09,55.681c-23.543,11.584-32.885,16.815-32.885,16.815l-1.121-3.736l-13.453,8.221
		C205.531,540.358,190.583,497.758,191.704,472.721z"/>
</g>
<g id="signs">
	<g id="escalator">
		<rect id="escalator-1" x="201.046" y="449.925" width="33.632" height="33.633"/>
		<rect id="escalator-2" x="261.584" y="455.157" width="33.632" height="33.632"/>
		<rect id="escalator-3" x="215.247" y="516.442" width="33.632" height="33.633"/>
		<rect id="escalator-4" x="427.504" y="527.653" width="33.632" height="33.632"/>
		<rect id="escalator-5" x="424.515" y="369.208" width="33.632" height="33.632"/>
	</g>
	<g id="lift">
		<rect id="lift-1" x="300.448" y="364.724" width="33.633" height="33.632"/>
		<rect id="lift-2" x="251.869" y="493.273" width="33.632" height="33.633"/>
		<rect id="lift-3" x="502.242" y="511.211" width="33.633" height="33.632"/>
		<rect id="lift-4" x="644.245" y="564.275" width="33.632" height="33.632"/>
	</g>
	<g id="toilet">
		<rect id="toilet-1" x="276.532" y="375.187" width="33.632" height="33.632"/>
		<rect id="toilet-2" x="496.263" y="249.626" width="33.633" height="33.632"/>
	</g>
	<g id="parking">
		<rect id="parking-1" x="552.316" y="595.665" width="33.633" height="33.633"/>
		<rect id="parking-2" x="679.372" y="617.339" width="33.633" height="33.633"/>
	</g>
	<rect id="entrance" x="502.242" y="537.22" width="33.633" height="33.632"/>
	<rect id="stairs" x="644.843" y="597.907" width="33.633" height="33.633"/>
</g>
</svg>
