<?xml version="1.0" encoding="utf-8"?>
<!-- Generator: Adobe Illustrator 16.0.0, SVG Export Plug-In . SVG Version: 6.00 Build 0)  -->
<!DOCTYPE svg PUBLIC "-//W3C//DTD SVG 1.1//EN" "http://www.w3.org/Graphics/SVG/1.1/DTD/svg11.dtd">
<svg version="1.1" xmlns="http://www.w3.org/2000/svg" xmlns:xlink="http://www.w3.org/1999/xlink" x="0px" y="0px"
	 width="1120.58px" height="892px" viewBox="0 0 1120.58 892" enable-background="new 0 0 1120.58 892" xml:space="preserve">
<g id="background">
</g>
<g id="etc">
	<polygon fill="#868686" stroke="#6B6B6B" stroke-miterlimit="10" points="436.858,293 436.72,278.368 411.667,278.771 411.667,293 
			"/>
	<polygon fill="#868686" stroke="#6B6B6B" stroke-miterlimit="10" points="411.667,293 411.667,293 411.667,278.771 
		376.667,279.333 377.333,314.333 411.667,314.333 	"/>
	<path fill="#BFBFBF" stroke="#494949" stroke-miterlimit="10" d="M855.333,508L860,480.333l-151-26.667l-22-15L681.333,114
		L499,116.667l2,160.667l-64.28,1.034L436.858,293l0,0l0,0h-25.192v21.333l0,0l0,0h-34.333L177,320c0,0-44,168,71,304
		c21-13,27-19,27-19s7-9,14,3s19,28.667,19,28.667l12,1.667l-0.333,6.333L401.333,660c0,0,7,2.667,11.667-4.333
		c9.333,0.667,100.333,19,100.333,19l0.333,6.667l84.667,15.333l4.333-5L616,693.333L646,671h8l14.333,17.333L818,716.667
		l31-173.333l25.333,4l-32,181.333l132.667,26l39-216L855.333,508z"/>
	<polygon fill="#868686" stroke="#6B6B6B" stroke-miterlimit="10" points="347,418.333 352,439.667 374,461 421.667,435.667 
		414,418 399,418.333 399,394.667 352.333,394.333 352.667,418.333 	"/>
	<path fill="#868686" stroke="#6B6B6B" stroke-miterlimit="10" d="M598.333,477.667c0,0-20.333,1.333-20.333,23.667
		c0,20.667,20.833,20.833,20.833,20.833s21.5,2.5,21.5-21.5C620.333,476,598.333,477.667,598.333,477.667z"/>
	<polygon fill="#868686" stroke="#6B6B6B" stroke-miterlimit="10" points="692.276,468.34 684.333,515.333 698,518 706.089,470.694 
			"/>
	<polygon fill="#868686" stroke="#6B6B6B" stroke-miterlimit="10" points="709,453.667 687,438.667 676.667,438.667 673,464.333 
		692.333,468 692.276,468.34 706.089,470.694 	"/>
	<polygon fill="#868686" stroke="#6B6B6B" stroke-miterlimit="10" points="895.311,552.045 874.333,547.333 872.204,559.478 
		893.196,563.429 	"/>
	<polygon fill="#868686" stroke="#6B6B6B" stroke-miterlimit="10" points="895.311,552.045 893.196,563.429 893.196,563.429 
		893.196,563.429 872.204,559.478 865.334,598.667 890,603 893,590 914.334,594 920.334,557.667 	"/>
	<polygon fill="#868686" stroke="#6B6B6B" stroke-miterlimit="10" points="682,152.667 649.333,152.667 649.336,113.993 
		681.333,114 	"/>
	<rect x="562.333" y="269.333" fill="#868686" stroke="#6B6B6B" stroke-miterlimit="10" width="32.667" height="51"/>
</g>
<g id="rooms">
	<polygon id="e3-3" fill="#494949" stroke="#212121" stroke-miterlimit="10" points="412,377 411.33,313.331 385,314.156 
		385,376.717 	"/>
	<polygon id="e3-2" fill="#494949" stroke="#212121" stroke-miterlimit="10" points="385,376.717 385,314.156 347,315.347 
		347,376.318 	"/>
	<polygon id="e3-1" fill="#494949" stroke="#212121" stroke-miterlimit="10" points="269,375.5 347,376.318 347,315.347 
		268.5,317.807 268.5,381.5 	"/>
	<path id="e3-9" fill="#494949" stroke="#212121" stroke-miterlimit="10" d="M637.251,624.052L637.251,624.052l-36.172-6.887l0,0
		l-38.643-7.357l0,0l-74.084-14.106l-11.571,71.53c19.592,3.713,36.155,6.996,36.469,7.519c0.75,1.25,0.5,6.5,0.5,6.5l84.75,15.25
		l4-5l13.5,1.75L646.25,671h8L668,688.25l0.67,0.126l9.736-56.488L637.251,624.052z"/>
	<path id="e3-12" fill="#494949" stroke="#212121" stroke-miterlimit="10" d="M567.947,570.152l4.702-33.831
		c-9.388-8.208-14.315-18.655-14.315-18.655l-17.363-0.602l-6.885,45.486L567.947,570.152z"/>
	<polygon id="e3-10" fill="#494949" stroke="#212121" stroke-miterlimit="10" points="534.086,562.55 534.086,562.55 
		534.086,562.55 540.971,517.064 501.295,515.689 488.352,595.702 562.437,609.808 567.947,570.152 	"/>
	<path id="e3-15" fill="#494949" stroke="#212121" stroke-miterlimit="10" d="M596.333,546c-9.686,0-17.615-4.373-23.685-9.679
		l-4.702,33.831l0,0l-5.511,39.656l38.643,7.357l10.356-73.433C607.05,545.152,602.047,546,596.333,546z"/>
	<path id="e3-11" fill="#494949" stroke="#212121" stroke-miterlimit="10" d="M653.608,520.27l-14.983-2.862
		c-3.233,7.828-10.924,21.056-27.189,26.325l-10.356,73.433l36.172,6.887L653.608,520.27z"/>
	<polygon id="imaginia" fill="#494949" stroke="#212121" stroke-miterlimit="10" points="855,508 860,480 709,453 697,523.667 
		696.723,523.606 678.355,631.878 678.406,631.888 668.67,688.376 818,716.5 849,543.5 874.5,547.5 920.125,557.722 
		926.646,521.744 	"/>
	<polygon id="em-playground" fill="#494949" stroke="#212121" stroke-miterlimit="10" points="926.646,521.744 920.125,557.722 
		920.25,557.75 914.25,593.75 893.25,590 890,603 865.25,598.25 842.25,728.5 974.75,754.75 1014,538.5 	"/>
	<path id="e3-13" fill="#494949" stroke="#212121" stroke-miterlimit="10" d="M640.667,511.333c0,0-0.553,2.469-2.042,6.074
		l14.983,2.862l-16.357,103.783l41.104,7.826l18.368-108.272L640.667,511.333z"/>
	<path id="e3-6" fill="#494949" stroke="#212121" stroke-miterlimit="10" d="M395.729,579.898l21.105,4.206l16.627-94.22
		c-2.953-2.991-5.965-6.39-9.001-10.244l-12.896,8.759L395.729,579.898z"/>
	<path id="e3-8" fill="#494949" stroke="#212121" stroke-miterlimit="10" d="M416.834,584.104l-13.514-2.693l-71.437-13.879
		l-12.196,72.221l-0.188,4.497L402,660c0,0,6.25,2.25,11-4.5c2.31,0.385,17.588,3.142,35.548,6.457l11.84-69.173L416.834,584.104z"
		/>
	<path id="power-mall" fill="#494949" stroke="#212121" stroke-miterlimit="10" d="M331.884,567.532L331.884,567.532
		l63.845,12.366l15.836-91.499l12.896-8.759c-6.836-8.678-13.793-19.679-20.461-33.64c-34,17-57,27.5-57,27.5s-12.5-28-18-52
		c-0.5-11.5,1-27,1-27l-62.5-1l1-12v-63.693l-91.17,2.857C177.33,320.664,131,484,248,624c0,0,25.25-16,27.25-19.5
		c3-3,8.25-5,13,2.5c0,0,18.25,28,19.75,29.25s11.75,2,11.75,2l-0.063,1.503L331.884,567.532L331.884,567.532z"/>
	<path id="e3-7" fill="#494949" stroke="#212121" stroke-miterlimit="10" d="M433.462,489.884l-16.627,94.22l43.554,8.68
		l13.829-80.789C471.234,511.901,453.759,510.446,433.462,489.884z"/>
	<polygon id="e3-5" fill="#494949" stroke="#212121" stroke-miterlimit="10" points="464.68,315.236 454.749,315.074 
		454.75,315.25 444.486,315.004 444.266,377.619 463.884,377.503 	"/>
	<polygon id="e3-4" fill="#494949" stroke="#212121" stroke-miterlimit="10" points="423.5,314.5 422,377.75 444.266,377.619 
		444.486,315.004 	"/>
	<path id="e3-14" fill="#494949" stroke="#212121" stroke-miterlimit="10" d="M612,458c28,8,30,39,30,39l24.5,4l10.248-61H612.5
		L612,458z"/>
	<path id="emporium-department-store" fill="#494949" stroke="#212121" stroke-miterlimit="10" d="M681.714,152.667h-32.38
		l0.002-38.231L499,116.5l2,160.5l-46.5,0.5l0.249,37.574l9.931,0.163l-0.795,62.267l0.616-0.003c0,0-0.5,9-0.5,25.5
		s13,24.5,13,24.5s-16,16.5-32.5,35c16.5,22,58,24.5,58,24.5l55,1c2.5-26.667,29-30.5,29-30.5L586,440h23h3.5h64.248l0.252-1.5
		l10,0.5L681.714,152.667z M595,320.333h-32.667v-51H595V320.333z"/>
</g>
<g id="signs">
	<g id="toilet">
		<rect id="toilet-1" x="643" y="110" width="45" height="45"/>
		<rect id="toilet-2" x="372" y="274" width="45" height="45"/>
	</g>
	<g id="lift">
		<rect id="lift-1" x="400" y="263" width="45" height="45"/>
		<rect id="lift-2" x="341" y="422" width="45" height="45"/>
		<rect id="lift-3" x="672" y="470" width="45" height="45"/>
		<rect id="lift-4" x="861" y="533" width="45" height="45"/>
	</g>
	<g id="escalator">
		<rect id="escalator-1" x="291" y="377" width="45" height="45"/>
		<rect id="escalator-2" x="356" y="384" width="45" height="45"/>
		<rect id="escalator-3" x="306" y="452" width="45" height="45"/>
		<rect id="escalator-4" x="578" y="475" width="45" height="45"/>
		<rect id="escalator-5" x="555" y="272" width="45" height="45"/>
	</g>
</g>
</svg>
