<?xml version="1.0" encoding="utf-8"?>
<!-- Generator: Adobe Illustrator 16.0.0, SVG Export Plug-In . SVG Version: 6.00 Build 0)  -->
<!DOCTYPE svg PUBLIC "-//W3C//DTD SVG 1.1//EN" "http://www.w3.org/Graphics/SVG/1.1/DTD/svg11.dtd">
<svg version="1.1" id="Layer_1" xmlns="http://www.w3.org/2000/svg" xmlns:xlink="http://www.w3.org/1999/xlink" x="0px" y="0px"
	 width="1000px" height="1000px" viewBox="0 0 1000 1000" enable-background="new 0 0 1000 1000" xml:space="preserve">
<g id="background">
</g>
<g id="etc">
	<polygon fill="#868686" stroke="#6B6B6B" stroke-miterlimit="10" points="619.312,513.475 619.222,513.832 619.312,513.832 	"/>
	<polygon fill="#868686" stroke="#6B6B6B" stroke-miterlimit="10" points="624.665,547.386 629.395,516.152 619.312,514.278 
		619.312,513.832 619.222,513.832 614.225,546.136 	"/>
	<polygon fill="#868686" stroke="#6B6B6B" stroke-miterlimit="10" points="764.591,573.086 770.123,542.834 738.533,536.855 
		733.446,568.089 	"/>
	<polygon fill="#868686" stroke="#6B6B6B" stroke-miterlimit="10" points="379.261,362.663 379.261,349.545 348.027,350.973 
		347.225,380.6 379.261,380.6 	"/>
	<path fill="#BFBFBF" stroke="#494949" stroke-miterlimit="10" d="M732.644,568.356l5.176-31.233L628.592,516.42l-4.729,31.233
		l-10.352-1.25l0,0l0,0l4.997-32.304l-52.204,1.16l-0.356-34.268l52.114-1.07l-4.016-283.063l-167.767,0.892v149.027l-44.977,2.053
		v14.188l0,0l0,0h-22.845v17.937l0,0l0,0h-32.036v0.178l-189.274,4.908c-33.018,168.66,64.876,271.551,64.876,271.551
		s23.827-16.33,26.146-17.848c2.32-1.517,7.407,0.625,7.407,0.625s16.331,24.719,18.473,27.932c2.142,3.213,4.194,1.517,8.924,2.053
		c4.729,0.535,4.194,6.514,4.194,6.514l75.228,14.903l5.086-5.354l90.398,16.688l1.517,6.871l74.067,14.011l4.729-5.533
		l11.334,1.964l29.181-20.258l3.569,0.268l13.386,16.063c0,0-1.517,0,4.729,0.624c5.354,1.518,2.945,7.14,2.945,7.14l121.363,19.632
		l1.784-6.246l7.14,1.784l30.252-166.071L732.644,568.356z"/>
	<polygon fill="#868686" stroke="#6B6B6B" stroke-miterlimit="10" points="402.106,348.563 379.261,349.545 379.261,362.663 
		402.106,362.663 	"/>
	<path fill="#868686" stroke="#6B6B6B" stroke-miterlimit="10" d="M235.142,464.751l12.493,0.893l0.446-13.386l47.742,0.446
		c0,0,0.892,33.464,1.785,37.033s12.047,34.981,12.047,34.981l-42.834,20.793l-5.354-12.048l-10.263,4.462
		c0,0-12.939-36.141-12.939-41.049S235.142,464.751,235.142,464.751z"/>
	<path fill="#868686" stroke="#6B6B6B" stroke-miterlimit="10" d="M310.994,452.704c0,0,1.606,12.404,2.945,24.094
		c0.892,7.764,1.517,15.26,2.409,18.294c7.139,6.247,18.383,16.955,18.383,16.955l19.989-11.154l9.37,13.386l27.218-19.187
		c0,0-12.048-19.187-13.386-41.941C357.844,452.704,310.994,452.704,310.994,452.704z"/>
	<polygon fill="#868686" stroke="#6B6B6B" stroke-miterlimit="10" points="274.317,623.416 277.619,609.763 303.855,592.361 
		412.726,612.083 405.943,649.116 	"/>
	<polygon fill="#868686" stroke="#6B6B6B" stroke-miterlimit="10" points="545.154,673.925 536.766,717.74 550.33,720.15 
		579.332,699.982 582.188,680.796 	"/>
	<polygon fill="#868686" stroke="#6B6B6B" stroke-miterlimit="10" points="599.5,616.455 597.002,626.539 582.902,623.862 
		578.083,644.744 440.211,617.259 432.357,653.489 545.154,673.925 582.188,680.796 582.188,680.796 582.188,680.796 
		579.332,699.982 579.422,699.893 582.991,700.16 596.377,716.224 614.136,619.4 	"/>
	<path id="_x3C_Path_x3E_" fill="#868686" stroke="#6B6B6B" stroke-miterlimit="10" d="M614.85,546.136l-8.924,48.456l11.601,2.41
		c0,0-18.74,115.385-21.149,119.578c5.354,0.268,10.709,2.053,7.406,7.407c12.227,1.784,121.988,19.364,121.988,19.364l1.518-6.246
		l6.871,1.784l29.984-165.715l-30.966-5.354l5.087-30.965l-109.139-21.061l-4.462,31.501L614.85,546.136z"/>
</g>
<g id="rooms">
	<path id="exotique-thai" fill="#494949" stroke="#212121" stroke-miterlimit="10" d="M418.437,546.226
		c0,0-23.916-1.339-41.228-17.224c-12.226-11.154-22.488-28.109-22.488-28.109l-21.149,11.154l-92.986,46.493
		c0,0,4.283,17.045,13.296,35.16c5.176,10.262,20.436,29.716,20.436,29.716l3.391-13.653l26.236-17.401l107.71,19.722l3.837,0.714
		l9.549-51.58c0,0-3.659-2.855-4.818-5.622C418.08,550.688,418.437,546.226,418.437,546.226z"/>
	<path id="e4-7" fill="#494949" stroke="#212121" stroke-miterlimit="10" d="M443.245,513.118l0.624,16.062
		c0,0,9.103,4.462,9.549,14.278c17.848,2.677,44.619,7.764,44.619,7.764s-0.268-18.74,12.226-31.501
		c-4.194-3.837-5.979-5.622-5.979-5.622S474.746,526.771,443.245,513.118z"/>
	<path id="e4-8" fill="#494949" stroke="#212121" stroke-miterlimit="10" d="M452.704,551.49
		c-4.729,12.761-15.706,11.869-15.706,11.869l-8.031,51.758l26.504,5.265l9.191-66.482
		C460.735,553.186,456.72,552.293,452.704,551.49z"/>
	<path id="e4-37" fill="#494949" stroke="#212121" stroke-miterlimit="10" d="M617.526,597.002l94.503,13.563l-2.409,17.312
		l43.19,8.121L734.16,738.89l-6.871-1.784l-1.518,6.246l-121.898-19.364c-1.963-7.407-1.963-7.407-7.407-7.407L617.526,597.002z"/>
	<path id="e4-9" fill="#494949" stroke="#212121" stroke-miterlimit="10" d="M496.073,587.721L496.073,587.721l11.423-13.653
		c-5.443-6.515-7.675-13.118-7.675-13.118s-16.151-3.034-35.07-6.96l-9.191,66.481l35.695,7.14L496.073,587.721L496.073,587.721z"/>
	<path id="e4-12" fill="#494949" stroke="#212121" stroke-miterlimit="10" d="M585.49,605.926L585.49,605.926L585.49,605.926
		l2.409-15.082c-10.798-2.23-23.47-4.729-35.874-7.139l-9.459,54.168l35.07,7.049l5.176-20.971l14.1,2.499l2.41-9.816h0.178
		l-0.714-8.389L585.49,605.926z"/>
	<path id="e4-13" fill="#494949" stroke="#212121" stroke-miterlimit="10" d="M617.526,597.002c0,0-12.583-2.678-29.627-6.068
		l-2.409,15.081l13.386,2.32l0,0l0,0l0.714,8.389l14.367,2.677L617.526,597.002z"/>
	<path id="e4-11" fill="#494949" stroke="#212121" stroke-miterlimit="10" d="M549.438,583.259
		c-9.727,3.837-17.758,4.105-24.272,2.409l-7.853,47.029l25.344,5.086l9.459-54.078
		C551.133,583.616,550.241,583.438,549.438,583.259z"/>
	<path id="e4-10" fill="#494949" stroke="#212121" stroke-miterlimit="10" d="M507.406,574.067l-11.422,13.653l-4.908,39.89
		l26.058,5.176l7.853-47.028C517.223,583.705,511.512,578.887,507.406,574.067z"/>
	<path id="e4-14" fill="#494949" stroke="#212121" stroke-miterlimit="10" d="M565.769,527.039c0,0,14.01,22.31,0.268,42.21
		c1.784,2.944,2.677,4.462,2.677,4.462l19.633,2.944l8.924-48.456l-27.932-5.354L565.769,527.039z"/>
	<path id="e4-3" fill="#494949" stroke="#212121" stroke-miterlimit="10" d="M378.102,452.704l20.524-0.893
		c0,0,0.624,22.935,9.548,32.394c-13.385,9.191-16.33,10.976-16.33,10.976S379.261,476.174,378.102,452.704z"/>
	<path id="e4-4" fill="#494949" stroke="#212121" stroke-miterlimit="10" d="M411.387,451.187h20.793l0.624,45.512
		C432.804,496.698,412.279,485.454,411.387,451.187z"/>
	<polygon id="e4-26" fill="#494949" stroke="#212121" stroke-miterlimit="10" points="469.124,451.187 469.124,465.465 
		486.972,481.974 505.622,464.572 492.325,450.651 	"/>
	<path id="e4-1" fill="#494949" stroke="#212121" stroke-miterlimit="10" d="M379.351,416.206l-0.714-28.646l-34.714,0.803
		c0,0,0.268,37.212,0.625,43.459c0.892,4.729,5.622,5.979,5.622,5.979l29.805-0.356L379.351,416.206L379.351,416.206z"/>
	<polygon id="eds4-1" fill="#494949" stroke="#212121" stroke-miterlimit="10" points="614.85,196.68 447.171,197.483 
		446.992,346.511 416.474,347.671 417.365,386.668 378.637,387.649 379.351,416.206 417.901,416.83 417.901,416.83 417.901,416.83 
		418.437,436.998 450.026,436.641 450.384,418.526 473.229,393.807 473.854,356.952 499.107,357.219 499.465,394.699 
		514.278,416.741 514.902,431.911 566.929,480.992 567.107,480.992 602.534,441.639 618.24,441.639 	"/>
	<polygon id="e4-2" fill="#494949" stroke="#212121" stroke-miterlimit="10" points="379.351,416.206 379.886,437.444 
		418.437,436.998 417.901,416.83 	"/>
	<polygon id="e4-5" fill="#494949" stroke="#212121" stroke-miterlimit="10" points="618.24,441.639 602.534,441.639 
		567.107,480.992 618.687,479.476 	"/>
	<polygon id="e4-34" fill="#494949" stroke="#212121" stroke-miterlimit="10" points="629.127,515.795 624.665,547.296 
		614.85,546.136 611.726,563.002 641.621,568.803 650.544,519.9 	"/>
	<polygon id="e4-35" fill="#494949" stroke="#212121" stroke-miterlimit="10" points="676.066,574.96 641.621,568.803 
		650.544,519.9 686.507,526.771 	"/>
	<polygon id="e4-36" fill="#494949" stroke="#212121" stroke-miterlimit="10" points="738.266,536.855 725.236,534.356 
		715.063,583.259 760.664,592.629 764.145,573.175 733.268,567.82 	"/>
	
		<rect id="eds4-4" x="480.725" y="296.091" fill="#494949" stroke="#212121" stroke-miterlimit="10" width="32.126" height="20.079"/>
	<path id="e4-28" fill="#494949" stroke="#212121" stroke-miterlimit="10" d="M470.73,479.118l29.002,25.79
		c0,0-7.854,3.569-29.002,4.462C470.73,491.969,470.73,479.118,470.73,479.118z"/>
	
		<rect id="eds4-2" x="480.725" y="316.17" fill="#494949" stroke="#212121" stroke-miterlimit="10" width="16.062" height="16.063"/>
	
		<rect id="eds4-3" x="496.787" y="316.17" fill="#494949" stroke="#212121" stroke-miterlimit="10" width="16.063" height="16.063"/>
	<rect id="e4-32" x="442.62" y="450.919" fill="#494949" stroke="#212121" stroke-miterlimit="10" width="8.835" height="18.74"/>
	<rect id="e4-33" x="451.455" y="450.919" fill="#494949" stroke="#212121" stroke-miterlimit="10" width="8.834" height="18.74"/>
	<rect id="e4-31" x="442.62" y="469.659" fill="#494949" stroke="#212121" stroke-miterlimit="10" width="17.669" height="17.669"/>
	<polygon id="e4-30b" fill="#494949" stroke="#212121" stroke-miterlimit="10" points="442.62,487.328 452.169,487.328 
		452.169,502.409 442.62,499.554 	"/>
	<polygon id="e4-30a" fill="#494949" stroke="#212121" stroke-miterlimit="10" points="452.169,502.409 460.289,504.818 
		460.289,487.328 452.169,487.328 	"/>
	<polygon id="e4-29" fill="#494949" stroke="#212121" stroke-miterlimit="10" points="460.824,508.478 470.73,509.37 
		470.73,479.118 460.824,470.373 	"/>
	<circle id="e4-38" fill="#494949" stroke="#212121" stroke-miterlimit="10" cx="480.725" cy="423.255" r="20.525"/>
	<polygon id="e4-25" fill="#494949" stroke="#212121" stroke-miterlimit="10" points="518.918,450.919 505.622,464.572 
		492.415,450.83 503.569,436.909 	"/>
	<polygon id="e4-24" fill="#494949" stroke="#212121" stroke-miterlimit="10" points="534.089,464.751 519.9,479.118 
		505.622,464.572 518.918,450.919 	"/>
	<polygon id="e4-23" fill="#494949" stroke="#212121" stroke-miterlimit="10" points="551.223,480.367 521.774,514.011 
		503.302,497.055 534.089,464.751 	"/>
	<polygon id="e4-27" fill="#494949" stroke="#212121" stroke-miterlimit="10" points="503.302,497.055 519.9,479.118 
		505.622,464.572 486.972,481.974 	"/>
	<polygon id="e4-16" fill="#494949" stroke="#212121" stroke-miterlimit="10" points="541.674,497.947 553.275,485.275 
		559.521,491.076 555.238,507.675 	"/>
	<polygon id="e4-17" fill="#494949" stroke="#212121" stroke-miterlimit="10" points="534.624,506.961 541.674,497.947 
		555.238,507.675 553.811,515.885 543.102,515.885 	"/>
	<path id="e4-30c" fill="#494949" stroke="#212121" stroke-miterlimit="10" d="M442.62,499.554l17.669,5.265v3.659
		c-5.443-0.535-11.333-2.32-17.669-5.354V499.554z"/>
	<polygon id="e4-15" fill="#494949" stroke="#212121" stroke-miterlimit="10" points="618.865,479.653 566.661,480.725 
		567.018,514.992 619.222,513.832 619.312,513.475 	"/>
	<path id="e4-22" fill="#494949" stroke="#212121" stroke-miterlimit="10" d="M535.428,527.932v19.454l-19.008-0.357
		C516.599,536.142,523.291,528.734,535.428,527.932z"/>
	<path id="e4-21" fill="#494949" stroke="#212121" stroke-miterlimit="10" d="M534.624,547.028l-0.892,18.919
		c-11.78-1.25-16.42-7.586-17.312-18.919H534.624z"/>
	<path id="e4-28" fill="#494949" stroke="#212121" stroke-miterlimit="10" d="M535.428,527.932l-0.804,19.008l18.026-8.032
		C549.26,531.322,543.459,527.753,535.428,527.932z"/>
	<path id="e4-29" fill="#494949" stroke="#212121" stroke-miterlimit="10" d="M534.624,547.028l18.026-8.031
		c2.499,4.997,2.32,10.708-0.535,17.134L534.624,547.028z"/>
	<path id="warp-zone" fill="#494949" stroke="#212121" stroke-miterlimit="10" d="M544.887,673.479L432.09,653.043l7.854-36.32
		l-27.485-5.086l-6.872,37.033L274.05,623.237l-17.937,16.42c0,0,16.331,24.719,18.472,27.932s4.194,1.517,8.924,2.053
		c4.729,0.535,4.194,6.514,4.194,6.514l75.228,14.903l5.087-5.354l90.397,16.688l1.518,6.871L534,723.273l4.729-5.533l-2.142-0.356
		L544.887,673.479z"/>
	<path id="e4-20" fill="#494949" stroke="#212121" stroke-miterlimit="10" d="M534.624,547.028l-0.892,18.919
		c8.299,0.268,14.456-3.034,18.472-9.906L534.624,547.028z"/>
	<g id="the-living">
		<path id="the-living" fill="#494949" stroke="#212121" stroke-miterlimit="10" d="M274.317,623.684
			c0,0-15.974-21.238-20.436-29.983c-3.926-7.586-13.296-35.16-13.296-35.16l34.178-16.866l-7.942,3.838l-5.354-12.048
			l-10.263,4.462c0,0-12.939-36.141-12.939-41.049s-3.123-32.126-3.123-32.126l12.493,0.893l0.446-13.386l47.742,0.446
			c0,0,0.892,33.464,1.785,37.033c0.893,3.392,11.065,32.037,11.958,34.714l25.165-12.404l-18.383-16.955l-5.443-42.388l15.795-0.09
			v-0.178v-71.034l-168.749,4.373c-33.018,168.66,64.876,271.551,64.876,271.551l33.643-17.223L274.317,623.684z"/>
		<path fill="#494949" stroke="#212121" stroke-miterlimit="10" d="M387.293,521.417c0,0,22.755,12.939,33.91,14.725
			c1.784-4.729,5.979-7.764,11.154-8.478c1.339-9.816,0.893-19.187,0.893-19.187l-12.047-8.924L387.293,521.417z"/>
	</g>
</g>
<g id="signs">
	<g id="escalator">
		<rect id="escalator-1" x="466.714" y="359.004" width="40.157" height="40.157"/>
		<rect id="escalator-2" x="252.543" y="439.318" width="40.157" height="40.157"/>
		<rect id="escalator-3" x="261.467" y="510.709" width="40.157" height="40.156"/>
		<rect id="escalator-4" x="542.566" y="528.199" width="15.885" height="15.885"/>
	</g>
	<g id="lift">
		<rect id="lift-1" x="371.229" y="334.91" width="40.157" height="40.157"/>
		<rect id="lift-2" x="601.464" y="510.709" width="40.157" height="40.156"/>
	</g>
	<g id="toilet">
		<rect id="toilet-1" x="342.674" y="344.726" width="40.157" height="40.157"/>
		<rect id="toilet-2" x="538.997" y="674.014" width="40.157" height="40.157"/>
		<rect id="toilet-3" x="729.966" y="534.803" width="40.157" height="40.157"/>
	</g>
</g>
</svg>
