<?xml version="1.0" encoding="utf-8"?>
<!-- Generator: Adobe Illustrator 16.0.0, SVG Export Plug-In . SVG Version: 6.00 Build 0)  -->
<!DOCTYPE svg PUBLIC "-//W3C//DTD SVG 1.1//EN" "http://www.w3.org/Graphics/SVG/1.1/DTD/svg11.dtd">
<svg version="1.1" id="Layer_1" xmlns="http://www.w3.org/2000/svg" xmlns:xlink="http://www.w3.org/1999/xlink" x="0px" y="0px"
	 width="1120.58px" height="892px" viewBox="0 0 1120.58 892" enable-background="new 0 0 1120.58 892" xml:space="preserve">
<g id="background">
</g>
<g id="etc">
	<path fill="#868686" d="M224.968,435.656l-59.348,9.331c2.353,18.279,6.035,37.745,11.53,57.843l55.188-21.195L224.968,435.656z"/>
	<path fill="#BFBFBF" stroke="#494949" stroke-miterlimit="10" d="M858.333,507.667l4-29.667l-176-33.333l-4.667-345l-192.333,4.667
		l3.333,168l-108.667,3l-138.667,2.333l-1,18L164,279l-3,18l70,14.333c0,0,2.667,2.667,1,3.333S170,317,170,317
		s-11.846,54.444-2.38,127.987l59.348-9.331l0,0l0,0l7.371,45.979l0,0l0,0L179.15,502.83C190.615,544.756,210.016,589.452,242,632
		c12-8,32-22.667,32-22.667l6.333,0.333l23.667,35L314.333,645l3.333,4.333l1,5L402.333,671c0,0,0-7.666,7.333-6.333
		S507.333,684,507.333,684s5,1,4.333,7c8,1.333,84.333,16.333,84.333,16.333s-0.333-7,7-6c7,1.333,9.667,2,9.667,2l32-24l5.333,1
		L648,694l171.667,34.667l32-183.333L877.333,550l-32.666,190.667l136.667,26.667l39.333-227.666L858.333,507.667z"/>
	<path fill="#868686" stroke="#6B6B6B" stroke-miterlimit="10" d="M342,393.5l42.5,1c0,0-1,35,9.5,53.5c-11,5.5-25,13.5-25,13.5
		L349,444c0,0-3-8.5-4.5-17S342,393.5,342,393.5z"/>
	<polygon fill="#868686" stroke="#6B6B6B" stroke-miterlimit="10" points="362,465 369.5,455 354,440.5 346.5,450.5 	"/>
	<path fill="#868686" stroke="#6B6B6B" stroke-miterlimit="10" d="M574,506c0,0-1-25.667,21.667-25.667
		c21.833,0,20.667,24,20.667,24s0.167,24-21.333,24C575,528.333,574,506,574,506z"/>
	<polygon fill="#868686" stroke="#6B6B6B" stroke-miterlimit="10" points="692,473.667 703.333,475.667 697.333,512 685.333,510 	
		"/>
	<polygon fill="#868686" stroke="#6B6B6B" stroke-miterlimit="10" points="383.667,275.333 383.667,312 419.667,312 419.667,292 
		420,292 420,274.556 	"/>
	<polygon fill="#868686" stroke="#6B6B6B" stroke-miterlimit="10" points="446,274 420,274.556 420,292 446,292 	"/>
	<polygon fill="#868686" stroke="#6B6B6B" stroke-miterlimit="10" points="875.333,550 924.167,560.167 917.833,598.833 
		895.334,594.667 892.667,608.167 866.334,603 	"/>
	<polygon fill="#868686" stroke="#6B6B6B" stroke-miterlimit="10" points="873.75,563 895.25,566.75 897.333,554.5 876.5,550.833 	
		"/>
	<line fill="none" stroke="#6B6B6B" stroke-miterlimit="10" x1="694.667" y1="526.667" x2="707.333" y2="448.333"/>
	<path fill="none" stroke="#6B6B6B" stroke-miterlimit="10" d="M177.15,502.83c0,0,4.517,16.503,7.517,23.17"/>
	<path id="emporium-gallery" fill="#868686" stroke="#6B6B6B" stroke-miterlimit="10" d="M295.5,500c0,0-28-42-21.5-107
		c20.5,0.5,47.5,0.5,47.5,0.5s-5,47.5,19,84C316,488,295.5,500,295.5,500z"/>
	<path id="emporium-tower" fill="#868686" stroke="#6B6B6B" stroke-miterlimit="10" d="M608.338,607.965L608.338,607.965
		l-37.298-6.876l0,0l-19.673-3.627l0,0l-18.577-3.424l0,0l-26.571-4.898l0,0l0,0l2.888-33.108l-10.82-0.75l0,0l0,0l0.856-8.698
		l-38.714-7.699l-0.094,0.784l-25.434-4.955l-3.957,18.201l-12.1-1.698l-2.408,19.729l-27.692-5.035l-30.524-5.55l-31.569-5.74
		l-4.269,21.897l-7.901-0.556l-0.564,6.674l-0.779-0.083l-1.116,10.277l-26.005-3.028l-0.26-0.03l-4.981,20.064
		c1.207,1.914,13.415,21.206,23.228,34.5C321,644,318.667,654,318.667,654s73,14.333,77.667,15s6.667,2.333,7.667-1.667
		s8-2.333,8-2.333s85.333,16.333,93.667,17.667s6,8,6,8l85,15.667c0,0-1-1.667,0.667-4.333S612,703.333,612,703.333l33.667-24.667
		l5.333,3L648,694l17.333,3l13.251-76.085L608.338,607.965z"/>
</g>
<g id="rooms">
	<path id="em-4" fill="#494949" stroke="#212121" stroke-miterlimit="10" d="M285.754,589.771l0.087-0.352l-24.786-54.593l0,0l0,0
		l21.09-11.26L272.333,501l-14.667-6.333l-72.333,31c18,57,58.333,106.333,58.333,106.333L274,609.667h6.667
		c0,0,0.042,0.066,0.106,0.167L285.754,589.771L285.754,589.771z"/>
	<polygon id="em-5" fill="#494949" stroke="#212121" stroke-miterlimit="10" points="308.485,582.052 308,582 308.485,582.052 
		320.276,504.873 282.333,524 282.145,523.566 261.055,534.826 285.841,589.418 285.841,589.418 286.014,589.8 312.019,592.828 
		313.136,582.55 	"/>
	<polygon id="em-6" fill="#494949" stroke="#212121" stroke-miterlimit="10" points="314.479,575.96 314.479,575.96 314.479,575.96 
		322.38,576.516 326.648,554.618 326.648,554.618 326.648,554.618 358.219,560.358 369.184,494.166 363.48,483.093 320.276,504.873 
		308.485,582.052 313.136,582.55 313.25,581.5 313.136,582.55 313.915,582.634 	"/>
	<path id="em-8" fill="#494949" stroke="#212121" stroke-miterlimit="10" d="M418.844,551.215L418.844,551.215L418.844,551.215
		l12.1,1.698l3.957-18.201l-0.232-0.045c0,0,1-1.333,6-35.333c-23-6.667-36.667-36.667-36.667-36.667l-5.28,2.662l5.144,7.313l0,0
		l0,0l-15.119,93.268l27.692,5.035L418.844,551.215z"/>
	<path id="em-9" fill="#494949" stroke="#212121" stroke-miterlimit="10" d="M501.962,517.955
		c-16.62-2.014-38.295-5.955-38.295-5.955l-3.239,26.883l38.714,7.699L501.962,517.955z"/>
	<path id="em-10" fill="#494949" stroke="#212121" stroke-miterlimit="10" d="M502.333,518c-0.123-0.015-0.248-0.03-0.371-0.045
		l-2.82,28.627l0,0l-0.856,8.698l10.82,0.75l0,0l0,0l-2.888,33.108l26.571,4.898l10.921-75.593
		C532.675,518.25,515.818,518,502.333,518z"/>
	<path id="em-11" fill="#494949" stroke="#212121" stroke-miterlimit="10" d="M560.379,529.437
		c-3.705-5.875-5.045-10.77-5.045-10.77s-4.654-0.1-11.623-0.223l-10.921,75.593l18.577,3.424L560.379,529.437z"/>
	<path id="em-12" fill="#494949" stroke="#212121" stroke-miterlimit="10" d="M577.661,545.219
		c-8.362-4.022-13.841-10.326-17.282-15.782l-9.013,68.025l19.673,3.627L577.661,545.219z"/>
	<path id="em-13" fill="#494949" stroke="#212121" stroke-miterlimit="10" d="M616.384,554.819l-3.209-8.939
		c-4.594,2.122-10.038,3.454-16.508,3.454c-7.573,0-13.833-1.626-19.006-4.115l-6.622,55.87l37.298,6.876L616.384,554.819z"/>
	<path id="watch-galleria" fill="#494949" stroke="#212121" stroke-miterlimit="10" d="M695,526.667L636.333,515
		c0,0-4.322,22.179-23.159,30.88l3.209,8.939l0,0l0,0l-8.046,53.146l70.247,12.95L695,526.667z"/>
	<polygon id="em-7" fill="#494949" stroke="#212121" stroke-miterlimit="10" points="403.862,472.641 398.72,465.328 
		363.48,483.093 369.184,494.166 369.184,494.166 369.184,494.166 358.219,560.358 388.743,565.908 	"/>
	<polygon id="em-2" fill="#494949" stroke="#212121" stroke-miterlimit="10" points="303,314.463 303,373.489 363.5,372.697 
		363.5,313.071 	"/>
	<polygon id="em-3" fill="#494949" stroke="#212121" stroke-miterlimit="10" points="453.5,311 363.5,313.071 363.5,372.697 
		455,371.5 	"/>
	<path id="em-1" fill="#494949" stroke="#212121" stroke-miterlimit="10" d="M171,317.5c0,0-15.5,77.5-6,128c14-1.5,89-14,89-14
		l-1-43l11-14.5l39-0.511v-59.026L171,317.5z"/>
	<path id="em-15" fill="#494949" stroke="#212121" stroke-miterlimit="10" d="M537.104,487.972l18.396,0.278
		c5-23.75,27.25-28,27.25-28l0.243-18.25h-45.097L537.104,487.972z"/>
	<path id="em-14" fill="#494949" stroke="#212121" stroke-miterlimit="10" d="M632.851,482.733
		c4.978,9.874,4.899,18.517,4.899,18.517L663,506l5.565-31.41l-23.23-1.511L632.851,482.733z"/>
	<path id="emporium-department-store" fill="#494949" stroke="#212121" stroke-miterlimit="10" d="M681,137.5l-32-0.25l0.75-37.25
		l-160.5,4.25l2.5,168.25l-28.25,1L465,396l-47,1c0,0,0,11.25,0.333,25.333c5.667,56,70.917,64.917,70.917,64.917l47.854,0.722
		L537.896,442h45.097l0.007-0.5l26.5-0.75c0,0,0.5,14,0.25,20.25c12.34,5.679,19.241,14.076,23.101,21.733l12.484-9.654l23.23,1.511
		l5.685-32.09l11.75,2L681,137.5z M605.333,327.333h-33.667l-1-54.667l34.667-1V327.333z"/>
</g>
<g id="signs">
	<g id="toilet">
		<rect id="toilet-1" x="644" y="95" width="45" height="45"/>
		<rect id="toilet-2" x="380" y="270" width="45" height="45"/>
	</g>
	<g id="lift">
		<rect id="lift-1" x="411" y="260" width="45" height="45"/>
		<rect id="lift-2" x="335" y="429" width="45" height="45"/>
		<rect id="lift-3" x="672" y="469" width="45" height="45"/>
		<rect id="lift-4" x="864" y="536" width="45" height="45"/>
	</g>
	<g id="escalator">
		<rect id="escalator-1" x="566" y="276" width="45" height="45"/>
		<rect id="escalator-2" x="340" y="386" width="45" height="45"/>
		<rect id="escalator-3" x="572" y="482" width="45" height="45"/>
		<rect id="escalator-4" x="290" y="379" width="45" height="45"/>
		<rect id="escalator-5" x="306" y="451" width="45" height="45"/>
		<rect id="escalator-6" x="173" y="273" width="45" height="45"/>
	</g>
	<g id="entrance">
		<rect id="entrance-1" x="221" y="274" width="45" height="45"/>
		<rect id="entrance-2" x="158" y="493" width="45" height="45"/>
	</g>
	<g id="parking">
		<rect id="parking-1" x="740" y="576" width="45" height="45"/>
		<rect id="parking-2" x="914" y="608" width="45" height="45"/>
	</g>
	<rect id="bts" x="86" y="269.5" width="45" height="45"/>
	<rect id="stairs" x="862.803" y="577" width="45" height="45"/>
</g>
</svg>
