<!-- Generator: Adobe Illustrator 16.0.0, SVG Export Plug-In . SVG Version: 6.00 Build 0)  -->
<!DOCTYPE svg PUBLIC "-//W3C//DTD SVG 1.1//EN" "http://www.w3.org/Graphics/SVG/1.1/DTD/svg11.dtd">
<svg version="1.1" xmlns="http://www.w3.org/2000/svg" xmlns:xlink="http://www.w3.org/1999/xlink" x="0px" y="0px"
	 width="1120.58px" height="892px" viewBox="0 0 1120.58 892" enable-background="new 0 0 1120.58 892" xml:space="preserve">
<g id="background">
</g>
<g id="etc">
	<polygon fill="#868686" stroke="#6D6D6D" stroke-miterlimit="10" points="701.055,143.334 701,106.5 668.667,106.5 
		668.667,143.334 	"/>
	<path fill="#BFBFBF" stroke="#494949" stroke-miterlimit="10" d="M701.5,442l-0.445-298.666h-32.388l0,0l0,0V106.5H502.5V273H251
		v18l-81-16l-4,18l71.5,15.5l0.5,2.5l-63,2c0,0-36,191,69,310c8-2,31-21.5,31-21.5l5-0.5l24,34.5l14,2c0,0,1,8,6.5,9
		s69.5,13,69.5,13l12-4.5l102.5,20.5l5,9l75,16l8.5-6l12.5,3.5l31.5-22.5l8,0.5l14.325,18.276l45.199-245.771L708.5,448.5L701.5,442
		z"/>
	<polygon fill="#BFBFBF" stroke="#494949" stroke-miterlimit="10" points="858,509.5 863.5,480 708.524,448.505 663.325,694.276 
		663.5,694.5 817.5,726.5 850.5,547 876.5,551 841,739.5 977.5,767.5 1021,543.5 	"/>
	<path fill="#868686" stroke="#6D6D6D" stroke-miterlimit="10" d="M251.5,404c0,0-3,51,16.5,86c23-10.5,70-33.5,70-33.5
		s-11.5-30-10-51C292,404.5,251.5,404,251.5,404z"/>
	<path fill="#868686" stroke="#6D6D6D" stroke-miterlimit="10" d="M370.477,456.639l-1.04-1.048
		C369.687,455.896,370.041,456.276,370.477,456.639z"/>
	<path fill="#868686" stroke="#6D6D6D" stroke-miterlimit="10" d="M375,457.5c3.5-1.5,37.5-19.5,37.5-19.5s-6.5-38-4.5-46.5
		c-13.5,0.5-62-0.5-62-0.5s-0.319,35.061,6.75,49.25l16.185,14.835L369,455c0,0,0.154,0.246,0.437,0.591l1.04,1.048
		C371.547,457.53,373.128,458.302,375,457.5z"/>
	<path fill="#868686" stroke="#6D6D6D" stroke-miterlimit="10" d="M346.5,450.5l16,13l6.435-8.415L353.375,441
		C353.788,441.829,346.5,450.5,346.5,450.5z"/>
	<path fill="#868686" stroke="#6D6D6D" stroke-miterlimit="10" d="M574.667,502c0,0-1.666-21.667,21.667-21.667
		s21.333,22.333,21.333,22.333s0.333,22-22,22S574.667,502,574.667,502z"/>
	<polygon fill="#868686" stroke="#6D6D6D" stroke-miterlimit="10" points="674.667,441.333 673.333,455.833 706.167,462.5 
		708.524,448.505 701.5,442 	"/>
	<polygon fill="#868686" stroke="#6D6D6D" stroke-miterlimit="10" points="691.667,472.333 684.667,507.5 697.167,509.833 
		703.667,474.666 	"/>
	<polygon fill="#868686" stroke="#6D6D6D" stroke-miterlimit="10" points="898.44,554.942 876.5,551 874.165,563.077 
		896.199,567.093 	"/>
	<polygon fill="#868686" stroke="#6D6D6D" stroke-miterlimit="10" points="898.44,554.942 896.199,567.093 896.199,567.093 
		896.199,567.093 874.165,563.077 865.834,606.167 891.5,610 894.5,596.167 918.334,600.167 925.667,559.833 	"/>
	<rect x="412.5" y="273.5" fill="#868686" stroke="#6D6D6D" stroke-miterlimit="10" width="26" height="16"/>
	<polygon fill="#868686" stroke="#6D6D6D" stroke-miterlimit="10" points="376,273.5 376,311.5 412.5,311 412.5,291.333 
		412.5,289.5 412.5,273.5 	"/>
	<path id="emporium-tower" fill="#868686" stroke="#6D6D6D" stroke-miterlimit="10" d="M642.838,610.474L642.838,610.474
		l-35.707-6.781l0,0l-37.584-7.138l0,0l-39.797-7.558l0,0l0,0l4.166-20.508l-18.451-2.46l0,0l-7.411-0.988l0,0l0,0l1.266-10.76
		l-11.066-1.703l0,0l0,0l0.799-9.991l-37.86-7.28l-0.836,8.19l0,0l0,0l-13.83-1.192l-1.157,8.101l0,0l0,0l-27.516-5.439
		l-3.343,20.535l0,0l0,0l-62.815-12.801l0,0l-12.345-2.516l-1.021,8.169l0,0l0,0l-27.228-5.515l-12.749,8l0.314,0.506
		c0,0-4.622,4.619-9.923,6.635l-7.145,33.344l0.066,0.012L304,635.5c0,0,10.333,1.167,14,2c1,7.5,6.5,9,6.5,9l69.5,13l12-4.5
		l102.5,20.5l5,9l75,16l8.5-6l12.5,3.5l31.5-22.5l8,0.5l14.325,18.276l14.026-77.249L642.838,610.474z"/>
</g>
<g id="rooms">
	<path id="e1-1" fill="#494949" stroke="#212121" stroke-miterlimit="10" d="M248.668,311.343c0,0-2,44-2,49.333s10,8.667,10,8.667
		l63.59,1.952l2.862-60.108L248.668,311.343z"/>
	<polygon id="e1-2" fill="#494949" stroke="#212121" stroke-miterlimit="10" points="323.12,311.188 320.258,371.295 
		344.245,372.032 348.714,311.134 	"/>
	<polygon id="e1-3" fill="#494949" stroke="#212121" stroke-miterlimit="10" points="412.5,311 348.714,311.134 344.245,372.032 
		408.668,374.01 	"/>
	<polygon id="e1-8" fill="#494949" stroke="#212121" stroke-miterlimit="10" points="311.103,552.837 311.103,552.837 
		338.331,558.352 339.352,550.183 339.352,550.183 339.352,550.183 351.697,552.699 356.402,514.432 343.43,489.223 290.668,514.01 
		286.668,542.01 298.354,560.837 311.103,552.837 	"/>
	<path id="e1-9" fill="#494949" stroke="#212121" stroke-miterlimit="10" d="M417.854,544.965l9.597-58.95
		c-11.212-10.106-15.449-18.005-15.449-18.005L398,479l-7.998-11.657l-46.572,21.879l12.972,25.209l0,0l0,0l-4.705,38.267
		l62.815,12.801L417.854,544.965L417.854,544.965z"/>
	<path id="e1-10" fill="#494949" stroke="#212121" stroke-miterlimit="10" d="M446.528,542.304L446.528,542.304L446.528,542.304
		l13.83,1.192l0.836-8.19l0,0l0,0l37.86,7.28l0,0l0,0l-0.799,9.991l11.066,1.703l0,0l0,0l-1.266,10.76l7.411,0.988l8.618-48.832
		l-10.748-0.52c0,0-31.333,3.333-61.333-13.333c-10.488-5.827-18.524-11.896-24.551-17.328l-9.597,58.95l27.516,5.439
		L446.528,542.304z"/>
	<path id="e1-12" fill="#494949" stroke="#212121" stroke-miterlimit="10" d="M554.668,518.677l-10.531-0.51l-10.221,50.322
		L534,568.5l-0.083-0.011l-4.166,20.508l39.797,7.558l7.791-51.823C560.751,536.105,554.668,518.677,554.668,518.677z"/>
	<path id="e1-13" fill="#494949" stroke="#212121" stroke-miterlimit="10" d="M612.097,545.846
		c-5.24,2.499-11.264,3.963-18.095,3.498c-6.46-0.44-11.98-2.176-16.664-4.612l-7.791,51.823l37.584,7.138l8.07-50.985
		L612.097,545.846z"/>
	<path id="e1-14" fill="#494949" stroke="#212121" stroke-miterlimit="10" d="M630.854,529.739
		c-4.308,5.722-10.558,12.196-18.758,16.106l3.104,6.862l0,0l0,0l-8.07,50.985l35.707,6.781l10.716-64.297L630.854,529.739z"/>
	<path id="e1-15" fill="#494949" stroke="#212121" stroke-miterlimit="10" d="M693.333,529l-55.332-10.99
		c0,0-2.386,5.405-7.147,11.729l22.699,16.438l0,0l0,0l-10.716,64.297l34.513,6.554L693.333,529z"/>
	<polygon id="e1-11" fill="#494949" stroke="#212121" stroke-miterlimit="10" points="544.138,518.167 524.083,517.197 
		515.465,566.029 533.917,568.489 	"/>
	<path id="e1-7" fill="#494949" stroke="#212121" stroke-miterlimit="10" d="M288.668,568.01
		c-6.597-7.33-19.239-29.975-30.282-55.304l-62.773,30.257C206.711,571.783,222.298,599.384,244,623c7-1.333,32-22.667,32-22.667
		l5.601,0.988l7.145-33.344C288.72,567.988,288.694,568,288.668,568.01z"/>
	<path id="e1-6" fill="#494949" stroke="#212121" stroke-miterlimit="10" d="M186.475,515.631
		c2.643,9.173,5.666,18.313,9.139,27.332l62.773-30.257c-2.793-6.405-5.482-12.982-7.946-19.526L186.475,515.631z"/>
	<path id="e1-4" fill="#494949" stroke="#212121" stroke-miterlimit="10" d="M238.668,452.01C232.668,413.343,238,311,238,311l-63,2
		c0,0-14.209,85.783,4.891,176.122l63.374-17.241C241.208,464.827,239.614,458.103,238.668,452.01z"/>
	<path id="e1-5" fill="#494949" stroke="#212121" stroke-miterlimit="10" d="M250.44,493.18c-2.724-7.232-5.17-14.422-7.176-21.299
		l-63.374,17.241c1.865,8.819,4.041,17.68,6.584,26.51L250.44,493.18z"/>
	<path id="e1-17" fill="#494949" stroke="#212121" stroke-miterlimit="10" d="M674.33,442.25h-64.337L609.5,459
		c0,0,15.235,4.799,23.664,20.75l35.576-6.538L674.33,442.25z"/>
	<path id="e1-16" fill="#494949" stroke="#212121" stroke-miterlimit="10" d="M633.164,479.75c2.792,5.284,4.838,11.788,5.336,19.75
		c16,4,24.5,5.5,24.5,5.5l5.74-31.788L633.164,479.75z"/>
	<path id="emporium-department-store" fill="#494949" stroke="#212121" stroke-miterlimit="10" d="M669,143v-36.5H503V273
		l-46.25,0.25L456.5,305H425l-3,108.5c0,0,5,61.5,59,73.5c60.5,2.5,72.5,3,72.5,3s9-26,30.5-31c0-13.5,0-17,0-17h26l-0.007,0.25
		h64.337l0.045-0.25H701.5V143H669z M602,321h-34v-53h34V321z"/>
</g>
<g id="signs">
	<g id="escalator">
		<rect id="escalator-1" x="272" y="370" width="45" height="45"/>
		<rect id="escalator-2" x="285" y="461" width="45" height="45"/>
		<rect id="escalator-3" x="574" y="478" width="45" height="45"/>
		<rect id="escalator-4" x="562" y="271" width="45" height="45"/>
		<rect id="escalator-5" x="179" y="267" width="45" height="45"/>
	</g>
	<g id="lift">
		<rect id="lift-1" x="404" y="258" width="45" height="45"/>
		<rect id="lift-2" x="673" y="469" width="45" height="45"/>
		<rect id="lift-3" x="337" y="433" width="45" height="45"/>
		<rect id="lift-4" x="866" y="537" width="45" height="45"/>
	</g>
	<g id="toilet">
		<rect id="toilet-1" x="373" y="269" width="45" height="45"/>
		<rect id="toilet-2" x="663" y="102" width="45" height="45"/>
	</g>
	<g id="parking">
		<rect id="parking-1" x="739" y="577" width="45" height="45"/>
		<rect id="parking-2" x="911" y="608" width="45" height="45"/>
	</g>
	<rect id="bts" x="86" y="269.5" width="45" height="45"/>
</g>
</svg>
