<?xml version="1.0" encoding="utf-8"?>
<!-- Generator: Adobe Illustrator 19.2.0, SVG Export Plug-In . SVG Version: 6.00 Build 0)  -->
<svg version="1.1" id="Layer_1" xmlns="http://www.w3.org/2000/svg" xmlns:xlink="http://www.w3.org/1999/xlink" x="0px" y="0px"
	 viewBox="0 0 1338 892" style="enable-background:new 0 0 1338 892;" xml:space="preserve">
<style type="text/css">
	.st0{fill:#BFBFBF;stroke:#494949;stroke-miterlimit:10;}
	.st1{fill:#868686;stroke:#6B6B6B;stroke-miterlimit:10;}
	.st2{fill:#BFBFBF;stroke:#6D6D6D;stroke-miterlimit:10;}
	.st3{fill:#999999;stroke:#6B6B6B;stroke-miterlimit:10;}
	.st4{fill:#494949;stroke:#212121;stroke-miterlimit:10;}
</style>
<g id="background">
</g>
<g id="etc">
	<path class="st0" d="M881,453l-1,48l-25-2l3-61H692l-3-249l-31-1l-1-83l-160-2l-3,166l-115,1v41c0,0-148,3-208,4
		c-14,39-7,130-7,130l-29,4c0,0-19,120-21,140s22,32,22,32l37,7l-3,14l220,43l28-11l76,15l7,8l75,16l9,9l35,6l23-17l5-30l15,4l-4,35
		c0,0-2,6-1,15c5,16,30,8,30,8s45,5,56,6s12-7,12-7l92,5l7-212h24l-0.4,12.4l21.7,0.2l0,0l0,0l0,0l-21.7-0.2L873,745l148,4l5-288
		L881,453z"/>
	<path class="st1" d="M571,503c0,0-2-24.5,21-24.5s22.5,23.5,22.5,23.5s0.5,23.5-21.5,23.5C571.5,525,571,503,571,503z"/>
	<polyline class="st1" points="691,440 681.5,455.5 700,458.5 705,439.5 691,440 	"/>
	<path class="st2" d="M164,445c0,0,7.5,40.5,13.5,56"/>
	<polyline class="st1" points="658.5,464.5 698,473 691.5,509 679.5,506.5 686,470.5 	"/>
	<polygon class="st1" points="347,450.5 361.5,465 370,454 355,442 	"/>
	<polygon class="st1" points="379,270 379,311 416,310 416.5,287 417,287 417,270 	"/>
	<polygon class="st1" points="441,270 417,270 417,287 440.5,286.5 	"/>
	<polygon class="st1" points="900.3,535.9 879,535 878.8,547.4 900.3,547.6 	"/>
	<polygon class="st3" points="926.7,537 900.3,535.9 900.3,547.6 900.3,547.6 900.3,547.6 878.8,547.4 878.3,589.7 904,590.3 
		904.7,576 927,576 	"/>
	<polygon id="waiting-lounge" class="st3" points="700.7,458.7 722,458.7 713.3,508.7 692.7,508 	"/>
	<polygon id="e-space-gf" class="st1" points="559.5,263.5 592,263.5 592,316.5 559,316.5 	"/>
	<polygon id="emporium-tower" class="st3" points="510,589.1 510,589.1 490.6,585.5 490.6,585.5 451.9,578.2 451.9,578.2 414,571.1 
		414,571.1 373.2,563.5 325.4,554.6 321.4,574 309.6,571.4 305.8,594 288.7,590 283.7,611.8 284,612.6 303,644 400,670 424,658 
		492,671 514,692 514.2,692 530,592.9 	"/>
	<polygon id="emporium-suites" class="st3" points="605.2,607 605.2,607 567.7,599.9 567.7,599.9 530,592.9 514.2,692 604,709 
		648,681 663,685 673.7,619.8 	"/>
	<polygon id="_x3C_Path_x3E_" class="st3" points="270.9,313.9 272,375.3 340.8,376 341.3,312.4 	"/>
</g>
<g id="rooms">
	<path id="eg-8" class="st4" d="M254.1,542.1l-25.7-60.6L177,499c22,94,68,135,68,135l30-25l8,2l0.6,1l0-0.2L254.1,542.1
		L254.1,542.1z"/>
	<polygon id="eg-9" class="st4" points="299,517 283,476 268,468 228.4,481.5 254.1,542.1 312.1,510.3 	"/>
	<path id="eg-11" class="st4" d="M401,465l-37.1,18.9l17.9,30.4l-8.6,49.2l40.8,7.6l10.5-79.6C408.5,478.4,401,465,401,465z"/>
	<path id="eg-12" class="st4" d="M462,512c-15.6-4.8-28.1-12.6-37.5-20.4L414,571.2l37.9,7.1l10.5-66.1
		C462.3,512.1,462.1,512,462,512z"/>
	<path id="eg-15" class="st4" d="M553,520c0,0-13.2,1.3-31.7,0.8L510,589.1l20,3.7l37.7,7l7.8-54.4C559,537.9,553,520,553,520z"/>
	<path id="eg-16" class="st4" d="M593,549c-6.8,0.2-12.6-1.2-17.5-3.4l-7.8,54.4l37.6,7l6.8-63.6C606.9,546.5,600.6,548.7,593,549z"
		/>
	<path id="eg-17" class="st4" d="M689,527l-56-11c0,0-5.6,17.9-21,27.3l-6.8,63.6l68.5,12.8L689,527z"/>
	<path id="eg-14" class="st4" d="M500.9,519.5l-10.3,66l19.4,3.6l11.3-68.3C515,520.6,508.1,520.3,500.9,519.5z"/>
	<path id="eg-13" class="st4" d="M462.4,512.1l-10.5,66.1l38.7,7.2l10.3-66C488.5,518.3,475.1,516,462.4,512.1z"/>
	<polygon id="eg-10" class="st4" points="288.7,590 288.7,590 305.8,594 309.6,571.4 309.6,571.4 309.6,571.4 321.4,574 
		325.4,554.6 325.4,554.6 325.4,554.6 373.2,563.5 381.8,514.3 363.9,483.9 312.1,510.3 254.1,542.1 283.7,611.8 	"/>
	<path id="eg-19" class="st4" d="M534.5,440.4l-0.4,48.1c4.9-0.1,10.9-0.2,18.5-0.6c3.3-20,26.7-30,26.7-30v-18
		C579.3,440,556.7,440.4,534.5,440.4z"/>
	<path id="eg-20" class="st4" d="M496,439.4l-1.8,47.5c12.3,1.7,21.1,1.1,21.1,1.1s3.5,0.8,18.8,0.6l0.4-48.1
		C518.8,440.4,503.2,440.2,496,439.4z"/>
	<path id="eg-21" class="st4" d="M495.3,439.3c-16.8-2.1-30.6-15-28.7-13.3l-37.3,24.7c17.1,25.3,45.5,33.6,64.9,36.3l1.8-47.5
		C495.8,439.4,495.6,439.4,495.3,439.3z"/>
	<path id="eg-18" class="st4" d="M606,439.3l-1.3,17.3c0,0,28,11.3,30.7,42.7l17.3,4l9.3-63.7L606,439.3z"/>
	<path id="eg-7" class="st4" d="M286,416c0,0,6,44.7,13.3,58c32.7-14,45.3-20.7,45.3-20.7l10-12l15.3,13.3l-5.5,6.8l44.8-22.8
		l-7.3-20l-11.3-2L286,416z"/>
	<path id="eg-1" class="st4" d="M170.7,316c0,0-14.7,72-6,130l98-14l8.7-12l-0.7-44.7l1.3,0l-1.1-61.5L170.7,316z"/>
	<polygon id="eg-3" class="st4" points="341.3,312.4 340.8,376 379.6,376.3 380.5,311.6 	"/>
	<polygon id="eg-4" class="st4" points="380.5,311.6 379.6,376.3 400.8,376.5 401.3,311.1 	"/>
	<polygon id="eg-5" class="st4" points="422.7,310.7 401.3,311.1 400.8,376.5 421.3,376.7 	"/>
	<polygon id="eg-6" class="st4" points="432.7,310.7 432,378 458,378.3 458,310 	"/>
	<polygon id="edsg-1" class="st4" points="626,140 625,103.3 571.3,103.2 571.3,140 	"/>
	<path id="edsg-2" class="st4" d="M657.7,189l-0.3-49.7l-31.3,1l0-0.3h-54.7v-36.8L496,103l-0.3,166H458l0,41l0,68.3h0l1.3,22.3
		c-0.4,11.1,5.4,36.6,36.7,38.7c42.6,0.6,194.6-0.1,194.6-0.1V188.7L657.7,189z M592,316.5h-33l0.5-53H592V316.5z"/>
	<polygon id="platinum-m-club" class="st4" points="689,527 709,529 706.4,545.7 686.3,543.3 	"/>
</g>
<g id="signs">
	<g id="toilet">
		<rect id="toilet-1" x="619" y="98" width="45" height="45"/>
		<rect id="toilet-2" x="374" y="266" width="45" height="45"/>
	</g>
	<g id="lift">
		<rect id="lift-1" x="335" y="431" width="45" height="45"/>
		<rect id="lift-2" x="405" y="256" width="45" height="45"/>
		<rect id="lift-3" x="668" y="467" width="45" height="45"/>
		<rect id="lift-4" x="868" y="518" width="45" height="45"/>
	</g>
	<g id="escalator">
		<rect id="escalator-1" x="332" y="382" width="45" height="45"/>
		<rect id="escalator-2" x="553" y="266" width="45" height="45"/>
		<rect id="escalator-3" x="571" y="478" width="45" height="45"/>
	</g>
	<g id="parking">
		<rect id="parking-1" x="740" y="579" width="45" height="45"/>
		<rect id="parking-2" x="932" y="578" width="45" height="45"/>
	</g>
	<g id="dropoff">
		<rect id="dropoff-1" x="193" y="617" width="45" height="45"/>
		<rect id="dropoff-2" x="436" y="650" width="45" height="45"/>
	</g>
	<g id="taxi">
		<rect id="taxi-1" x="105" y="518" width="45" height="45"/>
		<rect id="taxi-2" x="579.5" y="72.5" width="45" height="45"/>
	</g>
	<g id="entrance">
		<rect id="entrance-1" x="533" y="82" width="45" height="45"/>
		<rect id="entrance-2" x="147" y="449" width="45" height="45"/>
	</g>
	<rect id="driver-waiting-room" x="684.8" y="456" width="45" height="45"/>
	<g id="tourist-lounge">
		<rect id="tourist-lounge-2" x="553.6" y="496.3" width="14.1" height="14.1"/>
		<rect id="tourist-lounge-1" x="617.7" y="495" width="14.1" height="14.1"/>
	</g>
	<rect id="information" x="673.7" y="512.5" width="45" height="45"/>
	<rect id="stairs" x="862.8" y="577" width="45" height="45"/>
</g>
</svg>
