<?xml version="1.0" encoding="utf-8"?>
<!-- Generator: Adobe Illustrator 16.0.0, SVG Export Plug-In . SVG Version: 6.00 Build 0)  -->
<!DOCTYPE svg PUBLIC "-//W3C//DTD SVG 1.1//EN" "http://www.w3.org/Graphics/SVG/1.1/DTD/svg11.dtd">
<svg version="1.1" id="Layer_1" xmlns="http://www.w3.org/2000/svg" xmlns:xlink="http://www.w3.org/1999/xlink" x="0px" y="0px"
	 width="1338px" height="892px" viewBox="0 0 1338 892" enable-background="new 0 0 1338 892" xml:space="preserve">
<g id="background">
</g>
<g id="etc">
	<polygon fill="#868686" stroke="#6B6B6B" stroke-miterlimit="10" points="436.667,281 411.183,281 411.241,297.5 436.667,297.5 	
		"/>
	<path fill="#BFBFBF" stroke="#494949" stroke-miterlimit="10" d="M706.5,449.5L702,118H505v163h-68.333v16.5l0,0l0,0h-25.425
		l0.075,21.168L376,318.827V319l-199,5c0,0-51,141,70,303.5c0,0,28-21,31-22.5s7,2.5,7,2.5l23,32c0,0,8-3,11,2s7,7,7,7
		s59,11.5,69.5,13S411,658,411,658s74,14,89,15.5c8.5,0,14,10,14,10l64.5,12c0,0,13,6,16.5,0.5s6-3,6-3l9.5,3l32-22.5l7.5,1
		l12.5,15.865l44.521-240.764L706.5,449.5z"/>
	<polygon fill="#868686" stroke="#6B6B6B" stroke-miterlimit="10" points="411.241,297.5 411.183,281 376,281 376,318.827 
		411.316,318.668 	"/>
	<polygon fill="#868686" stroke="#6B6B6B" stroke-miterlimit="10" points="894.38,552.343 892.343,564.409 892.343,564.409 
		892.343,564.409 872.667,560.766 865.448,600.257 890.814,605.771 894.051,590.177 915.149,594.521 921.316,557.729 	"/>
	<polygon fill="#868686" stroke="#6B6B6B" stroke-miterlimit="10" points="894.38,552.343 874.918,548.45 872.667,560.766 
		892.343,564.409 	"/>
	<polygon fill="#BFBFBF" stroke="#494949" stroke-miterlimit="10" points="855,505.5 860,479.5 707.021,449.602 662.5,690.365 
		663,691 816,719 849,543 875,548 874.918,548.45 921.316,557.729 921.316,557.729 921.316,557.729 915.149,594.521 
		915.149,594.521 915.149,594.521 894.051,590.177 890.814,605.771 890.814,605.771 890.814,605.771 865.448,600.257 841,734 
		976,759 1016,538 	"/>
	<path fill="#868686" stroke="#6B6B6B" stroke-miterlimit="10" d="M256.5,409.5h18l1-13L325,397c0,0-1.5,49,13.5,74.5
		c-31.5,15.5-44,22.5-44,22.5l-1.5-5l-18,11C275,500,255,443,256.5,409.5z"/>
	<polygon fill="#868686" stroke="#6B6B6B" stroke-miterlimit="10" points="347.5,417 351.75,444.5 372.5,462.5 412,445 407,425 
		400.5,425 399.5,417 	"/>
	<polygon fill="#868686" stroke="#6B6B6B" stroke-miterlimit="10" points="348,456 355.25,447.75 370.25,460.75 363.25,469.25 	"/>
	<path fill="#868686" stroke="#6B6B6B" stroke-miterlimit="10" d="M573,506c0,0-2.5-23,20.667-23c22.338,0,22,22,22,22
		s1.333,21-21,21C572.5,526,573,506,573,506z"/>
	<polygon fill="#868686" stroke="#6B6B6B" stroke-miterlimit="10" points="690.5,465.75 703.5,468.25 697,502.75 684,500.333 	"/>
	<polyline fill="#868686" stroke="#6B6B6B" stroke-miterlimit="10" points="702,118 670,118 670,153 703,153 	"/>
	<rect id="e-spcae-2f" x="572" y="268" fill="#868686" stroke="#6B6B6B" stroke-miterlimit="10" width="36" height="55"/>
	<polygon fill="#868686" stroke="#6B6B6B" stroke-miterlimit="10" points="703.098,153 702.664,117.993 670.5,117.993 670.5,153 	
		"/>
</g>
<g id="rooms">
	<polygon id="e2-8" fill="#494949" stroke="#212121" stroke-miterlimit="10" points="355.029,558.323 363.669,523.952 
		346.068,492.973 302.333,514.667 297.851,527.152 311.018,549.94 	"/>
	<path id="sports-mall" fill="#494949" stroke="#212121" stroke-miterlimit="10" d="M591.735,601.271l-19.2-3.505l-34.653-6.327
		l10.346-72.679c-21.225,0.49-50.228-3.426-50.228-3.426s-33-4-53.333-12.667s-31.333-26.333-31.333-26.333l-18,11l-9-14.333
		l-40.266,19.973l17.602,30.979l-8.641,34.371l-44.012-8.384l-13.167-22.787l-0.185,0.514l-11-4.667l-21.333,11
		C221.333,463.333,234,322.667,234,322.667L176,324c0,0-49,143,71,303.5c0,0,23.5-17.375,29.25-21.25
		c4.125-3.5,8.875,1.25,8.875,1.25l22.75,32c0,0,8-2.25,10.625,1.25c5.25,7.75,8.75,8,8.75,8s51.625,9.875,65.625,12.25
		s18.25-3.125,18.25-3.125c1,0.625,79.5,14.375,89.25,15.75c9.5,1,13.625,9.875,13.625,9.875s63.875,11.75,64.5,11.875
		s3.375,2.125,9.375,2.875s8.125-3.5,9.25-4.625s3-1.25,3-1.25l1.625,0.875l8.583,2.75l32-22.667L650,674l12.333,16.667
		l13.623-74.019l-49.868-9.104L591.735,601.271z"/>
	<path id="e2-9" fill="#494949" stroke="#212121" stroke-miterlimit="10" d="M556,518.333c-2.405,0.229-5.027,0.363-7.771,0.426
		l-10.347,72.68l34.653,6.326l5.497-52.683C562.698,538.378,556.771,523.214,556,518.333z"/>
	<path id="e2-10" fill="#494949" stroke="#212121" stroke-miterlimit="10" d="M594.333,548.333c-6.347,0-11.736-1.255-16.301-3.251
		l-5.497,52.683l19.2,3.506l6.302-53.152C596.829,548.246,595.602,548.333,594.333,548.333z"/>
	<path id="e2-11" fill="#494949" stroke="#212121" stroke-miterlimit="10" d="M626.015,531.521
		c-6.181,7.497-15.47,15.284-27.978,16.599l-6.302,53.151l34.354,6.272l9.153-67.196L626.015,531.521z"/>
	<path id="e2-12" fill="#494949" stroke="#212121" stroke-miterlimit="10" d="M692.333,527.667l-57-11c0,0-3.072,7.278-9.319,14.854
		l9.229,8.826l0,0l0,0l-9.153,67.196l49.868,9.104L692.333,527.667z"/>
	<polygon id="e2-7" fill="#494949" stroke="#212121" stroke-miterlimit="10" points="454.664,317.75 454.664,317.993 
		421.331,317.993 421.331,382.66 463,382.66 463,317.75 	"/>
	<path id="e2-13" fill="#494949" stroke="#212121" stroke-miterlimit="10" d="M608,463.333c0,0,28,9,28,37.667
		c6.333,1.333,25.333,4,25.333,4l12.37-62.5H608V463.333z"/>
	<path id="emporium-department-store" fill="#494949" stroke="#212121" stroke-miterlimit="10" d="M703.098,153H670.5v-35.007
		H505.331v163.333h-50.667v36.424H463v64.91h0.331v16.667L420,399.667c0,0-3.333,54,30,72.667s70,17.333,70,17.333h34.667
		c0,0,5.833-23.167,28-26.333v-21H608v0.167h65.703L674,441h32.667L703.098,153z M608,323h-36v-55h36V323z"/>
	<polygon id="e2-1" fill="#494949" stroke="#212121" stroke-miterlimit="10" points="234,322.667 232,379.5 261,379.902 
		261,322.031 	"/>
	<polygon id="e2-2" fill="#494949" stroke="#212121" stroke-miterlimit="10" points="261,322.031 261,379.902 289.569,380.297 
		290.429,321.338 	"/>
	<polygon id="e2-3" fill="#494949" stroke="#212121" stroke-miterlimit="10" points="290.429,321.338 289.569,380.297 
		307.568,380.547 307.958,320.926 	"/>
	<polygon id="e2-4" fill="#494949" stroke="#212121" stroke-miterlimit="10" points="307.958,320.926 307.568,380.547 
		327.702,380.826 328.902,320.433 	"/>
	<polygon id="e2-5" fill="#494949" stroke="#212121" stroke-miterlimit="10" points="328.902,320.433 327.702,380.826 
		345.304,381.069 347.274,320 	"/>
	<polygon id="e2-6" fill="#494949" stroke="#212121" stroke-miterlimit="10" points="411,318.5 347.274,320 345.304,381.069 
		412.5,382 	"/>
</g>
<g id="signs">
	<g id="escalator">
		<rect id="escalator-1" x="269" y="379" width="45" height="45"/>
		<rect id="escalator-2" x="350" y="386" width="45" height="45"/>
		<rect id="escalator-3" x="288" y="468" width="45" height="45"/>
		<rect id="escalator-4" x="572" y="483" width="45" height="45"/>
		<rect id="escalator-5" x="568" y="271" width="45" height="45"/>
	</g>
	<g id="lift">
		<rect id="lift-1" x="402" y="265" width="45" height="45"/>
		<rect id="lift-2" x="337" y="437" width="45" height="45"/>
		<rect id="lift-3" x="672" y="461" width="45" height="45"/>
		<rect id="lift-4" x="862" y="532" width="45" height="45"/>
	</g>
	<g id="toilet">
		<rect id="toilet-1" x="370" y="279" width="45" height="45"/>
		<rect id="toilet-2" x="664" y="111" width="45" height="45"/>
	</g>
	<g id="parking">
		<rect id="parking-1" x="739" y="574" width="45" height="45"/>
		<rect id="parking-2" x="909" y="603" width="45" height="45"/>
	</g>
	<rect id="entrance" x="672" y="495.833" width="45" height="45"/>
	<rect id="stairs" x="862.803" y="577" width="45" height="45"/>
</g>
</svg>
