<?xml version="1.0" encoding="utf-8"?>
<!-- Generator: Adobe Illustrator 16.0.0, SVG Export Plug-In . SVG Version: 6.00 Build 0)  -->
<!DOCTYPE svg PUBLIC "-//W3C//DTD SVG 1.1//EN" "http://www.w3.org/Graphics/SVG/1.1/DTD/svg11.dtd">
<svg version="1.1" xmlns="http://www.w3.org/2000/svg" xmlns:xlink="http://www.w3.org/1999/xlink" x="0px" y="0px"
	 width="1120.58px" height="892px" viewBox="0 0 1120.58 892" enable-background="new 0 0 1120.58 892" xml:space="preserve">
<g id="background">
</g>
<g id="etc">
	<polygon fill="#868686" stroke="#6B6B6B" stroke-miterlimit="10" points="693.456,423.249 635.05,424.41 635.442,462.811 
		693.93,461.496 693.988,461.118 	"/>
	<polygon fill="#868686" stroke="#6B6B6B" stroke-miterlimit="10" points="693.988,461.118 693.93,461.496 693.993,461.495 	"/>
	<polygon fill="#868686" stroke="#6B6B6B" stroke-miterlimit="10" points="699.955,499.103 705.258,464.132 694,462 
		693.993,461.495 693.93,461.496 688.334,497.663 	"/>
	<polygon fill="#868686" stroke="#6B6B6B" stroke-miterlimit="10" points="856.841,527.875 863,494 827.628,487.303 
		821.852,522.276 	"/>
	<polygon fill="#868686" stroke="#6B6B6B" stroke-miterlimit="10" points="425,292.125 425,277.423 390,279 389.131,312.25 
		425,312.25 425,292.125 	"/>
	<path fill="#BFBFBF" stroke="#494949" stroke-miterlimit="10" d="M821.018,521.777l5.777-34.974l-122.371-23.171l-5.303,34.971
		l-11.621-1.44l0,0.004l0-0.004l5.596-36.167l-58.488,1.314l-0.392-38.401l58.405-1.161L688.167,105.5l-188,1v167l-50.375,2.269
		v15.856l0,0l0,0h-25.625v20.125l0,0l0,0h-35.869l-0.006,0.25l-212.125,5.5c-37,189,72.667,304.333,72.667,304.333
		s26.667-18.333,29.333-20s8.333,0.667,8.333,0.667s18.333,27.667,20.667,31.333s4.667,1.667,10,2.333s4.667,7.333,4.667,7.333
		l84.333,16.667l5.667-6l101.333,18.667l1.667,7.667l83,15.667l5.302-6.229l12.698,2.229L648.5,669.5l4,0.333l15,18
		c0,0-1.667,0,5.333,0.667c6,1.667,3.333,8,3.333,8l136,22l2-7l8,2l33.841-186.125L821.018,521.777z"/>
	<polygon fill="#868686" stroke="#6B6B6B" stroke-miterlimit="10" points="450.625,276.269 425,277.423 425,292.125 
		450.625,292.125 	"/>
	<path fill="#868686" stroke="#6B6B6B" stroke-miterlimit="10" d="M263.5,406.5l14,1l0.5-15l53.5,0.5c0,0,1,37.5,2,41.5
		s13.5,39.167,13.5,39.167L299,497l-6-13.5l-11.5,5c0,0-14.5-40.5-14.5-46S263.5,406.5,263.5,406.5z"/>
	<path fill="#868686" stroke="#6B6B6B" stroke-miterlimit="10" d="M348.5,393c0,0,1.78,13.904,3.333,27
		c1.029,8.675,1.67,17.113,2.667,20.5c8,7,20.625,19.001,20.625,19.001L397.5,447l10.5,15l30.5-21.5c0,0-13.5-21.5-15-47
		C401,393,348.5,393,348.5,393z"/>
	<polygon fill="#868686" stroke="#6B6B6B" stroke-miterlimit="10" points="307.365,584.251 311.125,569 340.5,549.5 
		462.524,571.614 454.862,613.149 	"/>
	<polygon fill="#868686" stroke="#6B6B6B" stroke-miterlimit="10" points="610.854,640.863 601.5,690 616.667,692.667 
		649.23,670.071 652.432,648.646 	"/>
	<polygon fill="#868686" stroke="#6B6B6B" stroke-miterlimit="10" points="671.75,576.5 669,587.75 653.25,584.75 647.75,608.25 
		493.333,577.417 484.5,618 610.854,640.863 652.432,648.646 652.432,648.646 652.432,648.646 649.23,670.071 649.333,670 
		653.333,670.333 668.333,688.333 688.25,579.75 	"/>
	<path fill="#868686" stroke="#6B6B6B" stroke-miterlimit="10" d="M434,470c0,0,25.5,14.5,38,16.5c2-5.333,6.667-8.667,12.5-9.5
		c1.5-11,1-21.5,1-21.5l-13.5-10L434,470z"/>
	<path fill="#868686" stroke="#6B6B6B" stroke-miterlimit="10" d="M496,391h5.5h14v21l44.5,39.5c0,0-33,12.5-64-2
		C496,430,496,391,496,391z"/>
	<polygon fill="#868686" stroke="#6B6B6B" stroke-miterlimit="10" points="598.5,453 620,429.5 627,436 620,463 608,463 	"/>
	<circle fill="#868686" stroke="#6B6B6B" stroke-miterlimit="10" cx="600.001" cy="498.665" r="21.333"/>
	<circle fill="#868686" stroke="#6B6B6B" stroke-miterlimit="10" cx="538.666" cy="359.999" r="23"/>
</g>
<g id="rooms">
	<path id="exotique-thai" fill="#494949" stroke="#212121" stroke-miterlimit="10" d="M468.917,497.833
		c0,0-26.808-1.55-46.25-19.333C409,466,397.5,447,397.5,447l-23.708,12.501l-104.199,52.075c0,0,4.767,19.143,14.908,39.424
		c5.75,11.5,22.865,33.251,22.865,33.251l3.76-15.251l29.375-19.5l120.69,22.114l4.268,0.761l10.708-57.792
		c0,0-4.084-3.167-5.417-6.333C468.465,502.821,468.917,497.833,468.917,497.833z"/>
	<path id="e4-7" fill="#494949" stroke="#212121" stroke-miterlimit="10" d="M496.667,460.667l0.667,18c0,0,10.167,5,10.667,16
		c20,3,50,8.667,50,8.667s-0.333-21,13.667-35.333C567,463.667,565,461.667,565,461.667S532,476,496.667,460.667z"/>
	<path id="e4-8" fill="#494949" stroke="#212121" stroke-miterlimit="10" d="M507.333,503.667C502,518,489.667,517,489.667,517
		l-9,58l29.731,5.946l10.313-74.453C516.339,505.584,511.838,504.636,507.333,503.667z"/>
	<path id="e4-9" fill="#494949" stroke="#212121" stroke-miterlimit="10" d="M555.864,544.284L555.864,544.284l12.777-15.271
		c-6.08-7.294-8.642-14.68-8.642-14.68s-18.099-3.437-39.289-7.84l-10.313,74.453l40.002,8L555.864,544.284L555.864,544.284z"/>
	<path id="e4-12" fill="#494949" stroke="#212121" stroke-miterlimit="10" d="M656.092,564.721L656.092,564.721L656.092,564.721
		l2.728-16.876c-12.14-2.456-26.311-5.279-40.224-7.95l-10.571,60.577l39.309,7.862l5.833-23.5L669,587.667l2.667-11l0.214,0.039
		l-0.833-9.396L656.092,564.721z"/>
	<path id="e4-13" fill="#494949" stroke="#212121" stroke-miterlimit="10" d="M692,554.667c0,0-14.067-2.955-33.18-6.822
		l-2.728,16.876l14.956,2.589l0,0l0,0l0.833,9.396l16.119,2.96L692,554.667z"/>
	<path id="e4-11" fill="#494949" stroke="#212121" stroke-miterlimit="10" d="M615.667,539.333
		c-10.872,4.296-19.869,4.595-27.235,2.714l-8.825,52.741l28.418,5.684l10.571-60.577
		C617.618,539.707,616.641,539.52,615.667,539.333z"/>
	<path id="e4-10" fill="#494949" stroke="#212121" stroke-miterlimit="10" d="M568.642,529.014l-12.777,15.271l-5.464,44.663
		l29.206,5.841l8.825-52.741C579.63,539.8,573.161,534.436,568.642,529.014z"/>
	<path id="e4-14" fill="#494949" stroke="#212121" stroke-miterlimit="10" d="M634,476.333c0,0,15.667,25,0.333,47.333
		c2,3.333,3,5,3,5l22,3.333l10-54.333l-31.333-6L634,476.333z"/>
	<path id="e4-3" fill="#494949" stroke="#212121" stroke-miterlimit="10" d="M423.667,393l23-1c0,0,0.667,25.667,10.667,36.333
		c-15,10.333-18.333,12.333-18.333,12.333S425,419.333,423.667,393z"/>
	<path id="e4-4" fill="#494949" stroke="#212121" stroke-miterlimit="10" d="M461,391.333h23.333l0.667,51
		C485,442.333,462,429.667,461,391.333z"/>
	<polygon id="emporium-take-home" fill="#494949" stroke="#212121" stroke-miterlimit="10" points="525.667,391.333 
		525.667,407.333 584.667,461.667 617.667,424 564.333,375.333 551.667,390.667 	"/>
	<path id="e4-1" fill="#494949" stroke="#212121" stroke-miterlimit="10" d="M425.109,352.138l-0.844-32.084L385.333,321
		c0,0,0.333,41.667,0.667,48.667c1,5.333,6.333,6.667,6.333,6.667l33.402-0.398L425.109,352.138L425.109,352.138z"/>
	<polygon id="gourmet-market" fill="#494949" stroke="#212121" stroke-miterlimit="10" points="689,106.125 501.125,107 
		500.875,274 466.667,275.333 467.667,319 424.265,320.054 425.109,352.138 468.258,352.792 468.258,352.792 468.258,352.792 
		468.853,375.422 504.333,375 504.667,354.667 530.333,327 531,285.667 559.333,286 559.667,328 576.333,352.667 577,369.667 
		635.333,424.667 635.455,424.663 675.241,380.625 692.754,380.625 	"/>
	<polygon id="e4-2" fill="#494949" stroke="#212121" stroke-miterlimit="10" points="425.109,352.138 425.735,375.936 
		468.853,375.422 468.258,352.792 	"/>
	<polygon id="e4-5" fill="#494949" stroke="#212121" stroke-miterlimit="10" points="692.754,380.625 675.241,380.625 
		635.455,424.663 693.333,423 	"/>
	<path id="emporium-foodhall" fill="#494949" stroke="#212121" stroke-miterlimit="10" d="M689,497.667L679,552l13,2.667
		c0,0-21,129.334-23.667,134c6,0.333,12,2.333,8.333,8.333c13.667,2,136.667,21.667,136.667,21.667l1.667-7l7.667,2L856.334,528
		l-34.667-6l5.667-34.667L705,463.667L700,499L689,497.667z"/>
	<path id="the-living" fill="#494949" stroke="#212121" stroke-miterlimit="10" d="M610.854,640.863L484.5,618l8.806-40.667
		l-30.782-5.72l-7.662,41.535l-147.415-28.522c0,0-17.87-23.827-22.948-33.626c-4.386-8.463-14.908-39.424-14.908-39.424
		l38.256-18.877L299,497l-6-13.5l-11.5,5c0,0-14.5-40.5-14.5-46s-3.5-36-3.5-36l14,1l0.5-15l53.5,0.5c0,0,1,37.5,2,41.5
		c0.954,3.814,12.355,35.944,13.413,38.922l28.212-13.921L354.5,440.5l-6.138-47.519l17.669-0.111L366,392.665V313.1L177,318
		c-37,189,72.667,304.333,72.667,304.333s26.667-18.333,29.333-20s8.333,0.667,8.333,0.667s18.333,27.667,20.667,31.333
		s4.667,1.667,10,2.333s4.667,7.333,4.667,7.333L407,660.667l5.667-6L514,673.333l1.667,7.667l83,15.667l5.255-6.229l-2.422-0.406
		L610.854,640.863z"/>
</g>
<g id="signs">
	<g id="escalator">
		<rect id="escalator-1" x="523" y="288" width="45" height="45"/>
		<rect id="escalator-2" x="283" y="378" width="45" height="45"/>
		<rect id="escalator-3" x="293" y="458" width="45" height="45"/>
		<rect id="escalator-4" x="576" y="475" width="45" height="45"/>
	</g>
	<g id="lift">
		<rect id="lift-1" x="416" y="261" width="45" height="45"/>
		<rect id="lift-2" x="674" y="458" width="45" height="45"/>
	</g>
	<g id="toilet">
		<rect id="toilet-1" x="384" y="272" width="45" height="45"/>
		<rect id="toilet-2" x="604" y="641" width="45" height="45"/>
		<rect id="toilet-3" x="818" y="485" width="45" height="45"/>
	</g>
</g>
</svg>
