<?xml version="1.0" encoding="utf-8"?>
<!-- Generator: Adobe Illustrator 16.0.0, SVG Export Plug-In . SVG Version: 6.00 Build 0)  -->
<!DOCTYPE svg PUBLIC "-//W3C//DTD SVG 1.1//EN" "http://www.w3.org/Graphics/SVG/1.1/DTD/svg11.dtd">
<svg version="1.1" id="Layer_1" xmlns="http://www.w3.org/2000/svg" xmlns:xlink="http://www.w3.org/1999/xlink" x="0px" y="0px"
	 width="1000px" height="1000px" viewBox="0 0 1000 1000" enable-background="new 0 0 1000 1000" xml:space="preserve">
<g id="background">
</g>
<g id="etc">
	<path fill="#BFBFBF" stroke="#494949" stroke-miterlimit="10" d="M658.445,505.231l-0.747,35.875l-18.685-1.495l2.242-45.591
		H517.189l-2.242-186.098l-23.168-0.748l-0.748-62.033l-119.581-1.495l-2.242,124.065l-85.949,0.748v30.643
		c0,0-110.613,2.242-155.456,2.99c-10.463,29.147-5.231,97.16-5.231,97.16l-21.674,2.989c0,0-14.2,89.687-15.695,104.634
		c-1.495,14.947,16.443,23.916,16.443,23.916l27.653,5.231l-2.242,10.464l164.425,32.138l20.926-8.222l56.802,11.211l5.231,5.979
		l56.054,11.958l6.727,6.727l26.158,4.484l17.19-12.706l3.736-22.421l11.211,2.989l-2.989,26.158c0,0-1.495,4.484-0.747,11.211
		c3.736,11.958,22.421,5.979,22.421,5.979s33.633,3.737,41.854,4.484c8.222,0.748,8.969-5.231,8.969-5.231l68.759,3.737
		l5.232-158.445h17.938l-0.3,9.268l16.219,0.149l0,0l0,0l0,0l-16.219-0.149l-4.185,147.683l110.612,2.989l3.737-215.246
		L658.445,505.231z"/>
	<path fill="#868686" stroke="#6B6B6B" stroke-miterlimit="10" d="M426.756,542.601c0,0-1.494-18.311,15.695-18.311
		c17.19,0,16.816,17.563,16.816,17.563s0.374,17.563-16.068,17.563C427.13,559.043,426.756,542.601,426.756,542.601z"/>
	<polyline fill="#868686" stroke="#6B6B6B" stroke-miterlimit="10" points="516.442,495.516 509.342,507.101 523.169,509.343 
		526.906,495.142 516.442,495.516 	"/>
	<path fill="#BFBFBF" stroke="#6D6D6D" stroke-miterlimit="10" d="M122.571,499.253c0,0,5.605,30.269,10.089,41.854"/>
	<polyline fill="#868686" stroke="#6B6B6B" stroke-miterlimit="10" points="492.152,513.826 521.674,520.18 516.816,547.085 
		507.848,545.217 512.705,518.311 	"/>
	<polygon fill="#868686" stroke="#6B6B6B" stroke-miterlimit="10" points="259.342,503.363 270.179,514.2 276.532,505.979 
		265.321,497.011 	"/>
	<polygon fill="#868686" stroke="#6B6B6B" stroke-miterlimit="10" points="283.259,368.46 283.259,399.103 310.912,398.356 
		311.285,381.166 311.659,381.166 311.659,368.46 	"/>
	<polygon fill="#868686" stroke="#6B6B6B" stroke-miterlimit="10" points="329.597,368.46 311.659,368.46 311.659,381.166 
		329.223,380.792 	"/>
	<polygon fill="#868686" stroke="#6B6B6B" stroke-miterlimit="10" points="672.87,567.189 656.951,566.518 656.801,575.785 
		672.87,575.935 	"/>
	<polygon fill="#999999" stroke="#6B6B6B" stroke-miterlimit="10" points="692.601,568.012 672.87,567.189 672.87,575.935 
		672.87,575.935 672.87,575.935 656.801,575.785 656.428,607.399 675.635,607.848 676.158,597.16 692.825,597.16 	"/>
	<polygon id="waiting-lounge" fill="#999999" stroke="#6B6B6B" stroke-miterlimit="10" points="523.692,509.492 539.611,509.492 
		533.109,546.861 517.713,546.338 	"/>
	<polygon id="e-space-gf" fill="#868686" stroke="#6B6B6B" stroke-miterlimit="10" points="418.161,363.603 442.451,363.603 
		442.451,403.214 417.788,403.214 	"/>
	<polygon id="emporium-tower" fill="#999999" stroke="#6B6B6B" stroke-miterlimit="10" points="381.166,606.95 381.166,606.95 
		366.667,604.26 366.667,604.26 337.743,598.805 337.743,598.805 309.417,593.498 309.417,593.498 278.924,587.817 243.199,581.166 
		240.209,595.665 231.39,593.722 228.55,610.613 215.77,607.623 212.033,623.916 212.257,624.515 226.458,647.982 298.954,667.414 
		316.891,658.445 367.713,668.161 384.155,683.856 384.305,683.856 396.113,609.791 	"/>
	<polygon id="emporium-suites" fill="#999999" stroke="#6B6B6B" stroke-miterlimit="10" points="452.316,620.329 452.316,620.329 
		424.29,615.022 424.29,615.022 396.113,609.791 384.305,683.856 451.42,696.562 484.305,675.636 495.516,678.625 503.513,629.896 	
		"/>
	<polygon id="_x3C_Path_x3E_" fill="#999999" stroke="#6B6B6B" stroke-miterlimit="10" points="202.466,401.271 203.289,447.16 
		254.708,447.684 255.082,400.149 	"/>
</g>
<g id="rooms">
	<path id="eg-8" fill="#494949" stroke="#212121" stroke-miterlimit="10" d="M189.91,571.823l-19.208-45.291l-38.416,13.079
		c16.442,70.254,50.822,100.896,50.822,100.896l22.421-18.685l5.979,1.495l0.448,0.747v-0.149L189.91,571.823L189.91,571.823z"/>
	<polygon id="eg-9" fill="#494949" stroke="#212121" stroke-miterlimit="10" points="223.468,553.064 211.51,522.422 
		200.299,516.442 170.703,526.532 189.91,571.823 233.259,548.057 	"/>
	<path id="eg-11" fill="#494949" stroke="#212121" stroke-miterlimit="10" d="M299.701,514.2l-27.728,14.126l13.378,22.72
		l-6.427,36.771l30.493,5.681l7.848-59.492C305.307,524.215,299.701,514.2,299.701,514.2z"/>
	<path id="eg-12" fill="#494949" stroke="#212121" stroke-miterlimit="10" d="M345.291,549.327
		c-11.658-3.587-21.001-9.417-28.026-15.246l-7.848,59.491l28.326,5.307l7.848-49.402
		C345.516,549.402,345.366,549.327,345.291,549.327z"/>
	<path id="eg-15" fill="#494949" stroke="#212121" stroke-miterlimit="10" d="M413.304,555.307c0,0-9.866,0.972-23.692,0.598
		l-8.445,51.046l14.947,2.766l28.177,5.231l5.829-40.657C417.788,568.685,413.304,555.307,413.304,555.307z"/>
	<path id="eg-16" fill="#494949" stroke="#212121" stroke-miterlimit="10" d="M443.199,576.98c-5.083,0.149-9.417-0.896-13.08-2.541
		l-5.829,40.658l28.102,5.231l5.082-47.534C453.588,575.112,448.879,576.757,443.199,576.98z"/>
	<path id="eg-17" fill="#494949" stroke="#212121" stroke-miterlimit="10" d="M514.947,560.538l-41.854-8.222
		c0,0-4.185,13.379-15.694,20.404l-5.083,47.533l51.196,9.566L514.947,560.538z"/>
	<path id="eg-14" fill="#494949" stroke="#212121" stroke-miterlimit="10" d="M374.365,554.933l-7.698,49.327l14.499,2.69
		l8.445-51.046C384.902,555.755,379.746,555.53,374.365,554.933z"/>
	<path id="eg-13" fill="#494949" stroke="#212121" stroke-miterlimit="10" d="M345.591,549.402l-7.848,49.401l28.924,5.382
		l7.698-49.327C365.098,554.036,355.082,552.316,345.591,549.402z"/>
	<polygon id="eg-10" fill="#494949" stroke="#212121" stroke-miterlimit="10" points="215.77,607.623 215.77,607.623 
		228.55,610.613 231.39,593.722 231.39,593.722 231.39,593.722 240.209,595.665 243.199,581.166 243.199,581.166 243.199,581.166 
		278.924,587.817 285.351,551.046 271.973,528.326 233.259,548.057 189.91,571.823 212.033,623.916 	"/>
	<path id="eg-19" fill="#494949" stroke="#212121" stroke-miterlimit="10" d="M399.477,495.814l-0.299,35.949
		c3.662-0.074,8.146-0.149,13.827-0.448c2.466-14.947,19.955-22.422,19.955-22.422v-13.452
		C432.96,495.516,416.068,495.814,399.477,495.814z"/>
	<path id="eg-20" fill="#494949" stroke="#212121" stroke-miterlimit="10" d="M370.702,495.067l-1.345,35.501
		c9.192,1.271,15.77,0.822,15.77,0.822s2.616,0.598,14.051,0.448l0.299-35.949C387.743,495.814,376.084,495.665,370.702,495.067z"/>
	<path id="eg-21" fill="#494949" stroke="#212121" stroke-miterlimit="10" d="M370.18,494.992
		c-12.557-1.569-22.87-11.21-21.45-9.939l-27.878,18.46c12.781,18.909,34.007,25.112,48.506,27.13l1.345-35.501
		C370.553,495.067,370.403,495.067,370.18,494.992z"/>
	<path id="eg-18" fill="#494949" stroke="#212121" stroke-miterlimit="10" d="M452.915,494.992l-0.972,12.93
		c0,0,20.927,8.446,22.944,31.914l12.93,2.989l6.951-47.608L452.915,494.992z"/>
	<path id="eg-7" fill="#494949" stroke="#212121" stroke-miterlimit="10" d="M213.752,477.578c0,0,4.484,33.408,9.94,43.349
		c24.439-10.464,33.857-15.471,33.857-15.471l7.474-8.969l11.435,9.94l-4.111,5.082l33.483-17.04l-5.456-14.948l-8.446-1.494
		L213.752,477.578z"/>
	<path id="eg-1" fill="#494949" stroke="#212121" stroke-miterlimit="10" d="M127.579,402.84c0,0-10.987,53.812-4.484,97.16
		l73.244-10.463l6.502-8.969l-0.523-33.408h0.972l-0.822-45.964L127.579,402.84z"/>
	<polygon id="eg-3" fill="#494949" stroke="#212121" stroke-miterlimit="10" points="255.082,400.149 254.708,447.684 
		283.707,447.907 284.38,399.552 	"/>
	<polygon id="eg-4" fill="#494949" stroke="#212121" stroke-miterlimit="10" points="284.38,399.552 283.707,447.907 
		299.552,448.057 299.925,399.178 	"/>
	<polygon id="eg-5" fill="#494949" stroke="#212121" stroke-miterlimit="10" points="315.919,398.879 299.925,399.178 
		299.552,448.057 314.873,448.206 	"/>
	<polygon id="eg-6" fill="#494949" stroke="#212121" stroke-miterlimit="10" points="323.394,398.879 322.87,449.178 
		342.302,449.402 342.302,398.356 	"/>
	<polygon id="edsg-1" fill="#494949" stroke="#212121" stroke-miterlimit="10" points="467.862,271.3 467.115,243.872 
		426.98,243.797 426.98,271.3 	"/>
	<path id="edsg-2" fill="#494949" stroke="#212121" stroke-miterlimit="10" d="M491.555,307.922l-0.225-37.145l-23.393,0.747V271.3
		h-40.882v-27.503l-56.354-0.149l-0.224,124.065h-28.177v30.643v51.046l0,0l0.972,16.666c-0.299,8.296,4.036,27.354,27.429,28.924
		c31.839,0.449,145.441-0.074,145.441-0.074v-187.22L491.555,307.922z M442.451,403.214h-24.663l0.373-39.611h24.29V403.214z"/>
	<polygon id="platinum-m-club" fill="#494949" stroke="#212121" stroke-miterlimit="10" points="514.947,560.538 529.896,562.033 
		527.952,574.515 512.93,572.721 	"/>
</g>
<g id="signs">
	<g id="toilet">
		<rect id="toilet-1" x="462.631" y="239.91" width="33.632" height="33.632"/>
		<rect id="toilet-2" x="279.521" y="365.471" width="33.633" height="33.632"/>
	</g>
	<g id="lift">
		<rect id="lift-1" x="250.374" y="488.789" width="33.632" height="33.633"/>
		<rect id="lift-2" x="302.69" y="357.997" width="33.633" height="33.632"/>
		<rect id="lift-3" x="499.253" y="515.695" width="33.632" height="33.632"/>
		<rect id="lift-4" x="648.729" y="553.812" width="33.632" height="33.633"/>
	</g>
	<g id="escalator">
		<rect id="escalator-1" x="248.131" y="452.167" width="33.632" height="33.633"/>
		<rect id="escalator-2" x="413.304" y="365.471" width="33.632" height="33.632"/>
		<rect id="escalator-3" x="426.756" y="523.916" width="33.633" height="33.633"/>
	</g>
	<g id="parking">
		<rect id="parking-1" x="553.064" y="599.402" width="33.632" height="33.632"/>
		<rect id="parking-2" x="696.562" y="598.654" width="33.632" height="33.633"/>
	</g>
	<g id="dropoff">
		<rect id="dropoff-1" x="144.245" y="627.803" width="33.632" height="33.632"/>
		<rect id="dropoff-2" x="325.859" y="652.467" width="33.633" height="33.632"/>
	</g>
	<g id="taxi">
		<rect id="taxi-1" x="78.476" y="553.812" width="33.632" height="33.633"/>
		<rect id="taxi-2" x="433.109" y="220.852" width="33.632" height="33.632"/>
	</g>
	<g id="entrance">
		<rect id="entrance-1" x="398.355" y="227.952" width="33.633" height="33.632"/>
		<rect id="entrance-2" x="109.866" y="502.242" width="33.632" height="33.632"/>
	</g>
	<rect id="driver-waiting-room" x="511.809" y="507.474" width="33.633" height="33.633"/>
	<g id="tourist-lounge">
		<rect id="tourist-lounge-2" x="413.752" y="537.594" width="10.538" height="10.538"/>
		<rect id="tourist-lounge-1" x="461.659" y="536.622" width="10.538" height="10.538"/>
	</g>
	<rect id="information" x="503.513" y="549.701" width="33.632" height="33.632"/>
	<rect id="stairs" x="644.843" y="597.907" width="33.633" height="33.633"/>
</g>
</svg>
