<?xml version="1.0" encoding="utf-8"?>
<!-- Generator: Adobe Illustrator 19.2.0, SVG Export Plug-In . SVG Version: 6.00 Build 0)  -->
<svg version="1.1" id="Layer_1" xmlns="http://www.w3.org/2000/svg" xmlns:xlink="http://www.w3.org/1999/xlink" x="0px" y="0px"
	 viewBox="0 0 1338 892" style="enable-background:new 0 0 1338 892;" xml:space="preserve">
<style type="text/css">
	.st0{fill:#868686;stroke:#6B6B6B;stroke-miterlimit:10;}
	.st1{fill:#BFBFBF;stroke:#494949;stroke-miterlimit:10;}
	.st2{fill:#494949;stroke:#212121;stroke-miterlimit:10;}
	.st3{fill:none;stroke:#494949;stroke-width:7;stroke-miterlimit:10;}
</style>
<g id="background">
</g>
<g id="etc">
	<polygon class="st0" points="436.7,281 411.2,281 411.2,297.5 436.7,297.5 	"/>
	<path class="st1" d="M706.5,449.5L702,118H505v163h-68.3v16.5l0,0l0,0h-25.4l0.1,21.2l-35.3,0.2v0.2l-199,5
		c0,0-55.5,126.8,70,303.5c0,0,28-21,31-22.5s7,2.5,7,2.5l23,32c0,0,8-3,11,2s7,7,7,7s59,11.5,69.5,13S411,658,411,658
		s74,14,89,15.5c8.5,0,14,10,14,10l64.5,12c0,0,13,6,16.5,0.5s6-3,6-3l9.5,3l32-22.5l7.5,1l12.5,15.9L707,449.6L706.5,449.5z"/>
	<polygon class="st0" points="411.2,297.5 411.2,281 376,281 376,318.8 411.3,318.7 	"/>
	<polygon class="st0" points="894.4,552.3 892.3,564.4 892.3,564.4 892.3,564.4 872.7,560.8 865.4,600.3 890.8,605.8 894.1,590.2 
		915.1,594.5 921.3,557.7 	"/>
	<polygon class="st0" points="894.4,552.3 874.9,548.5 872.7,560.8 892.3,564.4 	"/>
	<polygon class="st1" points="855,505.5 860,479.5 707,449.6 662.5,690.4 663,691 816,719 849,543 875,548 874.9,548.5 921.3,557.7 
		921.3,557.7 921.3,557.7 915.1,594.5 915.1,594.5 915.1,594.5 894.1,590.2 890.8,605.8 890.8,605.8 890.8,605.8 865.4,600.3 
		841,734 976,759 1016,538 	"/>
	<polygon class="st0" points="347.5,417 351.8,444.5 372.5,462.5 412,445 407,425 400.5,425 399.5,417 	"/>
	<polygon class="st0" points="348,456 355.2,447.8 370.2,460.8 363.2,469.2 	"/>
	<path class="st0" d="M573,506c0,0-2.5-23,20.7-23c22.3,0,22,22,22,22s1.3,21-21,21C572.5,526,573,506,573,506z"/>
	<polygon class="st0" points="690.5,465.8 703.5,468.2 697,502.8 684,500.3 	"/>
	<polyline class="st0" points="702,118 670,118 670,153 703,153 	"/>
	<rect id="e-spcae-2f" x="572" y="268" class="st0" width="36" height="55"/>
	<polygon class="st0" points="703.1,153 702.7,118 670.5,118 670.5,153 	"/>
	<path id="_x3C_Path_x3E_" class="st0" d="M256.5,409.5h18l1-13L325,397c0,0-1.5,49,13.5,74.5c-31.5,15.5-44,22.5-44,22.5l-1.5-5
		l-18,11C275,500,255,443,256.5,409.5z"/>
</g>
<g id="rooms">
	<polygon id="e2-8" class="st2" points="355,558.3 363.7,524 346.1,493 302.3,514.7 297.9,527.2 306.6,555.5 	"/>
	<path id="e2-14" class="st2" d="M537.9,591.4l10.3-72.7c-21.2,0.5-50.2-3.4-50.2-3.4s-33-4-53.3-12.7s-31.3-26.3-31.3-26.3l-18,11
		l-9-14.3l-40.3,20l17.6,31l-8.6,34.4l-48.4-2.9l-16.2,25.7l377.3,80.2l8.2-44.7L537.9,591.4z"/>
	<path id="e2-15" class="st2" d="M290.4,581.2c0,0-19.9,29-14.2,25.1c4.1-3.5,8.9,1.2,8.9,1.2l22.8,32c0,0,8-2.2,10.6,1.2
		c5.2,7.8,8.8,8,8.8,8s51.6,9.9,65.6,12.2s18.2-3.1,18.2-3.1c1,0.6,79.5,14.4,89.2,15.8c9.5,1,13.6,9.9,13.6,9.9
		s63.9,11.8,64.5,11.9s3.4,2.1,9.4,2.9s8.1-3.5,9.2-4.6s3-1.2,3-1.2l1.6,0.9l8.6,2.8l32-22.7l7.7,0.7l12.3,16.7l5.4-29.3
		L290.4,581.2z"/>
	<path id="e2-9" class="st2" d="M556,518.3c-2.4,0.2-5,0.4-7.8,0.4l-10.3,72.7l34.7,6.3l5.5-52.7C562.7,538.4,556.8,523.2,556,518.3
		z"/>
	<path id="e2-10" class="st2" d="M594.3,548.3c-6.3,0-11.7-1.3-16.3-3.3l-5.5,52.7l19.2,3.5l6.3-53.2
		C596.8,548.2,595.6,548.3,594.3,548.3z"/>
	<path id="e2-11" class="st2" d="M626,531.5c-6.2,7.5-15.5,15.3-28,16.6l-6.3,53.2l34.4,6.3l9.2-67.2L626,531.5z"/>
	<path id="e2-12" class="st2" d="M692.3,527.7l-57-11c0,0-3.1,7.3-9.3,14.9l9.2,8.8l0,0l0,0l-9.2,67.2l49.9,9.1L692.3,527.7z"/>
	<polygon id="e2-7" class="st2" points="454.7,317.8 454.7,318 421.3,318 421.3,382.7 463,382.7 463,317.8 	"/>
	<path id="e2-13" class="st2" d="M608,463.3c0,0,28,9,28,37.7c6.3,1.3,25.3,4,25.3,4l12.4-62.5H608V463.3z"/>
	<path id="eds2-1" class="st2" d="M703.1,153h-32.6v-35H505.3v163.3h-50.7v36.4h8.3v64.9h0.3v16.7l-43.3,0.3c0,0-3.3,54,30,72.7
		s70,17.3,70,17.3h34.7c0,0,5.8-23.2,28-26.3v-21H608v0.2h65.7l0.3-1.5h32.7L703.1,153z M608,323h-36v-55h36V323z"/>
	<polygon id="e2-1" class="st2" points="233,322.6 231,379.5 260,379.9 260,322 	"/>
	<polygon id="e2-2" class="st2" points="260,322 260,379.9 288.6,380.3 289.4,321.3 	"/>
	<polygon id="e2-3" class="st2" points="289.4,321.3 288.6,380.3 306.6,380.5 307,320.9 	"/>
	<polygon id="e2-4" class="st2" points="307,320.9 306.6,380.5 326.7,380.8 327.9,320.4 	"/>
	<polygon id="e2-5" class="st2" points="327.9,320.4 326.7,380.8 344.3,381 346.3,320 	"/>
	<polygon id="e2-6" class="st2" points="410,318.5 346.3,320 344.3,381 411.5,382 	"/>
	
		<rect id="e2-12_1_" x="420.6" y="515.4" transform="matrix(0.9754 0.2204 -0.2204 0.9754 127.8543 -83.1574)" class="st2" width="32.2" height="32.2"/>
	
		<rect id="e2-13_1_" x="452" y="522.5" transform="matrix(0.9754 0.2204 -0.2204 0.9754 130.187 -89.8959)" class="st2" width="32.2" height="32.2"/>
	<path id="eds2-2" class="st2" d="M232.5,322.7l-2,56.8l-65.7,3.2c1.6-20.4,5.2-39.9,10.7-58.7L232.5,322.7z"/>
	<path id="eds2-3" class="st2" d="M165.1,382.7c-1,37.2,0,64.4,11.8,101.9l29.9-3.2l-0.2-101.4L165.1,382.7z"/>
	<polygon id="eds2-8" class="st2" points="221.4,543.1 202.3,552.4 215.3,576.7 232.8,566.1 	"/>
	<polygon id="eds2-9" class="st2" points="232.8,566.1 215.3,576.7 230.8,604.5 248.8,593.7 	"/>
	<polygon id="eds2-10" class="st2" points="248.8,593.7 230.8,604.5 247,627.5 263.7,615.1 	"/>
	<path id="eds2-11" class="st2" d="M306.6,555.5l-30.4,50.8l-11.6,8.9c-17.8-22-30.5-43.1-43.2-72l34.7-22.6l7.6,11l34.2-22.9l4.5,6
		l-4.5,12.5L306.6,555.5z"/>
	
		<rect id="eds2-7" x="219.3" y="473.8" transform="matrix(0.9991 -4.177928e-02 4.177928e-02 0.9991 -20.305 10.2256)" class="st2" width="30.4" height="34.2"/>
	
		<rect id="eds2-5" x="217.7" y="436.5" transform="matrix(0.9991 -4.177928e-02 4.177928e-02 0.9991 -18.75 10.128)" class="st2" width="30.4" height="34.2"/>
	
		<rect id="eds2-4" x="215.8" y="399.1" transform="matrix(0.9991 -4.177928e-02 4.177928e-02 0.9991 -17.1898 10.0152)" class="st2" width="30.4" height="34.2"/>
	<path id="eds2-6" class="st2" d="M206.8,481.3l14.7,61.8l-19.1,9.1c-9.6-19.7-18.9-45.7-25.4-67.7L206.8,481.3z"/>
	<path id="eds2-16_1_" class="st3" d="M256.5,409.5h18l1-13L325,397c0,0-1.5,49,13.5,74.5c-31.5,15.5-44,22.5-44,22.5l-1.5-5l-18,11
		C275,500,255,443,256.5,409.5z"/>
</g>
<g id="signs">
	<g id="escalator">
		<rect id="escalator-1" x="269" y="379" width="45" height="45"/>
		<rect id="escalator-2" x="350" y="386" width="45" height="45"/>
		<rect id="escalator-3" x="288" y="468" width="45" height="45"/>
		<rect id="escalator-4" x="572" y="483" width="45" height="45"/>
		<rect id="escalator-5" x="568" y="271" width="45" height="45"/>
	</g>
	<g id="lift">
		<rect id="lift-1" x="402" y="265" width="45" height="45"/>
		<rect id="lift-2" x="337" y="437" width="45" height="45"/>
		<rect id="lift-3" x="672" y="461" width="45" height="45"/>
		<rect id="lift-4" x="862" y="532" width="45" height="45"/>
	</g>
	<g id="toilet">
		<rect id="toilet-1" x="370" y="279" width="45" height="45"/>
		<rect id="toilet-2" x="664" y="111" width="45" height="45"/>
	</g>
	<g id="parking">
		<rect id="parking-1" x="739" y="574" width="45" height="45"/>
		<rect id="parking-2" x="909" y="603" width="45" height="45"/>
	</g>
	<rect id="entrance" x="672" y="495.8" width="45" height="45"/>
	<rect id="stairs" x="862.8" y="577" width="45" height="45"/>
</g>
</svg>
