<?xml version="1.0" encoding="utf-8"?>
<!-- Generator: Adobe Illustrator 19.2.0, SVG Export Plug-In . SVG Version: 6.00 Build 0)  -->
<svg version="1.1" id="Layer_1" xmlns="http://www.w3.org/2000/svg" xmlns:xlink="http://www.w3.org/1999/xlink" x="0px" y="0px"
	 viewBox="0 0 1000 1000" style="enable-background:new 0 0 1000 1000;" xml:space="preserve">
<style type="text/css">
	.st0{fill:#EDEFEF;}
	.st1{fill:#FFFFFF;stroke:#FFFFFF;stroke-width:4;stroke-miterlimit:10;}
	.st2{fill:#FFFFFF;}
	.st3{fill:#999999;}
	.st4{fill:#CCCCCC;}
	.st5{fill:#CCCCCC;stroke:#FFFFFF;stroke-miterlimit:10;}
	.st6{fill:#EDEDED;}
	.st7{fill:#D1D3D3;stroke:#FFFFFF;stroke-miterlimit:10;}
	.st8{fill:#D1D3D3;}
	.st9{fill:none;stroke:#FFFFFF;stroke-miterlimit:10;}
</style>
<g id="background">
	<rect x="-2.3" y="188.8" class="st0" width="1000" height="627.6"/>
</g>
<g id="etc">
	<path class="st1" d="M962.7,506.8L941.6,484l-28.5-1.6l-20.3-23.6l7.3-5.7l-38.2-46.4l-93.6-57l12.2-33.4l-213.2-83l-9.8,34.2
		l-23.6-9.8h-81.4l-29,11c-5.1-9.1-14.9-15.2-26-15.2c-16.5,0-29.9,13.4-29.9,29.9c0,2.2,0.2,4.3,0.7,6.3l-6.6,2.5
		c-4.7-10.3-15.1-17.5-27.2-17.5c-16.5,0-29.9,13.4-29.9,29.9c0,3.1,0.5,6,1.3,8.8l-58.3,23.1l-58.6,63.5l-5.9,3.3
		c0,0-103.1,74-122.7,91.1s-30.1,33.4-30.1,53.7c0,10.2,5.1,21,10.2,29.2c5.1,8.2,10.2,13.9,10.2,13.9l81.4,74h201v7.3l-35.8-0.8
		l-0.8,6.5h-44.7l-19.1,9.8c-28.9,4.9-27.3,26.8-27.3,26.8c2.4,25.2,30.9,30.1,30.9,30.1l18.7,7.3c0,0,241.5,1.9,354.9,1.4
		c1.9,14.7,14.4,26.1,29.7,26.1c15.9,0,29-12.5,29.9-28.2c13.3-1.8,89.2,0.8,89.2,0.8l45.6-11.4l91.1-31.7l-1.4-3.2
		c8.6-5.3,14.3-14.7,14.3-25.5c0-16.5-13.4-29.9-29.9-29.9c-2.7,0-5.3,0.4-7.8,1l-0.4-1h8.2h84.5L962.7,506.8L962.7,506.8z"/>
	<path class="st2" d="M455.7,338.4l-27.7-69.5l-2.8,1.1c-5.1-9.1-14.9-15.2-26-15.2c-16.5,0-29.9,13.4-29.9,29.9
		c0,2.2,0.2,4.3,0.7,6.3l-6.6,2.5c-4.7-10.3-15.1-17.5-27.2-17.5c-16.5,0-29.9,13.4-29.9,29.9c0,3.1,0.5,6,1.3,8.8l-58.3,23.1
		l-58.2,63l32.7,32.2l6-6.5l20.1,17.4l41.2-41.8l25-10.3l18.7,46.3c4.4-1.5,8.8-2.8,13-4.1l-13-36.2l11.1-2.7l-4.6-11.9l51.8-20.1
		v3.8l19-8.1h9.2l8.6,55.7c3.1-0.5,5-0.8,5.6-0.9l-7.7-62.9L455.7,338.4z"/>
	<path class="st3" d="M894.2,459.8l7.3-5.7l-38.2-46.4l-93.6-57l12.2-33.4l-213.2-83l-9.8,34.2l-23.6-9.8H454l-26.3,10l28,69.6
		l13-4.8l0,0l54.2-0.4l41.7,16.1l-0.9,15.2l11.2,0.3l-1.7,13.4c4.7,0.4,9.1,0.8,13.4,1.2l13.6,1.6c4.4,0.8,8.7,1.4,13.1,2.2
		c13.2,3.6,26.8,7.6,40.7,12c16,5.1,30.9,11.4,45.3,16.8c-2.2,5.8-4,10.5-6.2,16.2c2.3,0.9,4.3,2.4,6.6,3.3
		c-2.7,6.7-5.3,12.7-8.1,19.4c2,0.9,3.9,1.7,5.7,2.6c3.1-7.2,6.5-14.4,9.6-21.6c4,2.2,7.6,4.6,11.6,6.8c2.3-5.2,4.4-10.5,6.5-15.8
		l43.4,24.9l-7.9,13.3l21.7,15.2l5.4-7.5l0.2,0.2l-5.3,7.4L769,496c3.5,3.6,6.2,6.8,8.1,9.4l-0.1,0.1c2,2.7,3.1,4.4,3.2,4.7
		l21.2-26.2l113.1-0.6L894.2,459.8z M608.3,382.2c1.6,0.3,3.4,0.7,5,1l-1.7-0.4c-1.1-0.2-2.1-0.4-3.2-0.6L608.3,382.2z"/>
	<polygon class="st3" points="421.1,358.7 411.9,358.7 392.9,366.9 392.9,363.1 341.1,383.1 344.8,392.7 367.5,387.9 416.7,377.6 
		418.2,384.9 424.9,383.3 	"/>
	<polygon class="st3" points="468.7,333.6 455.7,338.4 455.7,338.4 427.6,350.6 428.6,358.4 449.7,357.4 469.9,356.4 	"/>
	<path class="st3" d="M298,428.3l28.1-11.1l-10.2-25.4l-25,10.3L273.4,420l16.8,35c1.1-0.5,2.2-0.9,3.3-1.4l-8-20.3"/>
	<path class="st3" d="M91.3,628l11.9-12.4c0,0,0,0,0,0c0,0,0,0-0.1-0.1l-0.2-0.2c0,0,0,0,0,0l-0.2-0.2c-0.1-0.1-0.1-0.1-0.2-0.2
		l-0.2-0.2c-0.1-0.1-2-1.8-2-1.8c0,0-0.1-0.1-0.1-0.1l-0.1-0.1l0,0l21.4-24.3l0,0l0,0c-0.6-2.5-1.8-6.8-1.4-9.2
		c1.4-5.7,0.8-11.1,0.5-16.8c-0.3-17.9-14.1-29.8-25.8-42c-8.7-8.4-17.1-16-26.3-24.1c-1.4-1-2.8-1.8-4.3-2.5
		c-0.8,0.7-1.6,1.3-2.3,1.9c-19.5,17.1-30.1,33.4-30.1,53.7c0,10.2,5.1,21,10.2,29.2c5.1,8.2,10.2,13.9,10.2,13.9L91.3,628z"/>
	<path class="st3" d="M782.9,653c0.3,0.5,0,26.8,0,26.8l32.3-13.4c0,0,6.2-2.6,5.7-9.4c-0.5-6.8,0-6.8,0-6.8h-38L782.9,653
		L782.9,653z"/>
	<polygon class="st3" points="344.9,392.7 344.8,392.7 345.7,395.1 334.6,397.8 339.3,411 350.2,407.1 	"/>
	<g>
		<path class="st3" d="M229.7,426.5l-6,6.5L191,400.8l-0.4,0.5l-5.9,3.3c0,0-27.7,19.9-57,41.4l44.7,43.1l24.2-26.2l0.5-0.3l-5.8-6
			l-8.3,8.8l-20.3-19.5l30.1-29.3l19.1,18.3L200,446.9l6.2,6.1l12.9-13.7l3.9,6l6.6-3.3l11.6-5.6L229.7,426.5z"/>
	</g>
	<path class="st4" d="M223.8,646.7"/>
	<polyline class="st3" points="223.8,646.7 209.6,646.7 209.6,666.5 230.5,666.5 230.5,624.2 223.8,624.2 223.8,646.7 	"/>
	<polygon class="st3" points="358.8,642.4 341.1,642.4 341.1,663.6 364.7,663.6 364.7,642.4 	"/>
	<path class="st3" d="M563.7,364.4L563.7,364.4L563.7,364.4l-2.4,22.3l5,0.4l-3.2,27.6c3.6,0.2,5.6,0.4,5.8,0.4l4.3-37l1.5-13.4
		L563.7,364.4z"/>
	<polygon class="st5" points="568.7,642.9 568.7,624.2 561.6,624.2 561.6,663.6 568.7,663.6 583.9,663.6 583.9,642.9 	"/>
	<rect x="648.4" y="646.2" class="st5" width="14.6" height="17.4"/>
	<rect x="673.3" y="642.4" class="st5" width="19" height="21.2"/>
	<polygon class="st5" points="428.7,650 408.7,650 408.7,663.6 428.7,663.6 439,663.6 439,650 	"/>
	<path class="st6" d="M563.7,364.4l-2.4,22.3l5,0.4l-3.2,27.6c3.6,0.2,5.6,0.4,5.8,0.4l4.3-37l1.6-13.4L563.7,364.4z"/>
	<path class="st4" d="M343.8,513l-9.2,2.7l3.3,8.7L298,542.6c0,1.6,0,10.3,0,10.3H320v8.7h21.1V544h16.4l0.2-8.1l-17.1-44.1l-4.3,2
		L343.8,513z"/>
	<circle class="st3" cx="166.7" cy="591.4" r="11.4"/>
	<path class="st3" d="M189.7,553c0.3,1.4,0.7,2.8,1.3,4.3c3.4,8.8,9.1,16.9,19,18.3c3.8,0.5,7-2.4,10.8-2.3c4.3,0.2,7.2,4,11.3,0.4
		c2.1-1.8,5.6-4.6,6.7-7.2c1.5-3.5-0.4-7.4,0.4-11c1.2-5.5,7.6-8.6,7.1-14.9c-0.8-10.2-16.9-10.9-16.6-22.2c0-1.2,0.2-2.5-0.1-3.7
		c-0.5-1.8-2.3-3-4.1-3.4c-2.2-0.5-6.8-0.8-9-0.3c-1.1,0.2-2,0.9-2.9,1.5c-3.5,2.4-6.3,5.5-9.5,8.2c-4.6,3.8-10.1,5.6-12.7,11.7
		C188.8,538.4,188.3,546.5,189.7,553z"/>
	<path class="st3" d="M333.5,616.4h-30.9c-0.6,0-1.1-0.5-1.1-1.1l5.4-24.5c0-0.6,0.5-1.1,1.1-1.1h30.9c0.6,0,1.1,0.5,1.1,1.1
		l-5.4,24.5C334.6,615.9,334.1,616.4,333.5,616.4z"/>
	<path class="st3" d="M443.1,616.4h-76.7c-0.6,0-1.1-0.5-1.1-1.1l5.4-24.5c0-0.6,0.5-1.1,1.1-1.1h76.7c0.6,0,1.1,0.5,1.1,1.1
		l-5.4,24.5C444.2,615.9,443.7,616.4,443.1,616.4z"/>
	<polygon class="st3" points="732.7,602.5 733.8,602.5 737.3,589.7 660.6,589.7 654.5,616.4 729.9,616.4 733.8,602.5 	"/>
	<path class="st3" d="M545.6,589.7c0.1,0.9,4.6,23.7,4.6,23.7s0.5,2.2,3,3c2.4,0.8,33.6,0,33.6,0l2.4-3.8c0,0,13-0.8,13,0
		c0,0.8,0,3.8,0,3.8h20.3c0,0,3.8-0.3,2.7-4.1c-1.1-3.8-5.2-20.9-5.4-20.1c-0.3,0.8-1.4-3.7-5.2-3.9c-3.8-0.2-16,0-16,0l0.8,5.8
		h-15.7l-2.2-5.8h-31.5C550.2,588.3,545.2,587.1,545.6,589.7z"/>
	<path class="st3" d="M272.3,477.7l13.1,15.2c0,0,2,3.7,6.3,1.7c2.7-1.2,41.5-19.5,41.5-19.5c2.1-1.5,4.1-3.1,3-5.6
		c-0.8-1.9-11.4-11.6-13.6-15c0,0-1.6-2.5-6.4-0.9c-4.7,1.7-41.6,18-41.6,18S269.5,474,272.3,477.7z"/>
	<path class="st3" d="M381.9,436.8l9.1,17.9c0,0,1.1,4,5.7,3.1c2.9-0.6,67.7-11.4,67.7-11.4c2.4-0.9,4.7-2,4.3-4.7
		c-0.3-2.1-3.9-14.9-5.2-18.8c0,0-1-2.8-6-2.4c-5,0.5-71.9,10.8-71.9,10.8S380,432.6,381.9,436.8z"/>
	<path class="st3" d="M542.6,443.4l9.1-17.9c0,0,1.1-4,5.7-3.1c2.9,0.6,72,14.6,72,14.6c2.4,0.9,4.7,2,4.3,4.7
		c-0.3,2.1-6.3,13.5-7.6,17.3c0,0-1,2.8-6,2.4c-5-0.5-73.8-12.5-73.8-12.5S540.8,447.6,542.6,443.4z"/>
	<path class="st3" d="M727.6,477.1c0,0-3.7-2.4-33-16.9l-19.7,21.4c11.3,5.2,57.4,26.7,71.6,36.8l8.8-11.2l-0.5-0.4l0.5,0.4l7.1-8.9
		C753.2,492.9,741.4,486,727.6,477.1z"/>
	<path class="st3" d="M481.9,495.2c0,0-1-19.5,9.5-28c10.2-8.3,8.7-7.2,8.7-7.1c8.1-6.3,9.2,4,9.3,10c0.1,9.2-0.1,18.4-0.1,27.7
		c0,10.5,0,21-0.1,31.6c-0.1,9.8,2.7,26.8-4.1,35.1c-3.3,4-6.5,8.9-10.9,11.8c-4.8,3.1-12.7,1.4-12.3-5.7
		C482.3,562.8,481.9,495.2,481.9,495.2z"/>
	<path class="st3" d="M748.6,544.1c0.3-3.2-0.5-6.7,3.1-8.1c3.8-1.4,8.7-4.1,11.7-3.5c1.8,0.3,3,1.8,3,5.4c-0.1,9,0,28.9,0,28.9
		s0.3,5.2-4,5.6c-4.3,0.4-12.4-1.1-13-3.4C747.6,562.6,748.4,546,748.6,544.1z"/>
	<polygon class="st4" points="636.1,553 694.6,553 694.6,542.1 642.9,516.5 636.1,537.6 	"/>
	<path class="st4" d="M571.8,544.5H586v-24.8h-9.8v6.1c0,0-50.2-0.3-58.8,0v6.3h54.3L571.8,544.5L571.8,544.5z"/>
	<rect x="586" y="519.7" class="st4" width="0.6" height="24.8"/>
	<path class="st4" d="M624.2,510.5l-2.3,5.9l11.8,3.7c0,0,0.8-2.4,2.2-6L624.2,510.5z"/>
	<g id="Pink_parking_1_">
		<polygon class="st7" points="257.6,711.7 257.6,712.9 769.1,712.9 820.1,693.2 819.7,692.1 768.9,711.7 		"/>
		<rect x="613.5" y="705.5" class="st7" width="0.9" height="5.8"/>
		<rect x="617.9" y="705.5" class="st7" width="0.9" height="5.8"/>
		<rect x="622.3" y="705.5" class="st7" width="0.9" height="5.8"/>
		<rect x="626.6" y="705.5" class="st7" width="0.9" height="5.8"/>
		<rect x="631" y="705.5" class="st7" width="0.9" height="5.8"/>
		<rect x="635.3" y="705.5" class="st7" width="0.9" height="5.8"/>
		<rect x="639.7" y="705.5" class="st7" width="0.9" height="5.8"/>
		<rect x="644" y="705.5" class="st7" width="0.9" height="5.8"/>
		<rect x="648.4" y="705.5" class="st7" width="0.9" height="5.8"/>
		<rect x="652.7" y="705.5" class="st7" width="0.9" height="5.8"/>
		<rect x="657.1" y="705.5" class="st7" width="0.9" height="5.8"/>
		<rect x="661.4" y="705.5" class="st7" width="0.9" height="5.8"/>
		<rect x="665.8" y="705.5" class="st7" width="0.9" height="5.8"/>
		<rect x="670.1" y="705.5" class="st7" width="0.9" height="5.8"/>
		<rect x="674.5" y="705.5" class="st7" width="0.9" height="5.8"/>
		<rect x="678.8" y="705.5" class="st7" width="0.9" height="5.8"/>
		<rect x="683.2" y="705.5" class="st7" width="0.9" height="5.8"/>
		<rect x="687.5" y="705.5" class="st7" width="0.9" height="5.8"/>
		<rect x="691.9" y="705.5" class="st7" width="0.9" height="5.8"/>
		<rect x="696.2" y="705.5" class="st7" width="0.9" height="5.8"/>
		<rect x="700.6" y="705.5" class="st7" width="0.9" height="5.8"/>
		<rect x="704.9" y="705.5" class="st7" width="0.9" height="5.8"/>
		<rect x="709.3" y="705.5" class="st7" width="0.9" height="5.8"/>
		<rect x="713.6" y="705.5" class="st7" width="0.9" height="5.8"/>
		<rect x="718" y="705.5" class="st7" width="0.9" height="5.8"/>
		<rect x="722.4" y="705.5" class="st7" width="0.9" height="5.8"/>
		<rect x="726.7" y="705.5" class="st7" width="0.9" height="5.8"/>
		<rect x="731.1" y="705.5" class="st7" width="0.9" height="5.8"/>
		<rect x="735.4" y="705.5" class="st7" width="0.9" height="5.8"/>
		<rect x="739.8" y="705.5" class="st7" width="0.9" height="5.8"/>
		<rect x="744.1" y="705.5" class="st7" width="0.9" height="5.8"/>
		<rect x="748.5" y="705.5" class="st7" width="0.9" height="5.8"/>
		<rect x="752.8" y="705.5" class="st7" width="0.9" height="5.8"/>
		<rect x="757.2" y="705.5" class="st7" width="0.9" height="5.8"/>
		<rect x="761.5" y="705.5" class="st7" width="0.9" height="5.8"/>
		<rect x="765.9" y="705.5" class="st7" width="0.9" height="5.8"/>
		<rect x="644" y="687" class="st7" width="0.9" height="5.8"/>
		<rect x="648.4" y="687" class="st7" width="0.9" height="5.8"/>
		<rect x="652.7" y="687" class="st7" width="0.9" height="5.8"/>
		<rect x="657.1" y="687" class="st7" width="0.9" height="5.8"/>
		<rect x="661.4" y="687" class="st7" width="0.9" height="5.8"/>
		<rect x="665.8" y="687" class="st7" width="0.9" height="5.8"/>
		<rect x="670.1" y="687" class="st7" width="0.9" height="5.8"/>
		<rect x="674.5" y="687" class="st7" width="0.9" height="5.8"/>
		<rect x="678.8" y="687" class="st7" width="0.9" height="5.8"/>
		<rect x="683.2" y="687" class="st7" width="0.9" height="5.8"/>
		<rect x="687.5" y="687" class="st7" width="0.9" height="5.8"/>
		<rect x="691.9" y="687" class="st7" width="0.9" height="5.8"/>
		<rect x="696.2" y="687" class="st7" width="0.9" height="5.8"/>
		<rect x="700.6" y="687" class="st7" width="0.9" height="5.8"/>
		<rect x="704.9" y="687" class="st7" width="0.9" height="5.8"/>
		<rect x="709.3" y="687" class="st7" width="0.9" height="5.8"/>
		<rect x="713.6" y="687" class="st7" width="0.9" height="5.8"/>
		<rect x="718" y="687" class="st7" width="0.9" height="5.8"/>
		<rect x="722.4" y="687" class="st7" width="0.9" height="5.8"/>
		<rect x="726.7" y="687" class="st7" width="0.9" height="5.8"/>
		<rect x="731.1" y="687" class="st7" width="0.9" height="5.8"/>
		<rect x="735.4" y="687" class="st7" width="0.9" height="5.8"/>
		<rect x="739.8" y="687" class="st7" width="0.9" height="5.8"/>
		<rect x="744.1" y="687" class="st7" width="0.9" height="5.8"/>
		<rect x="748.5" y="687" class="st7" width="0.9" height="5.8"/>
		<rect x="752.8" y="687" class="st7" width="0.9" height="5.8"/>
		<rect x="757.2" y="689.7" class="st7" width="0.9" height="5.8"/>
		<rect x="761.5" y="689.7" class="st7" width="0.9" height="5.8"/>
		<rect x="765.9" y="689.7" class="st7" width="0.9" height="5.8"/>
		<rect x="609.8" y="739.3" class="st7" width="0.9" height="5.8"/>
		<rect x="614.2" y="739.3" class="st7" width="0.9" height="5.8"/>
		<rect x="618.5" y="739.3" class="st7" width="0.9" height="5.8"/>
		<rect x="622.9" y="739.3" class="st7" width="0.9" height="5.8"/>
		<rect x="627.2" y="739.3" class="st7" width="0.9" height="5.8"/>
		<rect x="631.6" y="739.3" class="st7" width="0.9" height="5.8"/>
		<rect x="635.9" y="739.3" class="st7" width="0.9" height="5.8"/>
		<rect x="640.3" y="739.3" class="st7" width="0.9" height="5.8"/>
		<rect x="644.6" y="739.3" class="st7" width="0.9" height="5.8"/>
		<rect x="649" y="739.3" class="st7" width="0.9" height="5.8"/>
		<rect x="653.3" y="739.3" class="st7" width="0.9" height="5.8"/>
		<rect x="657.7" y="739.3" class="st7" width="0.9" height="5.8"/>
		<rect x="662" y="739.3" class="st7" width="0.9" height="5.8"/>
		<rect x="666.4" y="739.3" class="st7" width="0.9" height="5.8"/>
		<rect x="670.7" y="739.3" class="st7" width="0.9" height="5.8"/>
		<rect x="675.1" y="739.3" class="st7" width="0.9" height="5.8"/>
		<rect x="679.4" y="739.3" class="st7" width="0.9" height="5.8"/>
		<rect x="683.8" y="739.3" class="st7" width="0.9" height="5.8"/>
		<rect x="688.2" y="739.3" class="st7" width="0.9" height="5.8"/>
		<rect x="692.5" y="739.3" class="st7" width="0.9" height="5.8"/>
		<rect x="696.9" y="739.3" class="st7" width="0.9" height="5.8"/>
		<rect x="701.2" y="739.3" class="st7" width="0.9" height="5.8"/>
		<rect x="705.6" y="739.3" class="st7" width="0.9" height="5.8"/>
		<rect x="709.9" y="739.3" class="st7" width="0.9" height="5.8"/>
		<rect x="714.3" y="739.3" class="st7" width="0.9" height="5.8"/>
		<rect x="718.6" y="739.3" class="st7" width="0.9" height="5.8"/>
		<rect x="723" y="739.3" class="st7" width="0.9" height="5.8"/>
		<rect x="727.3" y="739.3" class="st7" width="0.9" height="5.8"/>
		<rect x="731.7" y="739.3" class="st7" width="0.9" height="5.8"/>
		<rect x="736" y="739.3" class="st7" width="0.9" height="5.8"/>
		<rect x="740.4" y="739.3" class="st7" width="0.9" height="5.8"/>
		<rect x="744.7" y="739.3" class="st7" width="0.9" height="5.8"/>
		<rect x="613.8" y="714.5" class="st7" width="0.9" height="5.8"/>
		<rect x="618.1" y="714.5" class="st7" width="0.9" height="5.8"/>
		<rect x="622.5" y="714.5" class="st7" width="0.9" height="5.8"/>
		<rect x="626.8" y="714.5" class="st7" width="0.9" height="5.8"/>
		<rect x="631.2" y="714.5" class="st7" width="0.9" height="5.8"/>
		<rect x="635.5" y="714.5" class="st7" width="0.9" height="5.8"/>
		<rect x="639.9" y="714.5" class="st7" width="0.9" height="5.8"/>
		<rect x="583.2" y="705.5" class="st7" width="0.9" height="5.8"/>
		<rect x="587.6" y="705.5" class="st7" width="0.9" height="5.8"/>
		<rect x="591.9" y="705.5" class="st7" width="0.9" height="5.8"/>
		<rect x="596.3" y="705.5" class="st7" width="0.9" height="5.8"/>
		<rect x="600.6" y="705.5" class="st7" width="0.9" height="5.8"/>
		<rect x="605" y="705.5" class="st7" width="0.9" height="5.8"/>
		<rect x="609.3" y="705.5" class="st7" width="0.9" height="5.8"/>
		<rect x="579.5" y="739.3" class="st7" width="0.9" height="5.8"/>
		<rect x="583.9" y="739.3" class="st7" width="0.9" height="5.8"/>
		<rect x="588.2" y="739.3" class="st7" width="0.9" height="5.8"/>
		<rect x="592.6" y="739.3" class="st7" width="0.9" height="5.8"/>
		<rect x="596.9" y="739.3" class="st7" width="0.9" height="5.8"/>
		<rect x="601.3" y="739.3" class="st7" width="0.9" height="5.8"/>
		<rect x="605.6" y="739.3" class="st7" width="0.9" height="5.8"/>
		<rect x="610" y="739.3" class="st7" width="0.9" height="5.8"/>
		<rect x="583.5" y="714.5" class="st7" width="0.9" height="5.8"/>
		<rect x="587.8" y="714.5" class="st7" width="0.9" height="5.8"/>
		<rect x="592.2" y="714.5" class="st7" width="0.9" height="5.8"/>
		<rect x="596.5" y="714.5" class="st7" width="0.9" height="5.8"/>
		<rect x="600.9" y="714.5" class="st7" width="0.9" height="5.8"/>
		<rect x="605.2" y="714.5" class="st7" width="0.9" height="5.8"/>
		<rect x="609.6" y="714.5" class="st7" width="0.9" height="5.8"/>
		<rect x="553" y="705.5" class="st7" width="0.9" height="5.8"/>
		<rect x="557.4" y="705.5" class="st7" width="0.9" height="5.8"/>
		<rect x="561.8" y="705.5" class="st7" width="0.9" height="5.8"/>
		<rect x="566.1" y="705.5" class="st7" width="0.9" height="5.8"/>
		<rect x="570.5" y="705.5" class="st7" width="0.9" height="5.8"/>
		<rect x="574.8" y="705.5" class="st7" width="0.9" height="5.8"/>
		<rect x="579.2" y="705.5" class="st7" width="0.9" height="5.8"/>
		<rect x="553" y="687" class="st7" width="0.9" height="5.8"/>
		<rect x="557.4" y="687" class="st7" width="0.9" height="5.8"/>
		<rect x="561.8" y="687" class="st7" width="0.9" height="5.8"/>
		<rect x="422.3" y="687" class="st7" width="0.9" height="5.8"/>
		<rect x="426.7" y="687" class="st7" width="0.9" height="5.8"/>
		<rect x="431" y="687" class="st7" width="0.9" height="5.8"/>
		<rect x="435.4" y="687" class="st7" width="0.9" height="5.8"/>
		<rect x="439.7" y="687" class="st7" width="0.9" height="5.8"/>
		<rect x="487.6" y="687" class="st7" width="0.9" height="5.8"/>
		<rect x="491.9" y="687" class="st7" width="0.9" height="5.8"/>
		<rect x="496.3" y="687" class="st7" width="0.9" height="5.8"/>
		<rect x="500.6" y="687" class="st7" width="0.9" height="5.8"/>
		<rect x="505" y="687" class="st7" width="0.9" height="5.8"/>
		<rect x="509.4" y="687" class="st7" width="0.9" height="5.8"/>
		<rect x="513.7" y="687" class="st7" width="0.9" height="5.8"/>
		<rect x="518.1" y="687" class="st7" width="0.9" height="5.8"/>
		<rect x="522.4" y="687" class="st7" width="0.9" height="5.8"/>
		<rect x="526.8" y="687" class="st7" width="0.9" height="5.8"/>
		<rect x="531.1" y="687" class="st7" width="0.9" height="5.8"/>
		<rect x="535.4" y="687" class="st7" width="0.9" height="5.8"/>
		<rect x="539.8" y="687" class="st7" width="0.9" height="5.8"/>
		<rect x="544.2" y="687" class="st7" width="0.9" height="5.8"/>
		<rect x="548.5" y="687" class="st7" width="0.9" height="5.8"/>
		<rect x="552.9" y="687" class="st7" width="0.9" height="5.8"/>
		<rect x="557.2" y="687" class="st7" width="0.9" height="5.8"/>
		<rect x="561.6" y="687" class="st7" width="0.9" height="5.8"/>
		<rect x="392" y="687" class="st7" width="0.9" height="5.8"/>
		<rect x="396.4" y="687" class="st7" width="0.9" height="5.8"/>
		<rect x="400.7" y="687" class="st7" width="0.9" height="5.8"/>
		<rect x="405" y="687" class="st7" width="0.9" height="5.8"/>
		<rect x="409.4" y="687" class="st7" width="0.9" height="5.8"/>
		<rect x="413.7" y="687" class="st7" width="0.9" height="5.8"/>
		<rect x="418.1" y="687" class="st7" width="0.9" height="5.8"/>
		<rect x="361.8" y="687" class="st7" width="0.9" height="5.8"/>
		<rect x="366.1" y="687" class="st7" width="0.9" height="5.8"/>
		<rect x="370.5" y="687" class="st7" width="0.9" height="5.8"/>
		<rect x="374.8" y="687" class="st7" width="0.9" height="5.8"/>
		<rect x="379.2" y="687" class="st7" width="0.9" height="5.8"/>
		<rect x="383.5" y="687" class="st7" width="0.9" height="5.8"/>
		<rect x="387.9" y="687" class="st7" width="0.9" height="5.8"/>
		<rect x="258.7" y="687" class="st7" width="0.9" height="5.8"/>
		<rect x="263.1" y="687" class="st7" width="0.9" height="5.8"/>
		<rect x="267.4" y="687" class="st7" width="0.9" height="5.8"/>
		<rect x="271.8" y="687" class="st7" width="0.9" height="5.8"/>
		<rect x="276.1" y="687" class="st7" width="0.9" height="5.8"/>
		<rect x="280.5" y="687" class="st7" width="0.9" height="5.8"/>
		<rect x="284.8" y="687" class="st7" width="0.9" height="5.8"/>
		<rect x="289.2" y="687" class="st7" width="0.9" height="5.8"/>
		<rect x="293.5" y="687" class="st7" width="0.9" height="5.8"/>
		<rect x="297.9" y="687" class="st7" width="0.9" height="5.8"/>
		<rect x="302.2" y="687" class="st7" width="0.9" height="5.8"/>
		<rect x="306.6" y="687" class="st7" width="0.9" height="5.8"/>
		<rect x="311" y="687" class="st7" width="0.9" height="5.8"/>
		<rect x="315.3" y="687" class="st7" width="0.9" height="5.8"/>
		<rect x="319.7" y="687" class="st7" width="0.9" height="5.8"/>
		<rect x="324" y="687" class="st7" width="0.9" height="5.8"/>
		<rect x="328.4" y="687" class="st7" width="0.9" height="5.8"/>
		<rect x="332.7" y="687" class="st7" width="0.9" height="5.8"/>
		<rect x="337.1" y="687" class="st7" width="0.9" height="5.8"/>
		<rect x="341.4" y="687" class="st7" width="0.9" height="5.8"/>
		<rect x="345.8" y="687" class="st7" width="0.9" height="5.8"/>
		<rect x="350.1" y="687" class="st7" width="0.9" height="5.8"/>
		<rect x="354.5" y="687" class="st7" width="0.9" height="5.8"/>
		<rect x="358.8" y="687" class="st7" width="0.9" height="5.8"/>
		<rect x="549.3" y="739.3" class="st7" width="0.9" height="5.8"/>
		<rect x="553.6" y="739.3" class="st7" width="0.9" height="5.8"/>
		<rect x="558" y="739.3" class="st7" width="0.9" height="5.8"/>
		<rect x="562.3" y="739.3" class="st7" width="0.9" height="5.8"/>
		<rect x="566.7" y="739.3" class="st7" width="0.9" height="5.8"/>
		<rect x="571.1" y="739.3" class="st7" width="0.9" height="5.8"/>
		<rect x="575.4" y="739.3" class="st7" width="0.9" height="5.8"/>
		<rect x="448.7" y="739.3" class="st7" width="0.9" height="5.8"/>
		<rect x="453.1" y="739.3" class="st7" width="0.9" height="5.8"/>
		<rect x="457.4" y="739.3" class="st7" width="0.9" height="5.8"/>
		<rect x="461.8" y="739.3" class="st7" width="0.9" height="5.8"/>
		<rect x="466.1" y="739.3" class="st7" width="0.9" height="5.8"/>
		<rect x="470.5" y="739.3" class="st7" width="0.9" height="5.8"/>
		<rect x="474.8" y="739.3" class="st7" width="0.9" height="5.8"/>
		<rect x="479.2" y="739.3" class="st7" width="0.9" height="5.8"/>
		<rect x="483.5" y="739.3" class="st7" width="0.9" height="5.8"/>
		<rect x="487.9" y="739.3" class="st7" width="0.9" height="5.8"/>
		<rect x="492.2" y="739.3" class="st7" width="0.9" height="5.8"/>
		<rect x="496.6" y="739.3" class="st7" width="0.9" height="5.8"/>
		<rect x="500.9" y="739.3" class="st7" width="0.9" height="5.8"/>
		<rect x="505.3" y="739.3" class="st7" width="0.9" height="5.8"/>
		<rect x="509.7" y="739.3" class="st7" width="0.9" height="5.8"/>
		<rect x="514" y="739.3" class="st7" width="0.9" height="5.8"/>
		<rect x="518.4" y="739.3" class="st7" width="0.9" height="5.8"/>
		<rect x="522.7" y="739.3" class="st7" width="0.9" height="5.8"/>
		<rect x="527.1" y="739.3" class="st7" width="0.9" height="5.8"/>
		<rect x="531.4" y="739.3" class="st7" width="0.9" height="5.8"/>
		<rect x="535.8" y="739.3" class="st7" width="0.9" height="5.8"/>
		<rect x="540.1" y="739.3" class="st7" width="0.9" height="5.8"/>
		<rect x="544.5" y="739.3" class="st7" width="0.9" height="5.8"/>
		<rect x="418.4" y="739.3" class="st7" width="0.9" height="5.8"/>
		<rect x="422.8" y="739.3" class="st7" width="0.9" height="5.8"/>
		<rect x="427.1" y="739.3" class="st7" width="0.9" height="5.8"/>
		<rect x="431.5" y="739.3" class="st7" width="0.9" height="5.8"/>
		<rect x="435.8" y="739.3" class="st7" width="0.9" height="5.8"/>
		<rect x="440.2" y="739.3" class="st7" width="0.9" height="5.8"/>
		<rect x="444.5" y="739.3" class="st7" width="0.9" height="5.8"/>
		<rect x="388.2" y="739.3" class="st7" width="0.9" height="5.8"/>
		<rect x="392.6" y="739.3" class="st7" width="0.9" height="5.8"/>
		<rect x="396.9" y="739.3" class="st7" width="0.9" height="5.8"/>
		<rect x="401.3" y="739.3" class="st7" width="0.9" height="5.8"/>
		<rect x="405.6" y="739.3" class="st7" width="0.9" height="5.8"/>
		<rect x="410" y="739.3" class="st7" width="0.9" height="5.8"/>
		<rect x="414.3" y="739.3" class="st7" width="0.9" height="5.8"/>
		<rect x="286.6" y="739.3" class="st7" width="0.9" height="5.8"/>
		<rect x="291" y="739.3" class="st7" width="0.9" height="5.8"/>
		<rect x="295.3" y="739.3" class="st7" width="0.9" height="5.8"/>
		<rect x="299.7" y="739.3" class="st7" width="0.9" height="5.8"/>
		<rect x="304" y="739.3" class="st7" width="0.9" height="5.8"/>
		<rect x="308.4" y="739.3" class="st7" width="0.9" height="5.8"/>
		<rect x="312.7" y="739.3" class="st7" width="0.9" height="5.8"/>
		<rect x="317.1" y="739.3" class="st7" width="0.9" height="5.8"/>
		<rect x="321.4" y="739.3" class="st7" width="0.9" height="5.8"/>
		<rect x="325.8" y="739.3" class="st7" width="0.9" height="5.8"/>
		<rect x="330.2" y="739.3" class="st7" width="0.9" height="5.8"/>
		<rect x="334.5" y="739.3" class="st7" width="0.9" height="5.8"/>
		<rect x="338.8" y="739.3" class="st7" width="0.9" height="5.8"/>
		<rect x="343.2" y="739.3" class="st7" width="0.9" height="5.8"/>
		<rect x="347.5" y="739.3" class="st7" width="0.9" height="5.8"/>
		<rect x="351.9" y="739.3" class="st7" width="0.9" height="5.8"/>
		<rect x="356.2" y="739.3" class="st7" width="0.9" height="5.8"/>
		<rect x="360.6" y="739.3" class="st7" width="0.9" height="5.8"/>
		<rect x="364.9" y="739.3" class="st7" width="0.9" height="5.8"/>
		<rect x="369.3" y="739.3" class="st7" width="0.9" height="5.8"/>
		<rect x="373.6" y="739.3" class="st7" width="0.9" height="5.8"/>
		<rect x="378" y="739.3" class="st7" width="0.9" height="5.8"/>
		<rect x="382.4" y="739.3" class="st7" width="0.9" height="5.8"/>
		<rect x="256.3" y="739.3" class="st7" width="0.9" height="5.8"/>
		<rect x="260.6" y="739.3" class="st7" width="0.9" height="5.8"/>
		<rect x="265" y="739.3" class="st7" width="0.9" height="5.8"/>
		<rect x="269.4" y="739.3" class="st7" width="0.9" height="5.8"/>
		<rect x="273.7" y="739.3" class="st7" width="0.9" height="5.8"/>
		<rect x="278.1" y="739.3" class="st7" width="0.9" height="5.8"/>
		<rect x="282.4" y="739.3" class="st7" width="0.9" height="5.8"/>
		<rect x="557.6" y="714.5" class="st7" width="0.9" height="5.8"/>
		<rect x="562" y="714.5" class="st7" width="0.9" height="5.8"/>
		<rect x="566.3" y="714.5" class="st7" width="0.9" height="5.8"/>
		<rect x="570.7" y="714.5" class="st7" width="0.9" height="5.8"/>
		<rect x="575" y="714.5" class="st7" width="0.9" height="5.8"/>
		<rect x="579.4" y="714.5" class="st7" width="0.9" height="5.8"/>
		<rect x="644.2" y="714.5" class="st7" width="0.9" height="5.8"/>
		<rect x="648.6" y="714.5" class="st7" width="0.9" height="5.8"/>
		<rect x="653" y="714.5" class="st7" width="0.9" height="5.8"/>
		<rect x="657.3" y="714.5" class="st7" width="0.9" height="5.8"/>
		<rect x="661.7" y="714.5" class="st7" width="0.9" height="5.8"/>
		<rect x="666" y="714.5" class="st7" width="0.9" height="5.8"/>
		<rect x="670.4" y="714.5" class="st7" width="0.9" height="5.8"/>
		<rect x="496.3" y="714.5" class="st7" width="0.9" height="5.8"/>
		<rect x="500.6" y="714.5" class="st7" width="0.9" height="5.8"/>
		<rect x="505" y="714.5" class="st7" width="0.9" height="5.8"/>
		<rect x="509.4" y="714.5" class="st7" width="0.9" height="5.8"/>
		<rect x="513.7" y="714.5" class="st7" width="0.9" height="5.8"/>
		<rect x="518.1" y="714.5" class="st7" width="0.9" height="5.8"/>
		<rect x="522.4" y="714.5" class="st7" width="0.9" height="5.8"/>
		<rect x="466" y="714.5" class="st7" width="0.9" height="5.8"/>
		<rect x="470.3" y="714.5" class="st7" width="0.9" height="5.8"/>
		<rect x="474.7" y="714.5" class="st7" width="0.9" height="5.8"/>
		<rect x="479" y="714.5" class="st7" width="0.9" height="5.8"/>
		<rect x="483.4" y="714.5" class="st7" width="0.9" height="5.8"/>
		<rect x="487.7" y="714.5" class="st7" width="0.9" height="5.8"/>
		<rect x="492.1" y="714.5" class="st7" width="0.9" height="5.8"/>
		<rect x="435.8" y="714.5" class="st7" width="0.9" height="5.8"/>
		<rect x="440.1" y="714.5" class="st7" width="0.9" height="5.8"/>
		<rect x="444.5" y="714.5" class="st7" width="0.9" height="5.8"/>
		<rect x="448.8" y="714.5" class="st7" width="0.9" height="5.8"/>
		<rect x="453.2" y="714.5" class="st7" width="0.9" height="5.8"/>
		<rect x="457.5" y="714.5" class="st7" width="0.9" height="5.8"/>
		<rect x="461.9" y="714.5" class="st7" width="0.9" height="5.8"/>
		<rect x="526.8" y="714.5" class="st7" width="0.9" height="5.8"/>
		<rect x="531.1" y="714.5" class="st7" width="0.9" height="5.8"/>
		<rect x="535.4" y="714.5" class="st7" width="0.9" height="5.8"/>
		<rect x="539.8" y="714.5" class="st7" width="0.9" height="5.8"/>
		<rect x="544.2" y="714.5" class="st7" width="0.9" height="5.8"/>
		<rect x="548.5" y="714.5" class="st7" width="0.9" height="5.8"/>
		<rect x="552.9" y="714.5" class="st7" width="0.9" height="5.8"/>
		<rect x="374.9" y="714.5" class="st7" width="0.9" height="5.8"/>
		<rect x="379.2" y="714.5" class="st7" width="0.9" height="5.8"/>
		<rect x="383.6" y="714.5" class="st7" width="0.9" height="5.8"/>
		<rect x="387.9" y="714.5" class="st7" width="0.9" height="5.8"/>
		<rect x="392.3" y="714.5" class="st7" width="0.9" height="5.8"/>
		<rect x="396.6" y="714.5" class="st7" width="0.9" height="5.8"/>
		<rect x="401" y="714.5" class="st7" width="0.9" height="5.8"/>
		<rect x="344.6" y="714.5" class="st7" width="0.9" height="5.8"/>
		<rect x="348.9" y="714.5" class="st7" width="0.9" height="5.8"/>
		<rect x="353.3" y="714.5" class="st7" width="0.9" height="5.8"/>
		<rect x="357.6" y="714.5" class="st7" width="0.9" height="5.8"/>
		<rect x="362" y="714.5" class="st7" width="0.9" height="5.8"/>
		<rect x="366.3" y="714.5" class="st7" width="0.9" height="5.8"/>
		<rect x="370.7" y="714.5" class="st7" width="0.9" height="5.8"/>
		<rect x="314.4" y="714.5" class="st7" width="0.9" height="5.8"/>
		<rect x="318.7" y="714.5" class="st7" width="0.9" height="5.8"/>
		<rect x="323.1" y="714.5" class="st7" width="0.9" height="5.8"/>
		<rect x="327.4" y="714.5" class="st7" width="0.9" height="5.8"/>
		<rect x="331.8" y="714.5" class="st7" width="0.9" height="5.8"/>
		<rect x="336.1" y="714.5" class="st7" width="0.9" height="5.8"/>
		<rect x="340.5" y="714.5" class="st7" width="0.9" height="5.8"/>
		<rect x="405.4" y="714.5" class="st7" width="0.9" height="5.8"/>
		<rect x="409.7" y="714.5" class="st7" width="0.9" height="5.8"/>
		<rect x="414.1" y="714.5" class="st7" width="0.9" height="5.8"/>
		<rect x="418.4" y="714.5" class="st7" width="0.9" height="5.8"/>
		<rect x="422.8" y="714.5" class="st7" width="0.9" height="5.8"/>
		<rect x="427.1" y="714.5" class="st7" width="0.9" height="5.8"/>
		<rect x="431.5" y="714.5" class="st7" width="0.9" height="5.8"/>
		<rect x="258.8" y="714.5" class="st7" width="0.9" height="5.8"/>
		<rect x="263.2" y="714.5" class="st7" width="0.9" height="5.8"/>
		<rect x="267.5" y="714.5" class="st7" width="0.9" height="5.8"/>
		<rect x="271.9" y="714.5" class="st7" width="0.9" height="5.8"/>
		<rect x="276.2" y="714.5" class="st7" width="0.9" height="5.8"/>
		<rect x="280.6" y="714.5" class="st7" width="0.9" height="5.8"/>
		<rect x="284.9" y="714.5" class="st7" width="0.9" height="5.8"/>
		<rect x="289.3" y="714.5" class="st7" width="0.9" height="5.8"/>
		<rect x="293.6" y="714.5" class="st7" width="0.9" height="5.8"/>
		<rect x="298" y="714.5" class="st7" width="0.9" height="5.8"/>
		<rect x="302.3" y="714.5" class="st7" width="0.9" height="5.8"/>
		<rect x="306.7" y="714.5" class="st7" width="0.9" height="5.8"/>
		<rect x="311" y="714.5" class="st7" width="0.9" height="5.8"/>
		<rect x="496.3" y="705.3" class="st7" width="0.9" height="5.8"/>
		<rect x="500.6" y="705.3" class="st7" width="0.9" height="5.8"/>
		<rect x="505" y="705.3" class="st7" width="0.9" height="5.8"/>
		<rect x="509.4" y="705.3" class="st7" width="0.9" height="5.8"/>
		<rect x="513.7" y="705.3" class="st7" width="0.9" height="5.8"/>
		<rect x="518.1" y="705.3" class="st7" width="0.9" height="5.8"/>
		<rect x="522.4" y="705.3" class="st7" width="0.9" height="5.8"/>
		<rect x="466" y="705.3" class="st7" width="0.9" height="5.8"/>
		<rect x="470.3" y="705.3" class="st7" width="0.9" height="5.8"/>
		<rect x="474.7" y="705.3" class="st7" width="0.9" height="5.8"/>
		<rect x="479" y="705.3" class="st7" width="0.9" height="5.8"/>
		<rect x="483.4" y="705.3" class="st7" width="0.9" height="5.8"/>
		<rect x="487.7" y="705.3" class="st7" width="0.9" height="5.8"/>
		<rect x="492.1" y="705.3" class="st7" width="0.9" height="5.8"/>
		<rect x="435.8" y="705.3" class="st7" width="0.9" height="5.8"/>
		<rect x="440.1" y="705.3" class="st7" width="0.9" height="5.8"/>
		<rect x="444.5" y="705.3" class="st7" width="0.9" height="5.8"/>
		<rect x="448.8" y="705.3" class="st7" width="0.9" height="5.8"/>
		<rect x="453.2" y="705.3" class="st7" width="0.9" height="5.8"/>
		<rect x="457.5" y="705.3" class="st7" width="0.9" height="5.8"/>
		<rect x="461.9" y="705.3" class="st7" width="0.9" height="5.8"/>
		<rect x="526.8" y="705.3" class="st7" width="0.9" height="5.8"/>
		<rect x="531.1" y="705.3" class="st7" width="0.9" height="5.8"/>
		<rect x="535.4" y="705.3" class="st7" width="0.9" height="5.8"/>
		<rect x="539.8" y="705.3" class="st7" width="0.9" height="5.8"/>
		<rect x="544.2" y="705.3" class="st7" width="0.9" height="5.8"/>
		<rect x="548.5" y="705.3" class="st7" width="0.9" height="5.8"/>
		<rect x="374.9" y="705.3" class="st7" width="0.9" height="5.8"/>
		<rect x="379.2" y="705.3" class="st7" width="0.9" height="5.8"/>
		<rect x="383.6" y="705.3" class="st7" width="0.9" height="5.8"/>
		<rect x="387.9" y="705.3" class="st7" width="0.9" height="5.8"/>
		<rect x="392.3" y="705.3" class="st7" width="0.9" height="5.8"/>
		<rect x="396.6" y="705.3" class="st7" width="0.9" height="5.8"/>
		<rect x="401" y="705.3" class="st7" width="0.9" height="5.8"/>
		<rect x="344.6" y="705.3" class="st7" width="0.9" height="5.8"/>
		<rect x="348.9" y="705.3" class="st7" width="0.9" height="5.8"/>
		<rect x="353.3" y="705.3" class="st7" width="0.9" height="5.8"/>
		<rect x="357.6" y="705.3" class="st7" width="0.9" height="5.8"/>
		<rect x="362" y="705.3" class="st7" width="0.9" height="5.8"/>
		<rect x="366.3" y="705.3" class="st7" width="0.9" height="5.8"/>
		<rect x="370.7" y="705.3" class="st7" width="0.9" height="5.8"/>
		<rect x="314.4" y="705.3" class="st7" width="0.9" height="5.8"/>
		<rect x="318.7" y="705.3" class="st7" width="0.9" height="5.8"/>
		<rect x="323.1" y="705.3" class="st7" width="0.9" height="5.8"/>
		<rect x="327.4" y="705.3" class="st7" width="0.9" height="5.8"/>
		<rect x="331.8" y="705.3" class="st7" width="0.9" height="5.8"/>
		<rect x="336.1" y="705.3" class="st7" width="0.9" height="5.8"/>
		<rect x="340.5" y="705.3" class="st7" width="0.9" height="5.8"/>
		<rect x="405.4" y="705.3" class="st7" width="0.9" height="5.8"/>
		<rect x="409.7" y="705.3" class="st7" width="0.9" height="5.8"/>
		<rect x="414.1" y="705.3" class="st7" width="0.9" height="5.8"/>
		<rect x="418.4" y="705.3" class="st7" width="0.9" height="5.8"/>
		<rect x="422.8" y="705.3" class="st7" width="0.9" height="5.8"/>
		<rect x="427.1" y="705.3" class="st7" width="0.9" height="5.8"/>
		<rect x="431.5" y="705.3" class="st7" width="0.9" height="5.8"/>
		<rect x="258.8" y="705.3" class="st7" width="0.9" height="5.8"/>
		<rect x="263.2" y="705.3" class="st7" width="0.9" height="5.8"/>
		<rect x="267.5" y="705.3" class="st7" width="0.9" height="5.8"/>
		<rect x="271.9" y="705.3" class="st7" width="0.9" height="5.8"/>
		<rect x="276.2" y="705.3" class="st7" width="0.9" height="5.8"/>
		<rect x="280.6" y="705.3" class="st7" width="0.9" height="5.8"/>
		<rect x="284.9" y="705.3" class="st7" width="0.9" height="5.8"/>
		<rect x="289.3" y="705.3" class="st7" width="0.9" height="5.8"/>
		<rect x="293.6" y="705.3" class="st7" width="0.9" height="5.8"/>
		<rect x="298" y="705.3" class="st7" width="0.9" height="5.8"/>
		<rect x="302.3" y="705.3" class="st7" width="0.9" height="5.8"/>
		<rect x="306.7" y="705.3" class="st7" width="0.9" height="5.8"/>
		<rect x="311" y="705.3" class="st7" width="0.9" height="5.8"/>
		<rect x="674.7" y="714.5" class="st7" width="0.9" height="5.8"/>
		<rect x="679.1" y="714.5" class="st7" width="0.9" height="5.8"/>
		<rect x="683.4" y="714.5" class="st7" width="0.9" height="5.8"/>
		<rect x="687.8" y="714.5" class="st7" width="0.9" height="5.8"/>
		<rect x="692.1" y="714.5" class="st7" width="0.9" height="5.8"/>
		<rect x="696.5" y="714.5" class="st7" width="0.9" height="5.8"/>
		<rect x="700.8" y="714.5" class="st7" width="0.9" height="5.8"/>
		<rect x="705.2" y="714.5" class="st7" width="0.9" height="5.8"/>
		<rect x="709.5" y="714.5" class="st7" width="0.9" height="5.8"/>
		<rect x="713.9" y="714.5" class="st7" width="0.9" height="5.8"/>
		<rect x="718.2" y="714.5" class="st7" width="0.9" height="5.8"/>
		<rect x="722.6" y="714.5" class="st7" width="0.9" height="5.8"/>
		<rect x="726.9" y="714.5" class="st7" width="0.9" height="5.8"/>
		<rect x="731.3" y="714.5" class="st7" width="0.9" height="5.8"/>
		<rect x="735.6" y="714.5" class="st7" width="0.9" height="5.8"/>
		<rect x="740" y="714.5" class="st7" width="0.9" height="5.8"/>
		<rect x="744.3" y="714.5" class="st7" width="0.9" height="5.8"/>
		<rect x="748.7" y="714.5" class="st7" width="0.9" height="5.8"/>
		<rect x="753.1" y="714.5" class="st7" width="0.9" height="5.8"/>
		<rect x="757.4" y="714.5" class="st7" width="0.9" height="5.8"/>
		<rect x="761.8" y="714.5" class="st7" width="0.9" height="5.8"/>
		<rect x="766.1" y="714.5" class="st7" width="0.9" height="5.8"/>
		<rect x="771" y="714.4" transform="matrix(0.93 -0.3677 0.3677 0.93 -209.7032 333.9079)" class="st7" width="0.9" height="5.8"/>
		
			<rect x="775.1" y="712.8" transform="matrix(0.9301 -0.3673 0.3673 0.9301 -208.6772 334.8792)" class="st7" width="0.9" height="5.8"/>
		
			<rect x="779.1" y="711.2" transform="matrix(0.9306 -0.3661 0.3661 0.9306 -207.3278 334.9554)" class="st7" width="1" height="5.8"/>
		
			<rect x="783.1" y="709.6" transform="matrix(0.9305 -0.3664 0.3664 0.9305 -206.5576 336.6422)" class="st7" width="0.9" height="5.8"/>
		
			<rect x="787.2" y="708" transform="matrix(0.9301 -0.3673 0.3673 0.9301 -206.0715 339.0035)" class="st7" width="0.9" height="5.8"/>
		
			<rect x="791.2" y="706.4" transform="matrix(0.9301 -0.3673 0.3673 0.9301 -205.2024 340.3759)" class="st7" width="0.9" height="5.8"/>
		
			<rect x="795.2" y="704.8" transform="matrix(0.9305 -0.3664 0.3664 0.9305 -203.9523 340.7496)" class="st7" width="0.9" height="5.8"/>
		
			<rect x="799.5" y="703.2" transform="matrix(0.9307 -0.3657 0.3657 0.9307 -202.8228 341.4619)" class="st7" width="1" height="5.8"/>
		
			<rect x="803.4" y="701.6" transform="matrix(0.9305 -0.3664 0.3664 0.9305 -202.2299 343.5345)" class="st7" width="0.9" height="5.8"/>
		
			<rect x="807.4" y="700" transform="matrix(0.9305 -0.3664 0.3664 0.9305 -201.3588 344.8704)" class="st7" width="0.9" height="5.8"/>
		
			<rect x="811.5" y="698.4" transform="matrix(0.9305 -0.3664 0.3664 0.9305 -200.494 346.2478)" class="st7" width="0.9" height="5.8"/>
		
			<rect x="815.5" y="696.9" transform="matrix(0.9302 -0.367 0.367 0.9302 -199.9016 348.3137)" class="st7" width="0.9" height="5.8"/>
		
			<rect x="819.5" y="695.2" transform="matrix(0.9305 -0.3664 0.3664 0.9305 -198.7687 348.9854)" class="st7" width="0.9" height="5.8"/>
		
			<rect x="823.6" y="693.6" transform="matrix(0.9305 -0.3664 0.3664 0.9305 -197.8983 350.3598)" class="st7" width="0.9" height="5.8"/>
		<rect x="771.6" y="703" transform="matrix(0.93 -0.3677 0.3677 0.93 -205.4568 333.3143)" class="st7" width="0.9" height="5.8"/>
		
			<rect x="775.6" y="701.5" transform="matrix(0.9302 -0.367 0.367 0.9302 -204.3466 333.9795)" class="st7" width="0.9" height="5.8"/>
		
			<rect x="779.7" y="699.8" transform="matrix(0.9301 -0.3673 0.3673 0.9301 -203.5699 335.6587)" class="st7" width="0.9" height="5.8"/>
		
			<rect x="783.7" y="698.1" transform="matrix(0.9305 -0.3664 0.3664 0.9305 -202.3238 336.0541)" class="st7" width="0.9" height="5.8"/>
		
			<rect x="787.7" y="696.6" transform="matrix(0.9306 -0.3661 0.3661 0.9306 -201.3742 337.1186)" class="st7" width="1" height="5.8"/>
		
			<rect x="791.8" y="695" transform="matrix(0.9305 -0.3664 0.3664 0.9305 -200.5977 338.7974)" class="st7" width="0.9" height="5.8"/>
		
			<rect x="795.9" y="693.4" transform="matrix(0.9301 -0.3673 0.3673 0.9301 -200.0945 341.1615)" class="st7" width="0.9" height="5.8"/>
		
			<rect x="799.9" y="691.7" transform="matrix(0.9307 -0.3657 0.3657 0.9307 -198.5947 340.8425)" class="st7" width="1" height="5.8"/>
		
			<rect x="803.9" y="690.2" transform="matrix(0.9306 -0.3661 0.3661 0.9306 -197.9111 342.5995)" class="st7" width="1" height="5.8"/>
		
			<rect x="808" y="688.6" transform="matrix(0.9305 -0.3664 0.3664 0.9305 -197.1315 344.2821)" class="st7" width="0.9" height="5.8"/>
		<rect x="812" y="687" transform="matrix(0.9306 -0.3661 0.3661 0.9306 -196.1517 345.3409)" class="st7" width="1" height="5.8"/>
		
			<rect x="816.1" y="685.4" transform="matrix(0.9301 -0.3673 0.3673 0.9301 -195.7482 348.0445)" class="st7" width="0.9" height="5.8"/>
		
			<rect x="771.3" y="687.8" transform="matrix(0.9305 -0.3664 0.3664 0.9305 -199.3917 330.8044)" class="st7" width="0.9" height="5.8"/>
		
			<rect x="775.4" y="686.2" transform="matrix(0.9305 -0.3664 0.3664 0.9305 -198.5263 332.1875)" class="st7" width="0.9" height="5.8"/>
		
			<rect x="779.4" y="684.7" transform="matrix(0.9306 -0.3661 0.3661 0.9306 -197.5729 333.25)" class="st7" width="1" height="5.8"/>
		
			<rect x="783.5" y="683.1" transform="matrix(0.9301 -0.3673 0.3673 0.9301 -197.1519 335.905)" class="st7" width="0.9" height="5.8"/>
		
			<rect x="787.6" y="681.4" transform="matrix(0.9302 -0.3671 0.3671 0.9302 -196.1824 337.0828)" class="st7" width="0.9" height="5.8"/>
		
			<rect x="791.6" y="679.9" transform="matrix(0.9306 -0.3661 0.3661 0.9306 -194.9747 337.3629)" class="st7" width="1" height="5.8"/>
		
			<rect x="795.6" y="678.3" transform="matrix(0.9306 -0.3661 0.3661 0.9306 -194.1101 338.7306)" class="st7" width="1" height="5.8"/>
		
			<rect x="799.7" y="676.6" transform="matrix(0.9305 -0.3664 0.3664 0.9305 -193.3309 340.4234)" class="st7" width="0.9" height="5.8"/>
		
			<rect x="803.8" y="675.1" transform="matrix(0.9302 -0.367 0.367 0.9302 -192.7245 342.4767)" class="st7" width="0.9" height="5.8"/>
		
			<rect x="807.8" y="673.5" transform="matrix(0.9301 -0.3673 0.3673 0.9301 -191.9365 344.1602)" class="st7" width="0.9" height="5.8"/>
		
			<rect x="811.8" y="671.9" transform="matrix(0.9301 -0.3673 0.3673 0.9301 -191.0674 345.5324)" class="st7" width="0.9" height="5.8"/>
		
			<rect x="815.9" y="670.2" transform="matrix(0.9306 -0.3661 0.3661 0.9306 -189.7556 345.5901)" class="st7" width="1" height="5.8"/>
	</g>
	<g id="Pink_parking">
		<polygon class="st7" points="423.1,307.7 422.7,306.7 276.9,362.7 236.3,399.4 237.1,400.2 277.5,363.7 		"/>
		
			<rect x="422.7" y="308.4" transform="matrix(0.9335 -0.3587 0.3587 0.9335 -83.4849 172.5063)" class="st7" width="0.9" height="5.8"/>
		
			<rect x="418.7" y="309.9" transform="matrix(0.9333 -0.3591 0.3591 0.9333 -84.3688 171.3816)" class="st7" width="0.9" height="5.8"/>
		
			<rect x="414.6" y="311.5" transform="matrix(0.9336 -0.3583 0.3583 0.9336 -85.0803 169.6017)" class="st7" width="1" height="5.8"/>
		
			<rect x="410.5" y="313" transform="matrix(0.9333 -0.3591 0.3591 0.9333 -86.0327 168.6681)" class="st7" width="0.9" height="5.8"/>
		
			<rect x="406.5" y="314.6" transform="matrix(0.9333 -0.3591 0.3591 0.9333 -86.8641 167.3224)" class="st7" width="0.9" height="5.8"/>
		
			<rect x="402.4" y="316.2" transform="matrix(0.9333 -0.3591 0.3591 0.9333 -87.7009 165.9681)" class="st7" width="0.9" height="5.8"/>
		
			<rect x="398.4" y="317.7" transform="matrix(0.9332 -0.3595 0.3595 0.9332 -88.5924 164.8082)" class="st7" width="0.9" height="5.8"/>
		
			<rect x="394.3" y="319.3" transform="matrix(0.9333 -0.3591 0.3591 0.9333 -89.3654 163.2548)" class="st7" width="0.9" height="5.8"/>
		
			<rect x="390.3" y="320.9" transform="matrix(0.9334 -0.3588 0.3588 0.9334 -90.147 161.753)" class="st7" width="0.9" height="5.8"/>
		
			<rect x="386.2" y="322.4" transform="matrix(0.9334 -0.3588 0.3588 0.9334 -90.9827 160.3997)" class="st7" width="0.9" height="5.8"/>
		
			<rect x="382.1" y="324" transform="matrix(0.9334 -0.3588 0.3588 0.9334 -91.8182 159.0463)" class="st7" width="0.9" height="5.8"/>
		
			<rect x="378.1" y="325.5" transform="matrix(0.9336 -0.3583 0.3583 0.9336 -92.542 157.4352)" class="st7" width="1" height="5.8"/>
		
			<rect x="374" y="327.1" transform="matrix(0.9334 -0.3588 0.3588 0.9334 -93.4805 156.3348)" class="st7" width="0.9" height="5.8"/>
		
			<rect x="369.9" y="328.6" transform="matrix(0.9333 -0.3591 0.3591 0.9333 -94.348 155.1306)" class="st7" width="0.9" height="5.8"/>
		
			<rect x="365.9" y="330.2" transform="matrix(0.9334 -0.3588 0.3588 0.9334 -95.1381 153.6319)" class="st7" width="0.9" height="5.8"/>
		
			<rect x="361.8" y="331.8" transform="matrix(0.9335 -0.3587 0.3587 0.9335 -95.9361 152.2048)" class="st7" width="0.9" height="5.8"/>
		
			<rect x="357.7" y="333.3" transform="matrix(0.9333 -0.3591 0.3591 0.9333 -96.8487 151.0632)" class="st7" width="0.9" height="5.8"/>
		
			<rect x="353.7" y="334.9" transform="matrix(0.9333 -0.3591 0.3591 0.9333 -97.6799 149.7174)" class="st7" width="0.9" height="5.8"/>
		
			<rect x="349.6" y="336.4" transform="matrix(0.9333 -0.3591 0.3591 0.9333 -98.5079 148.358)" class="st7" width="0.9" height="5.8"/>
		
			<rect x="345.6" y="338" transform="matrix(0.9332 -0.3595 0.3595 0.9332 -99.4241 147.1857)" class="st7" width="0.9" height="5.8"/>
		
			<rect x="341.5" y="339.6" transform="matrix(0.9333 -0.3591 0.3591 0.9333 -100.1768 145.636)" class="st7" width="0.9" height="5.8"/>
		
			<rect x="337.4" y="341.1" transform="matrix(0.9333 -0.3591 0.3591 0.9333 -101.0091 144.2905)" class="st7" width="0.9" height="5.8"/>
		
			<rect x="333.4" y="342.7" transform="matrix(0.9333 -0.3591 0.3591 0.9333 -101.8405 142.9448)" class="st7" width="0.9" height="5.8"/>
		
			<rect x="329.3" y="344.3" transform="matrix(0.9333 -0.3591 0.3591 0.9333 -102.668 141.5855)" class="st7" width="0.9" height="5.8"/>
		
			<rect x="325.2" y="345.8" transform="matrix(0.9336 -0.3584 0.3584 0.9336 -103.3451 139.8908)" class="st7" width="1" height="5.8"/>
		
			<rect x="321.2" y="347.4" transform="matrix(0.9335 -0.3587 0.3587 0.9335 -104.2387 138.6823)" class="st7" width="0.9" height="5.8"/>
		
			<rect x="317.1" y="349" transform="matrix(0.9335 -0.3587 0.3587 0.9335 -105.0721 137.3291)" class="st7" width="0.9" height="5.8"/>
		
			<rect x="313.1" y="350.5" transform="matrix(0.9334 -0.3588 0.3588 0.9334 -105.9413 136.0392)" class="st7" width="0.9" height="5.8"/>
		
			<rect x="309" y="352.1" transform="matrix(0.9333 -0.3591 0.3591 0.9333 -106.8282 134.8127)" class="st7" width="0.9" height="5.8"/>
		
			<rect x="304.9" y="353.6" transform="matrix(0.9333 -0.3591 0.3591 0.9333 -107.6643 133.4586)" class="st7" width="0.9" height="5.8"/>
		
			<rect x="300.9" y="355.2" transform="matrix(0.9335 -0.3587 0.3587 0.9335 -108.3919 131.9173)" class="st7" width="0.9" height="5.8"/>
		
			<rect x="296.9" y="356.8" transform="matrix(0.9338 -0.3577 0.3577 0.9338 -108.9936 130.1641)" class="st7" width="0.9" height="5.8"/>
		
			<rect x="292.8" y="358.3" transform="matrix(0.9333 -0.3592 0.3592 0.9333 -110.1662 129.4304)" class="st7" width="1" height="5.8"/>
		
			<rect x="288.7" y="359.9" transform="matrix(0.9337 -0.358 0.358 0.9337 -110.7206 127.5745)" class="st7" width="0.9" height="5.8"/>
		
			<rect x="284.6" y="361.4" transform="matrix(0.9334 -0.3588 0.3588 0.9334 -111.7426 126.559)" class="st7" width="0.9" height="5.8"/>
		
			<rect x="280.6" y="363" transform="matrix(0.9337 -0.358 0.358 0.9337 -112.3707 124.8674)" class="st7" width="0.9" height="5.8"/>
		
			<rect x="428.4" y="323" transform="matrix(0.9333 -0.359 0.359 0.9333 -88.4193 175.6962)" class="st7" width="0.9" height="5.8"/>
		
			<rect x="424.3" y="324.6" transform="matrix(0.9336 -0.3584 0.3584 0.9336 -89.1404 173.9875)" class="st7" width="1" height="5.8"/>
		
			<rect x="420.2" y="326.2" transform="matrix(0.9335 -0.3587 0.3587 0.9335 -90.0339 172.7946)" class="st7" width="0.9" height="5.8"/>
		
			<rect x="416.2" y="327.7" transform="matrix(0.9334 -0.3588 0.3588 0.9334 -90.889 171.5266)" class="st7" width="0.9" height="5.8"/>
		
			<rect x="412.1" y="329.3" transform="matrix(0.9333 -0.3591 0.3591 0.9333 -91.7571 170.3263)" class="st7" width="0.9" height="5.8"/>
		
			<rect x="408.1" y="330.8" transform="matrix(0.9333 -0.3591 0.3591 0.9333 -92.5931 168.9725)" class="st7" width="0.9" height="5.8"/>
		
			<rect x="404" y="332.4" transform="matrix(0.9335 -0.3587 0.3587 0.9335 -93.3464 167.3913)" class="st7" width="0.9" height="5.8"/>
		
			<rect x="399.9" y="334" transform="matrix(0.9335 -0.3587 0.3587 0.9335 -94.1871 166.0292)" class="st7" width="0.9" height="5.8"/>
		
			<rect x="395.9" y="335.5" transform="matrix(0.9333 -0.3591 0.3591 0.9333 -95.0805 164.9077)" class="st7" width="0.9" height="5.8"/>
		
			<rect x="391.8" y="337.1" transform="matrix(0.9336 -0.3583 0.3583 0.9336 -95.7712 163.1277)" class="st7" width="1" height="5.8"/>
		
			<rect x="387.8" y="338.6" transform="matrix(0.9333 -0.3591 0.3591 0.9333 -96.7533 162.1994)" class="st7" width="0.9" height="5.8"/>
		
			<rect x="383.7" y="340.2" transform="matrix(0.9333 -0.3591 0.3591 0.9333 -97.5811 160.8403)" class="st7" width="0.9" height="5.8"/>
		
			<rect x="379.7" y="341.8" transform="matrix(0.9333 -0.3591 0.3591 0.9333 -98.4125 159.4946)" class="st7" width="0.9" height="5.8"/>
		
			<rect x="375.6" y="343.3" transform="matrix(0.9333 -0.3591 0.3591 0.9333 -99.2403 158.1351)" class="st7" width="0.9" height="5.8"/>
		
			<rect x="371.5" y="344.9" transform="matrix(0.9336 -0.3583 0.3583 0.9336 -99.9187 156.3683)" class="st7" width="1" height="5.8"/>
		
			<rect x="367.5" y="346.5" transform="matrix(0.9333 -0.3591 0.3591 0.9333 -100.9132 155.4268)" class="st7" width="0.9" height="5.8"/>
		
			<rect x="363.4" y="348" transform="matrix(0.9333 -0.3591 0.3591 0.9333 -101.7417 154.0674)" class="st7" width="0.9" height="5.8"/>
		
			<rect x="359.3" y="349.6" transform="matrix(0.9334 -0.3588 0.3588 0.9334 -102.5199 152.5759)" class="st7" width="0.9" height="5.8"/>
		
			<rect x="355.2" y="351.1" transform="matrix(0.9333 -0.3591 0.3591 0.9333 -103.405 151.3531)" class="st7" width="0.9" height="5.8"/>
		
			<rect x="351.2" y="352.7" transform="matrix(0.9333 -0.3592 0.3592 0.9333 -104.2661 150.0505)" class="st7" width="1" height="5.8"/>
		
			<rect x="347.1" y="354.3" transform="matrix(0.9335 -0.3587 0.3587 0.9335 -104.9849 148.4433)" class="st7" width="0.9" height="5.8"/>
		
			<rect x="343.1" y="355.8" transform="matrix(0.9334 -0.3588 0.3588 0.9334 -105.8448 147.1525)" class="st7" width="0.9" height="5.8"/>
		<rect x="339" y="357.4" transform="matrix(0.9337 -0.358 0.358 0.9337 -106.4811 145.4282)" class="st7" width="1" height="5.8"/>
		
			<rect x="335" y="359" transform="matrix(0.9334 -0.3588 0.3588 0.9334 -107.5021 144.4491)" class="st7" width="0.9" height="5.8"/>
		
			<rect x="330.9" y="360.5" transform="matrix(0.9335 -0.3587 0.3587 0.9335 -108.3032 143.0305)" class="st7" width="0.9" height="5.8"/>
		
			<rect x="326.8" y="362.1" transform="matrix(0.9337 -0.358 0.358 0.9337 -108.973 141.3661)" class="st7" width="1" height="5.8"/>
		
			<rect x="322.8" y="363.6" transform="matrix(0.9333 -0.3591 0.3591 0.9333 -110.0566 140.5304)" class="st7" width="0.9" height="5.8"/>
		
			<rect x="318.7" y="365.2" transform="matrix(0.9334 -0.3588 0.3588 0.9334 -110.8306 139.0396)" class="st7" width="0.9" height="5.8"/>
		
			<rect x="314.6" y="366.7" transform="matrix(0.9333 -0.3591 0.3591 0.9333 -111.7209 137.8166)" class="st7" width="0.9" height="5.8"/>
		
			<rect x="310.6" y="368.3" transform="matrix(0.9335 -0.3587 0.3587 0.9335 -112.4565 136.2649)" class="st7" width="0.9" height="5.8"/>
		
			<rect x="306.5" y="369.9" transform="matrix(0.9333 -0.3591 0.3591 0.9333 -113.3851 135.103)" class="st7" width="0.9" height="5.8"/>
		
			<rect x="302.4" y="371.4" transform="matrix(0.9335 -0.3587 0.3587 0.9335 -114.1128 133.5626)" class="st7" width="0.9" height="5.8"/>
		
			<rect x="298.4" y="373" transform="matrix(0.9333 -0.3591 0.3591 0.9333 -115.0527 132.4034)" class="st7" width="0.9" height="5.8"/>
		
			<rect x="294.3" y="374.6" transform="matrix(0.9335 -0.3587 0.3587 0.9335 -115.7743 130.852)" class="st7" width="0.9" height="5.8"/>
		
			<rect x="290.3" y="376.1" transform="matrix(0.9331 -0.3596 0.3596 0.9331 -116.854 129.9057)" class="st7" width="0.9" height="5.8"/>
		
			<rect x="286.2" y="377.7" transform="matrix(0.9333 -0.3591 0.3591 0.9333 -117.5403 128.3388)" class="st7" width="0.9" height="5.8"/>
		
			<rect x="417.1" y="283.3" transform="matrix(0.9337 -0.358 0.358 0.9337 -74.7709 168.4655)" class="st7" width="1" height="5.8"/>
		
			<rect x="413" y="284.8" transform="matrix(0.9333 -0.3592 0.3592 0.9333 -75.7435 167.7238)" class="st7" width="1" height="5.8"/>
		
			<rect x="409" y="286.4" transform="matrix(0.9334 -0.3588 0.3588 0.9334 -76.5349 166.1736)" class="st7" width="0.9" height="5.8"/>
		
			<rect x="404.9" y="288" transform="matrix(0.9334 -0.3588 0.3588 0.9334 -77.37 164.8204)" class="st7" width="0.9" height="5.8"/>
		
			<rect x="400.9" y="289.5" transform="matrix(0.9334 -0.3588 0.3588 0.9334 -78.1919 163.4702)" class="st7" width="0.9" height="5.8"/>
		
			<rect x="396.8" y="291.1" transform="matrix(0.9335 -0.3587 0.3587 0.9335 -79.0065 162.0455)" class="st7" width="0.9" height="5.8"/>
		
			<rect x="392.7" y="292.6" transform="matrix(0.9334 -0.3588 0.3588 0.9334 -79.8549 160.7588)" class="st7" width="0.9" height="5.8"/>
		
			<rect x="388.7" y="294.2" transform="matrix(0.9333 -0.3591 0.3591 0.9333 -80.724 159.5524)" class="st7" width="0.9" height="5.8"/>
		
			<rect x="384.6" y="295.7" transform="matrix(0.9335 -0.3587 0.3587 0.9335 -81.4977 157.9906)" class="st7" width="0.9" height="5.8"/>
		
			<rect x="380.5" y="297.3" transform="matrix(0.9335 -0.3587 0.3587 0.9335 -82.3247 156.6325)" class="st7" width="0.9" height="5.8"/>
		
			<rect x="376.5" y="298.9" transform="matrix(0.9333 -0.3591 0.3591 0.9333 -83.2197 155.4931)" class="st7" width="0.9" height="5.8"/>
		<rect x="372.4" y="300.4" transform="matrix(0.9337 -0.358 0.358 0.9337 -83.887 153.5919)" class="st7" width="1" height="5.8"/>
		
			<rect x="368.3" y="302" transform="matrix(0.9335 -0.3587 0.3587 0.9335 -84.8164 152.5776)" class="st7" width="0.9" height="5.8"/>
		
			<rect x="364.3" y="303.6" transform="matrix(0.9333 -0.3591 0.3591 0.9333 -85.7157 151.434)" class="st7" width="0.9" height="5.8"/>
		
			<rect x="360.2" y="305.1" transform="matrix(0.9333 -0.3591 0.3591 0.9333 -86.5431 150.074)" class="st7" width="0.9" height="5.8"/>
		
			<rect x="356.1" y="306.7" transform="matrix(0.9335 -0.3587 0.3587 0.9335 -87.313 148.5145)" class="st7" width="0.9" height="5.8"/>
		
			<rect x="352.1" y="308.2" transform="matrix(0.9335 -0.3587 0.3587 0.9335 -88.1351 147.1645)" class="st7" width="0.9" height="5.8"/>
		
			<rect x="348.1" y="309.8" transform="matrix(0.9333 -0.3591 0.3591 0.9333 -89.039 146.0154)" class="st7" width="0.9" height="5.8"/>
		
			<rect x="344" y="311.4" transform="matrix(0.9334 -0.3588 0.3588 0.9334 -89.8216 144.5244)" class="st7" width="0.9" height="5.8"/>
		
			<rect x="339.9" y="312.9" transform="matrix(0.9333 -0.3591 0.3591 0.9333 -90.7034 143.3016)" class="st7" width="0.9" height="5.8"/>
		
			<rect x="335.8" y="314.5" transform="matrix(0.9335 -0.3587 0.3587 0.9335 -91.4661 141.7492)" class="st7" width="0.9" height="5.8"/>
		
			<rect x="331.8" y="316" transform="matrix(0.9333 -0.3591 0.3591 0.9333 -92.368 140.5885)" class="st7" width="0.9" height="5.8"/>
		
			<rect x="327.7" y="317.6" transform="matrix(0.9336 -0.3583 0.3583 0.9336 -93.0477 138.8748)" class="st7" width="1" height="5.8"/>
		
			<rect x="323.7" y="319.1" transform="matrix(0.9333 -0.3591 0.3591 0.9333 -94.027 137.8834)" class="st7" width="0.9" height="5.8"/>
		
			<rect x="319.6" y="320.7" transform="matrix(0.9336 -0.3583 0.3583 0.9336 -94.7029 136.1757)" class="st7" width="1" height="5.8"/>
		
			<rect x="315.5" y="322.3" transform="matrix(0.9333 -0.3591 0.3591 0.9333 -95.7 135.1747)" class="st7" width="0.9" height="5.8"/>
		
			<rect x="311.4" y="323.9" transform="matrix(0.9334 -0.3588 0.3588 0.9334 -96.4809 133.6772)" class="st7" width="0.9" height="5.8"/>
		
			<rect x="307.4" y="325.4" transform="matrix(0.9334 -0.3588 0.3588 0.9334 -97.3065 132.3416)" class="st7" width="0.9" height="5.8"/>
		
			<rect x="303.4" y="327" transform="matrix(0.9332 -0.3595 0.3595 0.9332 -98.2683 131.2749)" class="st7" width="0.9" height="5.8"/>
		
			<rect x="299.3" y="328.6" transform="matrix(0.9334 -0.3588 0.3588 0.9334 -98.9689 129.6298)" class="st7" width="0.9" height="5.8"/>
		
			<rect x="295.2" y="330.1" transform="matrix(0.9333 -0.3591 0.3591 0.9333 -99.8605 128.4022)" class="st7" width="0.9" height="5.8"/>
		
			<rect x="291.2" y="331.7" transform="matrix(0.9335 -0.3587 0.3587 0.9335 -100.594 126.8684)" class="st7" width="0.9" height="5.8"/>
		
			<rect x="286.9" y="332.3" transform="matrix(0.9334 -0.3588 0.3588 0.9334 -101.1381 125.4442)" class="st7" width="0.9" height="5.8"/>
		
			<rect x="282.9" y="333.9" transform="matrix(0.9333 -0.3592 0.3592 0.9333 -102.0604 124.2492)" class="st7" width="1" height="5.8"/>
		
			<rect x="278.8" y="335.5" transform="matrix(0.9335 -0.3587 0.3587 0.9335 -102.7857 122.6879)" class="st7" width="0.9" height="5.8"/>
		
			<rect x="274.7" y="337" transform="matrix(0.9333 -0.3592 0.3592 0.9333 -103.7254 121.5348)" class="st7" width="1" height="5.8"/>
		
			<rect x="270.7" y="338.6" transform="matrix(0.9336 -0.3582 0.3582 0.9336 -104.331 119.7965)" class="st7" width="0.9" height="5.8"/>
		
			<rect x="266.6" y="340.1" transform="matrix(0.9334 -0.3588 0.3588 0.9334 -105.2934 118.6771)" class="st7" width="0.9" height="5.8"/>
		
			<rect x="262.5" y="341.6" transform="matrix(0.9333 -0.3592 0.3592 0.9333 -106.2004 117.466)" class="st7" width="1" height="5.8"/>
		
			<rect x="258.5" y="343.3" transform="matrix(0.9333 -0.3591 0.3591 0.9333 -107.0355 116.0822)" class="st7" width="0.9" height="5.8"/>
		
			<rect x="254.4" y="344.8" transform="matrix(0.9335 -0.3587 0.3587 0.9335 -107.7613 114.5561)" class="st7" width="0.9" height="5.8"/>
		
			<rect x="250.4" y="346.4" transform="matrix(0.9333 -0.3591 0.3591 0.9333 -108.6949 113.3773)" class="st7" width="0.9" height="5.8"/>
		
			<rect x="245.4" y="348.8" transform="matrix(0.6915 -0.7224 0.7224 0.6915 -178.2549 286.1031)" class="st7" width="0.9" height="5.8"/>
		
			<rect x="242.3" y="352" transform="matrix(0.691 -0.7229 0.7229 0.691 -181.5112 285.1734)" class="st7" width="0.9" height="5.8"/>
		
			<rect x="239.3" y="355.1" transform="matrix(0.691 -0.7229 0.7229 0.691 -184.7276 283.9522)" class="st7" width="0.9" height="5.8"/>
		
			<rect x="236.3" y="358.3" transform="matrix(0.691 -0.7229 0.7229 0.691 -187.9022 282.7763)" class="st7" width="0.9" height="5.8"/>
		
			<rect x="233.3" y="361.4" transform="matrix(0.6907 -0.7231 0.7231 0.6907 -191.1424 281.7259)" class="st7" width="0.9" height="5.8"/>
		
			<rect x="230.3" y="364.6" transform="matrix(0.6905 -0.7234 0.7234 0.6905 -194.3696 280.6927)" class="st7" width="0.9" height="5.8"/>
		
			<rect x="227.3" y="367.7" transform="matrix(0.691 -0.7229 0.7229 0.691 -197.517 279.1683)" class="st7" width="0.9" height="5.8"/>
		
			<rect x="224.3" y="370.9" transform="matrix(0.6915 -0.7224 0.7224 0.6915 -200.6668 277.6727)" class="st7" width="0.9" height="5.8"/>
		
			<rect x="221.2" y="374" transform="matrix(0.6915 -0.7224 0.7224 0.6915 -203.8607 276.4416)" class="st7" width="0.9" height="5.8"/>
		
			<rect x="218.3" y="377.1" transform="matrix(0.691 -0.7229 0.7229 0.691 -207.1338 275.5606)" class="st7" width="0.9" height="5.8"/>
		
			<rect x="215.3" y="380.3" transform="matrix(0.691 -0.7229 0.7229 0.691 -210.3395 274.3583)" class="st7" width="0.9" height="5.8"/>
		
			<rect x="212.2" y="383.4" transform="matrix(0.691 -0.7229 0.7229 0.691 -213.5436 273.1561)" class="st7" width="0.9" height="5.8"/>
		
			<rect x="209.3" y="386.6" transform="matrix(0.691 -0.7229 0.7229 0.691 -216.7293 271.961)" class="st7" width="0.9" height="5.8"/>
		
			<rect x="206.2" y="389.7" transform="matrix(0.691 -0.7229 0.7229 0.691 -219.9349 270.7584)" class="st7" width="0.9" height="5.8"/>
		
			<rect x="203.2" y="392.9" transform="matrix(0.691 -0.7229 0.7229 0.691 -223.1405 269.5556)" class="st7" width="0.9" height="5.8"/>
		
			<rect x="198.5" y="402.5" transform="matrix(0.7031 -0.7111 0.7111 0.7031 -226.7424 262.8741)" class="st7" width="5.8" height="0.9"/>
		
			<rect x="201.7" y="405.6" transform="matrix(0.7031 -0.711 0.711 0.7031 -227.9886 265.989)" class="st7" width="5.8" height="0.9"/>
		
			<rect x="204.7" y="408.6" transform="matrix(0.7031 -0.7111 0.7111 0.7031 -229.2651 269.1056)" class="st7" width="5.8" height="1"/>
		
			<rect x="207.8" y="411.7" transform="matrix(0.7031 -0.7111 0.7111 0.7031 -230.5037 272.2157)" class="st7" width="5.8" height="1"/>
		
			<rect x="210.9" y="414.7" transform="matrix(0.7032 -0.711 0.711 0.7032 -231.7643 275.2403)" class="st7" width="5.8" height="0.9"/>
		
			<rect x="214" y="417.8" transform="matrix(0.7031 -0.7111 0.7111 0.7031 -233.0386 278.422)" class="st7" width="5.8" height="0.9"/>
		
			<rect x="217" y="420.9" transform="matrix(0.7031 -0.7111 0.7111 0.7031 -234.3275 281.5097)" class="st7" width="5.8" height="0.9"/>
		
			<rect x="419.3" y="300.1" transform="matrix(0.9333 -0.3591 0.3591 0.9333 -80.7906 170.9509)" class="st7" width="0.9" height="5.8"/>
		
			<rect x="415.2" y="301.6" transform="matrix(0.9335 -0.3587 0.3587 0.9335 -81.5583 169.3701)" class="st7" width="0.9" height="5.8"/>
		
			<rect x="411.2" y="303.2" transform="matrix(0.9333 -0.3591 0.3591 0.9333 -82.4545 168.237)" class="st7" width="0.9" height="5.8"/>
		
			<rect x="407.1" y="304.7" transform="matrix(0.9333 -0.3591 0.3591 0.9333 -83.2831 166.8777)" class="st7" width="0.9" height="5.8"/>
		
			<rect x="403.1" y="306.3" transform="matrix(0.9333 -0.3591 0.3591 0.9333 -84.114 165.5323)" class="st7" width="0.9" height="5.8"/>
		
			<rect x="399" y="307.8" transform="matrix(0.9335 -0.3587 0.3587 0.9335 -84.8823 163.949)" class="st7" width="0.9" height="5.8"/>
		
			<rect x="394.9" y="309.4" transform="matrix(0.9333 -0.3591 0.3591 0.9333 -85.7784 162.8185)" class="st7" width="0.9" height="5.8"/>
		
			<rect x="390.8" y="311" transform="matrix(0.9333 -0.3591 0.3591 0.9333 -86.6203 161.4559)" class="st7" width="0.9" height="5.8"/>
		
			<rect x="386.8" y="312.5" transform="matrix(0.9333 -0.3591 0.3591 0.9333 -87.4373 160.1136)" class="st7" width="0.9" height="5.8"/>
		
			<rect x="382.7" y="314.1" transform="matrix(0.9335 -0.3587 0.3587 0.9335 -88.2088 158.5412)" class="st7" width="0.9" height="5.8"/>
		
			<rect x="378.6" y="315.7" transform="matrix(0.9335 -0.3587 0.3587 0.9335 -89.0357 157.1833)" class="st7" width="0.9" height="5.8"/>
		
			<rect x="374.6" y="317.2" transform="matrix(0.9333 -0.3591 0.3591 0.9333 -89.9382 156.0459)" class="st7" width="0.9" height="5.8"/>
		
			<rect x="370.6" y="318.8" transform="matrix(0.9333 -0.3591 0.3591 0.9333 -90.7695 154.7005)" class="st7" width="0.9" height="5.8"/>
		
			<rect x="366.5" y="320.3" transform="matrix(0.9333 -0.3591 0.3591 0.9333 -91.5976 153.3412)" class="st7" width="0.9" height="5.8"/>
		
			<rect x="362.4" y="321.9" transform="matrix(0.9333 -0.3592 0.3592 0.9333 -92.4603 152.0303)" class="st7" width="1" height="5.8"/>
		
			<rect x="358.4" y="323.5" transform="matrix(0.9333 -0.3591 0.3591 0.9333 -93.2617 150.6276)" class="st7" width="0.9" height="5.8"/>
		
			<rect x="354.3" y="325" transform="matrix(0.9336 -0.3583 0.3583 0.9336 -93.9453 148.8913)" class="st7" width="1" height="5.8"/>
		
			<rect x="350.3" y="326.6" transform="matrix(0.9334 -0.3588 0.3588 0.9334 -94.8825 147.7874)" class="st7" width="0.9" height="5.8"/>
		
			<rect x="346.2" y="328.2" transform="matrix(0.9334 -0.3588 0.3588 0.9334 -95.7096 146.4289)" class="st7" width="0.9" height="5.8"/>
		
			<rect x="342.1" y="329.8" transform="matrix(0.9334 -0.3588 0.3588 0.9334 -96.5447 145.0758)" class="st7" width="0.9" height="5.8"/>
		
			<rect x="338.1" y="331.3" transform="matrix(0.9337 -0.358 0.358 0.9337 -97.1989 143.3459)" class="st7" width="1" height="5.8"/>
		
			<rect x="334" y="332.9" transform="matrix(0.9334 -0.3588 0.3588 0.9334 -98.2072 142.3642)" class="st7" width="0.9" height="5.8"/>
		
			<rect x="329.9" y="334.4" transform="matrix(0.9334 -0.3588 0.3588 0.9334 -99.0292 141.014)" class="st7" width="0.9" height="5.8"/>
		
			<rect x="325.9" y="336" transform="matrix(0.9335 -0.3587 0.3587 0.9335 -99.8294 139.6059)" class="st7" width="0.9" height="5.8"/>
		
			<rect x="321.8" y="337.5" transform="matrix(0.9333 -0.3591 0.3591 0.9333 -100.7541 138.441)" class="st7" width="0.9" height="5.8"/>
		
			<rect x="317.7" y="339.1" transform="matrix(0.9333 -0.3591 0.3591 0.9333 -101.5863 137.0735)" class="st7" width="0.9" height="5.8"/>
		
			<rect x="313.7" y="340.7" transform="matrix(0.9332 -0.3595 0.3595 0.9332 -102.5025 135.8968)" class="st7" width="0.9" height="5.8"/>
		
			<rect x="309.6" y="342.2" transform="matrix(0.9333 -0.3591 0.3591 0.9333 -103.2453 134.368)" class="st7" width="0.9" height="5.8"/>
		
			<rect x="305.6" y="343.8" transform="matrix(0.9333 -0.3591 0.3591 0.9333 -104.0786 133.0227)" class="st7" width="0.9" height="5.8"/>
		
			<rect x="301.5" y="345.4" transform="matrix(0.9333 -0.3591 0.3591 0.9333 -104.918 131.6596)" class="st7" width="0.9" height="5.8"/>
		
			<rect x="297.4" y="346.9" transform="matrix(0.9333 -0.3591 0.3591 0.9333 -105.7425 130.3091)" class="st7" width="0.9" height="5.8"/>
		
			<rect x="293.4" y="348.5" transform="matrix(0.9333 -0.3591 0.3591 0.9333 -106.5772 128.9545)" class="st7" width="0.9" height="5.8"/>
		
			<rect x="289.3" y="350" transform="matrix(0.9335 -0.3587 0.3587 0.9335 -107.3045 127.4186)" class="st7" width="0.9" height="5.8"/>
		
			<rect x="285.3" y="351.6" transform="matrix(0.9333 -0.3591 0.3591 0.9333 -108.2384 126.25)" class="st7" width="0.9" height="5.8"/>
		
			<rect x="281.2" y="353.2" transform="matrix(0.9334 -0.3588 0.3588 0.9334 -108.9994 124.7759)" class="st7" width="0.9" height="5.8"/>
		
			<rect x="277.1" y="354.7" transform="matrix(0.9333 -0.3591 0.3591 0.9333 -109.8976 123.5446)" class="st7" width="0.9" height="5.8"/>
		
			<rect x="272.5" y="356.5" transform="matrix(0.7368 -0.6761 0.6761 0.7368 -171.1447 279.17)" class="st7" width="0.9" height="5.8"/>
		
			<rect x="269.4" y="359.5" transform="matrix(0.7363 -0.6766 0.6766 0.7363 -174.034 278.1289)" class="st7" width="0.9" height="5.8"/>
		
			<rect x="266.1" y="362.4" transform="matrix(0.7368 -0.6761 0.6761 0.7368 -176.8042 276.3868)" class="st7" width="0.9" height="5.8"/>
		
			<rect x="262.9" y="365.3" transform="matrix(0.7366 -0.6764 0.6764 0.7366 -179.6702 275.1454)" class="st7" width="0.9" height="5.8"/>
		
			<rect x="259.7" y="368.3" transform="matrix(0.7368 -0.6761 0.6761 0.7368 -182.4775 273.6144)" class="st7" width="0.9" height="5.8"/>
		
			<rect x="256.6" y="371.2" transform="matrix(0.7375 -0.6753 0.6753 0.7375 -185.1983 271.78)" class="st7" width="0.9" height="5.8"/>
		
			<rect x="253.3" y="374.2" transform="matrix(0.7373 -0.6756 0.6756 0.7373 -188.0577 270.5177)" class="st7" width="0.9" height="5.8"/>
		
			<rect x="250.1" y="377.1" transform="matrix(0.737 -0.6758 0.6758 0.737 -190.9233 269.2885)" class="st7" width="0.9" height="5.8"/>
		
			<rect x="246.9" y="380" transform="matrix(0.7368 -0.6761 0.6761 0.7368 -193.7928 268.0277)" class="st7" width="0.9" height="5.8"/>
		
			<rect x="243.7" y="383" transform="matrix(0.7363 -0.6766 0.6766 0.7363 -196.7309 266.9779)" class="st7" width="0.9" height="5.8"/>
		
			<rect x="240.5" y="385.9" transform="matrix(0.737 -0.6758 0.6758 0.737 -199.4289 265.0999)" class="st7" width="0.9" height="5.8"/>
		
			<rect x="237.3" y="388.9" transform="matrix(0.737 -0.6759 0.6759 0.737 -202.297 263.7299)" class="st7" width="1" height="5.8"/>
		
			<rect x="234.1" y="391.8" transform="matrix(0.7363 -0.6766 0.6766 0.7363 -205.2101 262.8045)" class="st7" width="0.9" height="5.8"/>
		
			<rect x="230.8" y="394.8" transform="matrix(0.7368 -0.6761 0.6761 0.7368 -207.9878 261.045)" class="st7" width="0.9" height="5.8"/>
		
			<rect x="276.1" y="367.4" transform="matrix(0.7368 -0.6761 0.6761 0.7368 -177.5549 284.4492)" class="st7" width="0.9" height="5.8"/>
		
			<rect x="272.9" y="370.3" transform="matrix(0.7368 -0.6761 0.6761 0.7368 -180.3884 283.0667)" class="st7" width="0.9" height="5.8"/>
		
			<rect x="269.7" y="373.2" transform="matrix(0.7366 -0.6764 0.6764 0.7366 -183.2336 281.8076)" class="st7" width="0.9" height="5.8"/>
		
			<rect x="266.5" y="376.2" transform="matrix(0.7368 -0.6761 0.6761 0.7368 -186.0661 280.2746)" class="st7" width="0.9" height="5.8"/>
		
			<rect x="263.3" y="379.1" transform="matrix(0.7368 -0.6761 0.6761 0.7368 -188.8884 278.874)" class="st7" width="0.9" height="5.8"/>
		
			<rect x="260.1" y="382.1" transform="matrix(0.7363 -0.6766 0.6766 0.7363 -191.7795 277.8185)" class="st7" width="0.9" height="5.8"/>
		
			<rect x="256.9" y="385" transform="matrix(0.7368 -0.6761 0.6761 0.7368 -194.5465 276.0905)" class="st7" width="0.9" height="5.8"/>
		
			<rect x="253.7" y="388" transform="matrix(0.7368 -0.6761 0.6761 0.7368 -197.399 274.6997)" class="st7" width="0.9" height="5.8"/>
		
			<rect x="250.4" y="390.9" transform="matrix(0.7366 -0.6764 0.6764 0.7366 -200.2625 273.4412)" class="st7" width="0.9" height="5.8"/>
		
			<rect x="247.2" y="393.9" transform="matrix(0.7363 -0.6766 0.6766 0.7363 -203.1405 272.2157)" class="st7" width="0.9" height="5.8"/>
		
			<rect x="244" y="396.8" transform="matrix(0.7366 -0.6764 0.6764 0.7366 -205.9136 270.6573)" class="st7" width="0.9" height="5.8"/>
		
			<rect x="240.8" y="399.7" transform="matrix(0.7368 -0.6761 0.6761 0.7368 -208.7157 269.1325)" class="st7" width="0.9" height="5.8"/>
		
			<rect x="281.7" y="381.5" transform="matrix(0.7368 -0.6761 0.6761 0.7368 -185.5938 291.9543)" class="st7" width="0.9" height="5.8"/>
		
			<rect x="278.5" y="384.4" transform="matrix(0.7368 -0.6761 0.6761 0.7368 -188.4168 290.5544)" class="st7" width="0.9" height="5.8"/>
		
			<rect x="275.3" y="387.3" transform="matrix(0.7373 -0.6756 0.6756 0.7373 -191.1947 288.8134)" class="st7" width="0.9" height="5.8"/>
		
			<rect x="272.1" y="390.3" transform="matrix(0.7368 -0.6761 0.6761 0.7368 -194.0757 287.7704)" class="st7" width="0.9" height="5.8"/>
		
			<rect x="268.9" y="393.2" transform="matrix(0.7368 -0.6761 0.6761 0.7368 -196.9274 286.379)" class="st7" width="0.9" height="5.8"/>
		
			<rect x="265.7" y="396.2" transform="matrix(0.7368 -0.6761 0.6761 0.7368 -199.7537 284.9798)" class="st7" width="0.9" height="5.8"/>
		
			<rect x="262.5" y="399.1" transform="matrix(0.7368 -0.6761 0.6761 0.7368 -202.5875 283.5961)" class="st7" width="0.9" height="5.8"/>
		
			<rect x="259.3" y="402.1" transform="matrix(0.7368 -0.6761 0.6761 0.7368 -205.422 282.224)" class="st7" width="0.9" height="5.8"/>
		
			<rect x="256" y="405" transform="matrix(0.7366 -0.6764 0.6764 0.7366 -208.3009 280.9501)" class="st7" width="0.9" height="5.8"/>
		
			<rect x="252.9" y="407.9" transform="matrix(0.7371 -0.6758 0.6758 0.7371 -211.0267 279.226)" class="st7" width="0.9" height="5.8"/>
		
			<rect x="249.7" y="410.9" transform="matrix(0.7368 -0.6761 0.6761 0.7368 -213.92 278.0206)" class="st7" width="0.9" height="5.8"/>
		
			<rect x="246.4" y="413.8" transform="matrix(0.7368 -0.6761 0.6761 0.7368 -216.745 276.6205)" class="st7" width="0.9" height="5.8"/>
	</g>
	<g>
		<g>
			<path class="st8" d="M748.7,535v-5.4l0.3-0.1c0,0,2.9-1.3,6.1-2.4l0.5-0.2l0.2,0.5c0.4,1.1,0.6,2.2,0.8,3.3
				c0.1,0.5,0.2,0.9,0.3,1.4l0.1,0.5L748.7,535z M749.8,530.3v3.3l6-1.7c-0.1-0.3-0.1-0.7-0.2-1c-0.2-0.9-0.3-1.8-0.6-2.6
				C752.7,529,750.6,530,749.8,530.3z"/>
		</g>
		<g>
			<path class="st8" d="M756,532.9l-0.1-0.6c-0.1-0.5-0.2-1-0.3-1.5c-0.2-1.1-0.4-2.1-0.8-3.1l-0.2-0.5l0.5-0.2c3-1,5.3-1.4,6.8-1.3
				l0,0c1.2,0.1,1.9,0.5,2.2,1.2c0.1,0.3,0.5,1.7-1.8,4l-0.1,0.1L756,532.9z M756,527.9c0.3,0.9,0.5,1.9,0.6,2.8
				c0.1,0.3,0.1,0.6,0.2,0.9l4.8-1.4c0.8-0.8,1.7-2.2,1.5-2.8c-0.1-0.4-0.8-0.5-1.2-0.5l0,0C760.6,526.7,758.6,527.1,756,527.9z"/>
		</g>
	</g>
	<g>
		<g>
			<path class="st8" d="M755.5,579.2L755,579c-3.2-1.1-6.1-2.4-6.1-2.4l-0.3-0.1v-5.4l8.3,2.4l-0.1,0.5c-0.1,0.5-0.2,1-0.3,1.4
				c-0.2,1.1-0.4,2.2-0.8,3.3L755.5,579.2z M749.7,575.8c0.8,0.4,2.8,1.2,5.2,2c0.2-0.9,0.4-1.7,0.6-2.6c0.1-0.3,0.1-0.6,0.2-1
				l-6-1.7L749.7,575.8L749.7,575.8z"/>
		</g>
		<g>
			<path class="st8" d="M761.2,580.3c-1.5,0-3.6-0.4-6.2-1.3l-0.5-0.2l0.2-0.5c0.4-1,0.5-2.1,0.8-3.1c0.1-0.5,0.2-1,0.3-1.5l0.1-0.6
				l6.2,1.8l0.1,0.1c2.3,2.3,1.9,3.7,1.8,4c-0.3,0.7-1,1.1-2.2,1.2l0,0C761.6,580.3,761.5,580.3,761.2,580.3z M755.9,578.1
				c2.6,0.8,4.6,1.2,5.9,1.1c0.4,0,1.1-0.2,1.2-0.5c0.2-0.6-0.7-2-1.5-2.8l-4.8-1.4c-0.1,0.3-0.1,0.6-0.2,0.9
				C756.3,576.3,756.2,577.2,755.9,578.1z"/>
		</g>
	</g>
	<g>
		<g>
			<path class="st3" d="M304.3,608h-7.8l0.1-0.6c0.1-0.4,0.1-0.8,0.1-1.2c0.4-2.8,1-4.4,2-5c1.7-1.1,3.7-0.1,3.8,0
				c1.8,0.9,2.4,3,1.9,6.3L304.3,608z M297.7,607h5.6c0.3-2.6-0.1-4.1-1.4-4.7c0,0-1.6-0.8-2.7,0c-0.4,0.3-1.1,1.2-1.5,4.3
				C297.7,606.6,297.7,606.8,297.7,607z"/>
		</g>
	</g>
	<g>
		<g>
			<path class="st3" d="M300.9,615.2c-0.4,0-0.8-0.1-1.2-0.1c-3.5-0.8-3.6-3.1-3.5-4c0-0.3,0.1-0.8,0.1-1.4c0.1-0.7,0.1-1.4,0.2-2.2
				l0.1-0.5h7.8l-0.1,0.6c-0.2,1.5-0.6,2.9-0.9,4.2c-0.2,0.8-0.4,1.5-0.5,2.1c0,0.3-0.2,0.6-0.5,0.9
				C302,615.1,301.5,615.2,300.9,615.2z M297.6,608c-0.1,0.6-0.1,1.2-0.1,1.7c-0.1,0.6-0.1,1.1-0.1,1.4c-0.2,1.4,0.7,2.4,2.7,2.8
				c1.2,0.3,1.7,0.1,1.8-0.1c0.1-0.1,0.1-0.1,0.1-0.1v-0.1c0.1-0.6,0.3-1.3,0.5-2.2c0.3-1.1,0.6-2.3,0.8-3.5L297.6,608L297.6,608z"
				/>
		</g>
	</g>
	<path class="st4" d="M205.2,575.5c-0.2-0.1-0.5-0.2-0.8-0.3c-1.2-0.4-2.5-1.1-3.8-1.9c-3-1.9-5.2-4.2-5.9-4.9
		c-0.2-0.3-0.5-0.6-0.7-0.9c-0.7-1.1-1.1-2.4-1.4-3.5c-0.3-0.8-0.5-1.6-0.8-2.1c-0.5-0.8-1.4-1.4-2.3-1.5c-0.7-0.1-1.6,0-2.7,0.9
		c-1.4,1.2-1.6,3.2-0.4,5.9c0.5,1.1,1.3,2.3,2.2,3.7l0,0l0.3,0.4l0.3,0.4l0,0c1.2,1.6,2.4,2.8,2.7,3.1c0.6,0.6,2.5,2,4.7,3.4l0,0
		l0.5,0.3l0.5,0.3l0,0c1.8,1.1,4.2,2.4,6.5,3.4c1.5,0.6,2.7,1,3.7,1.1c0.8,0.1,1.4,0,1.9-0.2c0.4-0.2,0.9-0.6,1-1.5
		C211.2,577.6,208,576.4,205.2,575.5z M187.6,566.7c-1-2.1-1-3.7,0.1-4.6c0.6-0.5,1.2-0.7,1.8-0.6h0c0.6,0.1,1.2,0.5,1.5,1
		c0.2,0.4,0.4,1,0.7,1.8c0.3,1,0.7,2.2,1.3,3.3l-3.3,2.5C188.8,568.9,188,567.8,187.6,566.7z M193,574c-0.3-0.3-1.4-1.5-2.6-3
		l1.6-1.2l1.6-1.2c0.2,0.2,0.3,0.4,0.5,0.6l0,0c0.6,0.6,2.7,2.8,5.6,4.7l-2.1,3.3C195.2,575.8,193.4,574.5,193,574z M209.4,582.1
		c-1.3,0.7-5.6-1-10.9-4.3l2.1-3.3c1.2,0.8,2.4,1.3,3.6,1.7c0.2,0.1,0.5,0.2,0.8,0.3c2.8,0.9,5.2,1.8,4.9,5
		C209.7,581.9,209.5,582.1,209.4,582.1z"/>
	<path id="_x3C_path_x3E_" class="st3" d="M334.6,515.8l9.2-2.7l-7.6-19.3l4.3-2l-3.5-9.1h-1.4c0,0-5.3,2.5-13,6.1l14.6,34.1
		L334.6,515.8z"/>
	<polyline id="_x3C_Path_x3E_" class="st3" points="275.8,654.3 275.8,624.2 262.6,624.2 262.6,666.5 275.8,666.5 275.8,654.3 	"/>
</g>
<g id="rooms">
	<rect id="r339" x="716.7" y="624.2" class="st5" width="21.7" height="39.3"/>
	<polygon id="r340" class="st5" points="692.3,624.2 692.3,642.4 692.3,663.6 716.7,663.6 716.7,624.2 	"/>
	<rect id="r347" x="538.8" y="624.2" class="st5" width="22.8" height="39.3"/>
	<rect id="r348-1" x="521.5" y="624.2" class="st5" width="17.4" height="39.3"/>
	<polyline id="r353" class="st5" points="408.7,650 408.7,624.2 386.4,624.2 386.4,663.6 408.7,663.6 408.7,650 	"/>
	<rect id="r355" x="341.1" y="624.2" class="st5" width="17.7" height="18.2"/>
	<polyline id="r354" class="st5" points="364.7,642.4 364.7,663.6 386.4,663.6 386.4,624.2 358.8,624.2 358.8,642.4 364.7,642.4 	
		"/>
	<path class="st5" d="M364.7,642.4"/>
	<polygon id="r352" class="st5" points="424.9,645 430.4,645 430.4,624.2 408.7,624.2 408.7,650 424.9,650 	"/>
	<rect id="r350" x="453.7" y="624.2" class="st5" width="21.2" height="39.3"/>
	<rect id="r349" x="474.8" y="624.2" class="st5" width="33.1" height="39.3"/>
	<rect id="r348-2" x="507.9" y="624.2" class="st5" width="13.6" height="39.3"/>
	<rect id="r346" x="568.7" y="624.2" class="st5" width="15.2" height="18.7"/>
	<polyline id="r345" class="st5" points="583.9,642.9 583.9,663.6 605,663.6 605,624.2 583.9,624.2 583.9,642.9 	"/>
	<rect id="r344" x="605" y="624.2" class="st5" width="22.8" height="39.3"/>
	<polygon id="r343" class="st5" points="647.9,646.2 648.4,646.2 648.4,624.2 627.8,624.2 627.8,663.6 648.4,663.6 648.4,646.2 	"/>
	<rect id="r342" x="648.4" y="624.2" class="st5" width="14.6" height="22"/>
	<rect id="r341" x="673.3" y="624.2" class="st5" width="19" height="18.2"/>
	<g id="r337-338">
		<rect x="738.4" y="624.2" class="st5" width="22.2" height="39.3"/>
		<rect x="760.7" y="624.2" class="st5" width="11.4" height="39.3"/>
	</g>
	<rect id="r360" x="209.6" y="624.2" class="st5" width="14.2" height="22.5"/>
	<polyline id="r361" class="st5" points="209.6,646.7 209.6,624.2 186,624.2 186,666.5 209.6,666.5 209.6,646.7 	"/>
	<polygon id="r359" class="st5" points="262.6,624.2 230.5,624.2 230.5,666.5 262.6,666.5 	"/>
	<rect id="r357" x="275.8" y="624.2" class="st5" width="21" height="30.1"/>
	<path class="st5" d="M296.8,654.3"/>
	<polyline id="r356" class="st5" points="296.8,654.3 275.8,654.3 275.8,666.5 334.6,666.5 334.6,624.2 296.8,624.2 296.8,654.3 	
		"/>
	<path class="st5" d="M222.9,445.4"/>
	<path id="_x33_02_x2F_2" class="st5" d="M157.8,504.8l26,25.2c5.4-5,10.8-10.1,15.9-14.7L172.3,489L157.8,504.8z"/>
	<path id="r303" class="st5" d="M196.6,462.7L172.3,489l27.3,26.3c9.7-8.8,18.2-16.3,22.9-20.4L196.6,462.7z"/>
	<path id="r302-1" class="st5" d="M150.7,512.4l4.5,19.2l12.3,13.9c5-5,10.5-10.3,16.2-15.5l-26-25.2L150.7,512.4z"/>
	<polyline class="st5" points="219.1,439.3 222.9,445.4 229.6,442.1 	"/>
	<path class="st5" d="M219.1,439.3"/>
	<line class="st9" x1="204.3" y1="455" x2="219.1" y2="439.3"/>
	<path class="st5" d="M204.3,455"/>
	<path class="st5" d="M196.6,462.7"/>
	<path class="st5" d="M100.1,612.7"/>
	<path class="st5" d="M103.2,615.6"/>
	<g id="r301">
		<path class="st5" d="M100.1,612.7l3.1,2.9L100.1,612.7z"/>
		<path class="st5" d="M121.5,588.4L121.5,588.4L121.5,588.4z"/>
		<path class="st5" d="M121.5,588.4L121.5,588.4L121.5,588.4z"/>
		<path class="st5" d="M155.2,531.6"/>
		<path class="st5" d="M157.8,504.8l14.6-15.8l-44.7-43.1c-25.4,18.6-52.2,38.5-63.4,47.8c1.5,0.7,2.9,1.5,4.3,2.5
			c9.2,8.1,17.6,15.7,26.3,24.1c11.7,12.2,25.5,24.1,25.8,42c0.3,5.7,0.8,11.1-0.5,16.8c-0.4,2.4,0.8,6.6,1.4,9.2
			c16.7-7.9,26.8-21.2,26.8-21.2c2.9-4.7,10.3-12.7,19.3-21.7l-12.3-13.9"/>
		<line class="st9" x1="150.7" y1="512.4" x2="157.8" y2="504.8"/>
		<path class="st5" d="M150.7,512.4"/>
		<line class="st9" x1="155.2" y1="531.6" x2="150.7" y2="512.4"/>
	</g>
	<path id="r362" class="st5" d="M162.2,622l-14.8,44.5H186v-42.3C186,625.4,164.2,622.4,162.2,622"/>
	<path id="r305" class="st5" d="M255.9,437.6l-6.2,6.3l-8.6-7.4l-11.6,5.6l18.8,34.3c6.5-4,13.2-7.7,20.1-11.2L255.9,437.6z"/>
	<path id="r306" class="st5" d="M273.3,420l-17.4,17.7l12.6,27.6c7.1-3.6,14.3-7,21.6-10.2L273.3,420z"/>
	<line class="st9" x1="285.4" y1="433.2" x2="298" y2="428.3"/>
	<path class="st5" d="M285.4,433.2"/>
	<g id="r307-308">
		<path class="st5" d="M298,428.3l-12.6,5l8,20.3c4.2-1.8,8.4-3.5,12.5-5.2L298,428.3z"/>
		<path class="st5" d="M326.1,417.2L298,428.3l7.9,20.2c9.6-3.8,19.2-7.2,28.6-10.3L326.1,417.2z"/>
	</g>
	<path id="r309" class="st5" d="M350.2,407.1l-10.9,3.9l8.3,23c10-3,19.5-5.7,28.4-8l-8.6-38.1l-22.6,4.7L350.2,407.1"/>
	<path class="st5" d="M350.2,407.1"/>
	<path id="r310" class="st5" d="M367.5,387.9l8.6,38.1c6.1-1.6,12-3,17.4-4.3l-6.7-37.9L367.5,387.9z"/>
	<path class="st5" d="M418.2,384.9"/>
	<g id="r311-1-311-2">
		<path class="st5" d="M386.7,383.9l6.8,37.9c6.5-1.5,12.4-2.8,17.7-3.9l-6.1-37.9L386.7,383.9z"/>
		<path class="st5" d="M424.9,383.3l-6.7,1.6l-1.6-7.4l-11.6,2.4l6.1,37.9c8-1.6,14.3-2.8,18.6-3.5L424.9,383.3z"/>
	</g>
	<line class="st9" x1="386.7" y1="383.9" x2="405.1" y2="380"/>
	<line class="st9" x1="367.5" y1="387.9" x2="386.7" y2="383.9"/>
	<path id="r334" class="st5" d="M760.9,461.3l-11.5,19.6c0.1,0,0.1,0.1,0.2,0.1c8,4.5,14.5,10,19.4,15l13.6-19.5L760.9,461.3z"/>
	<path id="r333" class="st5" d="M725.1,423c-2.1,5.3-4.2,10.6-6.5,15.9l0.3,0.2l-0.3-0.2c-3,6.8-6.2,13.6-9.9,20.1
		c19.2,9.4,33,17.6,40.6,21.9l11.5-19.6l-1.3-0.9l1.3,0.9l7.9-13.3L725.1,423z"/>
	<path id="r332" class="st5" d="M707,432l-9.6,21.6c4,1.8,7.7,3.6,11.3,5.4c3.7-6.5,6.9-13.3,9.9-20.1L707,432z"/>
	<path class="st5" d="M688,407.5c-3.6-1.4-7.6-3-11.7-4.5l-0.1,0.1c4.1,1.5,8.1,3.1,11.7,4.5L688,407.5z"/>
	<path class="st5" d="M651.5,394.1c-4.9-1.7-9.3-2.4-12.1-3.3l0,0C642.2,391.7,646.6,392.4,651.5,394.1L651.5,394.1z"/>
	<path class="st5" d="M663.6,398.3c-4.2-1.5-8.3-3-12-4.2l0,0.1c3.7,1.3,7.8,2.8,12,4.3L663.6,398.3z"/>
	<path class="st5" d="M676.3,403c-4.2-1.6-8.5-3.1-12.7-4.7l0,0.1c4.2,1.5,8.5,3.1,12.7,4.7L676.3,403z"/>
	<line class="st9" x1="699.3" y1="412" x2="699.3" y2="412"/>
	<path class="st5" d="M699.3,412c-2.8-1.3-6.8-2.8-11.3-4.6l-0.1,0.1C692.5,409.4,696.6,410.8,699.3,412L699.3,412z"/>
	<path id="r330" class="st5" d="M676.2,403.1l-13.7,36c4,1.5,7.8,3,11.6,4.4l13.9-36C684.4,406.2,680.4,404.7,676.2,403.1z"/>
	<path id="r329" class="st5" d="M663.5,398.4l-13.1,36.4c4.1,1.4,8.2,2.8,12.1,4.3l13.8-36C672.1,401.6,667.7,400,663.5,398.4z"/>
	<path id="r328" class="st5" d="M651.5,394.2L638.7,431c4,1.2,7.9,2.5,11.7,3.8l13.1-36.4C659.3,396.9,655.2,395.5,651.5,394.2z"/>
	<g id="r324-325">
		<path class="st5" d="M615.5,424.5l10.6-37.6c-4.4-1.2-8.6-2.8-12.8-3.7l-9.2,38.5C607.9,422.6,611.8,423.5,615.5,424.5z"/>
		<path class="st5" d="M604,421.7l9.2-38.5c-4.4-0.9-8.7-1.6-13.1-2.2l-8.2,38.1C596.1,419.9,600.1,420.8,604,421.7z"/>
	</g>
	<g id="r322-323">
		<path class="st5" d="M592,419.1l8.2-38.1c-4.4-0.6-8.9-1.2-13.6-1.6l-6.1,37.6C584.4,417.6,588.2,418.3,592,419.1z"/>
		<path class="st5" d="M568.9,415.1c3.9,0.6,7.8,1.2,11.6,1.9l6.1-37.6c-4.3-0.4-8.8-0.8-13.4-1.2L568.9,415.1L568.9,415.1z"/>
	</g>
	<path class="st5" d="M566.3,387.1"/>
	<g id="r312-313">
		<path class="st5" d="M428.6,358.4l6.7,55.1c0.1,0,0.2,0,0.2,0c4.7-0.8,10.8-1.4,18-1.7l-3.7-54.3L428.6,358.4z"/>
		<path class="st5" d="M449.7,357.4l3.7,54.3c5.5-0.3,11.5-0.4,17.8-0.4l-1.4-54.9L449.7,357.4z"/>
	</g>
	<g id="ikea">
		<line class="st9" x1="561.3" y1="386.6" x2="563.7" y2="364.4"/>
		<path class="st5" d="M561.3,386.6"/>
		<path class="st5" d="M563.7,364.4l0.9-15.2l-41.7-16.1l-54.2,0.4l1.1,22.8l1.4,54.9c33.7-0.2,76.4,2.4,91.8,3.4l3.2-27.6l-5-0.4"
			/>
		<path class="st5" d="M468.7,333.6L468.7,333.6L468.7,333.6z"/>
	</g>
	<g id="r326-327">
		<path class="st5" d="M639.4,390.8l-11.7,37c3.7,1.1,7.4,2.2,11,3.3l12.8-36.9C646.6,392.4,642.2,391.7,639.4,390.8z"/>
		<path class="st5" d="M626.1,386.9l-10.6,37.6c4.1,1.1,8.2,2.1,12.1,3.3l11.7-37C639.1,390.7,630,387.9,626.1,386.9z"/>
	</g>
	<path id="r331" class="st5" d="M693.2,428.3l6.2-16.2c-2.8-1.2-6.8-2.6-11.4-4.4l-13.9,36c6.2,2.5,12.1,5,17.6,7.4l8.1-19.4
		L693.2,428.3"/>
	<path class="st5" d="M693.2,428.3"/>
	<path class="st5" d="M347.6,434c-4.3,1.3-8.7,2.7-13,4.1l0,0"/>
	<g id="r304">
		<path class="st5" d="M229.6,442.1l-6.6,3.3l-3.9-6L204.3,455l1.3,2.1l21.6,33.8c6.6-5.1,13.7-9.9,21.1-14.4L229.6,442.1z"/>
	</g>
	<path id="r335" class="st5" d="M776.9,504.1c0.5,0,16.5-19.5,16.5-20.1c0-0.5,2.7-2.9,2-6.2c-0.7-3.3-9.2-8.3-9.2-8.3L769,496
		L776.9,504.1z"/>
	<polygon id="r351" class="st5" points="439,624.2 439,645 444.6,645 444.6,663.6 453.7,663.6 453.7,624.2 	"/>
	<polygon id="r336" class="st5" points="780.5,508.7 801.9,483.8 944.8,483.8 962.4,505.2 962.4,651.9 836.1,651.9 836.1,649.3 
		820.2,649.3 820.2,651.9 780.5,651.9 	"/>
	<path id="r373-1" class="st5" d="M438.2,457.2c0.5,4.9,3.9,27.7,3.9,27.7l16.8-2.2l-2.4-26.8L438.2,457.2z"/>
	<polygon id="r373-2" class="st5" points="456.4,455.8 458.8,482.7 442,484.8 444.5,501.8 474.3,501.8 474.3,462.6 465.6,455.8 	"/>
	<path id="r372" class="st5" d="M438.2,457.2l-29.8,4.1l-1.4,0.3c0,1.4,8.9,40.1,8.9,40.1l28.1-2.9L438.2,457.2z"/>
	<path id="r369-2" class="st5" d="M343.8,480.2l13.9,38.5c1-0.1,5.6-1.4,10.1-2.8l-14.2-39.1L343.8,480.2z"/>
	<path id="r369-1" class="st5" d="M364.2,473.2l-10.5,3.7l14.2,39.1c4.9-1.4,9.7-2.9,9.7-2.9L364.2,473.2z"/>
	<polygon id="r370" class="st5" points="385.3,467.2 364.2,473.2 377.5,513 395.9,507.4 	"/>
	<polygon id="r371" class="st5" points="385.3,467.2 395.9,507.4 416,501.7 407,461.5 	"/>
	<path id="r367" class="st5" d="M337.3,522.8l-14.6-34.1c-5.9,2.8-13.1,6.2-20.4,9.7l17.8,34.1l17.8-8.1L337.3,522.8z"/>
	<path id="r366" class="st5" d="M294.7,529.4l6.6,11.7l18.8-8.6l-17.8-34.1c-6.9,3.3-13.8,6.6-19.8,9.6L294.7,529.4"/>
	<path id="r365" class="st5" d="M294.7,529.4L282.5,508c-7.9,3.9-14,7-16,8.3c-7.1,4.6-8.4,12.2-8.4,12.2s-0.1,0.5-0.2,1.4
		c7.2,1.7,14.1,4.9,19.9,9.7L294.7,529.4z"/>
	<path class="st5" d="M277.7,539.5"/>
	<path id="r3105" class="st5" d="M277.7,539.5c-5.7-4.8-12.6-7.9-19.9-9.7c-0.7,3.9-2.8,15.1-4.6,23.1c-2.2,9.8,0,11.4,0,11.4
		l19.8,16.3h28.5v-27.7H298c0,0,0-8.7,0-10.3l3.2-1.5l-6.6-11.7L277.7,539.5"/>
	<polygon id="r3104" class="st5" points="320,561.6 320,552.9 301.5,552.9 301.5,580.6 340.8,580.6 340.8,561.6 	"/>
	<polygon id="r3103" class="st5" points="341.1,544 341.1,561.6 340.8,561.6 340.8,580.6 341.1,580.6 341.1,561.3 341.1,580.6 
		356.9,580.6 356.9,544 	"/>
	<rect id="r3101" x="385.3" y="544" class="st5" width="21" height="36"/>
	<rect id="r3102" x="364.2" y="544" class="st5" width="21.2" height="36"/>
	<rect id="r3100" x="406.4" y="553" class="st5" width="23.1" height="27"/>
	<rect id="r399" x="429.5" y="553" class="st5" width="21.7" height="27"/>
	<polygon id="r398-1" class="st5" points="474.3,532.5 441.5,532.5 441.5,544 428.5,544 428.5,553 441.5,553 441.5,553 451.2,553 
		451.2,556.4 474.3,556.4 474.3,552.1 474.3,552.1 	"/>
	<path id="r398-2" class="st5" d="M451.2,579.9c1.3,0,17.1,0,18.2,0s4.9-0.9,4.9-9.1c0-8.2,0-14.4,0-14.4h-23.1V579.9z"/>
	<path id="r373-3" class="st5" d="M407,517.7c1.1-0.2,14.5,0,14.5,0v6.2H469v-3.1h5.3v-18.8h-29.8l-0.4-3.1l-28.1,2.9l-8.9,2.5
		L407,517.7L407,517.7z"/>
	<path id="k315" class="st5" d="M474.3,590.3c0-0.6-0.5-1.1-1.1-1.1H466c-0.6,0-1.1,0.5-1.1,1.1l-1.9,13.5h11.3V590.3z"/>
	<path id="k316" class="st5" d="M463,603.8l-1.4,11.5c0,0.6,0.5,1.1,1.1,1.1h10.5c0.6,0,1.1-0.5,1.1-1.1v-11.5H463z"/>
	<path id="k313" class="st5" d="M515.9,590.3c0-0.6,0.5-1.1,1.1-1.1h7.3c0.6,0,1.1,0.5,1.1,1.1l1.9,13.5h-11.3V590.3z"/>
	<path id="k314" class="st5" d="M527.2,603.8l1.4,11.5c0,0.6-0.5,1.1-1.1,1.1h-10.5c-0.6,0-1.1-0.5-1.1-1.1v-11.5H527.2z"/>
	<path id="k322" class="st5" d="M198.9,613.3h-8.3c-0.6,0-1.1-0.5-1.1-1.1l2.2-18.6c0-0.6,0.5-1.1,1.1-1.1h8.3
		c0.6,0,1.1,0.5,1.1,1.1l-2.2,18.6C200,612.8,199.5,613.3,198.9,613.3z"/>
	<path id="k321" class="st5" d="M219.7,613.3h-8.3c-0.6,0-1.1-0.5-1.1-1.1l2.2-18.6c0-0.6,0.5-1.1,1.1-1.1h8.3
		c0.6,0,1.1,0.5,1.1,1.1l-2.2,18.6C220.8,612.8,220.3,613.3,219.7,613.3z"/>
	<path id="k320" class="st5" d="M230.1,613.3h-8.3c-0.6,0-1.1-0.5-1.1-1.1l2.2-18.6c0-0.6,0.5-1.1,1.1-1.1h8.3
		c0.6,0,1.1,0.5,1.1,1.1l-2.2,18.6C231.2,612.8,230.7,613.3,230.1,613.3z"/>
	<path id="k317" class="st5" d="M273.9,616.9h-10c-0.6,0-1.1-0.5-1.1-1.1l2.2-25.3c0-0.6,0.5-1.1,1.1-1.1h10c0.6,0,1.1,0.5,1.1,1.1
		l-2.2,25.3C275,616.4,274.5,616.9,273.9,616.9z"/>
	<path id="k318" class="st5" d="M265.1,590.5c0-0.6-0.5-1.1-1.1-1.1h-10c-0.6,0-1.1,0.5-1.1,1.1l-1,12h12.1L265.1,590.5z"/>
	<path id="k319" class="st5" d="M251.9,602.5l-1.1,13.3c0,0.6,0.5,1.1,1.1,1.1h10c0.6,0,1.1-0.5,1.1-1.1l1.1-13.3H251.9z"/>
	<path id="k308" class="st5" d="M651.3,589.7c-0.6,0-1.1,0.5-1.1,1.1l-5.4,24.5c0,0.6,0.5,1.1,1.1,1.1h8.7l6.1-26.7H651.3z"/>
	<path class="st5" d="M729.9,616.4h8.9c0.6,0,1.1-0.5,1.1-1.1l2.8-12.7h-9L729.9,616.4z"/>
	<path class="st5" d="M744.3,589.7h-7l-3.5,12.8h9l2.6-11.7C745.4,590.2,744.9,589.7,744.3,589.7z"/>
	<path id="k301" class="st5" d="M239.2,492.7c-0.5,0.3-0.6,1-0.3,1.5l12.3,18.6c0.3,0.5,1,0.6,1.5,0.3l6.2-4.1l-13.7-20.3
		L239.2,492.7z"/>
	<path id="k302" class="st5" d="M265.7,503.2l-12.3-18.6c-0.3-0.5-1-0.6-1.5-0.3l-6.6,4.4L259,509l6.4-4.3
		C265.9,504.4,266,503.7,265.7,503.2z"/>
	<path id="k303" class="st5" d="M346.1,444.5c-0.5,0.2-0.8,0.9-0.6,1.4l8.4,20.6c0.2,0.5,0.9,0.8,1.4,0.6l6.9-2.9l-9.4-22.6
		L346.1,444.5z"/>
	<path id="k304" class="st5" d="M370,459.9l-8.4-20.6c-0.2-0.5-0.9-0.8-1.4-0.6l-7.3,3l9.4,22.6l7.1-2.9
		C370,461.1,370.3,460.5,370,459.9z"/>
	<path id="k307" class="st5" d="M690.2,458c-0.6-0.3-2-0.9-3.6-0.6c-1.8,0.4-2.8,2-2.8,2l-13.7,14.7c-2.9,3.5,2.1,6.2,2.1,6.2
		s0.9,0.4,2.5,1.2l19.7-21.4C693.2,459.4,691.7,458.7,690.2,458z"/>
	<path id="k312" class="st5" d="M746.5,518.3c1.1,0.8,2,1.5,2.7,2.1c3.7,3.4,6.4-0.6,6.4-0.6c1.1-1.7,3.9-4.7,6.4-7.6l-6.7-5.1
		L746.5,518.3z"/>
	<path id="k311" class="st5" d="M764.9,499.5L764.9,499.5c-0.8-0.5-1.7-0.9-2.5-1.4l-7.1,8.9l6.7,5.1c2.7-3,5.2-5.9,5.7-6.9
		C768.8,502.7,767,501.1,764.9,499.5z"/>
	<path class="st5" d="M286.9,400.9l-7.9-8.8l-17.4,19.6c0,0,6.2,6.5,6.9,6.2L286.9,400.9z"/>
	<polygon class="st5" points="309.9,392.1 306,381 285.4,387.9 290.2,397.7 	"/>
	<path id="r374" class="st5" d="M515.9,499.8v26c3.4-0.1,13.6-0.1,24.6-0.1v-25.9L515.9,499.8L515.9,499.8z"/>
	<g id="r379-380">
		<path class="st5" d="M585,464.1l-3.7,18.4l9.6,1.5l3.6-18.1C591.3,465.3,588.1,464.7,585,464.1z"/>
		<path class="st5" d="M607.6,468.7c-4.4-1-8.7-1.9-13-2.8L591,484l11.5,1.8L607.6,468.7z"/>
	</g>
	<path class="st5" d="M540.5,499.8"/>
	<path id="r375-378" class="st5" d="M591,484l-9.6-1.5l3.7-18.4c-31.1-5.9-54.9-8.3-54.9-8.3l-14.3,11.4v32.5h24.6v25.9
		c16.9,0.1,35.8,0.2,35.8,0.2v-6.1h9.8v-14.6l9.7,3.1l6.7-22.3L591,484z"/>
	<path id="r381" class="st5" d="M602.4,485.8l-6.7,22.3l19.7,6.2l12.4-40.8c-6.8-1.8-13.7-3.4-20.4-4.9L602.4,485.8"/>
	<g id="r382-383">
		<path class="st5" d="M627.9,473.6l-12.4,40.8l6.3,2l2.3-5.9l3,0.9l10.9-35.1C634.7,475.5,631.3,474.5,627.9,473.6z"/>
		<path class="st5" d="M648.6,479.6c-3.5-1.1-7-2.1-10.5-3.1l-10.9,35.1l8.5,2.6C639.1,505,645.3,488,648.6,479.6z"/>
	</g>
	<rect id="r397-2" x="515.9" y="532.1" class="st5" width="25.4" height="21"/>
	<path id="r397-1" class="st5" d="M515.9,553v22c0,0,5.1,4.5,6.3,4.9c0.2,0.1,7.5,0.1,19.1,0.2V553L515.9,553L515.9,553z"/>
	<path id="r396" class="st5" d="M541.3,532.1v21v27.1c6.4,0,14.1,0,22.8,0v-36h7.7v-12L541.3,532.1L541.3,532.1z"/>
	<path id="r395" class="st5" d="M571.8,544.5v-0.4h-7.7v36c6.6,0,13.7,0,21.2,0v-35.7H571.8z"/>
	<path id="r394-1" class="st5" d="M586.6,544.5H586h-0.8v35.7c3.5,0,7,0,10.6,0v-35.7H586.6z"/>
	<path id="r394-2" class="st5" d="M606,544.5h-10.1v35.7c3.3,0,6.7,0,10.1,0V544.5z"/>
	<path id="r393" class="st5" d="M627.8,544.5H606v35.7c7.2,0,14.5,0,21.8,0V544.5z"/>
	<path id="r386" class="st5" d="M708,507.1c-5.3-4-11.6-7.8-18.4-11.3l-15.9,36l18,8.9l16.4-33.5L708,507.1z"/>
	<polygon id="r387" class="st5" points="729.9,518.9 708.2,507.2 691.8,540.7 694.6,542.1 694.6,542.9 717.4,542.9 739.6,542.9 
		739.6,530.7 	"/>
	<g id="r391-392">
		<path class="st5" d="M636.1,553v27.1c4.9,0,9.8,0,14.6,0V553H636.1z"/>
		<path class="st5" d="M673.1,553h-22.4v27.1c7.7,0,15.2,0,22.4,0V553z"/>
	</g>
	<path id="r390" class="st5" d="M694.2,553h-21.2v27.1c7.5,0,14.7,0,21.2,0V553z"/>
	<g id="r388-389">
		<path class="st5" d="M717.4,542.9h-22.9V553h-0.3v27c9.2,0,17.1,0,23.2-0.1L717.4,542.9L717.4,542.9z"/>
		<path class="st5" d="M717.4,542.9V580c7.9,0,12.5,0,12.5,0l9.6-11.8v-25.3L717.4,542.9L717.4,542.9z"/>
	</g>
	<g id="r384-385">
		<path class="st5" d="M654.2,481.3l-11.3,35.1l12.1,6l15.2-35.3C665,485.1,659.7,483.2,654.2,481.3z"/>
		<path class="st5" d="M670.2,487.1l-15.2,35.3l18.9,9.4l15.9-36C683.6,492.7,677.1,489.8,670.2,487.1z"/>
	</g>
	<g>
		<rect x="341.1" y="663.9" class="st3" width="321.9" height="16"/>
		<rect x="673.3" y="663.9" class="st3" width="96.5" height="16"/>
	</g>
	<g id="r363-364-1-364-2">
		<path class="st5" d="M135.3,603.2l-33,34.8l16.9,15.4c0,0,25.7-35.4,28.5-37.9C146.1,613.9,140.8,608.7,135.3,603.2z"/>
		<path class="st5" d="M148.3,616.1c-0.1-0.1-0.2-0.2-0.4-0.4c-2.8,2.5-28.5,37.9-28.5,37.9l14.3,13h13.8
			c4.3-12.9,8.6-25.8,12.9-38.8c0.7-1.9,1.3-3.9,1.9-5.8C157.5,621.1,151.8,619.6,148.3,616.1z"/>
		<path class="st5" d="M100.1,612.8l3.1,2.9l-11.8,12.5l11.1,10l32.8-35c-5-4.9-10.9-11.8-13.9-14.7l0,0L100.1,612.8z"/>
	</g>
	<circle id="co-working-space" class="st5" cx="513.4" cy="434" r="17.6"/>
</g>
<g id="signs">
	<g id="escalator_6_">
		<rect id="escalator_17_" x="857.4" y="559.9" width="12.2" height="12.2"/>
		<rect id="escalator_15_" x="220.2" y="503.4" width="12.2" height="12.2"/>
		<rect id="escalator_14_" x="182.4" y="539.1" width="12.2" height="12.2"/>
		<rect id="escalator_13_" x="594.5" y="594.3" width="12.2" height="12.2"/>
		<rect id="escalator_12_" x="716.2" y="493.9" width="12.2" height="12.2"/>
		<rect id="escalator_19_" x="697.9" y="461.9" width="12.2" height="12.2"/>
		<rect id="escalator_11_" x="617.7" y="444.6" width="12.2" height="12.2"/>
		<rect id="escalator_10_" x="364.2" y="597.8" width="12.2" height="12.2"/>
		<rect id="escalator_9_" x="484.5" y="564.5" width="12.2" height="12.2"/>
		<rect id="escalator_8_" x="496.7" y="452.4" width="12.2" height="12.2"/>
		<rect id="escalator_7_" x="463.2" y="427" width="12.2" height="12.2"/>
		<rect id="escalator_26_" x="226.3" y="556.6" width="12.2" height="12.2"/>
	</g>
	<rect id="meeting_point" x="515.9" y="428.2" width="12.2" height="12.2"/>
	<g id="elevator_13_">
		<rect id="elevator_19_" x="675.8" y="650" width="12.2" height="12.2"/>
		<rect id="elevator_18_" x="344.6" y="650.8" width="12.2" height="12.2"/>
		<rect id="elevator_17_" x="226.3" y="521.9" width="12.2" height="12.2"/>
		<rect id="elevator_16_" x="313.7" y="403.5" width="12.2" height="12.2"/>
		<rect id="elevator_15_" x="710.1" y="421.5" width="12.2" height="12.2"/>
		<rect id="elevator_14_" x="886.9" y="638.2" width="12.2" height="12.2"/>
	</g>
	<rect id="baby_change" x="176.3" y="444.6" width="12.2" height="12.2"/>
	<g id="family_room_4_">
		<rect id="family_room_3_" x="387" y="529.1" width="12.2" height="12.2"/>
		<rect id="family_room_2_" x="607.2" y="529.4" width="12.2" height="12.2"/>
	</g>
	<g id="handicap_6_">
		<rect id="handicap_3_" x="591.9" y="529.4" width="12.2" height="12.2"/>
		<rect id="handicap_2_" x="372.5" y="529.1" width="12.2" height="12.2"/>
		<rect id="handicap_1_" x="194" y="428.8" width="12.2" height="12.2"/>
		<rect id="handicap_4_" x="944.8" y="530" width="12.2" height="12.2"/>
	</g>
	<g id="toilet_1_">
		<rect id="toilet_4_" x="372.5" y="513.9" width="12.2" height="12.2"/>
		<rect id="toilet_3_" x="591.6" y="513.6" width="12.2" height="12.2"/>
		<rect id="toilet_6_" x="176.1" y="427.7" width="12.2" height="12.2"/>
		<rect id="toilet_2_" x="944.8" y="509.5" width="12.2" height="12.2"/>
	</g>
	<g id="kid_toilet_2_">
		<rect id="kid_toilet" x="387" y="513.9" width="12.2" height="12.2"/>
		<rect id="kid_toilet_1_" x="607.2" y="513.6" width="12.2" height="12.2"/>
	</g>
	<g id="entrance_1_">
		<rect id="entrance_2_" x="435.2" y="668.2" width="12.2" height="12.2"/>
		<rect id="entrance_3_" x="662.1" y="668.2" width="12.2" height="12.2"/>
		<rect id="entrance_4_" x="770.5" y="668.2" width="12.2" height="12.2"/>
		<rect id="entrance_5_" x="823.6" y="655.4" width="12.2" height="12.2"/>
		<rect id="entrance_6_" x="417.2" y="334.5" width="12.2" height="12.2"/>
		<rect id="entrance_7_" x="315.5" y="376.1" width="12.2" height="12.2"/>
		<rect id="entrance_8_" x="333.4" y="668.2" width="12.2" height="12.2"/>
	</g>
	<rect id="infomation_1_" x="490.6" y="597.8" width="12.2" height="12.2"/>
</g>
</svg>
