<?xml version="1.0" encoding="utf-8"?>
<!-- Generator: Adobe Illustrator 16.0.0, SVG Export Plug-In . SVG Version: 6.00 Build 0)  -->
<!DOCTYPE svg PUBLIC "-//W3C//DTD SVG 1.1//EN" "http://www.w3.org/Graphics/SVG/1.1/DTD/svg11.dtd">
<svg version="1.1" id="Layer_1" xmlns="http://www.w3.org/2000/svg" xmlns:xlink="http://www.w3.org/1999/xlink" x="0px" y="0px"
	 width="1000px" height="1000px" viewBox="0 0 1000 1000" enable-background="new 0 0 1000 1000" xml:space="preserve">
<g id="background">
	<rect y="186.202" fill="#EDEFEF" width="1000" height="627.597"/>
</g>
<g id="etc">
	<path fill="#FFFFFF" d="M10.549,508.569l22.78-17.952h9.763c0,0,17.356-28.91,37.967-47.568
		c20.611-18.657,96.545-69.669,120.41-84.856c23.865-15.187,46.646-34.713,52.069-42.306c5.424-7.594,42.306-32.543,42.306-32.543
		l-6.508-9.763l20.61-11.932l7.594,8.678c0,0,105.358-64.002,160.601-62.917c55.242,1.084,133.373,26.034,133.373,26.034v-14.102
		l22.482,4.339l6.102,21.695c0,0,55.188,20.611,101.184,92.206c45.995,71.595,121.929,142.269,121.929,142.269l78.104,112.465
		l20.61-16.924l23.864,10.821c0,0-56.408,99.609-69.425,113.711c-13.019,14.104-90.036,64.002-118.241,68.341
		c-28.204,4.339-355.236,17.356-355.236,17.356c-22.97-8.896-53.968-21.723-89.766-39.052
		c-89.222-43.175-151.353-86.81-189.564-113.901C120.166,601.915,67.337,561.046,10.549,508.569z"/>
	<path fill="#FFFFFF" stroke="#FFFFFF" stroke-miterlimit="10" d="M858.735,538.916c-6.373-0.379-16.923-0.271-16.923-0.271
		l-9.41-12.203c0,0-0.108-22.861-1.004-31.702l-21.831-28.666l-19.336-21.181l-43.419-54.619l-16.977-8.787l-37.425-23.458
		l-3.607,5.125l11.229-15.919l-27.336-15.35l5.288-12.854l-69.969-26.686l4.772-8c0,0,4.123,3.363,8.245,4.502
		c4.122,1.112,12.719,4.122,19.092-1.763c6.373-5.885-1.112-7.566-1.112-7.566s-30.347-14.238-39.702-18.36
		c-8.462-3.715-44.367-13.234-51.256-15.051l-5.152,12.854l-12.963-3.553c0.162-0.407,2.25-0.353,4.394-2.007
		c2.143-1.654,2.359-3.634,2.115-5.37c-0.624-4.366-8.517-6.156-13.1-6.373c-9.166-0.407-16.055,5.153-21.45,9.492
		c-6.51,5.234-8.651,9.709-9.41,11.499c-0.271,0.678-1.248,3.037-1.709,5.966c-1.654,10.929,6.129,15.784,7.729,28.205
		c0.299,2.359,0.896,6.916-0.217,11.607c-3.443,4.339-6.671,8.461-9.355,11.905c-4.665,2.333-9.845,2.712-13.126,2.956
		c-3.553,0.271-19.743,1.464-25.816-8.244c-5.643-8.977,0.353-22.563,1.627-25.465c3.037-6.888,6.941-10.115,7.729-18.333
		c0.218-2.305,0.488-5.614-1.003-9.356c-3.037-7.566-10.767-10.359-12.096-10.848c-11.362-4.095-21.831,3.363-22.834,4.122
		l-10.333,2.062c-0.325-0.841-0.515-1.329-0.515-1.329s-1.927,0.895-5.182,2.468l0,0c-18.793,8.922-82.496,39.377-85.046,43.229
		l16.462,35.689l-18.469,5.478c-2.359-4.963-8.488-17.709-8.488-17.709l-23.458,7.973l-36.801,41.086
		c-1.248,0.949-24.272,19.417-34.903,27.906c-7.512,3.688-37.587,16.109-44.909,18.333c-8.245,2.495-16.977,7.24-21.723,10.739
		c-4.746,3.498-21.452,15.729-21.452,15.729s-20.285,21.207-20.367,21.723c-0.081,0.487-7.078,7.62-7.078,7.62
		s-4.99,6.861-2.495,11.119c2.495,4.258,60.639,58.144,60.639,58.144l10.224-0.487c0.407,0.082,2.115,0.353,3.146,1.355
		c-0.081,0.081-0.163,0.162,0,0c2.17,2.007,5.126,5.776,7.594,5.642c1.898-0.108,5.288-0.461,9.058-1.52
		c6.617,8.027,13.424,20.231,13.424,20.231l8.244,12.719c0,0,10.848-7.269,15.485-9.79c0.624-0.326,14.509-0.949,14.509-0.949H258.8
		h14.78l0.732,1.03v0.244v10.44c-3.959-0.082-39.458-0.705-45.344,0c-6.237,0.76-9.736,10.495-9.736,10.495
		s37.696,28.204,38.944,28.963c1.247,0.761,2.739,1.005,2.739,1.005v-32.191l4.502,0.76c0,0-0.488,31.702,0,35.201
		c0.379,2.604,6.265,4.23,8.895,4.908c0-3.932,0-9.465,0-15.919v13.994h16.76c0,2.032,0.027,3.715,0.054,4.988v1.492v3.498
		c0,0,32.679,6.727,46.917,9.356c3.363,0.379,6.727,1.11,10.115,1.11c1.492,0,2.982-0.759,3.743-2.251c0.38-0.379,0-0.759,0.38-1.11
		c0.379-0.354,1.11-0.761,1.49-0.761c3.742,0.381,7.484,0.761,11.606,1.112c11.987,1.871,23.188,3.823,35.201,5.993
		c10.278,1.844,31.188,4.122,30.835,4.746c4.475-0.082,8.923-0.436,11.824-3.634c3.742-4.123,5.233-9.356,9.734-13.1
		c1.492-1.111,3.363-1.491,4.854-2.631c1.112-0.38,1.872-0.76,2.982-1.112c2.251-0.759,4.503-1.11,6.861-1.383H457.8
		c7.403-1.952,16.163-3.146,25.709-2.277c0,0.435,0,0.65,0,0.65h5.207c2.007,0.325,4.04,0.759,6.074,1.274h-19.255
		c5.262,0.298,10.495,1.844,13.343,6.59c3.96,6.59,9.384,11.96,13.967,18.089c1.41,1.6,2.983,3.254,7.105,2.495
		c5.722,0,11.443,0.731,17.166,0c7.35-0.922,9.059-2.902,9.004-10.034l-0.136-17.167h-7.566l1.546-3.417h3.417h0.949h3.417h0.949
		h3.417h0.948h3.417h0.949l0.76,3.417h-4.177c0.38,7.051,0.732,13.75,1.112,20.801c0,1.111,0.759,2.251,1.111,3.362
		c0.38,0.38,1.111,0.76,1.491,1.112c0.76,0.38,1.111,0.76,1.871,0.76c1.491,0,2.63,0.759,4.122,0.379
		c13.857-2.63,26.577-4.854,40.436-7.864c1.871-0.38,6.048-1.004,7.621-3.553c0-5.804,0-11.037,0-11.037h7.973
		c0,0,0.136,6.428,0.055,10.034c0.379,1.871,2.686,2.686,4.937,2.305c1.49-0.38,2.982-1.11,4.502-1.49
		c49.791-12.721,96.22-26.577,142.62-46.43c0.76-0.38,1.111,0,1.871-0.38c1.491-0.759,2.982-1.491,4.502-2.63
		c1.491-1.492,1.491-3.363,0.76-5.234c-1.871-5.613-4.122-10.494-6.373-16.108c-1.112-1.871-1.871-3.742-3.362-5.613
		c-0.76-1.112-2.251-1.112-3.363-1.491c-1.87-0.76-3.741-1.111-5.612-0.76c-0.027-0.244,0-0.353,0.054-0.407
		c0.136-1.789-1.085-3.851-0.054-5.586c5.232,0,10.848,0.38,14.97,3.742c2.983,8.244,5.993,16.109,9.735,23.946
		c0.76,1.492,1.871,2.982,2.982,4.122c7.485-3.362,16.841-4.854,23.214-10.115c0-1.871-1.871-2.631-2.981-4.122
		c-4.122-6.373-11.607-7.864-17.98-10.495c0-2.982,0-5.614,0-8.597c12.719-1.871,23.946,7.864,31.079,17.601
		c1.491,0,2.63-0.38,3.742-0.76c12.366-5.234,24.326-10.115,36.692-15.35c3.362-1.491,6.726-2.983,9.735-5.234
		c2.25-1.871,4.502-2.63,6.373-4.501c1.491-1.872,2.793-3.119,4.122-5.234C876.933,544.53,865.922,538.021,858.735,538.916z
		 M172.723,546.211c0.027-0.026,0.027-0.026,0.027-0.026c0.949-1.085,2.386-2.875,3.932-4.745c0.054,0.026,0.108,0.054,0.163,0.08
		C175.246,543.337,173.89,544.91,172.723,546.211z M256.875,378.993c-2.088-2.007-3.824-3.634-4.854-4.501
		C253.268,375.549,254.977,377.122,256.875,378.993C256.902,378.993,256.902,378.993,256.875,378.993z M529.831,255.627
		c0.027-0.054,0.027-0.109,0.055-0.136L529.831,255.627z"/>
	<path fill="#999999" d="M435.537,713.375c-0.569-5.613,0.027-23.024,0.027-23.024s1.653-6.183-7.322-7.863
		c-8.977-1.682-116.233-12.366-143.733-26.957c-4.827-2.576-13.966-2.277-21.343-6.727c-34.577-20.854-86.484-60.991-86.484-60.991
		l-85.914-82.198c0,0-10.658-5.044-14.59-2.82c-3.932,2.251-7.865,10.387-7.865,10.387l52.774,43.527c0,0,3.933-3.363,8.977,0
		c5.044,3.362,53.914,42.686,53.914,42.686s5.044,3.934,4.501,7.295c-0.569,3.363,3.933,7.865,3.933,7.865
		s77.29,52.773,100.423,64.001c23.133,11.229,67.474,37.615,69.724,37.615c2.252,0,12.367,5.613,21.887,4.501
		c9.546-1.111,43.229,0.136,43.229,0.136S436.105,718.989,435.537,713.375z"/>
	<path fill="#999999" d="M453.192,723.491c0,0,68.285,1.11,76.149,0c7.865-1.112,8.027-6.185,8.027-6.185
		s-1.844-23.023-2.982-29.208c-1.111-6.183-9.546-4.501-9.546-4.501s-75.229,0-78.05,0s-5.044,8.977-5.044,8.977
		s-1.112,18.522,0,23.595C442.859,721.24,453.192,723.491,453.192,723.491z"/>
	<path fill="#999999" d="M856.104,584.016c-2.25,3.146-78.618,32.219-89.275,36.721c-10.658,4.502-96.572,34.252-117.346,40.436
		c-20.773,6.183-103.325,19.092-107.801,19.661c-4.475,0.569-4.312,10.115-4.312,10.115s2.089,18.521,3.2,24.706
		c1.111,6.184,11.797,3.361,13.479,3.933c1.683,0.569,53.913-5.045,71.866-11.797c17.979-6.727,85.914-25.275,103.867-32.57
		c17.979-7.296,66.822-25.274,81.981-32.001c15.159-6.726,92.641-39.866,97.143-44.367c4.502-4.502-2.251-8.813-2.251-8.813
		s-11.797-12.529-15.16-17.03c-3.362-4.502-12.908,0-12.908,0S858.355,580.87,856.104,584.016z"/>
	<path fill="#999999" d="M796.604,661.713c-4.502,1.682-61.207,20.909-62.89,21.695c-1.682,0.787-8.435,3.011-6.726,10.875
		c1.682,7.864,12.908,8.977,11.228,5.613c-1.682-3.362-2.251-7.864-2.251-7.864l27.526-11.229l2.251,7.865l4.501,1.111l6.727-3.362
		l-2.82-7.865l13.479-5.612l8.978,22.454l6.726-2.82l5.045,17.979l-5.614,4.502c0,0,5.614,7.295-5.612,12.909
		c-11.229,5.613-55.025,25.275-55.025,25.275l0.569,2.82l-34.252,12.365l-3.362-3.933c0,0-10.658,5.614-15.16,5.614
		s-11.228-3.363-11.228-3.363s-6.727,1.682-7.296,0c-0.568-1.682-5.45-19.661-5.45-19.661l4.882-2.251l-4.882-20.828l4.312-3.146
		l-1.682-9.141l25.274-5.612l1.112,6.726l10.115-3.363l-3.363-5.749l6.185-4.365l2.819,7.863c0,0,3.934,1.41,3.363-3.498
		c-0.57-4.907,0-11.66-10.658-8.299c-10.658,3.363-35.608,11.229-37.452,11.797c-1.844,0.57-10.277,5.939-8.597,12.529
		c1.682,6.563,7.295,17.248,2.82,27.906c-4.502,10.658-5.044,13.479-14.591,15.159c-9.546,1.682-9.546,1.682-9.546,1.682
		l-0.569,7.295l-106.118,6.185l-1.682-6.727l-27.635,0.569c0,0-10.55,0-27.96-7.864c-17.411-7.865-46.049-25.275-46.049-25.275
		l-17.98-4.502c0,0-10.114,2.82-3.933,6.727c6.184,3.933,10.116,2.251,10.116,2.251l53.561,28.067l32.219,12.367h23.701
		l194.854-11.228c0,0,5.045,1.11,20.772-7.865c15.729-8.978,64.003-35.933,64.003-35.933s12.365-11.798,12.365-17.98
		s0-19.092,0-19.092s-10.656-21.886-10.656-23.594C805.012,666.215,801.079,660.031,796.604,661.713z"/>
	<path fill="#999999" d="M495.064,762.244l64.002-3.932l1.681-7.297L627,747.085l4.285,8.435
		c8.786-1.682,17.058-11.174,17.058-11.174s-3.932-17.465-7.295-24.598c-3.362-7.132-24.706,0-24.706,0s-21.343,3.77-29.207,4.258
		c-7.865,0.488-93.778,5.668-95.46,6.809c-1.682,1.139,0.569,3.932,0.569,3.932l66.822-3.932c0,0,0,7.863,0,11.797
		c0,3.932-69.778,0-69.778,0s-12.746,3.932-13.019,10.656C475.998,759.993,495.064,762.244,495.064,762.244z"/>
	<path fill="#999999" d="M925.747,620.898c0,0-3.362-7.105-5.613-11.229s-9.329,0-9.329,0l-7.512,3.362
		c0,0-18.902,9.329-26.686,14.075c-1.817,1.111-3.038,1.979-3.256,2.387c-1.111,2.251,5.993-1.112,5.993-1.112l22.835-10.848
		c0,0,6.727,11.228,8.299,13.479c1.547,2.251-2.686,7.105-2.686,7.105l-36.312,41.547l-32.57,14.237l-17.221-39.297
		c0,0,16.76-7.701,24.353-10.631c3.852-1.49-0.025-2.468-0.025-2.468s-23.595,9.356-30.319,12.719
		c-6.727,3.363,2.604,13.479,2.604,13.479s7.864,25.816,8.598,31.812c0.759,5.993-1.492,20.204-1.492,20.204l48.3-27.688
		c0,0,48.3-55.784,52.042-61.02C929.489,625.753,925.747,620.898,925.747,620.898z"/>
	<path fill="#999999" d="M459.999,291.587c-0.949,2.604-1.491,5.37-1.573,8.163c-0.081,3.119,0.461,6.427,2.495,8.814
		c1.438,1.681,3.472,2.712,5.532,3.444c4.882,1.682,10.441,1.708,15.078-0.569c4.609-2.305,8.082-7.105,8.137-12.258
		c0.054-5.994-4.068-11.065-6.265-16.651c-3.636-9.275-1.438-20.529,5.396-27.771c2.576-2.712,5.723-4.909,7.756-8.027
		c0.679-1.03,1.222-2.359,0.679-3.471c-0.731-1.519-2.848-1.6-4.528-1.438c-6.617,0.624-13.234,1.248-19.852,1.872
		c-3.418,0.325-12.827-0.434-12.015,5.424c0.298,2.143,1.816,3.851,3.064,5.614c5.099,7.132,6.346,17.031,2.631,24.95
		c-1.521,3.227-3.771,6.075-5.397,9.275C460.73,289.771,460.352,290.666,459.999,291.587z"/>
	<path fill="#999999" d="M265.363,628.519c0.379,2.604,6.265,4.23,8.895,4.909c-0.027-9.872,0.027-29.615,0-49.087
		c-3.959-0.081-39.458-0.705-45.344,0c-6.237,0.76-9.736,10.496-9.736,10.496s37.696,28.204,38.943,28.963
		c1.248,0.76,2.739,1.004,2.739,1.004v-32.19l4.502,0.76C265.363,593.317,264.875,625.021,265.363,628.519z"/>
	<path fill="#999999" d="M443.185,656.1c3.743-4.123,5.234-9.355,9.736-13.1c1.491-1.111,3.362-1.491,4.854-2.63
		c1.11-0.38,1.871-0.76,2.981-1.112c2.251-0.759,4.502-1.111,6.861-1.383l-176.547,0.136v3.498c0,0,32.679,6.727,46.917,9.356
		c3.361,0.38,6.726,1.11,10.114,1.11c1.491,0,2.983-0.759,3.742-2.25c0.38-0.38,0-0.76,0.38-1.111
		c0.381-0.38,1.112-0.761,1.491-0.761c3.743,0.381,7.485,0.761,11.607,1.112c11.986,1.871,23.188,3.824,35.2,5.993
		c10.278,1.845,31.188,4.122,30.836,4.746C435.836,659.625,440.256,659.271,443.185,656.1z"/>
	<path fill="#999999" d="M673.455,456.202l2.982,4.095l15.514-19.063l37.886-59.744l-37.425-23.458l-3.607,5.125l-4.583-1.953
		l-28.366,45.289l28.827,17.655l-2.712,4.771c0.461,0.136,1.085,0.325,1.79,0.678c0.436,0.219,1.329,0.651,2.225,1.466
		c0.679,0.597,1.601,2.224,2.033,3.362c0.3,0.759,0.354,1.682-0.026,2.686c-0.379,1.029-1.111,2.169-1.302,2.439
		C681.781,445.544,677.876,449.856,673.455,456.202z"/>
	<path fill="#999999" d="M81.928,473.775l5.044-5.425l10.658-11.606c0,0,8.787-8.977,10.305-12.176c1.518-3.2-3.553-0.57-3.932,0
		c-0.38,0.568-8.977,8.243-8.977,8.243l-14.4,14.591c0,0-3.363,4.122-3.363,6.373S81.928,473.775,81.928,473.775z"/>
	<path fill="#999999" d="M98.66,487.254c2.495,4.23,60.639,58.145,60.639,58.145l10.224-0.487c0.407,0.081,2.115,0.353,3.146,1.354
		c0.244-0.271-0.271,0.325,0,0L111.542,488.8l35.987-38.211l69.154-48.544c-7.512,3.688-37.587,16.109-44.909,18.333
		c-8.245,2.495-16.977,7.241-21.723,10.74c-4.746,3.498-21.452,15.729-21.452,15.729s-20.285,21.208-20.367,21.724
		c-0.081,0.516-7.078,7.621-7.078,7.621S96.166,482.996,98.66,487.254z"/>
	<polygon fill="#999999" points="790.231,444.894 746.786,390.302 729.81,381.488 691.924,441.232 	"/>
	<path fill="#999999" d="M803.873,493.247v16.813h5.694v51.311H676.411v1.898c0,0,0.516,0,1.492,0.026c0,0,0,19.037,0.731,19.281
		c0.759,0.244,18.225-6.237,22.454-8.488c4.231-2.251,2.983-4.989,2.983-4.989v-5.425c7.051,0.109,14.97,0.19,23.24,0.299
		l0.462,0.325l17.979,1.329l1.003,9.492l6.238,16.461c0,0,2.956-0.977,3.959-1.519c1.004-0.542,3.878-0.3,4.421,1.085
		c0.515,1.327,1.383,3.932,1.383,4.936c0,1.003-5.479,3.498-5.479,3.498s0,3.499,0,4.502c0,1.004-100.314,33.194-100.314,33.194
		h-35.554l0.026,4.609l-9.653-0.107l0.136-4.204h-2.197v2.143l-10.657,0.027l-0.189-2.196l-7.539,0.354
		c0,0-1.247,17.355-17.98,17.844c-15.538,0.462-18.575-15.864-18.929-18.196h-10.521c0.38,7.052,0.731,13.749,1.111,20.801
		c0,1.111,0.76,2.251,1.111,3.362c0.38,0.38,1.112,0.76,1.491,1.111c0.76,0.38,1.112,0.76,1.872,0.76c1.491,0,2.63,0.76,4.122,0.38
		c13.856-2.631,26.577-4.854,40.435-7.863c1.871-0.381,6.048-1.005,7.621-3.554c0-5.804,0-11.038,0-11.038h7.973
		c0,0,0.137,6.429,0.056,10.034c0.379,1.871,2.685,2.686,4.936,2.307c1.491-0.381,2.983-1.112,4.502-1.492
		c49.791-12.719,96.22-26.577,142.62-46.428c0.76-0.381,1.112,0,1.871-0.381c1.492-0.76,2.982-1.491,4.502-2.631
		c1.492-1.491,1.492-3.361,0.76-5.233c-1.871-5.613-4.122-10.495-6.373-16.108c-1.111-1.871-1.871-3.742-3.362-5.614
		c-0.76-1.11-2.25-1.11-3.362-1.491c-1.871-0.759-3.742-1.11-5.613-0.759c-0.026-0.244,0-0.354,0.055-0.406
		c0.136-1.79-1.086-3.852-0.055-5.587c5.233,0,10.849,0.38,14.971,3.742c2.981,8.244,5.992,16.108,9.734,23.946
		c0.76,1.491,1.871,2.982,2.983,4.122c7.484-3.363,16.841-4.854,23.214-10.116c0-1.871-1.871-2.63-2.982-4.122
		c-4.122-6.373-11.606-7.864-17.979-10.495c0-2.981,0-5.612,0-8.597c12.719-1.871,23.945,7.865,31.079,17.601
		c1.49,0,2.63-0.38,3.741-0.76c12.366-5.232,24.326-10.115,36.692-15.349c3.362-1.492,6.727-2.983,9.735-5.234
		c2.252-1.871,4.502-2.631,6.374-4.502c1.49-1.871,2.793-3.119,4.122-5.234c5.098-8.243-5.912-14.753-13.1-13.856
		c-6.373-0.38-16.923-0.271-16.923-0.271l-9.41-12.203c0,0-0.107-22.861-1.004-31.702l-21.831-28.665v27.174h-5.722V493.247z"/>
	<path fill="#999999" d="M523.919,640.75h-7.431v-3.229h-40.95c5.262,0.299,10.495,1.845,13.343,6.591
		c3.96,6.59,9.384,11.96,13.967,18.089c1.41,1.6,2.983,3.254,7.105,2.495c5.722,0,11.443,0.73,17.166,0
		c7.35-0.923,9.059-2.902,9.004-10.034l-0.136-17.167h-12.041v3.255H523.919z"/>
	<polygon fill="#999999" points="529.913,255.41 500.949,333.433 519.011,340.511 517.302,351.738 526.414,351.738 526.414,360.877 
		537.614,363.156 558.442,307.561 688.778,363.156 700.006,347.236 672.669,331.887 677.957,319.032 539.893,266.394 
		542.876,258.936 	"/>
	<path fill="#999999" d="M285.838,385.421l15.973,11.986l5.614,12.231l36.122-17.763l-5.856-14.265l12.801-5.939l-11.743-34.441
		c0,0-18.225,6.237-18.468,5.478c-0.244-0.759-8.489-17.709-8.489-17.709l-23.458,7.973l-36.747,41.14c0,0,0.136-0.108,0,0
		c5.017,4.204,20.611,19.906,24.326,23.458L285.838,385.421z"/>
	<g>
		<path fill="#999999" d="M536.395,248.034c-0.623-4.366-8.516-6.156-13.099-6.373c-9.167-0.407-16.055,5.153-21.452,9.492
			c-6.508,5.234-8.649,9.709-9.41,11.499c-0.271,0.678-1.246,3.037-1.708,5.966c-1.653,10.929,6.13,15.784,7.729,28.205
			c0.461,3.552,1.573,12.095-3.498,18.604c-5.315,6.834-14.347,7.512-19.229,7.864c-3.553,0.271-19.742,1.464-25.817-8.244
			c-5.642-8.977,0.353-22.563,1.628-25.465c3.037-6.888,6.942-10.115,7.729-18.333c0.218-2.305,0.488-5.614-1.003-9.356
			c-3.038-7.566-10.767-10.359-12.096-10.848c-11.363-4.095-21.831,3.363-22.834,4.122c0,0-3.363,1.872-0.76,7.485
			c2.631,5.613,16.108,35.553,16.108,35.553l-12.366,6.373l8.243,17.98l-31.811,15.349l3.986,25.954c0,0,0.055,0,0,0l0,0
			c0,0,7.646,3.063,7.892,2.82c0.271-0.841-0.353-8.136-1.058-14.21l0,0l14.942-2.143l6.266-20.746l43.472-0.271l3.688-0.108
			c0,0,0,0.054,0,0.163h8.569l10.414,4.095c0,0,28.855-77.724,28.964-78.022c0.162-0.407,2.251-0.353,4.395-2.007
			C536.448,251.749,536.665,249.77,536.395,248.034z"/>
	</g>
	<ellipse fill="#999999" cx="468.677" cy="659.76" rx="11.797" ry="5.885"/>
	<path fill="#999999" d="M844.633,535.174c0,0,17.98,0.244,17.98,0S837.42,501.98,837.42,501.98l-2.008,22.211
		C836.877,525.194,844.633,535.174,844.633,535.174z"/>
	<path fill="#999999" d="M291.1,573.873h-16.814v57.629H291.1C290.937,616.993,290.937,593.209,291.1,573.873z"/>
	<path fill="#999999" d="M422.98,282.096c-0.76-1.491-10.495-26.197-10.495-26.197s-87.216,41.167-90.227,45.669l6.727,15.35
		c0,0,4.122,2.983,3.361,0c-0.759-2.983-2.251-16.109,3.363-19.472c5.613-3.363,8.978-7.865,15.729-6.726
		c6.726,1.112,16.841,8.597,18.332,10.848s7.104-1.491,7.104-1.491s-1.871-14.238,0-15.729c1.871-1.491,5.614-6.726,10.495-8.244
		c4.854-1.492,11.607-3.363,15.729-2.251c4.122,1.112,12.366,11.228,12.366,11.228S423.713,283.614,422.98,282.096z"/>
	<path fill="#999999" d="M607.989,292.347l4.772-8c0,0,4.122,3.363,8.244,4.502c4.122,1.112,12.719,4.122,19.092-1.763
		c6.373-5.885-1.111-7.566-1.111-7.566s-30.347-14.238-39.702-18.36c-8.462-3.715-44.367-13.234-51.256-15.051l-8.137,20.285
		L607.989,292.347z"/>
</g>
<g id="rooms">
	<rect x="516.488" y="637.521" fill="#D1D3D3" stroke="#FFFFFF" stroke-miterlimit="10" width="7.431" height="3.229"/>
	<rect x="459.294" y="438.33" fill="#D1D3D3" stroke="#FFFFFF" stroke-miterlimit="10" width="16.978" height="58.66"/>
	<rect x="459.294" y="549.899" fill="#D1D3D3" stroke="#FFFFFF" stroke-miterlimit="10" width="16.978" height="52.965"/>
	<path fill="#D1D3D3" stroke="#FFFFFF" stroke-miterlimit="10" d="M439.062,447.28l-3.118-27.933
		c-4.015,0.353-10.632,0.976-16.326,1.654c0.812,5.56,3.146,23.459,3.77,28.178L439.062,447.28z"/>
	<path id="r157" fill="#D1D3D3" stroke="#FFFFFF" stroke-miterlimit="10" d="M368.146,465.775l13.396-3.58
		c-1.492-4.177-8.543-24.108-11.064-31.16c-4.827,1.79-9.628,4.041-12.503,6.292l4.802,14.454
		C365.162,457.911,367.332,463.579,368.146,465.775z"/>
	<path fill="#D1D3D3" stroke="#FFFFFF" stroke-miterlimit="10" d="M386.506,426.507c1.708,7.35,6.184,28.149,7.132,32.462
		l13.695-2.875l0.19-4.99l-5.643-27.553C397.218,424.31,391.034,425.503,386.506,426.507z"/>
	<path fill="#D1D3D3" stroke="#FFFFFF" stroke-miterlimit="10" d="M381.543,462.195l12.095-3.228
		c-0.868-4.041-5.424-25.167-7.132-32.462c-5.234,1.193-11.635,2.982-16.027,4.528C373.027,438.168,380.133,458.182,381.543,462.195
		z"/>
	<path fill="#D1D3D3" stroke="#FFFFFF" stroke-miterlimit="10" d="M407.523,451.076l15.863-1.925
		c-1.166-8.651-3.063-23.458-3.77-28.177c-5.1,0.624-12.122,1.6-17.736,2.522L407.523,451.076z"/>
	<rect x="404.079" y="484.705" fill="#D1D3D3" stroke="#FFFFFF" stroke-miterlimit="10" width="16.244" height="27.607"/>
	<path fill="#D1D3D3" stroke="#FFFFFF" stroke-miterlimit="10" d="M420.323,484.705c-0.136,9.682,0,27.607,0,27.607h15.35
		c-0.107-6.373-0.081-21.479,0-27.607H420.323L420.323,484.705z"/>
	<path fill="#D1D3D3" stroke="#FFFFFF" stroke-miterlimit="10" d="M435.944,419.211l3.118,28.069l12.502-1.438v-18.495l-7.24-8.732
		C444.324,418.615,440.689,418.805,435.944,419.211z"/>
	<polygon fill="#D1D3D3" stroke="#FFFFFF" stroke-miterlimit="10" points="407.306,456.094 404.079,456.744 404.079,484.705 
		435.673,484.705 435.673,470.087 451.564,470.087 451.564,445.843 407.523,451.076 	"/>
	<path id="k104-3" fill="#D1D3D3" stroke="#FFFFFF" stroke-miterlimit="10" d="M311.791,498.102l7.621,9.817
		c0,0,3.797-22.184,4.095-24.407h-5.938l-12.123,10.144l2.604,4.446H311.791L311.791,498.102z"/>
	<path id="k104-2" fill="#D1D3D3" stroke="#FFFFFF" stroke-miterlimit="10" d="M298.476,481.694l6.971,11.96l12.123-10.144
		c-0.978-1.682-3.282-5.75-5.912-10.333C308.89,475.186,301.784,479.66,298.476,481.694z"/>
	<path id="k104-1" fill="#D1D3D3" stroke="#FFFFFF" stroke-miterlimit="10" d="M292.835,472.04l5.641,9.654
		c3.038-1.871,9.927-6.156,13.207-8.517c-2.332-4.066-5.641-9.79-7.239-12.665L292.835,472.04z"/>
	<g id="r184-186">
		<polygon fill="#D1D3D3" stroke="#FFFFFF" stroke-miterlimit="10" points="355.399,483.512 338.803,483.512 338.803,513.207 
			338.803,513.207 338.803,483.512 323.507,483.512 319.412,507.919 323.534,513.207 355.399,513.207 		"/>
		<rect x="355.399" y="483.512" fill="#D1D3D3" stroke="#FFFFFF" stroke-miterlimit="10" width="9.709" height="29.695"/>
	</g>
	<polygon id="r155-1" fill="#D1D3D3" stroke="#FFFFFF" stroke-miterlimit="10" points="325.677,450.697 338.07,474.209 
		345.176,470.955 332.158,447.688 	"/>
	<polygon id="r154-2" fill="#D1D3D3" stroke="#FFFFFF" stroke-miterlimit="10" points="338.07,474.209 325.677,450.697 
		319.276,453.653 331.508,477.165 	"/>
	<polygon id="r155-2" fill="#D1D3D3" stroke="#FFFFFF" stroke-miterlimit="10" points="339.697,444.188 332.158,447.688 
		345.176,470.955 351.549,468.054 	"/>
	<path id="r154-1" fill="#D1D3D3" stroke="#FFFFFF" stroke-miterlimit="10" d="M312.523,456.771l11.661,23.701l7.322-3.309
		c-1.628-3.281-12.23-23.539-12.23-23.539L312.523,456.771z"/>
	<path id="r153" fill="#D1D3D3" stroke="#FFFFFF" stroke-miterlimit="10" d="M317.595,483.512l6.591-3.038l-11.661-23.701
		l-8.108,3.742C305.934,463.227,315.724,480.23,317.595,483.512z"/>
	<path fill="#D1D3D3" stroke="#FFFFFF" stroke-miterlimit="10" d="M365.108,483.512v-6.997c0,0-2.956-7.594-6.266-15.945l-9.14,3.77
		l1.845,3.716l-33.979,15.432h47.54V483.512L365.108,483.512z"/>
	<path id="r156" fill="#D1D3D3" stroke="#FFFFFF" stroke-miterlimit="10" d="M339.697,444.188l10.007,20.178l9.14-3.771
		c-1.221-2.982-6.697-16.001-8.841-21.152L339.697,444.188z"/>
	<path fill="#D1D3D3" stroke="#FFFFFF" stroke-miterlimit="10" d="M404.648,571.866h22.672v-13.967h-7.946v-15.35
		c-1.274,0-4.067,0-5.37,0v20.746h-9.354L404.648,571.866L404.648,571.866z"/>
	<path fill="#D1D3D3" stroke="#FFFFFF" stroke-miterlimit="10" d="M355.526,542.551c-0.021,0-0.055,0-0.072,0
		c-4.231,0-5.75,2.115-5.75,2.115s0,2.253,0,4.702h5.822V542.551z"/>
	<path fill="#D1D3D3" stroke="#FFFFFF" stroke-miterlimit="10" d="M349.704,549.368c0,1.867,0,3.849,0,5.033
		c0.027,2.738,5.262,2.468,5.262,2.468h0.562v-7.501H349.704L349.704,549.368z"/>
	<path id="r147" fill="#D1D3D3" stroke="#FFFFFF" stroke-miterlimit="10" d="M355.526,542.551v14.318h9.663v14.97h6.48v-29.288
		C363.384,542.551,356.733,542.551,355.526,542.551z"/>
	<path id="r146-1" fill="#D1D3D3" stroke="#FFFFFF" stroke-miterlimit="10" d="M379.509,571.866h7.675v-29.315
		c-2.114,0-5.668,0-7.675,0V571.866z"/>
	<path id="r145-1" fill="#D1D3D3" stroke="#FFFFFF" stroke-miterlimit="10" d="M404.648,542.551c-2.551,0-6.834,0-9.356,0v29.315
		h9.356V542.551z"/>
	<path id="r145-2" fill="#D1D3D3" stroke="#FFFFFF" stroke-miterlimit="10" d="M395.265,542.551c-2.224,0-5.938,0-8.107,0v29.315
		h8.107V542.551z"/>
	<path id="r146-2" fill="#D1D3D3" stroke="#FFFFFF" stroke-miterlimit="10" d="M379.509,542.551c-2.196,0-5.804,0-7.811,0v29.315
		h7.811V542.551z"/>
	<path id="r177" fill="#D1D3D3" stroke="#FFFFFF" stroke-miterlimit="10" d="M532.516,485.003h-8.081v27.201h8.081
		c-0.054-0.517,0-1.654,0-4.395c0-2.631,0-6.129,0-9.601C532.516,492.597,532.516,486.982,532.516,485.003z"/>
	<path id="r162-2a" fill="#D1D3D3" stroke="#FFFFFF" stroke-miterlimit="10" d="M538.428,440.419
		c0.624-2.359,2.414-9.085,3.905-14.455c-1.898-0.38-5.261-1.03-7.159-1.354l-3.553,14.454L538.428,440.419z"/>
	<path fill="#D1D3D3" stroke="#FFFFFF" stroke-miterlimit="10" d="M569.643,462.738l4.908-12.692l4.558-12.719
		c-3.2-1.871-8.082-3.824-12.883-5.396l-10.575,23.864L569.643,462.738z"/>
	<path id="r162-2b" fill="#D1D3D3" stroke="#FFFFFF" stroke-miterlimit="10" d="M549.846,427.537
		c-2.007-0.435-5.506-1.193-7.539-1.602c-1.192,4.366-2.686,9.953-3.904,14.455l6.129,1.247L549.846,427.537z"/>
	<path id="r163" fill="#D1D3D3" stroke="#FFFFFF" stroke-miterlimit="10" d="M566.226,431.931
		c-4.556-1.438-11.092-3.173-16.354-4.394l-5.288,14.102l15.893,3.282L566.226,431.931z"/>
	
		<rect id="r180-1" x="484.759" y="470.792" fill="#D1D3D3" stroke="#FFFFFF" stroke-miterlimit="10" width="16.732" height="41.438"/>
	<path id="r162-1" fill="#D1D3D3" stroke="#FFFFFF" stroke-miterlimit="10" d="M513.695,430.954l3.605,5.207l14.292,2.874
		l3.554-14.454c-6.13-1.112-13.642-2.278-19.119-3.064C515.458,424.093,514.319,428.079,513.695,430.954z"/>
	<g id="r174-2-175">
		<rect x="551.581" y="485.003" fill="#D1D3D3" stroke="#FFFFFF" stroke-miterlimit="10" width="5.152" height="27.201"/>
		<path id="r174-1" fill="#D1D3D3" stroke="#FFFFFF" stroke-miterlimit="10" d="M563.595,485.003h-6.86v27.201h6.916
			C563.677,506.78,563.649,494.251,563.595,485.003z"/>
	</g>
	<g id="r175-176">
		<path fill="#D1D3D3" stroke="#FFFFFF" stroke-miterlimit="10" d="M540.408,512.204v-27.201h-7.894c0,8-0.025,26.496,0,27.146
			L540.408,512.204z"/>
		<rect x="540.408" y="485.003" fill="#D1D3D3" stroke="#FFFFFF" stroke-miterlimit="10" width="5.912" height="27.201"/>
	</g>
	<rect x="546.32" y="485.003" fill="#D1D3D3" stroke="#FFFFFF" stroke-miterlimit="10" width="5.261" height="27.201"/>
	<path id="r166" fill="#D1D3D3" stroke="#FFFFFF" stroke-miterlimit="10" d="M584.612,469.653l11.743,6.292
		c2.114-4.61,8.841-18.713,12.312-25.899c-3.579-1.6-8.515-3.823-11.771-5.288L584.612,469.653z"/>
	<polygon fill="#D1D3D3" stroke="#FFFFFF" stroke-miterlimit="10" points="575.988,465.043 570.836,484.569 612.6,484.678 	"/>
	<path id="r171" fill="#D1D3D3" stroke="#FFFFFF" stroke-miterlimit="10" d="M596.681,512.204H612.6
		c0.137-5.804,0.137-19.526,0-27.526h-15.919V512.204L596.681,512.204z"/>
	<path id="r173" fill="#D1D3D3" stroke="#FFFFFF" stroke-miterlimit="10" d="M570.836,484.569v27.635h9.274
		c-0.026-6.861,0-23.812,0-27.526L570.836,484.569z"/>
	<rect id="r172-2" x="580.11" y="484.678" fill="#D1D3D3" stroke="#FFFFFF" stroke-miterlimit="10" width="8.082" height="27.526"/>
	
		<rect id="r172-1" x="588.192" y="484.678" fill="#D1D3D3" stroke="#FFFFFF" stroke-miterlimit="10" width="8.487" height="27.526"/>
	<path fill="#D1D3D3" stroke="#FFFFFF" stroke-miterlimit="10" d="M629.875,484.678h-8.949c0,3.797,0.026,20.692,0,27.526h8.949
		V484.678z"/>
	<path id="r170-2" fill="#D1D3D3" stroke="#FFFFFF" stroke-miterlimit="10" d="M620.926,484.678H612.6
		c0.056,3.797,0.163,20.61,0,27.526h8.326C620.979,505.396,620.952,488.393,620.926,484.678z"/>
	<path id="r165" fill="#D1D3D3" stroke="#FFFFFF" stroke-miterlimit="10" d="M575.988,465.043l8.624,4.61l12.284-24.896
		c-4.312-1.926-8.568-3.851-10.521-4.719L575.988,465.043z"/>
	<path id="r167" fill="#D1D3D3" stroke="#FFFFFF" stroke-miterlimit="10" d="M608.667,450.046
		c-2.007,4.204-5.315,11.038-8.244,17.356l13.533,7.458c2.142-4.122,7.132-12.691,10.143-17.846
		C620.355,455.334,613.604,452.27,608.667,450.046z"/>
	<path id="r168" fill="#D1D3D3" stroke="#FFFFFF" stroke-miterlimit="10" d="M596.355,475.973l16.243,8.705h33.791
		c0.027-3.2,0.055-6.645,0.055-6.645s-10.901-15.756-22.4-20.99c-0.353-0.163,0.38,0.163,0,0c-2.657,4.61-7.078,11.96-10.143,17.845
		l0,0l-13.532-7.458C599.312,469.844,597.358,473.775,596.355,475.973z"/>
	<path id="r169-2" fill="#D1D3D3" stroke="#FFFFFF" stroke-miterlimit="10" d="M646.391,497.722h-16.516v14.482h7.105
		c0,0,9.734-5.479,9.49-11.472C646.444,499.919,646.418,498.888,646.391,497.722z"/>
	<path id="r169-1" fill="#D1D3D3" stroke="#FFFFFF" stroke-miterlimit="10" d="M629.875,484.678v13.071h16.516
		c-0.026-4.963,0-9.546,0.027-13.071H629.875z"/>
	<polygon fill="#D1D3D3" stroke="#FFFFFF" stroke-miterlimit="10" points="565.357,580.599 591.311,580.599 591.311,570.429 
		516.488,570.429 516.488,583.365 565.357,584.585 	"/>
	<rect id="r136" x="563.649" y="542.551" fill="#D1D3D3" stroke="#FFFFFF" stroke-miterlimit="10" width="9.166" height="27.878"/>
	<path id="r137-2" fill="#D1D3D3" stroke="#FFFFFF" stroke-miterlimit="10" d="M548.625,570.429h8.19
		c0.081-9.734,0.081-23.402,0-27.878h-8.19V570.429z"/>
	<polygon fill="#D1D3D3" stroke="#FFFFFF" stroke-miterlimit="10" points="516.488,542.551 516.488,570.429 532.462,570.429 
		532.462,557.873 521.939,557.873 521.939,542.551 	"/>
	<rect id="r139" x="521.939" y="542.551" fill="#D1D3D3" stroke="#FFFFFF" stroke-miterlimit="10" width="10.521" height="15.322"/>
	<rect id="r135" x="572.815" y="542.551" fill="#D1D3D3" stroke="#FFFFFF" stroke-miterlimit="10" width="8.026" height="27.878"/>
	<path id="r137-1" fill="#D1D3D3" stroke="#FFFFFF" stroke-miterlimit="10" d="M556.815,570.429h6.807v-27.878h-6.807
		c0.054,1.952,0.025,5.776,0,13.505C556.788,562.104,556.842,568.341,556.815,570.429z"/>
	<path id="r138-2" fill="#D1D3D3" stroke="#FFFFFF" stroke-miterlimit="10" d="M532.462,542.551v27.878h7.892
		c-0.161-17.845-0.054-25.058,0-27.878H532.462z"/>
	<rect x="580.843" y="560.124" fill="#D1D3D3" stroke="#FFFFFF" stroke-miterlimit="10" width="10.495" height="10.305"/>
	<path fill="#D1D3D3" stroke="#FFFFFF" stroke-miterlimit="10" d="M540.354,570.429h8.271v-27.878h-8.271
		C540.3,547.052,540.271,560.829,540.354,570.429z"/>
	<rect id="r134" x="580.843" y="542.551" fill="#D1D3D3" stroke="#FFFFFF" stroke-miterlimit="10" width="10.495" height="17.573"/>
	<rect x="645.848" y="542.551" fill="#D1D3D3" stroke="#FFFFFF" stroke-miterlimit="10" width="20.068" height="27.96"/>
	<rect id="r132-1" x="620.221" y="542.551" fill="#D1D3D3" stroke="#FFFFFF" stroke-miterlimit="10" width="8.705" height="27.96"/>
	<rect id="r132-2" x="611.271" y="542.551" fill="#D1D3D3" stroke="#FFFFFF" stroke-miterlimit="10" width="8.949" height="27.96"/>
	<rect x="637.143" y="542.551" fill="#D1D3D3" stroke="#FFFFFF" stroke-miterlimit="10" width="8.705" height="27.96"/>
	<rect id="r133" x="596.681" y="542.551" fill="#D1D3D3" stroke="#FFFFFF" stroke-miterlimit="10" width="14.591" height="15.322"/>
	<rect x="628.926" y="542.551" fill="#D1D3D3" stroke="#FFFFFF" stroke-miterlimit="10" width="8.244" height="27.96"/>
	<polygon fill="#D1D3D3" stroke="#FFFFFF" stroke-miterlimit="10" points="665.943,570.511 611.271,570.511 611.271,557.873 
		596.681,557.873 596.681,584.016 651.896,584.016 651.896,580.843 665.943,580.843 	"/>
	<g id="r107-108">
		<path fill="#D1D3D3" stroke="#FFFFFF" stroke-miterlimit="10" d="M290.91,418.289c0.813,1.248,1.925,3.063,3.499,5.723
			c1.681,2.849,3.309,5.749,4.066,7.132c2.115-1.003,5.643-2.793,7.946-3.904c-0.731-1.247-4.177-7.81-7.078-13.396L290.91,418.289z
			"/>
		<path fill="#D1D3D3" stroke="#FFFFFF" stroke-miterlimit="10" d="M299.371,413.869c2.956,5.695,6.454,12.394,7.078,13.396
			c0,0,5.804-2.685,8.407-3.904l-7.432-13.695L299.371,413.869z"/>
	</g>
	<polygon id="r110" fill="#D1D3D3" stroke="#FFFFFF" stroke-miterlimit="10" points="314.341,406.248 321.636,420.106 
		328.308,416.906 321.69,402.642 	"/>
	<path id="r111" fill="#D1D3D3" stroke="#FFFFFF" stroke-miterlimit="10" d="M321.69,402.642l6.644,14.265
		c2.495-1.166,6.238-2.875,8.462-3.905c-0.218-0.38-0.569-1.248-1.384-3.146c-0.786-1.871-1.844-4.366-2.901-6.888
		c-0.76-1.79-1.302-3.092-1.952-4.665C328.442,399.279,323.941,401.557,321.69,402.642z"/>
	<path id="r109" fill="#D1D3D3" stroke="#FFFFFF" stroke-miterlimit="10" d="M307.426,409.638l7.432,13.696
		c1.815-0.868,4.988-2.387,6.778-3.255l-7.295-13.858L307.426,409.638z"/>
	<g id="r112-113">
		<path fill="#D1D3D3" stroke="#FFFFFF" stroke-miterlimit="10" d="M337.555,394.831c0.517,1.329,5.587,14.292,5.805,14.861
			c0.136,0.353,7.484-3.444,7.484-3.444l-7.322-14.346C341.867,392.58,339.645,393.882,337.555,394.831z"/>
		<path fill="#D1D3D3" stroke="#FFFFFF" stroke-miterlimit="10" d="M330.559,398.275c2.955,7.051,6.237,14.699,6.237,14.699
			l6.562-3.254c0,0-3.011-7.838-5.805-14.861C335.738,395.645,332.592,397.326,330.559,398.275z"/>
	</g>
	<path id="r105" fill="#D1D3D3" stroke="#FFFFFF" stroke-miterlimit="10" d="M290.801,434.859
		c-1.736-3.256-5.505-10.251-6.916-12.854l-10.007,5.505l7.621,11.824C281.472,439.334,285.919,437.191,290.801,434.859z"/>
	<path id="r106" fill="#D1D3D3" stroke="#FFFFFF" stroke-miterlimit="10" d="M283.858,422.005c1.41,2.63,5.207,9.654,6.916,12.854
		c1.898-0.922,5.397-2.576,7.702-3.688c-2.766-4.963-5.775-10.115-7.565-12.854L283.858,422.005z"/>
	<path id="r101-2" fill="#D1D3D3" stroke="#FFFFFF" stroke-miterlimit="10" d="M179.789,538.123l11.628,11.628
		c3.742-1.271,7.614-3.276,10.591-6.409l-14.217-14.217C184.718,532.528,182.062,535.528,179.789,538.123z"/>
	<path id="r102-3" fill="#D1D3D3" stroke="#FFFFFF" stroke-miterlimit="10" d="M208.9,534.443l-14.59-12.447
		c-2.363,2.553-4.527,4.924-6.519,7.129l14.217,14.217c0.248-0.26,0.501-0.514,0.735-0.79
		C204.859,540.057,206.974,537.209,208.9,534.443z"/>
	<path id="r101-1" fill="#D1D3D3" stroke="#FFFFFF" stroke-miterlimit="10" d="M172.696,546.266
		c2.169,2.008,5.125,5.776,7.593,5.642c2.238-0.129,6.578-0.61,11.128-2.156l-11.628-11.628
		C176.823,541.508,174.493,544.217,172.696,546.266z"/>
	<path id="r102" fill="#D1D3D3" stroke="#FFFFFF" stroke-miterlimit="10" d="M206.46,508.569
		c-3.336,3.933-8.868,9.816-12.177,13.396l14.59,12.447c3.499-5.206,8-15.675,8.244-16.896L206.46,508.569z"/>
	<path id="r103-1" fill="#D1D3D3" stroke="#FFFFFF" stroke-miterlimit="10" d="M217.118,517.546
		c0.949-4.229,4.638-24.651,4.936-25.273c-4.638,4.988-10.794,11.199-15.567,16.324L217.118,517.546z"/>
	<path fill="#D1D3D3" stroke="#FFFFFF" stroke-miterlimit="10" d="M267.939,418.723l5.912,8.787
		c0.787-0.406,25.52-13.641,25.52-13.641c-1.221-2.36-4.149-6.97-4.665-7.974L267.939,418.723z"/>
	<g id="r121-122">
		<path fill="#D1D3D3" stroke="#FFFFFF" stroke-miterlimit="10" d="M563.73,368.335l-19.853-4.122l-6.291,30.184
			c5.125,0.841,13.288,2.278,18.44,3.254L563.73,368.335z"/>
		<path fill="#D1D3D3" stroke="#FFFFFF" stroke-miterlimit="10" d="M524.245,392.39c3.851,0.542,9.302,1.356,13.369,2.007
			l4.801-23.431l-13.343-2.115C527.526,376.146,525.194,387.428,524.245,392.39z"/>
	</g>
	<path fill="#D1D3D3" stroke="#FFFFFF" stroke-miterlimit="10" d="M520.041,391.794c0.896,0.135,3.281,0.461,4.177,0.569
		c1.193-6.292,4.015-19.607,4.691-22.834l0.136-0.705l13.343,2.115l1.464-6.753l-17.465-3.309v-9.167l-8.353,18.713h5.479
		C523.54,370.451,520.746,386.505,520.041,391.794z"/>
	<path fill="#D1D3D3" stroke="#FFFFFF" stroke-miterlimit="10" d="M392.146,367.196c1.844,10.143,4.095,22.401,5.017,27.174
		c3.77-0.787,10.739-2.115,14.591-2.82l-5.018-27.716C404.024,364.458,397.299,366.003,392.146,367.196z"/>
	<path id="r115-1" fill="#D1D3D3" stroke="#FFFFFF" stroke-miterlimit="10" d="M372.484,371.915
		c2.143,9.845,4.908,21.994,6.184,26.631c2.44-0.569,6.454-1.519,9.112-2.115l-5.181-26.957
		C379.671,370.152,375.278,371.237,372.484,371.915z"/>
	<path id="r114-2" fill="#D1D3D3" stroke="#FFFFFF" stroke-miterlimit="10" d="M360.173,380.973l6.97,20.394
		c3.228-0.813,7.159-1.79,11.525-2.847c-1.519-5.479-4.557-19.146-6.184-26.631c-7.35,1.817-13.288,3.39-14.536,4.014
		L360.173,380.973z"/>
	<path fill="#D1D3D3" stroke="#FFFFFF" stroke-miterlimit="10" d="M392.146,367.196c-2.144,0.488-7.27,1.708-9.521,2.251
		l5.18,26.957c2.116-0.461,7.188-1.573,9.385-2.034C396.729,392.2,392.716,370.396,392.146,367.196z"/>
	<path fill="#D1D3D3" stroke="#FFFFFF" stroke-miterlimit="10" d="M406.736,363.833c0.516,4.095,4.394,22.916,5.018,27.716
		c6.454-1.085,16.651-2.522,22.319-3.038c-1.085-8.461-4.258-28.991-5.479-38.103l-15.023,2.034
		c0.487,4.258,1.709,13.044,1.058,14.211C414.167,367.44,408.119,364.159,406.736,363.833z"/>
	<path fill="#D1D3D3" stroke="#FFFFFF" stroke-miterlimit="10" d="M455.009,329.419l-20.258,0.136l-6.184,20.773
		c0.516,3.878,4.229,28.204,5.479,38.048c5.804-0.461,11.634-0.515,15.485,0.054c0,0,5.83-0.759,5.478-8.244
		C454.684,373.353,455.009,329.419,455.009,329.419z"/>
	<path id="r114-1" fill="#D1D3D3" stroke="#FFFFFF" stroke-miterlimit="10" d="M357.976,403.78c0,0,4.366-1.166,9.193-2.414
		l-5.505-16.136l-8.651,5.044L357.976,403.78z"/>
	<path id="r126-2" fill="#D1D3D3" stroke="#FFFFFF" stroke-miterlimit="10" d="M647.068,435.781c1.979,1.166,5.18,3.146,7.104,4.339
		c2.007-3.553,6.237-11.037,8.38-14.808l-7.729-4.609C652.031,426.1,648.642,432.283,647.068,435.781z"/>
	<path id="r127-2" fill="#D1D3D3" stroke="#FFFFFF" stroke-miterlimit="10" d="M678.093,434.615l-7.159-4.285
		c-2.277,3.255-7.431,10.225-10.251,14.13c2.034,1.438,5.071,3.796,6.753,5.18C669.279,446.954,673.104,441.585,678.093,434.615z"/>
	<polygon fill="#D1D3D3" stroke="#FFFFFF" stroke-miterlimit="10" points="621.81,389.768 623.089,387.478 614.904,382.6 
		607.556,400.553 614.471,403.645 621.387,389.57 	"/>
	<path id="r124" fill="#D1D3D3" stroke="#FFFFFF" stroke-miterlimit="10" d="M623.066,401.9l-8.405,16.742
		c0-0.027,2.847,1.329,7.322,3.58l8.081-16.163l0.317,0.169l0.031-0.061L623.066,401.9z"/>
	<path fill="#D1D3D3" stroke="#FFFFFF" stroke-miterlimit="10" d="M636.006,395.177l-5.592,10.99l0.246,0.143l-0.246-0.143
		l-0.031,0.061l1.011,0.536c-0.107-0.082,43.256,25.79,46.699,27.852l6.563-10.441L636.006,395.177z"/>
	<path id="r125-1" fill="#D1D3D3" stroke="#FFFFFF" stroke-miterlimit="10" d="M630.064,406.059l-8.081,16.163
		c2.088,1.059,7.132,3.661,9.682,4.99c2.088-4.583,5.83-12.042,7.62-15.757C639.312,411.455,630.119,406.085,630.064,406.059z"/>
	<path id="r126-1" fill="#D1D3D3" stroke="#FFFFFF" stroke-miterlimit="10" d="M639.014,431.198c2.225,1.247,5.776,3.28,8.056,4.583
		c1.926-4.339,5.856-11.417,7.729-15.078l-8.326-4.963C644.736,419.456,641.048,426.859,639.014,431.198z"/>
	<path id="r125-2" fill="#D1D3D3" stroke="#FFFFFF" stroke-miterlimit="10" d="M631.691,427.212c1.926,1.03,5.262,2.848,7.35,3.959
		c2.034-4.394,5.749-11.797,7.458-15.458l-7.159-4.258C636.898,416.418,633.509,423.225,631.691,427.212z"/>
	<path id="r128" fill="#D1D3D3" stroke="#FFFFFF" stroke-miterlimit="10" d="M685.171,430.466c-0.949-0.325-2.276-1.192-3.254-1.519
		c-5.262,7.321-11.417,16.244-14.509,20.691c2.739,2.332,4.854,4.583,6.021,6.562l0,0c5.044-6.481,11.986-15.27,13.234-16.651
		C686.663,438.846,690.703,435.021,685.171,430.466z"/>
	<path id="r127-1" fill="#D1D3D3" stroke="#FFFFFF" stroke-miterlimit="10" d="M670.934,430.33l-8.38-5.018
		c-2.468,4.34-6.48,11.444-8.38,14.808c1.816,1.166,4.827,3.173,6.509,4.34C663.123,441.069,667.787,434.832,670.934,430.33z"/>
	<path id="r187" fill="#D1D3D3" stroke="#FFFFFF" stroke-miterlimit="10" d="M295.33,548.544l-4.746-5.885c0,0-2.034,0-4.258-0.027
		c-0.081,5.018-0.163,14.78,0,21.126h8.977v-15.214H295.33z"/>
	<path fill="#D1D3D3" stroke="#FFFFFF" stroke-miterlimit="10" d="M291.1,610.403c2.251-0.056,8.434-0.027,12.719,0l-0.027-6.563
		h-12.719C291.1,604.952,291.1,609.346,291.1,610.403z"/>
	<path fill="#D1D3D3" stroke="#FFFFFF" stroke-miterlimit="10" d="M268.102,542.577v17.979h-9.329v12.068h15.512
		c0-13.018-0.081-24.543,0-30.021C272.767,542.577,269.702,542.577,268.102,542.577z"/>
	<path id="r149" fill="#D1D3D3" stroke="#FFFFFF" stroke-miterlimit="10" d="M291.1,571.297c0.027-3.525,0-6.156,0-7.512h-4.773l0,0
		c-0.108-4.041-0.108-14.997,0-21.153c-2.739,0-7.864-0.026-12.041-0.026V573.9H291.1C291.1,573.195,291.1,571.975,291.1,571.297z"
		/>
	<path id="r152-2" fill="#D1D3D3" stroke="#FFFFFF" stroke-miterlimit="10" d="M226.447,573.548v-30.021
		c-8.136,4.528-18.468,22.347-18.468,22.347l-5.234,4.746l8.244,12.719C210.962,583.338,221.81,576.07,226.447,573.548z"/>
	<path id="r152-1" fill="#D1D3D3" stroke="#FFFFFF" stroke-miterlimit="10" d="M226.447,543.526v30.021
		c0.624-0.325,14.509-0.949,14.509-0.949V542.55c-4.746,0.026-9.302,0.055-11.254,0.108
		C228.86,542.686,227.26,543.201,226.447,543.526z"/>
	<path id="r151" fill="#D1D3D3" stroke="#FFFFFF" stroke-miterlimit="10" d="M258.773,560.558h-4.393l0,0c0,0,0-11.904,0-18.007
		c-4.285,0-9.763,0-13.424,0v30.048h17.817V560.558z"/>
	<path id="r150" fill="#D1D3D3" stroke="#FFFFFF" stroke-miterlimit="10" d="M254.38,560.558h13.722v-17.979
		c-3.932,0-9.708-0.026-13.722-0.026C254.38,547.73,254.38,557.873,254.38,560.558z"/>
	<rect x="317.188" y="628.004" fill="#D1D3D3" stroke="#FFFFFF" stroke-miterlimit="10" width="135.842" height="8.488"/>
	<path fill="#D1D3D3" stroke="#FFFFFF" stroke-miterlimit="10" d="M291.1,603.84h12.719v-6.888c-0.813,0-1.79,0-2.82,0
		c-3.661,0-8.38,0.026-9.872,0C291.072,599.556,291.1,601.453,291.1,603.84z"/>
	<path fill="#D1D3D3" stroke="#FFFFFF" stroke-miterlimit="10" d="M291.1,584.341h12.719v-4.989l-3.716-2.982H291.1
		C291.072,578.564,291.1,582.226,291.1,584.341z"/>
	<path fill="#D1D3D3" stroke="#FFFFFF" stroke-miterlimit="10" d="M291.1,591.202h12.719v-6.861H291.1
		C291.072,586.158,291.1,589.439,291.1,591.202z"/>
	<path fill="#D1D3D3" stroke="#FFFFFF" stroke-miterlimit="10" d="M291.1,571.297c0,1.274,0,3.852,0,5.071h8.977v-5.071H291.1
		C291.1,571.324,291.1,571.27,291.1,571.297z"/>
	<path fill="#D1D3D3" stroke="#FFFFFF" stroke-miterlimit="10" d="M291.1,571.297h10.604l2.115-2.439v-6.727l-8.488-11.391v13.045
		h-4.23C291.072,564.924,291.126,568.558,291.1,571.297z"/>
	<path fill="#D1D3D3" stroke="#FFFFFF" stroke-miterlimit="10" d="M291.1,596.952c1.898,0.026,9.112,0.054,12.719,0v-5.75H291.1
		C291.1,592.586,291.1,595.623,291.1,596.952z"/>
	<path fill="#D1D3D3" stroke="#FFFFFF" stroke-miterlimit="10" d="M298.15,636.492V622.01h5.668v-11.634
		c-2.93,0-9.33-0.108-12.719,0c-0.027,12.122-0.109,21.614,0,26.089h7.051V636.492z"/>
	<polygon fill="#D1D3D3" stroke="#FFFFFF" stroke-miterlimit="10" points="298.15,636.492 317.188,636.492 317.188,627 
		307.561,615.771 303.818,615.771 303.818,622.01 298.15,622.01 	"/>
	<path fill="#D1D3D3" stroke="#FFFFFF" stroke-miterlimit="10" d="M665.943,477.274c0-0.814-0.679-1.492-1.491-1.492h-9.736
		c-0.812,0-1.491,0.678-1.491,1.492v29.45c0,0.813,0.679,1.491,1.491,1.491h9.736c0.812,0,1.491-0.678,1.491-1.491V477.274z"/>
	<path fill="#D1D3D3" stroke="#FFFFFF" stroke-miterlimit="10" d="M344.932,414.059L310.3,429.978l-2.061,2.441l1.871,16.271
		c0,0,0.948,2.061,2.819,1.302c0.705-0.271,32.761-14.238,32.761-14.238l2.44-3.362v-13.776c0,0,0-3.715-0.949-4.556
		C346.233,413.218,344.932,414.059,344.932,414.059z"/>
	<g id="k107-1-k107-2">
		<path fill="#D1D3D3" stroke="#FFFFFF" stroke-miterlimit="10" d="M415.116,406.764c0,0,8.787-1.302,8.435-2.251
			c-0.38-0.949-2.251-7.865-2.251-7.865l-8.055,2.061L415.116,406.764z"/>
		<path fill="#D1D3D3" stroke="#FFFFFF" stroke-miterlimit="10" d="M415.307,408.445c0,0,0.949,6.183,1.111,6.373
			c0.163,0.19,8.597-1.248,8.597-1.248l-1.49-7.539L415.307,408.445z"/>
	</g>
	<polygon fill="#D1D3D3" stroke="#FFFFFF" stroke-miterlimit="10" points="246.081,479.39 250.014,484.623 255.817,479.39 
		250.963,475.077 	"/>
	<polygon fill="#D1D3D3" stroke="#FFFFFF" stroke-miterlimit="10" points="255.817,471.524 259.207,476.135 264.821,471.524 
		260.319,466.291 	"/>
	<path fill="#D1D3D3" stroke="#FFFFFF" stroke-miterlimit="10" d="M266.882,484.623c0,0,6.563-4.854,6.183-4.772
		c-0.379,0.081-4.963-4.772-4.963-4.772l-4.963,4.772L266.882,484.623z"/>
	<polygon fill="#D1D3D3" stroke="#FFFFFF" stroke-miterlimit="10" points="258.827,492.488 263.139,488.176 260.319,483.512 
		254.516,488.014 	"/>
	<polygon fill="#D1D3D3" stroke="#FFFFFF" stroke-miterlimit="10" points="264.821,463.28 268.102,467.782 278.109,460.297 
		279.031,457.477 276.238,452.622 	"/>
	<path fill="#D1D3D3" stroke="#FFFFFF" stroke-miterlimit="10" d="M295.33,447.769l-2.495-4.854l-11.363,7.268
		c0.19,0.218,3.173,4.529,3.173,4.529L295.33,447.769z"/>
	<polygon id="k102-2" fill="#D1D3D3" stroke="#FFFFFF" stroke-miterlimit="10" points="274.367,502.251 281.472,509.898 
		291.018,501.465 284.265,493.79 	"/>
	<g id="k105-k106">
		<path fill="#D1D3D3" stroke="#FFFFFF" stroke-miterlimit="10" d="M285.594,492.488l7.241,6.915c0,0,4.937-6.915,2.495-10.307
			c-2.441-3.361-2.495-2.63-2.495-2.63L285.594,492.488z"/>
		<polygon fill="#D1D3D3" stroke="#FFFFFF" stroke-miterlimit="10" points="284.103,491.188 291.018,484.623 287.465,482.183 
			282.476,483.268 279.399,485.634 281.395,488.09 281.472,488.014 		"/>
	</g>
	<polygon fill="#D1D3D3" stroke="#FFFFFF" stroke-miterlimit="10" points="226.447,516.651 232.63,520.557 240.468,512.204 
		234.312,507.105 	"/>
	<polygon fill="#D1D3D3" stroke="#FFFFFF" stroke-miterlimit="10" points="252.021,521.506 245.484,515.892 238.976,525.059 
		244.047,530.672 	"/>
	<polygon id="k113" fill="#D1D3D3" stroke="#FFFFFF" stroke-miterlimit="10" points="260.319,509.898 252.726,518.278 
		256.359,521.614 264.821,514.4 	"/>
	<polygon id="k102-1" fill="#D1D3D3" stroke="#FFFFFF" stroke-miterlimit="10" points="246.759,513.207 250.963,516.814 
		258.963,507.756 255.817,504.854 	"/>
	<g id="k117-k118">
		<path fill="#D1D3D3" stroke="#FFFFFF" stroke-miterlimit="10" d="M219.884,523.296c0.949,1.22,6.563,7.403,6.563,7.403
			l4.854-4.502l-8.597-7.484L219.884,523.296z"/>
		<polygon fill="#D1D3D3" stroke="#FFFFFF" stroke-miterlimit="10" points="215.762,532.462 223.247,537.425 225.606,532.543 
			217.633,527.499 		"/>
	</g>
	<polygon id="k119" fill="#D1D3D3" stroke="#FFFFFF" stroke-miterlimit="10" points="234.501,491.376 238.542,495.336 
		243.641,490.021 239.735,486.44 	"/>
	<polygon id="k101" fill="#D1D3D3" stroke="#FFFFFF" stroke-miterlimit="10" points="244.59,501.41 252.021,495.851 
		246.759,491.864 240.956,497.722 	"/>
	<path fill="#D1D3D3" stroke="#FFFFFF" stroke-miterlimit="10" d="M265.933,533.492c-0.38-0.569-6.97-5.993-6.97-5.993l-6.97,7.104
		C253.024,534.225,266.312,534.035,265.933,533.492z"/>
	<polygon id="k114" fill="#D1D3D3" stroke="#FFFFFF" stroke-miterlimit="10" points="268.102,518.686 260.699,526.36 
		265.255,530.347 273.065,524.679 	"/>
	<polygon id="k115" fill="#D1D3D3" stroke="#FFFFFF" stroke-miterlimit="10" points="280.36,531.052 275.099,527.499 
		268.102,533.683 268.102,534.604 280.36,533.683 	"/>
	<polygon id="k112" fill="#D1D3D3" stroke="#FFFFFF" stroke-miterlimit="10" points="292.835,524.679 285.594,516.814 
		280.36,520.557 287.465,528.99 	"/>
	<polygon id="k103-2b" fill="#D1D3D3" stroke="#FFFFFF" stroke-miterlimit="10" points="300.564,532.462 294.001,526.55 
		288.388,531.052 294.489,538.537 	"/>
	<polygon fill="#D1D3D3" stroke="#FFFFFF" stroke-miterlimit="10" points="312.171,537.425 316.104,533.004 306.367,523.296 
		302.815,527.499 311.602,537.235 	"/>
	<path fill="#D1D3D3" stroke="#FFFFFF" stroke-miterlimit="10" d="M322.829,526.55l-7.864-9.734l-5.533,5.232
		c0.271,0.569,8.326,8.978,8.326,8.978L322.829,526.55z"/>
	<polygon fill="#D1D3D3" stroke="#FFFFFF" stroke-miterlimit="10" points="288.388,510.848 299.263,522.916 302.815,518.686 
		292.835,507.105 	"/>
	<path id="k103-3" fill="#D1D3D3" stroke="#FFFFFF" stroke-miterlimit="10" d="M304.876,516.814c0,0,4.854-4.746,4.583-4.61
		c-0.271,0.135-9.627-10.36-9.627-10.36l-4.204,2.983L304.876,516.814z"/>
	<rect id="jw101" x="350.844" y="413.245" fill="#D1D3D3" stroke="#FFFFFF" stroke-miterlimit="10" width="6.156" height="6.156"/>
	<rect id="jw102" x="360.525" y="409.611" fill="#D1D3D3" stroke="#FFFFFF" stroke-miterlimit="10" width="6.155" height="6.156"/>
	<rect id="jw103" x="370.18" y="407.089" fill="#D1D3D3" stroke="#FFFFFF" stroke-miterlimit="10" width="6.156" height="6.156"/>
	<rect id="jw106" x="352.986" y="426.235" fill="#D1D3D3" stroke="#FFFFFF" stroke-miterlimit="10" width="6.154" height="6.155"/>
	<rect id="jw105" x="363.454" y="422.52" fill="#D1D3D3" stroke="#FFFFFF" stroke-miterlimit="10" width="6.156" height="6.156"/>
	<rect id="jw104" x="373.949" y="419.456" fill="#D1D3D3" stroke="#FFFFFF" stroke-miterlimit="10" width="6.156" height="6.156"/>
	<circle fill="#D1D3D3" stroke="#FFFFFF" stroke-miterlimit="10" cx="332.158" cy="609.644" r="9.709"/>
	<polygon fill="#D1D3D3" stroke="#FFFFFF" stroke-miterlimit="10" points="371.183,577.589 370.938,577.589 370.938,572.734 
		361.203,572.734 361.203,577.589 	"/>
	<rect x="361.203" y="578.836" fill="#D1D3D3" stroke="#FFFFFF" stroke-miterlimit="10" width="4.502" height="5.479"/>
	<rect x="366.816" y="578.836" fill="#D1D3D3" stroke="#FFFFFF" stroke-miterlimit="10" width="4.365" height="5.479"/>
	<rect x="371.942" y="577.589" fill="#D1D3D3" stroke="#FFFFFF" stroke-miterlimit="10" width="3.605" height="6.727"/>
	<rect x="376.797" y="577.589" fill="#D1D3D3" stroke="#FFFFFF" stroke-miterlimit="10" width="5.396" height="6.727"/>
	<rect x="383.17" y="577.589" fill="#D1D3D3" stroke="#FFFFFF" stroke-miterlimit="10" width="3.606" height="6.727"/>
	<rect x="388.783" y="577.589" fill="#D1D3D3" stroke="#FFFFFF" stroke-miterlimit="10" width="3.606" height="6.727"/>
	<path fill="#D1D3D3" stroke="#FFFFFF" stroke-miterlimit="10" d="M376.797,607.908c0.136-3.119,0-4.122,0-4.122h-25.818
		c0.137,1.464-0.135,4.854-0.135,4.854s0.76,1.627,2.982,1.735c2.251,0.136,19.473,0.136,19.906,0
		C374.165,610.239,376.688,611.026,376.797,607.908z"/>
	<rect x="382.193" y="591.202" fill="#D1D3D3" stroke="#FFFFFF" stroke-miterlimit="10" width="2.793" height="2.794"/>
	<rect x="382.193" y="594.945" fill="#D1D3D3" stroke="#FFFFFF" stroke-miterlimit="10" width="2.793" height="2.793"/>
	<rect x="382.193" y="598.308" fill="#D1D3D3" stroke="#FFFFFF" stroke-miterlimit="10" width="2.793" height="2.794"/>
	<rect x="350.844" y="591.202" fill="#D1D3D3" stroke="#FFFFFF" stroke-miterlimit="10" width="29.451" height="11.119"/>
	<rect x="349.976" y="614.905" fill="#D1D3D3" stroke="#FFFFFF" stroke-miterlimit="10" width="5.37" height="2.981"/>
	<rect x="349.976" y="619.027" fill="#D1D3D3" stroke="#FFFFFF" stroke-miterlimit="10" width="5.37" height="2.981"/>
	<rect x="356.349" y="614.905" fill="#D1D3D3" stroke="#FFFFFF" stroke-miterlimit="10" width="5.37" height="2.981"/>
	<rect x="356.349" y="619.027" fill="#D1D3D3" stroke="#FFFFFF" stroke-miterlimit="10" width="5.37" height="2.981"/>
	<rect x="365.325" y="614.905" fill="#D1D3D3" stroke="#FFFFFF" stroke-miterlimit="10" width="5.37" height="2.981"/>
	<rect x="365.325" y="619.027" fill="#D1D3D3" stroke="#FFFFFF" stroke-miterlimit="10" width="5.37" height="2.981"/>
	<rect x="371.698" y="614.905" fill="#D1D3D3" stroke="#FFFFFF" stroke-miterlimit="10" width="5.37" height="2.981"/>
	<rect x="371.698" y="619.027" fill="#D1D3D3" stroke="#FFFFFF" stroke-miterlimit="10" width="5.37" height="2.981"/>
	<rect x="381.787" y="614.905" fill="#D1D3D3" stroke="#FFFFFF" stroke-miterlimit="10" width="5.369" height="2.981"/>
	<rect x="381.787" y="619.027" fill="#D1D3D3" stroke="#FFFFFF" stroke-miterlimit="10" width="5.369" height="2.981"/>
	<rect x="388.16" y="614.905" fill="#D1D3D3" stroke="#FFFFFF" stroke-miterlimit="10" width="5.369" height="2.981"/>
	<rect x="388.16" y="619.027" fill="#D1D3D3" stroke="#FFFFFF" stroke-miterlimit="10" width="5.369" height="2.981"/>
	<rect x="398.275" y="614.905" fill="#D1D3D3" stroke="#FFFFFF" stroke-miterlimit="10" width="5.368" height="2.981"/>
	<rect x="398.275" y="619.027" fill="#D1D3D3" stroke="#FFFFFF" stroke-miterlimit="10" width="5.368" height="2.981"/>
	<rect x="404.621" y="614.905" fill="#D1D3D3" stroke="#FFFFFF" stroke-miterlimit="10" width="5.37" height="2.981"/>
	<rect x="404.621" y="619.027" fill="#D1D3D3" stroke="#FFFFFF" stroke-miterlimit="10" width="5.37" height="2.981"/>
	<rect x="414.005" y="614.905" fill="#D1D3D3" stroke="#FFFFFF" stroke-miterlimit="10" width="5.369" height="2.981"/>
	<rect x="414.005" y="619.027" fill="#D1D3D3" stroke="#FFFFFF" stroke-miterlimit="10" width="5.369" height="2.981"/>
	<rect x="420.351" y="614.905" fill="#D1D3D3" stroke="#FFFFFF" stroke-miterlimit="10" width="5.369" height="2.981"/>
	<rect x="420.351" y="619.027" fill="#D1D3D3" stroke="#FFFFFF" stroke-miterlimit="10" width="5.369" height="2.981"/>
	<rect x="430.846" y="614.905" fill="#D1D3D3" stroke="#FFFFFF" stroke-miterlimit="10" width="5.369" height="2.981"/>
	<rect x="430.846" y="619.027" fill="#D1D3D3" stroke="#FFFFFF" stroke-miterlimit="10" width="5.369" height="2.981"/>
	<rect x="437.191" y="614.905" fill="#D1D3D3" stroke="#FFFFFF" stroke-miterlimit="10" width="5.369" height="2.981"/>
	<rect x="437.191" y="619.027" fill="#D1D3D3" stroke="#FFFFFF" stroke-miterlimit="10" width="5.369" height="2.981"/>
	<circle fill="#D1D3D3" stroke="#FFFFFF" stroke-miterlimit="10" cx="450.833" cy="619.434" r="4.529"/>
	<polygon fill="#D1D3D3" stroke="#FFFFFF" stroke-miterlimit="10" points="501.465,537.669 561.615,537.669 557.873,516.705 
		505.723,516.705 	"/>
	<polygon id="k108" fill="#D1D3D3" stroke="#FFFFFF" stroke-miterlimit="10" points="599.312,437.083 607.04,442.073 
		615.284,426.344 608.531,423.116 	"/>
	<polygon fill="#D1D3D3" stroke="#FFFFFF" stroke-miterlimit="10" points="344.552,333.758 349.406,346.314 357.84,343.114 
		352.227,330.314 	"/>
	<path fill="#D1D3D3" stroke="#FFFFFF" stroke-miterlimit="10" d="M363.535,357.434l-5.125-12.773c0,0-7.485,2.631-8.245,3.146
		l5.153,13.207L363.535,357.434z"/>
	<circle fill="#D1D3D3" stroke="#FFFFFF" stroke-miterlimit="10" cx="387.211" cy="512.312" r="0"/>
	<g id="r129">
		<path fill="#D1D3D3" stroke="#FFFFFF" stroke-miterlimit="10" d="M809.567,493.247v-27.174l-19.336-21.181l-98.309-3.66
			c-4.638,5.829-11.742,14.155-15.513,19.063V561.37h133.156V510.06h-5.694v-16.813L809.567,493.247L809.567,493.247z"/>
	</g>
	<g id="r104">
		<path fill="#D1D3D3" stroke="#FFFFFF" stroke-miterlimit="10" d="M147.529,450.589l-35.96,38.211l61.127,57.466
			c1.573-1.763,4.502-5.587,7.214-8.568c6.292-6.942,15.16-16.57,24.95-27.146c7.539-8.136,15.54-16.76,22.482-24.137
			c0.515-0.705,0.922-1.22,1.112-1.383c0.136-0.136,1.085-1.085,2.63-2.604c7.322-7.782,14.997-14.617,14.997-14.617
			c7.078-6.834,14.319-13.642,17.574-16.218c6.481-5.151,13.994-11.063,17.844-12.229l-13.532-20.611l26.767-12.828l0,0
			c0.027,0.082,2.957,4.61,4.665,7.973l8.026-4.204l-5.613-12.23l-15.973-11.987l-9.899,12.149l0,0c0,0-20.719-20.475-24.326-23.458
			c-1.627,1.248-40.191,32.164-40.191,32.164L147.529,450.589z"/>
	</g>
	<path id="r161-178-179-1-179-2-180-2" fill="#D1D3D3" stroke="#FFFFFF" stroke-miterlimit="10" d="M484.759,427.591v43.175h16.732
		v41.438h22.971v-27.201h8.081c0-4.475,0-28.692,0-28.692l36.096,10.359l1.031-3.932l-13.994-6.943l4.827-10.874l-43.146-8.787
		l-3.606-5.207l0,0c1.003-4.69,1.897-7.539,2.359-9.438c-13.126-1.844-23.567-2.902-23.567-2.902L484.759,427.591z"/>
	<path id="r142-143" fill="#D1D3D3" stroke="#FFFFFF" stroke-miterlimit="10" d="M446.06,542.551c0,0-12.067,0-26.713,0v15.322
		h7.946v13.966h-25.655c-0.025,4.258-0.217,26.388,0,32.437c0.244,6.726,6.753,4.988,6.753,4.988s31.703-0.244,38.943,0
		c7.241,0.244,5.75-5.992,5.75-5.992v-54.646C453.057,548.652,447.307,542.903,446.06,542.551z"/>
	<path id="r140-141" fill="#D1D3D3" stroke="#FFFFFF" stroke-miterlimit="10" d="M516.488,583.338L516.488,583.338v-40.787H491.24
		c0,0-7.484,0.108-7.729,5.613s0,88.111,0,88.111h32.978V583.338z"/>
	<path id="r123" fill="#D1D3D3" stroke="#FFFFFF" stroke-miterlimit="10" d="M558.442,307.561l-20.828,55.377l26.116,5.397
		l-7.676,29.316c22.753,4.448,40.68,9.627,52.774,17.492l5.668-11.526l-6.915-3.091l7.349-17.953l40.925,23.892l28.365-45.29
		L558.442,307.561z"/>
	<g id="Fashion_plus">
		
			<rect x="306.224" y="547.113" transform="matrix(0.7182 -0.6958 0.6958 0.7182 -295.2358 369.2123)" fill="#D1D3D3" stroke="#FFFFFF" stroke-miterlimit="10" width="4.014" height="4.014"/>
		
			<rect x="309.437" y="543.974" transform="matrix(0.7182 -0.6958 0.6958 0.7182 -292.1458 370.5632)" fill="#D1D3D3" stroke="#FFFFFF" stroke-miterlimit="10" width="4.014" height="4.014"/>
		
			<rect x="309.372" y="550.31" transform="matrix(0.7181 -0.6959 0.6959 0.7181 -296.6044 372.4064)" fill="#D1D3D3" stroke="#FFFFFF" stroke-miterlimit="10" width="4.013" height="4.015"/>
		
			<rect x="312.559" y="547.204" transform="matrix(0.7182 -0.6958 0.6958 0.7182 -293.5139 373.6459)" fill="#D1D3D3" stroke="#FFFFFF" stroke-miterlimit="10" width="4.014" height="4.014"/>
		
			<rect x="327.556" y="547.847" transform="matrix(0.7182 -0.6958 0.6958 0.7182 -289.7352 384.2617)" fill="#D1D3D3" stroke="#FFFFFF" stroke-miterlimit="10" width="4.014" height="4.014"/>
		
			<rect x="330.789" y="544.725" transform="matrix(0.7182 -0.6958 0.6958 0.7182 -286.6523 385.6321)" fill="#D1D3D3" stroke="#FFFFFF" stroke-miterlimit="10" width="4.014" height="4.014"/>
		
			<rect x="330.629" y="551.092" transform="matrix(0.7181 -0.696 0.696 0.7181 -291.1561 387.4239)" fill="#D1D3D3" stroke="#FFFFFF" stroke-miterlimit="10" width="4.015" height="4.014"/>
		
			<rect x="333.917" y="547.939" transform="matrix(0.7182 -0.6958 0.6958 0.7182 -288.0063 388.71)" fill="#D1D3D3" stroke="#FFFFFF" stroke-miterlimit="10" width="4.013" height="4.015"/>
		
			<rect x="315.222" y="558.328" transform="matrix(0.7182 -0.6958 0.6958 0.7182 -300.5041 378.6329)" fill="#D1D3D3" stroke="#FFFFFF" stroke-miterlimit="10" width="4.014" height="4.014"/>
		
			<rect x="318.442" y="555.206" transform="matrix(0.7182 -0.6958 0.6958 0.7182 -297.4238 379.9903)" fill="#D1D3D3" stroke="#FFFFFF" stroke-miterlimit="10" width="4.013" height="4.015"/>
		
			<rect x="318.344" y="561.562" transform="matrix(0.7182 -0.6958 0.6958 0.7182 -301.8749 381.7168)" fill="#D1D3D3" stroke="#FFFFFF" stroke-miterlimit="10" width="4.014" height="4.014"/>
		
			<rect x="321.526" y="558.45" transform="matrix(0.7181 -0.696 0.696 0.7181 -298.8436 383.1635)" fill="#D1D3D3" stroke="#FFFFFF" stroke-miterlimit="10" width="4.015" height="4.015"/>
		
			<rect x="322.706" y="569.56" transform="matrix(0.7182 -0.6958 0.6958 0.7182 -306.2109 387.0059)" fill="#D1D3D3" stroke="#FFFFFF" stroke-miterlimit="10" width="4.014" height="4.014"/>
		
			<rect x="325.888" y="566.449" transform="matrix(0.7182 -0.6958 0.6958 0.7182 -303.1496 388.3474)" fill="#D1D3D3" stroke="#FFFFFF" stroke-miterlimit="10" width="4.015" height="4.014"/>
		
			<rect x="325.828" y="572.788" transform="matrix(0.7182 -0.6958 0.6958 0.7182 -307.5769 390.0879)" fill="#D1D3D3" stroke="#FFFFFF" stroke-miterlimit="10" width="4.014" height="4.014"/>
		
			<rect x="329.059" y="569.669" transform="matrix(0.7182 -0.6958 0.6958 0.7182 -304.4959 391.4574)" fill="#D1D3D3" stroke="#FFFFFF" stroke-miterlimit="10" width="4.014" height="4.014"/>
		
			<rect x="333.515" y="562.073" transform="matrix(0.718 -0.6961 0.6961 0.718 -298.0145 392.6354)" fill="#D1D3D3" stroke="#FFFFFF" stroke-miterlimit="10" width="4.014" height="4.015"/>
		
			<rect x="336.79" y="558.956" transform="matrix(0.7182 -0.6958 0.6958 0.7182 -294.8633 393.8177)" fill="#D1D3D3" stroke="#FFFFFF" stroke-miterlimit="10" width="4.014" height="4.014"/>
		
			<rect x="336.68" y="565.312" transform="matrix(0.7182 -0.6958 0.6958 0.7182 -299.3174 395.5321)" fill="#D1D3D3" stroke="#FFFFFF" stroke-miterlimit="10" width="4.014" height="4.014"/>
		
			<rect x="339.912" y="562.19" transform="matrix(0.7182 -0.6958 0.6958 0.7182 -296.2341 396.9016)" fill="#D1D3D3" stroke="#FFFFFF" stroke-miterlimit="10" width="4.014" height="4.014"/>
	</g>
	<g id="Pink_parking">
		<polygon fill="#D1D3D3" stroke="#FFFFFF" stroke-miterlimit="10" points="523.296,609.102 523.296,610.24 679.503,610.24 
			730.515,590.552 730.108,589.521 679.312,609.102 		"/>
		<rect x="524.001" y="602.837" fill="#D1D3D3" stroke="#FFFFFF" stroke-miterlimit="10" width="0.949" height="5.804"/>
		<rect x="528.367" y="602.837" fill="#D1D3D3" stroke="#FFFFFF" stroke-miterlimit="10" width="0.949" height="5.804"/>
		<rect x="532.706" y="602.837" fill="#D1D3D3" stroke="#FFFFFF" stroke-miterlimit="10" width="0.949" height="5.804"/>
		<rect x="537.072" y="602.837" fill="#D1D3D3" stroke="#FFFFFF" stroke-miterlimit="10" width="0.949" height="5.804"/>
		<rect x="541.411" y="602.837" fill="#D1D3D3" stroke="#FFFFFF" stroke-miterlimit="10" width="0.949" height="5.804"/>
		<rect x="545.777" y="602.837" fill="#D1D3D3" stroke="#FFFFFF" stroke-miterlimit="10" width="0.948" height="5.804"/>
		<rect x="550.116" y="602.837" fill="#D1D3D3" stroke="#FFFFFF" stroke-miterlimit="10" width="0.949" height="5.804"/>
		<rect x="554.482" y="602.837" fill="#D1D3D3" stroke="#FFFFFF" stroke-miterlimit="10" width="0.948" height="5.804"/>
		<rect x="558.822" y="602.837" fill="#D1D3D3" stroke="#FFFFFF" stroke-miterlimit="10" width="0.949" height="5.804"/>
		<rect x="563.161" y="602.837" fill="#D1D3D3" stroke="#FFFFFF" stroke-miterlimit="10" width="0.949" height="5.804"/>
		<rect x="567.527" y="602.837" fill="#D1D3D3" stroke="#FFFFFF" stroke-miterlimit="10" width="0.948" height="5.804"/>
		<rect x="571.866" y="602.837" fill="#D1D3D3" stroke="#FFFFFF" stroke-miterlimit="10" width="0.949" height="5.804"/>
		<rect x="576.232" y="602.837" fill="#D1D3D3" stroke="#FFFFFF" stroke-miterlimit="10" width="0.948" height="5.804"/>
		<rect x="580.571" y="602.837" fill="#D1D3D3" stroke="#FFFFFF" stroke-miterlimit="10" width="0.948" height="5.804"/>
		<rect x="584.938" y="602.837" fill="#D1D3D3" stroke="#FFFFFF" stroke-miterlimit="10" width="0.949" height="5.804"/>
		<rect x="589.277" y="602.837" fill="#D1D3D3" stroke="#FFFFFF" stroke-miterlimit="10" width="0.948" height="5.804"/>
		<rect x="593.644" y="602.837" fill="#D1D3D3" stroke="#FFFFFF" stroke-miterlimit="10" width="0.949" height="5.804"/>
		<rect x="597.982" y="602.837" fill="#D1D3D3" stroke="#FFFFFF" stroke-miterlimit="10" width="0.948" height="5.804"/>
		<rect x="602.349" y="602.837" fill="#D1D3D3" stroke="#FFFFFF" stroke-miterlimit="10" width="0.949" height="5.804"/>
		<rect x="606.688" y="602.837" fill="#D1D3D3" stroke="#FFFFFF" stroke-miterlimit="10" width="0.949" height="5.804"/>
		<rect x="611.054" y="602.837" fill="#D1D3D3" stroke="#FFFFFF" stroke-miterlimit="10" width="0.949" height="5.804"/>
		<rect x="615.393" y="602.837" fill="#D1D3D3" stroke="#FFFFFF" stroke-miterlimit="10" width="0.949" height="5.804"/>
		<rect x="619.759" y="602.837" fill="#D1D3D3" stroke="#FFFFFF" stroke-miterlimit="10" width="0.949" height="5.804"/>
		<rect x="624.099" y="602.837" fill="#D1D3D3" stroke="#FFFFFF" stroke-miterlimit="10" width="0.949" height="5.804"/>
		<rect x="628.465" y="602.837" fill="#D1D3D3" stroke="#FFFFFF" stroke-miterlimit="10" width="0.949" height="5.804"/>
		<rect x="632.804" y="602.837" fill="#D1D3D3" stroke="#FFFFFF" stroke-miterlimit="10" width="0.949" height="5.804"/>
		<rect x="637.143" y="602.837" fill="#D1D3D3" stroke="#FFFFFF" stroke-miterlimit="10" width="0.949" height="5.804"/>
		<rect x="641.509" y="602.837" fill="#D1D3D3" stroke="#FFFFFF" stroke-miterlimit="10" width="0.949" height="5.804"/>
		<rect x="645.848" y="602.837" fill="#D1D3D3" stroke="#FFFFFF" stroke-miterlimit="10" width="0.949" height="5.804"/>
		<rect x="650.214" y="602.837" fill="#D1D3D3" stroke="#FFFFFF" stroke-miterlimit="10" width="0.949" height="5.804"/>
		<rect x="654.554" y="602.837" fill="#D1D3D3" stroke="#FFFFFF" stroke-miterlimit="10" width="0.949" height="5.804"/>
		<rect x="658.92" y="602.837" fill="#D1D3D3" stroke="#FFFFFF" stroke-miterlimit="10" width="0.949" height="5.804"/>
		<rect x="663.259" y="602.837" fill="#D1D3D3" stroke="#FFFFFF" stroke-miterlimit="10" width="0.949" height="5.804"/>
		<rect x="667.625" y="602.837" fill="#D1D3D3" stroke="#FFFFFF" stroke-miterlimit="10" width="0.949" height="5.804"/>
		<rect x="671.964" y="602.837" fill="#D1D3D3" stroke="#FFFFFF" stroke-miterlimit="10" width="0.949" height="5.804"/>
		<rect x="676.33" y="602.837" fill="#D1D3D3" stroke="#FFFFFF" stroke-miterlimit="10" width="0.949" height="5.804"/>
		<rect x="524.001" y="587.107" fill="#D1D3D3" stroke="#FFFFFF" stroke-miterlimit="10" width="0.949" height="5.804"/>
		<rect x="528.367" y="587.107" fill="#D1D3D3" stroke="#FFFFFF" stroke-miterlimit="10" width="0.949" height="5.804"/>
		<rect x="532.706" y="587.107" fill="#D1D3D3" stroke="#FFFFFF" stroke-miterlimit="10" width="0.949" height="5.804"/>
		<rect x="537.072" y="587.107" fill="#D1D3D3" stroke="#FFFFFF" stroke-miterlimit="10" width="0.949" height="5.804"/>
		<rect x="541.411" y="587.107" fill="#D1D3D3" stroke="#FFFFFF" stroke-miterlimit="10" width="0.949" height="5.804"/>
		<rect x="545.777" y="587.107" fill="#D1D3D3" stroke="#FFFFFF" stroke-miterlimit="10" width="0.948" height="5.804"/>
		<rect x="550.116" y="587.107" fill="#D1D3D3" stroke="#FFFFFF" stroke-miterlimit="10" width="0.949" height="5.804"/>
		<rect x="554.482" y="587.107" fill="#D1D3D3" stroke="#FFFFFF" stroke-miterlimit="10" width="0.948" height="5.804"/>
		<rect x="558.822" y="587.107" fill="#D1D3D3" stroke="#FFFFFF" stroke-miterlimit="10" width="0.949" height="5.804"/>
		<rect x="563.161" y="587.107" fill="#D1D3D3" stroke="#FFFFFF" stroke-miterlimit="10" width="0.949" height="5.804"/>
		<rect x="567.527" y="587.107" fill="#D1D3D3" stroke="#FFFFFF" stroke-miterlimit="10" width="0.948" height="5.804"/>
		<rect x="571.866" y="587.107" fill="#D1D3D3" stroke="#FFFFFF" stroke-miterlimit="10" width="0.949" height="5.804"/>
		<rect x="576.232" y="587.107" fill="#D1D3D3" stroke="#FFFFFF" stroke-miterlimit="10" width="0.948" height="5.804"/>
		<rect x="580.571" y="587.107" fill="#D1D3D3" stroke="#FFFFFF" stroke-miterlimit="10" width="0.948" height="5.804"/>
		<rect x="584.938" y="587.107" fill="#D1D3D3" stroke="#FFFFFF" stroke-miterlimit="10" width="0.949" height="5.804"/>
		<rect x="589.277" y="587.107" fill="#D1D3D3" stroke="#FFFFFF" stroke-miterlimit="10" width="0.948" height="5.804"/>
		<rect x="593.644" y="587.107" fill="#D1D3D3" stroke="#FFFFFF" stroke-miterlimit="10" width="0.949" height="5.804"/>
		<rect x="597.982" y="587.107" fill="#D1D3D3" stroke="#FFFFFF" stroke-miterlimit="10" width="0.948" height="5.804"/>
		<rect x="602.349" y="587.107" fill="#D1D3D3" stroke="#FFFFFF" stroke-miterlimit="10" width="0.949" height="5.804"/>
		<rect x="606.688" y="587.107" fill="#D1D3D3" stroke="#FFFFFF" stroke-miterlimit="10" width="0.949" height="5.804"/>
		<rect x="611.054" y="587.107" fill="#D1D3D3" stroke="#FFFFFF" stroke-miterlimit="10" width="0.949" height="5.804"/>
		<rect x="615.393" y="587.107" fill="#D1D3D3" stroke="#FFFFFF" stroke-miterlimit="10" width="0.949" height="5.804"/>
		<rect x="619.759" y="587.107" fill="#D1D3D3" stroke="#FFFFFF" stroke-miterlimit="10" width="0.949" height="5.804"/>
		<rect x="624.099" y="587.107" fill="#D1D3D3" stroke="#FFFFFF" stroke-miterlimit="10" width="0.949" height="5.804"/>
		<rect x="628.465" y="587.107" fill="#D1D3D3" stroke="#FFFFFF" stroke-miterlimit="10" width="0.949" height="5.804"/>
		<rect x="632.804" y="587.107" fill="#D1D3D3" stroke="#FFFFFF" stroke-miterlimit="10" width="0.949" height="5.804"/>
		<rect x="637.143" y="587.107" fill="#D1D3D3" stroke="#FFFFFF" stroke-miterlimit="10" width="0.949" height="5.804"/>
		<rect x="641.509" y="587.107" fill="#D1D3D3" stroke="#FFFFFF" stroke-miterlimit="10" width="0.949" height="5.804"/>
		<rect x="645.848" y="587.107" fill="#D1D3D3" stroke="#FFFFFF" stroke-miterlimit="10" width="0.949" height="5.804"/>
		<rect x="650.214" y="587.107" fill="#D1D3D3" stroke="#FFFFFF" stroke-miterlimit="10" width="0.949" height="5.804"/>
		<rect x="654.554" y="587.107" fill="#D1D3D3" stroke="#FFFFFF" stroke-miterlimit="10" width="0.949" height="5.804"/>
		<rect x="658.92" y="587.107" fill="#D1D3D3" stroke="#FFFFFF" stroke-miterlimit="10" width="0.949" height="5.804"/>
		<rect x="663.259" y="587.107" fill="#D1D3D3" stroke="#FFFFFF" stroke-miterlimit="10" width="0.949" height="5.804"/>
		<rect x="667.625" y="587.107" fill="#D1D3D3" stroke="#FFFFFF" stroke-miterlimit="10" width="0.949" height="5.804"/>
		<rect x="671.964" y="587.107" fill="#D1D3D3" stroke="#FFFFFF" stroke-miterlimit="10" width="0.949" height="5.804"/>
		<rect x="676.33" y="587.107" fill="#D1D3D3" stroke="#FFFFFF" stroke-miterlimit="10" width="0.949" height="5.804"/>
		<rect x="520.258" y="628.302" fill="#D1D3D3" stroke="#FFFFFF" stroke-miterlimit="10" width="0.949" height="5.805"/>
		<rect x="524.624" y="628.302" fill="#D1D3D3" stroke="#FFFFFF" stroke-miterlimit="10" width="0.949" height="5.805"/>
		<rect x="528.964" y="628.302" fill="#D1D3D3" stroke="#FFFFFF" stroke-miterlimit="10" width="0.949" height="5.805"/>
		<rect x="533.33" y="628.302" fill="#D1D3D3" stroke="#FFFFFF" stroke-miterlimit="10" width="0.949" height="5.805"/>
		<rect x="537.669" y="628.302" fill="#D1D3D3" stroke="#FFFFFF" stroke-miterlimit="10" width="0.949" height="5.805"/>
		<rect x="542.035" y="628.302" fill="#D1D3D3" stroke="#FFFFFF" stroke-miterlimit="10" width="0.949" height="5.805"/>
		<rect x="546.374" y="628.302" fill="#D1D3D3" stroke="#FFFFFF" stroke-miterlimit="10" width="0.949" height="5.805"/>
		<rect x="550.713" y="628.302" fill="#D1D3D3" stroke="#FFFFFF" stroke-miterlimit="10" width="0.949" height="5.805"/>
		<rect x="555.079" y="628.302" fill="#D1D3D3" stroke="#FFFFFF" stroke-miterlimit="10" width="0.949" height="5.805"/>
		<rect x="559.419" y="628.302" fill="#D1D3D3" stroke="#FFFFFF" stroke-miterlimit="10" width="0.949" height="5.805"/>
		<rect x="563.785" y="628.302" fill="#D1D3D3" stroke="#FFFFFF" stroke-miterlimit="10" width="0.949" height="5.805"/>
		<rect x="568.124" y="628.302" fill="#D1D3D3" stroke="#FFFFFF" stroke-miterlimit="10" width="0.949" height="5.805"/>
		<rect x="572.49" y="628.302" fill="#D1D3D3" stroke="#FFFFFF" stroke-miterlimit="10" width="0.949" height="5.805"/>
		<rect x="576.829" y="628.302" fill="#D1D3D3" stroke="#FFFFFF" stroke-miterlimit="10" width="0.949" height="5.805"/>
		<rect x="581.195" y="628.302" fill="#D1D3D3" stroke="#FFFFFF" stroke-miterlimit="10" width="0.948" height="5.805"/>
		<rect x="585.534" y="628.302" fill="#D1D3D3" stroke="#FFFFFF" stroke-miterlimit="10" width="0.949" height="5.805"/>
		<rect x="589.9" y="628.302" fill="#D1D3D3" stroke="#FFFFFF" stroke-miterlimit="10" width="0.948" height="5.805"/>
		<rect x="594.24" y="628.302" fill="#D1D3D3" stroke="#FFFFFF" stroke-miterlimit="10" width="0.949" height="5.805"/>
		<rect x="598.606" y="628.302" fill="#D1D3D3" stroke="#FFFFFF" stroke-miterlimit="10" width="0.948" height="5.805"/>
		<rect x="602.945" y="628.302" fill="#D1D3D3" stroke="#FFFFFF" stroke-miterlimit="10" width="0.948" height="5.805"/>
		<rect x="607.312" y="628.302" fill="#D1D3D3" stroke="#FFFFFF" stroke-miterlimit="10" width="0.948" height="5.805"/>
		<rect x="611.65" y="628.302" fill="#D1D3D3" stroke="#FFFFFF" stroke-miterlimit="10" width="0.948" height="5.805"/>
		<rect x="616.017" y="628.302" fill="#D1D3D3" stroke="#FFFFFF" stroke-miterlimit="10" width="0.949" height="5.805"/>
		<rect x="620.355" y="628.302" fill="#D1D3D3" stroke="#FFFFFF" stroke-miterlimit="10" width="0.948" height="5.805"/>
		<rect x="624.695" y="628.302" fill="#D1D3D3" stroke="#FFFFFF" stroke-miterlimit="10" width="0.948" height="5.805"/>
		<rect x="629.062" y="628.302" fill="#D1D3D3" stroke="#FFFFFF" stroke-miterlimit="10" width="0.948" height="5.805"/>
		<rect x="633.4" y="628.302" fill="#D1D3D3" stroke="#FFFFFF" stroke-miterlimit="10" width="0.948" height="5.805"/>
		<rect x="637.767" y="628.302" fill="#D1D3D3" stroke="#FFFFFF" stroke-miterlimit="10" width="0.949" height="5.805"/>
		<rect x="642.105" y="628.302" fill="#D1D3D3" stroke="#FFFFFF" stroke-miterlimit="10" width="0.948" height="5.805"/>
		<rect x="646.472" y="628.302" fill="#D1D3D3" stroke="#FFFFFF" stroke-miterlimit="10" width="0.949" height="5.805"/>
		<rect x="650.811" y="628.302" fill="#D1D3D3" stroke="#FFFFFF" stroke-miterlimit="10" width="0.949" height="5.805"/>
		<rect x="655.177" y="628.302" fill="#D1D3D3" stroke="#FFFFFF" stroke-miterlimit="10" width="0.949" height="5.805"/>
		<rect x="524.245" y="611.812" fill="#D1D3D3" stroke="#FFFFFF" stroke-miterlimit="10" width="0.949" height="5.805"/>
		<rect x="528.584" y="611.812" fill="#D1D3D3" stroke="#FFFFFF" stroke-miterlimit="10" width="0.949" height="5.805"/>
		<rect x="532.95" y="611.812" fill="#D1D3D3" stroke="#FFFFFF" stroke-miterlimit="10" width="0.949" height="5.805"/>
		<rect x="537.289" y="611.812" fill="#D1D3D3" stroke="#FFFFFF" stroke-miterlimit="10" width="0.949" height="5.805"/>
		<rect x="541.655" y="611.812" fill="#D1D3D3" stroke="#FFFFFF" stroke-miterlimit="10" width="0.948" height="5.805"/>
		<rect x="545.994" y="611.812" fill="#D1D3D3" stroke="#FFFFFF" stroke-miterlimit="10" width="0.949" height="5.805"/>
		<rect x="550.36" y="611.812" fill="#D1D3D3" stroke="#FFFFFF" stroke-miterlimit="10" width="0.948" height="5.805"/>
		<rect x="554.7" y="611.812" fill="#D1D3D3" stroke="#FFFFFF" stroke-miterlimit="10" width="0.948" height="5.805"/>
		<rect x="559.066" y="611.812" fill="#D1D3D3" stroke="#FFFFFF" stroke-miterlimit="10" width="0.948" height="5.805"/>
		<rect x="563.405" y="611.812" fill="#D1D3D3" stroke="#FFFFFF" stroke-miterlimit="10" width="0.948" height="5.805"/>
		<rect x="567.771" y="611.812" fill="#D1D3D3" stroke="#FFFFFF" stroke-miterlimit="10" width="0.948" height="5.805"/>
		<rect x="572.11" y="611.812" fill="#D1D3D3" stroke="#FFFFFF" stroke-miterlimit="10" width="0.948" height="5.805"/>
		<rect x="576.477" y="611.812" fill="#D1D3D3" stroke="#FFFFFF" stroke-miterlimit="10" width="0.949" height="5.805"/>
		<rect x="580.815" y="611.812" fill="#D1D3D3" stroke="#FFFFFF" stroke-miterlimit="10" width="0.948" height="5.805"/>
		<rect x="585.155" y="611.812" fill="#D1D3D3" stroke="#FFFFFF" stroke-miterlimit="10" width="0.948" height="5.805"/>
		<rect x="589.521" y="611.812" fill="#D1D3D3" stroke="#FFFFFF" stroke-miterlimit="10" width="0.948" height="5.805"/>
		<rect x="593.86" y="611.812" fill="#D1D3D3" stroke="#FFFFFF" stroke-miterlimit="10" width="0.948" height="5.805"/>
		<rect x="598.227" y="611.812" fill="#D1D3D3" stroke="#FFFFFF" stroke-miterlimit="10" width="0.949" height="5.805"/>
		<rect x="602.565" y="611.812" fill="#D1D3D3" stroke="#FFFFFF" stroke-miterlimit="10" width="0.948" height="5.805"/>
		<rect x="606.932" y="611.812" fill="#D1D3D3" stroke="#FFFFFF" stroke-miterlimit="10" width="0.949" height="5.805"/>
		<rect x="611.271" y="611.812" fill="#D1D3D3" stroke="#FFFFFF" stroke-miterlimit="10" width="0.948" height="5.805"/>
		<rect x="615.637" y="611.812" fill="#D1D3D3" stroke="#FFFFFF" stroke-miterlimit="10" width="0.949" height="5.805"/>
		<rect x="619.977" y="611.812" fill="#D1D3D3" stroke="#FFFFFF" stroke-miterlimit="10" width="0.949" height="5.805"/>
		<rect x="624.343" y="611.812" fill="#D1D3D3" stroke="#FFFFFF" stroke-miterlimit="10" width="0.949" height="5.805"/>
		<rect x="628.682" y="611.812" fill="#D1D3D3" stroke="#FFFFFF" stroke-miterlimit="10" width="0.949" height="5.805"/>
		<rect x="633.048" y="611.812" fill="#D1D3D3" stroke="#FFFFFF" stroke-miterlimit="10" width="0.949" height="5.805"/>
		<rect x="637.387" y="611.812" fill="#D1D3D3" stroke="#FFFFFF" stroke-miterlimit="10" width="0.949" height="5.805"/>
		<rect x="641.753" y="611.812" fill="#D1D3D3" stroke="#FFFFFF" stroke-miterlimit="10" width="0.949" height="5.805"/>
		<rect x="646.092" y="611.812" fill="#D1D3D3" stroke="#FFFFFF" stroke-miterlimit="10" width="0.949" height="5.805"/>
		<rect x="650.458" y="611.812" fill="#D1D3D3" stroke="#FFFFFF" stroke-miterlimit="10" width="0.949" height="5.805"/>
		<rect x="654.798" y="611.812" fill="#D1D3D3" stroke="#FFFFFF" stroke-miterlimit="10" width="0.949" height="5.805"/>
		<rect x="659.137" y="611.812" fill="#D1D3D3" stroke="#FFFFFF" stroke-miterlimit="10" width="0.949" height="5.805"/>
		<rect x="663.503" y="611.812" fill="#D1D3D3" stroke="#FFFFFF" stroke-miterlimit="10" width="0.949" height="5.805"/>
		<rect x="667.842" y="611.812" fill="#D1D3D3" stroke="#FFFFFF" stroke-miterlimit="10" width="0.949" height="5.805"/>
		<rect x="672.208" y="611.812" fill="#D1D3D3" stroke="#FFFFFF" stroke-miterlimit="10" width="0.949" height="5.805"/>
		<rect x="676.547" y="611.812" fill="#D1D3D3" stroke="#FFFFFF" stroke-miterlimit="10" width="0.949" height="5.805"/>
		
			<rect x="681.459" y="611.774" transform="matrix(0.9301 -0.3673 0.3673 0.9301 -178.1076 293.4453)" fill="#D1D3D3" stroke="#FFFFFF" stroke-miterlimit="10" width="0.949" height="5.804"/>
		
			<rect x="685.499" y="610.178" transform="matrix(0.9301 -0.3673 0.3673 0.9301 -177.2388 294.8172)" fill="#D1D3D3" stroke="#FFFFFF" stroke-miterlimit="10" width="0.949" height="5.804"/>
		
			<rect x="689.511" y="608.544" transform="matrix(0.9305 -0.3664 0.3664 0.9305 -176.0562 295.3475)" fill="#D1D3D3" stroke="#FFFFFF" stroke-miterlimit="10" width="0.949" height="5.804"/>
		
			<rect x="693.585" y="607.023" transform="matrix(0.9301 -0.3673 0.3673 0.9301 -175.5149 297.5671)" fill="#D1D3D3" stroke="#FFFFFF" stroke-miterlimit="10" width="0.949" height="5.804"/>
		
			<rect x="697.651" y="605.417" transform="matrix(0.93 -0.3677 0.3677 0.93 -174.7576 299.278)" fill="#D1D3D3" stroke="#FFFFFF" stroke-miterlimit="10" width="0.948" height="5.804"/>
		
			<rect x="701.685" y="603.879" transform="matrix(0.9302 -0.367 0.367 0.9302 -173.6781 299.9919)" fill="#D1D3D3" stroke="#FFFFFF" stroke-miterlimit="10" width="0.95" height="5.804"/>
		
			<rect x="705.733" y="602.206" transform="matrix(0.9303 -0.3668 0.3668 0.9303 -172.7203 301.1823)" fill="#D1D3D3" stroke="#FFFFFF" stroke-miterlimit="10" width="0.948" height="5.803"/>
		
			<rect x="709.871" y="600.625" transform="matrix(0.9301 -0.3673 0.3673 0.9301 -172.0266 303.1015)" fill="#D1D3D3" stroke="#FFFFFF" stroke-miterlimit="10" width="0.949" height="5.805"/>
		
			<rect x="713.877" y="599.05" transform="matrix(0.9306 -0.3661 0.3661 0.9306 -170.7704 303.2821)" fill="#D1D3D3" stroke="#FFFFFF" stroke-miterlimit="10" width="0.95" height="5.804"/>
		
			<rect x="717.886" y="597.433" transform="matrix(0.93 -0.3677 0.3677 0.93 -170.4053 306.1586)" fill="#D1D3D3" stroke="#FFFFFF" stroke-miterlimit="10" width="0.948" height="5.804"/>
		
			<rect x="721.924" y="595.851" transform="matrix(0.9301 -0.3673 0.3673 0.9301 -169.4305 307.1953)" fill="#D1D3D3" stroke="#FFFFFF" stroke-miterlimit="10" width="0.949" height="5.804"/>
		
			<rect x="725.988" y="594.244" transform="matrix(0.9301 -0.3673 0.3673 0.9301 -168.556 308.5755)" fill="#D1D3D3" stroke="#FFFFFF" stroke-miterlimit="10" width="0.949" height="5.804"/>
		
			<rect x="730.023" y="592.723" transform="matrix(0.9302 -0.367 0.367 0.9302 -167.6072 309.6123)" fill="#D1D3D3" stroke="#FFFFFF" stroke-miterlimit="10" width="0.95" height="5.803"/>
		
			<rect x="734.039" y="591" transform="matrix(0.9305 -0.3664 0.3664 0.9305 -166.5309 310.4431)" fill="#D1D3D3" stroke="#FFFFFF" stroke-miterlimit="10" width="0.949" height="5.804"/>
		
			<rect x="682.006" y="600.324" transform="matrix(0.9305 -0.3664 0.3664 0.9305 -173.5663 292.026)" fill="#D1D3D3" stroke="#FFFFFF" stroke-miterlimit="10" width="0.949" height="5.804"/>
		
			<rect x="686.04" y="598.791" transform="matrix(0.9304 -0.3666 0.3666 0.9304 -172.7863 293.5721)" fill="#D1D3D3" stroke="#FFFFFF" stroke-miterlimit="10" width="0.951" height="5.803"/>
		
			<rect x="690.084" y="597.136" transform="matrix(0.9306 -0.3661 0.3661 0.9306 -171.7211 294.4393)" fill="#D1D3D3" stroke="#FFFFFF" stroke-miterlimit="10" width="0.95" height="5.804"/>
		
			<rect x="694.124" y="595.54" transform="matrix(0.9306 -0.3661 0.3661 0.9306 -170.8563 295.8074)" fill="#D1D3D3" stroke="#FFFFFF" stroke-miterlimit="10" width="0.95" height="5.803"/>
		
			<rect x="698.218" y="593.963" transform="matrix(0.9301 -0.3673 0.3673 0.9301 -170.3939 298.3559)" fill="#D1D3D3" stroke="#FFFFFF" stroke-miterlimit="10" width="0.949" height="5.804"/>
		
			<rect x="702.258" y="592.365" transform="matrix(0.93 -0.3677 0.3677 0.93 -169.6364 300.0579)" fill="#D1D3D3" stroke="#FFFFFF" stroke-miterlimit="10" width="0.948" height="5.804"/>
		
			<rect x="706.278" y="590.759" transform="matrix(0.9305 -0.3664 0.3664 0.9305 -168.373 300.2543)" fill="#D1D3D3" stroke="#FFFFFF" stroke-miterlimit="10" width="0.949" height="5.803"/>
		
			<rect x="710.343" y="589.153" transform="matrix(0.9306 -0.3661 0.3661 0.9306 -167.3922 301.3012)" fill="#D1D3D3" stroke="#FFFFFF" stroke-miterlimit="10" width="0.95" height="5.803"/>
		
			<rect x="714.382" y="587.562" transform="matrix(0.9305 -0.3664 0.3664 0.9305 -166.6379 303.0012)" fill="#D1D3D3" stroke="#FFFFFF" stroke-miterlimit="10" width="0.949" height="5.803"/>
		
			<rect x="718.45" y="586" transform="matrix(0.9301 -0.3673 0.3673 0.9301 -166.0548 305.2304)" fill="#D1D3D3" stroke="#FFFFFF" stroke-miterlimit="10" width="0.949" height="5.804"/>
		
			<rect x="722.512" y="584.453" transform="matrix(0.9302 -0.367 0.367 0.9302 -165.0966 306.2793)" fill="#D1D3D3" stroke="#FFFFFF" stroke-miterlimit="10" width="0.95" height="5.803"/>
		
			<rect x="726.526" y="582.754" transform="matrix(0.9305 -0.3664 0.3664 0.9305 -164.0321 307.1167)" fill="#D1D3D3" stroke="#FFFFFF" stroke-miterlimit="10" width="0.949" height="5.805"/>
		
			<rect x="681.812" y="585.215" transform="matrix(0.9301 -0.3673 0.3673 0.9301 -168.3274 291.7182)" fill="#D1D3D3" stroke="#FFFFFF" stroke-miterlimit="10" width="0.949" height="5.804"/>
		
			<rect x="685.878" y="583.602" transform="matrix(0.93 -0.3677 0.3677 0.93 -167.5619 293.422)" fill="#D1D3D3" stroke="#FFFFFF" stroke-miterlimit="10" width="0.948" height="5.804"/>
		
			<rect x="689.917" y="582.006" transform="matrix(0.9301 -0.3673 0.3673 0.9301 -166.5822 294.4711)" fill="#D1D3D3" stroke="#FFFFFF" stroke-miterlimit="10" width="0.949" height="5.804"/>
		
			<rect x="693.938" y="580.399" transform="matrix(0.9306 -0.3661 0.3661 0.9306 -165.3266 294.6885)" fill="#D1D3D3" stroke="#FFFFFF" stroke-miterlimit="10" width="0.95" height="5.804"/>
		
			<rect x="698.003" y="578.792" transform="matrix(0.9305 -0.3664 0.3664 0.9305 -164.5639 296.39)" fill="#D1D3D3" stroke="#FFFFFF" stroke-miterlimit="10" width="0.949" height="5.804"/>
		
			<rect x="702.071" y="577.235" transform="matrix(0.9301 -0.3673 0.3673 0.9301 -163.9804 298.6017)" fill="#D1D3D3" stroke="#FFFFFF" stroke-miterlimit="10" width="0.949" height="5.804"/>
		
			<rect x="706.111" y="575.639" transform="matrix(0.9301 -0.3673 0.3673 0.9301 -163.1119 299.974)" fill="#D1D3D3" stroke="#FFFFFF" stroke-miterlimit="10" width="0.949" height="5.804"/>
		
			<rect x="710.15" y="574.043" transform="matrix(0.9301 -0.3673 0.3673 0.9301 -162.243 301.346)" fill="#D1D3D3" stroke="#FFFFFF" stroke-miterlimit="10" width="0.949" height="5.804"/>
		
			<rect x="714.185" y="572.395" transform="matrix(0.9306 -0.3661 0.3661 0.9306 -160.9912 301.5447)" fill="#D1D3D3" stroke="#FFFFFF" stroke-miterlimit="10" width="0.95" height="5.804"/>
		
			<rect x="718.225" y="570.799" transform="matrix(0.9305 -0.3664 0.3664 0.9305 -160.2285 303.2438)" fill="#D1D3D3" stroke="#FFFFFF" stroke-miterlimit="10" width="0.949" height="5.803"/>
		
			<rect x="722.304" y="569.262" transform="matrix(0.9301 -0.3673 0.3673 0.9301 -159.6373 305.4762)" fill="#D1D3D3" stroke="#FFFFFF" stroke-miterlimit="10" width="0.949" height="5.804"/>
		
			<rect x="726.37" y="567.655" transform="matrix(0.9301 -0.3673 0.3673 0.9301 -158.7631 306.8571)" fill="#D1D3D3" stroke="#FFFFFF" stroke-miterlimit="10" width="0.949" height="5.804"/>
	</g>
	<g id="purple_parking">
		<path fill="#D1D3D3" stroke="#FFFFFF" stroke-miterlimit="10" d="M366.763,307.561l20.72,45.425
			C386.75,351.359,367.196,308.483,366.763,307.561z"/>
		
			<rect x="392.09" y="348.125" transform="matrix(0.9035 -0.4286 0.4286 0.9035 -111.2918 202.9392)" fill="#D1D3D3" stroke="#FFFFFF" stroke-miterlimit="10" width="5.803" height="0.949"/>
		
			<rect x="390.219" y="344.195" transform="matrix(0.9035 -0.4287 0.4287 0.9035 -109.799 201.7964)" fill="#D1D3D3" stroke="#FFFFFF" stroke-miterlimit="10" width="5.803" height="0.949"/>
		
			<rect x="388.397" y="340.257" transform="matrix(0.9034 -0.4287 0.4287 0.9034 -108.2975 200.6731)" fill="#D1D3D3" stroke="#FFFFFF" stroke-miterlimit="10" width="5.804" height="0.95"/>
		
			<rect x="386.439" y="336.329" transform="matrix(0.9035 -0.4287 0.4287 0.9035 -106.7919 199.4165)" fill="#D1D3D3" stroke="#FFFFFF" stroke-miterlimit="10" width="5.803" height="0.949"/>
		
			<rect x="384.569" y="332.4" transform="matrix(0.9035 -0.4287 0.4287 0.9035 -105.2881 198.2355)" fill="#D1D3D3" stroke="#FFFFFF" stroke-miterlimit="10" width="5.803" height="0.949"/>
		
			<rect x="382.722" y="328.458" transform="matrix(0.9035 -0.4287 0.4287 0.9035 -103.7769 197.0632)" fill="#D1D3D3" stroke="#FFFFFF" stroke-miterlimit="10" width="5.803" height="0.949"/>
		
			<rect x="380.852" y="324.529" transform="matrix(0.9035 -0.4287 0.4287 0.9035 -102.2728 195.8821)" fill="#D1D3D3" stroke="#FFFFFF" stroke-miterlimit="10" width="5.803" height="0.949"/>
		
			<rect x="378.981" y="320.599" transform="matrix(0.9034 -0.4287 0.4287 0.9034 -100.7783 194.7355)" fill="#D1D3D3" stroke="#FFFFFF" stroke-miterlimit="10" width="5.803" height="0.949"/>
		
			<rect x="377.11" y="316.669" transform="matrix(0.9035 -0.4287 0.4287 0.9035 -99.2649 193.5196)" fill="#D1D3D3" stroke="#FFFFFF" stroke-miterlimit="10" width="5.803" height="0.949"/>
		
			<rect x="373.017" y="347.85" transform="matrix(0.9034 -0.4287 0.4287 0.9034 -113.0381 194.8121)" fill="#D1D3D3" stroke="#FFFFFF" stroke-miterlimit="10" width="5.804" height="0.949"/>
		
			<rect x="371.12" y="343.919" transform="matrix(0.9035 -0.4287 0.4287 0.9035 -111.5244 193.5824)" fill="#D1D3D3" stroke="#FFFFFF" stroke-miterlimit="10" width="5.803" height="0.949"/>
		
			<rect x="369.25" y="339.99" transform="matrix(0.9035 -0.4287 0.4287 0.9035 -110.0206 192.4012)" fill="#D1D3D3" stroke="#FFFFFF" stroke-miterlimit="10" width="5.803" height="0.949"/>
		
			<rect x="367.426" y="336.053" transform="matrix(0.9035 -0.4287 0.4287 0.9035 -108.5095 191.2397)" fill="#D1D3D3" stroke="#FFFFFF" stroke-miterlimit="10" width="5.803" height="0.95"/>
		
			<rect x="365.58" y="332.117" transform="matrix(0.9035 -0.4287 0.4287 0.9035 -107.0001 190.0679)" fill="#D1D3D3" stroke="#FFFFFF" stroke-miterlimit="10" width="5.803" height="0.949"/>
		
			<rect x="363.663" y="328.189" transform="matrix(0.9034 -0.4287 0.4287 0.9034 -105.5117 188.9009)" fill="#D1D3D3" stroke="#FFFFFF" stroke-miterlimit="10" width="5.803" height="0.949"/>
		
			<rect x="361.792" y="324.258" transform="matrix(0.9034 -0.4287 0.4287 0.9034 -104.0069 187.719)" fill="#D1D3D3" stroke="#FFFFFF" stroke-miterlimit="10" width="5.803" height="0.949"/>
		
			<rect x="359.966" y="320.329" transform="matrix(0.9035 -0.4287 0.4287 0.9035 -102.4883 186.5217)" fill="#D1D3D3" stroke="#FFFFFF" stroke-miterlimit="10" width="5.802" height="0.949"/>
		
			<rect x="358.074" y="316.388" transform="matrix(0.9035 -0.4287 0.4287 0.9035 -100.9824 185.3319)" fill="#D1D3D3" stroke="#FFFFFF" stroke-miterlimit="10" width="5.803" height="0.949"/>
		
			<rect x="356.204" y="312.459" transform="matrix(0.9035 -0.4287 0.4287 0.9035 -99.4783 184.1509)" fill="#D1D3D3" stroke="#FFFFFF" stroke-miterlimit="10" width="5.803" height="0.949"/>
		<path fill="#D1D3D3" stroke="#FFFFFF" stroke-miterlimit="10" d="M366.763,307.561c0.435,0.922,19.987,43.798,20.72,45.425
			L366.763,307.561l-0.516,0.244c0.435,0.922,20.557,45.045,20.746,45.479l1.031-0.461c-0.19-0.434-20.341-44.557-20.747-45.479
			L366.763,307.561z"/>
	</g>
	<g id="r181">
		<path id="_x31_81" fill="#D1D3D3" stroke="#FFFFFF" stroke-miterlimit="10" d="M451.564,470.087h-15.893v14.618l0,0
			c-0.107,9.221-0.081,22.237,0,27.607h15.893V470.087z"/>
	</g>
	<g id="r144">
		<path fill="#D1D3D3" stroke="#FFFFFF" stroke-miterlimit="10" d="M404.648,542.551v20.746h9.355v-20.746
			C411.347,542.551,407.36,542.551,404.648,542.551z"/>
	</g>
	<g id="r182-183">
		<rect x="372.188" y="484.705" fill="#D1D3D3" stroke="#FFFFFF" stroke-miterlimit="10" width="15.023" height="27.607"/>
		<g id="_x31_82">
			<rect x="387.211" y="484.705" fill="#D1D3D3" stroke="#FFFFFF" stroke-miterlimit="10" width="16.868" height="27.607"/>
		</g>
	</g>
	<path fill="#D1D3D3" stroke="#FFFFFF" stroke-miterlimit="10" d="M526.414,351.738h-9.112l1.709-11.2l-28.503-11.2h-8.568
		c-0.027,8.217-0.163,50.225,0.188,51.229c0.38,1.112,0.76,7.105,5.234,7.485c1.601,0.136,15.104,1.383,32.679,3.743
		c0.841-6.238,2.848-17.764,3.499-21.343h-5.479L526.414,351.738z"/>
	<polygon id="k103-2a" fill="#D1D3D3" stroke="#FFFFFF" stroke-miterlimit="10" points="271.103,493.404 274.054,496.786 
		282.175,488.418 279.912,485.634 	"/>
	
		<rect id="g07" x="503.595" y="753.616" transform="matrix(-0.9993 0.0372 -0.0372 -0.9993 1068.1113 1493.571)" fill="#D1D3D3" width="33.14" height="6.206"/>
</g>
<g id="signs">
	<g id="escalator_6_">
		<rect id="escalator_18_" x="265.336" y="416.852" width="12.204" height="12.204"/>
		<rect id="escalator_17_" x="228.399" y="499.295" width="12.204" height="12.204"/>
		<rect id="escalator_16_" x="265.173" y="500.76" width="12.204" height="12.203"/>
		<rect id="escalator_15_" x="360.091" y="590.85" width="12.204" height="12.204"/>
		<rect id="escalator_14_" x="416.093" y="522.482" width="12.204" height="12.202"/>
		<rect id="escalator_13_" x="500.434" y="642.024" width="12.204" height="12.202"/>
		<rect id="escalator_12_" x="729.051" y="496.366" width="12.203" height="12.203"/>
		<rect id="escalator_19_" x="590.66" y="520.476" width="12.204" height="12.203"/>
		<rect id="escalator_11_" x="633.997" y="443.049" width="12.203" height="12.204"/>
		<rect id="escalator_10_" x="465.938" y="498.562" width="12.203" height="12.203"/>
		<rect id="escalator_9_" x="458.264" y="418.181" width="12.203" height="12.204"/>
		<rect id="escalator_8_" x="501.221" y="399.089" width="12.203" height="12.204"/>
		<rect id="escalator_7_" x="387.562" y="405.19" width="12.203" height="12.204"/>
		<rect id="escalator_26_" x="442.832" y="520.476" width="12.204" height="12.203"/>
		<rect id="escalator_1_" x="512.638" y="740.778" width="12.204" height="12.203"/>
	</g>
	<g id="entrance_1_">
		<rect id="entrance" x="461.979" y="640.126" width="12.204" height="12.204"/>
		<rect id="entrance_2_" x="587.541" y="585.697" width="12.204" height="12.204"/>
		<rect id="entrance_3_" x="666.134" y="586.186" width="12.203" height="12.203"/>
		<rect id="entrance_4_" x="704.751" y="569.263" width="12.204" height="12.204"/>
		<rect id="entrance_5_" x="811.222" y="495.2" width="12.204" height="12.203"/>
		<rect id="entrance_6_" x="462.819" y="298.042" width="12.204" height="12.204"/>
		<rect id="entrance_7_" x="353.067" y="363.861" width="12.202" height="12.204"/>
		<rect id="entrance_8_" x="182.432" y="560.991" width="12.204" height="12.204"/>
	</g>
	<g id="elevator_13_">
		<rect id="elevator_19_" x="594.729" y="556.002" width="12.203" height="12.203"/>
		<rect id="elevator_18_" x="355.236" y="559.717" width="12.204" height="12.204"/>
		<rect id="elevator_17_" x="272.278" y="468.08" width="12.204" height="12.204"/>
		<rect id="elevator_16_" x="333.785" y="381.76" width="12.204" height="12.204"/>
		<rect id="elevator_15_" x="623.041" y="391.224" width="12.203" height="12.204"/>
		<rect id="elevator_14_" x="754.488" y="548.896" width="12.204" height="12.202"/>
	</g>
	<rect id="prayer_room" x="333.649" y="366.193" width="12.204" height="12.204"/>
	<g id="toilet_5_">
		<rect id="toilet_4_" x="373.977" y="459.836" width="12.203" height="12.204"/>
		<rect id="toilet_3_" x="535.255" y="459.674" width="12.204" height="12.203"/>
	</g>
	<g id="family_room_4_">
		<rect id="family_room_3_" x="389.136" y="473.722" width="12.204" height="12.203"/>
		<rect id="family_room_2_" x="550.523" y="473.722" width="12.203" height="12.203"/>
	</g>
	<g id="handicap_6_">
		<rect id="handicap_3_" x="535.337" y="473.722" width="12.203" height="12.203"/>
		<rect id="handicap_2_" x="373.977" y="473.722" width="12.203" height="12.203"/>
	</g>
	<g id="kid_toilet_2_">
		<rect id="kid_toilet" x="389.136" y="459.836" width="12.204" height="12.204"/>
		<rect id="kid_toilet_1_" x="550.442" y="459.674" width="12.202" height="12.203"/>
	</g>
	<rect id="information" x="483.457" y="395.156" width="12.204" height="12.204"/>
	<g id="ATM_3_">
		<rect id="ATM_2_" x="216.738" y="484.515" width="12.204" height="12.204"/>
		<rect id="ATM_4_" x="594.891" y="569.995" width="12.204" height="12.204"/>
	</g>
</g>
</svg>
