<?xml version="1.0" encoding="utf-8"?>
<!-- Generator: Adobe Illustrator 16.0.0, SVG Export Plug-In . SVG Version: 6.00 Build 0)  -->
<!DOCTYPE svg PUBLIC "-//W3C//DTD SVG 1.1//EN" "http://www.w3.org/Graphics/SVG/1.1/DTD/svg11.dtd">
<svg version="1.1" id="Layer_1" xmlns="http://www.w3.org/2000/svg" xmlns:xlink="http://www.w3.org/1999/xlink" x="0px" y="0px"
	 width="1000px" height="1000px" viewBox="0 0 1000 1000" enable-background="new 0 0 1000 1000" xml:space="preserve">
<g id="background">
	<rect y="186.202" fill="#EDEFEF" width="1000" height="627.597"/>
</g>
<g id="etc">
	<path fill="#FFFFFF" d="M10.549,508.569l22.78-17.952h9.763c0,0,17.356-28.91,37.967-47.567s96.545-69.669,120.41-84.856
		c23.865-15.187,46.646-34.713,52.069-42.306c5.424-7.594,42.306-32.543,42.306-32.543l-6.508-9.763l20.61-11.933l7.594,8.679
		c0,0,105.358-64.002,160.601-62.917c55.242,1.084,133.373,26.033,133.373,26.033v-14.102l22.482,4.339l6.102,21.695
		c0,0,55.188,20.61,101.186,92.205c45.995,71.596,121.929,142.27,121.929,142.27l78.104,112.466l20.609-16.925l23.864,10.821
		c0,0-56.408,99.608-69.425,113.711c-13.021,14.104-90.036,64.002-118.241,68.341c-28.204,4.339-355.236,17.355-355.236,17.355
		c-22.97-8.896-53.968-21.723-89.766-39.052c-89.222-43.175-151.353-86.811-189.564-113.9
		C120.166,601.914,67.337,561.046,10.549,508.569z"/>
	<path fill="#FFFFFF" stroke="#FFFFFF" stroke-miterlimit="10" d="M858.735,538.916c-6.373-0.38-16.923-0.271-16.923-0.271
		l-9.41-12.202c0,0-0.108-22.861-1.004-31.702l-21.831-28.666l-19.336-21.182l-43.419-54.619l-16.979-8.787l-37.425-23.458
		l-3.607,5.125l11.229-15.919l-27.336-15.35l5.288-12.854l-69.971-26.686l4.772-8c0,0,4.123,3.363,8.245,4.502
		c4.122,1.112,12.719,4.122,19.092-1.763s-1.112-7.566-1.112-7.566s-30.347-14.238-39.702-18.359
		c-8.462-3.716-44.365-13.234-51.256-15.052l-5.15,12.854l-12.964-3.553c0.161-0.407,2.25-0.354,4.395-2.008
		c2.143-1.653,2.359-3.634,2.115-5.369c-0.624-4.366-8.519-6.156-13.102-6.373c-9.166-0.407-16.055,5.152-21.449,9.491
		c-6.511,5.234-8.65,9.709-9.409,11.499c-0.271,0.679-1.248,3.037-1.709,5.967c-1.654,10.929,6.129,15.783,7.729,28.204
		c0.299,2.359,0.896,6.916-0.217,11.606c-3.443,4.339-6.671,8.461-9.355,11.904c-4.664,2.333-9.845,2.713-13.126,2.956
		c-3.553,0.271-19.742,1.465-25.814-8.243c-5.645-8.978,0.353-22.563,1.627-25.465c3.037-6.889,6.94-10.115,7.729-18.333
		c0.22-2.306,0.488-5.614-1.003-9.356c-3.037-7.565-10.767-10.359-12.096-10.848c-11.362-4.096-21.831,3.362-22.834,4.122
		l-10.333,2.062c-0.325-0.841-0.515-1.329-0.515-1.329s-1.928,0.896-5.183,2.469l0,0c-18.793,8.922-82.496,39.377-85.046,43.229
		l16.462,35.688l-18.469,5.479c-2.359-4.963-8.488-17.709-8.488-17.709l-23.458,7.973l-36.801,41.086
		c-1.248,0.949-24.272,19.417-34.903,27.906c-7.512,3.688-37.587,16.109-44.909,18.333c-8.245,2.495-16.977,7.24-21.723,10.739
		c-4.746,3.498-21.452,15.729-21.452,15.729s-20.285,21.207-20.367,21.723c-0.081,0.487-7.078,7.62-7.078,7.62
		s-4.99,6.861-2.495,11.119c2.495,4.258,60.639,58.145,60.639,58.145l10.224-0.486c0.407,0.082,2.115,0.353,3.146,1.354
		c-0.081,0.08-0.163,0.161,0,0c2.17,2.007,5.126,5.775,7.594,5.642c1.898-0.107,5.288-0.461,9.058-1.521
		c6.617,8.027,13.424,20.231,13.424,20.231l8.244,12.719c0,0,10.848-7.27,15.485-9.79c0.624-0.326,14.509-0.948,14.509-0.948H258.8
		h14.78l0.732,1.029v0.244v10.439c-3.959-0.082-39.458-0.705-45.344,0c-6.237,0.761-9.736,10.495-9.736,10.495
		s37.696,28.203,38.944,28.963c1.247,0.762,2.739,1.005,2.739,1.005v-32.19l4.502,0.761c0,0-0.488,31.701,0,35.2
		c0.379,2.604,6.265,4.229,8.895,4.908c0-3.933,0-9.465,0-15.919v13.994h16.76c0,2.031,0.027,3.715,0.054,4.987v1.492v3.497
		c0,0,32.679,6.728,46.917,9.356c3.363,0.379,6.727,1.109,10.115,1.109c1.492,0,2.981-0.76,3.743-2.251c0.38-0.38,0-0.76,0.38-1.109
		c0.379-0.354,1.109-0.762,1.49-0.762c3.741,0.381,7.483,0.762,11.605,1.111c11.987,1.871,23.188,3.823,35.201,5.993
		c10.277,1.844,31.188,4.122,30.835,4.746c4.475-0.082,8.923-0.437,11.824-3.635c3.74-4.122,5.231-9.355,9.732-13.101
		c1.492-1.11,3.363-1.49,4.854-2.631c1.111-0.38,1.872-0.76,2.98-1.111c2.251-0.76,4.503-1.109,6.861-1.384H457.8
		c7.403-1.951,16.163-3.146,25.709-2.275c0,0.435,0,0.648,0,0.648h5.207c2.007,0.325,4.04,0.76,6.074,1.274h-19.255
		c5.262,0.298,10.495,1.844,13.343,6.59c3.96,6.59,9.384,11.96,13.967,18.089c1.41,1.601,2.983,3.254,7.105,2.495
		c5.722,0,11.441,0.73,17.166,0c7.35-0.922,9.059-2.901,9.004-10.034l-0.136-17.167h-7.566l1.546-3.417h3.417h0.949h3.417h0.949
		h3.417h0.946h3.417h0.949l0.76,3.417h-4.177c0.38,7.052,0.732,13.75,1.112,20.802c0,1.11,0.759,2.251,1.111,3.361
		c0.38,0.38,1.109,0.76,1.489,1.112c0.762,0.38,1.111,0.76,1.871,0.76c1.491,0,2.63,0.759,4.122,0.379
		c13.857-2.63,26.577-4.854,40.438-7.863c1.869-0.381,6.048-1.005,7.619-3.554c0-5.804,0-11.037,0-11.037h7.975
		c0,0,0.136,6.429,0.055,10.034c0.379,1.871,2.688,2.687,4.938,2.306c1.488-0.381,2.98-1.109,4.502-1.489
		c49.791-12.722,96.22-26.577,142.62-46.431c0.76-0.381,1.109,0,1.871-0.381c1.489-0.759,2.98-1.49,4.502-2.63
		c1.489-1.492,1.489-3.362,0.76-5.233c-1.871-5.612-4.122-10.494-6.373-16.107c-1.112-1.871-1.871-3.742-3.362-5.613
		c-0.76-1.111-2.251-1.111-3.362-1.49c-1.869-0.761-3.74-1.11-5.611-0.761c-0.027-0.244,0-0.353,0.054-0.406
		c0.136-1.789-1.085-3.852-0.054-5.587c5.23,0,10.848,0.381,14.97,3.742c2.983,8.244,5.993,16.109,9.735,23.946
		c0.76,1.492,1.871,2.981,2.98,4.122c7.485-3.362,16.841-4.854,23.214-10.115c0-1.871-1.87-2.631-2.979-4.122
		c-4.122-6.373-11.607-7.864-17.98-10.495c0-2.98,0-5.613,0-8.597c12.721-1.871,23.946,7.864,31.079,17.601
		c1.491,0,2.63-0.38,3.742-0.76c12.366-5.233,24.326-10.115,36.692-15.35c3.36-1.491,6.726-2.983,9.733-5.234
		c2.25-1.871,4.502-2.63,6.373-4.501c1.491-1.872,2.793-3.119,4.122-5.233C876.933,544.53,865.922,538.021,858.735,538.916z
		 M172.723,546.211c0.027-0.026,0.027-0.026,0.027-0.026c0.949-1.085,2.386-2.875,3.932-4.744c0.054,0.025,0.108,0.054,0.163,0.079
		C175.246,543.337,173.89,544.909,172.723,546.211z M256.875,378.992c-2.088-2.007-3.824-3.634-4.854-4.501
		C253.268,375.549,254.977,377.121,256.875,378.992C256.902,378.992,256.902,378.992,256.875,378.992z M529.831,255.627
		c0.027-0.055,0.027-0.109,0.055-0.136L529.831,255.627z"/>
	<path fill="#999999" d="M435.537,713.375c-0.569-5.613,0.027-23.024,0.027-23.024s1.651-6.183-7.322-7.862
		c-8.978-1.683-116.233-12.366-143.733-26.957c-4.827-2.576-13.966-2.276-21.343-6.728c-34.577-20.854-86.484-60.991-86.484-60.991
		l-85.914-82.197c0,0-10.658-5.044-14.59-2.819c-3.932,2.251-7.865,10.387-7.865,10.387l52.774,43.526c0,0,3.933-3.362,8.977,0
		s53.914,42.687,53.914,42.687s5.044,3.935,4.501,7.295c-0.569,3.363,3.933,7.865,3.933,7.865s77.29,52.772,100.423,64.001
		s67.474,37.614,69.724,37.614c2.252,0,12.367,5.613,21.888,4.501c9.546-1.11,43.229,0.137,43.229,0.137
		S436.105,718.989,435.537,713.375z"/>
	<path fill="#999999" d="M453.192,723.49c0,0,68.283,1.109,76.147,0c7.865-1.111,8.027-6.186,8.027-6.186
		s-1.844-23.022-2.982-29.208c-1.109-6.183-9.546-4.501-9.546-4.501s-75.229,0-78.05,0s-5.044,8.978-5.044,8.978
		s-1.112,18.521,0,23.596C442.859,721.24,453.192,723.49,453.192,723.49z"/>
	<path fill="#999999" d="M856.104,584.016c-2.25,3.146-78.616,32.22-89.273,36.722c-10.658,4.502-96.572,34.252-117.346,40.437
		c-20.773,6.183-103.325,19.092-107.803,19.66c-4.475,0.569-4.312,10.115-4.312,10.115s2.089,18.521,3.2,24.706
		c1.109,6.185,11.797,3.36,13.479,3.934c1.685,0.568,53.913-5.046,71.866-11.798c17.979-6.727,85.914-25.274,103.867-32.569
		c17.979-7.296,66.821-25.273,81.979-32.001c15.159-6.727,92.643-39.866,97.145-44.367c4.502-4.502-2.251-8.813-2.251-8.813
		s-11.798-12.528-15.16-17.029c-3.362-4.502-12.908,0-12.908,0S858.355,580.869,856.104,584.016z"/>
	<path fill="#999999" d="M796.604,661.713c-4.502,1.682-61.207,20.908-62.89,21.694c-1.682,0.787-8.435,3.012-6.726,10.875
		c1.682,7.864,12.908,8.978,11.228,5.613c-1.682-3.362-2.251-7.864-2.251-7.864l27.526-11.229l2.251,7.865l4.501,1.11l6.727-3.362
		l-2.818-7.864l13.479-5.611l8.979,22.453l6.726-2.819l5.045,17.979l-5.614,4.502c0,0,5.614,7.295-5.61,12.909
		c-11.229,5.612-55.025,25.274-55.025,25.274l0.569,2.819l-34.252,12.365l-3.362-3.934c0,0-10.658,5.614-15.16,5.614
		s-11.228-3.363-11.228-3.363s-6.729,1.683-7.297,0c-0.567-1.682-5.449-19.661-5.449-19.661l4.882-2.25l-4.882-20.828l4.312-3.146
		l-1.682-9.142l25.272-5.611l1.112,6.726l10.115-3.362l-3.363-5.749l6.186-4.364l2.818,7.862c0,0,3.936,1.41,3.363-3.498
		c-0.57-4.906,0-11.66-10.658-8.299c-10.658,3.362-35.608,11.229-37.452,11.797c-1.844,0.569-10.276,5.938-8.597,12.528
		c1.682,6.563,7.295,17.248,2.819,27.906c-4.502,10.658-5.045,13.479-14.592,15.158c-9.546,1.683-9.546,1.683-9.546,1.683
		l-0.567,7.295l-106.118,6.186l-1.684-6.728l-27.635,0.569c0,0-10.55,0-27.96-7.864c-17.411-7.864-46.049-25.274-46.049-25.274
		l-17.98-4.502c0,0-10.113,2.819-3.933,6.728c6.184,3.933,10.116,2.251,10.116,2.251l53.561,28.066l32.221,12.366h23.699
		l194.854-11.229c0,0,5.045,1.11,20.771-7.864c15.729-8.979,64.003-35.934,64.003-35.934s12.365-11.798,12.365-17.979
		c0-6.181,0-19.092,0-19.092s-10.656-21.887-10.656-23.595C805.012,666.215,801.079,660.031,796.604,661.713z"/>
	<path fill="#999999" d="M495.064,762.243l64.002-3.932l1.681-7.298l66.253-3.93l4.285,8.435
		c8.786-1.682,17.058-11.174,17.058-11.174s-3.932-17.465-7.295-24.599c-3.362-7.132-24.706,0-24.706,0s-21.343,3.771-29.207,4.259
		c-7.865,0.487-93.776,5.668-95.46,6.81c-1.682,1.139,0.569,3.932,0.569,3.932l66.822-3.932c0,0,0,7.862,0,11.797
		c0,3.933-69.778,0-69.778,0s-12.746,3.933-13.019,10.655C475.998,759.992,495.064,762.243,495.064,762.243z"/>
	<path fill="#999999" d="M925.747,620.898c0,0-3.362-7.104-5.613-11.229s-9.329,0-9.329,0l-7.512,3.361
		c0,0-18.902,9.329-26.686,14.075c-1.817,1.11-3.038,1.979-3.256,2.387c-1.111,2.251,5.991-1.111,5.991-1.111l22.835-10.849
		c0,0,6.729,11.229,8.301,13.479c1.547,2.251-2.688,7.104-2.688,7.104l-36.312,41.547l-32.57,14.237l-17.221-39.298
		c0,0,16.76-7.7,24.353-10.631c3.854-1.489-0.023-2.468-0.023-2.468s-23.597,9.355-30.319,12.719
		c-6.729,3.363,2.604,13.479,2.604,13.479s7.864,25.815,8.6,31.813c0.759,5.993-1.492,20.204-1.492,20.204l48.3-27.688
		c0,0,48.3-55.784,52.042-61.021C929.489,625.753,925.747,620.898,925.747,620.898z"/>
	<path fill="#999999" d="M459.999,291.587c-0.949,2.604-1.491,5.37-1.573,8.163c-0.081,3.118,0.461,6.427,2.495,8.813
		c1.438,1.681,3.472,2.712,5.532,3.444c4.882,1.682,10.441,1.708,15.078-0.569c4.607-2.305,8.082-7.104,8.137-12.258
		c0.054-5.994-4.068-11.064-6.265-16.651c-3.638-9.274-1.438-20.528,5.396-27.771c2.576-2.712,5.723-4.909,7.756-8.027
		c0.681-1.029,1.224-2.358,0.681-3.471c-0.731-1.519-2.85-1.6-4.528-1.438c-6.617,0.624-13.234,1.248-19.854,1.872
		c-3.418,0.325-12.825-0.434-12.015,5.425c0.298,2.143,1.816,3.851,3.064,5.613c5.099,7.132,6.346,17.031,2.631,24.95
		c-1.521,3.228-3.771,6.075-5.397,9.275C460.73,289.771,460.352,290.666,459.999,291.587z"/>
	<path fill="#999999" d="M265.363,628.519c0.379,2.604,6.265,4.229,8.895,4.909c-0.027-9.872,0.027-29.615,0-49.087
		c-3.959-0.081-39.458-0.705-45.344,0c-6.237,0.76-9.736,10.496-9.736,10.496s37.696,28.203,38.943,28.963
		c1.248,0.76,2.739,1.004,2.739,1.004v-32.189l4.502,0.761C265.363,593.317,264.875,625.021,265.363,628.519z"/>
	<path fill="#999999" d="M443.185,656.1c3.743-4.123,5.234-9.354,9.736-13.1c1.491-1.111,3.362-1.491,4.854-2.631
		c1.108-0.38,1.871-0.76,2.979-1.111c2.251-0.76,4.502-1.111,6.861-1.383l-176.547,0.136v3.498c0,0,32.679,6.728,46.917,9.355
		c3.36,0.38,6.726,1.109,10.113,1.109c1.491,0,2.983-0.759,3.742-2.25c0.38-0.38,0-0.76,0.38-1.11
		c0.381-0.38,1.112-0.762,1.491-0.762c3.743,0.382,7.485,0.762,11.607,1.112c11.985,1.87,23.188,3.823,35.2,5.992
		c10.277,1.846,31.188,4.122,30.836,4.746C435.836,659.625,440.256,659.271,443.185,656.1z"/>
	<path fill="#999999" d="M673.455,456.201l2.982,4.096l15.514-19.063l37.886-59.744l-37.425-23.458l-3.607,5.125l-4.583-1.953
		l-28.366,45.289l28.827,17.655l-2.712,4.771c0.461,0.136,1.085,0.324,1.79,0.678c0.438,0.22,1.329,0.65,2.227,1.467
		c0.679,0.597,1.601,2.224,2.031,3.361c0.302,0.759,0.354,1.683-0.024,2.687c-0.379,1.028-1.111,2.169-1.302,2.438
		C681.781,445.544,677.876,449.856,673.455,456.201z"/>
	<path fill="#999999" d="M81.928,473.775l5.044-5.426l10.658-11.605c0,0,8.787-8.978,10.305-12.176c1.518-3.2-3.553-0.57-3.932,0
		c-0.38,0.567-8.977,8.242-8.977,8.242l-14.4,14.592c0,0-3.363,4.122-3.363,6.373S81.928,473.775,81.928,473.775z"/>
	<path fill="#999999" d="M98.66,487.254c2.495,4.229,60.639,58.146,60.639,58.146l10.224-0.487c0.407,0.081,2.115,0.354,3.146,1.354
		c0.244-0.271-0.271,0.325,0,0L111.542,488.8l35.987-38.211l69.154-48.544c-7.512,3.688-37.587,16.108-44.909,18.333
		c-8.245,2.494-16.977,7.24-21.723,10.739c-4.746,3.498-21.452,15.729-21.452,15.729s-20.285,21.208-20.367,21.725
		c-0.081,0.517-7.078,7.621-7.078,7.621S96.166,482.995,98.66,487.254z"/>
	<polygon fill="#999999" points="790.231,444.894 746.786,390.302 729.81,381.488 691.924,441.232 	"/>
	<path fill="#999999" d="M803.873,493.246v16.813h5.694v51.312H676.411v1.897c0,0,0.516,0,1.492,0.026c0,0,0,19.036,0.729,19.28
		c0.759,0.244,18.227-6.236,22.454-8.487c4.231-2.251,2.983-4.989,2.983-4.989v-5.425c7.051,0.108,14.97,0.189,23.238,0.299
		l0.463,0.325l17.979,1.329l1.003,9.491l6.238,16.461c0,0,2.956-0.977,3.959-1.52c1.004-0.541,3.878-0.3,4.421,1.086
		c0.515,1.326,1.383,3.932,1.383,4.936s-5.479,3.498-5.479,3.498s0,3.499,0,4.502c0,1.005-100.314,33.194-100.314,33.194h-35.554
		l0.024,4.608l-9.651-0.106l0.136-4.204h-2.197v2.144l-10.657,0.026l-0.188-2.195l-7.539,0.354c0,0-1.247,17.354-17.98,17.844
		c-15.537,0.462-18.573-15.863-18.929-18.195h-10.521c0.38,7.052,0.729,13.749,1.109,20.802c0,1.11,0.762,2.25,1.111,3.361
		c0.38,0.38,1.112,0.76,1.491,1.11c0.76,0.38,1.11,0.761,1.872,0.761c1.491,0,2.63,0.76,4.122,0.38
		c13.854-2.631,26.575-4.854,40.435-7.862c1.871-0.382,6.048-1.006,7.621-3.555c0-5.805,0-11.038,0-11.038h7.973
		c0,0,0.139,6.43,0.058,10.034c0.379,1.87,2.685,2.687,4.936,2.307c1.491-0.381,2.983-1.111,4.502-1.491
		c49.791-12.72,96.22-26.577,142.62-46.429c0.76-0.381,1.112,0,1.871-0.381c1.492-0.761,2.982-1.49,4.502-2.631
		c1.492-1.491,1.492-3.361,0.76-5.232c-1.871-5.613-4.122-10.495-6.373-16.108c-1.109-1.87-1.871-3.741-3.36-5.613
		c-0.762-1.109-2.25-1.109-3.362-1.49c-1.871-0.76-3.742-1.11-5.613-0.76c-0.024-0.244,0-0.354,0.057-0.405
		c0.136-1.79-1.086-3.854-0.057-5.587c5.233,0,10.851,0.38,14.973,3.741c2.979,8.244,5.99,16.107,9.732,23.945
		c0.76,1.491,1.871,2.982,2.983,4.122c7.482-3.362,16.841-4.854,23.214-10.115c0-1.871-1.871-2.631-2.982-4.122
		c-4.122-6.373-11.604-7.864-17.979-10.495c0-2.98,0-5.611,0-8.598c12.719-1.871,23.943,7.865,31.079,17.602
		c1.488,0,2.63-0.38,3.739-0.76c12.366-5.231,24.326-10.115,36.692-15.35c3.362-1.492,6.729-2.982,9.735-5.233
		c2.252-1.871,4.502-2.632,6.374-4.503c1.488-1.87,2.793-3.118,4.122-5.232c5.098-8.243-5.912-14.754-13.102-13.856
		c-6.373-0.38-16.923-0.271-16.923-0.271l-9.41-12.202c0,0-0.105-22.861-1.004-31.702l-21.831-28.665V493.2h-5.722L803.873,493.246
		L803.873,493.246z"/>
	<path fill="#999999" d="M523.919,640.75h-7.431v-3.229h-40.95c5.262,0.299,10.495,1.845,13.343,6.591
		c3.96,6.59,9.384,11.96,13.967,18.089c1.41,1.601,2.983,3.254,7.105,2.495c5.722,0,11.443,0.729,17.166,0
		c7.35-0.923,9.059-2.901,9.004-10.034l-0.136-17.167h-12.041v3.256H523.919z"/>
	<polygon fill="#999999" points="529.913,255.41 500.949,333.433 519.011,340.511 517.302,351.738 526.414,351.738 526.414,360.877 
		537.614,363.156 558.442,307.561 688.778,363.156 700.006,347.236 672.669,331.887 677.957,319.031 539.893,266.394 
		542.876,258.936 	"/>
	<path fill="#999999" d="M285.838,385.421l15.973,11.985l5.614,12.231l36.122-17.764l-5.855-14.265l12.801-5.938L338.75,337.23
		c0,0-18.225,6.237-18.468,5.478c-0.244-0.759-8.489-17.709-8.489-17.709l-23.458,7.974l-36.747,41.14c0,0,0.136-0.107,0,0
		c5.017,4.204,20.611,19.906,24.326,23.458L285.838,385.421z"/>
	<g>
		<path fill="#999999" d="M536.395,248.034c-0.621-4.366-8.516-6.156-13.099-6.373c-9.167-0.407-16.055,5.152-21.452,9.491
			c-6.508,5.234-8.647,9.709-9.41,11.499c-0.271,0.679-1.246,3.037-1.708,5.967c-1.651,10.929,6.132,15.783,7.729,28.204
			c0.461,3.553,1.573,12.096-3.498,18.604c-5.315,6.834-14.347,7.512-19.229,7.864c-3.555,0.271-19.742,1.464-25.817-8.244
			c-5.642-8.978,0.353-22.563,1.628-25.465c3.037-6.889,6.942-10.115,7.729-18.333c0.22-2.306,0.488-5.614-1.003-9.356
			c-3.038-7.565-10.767-10.358-12.096-10.848c-11.363-4.095-21.831,3.363-22.834,4.122c0,0-3.363,1.872-0.76,7.484
			c2.631,5.613,16.106,35.553,16.106,35.553l-12.364,6.373l8.243,17.98l-31.813,15.349l3.986,25.954c0,0,0.055,0,0,0l0,0
			c0,0,7.646,3.063,7.892,2.82c0.271-0.841-0.353-8.136-1.058-14.21l0,0l14.941-2.144l6.268-20.745l43.472-0.271l3.688-0.108
			c0,0,0,0.055,0,0.163h8.569l10.414,4.096c0,0,28.855-77.725,28.964-78.022c0.162-0.406,2.251-0.353,4.396-2.007
			C536.448,251.749,536.665,249.77,536.395,248.034z"/>
	</g>
	<ellipse fill="#999999" cx="468.677" cy="659.76" rx="11.797" ry="5.885"/>
	<path fill="#999999" d="M844.633,535.174c0,0,17.98,0.244,17.98,0S837.42,501.98,837.42,501.98l-2.008,22.211
		C836.877,525.194,844.633,535.174,844.633,535.174z"/>
	<path fill="#999999" d="M291.1,573.872h-16.814v57.63H291.1C290.937,616.992,290.937,593.209,291.1,573.872z"/>
	<path fill="#999999" d="M422.98,282.096c-0.762-1.491-10.496-26.197-10.496-26.197s-87.216,41.167-90.228,45.669l6.728,15.351
		c0,0,4.122,2.982,3.36,0c-0.759-2.983-2.251-16.109,3.363-19.473c5.613-3.362,8.979-7.864,15.729-6.726
		c6.727,1.112,16.842,8.597,18.332,10.848c1.491,2.251,7.104-1.491,7.104-1.491s-1.871-14.237,0-15.729s5.614-6.726,10.495-8.244
		c4.854-1.492,11.606-3.363,15.729-2.251s12.366,11.229,12.366,11.229S423.713,283.614,422.98,282.096z"/>
	<path fill="#999999" d="M607.989,292.347l4.771-8c0,0,4.122,3.363,8.244,4.502c4.122,1.112,12.719,4.122,19.092-1.763
		s-1.109-7.566-1.109-7.566s-30.349-14.238-39.702-18.359c-8.462-3.716-44.367-13.234-51.256-15.052l-8.139,20.285L607.989,292.347z
		"/>
	<path fill="#999999" d="M548.625,569.954h8.19c0.081-9.402,0.081-22.604,0-26.929h-8.19V569.954z"/>
	<path fill="#999999" d="M285.594,492.488l7.241,6.915c0,0,4.938-6.915,2.495-10.308c-2.441-3.36-2.495-2.63-2.495-2.63
		L285.594,492.488z"/>
	<polygon fill="#999999" points="284.103,491.188 291.018,484.622 287.465,482.183 282.476,483.268 279.399,485.634 281.395,488.09 
		281.472,488.014 	"/>
	<path fill="#999999" d="M219.884,523.296c0.949,1.22,6.563,7.402,6.563,7.402l4.854-4.502l-8.597-7.483L219.884,523.296z"/>
</g>
<g id="rooms">
	<rect x="516.488" y="637.521" fill="#D1D3D3" stroke="#FFFFFF" stroke-miterlimit="10" width="7.431" height="3.229"/>
	<rect x="459.294" y="438.329" fill="#D1D3D3" stroke="#FFFFFF" stroke-miterlimit="10" width="16.978" height="58.66"/>
	<rect x="459.294" y="549.899" fill="#D1D3D3" stroke="#FFFFFF" stroke-miterlimit="10" width="16.978" height="52.965"/>
	<path id="bath-body-works" fill="#D1D3D3" stroke="#FFFFFF" stroke-miterlimit="10" d="M439.063,447.28l-3.118-27.933
		c-4.017,0.353-10.632,0.976-16.326,1.653c0.812,5.561,3.146,23.459,3.77,28.179L439.063,447.28z"/>
	<path id="r157" fill="#D1D3D3" stroke="#FFFFFF" stroke-miterlimit="10" d="M368.146,465.775l13.396-3.58
		c-1.492-4.178-8.543-24.107-11.063-31.16c-4.827,1.79-9.629,4.041-12.504,6.292l4.803,14.454
		C365.162,457.91,367.332,463.578,368.146,465.775z"/>
	<path id="anello" fill="#D1D3D3" stroke="#FFFFFF" stroke-miterlimit="10" d="M393.915,425.07
		c1.807,7.327,6.02,28.114,7.025,32.414l6.603-1.48l0.123-4.992l-6.017-27.474C396.999,424.36,398.429,424.005,393.915,425.07z"/>
	<path id="innisfree" fill="#D1D3D3" stroke="#FFFFFF" stroke-miterlimit="10" d="M407.523,451.075l15.862-1.925
		c-1.166-8.65-3.062-23.458-3.77-28.177c-5.101,0.624-12.122,1.6-17.736,2.521L407.523,451.075z"/>
	
		<rect id="under-armour" x="404.079" y="484.704" fill="#D1D3D3" stroke="#FFFFFF" stroke-miterlimit="10" width="8.254" height="27.607"/>
	<path id="onitsuka-tiger" fill="#D1D3D3" stroke="#FFFFFF" stroke-miterlimit="10" d="M420.323,484.704
		c-0.136,9.683,0,27.607,0,27.607h15.35c-0.105-6.373-0.081-21.479,0-27.607H420.323L420.323,484.704z"/>
	<path id="victoria-s-secret" fill="#D1D3D3" stroke="#FFFFFF" stroke-miterlimit="10" d="M435.944,419.211l3.118,28.068
		l12.502-1.438v-18.495l-7.24-8.731C444.324,418.615,440.689,418.805,435.944,419.211z"/>
	<polygon fill="#D1D3D3" stroke="#FFFFFF" stroke-miterlimit="10" points="407.306,456.094 404.079,456.743 404.079,484.704 
		435.673,484.704 435.673,470.087 451.564,470.087 451.564,445.843 407.523,451.075 	"/>
	<path id="k104-3" fill="#D1D3D3" stroke="#FFFFFF" stroke-miterlimit="10" d="M311.791,498.102l7.621,9.817
		c0,0,3.797-22.185,4.095-24.407h-5.938l-12.123,10.145l2.604,4.445H311.791L311.791,498.102z"/>
	<path id="k104-2" fill="#D1D3D3" stroke="#FFFFFF" stroke-miterlimit="10" d="M298.476,481.694l6.972,11.96l12.123-10.145
		c-0.979-1.683-3.282-5.75-5.912-10.333C308.89,475.186,301.784,479.659,298.476,481.694z"/>
	<path id="k104-1" fill="#D1D3D3" stroke="#FFFFFF" stroke-miterlimit="10" d="M292.835,472.039l5.641,9.654
		c3.038-1.871,9.928-6.156,13.207-8.518c-2.332-4.065-5.641-9.79-7.238-12.665L292.835,472.039z"/>
	<g id="r184-186">
		<polygon fill="#D1D3D3" stroke="#FFFFFF" stroke-miterlimit="10" points="355.399,483.512 338.803,483.512 338.803,513.206 
			338.803,513.206 338.803,483.512 323.507,483.512 319.412,507.919 323.534,513.206 355.399,513.206 		"/>
		<rect x="355.399" y="483.512" fill="#D1D3D3" stroke="#FFFFFF" stroke-miterlimit="10" width="9.709" height="29.694"/>
	</g>
	<polygon id="r155-1" fill="#D1D3D3" stroke="#FFFFFF" stroke-miterlimit="10" points="325.677,450.697 338.07,474.209 
		345.176,470.954 332.158,447.688 	"/>
	<polygon id="r154-2" fill="#D1D3D3" stroke="#FFFFFF" stroke-miterlimit="10" points="338.07,474.209 325.677,450.697 
		319.276,453.653 331.508,477.164 	"/>
	<polygon id="r155-2" fill="#D1D3D3" stroke="#FFFFFF" stroke-miterlimit="10" points="339.697,444.188 332.158,447.688 
		345.176,470.954 351.549,468.054 	"/>
	<path id="r154-1" fill="#D1D3D3" stroke="#FFFFFF" stroke-miterlimit="10" d="M312.523,456.771l11.66,23.7l7.322-3.31
		c-1.628-3.28-12.229-23.539-12.229-23.539L312.523,456.771z"/>
	<path id="r153" fill="#D1D3D3" stroke="#FFFFFF" stroke-miterlimit="10" d="M317.595,483.512l6.591-3.038l-11.66-23.7l-8.108,3.741
		C305.934,463.227,315.724,480.23,317.595,483.512z"/>
	<path fill="#D1D3D3" stroke="#FFFFFF" stroke-miterlimit="10" d="M365.108,483.512v-6.997c0,0-2.956-7.594-6.267-15.944
		l-9.14,3.771l1.845,3.716l-33.979,15.433h47.54L365.108,483.512L365.108,483.512z"/>
	<path id="r156" fill="#D1D3D3" stroke="#FFFFFF" stroke-miterlimit="10" d="M339.697,444.188l10.007,20.179l9.14-3.771
		c-1.221-2.981-6.697-16.001-8.841-21.151L339.697,444.188z"/>
	<path fill="#D1D3D3" stroke="#FFFFFF" stroke-miterlimit="10" d="M404.648,571.865h22.672v-13.967h-7.946v-15.351
		c-1.274,0-4.067,0-5.37,0v20.746h-9.354L404.648,571.865L404.648,571.865z"/>
	<path fill="#D1D3D3" stroke="#FFFFFF" stroke-miterlimit="10" d="M355.526,542.551c-0.021,0-0.056,0-0.072,0
		c-4.231,0-5.75,2.115-5.75,2.115s0,2.253,0,4.701h5.822V542.551z"/>
	<path fill="#D1D3D3" stroke="#FFFFFF" stroke-miterlimit="10" d="M349.704,549.367c0,1.867,0,3.85,0,5.033
		c0.027,2.737,5.262,2.468,5.262,2.468h0.562v-7.501H349.704L349.704,549.367z"/>
	<path id="r147" fill="#D1D3D3" stroke="#FFFFFF" stroke-miterlimit="10" d="M355.526,542.551v14.317h9.663v14.971h6.479v-29.288
		C363.384,542.551,356.733,542.551,355.526,542.551z"/>
	<path id="r146-1" fill="#D1D3D3" stroke="#FFFFFF" stroke-miterlimit="10" d="M379.509,571.865h7.675v-29.314
		c-2.113,0-5.668,0-7.675,0V571.865z"/>
	<path id="r145-1" fill="#D1D3D3" stroke="#FFFFFF" stroke-miterlimit="10" d="M404.648,542.551c-2.552,0-6.834,0-9.356,0v29.314
		h9.356V542.551z"/>
	<path id="r145-2" fill="#D1D3D3" stroke="#FFFFFF" stroke-miterlimit="10" d="M395.265,542.551c-2.224,0-5.938,0-8.106,0v29.314
		h8.106V542.551z"/>
	<path id="r146-2" fill="#D1D3D3" stroke="#FFFFFF" stroke-miterlimit="10" d="M379.509,542.551c-2.196,0-5.804,0-7.811,0v29.314
		h7.811V542.551z"/>
	<path id="r177" fill="#D1D3D3" stroke="#FFFFFF" stroke-miterlimit="10" d="M532.516,485.003h-8.081v27.2h8.081
		c-0.054-0.518,0-1.653,0-4.396c0-2.631,0-6.129,0-9.602C532.516,492.597,532.516,486.982,532.516,485.003z"/>
	<path id="r162-2a" fill="#D1D3D3" stroke="#FFFFFF" stroke-miterlimit="10" d="M538.428,440.419
		c0.624-2.359,2.414-9.085,3.905-14.455c-1.898-0.38-5.261-1.03-7.159-1.354l-3.553,14.454L538.428,440.419z"/>
	<path id="r162-2b" fill="#D1D3D3" stroke="#FFFFFF" stroke-miterlimit="10" d="M549.846,427.536
		c-2.007-0.436-5.506-1.192-7.539-1.603c-1.19,4.366-2.686,9.953-3.902,14.455l6.129,1.247L549.846,427.536z"/>
	<path id="r163" fill="#D1D3D3" stroke="#FFFFFF" stroke-miterlimit="10" d="M566.226,431.931
		c-4.556-1.438-11.092-3.173-16.354-4.395l-5.288,14.103l15.893,3.282L566.226,431.931z"/>
	
		<rect id="r180-1" x="484.759" y="470.791" fill="#D1D3D3" stroke="#FFFFFF" stroke-miterlimit="10" width="16.732" height="41.438"/>
	<path id="r162-1" fill="#D1D3D3" stroke="#FFFFFF" stroke-miterlimit="10" d="M513.695,430.953l3.604,5.207l14.292,2.874
		l3.556-14.454c-6.132-1.111-13.644-2.277-19.119-3.063C515.458,424.093,514.319,428.078,513.695,430.953z"/>
	<g id="aldo">
		<path id="r174-1" fill="#D1D3D3" stroke="#FFFFFF" stroke-miterlimit="10" d="M563.595,485.003h-6.858v27.2h6.916
			C563.677,506.78,563.649,494.251,563.595,485.003z"/>
	</g>
	<g id="r175-176">
		<path fill="#D1D3D3" stroke="#FFFFFF" stroke-miterlimit="10" d="M540.408,512.203v-27.2h-7.896c0,8-0.023,26.495,0,27.146
			L540.408,512.203z"/>
		<rect x="540.408" y="485.003" fill="#D1D3D3" stroke="#FFFFFF" stroke-miterlimit="10" width="5.912" height="27.2"/>
	</g>
	<rect id="r174" x="546.32" y="485.003" fill="#D1D3D3" stroke="#FFFFFF" stroke-miterlimit="10" width="10.304" height="27.2"/>
	<path id="r166" fill="#D1D3D3" stroke="#FFFFFF" stroke-miterlimit="10" d="M584.612,469.653l11.743,6.292
		c2.112-4.609,8.841-18.713,12.312-25.898c-3.579-1.601-8.515-3.823-11.771-5.288L584.612,469.653z"/>
	<polygon fill="#D1D3D3" stroke="#FFFFFF" stroke-miterlimit="10" points="575.988,465.043 570.836,484.569 612.6,484.678 	"/>
	<path id="r171" fill="#D1D3D3" stroke="#FFFFFF" stroke-miterlimit="10" d="M596.681,512.203H612.6
		c0.139-5.804,0.139-19.525,0-27.525h-15.919V512.203L596.681,512.203z"/>
	<path id="r173" fill="#D1D3D3" stroke="#FFFFFF" stroke-miterlimit="10" d="M570.836,484.569v27.635h9.274
		c-0.026-6.86,0-23.812,0-27.525L570.836,484.569z"/>
	<rect id="r172-2" x="580.11" y="484.678" fill="#D1D3D3" stroke="#FFFFFF" stroke-miterlimit="10" width="8.082" height="27.525"/>
	
		<rect id="r172-1" x="588.192" y="484.678" fill="#D1D3D3" stroke="#FFFFFF" stroke-miterlimit="10" width="8.485" height="27.525"/>
	<path fill="#D1D3D3" stroke="#FFFFFF" stroke-miterlimit="10" d="M629.875,484.678h-8.949c0,3.797,0.026,20.691,0,27.525h8.949
		V484.678z"/>
	<path id="r170-2" fill="#D1D3D3" stroke="#FFFFFF" stroke-miterlimit="10" d="M620.926,484.678H612.6
		c0.058,3.797,0.163,20.609,0,27.525h8.326C620.979,505.396,620.952,488.393,620.926,484.678z"/>
	<path id="r165" fill="#D1D3D3" stroke="#FFFFFF" stroke-miterlimit="10" d="M575.988,465.043l8.624,4.609l12.284-24.896
		c-4.313-1.927-8.568-3.852-10.521-4.72L575.988,465.043z"/>
	<path id="r167" fill="#D1D3D3" stroke="#FFFFFF" stroke-miterlimit="10" d="M608.667,450.046
		c-2.007,4.204-5.315,11.038-8.244,17.355l13.533,7.458c2.142-4.122,7.132-12.69,10.143-17.847
		C620.355,455.334,613.604,452.27,608.667,450.046z"/>
	<path id="r168" fill="#D1D3D3" stroke="#FFFFFF" stroke-miterlimit="10" d="M596.355,475.973l16.241,8.705h33.791
		c0.027-3.2,0.057-6.646,0.057-6.646s-10.901-15.756-22.4-20.989c-0.353-0.163,0.38,0.162,0,0
		c-2.657,4.609-7.078,11.96-10.143,17.845l0,0l-13.532-7.458C599.313,469.844,597.358,473.775,596.355,475.973z"/>
	<path id="r169-2" fill="#D1D3D3" stroke="#FFFFFF" stroke-miterlimit="10" d="M646.391,497.722h-16.516v14.481h7.105
		c0,0,9.732-5.479,9.488-11.472C646.444,499.919,646.418,498.888,646.391,497.722z"/>
	<path id="r169-1" fill="#D1D3D3" stroke="#FFFFFF" stroke-miterlimit="10" d="M629.875,484.678v13.07h16.516
		c-0.024-4.963,0-9.546,0.027-13.07H629.875z"/>
	<polygon fill="#D1D3D3" stroke="#FFFFFF" stroke-miterlimit="10" points="565.357,580.599 591.311,580.599 591.311,570.429 
		516.488,570.429 516.488,583.365 565.357,584.585 	"/>
	<rect id="r136" x="563.649" y="542.551" fill="#D1D3D3" stroke="#FFFFFF" stroke-miterlimit="10" width="9.166" height="27.878"/>
	<polygon fill="#D1D3D3" stroke="#FFFFFF" stroke-miterlimit="10" points="516.488,542.551 516.488,570.429 532.462,570.429 
		532.462,557.872 521.939,557.872 521.939,542.551 	"/>
	<rect id="r139" x="521.939" y="542.551" fill="#D1D3D3" stroke="#FFFFFF" stroke-miterlimit="10" width="10.521" height="15.322"/>
	<rect id="r135" x="572.815" y="542.551" fill="#D1D3D3" stroke="#FFFFFF" stroke-miterlimit="10" width="8.024" height="27.878"/>
	<path id="r137-1" fill="#D1D3D3" stroke="#FFFFFF" stroke-miterlimit="10" d="M556.815,570.429h6.807v-27.878h-6.807
		c0.054,1.952,0.023,5.775,0,13.505C556.788,562.104,556.842,568.341,556.815,570.429z"/>
	<path id="r138-2" fill="#D1D3D3" stroke="#FFFFFF" stroke-miterlimit="10" d="M532.462,542.551v27.878h7.892
		c-0.159-17.845-0.054-25.059,0-27.878H532.462z"/>
	<rect x="580.843" y="560.123" fill="#D1D3D3" stroke="#FFFFFF" stroke-miterlimit="10" width="10.495" height="10.306"/>
	<path id="r138-1" fill="#D1D3D3" stroke="#FFFFFF" stroke-miterlimit="10" d="M540.354,570.429h8.271v-27.878h-8.271
		C540.3,547.052,540.271,560.828,540.354,570.429z"/>
	<rect id="r134" x="580.843" y="542.551" fill="#D1D3D3" stroke="#FFFFFF" stroke-miterlimit="10" width="10.495" height="17.572"/>
	
		<rect id="mago-footwear" x="645.848" y="542.551" fill="#D1D3D3" stroke="#FFFFFF" stroke-miterlimit="10" width="20.068" height="27.96"/>
	<rect id="r132-1" x="620.221" y="542.551" fill="#D1D3D3" stroke="#FFFFFF" stroke-miterlimit="10" width="8.705" height="27.96"/>
	<rect id="r132-2" x="611.271" y="542.551" fill="#D1D3D3" stroke="#FFFFFF" stroke-miterlimit="10" width="8.947" height="27.96"/>
	<rect id="tada" x="637.143" y="542.551" fill="#D1D3D3" stroke="#FFFFFF" stroke-miterlimit="10" width="8.705" height="27.96"/>
	<rect id="r133" x="596.681" y="542.551" fill="#D1D3D3" stroke="#FFFFFF" stroke-miterlimit="10" width="14.593" height="15.322"/>
	
		<rect id="vanderbilt-newyork" x="628.926" y="542.551" fill="#D1D3D3" stroke="#FFFFFF" stroke-miterlimit="10" width="8.244" height="27.96"/>
	<polygon fill="#D1D3D3" stroke="#FFFFFF" stroke-miterlimit="10" points="665.943,570.511 611.271,570.511 611.271,557.872 
		596.681,557.872 596.681,584.016 651.896,584.016 651.896,580.843 665.943,580.843 	"/>
	<path id="r107" fill="#D1D3D3" stroke="#FFFFFF" stroke-miterlimit="10" d="M290.91,418.288c0.813,1.248,1.925,3.063,3.499,5.724
		c1.681,2.85,3.309,5.749,4.065,7.132c2.115-1.003,5.644-2.793,7.946-3.903c-0.73-1.247-4.177-7.81-7.078-13.396L290.91,418.288z"/>
	<path id="r108" fill="#D1D3D3" stroke="#FFFFFF" stroke-miterlimit="10" d="M299.371,413.868
		c2.956,5.695,6.454,12.395,7.078,13.396c0,0,5.804-2.686,8.407-3.903l-7.433-13.695L299.371,413.868z"/>
	<polygon id="r110" fill="#D1D3D3" stroke="#FFFFFF" stroke-miterlimit="10" points="314.341,406.247 321.636,420.106 
		328.308,416.906 321.69,402.642 	"/>
	<path id="r111" fill="#D1D3D3" stroke="#FFFFFF" stroke-miterlimit="10" d="M321.69,402.642l6.644,14.265
		c2.495-1.166,6.238-2.875,8.462-3.904c-0.218-0.381-0.569-1.248-1.384-3.146c-0.786-1.871-1.844-4.366-2.901-6.888
		c-0.76-1.79-1.302-3.092-1.952-4.665C328.442,399.279,323.941,401.557,321.69,402.642z"/>
	<path id="r109" fill="#D1D3D3" stroke="#FFFFFF" stroke-miterlimit="10" d="M307.426,409.638l7.433,13.696
		c1.814-0.868,4.987-2.388,6.777-3.256l-7.295-13.857L307.426,409.638z"/>
	<g id="r112-113">
		<path fill="#D1D3D3" stroke="#FFFFFF" stroke-miterlimit="10" d="M337.555,394.83c0.518,1.329,5.587,14.292,5.806,14.861
			c0.136,0.354,7.483-3.444,7.483-3.444l-7.322-14.346C341.867,392.579,339.645,393.882,337.555,394.83z"/>
		<path fill="#D1D3D3" stroke="#FFFFFF" stroke-miterlimit="10" d="M330.559,398.275c2.955,7.051,6.237,14.699,6.237,14.699
			l6.562-3.254c0,0-3.012-7.838-5.806-14.861C335.738,395.645,332.592,397.325,330.559,398.275z"/>
	</g>
	<path id="r105" fill="#D1D3D3" stroke="#FFFFFF" stroke-miterlimit="10" d="M290.801,434.859
		c-1.736-3.257-5.505-10.251-6.916-12.854l-10.007,5.505l7.621,11.824C281.472,439.334,285.919,437.191,290.801,434.859z"/>
	<path id="r106" fill="#D1D3D3" stroke="#FFFFFF" stroke-miterlimit="10" d="M283.858,422.005c1.41,2.63,5.207,9.653,6.916,12.854
		c1.898-0.922,5.397-2.576,7.702-3.688c-2.766-4.964-5.774-10.115-7.564-12.854L283.858,422.005z"/>
	<path id="r101-2" fill="#D1D3D3" stroke="#FFFFFF" stroke-miterlimit="10" d="M179.789,538.122l11.628,11.628
		c3.742-1.271,7.614-3.275,10.591-6.408l-14.217-14.217C184.718,532.528,182.062,535.528,179.789,538.122z"/>
	<path id="r101-3" fill="#D1D3D3" stroke="#FFFFFF" stroke-miterlimit="10" d="M208.9,534.443l-14.59-12.447
		c-2.363,2.554-4.527,4.925-6.519,7.13l14.217,14.217c0.248-0.261,0.501-0.515,0.735-0.79
		C204.859,540.057,206.974,537.209,208.9,534.443z"/>
	<path id="r101-1" fill="#D1D3D3" stroke="#FFFFFF" stroke-miterlimit="10" d="M172.696,546.266
		c2.169,2.009,5.125,5.775,7.593,5.643c2.238-0.129,6.578-0.609,11.128-2.155l-11.628-11.628
		C176.823,541.508,174.493,544.217,172.696,546.266z"/>
	<path id="r102" fill="#D1D3D3" stroke="#FFFFFF" stroke-miterlimit="10" d="M206.46,508.569
		c-3.336,3.934-8.868,9.815-12.177,13.396l14.59,12.446c3.499-5.206,8-15.675,8.244-16.896L206.46,508.569z"/>
	<path id="r103-1" fill="#D1D3D3" stroke="#FFFFFF" stroke-miterlimit="10" d="M217.118,517.546
		c0.949-4.229,4.638-24.651,4.936-25.272c-4.638,4.987-10.794,11.198-15.567,16.323L217.118,517.546z"/>
	<path fill="#D1D3D3" stroke="#FFFFFF" stroke-miterlimit="10" d="M267.939,418.723l5.912,8.787
		c0.787-0.406,25.52-13.642,25.52-13.642c-1.221-2.359-4.149-6.97-4.665-7.974L267.939,418.723z"/>
	<g id="r121-122">
		<path fill="#D1D3D3" stroke="#FFFFFF" stroke-miterlimit="10" d="M563.73,368.335l-19.854-4.122l-6.291,30.184
			c5.125,0.841,13.288,2.278,18.44,3.254L563.73,368.335z"/>
		<path fill="#D1D3D3" stroke="#FFFFFF" stroke-miterlimit="10" d="M524.245,392.39c3.851,0.542,9.302,1.355,13.369,2.007
			l4.801-23.431l-13.343-2.115C527.526,376.146,525.194,387.428,524.245,392.39z"/>
	</g>
	<path fill="#D1D3D3" stroke="#FFFFFF" stroke-miterlimit="10" d="M520.041,391.794c0.896,0.135,3.281,0.461,4.177,0.568
		c1.193-6.292,4.017-19.606,4.691-22.834l0.136-0.705l13.343,2.115l1.464-6.753l-17.465-3.309v-9.167l-8.353,18.713h5.479
		C523.54,370.45,520.746,386.505,520.041,391.794z"/>
	<path fill="#D1D3D3" stroke="#FFFFFF" stroke-miterlimit="10" d="M392.146,367.196c1.844,10.144,4.095,22.401,5.017,27.174
		c3.77-0.786,10.739-2.114,14.591-2.819l-5.018-27.716C404.024,364.457,397.299,366.003,392.146,367.196z"/>
	<path id="r115-1" fill="#D1D3D3" stroke="#FFFFFF" stroke-miterlimit="10" d="M372.484,371.914
		c2.143,9.846,4.907,21.994,6.184,26.632c2.44-0.569,6.454-1.52,9.112-2.115l-5.182-26.957
		C379.671,370.152,375.278,371.237,372.484,371.914z"/>
	<path id="r114-2" fill="#D1D3D3" stroke="#FFFFFF" stroke-miterlimit="10" d="M360.173,380.973l6.97,20.394
		c3.229-0.813,7.159-1.79,11.525-2.847c-1.519-5.479-4.557-19.146-6.184-26.631c-7.351,1.816-13.288,3.39-14.536,4.014
		L360.173,380.973z"/>
	<path id="r115-2" fill="#D1D3D3" stroke="#FFFFFF" stroke-miterlimit="10" d="M392.146,367.196
		c-2.145,0.488-7.271,1.708-9.521,2.251l5.18,26.957c2.116-0.461,7.188-1.573,9.386-2.034
		C396.729,392.199,392.716,370.396,392.146,367.196z"/>
	<path id="r117" fill="#D1D3D3" stroke="#FFFFFF" stroke-miterlimit="10" d="M406.736,363.832
		c0.516,4.096,4.394,22.916,5.018,27.717c6.454-1.085,16.651-2.522,22.319-3.038c-1.085-8.461-4.258-28.991-5.479-38.104
		l-15.022,2.034c0.486,4.258,1.709,13.044,1.058,14.211C414.167,367.44,408.119,364.158,406.736,363.832z"/>
	<path id="r118" fill="#D1D3D3" stroke="#FFFFFF" stroke-miterlimit="10" d="M455.009,329.419l-20.258,0.136l-6.184,20.772
		c0.516,3.878,4.229,28.204,5.479,38.049c5.804-0.462,11.634-0.516,15.485,0.054c0,0,5.83-0.759,5.478-8.244
		C454.684,373.353,455.009,329.419,455.009,329.419z"/>
	<path id="r114-1" fill="#D1D3D3" stroke="#FFFFFF" stroke-miterlimit="10" d="M357.976,403.78c0,0,4.366-1.166,9.193-2.414
		l-5.505-16.136l-8.651,5.044L357.976,403.78z"/>
	<path id="r126-2" fill="#D1D3D3" stroke="#FFFFFF" stroke-miterlimit="10" d="M647.068,435.781c1.979,1.166,5.18,3.146,7.104,4.339
		c2.007-3.553,6.237-11.037,8.38-14.809l-7.729-4.608C652.031,426.1,648.642,432.282,647.068,435.781z"/>
	<path id="r127-2" fill="#D1D3D3" stroke="#FFFFFF" stroke-miterlimit="10" d="M678.093,434.615l-7.159-4.285
		c-2.275,3.256-7.431,10.226-10.251,14.131c2.034,1.438,5.071,3.796,6.753,5.18C669.279,446.953,673.104,441.585,678.093,434.615z"
		/>
	<polygon fill="#D1D3D3" stroke="#FFFFFF" stroke-miterlimit="10" points="621.81,389.768 623.089,387.478 614.904,382.6 
		607.556,400.553 614.471,403.645 621.387,389.57 	"/>
	<path id="r124" fill="#D1D3D3" stroke="#FFFFFF" stroke-miterlimit="10" d="M623.066,401.9l-8.405,16.742
		c0-0.027,2.847,1.329,7.322,3.58l8.081-16.163l0.315,0.169l0.031-0.062L623.066,401.9z"/>
	<path fill="#D1D3D3" stroke="#FFFFFF" stroke-miterlimit="10" d="M636.006,395.177l-5.592,10.989l0.246,0.144l-0.246-0.144
		l-0.031,0.062l1.011,0.536c-0.105-0.082,43.258,25.79,46.699,27.852l6.563-10.44L636.006,395.177z"/>
	<path id="r125-1" fill="#D1D3D3" stroke="#FFFFFF" stroke-miterlimit="10" d="M630.064,406.059l-8.081,16.163
		c2.088,1.06,7.132,3.661,9.682,4.99c2.088-4.583,5.83-12.042,7.62-15.758C639.313,411.454,630.119,406.085,630.064,406.059z"/>
	<path id="r126-1" fill="#D1D3D3" stroke="#FFFFFF" stroke-miterlimit="10" d="M639.014,431.198
		c2.227,1.247,5.776,3.279,8.058,4.583c1.926-4.339,5.854-11.417,7.729-15.078l-8.326-4.963
		C644.736,419.455,641.048,426.859,639.014,431.198z"/>
	<path id="r125-2" fill="#D1D3D3" stroke="#FFFFFF" stroke-miterlimit="10" d="M631.691,427.212c1.926,1.029,5.262,2.848,7.35,3.959
		c2.034-4.395,5.749-11.798,7.458-15.458l-7.159-4.259C636.898,416.418,633.509,423.225,631.691,427.212z"/>
	<path id="r128" fill="#D1D3D3" stroke="#FFFFFF" stroke-miterlimit="10" d="M685.171,430.466c-0.949-0.325-2.276-1.191-3.254-1.52
		c-5.262,7.32-11.417,16.244-14.509,20.69c2.739,2.332,4.854,4.583,6.021,6.562l0,0c5.044-6.48,11.986-15.271,13.234-16.65
		C686.663,438.846,690.703,435.021,685.171,430.466z"/>
	<path id="r127-1" fill="#D1D3D3" stroke="#FFFFFF" stroke-miterlimit="10" d="M670.934,430.329l-8.38-5.019
		c-2.468,4.341-6.479,11.444-8.38,14.809c1.816,1.166,4.827,3.174,6.509,4.34C663.123,441.069,667.787,434.831,670.934,430.329z"/>
	<path id="r187" fill="#D1D3D3" stroke="#FFFFFF" stroke-miterlimit="10" d="M295.33,548.544l-4.746-5.886c0,0-2.034,0-4.258-0.026
		c-0.081,5.019-0.163,14.779,0,21.126h8.977v-15.214H295.33z"/>
	<path fill="#D1D3D3" stroke="#FFFFFF" stroke-miterlimit="10" d="M291.1,610.403c2.251-0.057,8.434-0.026,12.719,0l-0.027-6.563
		h-12.719C291.1,604.951,291.1,609.346,291.1,610.403z"/>
	<path fill="#D1D3D3" stroke="#FFFFFF" stroke-miterlimit="10" d="M268.102,542.576v17.979h-9.329v12.067h15.512
		c0-13.018-0.081-24.543,0-30.021C272.767,542.576,269.702,542.576,268.102,542.576z"/>
	<path id="r149" fill="#D1D3D3" stroke="#FFFFFF" stroke-miterlimit="10" d="M291.1,571.297c0.027-3.525,0-6.156,0-7.513h-4.773l0,0
		c-0.108-4.041-0.108-14.997,0-21.152c-2.739,0-7.864-0.026-12.041-0.026V573.9H291.1C291.1,573.195,291.1,571.975,291.1,571.297z"
		/>
	<path id="r152-2" fill="#D1D3D3" stroke="#FFFFFF" stroke-miterlimit="10" d="M226.447,573.548v-30.021
		c-8.136,4.527-18.468,22.347-18.468,22.347l-5.234,4.746l8.244,12.72C210.962,583.338,221.81,576.07,226.447,573.548z"/>
	<path id="r152-1" fill="#D1D3D3" stroke="#FFFFFF" stroke-miterlimit="10" d="M226.447,543.526v30.021
		c0.624-0.325,14.509-0.949,14.509-0.949V542.55c-4.746,0.025-9.302,0.056-11.254,0.107
		C228.86,542.686,227.26,543.2,226.447,543.526z"/>
	<path id="r151" fill="#D1D3D3" stroke="#FFFFFF" stroke-miterlimit="10" d="M258.773,560.558h-4.393l0,0c0,0,0-11.903,0-18.007
		c-4.285,0-9.763,0-13.424,0v30.048h17.817V560.558z"/>
	<path id="r150" fill="#D1D3D3" stroke="#FFFFFF" stroke-miterlimit="10" d="M254.38,560.558h13.722v-17.979
		c-3.932,0-9.708-0.025-13.722-0.025C254.38,547.73,254.38,557.872,254.38,560.558z"/>
	<rect x="317.188" y="628.004" fill="#D1D3D3" stroke="#FFFFFF" stroke-miterlimit="10" width="135.843" height="8.487"/>
	<path fill="#D1D3D3" stroke="#FFFFFF" stroke-miterlimit="10" d="M291.1,603.84h12.719v-6.889c-0.813,0-1.79,0-2.82,0
		c-3.661,0-8.38,0.026-9.872,0C291.072,599.556,291.1,601.452,291.1,603.84z"/>
	<path fill="#D1D3D3" stroke="#FFFFFF" stroke-miterlimit="10" d="M291.1,584.341h12.719v-4.989l-3.717-2.981H291.1
		C291.072,578.564,291.1,582.226,291.1,584.341z"/>
	<path fill="#D1D3D3" stroke="#FFFFFF" stroke-miterlimit="10" d="M291.1,591.201h12.719v-6.86H291.1
		C291.072,586.157,291.1,589.439,291.1,591.201z"/>
	<path fill="#D1D3D3" stroke="#FFFFFF" stroke-miterlimit="10" d="M291.1,571.297c0,1.273,0,3.853,0,5.07h8.977v-5.07H291.1
		C291.1,571.323,291.1,571.27,291.1,571.297z"/>
	<path fill="#D1D3D3" stroke="#FFFFFF" stroke-miterlimit="10" d="M291.1,571.297h10.604l2.115-2.438v-6.728l-8.488-11.392v13.045
		h-4.23C291.072,564.924,291.126,568.558,291.1,571.297z"/>
	<path fill="#D1D3D3" stroke="#FFFFFF" stroke-miterlimit="10" d="M291.1,596.951c1.898,0.026,9.112,0.055,12.719,0v-5.75H291.1
		C291.1,592.586,291.1,595.622,291.1,596.951z"/>
	<path fill="#D1D3D3" stroke="#FFFFFF" stroke-miterlimit="10" d="M298.15,636.491V622.01h5.668v-11.634
		c-2.931,0-9.331-0.108-12.719,0c-0.027,12.122-0.109,21.613,0,26.089h7.051V636.491z"/>
	<polygon id="government-one-stop-service" fill="#D1D3D3" stroke="#FFFFFF" stroke-miterlimit="10" points="296.901,636.491 
		315.939,636.491 315.939,627 306.312,615.771 302.569,615.771 302.569,622.01 296.901,622.01 	"/>
	<path fill="#D1D3D3" stroke="#FFFFFF" stroke-miterlimit="10" d="M665.943,477.274c0-0.813-0.681-1.492-1.491-1.492h-9.736
		c-0.812,0-1.491,0.679-1.491,1.492v29.449c0,0.813,0.681,1.491,1.491,1.491h9.736c0.812,0,1.491-0.679,1.491-1.491V477.274z"/>
	<path fill="#D1D3D3" stroke="#FFFFFF" stroke-miterlimit="10" d="M344.932,414.059L310.3,429.978l-2.061,2.441l1.871,16.271
		c0,0,0.947,2.062,2.818,1.302c0.705-0.271,32.762-14.237,32.762-14.237l2.439-3.362v-13.775c0,0,0-3.715-0.949-4.556
		C346.233,413.218,344.932,414.059,344.932,414.059z"/>
	<g id="k107-1-k107-2">
		<path fill="#D1D3D3" stroke="#FFFFFF" stroke-miterlimit="10" d="M415.116,406.764c0,0,8.787-1.302,8.435-2.251
			c-0.38-0.949-2.251-7.865-2.251-7.865l-8.055,2.062L415.116,406.764z"/>
		<path fill="#D1D3D3" stroke="#FFFFFF" stroke-miterlimit="10" d="M415.307,408.445c0,0,0.949,6.184,1.111,6.373
			c0.163,0.19,8.597-1.248,8.597-1.248l-1.488-7.539L415.307,408.445z"/>
	</g>
	<polygon id="booth-3" fill="#D1D3D3" stroke="#FFFFFF" stroke-miterlimit="10" points="246.081,479.39 250.014,484.622 
		255.817,479.39 250.963,475.076 	"/>
	<polygon id="booth-5" fill="#D1D3D3" stroke="#FFFFFF" stroke-miterlimit="10" points="255.817,471.524 259.207,476.135 
		264.821,471.524 260.319,466.29 	"/>
	<path id="booth-6" fill="#D1D3D3" stroke="#FFFFFF" stroke-miterlimit="10" d="M266.882,484.622c0,0,6.563-4.854,6.183-4.771
		c-0.379,0.081-4.963-4.771-4.963-4.771l-4.963,4.771L266.882,484.622z"/>
	<polygon id="booth-4" fill="#D1D3D3" stroke="#FFFFFF" stroke-miterlimit="10" points="258.827,492.488 263.139,488.176 
		260.319,483.512 254.516,488.014 	"/>
	<polygon fill="#D1D3D3" stroke="#FFFFFF" stroke-miterlimit="10" points="264.821,463.28 268.102,467.781 278.109,460.297 
		279.031,457.477 276.238,452.621 	"/>
	<path fill="#D1D3D3" stroke="#FFFFFF" stroke-miterlimit="10" d="M295.33,447.769l-2.495-4.854l-11.363,7.269
		c0.19,0.219,3.173,4.529,3.173,4.529L295.33,447.769z"/>
	<polygon id="k102-2" fill="#D1D3D3" stroke="#FFFFFF" stroke-miterlimit="10" points="274.367,502.251 281.472,509.898 
		291.018,501.465 284.265,493.789 	"/>
	<polygon id="THAI-COOKING-BOOTH-1" fill="#D1D3D3" stroke="#FFFFFF" stroke-miterlimit="10" points="226.447,516.651 
		232.63,520.557 240.468,512.203 234.312,507.105 	"/>
	<polygon id="THAI-COOKING-BOOTH-2" fill="#D1D3D3" stroke="#FFFFFF" stroke-miterlimit="10" points="252.021,521.506 
		245.484,515.892 238.976,525.059 244.047,530.672 	"/>
	<polygon id="k113" fill="#D1D3D3" stroke="#FFFFFF" stroke-miterlimit="10" points="260.319,509.898 252.726,518.278 
		256.359,521.614 264.821,514.4 	"/>
	<polygon id="k102-1" fill="#D1D3D3" stroke="#FFFFFF" stroke-miterlimit="10" points="246.759,513.206 250.963,516.814 
		258.963,507.756 255.817,504.854 	"/>
	<polygon id="k117" fill="#D1D3D3" stroke="#FFFFFF" stroke-miterlimit="10" points="215.762,532.462 223.247,537.425 
		225.606,532.543 217.633,527.498 	"/>
	<polygon id="k119" fill="#D1D3D3" stroke="#FFFFFF" stroke-miterlimit="10" points="234.501,491.376 238.542,495.336 
		243.641,490.021 239.735,486.44 	"/>
	<polygon id="k101" fill="#D1D3D3" stroke="#FFFFFF" stroke-miterlimit="10" points="244.59,501.409 252.021,495.851 
		246.759,491.864 240.956,497.722 	"/>
	<path fill="#D1D3D3" stroke="#FFFFFF" stroke-miterlimit="10" d="M265.933,533.491c-0.38-0.568-6.97-5.993-6.97-5.993l-6.97,7.104
		C253.024,534.225,266.312,534.034,265.933,533.491z"/>
	<polygon id="k114" fill="#D1D3D3" stroke="#FFFFFF" stroke-miterlimit="10" points="268.102,518.686 260.699,526.36 
		265.255,530.347 273.065,524.679 	"/>
	<polygon id="k115" fill="#D1D3D3" stroke="#FFFFFF" stroke-miterlimit="10" points="280.36,531.052 275.099,527.498 
		268.102,533.683 268.102,534.604 280.36,533.683 	"/>
	<polygon id="k112" fill="#D1D3D3" stroke="#FFFFFF" stroke-miterlimit="10" points="292.835,524.679 285.594,516.814 
		280.36,520.557 287.465,528.99 	"/>
	<polygon id="k103-2b" fill="#D1D3D3" stroke="#FFFFFF" stroke-miterlimit="10" points="300.564,532.462 294.001,526.55 
		288.388,531.052 294.489,538.536 	"/>
	<polygon id="hungry-bear" fill="#D1D3D3" stroke="#FFFFFF" stroke-miterlimit="10" points="312.171,537.425 316.104,533.004 
		306.367,523.296 302.815,527.498 311.602,537.235 	"/>
	<path id="ya-kun-kaya-toast" fill="#D1D3D3" stroke="#FFFFFF" stroke-miterlimit="10" d="M322.829,526.55l-7.864-9.733
		l-5.533,5.231c0.271,0.568,8.326,8.979,8.326,8.979L322.829,526.55z"/>
	<polygon id="subway" fill="#D1D3D3" stroke="#FFFFFF" stroke-miterlimit="10" points="288.388,510.848 299.263,522.916 
		302.815,518.686 292.835,507.105 	"/>
	<path id="k103-3" fill="#D1D3D3" stroke="#FFFFFF" stroke-miterlimit="10" d="M304.876,516.814c0,0,4.854-4.746,4.583-4.61
		s-9.627-10.359-9.627-10.359l-4.204,2.982L304.876,516.814z"/>
	<rect id="jw101" x="350.844" y="413.244" fill="#D1D3D3" stroke="#FFFFFF" stroke-miterlimit="10" width="6.156" height="6.156"/>
	<rect id="jw102" x="360.525" y="409.611" fill="#D1D3D3" stroke="#FFFFFF" stroke-miterlimit="10" width="6.154" height="6.156"/>
	<rect id="jw103" x="370.18" y="407.089" fill="#D1D3D3" stroke="#FFFFFF" stroke-miterlimit="10" width="6.156" height="6.155"/>
	<rect id="jw106" x="352.986" y="426.235" fill="#D1D3D3" stroke="#FFFFFF" stroke-miterlimit="10" width="6.153" height="6.154"/>
	<rect id="jw105" x="363.454" y="422.52" fill="#D1D3D3" stroke="#FFFFFF" stroke-miterlimit="10" width="6.156" height="6.156"/>
	<rect id="jw104" x="373.949" y="419.455" fill="#D1D3D3" stroke="#FFFFFF" stroke-miterlimit="10" width="6.156" height="6.156"/>
	<circle fill="#D1D3D3" stroke="#FFFFFF" stroke-miterlimit="10" cx="332.158" cy="609.644" r="9.709"/>
	<polygon fill="#D1D3D3" stroke="#FFFFFF" stroke-miterlimit="10" points="371.183,577.589 370.938,577.589 370.938,572.734 
		361.203,572.734 361.203,577.589 	"/>
	<rect x="361.203" y="578.836" fill="#D1D3D3" stroke="#FFFFFF" stroke-miterlimit="10" width="4.502" height="5.479"/>
	<rect x="366.816" y="578.836" fill="#D1D3D3" stroke="#FFFFFF" stroke-miterlimit="10" width="4.364" height="5.479"/>
	<rect x="371.942" y="577.589" fill="#D1D3D3" stroke="#FFFFFF" stroke-miterlimit="10" width="3.604" height="6.728"/>
	<rect x="376.797" y="577.589" fill="#D1D3D3" stroke="#FFFFFF" stroke-miterlimit="10" width="5.396" height="6.728"/>
	<rect x="383.17" y="577.589" fill="#D1D3D3" stroke="#FFFFFF" stroke-miterlimit="10" width="3.606" height="6.728"/>
	<rect x="388.783" y="577.589" fill="#D1D3D3" stroke="#FFFFFF" stroke-miterlimit="10" width="3.605" height="6.728"/>
	<path fill="#D1D3D3" stroke="#FFFFFF" stroke-miterlimit="10" d="M376.797,607.907c0.136-3.119,0-4.122,0-4.122h-25.818
		c0.138,1.465-0.135,4.854-0.135,4.854s0.76,1.627,2.982,1.735c2.251,0.136,19.473,0.136,19.906,0
		C374.165,610.239,376.688,611.026,376.797,607.907z"/>
	<rect x="382.193" y="591.201" fill="#D1D3D3" stroke="#FFFFFF" stroke-miterlimit="10" width="2.793" height="2.794"/>
	<rect x="382.193" y="594.945" fill="#D1D3D3" stroke="#FFFFFF" stroke-miterlimit="10" width="2.793" height="2.793"/>
	<rect x="382.193" y="598.308" fill="#D1D3D3" stroke="#FFFFFF" stroke-miterlimit="10" width="2.793" height="2.794"/>
	<rect x="350.844" y="591.201" fill="#D1D3D3" stroke="#FFFFFF" stroke-miterlimit="10" width="29.451" height="11.119"/>
	<rect x="349.976" y="614.905" fill="#D1D3D3" stroke="#FFFFFF" stroke-miterlimit="10" width="5.37" height="2.98"/>
	<rect x="349.976" y="619.027" fill="#D1D3D3" stroke="#FFFFFF" stroke-miterlimit="10" width="5.37" height="2.98"/>
	<rect x="356.349" y="614.905" fill="#D1D3D3" stroke="#FFFFFF" stroke-miterlimit="10" width="5.37" height="2.98"/>
	<rect x="356.349" y="619.027" fill="#D1D3D3" stroke="#FFFFFF" stroke-miterlimit="10" width="5.37" height="2.98"/>
	<rect x="365.325" y="614.905" fill="#D1D3D3" stroke="#FFFFFF" stroke-miterlimit="10" width="5.37" height="2.98"/>
	<rect x="365.325" y="619.027" fill="#D1D3D3" stroke="#FFFFFF" stroke-miterlimit="10" width="5.37" height="2.98"/>
	<rect x="371.698" y="614.905" fill="#D1D3D3" stroke="#FFFFFF" stroke-miterlimit="10" width="5.37" height="2.98"/>
	<rect x="371.698" y="619.027" fill="#D1D3D3" stroke="#FFFFFF" stroke-miterlimit="10" width="5.37" height="2.98"/>
	<rect x="381.787" y="614.905" fill="#D1D3D3" stroke="#FFFFFF" stroke-miterlimit="10" width="5.369" height="2.98"/>
	<rect x="381.787" y="619.027" fill="#D1D3D3" stroke="#FFFFFF" stroke-miterlimit="10" width="5.369" height="2.98"/>
	<rect x="388.16" y="614.905" fill="#D1D3D3" stroke="#FFFFFF" stroke-miterlimit="10" width="5.369" height="2.98"/>
	<rect x="388.16" y="619.027" fill="#D1D3D3" stroke="#FFFFFF" stroke-miterlimit="10" width="5.369" height="2.98"/>
	<rect x="398.275" y="614.905" fill="#D1D3D3" stroke="#FFFFFF" stroke-miterlimit="10" width="5.367" height="2.98"/>
	<rect x="398.275" y="619.027" fill="#D1D3D3" stroke="#FFFFFF" stroke-miterlimit="10" width="5.367" height="2.98"/>
	<rect x="404.621" y="614.905" fill="#D1D3D3" stroke="#FFFFFF" stroke-miterlimit="10" width="5.37" height="2.98"/>
	<rect x="404.621" y="619.027" fill="#D1D3D3" stroke="#FFFFFF" stroke-miterlimit="10" width="5.37" height="2.98"/>
	<rect x="414.005" y="614.905" fill="#D1D3D3" stroke="#FFFFFF" stroke-miterlimit="10" width="5.369" height="2.98"/>
	<rect x="414.005" y="619.027" fill="#D1D3D3" stroke="#FFFFFF" stroke-miterlimit="10" width="5.369" height="2.98"/>
	<rect x="420.351" y="614.905" fill="#D1D3D3" stroke="#FFFFFF" stroke-miterlimit="10" width="5.369" height="2.98"/>
	<rect x="420.351" y="619.027" fill="#D1D3D3" stroke="#FFFFFF" stroke-miterlimit="10" width="5.369" height="2.98"/>
	<rect x="430.846" y="614.905" fill="#D1D3D3" stroke="#FFFFFF" stroke-miterlimit="10" width="5.369" height="2.98"/>
	<rect x="430.846" y="619.027" fill="#D1D3D3" stroke="#FFFFFF" stroke-miterlimit="10" width="5.369" height="2.98"/>
	<rect x="437.191" y="614.905" fill="#D1D3D3" stroke="#FFFFFF" stroke-miterlimit="10" width="5.367" height="2.98"/>
	<rect x="437.191" y="619.027" fill="#D1D3D3" stroke="#FFFFFF" stroke-miterlimit="10" width="5.367" height="2.98"/>
	<circle fill="#D1D3D3" stroke="#FFFFFF" stroke-miterlimit="10" cx="450.833" cy="619.434" r="4.529"/>
	<polygon fill="#D1D3D3" stroke="#FFFFFF" stroke-miterlimit="10" points="501.465,537.669 561.615,537.669 557.873,516.704 
		505.723,516.704 	"/>
	<polygon id="k108" fill="#D1D3D3" stroke="#FFFFFF" stroke-miterlimit="10" points="599.313,437.082 607.04,442.073 
		615.284,426.344 608.531,423.115 	"/>
	<polygon fill="#D1D3D3" stroke="#FFFFFF" stroke-miterlimit="10" points="344.552,333.758 349.406,346.314 357.84,343.114 
		352.227,330.314 	"/>
	<path fill="#D1D3D3" stroke="#FFFFFF" stroke-miterlimit="10" d="M363.535,357.434l-5.125-12.773c0,0-7.485,2.631-8.245,3.146
		l5.153,13.207L363.535,357.434z"/>
	<circle fill="#D1D3D3" stroke="#FFFFFF" stroke-miterlimit="10" cx="387.211" cy="512.312" r="0"/>
	<g id="r129">
		<path fill="#D1D3D3" stroke="#FFFFFF" stroke-miterlimit="10" d="M809.567,493.246v-27.174l-19.336-21.182l-98.311-3.659
			c-4.638,5.828-11.742,14.154-15.513,19.063v101.075h133.156v-51.31h-5.694v-16.813L809.567,493.246L809.567,493.246z"/>
	</g>
	<g id="r104">
		<path fill="#D1D3D3" stroke="#FFFFFF" stroke-miterlimit="10" d="M147.529,450.589l-35.96,38.211l61.127,57.466
			c1.573-1.763,4.502-5.587,7.214-8.567c6.292-6.941,15.16-16.569,24.95-27.146c7.539-8.137,15.54-16.76,22.482-24.138
			c0.515-0.704,0.922-1.22,1.112-1.383c0.136-0.136,1.085-1.085,2.63-2.604c7.322-7.781,14.997-14.617,14.997-14.617
			c7.078-6.834,14.319-13.642,17.574-16.218c6.481-5.15,13.994-11.063,17.844-12.229l-13.532-20.61l26.767-12.828l0,0
			c0.027,0.082,2.958,4.609,4.666,7.973l8.025-4.204l-5.613-12.229l-15.973-11.987l-9.899,12.149l0,0
			c0,0-20.719-20.476-24.326-23.459c-1.627,1.248-40.191,32.164-40.191,32.164L147.529,450.589z"/>
	</g>
	<path id="r161-178-179-1-179-2-180-2" fill="#D1D3D3" stroke="#FFFFFF" stroke-miterlimit="10" d="M484.759,427.591v43.175h16.732
		v41.438h22.971v-27.2h8.081c0-4.476,0-28.692,0-28.692l36.096,10.359l1.031-3.933l-13.994-6.942l4.827-10.874l-43.146-8.787
		l-3.606-5.207l0,0c1.003-4.689,1.897-7.539,2.359-9.438c-13.126-1.844-23.567-2.901-23.567-2.901L484.759,427.591z"/>
	<path id="r142-143" fill="#D1D3D3" stroke="#FFFFFF" stroke-miterlimit="10" d="M446.06,542.551c0,0-12.065,0-26.712,0v15.322
		h7.946v13.966h-25.655c-0.024,4.258-0.217,26.388,0,32.438c0.244,6.727,6.753,4.987,6.753,4.987s31.703-0.244,38.943,0
		c7.241,0.244,5.75-5.991,5.75-5.991v-54.646C453.057,548.652,447.307,542.903,446.06,542.551z"/>
	<path id="r140-141" fill="#D1D3D3" stroke="#FFFFFF" stroke-miterlimit="10" d="M516.488,583.338L516.488,583.338v-40.787H491.24
		c0,0-7.484,0.107-7.729,5.612c-0.245,5.506,0,88.111,0,88.111h32.979L516.488,583.338L516.488,583.338z"/>
	<path id="r123" fill="#D1D3D3" stroke="#FFFFFF" stroke-miterlimit="10" d="M558.442,307.561l-20.828,55.377l26.116,5.397
		l-7.678,29.315c22.753,4.448,40.682,9.627,52.774,17.492l5.668-11.526l-6.915-3.091l7.349-17.953l40.927,23.893l28.363-45.29
		L558.442,307.561z"/>
	<g id="fashion-plus">
		
			<rect x="306.225" y="547.113" transform="matrix(0.7182 -0.6958 0.6958 0.7182 -295.2355 369.2124)" fill="#D1D3D3" stroke="#FFFFFF" stroke-miterlimit="10" width="4.014" height="4.013"/>
		
			<rect x="309.437" y="543.975" transform="matrix(0.7182 -0.6958 0.6958 0.7182 -292.1466 370.5635)" fill="#D1D3D3" stroke="#FFFFFF" stroke-miterlimit="10" width="4.014" height="4.014"/>
		
			<rect x="309.372" y="550.31" transform="matrix(0.718 -0.696 0.696 0.718 -296.6196 372.4575)" fill="#D1D3D3" stroke="#FFFFFF" stroke-miterlimit="10" width="4.013" height="4.015"/>
		
			<rect x="312.559" y="547.203" transform="matrix(0.7182 -0.6958 0.6958 0.7182 -293.5137 373.6458)" fill="#D1D3D3" stroke="#FFFFFF" stroke-miterlimit="10" width="4.014" height="4.015"/>
		
			<rect x="327.55" y="547.866" transform="matrix(0.7183 -0.6958 0.6958 0.7183 -289.7358 384.207)" fill="#D1D3D3" stroke="#FFFFFF" stroke-miterlimit="10" width="4.013" height="4.014"/>
		
			<rect x="330.788" y="544.725" transform="matrix(0.7182 -0.6958 0.6958 0.7182 -286.6516 385.6314)" fill="#D1D3D3" stroke="#FFFFFF" stroke-miterlimit="10" width="4.014" height="4.013"/>
		
			<rect x="330.678" y="551.075" transform="matrix(0.7182 -0.6958 0.6958 0.7182 -291.1022 387.3482)" fill="#D1D3D3" stroke="#FFFFFF" stroke-miterlimit="10" width="4.015" height="4.014"/>
		
			<rect x="333.918" y="547.939" transform="matrix(0.7182 -0.6958 0.6958 0.7182 -288.0062 388.7108)" fill="#D1D3D3" stroke="#FFFFFF" stroke-miterlimit="10" width="4.013" height="4.015"/>
		
			<rect x="315.222" y="558.327" transform="matrix(0.7182 -0.6958 0.6958 0.7182 -300.5034 378.6331)" fill="#D1D3D3" stroke="#FFFFFF" stroke-miterlimit="10" width="4.014" height="4.014"/>
		
			<rect x="318.443" y="555.206" transform="matrix(0.7183 -0.6958 0.6958 0.7183 -297.4083 379.9386)" fill="#D1D3D3" stroke="#FFFFFF" stroke-miterlimit="10" width="4.013" height="4.015"/>
		
			<rect x="318.343" y="561.563" transform="matrix(0.7183 -0.6958 0.6958 0.7183 -301.8596 381.6642)" fill="#D1D3D3" stroke="#FFFFFF" stroke-miterlimit="10" width="4.014" height="4.014"/>
		
			<rect x="321.527" y="558.45" transform="matrix(0.7181 -0.6959 0.6959 0.7181 -298.8286 383.1112)" fill="#D1D3D3" stroke="#FFFFFF" stroke-miterlimit="10" width="4.015" height="4.015"/>
		
			<rect x="322.706" y="569.56" transform="matrix(0.7182 -0.6958 0.6958 0.7182 -306.2103 387.0057)" fill="#D1D3D3" stroke="#FFFFFF" stroke-miterlimit="10" width="4.014" height="4.014"/>
		
			<rect x="325.881" y="566.47" transform="matrix(0.7183 -0.6957 0.6957 0.7183 -303.135 388.2379)" fill="#D1D3D3" stroke="#FFFFFF" stroke-miterlimit="10" width="4.015" height="4.014"/>
		
			<rect x="325.828" y="572.787" transform="matrix(0.7182 -0.6958 0.6958 0.7182 -307.5764 390.0876)" fill="#D1D3D3" stroke="#FFFFFF" stroke-miterlimit="10" width="4.014" height="4.014"/>
		
			<rect x="329.059" y="569.669" transform="matrix(0.7182 -0.6958 0.6958 0.7182 -304.4962 391.4572)" fill="#D1D3D3" stroke="#FFFFFF" stroke-miterlimit="10" width="4.014" height="4.014"/>
		
			<rect x="333.515" y="562.072" transform="matrix(0.718 -0.696 0.696 0.718 -297.9995 392.5814)" fill="#D1D3D3" stroke="#FFFFFF" stroke-miterlimit="10" width="4.014" height="4.015"/>
		
			<rect x="336.79" y="558.956" transform="matrix(0.7182 -0.6958 0.6958 0.7182 -294.8633 393.8181)" fill="#D1D3D3" stroke="#FFFFFF" stroke-miterlimit="10" width="4.014" height="4.014"/>
		
			<rect x="336.68" y="565.312" transform="matrix(0.7182 -0.6958 0.6958 0.7182 -299.3168 395.5319)" fill="#D1D3D3" stroke="#FFFFFF" stroke-miterlimit="10" width="4.014" height="4.014"/>
		
			<rect x="339.912" y="562.19" transform="matrix(0.7182 -0.6958 0.6958 0.7182 -296.2338 396.9017)" fill="#D1D3D3" stroke="#FFFFFF" stroke-miterlimit="10" width="4.014" height="4.015"/>
	</g>
	<g id="Pink_parking">
		<polygon fill="#D1D3D3" stroke="#FFFFFF" stroke-miterlimit="10" points="523.296,609.102 523.296,610.24 679.503,610.24 
			730.515,590.552 730.108,589.521 679.313,609.102 		"/>
		<rect x="524.001" y="602.837" fill="#D1D3D3" stroke="#FFFFFF" stroke-miterlimit="10" width="0.949" height="5.804"/>
		<rect x="528.367" y="602.837" fill="#D1D3D3" stroke="#FFFFFF" stroke-miterlimit="10" width="0.949" height="5.804"/>
		<rect x="532.706" y="602.837" fill="#D1D3D3" stroke="#FFFFFF" stroke-miterlimit="10" width="0.949" height="5.804"/>
		<rect x="537.072" y="602.837" fill="#D1D3D3" stroke="#FFFFFF" stroke-miterlimit="10" width="0.949" height="5.804"/>
		<rect x="541.411" y="602.837" fill="#D1D3D3" stroke="#FFFFFF" stroke-miterlimit="10" width="0.949" height="5.804"/>
		<rect x="545.777" y="602.837" fill="#D1D3D3" stroke="#FFFFFF" stroke-miterlimit="10" width="0.946" height="5.804"/>
		<rect x="550.116" y="602.837" fill="#D1D3D3" stroke="#FFFFFF" stroke-miterlimit="10" width="0.949" height="5.804"/>
		<rect x="554.482" y="602.837" fill="#D1D3D3" stroke="#FFFFFF" stroke-miterlimit="10" width="0.946" height="5.804"/>
		<rect x="558.822" y="602.837" fill="#D1D3D3" stroke="#FFFFFF" stroke-miterlimit="10" width="0.949" height="5.804"/>
		<rect x="563.161" y="602.837" fill="#D1D3D3" stroke="#FFFFFF" stroke-miterlimit="10" width="0.949" height="5.804"/>
		<rect x="567.527" y="602.837" fill="#D1D3D3" stroke="#FFFFFF" stroke-miterlimit="10" width="0.946" height="5.804"/>
		<rect x="571.866" y="602.837" fill="#D1D3D3" stroke="#FFFFFF" stroke-miterlimit="10" width="0.949" height="5.804"/>
		<rect x="576.232" y="602.837" fill="#D1D3D3" stroke="#FFFFFF" stroke-miterlimit="10" width="0.946" height="5.804"/>
		<rect x="580.571" y="602.837" fill="#D1D3D3" stroke="#FFFFFF" stroke-miterlimit="10" width="0.946" height="5.804"/>
		<rect x="584.938" y="602.837" fill="#D1D3D3" stroke="#FFFFFF" stroke-miterlimit="10" width="0.949" height="5.804"/>
		<rect x="589.277" y="602.837" fill="#D1D3D3" stroke="#FFFFFF" stroke-miterlimit="10" width="0.946" height="5.804"/>
		<rect x="593.644" y="602.837" fill="#D1D3D3" stroke="#FFFFFF" stroke-miterlimit="10" width="0.949" height="5.804"/>
		<rect x="597.982" y="602.837" fill="#D1D3D3" stroke="#FFFFFF" stroke-miterlimit="10" width="0.946" height="5.804"/>
		<rect x="602.349" y="602.837" fill="#D1D3D3" stroke="#FFFFFF" stroke-miterlimit="10" width="0.949" height="5.804"/>
		<rect x="606.688" y="602.837" fill="#D1D3D3" stroke="#FFFFFF" stroke-miterlimit="10" width="0.949" height="5.804"/>
		<rect x="611.054" y="602.837" fill="#D1D3D3" stroke="#FFFFFF" stroke-miterlimit="10" width="0.949" height="5.804"/>
		<rect x="615.393" y="602.837" fill="#D1D3D3" stroke="#FFFFFF" stroke-miterlimit="10" width="0.949" height="5.804"/>
		<rect x="619.759" y="602.837" fill="#D1D3D3" stroke="#FFFFFF" stroke-miterlimit="10" width="0.949" height="5.804"/>
		<rect x="624.099" y="602.837" fill="#D1D3D3" stroke="#FFFFFF" stroke-miterlimit="10" width="0.949" height="5.804"/>
		<rect x="628.465" y="602.837" fill="#D1D3D3" stroke="#FFFFFF" stroke-miterlimit="10" width="0.949" height="5.804"/>
		<rect x="632.804" y="602.837" fill="#D1D3D3" stroke="#FFFFFF" stroke-miterlimit="10" width="0.949" height="5.804"/>
		<rect x="637.143" y="602.837" fill="#D1D3D3" stroke="#FFFFFF" stroke-miterlimit="10" width="0.949" height="5.804"/>
		<rect x="641.509" y="602.837" fill="#D1D3D3" stroke="#FFFFFF" stroke-miterlimit="10" width="0.949" height="5.804"/>
		<rect x="645.848" y="602.837" fill="#D1D3D3" stroke="#FFFFFF" stroke-miterlimit="10" width="0.949" height="5.804"/>
		<rect x="650.214" y="602.837" fill="#D1D3D3" stroke="#FFFFFF" stroke-miterlimit="10" width="0.949" height="5.804"/>
		<rect x="654.554" y="602.837" fill="#D1D3D3" stroke="#FFFFFF" stroke-miterlimit="10" width="0.949" height="5.804"/>
		<rect x="658.92" y="602.837" fill="#D1D3D3" stroke="#FFFFFF" stroke-miterlimit="10" width="0.949" height="5.804"/>
		<rect x="663.259" y="602.837" fill="#D1D3D3" stroke="#FFFFFF" stroke-miterlimit="10" width="0.949" height="5.804"/>
		<rect x="667.625" y="602.837" fill="#D1D3D3" stroke="#FFFFFF" stroke-miterlimit="10" width="0.949" height="5.804"/>
		<rect x="671.964" y="602.837" fill="#D1D3D3" stroke="#FFFFFF" stroke-miterlimit="10" width="0.949" height="5.804"/>
		<rect x="676.33" y="602.837" fill="#D1D3D3" stroke="#FFFFFF" stroke-miterlimit="10" width="0.949" height="5.804"/>
		<rect x="524.001" y="587.107" fill="#D1D3D3" stroke="#FFFFFF" stroke-miterlimit="10" width="0.949" height="5.804"/>
		<rect x="528.367" y="587.107" fill="#D1D3D3" stroke="#FFFFFF" stroke-miterlimit="10" width="0.949" height="5.804"/>
		<rect x="532.706" y="587.107" fill="#D1D3D3" stroke="#FFFFFF" stroke-miterlimit="10" width="0.949" height="5.804"/>
		<rect x="537.072" y="587.107" fill="#D1D3D3" stroke="#FFFFFF" stroke-miterlimit="10" width="0.949" height="5.804"/>
		<rect x="541.411" y="587.107" fill="#D1D3D3" stroke="#FFFFFF" stroke-miterlimit="10" width="0.949" height="5.804"/>
		<rect x="545.777" y="587.107" fill="#D1D3D3" stroke="#FFFFFF" stroke-miterlimit="10" width="0.946" height="5.804"/>
		<rect x="550.116" y="587.107" fill="#D1D3D3" stroke="#FFFFFF" stroke-miterlimit="10" width="0.949" height="5.804"/>
		<rect x="554.482" y="587.107" fill="#D1D3D3" stroke="#FFFFFF" stroke-miterlimit="10" width="0.946" height="5.804"/>
		<rect x="558.822" y="587.107" fill="#D1D3D3" stroke="#FFFFFF" stroke-miterlimit="10" width="0.949" height="5.804"/>
		<rect x="563.161" y="587.107" fill="#D1D3D3" stroke="#FFFFFF" stroke-miterlimit="10" width="0.949" height="5.804"/>
		<rect x="567.527" y="587.107" fill="#D1D3D3" stroke="#FFFFFF" stroke-miterlimit="10" width="0.946" height="5.804"/>
		<rect x="571.866" y="587.107" fill="#D1D3D3" stroke="#FFFFFF" stroke-miterlimit="10" width="0.949" height="5.804"/>
		<rect x="576.232" y="587.107" fill="#D1D3D3" stroke="#FFFFFF" stroke-miterlimit="10" width="0.946" height="5.804"/>
		<rect x="580.571" y="587.107" fill="#D1D3D3" stroke="#FFFFFF" stroke-miterlimit="10" width="0.946" height="5.804"/>
		<rect x="584.938" y="587.107" fill="#D1D3D3" stroke="#FFFFFF" stroke-miterlimit="10" width="0.949" height="5.804"/>
		<rect x="589.277" y="587.107" fill="#D1D3D3" stroke="#FFFFFF" stroke-miterlimit="10" width="0.946" height="5.804"/>
		<rect x="593.644" y="587.107" fill="#D1D3D3" stroke="#FFFFFF" stroke-miterlimit="10" width="0.949" height="5.804"/>
		<rect x="597.982" y="587.107" fill="#D1D3D3" stroke="#FFFFFF" stroke-miterlimit="10" width="0.946" height="5.804"/>
		<rect x="602.349" y="587.107" fill="#D1D3D3" stroke="#FFFFFF" stroke-miterlimit="10" width="0.949" height="5.804"/>
		<rect x="606.688" y="587.107" fill="#D1D3D3" stroke="#FFFFFF" stroke-miterlimit="10" width="0.949" height="5.804"/>
		<rect x="611.054" y="587.107" fill="#D1D3D3" stroke="#FFFFFF" stroke-miterlimit="10" width="0.949" height="5.804"/>
		<rect x="615.393" y="587.107" fill="#D1D3D3" stroke="#FFFFFF" stroke-miterlimit="10" width="0.949" height="5.804"/>
		<rect x="619.759" y="587.107" fill="#D1D3D3" stroke="#FFFFFF" stroke-miterlimit="10" width="0.949" height="5.804"/>
		<rect x="624.099" y="587.107" fill="#D1D3D3" stroke="#FFFFFF" stroke-miterlimit="10" width="0.949" height="5.804"/>
		<rect x="628.465" y="587.107" fill="#D1D3D3" stroke="#FFFFFF" stroke-miterlimit="10" width="0.949" height="5.804"/>
		<rect x="632.804" y="587.107" fill="#D1D3D3" stroke="#FFFFFF" stroke-miterlimit="10" width="0.949" height="5.804"/>
		<rect x="637.143" y="587.107" fill="#D1D3D3" stroke="#FFFFFF" stroke-miterlimit="10" width="0.949" height="5.804"/>
		<rect x="641.509" y="587.107" fill="#D1D3D3" stroke="#FFFFFF" stroke-miterlimit="10" width="0.949" height="5.804"/>
		<rect x="645.848" y="587.107" fill="#D1D3D3" stroke="#FFFFFF" stroke-miterlimit="10" width="0.949" height="5.804"/>
		<rect x="650.214" y="587.107" fill="#D1D3D3" stroke="#FFFFFF" stroke-miterlimit="10" width="0.949" height="5.804"/>
		<rect x="654.554" y="587.107" fill="#D1D3D3" stroke="#FFFFFF" stroke-miterlimit="10" width="0.949" height="5.804"/>
		<rect x="658.92" y="587.107" fill="#D1D3D3" stroke="#FFFFFF" stroke-miterlimit="10" width="0.949" height="5.804"/>
		<rect x="663.259" y="587.107" fill="#D1D3D3" stroke="#FFFFFF" stroke-miterlimit="10" width="0.949" height="5.804"/>
		<rect x="667.625" y="587.107" fill="#D1D3D3" stroke="#FFFFFF" stroke-miterlimit="10" width="0.949" height="5.804"/>
		<rect x="671.964" y="587.107" fill="#D1D3D3" stroke="#FFFFFF" stroke-miterlimit="10" width="0.949" height="5.804"/>
		<rect x="676.33" y="587.107" fill="#D1D3D3" stroke="#FFFFFF" stroke-miterlimit="10" width="0.949" height="5.804"/>
		<rect x="520.258" y="628.302" fill="#D1D3D3" stroke="#FFFFFF" stroke-miterlimit="10" width="0.949" height="5.806"/>
		<rect x="524.624" y="628.302" fill="#D1D3D3" stroke="#FFFFFF" stroke-miterlimit="10" width="0.949" height="5.806"/>
		<rect x="528.964" y="628.302" fill="#D1D3D3" stroke="#FFFFFF" stroke-miterlimit="10" width="0.949" height="5.806"/>
		<rect x="533.33" y="628.302" fill="#D1D3D3" stroke="#FFFFFF" stroke-miterlimit="10" width="0.949" height="5.806"/>
		<rect x="537.669" y="628.302" fill="#D1D3D3" stroke="#FFFFFF" stroke-miterlimit="10" width="0.949" height="5.806"/>
		<rect x="542.035" y="628.302" fill="#D1D3D3" stroke="#FFFFFF" stroke-miterlimit="10" width="0.949" height="5.806"/>
		<rect x="546.374" y="628.302" fill="#D1D3D3" stroke="#FFFFFF" stroke-miterlimit="10" width="0.949" height="5.806"/>
		<rect x="550.713" y="628.302" fill="#D1D3D3" stroke="#FFFFFF" stroke-miterlimit="10" width="0.949" height="5.806"/>
		<rect x="555.079" y="628.302" fill="#D1D3D3" stroke="#FFFFFF" stroke-miterlimit="10" width="0.949" height="5.806"/>
		<rect x="559.419" y="628.302" fill="#D1D3D3" stroke="#FFFFFF" stroke-miterlimit="10" width="0.949" height="5.806"/>
		<rect x="563.785" y="628.302" fill="#D1D3D3" stroke="#FFFFFF" stroke-miterlimit="10" width="0.949" height="5.806"/>
		<rect x="568.124" y="628.302" fill="#D1D3D3" stroke="#FFFFFF" stroke-miterlimit="10" width="0.949" height="5.806"/>
		<rect x="572.49" y="628.302" fill="#D1D3D3" stroke="#FFFFFF" stroke-miterlimit="10" width="0.949" height="5.806"/>
		<rect x="576.829" y="628.302" fill="#D1D3D3" stroke="#FFFFFF" stroke-miterlimit="10" width="0.949" height="5.806"/>
		<rect x="581.195" y="628.302" fill="#D1D3D3" stroke="#FFFFFF" stroke-miterlimit="10" width="0.946" height="5.806"/>
		<rect x="585.534" y="628.302" fill="#D1D3D3" stroke="#FFFFFF" stroke-miterlimit="10" width="0.949" height="5.806"/>
		<rect x="589.9" y="628.302" fill="#D1D3D3" stroke="#FFFFFF" stroke-miterlimit="10" width="0.946" height="5.806"/>
		<rect x="594.24" y="628.302" fill="#D1D3D3" stroke="#FFFFFF" stroke-miterlimit="10" width="0.949" height="5.806"/>
		<rect x="598.606" y="628.302" fill="#D1D3D3" stroke="#FFFFFF" stroke-miterlimit="10" width="0.946" height="5.806"/>
		<rect x="602.945" y="628.302" fill="#D1D3D3" stroke="#FFFFFF" stroke-miterlimit="10" width="0.946" height="5.806"/>
		<rect x="607.313" y="628.302" fill="#D1D3D3" stroke="#FFFFFF" stroke-miterlimit="10" width="0.946" height="5.806"/>
		<rect x="611.65" y="628.302" fill="#D1D3D3" stroke="#FFFFFF" stroke-miterlimit="10" width="0.946" height="5.806"/>
		<rect x="616.017" y="628.302" fill="#D1D3D3" stroke="#FFFFFF" stroke-miterlimit="10" width="0.949" height="5.806"/>
		<rect x="620.355" y="628.302" fill="#D1D3D3" stroke="#FFFFFF" stroke-miterlimit="10" width="0.946" height="5.806"/>
		<rect x="624.695" y="628.302" fill="#D1D3D3" stroke="#FFFFFF" stroke-miterlimit="10" width="0.946" height="5.806"/>
		<rect x="629.063" y="628.302" fill="#D1D3D3" stroke="#FFFFFF" stroke-miterlimit="10" width="0.946" height="5.806"/>
		<rect x="633.4" y="628.302" fill="#D1D3D3" stroke="#FFFFFF" stroke-miterlimit="10" width="0.946" height="5.806"/>
		<rect x="637.767" y="628.302" fill="#D1D3D3" stroke="#FFFFFF" stroke-miterlimit="10" width="0.949" height="5.806"/>
		<rect x="642.105" y="628.302" fill="#D1D3D3" stroke="#FFFFFF" stroke-miterlimit="10" width="0.946" height="5.806"/>
		<rect x="646.472" y="628.302" fill="#D1D3D3" stroke="#FFFFFF" stroke-miterlimit="10" width="0.949" height="5.806"/>
		<rect x="650.811" y="628.302" fill="#D1D3D3" stroke="#FFFFFF" stroke-miterlimit="10" width="0.949" height="5.806"/>
		<rect x="655.177" y="628.302" fill="#D1D3D3" stroke="#FFFFFF" stroke-miterlimit="10" width="0.949" height="5.806"/>
		<rect x="524.245" y="611.812" fill="#D1D3D3" stroke="#FFFFFF" stroke-miterlimit="10" width="0.949" height="5.805"/>
		<rect x="528.584" y="611.812" fill="#D1D3D3" stroke="#FFFFFF" stroke-miterlimit="10" width="0.949" height="5.805"/>
		<rect x="532.95" y="611.812" fill="#D1D3D3" stroke="#FFFFFF" stroke-miterlimit="10" width="0.949" height="5.805"/>
		<rect x="537.289" y="611.812" fill="#D1D3D3" stroke="#FFFFFF" stroke-miterlimit="10" width="0.949" height="5.805"/>
		<rect x="541.655" y="611.812" fill="#D1D3D3" stroke="#FFFFFF" stroke-miterlimit="10" width="0.948" height="5.805"/>
		<rect x="545.994" y="611.812" fill="#D1D3D3" stroke="#FFFFFF" stroke-miterlimit="10" width="0.949" height="5.805"/>
		<rect x="550.36" y="611.812" fill="#D1D3D3" stroke="#FFFFFF" stroke-miterlimit="10" width="0.946" height="5.805"/>
		<rect x="554.7" y="611.812" fill="#D1D3D3" stroke="#FFFFFF" stroke-miterlimit="10" width="0.948" height="5.805"/>
		<rect x="559.066" y="611.812" fill="#D1D3D3" stroke="#FFFFFF" stroke-miterlimit="10" width="0.946" height="5.805"/>
		<rect x="563.405" y="611.812" fill="#D1D3D3" stroke="#FFFFFF" stroke-miterlimit="10" width="0.948" height="5.805"/>
		<rect x="567.771" y="611.812" fill="#D1D3D3" stroke="#FFFFFF" stroke-miterlimit="10" width="0.946" height="5.805"/>
		<rect x="572.11" y="611.812" fill="#D1D3D3" stroke="#FFFFFF" stroke-miterlimit="10" width="0.946" height="5.805"/>
		<rect x="576.477" y="611.812" fill="#D1D3D3" stroke="#FFFFFF" stroke-miterlimit="10" width="0.949" height="5.805"/>
		<rect x="580.815" y="611.812" fill="#D1D3D3" stroke="#FFFFFF" stroke-miterlimit="10" width="0.946" height="5.805"/>
		<rect x="585.155" y="611.812" fill="#D1D3D3" stroke="#FFFFFF" stroke-miterlimit="10" width="0.948" height="5.805"/>
		<rect x="589.521" y="611.812" fill="#D1D3D3" stroke="#FFFFFF" stroke-miterlimit="10" width="0.946" height="5.805"/>
		<rect x="593.86" y="611.812" fill="#D1D3D3" stroke="#FFFFFF" stroke-miterlimit="10" width="0.946" height="5.805"/>
		<rect x="598.227" y="611.812" fill="#D1D3D3" stroke="#FFFFFF" stroke-miterlimit="10" width="0.949" height="5.805"/>
		<rect x="602.565" y="611.812" fill="#D1D3D3" stroke="#FFFFFF" stroke-miterlimit="10" width="0.946" height="5.805"/>
		<rect x="606.932" y="611.812" fill="#D1D3D3" stroke="#FFFFFF" stroke-miterlimit="10" width="0.949" height="5.805"/>
		<rect x="611.271" y="611.812" fill="#D1D3D3" stroke="#FFFFFF" stroke-miterlimit="10" width="0.946" height="5.805"/>
		<rect x="615.637" y="611.812" fill="#D1D3D3" stroke="#FFFFFF" stroke-miterlimit="10" width="0.949" height="5.805"/>
		<rect x="619.977" y="611.812" fill="#D1D3D3" stroke="#FFFFFF" stroke-miterlimit="10" width="0.949" height="5.805"/>
		<rect x="624.343" y="611.812" fill="#D1D3D3" stroke="#FFFFFF" stroke-miterlimit="10" width="0.949" height="5.805"/>
		<rect x="628.682" y="611.812" fill="#D1D3D3" stroke="#FFFFFF" stroke-miterlimit="10" width="0.949" height="5.805"/>
		<rect x="633.048" y="611.812" fill="#D1D3D3" stroke="#FFFFFF" stroke-miterlimit="10" width="0.949" height="5.805"/>
		<rect x="637.387" y="611.812" fill="#D1D3D3" stroke="#FFFFFF" stroke-miterlimit="10" width="0.949" height="5.805"/>
		<rect x="641.753" y="611.812" fill="#D1D3D3" stroke="#FFFFFF" stroke-miterlimit="10" width="0.949" height="5.805"/>
		<rect x="646.092" y="611.812" fill="#D1D3D3" stroke="#FFFFFF" stroke-miterlimit="10" width="0.949" height="5.805"/>
		<rect x="650.458" y="611.812" fill="#D1D3D3" stroke="#FFFFFF" stroke-miterlimit="10" width="0.949" height="5.805"/>
		<rect x="654.798" y="611.812" fill="#D1D3D3" stroke="#FFFFFF" stroke-miterlimit="10" width="0.949" height="5.805"/>
		<rect x="659.137" y="611.812" fill="#D1D3D3" stroke="#FFFFFF" stroke-miterlimit="10" width="0.949" height="5.805"/>
		<rect x="663.503" y="611.812" fill="#D1D3D3" stroke="#FFFFFF" stroke-miterlimit="10" width="0.949" height="5.805"/>
		<rect x="667.842" y="611.812" fill="#D1D3D3" stroke="#FFFFFF" stroke-miterlimit="10" width="0.949" height="5.805"/>
		<rect x="672.208" y="611.812" fill="#D1D3D3" stroke="#FFFFFF" stroke-miterlimit="10" width="0.949" height="5.805"/>
		<rect x="676.547" y="611.812" fill="#D1D3D3" stroke="#FFFFFF" stroke-miterlimit="10" width="0.949" height="5.805"/>
		
			<rect x="681.458" y="611.774" transform="matrix(0.9301 -0.3673 0.3673 0.9301 -178.1077 293.4449)" fill="#D1D3D3" stroke="#FFFFFF" stroke-miterlimit="10" width="0.949" height="5.804"/>
		
			<rect x="685.499" y="610.178" transform="matrix(0.9301 -0.3673 0.3673 0.9301 -177.2389 294.8172)" fill="#D1D3D3" stroke="#FFFFFF" stroke-miterlimit="10" width="0.949" height="5.804"/>
		
			<rect x="689.505" y="608.602" transform="matrix(0.9302 -0.367 0.367 0.9302 -176.2609 295.8518)" fill="#D1D3D3" stroke="#FFFFFF" stroke-miterlimit="10" width="0.95" height="5.804"/>
		
			<rect x="693.584" y="607.023" transform="matrix(0.9301 -0.3673 0.3673 0.9301 -175.5149 297.5667)" fill="#D1D3D3" stroke="#FFFFFF" stroke-miterlimit="10" width="0.949" height="5.803"/>
		
			<rect x="697.698" y="605.382" transform="matrix(0.9302 -0.3671 0.3671 0.9302 -174.5622 298.7867)" fill="#D1D3D3" stroke="#FFFFFF" stroke-miterlimit="10" width="0.947" height="5.805"/>
		
			<rect x="701.69" y="603.819" transform="matrix(0.93 -0.3677 0.3677 0.93 -173.8875 300.6512)" fill="#D1D3D3" stroke="#FFFFFF" stroke-miterlimit="10" width="0.948" height="5.804"/>
		
			<rect x="705.733" y="602.205" transform="matrix(0.9303 -0.3668 0.3668 0.9303 -172.7198 301.1821)" fill="#D1D3D3" stroke="#FFFFFF" stroke-miterlimit="10" width="0.948" height="5.803"/>
		
			<rect x="709.871" y="600.624" transform="matrix(0.9301 -0.3673 0.3673 0.9301 -172.0263 303.1015)" fill="#D1D3D3" stroke="#FFFFFF" stroke-miterlimit="10" width="0.949" height="5.805"/>
		
			<rect x="713.876" y="599.05" transform="matrix(0.9306 -0.3661 0.3661 0.9306 -170.7701 303.2817)" fill="#D1D3D3" stroke="#FFFFFF" stroke-miterlimit="10" width="0.95" height="5.804"/>
		
			<rect x="717.886" y="597.432" transform="matrix(0.93 -0.3677 0.3677 0.93 -170.405 306.1586)" fill="#D1D3D3" stroke="#FFFFFF" stroke-miterlimit="10" width="0.948" height="5.805"/>
		
			<rect x="721.924" y="595.851" transform="matrix(0.9301 -0.3673 0.3673 0.9301 -169.4302 307.1952)" fill="#D1D3D3" stroke="#FFFFFF" stroke-miterlimit="10" width="0.949" height="5.804"/>
		
			<rect x="725.988" y="594.244" transform="matrix(0.9301 -0.3673 0.3673 0.9301 -168.556 308.5755)" fill="#D1D3D3" stroke="#FFFFFF" stroke-miterlimit="10" width="0.949" height="5.803"/>
		
			<rect x="730.023" y="592.723" transform="matrix(0.9302 -0.367 0.367 0.9302 -167.6071 309.6123)" fill="#D1D3D3" stroke="#FFFFFF" stroke-miterlimit="10" width="0.95" height="5.802"/>
		
			<rect x="734.039" y="591" transform="matrix(0.9305 -0.3664 0.3664 0.9305 -166.5309 310.4433)" fill="#D1D3D3" stroke="#FFFFFF" stroke-miterlimit="10" width="0.949" height="5.804"/>
		
			<rect x="682.006" y="600.323" transform="matrix(0.9305 -0.3664 0.3664 0.9305 -173.5657 292.0258)" fill="#D1D3D3" stroke="#FFFFFF" stroke-miterlimit="10" width="0.949" height="5.804"/>
		
			<rect x="686.066" y="598.828" transform="matrix(0.93 -0.3675 0.3675 0.93 -173.092 294.4053)" fill="#D1D3D3" stroke="#FFFFFF" stroke-miterlimit="10" width="0.951" height="5.804"/>
		
			<rect x="690.139" y="597.124" transform="matrix(0.9307 -0.3657 0.3657 0.9307 -171.5979 294.1346)" fill="#D1D3D3" stroke="#FFFFFF" stroke-miterlimit="10" width="0.951" height="5.804"/>
		
			<rect x="694.152" y="595.577" transform="matrix(0.9302 -0.367 0.367 0.9302 -171.1566 296.6483)" fill="#D1D3D3" stroke="#FFFFFF" stroke-miterlimit="10" width="0.95" height="5.802"/>
		
			<rect x="698.163" y="593.973" transform="matrix(0.93 -0.3677 0.3677 0.93 -170.5145 298.6647)" fill="#D1D3D3" stroke="#FFFFFF" stroke-miterlimit="10" width="0.948" height="5.804"/>
		
			<rect x="702.258" y="592.365" transform="matrix(0.93 -0.3677 0.3677 0.93 -169.6363 300.0579)" fill="#D1D3D3" stroke="#FFFFFF" stroke-miterlimit="10" width="0.948" height="5.804"/>
		
			<rect x="706.275" y="590.816" transform="matrix(0.9306 -0.3661 0.3661 0.9306 -168.2838 299.9276)" fill="#D1D3D3" stroke="#FFFFFF" stroke-miterlimit="10" width="0.95" height="5.804"/>
		
			<rect x="710.344" y="589.152" transform="matrix(0.9306 -0.3661 0.3661 0.9306 -167.3921 301.3015)" fill="#D1D3D3" stroke="#FFFFFF" stroke-miterlimit="10" width="0.95" height="5.803"/>
		
			<rect x="714.379" y="587.62" transform="matrix(0.9306 -0.3661 0.3661 0.9306 -166.5511 302.6723)" fill="#D1D3D3" stroke="#FFFFFF" stroke-miterlimit="10" width="0.95" height="5.803"/>
		
			<rect x="718.45" y="586" transform="matrix(0.9301 -0.3673 0.3673 0.9301 -166.0547 305.2304)" fill="#D1D3D3" stroke="#FFFFFF" stroke-miterlimit="10" width="0.949" height="5.803"/>
		
			<rect x="722.512" y="584.453" transform="matrix(0.9302 -0.367 0.367 0.9302 -165.0963 306.2793)" fill="#D1D3D3" stroke="#FFFFFF" stroke-miterlimit="10" width="0.95" height="5.803"/>
		
			<rect x="726.526" y="582.753" transform="matrix(0.9305 -0.3664 0.3664 0.9305 -164.0319 307.1166)" fill="#D1D3D3" stroke="#FFFFFF" stroke-miterlimit="10" width="0.949" height="5.805"/>
		
			<rect x="681.813" y="585.216" transform="matrix(0.9301 -0.3673 0.3673 0.9301 -168.3276 291.7184)" fill="#D1D3D3" stroke="#FFFFFF" stroke-miterlimit="10" width="0.949" height="5.803"/>
		
			<rect x="685.951" y="583.602" transform="matrix(0.9298 -0.368 0.368 0.9298 -167.6676 293.7719)" fill="#D1D3D3" stroke="#FFFFFF" stroke-miterlimit="10" width="0.947" height="5.804"/>
		
			<rect x="689.862" y="582.016" transform="matrix(0.93 -0.3677 0.3677 0.93 -166.6997 294.7754)" fill="#D1D3D3" stroke="#FFFFFF" stroke-miterlimit="10" width="0.948" height="5.804"/>
		
			<rect x="693.938" y="580.398" transform="matrix(0.9307 -0.3657 0.3657 0.9307 -165.2179 294.3652)" fill="#D1D3D3" stroke="#FFFFFF" stroke-miterlimit="10" width="0.951" height="5.804"/>
		
			<rect x="698.002" y="578.792" transform="matrix(0.9305 -0.3664 0.3664 0.9305 -164.5641 296.3896)" fill="#D1D3D3" stroke="#FFFFFF" stroke-miterlimit="10" width="0.949" height="5.804"/>
		
			<rect x="702.071" y="577.234" transform="matrix(0.9301 -0.3673 0.3673 0.9301 -163.9802 298.6016)" fill="#D1D3D3" stroke="#FFFFFF" stroke-miterlimit="10" width="0.949" height="5.804"/>
		
			<rect x="706.111" y="575.64" transform="matrix(0.9305 -0.3664 0.3664 0.9305 -162.8448 299.1416)" fill="#D1D3D3" stroke="#FFFFFF" stroke-miterlimit="10" width="0.949" height="5.803"/>
		
			<rect x="710.15" y="574.043" transform="matrix(0.9301 -0.3673 0.3673 0.9301 -162.243 301.346)" fill="#D1D3D3" stroke="#FFFFFF" stroke-miterlimit="10" width="0.949" height="5.803"/>
		
			<rect x="714.185" y="572.395" transform="matrix(0.9307 -0.3657 0.3657 0.9307 -160.8881 301.2156)" fill="#D1D3D3" stroke="#FFFFFF" stroke-miterlimit="10" width="0.951" height="5.804"/>
		
			<rect x="718.224" y="570.799" transform="matrix(0.9306 -0.3661 0.3661 0.9306 -160.1267 302.9125)" fill="#D1D3D3" stroke="#FFFFFF" stroke-miterlimit="10" width="0.95" height="5.803"/>
		
			<rect x="722.305" y="569.262" transform="matrix(0.93 -0.3677 0.3677 0.93 -159.7382 305.8102)" fill="#D1D3D3" stroke="#FFFFFF" stroke-miterlimit="10" width="0.948" height="5.804"/>
		
			<rect x="726.37" y="567.654" transform="matrix(0.9301 -0.3673 0.3673 0.9301 -158.7628 306.8571)" fill="#D1D3D3" stroke="#FFFFFF" stroke-miterlimit="10" width="0.949" height="5.804"/>
	</g>
	<g id="purple-parking">
		<path fill="#D1D3D3" stroke="#FFFFFF" stroke-miterlimit="10" d="M366.763,307.561l20.721,45.425
			C386.75,351.359,367.196,308.483,366.763,307.561z"/>
		
			<rect x="392.09" y="348.125" transform="matrix(0.9035 -0.4286 0.4286 0.9035 -111.2972 202.9575)" fill="#D1D3D3" stroke="#FFFFFF" stroke-miterlimit="10" width="5.803" height="0.949"/>
		
			<rect x="390.219" y="344.195" transform="matrix(0.9034 -0.4287 0.4287 0.9034 -109.8097 201.8345)" fill="#D1D3D3" stroke="#FFFFFF" stroke-miterlimit="10" width="5.804" height="0.949"/>
		
			<rect x="388.397" y="340.257" transform="matrix(0.9034 -0.4287 0.4287 0.9034 -108.2976 200.6733)" fill="#D1D3D3" stroke="#FFFFFF" stroke-miterlimit="10" width="5.804" height="0.95"/>
		
			<rect x="386.439" y="336.329" transform="matrix(0.9035 -0.4286 0.4286 0.9035 -106.7815 199.3787)" fill="#D1D3D3" stroke="#FFFFFF" stroke-miterlimit="10" width="5.803" height="0.949"/>
		
			<rect x="384.569" y="332.4" transform="matrix(0.9034 -0.4287 0.4287 0.9034 -105.2983 198.2729)" fill="#D1D3D3" stroke="#FFFFFF" stroke-miterlimit="10" width="5.804" height="0.949"/>
		
			<rect x="382.745" y="328.457" transform="matrix(0.9035 -0.4286 0.4286 0.9035 -103.7687 197.0533)" fill="#D1D3D3" stroke="#FFFFFF" stroke-miterlimit="10" width="5.803" height="0.949"/>
		
			<rect x="380.852" y="324.529" transform="matrix(0.9034 -0.4288 0.4288 0.9034 -102.2873 195.9365)" fill="#D1D3D3" stroke="#FFFFFF" stroke-miterlimit="10" width="5.803" height="0.949"/>
		
			<rect x="378.98" y="320.599" transform="matrix(0.9034 -0.4288 0.4288 0.9034 -100.7831 194.7545)" fill="#D1D3D3" stroke="#FFFFFF" stroke-miterlimit="10" width="5.803" height="0.949"/>
		
			<rect x="377.11" y="316.669" transform="matrix(0.9034 -0.4287 0.4287 0.9034 -99.2744 193.5557)" fill="#D1D3D3" stroke="#FFFFFF" stroke-miterlimit="10" width="5.804" height="0.949"/>
		
			<rect x="372.967" y="347.849" transform="matrix(0.9034 -0.4288 0.4288 0.9034 -113.0494 194.8126)" fill="#D1D3D3" stroke="#FFFFFF" stroke-miterlimit="10" width="5.805" height="0.949"/>
		
			<rect x="371.143" y="343.918" transform="matrix(0.9035 -0.4286 0.4286 0.9035 -111.5104 193.555)" fill="#D1D3D3" stroke="#FFFFFF" stroke-miterlimit="10" width="5.803" height="0.949"/>
		
			<rect x="369.25" y="339.99" transform="matrix(0.9034 -0.4288 0.4288 0.9034 -110.0372 192.4553)" fill="#D1D3D3" stroke="#FFFFFF" stroke-miterlimit="10" width="5.803" height="0.949"/>
		
			<rect x="367.426" y="336.054" transform="matrix(0.9035 -0.4286 0.4286 0.9035 -108.4986 191.2029)" fill="#D1D3D3" stroke="#FFFFFF" stroke-miterlimit="10" width="5.803" height="0.95"/>
		
			<rect x="365.58" y="332.116" transform="matrix(0.9034 -0.4288 0.4288 0.9034 -107.0159 190.1214)" fill="#D1D3D3" stroke="#FFFFFF" stroke-miterlimit="10" width="5.803" height="0.949"/>
		
			<rect x="363.616" y="328.189" transform="matrix(0.9035 -0.4286 0.4286 0.9035 -105.4954 188.811)" fill="#D1D3D3" stroke="#FFFFFF" stroke-miterlimit="10" width="5.803" height="0.949"/>
		
			<rect x="361.77" y="324.258" transform="matrix(0.9034 -0.4288 0.4288 0.9034 -104.0194 187.7455)" fill="#D1D3D3" stroke="#FFFFFF" stroke-miterlimit="10" width="5.803" height="0.949"/>
		
			<rect x="359.967" y="320.329" transform="matrix(0.9035 -0.4287 0.4287 0.9035 -102.4883 186.5218)" fill="#D1D3D3" stroke="#FFFFFF" stroke-miterlimit="10" width="5.802" height="0.949"/>
		
			<rect x="358.074" y="316.388" transform="matrix(0.9034 -0.4287 0.4287 0.9034 -100.9921 185.3671)" fill="#D1D3D3" stroke="#FFFFFF" stroke-miterlimit="10" width="5.804" height="0.949"/>
		
			<rect x="356.204" y="312.459" transform="matrix(0.9035 -0.4286 0.4286 0.9035 -99.4685 184.1162)" fill="#D1D3D3" stroke="#FFFFFF" stroke-miterlimit="10" width="5.803" height="0.949"/>
		<path fill="#D1D3D3" stroke="#FFFFFF" stroke-miterlimit="10" d="M366.763,307.561c0.436,0.922,19.987,43.798,20.721,45.425
			L366.763,307.561l-0.516,0.244c0.435,0.922,20.557,45.045,20.746,45.479l1.031-0.461c-0.19-0.434-20.342-44.557-20.747-45.479
			L366.763,307.561z"/>
	</g>
	<g id="r181">
		<path id="_x31_81" fill="#D1D3D3" stroke="#FFFFFF" stroke-miterlimit="10" d="M451.564,470.087H435.67v14.617l0,0
			c-0.105,9.222-0.081,22.237,0,27.607h15.895V470.087z"/>
	</g>
	<g id="r144">
		<path fill="#D1D3D3" stroke="#FFFFFF" stroke-miterlimit="10" d="M404.648,542.551v20.746h9.354v-20.746
			C411.347,542.551,407.36,542.551,404.648,542.551z"/>
	</g>
	<g id="r182-183">
		<rect x="372.188" y="484.704" fill="#D1D3D3" stroke="#FFFFFF" stroke-miterlimit="10" width="15.023" height="27.607"/>
		<g id="_x31_82">
			<rect x="387.211" y="484.704" fill="#D1D3D3" stroke="#FFFFFF" stroke-miterlimit="10" width="16.868" height="27.607"/>
		</g>
	</g>
	<path id="r119" fill="#D1D3D3" stroke="#FFFFFF" stroke-miterlimit="10" d="M526.414,351.738h-9.112l1.709-11.2l-28.503-11.199
		h-8.566c-0.027,8.217-0.163,50.225,0.188,51.229c0.38,1.112,0.76,7.105,5.234,7.485c1.601,0.136,15.104,1.383,32.679,3.743
		c0.841-6.238,2.848-17.765,3.499-21.344h-5.479L526.414,351.738z"/>
	<polygon id="k103-2a" fill="#D1D3D3" stroke="#FFFFFF" stroke-miterlimit="10" points="271.103,493.404 274.054,496.785 
		282.175,488.418 279.912,485.634 	"/>
	
		<rect id="g07" x="503.595" y="753.617" transform="matrix(-0.9993 0.0372 -0.0372 -0.9993 1068.1119 1493.5713)" fill="#D1D3D3" width="33.138" height="6.205"/>
	<path id="bossini" fill="#D1D3D3" stroke="#FFFFFF" stroke-miterlimit="10" d="M378.345,428.638c0,0,5.589-1.688,8.269-2.134
		l7.024,32.488l-5.97,1.579L378.345,428.638z"/>
	<path id="skin-food" fill="#D1D3D3" stroke="#FFFFFF" stroke-miterlimit="10" d="M370.479,431.031c0,0,4.523-1.567,7.866-2.393
		l9.323,31.932l-6.126,1.624L370.479,431.031z"/>
	<path id="etam" fill="#D1D3D3" stroke="#FFFFFF" stroke-miterlimit="10" d="M386.506,426.507c0,0,6.945-1.437,7.427-1.529
		l6.777,32.506l-7.072,1.485L386.506,426.507z"/>
	<rect id="bisous" x="412.333" y="484.704" fill="#D1D3D3" stroke="#FFFFFF" stroke-miterlimit="10" width="7.99" height="27.607"/>
</g>
<g id="signs">
	<g id="escalator">
		<rect id="escalator_18_" x="265.336" y="416.852" width="12.204" height="12.204"/>
		<rect id="escalator_17_" x="228.399" y="499.295" width="12.204" height="12.203"/>
		<rect id="escalator_16_" x="265.173" y="500.76" width="12.204" height="12.203"/>
		<rect id="escalator_15_" x="360.091" y="590.85" width="12.204" height="12.204"/>
		<rect id="escalator_14_" x="416.093" y="522.482" width="12.204" height="12.201"/>
		<rect id="escalator_13_" x="500.434" y="642.024" width="12.204" height="12.201"/>
		<rect id="escalator_12_" x="729.051" y="496.365" width="12.203" height="12.203"/>
		<rect id="escalator_19_" x="590.66" y="520.476" width="12.204" height="12.203"/>
		<rect id="escalator_11_" x="633.997" y="443.049" width="12.203" height="12.204"/>
		<rect id="escalator_10_" x="465.938" y="498.562" width="12.203" height="12.202"/>
		<rect id="escalator_9_" x="458.264" y="418.181" width="12.203" height="12.204"/>
		<rect id="escalator_8_" x="501.221" y="399.089" width="12.203" height="12.204"/>
		<rect id="escalator_7_" x="387.562" y="405.19" width="12.202" height="12.204"/>
		<rect id="escalator_26_" x="442.832" y="520.476" width="12.204" height="12.203"/>
		<rect id="escalator_1_" x="512.638" y="740.778" width="12.204" height="12.203"/>
	</g>
	<g id="entrance">
		<rect id="entrance" x="461.979" y="640.125" width="12.204" height="12.204"/>
		<rect id="entrance_2_" x="587.541" y="585.697" width="12.204" height="12.204"/>
		<rect id="entrance_3_" x="666.134" y="586.186" width="12.203" height="12.203"/>
		<rect id="entrance_4_" x="704.751" y="569.263" width="12.204" height="12.204"/>
		<rect id="entrance_5_" x="811.222" y="495.199" width="12.204" height="12.203"/>
		<rect id="entrance_6_" x="462.819" y="298.042" width="12.204" height="12.203"/>
		<rect id="entrance_7_" x="353.067" y="363.861" width="12.201" height="12.204"/>
		<rect id="entrance_8_" x="182.432" y="560.99" width="12.204" height="12.204"/>
	</g>
	<g id="elevator">
		<rect id="elevator_19_" x="594.729" y="556.002" width="12.203" height="12.202"/>
		<rect id="elevator_18_" x="355.236" y="559.717" width="12.204" height="12.204"/>
		<rect id="elevator_17_" x="272.278" y="468.079" width="12.204" height="12.204"/>
		<rect id="elevator_16_" x="333.785" y="381.76" width="12.204" height="12.204"/>
		<rect id="elevator_15_" x="623.041" y="391.224" width="12.203" height="12.204"/>
		<rect id="elevator_14_" x="754.488" y="548.896" width="12.204" height="12.201"/>
	</g>
	<rect id="prayer-room" x="333.649" y="366.193" width="12.204" height="12.204"/>
	<g id="toilet">
		<rect id="toilet_3_" x="535.255" y="459.674" width="12.204" height="12.203"/>
		<rect id="toilet_4_" x="373.977" y="459.836" width="12.203" height="12.203"/>
	</g>
	<g id="family-room">
		<rect id="family_room_3_" x="389.136" y="473.722" width="12.204" height="12.203"/>
		<rect id="family_room_2_" x="550.523" y="473.722" width="12.201" height="12.203"/>
	</g>
	<g id="handicap">
		<rect id="handicap_3_" x="535.337" y="473.722" width="12.203" height="12.203"/>
		<rect id="handicap_2_" x="373.977" y="473.722" width="12.203" height="12.203"/>
	</g>
	<g id="kid-toilet">
		<rect id="kid_toilet_1_" x="550.442" y="459.674" width="12.202" height="12.203"/>
		<rect id="kid_toilet" x="389.136" y="459.836" width="12.204" height="12.203"/>
	</g>
	<rect id="information" x="483.457" y="395.156" width="12.204" height="12.204"/>
	<g id="atm">
		<rect id="ATM_2_" x="216.738" y="484.515" width="12.204" height="12.204"/>
		<rect id="ATM_4_" x="594.891" y="569.994" width="12.204" height="12.204"/>
	</g>
</g>
<path id="earths" fill="#D1D3D3" stroke="#FFFFFF" stroke-miterlimit="10" d="M572.731,434.297c0,0,5.614,2.543,6.379,3.029
	c0,0-8.771,24.148-9.44,25.411l-7.025-3.485L572.731,434.297z"/>
<path id="hannese" fill="#D1D3D3" stroke="#FFFFFF" stroke-miterlimit="10" d="M566.226,431.931c0,0,4.81,1.591,6.506,2.366
	l-10.087,24.955l-6.969-3.457L566.226,431.931z"/>
</svg>
