<?xml version="1.0" encoding="utf-8"?>
<!-- Generator: Adobe Illustrator 19.2.0, SVG Export Plug-In . SVG Version: 6.00 Build 0)  -->
<svg version="1.1" id="Layer_1" xmlns="http://www.w3.org/2000/svg" xmlns:xlink="http://www.w3.org/1999/xlink" x="0px" y="0px"
	 viewBox="0 0 1000 1000" style="enable-background:new 0 0 1000 1000;" xml:space="preserve">
<style type="text/css">
	.st0{fill:#EDEFEF;}
	.st1{fill:#FFFFFF;stroke:#FFFFFF;stroke-width:4;stroke-miterlimit:10;}
	.st2{fill:#999999;stroke:#FFFFFF;stroke-miterlimit:10;}
	.st3{fill:#999999;stroke:#FFFFFF;stroke-width:4;stroke-miterlimit:10;}
	.st4{fill:#999999;}
	.st5{fill:#D1D3D3;stroke:#FFFFFF;stroke-miterlimit:10;}
	.st6{fill:none;stroke:#FFFFFF;stroke-miterlimit:10;}
	.st7{fill:#D1D3D3;}
	.st8{display:none;}
	.st9{display:inline;}
</style>
<g id="background">
	<rect y="186.2" class="st0" width="1000" height="627.6"/>
</g>
<g id="etc">
	<path class="st1" d="M965.7,495.1L948,477.4h-30l-19.5-22.9l7.3-6.9l-35.8-41l-56.1-36.2l10.2-16.7l-35-21.2l4.9-12.2l-64-24.8
		l-14.6,38.2l-75.3-29.3l-5.6,14.5l-22.7,58.3l-12.7-2l2-11.4l-13.1-1.6l2.1-13l-40.2-16.7l-49.9-0.8l-0.6,0.2l-13.9,5.9l-19-48.8
		l1.9-2.4l-4.9-11.8l-6.4,2.1c-4.9-8.4-14-13.9-24.4-13.9c-15.7,0-28.4,12.7-28.4,28.4c0,2.1,0.2,4.1,0.7,6l-6.6,2.6
		c-4.8-9-14.2-15.1-25.1-15.1c-15.7,0-28.4,12.7-28.4,28.4c0,2,0.2,4,0.6,5.9l-3.6,1.3l-13.9,5l-36.3,13.2l-51.9,56.5l-44.7,32.6
		l-5.6,4.1l-10.7,7.8L160,453.4l-18.4,13.4l-28.3,20.7l-4.2,4.5l-6.8,7.3l-32.5,34.8c0,0-9-0.6-13.8,2.1S43.4,549.4,42.2,553
		c-1.2,3.7-6.1,14.5-1.2,23.7s20.7,21.4,26,28.1s19.1,11,26.8,4.4s14.2-10,18.3-10c4.1,0.1,11.4-4.4,11-5.6
		c-0.1-0.2-0.5-0.8-1.3-1.6h1.4l13.3,12.8l7,6.8l8.2,7.9l29.2,28.2l8.8-0.2l41.1-1h24.7h18.7h10.4h0.1h10.4h10.5h10.6h10.4h0.1h10.4
		h10.5H358h0.1h12.3v7.2h-32.5v6.6h-45.1c-0.7,0-1.3,0.2-1.8,0.7l-13.1,6.2c-1.4-0.2-2.8-0.3-4.3-0.3c-15.4,0-28,12.6-28,28
		s12.6,28,28,28c1.6,0,3.2-0.1,4.8-0.4l12.2,7.3c0.5,0.6,1.3,1,2.1,1h340c-0.3,1.2-0.4,2.4-0.4,3.7c0,11.9,12.3,21.6,27.4,21.6
		c15.1,0,27.4-9.7,27.4-21.6c0-1.2-0.1-2.5-0.4-3.7h80.4c0.5,0,1-0.2,1.5-0.4c3.5-0.9,15.9-3.1,26.8-5.1c19.1-3.4,22.2-4,23-4.6
		c3.3-1.7,48.4-19.7,78.2-31.5l1.2-0.5l-0.8-4.2c4.1-1.3,7.8-4.2,10.5-8.4c3-4.6,4.7-10.6,4.7-16.7c0-9.7-4.1-18.1-10.2-22.5h63.7
		V495.1L965.7,495.1z"/>
	<path class="st2" d="M387.1,509.8c-8.8,3.5-42.2,16.9-47.6,23h54.3v-5.2L387.1,509.8z"/>
	<path class="st3" d="M592.8,493.9H582c0,0.1,0,0.1,0,0.2v-0.2h-13.3v23.8h-23.6v5.9h51.8V534h10.6v-37.5L592.8,493.9z"/>
	<polygon class="st3" points="662.1,509.1 656.8,532.7 709.5,532.7 	"/>
	<path class="st3" d="M537.5,496.9c-0.7-3.3-0.5-4.8-2.8-10.7c-1.6-4.1-2.7-9.3-3-12.7h4.6v-13.8h-22v13.8h4.7
		c-1.5,4.2-3.4,13-4.7,17.5c-1.7,5.7-2.9,11.2-2.2,22.3c0.7,11.1,2.9,11.4,3.9,15.6c1,4.1,1.7,11.1,1.7,11.5c0,0.2-0.3,1.7-0.7,3.1
		h-2.7v14.6h22v-14.6h-6c0.3-3.3,1-8.2,1.4-8.7c0.6-0.7,3.3-8.1,4.6-13.6c1.3-5.4,1-10.7,1.2-13.8
		C537.8,504.6,538.2,500.2,537.5,496.9z"/>
	<rect x="497.2" y="523.6" class="st3" width="3.6" height="5.2"/>
	<rect x="500.8" y="523.6" class="st3" width="3.9" height="5.2"/>
	<rect x="500.8" y="528.9" class="st3" width="3.9" height="5.1"/>
	<rect x="497.2" y="528.9" class="st3" width="3.6" height="5.1"/>
	<path class="st3" d="M497.2,538.8v6.3h3.6c0-1.5,0-4.7,0-6.3H497.2z"/>
	<path class="st3" d="M504.7,538.8h-3.9c0,1.6,0,4.8,0,6.3h3.9V538.8z"/>
	<path class="st3" d="M497.2,545.1v5.6h3.6c0-2.4,0-3.2,0-5.6H497.2z"/>
	<path class="st3" d="M504.7,545.1h-3.9c0,2.4,0,3.2,0,5.6h3.9V545.1z"/>
	<rect x="497.2" y="556.5" class="st3" width="3.6" height="6"/>
	<rect x="497.2" y="562.5" class="st3" width="3.6" height="5.6"/>
	<rect x="500.8" y="556.5" class="st3" width="3.9" height="6"/>
	<rect x="500.8" y="562.5" class="st3" width="3.9" height="5.6"/>
	<rect x="497.2" y="455.8" class="st3" width="3.6" height="5.2"/>
	<rect x="500.8" y="455.8" class="st3" width="3.9" height="5.2"/>
	<rect x="500.8" y="461.1" class="st3" width="3.9" height="5.1"/>
	<rect x="497.2" y="461.1" class="st3" width="3.6" height="5.1"/>
	<path class="st3" d="M497.2,471v6.3h3.6c0-1.5,0-4.7,0-6.3H497.2z"/>
	<path class="st3" d="M504.7,471h-3.9c0,1.6,0,4.8,0,6.3h3.9V471z"/>
	<path class="st3" d="M497.2,477.3v5.6h3.6c0-2.4,0-3.2,0-5.6H497.2z"/>
	<path class="st3" d="M504.7,477.3h-3.9c0,2.4,0,3.2,0,5.6h3.9V477.3z"/>
	<rect x="497.2" y="488.7" class="st3" width="3.6" height="6"/>
	<rect x="497.2" y="494.7" class="st3" width="3.6" height="5.6"/>
	<rect x="500.8" y="488.7" class="st3" width="3.9" height="6"/>
	<rect x="500.8" y="494.7" class="st3" width="3.9" height="5.6"/>
	<polygon class="st4" points="573.4,418.4 573.4,442.4 592.8,445.7 594.6,440.4 608.8,445.7 624.7,445.7 624.7,452.1 648.7,457.2 
		650.2,431.4 636.1,428.2 635.2,433.1 617.6,424.5 592.8,426.2 592.8,418.4 	"/>
	<path class="st4" d="M701.4,449.9c-0.2,2.7-1.9,24.8-1.9,24.8l18.8,9.1l3-2.7l12.7,7.6l-2.3,3l23.1,13.3l15.9-13.3c0,0,2.8-2,0-4.9
		S707.6,453,707.6,453L701.4,449.9z"/>
	<path class="st4" d="M499,416.4l-4.9,22l-21.2,3.7l-3.5-4.2l-4.6,5.8l-43.9,8.5c0,0-1.5-25.8,0-25s20.5-4.2,20.5-4.2l-0.3,3.7
		l33.6-3.7l1.4-6.5h21.1L499,416.4L499,416.4z"/>
	<polygon class="st4" points="369.6,441.1 317.8,464.1 317.1,464.5 320.1,491.8 369.6,466.8 	"/>
	<g>
		<path class="st4" d="M234,527.1c0.4-0.8,7.4,0.5,7.4,0.5s10.5-11.5,12.8-12.6c2.4-1.1,0-5.3,0-5.3l-0.9-1.9
			c-0.2-0.5,4-2.9,4.5-3.2c1.8-0.9,3.7-1.4,5.6-1.5c3.9-0.2,7.6,1.5,10.8,3.4c6.4,3.9,11.9,10.4,12.3,18.1c0.2,4.6,0.2,9.2-0.2,13.8
			c-0.3,3.7-0.3,9.3-2.4,12.6c-3.7,5.8-9,10.8-15.8,12.4c-7.3,1.8-17.1,0.4-23.7-3.2c-6.3-3.5-8.5-9.5-10.6-16.1
			C232.1,538.7,231.6,532.6,234,527.1z"/>
		<path class="st4" d="M281.6,560.1c-0.6-1-1.4-1.4-2.4-1h-0.1c0,0-3.1,2-6.4,3.6l0,0c-1,0.5-1.9,0.9-2.7,1.2
			c-1.4,0.6-4.2,0.9-8.1,1l0,0c-4.3,0.1-8.3-0.1-8.4-0.1l0,0c-0.3,0-0.6,0.1-0.7,0.4c-0.6,1.2,0.4,5.3,0.8,5.9
			c0.8,0.9,6.2,1.7,7.9,1.7c0.2,0,0.4,0,0.5-0.1l0,0c0.6,0,1.1,0,1.7,0c1.9,0,3.7-0.1,5.3-0.4c1.3-0.2,3.3-0.6,5.4-1.2l0,0l0.4-0.1
			l0.4-0.1l0,0c2.4-0.8,4.4-1.7,5.7-2.7C282.7,567.1,282.8,562.2,281.6,560.1z M254.3,570.6c-0.5-0.6-1.1-4.5-0.8-5
			c0.5,0,4.1,0.2,8,0.1c0,0.1,0,0.2,0,0.3s0,0.1,0,0.1c0,0.2,0,0.5,0,0.7c0,0.1,0,0.1,0,0.1c0,0.2,0,0.5,0,0.7v0.1
			c0,0.9,0,1.8,0,2.7c0,0.1,0,0.1,0,0.1c0,0.2,0,0.5,0,0.8c0,0.1,0,0.2,0,0.2c0,0.1,0,0.3,0,0.4
			C260.2,572.1,254.8,571.2,254.3,570.6z M269.1,571.7c-2,0.3-4.3,0.4-6.6,0.4c0-0.1,0-0.2,0-0.3s0-0.3,0-0.4c0-0.2,0-0.3,0-0.5
			c0-0.1,0-0.2,0-0.4s0-0.4,0-0.6c0-0.1,0-0.2,0-0.2c0-0.3,0-0.6,0-0.9l0,0c0-0.3,0-0.6,0-0.9v-0.1c0-0.2,0-0.5,0-0.8v-0.1
			c0-0.2,0-0.5,0-0.8V566c0-0.1,0-0.2,0-0.4c3.8-0.1,6.5-0.5,8-1.1c0.7-0.3,1.5-0.6,2.4-1c0.1,0.2,0.1,0.5,0.2,0.7s0.1,0.4,0.2,0.6
			c0.1,0.3,0.2,0.7,0.2,1c0.1,0.2,0.1,0.4,0.1,0.6c0.1,0.4,0.2,0.8,0.3,1.2c0,0.1,0.1,0.2,0.1,0.4c0.1,0.5,0.3,1.1,0.4,1.6l0.2,0.8
			C272.3,571.1,270.4,571.5,269.1,571.7z M280.6,567.7c-1.3,1-3.1,1.8-5.5,2.6l-0.2-0.7c-0.1-0.5-0.3-1.1-0.4-1.6
			c0-0.1-0.1-0.2-0.1-0.2c-0.1-0.4-0.2-0.9-0.4-1.3c-0.1-0.2-0.1-0.4-0.1-0.6c-0.1-0.4-0.2-0.7-0.3-1c-0.1-0.2-0.1-0.4-0.1-0.6
			c-0.1-0.3-0.1-0.6-0.2-0.8c3-1.5,5.8-3.3,6.2-3.5c0.4-0.1,0.9-0.2,1.3,0.7C282,562.5,281.7,566.8,280.6,567.7z"/>
	</g>
	<path class="st4" d="M793.9,659.5c0.9-0.3,30.5-13.1,30.5-13.1s4.3-2.3,4.1-11.1h-34.6V659.5L793.9,659.5z"/>
	<g>
		<path class="st4" d="M229.3,538.8c-0.3,0-0.6,0-0.9,0c-0.2,0-0.5,0-0.7,0c-0.3,0-0.5-0.1-0.7-0.3c-0.9-1.1-0.4-3.6-0.1-5.5
			c0.1-0.3,0.1-0.5,0.1-0.8l0.1-0.4h0.4c0.6,0,1.2,0.2,1.8,0.3c0.7,0.2,1.3,0.3,2,0.3h0.5l-0.1,0.5c-0.1,0.7-0.1,1.4-0.1,2.1
			c0,0.7,0,1.5-0.1,2.2v0.1c-0.1,1-0.2,1.2-1.3,1.4C229.8,538.8,229.6,538.8,229.3,538.8z M227.7,532.7c0,0.1-0.1,0.2-0.1,0.4
			c-0.3,1.5-0.7,4-0.1,4.8h0.1c0.2,0,0.5,0,0.8,0c0.5,0,1.1,0.1,1.5,0c0.1,0,0.5-0.1,0.5-0.1c0-0.1,0.1-0.3,0.1-0.5v-0.1
			c0.1-0.7,0.1-1.4,0.1-2.1c0-0.6,0-1.2,0.1-1.7c-0.6,0-1.2-0.2-1.7-0.3C228.6,532.8,228.2,532.8,227.7,532.7z"/>
	</g>
	<g>
		<path class="st4" d="M231,533.3c-0.7,0-1.4-0.2-2-0.3s-1.1-0.3-1.6-0.3h-0.5l0.1-0.5c0-0.2,0.1-0.3,0.1-0.4
			c0.1-0.4,0.1-0.7,0.1-1.1c0.1-1.3,0.2-2.6,0.9-3.8c0.2-0.4,0.6-0.7,1.1-0.8c1.1-0.2,2.6,0.7,3.2,1.3l0,0c0.5,0.4,0.2,1.6-0.4,3.9
			c-0.2,0.6-0.3,1.2-0.4,1.4v0.1v0.4h-0.4C231.2,533.3,231.1,533.3,231,533.3z M227.9,531.9c0.5,0.1,0.9,0.2,1.3,0.3
			c0.6,0.1,1.1,0.3,1.6,0.3c0.1-0.3,0.2-0.8,0.4-1.4c0.2-0.9,0.7-2.7,0.6-3.1c-0.6-0.5-1.8-1.2-2.5-1.1c-0.2,0-0.4,0.1-0.5,0.4
			c-0.6,1-0.7,2.3-0.8,3.5C228,531.1,227.9,531.5,227.9,531.9L227.9,531.9z"/>
	</g>
	<path class="st4" d="M364.5,386.4c-0.1,0.7,2.1,6.2,2.1,6.2l2.4-0.8l6.3,16.6c0,0,11-3,10.7-3.7s-4.7-13.2-4.7-13.2
		s57.6-17.6,75.7-16.1l-1.2-18.7l-26.2,8.5l-1-3.9L364.5,386.4z"/>
	<path class="st4" d="M499.4,332l-13.9,5.9l-19-48.8l1.9-2.4l-4.9-11.8l-6.4,2.1c-4.9-8.4-14-13.9-24.4-13.9
		c-15.7,0-28.4,12.7-28.4,28.4c0,2.1,0.2,4.1,0.7,6l-6.6,2.6c-4.8-8.9-14.2-15.1-25.1-15.1c-15.7,0-28.4,12.7-28.4,28.4
		c0,2,0.2,4,0.6,5.9l-3.6,1.3l1.1,2.8l116.6-43.8l23.3,60.7l-17.1,6.5c0,0.9,1.1,25.8,1.4,26.5c0,0.1,0,0.1,0,0.2
		c2.9-0.3,5.8-0.5,8.7-0.8v0.3c8-1,15.8-0.8,23.8-1.3L499.4,332z"/>
	<path class="st4" d="M123.1,593.7c-0.4-1.2-24-24.9-24-24.9s-13.8-21.6-11-34.7c2.2-10.4,2.2-11.9,2.1-12.1
		c2.7-8.3,7-15.6,12.4-22.3l-0.3-0.4l-32.5,34.8c0,0-8.9-0.6-13.8,2.1c-4.9,2.7-12.6,13.2-13.8,16.9s-6.1,14.5-1.2,23.7
		s20.7,21.4,26,28.1c5.3,6.7,19.1,11,26.8,4.4s14.2-10,18.3-10C116.2,599.4,123.5,594.9,123.1,593.7z"/>
	<path class="st4" d="M133.8,488.7l14.7-15.7l-6.9-6.2l-28.3,20.7l-4.2,4.5l9.8,9.4l11.1-10.3l17.8,16.8c2-1.2,3.4-2.1,3.6-2.3
		L133.8,488.7z"/>
	<path class="st4" d="M217.3,458.8L205.2,447c-3.2,3.5-6.3,6.7-10,9.7l11.8,12.2L217.3,458.8z"/>
	<path class="st4" d="M149.9,598.5c0,0,6.8-7.3,10.3-11c-1-0.4-2-0.8-2.9-1.2c-0.4-0.1-0.8-0.5-1.2-0.9L136.5,605l7,6.8l7.8-11.1
		L149.9,598.5z"/>
	<path class="st4" d="M187.7,618.5C187.7,618.5,187.6,618.5,187.7,618.5L187.7,618.5c-1.2-0.9-2.5-1.8-3.9-2.6
		c-0.8-0.5-1.6-1.1-2.4-1.7c-7.6,7.1-19.9,8.8-29.8,5.5l29.2,28.2l8.8-0.2c0.3-7.9,1.1-16.9,5.8-22.9
		C192.9,622.4,190.4,620.4,187.7,618.5z"/>
	<path class="st4" d="M917.9,477.4l-19.5-22.9l7.3-6.9l-35.8-41l-56.1-36.2l10.2-16.7l-35-21.2l4.9-12.2L730,295.5l-14.6,38.2
		l-75.3-29.3l-5.6,14.5l81.2,32.6l0.2-0.5l-0.2,0.5l0.2,0.1l-0.2-0.1l-19.9,47.6c3.5,1.1,7,2.2,10.6,3.4l0.8-2.1l-0.8,2.1
		c1.9,0.6,3.8,1.2,5.7,1.7c4.3,1.5,8.5,3.2,12.6,5l1.2-2.5l-1.2,2.5c5.5,2.4,10.8,5,16.2,7.7l0.8-1.6l-0.8,1.6
		c3.7,1.8,7.4,3.7,11.1,5.6l0.8-1.5l-0.8,1.5c3.4,1.7,6.9,3.5,10.5,5.1c0.3-0.6,0.6-1.2,0.9-1.7c-0.3,0.6-0.6,1.2-0.9,1.7
		c0.3,0.1,0.6,0.3,0.9,0.4c3.5,1.7,6.9,3.5,10.2,5.5l0.9-1.4l-0.9,1.4c3.6,2.1,7,4.3,10.5,6.7l1-1.5l-1,1.5
		c8.4,5.6,16.5,11.8,25.4,17.7c3.3,1.9,4.9,5.2,7.9,7.3l0,0c0-0.3,0-0.5-0.3-0.8c0.3,0.3,0.3,0.5,0.3,0.8c0-0.1,0-0.2,0-0.3
		c0,0.1,0,0.2,0,0.3l0,0l0,0c0,4.1,0,8.1-0.2,12.1L917.9,477.4L917.9,477.4L917.9,477.4L917.9,477.4z"/>
	<polygon class="st3" points="674.4,576.8 752,576.8 744.9,601.7 678.5,601.7 	"/>
	<polygon class="st3" points="576.3,576.8 568.7,601.7 646.5,601.7 638.4,576.8 	"/>
	<path class="st3" d="M474.8,577.9c0-0.6-0.5-1.1-1.1-1.1h-19.3c-0.6,0-1.1,0.5-1.1,1.1v4.1h-28.1v-4.1c0-0.6-0.5-1.1-1.1-1.1h-20.3
		c-0.6,0-1.1,0.5-1.1,1.1l4.1,22c0,0.6,0.5,1.1,1.1,1.1h16.3c0.6,0,1.1-0.5,1.1-1.1V597h28.1v3.7c0,0.6,0.5,1.1,1.1,1.1h24.8
		c0.6,0,1.1-0.5,1.1-1.1L474.8,577.9z"/>
	<path class="st3" d="M383.2,600.4l-3.9-22.6c-0.1-0.6-0.7-1.1-1.3-1.1h-38.5c2.2,8.2,4.1,16.6,6.4,24.7h36.3
		C382.8,601.5,383.3,601,383.2,600.4z"/>
	<polygon class="st3" points="267.4,609.3 267.4,631.6 255.4,631.6 255.4,646.6 274.1,646.6 274.1,609.3 	"/>
	<polygon class="st3" points="462,632.8 462,627.4 455.3,627.4 455.3,632.8 441.9,632.8 441.9,646.6 462,646.6 467.6,646.6 
		467.6,632.8 	"/>
	<rect x="474.8" y="646.4" class="st3" width="208.4" height="15.6"/>
	<polygon class="st3" points="763.4,657.9 784.5,657.9 784.5,646.4 691.1,646.4 691.1,662 763.4,662 	"/>
	<rect x="378.3" y="647.6" class="st3" width="91.1" height="15.7"/>
	<g id="Pink_parking">
		<polygon class="st5" points="298.1,690.4 298.1,691.5 809.6,691.5 860.6,671.8 860.2,670.8 809.4,690.4 		"/>
		<rect x="654.1" y="684.1" class="st5" width="0.9" height="5.8"/>
		<rect x="658.5" y="684.1" class="st5" width="0.9" height="5.8"/>
		<rect x="662.8" y="684.1" class="st5" width="0.9" height="5.8"/>
		<rect x="667.1" y="684.1" class="st5" width="0.9" height="5.8"/>
		<rect x="671.5" y="684.1" class="st5" width="0.9" height="5.8"/>
		<rect x="675.8" y="684.1" class="st5" width="0.9" height="5.8"/>
		<rect x="680.2" y="684.1" class="st5" width="0.9" height="5.8"/>
		<rect x="684.5" y="684.1" class="st5" width="0.9" height="5.8"/>
		<rect x="688.9" y="684.1" class="st5" width="0.9" height="5.8"/>
		<rect x="693.3" y="684.1" class="st5" width="0.9" height="5.8"/>
		<rect x="697.6" y="684.1" class="st5" width="0.9" height="5.8"/>
		<rect x="702" y="684.1" class="st5" width="0.9" height="5.8"/>
		<rect x="706.3" y="684.1" class="st5" width="0.9" height="5.8"/>
		<rect x="710.7" y="684.1" class="st5" width="0.9" height="5.8"/>
		<rect x="715" y="684.1" class="st5" width="0.9" height="5.8"/>
		<rect x="719.4" y="684.1" class="st5" width="0.9" height="5.8"/>
		<rect x="723.7" y="684.1" class="st5" width="0.9" height="5.8"/>
		<rect x="728.1" y="684.1" class="st5" width="0.9" height="5.8"/>
		<rect x="732.4" y="684.1" class="st5" width="0.9" height="5.8"/>
		<rect x="736.8" y="684.1" class="st5" width="0.9" height="5.8"/>
		<rect x="741.1" y="684.1" class="st5" width="0.9" height="5.8"/>
		<rect x="745.5" y="684.1" class="st5" width="0.9" height="5.8"/>
		<rect x="749.8" y="684.1" class="st5" width="0.9" height="5.8"/>
		<rect x="754.2" y="684.1" class="st5" width="0.9" height="5.8"/>
		<rect x="758.5" y="684.1" class="st5" width="0.9" height="5.8"/>
		<rect x="762.9" y="684.1" class="st5" width="0.9" height="5.8"/>
		<rect x="767.2" y="684.1" class="st5" width="0.9" height="5.8"/>
		<rect x="771.6" y="684.1" class="st5" width="0.9" height="5.8"/>
		<rect x="775.9" y="684.1" class="st5" width="0.9" height="5.8"/>
		<rect x="780.3" y="684.1" class="st5" width="0.9" height="5.8"/>
		<rect x="784.6" y="684.1" class="st5" width="0.9" height="5.8"/>
		<rect x="789" y="684.1" class="st5" width="0.9" height="5.8"/>
		<rect x="793.4" y="684.1" class="st5" width="0.9" height="5.8"/>
		<rect x="797.7" y="684.1" class="st5" width="0.9" height="5.8"/>
		<rect x="802.1" y="684.1" class="st5" width="0.9" height="5.8"/>
		<rect x="806.4" y="684.1" class="st5" width="0.9" height="5.8"/>
		<rect x="684.5" y="665.6" class="st5" width="0.9" height="5.8"/>
		<rect x="688.9" y="665.6" class="st5" width="0.9" height="5.8"/>
		<rect x="693.3" y="665.6" class="st5" width="0.9" height="5.8"/>
		<rect x="697.6" y="665.6" class="st5" width="0.9" height="5.8"/>
		<rect x="702" y="665.6" class="st5" width="0.9" height="5.8"/>
		<rect x="706.3" y="665.6" class="st5" width="0.9" height="5.8"/>
		<rect x="710.7" y="665.6" class="st5" width="0.9" height="5.8"/>
		<rect x="715" y="665.6" class="st5" width="0.9" height="5.8"/>
		<rect x="719.4" y="665.6" class="st5" width="0.9" height="5.8"/>
		<rect x="723.7" y="665.6" class="st5" width="0.9" height="5.8"/>
		<rect x="728.1" y="665.6" class="st5" width="0.9" height="5.8"/>
		<rect x="732.4" y="665.6" class="st5" width="0.9" height="5.8"/>
		<rect x="736.8" y="665.6" class="st5" width="0.9" height="5.8"/>
		<rect x="741.1" y="665.6" class="st5" width="0.9" height="5.8"/>
		<rect x="745.5" y="665.6" class="st5" width="0.9" height="5.8"/>
		<rect x="749.8" y="665.6" class="st5" width="0.9" height="5.8"/>
		<rect x="754.2" y="665.6" class="st5" width="0.9" height="5.8"/>
		<rect x="758.5" y="665.6" class="st5" width="0.9" height="5.8"/>
		<rect x="762.9" y="665.6" class="st5" width="0.9" height="5.8"/>
		<rect x="767.2" y="665.6" class="st5" width="0.9" height="5.8"/>
		<rect x="771.6" y="665.6" class="st5" width="0.9" height="5.8"/>
		<rect x="775.9" y="665.6" class="st5" width="0.9" height="5.8"/>
		<rect x="780.3" y="665.6" class="st5" width="0.9" height="5.8"/>
		<rect x="784.6" y="665.6" class="st5" width="0.9" height="5.8"/>
		<rect x="789" y="665.6" class="st5" width="0.9" height="5.8"/>
		<rect x="793.4" y="665.6" class="st5" width="0.9" height="5.8"/>
		<rect x="797.7" y="668.4" class="st5" width="0.9" height="5.8"/>
		<rect x="802.1" y="668.4" class="st5" width="0.9" height="5.8"/>
		<rect x="806.4" y="668.4" class="st5" width="0.9" height="5.8"/>
		<rect x="650.3" y="718" class="st5" width="0.9" height="5.8"/>
		<rect x="654.7" y="718" class="st5" width="0.9" height="5.8"/>
		<rect x="659.1" y="718" class="st5" width="0.9" height="5.8"/>
		<rect x="663.4" y="718" class="st5" width="0.9" height="5.8"/>
		<rect x="667.8" y="718" class="st5" width="0.9" height="5.8"/>
		<rect x="672.1" y="718" class="st5" width="0.9" height="5.8"/>
		<rect x="676.5" y="718" class="st5" width="0.9" height="5.8"/>
		<rect x="680.8" y="718" class="st5" width="0.9" height="5.8"/>
		<rect x="685.2" y="718" class="st5" width="0.9" height="5.8"/>
		<rect x="689.5" y="718" class="st5" width="0.9" height="5.8"/>
		<rect x="693.9" y="718" class="st5" width="0.9" height="5.8"/>
		<rect x="698.2" y="718" class="st5" width="0.9" height="5.8"/>
		<rect x="702.6" y="718" class="st5" width="0.9" height="5.8"/>
		<rect x="706.9" y="718" class="st5" width="0.9" height="5.8"/>
		<rect x="711.3" y="718" class="st5" width="0.9" height="5.8"/>
		<rect x="715.6" y="718" class="st5" width="0.9" height="5.8"/>
		<rect x="720" y="718" class="st5" width="0.9" height="5.8"/>
		<rect x="724.3" y="718" class="st5" width="0.9" height="5.8"/>
		<rect x="728.7" y="718" class="st5" width="0.9" height="5.8"/>
		<rect x="733" y="718" class="st5" width="0.9" height="5.8"/>
		<rect x="737.4" y="718" class="st5" width="0.9" height="5.8"/>
		<rect x="741.7" y="718" class="st5" width="0.9" height="5.8"/>
		<rect x="746.1" y="718" class="st5" width="0.9" height="5.8"/>
		<rect x="750.4" y="718" class="st5" width="0.9" height="5.8"/>
		<rect x="754.8" y="718" class="st5" width="0.9" height="5.8"/>
		<rect x="759.2" y="718" class="st5" width="0.9" height="5.8"/>
		<rect x="763.5" y="718" class="st5" width="0.9" height="5.8"/>
		<rect x="767.9" y="718" class="st5" width="0.9" height="5.8"/>
		<rect x="772.2" y="718" class="st5" width="0.9" height="5.8"/>
		<rect x="776.6" y="718" class="st5" width="0.9" height="5.8"/>
		<rect x="780.9" y="718" class="st5" width="0.9" height="5.8"/>
		<rect x="785.3" y="718" class="st5" width="0.9" height="5.8"/>
		<rect x="654.3" y="693.1" class="st5" width="0.9" height="5.8"/>
		<rect x="658.7" y="693.1" class="st5" width="0.9" height="5.8"/>
		<rect x="663" y="693.1" class="st5" width="0.9" height="5.8"/>
		<rect x="667.4" y="693.1" class="st5" width="0.9" height="5.8"/>
		<rect x="671.7" y="693.1" class="st5" width="0.9" height="5.8"/>
		<rect x="676.1" y="693.1" class="st5" width="0.9" height="5.8"/>
		<rect x="680.4" y="693.1" class="st5" width="0.9" height="5.8"/>
		<rect x="623.8" y="684.1" class="st5" width="0.9" height="5.8"/>
		<rect x="628.1" y="684.1" class="st5" width="0.9" height="5.8"/>
		<rect x="632.5" y="684.1" class="st5" width="0.9" height="5.8"/>
		<rect x="636.8" y="684.1" class="st5" width="0.9" height="5.8"/>
		<rect x="641.2" y="684.1" class="st5" width="0.9" height="5.8"/>
		<rect x="645.5" y="684.1" class="st5" width="0.9" height="5.8"/>
		<rect x="649.9" y="684.1" class="st5" width="0.9" height="5.8"/>
		<rect x="620" y="718" class="st5" width="0.9" height="5.8"/>
		<rect x="624.4" y="718" class="st5" width="0.9" height="5.8"/>
		<rect x="628.7" y="718" class="st5" width="0.9" height="5.8"/>
		<rect x="633.1" y="718" class="st5" width="0.9" height="5.8"/>
		<rect x="637.4" y="718" class="st5" width="0.9" height="5.8"/>
		<rect x="641.8" y="718" class="st5" width="0.9" height="5.8"/>
		<rect x="646.1" y="718" class="st5" width="0.9" height="5.8"/>
		<rect x="650.5" y="718" class="st5" width="0.9" height="5.8"/>
		<rect x="624" y="693.1" class="st5" width="0.9" height="5.8"/>
		<rect x="628.4" y="693.1" class="st5" width="0.9" height="5.8"/>
		<rect x="632.7" y="693.1" class="st5" width="0.9" height="5.8"/>
		<rect x="637.1" y="693.1" class="st5" width="0.9" height="5.8"/>
		<rect x="641.4" y="693.1" class="st5" width="0.9" height="5.8"/>
		<rect x="645.8" y="693.1" class="st5" width="0.9" height="5.8"/>
		<rect x="650.1" y="693.1" class="st5" width="0.9" height="5.8"/>
		<rect x="593.6" y="684.1" class="st5" width="0.9" height="5.8"/>
		<rect x="597.9" y="684.1" class="st5" width="0.9" height="5.8"/>
		<rect x="602.3" y="684.1" class="st5" width="0.9" height="5.8"/>
		<rect x="606.6" y="684.1" class="st5" width="0.9" height="5.8"/>
		<rect x="611" y="684.1" class="st5" width="0.9" height="5.8"/>
		<rect x="615.3" y="684.1" class="st5" width="0.9" height="5.8"/>
		<rect x="619.7" y="684.1" class="st5" width="0.9" height="5.8"/>
		<rect x="593.6" y="665.6" class="st5" width="0.9" height="5.8"/>
		<rect x="597.9" y="665.6" class="st5" width="0.9" height="5.8"/>
		<rect x="602.3" y="665.6" class="st5" width="0.9" height="5.8"/>
		<rect x="462.8" y="665.6" class="st5" width="0.9" height="5.8"/>
		<rect x="467.2" y="665.6" class="st5" width="0.9" height="5.8"/>
		<rect x="471.6" y="665.6" class="st5" width="0.9" height="5.8"/>
		<rect x="475.9" y="665.6" class="st5" width="0.9" height="5.8"/>
		<rect x="480.3" y="665.6" class="st5" width="0.9" height="5.8"/>
		<rect x="528.1" y="665.6" class="st5" width="0.9" height="5.8"/>
		<rect x="532.5" y="665.6" class="st5" width="0.9" height="5.8"/>
		<rect x="536.8" y="665.6" class="st5" width="0.9" height="5.8"/>
		<rect x="541.2" y="665.6" class="st5" width="0.9" height="5.8"/>
		<rect x="545.5" y="665.6" class="st5" width="0.9" height="5.8"/>
		<rect x="549.9" y="665.6" class="st5" width="0.9" height="5.8"/>
		<rect x="554.2" y="665.6" class="st5" width="0.9" height="5.8"/>
		<rect x="558.6" y="665.6" class="st5" width="0.9" height="5.8"/>
		<rect x="562.9" y="665.6" class="st5" width="0.9" height="5.8"/>
		<rect x="567.3" y="665.6" class="st5" width="0.9" height="5.8"/>
		<rect x="571.6" y="665.6" class="st5" width="0.9" height="5.8"/>
		<rect x="576" y="665.6" class="st5" width="0.9" height="5.8"/>
		<rect x="580.4" y="665.6" class="st5" width="0.9" height="5.8"/>
		<rect x="584.7" y="665.6" class="st5" width="0.9" height="5.8"/>
		<rect x="589.1" y="665.6" class="st5" width="0.9" height="5.8"/>
		<rect x="593.4" y="665.6" class="st5" width="0.9" height="5.8"/>
		<rect x="597.7" y="665.6" class="st5" width="0.9" height="5.8"/>
		<rect x="602.1" y="665.6" class="st5" width="0.9" height="5.8"/>
		<rect x="432.5" y="665.6" class="st5" width="0.9" height="5.8"/>
		<rect x="436.9" y="665.6" class="st5" width="0.9" height="5.8"/>
		<rect x="441.2" y="665.6" class="st5" width="0.9" height="5.8"/>
		<rect x="445.6" y="665.6" class="st5" width="0.9" height="5.8"/>
		<rect x="449.9" y="665.6" class="st5" width="0.9" height="5.8"/>
		<rect x="454.3" y="665.6" class="st5" width="0.9" height="5.8"/>
		<rect x="458.6" y="665.6" class="st5" width="0.9" height="5.8"/>
		<rect x="402.3" y="665.6" class="st5" width="0.9" height="5.8"/>
		<rect x="406.7" y="665.6" class="st5" width="0.9" height="5.8"/>
		<rect x="411" y="665.6" class="st5" width="0.9" height="5.8"/>
		<rect x="415.4" y="665.6" class="st5" width="0.9" height="5.8"/>
		<rect x="419.7" y="665.6" class="st5" width="0.9" height="5.8"/>
		<rect x="424.1" y="665.6" class="st5" width="0.9" height="5.8"/>
		<rect x="428.4" y="665.6" class="st5" width="0.9" height="5.8"/>
		<rect x="299.3" y="665.6" class="st5" width="0.9" height="5.8"/>
		<rect x="303.6" y="665.6" class="st5" width="0.9" height="5.8"/>
		<rect x="308" y="665.6" class="st5" width="0.9" height="5.8"/>
		<rect x="312.3" y="665.6" class="st5" width="0.9" height="5.8"/>
		<rect x="316.7" y="665.6" class="st5" width="0.9" height="5.8"/>
		<rect x="321" y="665.6" class="st5" width="0.9" height="5.8"/>
		<rect x="325.4" y="665.6" class="st5" width="0.9" height="5.8"/>
		<rect x="329.7" y="665.6" class="st5" width="0.9" height="5.8"/>
		<rect x="334.1" y="665.6" class="st5" width="0.9" height="5.8"/>
		<rect x="338.4" y="665.6" class="st5" width="0.9" height="5.8"/>
		<rect x="342.8" y="665.6" class="st5" width="0.9" height="5.8"/>
		<rect x="347.1" y="665.6" class="st5" width="0.9" height="5.8"/>
		<rect x="351.5" y="665.6" class="st5" width="0.9" height="5.8"/>
		<rect x="355.8" y="665.6" class="st5" width="0.9" height="5.8"/>
		<rect x="360.2" y="665.6" class="st5" width="0.9" height="5.8"/>
		<rect x="364.5" y="665.6" class="st5" width="0.9" height="5.8"/>
		<rect x="368.9" y="665.6" class="st5" width="0.9" height="5.8"/>
		<rect x="373.2" y="665.6" class="st5" width="0.9" height="5.8"/>
		<rect x="377.6" y="665.6" class="st5" width="0.9" height="5.8"/>
		<rect x="381.9" y="665.6" class="st5" width="0.9" height="5.8"/>
		<rect x="386.3" y="665.6" class="st5" width="0.9" height="5.8"/>
		<rect x="390.7" y="665.6" class="st5" width="0.9" height="5.8"/>
		<rect x="395" y="665.6" class="st5" width="0.9" height="5.8"/>
		<rect x="399.4" y="665.6" class="st5" width="0.9" height="5.8"/>
		<rect x="589.8" y="718" class="st5" width="0.9" height="5.8"/>
		<rect x="594.2" y="718" class="st5" width="0.9" height="5.8"/>
		<rect x="598.5" y="718" class="st5" width="0.9" height="5.8"/>
		<rect x="602.9" y="718" class="st5" width="0.9" height="5.8"/>
		<rect x="607.2" y="718" class="st5" width="0.9" height="5.8"/>
		<rect x="611.6" y="718" class="st5" width="0.9" height="5.8"/>
		<rect x="615.9" y="718" class="st5" width="0.9" height="5.8"/>
		<rect x="489.3" y="718" class="st5" width="0.9" height="5.8"/>
		<rect x="493.6" y="718" class="st5" width="0.9" height="5.8"/>
		<rect x="498" y="718" class="st5" width="0.9" height="5.8"/>
		<rect x="502.3" y="718" class="st5" width="0.9" height="5.8"/>
		<rect x="506.7" y="718" class="st5" width="0.9" height="5.8"/>
		<rect x="511" y="718" class="st5" width="0.9" height="5.8"/>
		<rect x="515.4" y="718" class="st5" width="0.9" height="5.8"/>
		<rect x="519.7" y="718" class="st5" width="0.9" height="5.8"/>
		<rect x="524.1" y="718" class="st5" width="0.9" height="5.8"/>
		<rect x="528.4" y="718" class="st5" width="0.9" height="5.8"/>
		<rect x="532.8" y="718" class="st5" width="0.9" height="5.8"/>
		<rect x="537.1" y="718" class="st5" width="0.9" height="5.8"/>
		<rect x="541.5" y="718" class="st5" width="0.9" height="5.8"/>
		<rect x="545.8" y="718" class="st5" width="0.9" height="5.8"/>
		<rect x="550.2" y="718" class="st5" width="0.9" height="5.8"/>
		<rect x="554.5" y="718" class="st5" width="0.9" height="5.8"/>
		<rect x="558.9" y="718" class="st5" width="0.9" height="5.8"/>
		<rect x="563.2" y="718" class="st5" width="0.9" height="5.8"/>
		<rect x="567.6" y="718" class="st5" width="0.9" height="5.8"/>
		<rect x="571.9" y="718" class="st5" width="0.9" height="5.8"/>
		<rect x="576.3" y="718" class="st5" width="0.9" height="5.8"/>
		<rect x="580.7" y="718" class="st5" width="0.9" height="5.8"/>
		<rect x="585" y="718" class="st5" width="0.9" height="5.8"/>
		<rect x="458.9" y="718" class="st5" width="0.9" height="5.8"/>
		<rect x="463.3" y="718" class="st5" width="0.9" height="5.8"/>
		<rect x="467.6" y="718" class="st5" width="0.9" height="5.8"/>
		<rect x="472" y="718" class="st5" width="0.9" height="5.8"/>
		<rect x="476.4" y="718" class="st5" width="0.9" height="5.8"/>
		<rect x="480.7" y="718" class="st5" width="0.9" height="5.8"/>
		<rect x="485.1" y="718" class="st5" width="0.9" height="5.8"/>
		<rect x="428.7" y="718" class="st5" width="0.9" height="5.8"/>
		<rect x="433.1" y="718" class="st5" width="0.9" height="5.8"/>
		<rect x="437.4" y="718" class="st5" width="0.9" height="5.8"/>
		<rect x="441.8" y="718" class="st5" width="0.9" height="5.8"/>
		<rect x="446.1" y="718" class="st5" width="0.9" height="5.8"/>
		<rect x="450.5" y="718" class="st5" width="0.9" height="5.8"/>
		<rect x="454.8" y="718" class="st5" width="0.9" height="5.8"/>
		<rect x="327.1" y="718" class="st5" width="0.9" height="5.8"/>
		<rect x="331.5" y="718" class="st5" width="0.9" height="5.8"/>
		<rect x="335.8" y="718" class="st5" width="0.9" height="5.8"/>
		<rect x="340.2" y="718" class="st5" width="0.9" height="5.8"/>
		<rect x="344.6" y="718" class="st5" width="0.9" height="5.8"/>
		<rect x="348.9" y="718" class="st5" width="0.9" height="5.8"/>
		<rect x="353.3" y="718" class="st5" width="0.9" height="5.8"/>
		<rect x="357.6" y="718" class="st5" width="0.9" height="5.8"/>
		<rect x="362" y="718" class="st5" width="0.9" height="5.8"/>
		<rect x="366.3" y="718" class="st5" width="0.9" height="5.8"/>
		<rect x="370.7" y="718" class="st5" width="0.9" height="5.8"/>
		<rect x="375" y="718" class="st5" width="0.9" height="5.8"/>
		<rect x="379.4" y="718" class="st5" width="0.9" height="5.8"/>
		<rect x="383.7" y="718" class="st5" width="0.9" height="5.8"/>
		<rect x="388.1" y="718" class="st5" width="0.9" height="5.8"/>
		<rect x="392.4" y="718" class="st5" width="0.9" height="5.8"/>
		<rect x="396.8" y="718" class="st5" width="0.9" height="5.8"/>
		<rect x="401.1" y="718" class="st5" width="0.9" height="5.8"/>
		<rect x="405.5" y="718" class="st5" width="0.9" height="5.8"/>
		<rect x="409.8" y="718" class="st5" width="0.9" height="5.8"/>
		<rect x="414.2" y="718" class="st5" width="0.9" height="5.8"/>
		<rect x="418.5" y="718" class="st5" width="0.9" height="5.8"/>
		<rect x="422.9" y="718" class="st5" width="0.9" height="5.8"/>
		<rect x="296.8" y="718" class="st5" width="1" height="5.8"/>
		<rect x="301.2" y="718" class="st5" width="0.9" height="5.8"/>
		<rect x="305.5" y="718" class="st5" width="0.9" height="5.8"/>
		<rect x="309.9" y="718" class="st5" width="0.9" height="5.8"/>
		<rect x="314.2" y="718" class="st5" width="0.9" height="5.8"/>
		<rect x="318.6" y="718" class="st5" width="0.9" height="5.8"/>
		<rect x="322.9" y="718" class="st5" width="0.9" height="5.8"/>
		<rect x="598.2" y="693.1" class="st5" width="0.9" height="5.8"/>
		<rect x="602.5" y="693.1" class="st5" width="0.9" height="5.8"/>
		<rect x="606.9" y="693.1" class="st5" width="0.9" height="5.8"/>
		<rect x="611.2" y="693.1" class="st5" width="0.9" height="5.8"/>
		<rect x="615.6" y="693.1" class="st5" width="0.9" height="5.8"/>
		<rect x="619.9" y="693.1" class="st5" width="0.9" height="5.8"/>
		<rect x="684.8" y="693.1" class="st5" width="0.9" height="5.8"/>
		<rect x="689.1" y="693.1" class="st5" width="0.9" height="5.8"/>
		<rect x="693.5" y="693.1" class="st5" width="0.9" height="5.8"/>
		<rect x="697.8" y="693.1" class="st5" width="0.9" height="5.8"/>
		<rect x="702.2" y="693.1" class="st5" width="0.9" height="5.8"/>
		<rect x="706.5" y="693.1" class="st5" width="0.9" height="5.8"/>
		<rect x="710.9" y="693.1" class="st5" width="0.9" height="5.8"/>
		<rect x="536.8" y="693.1" class="st5" width="0.9" height="5.8"/>
		<rect x="541.2" y="693.1" class="st5" width="0.9" height="5.8"/>
		<rect x="545.5" y="693.1" class="st5" width="0.9" height="5.8"/>
		<rect x="549.9" y="693.1" class="st5" width="0.9" height="5.8"/>
		<rect x="554.2" y="693.1" class="st5" width="0.9" height="5.8"/>
		<rect x="558.6" y="693.1" class="st5" width="0.9" height="5.8"/>
		<rect x="562.9" y="693.1" class="st5" width="0.9" height="5.8"/>
		<rect x="506.5" y="693.1" class="st5" width="0.9" height="5.8"/>
		<rect x="510.8" y="693.1" class="st5" width="0.9" height="5.8"/>
		<rect x="515.2" y="693.1" class="st5" width="0.9" height="5.8"/>
		<rect x="519.6" y="693.1" class="st5" width="0.9" height="5.8"/>
		<rect x="523.9" y="693.1" class="st5" width="0.9" height="5.8"/>
		<rect x="528.3" y="693.1" class="st5" width="0.9" height="5.8"/>
		<rect x="532.6" y="693.1" class="st5" width="0.9" height="5.8"/>
		<rect x="476.3" y="693.1" class="st5" width="0.9" height="5.8"/>
		<rect x="480.7" y="693.1" class="st5" width="0.9" height="5.8"/>
		<rect x="485" y="693.1" class="st5" width="0.9" height="5.8"/>
		<rect x="489.4" y="693.1" class="st5" width="0.9" height="5.8"/>
		<rect x="493.7" y="693.1" class="st5" width="0.9" height="5.8"/>
		<rect x="498.1" y="693.1" class="st5" width="0.9" height="5.8"/>
		<rect x="502.4" y="693.1" class="st5" width="0.9" height="5.8"/>
		<rect x="567.3" y="693.1" class="st5" width="0.9" height="5.8"/>
		<rect x="571.6" y="693.1" class="st5" width="0.9" height="5.8"/>
		<rect x="576" y="693.1" class="st5" width="0.9" height="5.8"/>
		<rect x="580.4" y="693.1" class="st5" width="0.9" height="5.8"/>
		<rect x="584.7" y="693.1" class="st5" width="0.9" height="5.8"/>
		<rect x="589.1" y="693.1" class="st5" width="0.9" height="5.8"/>
		<rect x="593.4" y="693.1" class="st5" width="0.9" height="5.8"/>
		<rect x="415.4" y="693.1" class="st5" width="0.9" height="5.8"/>
		<rect x="419.8" y="693.1" class="st5" width="0.9" height="5.8"/>
		<rect x="424.1" y="693.1" class="st5" width="0.9" height="5.8"/>
		<rect x="428.5" y="693.1" class="st5" width="0.9" height="5.8"/>
		<rect x="432.8" y="693.1" class="st5" width="0.9" height="5.8"/>
		<rect x="437.2" y="693.1" class="st5" width="0.9" height="5.8"/>
		<rect x="441.5" y="693.1" class="st5" width="0.9" height="5.8"/>
		<rect x="385.1" y="693.1" class="st5" width="0.9" height="5.8"/>
		<rect x="389.5" y="693.1" class="st5" width="0.9" height="5.8"/>
		<rect x="393.8" y="693.1" class="st5" width="0.9" height="5.8"/>
		<rect x="398.1" y="693.1" class="st5" width="0.9" height="5.8"/>
		<rect x="402.5" y="693.1" class="st5" width="0.9" height="5.8"/>
		<rect x="406.8" y="693.1" class="st5" width="0.9" height="5.8"/>
		<rect x="411.2" y="693.1" class="st5" width="0.9" height="5.8"/>
		<rect x="354.9" y="693.1" class="st5" width="0.9" height="5.8"/>
		<rect x="359.2" y="693.1" class="st5" width="0.9" height="5.8"/>
		<rect x="363.6" y="693.1" class="st5" width="0.9" height="5.8"/>
		<rect x="368" y="693.1" class="st5" width="0.9" height="5.8"/>
		<rect x="372.3" y="693.1" class="st5" width="0.9" height="5.8"/>
		<rect x="376.7" y="693.1" class="st5" width="0.9" height="5.8"/>
		<rect x="381" y="693.1" class="st5" width="0.9" height="5.8"/>
		<rect x="445.9" y="693.1" class="st5" width="0.9" height="5.8"/>
		<rect x="450.2" y="693.1" class="st5" width="0.9" height="5.8"/>
		<rect x="454.6" y="693.1" class="st5" width="0.9" height="5.8"/>
		<rect x="458.9" y="693.1" class="st5" width="0.9" height="5.8"/>
		<rect x="463.3" y="693.1" class="st5" width="0.9" height="5.8"/>
		<rect x="467.6" y="693.1" class="st5" width="0.9" height="5.8"/>
		<rect x="472" y="693.1" class="st5" width="0.9" height="5.8"/>
		<rect x="299.3" y="693.1" class="st5" width="0.9" height="5.8"/>
		<rect x="303.7" y="693.1" class="st5" width="0.9" height="5.8"/>
		<rect x="308" y="693.1" class="st5" width="0.9" height="5.8"/>
		<rect x="312.4" y="693.1" class="st5" width="0.9" height="5.8"/>
		<rect x="316.8" y="693.1" class="st5" width="0.9" height="5.8"/>
		<rect x="321.1" y="693.1" class="st5" width="0.9" height="5.8"/>
		<rect x="325.5" y="693.1" class="st5" width="0.9" height="5.8"/>
		<rect x="329.8" y="693.1" class="st5" width="0.9" height="5.8"/>
		<rect x="334.2" y="693.1" class="st5" width="0.9" height="5.8"/>
		<rect x="338.5" y="693.1" class="st5" width="0.9" height="5.8"/>
		<rect x="342.9" y="693.1" class="st5" width="0.9" height="5.8"/>
		<rect x="347.2" y="693.1" class="st5" width="0.9" height="5.8"/>
		<rect x="351.6" y="693.1" class="st5" width="0.9" height="5.8"/>
		<rect x="536.8" y="684" class="st5" width="0.9" height="5.8"/>
		<rect x="541.2" y="684" class="st5" width="0.9" height="5.8"/>
		<rect x="545.5" y="684" class="st5" width="0.9" height="5.8"/>
		<rect x="549.9" y="684" class="st5" width="0.9" height="5.8"/>
		<rect x="554.2" y="684" class="st5" width="0.9" height="5.8"/>
		<rect x="558.6" y="684" class="st5" width="0.9" height="5.8"/>
		<rect x="562.9" y="684" class="st5" width="0.9" height="5.8"/>
		<rect x="506.5" y="684" class="st5" width="0.9" height="5.8"/>
		<rect x="510.8" y="684" class="st5" width="0.9" height="5.8"/>
		<rect x="515.2" y="684" class="st5" width="0.9" height="5.8"/>
		<rect x="519.6" y="684" class="st5" width="0.9" height="5.8"/>
		<rect x="523.9" y="684" class="st5" width="0.9" height="5.8"/>
		<rect x="528.3" y="684" class="st5" width="0.9" height="5.8"/>
		<rect x="532.6" y="684" class="st5" width="0.9" height="5.8"/>
		<rect x="476.3" y="684" class="st5" width="0.9" height="5.8"/>
		<rect x="480.7" y="684" class="st5" width="0.9" height="5.8"/>
		<rect x="485" y="684" class="st5" width="0.9" height="5.8"/>
		<rect x="489.4" y="684" class="st5" width="0.9" height="5.8"/>
		<rect x="493.7" y="684" class="st5" width="0.9" height="5.8"/>
		<rect x="498.1" y="684" class="st5" width="0.9" height="5.8"/>
		<rect x="502.4" y="684" class="st5" width="0.9" height="5.8"/>
		<rect x="567.3" y="684" class="st5" width="0.9" height="5.8"/>
		<rect x="571.6" y="684" class="st5" width="0.9" height="5.8"/>
		<rect x="576" y="684" class="st5" width="0.9" height="5.8"/>
		<rect x="580.4" y="684" class="st5" width="0.9" height="5.8"/>
		<rect x="584.7" y="684" class="st5" width="0.9" height="5.8"/>
		<rect x="589.1" y="684" class="st5" width="0.9" height="5.8"/>
		<rect x="415.4" y="684" class="st5" width="0.9" height="5.8"/>
		<rect x="419.8" y="684" class="st5" width="0.9" height="5.8"/>
		<rect x="424.1" y="684" class="st5" width="0.9" height="5.8"/>
		<rect x="428.5" y="684" class="st5" width="0.9" height="5.8"/>
		<rect x="432.8" y="684" class="st5" width="0.9" height="5.8"/>
		<rect x="437.2" y="684" class="st5" width="0.9" height="5.8"/>
		<rect x="441.5" y="684" class="st5" width="0.9" height="5.8"/>
		<rect x="385.1" y="684" class="st5" width="0.9" height="5.8"/>
		<rect x="389.5" y="684" class="st5" width="0.9" height="5.8"/>
		<rect x="393.8" y="684" class="st5" width="0.9" height="5.8"/>
		<rect x="398.1" y="684" class="st5" width="0.9" height="5.8"/>
		<rect x="402.5" y="684" class="st5" width="0.9" height="5.8"/>
		<rect x="406.8" y="684" class="st5" width="0.9" height="5.8"/>
		<rect x="411.2" y="684" class="st5" width="0.9" height="5.8"/>
		<rect x="354.9" y="684" class="st5" width="0.9" height="5.8"/>
		<rect x="359.2" y="684" class="st5" width="0.9" height="5.8"/>
		<rect x="363.6" y="684" class="st5" width="0.9" height="5.8"/>
		<rect x="368" y="684" class="st5" width="0.9" height="5.8"/>
		<rect x="372.3" y="684" class="st5" width="0.9" height="5.8"/>
		<rect x="376.7" y="684" class="st5" width="0.9" height="5.8"/>
		<rect x="381" y="684" class="st5" width="0.9" height="5.8"/>
		<rect x="445.9" y="684" class="st5" width="0.9" height="5.8"/>
		<rect x="450.2" y="684" class="st5" width="0.9" height="5.8"/>
		<rect x="454.6" y="684" class="st5" width="0.9" height="5.8"/>
		<rect x="458.9" y="684" class="st5" width="0.9" height="5.8"/>
		<rect x="463.3" y="684" class="st5" width="0.9" height="5.8"/>
		<rect x="467.6" y="684" class="st5" width="0.9" height="5.8"/>
		<rect x="472" y="684" class="st5" width="0.9" height="5.8"/>
		<rect x="299.3" y="684" class="st5" width="0.9" height="5.8"/>
		<rect x="303.7" y="684" class="st5" width="0.9" height="5.8"/>
		<rect x="308" y="684" class="st5" width="0.9" height="5.8"/>
		<rect x="312.4" y="684" class="st5" width="0.9" height="5.8"/>
		<rect x="316.8" y="684" class="st5" width="0.9" height="5.8"/>
		<rect x="321.1" y="684" class="st5" width="0.9" height="5.8"/>
		<rect x="325.5" y="684" class="st5" width="0.9" height="5.8"/>
		<rect x="329.8" y="684" class="st5" width="0.9" height="5.8"/>
		<rect x="334.2" y="684" class="st5" width="0.9" height="5.8"/>
		<rect x="338.5" y="684" class="st5" width="0.9" height="5.8"/>
		<rect x="342.9" y="684" class="st5" width="0.9" height="5.8"/>
		<rect x="347.2" y="684" class="st5" width="0.9" height="5.8"/>
		<rect x="351.6" y="684" class="st5" width="0.9" height="5.8"/>
		<rect x="715.2" y="693.1" class="st5" width="0.9" height="5.8"/>
		<rect x="719.6" y="693.1" class="st5" width="0.9" height="5.8"/>
		<rect x="724" y="693.1" class="st5" width="0.9" height="5.8"/>
		<rect x="728.3" y="693.1" class="st5" width="0.9" height="5.8"/>
		<rect x="732.7" y="693.1" class="st5" width="0.9" height="5.8"/>
		<rect x="737" y="693.1" class="st5" width="0.9" height="5.8"/>
		<rect x="741.4" y="693.1" class="st5" width="0.9" height="5.8"/>
		<rect x="745.7" y="693.1" class="st5" width="0.9" height="5.8"/>
		<rect x="750.1" y="693.1" class="st5" width="0.9" height="5.8"/>
		<rect x="754.4" y="693.1" class="st5" width="0.9" height="5.8"/>
		<rect x="758.8" y="693.1" class="st5" width="0.9" height="5.8"/>
		<rect x="763.1" y="693.1" class="st5" width="0.9" height="5.8"/>
		<rect x="767.5" y="693.1" class="st5" width="0.9" height="5.8"/>
		<rect x="771.8" y="693.1" class="st5" width="0.9" height="5.8"/>
		<rect x="776.2" y="693.1" class="st5" width="0.9" height="5.8"/>
		<rect x="780.5" y="693.1" class="st5" width="0.9" height="5.8"/>
		<rect x="784.9" y="693.1" class="st5" width="0.9" height="5.8"/>
		<rect x="789.2" y="693.1" class="st5" width="0.9" height="5.8"/>
		<rect x="793.6" y="693.1" class="st5" width="0.9" height="5.8"/>
		<rect x="797.9" y="693.1" class="st5" width="0.9" height="5.8"/>
		<rect x="802.3" y="693.1" class="st5" width="0.9" height="5.8"/>
		<rect x="806.6" y="693.1" class="st5" width="0.9" height="5.8"/>
		
			<rect x="811.5" y="693" transform="matrix(0.9305 -0.3664 0.3664 0.9305 -198.5163 345.8905)" class="st5" width="0.9" height="5.8"/>
		
			<rect x="815.5" y="691.5" transform="matrix(0.9307 -0.3657 0.3657 0.9307 -197.4205 346.5145)" class="st5" width="1" height="5.8"/>
		
			<rect x="819.7" y="689.9" transform="matrix(0.9305 -0.3664 0.3664 0.9305 -196.8149 348.6536)" class="st5" width="0.9" height="5.8"/>
		
			<rect x="823.8" y="688.3" transform="matrix(0.93 -0.3677 0.3677 0.93 -196.419 351.4697)" class="st5" width="0.9" height="5.8"/>
		
			<rect x="827.8" y="686.7" transform="matrix(0.9305 -0.3664 0.3664 0.9305 -195.0802 351.3972)" class="st5" width="0.9" height="5.8"/>
		
			<rect x="831.7" y="685" transform="matrix(0.9302 -0.367 0.367 0.9302 -194.4035 353.3993)" class="st5" width="0.9" height="5.8"/>
		
			<rect x="835.8" y="683.5" transform="matrix(0.9301 -0.3673 0.3673 0.9301 -193.6657 355.1402)" class="st5" width="0.9" height="5.8"/>
		
			<rect x="839.9" y="681.9" transform="matrix(0.9301 -0.3673 0.3673 0.9301 -192.7969 356.5309)" class="st5" width="0.9" height="5.8"/>
		
			<rect x="844" y="680.2" transform="matrix(0.9306 -0.3661 0.3661 0.9306 -191.453 356.5897)" class="st5" width="1" height="5.8"/>
		
			<rect x="848" y="678.7" transform="matrix(0.9301 -0.3673 0.3673 0.9301 -191.0454 359.2794)" class="st5" width="0.9" height="5.8"/>
		
			<rect x="852" y="677.1" transform="matrix(0.9301 -0.3673 0.3673 0.9301 -190.1839 360.636)" class="st5" width="0.9" height="5.8"/>
		
			<rect x="856.1" y="675.4" transform="matrix(0.9306 -0.3661 0.3661 0.9306 -188.8491 360.6852)" class="st5" width="1" height="5.8"/>
		
			<rect x="860.1" y="673.8" transform="matrix(0.9306 -0.3661 0.3661 0.9306 -187.9915 362.0377)" class="st5" width="1" height="5.8"/>
		
			<rect x="864.2" y="672.3" transform="matrix(0.9305 -0.3664 0.3664 0.9305 -187.2561 363.763)" class="st5" width="0.9" height="5.8"/>
		
			<rect x="812" y="681.6" transform="matrix(0.9307 -0.3657 0.3657 0.9307 -194.046 344.5401)" class="st5" width="1" height="5.8"/>
		
			<rect x="816.2" y="680" transform="matrix(0.9301 -0.3673 0.3673 0.9301 -193.7458 347.6847)" class="st5" width="0.9" height="5.8"/>
		
			<rect x="820.2" y="678.4" transform="matrix(0.9302 -0.367 0.367 0.9302 -192.778 348.7168)" class="st5" width="0.9" height="5.8"/>
		
			<rect x="824.2" y="676.8" transform="matrix(0.9301 -0.3673 0.3673 0.9301 -192.0218 350.4027)" class="st5" width="0.9" height="5.8"/>
		
			<rect x="828.2" y="675.2" transform="matrix(0.9307 -0.3657 0.3657 0.9307 -190.5842 350.0225)" class="st5" width="1" height="5.8"/>
		
			<rect x="832.3" y="673.6" transform="matrix(0.9305 -0.3664 0.3664 0.9305 -189.9664 352.1631)" class="st5" width="0.9" height="5.8"/>
		
			<rect x="836.4" y="672" transform="matrix(0.9301 -0.3673 0.3673 0.9301 -189.4011 354.5437)" class="st5" width="0.9" height="5.8"/>
		
			<rect x="840.4" y="670.4" transform="matrix(0.9301 -0.3673 0.3673 0.9301 -188.5391 355.9025)" class="st5" width="0.9" height="5.8"/>
		
			<rect x="844.5" y="668.8" transform="matrix(0.9302 -0.367 0.367 0.9302 -187.5601 356.9619)" class="st5" width="0.9" height="5.8"/>
		
			<rect x="848.5" y="667.3" transform="matrix(0.9301 -0.3673 0.3673 0.9301 -186.83 358.6737)" class="st5" width="0.9" height="5.8"/>
		
			<rect x="852.6" y="665.6" transform="matrix(0.9306 -0.3661 0.3661 0.9306 -185.5024 358.7289)" class="st5" width="1" height="5.8"/>
		
			<rect x="856.6" y="664.1" transform="matrix(0.9302 -0.367 0.367 0.9302 -184.9937 361.0881)" class="st5" width="0.9" height="5.8"/>
		
			<rect x="811.9" y="666.5" transform="matrix(0.9305 -0.3664 0.3664 0.9305 -188.7791 344.1982)" class="st5" width="0.9" height="5.8"/>
		
			<rect x="815.9" y="664.8" transform="matrix(0.9301 -0.3673 0.3673 0.9301 -188.1898 346.5142)" class="st5" width="0.9" height="5.8"/>
		
			<rect x="820" y="663.3" transform="matrix(0.9306 -0.3661 0.3661 0.9306 -186.928 346.6369)" class="st5" width="1" height="5.8"/>
		
			<rect x="824" y="661.7" transform="matrix(0.9301 -0.3673 0.3673 0.9301 -186.4894 349.28)" class="st5" width="0.9" height="5.8"/>
		
			<rect x="828.1" y="660.1" transform="matrix(0.9301 -0.3673 0.3673 0.9301 -185.6075 350.6706)" class="st5" width="0.9" height="5.8"/>
		
			<rect x="832.2" y="658.5" transform="matrix(0.9305 -0.3664 0.3664 0.9305 -184.4254 351.0786)" class="st5" width="0.9" height="5.8"/>
		
			<rect x="836.2" y="656.9" transform="matrix(0.9306 -0.3661 0.3661 0.9306 -183.4585 352.1214)" class="st5" width="1" height="5.8"/>
		
			<rect x="840.2" y="655.3" transform="matrix(0.9305 -0.3664 0.3664 0.9305 -182.707 353.7903)" class="st5" width="0.9" height="5.8"/>
		
			<rect x="844.3" y="653.6" transform="matrix(0.9306 -0.3661 0.3661 0.9306 -181.6898 354.8499)" class="st5" width="1" height="5.8"/>
		
			<rect x="848.3" y="652.1" transform="matrix(0.9301 -0.3673 0.3673 0.9301 -181.2658 357.5311)" class="st5" width="0.9" height="5.8"/>
		
			<rect x="852.4" y="650.5" transform="matrix(0.9305 -0.3664 0.3664 0.9305 -180.0952 357.922)" class="st5" width="0.9" height="5.8"/>
		
			<rect x="856.4" y="648.9" transform="matrix(0.9307 -0.3657 0.3657 0.9307 -179.0039 358.5092)" class="st5" width="1" height="5.8"/>
	</g>
	<rect x="585.2" y="727.5" class="st5" width="10" height="20.3"/>
	<path id="_x3C_Path_x3E__1_" class="st4" d="M301.5,588.8h-11.4c-0.6,0-1.1-0.5-1.1-1.1v-5.1c0-0.6,0.5-1.1,1.1-1.1h11.4
		c0.6,0,1.1,0.5,1.1,1.1v5.1C302.6,588.3,302.1,588.8,301.5,588.8z"/>
	<path id="_x3C_Path_x3E_" class="st4" d="M301.5,599.3h-11.4c-0.6,0-1.1-0.5-1.1-1.1v-5.1c0-0.6,0.5-1.1,1.1-1.1h11.4
		c0.6,0,1.1,0.5,1.1,1.1v5.1C302.6,598.9,302.1,599.3,301.5,599.3z"/>
	<path class="st4" d="M279.8,599.3h-11.4c-0.6,0-1.1-0.5-1.1-1.1v-5.1c0-0.6,0.5-1.1,1.1-1.1h11.4c0.6,0,1.1,0.5,1.1,1.1v5.1
		C280.9,598.9,280.4,599.3,279.8,599.3z"/>
	<polygon id="_x3C_Path_x3E__2_" class="st4" points="556.5,576.8 546.2,576.8 546.2,588.7 554.9,588.7 	"/>
	<path id="_x3C_Path_x3E__3_" class="st4" d="M764.6,575.8H752l-3.9,13.8h13.4C763.1,583.3,764.7,576.5,764.6,575.8z"/>
	<path id="_x3C_Path_x3E__4_" class="st4" d="M748.1,590.6l-3.1,11.1h13.8c0,0,1.4-5.4,2.8-11.1H748.1z"/>
	<polygon class="st4" points="706.3,490.3 692,524.8 700.4,528.8 715.8,494.9 	"/>
	<polygon class="st4" points="715.8,494.9 700.4,528.8 708.7,532.8 709.2,532.8 725.3,499.4 	"/>
	<path class="st3" d="M202.5,619.3c-3,1.2-5.4,3.1-7.2,5.4c-4.7,6-5.5,15-5.8,22.9l19.5-0.5v-29.9
		C206.9,617.7,204.7,618.4,202.5,619.3z"/>
	<path class="st3" d="M230.7,616.1c-7.3,0-14.6-0.4-21.6,1.2v29.9l21.6-0.5V616.1z"/>
</g>
<g id="rooms">
	<rect id="r265" x="274.1" y="609.3" class="st5" width="10.5" height="37.3"/>
	<rect id="r264" x="284.5" y="609.3" class="st5" width="10.5" height="37.3"/>
	<rect id="r263" x="295" y="609.3" class="st5" width="10.5" height="37.3"/>
	<rect id="r262" x="305.5" y="609.3" class="st5" width="10.6" height="37.3"/>
	<rect id="r261" x="316.1" y="609.3" class="st5" width="10.6" height="37.3"/>
	<rect id="r260" x="326.5" y="609.3" class="st5" width="10.5" height="37.3"/>
	<rect id="r259" x="337.1" y="609.3" class="st5" width="10.5" height="37.3"/>
	<rect id="r258" x="347.6" y="609.3" class="st5" width="10.5" height="37.3"/>
	<rect id="r257" x="358" y="609.3" class="st5" width="14" height="37.3"/>
	<rect id="r256" x="378.3" y="609.3" class="st5" width="21.9" height="17.2"/>
	<rect id="r254" x="410.5" y="609.3" class="st5" width="10.5" height="37.3"/>
	<rect id="r253-2" x="420.9" y="609.3" class="st5" width="10.8" height="37.3"/>
	<rect id="r253-1" x="431.8" y="609.3" class="st5" width="10.1" height="37.3"/>
	<polygon id="r252" class="st5" points="441.9,609.3 441.9,632.8 455.3,632.8 455.3,627.4 455.3,627.4 455.3,627.4 462,627.4 
		462,609.3 	"/>
	<rect id="r255" x="400.1" y="609.3" class="st5" width="10.3" height="37.3"/>
	<rect id="r246" x="592.8" y="609.3" class="st5" width="14.4" height="17.9"/>
	<rect id="r248-2" x="546.2" y="609.3" class="st5" width="10.3" height="36.6"/>
	<rect id="r250-2" x="484.1" y="609.3" class="st5" width="20.1" height="36.6"/>
	<g id="r249-2-250-1">
		<rect x="504.1" y="609.3" class="st5" width="15.2" height="36.6"/>
		<rect x="519.3" y="609.3" class="st5" width="16" height="36.6"/>
	</g>
	<rect id="r249-1" x="535.3" y="609.3" class="st5" width="10.8" height="36.6"/>
	<rect id="r248-1" x="556.5" y="609.3" class="st5" width="9.5" height="36.6"/>
	<rect id="r247" x="566" y="609.3" class="st5" width="20.6" height="36.6"/>
	<polygon class="st5" points="607.2,627.2 592.8,627.2 592.8,627.5 592.8,627.2 592.8,627.2 592.8,609.3 586.6,609.3 586.6,645.9 
		607.2,645.9 	"/>
	<rect id="r245" x="607.2" y="609.3" class="st5" width="20.9" height="36.6"/>
	<rect id="r244-1" x="628.1" y="609.3" class="st5" width="10.3" height="36.6"/>
	<rect id="_x32_44_x2F_2_1_" x="638.4" y="609.3" class="st5" width="10.3" height="36.6"/>
	<rect id="r243" x="648.7" y="609.3" class="st5" width="10" height="36.6"/>
	<polygon id="r242" class="st5" points="669.8,630.5 669.8,609.3 658.7,609.3 658.7,645.9 669.8,645.9 	"/>
	<rect id="r241" x="669.8" y="609.3" class="st5" width="13.5" height="21.2"/>
	<rect x="669.8" y="630.5" class="st5" width="13.5" height="15.5"/>
	<polygon id="r251" class="st5" points="469.4,609.3 469.4,627.6 474.8,627.6 474.8,645.9 484.1,645.9 484.1,609.3 	"/>
	<path class="st5" d="M623.7,673.6"/>
	<rect x="482.7" y="663.6" class="st5" width="22" height="10"/>
	<rect x="504.7" y="663.6" class="st5" width="19.3" height="10"/>
	<rect x="607.2" y="663.3" class="st5" width="76.1" height="8.9"/>
	<rect id="r239-2" x="711.6" y="609.3" class="st5" width="9.8" height="37"/>
	<rect id="r239-1" x="721.3" y="609.3" class="st5" width="10.3" height="37"/>
	<g id="r235-238">
		<rect x="731.7" y="609.3" class="st5" width="10.3" height="37"/>
		<rect x="742" y="609.3" class="st5" width="10" height="37"/>
		<rect x="752" y="609.3" class="st5" width="21.4" height="37"/>
		<rect x="773.4" y="609.3" class="st5" width="11.1" height="37"/>
	</g>
	<rect id="r240" x="691.1" y="609.3" class="st5" width="20.4" height="18.5"/>
	<rect x="691.1" y="627.8" class="st5" width="20.4" height="18.1"/>
	<polygon id="k226" class="st5" points="546.2,588.7 546.2,601.7 553.2,601.7 554.9,588.7 	"/>
	<polygon id="k229" class="st5" points="504.1,576.8 491.9,576.8 494.8,588 504.4,588 	"/>
	<polygon id="k230" class="st5" points="494.8,588 498.3,601.7 504.7,601.7 504.4,588 	"/>
	<path id="k231" class="st5" d="M339.5,576.8h-12.4l0,0c-0.6,0-1,0.5-0.9,1.1l1.9,10.8h14.5C341.6,584.7,340.6,580.7,339.5,576.8z"
		/>
	<path id="k232" class="st5" d="M328,588.7l2,11.8c0.1,0.6,0.7,1.1,1.3,1.1h14.6c-1.2-4.2-2.3-8.5-3.4-12.9L328,588.7L328,588.7z"/>
	<path id="k239" class="st5" d="M236.5,588.8h-11.4c-0.6,0-1.1-0.5-1.1-1.1v-5.1c0-0.6,0.5-1.1,1.1-1.1h11.4c0.6,0,1.1,0.5,1.1,1.1
		v5.1C237.5,588.3,237.1,588.8,236.5,588.8z"/>
	<path id="k240" class="st5" d="M236.5,599.3h-11.4c-0.6,0-1.1-0.5-1.1-1.1v-5.1c0-0.6,0.5-1.1,1.1-1.1h11.4c0.6,0,1.1,0.5,1.1,1.1
		v5.1C237.5,598.9,237.1,599.3,236.5,599.3z"/>
	<path id="k243" class="st5" d="M203.9,588.8h-11.4c-0.6,0-1.1-0.5-1.1-1.1v-5.1c0-0.6,0.5-1.1,1.1-1.1h11.4c0.6,0,1.1,0.5,1.1,1.1
		v5.1C205,588.3,204.5,588.8,203.9,588.8z"/>
	<path id="k244" class="st5" d="M203.9,599.3h-11.4c-0.6,0-1.1-0.5-1.1-1.1v-5.1c0-0.6,0.5-1.1,1.1-1.1h11.4c0.6,0,1.1,0.5,1.1,1.1
		v5.1C205,598.9,204.5,599.3,203.9,599.3z"/>
	<g id="k237-k238">
		<path class="st5" d="M258.1,588.8h-11.4c-0.6,0-1.1-0.5-1.1-1.1v-5.1c0-0.6,0.5-1.1,1.1-1.1h11.4c0.6,0,1.1,0.5,1.1,1.1v5.1
			C259.2,588.3,258.7,588.8,258.1,588.8z"/>
		<path class="st5" d="M258.1,599.3h-11.4c-0.6,0-1.1-0.5-1.1-1.1v-5.1c0-0.6,0.5-1.1,1.1-1.1h11.4c0.6,0,1.1,0.5,1.1,1.1v5.1
			C259.2,598.9,258.7,599.3,258.1,599.3z"/>
	</g>
	<path id="k235" class="st5" d="M279.8,588.8h-11.4c-0.6,0-1.1-0.5-1.1-1.1v-5.1c0-0.6,0.5-1.1,1.1-1.1h11.4c0.6,0,1.1,0.5,1.1,1.1
		v5.1C280.9,588.3,280.4,588.8,279.8,588.8z"/>
	<path id="k203" class="st5" d="M189.8,539.1h-12.7c-0.6,0-1.1-0.5-1.1-1.1l-1.4-16c0-0.6,0.5-1.1,1.1-1.1h14.6
		c0.6,0,1.1,0.5,1.1,1.1l-0.5,16C190.9,538.6,190.4,539.1,189.8,539.1z"/>
	<path id="k242" class="st5" d="M192.5,565.9h-10.8c-0.6,0-1.1-0.5-1.1-1.1c-0.6-0.2-5-1.4-7.1-6c-2.3-5.1,0.6-9.7,0.8-10
		c0-0.1,0-0.5,0.3-0.8c0.2-0.2,0.5-0.3,0.8-0.3H190c0.6,0,1.1,0.5,1.1,1.1l2.4,16C193.6,565.4,193.1,565.9,192.5,565.9z"/>
	<path id="k204" class="st5" d="M218,537.5h-18.2c-0.6,0-1.1-0.5-1.1-1.1l3-17.4c0-0.6,0.5-1.1,1.1-1.1h16c0.6,0,1.1,0.5,1.1,1.1
		l-0.8,17.4C219.1,537,218.6,537.5,218,537.5z"/>
	<path id="k241" class="st5" d="M219.4,568.1h-16c-0.6,0-1.1-0.5-1.1-1.1l-3.3-19c0-0.6,0.5-1.1,1.1-1.1H218c0.6,0,1.1,0.5,1.1,1.1
		l1.4,19C220.5,567.6,220,568.1,219.4,568.1z"/>
	<rect id="r266-1" x="255.4" y="609.3" class="st5" width="11.9" height="22.2"/>
	<rect id="r266-2" x="230.8" y="609.3" class="st5" width="24.7" height="37.3"/>
	<path id="r2114" class="st5" d="M152.6,580.1c-1.8-2.4-3.7-4.8-6.1-6.7c-5-3.9-12.3-3.3-17.4,0.1c-6,3.9-6,9.8-8.9,15.6l16.3,15.8
		l19.6-19.6C154.7,583.8,153.4,581.2,152.6,580.1z"/>
	<path id="r268" class="st5" d="M181.4,614.1c0.8,0.6,1.6,1.2,2.4,1.7c1.4,0.9,2.6,1.7,3.9,2.6c2.3-3,4.9-5.8,7.2-8.9
		c-6.2-3.3-12.1-9.5-16.9-12.6c-5.6-3.6-11.6-6.9-17.8-9.5c-3.4,3.7-10.3,11-10.3,11l1.4,2.2l-7.8,11.1l8.2,7.9
		C161.6,622.9,173.8,621.3,181.4,614.1c-6.7-5.1-25.5-21.9-25.5-21.9S174.7,609,181.4,614.1"/>
	<g id="r267-2">
		<path class="st5" d="M203.4,611.8c-2.8,0.2-5.7-0.6-8.5-2.2c-2.3,3-4.9,5.9-7.2,8.9c2.7,2,5.2,4,7.7,6.3c1.8-2.3,4.1-4.1,7.2-5.4
			c2.2-0.9,4.4-1.6,6.6-2.1v-6C205.8,611.5,203.4,611.8,203.4,611.8z"/>
	</g>
	<g id="r267-1">
		<path class="st5" d="M209.1,611.2v6c7.1-1.5,14.3-1.2,21.6-1.2v-6.8C230.8,609.3,217.1,610.5,209.1,611.2z"/>
	</g>
	<path id="r270-1" class="st5" d="M324.1,499.5c6.5,10.1,11.1,21.3,17.8,31.3c1.6-1.1,6.1-3.7,6.1-3.7l-15.5-31.7
		C332.5,495.5,326.7,498.3,324.1,499.5z"/>
	<polygon id="r270-2" class="st5" points="332.5,495.5 348,527.1 358.5,522 342,490.8 	"/>
	<polygon id="r271-1" class="st5" points="342,490.8 358.5,522 366.2,518.5 351.1,486.4 	"/>
	<path id="r271-2" class="st5" d="M351.1,486.4l15.2,32.1c0,0,6.9-3,10-4.3c-5.3-10.8-10.1-21.6-15.1-32.6
		C358.1,483,351.1,486.4,351.1,486.4z"/>
	<path id="r272" class="st5" d="M374.5,476.5c-1.2,0.4-7.4,2.2-13.5,5.1c5,11,9.9,21.8,15.1,32.6c4.7-2,8.6-3.5,10.9-4.4
		L374.5,476.5z"/>
	<path id="r269" class="st5" d="M336.7,532.6h3.1c0.5-0.5,1.3-1.1,2.2-1.8c-6.7-10-11.4-21.1-17.8-31.3c-6.2,3-11.2,5.3-13.3,6.2
		c-8.3,3.3-10.5,15.7-10.5,15.7c-0.3,1.2-1.1,5.8-1.9,11.1h18.7"/>
	<line class="st6" x1="317" y1="532.6" x2="336.7" y2="532.6"/>
	<path id="r2113-1" class="st5" d="M317,532.6h-18.7c-0.9,6.1-1.9,13.3-2.4,17.9h20.9C316.9,544.5,317,538.5,317,532.6z"/>
	<path id="r2113-2" class="st5" d="M316.8,550.4H296c-0.2,2-0.2,3.5-0.1,4.1c0.5,3.3,21.2,13.6,21.2,13.6
		C316.8,562.2,316.8,556.3,316.8,550.4z"/>
	<path id="r2111" class="st5" d="M339.5,532.8c0.1-0.1,0.2-0.2,0.2-0.3h-3.1c0,11.9-0.5,23.6,0,35.5h21v-35.3L339.5,532.8
		L339.5,532.8z"/>
	<rect id="MATSUMOTO-KIYOSHI" x="317" y="532.6" class="st5" width="19.7" height="35.5"/>
	<rect id="r2110" x="357.7" y="532.8" class="st5" width="20.3" height="35.3"/>
	<rect id="r2109" x="378" y="532.8" class="st5" width="15.8" height="35.3"/>
	<path id="r273" class="st5" d="M380.1,474.6l13.7,34.4l9.6-2.8c-5.2-10.9-9.1-23.6-13.6-35.5C386.9,471.9,383.3,473.4,380.1,474.6z
		"/>
	<path id="r274" class="st5" d="M389.8,470.7c4.5,11.8,8.5,24.5,13.6,35.5l10.3-3c-4.4-12.3-9.3-24.2-14.2-36.3
		C397.6,467.3,393.1,469.3,389.8,470.7z"/>
	<g id="r277-278">
		<path class="st5" d="M491.9,486.8v-31.5l-11.7-5.4c0,0-16.3,1.6-18.3,2.2c-0.1,0-0.2,0.1-0.4,0.1c2.6,12.7,5.9,25.1,8.7,37.7
			C477.5,488.7,484.7,487.7,491.9,486.8z"/>
		<path class="st5" d="M462.6,491.1c2.6-0.4,5.1-0.8,7.7-1.2c-2.8-12.7-6.1-25.1-8.7-37.7c-2.1,0.5-11.2,2.6-21.9,5.1
			c2.9,12.3,5.7,24.6,9.6,36.7C453.6,492.9,458,491.7,462.6,491.1z"/>
	</g>
	<path id="r2108" class="st5" d="M400.1,534.1v34h19.1v-33.8C409.9,534.3,401,534.4,400.1,534.1z"/>
	<path id="r279" class="st5" d="M470.3,489.9c-2.6,0.4-5.1,0.8-7.7,1.2c-4.6,0.6-9,1.8-13.4,2.8c-2.5,0.6-5.1,1.1-7.8,1.4v38.6
		c0,0-0.1,0-0.3,0v34.2h19.3v-34.7v-16.6c10.5-0.4,21-0.5,31.5-0.9v-29.1C484.7,487.7,477.5,488.7,470.3,489.9z"/>
	<path class="st5" d="M482.7,523.6L482.7,523.6h9.2v-7.7c-10.5,0.4-21,0.5-31.5,0.9v16.6h12.5"/>
	<polyline class="st5" points="472.9,533.4 482.7,533.4 482.7,533.1 482.7,528.2 482.7,528.2 482.7,523.6 	"/>
	<rect x="482.7" y="523.6" class="st5" width="9.2" height="4.6"/>
	<rect x="482.7" y="528.2" class="st5" width="9.2" height="4.9"/>
	<polygon class="st5" points="491.9,538 491.9,533.1 482.7,533.1 482.7,533.4 482.7,538 	"/>
	<rect x="482.7" y="544.2" class="st5" width="9.2" height="5.7"/>
	<path class="st5" d="M482.7,557.5"/>
	<rect id="r2106-1" x="460.5" y="533.4" class="st5" width="12.5" height="34.7"/>
	<polygon id="r2106-2" class="st5" points="482.7,557.5 482.7,538 482.7,533.4 472.9,533.4 472.9,568.1 482.7,568.1 491.9,562.1 
		491.9,557.5 	"/>
	<polyline class="st5" points="482.7,557.5 482.7,549.9 482.7,544.2 482.7,538 	"/>
	<rect x="482.7" y="549.9" class="st5" width="9.2" height="7.6"/>
	<rect x="482.7" y="538" class="st5" width="9.2" height="6.2"/>
	<path id="r2107" class="st5" d="M419.2,534.2V568h22v-34.2C439.4,534,429.1,534.1,419.2,534.2z"/>
	<path id="r276" class="st5" d="M439.6,457.2c-6.6,1.5-20.4,4.7-20.4,4.7l11,36.3l11.3-3.3v0.4c2.7-0.3,5.2-0.8,7.8-1.4
		C445.4,481.9,442.5,469.5,439.6,457.2z"/>
	<path id="r275" class="st5" d="M419.3,462c0,0-15.6,3.7-19.7,4.8c4.9,12.1,9.8,24.1,14.2,36.3l16.5-4.9L419.3,462z"/>
	<polygon id="r2105" class="st5" points="545.1,523.6 545.1,563.6 551,568.4 566.9,568.4 566.9,523.6 	"/>
	<polygon id="r2104" class="st5" points="596.9,534.1 596.9,523.6 566.9,523.6 566.9,568.4 588.5,568.4 588.5,534.1 	"/>
	<rect id="r2103" x="588.5" y="534.1" class="st5" width="20.3" height="34.4"/>
	<path class="st5" d="M588.5,534.1"/>
	<polygon id="r2102" class="st5" points="622.6,534.1 608.8,534.1 608.8,568.4 629.8,568.4 629.8,534.1 	"/>
	<rect id="r2101" x="629.8" y="534.1" class="st5" width="20.4" height="34.4"/>
	<g id="r281-282">
		<polygon class="st5" points="557,448.9 544.3,458.6 544.3,494.6 562.8,494.6 565.7,450.1 		"/>
		<polygon class="st5" points="565.7,450.1 562.8,494.6 568.7,494.6 568.7,494.1 581.9,494.1 588,453.1 		"/>
	</g>
	<rect id="r2100" x="658.7" y="533.1" class="st5" width="11" height="35.3"/>
	<rect id="r299-2" x="669.7" y="533.1" class="st5" width="11.2" height="35.3"/>
	<rect id="r299-1" x="680.9" y="533.1" class="st5" width="9" height="35.3"/>
	<g id="r295-296">
		<rect x="721.2" y="532.7" class="st5" width="12.7" height="35.8"/>
		<polygon class="st5" points="733.9,532.7 733.9,568.4 752,568.4 758.3,562.2 758.3,532.7 		"/>
	</g>
	<g id="r297-298">
		<polygon class="st5" points="690,533.1 690,568.4 710.3,568.4 710.3,532.8 		"/>
		<polygon class="st5" points="721.2,532.7 710.3,532.8 710.3,568.4 721.2,568.4 		"/>
	</g>
	<polygon id="oppo" class="st5" points="686.5,480.8 673.5,515.9 682.6,520.3 696.6,485.6 	"/>
	<polygon id="amas" class="st5" points="682.6,520.3 692,524.8 706.3,490.3 696.6,485.6 	"/>
	<polygon id="r292" class="st5" points="736.8,505 725.3,499.4 709.2,532.8 721.2,532.7 	"/>
	<polygon id="_x2E_life" class="st5" points="675.3,475.4 662,510.3 673.5,515.9 686.5,480.8 	"/>
	<path id="r293-294" class="st5" d="M745.6,510.7l-11.5,21.4L745.6,510.7c-2.6-1.8-5.6-3.7-8.8-5.7l-15.5,27.5v0.2H734V532v0.7h24.4
		v-13C758.3,519.7,753.6,516.1,745.6,510.7z"/>
	<path class="st5" d="M582,493.9L582,493.9v0.2C582,494,582,494,582,493.9z"/>
	<g id="k211-k212">
		<rect x="515.2" y="449.9" class="st5" width="11.6" height="7.4"/>
		<rect x="526.9" y="449.9" class="st5" width="11.6" height="7.4"/>
	</g>
	<rect id="k228" x="514.3" y="558.8" class="st5" width="11.6" height="7.3"/>
	<rect id="k227" x="526" y="558.8" class="st5" width="11.6" height="7.3"/>
	<path id="k217" class="st5" d="M672.6,443.9c-4.4-1.5-8.9-3-10.5-3.3c-3.4-0.5-3.4,3.8-3.4,3.8s-0.4,1.4-0.7,3.2l12.9,4.3
		L672.6,443.9z"/>
	<path id="k218" class="st5" d="M657.9,447.6c-0.4,1.7-0.8,3.9-0.9,5.5c-0.3,3.3,5,6,5,6s3.1,1,6.8,2.3l2-9.5L657.9,447.6z"/>
	<g id="k219-k220">
		<path id="k220" class="st5" d="M670.9,451.9l-2,9.5c3.4,1.1,7.3,2.5,9.9,3.4c5.4,1.9,6.7-2.2,6.7-2.2s0.3-2.5,0.6-5.6L670.9,451.9
			z"/>
		<path id="k219" class="st5" d="M686.4,453.1c0.3-4.7-3.2-5.4-3.2-5.4s-5.3-1.9-10.6-3.8l-1.7,8l15.2,5.1
			C686.2,455.7,686.3,454.4,686.4,453.1z"/>
	</g>
	<path id="k215" class="st5" d="M562.1,420.3c-2.5-1.5-5.7-0.8-8.5-0.8c-0.7,0-1.4,0-2.1,0c-0.3,2.6-0.5,5.3-0.8,7.9L564,428
		C564.3,425.1,564.5,421.7,562.1,420.3z"/>
	<path id="k216" class="st5" d="M550.8,427.5c-0.3,3.4-0.5,6.7-0.9,10.1c2.3,0.2,4.8,0.3,7.1,0.3c6.8-0.1,6.8-7.5,6.8-7.5
		c0-0.7,0.1-1.5,0.2-2.3L550.8,427.5z"/>
	<path id="k213" class="st5" d="M551.6,419.5c-2.7-0.1-5.5-0.3-8.1,0.3c-3.5,0.9-4,3.8-5,6.6c0,0.1-0.1,0.2-0.1,0.4l12.5,0.5
		C551,424.8,551.3,422.2,551.6,419.5z"/>
	<path id="k214" class="st5" d="M538.3,426.9c-0.9,3.2-1,9,3.2,9.7c0.1,0,3.9,0.6,8.4,1c0.4-3.4,0.6-6.7,0.9-10.1L538.3,426.9z"/>
	<polygon id="r234" class="st5" points="793.9,500 813,477.4 948,477.4 965.7,495.1 965.7,636.9 844.7,636.9 844.7,630.5 
		830.9,630.5 830.9,635.2 793.9,635.2 	"/>
	<path class="st5" d="M817.4,465.3L817.4,465.3L817.4,465.3L817.4,465.3z"/>
	<path id="r231" class="st5" d="M774.6,454.7l-11.4,17.4c4.5,2.5,7.8,4.5,8.7,5.3c0.2,0.1,0.4,0.3,0.5,0.5l12.1-15.8L774.6,454.7z"
		/>
	<path id="r230" class="st5" d="M773.6,433.6l-21.1,32.5c3.9,2.2,7.6,4.2,10.7,6l11.4-17.4l-0.7-0.5l0.7,0.5l9.4-14.4
		C780.6,438,777.2,435.7,773.6,433.6z"/>
	<path id="r225-1" class="st5" d="M695.8,399.2l-7.6,18.1c0.2,0.1,0.4,0.2,0.6,0.3c-0.2-0.1-0.4-0.2-0.6-0.3l-7,16.7
		c3.9,1.2,7.8,2.4,11.4,3.6l13.8-35.1C702.8,401.4,699.3,400.3,695.8,399.2z"/>
	<path class="st5" d="M475.6,373.1c0.1,0,0.2,0,0.4-0.1v-0.3c-4.1,0.3-8.2,0.6-12.3,1.1l2.8,36.7c4.1-0.7,8.1-1.4,11.9-1.9L476,373
		C475.9,373.1,475.8,373.1,475.6,373.1z"/>
	<path id="r212" class="st5" d="M414.8,381.7c1.2,3.4,1.8,6.8,2.6,10.4c2.1,9.4,4.3,18.2,6.2,27.2c3.9-0.9,7.9-1.8,12-2.6l-8.6-38.1
		C422.8,379.2,418.8,380.9,414.8,381.7z"/>
	<path class="st5" d="M331.1,411.1"/>
	<path id="r209-1" class="st5" d="M359.8,437.5l-8.3-20l-13.4,6.9l9.1,19c0,0,0.1,0,0.1-0.1C351.8,441.2,356.1,439.2,359.8,437.5z"
		/>
	<path id="r208" class="st5" d="M337.9,424.5l-3.8-7.8l-10.9,5.5l12.6,26.7c3.9-1.9,7.8-3.8,11.5-5.5l-9.1-19L337.9,424.5z"/>
	<path class="st5" d="M323.1,422.2"/>
	<path class="st5" d="M323.1,422.2"/>
	<path id="r209-2" class="st5" d="M373.4,431.9l-8.9-20.4l-12.9,6l8.3,20c5.6-2.5,10.1-4.5,12.7-5.3
		C372.8,432.1,373.1,432,373.4,431.9z"/>
	<path id="r206-2" class="st5" d="M307.5,438.2c-3.8,1.7-7,3.9-10.5,5.9l9.6,19.3c2.9-1.4,6.8-3.4,11.2-5.6
		C314.2,451.1,310.8,444.9,307.5,438.2z"/>
	<g id="k201">
		<path class="st5" d="M112.5,522c1.8-0.2,3.6-0.3,5.5-0.5l-15.4-21.8c-5.4,6.8-9.7,14-12.4,22.3C91.3,522,105.1,522.6,112.5,522z"
			/>
	</g>
	<path id="k202-1" class="st5" d="M109.2,491.9l-6.8,7.3l0.3,0.4c0.1-0.1,0.1-0.1,0.1-0.2c-0.1,0.1-0.1,0.1-0.1,0.2l15.4,21.8
		c5.9-0.6,11.5-1.4,13.7-3c0.6-0.4,1.7-1.1,3.1-2.1L109.2,491.9z"/>
	<path class="st5" d="M133.8,488.7"/>
	<g id="k202-2">
		<path class="st5" d="M119,501.4l15.7,15.1c3.7-2.4,9.5-6.1,13.2-8.5l-17.8-16.8L119,501.4z"/>
	</g>
	<path class="st5" d="M179.1,472.7c-0.1,0.1-0.2,0.2-0.2,0.2S179,472.8,179.1,472.7z"/>
	<path id="r201" class="st5" d="M148.3,473.3l-7.1,7.6l-7.4,7.9l8.9,8.4l8.9,8.4l0,0l0,0l2.2,2.1l2.2,2.1c0,0,2.3-1.4,5.7-3.1
		c3.4-1.8,8-3.9,12.5-5.3c0-0.1,0-0.1,0-0.2l-3.6-6L148.3,473.3z"/>
	<path class="st5" d="M174.2,501.3h0.1l-0.1-0.2C174.2,501.2,174.2,501.3,174.2,501.3z"/>
	<path id="r202" class="st5" d="M198.5,499.3c-0.1-1.4,0-6.6-0.2-8.9l-18.8-18l-0.3,0.3c-0.1,0.1-0.2,0.2-0.2,0.2s0.1-0.1,0.2-0.2
		c-3.5-3.1-6.9-6.2-10.1-9.4c-3.2-3.2-6.3-6.5-9-9.8l-9.2,6.7l-9.2,6.7l3.4,3.1l3.4,3.1l-0.3,0.3l22.4,21.9l3.6,6
		c-0.2-0.8-0.2-0.9,0,0l0.1,0.2c1.6-0.5,6.3-1,11.1-1.4C190.5,499.6,195.8,499.3,198.5,499.3z"/>
	<path id="r203" class="st5" d="M223.3,489.1c0-1.7-0.1-3.2-0.2-4l-0.1,0.1l0,0l0.2,0.2l-0.2-0.2l-0.1,0.1l0.1-0.1l-15.9-16.5
		l-0.2,0.2l0,0l0,0l0,0l0,0l-5.9-6.1l-5.9-6.1l-0.1,0.1l-0.1,0.1l-7.9,7.9l-7.6,7.6l18.8,18c0-0.3-0.1-0.5-0.1-0.7
		c0,0.2,0.1,0.5,0.1,0.7l0,0l0,0c0.2,1.4,0.2,2.7,0.2,4c0,1.6-0.1,3.2,0,4.8c3.8,0,9.3,0.1,14.2,0.2s9.1,0.2,10.3,0.2
		c0.1-1.6,0.3-6.1,0.3-9.8C223.3,489.6,223.3,489.3,223.3,489.1z"/>
	<path class="st5" d="M234.9,475.8l-17.6-17l-5.2,5.1l-5,4.9l15.9,16.5l0,0l0.1-0.1c0.1,0.8,0.2,2.2,0.2,4c0,0.2,0,0.5,0,0.7
		c0,3.7-0.2,8.3-0.3,9.8c4.4-0.1,10.1-0.7,15.5-1.8c5.4-1.1,10.5-2.7,13.9-5h0.1h0.1L234.9,475.8z"/>
	<path class="st5" d="M195.2,427.8l-5.6,4.1l-10.7,7.8l-18.8,13.7c5.5,6.8,12.2,13.1,19.1,19.3c4.7-4.8,10.7-11.2,15.8-15.8
		c0.1-0.1,0.1-0.1,0.2-0.2c3.7-3,6.8-6.2,10-9.7l12.1,11.7l35.2,34.1l7.6-4.2L195.2,427.8z"/>
	<polygon class="st5" points="343,323.3 341.9,320.5 328,325.6 329.3,328.5 	"/>
	<path id="r207" class="st5" d="M307.5,438.2c3.4,6.7,6.8,12.9,10.3,19.6c4.3-2.1,9.2-4.5,14.2-7l-9.6-19.5
		C317.5,433.5,312.3,436.1,307.5,438.2z"/>
	<path id="r205" class="st5" d="M329.2,406.7l27.8-12.1l-2.2-5.3l-33.5,12.8l-23.4-61.8l31.4-11.8l-1.2-3l-36.2,13.1L240,395.1
		l-44.7,32.6l65,60.8l35.2-19.4l-9.8-18.3l21.9-12.8c4.8-2.1,10.1-4.7,14.9-6.9l-6.4-13l15.2-7.2L329.2,406.7z"/>
	<path class="st5" d="M331.9,450.8l3.8-1.9l-12.6-26.7l10.9-5.5l3.9,7.1l26.5-12.3l-7.4-16.9l-27.8,12.1l1.4,3.5
		c0,0-11.8,6.2-14.7,8.1L331.9,450.8z"/>
	<polygon class="st5" points="459.6,279.5 343,323.3 329.3,328.5 297.9,340.3 321.3,402.1 354.8,389.3 366.4,384.9 483,340.3 	"/>
	<path id="r206-1" class="st5" d="M295.3,469.3l5.8-3.2c0,0,2.1-1,5.5-2.8L297,444c-3.9,2.2-7.7,4.9-11.4,7L295.3,469.3z"/>
	<path id="r217-r219" class="st5" d="M588,362.3l2.1-13l-40.2-16.7l-49.9-0.8l-0.6,0.2l0.4,39.8c0.3,0,0.5,0,0.8-0.1
		c-0.3,0-0.5,0-0.8,0.1l0.3,34.8c0.2,0,0.4,0,0.7,0c26.2,0,66,2.7,80.4,4l7.2-48.3H588z"/>
	<polygon class="st5" points="581.2,410.6 588,360.9 602.9,362.7 600.7,375.3 592.1,373.9 586.7,411.6 	"/>
	<polygon id="r220" class="st5" points="592.1,373.9 611.3,377.3 604.9,414.8 586.7,411.6 	"/>
	<path id="r225-2" class="st5" d="M712.1,404.3c-1.9-0.5-3.8-1.1-5.7-1.7l-13.8,35.1c5.7,1.9,11.1,3.8,15.9,5.7l16.2-34.1
		C720.6,407.5,716.4,405.8,712.1,404.3z"/>
	<path id="r228" class="st5" d="M752,422.6l-18,33.5c3,1.6,6.2,3.3,9.4,5.1c5.8-11.4,13-22,19-33.5C758.9,426,755.5,424.3,752,422.6
		z"/>
	<path id="r229" class="st5" d="M763.4,428.2c-0.3-0.1-0.6-0.3-0.9-0.4c-6,11.4-13.3,22.1-19,33.5c3.1,1.7,6.1,3.3,9.1,4.9
		l21.1-32.5C770.3,431.7,766.9,429.8,763.4,428.2z"/>
	<path id="r210" class="st5" d="M381.2,391.4l4.7,13.1l-10.7,3.7l7.2,21.2c4.9-1.3,19.6-4.9,30.1-7.5l-9.7-37
		C393.1,387.7,381.2,391.4,381.2,391.4z"/>
	<path id="r211" class="st5" d="M417.3,392.1c-0.8-3.6-1.3-6.9-2.5-10.3c-1.6,0.2-6.4,1.6-12,3.2l9.7,37c5.4-1.3,9.7-2.3,11-2.6
		C421.6,410.2,419.4,401.4,417.3,392.1z"/>
	<path id="r216" class="st5" d="M476,373.1l2.4,35.6c8.5-1.2,16.1-2,21.7-2.1l-0.3-34.8C491.8,372.3,484,372.1,476,373.1z"/>
	<path class="st5" d="M463.7,373.9c-0.2,0-0.3,0-0.3,0s1,11.4,1.9,21.9L463.7,373.9z"/>
	<g id="r213-214">
		<path class="st5" d="M462.4,411.3c-0.4-0.2-0.6-0.2-0.6-0.2l-4.9-35.8c-5.3,0-10.5,0.2-15.7,0.9l7,37.8c4.6-0.9,9.2-1.8,13.6-2.6
			C462,411.4,462.2,411.3,462.4,411.3z"/>
		<polygon class="st5" points="426.9,378.6 441.2,376.2 448.1,414 435.5,416.7 		"/>
	</g>
	<rect x="295" y="663.6" class="st7" width="124.2" height="63.2"/>
	<polygon id="k206" class="st5" points="307.5,484.5 308.9,492.8 313.1,495.4 320.1,491.8 318.7,478.6 	"/>
	<polygon id="k205" class="st5" points="317.1,464.5 306.6,470.7 307.5,484.2 307.5,484.5 318.7,478.6 	"/>
	<polygon id="r223" class="st5" points="653.4,405.8 646.7,425.3 658.7,428.4 665.4,409.8 	"/>
	<polygon id="r224-1" class="st5" points="665.4,409.8 658.7,428.4 670.3,431.3 677.1,413.6 	"/>
	<polygon id="r224-2" class="st5" points="688.2,417.3 677.1,413.6 670.3,431.3 681.2,434 	"/>
	<polygon id="r221-222" class="st5" points="646.7,425.3 604.9,414.8 611.3,377.3 634.1,319.3 715.3,352.1 688.2,417.3 653.4,405.8 
			"/>
	<polygon id="r226" class="st5" points="723.9,428.3 715.3,446.9 723.9,451.2 732.7,432.6 	"/>
	<polygon id="r227" class="st5" points="752,422.6 741.2,417.1 733,432.7 732.7,432.6 723.9,451.2 734,456.1 	"/>
	<polygon id="r233" class="st5" points="797,462.6 793,468.7 792.8,468.5 781.5,485.3 781.8,485.5 790.8,495.2 808.2,472.1 	"/>
	<polygon id="r232" class="st5" points="784,461.6 772.5,477.9 781.5,485.3 792.8,468.5 	"/>
	<polygon class="st5" points="790.8,495.2 793.9,500 813,477.4 817.4,477.4 817.4,465.3 784.6,440.6 774.6,454.7 784,461.6 
		793,468.7 796.5,462.6 808,472.2 	"/>
	<polygon id="r283" class="st5" points="607.2,456.1 588,453.1 582,493.9 598.6,494.6 599.8,494.9 608.2,456.4 	"/>
	<g id="r285-286">
		<polygon class="st5" points="667.4,472.2 648.7,467.5 636.6,505.5 654.7,510.3 		"/>
		<polygon class="st5" points="627.9,461.8 618.6,500.3 636.6,505.5 648.7,467.5 		"/>
	</g>
	<polygon id="r284" class="st5" points="608.2,456.4 599.8,494.9 618.6,500.3 627.9,461.8 	"/>
	<g id="co-working-space_1_">
		<rect id="r280" x="544.3" y="494.6" class="st5" width="24.4" height="23.9"/>
		<circle id="co-working-space" class="st5" cx="519.7" cy="425.6" r="13.7"/>
		<path class="st5" d="M532.2,597h-14.8c-0.6,0-1.1-0.5-1.1-1.1v-14.8c0-0.6,0.5-1.1,1.1-1.1h14.8c0.6,0,1.1,0.5,1.1,1.1v14.8
			C533.3,596.5,532.8,597,532.2,597z"/>
		<rect x="370.3" y="440.5" class="st5" width="8.3" height="12.1"/>
	</g>
	<rect id="mille" x="370.3" y="452.6" class="st5" width="8.3" height="13.5"/>
	<path id="wallstreet" class="st5" d="M274.4,491.8c0.5,1.9,12.7,11,14.1,10.8c1.4-0.3,3.6-2.1,3.6-2.1s-10.3-15-11.3-15
		C280,485.3,273.9,489.9,274.4,491.8z"/>
	<path id="henry-bear" class="st5" d="M289,483.4c1.6,1.1,7.4,13.6,6.8,14.5s-2.9,1.6-2.9,1.6s-11.9-13.6-11.7-14.2
		C281.5,484.7,287.4,482.3,289,483.4z"/>
</g>
<g id="signs" class="st8">
	<g id="escalator_6_" class="st9">
		<rect id="escalator_17_" x="864.7" y="548.4" width="12.2" height="12.2"/>
		<rect id="escalator_16_" x="673.1" y="578.7" width="12.2" height="12.2"/>
		<rect id="escalator_15_" x="239.3" y="508.3" width="12.2" height="12.2"/>
		<rect id="escalator_14_" x="272.4" y="539.8" width="12.2" height="12.2"/>
		<rect id="escalator_13_" x="637.9" y="581.7" width="12.2" height="12.2"/>
		<rect id="escalator_12_" x="745.9" y="484.2" width="12.2" height="12.2"/>
		<rect id="escalator_19_" x="699.6" y="456.5" width="12.2" height="12.2"/>
		<rect id="escalator_11_" x="605.2" y="428.6" width="12.2" height="12.2"/>
		<rect id="escalator_10_" x="433.9" y="592.4" width="12.2" height="12.2"/>
		<rect id="escalator_9_" x="470.5" y="434.7" width="12.2" height="12.2"/>
		<rect id="escalator_8_" x="450.6" y="416.4" width="12.2" height="12.2"/>
		<rect id="escalator_7_" x="421.7" y="437.9" width="12.2" height="12.2"/>
		<rect id="escalator_26_" x="433.9" y="572.6" width="12.2" height="12.2"/>
	</g>
	<rect id="meeting_point" x="515.4" y="419.5" class="st9" width="12.2" height="12.2"/>
	<rect id="meeting_point_1_" x="519.2" y="581.7" class="st9" width="12.2" height="12.2"/>
	<g id="elevator_13_" class="st9">
		<rect id="elevator_19_" x="693.5" y="625.6" width="12.2" height="12.2"/>
		<rect id="elevator_18_" x="382.3" y="626.4" width="12.2" height="12.2"/>
		<rect id="elevator_17_" x="269.7" y="508.3" width="12.2" height="12.2"/>
		<rect id="elevator_16_" x="350.6" y="398" width="12.2" height="12.2"/>
		<rect id="elevator_15_" x="726.9" y="416.1" width="12.2" height="12.2"/>
		<rect id="elevator_14_" x="894.5" y="619.5" width="12.2" height="12.2"/>
	</g>
	<rect id="baby_change" x="170.6" y="460" class="st9" width="12.2" height="12.2"/>
	<g id="family_room_4_" class="st9">
		<rect id="family_room_3_" x="422.9" y="520.4" width="12.2" height="12.2"/>
		<rect id="family_room_2_" x="631.8" y="520.4" width="12.2" height="12.2"/>
	</g>
	<g id="handicap_6_" class="st9">
		<rect id="handicap_3_" x="613.3" y="520.4" width="12.2" height="12.2"/>
		<rect id="handicap_2_" x="404.9" y="520.4" width="12.2" height="12.2"/>
		<rect id="handicap_1_" x="188.5" y="444" width="12.2" height="12.2"/>
		<rect id="handicap_4_" x="946.9" y="518.9" width="12.2" height="12.2"/>
	</g>
	<g id="toilet_1_" class="st9">
		<rect id="toilet_4_" x="404.9" y="502.2" width="12.2" height="12.2"/>
		<rect id="toilet_3_" x="613.3" y="502.2" width="12.2" height="12.2"/>
		<rect id="toilet_6_" x="170.6" y="444" width="12.2" height="12.2"/>
		<rect id="toilet_2_" x="946.9" y="502.2" width="12.2" height="12.2"/>
	</g>
	<g id="kid_toilet_2_" class="st9">
		<rect id="kid_toilet" x="422.9" y="502.2" width="12.2" height="12.2"/>
		<rect id="kid_toilet_1_" x="631.8" y="502.2" width="12.2" height="12.2"/>
	</g>
	<g id="entrance_1_" class="st9">
		<rect id="entrance" x="464.8" y="649.7" width="12.2" height="12.2"/>
		<rect id="entrance_2_" x="370.1" y="661.8" width="12.2" height="12.2"/>
		<rect id="entrance_3_" x="584" y="739.1" width="12.2" height="12.2"/>
		<rect id="entrance_4_" x="782.4" y="662.8" width="12.2" height="12.2"/>
		<rect id="entrance_5_" x="831.7" y="638.1" width="12.2" height="12.2"/>
		<rect id="entrance_6_" x="450.6" y="334.5" width="12.2" height="12.2"/>
		<rect id="entrance_7_" x="353.1" y="363.9" width="12.2" height="12.2"/>
		<rect id="entrance_8_" x="68.9" y="544.7" width="12.2" height="12.2"/>
	</g>
	<rect id="infomation_1_" x="151.4" y="560.2" class="st9" width="12.2" height="12.2"/>
	<g id="ATM_3_" class="st9">
		<rect id="ATM_2_" x="382.3" y="643.6" width="12.2" height="12.2"/>
		<rect id="ATM_1_" x="693.5" y="644.2" width="12.2" height="12.2"/>
	</g>
	<rect id="MRT" x="29.6" y="577.2" class="st9" width="12.2" height="12.2"/>
</g>
</svg>
