<?xml version="1.0" encoding="utf-8"?>
<!-- Generator: Adobe Illustrator 16.0.0, SVG Export Plug-In . SVG Version: 6.00 Build 0)  -->
<!DOCTYPE svg PUBLIC "-//W3C//DTD SVG 1.1//EN" "http://www.w3.org/Graphics/SVG/1.1/DTD/svg11.dtd">
<svg version="1.1" id="Layer_1" xmlns="http://www.w3.org/2000/svg" xmlns:xlink="http://www.w3.org/1999/xlink" x="0px" y="0px"
	 width="1000px" height="1000px" viewBox="0 0 1000 1000" enable-background="new 0 0 1000 1000" xml:space="preserve">
<g id="background">
	<rect y="186.202" fill="#EDEFEF" width="1000" height="627.597"/>
</g>
<g id="etc">
	<g>
		<path fill="#FFFFFF" stroke="#FFFFFF" stroke-width="2" stroke-miterlimit="10" d="M431.47,343.44l-8.38,3.173
			c-3.716-10.522-13.723-18.035-25.52-18.035c-14.943,0-27.038,12.123-27.038,27.038c0,3.58,0.705,6.997,1.979,10.143l-11.96,4.529
			c-3.688-10.549-13.722-18.116-25.546-18.116c-14.943,0-27.038,12.123-27.038,27.038c0,3.607,0.705,7.078,2.007,10.224
			l-59.202,22.4l-35.445,37.858l51.526,51.554l10.089-10.82l6.292,17.248l12.068-5.37l2.712,6.455l44.611-16.598l6.617-1.355
			l4.502,13.857l45.263-11.173c0,0,60.069-8.38,70.917-7.837v-45.561L431.47,343.44z"/>
		<path fill="#999999" stroke="#FFFFFF" stroke-width="2" stroke-miterlimit="10" d="M808.131,566.442l-4.068-19.525
			c-57.765-61.833-231.084-94.376-231.084-94.376v-12.909c0,0-8.949-1.735-8.949-0.108c0,0.082,0,0.108,0,0.108s0-0.026,0-0.108
			c0-1.383,0-15.458,0-15.458s-35.798-17.085-39.323-17.085c-3.526,0-57.493-0.813-57.493-0.813s-4.285,2.793-8.462,5.831
			l11.201,28.123v45.561c-10.849-0.542-70.918,7.838-70.918,7.838l-45.262,11.173l-4.502-13.857l-6.617,1.355l-44.611,16.598
			l-2.712-6.455l-12.068,5.37l-6.292-17.248l-10.088,10.82l0,0l0,0l-57.818,61.968l7.973,7.35l-66.008,69.127c0,0-16.19,0-27.607,0
			c0.353,6.075-0.787,12.394-4.394,18.441c-10.875,18.143-24.461,32.381-30.726,38.51c20.258,19.255,43.689,41.492,43.689,41.492
			h647.475v-12.936h40.354L808.131,566.442z"/>
		<polygon fill="#999999" stroke="#FFFFFF" stroke-width="2" stroke-miterlimit="10" points="441.829,442.94 441.205,420.025 
			412.92,428.92 413.462,433.802 394.289,440.283 393.61,436.025 352.227,451.944 354.641,459.836 390.764,450.67 354.641,459.836 
			354.423,459.891 354.641,459.836 352.227,451.944 331.29,459.972 342.653,492.162 349.271,490.807 353.745,504.638 
			399.034,493.464 390.004,450.941 		"/>
		<polygon fill="#999999" stroke="#FFFFFF" stroke-width="2" stroke-miterlimit="10" points="276.943,490.427 283.235,507.702 
			295.303,502.305 298.015,508.76 295.303,502.305 319.71,491.431 315.778,466.725 292.021,473.803 266.882,501.247 
			266.882,501.247 		"/>
	</g>
	<g>
		<path fill="#999999" stroke="#FFFFFF" stroke-width="2" stroke-miterlimit="10" d="M215.328,449.693l-23.974,25.601
			c0,0-32.652,24.109-62.131,45.29l13.099,12.772L158.865,516l16.95,17.248l57.764-65.222L215.328,449.693z"/>
	</g>
	<g>
		<path fill="#999999" stroke="#FFFFFF" stroke-width="4" stroke-miterlimit="10" d="M266.882,501.247l-0.027-0.026
			C266.854,501.221,266.854,501.247,266.882,501.247z"/>
		<path fill="#999999" stroke="#FFFFFF" stroke-width="4" stroke-miterlimit="10" d="M266.773,501.166
			C266.746,501.112,266.719,501.112,266.773,501.166L266.773,501.166z"/>
	</g>
	<path fill="#999999" stroke="#FFFFFF" stroke-width="2" stroke-miterlimit="10" d="M960.677,580.815l-20.068-24.543h-28.34
		c0,0-16.271-20.773-18.712-21.587c-2.441-0.813,7.322-6.509,7.322-6.509l-37.425-45.561l-92.748-58.577l10.576-31.73
		L568.91,309.324l-13.018,32.543l-19.525-7.322h-81.358l-23.54,8.895l27.282,68.531c4.177-3.038,8.462-5.831,8.462-5.831
		s53.967,0.814,57.493,0.814c3.525,0,39.323,17.085,39.323,17.085s0,14.074,0,15.458c0-1.628,8.949,0.108,8.949,0.108v12.908
		c0,0,173.319,32.544,231.084,94.376l4.068,19.525l11.688,158.757h140.858V580.815z"/>
	<path fill="#FFFFFF" stroke="#FFFFFF" stroke-width="4" stroke-miterlimit="10" d="M185.469,602.538
		c-1.519,2.224-1.084,6.916-1.03,9.411c0.217,17.491,10.821,33.654,27.146,40.19c11.905,4.746,30.97,1.601,40.896-6.427
		c9.6-7.757,15.187-21.072,14.21-33.33c-0.787-9.953-3.064-19.716-7.621-28.611c-3.959-7.675-10.115-17.274-19.119-19.363
		c-7.051-1.627-17.98,0.326-22.916,6.156C214.026,574.09,189.537,596.572,185.469,602.538z"/>
	<path fill="#999999" stroke="#FFFFFF" stroke-width="4" stroke-miterlimit="10" d="M246.488,606.063
		c0,0-17.899,0.543-15.187-15.729c0,0-15.729-9.221-27.12,5.966c-4.773,6.373-9.953,13.723-10.956,21.831
		c-0.976,7.919,3.905,13.262,10.143,17.303c6.997,4.556,16.082,9.355,24.679,7.512c5.614-1.193,10.793-4.882,14.59-9.058
		c3.335-3.688,4.447-8.841,4.854-13.642C247.6,618.729,248.495,606.01,246.488,606.063z"/>
	<path fill="#999999" stroke="#FFFFFF" stroke-width="2" stroke-miterlimit="10" d="M481.885,537.181
		c-1.085,1.627,0,118.24,0,118.24s0.542,10.306,13.56,11.391c13.017,1.085,16.271-14.103,16.271-14.103V537.181
		c0,0-1.085-13.018,12.475-10.848s112.274,11.933,187.124,54.238l48.272,0.543c-0.299-4.882-1.492-12.665-6.509-20.068
		c-3.742-5.532-56.733-29.344-76.938-36.883c-18.062-6.726-36.367-12.8-54.836-18.278c-12.583-3.715-25.98-8.705-39.079-10.468
		c-12.366-2.007-29.614-4.394-50.441-5.967c-1.166,0.353-3.607,0.488-6.645,0.136c-3.39-0.406-6.915-1.763-7.458-5.56l1.627-30.373
		c0,0-0.542-9.764-14.102-10.848h-21.153c0,0-10.848,2.712-11.39,7.593c-0.543,4.882,0,31.459,0,31.459s1.084,8.678-2.712,9.221
		c-3.797,0.542-76.206,4.203-114.986,16.813v5.424c0,0-70.565,24.489-77.589,31.024c-7.024,6.536,3.824,29.181,3.824,29.181
		s57.439-26.17,80.056-32.57c43.934-12.447,110.023-28.177,119-12.99C481.586,530.238,482.318,533.222,481.885,537.181z"/>
	<path fill="#999999" stroke="#FFFFFF" stroke-width="2" stroke-miterlimit="10" d="M119.027,658.133
		c14.645-24.407-11.39-53.153-11.39-53.153s-31.567-27.635-42.55-36.422c-4.909,4.638-9.627,9.465-14.129,14.481
		c-3.065,3.418-5.912,6.97-8.922,10.388c-3.499,3.959-5.37,8.515-6.4,13.342c-2.549,12.123-2.115,26.252,3.173,37.588
		c2.034,4.366,4.882,8.325,7.919,12.014c3.743,4.529,7.892,8.841,12.421,12.584c0,0,13.641,12.963,29.126,27.661
		C94.565,690.514,108.125,676.276,119.027,658.133z"/>
	<g id="Pink_parking">
		<polygon fill="#D1D3D3" stroke="#FFFFFF" stroke-miterlimit="10" points="434.208,381.082 433.802,380.024 288.008,436.08 
			247.437,472.745 248.197,473.586 288.604,437.056 		"/>
		
			<rect x="433.863" y="381.721" transform="matrix(-0.9335 0.3587 -0.3587 -0.9335 977.7292 587.8713)" fill="#D1D3D3" stroke="#FFFFFF" stroke-miterlimit="10" width="0.949" height="5.804"/>
		
			<rect x="429.8" y="383.295" transform="matrix(-0.9333 0.3591 -0.3591 -0.9333 970.5363 592.1134)" fill="#D1D3D3" stroke="#FFFFFF" stroke-miterlimit="10" width="0.949" height="5.804"/>
		
			<rect x="425.762" y="384.86" transform="matrix(-0.9335 0.3587 -0.3587 -0.9335 963.191 596.8466)" fill="#D1D3D3" stroke="#FFFFFF" stroke-miterlimit="10" width="0.949" height="5.804"/>
		
			<rect x="421.689" y="386.409" transform="matrix(-0.9333 0.3591 -0.3591 -0.9333 955.973 601.0461)" fill="#D1D3D3" stroke="#FFFFFF" stroke-miterlimit="10" width="0.949" height="5.804"/>
		
			<rect x="417.625" y="387.984" transform="matrix(-0.9335 0.3587 -0.3587 -0.9335 948.5793 605.8042)" fill="#D1D3D3" stroke="#FFFFFF" stroke-miterlimit="10" width="0.949" height="5.804"/>
		
			<rect x="413.552" y="389.533" transform="matrix(-0.9333 0.3591 -0.3591 -0.9333 941.364 610.0069)" fill="#D1D3D3" stroke="#FFFFFF" stroke-miterlimit="10" width="0.949" height="5.804"/>
		
			<rect x="409.488" y="391.107" transform="matrix(-0.9335 0.3587 -0.3587 -0.9335 933.9675 614.7618)" fill="#D1D3D3" stroke="#FFFFFF" stroke-miterlimit="10" width="0.949" height="5.804"/>
		
			<rect x="405.449" y="392.672" transform="matrix(-0.9334 0.3588 -0.3588 -0.9334 926.7452 619.1777)" fill="#D1D3D3" stroke="#FFFFFF" stroke-miterlimit="10" width="0.95" height="5.804"/>
		
			<rect x="401.377" y="394.221" transform="matrix(-0.9333 0.3591 -0.3591 -0.9333 919.5103 623.4432)" fill="#D1D3D3" stroke="#FFFFFF" stroke-miterlimit="10" width="0.949" height="5.804"/>
		
			<rect x="397.313" y="395.795" transform="matrix(-0.9334 0.3588 -0.3588 -0.9334 912.134 628.1361)" fill="#D1D3D3" stroke="#FFFFFF" stroke-miterlimit="10" width="0.95" height="5.804"/>
		
			<rect x="393.24" y="397.345" transform="matrix(-0.9333 0.3591 -0.3591 -0.9333 904.9013 632.4041)" fill="#D1D3D3" stroke="#FFFFFF" stroke-miterlimit="10" width="0.949" height="5.804"/>
		
			<rect x="389.201" y="398.91" transform="matrix(-0.9336 0.3583 -0.3583 -0.9336 897.4548 637.3107)" fill="#D1D3D3" stroke="#FFFFFF" stroke-miterlimit="10" width="0.95" height="5.803"/>
		
			<rect x="385.128" y="400.459" transform="matrix(-0.9334 0.3588 -0.3588 -0.9334 890.2482 641.5235)" fill="#D1D3D3" stroke="#FFFFFF" stroke-miterlimit="10" width="0.95" height="5.803"/>
		
			<rect x="381.064" y="402.033" transform="matrix(-0.9334 0.3588 -0.3588 -0.9334 882.9566 646.0255)" fill="#D1D3D3" stroke="#FFFFFF" stroke-miterlimit="10" width="0.95" height="5.804"/>
		
			<rect x="377.001" y="403.607" transform="matrix(-0.9333 0.3591 -0.3591 -0.9333 875.7551 650.3434)" fill="#D1D3D3" stroke="#FFFFFF" stroke-miterlimit="10" width="0.949" height="5.804"/>
		
			<rect x="372.927" y="405.157" transform="matrix(-0.9336 0.3583 -0.3583 -0.9336 868.227 655.2212)" fill="#D1D3D3" stroke="#FFFFFF" stroke-miterlimit="10" width="0.95" height="5.803"/>
		
			<rect x="368.89" y="406.721" transform="matrix(-0.9333 0.3591 -0.3591 -0.9333 861.1918 659.2762)" fill="#D1D3D3" stroke="#FFFFFF" stroke-miterlimit="10" width="0.949" height="5.804"/>
		
			<rect x="364.817" y="408.27" transform="matrix(-0.9335 0.3587 -0.3587 -0.9335 853.7519 663.9684)" fill="#D1D3D3" stroke="#FFFFFF" stroke-miterlimit="10" width="0.949" height="5.804"/>
		
			<rect x="360.753" y="409.845" transform="matrix(-0.9333 0.3591 -0.3591 -0.9333 846.5828 668.2369)" fill="#D1D3D3" stroke="#FFFFFF" stroke-miterlimit="10" width="0.949" height="5.804"/>
		
			<rect x="356.69" y="411.419" transform="matrix(-0.9335 0.3587 -0.3587 -0.9335 839.1682 672.9717)" fill="#D1D3D3" stroke="#FFFFFF" stroke-miterlimit="10" width="0.949" height="5.804"/>
		
			<rect x="352.616" y="412.968" transform="matrix(-0.9333 0.3591 -0.3591 -0.9333 831.9739 677.1976)" fill="#D1D3D3" stroke="#FFFFFF" stroke-miterlimit="10" width="0.949" height="5.804"/>
		
			<rect x="348.578" y="414.533" transform="matrix(-0.9333 0.3591 -0.3591 -0.9333 824.7291 681.6733)" fill="#D1D3D3" stroke="#FFFFFF" stroke-miterlimit="10" width="0.949" height="5.804"/>
		
			<rect x="344.505" y="416.082" transform="matrix(-0.9335 0.3587 -0.3587 -0.9335 817.2822 686.3578)" fill="#D1D3D3" stroke="#FFFFFF" stroke-miterlimit="10" width="0.949" height="5.804"/>
		
			<rect x="340.441" y="417.657" transform="matrix(-0.9333 0.3591 -0.3591 -0.9333 810.1201 690.634)" fill="#D1D3D3" stroke="#FFFFFF" stroke-miterlimit="10" width="0.949" height="5.804"/>
		
			<rect x="336.378" y="419.231" transform="matrix(-0.9333 0.3591 -0.3591 -0.9333 802.8296 695.1367)" fill="#D1D3D3" stroke="#FFFFFF" stroke-miterlimit="10" width="0.949" height="5.804"/>
		
			<rect x="332.33" y="420.77" transform="matrix(-0.9335 0.3587 -0.3587 -0.9335 795.4242 699.7891)" fill="#D1D3D3" stroke="#FFFFFF" stroke-miterlimit="10" width="0.949" height="5.804"/>
		
			<rect x="328.267" y="422.345" transform="matrix(-0.9333 0.3591 -0.3591 -0.9333 788.2664 704.0704)" fill="#D1D3D3" stroke="#FFFFFF" stroke-miterlimit="10" width="0.949" height="5.804"/>
		
			<rect x="324.193" y="423.894" transform="matrix(-0.9333 0.3591 -0.3591 -0.9333 780.9478 708.5275)" fill="#D1D3D3" stroke="#FFFFFF" stroke-miterlimit="10" width="0.949" height="5.804"/>
		
			<rect x="320.13" y="425.468" transform="matrix(-0.9333 0.3591 -0.3591 -0.9333 773.6573 713.0302)" fill="#D1D3D3" stroke="#FFFFFF" stroke-miterlimit="10" width="0.949" height="5.804"/>
		
			<rect x="316.057" y="427.018" transform="matrix(-0.9336 0.3582 -0.3582 -0.9336 766.0624 717.9203)" fill="#D1D3D3" stroke="#FFFFFF" stroke-miterlimit="10" width="0.949" height="5.804"/>
		
			<rect x="312.019" y="428.583" transform="matrix(-0.9333 0.3591 -0.3591 -0.9333 759.0941 721.9639)" fill="#D1D3D3" stroke="#FFFFFF" stroke-miterlimit="10" width="0.949" height="5.804"/>
		
			<rect x="307.955" y="430.157" transform="matrix(-0.9333 0.3591 -0.3591 -0.9333 751.8035 726.4666)" fill="#D1D3D3" stroke="#FFFFFF" stroke-miterlimit="10" width="0.949" height="5.804"/>
		
			<rect x="303.882" y="431.706" transform="matrix(-0.9333 0.3591 -0.3591 -0.9333 744.4851 730.9246)" fill="#D1D3D3" stroke="#FFFFFF" stroke-miterlimit="10" width="0.949" height="5.805"/>
		
			<rect x="299.818" y="433.281" transform="matrix(-0.9333 0.3591 -0.3591 -0.9333 737.1948 735.4283)" fill="#D1D3D3" stroke="#FFFFFF" stroke-miterlimit="10" width="0.949" height="5.804"/>
		
			<rect x="295.77" y="434.82" transform="matrix(-0.9334 0.3589 -0.3589 -0.9334 729.8655 739.9376)" fill="#D1D3D3" stroke="#FFFFFF" stroke-miterlimit="10" width="0.95" height="5.804"/>
		
			<rect x="291.706" y="436.394" transform="matrix(-0.9334 0.3589 -0.3589 -0.9334 722.5739 744.4398)" fill="#D1D3D3" stroke="#FFFFFF" stroke-miterlimit="10" width="0.95" height="5.804"/>
		
			<rect x="439.513" y="396.418" transform="matrix(-0.9333 0.3591 -0.3591 -0.9333 994.027 613.9965)" fill="#D1D3D3" stroke="#FFFFFF" stroke-miterlimit="10" width="0.949" height="5.804"/>
		
			<rect x="435.44" y="397.968" transform="matrix(-0.9333 0.3591 -0.3591 -0.9333 986.7085 618.4541)" fill="#D1D3D3" stroke="#FFFFFF" stroke-miterlimit="10" width="0.949" height="5.804"/>
		
			<rect x="431.402" y="399.532" transform="matrix(-0.9335 0.3587 -0.3587 -0.9335 979.3576 623.1923)" fill="#D1D3D3" stroke="#FFFFFF" stroke-miterlimit="10" width="0.949" height="5.804"/>
		
			<rect x="427.328" y="401.082" transform="matrix(-0.9333 0.3591 -0.3591 -0.9333 972.1451 627.3868)" fill="#D1D3D3" stroke="#FFFFFF" stroke-miterlimit="10" width="0.949" height="5.804"/>
		
			<rect x="423.265" y="402.656" transform="matrix(-0.9335 0.3587 -0.3587 -0.9335 964.7458 632.1499)" fill="#D1D3D3" stroke="#FFFFFF" stroke-miterlimit="10" width="0.949" height="5.804"/>
		
			<rect x="419.201" y="404.23" transform="matrix(-0.9333 0.3591 -0.3591 -0.9333 957.5642 636.3931)" fill="#D1D3D3" stroke="#FFFFFF" stroke-miterlimit="10" width="0.949" height="5.804"/>
		
			<rect x="415.153" y="405.77" transform="matrix(-0.9333 0.3591 -0.3591 -0.9333 950.2914 640.8232)" fill="#D1D3D3" stroke="#FFFFFF" stroke-miterlimit="10" width="0.949" height="5.804"/>
		
			<rect x="411.09" y="407.344" transform="matrix(-0.9333 0.3591 -0.3591 -0.9333 943.0009 645.3264)" fill="#D1D3D3" stroke="#FFFFFF" stroke-miterlimit="10" width="0.949" height="5.804"/>
		
			<rect x="407.017" y="408.894" transform="matrix(-0.9333 0.3591 -0.3591 -0.9333 935.6825 649.7839)" fill="#D1D3D3" stroke="#FFFFFF" stroke-miterlimit="10" width="0.949" height="5.804"/>
		
			<rect x="402.953" y="410.468" transform="matrix(-0.9335 0.3587 -0.3587 -0.9335 928.2762 654.5393)" fill="#D1D3D3" stroke="#FFFFFF" stroke-miterlimit="10" width="0.949" height="5.804"/>
		
			<rect x="398.88" y="412.017" transform="matrix(-0.9333 0.3591 -0.3591 -0.9333 921.0735 658.7447)" fill="#D1D3D3" stroke="#FFFFFF" stroke-miterlimit="10" width="0.949" height="5.804"/>
		
			<rect x="394.842" y="413.582" transform="matrix(-0.9335 0.3587 -0.3587 -0.9335 913.71 663.4689)" fill="#D1D3D3" stroke="#FFFFFF" stroke-miterlimit="10" width="0.949" height="5.804"/>
		
			<rect x="390.778" y="415.156" transform="matrix(-0.9333 0.3591 -0.3591 -0.9333 906.5381 667.723)" fill="#D1D3D3" stroke="#FFFFFF" stroke-miterlimit="10" width="0.949" height="5.804"/>
		
			<rect x="386.705" y="416.705" transform="matrix(-0.9335 0.3587 -0.3587 -0.9335 899.0983 672.4266)" fill="#D1D3D3" stroke="#FFFFFF" stroke-miterlimit="10" width="0.949" height="5.804"/>
		
			<rect x="382.642" y="418.28" transform="matrix(-0.9333 0.3591 -0.3591 -0.9333 891.9292 676.6837)" fill="#D1D3D3" stroke="#FFFFFF" stroke-miterlimit="10" width="0.949" height="5.804"/>
		
			<rect x="378.569" y="419.829" transform="matrix(-0.9335 0.3587 -0.3587 -0.9335 884.4865 681.3837)" fill="#D1D3D3" stroke="#FFFFFF" stroke-miterlimit="10" width="0.949" height="5.803"/>
		
			<rect x="374.53" y="421.394" transform="matrix(-0.9333 0.3591 -0.3591 -0.9333 877.366 685.6174)" fill="#D1D3D3" stroke="#FFFFFF" stroke-miterlimit="10" width="0.949" height="5.804"/>
		
			<rect x="370.467" y="422.968" transform="matrix(-0.9333 0.3591 -0.3591 -0.9333 870.0754 690.1201)" fill="#D1D3D3" stroke="#FFFFFF" stroke-miterlimit="10" width="0.949" height="5.804"/>
		
			<rect x="366.393" y="424.517" transform="matrix(-0.9334 0.3588 -0.3588 -0.9334 862.6572 694.7605)" fill="#D1D3D3" stroke="#FFFFFF" stroke-miterlimit="10" width="0.95" height="5.804"/>
		
			<rect x="362.33" y="426.091" transform="matrix(-0.9333 0.3591 -0.3591 -0.9333 855.4663 699.08)" fill="#D1D3D3" stroke="#FFFFFF" stroke-miterlimit="10" width="0.949" height="5.804"/>
		
			<rect x="358.281" y="427.632" transform="matrix(-0.9334 0.3588 -0.3588 -0.9334 848.0909 703.692)" fill="#D1D3D3" stroke="#FFFFFF" stroke-miterlimit="10" width="0.95" height="5.803"/>
		
			<rect x="354.218" y="429.206" transform="matrix(-0.9334 0.3588 -0.3588 -0.9334 840.8003 708.1934)" fill="#D1D3D3" stroke="#FFFFFF" stroke-miterlimit="10" width="0.95" height="5.804"/>
		
			<rect x="350.154" y="430.78" transform="matrix(-0.9334 0.3588 -0.3588 -0.9334 833.5077 712.695)" fill="#D1D3D3" stroke="#FFFFFF" stroke-miterlimit="10" width="0.95" height="5.803"/>
		
			<rect x="346.081" y="432.329" transform="matrix(-0.9338 0.3579 -0.3579 -0.9338 825.9174 717.6121)" fill="#D1D3D3" stroke="#FFFFFF" stroke-miterlimit="10" width="0.95" height="5.803"/>
		
			<rect x="342.017" y="433.904" transform="matrix(-0.9334 0.3588 -0.3588 -0.9334 818.8968 721.6543)" fill="#D1D3D3" stroke="#FFFFFF" stroke-miterlimit="10" width="0.95" height="5.803"/>
		
			<rect x="337.97" y="435.443" transform="matrix(-0.9333 0.3591 -0.3591 -0.9333 811.7289 725.9075)" fill="#D1D3D3" stroke="#FFFFFF" stroke-miterlimit="10" width="0.949" height="5.804"/>
		
			<rect x="333.906" y="437.017" transform="matrix(-0.9333 0.3591 -0.3591 -0.9333 804.4384 730.4102)" fill="#D1D3D3" stroke="#FFFFFF" stroke-miterlimit="10" width="0.949" height="5.804"/>
		
			<rect x="329.833" y="438.566" transform="matrix(-0.9336 0.3582 -0.3582 -0.9336 796.8379 735.3166)" fill="#D1D3D3" stroke="#FFFFFF" stroke-miterlimit="10" width="0.949" height="5.804"/>
		
			<rect x="325.77" y="440.141" transform="matrix(-0.9333 0.3591 -0.3591 -0.9333 789.8296 739.3718)" fill="#D1D3D3" stroke="#FFFFFF" stroke-miterlimit="10" width="0.949" height="5.804"/>
		
			<rect x="321.732" y="441.706" transform="matrix(-0.9333 0.3591 -0.3591 -0.9333 782.5847 743.8465)" fill="#D1D3D3" stroke="#FFFFFF" stroke-miterlimit="10" width="0.949" height="5.804"/>
		
			<rect x="317.658" y="443.254" transform="matrix(-0.9333 0.3591 -0.3591 -0.9333 775.2663 748.3046)" fill="#D1D3D3" stroke="#FFFFFF" stroke-miterlimit="10" width="0.949" height="5.805"/>
		
			<rect x="313.595" y="444.83" transform="matrix(-0.9333 0.3591 -0.3591 -0.9333 767.9759 752.8082)" fill="#D1D3D3" stroke="#FFFFFF" stroke-miterlimit="10" width="0.949" height="5.804"/>
		
			<rect x="309.522" y="446.378" transform="matrix(-0.9333 0.3591 -0.3591 -0.9333 760.6573 757.2653)" fill="#D1D3D3" stroke="#FFFFFF" stroke-miterlimit="10" width="0.949" height="5.804"/>
		<path fill="#D1D3D3" stroke="#FFFFFF" stroke-miterlimit="10" d="M311.493,407.713"/>
		
			<rect x="306.373" y="403.47" transform="matrix(-0.9334 0.3588 -0.3588 -0.9334 739.0629 675.6013)" fill="#D1D3D3" stroke="#FFFFFF" stroke-miterlimit="10" width="0.95" height="5.804"/>
		
			<rect x="302.31" y="405.044" transform="matrix(-0.9334 0.3588 -0.3588 -0.9334 731.7713 680.1028)" fill="#D1D3D3" stroke="#FFFFFF" stroke-miterlimit="10" width="0.95" height="5.804"/>
		
			<rect x="298.055" y="405.725" transform="matrix(-0.9334 0.3589 -0.3589 -0.9334 723.839 682.8661)" fill="#D1D3D3" stroke="#FFFFFF" stroke-miterlimit="10" width="0.95" height="5.803"/>
		
			<rect x="293.982" y="407.274" transform="matrix(-0.9334 0.3589 -0.3589 -0.9334 716.5201 687.3235)" fill="#D1D3D3" stroke="#FFFFFF" stroke-miterlimit="10" width="0.95" height="5.804"/>
		
			<rect x="289.943" y="408.838" transform="matrix(-0.9334 0.3589 -0.3589 -0.9334 709.2745 691.7976)" fill="#D1D3D3" stroke="#FFFFFF" stroke-miterlimit="10" width="0.95" height="5.804"/>
		
			<rect x="285.87" y="410.388" transform="matrix(-0.9334 0.3589 -0.3589 -0.9334 701.9556 696.2551)" fill="#D1D3D3" stroke="#FFFFFF" stroke-miterlimit="10" width="0.95" height="5.804"/>
		
			<rect x="281.806" y="411.962" transform="matrix(-0.9334 0.3589 -0.3589 -0.9334 694.6641 700.7577)" fill="#D1D3D3" stroke="#FFFFFF" stroke-miterlimit="10" width="0.95" height="5.804"/>
		
			<rect x="277.743" y="413.537" transform="matrix(-0.9334 0.3589 -0.3589 -0.9334 687.3732 705.2603)" fill="#D1D3D3" stroke="#FFFFFF" stroke-miterlimit="10" width="0.95" height="5.804"/>
		
			<rect x="273.67" y="415.086" transform="matrix(-0.9335 0.3585 -0.3585 -0.9335 679.9141 709.912)" fill="#D1D3D3" stroke="#FFFFFF" stroke-miterlimit="10" width="0.949" height="5.804"/>
		
			<rect x="269.632" y="416.65" transform="matrix(-0.9333 0.3591 -0.3591 -0.9333 672.8632 714.1179)" fill="#D1D3D3" stroke="#FFFFFF" stroke-miterlimit="10" width="0.949" height="5.804"/>
		
			<rect x="265.559" y="418.199" transform="matrix(-0.9335 0.3587 -0.3587 -0.9335 665.4017 718.7668)" fill="#D1D3D3" stroke="#FFFFFF" stroke-miterlimit="10" width="0.949" height="5.804"/>
		
			<rect x="261.495" y="419.774" transform="matrix(-0.9333 0.3591 -0.3591 -0.9333 658.2542 723.0781)" fill="#D1D3D3" stroke="#FFFFFF" stroke-miterlimit="10" width="0.949" height="5.804"/>
		
			<rect x="256.479" y="422.207" transform="matrix(-0.6907 0.7231 -0.7231 -0.6907 741.8419 532.9306)" fill="#D1D3D3" stroke="#FFFFFF" stroke-miterlimit="10" width="0.949" height="5.804"/>
		
			<rect x="253.47" y="425.354" transform="matrix(-0.691 0.7229 -0.7229 -0.691 738.9888 540.6084)" fill="#D1D3D3" stroke="#FFFFFF" stroke-miterlimit="10" width="0.95" height="5.804"/>
		
			<rect x="250.461" y="428.502" transform="matrix(-0.6915 0.7224 -0.7224 -0.6915 736.0922 548.4509)" fill="#D1D3D3" stroke="#FFFFFF" stroke-miterlimit="10" width="0.949" height="5.803"/>
		
			<rect x="247.452" y="431.65" transform="matrix(-0.6907 0.7231 -0.7231 -0.6907 733.408 555.4246)" fill="#D1D3D3" stroke="#FFFFFF" stroke-miterlimit="10" width="0.949" height="5.804"/>
		
			<rect x="244.442" y="434.797" transform="matrix(-0.6907 0.7231 -0.7231 -0.6907 730.5961 562.9221)" fill="#D1D3D3" stroke="#FFFFFF" stroke-miterlimit="10" width="0.949" height="5.804"/>
		
			<rect x="241.433" y="437.945" transform="matrix(-0.6912 0.7226 -0.7226 -0.6912 727.692 570.7651)" fill="#D1D3D3" stroke="#FFFFFF" stroke-miterlimit="10" width="0.949" height="5.803"/>
		
			<rect x="238.424" y="441.093" transform="matrix(-0.6907 0.7231 -0.7231 -0.6907 724.9727 577.918)" fill="#D1D3D3" stroke="#FFFFFF" stroke-miterlimit="10" width="0.949" height="5.803"/>
		
			<rect x="235.415" y="444.241" transform="matrix(-0.691 0.7229 -0.7229 -0.691 722.1102 585.597)" fill="#D1D3D3" stroke="#FFFFFF" stroke-miterlimit="10" width="0.95" height="5.804"/>
		
			<rect x="232.406" y="447.389" transform="matrix(-0.6912 0.7226 -0.7226 -0.6912 719.2487 593.2595)" fill="#D1D3D3" stroke="#FFFFFF" stroke-miterlimit="10" width="0.949" height="5.803"/>
		
			<rect x="430.42" y="373.423" transform="matrix(-0.9335 0.3587 -0.3587 -0.9335 968.0953 573.0618)" fill="#D1D3D3" stroke="#FFFFFF" stroke-miterlimit="10" width="0.949" height="5.804"/>
		
			<rect x="426.357" y="374.997" transform="matrix(-0.9333 0.3591 -0.3591 -0.9333 960.8992 577.3069)" fill="#D1D3D3" stroke="#FFFFFF" stroke-miterlimit="10" width="0.949" height="5.804"/>
		
			<rect x="422.309" y="376.537" transform="matrix(-0.9333 0.3591 -0.3591 -0.9333 953.6264 581.7369)" fill="#D1D3D3" stroke="#FFFFFF" stroke-miterlimit="10" width="0.949" height="5.804"/>
		
			<rect x="418.245" y="378.111" transform="matrix(-0.9333 0.3591 -0.3591 -0.9333 946.3359 586.2396)" fill="#D1D3D3" stroke="#FFFFFF" stroke-miterlimit="10" width="0.949" height="5.804"/>
		
			<rect x="414.182" y="379.685" transform="matrix(-0.9335 0.3587 -0.3587 -0.9335 938.9453 590.9947)" fill="#D1D3D3" stroke="#FFFFFF" stroke-miterlimit="10" width="0.949" height="5.804"/>
		
			<rect x="410.109" y="381.235" transform="matrix(-0.9335 0.3587 -0.3587 -0.9335 931.6255 595.4512)" fill="#D1D3D3" stroke="#FFFFFF" stroke-miterlimit="10" width="0.949" height="5.804"/>
		
			<rect x="406.045" y="382.809" transform="matrix(-0.9333 0.3591 -0.3591 -0.9333 924.4365 599.704)" fill="#D1D3D3" stroke="#FFFFFF" stroke-miterlimit="10" width="0.949" height="5.804"/>
		
			<rect x="401.997" y="384.348" transform="matrix(-0.9335 0.3587 -0.3587 -0.9335 917.0594 604.3808)" fill="#D1D3D3" stroke="#FFFFFF" stroke-miterlimit="10" width="0.949" height="5.804"/>
		
			<rect x="397.934" y="385.923" transform="matrix(-0.9333 0.3591 -0.3591 -0.9333 909.8732 608.6367)" fill="#D1D3D3" stroke="#FFFFFF" stroke-miterlimit="10" width="0.949" height="5.804"/>
		
			<rect x="393.87" y="387.497" transform="matrix(-0.9335 0.3587 -0.3587 -0.9335 902.4756 613.384)" fill="#D1D3D3" stroke="#FFFFFF" stroke-miterlimit="10" width="0.949" height="5.804"/>
		
			<rect x="389.797" y="389.046" transform="matrix(-0.9333 0.3591 -0.3591 -0.9333 895.2642 617.5975)" fill="#D1D3D3" stroke="#FFFFFF" stroke-miterlimit="10" width="0.949" height="5.804"/>
		
			<rect x="385.759" y="390.611" transform="matrix(-0.9335 0.3587 -0.3587 -0.9335 887.9095 622.3137)" fill="#D1D3D3" stroke="#FFFFFF" stroke-miterlimit="10" width="0.949" height="5.804"/>
		
			<rect x="381.686" y="392.16" transform="matrix(-0.9333 0.3591 -0.3591 -0.9333 880.7009 626.5307)" fill="#D1D3D3" stroke="#FFFFFF" stroke-miterlimit="10" width="0.949" height="5.804"/>
		
			<rect x="377.622" y="393.735" transform="matrix(-0.9333 0.3591 -0.3591 -0.9333 873.4105 631.0338)" fill="#D1D3D3" stroke="#FFFFFF" stroke-miterlimit="10" width="0.949" height="5.804"/>
		
			<rect x="373.559" y="395.309" transform="matrix(-0.9333 0.3591 -0.3591 -0.9333 866.1199 635.5365)" fill="#D1D3D3" stroke="#FFFFFF" stroke-miterlimit="10" width="0.949" height="5.804"/>
		
			<rect x="369.486" y="396.858" transform="matrix(-0.9335 0.3587 -0.3587 -0.9335 858.686 640.2289)" fill="#D1D3D3" stroke="#FFFFFF" stroke-miterlimit="10" width="0.949" height="5.804"/>
		
			<rect x="365.447" y="398.423" transform="matrix(-0.9333 0.3591 -0.3591 -0.9333 851.5566 644.4697)" fill="#D1D3D3" stroke="#FFFFFF" stroke-miterlimit="10" width="0.949" height="5.804"/>
		
			<rect x="361.373" y="399.972" transform="matrix(-0.9334 0.3588 -0.3588 -0.9334 844.1463 649.1056)" fill="#D1D3D3" stroke="#FFFFFF" stroke-miterlimit="10" width="0.95" height="5.804"/>
		
			<rect x="357.31" y="401.546" transform="matrix(-0.9334 0.3588 -0.3588 -0.9334 836.8547 653.6071)" fill="#D1D3D3" stroke="#FFFFFF" stroke-miterlimit="10" width="0.95" height="5.804"/>
		
			<rect x="353.236" y="403.096" transform="matrix(-0.9334 0.3588 -0.3588 -0.9334 829.5352 658.064)" fill="#D1D3D3" stroke="#FFFFFF" stroke-miterlimit="10" width="0.95" height="5.804"/>
		
			<rect x="349.198" y="404.661" transform="matrix(-0.9336 0.3583 -0.3583 -0.9336 822.166 662.7648)" fill="#D1D3D3" stroke="#FFFFFF" stroke-miterlimit="10" width="0.95" height="5.803"/>
		
			<rect x="345.134" y="406.235" transform="matrix(-0.9334 0.3588 -0.3588 -0.9334 814.9968 667.0401)" fill="#D1D3D3" stroke="#FFFFFF" stroke-miterlimit="10" width="0.95" height="5.803"/>
		
			<rect x="341.061" y="407.784" transform="matrix(-0.9336 0.3583 -0.3583 -0.9336 807.5521 671.7201)" fill="#D1D3D3" stroke="#FFFFFF" stroke-miterlimit="10" width="0.95" height="5.803"/>
		
			<rect x="336.998" y="409.359" transform="matrix(-0.9334 0.3588 -0.3588 -0.9334 800.3857 675.9985)" fill="#D1D3D3" stroke="#FFFFFF" stroke-miterlimit="10" width="0.95" height="5.803"/>
		
			<rect x="332.925" y="410.908" transform="matrix(-0.9333 0.3591 -0.3591 -0.9333 793.1647 680.2855)" fill="#D1D3D3" stroke="#FFFFFF" stroke-miterlimit="10" width="0.949" height="5.804"/>
		
			<rect x="328.887" y="412.472" transform="matrix(-0.9333 0.3591 -0.3591 -0.9333 785.9197 684.7603)" fill="#D1D3D3" stroke="#FFFFFF" stroke-miterlimit="10" width="0.949" height="5.804"/>
		
			<rect x="324.823" y="414.047" transform="matrix(-0.9335 0.3587 -0.3587 -0.9335 778.4984 689.4811)" fill="#D1D3D3" stroke="#FFFFFF" stroke-miterlimit="10" width="0.949" height="5.804"/>
		
			<rect x="320.75" y="415.596" transform="matrix(-0.9335 0.3587 -0.3587 -0.9335 771.1785 693.9376)" fill="#D1D3D3" stroke="#FFFFFF" stroke-miterlimit="10" width="0.949" height="5.804"/>
		
			<rect x="316.687" y="417.17" transform="matrix(-0.9333 0.3591 -0.3591 -0.9333 764.0204 698.2246)" fill="#D1D3D3" stroke="#FFFFFF" stroke-miterlimit="10" width="0.949" height="5.804"/>
		
			<rect x="312.639" y="418.71" transform="matrix(-0.9335 0.3587 -0.3587 -0.9335 756.6123 702.8668)" fill="#D1D3D3" stroke="#FFFFFF" stroke-miterlimit="10" width="0.949" height="5.803"/>
		
			<rect x="308.575" y="420.284" transform="matrix(-0.9333 0.3591 -0.3591 -0.9333 749.4571 707.1578)" fill="#D1D3D3" stroke="#FFFFFF" stroke-miterlimit="10" width="0.949" height="5.804"/>
		
			<rect x="304.512" y="421.859" transform="matrix(-0.9333 0.3591 -0.3591 -0.9333 742.1666 711.661)" fill="#D1D3D3" stroke="#FFFFFF" stroke-miterlimit="10" width="0.949" height="5.804"/>
		
			<rect x="300.439" y="423.408" transform="matrix(-0.9333 0.3591 -0.3591 -0.9333 734.848 716.118)" fill="#D1D3D3" stroke="#FFFFFF" stroke-miterlimit="10" width="0.949" height="5.804"/>
		
			<rect x="296.375" y="424.982" transform="matrix(-0.9333 0.3591 -0.3591 -0.9333 727.5575 720.6207)" fill="#D1D3D3" stroke="#FFFFFF" stroke-miterlimit="10" width="0.949" height="5.804"/>
		
			<rect x="292.327" y="426.522" transform="matrix(-0.9333 0.3591 -0.3591 -0.9333 720.2849 725.0518)" fill="#D1D3D3" stroke="#FFFFFF" stroke-miterlimit="10" width="0.949" height="5.804"/>
		
			<rect x="288.264" y="428.096" transform="matrix(-0.9333 0.3591 -0.3591 -0.9333 712.9943 729.5544)" fill="#D1D3D3" stroke="#FFFFFF" stroke-miterlimit="10" width="0.949" height="5.804"/>
		
			<rect x="283.665" y="429.874" transform="matrix(-0.7368 0.6761 -0.6761 -0.7368 786.0955 559.5436)" fill="#D1D3D3" stroke="#FFFFFF" stroke-miterlimit="10" width="0.949" height="5.804"/>
		
			<rect x="280.434" y="432.82" transform="matrix(-0.737 0.6758 -0.6758 -0.737 782.4299 567.0198)" fill="#D1D3D3" stroke="#FFFFFF" stroke-miterlimit="10" width="0.949" height="5.804"/>
		
			<rect x="277.241" y="435.768" transform="matrix(-0.7368 0.6761 -0.6761 -0.7368 778.9238 574.1244)" fill="#D1D3D3" stroke="#FFFFFF" stroke-miterlimit="10" width="0.949" height="5.804"/>
		
			<rect x="274.029" y="438.703" transform="matrix(-0.7365 0.6764 -0.6764 -0.7365 775.3878 581.188)" fill="#D1D3D3" stroke="#FFFFFF" stroke-miterlimit="10" width="0.95" height="5.803"/>
		
			<rect x="270.837" y="441.651" transform="matrix(-0.7365 0.6764 -0.6764 -0.7365 771.8375 588.4674)" fill="#D1D3D3" stroke="#FFFFFF" stroke-miterlimit="10" width="0.95" height="5.803"/>
		
			<rect x="267.626" y="444.58" transform="matrix(-0.7368 0.6761 -0.6761 -0.7368 768.1814 595.9292)" fill="#D1D3D3" stroke="#FFFFFF" stroke-miterlimit="10" width="0.949" height="5.804"/>
		
			<rect x="264.414" y="447.537" transform="matrix(-0.7368 0.6761 -0.6761 -0.7368 764.6016 603.2377)" fill="#D1D3D3" stroke="#FFFFFF" stroke-miterlimit="10" width="0.949" height="5.803"/>
		
			<rect x="261.202" y="450.459" transform="matrix(-0.7363 0.6767 -0.6767 -0.7363 761.1193 610.105)" fill="#D1D3D3" stroke="#FFFFFF" stroke-miterlimit="10" width="0.95" height="5.804"/>
		
			<rect x="287.221" y="440.762" transform="matrix(-0.7368 0.6761 -0.6761 -0.7368 799.6328 576.0511)" fill="#D1D3D3" stroke="#FFFFFF" stroke-miterlimit="10" width="0.949" height="5.804"/>
		
			<rect x="284.009" y="443.694" transform="matrix(-0.737 0.6758 -0.6758 -0.737 795.9894 583.4912)" fill="#D1D3D3" stroke="#FFFFFF" stroke-miterlimit="10" width="0.949" height="5.803"/>
		
			<rect x="280.816" y="446.642" transform="matrix(-0.7365 0.6764 -0.6764 -0.7365 792.5426 590.3829)" fill="#D1D3D3" stroke="#FFFFFF" stroke-miterlimit="10" width="0.95" height="5.803"/>
		
			<rect x="277.606" y="449.57" transform="matrix(-0.7368 0.6761 -0.6761 -0.7368 788.8878 597.8492)" fill="#D1D3D3" stroke="#FFFFFF" stroke-miterlimit="10" width="0.949" height="5.804"/>
		
			<rect x="274.393" y="452.534" transform="matrix(-0.737 0.6758 -0.6758 -0.737 785.259 605.3458)" fill="#D1D3D3" stroke="#FFFFFF" stroke-miterlimit="10" width="0.949" height="5.803"/>
		
			<rect x="271.182" y="455.461" transform="matrix(-0.7368 0.6761 -0.6761 -0.7368 781.7141 612.4249)" fill="#D1D3D3" stroke="#FFFFFF" stroke-miterlimit="10" width="0.949" height="5.804"/>
		
			<rect x="267.989" y="458.41" transform="matrix(-0.7368 0.6761 -0.6761 -0.7368 778.162 619.7042)" fill="#D1D3D3" stroke="#FFFFFF" stroke-miterlimit="10" width="0.949" height="5.804"/>
		
			<rect x="264.778" y="461.338" transform="matrix(-0.7368 0.6761 -0.6761 -0.7368 774.5649 626.9608)" fill="#D1D3D3" stroke="#FFFFFF" stroke-miterlimit="10" width="0.949" height="5.803"/>
		
			<rect x="261.565" y="464.307" transform="matrix(-0.7368 0.6761 -0.6761 -0.7368 770.9922 634.29)" fill="#D1D3D3" stroke="#FFFFFF" stroke-miterlimit="10" width="0.949" height="5.804"/>
		
			<rect x="258.354" y="467.236" transform="matrix(-0.7368 0.6761 -0.6761 -0.7368 767.3944 641.5471)" fill="#D1D3D3" stroke="#FFFFFF" stroke-miterlimit="10" width="0.949" height="5.803"/>
		
			<rect x="255.161" y="470.184" transform="matrix(-0.737 0.6758 -0.6758 -0.737 763.7816 649.0029)" fill="#D1D3D3" stroke="#FFFFFF" stroke-miterlimit="10" width="0.949" height="5.803"/>
		
			<rect x="251.95" y="473.109" transform="matrix(-0.7368 0.6761 -0.6761 -0.7368 760.2441 656.0776)" fill="#D1D3D3" stroke="#FFFFFF" stroke-miterlimit="10" width="0.949" height="5.804"/>
		<path fill="#D1D3D3" stroke="#FFFFFF" stroke-miterlimit="10" d="M255.736,488.258"/>
	</g>
	<g id="Pink_parking">
		<path fill="#D1D3D3" stroke="#FFFFFF" stroke-miterlimit="10" d="M397.218,464.799l67.798-7.24l-0.108-1.112l-67.88,7.241
			C397.055,464.04,397.137,464.419,397.218,464.799z"/>
		<path fill="#D1D3D3" stroke="#FFFFFF" stroke-miterlimit="10" d="M396.946,464.826c-0.081-0.38-0.136-0.732-0.217-1.112
			l-0.434,0.055c0.026,0.38,0.054,0.76,0.081,1.112L396.946,464.826z"/>
		
			<rect x="463.75" y="458.149" transform="matrix(-0.9944 0.1059 -0.1059 -0.9944 974.6706 870.3405)" fill="#D1D3D3" stroke="#FFFFFF" stroke-miterlimit="10" width="0.95" height="5.804"/>
		
			<rect x="459.411" y="458.611" transform="matrix(-0.9944 0.106 -0.106 -0.9944 966.111 871.666)" fill="#D1D3D3" stroke="#FFFFFF" stroke-miterlimit="10" width="0.949" height="5.804"/>
		
			<rect x="455.099" y="459.071" transform="matrix(-0.9944 0.106 -0.106 -0.9944 957.559 873.0396)" fill="#D1D3D3" stroke="#FFFFFF" stroke-miterlimit="10" width="0.949" height="5.803"/>
		
			<rect x="450.76" y="459.533" transform="matrix(-0.9944 0.106 -0.106 -0.9944 948.9547 874.4208)" fill="#D1D3D3" stroke="#FFFFFF" stroke-miterlimit="10" width="0.949" height="5.803"/>
		
			<rect x="446.42" y="459.995" transform="matrix(-0.9944 0.1059 -0.1059 -0.9944 940.3034 875.8571)" fill="#D1D3D3" stroke="#FFFFFF" stroke-miterlimit="10" width="0.95" height="5.804"/>
		
			<rect x="442.108" y="460.455" transform="matrix(-0.9944 0.1059 -0.1059 -0.9944 931.7523 877.2301)" fill="#D1D3D3" stroke="#FFFFFF" stroke-miterlimit="10" width="0.95" height="5.803"/>
		
			<rect x="437.769" y="460.917" transform="matrix(-0.9944 0.106 -0.106 -0.9944 923.1923 878.558)" fill="#D1D3D3" stroke="#FFFFFF" stroke-miterlimit="10" width="0.949" height="5.803"/>
		
			<rect x="433.456" y="461.376" transform="matrix(-0.9944 0.1059 -0.1059 -0.9944 914.5958 879.984)" fill="#D1D3D3" stroke="#FFFFFF" stroke-miterlimit="10" width="0.95" height="5.804"/>
		
			<rect x="429.117" y="461.838" transform="matrix(-0.9944 0.106 -0.106 -0.9944 906.0359 881.3129)" fill="#D1D3D3" stroke="#FFFFFF" stroke-miterlimit="10" width="0.949" height="5.804"/>
		
			<rect x="424.805" y="462.298" transform="matrix(-0.9944 0.106 -0.106 -0.9944 897.4839 882.6864)" fill="#D1D3D3" stroke="#FFFFFF" stroke-miterlimit="10" width="0.949" height="5.803"/>
		
			<rect x="420.466" y="462.76" transform="matrix(-0.9944 0.106 -0.106 -0.9944 888.8797 884.0686)" fill="#D1D3D3" stroke="#FFFFFF" stroke-miterlimit="10" width="0.949" height="5.804"/>
		
			<rect x="416.126" y="463.221" transform="matrix(-0.9944 0.1059 -0.1059 -0.9944 880.2286 885.5006)" fill="#D1D3D3" stroke="#FFFFFF" stroke-miterlimit="10" width="0.95" height="5.804"/>
		
			<rect x="411.814" y="463.681" transform="matrix(-0.9944 0.1059 -0.1059 -0.9944 871.6765 886.8737)" fill="#D1D3D3" stroke="#FFFFFF" stroke-miterlimit="10" width="0.95" height="5.803"/>
		
			<rect x="407.474" y="464.143" transform="matrix(-0.9944 0.1059 -0.1059 -0.9944 863.0712 888.2545)" fill="#D1D3D3" stroke="#FFFFFF" stroke-miterlimit="10" width="0.95" height="5.803"/>
		
			<rect x="403.162" y="464.602" transform="matrix(-0.9944 0.1059 -0.1059 -0.9944 854.5201 889.6276)" fill="#D1D3D3" stroke="#FFFFFF" stroke-miterlimit="10" width="0.95" height="5.804"/>
		
			<rect x="398.823" y="465.064" transform="matrix(-0.9944 0.106 -0.106 -0.9944 845.9609 890.9597)" fill="#D1D3D3" stroke="#FFFFFF" stroke-miterlimit="10" width="0.949" height="5.804"/>
		
			<rect x="465.406" y="473.8" transform="matrix(-0.9944 0.1059 -0.1059 -0.9944 979.6304 901.3769)" fill="#D1D3D3" stroke="#FFFFFF" stroke-miterlimit="10" width="0.95" height="5.803"/>
		
			<rect x="461.093" y="474.259" transform="matrix(-0.9944 0.1059 -0.1059 -0.9944 971.0782 902.749)" fill="#D1D3D3" stroke="#FFFFFF" stroke-miterlimit="10" width="0.95" height="5.803"/>
		
			<rect x="456.754" y="474.72" transform="matrix(-0.9944 0.106 -0.106 -0.9944 962.5195 904.0757)" fill="#D1D3D3" stroke="#FFFFFF" stroke-miterlimit="10" width="0.949" height="5.804"/>
		
			<rect x="452.415" y="475.182" transform="matrix(-0.9944 0.106 -0.106 -0.9944 953.9152 905.4569)" fill="#D1D3D3" stroke="#FFFFFF" stroke-miterlimit="10" width="0.949" height="5.804"/>
		
			<rect x="448.103" y="475.642" transform="matrix(-0.9944 0.106 -0.106 -0.9944 945.3632 906.8305)" fill="#D1D3D3" stroke="#FFFFFF" stroke-miterlimit="10" width="0.949" height="5.803"/>
		
			<rect x="443.763" y="476.104" transform="matrix(-0.9944 0.1059 -0.1059 -0.9944 936.7111 908.2665)" fill="#D1D3D3" stroke="#FFFFFF" stroke-miterlimit="10" width="0.95" height="5.804"/>
		
			<rect x="439.451" y="476.563" transform="matrix(-0.9944 0.106 -0.106 -0.9944 928.2069 909.5853)" fill="#D1D3D3" stroke="#FFFFFF" stroke-miterlimit="10" width="0.949" height="5.804"/>
		
			<rect x="435.112" y="477.026" transform="matrix(-0.9944 0.1059 -0.1059 -0.9944 919.5546 911.0204)" fill="#D1D3D3" stroke="#FFFFFF" stroke-miterlimit="10" width="0.95" height="5.803"/>
		
			<rect x="430.799" y="477.485" transform="matrix(-0.9944 0.1059 -0.1059 -0.9944 911.0025 912.3926)" fill="#D1D3D3" stroke="#FFFFFF" stroke-miterlimit="10" width="0.95" height="5.803"/>
		
			<rect x="426.46" y="477.947" transform="matrix(-0.9944 0.1059 -0.1059 -0.9944 902.3981 913.7744)" fill="#D1D3D3" stroke="#FFFFFF" stroke-miterlimit="10" width="0.95" height="5.804"/>
		
			<rect x="422.121" y="478.409" transform="matrix(-0.9944 0.106 -0.106 -0.9944 893.8401 915.1038)" fill="#D1D3D3" stroke="#FFFFFF" stroke-miterlimit="10" width="0.949" height="5.804"/>
		
			<rect x="417.809" y="478.869" transform="matrix(-0.9944 0.106 -0.106 -0.9944 885.2881 916.4773)" fill="#D1D3D3" stroke="#FFFFFF" stroke-miterlimit="10" width="0.949" height="5.803"/>
		
			<rect x="413.469" y="479.331" transform="matrix(-0.9944 0.1059 -0.1059 -0.9944 876.6354 917.9102)" fill="#D1D3D3" stroke="#FFFFFF" stroke-miterlimit="10" width="0.95" height="5.804"/>
		
			<rect x="409.157" y="479.79" transform="matrix(-0.9944 0.106 -0.106 -0.9944 868.1319 919.2322)" fill="#D1D3D3" stroke="#FFFFFF" stroke-miterlimit="10" width="0.949" height="5.804"/>
		
			<rect x="404.818" y="480.253" transform="matrix(-0.9944 0.1059 -0.1059 -0.9944 859.4789 920.6641)" fill="#D1D3D3" stroke="#FFFFFF" stroke-miterlimit="10" width="0.95" height="5.803"/>
		
			<rect x="462.559" y="449.255" transform="matrix(-0.9944 0.106 -0.106 -0.9944 971.3961 852.6721)" fill="#D1D3D3" stroke="#FFFFFF" stroke-miterlimit="10" width="0.949" height="5.804"/>
		
			<rect x="458.219" y="449.717" transform="matrix(-0.9944 0.1059 -0.1059 -0.9944 962.747 854.1085)" fill="#D1D3D3" stroke="#FFFFFF" stroke-miterlimit="10" width="0.95" height="5.804"/>
		
			<rect x="453.908" y="450.176" transform="matrix(-0.9945 0.105 -0.105 -0.9945 953.8276 855.9375)" fill="#D1D3D3" stroke="#FFFFFF" stroke-miterlimit="10" width="0.949" height="5.803"/>
		
			<rect x="449.568" y="450.638" transform="matrix(-0.9944 0.1059 -0.1059 -0.9944 945.5906 856.8624)" fill="#D1D3D3" stroke="#FFFFFF" stroke-miterlimit="10" width="0.95" height="5.803"/>
		
			<rect x="445.256" y="451.097" transform="matrix(-0.9944 0.106 -0.106 -0.9944 937.0836 858.1818)" fill="#D1D3D3" stroke="#FFFFFF" stroke-miterlimit="10" width="0.949" height="5.804"/>
		
			<rect x="440.916" y="451.559" transform="matrix(-0.9944 0.1059 -0.1059 -0.9944 928.4341 859.6163)" fill="#D1D3D3" stroke="#FFFFFF" stroke-miterlimit="10" width="0.95" height="5.804"/>
		
			<rect x="436.604" y="452.019" transform="matrix(-0.9944 0.1059 -0.1059 -0.9944 919.882 860.9894)" fill="#D1D3D3" stroke="#FFFFFF" stroke-miterlimit="10" width="0.95" height="5.803"/>
		
			<rect x="432.265" y="452.481" transform="matrix(-0.9944 0.1059 -0.1059 -0.9944 911.2776 862.3702)" fill="#D1D3D3" stroke="#FFFFFF" stroke-miterlimit="10" width="0.95" height="5.803"/>
		
			<rect x="427.926" y="452.943" transform="matrix(-0.9944 0.106 -0.106 -0.9944 902.7168 863.7002)" fill="#D1D3D3" stroke="#FFFFFF" stroke-miterlimit="10" width="0.949" height="5.804"/>
		
			<rect x="423.614" y="453.403" transform="matrix(-0.9944 0.106 -0.106 -0.9944 894.1648 865.0739)" fill="#D1D3D3" stroke="#FFFFFF" stroke-miterlimit="10" width="0.949" height="5.803"/>
		
			<rect x="419.274" y="453.865" transform="matrix(-0.9944 0.1059 -0.1059 -0.9944 885.5148 866.506)" fill="#D1D3D3" stroke="#FFFFFF" stroke-miterlimit="10" width="0.95" height="5.803"/>
		
			<rect x="414.962" y="454.324" transform="matrix(-0.9944 0.106 -0.106 -0.9944 877.0085 867.8286)" fill="#D1D3D3" stroke="#FFFFFF" stroke-miterlimit="10" width="0.949" height="5.804"/>
		
			<rect x="410.622" y="454.786" transform="matrix(-0.9944 0.1059 -0.1059 -0.9944 868.3583 869.2599)" fill="#D1D3D3" stroke="#FFFFFF" stroke-miterlimit="10" width="0.95" height="5.804"/>
		
			<rect x="406.311" y="455.246" transform="matrix(-0.9944 0.106 -0.106 -0.9944 859.8523 870.5835)" fill="#D1D3D3" stroke="#FFFFFF" stroke-miterlimit="10" width="0.949" height="5.803"/>
		
			<rect x="401.971" y="455.708" transform="matrix(-0.9944 0.1059 -0.1059 -0.9944 851.2019 872.0148)" fill="#D1D3D3" stroke="#FFFFFF" stroke-miterlimit="10" width="0.95" height="5.804"/>
		
			<rect x="397.632" y="456.17" transform="matrix(-0.9944 0.106 -0.106 -0.9944 842.6418 873.347)" fill="#D1D3D3" stroke="#FFFFFF" stroke-miterlimit="10" width="0.949" height="5.804"/>
	</g>
</g>
<g id="rooms">
	<g id="r401">
		<path fill="#CCCCCC" d="M217.009,570.564l-7.973-7.35l57.818-61.968l-33.275-33.193l-57.764,65.222l-16.95-17.248l-16.543,17.356
			l-13.099-12.773c-14.183,10.17-27.607,19.689-36.34,25.492c-5.234,3.472-10.251,7.269-15.105,11.228
			c-4.366,3.58-8.624,7.322-12.746,11.228c10.956,8.787,42.55,36.422,42.55,36.422s14.726,16.271,15.784,34.713
			c11.417,0,27.607,0,27.607,0L217.009,570.564z"/>
		<path fill="none" stroke="#FFFFFF" stroke-miterlimit="10" d="M217.009,570.564l-7.973-7.35l57.818-61.968l-33.275-33.193
			l-57.764,65.222l-16.95-17.248l-16.543,17.356l-13.099-12.773c-14.183,10.17-27.607,19.689-36.34,25.492
			c-5.234,3.472-10.251,7.269-15.105,11.228c-4.366,3.58-8.624,7.322-12.746,11.228c10.956,8.787,42.55,36.422,42.55,36.422
			s14.726,16.271,15.784,34.713c11.417,0,27.607,0,27.607,0L217.009,570.564z"/>
	</g>
	<path id="r402" fill="#CCCCCC" stroke="#FFFFFF" stroke-miterlimit="10" d="M286.083,587.812
		c-0.542-1.817-14.645-33.275-10.306-41.411c4.339-8.136,31.458-15.187,31.458-15.187l-11.905-28.91l-12.068,5.397l-6.292-17.248
		l-67.88,72.761l7.973,7.35c5.343-5.044,16.271-7.702,22.916-6.156c9.003,2.089,15.16,11.662,19.119,19.363
		c3.335,6.481,5.424,13.397,6.644,20.529c2.766,0.76,9.275,2.116,13.885-0.406c5.966-3.255,13.017-12.475,13.017-12.475
		S286.625,589.63,286.083,587.812z"/>
	<g id="r403">
		<polygon fill="#CCCCCC" points="960.677,725.199 779.438,725.199 779.438,584.368 800.809,556.272 940.608,556.272 
			960.677,580.815 		"/>
		<polygon fill="none" stroke="#FFFFFF" stroke-miterlimit="10" points="960.677,725.199 779.438,725.199 779.438,584.368 
			800.809,556.272 940.608,556.272 960.677,580.815 		"/>
	</g>
	<path fill="#CCCCCC" stroke="#FFFFFF" stroke-miterlimit="10" d="M453.734,655.503v33.898H308.076v-33.898l-69.426-0.271
		l-2.196-2.088c-8.543,1.979-17.872,1.871-24.787-0.868c-16.353-6.536-26.957-22.699-27.146-40.191
		c-0.027-1.763-0.244-4.609,0.163-6.915l-33.547,34.658c0,0-16.19,0-27.607,0c0.353,6.075-0.787,12.394-4.394,18.441
		c-10.875,18.144-24.461,32.381-30.726,38.51c20.258,19.255,43.689,41.492,43.689,41.492h333.596v-82.985L453.734,655.503z"/>
	<path fill="#CCCCCC" stroke="#FFFFFF" stroke-miterlimit="10" d="M361.257,540.923c-22.645,6.428-80.056,32.57-80.056,32.57
		s-0.651-0.705-1.491-2.251c2.901,8.38,6.129,15.702,6.373,16.543c0.542,1.817,6.508,3.607,6.508,3.607s-7.051,9.221-13.017,12.475
		c-4.583,2.495-11.119,1.139-13.885,0.407l0,0c0.461,2.685,0.787,5.369,1.003,8.108c0.977,12.258-4.637,25.573-14.21,33.33
		c-7.647,6.21-20.747,9.491-31.811,8.461v1.193h252.238V523.133C452.433,517.275,398.764,530.292,361.257,540.923z"/>
</g>
<g id="signs">
	<g id="escalator_6_">
		<rect id="escalator_8_" x="854.098" y="632.749" width="12.204" height="12.204"/>
		<rect id="escalator_7_" x="219.233" y="632.343" width="12.204" height="12.203"/>
		<rect id="escalator_26_" x="196.67" y="590.036" width="12.204" height="12.204"/>
	</g>
	<g id="elevator_13_">
		<rect id="elevator_17_" x="233.335" y="591.582" width="12.204" height="12.204"/>
		<rect id="elevator_16_" x="316.267" y="476.515" width="12.203" height="12.204"/>
		<rect id="elevator_14_" x="886.912" y="707.599" width="12.204" height="12.204"/>
	</g>
	<rect id="baby_change" x="300.809" y="638.444" width="12.203" height="12.204"/>
	<g id="handicap_6_">
		<rect id="handicap_1_" x="282.909" y="638.444" width="12.204" height="12.204"/>
		<rect id="handicap_4_" x="938.71" y="601.833" width="12.204" height="12.204"/>
	</g>
	<g id="toilet_1_">
		<rect id="toilet_6_" x="265.011" y="638.444" width="12.204" height="12.204"/>
		<rect id="toilet_2_" x="938.71" y="581.711" width="12.204" height="12.203"/>
	</g>
	<g id="entrance_1_">
		<rect id="entrance_8_" x="316.267" y="450.67" width="12.203" height="12.204"/>
	</g>
	<rect id="parking" x="276.808" y="414.683" width="12.204" height="12.203"/>
</g>
</svg>
