<?xml version="1.0" encoding="utf-8"?>
<!-- Generator: Adobe Illustrator 16.0.0, SVG Export Plug-In . SVG Version: 6.00 Build 0)  -->
<!DOCTYPE svg PUBLIC "-//W3C//DTD SVG 1.1//EN" "http://www.w3.org/Graphics/SVG/1.1/DTD/svg11.dtd">
<svg version="1.1" id="ATM" xmlns="http://www.w3.org/2000/svg" xmlns:xlink="http://www.w3.org/1999/xlink" x="0px" y="0px"
	 width="1000px" height="1000px" viewBox="0 0 1000 1000" enable-background="new 0 0 1000 1000" xml:space="preserve">
<g id="ATM_2_">
	<g>
		<path fill="#D01C1F" d="M873.333,1000H126.667C57.778,1000,0,942.223,0,873.333V126.667C0,57.778,57.778,0,126.667,0h746.667
			C942.223,0,1000,57.778,1000,126.667v746.667C1000,942.223,942.223,1000,873.333,1000z"/>
	</g>
	<g>
		<g>
			<path fill="#FFFFFF" d="M213.333,551.111l-28.889,84.444h-35.556L240,364.444h42.222l91.111,271.111h-37.777l-28.889-84.444
				H213.333z M302.223,522.223l-26.667-77.778c-6.667-17.777-11.111-33.333-13.333-48.889l0,0
				c-4.444,15.556-8.889,33.333-13.333,48.889l-26.667,77.778H302.223z"/>
		</g>
		<g>
			<path fill="#FFFFFF" d="M435.556,395.556h-82.223v-28.889h200v28.889h-82.222v240h-35.556V395.556z"/>
		</g>
		<g>
			<path fill="#FFFFFF" d="M811.111,515.556c-2.223-37.778-4.444-82.223-4.444-115.556h-2.223
				c-8.889,31.111-20,64.444-33.333,102.223l-46.667,131.11h-26.667l-44.444-128.889C640,466.667,628.889,431.111,622.223,400l0,0
				c0,33.333-2.223,80-4.445,120l-6.666,115.556h-33.334l17.778-271.111H640l46.667,131.111c11.11,33.333,20,62.222,26.666,91.111
				h2.223c6.667-26.667,15.556-57.778,28.889-91.111l48.889-131.111h44.444l17.778,271.111h-33.333L811.111,515.556z"/>
		</g>
	</g>
</g>
</svg>
