<?xml version="1.0" encoding="utf-8"?>
<!-- Generator: Adobe Illustrator 16.0.0, SVG Export Plug-In . SVG Version: 6.00 Build 0)  -->
<!DOCTYPE svg PUBLIC "-//W3C//DTD SVG 1.1//EN" "http://www.w3.org/Graphics/SVG/1.1/DTD/svg11.dtd">
<svg version="1.1" id="Baby_Stroller_1_" xmlns="http://www.w3.org/2000/svg" xmlns:xlink="http://www.w3.org/1999/xlink" x="0px"
	 y="0px" width="1000px" height="1000px" viewBox="0 0 1000 1000" enable-background="new 0 0 1000 1000" xml:space="preserve">
<g id="Baby_Stroller">
	<g>
		<path fill="#D01C1F" d="M873.333,1000H126.667C57.778,1000,0,942.223,0,873.333V126.667C0,57.778,57.778,0,126.667,0h746.667
			C942.223,0,1000,57.778,1000,126.667v746.667C1000,942.223,942.223,1000,873.333,1000z"/>
	</g>
	<g>
		<path fill="#FFFFFF" d="M515.556,460c77.777,0,153.333,0,231.111,0c17.777,0,22.222,6.667,20,24.444
			c-8.89,73.333-68.89,128.889-142.223,128.889s-146.667,0-220,0s-135.556-60-142.222-131.11C260,466.667,264.444,460,282.222,460
			C360,462.223,437.777,460,515.556,460z"/>
		<path fill="#FFFFFF" d="M648.889,437.777c-33.333,0-68.889,0-102.222,0c-15.556,0-24.444-6.666-24.444-22.222
			c-2.223-42.222-6.667-84.444-8.89-124.444c-2.222-20,2.223-24.445,24.444-24.445c28.89,0,55.556,0,84.445,0
			c82.222,2.222,148.889,71.111,146.666,153.333c0,13.333-4.444,17.777-17.777,17.777
			C717.777,437.777,684.444,437.777,648.889,437.777z"/>
		<path fill="#FFFFFF" d="M406.667,628.889c42.222,0,75.556,33.334,75.556,75.556c0,42.223-33.334,75.556-75.556,75.556
			c-42.223,0-75.556-33.333-75.556-75.556C331.111,662.223,364.444,628.889,406.667,628.889z M406.667,677.777
			c-15.556,0-26.667,11.111-26.667,26.667s13.333,26.667,26.667,26.667c13.333,0,24.444-11.111,24.444-26.667
			C433.333,688.889,422.223,677.777,406.667,677.777z"/>
		<path fill="#FFFFFF" d="M544.444,702.223c0-42.223,33.333-75.556,75.556-75.556s75.556,33.333,75.556,75.556
			c0,42.222-35.556,75.555-77.778,75.555C575.556,777.777,544.444,744.444,544.444,702.223z M646.667,704.444
			c0-15.556-11.111-26.667-26.667-26.667s-26.667,11.111-26.667,26.667s8.89,24.444,24.444,26.667
			C633.333,731.111,644.444,717.777,646.667,704.444z"/>
		<path fill="#FFFFFF" d="M351.111,435.556c-13.334,0-24.444,0-35.556,0c0-6.667,0-13.333-2.223-17.778
			c-2.222-31.111-20-48.889-51.111-51.111c-6.667,0-13.333,2.222-17.778,0c-6.667-4.444-15.556-13.333-13.333-17.778
			c2.222-6.667,11.111-15.555,17.777-17.777c51.111-8.889,100,31.111,102.223,82.222C351.111,420,351.111,426.667,351.111,435.556z"
			/>
	</g>
</g>
</svg>
