<?xml version="1.0" encoding="utf-8"?>
<!-- Generator: Adobe Illustrator 16.0.0, SVG Export Plug-In . SVG Version: 6.00 Build 0)  -->
<!DOCTYPE svg PUBLIC "-//W3C//DTD SVG 1.1//EN" "http://www.w3.org/Graphics/SVG/1.1/DTD/svg11.dtd">
<svg version="1.1" id="Bus_Stop" xmlns="http://www.w3.org/2000/svg" xmlns:xlink="http://www.w3.org/1999/xlink" x="0px" y="0px"
	 width="1000px" height="1000px" viewBox="0 0 1000 1000" enable-background="new 0 0 1000 1000" xml:space="preserve">
<g id="Bus_Stop_1_">
	<g>
		<path fill="#D01C1F" d="M873.333,1000H126.667C57.778,1000,0,942.223,0,873.333V126.667C0,57.778,57.778,0,126.667,0h746.667
			C942.223,0,1000,57.778,1000,126.667v746.667C1000,942.223,942.223,1000,873.333,1000z"/>
	</g>
	<g>
		<path fill="#FFFFFF" d="M664.444,760c-111.111,0-220,0-331.111,0c0,15.556,0,28.889,0,44.444c2.223,20-8.889,31.111-28.889,31.111
			c-8.889,0-17.778,0-26.667,0c-17.778,0-26.667-8.889-26.667-26.667c0-24.444,4.444-48.889-22.223-64.444
			C222.222,740,220,722.223,220,711.111c2.222-153.334,6.667-306.667,11.111-460c2.222-46.667,24.444-68.889,80-75.556
			c126.666-13.333,251.111-13.333,377.777,0c62.223,6.667,80,28.889,80,93.333c2.223,144.445,6.667,288.889,11.111,433.334
			c0,22.222-2.223,42.222-24.444,55.555c-6.667,4.445-4.444,22.223-6.667,33.334c-4.444,13.333-6.666,35.556-13.333,35.556
			c-20,4.444-40,2.222-60-2.223c-4.444,0-6.667-13.333-8.889-20C664.444,791.111,664.444,775.556,664.444,760z M497.777,502.223
			c66.667,0,131.111,0,197.778,0c20,0,31.111-4.445,31.111-26.667c0-51.111,0-102.222,0-155.556c0-17.778-8.89-26.667-26.667-26.667
			c-133.333,0-266.667,0-400,0c-20,0-26.667,8.889-26.667,26.667c0,48.889,2.222,97.778,0,146.667
			c0,24.444,8.889,33.333,33.333,33.333C368.889,502.223,433.333,502.223,497.777,502.223z M651.111,257.778
			c-6.667-20,15.556-46.667-17.778-46.667c-88.889-2.223-177.777,0-266.666,0c-17.778,0-17.778,11.111-17.778,24.444
			c0,11.111-2.222,24.444,15.556,24.444C457.777,257.778,551.111,257.778,651.111,257.778z M682.223,697.777
			c20-2.222,33.333-13.333,33.333-33.333s-13.333-33.333-33.333-33.333c-17.778,0-31.111,13.333-31.111,31.111
			C648.889,684.444,662.223,695.556,682.223,697.777z M351.111,666.667c-2.223-20-13.334-33.334-33.334-33.334
			s-33.333,13.334-31.111,33.334c0,17.777,13.333,31.11,31.111,31.11C337.777,697.777,346.667,684.444,351.111,666.667z"/>
	</g>
</g>
</svg>
