<?xml version="1.0" encoding="utf-8"?>
<!-- Generator: Adobe Illustrator 16.0.0, SVG Export Plug-In . SVG Version: 6.00 Build 0)  -->
<!DOCTYPE svg PUBLIC "-//W3C//DTD SVG 1.1//EN" "http://www.w3.org/Graphics/SVG/1.1/DTD/svg11.dtd">
<svg version="1.1" id="Handicapped_Toilet" xmlns="http://www.w3.org/2000/svg" xmlns:xlink="http://www.w3.org/1999/xlink" x="0px"
	 y="0px" width="1000px" height="1000px" viewBox="0 0 1000 1000" enable-background="new 0 0 1000 1000" xml:space="preserve">
<g id="Handicapped_Toilet_1_">
	<g>
		<path fill="#D01C1F" d="M873.333,1000H126.667C57.778,1000,0,942.223,0,873.333V126.667C0,57.778,57.778,0,126.667,0h746.667
			C942.223,0,1000,57.778,1000,126.667v746.667C1000,942.223,942.223,1000,873.333,1000z"/>
	</g>
	<g>
		<g>
			<path fill="#FFFFFF" d="M600,602.223c-46.667,0-93.333,0-140,0c-37.777,0-53.333-13.334-60-51.111
				C388.889,495.556,380,440,371.111,386.667c-4.444-31.111,13.333-57.778,44.444-64.444c26.667-4.444,55.556,15.556,62.222,44.444
				c4.445,20,6.667,40,11.111,62.222c33.334,0,66.667,0,100,0c17.778,0,31.111,4.444,33.334,24.444
				c0,20-13.334,24.444-31.111,24.444c-28.889,0-57.778,0-88.889,0c0,11.111,2.222,20,2.222,33.334c33.333,0,66.667,0,97.778,0
				c40,0,55.555,13.333,62.222,53.333c8.889,55.556,20,111.111,28.889,171.111c11.111,0,22.223-4.444,31.111-2.223
				c8.889,2.223,22.223,11.111,24.444,17.778c2.223,6.666-8.889,22.222-15.556,24.444c-22.222,6.667-46.666,11.111-68.889,11.111
				c-20,2.222-28.889-13.334-31.111-31.111c-6.666-44.444-15.556-86.667-22.222-131.111
				C604.444,617.777,602.223,611.111,600,602.223z"/>
		</g>
		<g>
			<path fill="#FFFFFF" d="M360,451.111c11.111,24.444,8.889,42.222-13.333,64.444c-46.667,42.222-60,95.556-37.778,155.556
				c22.223,62.222,68.889,97.777,133.334,102.222c60,4.444,106.666-22.222,140-73.333c4.444-6.667,8.889-15.556,15.555-26.667
				c4.445,22.223,8.89,37.778,11.111,55.556c0,6.667-2.222,13.334-6.666,20C560,806.667,471.111,833.333,397.777,811.111
				C320,788.889,262.222,717.777,255.556,637.777C248.889,560,291.111,482.223,360,451.111z"/>
		</g>
		<g>
			<path fill="#FFFFFF" d="M355.556,244.444c0-35.556,26.667-62.222,60-62.222c35.556,0,64.444,26.667,64.444,62.222
				c0,33.333-28.889,62.222-62.223,62.222C384.444,306.667,355.556,280,355.556,244.444z"/>
		</g>
	</g>
</g>
</svg>
