<?xml version="1.0" encoding="utf-8"?>
<!-- Generator: Adobe Illustrator 16.0.0, SVG Export Plug-In . SVG Version: 6.00 Build 0)  -->
<!DOCTYPE svg PUBLIC "-//W3C//DTD SVG 1.1//EN" "http://www.w3.org/Graphics/SVG/1.1/DTD/svg11.dtd">
<svg version="1.1" id="Parking" xmlns="http://www.w3.org/2000/svg" xmlns:xlink="http://www.w3.org/1999/xlink" x="0px" y="0px"
	 width="1000px" height="1000px" viewBox="0 0 1000 1000" enable-background="new 0 0 1000 1000" xml:space="preserve">
<g id="paking">
	<g>
		<path fill="#D01C1F" d="M873.333,1000H126.667C57.778,1000,0,942.223,0,873.333V126.667C0,57.778,57.778,0,126.667,0h746.667
			C942.223,0,1000,57.778,1000,126.667v746.667C1000,942.223,942.223,1000,873.333,1000z"/>
	</g>
	<g>
		<g>
			<path fill="#FFFFFF" d="M782.223,500c0,66.667,0,133.333,0,202.223c0,51.11-31.111,82.222-80,82.222
				c-133.334,0-268.89,0-402.223,0c-48.889,0-80-28.889-80-75.556c-2.222-137.777-2.222-273.333,0-411.111
				C220,248.889,253.333,220,302.223,220c133.333,0,266.666,0,400,0c51.11,0,82.222,31.111,82.222,80
				C782.223,366.667,782.223,433.333,782.223,500z M435.556,542.223c35.556,0,66.667,2.222,95.556,0c60-2.223,100-40,104.444-95.556
				c4.444-64.445-22.223-113.334-75.556-120c-64.444-6.667-128.889-2.222-195.556-2.222c0,115.556,0,233.333,0,351.111
				c24.444,0,46.667,0,71.111,0C435.556,633.333,435.556,591.111,435.556,542.223z"/>
		</g>
		<g>
			<path fill="#FFFFFF" d="M437.777,484.444c0-37.777,0-68.889,0-100c31.111,0,60-2.222,88.89,0
				c22.222,2.222,35.556,20,37.777,44.444c0,24.444-11.111,44.444-35.556,48.889C500,482.223,468.889,482.223,437.777,484.444z"/>
		</g>
	</g>
</g>
</svg>
