<?xml version="1.0" encoding="utf-8"?>
<!-- Generator: Adobe Illustrator 16.0.0, SVG Export Plug-In . SVG Version: 6.00 Build 0)  -->
<!DOCTYPE svg PUBLIC "-//W3C//DTD SVG 1.1//EN" "http://www.w3.org/Graphics/SVG/1.1/DTD/svg11.dtd">
<svg version="1.1" id="Reserved_Parking" xmlns="http://www.w3.org/2000/svg" xmlns:xlink="http://www.w3.org/1999/xlink" x="0px"
	 y="0px" width="1000px" height="1000px" viewBox="0 0 1000 1000" enable-background="new 0 0 1000 1000" xml:space="preserve">
<g id="Reserved_Parking_1_">
	<g>
		<g>
			<path fill="#D01C1F" d="M873.333,1000H126.667C57.778,1000,0,942.223,0,873.333V126.667C0,57.778,57.778,0,126.667,0h746.667
				C942.223,0,1000,57.778,1000,126.667v746.667C1000,942.223,942.223,1000,873.333,1000z"/>
		</g>
	</g>
	<g>
		<path fill="#FFFFFF" d="M48.889,520c8.889-2.223,24.445-2.223,40-2.223c20,0,33.333,2.223,44.445,11.111
			c8.889,6.667,13.333,15.556,13.333,28.889c0,17.778-11.111,28.89-24.444,33.334l0,0c8.889,4.444,15.556,13.333,17.778,24.444
			c4.444,15.556,8.889,33.333,11.111,37.777h-33.333c-2.222-4.444-4.444-15.556-8.889-31.11C104.444,604.444,100,600,86.667,600
			h-8.889v53.333H48.889V520z M77.778,577.777h11.111c15.556,0,24.445-6.666,24.445-20c0-11.11-8.889-17.777-22.222-17.777
			c-6.667,0-11.111,0-13.333,0V577.777z"/>
		<path fill="#FFFFFF" d="M246.667,597.777h-48.889v31.111h55.556v24.444h-86.667V517.777h82.222v24.445h-51.111v28.889h48.889
			V597.777z"/>
		<path fill="#FFFFFF" d="M273.333,622.223c8.889,4.444,20,8.889,33.333,8.889c13.333,0,22.222-6.667,22.222-15.556
			s-6.666-13.333-22.222-17.778c-22.223-8.889-37.778-20-37.778-40c0-22.222,20-40,51.111-40c15.556,0,26.667,2.223,33.333,6.667
			l-6.666,24.444c-4.444-2.222-15.556-6.666-28.89-6.666c-13.333,0-20,6.666-20,13.333c0,8.889,6.667,13.333,24.445,20
			c24.444,8.889,35.555,22.222,35.555,40c0,22.222-17.777,42.222-53.333,42.222c-15.556,0-31.111-4.444-37.778-8.889
			L273.333,622.223z"/>
		<path fill="#FFFFFF" d="M462.223,597.777h-48.89v31.111h53.334v24.444H380V517.777h82.223v24.445h-53.334v28.889h48.889v26.666
			H462.223z"/>
		<path fill="#FFFFFF" d="M488.889,520c8.889-2.223,24.444-2.223,40-2.223c20,0,33.334,2.223,44.444,11.111
			c8.89,6.667,13.334,15.556,13.334,28.889c0,17.778-11.111,28.89-24.444,33.334l0,0c8.889,4.444,15.555,13.333,17.777,24.444
			c4.444,15.556,8.889,33.333,11.111,37.777H560c-2.223-4.444-4.444-15.556-8.889-31.11C546.667,604.444,542.223,600,528.889,600
			H520v53.333h-31.111V520z M517.777,577.777h11.111c15.556,0,24.444-6.666,24.444-20c0-11.11-8.889-17.777-22.222-17.777
			c-6.667,0-11.111,0-13.334,0V577.777z"/>
		<path fill="#FFFFFF" d="M637.777,653.333l-42.222-135.556h33.333l15.556,57.778c4.444,15.556,8.889,31.111,11.111,48.889l0,0
			c4.444-15.556,6.667-31.111,11.111-46.667L684.444,520h33.333l-44.444,135.556h-35.556V653.333z"/>
		<path fill="#FFFFFF" d="M813.333,597.777h-48.889v31.111H820v24.444h-86.667V517.777h82.223v24.445h-53.333v28.889h48.889v26.666
			H813.333z"/>
		<path fill="#FFFFFF" d="M840,520c11.111-2.223,26.667-2.223,40-2.223c26.667,0,42.223,4.445,55.556,13.334
			c13.333,11.111,22.222,26.666,22.222,51.111c0,26.666-8.889,44.444-22.222,55.555c-13.333,11.111-35.556,17.778-62.223,17.778
			c-15.556,0-26.666,0-35.556-2.223V520H840z M868.889,631.111c2.223,0,6.667,0,11.111,0c28.889,0,46.667-15.556,46.667-46.667
			c0-28.889-15.556-42.222-42.223-42.222c-6.667,0-11.111,0-13.333,2.222v86.667H868.889z"/>
		<path fill="#FFFFFF" d="M108.889,760c8.889-2.223,22.223-2.223,42.223-2.223c17.777,0,31.111,4.445,42.222,11.111
			c6.667,6.667,13.333,17.778,13.333,31.111s-4.444,24.444-13.333,31.111c-11.111,8.889-26.667,13.333-44.445,13.333
			c-4.444,0-6.667,0-11.111,0v48.889h-28.889V760z M140,822.223c2.222,0,6.667,0,11.111,0c15.555,0,26.667-8.89,26.667-22.223
			s-8.889-20-24.444-20c-6.667,0-11.111,0-13.333,0V822.223z"/>
		<path fill="#FFFFFF" d="M244.444,860l-8.889,35.556h-31.111l40-135.556h40l42.223,135.556h-33.333L282.222,860H244.444z
			 M280,835.556l-8.889-28.889c-2.223-8.89-4.445-17.778-6.667-26.667l0,0c-2.222,8.889-4.444,17.777-6.667,26.667l-8.889,28.889
			H280z"/>
		<path fill="#FFFFFF" d="M344.444,760c8.889-2.223,24.444-2.223,40-2.223c20,0,33.333,2.223,44.444,11.111
			c8.889,6.667,13.334,15.556,13.334,28.889c0,17.778-11.111,28.89-24.445,33.334l0,0c8.89,4.444,15.556,13.333,17.778,24.444
			c4.444,15.556,8.889,33.333,11.111,37.777h-31.111c-2.223-4.444-4.444-15.556-8.889-31.11
			c-4.444-17.778-8.89-22.223-22.223-22.223h-8.889v53.333h-31.111V760z M375.556,817.777h11.111c15.556,0,24.444-6.666,24.444-20
			c0-11.11-8.889-17.777-22.223-17.777c-6.666,0-11.111,0-13.333,0V817.777z"/>
		<path fill="#FFFFFF" d="M462.223,760h31.11v60l0,0c2.223-4.444,6.667-11.111,8.89-15.556L533.333,760h37.778l-44.444,57.777
			l46.666,77.778h-35.556l-33.333-57.778l-11.111,13.334v44.444h-31.11V760z"/>
		<path fill="#FFFFFF" d="M615.556,760v135.556h-31.111V760H615.556z"/>
		<path fill="#FFFFFF" d="M642.223,893.333V757.777h35.555l28.89,48.89c8.889,13.333,15.556,31.11,22.222,46.666l0,0
			c-2.222-17.777-2.222-35.556-2.222-55.556v-40h28.889v135.556h-31.111l-28.889-51.11c-8.889-13.334-17.778-31.111-24.444-46.667
			l0,0c0,17.777,2.222,37.777,2.222,60v40h-31.11V893.333z"/>
		<path fill="#FFFFFF" d="M893.333,886.667c-8.889,2.222-26.666,6.666-44.444,6.666c-24.444,0-42.222-6.666-55.556-17.777
			c-11.11-11.111-20-28.889-20-48.889c0-44.444,33.334-71.111,77.778-71.111c17.777,0,31.111,4.444,37.777,6.667l-6.666,24.444
			c-6.667-4.445-15.556-6.667-31.111-6.667c-24.444,0-44.444,13.333-44.444,44.444c0,28.889,17.777,44.444,42.222,44.444
			c6.667,0,13.334,0,15.556-2.222v-28.89h-20v-24.444h51.111v73.334H893.333z"/>
	</g>
	<g>
		<g>
			<path fill="#FFFFFF" d="M657.777,357.778c0,11.111,0,24.444,0,35.556c0,11.111-4.444,15.555-15.555,15.555
				c-37.778,2.223-37.778,2.223-37.778-35.555c0-4.445,0-11.111,0-17.778c-71.111,0-140,0-211.111,0c0,13.333,0,24.444,0,37.778
				c0,11.111-4.444,15.555-15.556,15.555C340,408.889,340,411.111,340,373.333c0-8.889,2.223-20-13.333-22.222
				c-4.444,0-8.89-6.667-8.89-11.111c-4.444-26.667-8.889-51.111-11.11-77.778c-2.223-17.778,8.889-28.889,22.222-40
				c6.667-4.444,13.334-13.333,17.778-20c6.666-8.889,8.889-20,13.333-31.111c11.111-31.111,28.889-55.556,60-55.556
				c4.444,0,144.444,0,153.333,0c28.89-2.222,46.667,13.333,57.778,35.556c6.666,11.111,11.111,24.444,15.556,35.556
				c6.666,15.555,13.333,28.889,28.889,37.777c15.556,8.889,20,26.667,17.777,42.223c-2.222,20-4.444,42.222-8.889,62.222
				c-2.222,8.889-11.111,17.778-17.777,26.667C662.223,360,660,360,657.777,357.778z M375.556,211.111c82.222,0,164.444,0,248.889,0
				c-8.889-17.778-13.333-35.556-22.222-48.889c-4.445-6.667-17.778-13.333-26.667-15.556c-35.556-2.222-73.333,0-108.889,0
				c-66.667,0-66.667,0-91.111,62.222V211.111z M368.889,293.333c13.334,0,26.667-11.111,24.444-24.445
				c0-13.333-11.11-24.444-24.444-24.444c-13.333,0-26.666,11.111-26.666,24.444C342.223,282.222,355.556,293.333,368.889,293.333z
				 M631.111,293.333c15.556,0,24.444-11.111,24.444-24.445c0-13.333-11.111-24.444-24.444-24.444
				c-13.334,0-24.444,11.111-24.444,24.444C606.667,282.222,615.556,293.333,631.111,293.333z"/>
		</g>
	</g>
</g>
</svg>
