<?xml version="1.0" encoding="utf-8"?>
<!-- Generator: Adobe Illustrator 16.0.0, SVG Export Plug-In . SVG Version: 6.00 Build 0)  -->
<!DOCTYPE svg PUBLIC "-//W3C//DTD SVG 1.1//EN" "http://www.w3.org/Graphics/SVG/1.1/DTD/svg11.dtd">
<svg version="1.1" id="Taxi_stand" xmlns="http://www.w3.org/2000/svg" xmlns:xlink="http://www.w3.org/1999/xlink" x="0px" y="0px"
	 width="1000px" height="1000px" viewBox="0 0 1000 1000" enable-background="new 0 0 1000 1000" xml:space="preserve">
<g id="taxi_stand">
	<g>
		<g>
			<path fill="#D01C1F" d="M873.333,1000H126.667C57.778,1000,0,942.223,0,873.333V126.667C0,57.778,57.778,0,126.667,0h746.667
				C942.223,0,1000,57.778,1000,126.667v746.667C1000,942.223,942.223,1000,873.333,1000z"/>
		</g>
	</g>
	<g>
		<g>
			<path fill="#FFFFFF" d="M868.889,724.444c0,13.333,0,28.889,0,42.223c0,11.11-4.444,17.777-17.777,17.777
				c-44.444,2.223-44.444,2.223-44.444-42.222c0-6.667,0-11.111,0-20.001c-80,0-160,0-242.223,0c0,13.334,0,28.89,0,42.223
				s-4.444,17.777-17.777,17.777c-44.444,0-44.444,2.223-44.444-42.222c0-11.111,2.222-22.223-15.556-24.444
				c-4.444,0-8.89-8.889-11.111-13.334c-4.444-28.889-8.889-57.777-13.333-88.889c-2.223-20,8.889-33.333,24.444-44.444
				c6.666-6.666,13.333-15.556,20-24.444c6.666-11.111,11.11-24.444,15.556-35.556c15.555-40,37.777-71.111,86.666-62.222
				c2.223-2.223,4.444-4.445,4.444-4.445c-2.222-40,4.444-40,42.223-40c22.222,0,42.222,0,64.444,0
				c26.667,0,31.111,2.222,31.111,31.111c0,4.444,0,6.667,2.222,11.111c4.444,0,8.89,2.223,13.334,0
				C800,442.222,820,460,831.111,486.667c6.666,13.333,13.333,28.889,17.777,42.222c6.667,17.777,15.556,33.333,31.111,44.444
				c17.777,11.111,22.223,28.889,20,48.889c-2.223,24.445-4.444,46.667-11.111,71.111c-2.222,11.111-13.333,20-20,28.889
				C873.333,726.667,871.111,726.667,868.889,724.444z M544.444,555.556c95.556,0,188.889,0,286.667,0
				c-8.889-20-15.556-40-26.667-57.778c-6.667-8.889-20-15.555-31.111-17.777c-42.222-2.223-84.444,0-124.444,0
				c-77.777,0-77.777,0-104.444,71.111C544.444,553.333,544.444,555.556,544.444,555.556z M535.556,651.111
				c15.556,0,28.889-13.334,28.889-28.889c0-15.556-13.333-26.667-28.889-28.89c-15.556,0-28.889,13.334-31.111,26.667
				C506.667,637.777,520,651.111,535.556,651.111z M835.556,651.111c17.777,0,28.889-11.111,28.889-28.889
				c0-15.556-13.333-28.89-28.889-28.89S808.889,604.444,808.889,620C808.889,637.777,820,651.111,835.556,651.111z"/>
		</g>
	</g>
	<g>
		<g>
			<path fill="#FFFFFF" d="M180,555.556c0-31.111,0-64.444,0-95.556s24.444-55.556,55.556-55.556c26.667,0,53.333,0,77.777,0
				c4.444,0,8.89-2.222,13.334-4.444c20-20,40-42.222,62.222-62.222c8.889-8.889,15.556-17.778,24.444-24.444
				c8.89-6.667,15.556-4.445,24.444,2.222c6.667,6.667,8.89,15.556,2.223,24.444c-2.223,4.444-6.667,8.889-11.111,13.333
				c-31.111,33.333-64.444,64.444-95.556,97.778c-4.444,4.444-6.666,8.889-6.666,15.556c0,104.444,0,206.666,0,311.11
				c0,4.445,0,8.89,0,11.111c0,2.223-4.444,17.778-22.223,17.778c-15.556,0-22.222-15.556-22.222-20c0-4.445,0-6.667,0-11.111
				c0-57.778,0-171.111,0-171.111h-20c0,0,0,82.223,0,124.444c0,17.777,0,37.778,0,55.556s-4.444,24.444-22.222,24.444
				c-15.556,0-22.222-13.333-22.222-24.444c0-15.556,0-31.111,0-46.667c-31.111,0-53.333,0-84.444,0c0-46.666,0-93.333,0-140
				c4.444,0,8.889,0,13.333,0c4.445,0,8.889,0,11.111,0c0-8.889-2.222-17.777,2.222-24.444c4.444-4.444,13.333-6.666,22.222-8.889
				C180,562.223,180,560,180,555.556z M231.111,595.556c0-42.223,0-84.444,0-126.667c-2.223,0-13.333,0-17.778,0
				c0,42.223,0,82.223,0,126.667C217.778,595.556,228.889,595.556,231.111,595.556z"/>
		</g>
		<g>
			<path fill="#FFFFFF" d="M273.333,393.333c22.222,0,42.222-17.778,42.222-42.222c0-22.223-17.778-40-42.222-40
				c-22.222,0-42.222,17.777-42.222,40C231.111,375.556,248.889,393.333,273.333,393.333z"/>
		</g>
		<g>
			<path fill="#FFFFFF" d="M120,737.777c0-46.666,0-93.333,0-140c-6.667,0-15.556,0-22.222,0
				c-8.889,2.223-15.556,8.89-15.556,17.778c0,35.556,0,68.889,0,104.444c0,8.889,6.667,17.777,15.556,17.777
				c2.222,0,4.444,0,6.667,0C111.111,737.777,113.333,737.777,120,737.777z"/>
		</g>
	</g>
	<g>
		<path fill="#FFFFFF" d="M526.667,200h-37.778v-24.444h104.444V200h-37.777v108.889h-31.111V200H526.667z"/>
		<path fill="#FFFFFF" d="M626.667,275.556l-8.89,35.556h-31.11l40-135.556h40l42.222,135.556h-33.333l-11.111-35.556H626.667z
			 M660,251.111l-8.889-28.889c-2.223-8.889-4.444-17.778-6.667-26.667l0,0c-2.222,8.889-4.444,17.778-6.667,26.667l-8.889,28.889
			H660z"/>
		<path fill="#FFFFFF" d="M791.111,308.889L780,284.444c-4.444-8.889-8.889-15.556-11.111-24.444l0,0
			c-2.222,8.889-6.666,15.556-11.111,24.444l-11.11,24.444h-35.556l40-68.889l-37.778-66.667h35.556L760,200
			c4.444,8.889,6.667,15.556,11.111,22.222l0,0c2.222-8.889,6.666-15.556,8.889-22.222l11.111-24.444h35.556l-37.778,66.667
			l40,68.889h-37.777V308.889z"/>
		<path fill="#FFFFFF" d="M873.333,175.556v135.556h-28.889V175.556H873.333z"/>
	</g>
</g>
</svg>
