<?xml version="1.0" encoding="utf-8"?>
<!-- Generator: Adobe Illustrator 16.0.0, SVG Export Plug-In . SVG Version: 6.00 Build 0)  -->
<!DOCTYPE svg PUBLIC "-//W3C//DTD SVG 1.1//EN" "http://www.w3.org/Graphics/SVG/1.1/DTD/svg11.dtd">
<svg version="1.1" id="Public_Telephone" xmlns="http://www.w3.org/2000/svg" xmlns:xlink="http://www.w3.org/1999/xlink" x="0px"
	 y="0px" width="1000px" height="1000px" viewBox="0 0 1000 1000" enable-background="new 0 0 1000 1000" xml:space="preserve">
<g id="Public_Telephone_1_">
	<g>
		<path fill="#D01C1F" d="M873.333,1000H126.667C57.778,1000,0,942.223,0,873.333V126.667C0,57.778,57.778,0,126.667,0h746.667
			C942.223,0,1000,57.778,1000,126.667v746.667C1000,942.223,942.223,1000,873.333,1000z"/>
	</g>
	<g id="TS1qlh_5_">
		<g>
			<g>
				<path fill="#FFFFFF" d="M835.556,695.556L835.556,695.556c-8.889,66.667-57.778,88.889-111.111,106.667
					c-35.556,11.11-68.889,2.222-102.222-6.667c-148.89-44.444-255.556-142.223-337.778-266.667
					C251.111,480,233.333,422.223,220,364.444c0-2.222-2.222-4.444-2.222-6.667c0-13.333,0-24.444,0-37.778
					c6.667-31.111,17.778-57.778,35.556-84.444c22.222-35.556,57.778-42.222,95.555-44.444c6.667,0,15.556,6.667,20,13.333
					c15.556,24.444,26.667,48.889,42.223,73.333c8.889,13.333,17.777,26.667,24.444,40c11.111,17.778,11.111,26.667-4.444,42.222
					S400,386.667,382.223,402.222c-24.445,20-24.445,26.667-8.89,55.555C420,542.223,484.444,608.889,571.111,653.333
					c24.444,13.334,33.333,13.334,51.111-6.666c13.333-15.556,26.666-33.334,42.222-48.89C682.223,580,691.111,580,711.111,593.333
					c33.333,20,66.666,37.778,100,57.778c8.889,4.444,17.777,11.111,24.444,17.777C835.556,677.777,835.556,686.667,835.556,695.556
					z"/>
			</g>
		</g>
	</g>
</g>
</svg>
