<?xml version="1.0" encoding="utf-8"?>
<!-- Generator: Adobe Illustrator 16.0.0, SVG Export Plug-In . SVG Version: 6.00 Build 0)  -->
<!DOCTYPE svg PUBLIC "-//W3C//DTD SVG 1.1//EN" "http://www.w3.org/Graphics/SVG/1.1/DTD/svg11.dtd">
<svg version="1.1" id="Toilet" xmlns="http://www.w3.org/2000/svg" xmlns:xlink="http://www.w3.org/1999/xlink" x="0px" y="0px"
	 width="1000px" height="1000px" viewBox="0 0 1000 1000" enable-background="new 0 0 1000 1000" xml:space="preserve">
<g id="Toilet_1_">
	<g>
		<path fill="#D01C1F" d="M873.333,1000H126.667C57.778,1000,0,942.223,0,873.333V126.667C0,57.778,57.778,0,126.667,0h746.667
			C942.223,0,1000,57.778,1000,126.667v746.667C1000,942.223,942.223,1000,873.333,1000z"/>
	</g>
	<g>
		<g>
			<path fill="#FFFFFF" d="M495.556,148.889c0,37.778-2.223,75.556-2.223,113.333c0,184.445,0,368.889,0,553.333
				c0,8.889,0,20,0,31.111c-13.333,0-26.666,0-42.222,0c0-6.667-2.223-11.111-2.223-17.778c0-220,0-442.222,0-662.222
				c0-6.667,0-13.333,2.223-20C464.444,148.889,480,148.889,495.556,148.889z"/>
		</g>
		<g>
			<path fill="#FFFFFF" d="M733.333,148.889c24.444,11.111,48.89,24.445,48.89,57.778c2.222,33.333-17.778,62.222-48.89,68.889
				c-33.333,6.667-62.222-11.111-71.11-42.222c-8.89-33.333,4.444-64.445,37.777-77.778c4.444-2.222,8.889-4.444,11.111-6.667
				C720,148.889,726.667,148.889,733.333,148.889z"/>
		</g>
		<g>
			<path fill="#FFFFFF" d="M255.556,148.889c26.667,11.111,48.889,26.667,51.111,60c2.222,31.111-20,60-48.889,64.445
				c-31.111,4.444-62.222-11.111-71.111-40c-13.333-28.889,0-62.222,28.889-75.556c6.667-2.222,11.111-4.444,17.778-6.667
				C240,148.889,248.889,148.889,255.556,148.889z"/>
		</g>
		<g>
			<path fill="#FFFFFF" d="M651.111,633.333c-22.223,0-42.223,0-64.444,0C613.333,540,637.777,448.889,662.223,360
				c-4.445-2.222-6.667-2.222-11.111-4.444c-2.223,8.889-6.667,17.778-8.889,24.444c-13.334,46.667-26.667,91.111-40,137.777
				c-4.445,17.778-13.334,33.334-35.556,28.89c-22.223-6.667-20-24.444-15.556-42.223c15.556-53.333,31.111-106.667,46.666-162.222
				c8.89-33.333,31.111-51.111,64.445-51.111c40-2.223,80-2.223,120,0c33.333,0,55.555,20,64.444,51.111
				c15.556,55.556,31.11,111.111,46.666,166.667c4.444,17.778,2.223,31.111-15.556,35.556C860,548.889,848.889,540,844.444,522.223
				c-13.333-48.89-26.667-95.556-40-144.445c-2.222-8.889-6.667-17.778-8.889-26.667c-4.444,2.222-6.667,2.222-11.111,4.444
				c24.444,91.111,51.111,180,75.556,273.333c-22.223,0-42.223,0-64.444,0c0,51.111,0,100,0,151.111c0,11.111,0,24.444,0,35.556
				c0,22.222-11.111,33.333-31.111,33.333c-22.222,0-33.333-13.333-33.333-35.556c0-48.889,0-97.777,0-146.666
				c0-11.111,0-24.444,0-35.556c-4.444,0-6.667,0-11.111,0c-2.223,8.889-2.223,17.777-2.223,26.666c0,51.111,0,102.223,0,155.556
				c0,22.223-11.11,35.556-31.11,35.556c-22.223,0-33.334-13.333-33.334-35.556c0-8.889,0-17.777,0-26.666
				C651.111,737.777,651.111,686.667,651.111,633.333z"/>
		</g>
		<g>
			<path fill="#FFFFFF" d="M157.778,382.222c0,42.222,0,86.667,0,128.889c0,8.889,2.222,17.777,0,24.444
				c-6.667,11.111-13.333,24.444-24.444,26.667c-15.556,4.444-26.667-8.89-28.889-24.445c0-62.222-2.222-124.444,0-186.666
				c2.222-35.556,28.889-57.778,66.667-57.778c48.889,0,95.555,0,144.444,0c40,0,66.667,26.667,66.667,66.667
				c0,57.778,0,113.333,0,171.111c0,17.777-2.223,33.333-24.445,33.333c-22.222,0-26.666-13.333-26.666-33.333
				c0-42.223,0-84.444,0-124.445c0-8.889-2.223-15.555-2.223-24.444c-2.222,0-6.666,0-8.889,0
				c-2.223,8.889-4.444,17.778-4.444,28.889c0,131.111,0,262.222,0,393.333c0,11.111,2.222,24.444-4.444,31.111
				c-8.889,8.889-22.223,15.556-33.333,15.556c-20-2.223-26.667-17.778-26.667-37.778c0-73.333,0-146.666,0-220
				c0-8.889,0-17.777-2.223-28.889c-2.222,0-6.667,0-8.889,0c-2.222,8.889-4.444,17.778-4.444,26.667c0,75.556,0,151.111,0,226.666
				c0,20-8.889,33.334-26.667,33.334c-11.111,0-24.445-8.889-33.333-17.778c-4.444-6.666-2.222-20-2.222-28.889
				c0-131.111,0-262.222,0-393.333c0-8.889-2.222-17.778-4.444-28.889C164.444,382.222,160,382.222,157.778,382.222z"/>
		</g>
	</g>
</g>
</svg>
