<?xml version="1.0" encoding="utf-8"?>
<!-- Generator: Adobe Illustrator 16.0.0, SVG Export Plug-In . SVG Version: 6.00 Build 0)  -->
<!DOCTYPE svg PUBLIC "-//W3C//DTD SVG 1.1//EN" "http://www.w3.org/Graphics/SVG/1.1/DTD/svg11.dtd">
<svg version="1.1" id="Layer_1" xmlns="http://www.w3.org/2000/svg" xmlns:xlink="http://www.w3.org/1999/xlink" x="0px" y="0px"
	 width="677px" height="803.07px" viewBox="0 0 677 803.07" enable-background="new 0 0 677 803.07" xml:space="preserve">
<g id="background">
</g>
<g id="original" display="none">
	
		<image display="inline" overflow="visible" enable-background="new    " width="566" height="706" xlink:href="8C9379BD.png"  transform="matrix(0.9999 0 0 0.9799 93 33.6709)">
	</image>
</g>
<g id="etc">
	<polygon fill="#CCBB9A" stroke="#A58C65" stroke-miterlimit="10" points="616.667,543.623 616.667,514.333 583.583,514.25 
		583.583,543.361 	"/>
	<path fill="#DDD1BA" stroke="#3F3628" stroke-miterlimit="10" d="M616,543.667l-32.417-0.307v-29.11l-83.584-0.748L500,168
		l-112-0.25V106h-8.375V81.25h10.5V45l-30.458-0.333v-5.333L225.666,39c0,0,1.667,48.333-40.667,88.667s-49,51-56,101
		c-0.333,35.333-0.333,42-0.333,42L121,271l0.333,327.667l3,0.164v1.502L119,604v5.668L114.667,614l3,5.334l-3,4.666l2,4.668
		l-2,5.666l4.833,5L117.667,645l4,3.334l0.333,6.334l6,2.666V664h7v6.334h8l2.667,5h5.667l4.333,4.334l5.333-2l5,3.666l4.667-3
		l5.667,3L181,677l5.667,1.668l3.667-5.668l2.667,0.334v3l314.606,35.553l-1.772,12.281l23.25,1.004l0.069-11.102L603,722.667
		l19.333-179H616z"/>
	<polygon fill="#CCBB9A" stroke="#A58C65" stroke-miterlimit="10" points="542.25,66.75 542.25,39.333 512,39.333 512,44.389 
		512,66.75 	"/>
	<path fill="#CCBB9A" stroke="#A58C65" stroke-miterlimit="10" d="M635,396.668C635,378,619,368,619,368h5.667v-89.333h-6
		c0,0,16.333-6,16.333-27.667s-14.667-32-14.667-32h4.334v-97.667h-18c0,0,13.999-14.333,13.999-33.333s-29.667-54-64-39.667
		c-9.99,4.261-14.333,8.333-14.333,8.333V39.334h-0.083V66.75H512l0,0V45.334h-93.334v-6h-32V45h3.459v36.25h-10.5V106H388v61.75
		L500,168l-0.001,345.501l83.584,0.748h40.75v-87.582h-6C618.333,426.667,635,415.333,635,396.668z"/>
	<circle fill="#CCBB9A" stroke="#A58C65" stroke-miterlimit="10" cx="495.712" cy="632.75" r="26"/>
	<rect x="474.334" y="316.667" fill="#CCBB9A" stroke="#A58C65" stroke-miterlimit="10" width="25.666" height="49.333"/>
	<line fill="none" stroke="#A58C65" stroke-miterlimit="10" x1="500" y1="316.667" x2="500" y2="366"/>
	<rect x="474.334" y="366" fill="#CCBB9A" stroke="#A58C65" stroke-miterlimit="10" width="25.666" height="35.535"/>
	<line fill="none" stroke="#A58C65" stroke-miterlimit="10" x1="500" y1="366" x2="500" y2="401.535"/>
	<polygon fill="#CCBB9A" stroke="#A58C65" stroke-miterlimit="10" points="390.125,45 359.667,44.667 359.667,81.25 379.625,81.25 
		379.625,81.25 390.125,81.25 	"/>
	<polygon fill="#CCBB9A" stroke="#A58C65" stroke-miterlimit="10" points="379.625,106 351.5,106 351.5,167.75 388,167.75 388,106 	
		"/>
	<ellipse fill="#CCBB9A" stroke="#A58C65" stroke-miterlimit="10" cx="386.371" cy="426.5" rx="32.629" ry="20.833"/>
	<ellipse fill="#CCBB9A" stroke="#A58C65" stroke-miterlimit="10" cx="386.371" cy="279.25" rx="32.629" ry="20.833"/>
	<polygon fill="#CCBB9A" stroke="#A58C65" stroke-miterlimit="10" points="259.667,128.177 285.333,145 303.75,108.667 
		274.667,99.25 	"/>
	<path fill="#CCBB9A" stroke="#A58C65" stroke-miterlimit="10" d="M179.5,425.833h30.667c0,0-0.167,53.5-15.333,53.5
		S179.5,425.833,179.5,425.833z"/>
	<polygon fill="#CCBB9A" stroke="#A58C65" stroke-miterlimit="10" points="143,487.5 121.247,487.531 121.247,513.667 143,513.667 	
		"/>
	<polygon fill="#CCBB9A" stroke="#A58C65" stroke-miterlimit="10" points="121.247,513.667 121.333,540 143,540 143,513.667 	"/>
	<line fill="none" stroke="#A58C65" stroke-miterlimit="10" x1="228.661" y1="610.085" x2="257.145" y2="578.273"/>
	<path fill="#CCBB9A" stroke="#A58C65" stroke-miterlimit="10" d="M247.27,563.593c-17.238-17.967-39.047-25.014-48.712-15.74
		c-9.665,9.274-3.526,31.355,13.712,49.322c5.082,5.297,10.561,9.635,16.01,12.896l29.843-32.359
		C255.262,572.923,251.621,568.128,247.27,563.593z"/>
	<path fill="#CCBB9A" stroke="#A58C65" stroke-miterlimit="10" d="M228.366,610.197c13.085,7.709,25.951,9.207,32.721,2.623
		c7.18-6.982,5.474-21.064-3.098-35.188L228.366,610.197z"/>
	<path fill="#CCBB9A" stroke="#A58C65" stroke-miterlimit="10" d="M193.014,270.819c-6.809,0-12.578,19.615-14.579,46.749
		l28.278-9.426C204.19,286.01,199.005,270.819,193.014,270.819z"/>
	<path fill="#CCBB9A" stroke="#A58C65" stroke-miterlimit="10" d="M179.515,339.396c0.315,36.189,7.051,65.104,15.318,65.104
		c8.468,0,15.333-30.333,15.333-67.75c0-2.349-0.033-4.663-0.086-6.95L179.515,339.396z"/>
	<path fill="#CCBB9A" stroke="#A58C65" stroke-miterlimit="10" d="M243.25,151.819l-22.93,22.5l3.171,3.615
		c6.359,1.696,11.195,7.092,12.059,13.75l3.531,4.026l27.1-23.892L243.25,151.819z"/>
	<path fill="#CCBB9A" stroke="#A58C65" stroke-miterlimit="10" d="M219.246,210.276c-8.799,0-15.963-6.91-16.414-15.597
		c-1.449-1.174-2.301-1.861-2.301-1.861s-17.652,26-22.35,59h30.5c0,0,5-21.891,16.5-38.695c-1.178-0.996-2.386-2.012-3.604-3.031
		C220.813,210.201,220.04,210.276,219.246,210.276z"/>
</g>
<g id="rooms">
	<polygon id="r204" fill="#AA9774" stroke="#725D41" stroke-miterlimit="10" points="347.588,645.576 330.193,643.828 
		316.879,642.49 312.167,690.058 325.01,691.509 343.217,693.568 347.822,645.599 	"/>
	<polygon id="r205" fill="#AA9774" stroke="#725D41" stroke-miterlimit="10" points="378.436,648.675 363.036,647.128 
		347.822,645.599 343.217,693.568 343.84,693.638 358.689,695.316 373.857,697.031 378.817,648.714 	"/>
	<polygon id="_x32_06" fill="#AA9774" stroke="#725D41" stroke-miterlimit="10" points="378.817,648.714 373.857,697.031 
		374.554,697.109 395.538,699.479 403.169,700.343 407.416,651.587 	"/>
	<polygon id="r207" fill="#AA9774" stroke="#725D41" stroke-miterlimit="10" points="416.843,652.535 407.416,651.587 
		403.169,700.343 434.026,703.83 438.97,654.759 	"/>
	<path id="r220a" fill="#AA9774" stroke="#725D41" stroke-miterlimit="10" d="M222.256,460.5h45.747l0.001-17.5h-45.75
		C222.255,449.066,222.255,454.925,222.256,460.5z"/>
	<path id="r220b" fill="#AA9774" stroke="#725D41" stroke-miterlimit="10" d="M222.254,443h45.75v-15.5h-45.751
		C222.253,432.787,222.253,437.966,222.254,443z"/>
	<path id="r221" fill="#AA9774" stroke="#725D41" stroke-miterlimit="10" d="M222.252,427.5h45.751l0.001-32H222.25
		C222.25,406.389,222.251,417.15,222.252,427.5z"/>
	<path id="r222a" fill="#AA9774" stroke="#725D41" stroke-miterlimit="10" d="M222.25,395.5h45.755V381h-45.757
		C222.249,385.841,222.25,390.683,222.25,395.5z"/>
	<path id="r223" fill="#AA9774" stroke="#725D41" stroke-miterlimit="10" d="M222.248,367.5h45.758l0.001-30h-45.761
		C222.247,347.24,222.248,357.317,222.248,367.5z"/>
	<path id="r226-228" fill="#AA9774" stroke="#725D41" stroke-miterlimit="10" d="M303.569,216.141l-34.136-32.063
		c-1.597,1.585-17.2,15.06-28.52,28.034c-9.614,11.019-18.535,23.906-18.65,33.895c-0.007,0.663-0.012,12.97-0.014,31.994h45.762
		l0.002-29.994L303.569,216.141z"/>
	<path id="r225" fill="#AA9774" stroke="#725D41" stroke-miterlimit="10" d="M268.011,278h-45.762
		c-0.001,8.52-0.002,18.395-0.002,29.167h45.763L268.011,278z"/>
	<path id="r224" fill="#AA9774" stroke="#725D41" stroke-miterlimit="10" d="M222.247,307.167c0,9.509,0,19.715,0,30.333h45.761
		l0.001-30v-0.333H222.247z"/>
	<path id="r222b" fill="#AA9774" stroke="#725D41" stroke-miterlimit="10" d="M222.249,381h45.757v-13.5h-45.758
		C222.249,371.987,222.249,376.493,222.249,381z"/>
	<path id="r218-219" fill="#AA9774" stroke="#725D41" stroke-miterlimit="10" d="M222.256,460.5
		c0.001,5.828,0.001,11.361,0.002,16.5h-0.001c0.002,6.494,0.002,12.38,0.003,17.5c0.002,13.546,0.003,21.755,0.003,21.755
		s10.112,6.244,16.862,10.244C246.625,520.25,268,502,268,502v-7.5l0.001-17.5h0.001l0.001-16.5H222.256z"/>
	<path id="r229" fill="#AA9774" stroke="#725D41" stroke-miterlimit="10" d="M330.208,142L330.208,142L330.208,142l-22.126-13.341
		c-2.725,5.871-5.99,12.278-9.869,18.915l24.449,20.093l28.839,0.083V142H330.208z"/>
	<path id="r230" fill="#AA9774" stroke="#725D41" stroke-miterlimit="10" d="M351.5,142v-5.75v-37h-32.25
		c0,0-3.224,12.193-10.944,28.927c-0.07,0.159-0.148,0.322-0.225,0.482L330.208,142H351.5z"/>
	<path id="sports-mall-global" fill="#AA9774" stroke="#725D41" stroke-miterlimit="10" d="M474.334,316.667H500L500.125,243h0.125
		l-0.083-24.904v-0.002L500,168l-148.5-0.25l-28.839-0.083l-24.449-20.093c-7.321,12.525-16.782,24.591-28.779,36.503l34.136,32.063
		l-35.556,31.865L268.007,353h206.327V316.667L474.334,316.667z M386.371,300.083c-18.021,0-32.629-9.327-32.629-20.833
		s14.605-20.833,32.629-20.833c18.021,0,32.629,9.327,32.629,20.833S404.392,300.083,386.371,300.083z"/>
	<polygon id="r244" fill="#AA9774" stroke="#725D41" stroke-miterlimit="10" points="166.667,367.333 166.667,342 144,342 
		144,347.667 121.078,347.667 121.098,367.5 166.667,367.5 	"/>
	<polygon id="r246a" fill="#AA9774" stroke="#725D41" stroke-miterlimit="10" points="166.667,398 166.667,396.5 121.127,396.5 
		121.144,412.5 166.667,412.5 	"/>
	<polygon id="r246b" fill="#AA9774" stroke="#725D41" stroke-miterlimit="10" points="166.667,412.5 121.144,412.5 121.159,427.5 
		166.667,427.5 	"/>
	<polygon id="r247" fill="#AA9774" stroke="#725D41" stroke-miterlimit="10" points="166.667,457.333 166.667,428.333 
		166.667,427.5 121.159,427.5 121.189,457.5 166.667,457.5 	"/>
	<polygon id="r248" fill="#AA9774" stroke="#725D41" stroke-miterlimit="10" points="166.667,487.439 166.667,457.5 121.189,457.5 
		121.247,487.531 	"/>
	<polygon id="r249-251" fill="#AA9774" stroke="#725D41" stroke-miterlimit="10" points="143,494 143,500.333 143,531.5 143,535.75 
		143,540 141.958,540 121.333,540 121.333,598.667 152.879,600.402 169.5,584.88 169.5,573.662 169.5,548.515 169.5,540 169.75,494 
			"/>
	<polygon id="r245" fill="#AA9774" stroke="#725D41" stroke-miterlimit="10" points="166.667,367.5 121.098,367.5 121.127,396.5 
		166.667,396.5 	"/>
	<path id="r238" fill="#AA9774" stroke="#725D41" stroke-miterlimit="10" d="M177.699,208.693
		c3.382-8.306,7.574-16.214,12.635-21.688c-14-9.333-19-13.333-19-13.333l-2.667,3l-18.699-11.753c0,0-7.968,9.331-13.907,27.9
		l41.622,15.915C177.688,208.72,177.693,208.707,177.699,208.693z"/>
	<path id="r239" fill="#AA9774" stroke="#725D41" stroke-miterlimit="10" d="M177.683,208.734l-41.622-15.915
		c-0.051,0.15-4.395,15.514-5.91,27.986l41.372,6.095C173.148,221.168,175.195,214.848,177.683,208.734z"/>
	<path id="r240" fill="#AA9774" stroke="#725D41" stroke-miterlimit="10" d="M171.522,226.9l-41.372-6.095
		c-0.542,4.399-1.15,6.631-1.152,7.966c-0.008,5.396-0.174,19.229-0.174,19.229l37.437,0.88
		C166.262,248.88,171.219,227.844,171.522,226.9z"/>
	<path id="r241" fill="#AA9774" stroke="#725D41" stroke-miterlimit="10" d="M166.262,248.88L128.825,248
		c-0.089,11.083-0.195,22.668-0.195,22.668L121,271v6h45.667L166.262,248.88z"/>
	<polygon id="r242" fill="#AA9774" stroke="#725D41" stroke-miterlimit="10" points="166.667,277 121,277 121.047,306.516 
		166.667,306.5 	"/>
	<polygon id="r243a" fill="#AA9774" stroke="#725D41" stroke-miterlimit="10" points="166.667,309.339 166.667,306.5 
		121.031,306.516 121.078,322.5 166.667,322.5 	"/>
	<rect id="r243b" x="121.078" y="322.5" fill="#AA9774" stroke="#725D41" stroke-miterlimit="10" width="45.589" height="16.172"/>
	<path id="r237" fill="#AA9774" stroke="#725D41" stroke-miterlimit="10" d="M155.941,157.367l36.726,25.306
		c0,0,8.826-7.306,20.35-18.385c0.199-0.191,0.405-0.393,0.605-0.586l-33.963-30.917
		C179.28,133.134,164.775,147.614,155.941,157.367z"/>
	<path id="r236" fill="#AA9774" stroke="#725D41" stroke-miterlimit="10" d="M179.658,132.783l33.963,30.918
		c6.517-6.289,13.84-13.733,20.911-21.742c0.021-0.024,0.043-0.049,0.064-0.074l-35.513-29.846
		c-0.003,0.004-3.983,5.39-9.049,10.581C185.858,126.899,180.264,132.222,179.658,132.783z"/>
	<path id="r235" fill="#AA9774" stroke="#725D41" stroke-miterlimit="10" d="M199.084,112.04l35.513,29.846
		c7.414-8.403,14.535-17.406,20.115-26.295c0.091-0.146,0.178-0.291,0.269-0.437l-42.715-24.053
		c-0.263,0.581-2.787,5.477-6.018,10.657C203.878,105.557,200.974,109.503,199.084,112.04z"/>
	<path id="r234" fill="#AA9774" stroke="#725D41" stroke-miterlimit="10" d="M225.666,39c0,0,0.25,17.5-7.69,38.769
		c-1.605,4.299-3.672,8.83-5.711,13.332l42.715,24.053c3.339-5.366,6.116-10.685,8.042-15.8c1.821-4.835,2.883-9.487,2.963-13.825
		l-0.9-46.196L225.666,39z"/>
	<path id="r233" fill="#AA9774" stroke="#725D41" stroke-miterlimit="10" d="M296.996,39.333h-31.911l0.9,46.196
		c0-0.004,0-0.008,0-0.012c0.003-0.17,0.015-0.343,0.015-0.512c6.316,0,17.985,0,30.996,0c2.376,0,4.8,0,7.241,0l0.677-45.672
		H296.996z"/>
	<path id="r231-232" fill="#AA9774" stroke="#725D41" stroke-miterlimit="10" d="M327.663,39.333h-22.749l-0.677,45.672
		c7.871,0,15.95,0,23.426,0c17.707,0,32.004,0,32.004,0V39.333H327.663z"/>
	<path id="r217" fill="#AA9774" stroke="#725D41" stroke-miterlimit="10" d="M277,568.337c0,0,2.333,3.107,7,16.334
		c3.939,0.482,9.986,1.154,17.492,1.957l4.678-44.168L277,568.337z"/>
	<path id="r217b" fill="#AA9774" stroke="#725D41" stroke-miterlimit="10" d="M306.5,542.167l-0.33,0.293l-4.678,44.168
		c5.344,0.57,11.434,1.209,18.045,1.895l4.631-44.488L306.5,542.167z"/>
	<path id="r217a_1_" fill="#AA9774" stroke="#725D41" stroke-miterlimit="10" d="M328.822,544.521l-4.654-0.488l-4.631,44.488
		c1.758,0.184,3.544,0.365,5.373,0.555c4.572,0.471,9.351,0.957,14.268,1.457l4.39-44.455L328.822,544.521z"/>
	<path id="r215b" fill="#AA9774" stroke="#725D41" stroke-miterlimit="10" d="M358.367,547.636l-14.803-1.561l-4.39,44.455
		c4.896,0.496,9.936,1.004,15.042,1.518l4.354-44.391L358.367,547.636z"/>
	<path id="r215a" fill="#AA9774" stroke="#725D41" stroke-miterlimit="10" d="M358.574,547.658l-4.354,44.391
		c0.179,0.021,0.35,0.035,0.523,0.053c4.729,0.479,9.521,0.955,14.324,1.438l3.446-44.406L358.574,547.658z"/>
	<path id="r214a" fill="#AA9774" stroke="#725D41" stroke-miterlimit="10" d="M388.7,550.609l-0.051,0.221l-15.348-1.617
		l-0.789-0.084l-3.446,44.408c0.004,0,0.007,0,0.011,0c4.826,0.479,10.006,1.016,15.378,1.576l4.264-44.502L388.7,550.609z"/>
	<path id="r213_1_" fill="#AA9774" stroke="#725D41" stroke-miterlimit="10" d="M459.5,525.168H447l-4,30.866l-14.101-1.446
		l-1.174,45.175c15.269,1.659,28.767,3.122,36.774,3.903L459.5,525.168z"/>
	<polygon id="r253" fill="#AA9774" stroke="#725D41" stroke-miterlimit="10" points="294,595.113 288,632.75 326.726,636.619 
		331.611,599.521 	"/>
	<polygon id="r254" fill="#AA9774" stroke="#725D41" stroke-miterlimit="10" points="331.611,599.521 326.726,636.619 
		397.119,643.652 401.734,607.734 	"/>
	<polygon id="r255" fill="#AA9774" stroke="#725D41" stroke-miterlimit="10" points="459.5,614.5 401.734,607.734 397.119,643.652 
		455.667,649.5 	"/>
	<path id="r201a" fill="#AA9774" stroke="#725D41" stroke-miterlimit="10" d="M223.541,632.91C202.5,626.25,188,606,188,606
		s-4,2.5-10.25,6.75c9.998,9.354,14.79,20.447,16.866,30.744l-0.03,0.029c0.997,8.049,1.717,16.512,0.724,24.666
		c-0.008,0.059-0.015,0.117-0.023,0.178c-0.041,0.326-0.091,0.648-0.138,0.975c-0.083,0.563-0.166,1.092-0.251,1.6
		c-0.313,1.811-0.713,3.604-1.231,5.365v0.361l28.769,3.25l5.678-46.453C225.476,633.146,223.542,632.91,223.541,632.91z"/>
	<path id="r201b" fill="#AA9774" stroke="#725D41" stroke-miterlimit="10" d="M242.704,635.232c0,0-8.923-1.082-14.591-1.771
		l-5.678,46.455l15.812,1.787l0.209,0.021l4.759-46.445L242.704,635.232z"/>
	<polygon id="r202" fill="#AA9774" stroke="#725D41" stroke-miterlimit="10" points="264.038,637.265 261.054,636.982 
		243.215,635.281 238.456,681.729 259.124,684.064 	"/>
	<polygon id="r203" fill="#AA9774" stroke="#725D41" stroke-miterlimit="10" points="292.53,639.984 264.038,637.265 
		259.124,684.064 291.503,687.724 291.521,687.726 300.13,688.699 300.146,688.562 307.25,689.25 312.167,641.574 	"/>
	<path id="r252" fill="#AA9774" stroke="#725D41" stroke-miterlimit="10" d="M259.581,578.972c-0.343-0.367-0.691-0.729-1.04-1.086
		l-0.196,0.217c8.272,14.049,9.797,27.943,2.637,34.813c-6.651,6.381-19.056,5.008-31.762-2.313
		c13.853,13.803,31.328,18.658,39.833,10.758C277.918,613.123,273.678,594.146,259.581,578.972z"/>
	<g id="r214-256">
		<path fill="#AA9774" stroke="#725D41" stroke-miterlimit="10" d="M388.732,550.469l-0.017,0.145l-4.264,44.504
			c14.03,1.467,29.384,3.137,43.273,4.646l1.174-45.175L388.732,550.469z"/>
		<path fill="#AA9774" stroke="#725D41" stroke-miterlimit="10" d="M503.667,666.167c0,0-4.5,1.5-9.333,1.5
			c-7.696,0-14-3.666-14-3.666l3.833-7.951c0,0,4.334,2.699,9.5,2.699c4.167,0,10-1.242,10-1.242V666.167z"/>
	</g>
	<path id="r2b1" fill="#AA9774" stroke="#725D41" stroke-miterlimit="10" d="M183.758,251.819c-2.67,2.77-4.32,6.53-4.32,10.681
		c0,5.726,3.131,10.711,7.767,13.366c1.792-3.246,3.752-5.046,5.809-5.046c2.32,0,4.518,2.286,6.488,6.362
		c6.228-1.976,10.742-7.8,10.742-14.682c0-4.151-1.65-7.911-4.319-10.681H183.758z"/>
	<path id="r209-212" fill="#AA9774" stroke="#725D41" stroke-miterlimit="10" d="M569.75,543.251l-1.12,11.846H567h-52.727
		l-4.05,39.059c0.035,0.016,0.07,0.029,0.105,0.047l-0.06,0.58c16.679,5.643,28.688,21.41,28.688,39.994
		c0,13.826-6.646,26.104-16.922,33.807l7.112,45.49l73.85,8.596l19.333-179L569.75,543.251z"/>
	<path id="paragon-men" fill="#AA9774" stroke="#725D41" stroke-miterlimit="10" d="M464.5,603.666c0,0,10.667-8.832,22.833-10.129
		c0.182-0.021,0.352-0.029,0.531-0.047c2.858-0.611,5.828-0.941,8.872-0.941c4.734,0,9.286,0.793,13.538,2.23l3.999-39.686
		L500,554.833c0,0,0-126.178,0-153.298h-25.666V353H268.007L268,502l-28.875,24.5c0,0,24.542,19.002,37.875,41.838
		c5-4.504,29.5-26.17,29.5-26.17l22.322,2.355l59.827,6.309L443,556.034l4-30.866h12.5L464.5,603.666z M386.371,447.333
		c-18.021,0-32.629-9.326-32.629-20.832s14.605-20.834,32.629-20.834c18.021,0,32.629,9.328,32.629,20.834
		S404.392,447.333,386.371,447.333z"/>
	<path id="r208b" fill="#AA9774" stroke="#725D41" stroke-miterlimit="10" d="M496.736,677c-7.61,0-14.743-2.023-20.909-5.545
		c-2.272-0.963-3.577-1.705-3.577-1.705l-4,37.75l40.041,4.584l4.568-35.311l-1.991-2.205C506.449,676.138,501.694,677,496.736,677z
		"/>
	<path id="r208a" fill="#AA9774" stroke="#725D41" stroke-miterlimit="10" d="M459.72,656.845l-20.75-2.086l-4.94,49.07l29.645,3.35
		l3.577-41.041C464.039,663.74,461.413,660.759,459.72,656.845z"/>
	<circle id="r2b4" fill="#AA9774" stroke="#725D41" stroke-miterlimit="10" cx="219.246" cy="193.819" r="16.458"/>
</g>
<g id="signs" display="none">
	<g id="atm" display="inline">
		<rect id="atm-1" x="382" y="51" fill="#5E513F" width="45" height="45"/>
		<rect id="atm-2" x="570.501" y="478" fill="#5E513F" width="45" height="45"/>
	</g>
	<g id="toilet" display="inline">
		<rect id="toilet-1" x="351.684" y="40" fill="#5E513F" width="45" height="45"/>
		<rect id="toilet-2" x="465.684" y="359.752" fill="#5E513F" width="45" height="45"/>
		<rect id="toilet-3" x="576.684" y="504.5" fill="#5E513F" width="45" height="45"/>
		<rect id="toilet-4" x="105.684" y="477" fill="#5E513F" width="45" height="45"/>
	</g>
	<g id="telephone" display="inline">
		<rect id="telephone-1" x="381" y="23.5" fill="#5E513F" width="45" height="45"/>
		<rect id="telephone-2" x="593.004" y="478" fill="#5E513F" width="45" height="45"/>
		<rect id="telephone-3" x="465.684" y="309" fill="#5E513F" width="45" height="45"/>
	</g>
	<rect id="transfer-service" x="322" y="74" display="inline" fill="#5E513F" width="45" height="45"/>
	<g id="lift" display="inline">
		<rect id="elevator-2" x="107.684" y="504.5" fill="#5E513F" width="45" height="45"/>
		<rect id="elevator-3" x="519.684" y="504.5" fill="#5E513F" width="45" height="45"/>
		<rect id="elevator-4" x="140.684" y="583" fill="#5E513F" width="45" height="45"/>
		<rect id="elevator-5" x="497.181" y="687.492" fill="#5E513F" width="45" height="45"/>
		<rect id="elevator-1" x="346" y="107" fill="#5E513F" width="45" height="45"/>
	</g>
	<g id="escalator" display="inline">
		<rect id="escalator-1" x="270.5" y="81" fill="#5E513F" width="45" height="45"/>
		<rect id="escalator-2" x="248" y="110" fill="#5E513F" width="45" height="45"/>
		<rect id="escalator-3" x="169.5" y="283.5" fill="#5E513F" width="45" height="45"/>
		<rect id="escalator-4" x="173.5" y="322.5" fill="#5E513F" width="45" height="45"/>
		<rect id="escalator-5" x="223.5" y="575" fill="#5E513F" width="45" height="45"/>
		<rect id="escalator-6" x="489.507" y="632" fill="#5E513F" width="45" height="45"/>
		<rect id="escalator-7" x="466.5" y="592" fill="#5E513F" width="45" height="45"/>
		<rect id="escalator-8" x="385" y="403.5" fill="#5E513F" width="45" height="45"/>
		<rect id="escalator-9" x="343" y="404.751" fill="#5E513F" width="45" height="45"/>
		<rect id="escalator-11" x="343" y="256" fill="#5E513F" width="45" height="45"/>
		<rect id="escalator-10" x="383.684" y="255.999" fill="#5E513F" width="45" height="45"/>
	</g>
	<rect id="parking" x="539.625" y="272" display="inline" fill="#5E513F" width="45" height="45"/>
	<g id="entrance" display="inline">
		<rect id="entrance-1" x="356.684" y="72" fill="#5E513F" width="45" height="45"/>
		<rect id="entrance-2" x="478.5" y="331.5" fill="#5E513F" width="45" height="45"/>
		<rect id="entrance-3" x="543.184" y="492" fill="#5E513F" width="45" height="45"/>
	</g>
</g>
</svg>
