<?xml version="1.0" encoding="utf-8"?>
<!-- Generator: Adobe Illustrator 16.0.0, SVG Export Plug-In . SVG Version: 6.00 Build 0)  -->
<!DOCTYPE svg PUBLIC "-//W3C//DTD SVG 1.1//EN" "http://www.w3.org/Graphics/SVG/1.1/DTD/svg11.dtd">
<svg version="1.1" id="Layer_1" xmlns="http://www.w3.org/2000/svg" xmlns:xlink="http://www.w3.org/1999/xlink" x="0px" y="0px"
	 width="677px" height="803.07px" viewBox="0 0 677 803.07" enable-background="new 0 0 677 803.07" xml:space="preserve">
<g id="background">
</g>
<g id="etc">
	<polygon fill="#CCBB9A" stroke="#A58C65" stroke-miterlimit="10" points="412,57.333 412,41.833 379.166,41.833 379.166,45.167 
		378.667,45.167 378.667,57.333 	"/>
	<polygon fill="#CCBB9A" stroke="#A58C65" stroke-miterlimit="10" points="388.334,106 349.667,106 349.667,170 388.25,170 
		388.25,166.375 388.25,170 388.334,170 	"/>
	<path fill="#CCBB9A" stroke="#A58C65" stroke-miterlimit="10" d="M557.665,57.667V47c-10.675,0-16.644,0-19.831,0v10.667H557.665z"
		/>
	<polygon fill="#CCBB9A" stroke="#A58C65" stroke-miterlimit="10" points="163.75,493.333 163.75,250.078 144,250.08 144,272 
		127.5,272 127.5,493.5 163.75,493.5 	"/>
	<line fill="none" stroke="#A58C65" stroke-miterlimit="10" x1="448.5" y1="247.722" x2="445.1" y2="251.5"/>
	<path fill="#CCBB9A" stroke="#A58C65" stroke-miterlimit="10" d="M614.834,124.167V90.833c0,0,0.666-43.833-46.334-43.833
		c-4.062,0-7.656,0-10.835,0v10.667V84l5.333,5.333v0.08l36.236,35.853l0,0l0,0L588.5,136v56.25h2.75l0,0l0,0V206h29.084v-81.833
		H614.834z"/>
	<polygon fill="#DDD1BA" stroke="#3F3628" stroke-miterlimit="10" points="591.25,206 591.25,192.25 588.5,192.25 588.5,136 
		599.234,125.266 562.998,89.414 562.998,170 388.25,170 388.25,190 397,190 417,190 440.25,190 440.25,190 440.25,190 
		440.25,221.25 440.25,224.625 440.25,232.5 445.25,232.5 448.5,235.75 448.5,247.722 445.1,251.5 439.5,251.5 439.5,278.5 
		445.636,278.5 449.25,282.333 449.25,306.375 444.688,311.25 439.5,311.25 439.5,337.5 445.707,337.5 449.25,341.902 
		449.25,365.651 445.297,369.5 440,369.5 440,397.5 445.375,397.5 450,404.9 450,424.5 445.25,429.25 440.5,429.25 440.5,456.5 
		445.25,456.5 445.25,485.833 445.25,503.744 458.2,507.197 462.135,489 496.5,489 496.5,398.5 496.5,249.5 615.001,249.5 
		615.001,220 620.334,220 620.334,206 	"/>
	<polygon fill="#CCBB9A" stroke="#A58C65" stroke-miterlimit="10" points="609,518.5 609,516.166 602.833,516.166 602.833,506.5 
		500.066,506.5 496,511.019 496,516 493.333,516 493.333,525.166 497.833,525.166 497.833,541.333 493.333,541.333 493.167,541.333 
		493.167,551.333 494.003,551.333 494.003,551.333 531.833,551.333 531.833,555.333 551.833,555.333 551.833,551.166 
		572.833,551.166 572.833,547 584.166,547 584.166,556 594.666,556 594.666,568.833 600.833,568.833 600.833,555.666 
		605.223,555.666 606.092,544.833 614.834,544.833 614.834,518.5 	"/>
	<rect x="120" y="505.417" fill="#CCBB9A" stroke="#A58C65" stroke-miterlimit="10" width="25.25" height="27.666"/>
	<rect x="120" y="533.083" fill="#CCBB9A" stroke="#A58C65" stroke-miterlimit="10" width="25.25" height="28.916"/>
	<path fill="#CCBB9A" stroke="#A58C65" stroke-miterlimit="10" d="M598.344,124.66c8.193-7.93,13.229-18.627,13.229-30.41
		c0-24.438-21.618-44.25-48.286-44.25c-1.901,0-3.776,0.101-5.62,0.296c-0.056,0.006-0.109,0.015-0.165,0.021v33.672L598.344,124.66
		z"/>
	<rect x="525.25" y="219.75" fill="#CCBB9A" stroke="#A58C65" stroke-miterlimit="10" width="28" height="29.861"/>
	<rect x="525.25" y="182.75" fill="#CCBB9A" stroke="#A58C65" stroke-miterlimit="10" width="37" height="20"/>
	<path fill="#DDD1BA" stroke="#3F3628" stroke-miterlimit="10" d="M298.484,170l-69.979-50.506
		c-0.002,0.002-0.003,0.004-0.005,0.006c-5.074,6.089-10.528,12.174-15.935,17.953c-0.89,0.951-1.777,1.89-2.662,2.823l2.001,1.819
		l2.896-2.896l13.479,10.521l52.956,41.331l3.927-4.3H294v1V190h50.625h43.625v-20H298.484z"/>
	<polygon fill="#CCBB9A" stroke="#A58C65" stroke-miterlimit="10" points="180,236.833 209.903,236.833 217.035,222.167 
		215,218.833 218.667,218.833 223,213 200.5,196.333 196.833,199.333 197.667,205.625 196.333,222 185.167,221.25 	"/>
	<path fill="#DDD1BA" stroke="#3F3628" stroke-miterlimit="10" d="M228.281,149.719l-40.352,40.352l-10.633-9.215
		c-1.112,1.376-2.397,2.958-3.514,4.315c-1.238,1.505-2.269,2.732-2.615,3.078l-2.917-2l-2.917,4.5l3.083,2.333
		c0,0-10.833,22.579-10.917,23.079c-2-0.417-3.667-0.583-3.667-0.583l-1,5.583h2.917c0,0-1.449,5.767-2.504,11.208l9.217,3.145
		l-0.002,0.01l10.119,3.502l40.176,0.359L226.224,213h34.972l20.041-21.95L228.281,149.719z M218.667,218.833H215l2.035,3.333
		l-7.132,14.667H180l5.167-15.583l11.167,0.75l1.333-16.375l-0.833-6.292l3.667-3L223,213L218.667,218.833z"/>
	<polygon fill="#CCBB9A" stroke="#A58C65" stroke-miterlimit="10" points="496.5,249.5 477,249.5 477,293.337 492.334,293.337 
		492.334,293.337 492.334,323.333 496.5,323.333 	"/>
	<rect x="477" y="332" fill="#CCBB9A" stroke="#A58C65" stroke-miterlimit="10" width="19.5" height="66.5"/>
	<rect x="477" y="398.5" fill="#CCBB9A" stroke="#A58C65" stroke-miterlimit="10" width="19.5" height="90.5"/>
	<rect x="462.135" y="460" fill="#CCBB9A" stroke="#A58C65" stroke-miterlimit="10" width="14.865" height="29"/>
	<path fill="#DDD1BA" stroke="#3F3628" stroke-miterlimit="10" d="M493.333,525.166v-8.6l-35.133-9.369l-12.95-3.453V504h-31.916
		h-30H353h-7.5h-21h-30.167h-23.854L264,497.355v-3.689L163.75,493.5H127.5h-3.75H120v11.918h25.25v27.666V562H120v39h2.438
		l0.229,1.668l-5.333,3l2.667,6l-6.667,4.334l4.667,4.666l-4.667,5.666l2.667,4.668l-2.667,6l4.667,3.332l-2,6.668l6.667,3l-1.667,7
		l5.333,1.666v5.334l7,1.666l1.667,5.666h6l3.333,6H151l3,3.668l5.667-3l4.667,5l5.667-4.668l5.333,4.668l4.333-5.668l6,3.668
		l3.333-5.334l4.223,0.457l2.99-6.623H203v-22.5l4.167-2.334c0,0-5-7.334,0.667-11s12.333-2.166,12.333-2.166
		s21.115,3.969,24.5,16.832c0.782,2.971,0,4.5,0,4.5l3.667,4.5v5l8.181,0.687l0.152-1.687H265l1-5c0,0-9.667-10-9.667-18
		s1.333-10,1.333-10l2.667-33l9.667,1.334l0.333-7.668h-4L264,568.833c0,0,1.667-20.168,8-27.168s15.667-11.998,31.667-10.666
		c11.51,2,15.667,5,15.667,5l3-5.215c0,0,29.167-6.549,65.917,0c3.75,1.881,9.749,7.547,12.083,6.881
		c2-0.666,22.001-15.332,37.334,7.168c11-0.5,42,0,42,0s3-5.668,13.5-5.668c0,0.772,0,1.484,0,2.168h0.166h4.5v-16.168
		L493.333,525.166L493.333,525.166z"/>
	
		<ellipse transform="matrix(0.7348 0.6783 -0.6783 0.7348 455.683 11.1677)" fill="#CCBB9A" stroke="#A58C65" stroke-miterlimit="10" cx="213.56" cy="588.306" rx="41.387" ry="21.661"/>
	<path fill="#CCBB9A" stroke="#A58C65" stroke-miterlimit="10" d="M135.75,596.625L130.375,593l-8.125,3.625l0.188,4.375
		l0.229,1.668l-5.333,3l2.667,6l-6.667,4.334l4.667,4.666l-4.667,5.666l2.667,4.668l-2.667,6l4.667,3.332l-2,6.668l6.667,3l-1.667,7
		l5.333,1.666v5.334l7,1.666l1.667,5.666h6l3.333,6H151l3,3.668l5.667-3l4.667,5l5.667-4.668l5.333,4.668l4.333-5.668l6,3.668
		l3.333-5.334l4.223,0.457l0.027-0.111V663.25H196c0,0,2.75-20.25-11.5-42.684C167.25,595.63,135.75,596.625,135.75,596.625z"/>
	<path fill="#CCBB9A" stroke="#A58C65" stroke-miterlimit="10" d="M130.375,593c0,0,28.625-8.471,35.125-36.984
		c0-11.266,0-62.516,0-62.516H120v11.918h25.25V562H120v39h2.438l-0.188-4.375L130.375,593z"/>
	<polygon fill="#CCBB9A" stroke="#A58C65" stroke-miterlimit="10" points="264,485.833 264,493.666 264,497.355 270.479,504 
		282.75,504 282.75,485.833 	"/>
	<polygon fill="#CCBB9A" stroke="#A58C65" stroke-miterlimit="10" points="294.333,485.833 282.75,485.833 282.75,504 294.333,504 
		302.5,504 302.5,485.833 	"/>
	<rect x="345.5" y="485.833" fill="#CCBB9A" stroke="#A58C65" stroke-miterlimit="10" width="7.5" height="18.166"/>
	<polygon fill="#CCBB9A" stroke="#A58C65" stroke-miterlimit="10" points="294,194 294,190 294,186.75 285.163,186.75 275.805,197 
		294,197 	"/>
	<rect x="388.25" y="190" fill="#CCBB9A" stroke="#A58C65" stroke-miterlimit="10" width="28.75" height="31.25"/>
	<path fill="#CCBB9A" stroke="#A58C65" stroke-miterlimit="10" d="M193.223,676.125l2.99-6.623H203v-22.5l4.167-2.334
		c0,0-5-7.334,0.667-11s12.333-2.166,12.333-2.166s21.115,3.969,24.5,16.832c0.782,2.971,0,4.5,0,4.5l3.667,4.5v5l8.181,0.684
		l-1.789,19.777L193.223,676.125z"/>
	
		<rect id="meeting-room-1" x="302.5" y="485.833" fill="#CCBB9A" stroke="#A58C65" stroke-miterlimit="10" width="22" height="18.166"/>
	
		<rect id="meeting-room-2" x="324.5" y="485.833" fill="#CCBB9A" stroke="#A58C65" stroke-miterlimit="10" width="21" height="18.166"/>
	<rect id="vip-room" x="353" y="485.833" fill="#CCBB9A" stroke="#A58C65" stroke-miterlimit="10" width="30.334" height="18.166"/>
	
		<rect id="meeting-room-3" x="383.334" y="485.833" fill="#CCBB9A" stroke="#A58C65" stroke-miterlimit="10" width="30" height="18.166"/>
	
		<rect id="meeting-room-4" x="413.334" y="485.833" fill="#CCBB9A" stroke="#A58C65" stroke-miterlimit="10" width="31.916" height="18.166"/>
	
		<rect id="meeting-room-6" x="344.625" y="190" fill="#CCBB9A" stroke="#A58C65" stroke-miterlimit="10" width="43.625" height="31.25"/>
	<polygon id="organizer-room-1" fill="#CCBB9A" stroke="#A58C65" stroke-miterlimit="10" points="275.805,197 261.196,213 
		264,221.25 294,221.25 294,197 	"/>
	
		<rect id="meeting-room-5" x="294" y="190" fill="#CCBB9A" stroke="#A58C65" stroke-miterlimit="10" width="50.625" height="31.25"/>
	
		<rect id="dressing-room-2" x="477" y="293.337" fill="#CCBB9A" stroke="#A58C65" stroke-miterlimit="10" width="15.334" height="29.996"/>
	
		<rect id="dressing-room-3" x="462.135" y="430.667" fill="#CCBB9A" stroke="#A58C65" stroke-miterlimit="10" width="14.865" height="29.332"/>
	
		<rect id="organizer-room-2" x="417" y="190" fill="#CCBB9A" stroke="#A58C65" stroke-miterlimit="10" width="23.25" height="31.25"/>
	<path id="foyer" fill="#CCBB9A" stroke="#A58C65" stroke-miterlimit="10" d="M261.196,213h-34.972l-13.468,26.386l-40.176-0.359
		l-10.119-3.502l0.002-0.01l-9.217-3.145c-0.604,3.112-1.079,6.117-1.079,7.876c0,4.491,0,9.199,0,9.833l11.583-0.001V243.5l0,0H245
		l0,0l0,0v250.134l19,0.031v-7.832V369.5V221.25L261.196,213z"/>
</g>
<g id="rooms">
	<path id="paragon-cineplex" fill="#AA9774" stroke="#725D41" stroke-miterlimit="10" d="M468.717,703.625h-3.05v2.043
		l-210.942-22.873l1.941-21.461H265l1-5c0,0-9.667-10-9.667-18s1.333-10,1.333-10l2.667-33l9.667,1.334l0.333-7.668h-4L264,568.833
		c0,0,1.667-20.168,8-27.168s15.667-11.998,31.667-10.666c11.51,2,15.667,5,15.667,5l3-5.215c0,0,29.167-6.549,65.917,0
		c3.75,1.881,9.749,7.547,12.083,6.881c2-0.666,22.001-15.332,37.334,7.168c11-0.5,42,0,42,0s3-5.668,13.5-5.668
		c0,9.668,0,12.168,0,12.168h0.836L468.717,703.625z"/>
	<path id="kidzania" fill="#AA9774" stroke="#725D41" stroke-miterlimit="10" d="M557.665,84V57.667h-19.831V47
		c-0.299,0-1.309,0-0.834,0v-5.167H412v15.5h-33.333V45.167h-60.334v1.5h-22.667V51H282.5v-4h-29.667
		c0,0-1.833,45.493-24.328,72.494L298.484,170h51.183v-64h38.667v64h174.664V89.333L557.665,84z"/>
	<polygon id="paragon-hall-3" fill="#AA9774" stroke="#725D41" stroke-miterlimit="10" points="445.375,397.5 440,397.5 440,397.5 
		440,397.5 440,369.5 264,369.5 264,485.833 294.333,485.833 294.333,485.833 324.5,485.833 324.5,485.833 345.5,485.833 
		345.5,485.833 353,485.833 353,485.833 383.334,485.833 383.334,485.833 413.334,485.833 413.334,485.833 445.25,485.833 
		445.25,456.5 440.5,456.5 440.5,456.5 440.5,456.5 440.5,429.25 440.5,429.25 440.5,429.25 445.25,429.25 450,424.5 450,404.9 	"/>
	<polygon id="major-bowl" fill="#AA9774" stroke="#725D41" stroke-miterlimit="10" points="496.5,333.035 496.5,489 462.135,489 
		458.2,507.197 493.333,516.566 493.333,516 496,516 496,511.019 500.066,506.5 588,506.5 588,333.035 	"/>
	<polygon id="blu-o" fill="#AA9774" stroke="#725D41" stroke-miterlimit="10" points="620.334,369.167 620.334,280.167 
		615.001,280.167 615.001,249.5 496.5,249.5 496.5,333.035 588,333.035 588,333.035 588,333.035 588,506.5 602.833,506.5 
		602.833,516.166 609,516.166 609,518.5 614.834,518.5 620.334,518.5 620.334,428.5 615.168,428.5 615.168,369.167 	"/>
	<polygon id="krungsri" fill="#AA9774" stroke="#725D41" stroke-miterlimit="10" points="614.834,544.833 606.092,544.833 
		605.223,555.666 600.833,555.666 600.833,568.833 594.666,568.833 594.666,556 584.166,556 584.166,547 572.833,547 
		572.833,551.166 551.833,551.166 551.833,555.333 531.833,555.333 531.833,551.333 494.003,551.333 468.717,703.625 469,703.625 
		469,709.125 504.5,712.625 504.5,722 525.75,723 525.75,714.875 598.5,723 617.834,544.833 	"/>
	<polygon id="paragon-hall-2" fill="#AA9774" stroke="#725D41" stroke-miterlimit="10" points="439.5,311.25 439.5,311.25 
		444.688,311.25 449.25,306.375 449.25,282.333 445.636,278.5 439.5,278.5 439.5,278.5 439.5,278.5 439.5,251.5 439.5,251.5 
		439.5,251.5 445.1,251.5 448.5,247.722 448.5,235.75 445.25,232.5 440.25,232.5 440.25,232.5 440.25,232.5 440.25,221.25 
		417,221.25 417,221.25 388.25,221.25 388.25,221.25 344.625,221.25 344.625,221.25 297.75,221.25 294,221.25 264,221.25 264,369.5 
		440,369.5 440,369.5 445.297,369.5 449.25,365.651 449.25,341.902 445.707,337.5 439.5,337.5 439.5,337.5 439.5,337.5 	"/>
	<polygon id="paragon-hall-1" fill="#AA9774" stroke="#725D41" stroke-miterlimit="10" points="163.75,243.5 163.75,250.078 
		163.75,283.5 163.75,493.5 245,493.634 245,243.5 	"/>
	
		<rect id="r5a-1" x="211.903" y="561.932" transform="matrix(0.8039 0.5947 -0.5947 0.8039 379.9023 -22.2211)" fill="#AA9774" stroke="#725D41" stroke-miterlimit="10" width="23.498" height="6.251"/>
	
		<rect id="r5a-5" x="231.889" y="582.995" transform="matrix(0.4999 0.8661 -0.8661 0.4999 629.4862 82.1147)" fill="#AA9774" stroke="#725D41" stroke-miterlimit="10" width="23.505" height="6.249"/>
	
		<rect id="haagen-dazs" x="465.909" y="561.19" transform="matrix(0.9866 0.163 -0.163 0.9866 101.1227 -70.0508)" fill="#AA9774" stroke="#725D41" stroke-miterlimit="10" width="22.998" height="39.93"/>
	<polygon id="starbucks-coffee" fill="#AA9774" stroke="#725D41" stroke-miterlimit="10" points="385.592,696.984 324.693,690.404 
		327.344,665.544 388.248,672.039 	"/>
	<polygon id="mc-cafe" fill="#AA9774" stroke="#725D41" stroke-miterlimit="10" points="475.334,524.447 455.062,519.093 
		458.205,507.197 478.372,512.578 	"/>
	<path id="r5a-6" fill="#AA9774" stroke="#725D41" stroke-miterlimit="10" d="M214.801,139.199l-2.896,2.896l0,0l0,0l-2.001-1.819
		C192.314,158.813,176,173.5,176,173.5l4,4c0,0-1.191,1.486-2.704,3.356l10.633,9.215l40.352-40.352L214.801,139.199z"/>
	
		<rect id="custard-no-4" x="201.796" y="613.668" transform="matrix(0.8831 0.4691 -0.4691 0.8831 314.3041 -28.0978)" fill="#AA9774" stroke="#725D41" stroke-miterlimit="10" width="23.502" height="6.251"/>
</g>
<g id="signs">
	<g id="lift">
		<rect id="elevator-1" x="345.666" y="111.5" fill="#5E513F" width="45" height="45"/>
		<rect id="elevator-2" x="526.666" y="498.5" fill="#5E513F" width="45" height="45"/>
		<rect id="elevator-3" x="492.666" y="701" fill="#5E513F" width="45" height="45"/>
		<rect id="elevator-4" x="143.666" y="587.5" fill="#5E513F" width="45" height="45"/>
		<rect id="elevator-5" x="110" y="524" fill="#5E513F" width="45" height="45"/>
	</g>
	<g id="escalator">
		<rect id="escalator-1" x="171" y="198" fill="#5E513F" width="45" height="45"/>
		<rect id="escalator-2" x="187.666" y="541" fill="#5E513F" width="45" height="45"/>
	</g>
	<g id="toilet">
		<rect id="toilet-1" x="110" y="496" fill="#5E513F" width="45" height="45"/>
		<rect id="toilet-2" x="578.333" y="508" fill="#5E513F" width="45" height="45"/>
	</g>
	<rect id="atm" x="132.5" y="553" fill="#5E513F" width="45" height="45"/>
</g>
</svg>
