<?xml version="1.0" encoding="utf-8"?>
<!-- Generator: Adobe Illustrator 16.0.0, SVG Export Plug-In . SVG Version: 6.00 Build 0)  -->
<!DOCTYPE svg PUBLIC "-//W3C//DTD SVG 1.1//EN" "http://www.w3.org/Graphics/SVG/1.1/DTD/svg11.dtd">
<svg version="1.1" id="Layer_1" xmlns="http://www.w3.org/2000/svg" xmlns:xlink="http://www.w3.org/1999/xlink" x="0px" y="0px"
	 width="677px" height="803.07px" viewBox="0 0 677 803.07" enable-background="new 0 0 677 803.07" xml:space="preserve">
<g id="Background">
</g>
<g id="Original" display="none">
	
		<image display="inline" overflow="visible" enable-background="new    " width="566" height="706" xlink:href="F8B1931B.png"  transform="matrix(0.9997 0 0 0.9809 90.2729 34.001)">
	</image>
</g>
<g id="Etc">
	<polygon fill="#CCBB9A" stroke="#A58C65" stroke-miterlimit="10" points="616.667,544 616.667,514.333 584.25,514.25 584.25,544 	
		"/>
	<path fill="#DDD1BA" stroke="#3F3628" stroke-miterlimit="10" d="M616.667,544H584.25v-29.75l-83.584-0.416L500,168l-112-0.25V106
		h-8.375V81.25h10.5V45H360v-5.667H226.333c0,0,1.667,48.333-40.667,88.667s-49,51-56,101c-0.333,35.333-1,41.667-1,41.667L121,271
		v283.666h7.667v13.668h-7.333v30.334l3.667-0.334v2.334l-5.333,3.666V610l-4.333,4.334l3,5.334l-3,4.666l2,4.666l-2,5.668l4.833,5
		l-1.833,5.666l4,3.334l0.333,6.332l6,2.668v6.666h7v6.334h8l2.667,5H152l4.333,4.332l5.333-2l5,3.668l4.667-3l5.667,3l4.667-4.334
		l5.667,1.666l3.667-5.666l2.667,0.334v3l410,46.332L623,544H616.667z"/>
	<polygon fill="#CCBB9A" stroke="#A58C65" stroke-miterlimit="10" points="542.25,66.75 542.25,39.333 512,39.333 512,44.389 
		512,66.75 	"/>
	<path fill="#CCBB9A" stroke="#A58C65" stroke-miterlimit="10" d="M635,396.668C635,378,619,368,619,368h5.667v-89.333h-6
		c0,0,16.333-6,16.333-27.667s-14.667-32-14.667-32h4.334v-97.667h-18c0,0,13.999-14.333,13.999-33.333s-29.667-54-64-39.667
		c-9.99,4.261-14.333,8.333-14.333,8.333V39.334h-0.083V66.75H512l0,0V45.334h-93.334v-6h-32V45h3.459v36.25h-10.5V106H388v61.75
		L500,168l0.666,345.833l83.584,0.416h40.083v-87.582h-6C618.333,426.667,635,415.333,635,396.668z"/>
	<circle fill="#CCBB9A" stroke="#A58C65" stroke-miterlimit="10" cx="495.712" cy="632.75" r="26"/>
	<rect x="474.334" y="316.667" fill="#CCBB9A" stroke="#A58C65" stroke-miterlimit="10" width="25.666" height="49.333"/>
	<rect x="500" y="316.667" fill="#CCBB9A" stroke="#A58C65" stroke-miterlimit="10" width="0.334" height="49.333"/>
	<rect x="474.334" y="366" fill="#CCBB9A" stroke="#A58C65" stroke-miterlimit="10" width="25.666" height="35.535"/>
	<rect x="500" y="366" fill="#CCBB9A" stroke="#A58C65" stroke-miterlimit="10" width="0.334" height="35.535"/>
	<polygon fill="#CCBB9A" stroke="#A58C65" stroke-miterlimit="10" points="390.125,45 360,45 360,81.25 379.625,81.25 
		379.625,81.25 390.125,81.25 	"/>
	<polygon fill="#CCBB9A" stroke="#A58C65" stroke-miterlimit="10" points="379.625,106 351.5,106 351.5,167.75 388,167.75 388,106 	
		"/>
	<ellipse fill="#CCBB9A" stroke="#A58C65" stroke-miterlimit="10" cx="386.371" cy="426.5" rx="32.629" ry="20.833"/>
	<ellipse fill="#CCBB9A" stroke="#A58C65" stroke-miterlimit="10" cx="386.371" cy="279.25" rx="32.629" ry="20.833"/>
	<path fill="#CCBB9A" stroke="#A58C65" stroke-miterlimit="10" d="M180,250h30.5c0,0,5-21.891,16.5-38.695
		C216,202,202.35,191,202.35,191S184.699,217,180,250z"/>
	<polygon fill="#CCBB9A" stroke="#A58C65" stroke-miterlimit="10" points="222.139,172.5 240.9,193.892 268,170 245.069,150 	"/>
	<polygon fill="#CCBB9A" stroke="#A58C65" stroke-miterlimit="10" points="259.667,128.177 285.333,145 303.75,108.667 
		274.667,99.25 	"/>
	<path fill="#CCBB9A" stroke="#A58C65" stroke-miterlimit="10" d="M179.5,425.833h30.667c0,0-0.167,53.5-15.333,53.5
		S179.5,425.833,179.5,425.833z"/>
	<rect x="121" y="487.5" fill="#CCBB9A" stroke="#A58C65" stroke-miterlimit="10" width="22" height="26.168"/>
	<rect x="121" y="513.667" fill="#CCBB9A" stroke="#A58C65" stroke-miterlimit="10" width="22" height="26.332"/>
	<path fill="#CCBB9A" stroke="#A58C65" stroke-miterlimit="10" d="M242.441,546.835c-25.79-16.238-54.258-17.391-63.587-2.574
		c-9.328,14.816,4.017,39.988,29.807,56.227c4.232,2.664,8.536,4.914,12.815,6.764l39.543-45.025
		C255.962,556.675,249.694,551.402,242.441,546.835z"/>
	<path fill="#CCBB9A" stroke="#A58C65" stroke-miterlimit="10" d="M228.661,610.085l28.484-31.813"/>
	<path fill="#CCBB9A" stroke="#A58C65" stroke-miterlimit="10" d="M257.145,578.273l-28.484,31.813
		c10.64,8.58,23.973,10.113,31.616,2.984C268.629,605.283,267.139,589.998,257.145,578.273z"/>
	<path fill="#CCBB9A" stroke="#A58C65" stroke-miterlimit="10" d="M206,389.5V330h3.052c-3.397-11.562-8.678-19-14.612-19
		c-10.25,0-18.56,22.162-18.56,49.5c0,17.582,3.44,33.012,8.62,41.794V389.5h19v14.199h-18.12c2.68,4.006,5.769,6.301,9.06,6.301
		c6.188,0,11.665-8.083,15.037-20.5H206z"/>
</g>
<g id="Rooms">
	<polygon id="r102" fill="#AA9774" stroke="#725D41" stroke-miterlimit="10" points="261.054,636.982 242.704,635.232 
		239.645,667.126 257.568,668.855 	"/>
	<polygon id="r103" fill="#AA9774" stroke="#725D41" stroke-miterlimit="10" points="261.054,636.982 257.568,668.855 
		257.568,668.855 257.568,668.855 239.645,667.126 238.247,681.705 300.13,688.699 303.44,661.865 303.44,661.865 303.44,661.865 
		306.998,662.21 309.552,641.607 	"/>
	<path id="r101" fill="#AA9774" stroke="#725D41" stroke-miterlimit="10" d="M239.645,667.126l3.059-31.895l-35.355-3.373
		l-12.763,11.664c1.333,10.764,2.173,22.266-0.919,32.781v0.361l44.581,5.039L239.645,667.126L239.645,667.126z"/>
	<polygon id="r105a" fill="#AA9774" stroke="#725D41" stroke-miterlimit="10" points="363.036,647.128 347.588,645.576 
		343.84,693.638 358.689,695.316 	"/>
	<polygon id="r104a" fill="#AA9774" stroke="#725D41" stroke-miterlimit="10" points="316.879,642.49 312.167,690.058 
		325.01,691.509 330.193,643.828 	"/>
	<polygon id="r104b" fill="#AA9774" stroke="#725D41" stroke-miterlimit="10" points="347.588,645.576 330.193,643.828 
		325.01,691.509 343.84,693.638 	"/>
	<polygon id="r105b" fill="#AA9774" stroke="#725D41" stroke-miterlimit="10" points="378.436,648.675 363.036,647.128 
		358.689,695.316 374.554,697.109 	"/>
	<polygon id="r106-107" fill="#AA9774" stroke="#725D41" stroke-miterlimit="10" points="378.436,648.675 374.554,697.109 
		395.538,699.48 398.48,669.271 398.48,669.271 398.48,669.271 415.865,671.378 416.843,652.535 	"/>
	<g id="r108-115">
		<path fill="#AA9774" stroke="#725D41" stroke-miterlimit="10" d="M467.248,666.138c-3.209-2.396-5.835-5.379-7.528-9.293
			l-42.877-4.311l-0.978,18.844l0,0l0,0l-17.386-2.107l-2.941,30.211l68.133,7.697L467.248,666.138z"/>
		<path fill="#AA9774" stroke="#725D41" stroke-miterlimit="10" d="M468.25,707.5l4-37.75c0,0,21,11.988,42.25,2.369
			s22-36.369,22-36.369V622.5l25.75-15.75L570,544h53l-19.333,179L468.25,707.5z"/>
	</g>
	<path id="ladies-boutique" fill="#AA9774" stroke="#725D41" stroke-miterlimit="10" d="M500,316.667V243l-167.5-0.75l-28.75-25.75
		L268,249.25V330h-45.75v15.25H268V502l-28.875,24.5c0,0,24.542,19.002,37.875,41.838c5-4.504,29.5-26.17,29.5-26.17l22.322,2.355
		l0,0l121.345,12.795L449.5,446.333H500c0,0,0-17.678,0-44.798h-25.666v-84.869L500,316.667L500,316.667z M386.371,447.333
		c-18.021,0-32.629-9.326-32.629-20.832s14.607-20.834,32.629-20.834c18.021,0,32.629,9.328,32.629,20.834
		S404.392,447.333,386.371,447.333z M386.371,300.083c-18.021,0-32.629-9.327-32.629-20.833s14.607-20.833,32.629-20.833
		c18.021,0,32.629,9.327,32.629,20.833S404.392,300.083,386.371,300.083z"/>
	<path id="r120" fill="#AA9774" stroke="#725D41" stroke-miterlimit="10" d="M358.367,547.636l-29.544-3.113l-3.913,44.553
		c9.281,0.953,19.405,1.979,29.833,3.025L358.367,547.636z"/>
	<path id="r119" fill="#AA9774" stroke="#725D41" stroke-miterlimit="10" d="M373.305,549.212l-14.938-1.576l-3.625,44.465
		c4.733,0.477,9.527,0.957,14.335,1.438L373.305,549.212z"/>
	<path id="r116-118" fill="#AA9774" stroke="#725D41" stroke-miterlimit="10" d="M450.167,557.316l-76.862-8.104l-4.228,44.324
		c31.276,3.123,63.008,6.229,81.09,7.992V557.316z"/>
	<path id="r157" fill="#AA9774" stroke="#725D41" stroke-miterlimit="10" d="M513.667,555.083v-41.25h-13.001v-67.5H449.5l0.833,111
		l-0.166-0.018v44.213c9.433,0.92,15.167,1.477,15.167,1.477s30.334-31.334,66,6.666c13.666-9,22.333-14,22.333-14l4.667-39.666
		L513.667,555.083z"/>
	<path id="r122" fill="#AA9774" stroke="#725D41" stroke-miterlimit="10" d="M222.25,487v30.5c0,0,10.5,5,17.25,9
		C247,520.25,268,502,268,502v-15H222.25z"/>
	<rect id="r127" x="222.25" y="345.25" fill="#AA9774" stroke="#725D41" stroke-miterlimit="10" width="45.75" height="23"/>
	
		<rect id="r123-126" x="222.25" y="368.25" fill="#AA9774" stroke="#725D41" stroke-miterlimit="10" width="45.75" height="118.75"/>
	<path id="r131" fill="#AA9774" stroke="#725D41" stroke-miterlimit="10" d="M222.25,247.25c-0.053,4.574-0.083,10.887-0.098,18H268
		v-16l5.243-4.803L240.9,213.355C231.286,224.374,222.365,237.261,222.25,247.25z"/>
	<path id="r130" fill="#AA9774" stroke="#725D41" stroke-miterlimit="10" d="M268,265.25h-45.848c-0.01,4.43-0.013,9.172-0.013,14
		H268V265.25z"/>
	<path id="r129" fill="#AA9774" stroke="#725D41" stroke-miterlimit="10" d="M268,279.25h-45.861
		c0.001,10.248,0.021,20.877,0.043,29.75H268V279.25z"/>
	<path id="r128" fill="#AA9774" stroke="#725D41" stroke-miterlimit="10" d="M222.183,309c0.031,12.151,0.067,21,0.067,21H268v-21
		H222.183z"/>
	<path id="r132" fill="#AA9774" stroke="#725D41" stroke-miterlimit="10" d="M264.5,190c0,0-12.28,10.382-23.6,23.355l32.343,31.091
		L303.75,216.5l-34.33-31.178C267.823,186.907,266.187,188.47,264.5,190z"/>
	<path id="r134" fill="#AA9774" stroke="#725D41" stroke-miterlimit="10" d="M351.5,136.25v-37h-32.25
		c0,0-3.224,12.193-10.944,28.927l10.254,8.073H351.5z"/>
	<path id="r133" fill="#AA9774" stroke="#725D41" stroke-miterlimit="10" d="M318.561,136.25L318.561,136.25L318.561,136.25
		l-10.254-8.073c-2.768,6-6.108,12.58-10.094,19.397l24.449,20.093H351.5V136.25H318.561z"/>
	<path id="uniqlo" fill="#AA9774" stroke="#725D41" stroke-miterlimit="10" d="M351.5,167.75l-28.839-0.083l0,0l0,0l-24.449-20.093
		c-7.321,12.525-16.795,25.835-28.792,37.748l63.08,56.928L500.25,243L500,168L351.5,167.75z"/>
	<polygon id="r156" fill="#AA9774" stroke="#725D41" stroke-miterlimit="10" points="163.477,568.25 128.667,568.25 
		128.667,568.333 121.333,568.333 121.333,598.667 152.879,600.402 169.5,584.88 169.5,573.662 	"/>
	<rect id="r150a-b" x="121" y="398" fill="#AA9774" stroke="#725D41" stroke-miterlimit="10" width="45.667" height="30.333"/>
	<rect id="r149" x="121" y="367.333" fill="#AA9774" stroke="#725D41" stroke-miterlimit="10" width="45.667" height="30.667"/>
	<polygon id="r148" fill="#AA9774" stroke="#725D41" stroke-miterlimit="10" points="166.667,342 144,342 144,347.667 121,347.667 
		121,367.333 166.667,367.333 	"/>
	<rect id="r151" x="121" y="428.333" fill="#AA9774" stroke="#725D41" stroke-miterlimit="10" width="45.667" height="29"/>
	<polygon id="r152-153" fill="#AA9774" stroke="#725D41" stroke-miterlimit="10" points="166.667,487.355 166.667,457.333 
		121,457.333 121,487.5 143,487.5 143,500.333 143,526 161,526 165.25,526 169.75,521.5 169.75,490.277 	"/>
	<path id="r145-146" fill="#AA9774" stroke="#725D41" stroke-miterlimit="10" d="M128.63,270.668l0.037-0.001
		C128.667,270.667,128.616,271.833,128.63,270.668L121,271v38.339h45.667v-61.333h-37.444
		C128.767,263.994,128.647,269.197,128.63,270.668z"/>
	<path id="r144" fill="#AA9774" stroke="#725D41" stroke-miterlimit="10" d="M129.607,234.683
		c-0.149,5.116-0.276,9.521-0.385,13.323h37.444v-0.333c0,0,1.402-8.223,4.346-18.954l-40.367-7.436
		C130.115,225.553,129.746,230.016,129.607,234.683z"/>
	<path id="r143" fill="#AA9774" stroke="#725D41" stroke-miterlimit="10" d="M130.646,221.282l40.367,7.436
		c1.703-6.206,3.925-13.248,6.686-20.025l-40.84-14.801C134.25,201.679,131.938,210.867,130.646,221.282z"/>
	<path id="r142" fill="#AA9774" stroke="#725D41" stroke-miterlimit="10" d="M171.333,173.672l-2.667,3l-17.785-11.753
		c0,0-7.848,10.535-14.023,28.973l40.84,14.801c3.382-8.306,7.574-16.214,12.635-21.688
		C176.333,177.672,171.333,173.672,171.333,173.672z"/>
	<rect id="r147" x="121" y="309.339" fill="#AA9774" stroke="#725D41" stroke-miterlimit="10" width="45.667" height="29.333"/>
	<path id="r138" fill="#AA9774" stroke="#725D41" stroke-miterlimit="10" d="M236.643,86.714l-18.667-8.945
		c-1.815,5.314-4.021,10.844-6.678,16.353l43.414,21.468c3.461-5.514,6.333-10.983,8.31-16.236L236.643,86.714L236.643,86.714z"/>
	<path id="r141" fill="#AA9774" stroke="#725D41" stroke-miterlimit="10" d="M156.531,157.791l36.136,24.881
		c0,0,8.826-7.306,20.35-18.385l-34.215-30.19C173.645,139.101,170.163,144.143,156.531,157.791z"/>
	<path id="r140" fill="#AA9774" stroke="#725D41" stroke-miterlimit="10" d="M234.532,141.959l-34.541-28.997
		c-4.447,5.963-9.633,11.531-15.684,16.335c-2.214,1.758-3.937,3.277-5.506,4.8l34.215,30.19
		C219.68,157.879,227.244,150.213,234.532,141.959z"/>
	<path id="r139" fill="#AA9774" stroke="#725D41" stroke-miterlimit="10" d="M211.298,94.122c-3.102,6.433-6.83,12.837-11.307,18.84
		l34.541,28.997c7.437-8.424,14.583-17.454,20.179-26.369L211.298,94.122z"/>
	<path id="r137b" fill="#AA9774" stroke="#725D41" stroke-miterlimit="10" d="M236.643,86.714l26.378,12.64
		c1.822-4.84,2.885-9.496,2.963-13.836l-23.315-10.856L236.643,86.714z"/>
	<path id="r137a" fill="#AA9774" stroke="#725D41" stroke-miterlimit="10" d="M296.996,85.005V39.333h-70.663
		c0,0-1.229,17.562-8.357,38.436l18.667,8.945l6.026-12.053l0,0l0.081-0.161l-0.081,0.161l23.315,10.856
		c0.003-0.17,0.015-0.343,0.015-0.512C272.316,85.005,283.985,85.005,296.996,85.005z"/>
	<path id="r136" fill="#AA9774" stroke="#725D41" stroke-miterlimit="10" d="M327.663,39.333h-30.667v45.672
		c10.038,0,20.874,0,30.667,0V39.333z"/>
	<path id="r135" fill="#AA9774" stroke="#725D41" stroke-miterlimit="10" d="M359.667,39.333h-32.004v45.672
		c17.707,0,32.004,0,32.004,0V39.333z"/>
	<path id="r121" fill="#AA9774" stroke="#725D41" stroke-miterlimit="10" d="M306.5,542.167l-29.5,26.17c0,0,2.333,3.107,7,16.334
		c7.489,0.916,22.542,2.518,40.909,4.402l3.913-44.553L306.5,542.167z"/>
	<path id="r1b-3" fill="#AA9774" stroke="#725D41" stroke-miterlimit="10" d="M180,250c0.114-0.802,0.242-1.596,0.371-2.389
		c-4.105,3.319-6.705,8.136-6.705,13.514c0,10.01,8.954,18.125,20,18.125s20-8.115,20-18.125c0-4.198-1.59-8.052-4.233-11.125H180z"
		/>
	<rect id="r1c-3" x="206" y="330" fill="#AA9774" stroke="#725D41" stroke-miterlimit="10" width="12.449" height="59.5"/>
	<rect id="r1b-1" x="184.5" y="389.5" fill="#AA9774" stroke="#725D41" stroke-miterlimit="10" width="19" height="14.199"/>
	<rect id="_x31_55" x="179.5" y="483" fill="#AA9774" stroke="#725D41" stroke-miterlimit="10" width="30.667" height="21.5"/>
	
		<rect id="r158" x="410.496" y="616.028" transform="matrix(-0.9971 -0.0765 0.0765 -0.9971 800.6805 1287.231)" fill="#AA9774" stroke="#725D41" stroke-miterlimit="10" width="29.001" height="24.501"/>
	<g id="r155">
		<polygon fill="#AA9774" stroke="#725D41" stroke-miterlimit="10" points="143,531.5 143,540 141.958,540 121,540 121,554.666 
			128.667,554.666 128.667,554.75 128.667,568.25 163.477,568.25 169.5,573.662 169.5,548.515 169.5,540 169.5,531.5 		"/>
		
			<ellipse transform="matrix(0.6366 -0.7712 0.7712 0.6366 -405.9509 372.4391)" fill="#AA9774" stroke="#725D41" stroke-miterlimit="10" cx="192.191" cy="616.943" rx="7.251" ry="11.604"/>
	</g>
	<rect id="r1c-2" x="170.655" y="330" fill="#AA9774" stroke="#725D41" stroke-miterlimit="10" width="12.449" height="59.5"/>
	<rect id="r1c-1" x="184.5" y="303.9" fill="#AA9774" stroke="#725D41" stroke-miterlimit="10" width="19" height="14.199"/>
	
		<rect id="fashion-gallery" x="286.5" y="601.529" transform="matrix(0.9957 0.093 -0.093 0.9957 58.3792 -25.3268)" fill="#AA9774" stroke="#725D41" stroke-miterlimit="10" width="29" height="24.679"/>
</g>
<g id="Signs">
	<rect id="smoking-room" x="504.625" y="27" fill="#5E513F" width="45" height="45"/>
	<g id="atm">
		<rect id="atm-1" x="381" y="25" fill="#5E513F" width="45" height="45"/>
		<rect id="atm-2" x="602" y="478" fill="#5E513F" width="45" height="45"/>
	</g>
	<g id="toilet">
		<rect id="toilet-1" x="351.684" y="40" fill="#5E513F" width="45" height="45"/>
		<rect id="toilet-2" x="465.684" y="359.752" fill="#5E513F" width="45" height="45"/>
		<rect id="toilet-3" x="576.684" y="504.5" fill="#5E513F" width="45" height="45"/>
		<rect id="toilet-4" x="107.684" y="477" fill="#5E513F" width="45" height="45"/>
	</g>
	<g id="telephone">
		<rect id="telephone-1" x="382" y="50.5" fill="#5E513F" width="45" height="45"/>
		<rect id="telephone-2" x="576.684" y="478" fill="#5E513F" width="45" height="45"/>
		<rect id="telephone-3" x="465.684" y="309" fill="#5E513F" width="45" height="45"/>
	</g>
	<rect id="transfer-service" x="337" y="76" fill="#5E513F" width="45" height="45"/>
	<g id="lift">
		<rect id="elevator-1" x="347.684" y="104.5" fill="#5E513F" width="45" height="45"/>
		<rect id="elevator-2" x="107.684" y="504.5" fill="#5E513F" width="45" height="45"/>
		<rect id="elevator-3" x="519.684" y="504.5" fill="#5E513F" width="45" height="45"/>
		<rect id="elevator-4" x="138.684" y="585" fill="#5E513F" width="45" height="45"/>
	</g>
	<g id="escalator">
		<rect id="escalator-1" x="270.5" y="81" fill="#5E513F" width="45" height="45"/>
		<rect id="escalator-2" x="248" y="110" fill="#5E513F" width="45" height="45"/>
		<rect id="escalator-3" x="172.5" y="329.5" fill="#5E513F" width="45" height="45"/>
		<rect id="escalator-4" x="171.5" y="403.5" fill="#5E513F" width="45" height="45"/>
		<rect id="escalator-5" x="226.5" y="577" fill="#5E513F" width="45" height="45"/>
		<rect id="escalator-6" x="478.5" y="585" fill="#5E513F" width="45" height="45"/>
		<rect id="escalator-7" x="459.5" y="629" fill="#5E513F" width="45" height="45"/>
		<rect id="escalator-8" x="385" y="403.5" fill="#5E513F" width="45" height="45"/>
		<rect id="escalator-9" x="343" y="404.751" fill="#5E513F" width="45" height="45"/>
		<rect id="escalator-10" x="383" y="256" fill="#5E513F" width="45" height="45"/>
		<rect id="escalator-11" x="343" y="256" fill="#5E513F" width="45" height="45"/>
	</g>
	<g id="currency-exchange">
		<rect id="currency-exchange-1" x="448.5" y="594" fill="#5E513F" width="45" height="45"/>
		<rect id="currency-exchange-2" x="289.829" y="46.625" fill="#5E513F" width="45" height="45"/>
	</g>
	<rect id="parking" x="539.625" y="272" fill="#5E513F" width="45" height="45"/>
	<g id="entrance">
		<rect id="entrance-1" x="356.684" y="72" fill="#5E513F" width="45" height="45"/>
		<rect id="entrance-2" x="478.5" y="331.5" fill="#5E513F" width="45" height="45"/>
		<rect id="entrance-3" x="543.184" y="492" fill="#5E513F" width="45" height="45"/>
	</g>
</g>
</svg>
