<?xml version="1.0" encoding="utf-8"?>
<!-- Generator: Adobe Illustrator 16.0.0, SVG Export Plug-In . SVG Version: 6.00 Build 0)  -->
<!DOCTYPE svg PUBLIC "-//W3C//DTD SVG 1.1//EN" "http://www.w3.org/Graphics/SVG/1.1/DTD/svg11.dtd">
<svg version="1.1" id="Layer_1" xmlns="http://www.w3.org/2000/svg" xmlns:xlink="http://www.w3.org/1999/xlink" x="0px" y="0px"
	 width="677px" height="803.07px" viewBox="0 0 677 803.07" enable-background="new 0 0 677 803.07" xml:space="preserve">
<g id="background">
</g>
<g id="original" display="none">
	
		<image display="inline" overflow="visible" enable-background="new    " width="566" height="706" xlink:href="70756F93.png"  transform="matrix(0.9999 0 0 0.978 89.5361 34.002)">
	</image>
</g>
<g id="etc">
	<polygon fill="#CCBB9A" stroke="#A58C65" stroke-miterlimit="10" points="616.667,543.623 616.667,514.333 583.583,514.25 
		583.583,543.361 	"/>
	<path fill="#DDD1BA" stroke="#3F3628" stroke-miterlimit="10" d="M616,544.349l-32.417-0.307v-29.111l-83.584-0.748l0.001-345.5
		l-112-0.25v-61.75h-8.375v-24.75h10.5v-36.25l-30.458-0.333v-5.333l-134.001-0.333c0,0,1.667,48.333-40.667,88.667s-49,51-56,101
		c-0.333,35.333-0.333,42-0.333,42L121,271.682l0.333,327.667l3,0.164v1.502L119,604.681v5.668l-4.333,4.332l3,5.334l-3,4.666
		l2,4.668l-2,5.666l4.833,5l-1.833,5.666l4,3.334l0.333,6.334l6,2.666v6.666h7v6.334h8l2.667,5h5.667l4.333,4.334l5.333-2l5,3.666
		l4.667-3l5.667,3l4.667-4.334l5.667,1.668l3.667-5.668l2.667,0.334v3l314.606,35.554l-1.772,12.28l23.25,1.005l0.069-11.103
		L603,723.349l19.333-179H616z"/>
	<polygon fill="#CCBB9A" stroke="#A58C65" stroke-miterlimit="10" points="542.25,66.75 542.25,39.333 512,39.333 512,44.389 
		512,66.75 	"/>
	<path fill="#CCBB9A" stroke="#A58C65" stroke-miterlimit="10" d="M635,396.668C635,378,619,368,619,368h5.667v-89.333h-6
		c0,0,16.333-6,16.333-27.667s-14.667-32-14.667-32h4.334v-97.667h-18c0,0,13.999-14.333,13.999-33.333s-29.667-54-64-39.667
		c-9.99,4.261-14.333,8.333-14.333,8.333V39.334h-0.083V66.75H512l0,0V45.334h-93.334v-6h-32V45h3.459v36.25h-10.5V106H388v61.75
		L500,168l-0.001,345.501l83.584,0.748h40.75v-87.582h-6C618.333,426.667,635,415.333,635,396.668z"/>
	<circle fill="#CCBB9A" stroke="#A58C65" stroke-miterlimit="10" cx="495.712" cy="632.75" r="26"/>
	<rect x="474.334" y="316.667" fill="#CCBB9A" stroke="#A58C65" stroke-miterlimit="10" width="25.666" height="49.333"/>
	<line fill="none" stroke="#A58C65" stroke-miterlimit="10" x1="500" y1="316.667" x2="500" y2="366"/>
	<rect x="474.334" y="366" fill="#CCBB9A" stroke="#A58C65" stroke-miterlimit="10" width="25.666" height="35.535"/>
	<line fill="none" stroke="#A58C65" stroke-miterlimit="10" x1="500" y1="366" x2="500" y2="401.535"/>
	<polygon fill="#CCBB9A" stroke="#A58C65" stroke-miterlimit="10" points="390.125,45 359.667,44.667 359.667,81.25 379.625,81.25 
		379.625,81.25 390.125,81.25 	"/>
	<polygon fill="#CCBB9A" stroke="#A58C65" stroke-miterlimit="10" points="379.625,106 351.5,106 351.5,167.75 388,167.75 388,106 	
		"/>
	<ellipse fill="#CCBB9A" stroke="#A58C65" stroke-miterlimit="10" cx="386.371" cy="426.5" rx="32.629" ry="20.833"/>
	<ellipse fill="#CCBB9A" stroke="#A58C65" stroke-miterlimit="10" cx="386.371" cy="279.25" rx="32.629" ry="20.833"/>
	<path fill="#CCBB9A" stroke="#A58C65" stroke-miterlimit="10" d="M178.181,251.819h30.5c0,0,5-21.891,16.5-38.695
		c-11-9.305-24.65-20.305-24.65-20.305S182.879,218.819,178.181,251.819z"/>
	<polygon fill="#CCBB9A" stroke="#A58C65" stroke-miterlimit="10" points="220.32,174.319 239.081,195.711 266.181,171.819 
		243.25,151.819 	"/>
	<polygon fill="#CCBB9A" stroke="#A58C65" stroke-miterlimit="10" points="259.667,128.177 285.333,145 303.75,108.667 
		274.667,99.25 	"/>
	<polygon fill="#CCBB9A" stroke="#A58C65" stroke-miterlimit="10" points="143,487.5 121.247,487.531 121.247,513.667 143,513.667 	
		"/>
	<polygon fill="#CCBB9A" stroke="#A58C65" stroke-miterlimit="10" points="121.247,513.667 121.333,540 143,540 143,513.667 	"/>
	<line fill="none" stroke="#A58C65" stroke-miterlimit="10" x1="228.661" y1="610.085" x2="257.145" y2="578.273"/>
	<path fill="#CCBB9A" stroke="#A58C65" stroke-miterlimit="10" d="M259.566,572.738l0.066-0.072
		c-3.434-5.769-7.804-11.547-13.026-17.01c-20.689-21.648-46.865-30.142-58.466-18.968c-11.6,11.175-4.232,37.781,16.458,59.429
		c6.099,6.383,12.675,11.608,19.215,15.537l0.104,0.151c15.704,9.289,31.146,11.097,39.272,3.16
		C271.78,606.582,269.768,589.697,259.566,572.738z"/>
	<ellipse fill="#CCBB9A" stroke="#A58C65" stroke-miterlimit="10" cx="191.875" cy="320.875" rx="15.375" ry="47.625"/>
</g>
<g id="rooms">
	<path id="r327" fill="#AA9774" stroke="#725D41" stroke-miterlimit="10" d="M268.011,278h-45.762
		c-0.001,8.297-0.002,17.888-0.002,28.333h45.763L268.011,278z"/>
	<path id="r324-326" fill="#AA9774" stroke="#725D41" stroke-miterlimit="10" d="M268.003,381h0.003v-13.5l0.001-30l0.001-30v-0.333
		v-0.833h-45.763c0,0.28,0,0.553,0,0.833c0,9.509,0,19.715,0,30.333c0,9.74,0.001,19.817,0.001,30c0,4.487,0,8.993,0.001,13.5
		c0,0.346,0,0.69,0,1.035h45.756V381z"/>
	<path id="r322-323" fill="#AA9774" stroke="#725D41" stroke-miterlimit="10" d="M268.003,382.035h-45.756c0,2.101,0,4.198,0,6.298
		h0.003c0,2.39,0,4.786,0,7.167c0,10.889,0.001,21.65,0.002,32c0,5.287,0.001,10.467,0.001,15.5
		c0.001,4.574,0.001,9.029,0.001,13.334h45.748L268.003,443v-15.5l0.001-32v-7.167h-0.001V382.035z"/>
	<path id="r321" fill="#AA9774" stroke="#725D41" stroke-miterlimit="10" d="M268.001,477l0.001-16.5v-4.166h-45.747
		c0,1.406,0,2.795,0,4.166c0.001,5.828,0.001,11.361,0.002,16.5c0,3.725,0.001,7.24,0.001,10.535H268L268.001,477z"/>
	<path id="r320" fill="#AA9774" stroke="#725D41" stroke-miterlimit="10" d="M222.258,487.535c0,2.45,0,4.781,0.001,6.965
		c0.002,13.547,0.003,21.756,0.003,21.756s10.112,6.244,16.862,10.244C246.625,520.25,268,502,268,502v-7.5v-6.965H222.258z"/>
	<path id="r328" fill="#AA9774" stroke="#725D41" stroke-miterlimit="10" d="M283.482,234.143l-17.019-14.809h-31.491
		c-7.055,9.136-12.619,18.803-12.709,26.672c-0.007,0.663-0.012,12.97-0.014,31.994h45.762l0.002-29.994L283.482,234.143z"/>
	<path id="r329" fill="#AA9774" stroke="#725D41" stroke-miterlimit="10" d="M269.433,184.078c-1.597,1.585-17.2,15.06-28.52,28.034
		c-2.04,2.338-4.042,4.762-5.941,7.222h31.491l0,0l0,0l17.019,14.809l20.087-18.002L269.433,184.078z"/>
	<path id="r330-331" fill="#AA9774" stroke="#725D41" stroke-miterlimit="10" d="M319.25,99.25c0,0-3.224,12.193-10.944,28.927
		c-0.071,0.159-0.149,0.322-0.225,0.482c-2.725,5.871-5.99,12.278-9.869,18.915l24.449,20.093l28.839,0.083V142v-5.75v-37H319.25z"
		/>
	<polygon id="r350" fill="#AA9774" stroke="#725D41" stroke-miterlimit="10" points="140.667,559.001 140.667,559.001 
		140.667,559.001 140.667,546.001 133.333,546.001 133.333,546.001 133.333,546.001 133.333,540 121.333,540 121.333,598.667 
		152.879,600.402 166.667,584.333 166.667,559.001 	"/>
	<polygon id="r349" fill="#AA9774" stroke="#725D41" stroke-miterlimit="10" points="147,524.001 143,524.001 143,540 133.333,540 
		133.333,546.001 140.667,546.001 140.667,559.001 166.667,559.001 166.667,524.001 	"/>
	<polygon id="r343" fill="#AA9774" stroke="#725D41" stroke-miterlimit="10" points="166.667,367.5 166.667,367.333 166.667,342 
		144,342 144,347.667 121.078,347.667 121.098,367.5 121.102,371.035 166.667,371.035 	"/>
	<polygon id="r344-345" fill="#AA9774" stroke="#725D41" stroke-miterlimit="10" points="166.667,412.5 166.667,398 166.667,396.5 
		166.667,372.001 166.667,371.035 121.102,371.035 121.103,372.001 121.207,372.001 121.127,396.5 121.144,412.5 121.148,417.025 
		121,417.035 121.028,423.035 166.667,423.035 	"/>
	<polygon id="r346-347" fill="#AA9774" stroke="#725D41" stroke-miterlimit="10" points="121.028,423.035 121.189,457.5 
		121.247,487.531 142,487.496 141.998,487.667 166.667,487.667 166.667,487.439 166.666,428.001 166.667,428.001 166.667,427.5 
		166.667,423.035 	"/>
	<polygon id="r348" fill="#AA9774" stroke="#725D41" stroke-miterlimit="10" points="141.998,487.667 141.667,518.667 
		166.667,518.667 166.667,487.667 	"/>
	<path id="r337" fill="#AA9774" stroke="#725D41" stroke-miterlimit="10" d="M177.699,208.693
		c3.382-8.306,7.574-16.214,12.635-21.688c-14-9.333-19-13.333-19-13.333l-2.667,3l-18.699-11.753c0,0-7.968,9.331-13.907,27.9
		l41.622,15.915C177.688,208.72,177.693,208.707,177.699,208.693z"/>
	<path id="r338" fill="#AA9774" stroke="#725D41" stroke-miterlimit="10" d="M177.683,208.734l-41.622-15.915
		c-0.051,0.15-4.395,15.514-5.91,27.986l41.372,6.095C173.148,221.168,175.195,214.848,177.683,208.734z"/>
	<path id="r341" fill="#AA9774" stroke="#725D41" stroke-miterlimit="10" d="M166.666,306.5V277l-0.095-6.625h-37.938
		c-0.002,0.192-0.003,0.293-0.003,0.293L121,271v6l0.047,29.516h-0.016v0.019h45.635V306.5z"/>
	<polygon id="r342" fill="#AA9774" stroke="#725D41" stroke-miterlimit="10" points="121.031,306.535 121.077,322.5 
		121.077,338.672 166.666,338.672 166.666,322.5 166.666,309.339 166.666,306.535 	"/>
	<path id="r339-340" fill="#AA9774" stroke="#725D41" stroke-miterlimit="10" d="M171.522,226.9l-41.372-6.095
		c-0.542,4.399-1.15,6.631-1.152,7.966c-0.008,5.396-0.174,19.229-0.174,19.229c-0.081,10.049-0.175,20.509-0.192,22.375h37.938
		l-0.31-21.495C166.262,248.88,171.219,227.844,171.522,226.9z"/>
	<path id="r336" fill="#AA9774" stroke="#725D41" stroke-miterlimit="10" d="M155.941,157.367l36.726,25.306
		c0,0,8.826-7.306,20.35-18.385c0.199-0.191,0.405-0.393,0.605-0.586l-33.963-30.917
		C179.28,133.134,164.775,147.614,155.941,157.367z"/>
	<path id="r335" fill="#AA9774" stroke="#725D41" stroke-miterlimit="10" d="M212.265,91.101c-0.263,0.581-2.787,5.477-6.018,10.657
		c-2.369,3.798-5.273,7.745-7.163,10.281c-0.003,0.004-3.983,5.39-9.049,10.581c-4.176,4.279-9.771,9.602-10.376,10.163
		l33.963,30.918c6.517-6.289,13.84-13.733,20.911-21.742c0.021-0.024,0.043-0.049,0.064-0.074
		c7.414-8.403,14.535-17.406,20.115-26.295c0.091-0.146,0.178-0.291,0.269-0.437L212.265,91.101z"/>
	<path id="r334" fill="#AA9774" stroke="#725D41" stroke-miterlimit="10" d="M225.666,39c0,0,0.25,17.5-7.69,38.769
		c-1.605,4.299-3.672,8.83-5.711,13.332l42.715,24.053c3.339-5.366,6.116-10.685,8.042-15.8c1.821-4.835,2.883-9.487,2.963-13.825
		l-0.9-46.196L225.666,39z"/>
	<path id="r332-333" fill="#AA9774" stroke="#725D41" stroke-miterlimit="10" d="M327.663,39.333h-22.749h-7.918h-31.911l0.9,46.196
		c0-0.004,0-0.008,0-0.012c0.003-0.17,0.015-0.343,0.015-0.512c6.316,0,17.985,0,30.996,0c2.376,0,4.8,0,7.241,0
		c7.871,0,15.95,0,23.426,0c17.707,0,32.004,0,32.004,0V39.333H327.663z"/>
	<path id="r316" fill="#AA9774" stroke="#725D41" stroke-miterlimit="10" d="M387.15,550.421l-3.989,44.773
		c10.475,1.104,20.607,2.168,29.731,3.125l4.229-44.832L387.15,550.421z"/>
	<path id="r315" fill="#AA9774" stroke="#725D41" stroke-miterlimit="10" d="M449,556.75l-31.876-3.262l-4.229,44.832
		c18.7,1.963,33.134,3.463,37.384,3.877L449,556.75z"/>
	<path id="r317-319" fill="#AA9774" stroke="#725D41" stroke-miterlimit="10" d="M306.5,542.167l-29.5,26.17
		c0,0,2.333,3.107,7,16.334c2.311,0.283,53.849,5.75,99.161,10.523l3.989-44.773L306.5,542.167z"/>
	<path id="r301a" fill="#AA9774" stroke="#725D41" stroke-miterlimit="10" d="M207.167,631.333c0,0-7.25,8.068-13.5,12.318
		c0,1.844,0,33.016,0,33.016l30.381,3.365l4.134-46.65L207.167,631.333z"/>
	<polygon id="r301b-c" fill="#AA9774" stroke="#725D41" stroke-miterlimit="10" points="228.182,633.382 224.048,680.033 
		251.667,683.093 255.462,636.042 	"/>
	<polygon id="r302" fill="#AA9774" stroke="#725D41" stroke-miterlimit="10" points="255.462,636.042 251.667,683.093 
		281.891,686.441 286.641,639.083 	"/>
	<polygon id="r303" fill="#AA9774" stroke="#725D41" stroke-miterlimit="10" points="312.167,641.574 286.641,639.083 
		281.891,686.441 307.25,689.25 	"/>
	<path id="paragon-kids" fill="#AA9774" stroke="#725D41" stroke-miterlimit="10" d="M474.334,353v-36.333H500L500.118,247H453v31h1
		h-1l0,0h-34.063c0.036,0.414,0.063,0.83,0.063,1.25c0,11.506-14.608,20.833-32.629,20.833c-18.021,0-32.629-9.327-32.629-20.833
		c0-0.42,0.023-0.836,0.063-1.25h-85.794l-0.004,75l-0.002,40h206.329V353L474.334,353z"/>
	<path id="lingerie-salon" fill="#AA9774" stroke="#725D41" stroke-miterlimit="10" d="M500.167,218.096v-0.002L500,168l-148.5-0.25
		l-28.839-0.083l-24.449-20.093c-7.321,12.525-16.782,24.591-28.779,36.503l34.136,32.063l-20.087,18.002l0,0l-15.469,13.863
		L268.011,278h20.655h65.139c1.016-10.923,15.203-19.583,32.565-19.583s31.552,8.66,32.563,19.583H453v-31h47.118l0.007-4h0.125
		L500.167,218.096z"/>
	<polygon id="r304-306" fill="#AA9774" stroke="#725D41" stroke-miterlimit="10" points="316.879,642.49 312.167,690.058 
		401.79,700.189 407.125,651.558 	"/>
	<polygon id="r307" fill="#AA9774" stroke="#725D41" stroke-miterlimit="10" points="407.416,651.587 407.125,651.558 
		401.79,700.189 432.326,703.638 437.48,654.609 	"/>
	<path id="r309-314" fill="#AA9774" stroke="#725D41" stroke-miterlimit="10" d="M569.75,543.251l-1.12,11.846H567h-52.727
		l-4.049,39.058c0.035,0.016,0.07,0.03,0.105,0.047l-0.059,0.58c16.678,5.643,28.688,21.41,28.688,39.994
		c0,0.032-0.003,0.065-0.003,0.102c0,0.033,0.003,0.066,0.003,0.1c0,3.753-0.515,7.392-1.472,10.855
		c-2.022,7.461-6.035,14.104-11.438,19.318c-0.161,0.129-0.708,0.563-1.565,1.184c-7.88,6.873-18.36,11.066-29.865,11.066
		c-8.67,0-16.751-2.392-23.584-6.505L468.25,707.5l72.921,7.971L603,722.667l19.333-179L569.75,543.251z"/>
	<path id="read-write-be-trend" fill="#AA9774" stroke="#725D41" stroke-miterlimit="10" d="M466.635,602.07
		c7.633-5.949,17.371-9.521,27.984-9.521c0.374,0,0.743,0.021,1.114,0.027c0.335-0.008,0.667-0.027,1.003-0.027
		c4.735,0,9.286,0.793,13.538,2.23l3.999-39.685L500,554.833c0,0,0-126.178,0-153.298h-25.666V393H268.005L268,502l-28.875,24.5
		c0,0,24.542,19.002,37.875,41.838c5-4.504,29.5-26.17,29.5-26.17L449,556.75l1.203,45.439l14.297,1.477
		C464.5,603.666,465.274,603.027,466.635,602.07z M386.371,447.333c-18.021,0-32.629-9.326-32.629-20.832
		s14.606-20.834,32.629-20.834c18.021,0,32.629,9.328,32.629,20.834S404.392,447.333,386.371,447.333z"/>
	<path id="r308" fill="#AA9774" stroke="#725D41" stroke-miterlimit="10" d="M456.419,656.513l-18.938-1.901l-5.154,49.026
		l31.345,3.541l3.397-38.975C462.814,664.972,459.195,661.011,456.419,656.513z"/>
	<polygon id="scb-lounge" fill="#AA9774" stroke="#725D41" stroke-miterlimit="10" points="422.5,637.5 409.5,637.5 411,618 
		423.75,618 	"/>
	
		<ellipse id="r3b5" transform="matrix(0.7996 0.6005 -0.6005 0.7996 270.1001 -39.4109)" fill="#AA9774" stroke="#725D41" stroke-miterlimit="10" cx="194.108" cy="385.044" rx="11.502" ry="17.946"/>
	
		<ellipse id="r3b4" transform="matrix(-0.2142 0.9768 -0.9768 -0.2142 642.0664 313.631)" fill="#AA9774" stroke="#725D41" stroke-miterlimit="10" cx="194.877" cy="415.083" rx="11.565" ry="16.661"/>
	
		<ellipse id="r3b3" transform="matrix(0.2076 0.9782 -0.9782 0.2076 586.3682 155.7354)" fill="#AA9774" stroke="#725D41" stroke-miterlimit="10" cx="197.057" cy="439.801" rx="10.563" ry="16.065"/>
	
		<ellipse id="r3b2" transform="matrix(-0.3832 0.9237 -0.9237 -0.3832 697.195 461.9957)" fill="#AA9774" stroke="#725D41" stroke-miterlimit="10" cx="194.337" cy="463.792" rx="10.852" ry="16.066"/>
	
		<ellipse id="r3b1" transform="matrix(0.4236 0.9058 -0.9058 0.4236 556.221 105.9126)" fill="#AA9774" stroke="#725D41" stroke-miterlimit="10" cx="194.884" cy="490.035" rx="10.849" ry="16.064"/>
	
		<ellipse id="r3a5" transform="matrix(0.4236 0.9058 -0.9058 0.4236 594.2207 141.9131)" fill="#AA9774" stroke="#725D41" stroke-miterlimit="10" cx="185.596" cy="537.893" rx="8.764" ry="13.054"/>
	<path id="r3a4" fill="#AA9774" stroke="#725D41" stroke-miterlimit="10" d="M199.938,580.58c-4.524-6.334-12-8.75-16.699-5.394
		c-4.574,3.267-4.816,10.789-0.658,17.029l17.611-11.252C200.105,580.837,200.028,580.707,199.938,580.58z"/>
	<path id="r3a3" fill="#AA9774" stroke="#725D41" stroke-miterlimit="10" d="M182.581,592.216c0.115,0.172,0.22,0.349,0.341,0.519
		c4.526,6.338,12.002,8.752,16.702,5.396c4.606-3.289,4.821-10.896,0.568-17.164L182.581,592.216z"/>
	
		<ellipse id="r3a6" transform="matrix(-0.8652 -0.5015 0.5015 -0.8652 173.3697 1151.8729)" fill="#AA9774" stroke="#725D41" stroke-miterlimit="10" cx="241.525" cy="552.631" rx="11.666" ry="8.085"/>
	
		<ellipse id="r3a2" transform="matrix(-0.5202 -0.854 0.854 -0.5202 -193.2863 1110.936)" fill="#AA9774" stroke="#725D41" stroke-miterlimit="10" cx="215.411" cy="609.761" rx="10.662" ry="8.082"/>
	
		<ellipse id="r3a1" transform="matrix(0.0843 -0.9964 0.9964 0.0843 -355.879 818.653)" fill="#AA9774" stroke="#725D41" stroke-miterlimit="10" cx="267.482" cy="602.957" rx="9.924" ry="7.439"/>
</g>
<g id="signs">
	<g id="atm">
		<rect id="atm-1" x="379.184" y="22.333" fill="#5E513F" width="45" height="45"/>
		<rect id="atm-2" x="593.001" y="478" fill="#5E513F" width="45" height="45"/>
	</g>
	<g id="toilet">
		<rect id="toilet-1" x="351.684" y="40" fill="#5E513F" width="45" height="45"/>
		<rect id="toilet-2" x="465.684" y="359.752" fill="#5E513F" width="45" height="45"/>
		<rect id="toilet-3" x="576.684" y="504.5" fill="#5E513F" width="45" height="45"/>
		<rect id="toilet-4" x="105.684" y="477" fill="#5E513F" width="45" height="45"/>
	</g>
	<g id="telephone">
		<rect id="telephone-1" x="379.184" y="49.5" fill="#5E513F" width="45" height="45"/>
		<rect id="telephone-2" x="570.501" y="478" fill="#5E513F" width="45" height="45"/>
		<rect id="telephone-3" x="465.684" y="309" fill="#5E513F" width="45" height="45"/>
	</g>
	<rect id="transfer-service" x="322" y="74" fill="#5E513F" width="45" height="45"/>
	<g id="lift">
		<rect id="elevator-2" x="107.684" y="504.5" fill="#5E513F" width="45" height="45"/>
		<rect id="elevator-3" x="519.684" y="504.5" fill="#5E513F" width="45" height="45"/>
		<rect id="elevator-4" x="140.684" y="583" fill="#5E513F" width="45" height="45"/>
		<rect id="elevator-5" x="497.181" y="687.492" fill="#5E513F" width="45" height="45"/>
		<rect id="elevator-1" x="347.166" y="110" fill="#5E513F" width="45" height="45"/>
	</g>
	<g id="escalator">
		<rect id="escalator-1" x="270.5" y="81" fill="#5E513F" width="45" height="45"/>
		<rect id="escalator-2" x="248" y="110" fill="#5E513F" width="45" height="45"/>
		<rect id="escalator-3" x="169.5" y="261" fill="#5E513F" width="45" height="45"/>
		<rect id="escalator-4" x="192" y="518.166" fill="#5E513F" width="45" height="45"/>
		<rect id="escalator-5" x="233.5" y="560.5" fill="#5E513F" width="45" height="45"/>
		<rect id="escalator-6" x="459.181" y="633.333" fill="#5E513F" width="45" height="45"/>
		<rect id="escalator-7" x="476.5" y="589.333" fill="#5E513F" width="45" height="45"/>
		<rect id="escalator-8" x="385" y="403.5" fill="#5E513F" width="45" height="45"/>
		<rect id="escalator-9" x="343" y="404.751" fill="#5E513F" width="45" height="45"/>
		<rect id="escalator-11" x="343" y="256" fill="#5E513F" width="45" height="45"/>
		<rect id="escalator-12" x="169.5" y="224" fill="#5E513F" width="45" height="45"/>
		<rect id="escalator-10" x="383" y="256" fill="#5E513F" width="45" height="45"/>
	</g>
	<rect id="parking" x="539.625" y="272" fill="#5E513F" width="45" height="45"/>
	<g id="entrance">
		<rect id="entrance-1" x="356.684" y="72" fill="#5E513F" width="45" height="45"/>
		<rect id="entrance-2" x="478.5" y="331.5" fill="#5E513F" width="45" height="45"/>
		<rect id="entrance-3" x="543.184" y="492" fill="#5E513F" width="45" height="45"/>
	</g>
</g>
</svg>
