<?xml version="1.0" encoding="utf-8"?>
<!-- Generator: Adobe Illustrator 16.0.0, SVG Export Plug-In . SVG Version: 6.00 Build 0)  -->
<!DOCTYPE svg PUBLIC "-//W3C//DTD SVG 1.1//EN" "http://www.w3.org/Graphics/SVG/1.1/DTD/svg11.dtd">
<svg version="1.1" id="Layer_1" xmlns="http://www.w3.org/2000/svg" xmlns:xlink="http://www.w3.org/1999/xlink" x="0px" y="0px"
	 width="677px" height="803.07px" viewBox="0 0 677 803.07" enable-background="new 0 0 677 803.07" xml:space="preserve">
<g id="Background">
</g>
<g id="Etc">
	<rect x="583.5" y="513.25" fill="#CCBB9A" stroke="#A58C65" stroke-miterlimit="10" width="32.961" height="30.25"/>
	<polygon fill="#CCBB9A" stroke="#A58C65" stroke-miterlimit="10" points="515,552.625 515,550.775 541.436,551.626 541.385,553.3 
		571.695,555.681 572.924,543.5 572.924,543.5 572.924,543.5 583.5,543.5 583.5,513.25 500.996,513 500.996,552.666 	"/>
	<polygon fill="#CCBB9A" stroke="#A58C65" stroke-miterlimit="10" points="419.951,701.234 419.951,701.234 372.487,695.826 
		372.487,695.826 312.997,689.046 312.997,689.046 302.73,687.876 302.718,687.98 216.673,678.779 215.017,695.667 234.181,697.667 
		230.681,729.167 308.337,737.667 308.337,733.001 338.5,736.667 338.5,734.333 369.162,737.667 369.162,734.501 399.158,737.667 
		399.158,735.167 462.815,742.501 466.466,706.656 466.479,706.535 	"/>
	<polygon fill="#CCBB9A" stroke="#A58C65" stroke-miterlimit="10" points="113.03,498.333 103.532,511.333 100,511.333 100,526 
		121.667,526 121.667,519.166 121.667,498.333 118.5,498.333 	"/>
	<path id="parc-paragon" fill="#CCBB9A" stroke="#A58C65" stroke-miterlimit="10" d="M100,526v-14.666H35.292V649h74.239
		c0,0-14.422-34.826,12.302-67.258v-6.074H100V526z"/>
	<polygon fill="#CCBB9A" stroke="#A58C65" stroke-miterlimit="10" points="121.667,498.333 121.667,519.166 129.667,519.166 
		129.667,498.333 121.697,498.333 	"/>
	<path fill="#DDD1BA" stroke="#3F3628" stroke-miterlimit="10" d="M616.461,543.5h-31.586H583.5h-10.576l-1.229,12.182l0.208,0.019
		l-0.208-0.019l-30.312-2.381l0.052-1.674L515,550.775v1.85l-14.004,0.041V513l-0.329-346.667H387.5v2.917v-2.917h-4.166h4.166
		V105.5h-8.25h-0.75h0.75v-24h-0.5h0.5l6.576,0.127V45v-0.25V45h-25.83v-6.667H225.515V46.5h-14.998c0,0,2.75,29-11.668,45.058
		c-45.715,50.911-66.32,66.943-69.487,88.442c4.666,1.333,11.332,4.333,11.332,4.333S129.362,208.5,129.362,237.5
		c0,3.128-0.002,5.941-0.005,8.5H167v31.333V310v27.333h-45.303v8H145V342h22v38.333v17.333V413v13.668V471v40h-14.761l-10.114-6.18
		V497H146v-6.75h-8.75v8l-7.583,0.084H130h-0.333v20.832h-8V526h27.667v-9h18.333v42.15L144.183,579h-15.85v-3.332h-6.5v6.074
		c0.066-0.08,0.129-0.16,0.196-0.242c0,10.5,0,16,0,16h3v3l-5.833,3.332l4.5,3.334l-7.166,6.5l2.333,4.832l-3.833,5.668l3.666,4.832
		l-2.5,5.5l3.833,4l-1.5,6.5l4.5,2.168l0.166,7.334l5.833,1.166l0.833,7.166l6.666,1.5v5.834l7.333-0.834l2.5,5h6.832l2.833,4.5
		l5.833-3l4.833,4.5l4.833-3.332l5.833,2.5l4.833-3.5l5.499,2.832l3.666-6.5l2.961-0.164l1.782-14.389l29.375-25.98l82.988,8.711
		l-5.729,47.367l10.266,1.17l1.675-23.449l-2.354-0.338l2.083-23.615l62.22,6.378l47.083,4.823l37.823,3.877
		c-0.1-0.276-0.147-0.418-0.147-0.418s0.05,0.142,0.147,0.418c3.249,9.209,12.79,13.271,21.455,16.043
		c0.686,0.222,1.026,0.328,1.026,0.328s-0.343-0.106-1.026-0.328l-4.271,35.084l123.752,13.65l19.997-178H616.461z M392.746,637.556
		l-85.184-10.936l4.2-30.189l84.182,10.632L392.746,637.556z M446.94,639.039l-36.671-3.121l3.289-22.271l35.676,4.329
		L446.94,639.039z"/>
	<path fill="#CCBB9A" stroke="#A58C65" stroke-miterlimit="10" d="M634.292,397c0-24-15.998-29-15.998-29l5.998-1.333v-88.333
		h-5.665c0,0,15.665-6.834,15.665-27.667c0-22.833-14.999-33.333-14.999-33.333h5.332v-97.167h-18.33c0,0,13.998-13,13.998-29.833
		c0-20.333-19.33-35.667-19.33-35.667s-11.998-10.333-27.496-10.333c-18.332,0.333-31.496,11.833-31.496,12.333s0-17.333,0-17.333
		h-30.328v5.5H511.5V70h30.25V53.5V70l0,0l0,0H511.5v0.25V70l0,0V44.833h-92.679v-5.5h-32.995v5.417v36.877L379.25,81.5v24h8.25
		v60.833h113.167L500.996,513l82.504,0.25h17.375h14.961h9.123l0.126-87.375h-6C619.085,425.875,634.292,416.333,634.292,397z"/>
	<polygon fill="#CCBB9A" stroke="#A58C65" stroke-miterlimit="10" points="387.5,105.5 379.25,105.5 379.25,105.5 351.875,105.5 
		351.875,123.375 351.875,166.625 387.583,166.625 387.583,163.417 387.583,166.625 387.662,166.625 	"/>
	<polygon fill="#CCBB9A" stroke="#A58C65" stroke-miterlimit="10" points="431.583,190 431.583,166.662 387.662,166.662 
		387.662,166.625 387.583,166.625 387.583,190 	"/>
	<rect x="476.5" y="472.5" fill="#CCBB9A" stroke="#A58C65" stroke-miterlimit="10" width="24.496" height="40.5"/>
	<polygon fill="#CCBB9A" stroke="#A58C65" stroke-miterlimit="10" points="474.5,364 474.5,381.657 474.5,381.657 474.5,399.5 
		500.996,399.5 500.996,364 	"/>
	<rect x="474.5" y="316.5" fill="#CCBB9A" stroke="#A58C65" stroke-miterlimit="10" width="26.496" height="47.5"/>
	<polygon fill="#CCBB9A" stroke="#A58C65" stroke-miterlimit="10" points="385.826,45 357.761,45 357.761,81.627 377.698,81.627 
		377.698,81.627 385.826,81.627 	"/>
	<circle id="star-dome" fill="#CCBB9A" stroke="#A58C65" stroke-miterlimit="10" cx="494.967" cy="633.951" r="25.967"/>
	
		<ellipse transform="matrix(-0.6846 0.7289 -0.7289 -0.6846 734.1612 949.103)" fill="#CCBB9A" stroke="#A58C65" stroke-miterlimit="10" cx="161.747" cy="633.383" rx="18.775" ry="27.892"/>
	<path id="hall-of-fame" fill="#CCBB9A" stroke="#A58C65" stroke-miterlimit="10" d="M246.279,552.49
		c-26.433-18.24-56.036-21.183-66.121-6.566c-10.084,14.613,3.167,41.248,29.6,59.488c2.707,1.869,5.448,3.565,8.197,5.111
		l41.795-46.964C255.771,559.664,251.26,555.927,246.279,552.49z"/>
	<path fill="#CCBB9A" stroke="#A58C65" stroke-miterlimit="10" d="M257.376,577.197l-28.766,32.754
		c12.542,8.049,26.056,9.285,33.071,2.063C269.044,604.439,266.898,589.972,257.376,577.197z"/>
	<path fill="#CCBB9A" stroke="#A58C65" stroke-miterlimit="10" d="M179.667,424.666h32c0,0-1.667,58-16,58
		S179.667,424.666,179.667,424.666z"/>
	<polygon fill="#CCBB9A" stroke="#A58C65" stroke-miterlimit="10" points="259.75,128.043 275.127,98.5 303.061,109.75 285.75,143 	
		"/>
	<polygon fill="#CCBB9A" stroke="#A58C65" stroke-miterlimit="10" points="180.5,237.099 189.25,214.25 213.25,214.25 221,219.25 
		212.25,228.5 210.5,237.5 	"/>
	<rect x="35.292" y="677.333" fill="#CCBB9A" stroke="#A58C65" stroke-miterlimit="10" width="54.708" height="23.334"/>
	<polyline fill="none" stroke="#3F3628" stroke-miterlimit="10" points="35.292,717.664 174.333,717.664 174.333,738.33 	"/>
	<path fill="none" stroke="#3F3628" stroke-miterlimit="10" d="M231.959,717.664c0.037-0.334-22.626,0-22.626,0v20.666"/>
	<line fill="none" stroke="#3F3628" stroke-miterlimit="10" x1="506.345" y1="710.898" x2="499.334" y2="778.011"/>
	<line fill="none" stroke="#3F3628" stroke-miterlimit="10" x1="462.815" y1="742.501" x2="459" y2="778.011"/>
	<path id="main-hal-ll" fill="#CCBB9A" stroke="#A58C65" stroke-miterlimit="10" d="M362.5,262.917v29c0,0,14,7.083,24,7.083
		s23-7.083,23-7.083v-29c0,0-12-6.917-23.5-6.917S362.5,262.917,362.5,262.917z"/>
	<path id="main-hall-l" fill="#CCBB9A" stroke="#A58C65" stroke-miterlimit="10" d="M386,404.751c-11.5,0-23.5,6.916-23.5,6.916
		v2.656l0,0v24.334l0,0v2.01c0,0,14,7.084,24,7.084s23-7.084,23-7.084v-29C409.5,411.667,397.5,404.751,386,404.751z"/>
	<path fill="#CCBB9A" stroke="#A58C65" stroke-miterlimit="10" d="M170.561,166.917L170.561,166.917L170.561,166.917l-13.016-9.867
		c-1.96,2.545-3.895,5.192-5.755,7.915l16.503,11.204l5.58-6.821l0,0l0,0l19.402,13.3c1.72-2.499,3.479-4.739,5.258-6.64
		l-20.292-18.741L170.561,166.917z"/>
</g>
<g id="Rooms">
	<path id="paragon-platinum-club" fill="#A58C65" stroke="#725D41" stroke-miterlimit="10" d="M129.333,180l11.417,4.5
		c0,0,9.5-27.25,40.25-52.75s42.5-62,44.5-71.75V46.5h-15c0,0,1.134,29.811-13,46.75c-21.836,26.173-38.661,39.483-45.387,47.069
		C134,160.75,129.333,173,129.333,180z"/>
	<path id="m40" fill="#A58C65" stroke="#725D41" stroke-miterlimit="10" d="M129.333,237.5H168.5c0,0,4.172-13.089,10.509-27.772
		l-41.75-16.58C131.981,207.461,130.451,219.054,129.333,237.5z"/>
	<path id="m39a" fill="#A58C65" stroke="#725D41" stroke-miterlimit="10" d="M193.276,182.648l-19.402-13.3l-5.212,6.37
		l20.175,14.05C190.28,187.254,191.761,184.849,193.276,182.648z"/>
	<path id="m39b" fill="#A58C65" stroke="#725D41" stroke-miterlimit="10" d="M168.662,175.718l-0.369,0.451l-16.503-11.204
		c-4.253,6.225-8.125,12.841-11.04,19.535c-1.319,3.03-2.474,5.888-3.491,8.647l41.75,16.58c2.888-6.691,6.231-13.695,9.828-19.959
		L168.662,175.718z"/>
	<path id="m38a" fill="#A58C65" stroke="#725D41" stroke-miterlimit="10" d="M181.342,131.342
		c-3.709,3.221-9.109,8.466-14.922,15.008c-2.912,3.277-5.921,6.866-8.875,10.701l13.016,9.867l7.68-9.649l20.292,18.741
		c0.156-0.167,0.311-0.347,0.467-0.508c4.043-4.169,8.596-8.785,13.144-13.356L181.342,131.342z"/>
	<path id="m37b" fill="#A58C65" stroke="#725D41" stroke-miterlimit="10" d="M181.342,131.342l30.802,30.802
		c4.983-5.008,9.957-9.959,14.248-14.212l-31.186-30.262C191.515,122.063,182.441,130.388,181.342,131.342z"/>
	<path id="m37a" fill="#A58C65" stroke="#725D41" stroke-miterlimit="10" d="M204.02,106.514c0,0-4.006,5.435-8.814,11.156
		l31.186,30.262C233.685,140.704,239,135.5,239,135.5L204.02,106.514z"/>
	<path id="m35-36" fill="#A58C65" stroke="#725D41" stroke-miterlimit="10" d="M225.5,38.333V61.75c0,0-10.866,31.594-13.808,32.547
		L252.25,115.5l13.25-31.25h24.25V38.333H225.5z"/>
	<rect id="m34b" x="289.75" y="38.333" fill="#A58C65" stroke="#725D41" stroke-miterlimit="10" width="21.25" height="45.917"/>
	<polygon id="m34a" fill="#A58C65" stroke="#725D41" stroke-miterlimit="10" points="311,38.333 311,84.25 326.5,84.25 328.5,81.25 
		328.5,38.333 	"/>
	<polygon id="m33" fill="#A58C65" stroke="#725D41" stroke-miterlimit="10" points="343.5,38.333 343.5,81.5 344.75,84.25 
		357.75,84.25 357.75,45 360,45 360,38.333 	"/>
	<polygon id="m32d" fill="#A58C65" stroke="#725D41" stroke-miterlimit="10" points="335.125,106.75 335.125,106.75 335.125,106.75 
		335.125,123.375 351.875,123.375 351.875,105.5 351.75,105.5 351.75,98.5 330.625,98.5 330.625,106.75 	"/>
	<path id="m32c" fill="#A58C65" stroke="#725D41" stroke-miterlimit="10" d="M335.125,123.375L335.125,123.375L335.125,123.375
		V106.75h-4.5l0,0l0,0V98.5H319.75l-8.862,23.349c-0.034,0.081-0.072,0.167-0.107,0.248l19.972,16.528h21.125v-15.25H335.125z"/>
	<path id="m32b" fill="#A58C65" stroke="#725D41" stroke-miterlimit="10" d="M330.5,138.625h0.25l-19.972-16.528
		c-0.835,1.915-1.727,3.899-2.679,5.946l19.648,16.707h7.125H335h-0.125v21.875h17v-28H330.75H330.5z"/>
	<path id="m32a" fill="#A58C65" stroke="#725D41" stroke-miterlimit="10" d="M327.625,144.75h0.125l-19.648-16.707
		c-2.738,5.891-5.954,12.25-9.655,18.684l23.109,19.898h13.319V144.75h-7.125H327.625z"/>
	<path id="m30" fill="#A58C65" stroke="#725D41" stroke-miterlimit="10" d="M280.663,237.099l-33.47-31.611
		c-1.355,1.278-2.646,2.642-3.943,4.262c-7.533,9.416-18.387,23.488-19.629,39.083H268.4L280.663,237.099z"/>
	<path id="m27" fill="#A58C65" stroke="#725D41" stroke-miterlimit="10" d="M267.666,306.833h-44.211
		c-0.008,9.235-0.018,19.23-0.028,29.667h44.239V306.833z"/>
	<path id="m26" fill="#A58C65" stroke="#725D41" stroke-miterlimit="10" d="M267.666,336.5h-44.239
		c-0.009,9.592-0.019,19.562-0.028,29.667h31.435l0,0h12.832V336.5z"/>
	<path id="m25b" fill="#A58C65" stroke="#725D41" stroke-miterlimit="10" d="M254.833,366.167h-31.435
		c-0.003,3.321-0.006,6.658-0.01,10h31.445V366.167z"/>
	<path id="m25a" fill="#A58C65" stroke="#725D41" stroke-miterlimit="10" d="M267.666,366.167h-12.832v10l0,0l0,0h-31.445
		c-0.006,6.72-0.013,13.465-0.02,20.167h44.296L267.666,366.167L267.666,366.167z"/>
	<path id="m24" fill="#A58C65" stroke="#725D41" stroke-miterlimit="10" d="M267.666,396.334H223.37
		c-0.005,5.656-0.011,11.281-0.017,16.833h44.313V396.334z"/>
	<path id="m22-23" fill="#A58C65" stroke="#725D41" stroke-miterlimit="10" d="M267.666,438.658v-25.49h-44.313
		c-0.017,17.359-0.034,34.004-0.048,48.666h44.361V438.658L267.666,438.658z"/>
	<path id="m21" fill="#A58C65" stroke="#725D41" stroke-miterlimit="10" d="M223.305,461.833
		c-0.032,31.906-0.055,54.416-0.055,54.416s5.968,3.154,14.448,9.49l29.968-26.062V461.83h-44.361V461.833z"/>
	<path id="m28" fill="#A58C65" stroke="#725D41" stroke-miterlimit="10" d="M267.666,277h-44.184
		c-0.007,8.45-0.017,18.582-0.027,29.833h44.211V277L267.666,277z"/>
	<path id="m29" fill="#A58C65" stroke="#725D41" stroke-miterlimit="10" d="M267.666,249.536l0.734-0.702h-44.779
		c-0.077,0.967-0.121,1.939-0.121,2.917c0,2.78-0.007,11.93-0.019,25.25h44.184L267.666,249.536L267.666,249.536z"/>
	<path id="m31" fill="#A58C65" stroke="#725D41" stroke-miterlimit="10" d="M269.824,184.893
		c-11.225,12.028-17.409,15.669-22.631,20.595l33.47,31.611l22.396-21.431L269.824,184.893z"/>
	<path id="m19-20" fill="#A58C65" stroke="#725D41" stroke-miterlimit="10" d="M307.071,541.58l-30.075,26.852
		c2.929,4.854,5.641,10.035,8.001,15.568c18.75,1.814,42.131,4.238,65.629,6.738l4.417-44.172L307.071,541.58z"/>
	<path id="m16b" fill="#A58C65" stroke="#725D41" stroke-miterlimit="10" d="M402.805,551.529l-2.036,15.653l0,0l-3.715,28.562
		c7.858,0.856,15.325,1.678,22.188,2.434l3.744-44.551L402.805,551.529z"/>
	<path id="m16a" fill="#A58C65" stroke="#725D41" stroke-miterlimit="10" d="M448.918,542.878l-15.533-1.584l-1.59,13.248
		l-8.81-0.916l-3.744,44.551c9.019,0.992,16.991,1.877,23.419,2.592L448.918,542.878z"/>
	<path id="m18" fill="#A58C65" stroke="#725D41" stroke-miterlimit="10" d="M386.075,566.205L386.075,566.205L386.075,566.205
		l0.681-16.344l-31.712-3.295l-4.417,44.172c15.889,1.688,31.828,3.414,46.427,5.006l3.716-28.562L386.075,566.205z"/>
	<polygon id="m-platinum-club" fill="#A58C65" stroke="#725D41" stroke-miterlimit="10" points="431.583,166.662 431.583,190 
		431.5,190 431.5,203.75 500.996,203.75 500.996,166.662 	"/>
	<polygon id="m03" fill="#A58C65" stroke="#725D41" stroke-miterlimit="10" points="308.459,640.509 270.323,636.505 
		265.751,684.027 302.718,687.98 	"/>
	<polygon id="m01-02" fill="#A58C65" stroke="#725D41" stroke-miterlimit="10" points="225.471,631.798 196.097,657.779 
		194.315,672.167 194.353,672.166 194.353,676.5 216.684,678.667 216.673,678.779 265.751,684.027 270.323,636.505 	"/>
	<polygon id="m04-05" fill="#A58C65" stroke="#725D41" stroke-miterlimit="10" points="314.399,641.644 312.315,665.259 
		314.672,665.597 314.672,665.597 314.672,665.597 312.997,689.046 372.487,695.826 376.619,648.021 	"/>
	<polygon id="m06-07" fill="#A58C65" stroke="#725D41" stroke-miterlimit="10" points="376.619,648.021 372.487,695.826 
		419.951,701.234 423.702,652.845 	"/>
	<path id="m08" fill="#A58C65" stroke="#725D41" stroke-miterlimit="10" d="M461.525,656.722l-37.823-3.877l-3.751,48.39
		l46.524,5.303l0.005-0.035l12.229,1.348l4.271-35.084C474.315,669.994,464.774,665.931,461.525,656.722z"/>
	<g id="m17-m53">
		<polygon id="m17" fill="#A58C65" stroke="#725D41" stroke-miterlimit="10" points="400.77,567.185 402.805,551.529 
			386.756,549.861 386.075,566.205 		"/>
		<polygon id="m53" fill="#A58C65" stroke="#725D41" stroke-miterlimit="10" points="311.764,596.431 307.562,626.621 
			392.746,637.556 395.943,607.062 		"/>
	</g>
	<polygon id="m54" fill="#A58C65" stroke="#725D41" stroke-miterlimit="10" points="413.561,613.646 410.271,635.917 
		446.94,639.039 449.234,617.976 	"/>
	<polygon id="m15b" fill="#A58C65" stroke="#725D41" stroke-miterlimit="10" points="515,550.775 515,552.625 514.052,552.628 
		511.386,587.949 511.386,587.949 511.386,587.949 504.301,588.189 503.854,592 532.366,592 538.016,551.517 	"/>
	<polygon id="m11b" fill="#A58C65" stroke="#725D41" stroke-miterlimit="10" points="612.445,632.632 563.44,626.908 
		561.76,641.787 610.855,646.781 	"/>
	<polygon id="m11a" fill="#A58C65" stroke="#725D41" stroke-miterlimit="10" points="560.375,655.798 609.346,660.224 
		610.855,646.781 561.76,641.787 560.179,655.781 	"/>
	<polygon id="m10" fill="#A58C65" stroke="#725D41" stroke-miterlimit="10" points="609.346,660.224 560.375,655.798 
		560.162,655.927 560.162,655.927 537.756,669.511 550.239,682.519 588.994,686.468 588.994,686.468 606.2,688.222 	"/>
	<polygon id="m09b" fill="#A58C65" stroke="#725D41" stroke-miterlimit="10" points="588.994,686.468 550.239,682.519 
		550.239,682.519 550.239,682.519 537.756,669.511 533.122,672.32 531.339,696.236 587.965,701.654 	"/>
	<polygon id="m09a" fill="#A58C65" stroke="#725D41" stroke-miterlimit="10" points="588.994,686.468 587.965,701.654 
		587.965,701.654 587.965,701.654 531.339,696.236 530.051,713.511 602.462,721.5 606.2,688.222 	"/>
	<polygon id="m12a" fill="#A58C65" stroke="#725D41" stroke-miterlimit="10" points="565.67,607.169 563.44,626.908 
		612.445,632.632 614.877,610.984 	"/>
	<polygon id="m12b" fill="#A58C65" stroke="#725D41" stroke-miterlimit="10" points="567.881,587.873 567.383,592 567.383,592 
		565.67,607.169 614.877,610.984 616.908,592.906 	"/>
	<polygon id="m13-15a" fill="#A58C65" stroke="#725D41" stroke-miterlimit="10" points="616.461,543.5 584.875,543.5 583.5,543.5 
		572.924,543.5 571.695,555.681 571.903,555.699 571.695,555.681 541.385,553.3 541.436,551.626 538.016,551.517 532.366,592 
		567.345,592 567.881,587.873 567.881,587.873 567.881,587.873 616.908,592.906 622.459,543.5 	"/>
	<polygon id="m50" fill="#A58C65" stroke="#725D41" stroke-miterlimit="10" points="149.333,517 149.333,526 121.667,526 100,526 
		100,575.667 121.833,575.667 128.333,575.667 128.333,579 144.183,579 167.667,559.15 167.667,517 	"/>
	<polygon id="m44" fill="#A58C65" stroke="#725D41" stroke-miterlimit="10" points="167,342 145,342 145,345.333 145,345.333 
		145,345.333 121.697,345.333 121.697,380.333 167,380.333 	"/>
	<rect id="m45" x="121.697" y="380.333" fill="#A58C65" stroke="#725D41" stroke-miterlimit="10" width="45.303" height="17.333"/>
	<rect id="m46a" x="121.697" y="397.667" fill="#A58C65" stroke="#725D41" stroke-miterlimit="10" width="45.303" height="15.333"/>
	<polygon id="m47-48" fill="#A58C65" stroke="#725D41" stroke-miterlimit="10" points="145.333,461.667 145.333,461.667 
		145.333,471 167,471 167,426.667 121.697,426.667 121.697,461.667 	"/>
	<polygon id="m49" fill="#A58C65" stroke="#725D41" stroke-miterlimit="10" points="145.333,471 145.333,471 145.333,471 
		145.333,461.667 121.697,461.667 121.697,498.25 137.25,498.25 137.25,490.25 137.25,490.25 137.25,490.25 146,490.25 146,490.25 
		146,490.25 146,497 146,497 146,497 142.125,497 142.125,504.82 152.239,511 167,511 167,471 	"/>
	<path id="m41" fill="#A58C65" stroke="#725D41" stroke-miterlimit="10" d="M167,246h-37.644
		c-0.029,21.163-0.161,23.833-0.161,23.833h-7.499v7.5H167V246z"/>
	
		<rect id="m42_1_" x="121.697" y="277.333" fill="#A58C65" stroke="#725D41" stroke-miterlimit="10" width="45.303" height="32.667"/>
	<rect id="m43" x="121.697" y="310" fill="#A58C65" stroke="#725D41" stroke-miterlimit="10" width="45.303" height="27.333"/>
	<path id="m42" fill="#A58C65" stroke="#725D41" stroke-miterlimit="10" d="M215,182.25c0,0,9.691-25.5,35.721-36.75
		c7.779,8.5,16.945,17.25,16.945,17.25s-13.166,26.5-36.666,35C223,190,215,182.25,215,182.25z"/>
	<rect id="m55a" x="179.25" y="248.833" fill="#A58C65" stroke="#725D41" stroke-miterlimit="10" width="30.25" height="51.417"/>
	<polygon id="m55b" fill="#A58C65" stroke="#725D41" stroke-miterlimit="10" points="190.75,331.5 190.75,326.75 203.75,314 
		209.5,314 209.5,344.75 205,344.75 	"/>
	<polygon id="kiehl-s" fill="#A58C65" stroke="#725D41" stroke-miterlimit="10" points="491.662,591.333 503.854,592 
		504.301,588.189 511.386,587.949 514,552.628 491.662,552.666 	"/>
	<path id="the-luxury" fill="#A58C65" stroke="#725D41" stroke-miterlimit="10" d="M431.5,203.75V190h-43.917v-23.375h-35.708h-17
		h-13.319l-23.109-19.898c-4.391,7.633-9.458,15.365-15.195,22.523c-5.174,6.454-9.591,11.534-13.426,15.643l33.235,30.775
		l-22.396,21.431L268.4,248.834l-0.734,0.702V277v29.833V336.5v29.667v30.167v16.833v25.49H362.5v-24.334h-10.167v-32.667H474.5V364
		v-47.5h26.496V203.75H431.5z M409.5,291.917c0,0-13,7.083-23,7.083s-24-7.083-24-7.083v-29c0,0,12-6.917,23.5-6.917
		s23.5,6.917,23.5,6.917V291.917z"/>
	<path id="beauty-hall" fill="#A58C65" stroke="#725D41" stroke-miterlimit="10" d="M500.996,472.5v-73H474.5v-17.843H352.333
		v32.667H362.5v-2.654c0,0,12-6.918,23.5-6.918s23.5,6.918,23.5,6.918v29c0,0-13,7.082-23,7.082s-24-7.082-24-7.082v-2.012h-94.834
		v23.176v37.848l-29.968,26.062c11.365,8.492,27.235,22.709,39.298,42.69l30.075-26.854l124.724,12.965l1.59-13.25l15.533,1.586
		l-6.258,57.889c10.592,1.181,18.59,1.898,18.59,1.898c14.836-13.416,30.412-11.334,30.412-11.334c0-0.08,0-38.666,0-38.666h9.334
		V513H476.5v-40.5H500.996z"/>
	<g id="m46b-km02-m46c">
		<path id="km02" fill="#A58C65" stroke="#725D41" stroke-miterlimit="10" d="M501.734,659.021c-2.158,0.579-4.428,0.896-6.77,0.896
			s-4.607-0.316-6.768-0.896l0,0h-0.01v12.987c0,0,11.146,4.156,16.312-1.676c0.5-6.5,0-11.314,0-11.314h-2.766L501.734,659.021
			L501.734,659.021z"/>
		<rect id="m46b" x="121.697" y="413" fill="#A58C65" stroke="#725D41" stroke-miterlimit="10" width="45.303" height="13.668"/>
		<rect id="m46c" x="179.667" y="397.666" fill="#A58C65" stroke="#725D41" stroke-miterlimit="10" width="32" height="27"/>
	</g>
	
		<rect id="platinum-lounge" x="583.5" y="489.034" fill="#A58C65" stroke="#725D41" stroke-miterlimit="10" width="41.494" height="24.216"/>
	
		<rect id="scarlet-diamond-lounge" x="385.826" y="39.333" fill="#A58C65" stroke="#725D41" stroke-miterlimit="10" width="32.924" height="42.294"/>
</g>
<g id="Signs">
	<g id="atm">
		<rect id="atm-1" x="376.5" y="26" fill="#5E513F" width="45" height="45"/>
		<rect id="atm-2" x="568.5" y="477" fill="#5E513F" width="45" height="45"/>
	</g>
	<rect id="smoking" x="505.5" y="29" fill="#5E513F" width="45" height="45"/>
	<g id="toilet">
		<rect id="toilet-1" x="348.5" y="38" fill="#5E513F" width="45" height="45"/>
		<rect id="toilet-2" x="86.5" y="493" fill="#5E513F" width="45" height="45"/>
		<rect id="toilet-3" x="577.5" y="506" fill="#5E513F" width="45" height="45"/>
		<rect id="toilet-4" x="468.5" y="359.535" fill="#5E513F" width="45" height="45"/>
	</g>
	<g id="telephone">
		<rect id="telephone-1" x="376.5" y="50.5" fill="#5E513F" width="45" height="45"/>
		<rect id="telephone-2" x="467.5" y="308.5" fill="#5E513F" width="45" height="45"/>
		<rect id="telephone-3" x="593.965" y="478" fill="#5E513F" width="45" height="45"/>
	</g>
	<g id="lift">
		<rect id="elevator-1" x="348.5" y="103" fill="#5E513F" width="45" height="45"/>
		<rect id="elevator-2" x="108" y="486.5" fill="#5E513F" width="45" height="45"/>
		<rect id="elevator-3" x="515.5" y="496.5" fill="#5E513F" width="45" height="45"/>
		<rect id="elevator-4" x="149.5" y="590" fill="#5E513F" width="45" height="45"/>
		<rect id="elevator-5" x="495" y="695" fill="#5E513F" width="45" height="45"/>
	</g>
	<g id="escalator">
		<rect id="escalator-1" x="266.5" y="80.5" fill="#5E513F" width="45" height="45"/>
		<rect id="escalator-2" x="249" y="115" fill="#5E513F" width="45" height="45"/>
		<rect id="escalator-3" x="177.5" y="200" fill="#5E513F" width="45" height="45"/>
		<rect id="escalator-4" x="174" y="408" fill="#5E513F" width="45" height="45"/>
		<rect id="escalator-5" x="174" y="448" fill="#5E513F" width="45" height="45"/>
		<rect id="escalator-6" x="228.5" y="577.5" fill="#5E513F" width="45" height="45"/>
		<rect id="escalator-7" x="481.5" y="590.5" fill="#5E513F" width="45" height="45"/>
		<rect id="escalator-8" x="492" y="632.5" fill="#5E513F" width="45" height="45"/>
		<rect id="escalator-9" x="489.5" y="729" fill="#5E513F" width="45" height="45"/>
		<rect id="escalator-10" x="460" y="455.5" fill="#5E513F" width="45" height="45"/>
		<rect id="escalator-11" x="383.5" y="403" fill="#5E513F" width="45" height="45"/>
		<rect id="escalator-12" x="345" y="402.387" fill="#5E513F" width="45" height="44.999"/>
		<rect id="escalator-13" x="345" y="252.5" fill="#5E513F" width="45" height="45"/>
		<rect id="escalator-14" x="383.5" y="254" fill="#5E513F" width="45" height="45"/>
		<rect id="escalator-15" x="400" y="161" fill="#5E513F" width="45" height="45"/>
	</g>
	<rect id="parking" x="538" y="125.5" fill="#5E513F" width="45" height="45"/>
	<rect id="reserved-parking" x="538" y="385.5" fill="#5E513F" width="45" height="45"/>
	<rect id="transfer-service" x="274.5" y="571.5" fill="#5E513F" width="45" height="45"/>
	<g id="information">
		<rect id="information-1" x="272.5" y="596" fill="#5E513F" width="45" height="45"/>
		<rect id="information-2" x="489.5" y="664" fill="#5E513F" width="45" height="45"/>
	</g>
	<g id="entrance">
		<rect id="entrance-1" x="95" y="594" fill="#5E513F" width="45" height="45"/>
		<rect id="entrance-2" x="105.5" y="633.5" fill="#5E513F" width="45" height="45"/>
		<rect id="entrance-3" x="149.5" y="655" fill="#5E513F" width="45" height="45"/>
		<rect id="entrance-4" x="467" y="686.5" fill="#5E513F" width="45" height="45"/>
		<rect id="entrance-5" x="546" y="491" fill="#5E513F" width="45" height="45"/>
		<rect id="entrance-6" x="477" y="331" fill="#5E513F" width="45" height="45"/>
		<rect id="entrance-7" x="356" y="72" fill="#5E513F" width="45" height="45"/>
	</g>
	<g id="bts">
		<rect id="bts-1" x="169" y="706.5" fill="#5E513F" width="45" height="45"/>
		<rect id="bts-2" x="459" y="740" fill="#5E513F" width="45" height="45"/>
	</g>
</g>
</svg>
