<?xml version="1.0" encoding="utf-8"?>
<!-- Generator: Adobe Illustrator 16.0.0, SVG Export Plug-In . SVG Version: 6.00 Build 0)  -->
<!DOCTYPE svg PUBLIC "-//W3C//DTD SVG 1.1//EN" "http://www.w3.org/Graphics/SVG/1.1/DTD/svg11.dtd">
<svg version="1.1" id="Layer_1" xmlns="http://www.w3.org/2000/svg" xmlns:xlink="http://www.w3.org/1999/xlink" x="0px" y="0px"
	 width="677px" height="803.07px" viewBox="0 0 677 803.07" enable-background="new 0 0 677 803.07" xml:space="preserve">
<g id="Background">
</g>
<g id="Original" display="none">
	
		<image display="inline" overflow="visible" enable-background="new    " width="557" height="784" xlink:href="65CD7DEE.png"  transform="matrix(1 0 0 1 87 4)">
	</image>
</g>
<g id="Etc">
	<path fill="#DDD1BA" stroke="#3F3628" d="M630.998,548.664h-21.665v10.672H556v-5.334h-76.333V427.667V322.333l0,0l0,0H609v-205
		c0,0,22.667-30-4.667-57.333s-62-8-62-8V41.333h-324c0,0,3.884,9.49-3.768,26.263l49.45,16.117c0,0-7.349,23.287-12.016,30.287
		c-12.467,18.7-12.941,15.069-30.717,40.425l-39.424-46.434c-0.508,0.446-1.013,0.892-1.535,1.342
		c-48.667,42-58.665,110.666-58.665,110.666s0,217.999,0,254.665c-19.333,12-25.998,41.334-25.998,41.334v228h312.307l2.762-35.525
		l0,0l0,0l75.873,9.775l0,0l0,0l-1.612,33.082h133.339v-52l17.333-3.332L630.998,548.664z"/>
	<polygon fill="#CCBB9A" stroke="#A58C65" points="410.73,708.472 407.969,743.998 408.329,743.998 480.329,751.33 484.99,751.33 
		486.604,718.248 	"/>
	<rect x="568" y="516.335" fill="#CCBB9A" stroke="#A58C65" width="41" height="17"/>
	<polygon fill="#CCBB9A" stroke="#A58C65" points="609,533.335 568,533.335 568,533.335 568,533.335 568,516.335 568,516.335 
		568,516.335 609,516.335 609,506.335 554,506.335 554,519.667 503.667,519.667 503.667,427.667 479.667,427.667 479.667,554.001 
		556,554.001 556,559.335 609.333,559.335 609.333,548.664 609,548.664 	"/>
	<polygon fill="#CCBB9A" stroke="#A58C65" points="503.667,427.667 503.667,427.667 503.667,519.667 554,519.667 554,506.335 
		554,506.335 554,506.335 609,506.335 609,322.333 479.667,322.333 479.667,427.667 	"/>
	<polygon fill="#CCBB9A" stroke="#A58C65" points="113.5,546 138.25,546 138.25,582.75 113.25,582.75 	"/>
	<polygon fill="#CCBB9A" stroke="#A58C65" points="166,619.5 202.25,582.75 202.25,568.5 284.5,568.5 290,575.25 287.25,616.75 
		275,629 197,629 191.75,623.5 180.75,634 	"/>
	<path fill="#CCBB9A" stroke="#A58C65" d="M199.333,258.667H231c0,0,0.667-25,12.667-44.333c-9.333-4-27.333-14.333-27.333-14.333
		S202.333,218.667,199.333,258.667z"/>
	<polygon fill="#CCBB9A" stroke="#A58C65" points="336.667,70 409,70 409,101.667 392.334,101.667 392.334,162.667 490,162.667 
		490,149 504.667,149 504.667,172 491.334,172 491.334,192.667 336.667,192.667 	"/>
	<ellipse fill="#CCBB9A" stroke="#A58C65" cx="493.667" cy="640.833" rx="27.333" ry="27.167"/>
	<polygon id="operation-office" fill="#CCBB9A" stroke="#A58C65" points="138,605.667 138,619.333 153.667,619.333 153.667,645.333 
		162.667,654.667 198,654.667 198,674.333 277.333,674.333 277.333,744.001 95.662,744.001 95.625,605.689 	"/>
</g>
<g id="Rooms">
	<path id="sea-life-bangkok" fill="#AA9774" stroke="#725D41" d="M618.329,751.33c0,0-0.329-105.33-0.329-122.33s-18-23-18-23
		l-147-16l3.5-28.5l-142.833-16.832l-15.333,150l188.333,23.334L485,751.333L618.329,751.33z M466.334,640.833
		c0-15.004,12.237-27.168,27.333-27.168S521,625.83,521,640.833S508.763,668,493.667,668S466.334,655.837,466.334,640.833z"/>
	<path id="auto-spa" fill="#AA9774" stroke="#725D41" d="M264.016,83.713l-49.45-16.117c-4.879,10.695-14.447,24.35-32.707,40.395
		l39.424,46.434c0,0,24.294-30.463,30.717-41.091C256.26,106.284,264.016,83.713,264.016,83.713z"/>
</g>
<g id="Signs">
	<rect id="taxi" x="387" y="73" fill="#5E513F" width="45" height="45"/>
	<g id="elevator">
		<rect id="elevator-1" x="339" y="113" fill="#5E513F" width="45" height="45"/>
		<rect id="elevator-2" x="503" y="499" fill="#5E513F" width="45" height="45"/>
		<rect id="elevator-3" x="102" y="537" fill="#5E513F" width="45" height="45"/>
		<rect id="elevator-4" x="151" y="602" fill="#5E513F" width="45" height="45"/>
		<rect id="elevator-5" x="500" y="694" fill="#5E513F" width="45" height="45"/>
	</g>
	<g id="escalator">
		<rect id="escalator-1" x="403" y="143" fill="#5E513F" width="45" height="45"/>
		<rect id="escalator-2" x="479" y="453" fill="#5E513F" width="45" height="45"/>
		<rect id="escalator-3" x="198" y="203" fill="#5E513F" width="45" height="45"/>
		<rect id="escalator-4" x="243" y="573" fill="#5E513F" width="45" height="45"/>
		<rect id="escalator-5" x="452" y="627" fill="#5E513F" width="45" height="45"/>
		<rect id="escalator-6" x="526" y="715" fill="#5E513F" width="45" height="45"/>
	</g>
	<g id="atm">
		<rect id="atm-1" x="463" y="129" fill="#5E513F" width="45" height="45"/>
		<rect id="atm-2" x="572" y="471" fill="#5E513F" width="45" height="45"/>
		<rect id="atm-3" x="213" y="595" fill="#5E513F" width="45" height="45"/>
	</g>
	<g id="toilet">
		<rect id="toilet-1" x="489" y="131" fill="#5E513F" width="45" height="45"/>
		<rect id="toilet-2" x="560" y="503" fill="#5E513F" width="45" height="45"/>
		<rect id="toilet-3" x="473" y="715" fill="#5E513F" width="45" height="45"/>
	</g>
	<rect id="first-aid" x="160" y="640" fill="#5E513F" width="45" height="45"/>
	<rect id="prayer-room" x="572" y="526" fill="#5E513F" width="45" height="45"/>
	<rect id="telephone" x="468" y="163" fill="#5E513F" width="45" height="45"/>
</g>
</svg>
