<?xml version="1.0" encoding="utf-8"?>
<!-- Generator: Adobe Illustrator 16.0.0, SVG Export Plug-In . SVG Version: 6.00 Build 0)  -->
<!DOCTYPE svg PUBLIC "-//W3C//DTD SVG 1.1//EN" "http://www.w3.org/Graphics/SVG/1.1/DTD/svg11.dtd">
<svg version="1.1" id="Layer_1" xmlns="http://www.w3.org/2000/svg" xmlns:xlink="http://www.w3.org/1999/xlink" x="0px" y="0px"
	 width="677px" height="803.07px" viewBox="0 0 677 803.07" enable-background="new 0 0 677 803.07" xml:space="preserve">
<g id="background">
</g>
<g id="etc">
	<path fill="#DDD1BA" stroke="#3F3628" stroke-miterlimit="10" d="M624.667,348.333v-5.999h-43.318
		C576.311,333.76,566.997,328,556.334,328c-12.997,0-23.996,8.55-27.683,20.333H500V371h30.935
		c3.74,6.772,10.11,11.884,17.732,13.969v128.966L518,513.662V433h-18l-0.001,80.934l0,0L500,168.432l-147.995-0.307l-66.943,63.543
		L189.424,144c-7.735,7.212-14.312,11.298-23.424,23.501c-1.793,2.402-12.3,17.583-18.425,33.403
		c-5.593,14.446-6.895,29.306-7.442,37.856l0.367,33.991H121l0.333,326.348l3,0.166v1.502L119,604.431v5.668l-4.333,4.332l3,5.334
		l-3,4.666l2,4.668l-2,5.666l4.833,5l-1.833,5.666l4,3.334l0.333,6.334l6,2.666v6.666h7v6.334h8l2.667,5h5.667l4.333,4.334l5.333-2
		l5,3.666l4.667-3l5.667,3l4.667-4.334l5.667,1.669l3.667-5.669l2.667,0.334v3l314.606,35.556l-1.772,12.278l23.25,1.007
		l0.069-11.104L603,723.099l19.333-177.766h-38.75V514.25l-2.225-0.021c0.695-2.736,0.975-5.281,0.975-8.396
		c0-13.531-7.238-24.5-16.166-24.5c-0.393,0-0.781,0.027-1.167,0.07v-96.722c11.782-3.685,20.334-14.685,20.334-27.682
		c0-3.039-0.47-5.967-1.336-8.72c0.005,0.018,0.012,0.034,0.018,0.052L624.667,348.333L624.667,348.333z"/>
	<polygon fill="#CCBB9A" stroke="#A58C65" stroke-miterlimit="10" points="616.667,545.333 616.667,514.335 583.583,514.25 
		583.583,545.333 	"/>
	<path fill="#CCBB9A" stroke="#A58C65" stroke-miterlimit="10" d="M635,251c0-0.169-0.009-0.333-0.011-0.5h-63.655v3.5h52.333l0,0
		l0,0v21.75C628.47,272.135,635,264.703,635,251z"/>
	<rect x="474.334" y="366" fill="#CCBB9A" stroke="#A58C65" stroke-miterlimit="10" width="25.666" height="35.535"/>
	<line fill="none" stroke="#A58C65" stroke-miterlimit="10" x1="500" y1="316.667" x2="500" y2="366"/>
	<rect x="474.334" y="366" fill="#CCBB9A" stroke="#A58C65" stroke-miterlimit="10" width="25.666" height="35.535"/>
	<line fill="none" stroke="#A58C65" stroke-miterlimit="10" x1="500" y1="366" x2="500" y2="401.535"/>
	<polygon fill="#CCBB9A" stroke="#A58C65" stroke-miterlimit="10" points="390.125,45 359.667,44.667 359.667,81.25 379.625,81.25 
		379.625,81.25 390.125,81.25 	"/>
	<polygon fill="#CCBB9A" stroke="#A58C65" stroke-miterlimit="10" points="379.625,106 351.5,106 351.5,167.75 388,167.75 388,106 	
		"/>
	<ellipse fill="#CCBB9A" stroke="#A58C65" stroke-miterlimit="10" cx="386.371" cy="426.5" rx="32.629" ry="20.833"/>
	<ellipse fill="#CCBB9A" stroke="#A58C65" stroke-miterlimit="10" cx="386.371" cy="279.25" rx="32.629" ry="20.833"/>
	<path fill="#CCBB9A" stroke="#A58C65" stroke-miterlimit="10" d="M178.181,251.819h30.5c0,0,5-21.891,16.5-38.695
		c-11-9.305-24.65-20.305-24.65-20.305S182.879,218.819,178.181,251.819z"/>
	<polygon fill="#CCBB9A" stroke="#A58C65" stroke-miterlimit="10" points="259.667,128.177 285.333,145 303.75,108.667 
		274.667,99.25 	"/>
	<polygon fill="#CCBB9A" stroke="#A58C65" stroke-miterlimit="10" points="141.998,487.667 121.247,487.531 121.247,513.667 
		141.667,513.667 	"/>
	<polygon fill="#CCBB9A" stroke="#A58C65" stroke-miterlimit="10" points="121.247,513.667 121.333,540 141.667,540 
		141.667,513.667 	"/>
	<path fill="#CCBB9A" stroke="#A58C65" stroke-miterlimit="10" d="M517.404,618.419c-3.06,5.773-11.333,9.914-21.07,9.914
		c-10.329,0-19.016-4.658-21.569-10.982c-3.174,4.313-5.053,9.638-5.053,15.398c0,14.361,11.64,26,26,26s26-11.639,26-26
		C521.712,627.453,520.124,622.529,517.404,618.419z"/>
	<rect x="474.334" y="304" fill="#CCBB9A" stroke="#A58C65" stroke-miterlimit="10" width="25.666" height="35.535"/>
	<path fill="#CCBB9A" stroke="#A58C65" stroke-miterlimit="10" d="M215.206,568.613l18.466-14.57
		c-16.455-12.996-34.374-17.037-43.082-8.658c-8.01,7.709-5.867,23.67,4.078,39.437L215.206,568.613L215.206,568.613z"/>
	<path fill="#CCBB9A" stroke="#A58C65" stroke-miterlimit="10" d="M606.75,121.333h-0.083c0,0,0.034-0.036,0.083-0.087l0,0
		c1.096-1.155,13.916-15.057,13.916-33.246c0-19-29.667-54-64-39.667c-9.99,4.261-14.333,8.333-14.333,8.333V39.334h-0.083h-30
		l-0.25,6h-93.334v-6h-32V45h3.459v36.25h-10.5V106H388v61.75L500,168v0.25h106.75V121.333z"/>
	<path fill="#CCBB9A" stroke="#A58C65" stroke-miterlimit="10" d="M620.333,219h4.334v-97.667H606.75v46.917H500v82.083h134.986
		C634.688,229.126,620.333,219,620.333,219z"/>
	<polygon fill="#CCBB9A" stroke="#A58C65" stroke-miterlimit="10" points="121.333,578.917 121.333,598.667 138.872,598.75 
		138.872,590 138.917,590 138.917,578.917 	"/>
	<polygon id="_x33_01b-c" fill="#CCBB9A" stroke="#A58C65" stroke-miterlimit="10" points="194.5,666.25 194.5,677.185 
		251.667,683.093 252.615,671.337 	"/>
	<path fill="#CCBB9A" stroke="#A58C65" stroke-miterlimit="10" d="M253.866,577.488l0.06-0.064
		c-3.06-5.135-6.957-10.279-11.61-15.145c-2.913-3.045-5.949-5.799-9.035-8.234l-18.466,14.57l0.163,0.179l-20.31,16.021
		c2.892,4.584,6.438,9.149,10.592,13.493c5.438,5.688,11.299,10.341,17.13,13.845l0.091,0.133
		c13.999,8.271,27.765,9.881,35.008,2.812c0.018-0.018,0.032-0.039,0.05-0.057l-0.197-0.217
		C264.694,607.271,262.855,592.419,253.866,577.488z"/>
	<path id="_x34_b-7" fill="#CCBB9A" stroke="#A58C65" stroke-miterlimit="10" d="M228.75,215.75l-3.569-2.626
		c-11.5,16.805-16.5,38.695-16.5,38.695s7.569,2.218,9.319-1.551c-0.25-4.269,0-18.201,0-18.201L228.75,215.75z"/>
	<path id="_x34_b-8" fill="#CCBB9A" stroke="#A58C65" stroke-miterlimit="10" d="M219.75,190.66l-13.25-2.16l-5.97,4.319
		c0,0,3.43,2.764,8.237,6.693l19.983,16.238l1.87-14.75L219.75,190.66z"/>
</g>
<g id="rooms">
	<polygon id="r417" fill="#AA9774" stroke="#725D41" stroke-miterlimit="10" points="268.006,369.25 231.523,369.25 231.35,398 
		268.004,398 	"/>
	<polygon id="r415" fill="#AA9774" stroke="#725D41" stroke-miterlimit="10" points="231.168,428 230.983,458.5 268.001,458.5 
		268.002,428 	"/>
	<polygon id="r413-414" fill="#AA9774" stroke="#725D41" stroke-miterlimit="10" points="230.983,458.5 230.62,518.667 
		248.357,518.667 267.999,502 268.001,458.5 	"/>
	<path id="r422a" fill="#AA9774" stroke="#725D41" stroke-miterlimit="10" d="M268.013,250.703l-15.781-15.953h-19.853
		c-0.031,0.267-0.045,0.417-0.045,0.417l-0.212,35.083h35.89L268.013,250.703z"/>
	<polygon id="r420" fill="#AA9774" stroke="#725D41" stroke-miterlimit="10" points="268.011,279.25 232.067,279.25 231.757,330.5 
		268.008,330.5 	"/>
	<polygon id="r418b" fill="#AA9774" stroke="#725D41" stroke-miterlimit="10" points="231.706,339 231.617,353.75 268.007,353.75 
		268.008,339 	"/>
	<path id="r422b" fill="#AA9774" stroke="#725D41" stroke-miterlimit="10" d="M285.062,231.668l-31.874-29.218
		c0,0-10.554,8.616-15.355,15.551c-3.975,5.741-5.218,14.728-5.455,16.749h19.853l0,0l0,0l15.781,15.953v-2.697L285.062,231.668z"/>
	<polygon id="r464" fill="#AA9774" stroke="#725D41" stroke-miterlimit="10" points="144.583,541.167 141.917,541.167 
		144.583,541.167 121.333,541.083 121.333,578.917 138.917,578.917 138.917,590 152,589.75 156.667,587.175 156.667,541.167 	"/>
	<polygon id="r432" fill="#AA9774" stroke="#725D41" stroke-miterlimit="10" points="121.13,399 121.159,428.001 121.161,429.5 
		156.583,429.5 156.554,399 	"/>
	<polygon id="r430-431a" fill="#AA9774" stroke="#725D41" stroke-miterlimit="10" points="156.5,342 144,342 144,347.667 
		121.078,347.667 121.114,383.75 156.54,383.75 	"/>
	<polygon id="r433" fill="#AA9774" stroke="#725D41" stroke-miterlimit="10" points="121.161,429.5 121.203,457.5 156.609,457.5 
		156.583,429.5 	"/>
	<polygon id="r434a" fill="#AA9774" stroke="#725D41" stroke-miterlimit="10" points="121.203,457.5 121.226,473.5 156.624,473.5 
		156.609,457.5 	"/>
	<polygon id="r434b" fill="#AA9774" stroke="#725D41" stroke-miterlimit="10" points="141.667,518.667 156.667,518.667 
		156.637,487.667 156.624,473.5 121.226,473.5 121.247,487.531 141.998,487.667 141.998,487.667 	"/>
	<path id="r412" fill="#AA9774" stroke="#725D41" stroke-miterlimit="10" d="M315.333,544.167l-28,25.166l-0.327,9.439
		c0,0,15.053,1.543,35.311,3.614l4.442-37.051L315.333,544.167z"/>
	<path id="r411" fill="#AA9774" stroke="#725D41" stroke-miterlimit="10" d="M326.759,545.339l-4.446,37.051
		c12.188,1.25,26.262,2.691,40.07,4.105l4.717-37.017L326.759,545.339z"/>
	<path id="r408-410" fill="#AA9774" stroke="#725D41" stroke-miterlimit="10" d="M430.667,556.001l-63.566-6.521l-4.717,37.018
		c30.492,3.119,59.719,6.104,64.617,6.58L430.667,556.001z"/>
	<polygon id="r401" fill="#AA9774" stroke="#725D41" stroke-miterlimit="10" points="255.833,648.166 251.667,683.093 
		307.25,689.25 310.925,653.625 	"/>
	<path id="power-mall-ultra" fill="#AA9774" stroke="#725D41" stroke-miterlimit="10" d="M500.333,556.667
		c0,0-0.333-128.012-0.333-155.132h-25.666V393v-17.5H268.006l-0.001,17.5L268,502l-19.643,16.668H230.62v5.334
		c0,0,31.676,13.84,51.547,54.332l4.839,0.438l0.327-9.438l28-25.168L430.666,556L427,593.076c0,0,82.865,7.684,87.117,9.121
		l4.55-45.195L500.333,556.667z M386.371,447.333c-18.021,0-32.629-9.326-32.629-20.832s14.604-20.834,32.629-20.834
		c18.021,0,32.629,9.328,32.629,20.834S404.392,447.333,386.371,447.333z"/>
	<path id="paragon-living" fill="#AA9774" stroke="#725D41" stroke-miterlimit="10" d="M500,168l-148.236-0.25l-83.75,80.255
		L268.006,375.5h206.328V366H500v-26.465h-25.666V304H500V168z M386.371,300.083c-18.021,0-32.629-9.327-32.629-20.833
		c0-0.42,0.021-0.836,0.062-1.25c1.018-10.923,15.203-19.583,32.565-19.583s31.552,8.66,32.562,19.583
		c0.038,0.414,0.063,0.83,0.063,1.25C419,290.756,404.392,300.083,386.371,300.083z"/>
	<path id="r404" fill="#AA9774" stroke="#725D41" stroke-miterlimit="10" d="M396.339,662.28
		c-11.888-1.227-23.851-2.453-34.79-3.576l-4.492,36.497l35.361,4.104L396.339,662.28z"/>
	<path id="r402-403" fill="#AA9774" stroke="#725D41" stroke-miterlimit="10" d="M315.648,653.998l-3.563,35.979l44.972,5.228
		l4.492-36.497C335.752,656.055,315.648,653.998,315.648,653.998z"/>
	<path id="r405-407" fill="#AA9774" stroke="#725D41" stroke-miterlimit="10" d="M472.001,670.166
		c-2.474-0.332-38.704-4.082-75.662-7.886l-3.921,37.025l76.242,8.857L472.001,670.166z"/>
	<path id="r426-427" fill="#AA9774" stroke="#725D41" stroke-miterlimit="10" d="M140.5,237c0,36,0,36,0,36H121v4l0.001,1h35.353
		c1.247-14.308,3.641-29.205,7.979-42.333c0.894-2.704,1.875-5.401,2.91-8.065l-25.533-5.064
		C140.952,227.166,140.5,231.999,140.5,237z"/>
	<path id="r424-425" fill="#AA9774" stroke="#725D41" stroke-miterlimit="10" d="M170.667,174.333l-2,2.338l-5.933-4.168
		c0,0-16.325,21.344-21.024,50.034l25.533,5.064c8.12-20.902,19.744-39.668,21.531-41.602L170.667,174.333z"/>
	<path id="r428a" fill="#AA9774" stroke="#725D41" stroke-miterlimit="10" d="M156.286,278.718c0.02-0.238,0.047-0.479,0.068-0.718
		h-35.353l0.027,16.667h35.315L156.286,278.718z"/>
	<polygon id="r428b" fill="#AA9774" stroke="#725D41" stroke-miterlimit="10" points="156.343,294.667 121.028,294.667 
		121.047,306.516 121.031,306.516 121.038,308.667 156.393,308.667 	"/>
	<polygon id="r429a" fill="#AA9774" stroke="#725D41" stroke-miterlimit="10" points="156.393,308.667 121.038,308.667 
		121.078,322.5 121.078,324 156.447,324 	"/>
	<path id="r423" fill="#AA9774" stroke="#725D41" stroke-miterlimit="10" d="M189.424,144c0,0-18.174,15.375-21.753,21.564
		c6.25,4.75,24.079,17.187,24.079,17.187l18.811-19.375L189.424,144z"/>
	<g id="r421-4b-5">
		<polygon fill="#AA9774" stroke="#725D41" stroke-miterlimit="10" points="268.012,270.25 232.122,270.25 232.067,279.25 
			268.011,279.25 		"/>
		<rect x="173.25" y="270" fill="#AA9774" stroke="#725D41" stroke-miterlimit="10" width="39.25" height="22.5"/>
	</g>
	<g id="r419a-4b-3">
		<polygon fill="#AA9774" stroke="#725D41" stroke-miterlimit="10" points="268.008,330.5 231.757,330.5 231.706,339 268.008,339 		
			"/>
		<rect x="173.25" y="321.75" fill="#AA9774" stroke="#725D41" stroke-miterlimit="10" width="39.25" height="23.75"/>
	</g>
	<g id="r429b-4b-4">
		<polygon fill="#AA9774" stroke="#725D41" stroke-miterlimit="10" points="121.078,324 121.078,338.672 156.5,338.672 156.447,324 
					"/>
		<rect x="173.25" y="300" fill="#AA9774" stroke="#725D41" stroke-miterlimit="10" width="39.25" height="21.75"/>
	</g>
	<g id="r416c-4b-2a">
		<polygon fill="#AA9774" stroke="#725D41" stroke-miterlimit="10" points="231.35,398 231.286,408.5 268.003,408.5 268.004,398 		
			"/>
		<polygon fill="#AA9774" stroke="#725D41" stroke-miterlimit="10" points="212.5,356.25 173.25,356.25 173.25,378.5 193.5,378.5 
			193.5,378.25 193.5,378.5 212.5,378.5 		"/>
	</g>
	<g id="r431b-4b1-1">
		<polygon fill="#AA9774" stroke="#725D41" stroke-miterlimit="10" points="121.114,383.75 121.13,399 156.554,399 156.54,383.75 		
			"/>
		<rect x="173.25" y="378.5" fill="#AA9774" stroke="#725D41" stroke-miterlimit="10" width="20.25" height="23.035"/>
	</g>
	<g id="r416b-4b1-2">
		<polygon fill="#AA9774" stroke="#725D41" stroke-miterlimit="10" points="231.286,408.5 231.229,418 268.003,418 268.003,408.5 		
			"/>
		<rect x="193.5" y="378.5" fill="#AA9774" stroke="#725D41" stroke-miterlimit="10" width="19" height="23.035"/>
	</g>
	<g id="r437-416a">
		<polygon fill="#AA9774" stroke="#725D41" stroke-miterlimit="10" points="231.229,418 231.168,428 268.002,428 268.003,418 		"/>
		<path fill="#AA9774" stroke="#725D41" stroke-miterlimit="10" d="M214,417.8c0-2.514-0.924-4.551-2.064-4.551h-36.122
			c-1.14,0-2.064,2.037-2.064,4.551v39.7H214V417.8z"/>
	</g>
	<path id="r438" fill="#AA9774" stroke="#725D41" stroke-miterlimit="10" d="M173.75,457.5v39.949c0,2.514,0.924,4.551,2.064,4.551
		h36.122c1.14,0,2.064-2.037,2.064-4.551V457.5H173.75z"/>
	<path id="r465" fill="#AA9774" stroke="#725D41" stroke-miterlimit="10" d="M138.417,598.75c-2.274,0-4.514,0.146-6.72,0.404
		c-5.882,7.651-9.364,17.106-9.364,27.348c0,25.496,21.565,46.166,48.166,46.166c9.338,0,18.049-2.555,25.431-6.963
		c0.366-2.67,0.57-5.391,0.57-8.162C196.5,625.072,170.495,598.75,138.417,598.75z"/>
	<path id="r439a" fill="#AA9774" stroke="#725D41" stroke-miterlimit="10" d="M287.436,593.093
		c-1.648-0.172-3.114,0.957-3.275,2.521l-3.843,37.408c-0.161,1.562,1.046,2.965,2.694,3.135l46.375,4.764l3.919-43.113
		L287.436,593.093z"/>
	<polygon id="r439d" fill="#AA9774" stroke="#725D41" stroke-miterlimit="10" points="333.306,597.806 329.387,640.919 
		378.14,645.927 382.433,602.854 	"/>
	<path id="r439b-c" fill="#AA9774" stroke="#725D41" stroke-miterlimit="10" d="M449.582,609.751l-67.149-6.898l-4.293,43.074
		l67.021,6.888c1.646,0.174,3.11-0.955,3.271-2.521l3.846-37.41C452.438,611.324,451.229,609.921,449.582,609.751z"/>
	<path id="r440a" fill="#AA9774" stroke="#725D41" stroke-miterlimit="10" d="M515.501,683.333h4c0,0,1.608-2.949,1.938-3.311
		c-0.329-0.115-1.938-1.857-1.938-1.857l1.5-1.5l2.333,1.5c33.833-19.666,21-53,21-53h-12.833l-2.955,2.676l-0.014,0.017
		c0.548,2.405,0.854,4.907,0.854,7.483c0,18.601-15.076,33.674-33.673,33.674c-4.139,0-8.101-0.752-11.764-2.112l-0.116,0.1
		l-3,34.334l32.646,3.078L515.501,683.333z"/>
	<path id="r440" fill="#AA9774" stroke="#725D41" stroke-miterlimit="10" d="M555.667,545.333v11.191l-37,0.477l-5,49.666
		c0.082,0.111,0.153,0.229,0.231,0.34c7.298,4.695,12.649,12.133,14.635,20.855c0-0.004,0-0.006-0.001-0.009l0.014-0.016
		l2.955-2.676h12.833c0,0,12.833,33.332-21,53l-2.333-1.5l-1.5,1.5c0,0,1.608,1.742,1.938,1.854
		c-0.329,0.359-1.938,3.312-1.938,3.312h-4l-2.021,21.078l16.854,1.59l-1.181,8.752l73.847,8.6l19.333-178.016L555.667,545.333
		L555.667,545.333z"/>
	<path id="r4b-11" fill="#AA9774" stroke="#725D41" stroke-miterlimit="10" d="M238.358,550.003
		c-9.377-9.133-20.255-14.852-30.246-16.508l0.201,8.033c7.771,1.414,16.624,5.674,25.105,12.315L238.358,550.003z"/>
	<g id="r467-4b-9-4b-10">
		<polygon fill="#AA9774" stroke="#725D41" stroke-miterlimit="10" points="156.667,524.001 144.5,524.001 144.583,541.167 
			156.667,541.167 		"/>
		<path fill="#AA9774" stroke="#725D41" stroke-miterlimit="10" d="M187.932,589.248l6.399-4.98
			c-4.806-7.762-7.715-15.545-8.448-22.348l-8.055,0.732C178.625,571.152,182.055,580.474,187.932,589.248z"/>
		<path fill="#AA9774" stroke="#725D41" stroke-miterlimit="10" d="M185.75,538.722c-6.292,5.525-8.836,14.189-7.922,23.935
			l8.055-0.732c-0.738-6.854,0.734-12.711,4.708-16.537c4.179-4.02,10.481-5.172,17.723-3.854l-0.201-8.033
			C199.482,532.064,191.514,533.662,185.75,538.722z"/>
	</g>
	<path id="r4c-5" fill="#AA9774" stroke="#725D41" stroke-miterlimit="10" d="M212.041,604.689l-4.585-3.439l-3.599,4.801
		l14.601,10.947l3.599-4.799l-2.164-1.623C217.253,608.841,214.623,606.875,212.041,604.689z"/>
	<path id="r4c-4" fill="#AA9774" stroke="#725D41" stroke-miterlimit="10" d="M232.499,617.078l-3.814-1.035l-1.57,5.791
		l17.614,4.773l1.569-5.789l-6.308-1.711C237.585,618.701,235.074,618.017,232.499,617.078z"/>
	<path id="r4c-3" fill="#AA9774" stroke="#725D41" stroke-miterlimit="10" d="M263.973,608.068l-5.003,4.692
		c-0.487,0.729-1.015,1.433-1.629,2.063l0.199,0.219c-0.018,0.018-0.032,0.039-0.05,0.057c-1.119,1.097-2.41,1.953-3.816,2.642
		l-3.005,2.817l4.105,4.373l13.306-12.487L263.973,608.068z"/>
	<path id="r4c-2" fill="#AA9774" stroke="#725D41" stroke-miterlimit="10" d="M265.1,585.845l-5.852,1.324l1.081,4.779
		c0.49,1.696,0.868,3.36,1.126,4.979l1.819,8.043l5.852-1.321L265.1,585.845z"/>
	<path id="r4c-1" fill="#AA9774" stroke="#725D41" stroke-miterlimit="10" d="M253.926,577.423l-0.06,0.064
		c1.24,2.061,2.33,4.112,3.292,6.149l4.744-2.729l-9.112-15.813l-5.198,2.996l0.485,0.842
		C250.271,571.736,252.231,574.58,253.926,577.423z"/>
	<path id="r456" fill="#AA9774" stroke="#725D41" stroke-miterlimit="10" d="M544,330.752V250.5h-44v97.833h28.651
		C531.086,340.55,536.715,334.182,544,330.752z"/>
	<path id="r457-458" fill="#AA9774" stroke="#725D41" stroke-miterlimit="10" d="M624.667,278.667h-6c0,0,2.209-0.815,5-2.917V254
		h-52.333v-3.5H544v80.252c3.743-1.762,7.923-2.751,12.334-2.751c10.662,0,19.973,5.76,25.011,14.333h43.322V278.667z"/>
	<path id="r455" fill="#AA9774" stroke="#725D41" stroke-miterlimit="10" d="M548.667,384.969
		c-7.622-2.085-13.992-7.197-17.732-13.969H500v31h48.667V384.969z"/>
	<polygon id="r453-454" fill="#AA9774" stroke="#725D41" stroke-miterlimit="10" points="548.667,402 500,402 500,433 518,433 
		518,450 548.667,450 	"/>
	<rect id="r452" x="518" y="450" fill="#AA9774" stroke="#725D41" stroke-miterlimit="10" width="30.667" height="33.5"/>
	<polygon id="r451" fill="#AA9774" stroke="#725D41" stroke-miterlimit="10" points="518,483.5 518,513.662 548.667,513.938 
		548.667,483.5 	"/>
	<path id="r459" fill="#AA9774" stroke="#725D41" stroke-miterlimit="10" d="M635,396.668C635,378,619,368,619,368h5.667v-19.667
		h-40.651c0.855,2.737,1.318,5.648,1.318,8.668c0,12.998-8.552,23.997-20.334,27.682V402h69.535
		C634.83,400.296,635,398.52,635,396.668z"/>
	<path id="r460-461" fill="#AA9774" stroke="#725D41" stroke-miterlimit="10" d="M624.333,426.667h-6
		c0,0,13.519-9.199,16.202-24.667H565v47h59.333V426.667z"/>
	<path id="r462" fill="#AA9774" stroke="#725D41" stroke-miterlimit="10" d="M624.333,449H565v32.404
		c0.386-0.041,0.774-0.07,1.167-0.07c2.64,0,5.13,0.965,7.33,2.666h50.836V449z"/>
	<path id="r463" fill="#AA9774" stroke="#725D41" stroke-miterlimit="10" d="M573.497,484c5.243,4.051,8.836,12.305,8.836,21.836
		c0,2.949-0.345,5.775-0.975,8.396l2.225,0.02h40.75V484H573.497z"/>
	<path id="r4b-6" fill="#AA9774" stroke="#725D41" stroke-miterlimit="10" d="M186.657,220.326l0.003-0.013l-5.91-4.563
		c0,0-13.25,26.686-10.5,36.718c5,5.032,7.931,7.032,7.931,7.032s16.819,0,18.819-3.25c0-4.431,0-4.431,0-4.431h-18.819
		C179.84,240.167,183.115,229.396,186.657,220.326z"/>
	<path id="exotique-thai" fill="#AA9774" stroke="#725D41" stroke-miterlimit="10" d="M359.667,81.25V40.015l-118.331-0.294
		c0,0-1.554,36.833-19.287,64.14c-14.615,22.504-24.183,32.268-32.625,40.139l95.638,87.668L351.5,167.75V106h28.125V81.25H359.667z
		 M285.333,145l-25.667-16.823l15-28.927l29.083,9.417L285.333,145z"/>
</g>
<g id="signs">
	<g id="atm">
		<rect id="atm-2" x="548.001" y="517.833" fill="#5E513F" width="45" height="45"/>
	</g>
	<g id="toilet">
		<rect id="toilet-1" x="351.684" y="40" fill="#5E513F" width="45" height="45"/>
		<rect id="toilet-2" x="465.684" y="359.752" fill="#5E513F" width="45" height="45"/>
		<rect id="toilet-3" x="579.684" y="504.5" fill="#5E513F" width="45" height="45"/>
		<rect id="toilet-4" x="105.684" y="477" fill="#5E513F" width="45" height="45"/>
	</g>
	<g id="lift">
		<rect id="elevator-2" x="105.684" y="504.5" fill="#5E513F" width="45" height="45"/>
		<rect id="elevator-3" x="500.181" y="504.5" fill="#5E513F" width="45" height="45"/>
		<rect id="elevator-4" x="135.5" y="584" fill="#5E513F" width="45" height="45"/>
		<rect id="elevator-5" x="497.181" y="687.492" fill="#5E513F" width="45" height="45"/>
		<rect id="elevator-1" x="347.166" y="110" fill="#5E513F" width="45" height="45"/>
	</g>
	<g id="escalator">
		<rect id="escalator-1" x="255.5" y="98.5" fill="#5E513F" width="45" height="45"/>
		<rect id="escalator-2" x="382.184" y="256" fill="#5E513F" width="45" height="45"/>
		<rect id="escalator-3" x="179.5" y="218" fill="#5E513F" width="45" height="45"/>
		<rect id="escalator-4" x="172" y="544.333" fill="#5E513F" width="45" height="45"/>
		<rect id="escalator-5" x="457.181" y="631" fill="#5E513F" width="45" height="45"/>
		<rect id="escalator-6" x="477.681" y="596.5" fill="#5E513F" width="45" height="45"/>
		<rect id="escalator-7" x="385" y="403.5" fill="#5E513F" width="45" height="45"/>
		<rect id="escalator-8" x="343" y="404.751" fill="#5E513F" width="45" height="45"/>
		<rect id="escalator-9" x="343" y="256" fill="#5E513F" width="45" height="45"/>
		<rect id="escalator-10_1_" x="169.5" y="188" fill="#5E513F" width="45" height="45"/>
	</g>
</g>
</svg>
