<?xml version="1.0" encoding="utf-8"?>
<!-- Generator: Adobe Illustrator 16.0.0, SVG Export Plug-In . SVG Version: 6.00 Build 0)  -->
<!DOCTYPE svg PUBLIC "-//W3C//DTD SVG 1.1//EN" "http://www.w3.org/Graphics/SVG/1.1/DTD/svg11.dtd">
<svg version="1.1" id="Layer_1" xmlns="http://www.w3.org/2000/svg" xmlns:xlink="http://www.w3.org/1999/xlink" x="0px" y="0px"
	 width="677px" height="803.07px" viewBox="0 0 677 803.07" enable-background="new 0 0 677 803.07" xml:space="preserve">
<g id="background">
</g>
<g id="original" display="none">
	
		<image display="inline" overflow="visible" enable-background="new    " width="556" height="706" xlink:href="3D32B5A1.png"  transform="matrix(0.9209 0 0 0.9624 130.9946 44.8774)">
	</image>
</g>
<g id="etc">
	<g>
		<polygon fill="#D1D1D1" stroke="#A5A5A5" stroke-miterlimit="10" points="583.583,545.333 616.667,545.333 616.667,514.335 
			583.583,514.25 		"/>
		<path fill="#D1D1D1" stroke="#A5A5A5" stroke-miterlimit="10" d="M635,251c0-0.169-0.009-0.333-0.011-0.5h-63.655v3.5h52.333l0,0
			l0,0v21.75C628.47,272.135,635,264.703,635,251z"/>
		<rect x="474.334" y="366" fill="#D1D1D1" stroke="#A5A5A5" stroke-miterlimit="10" width="25.666" height="35.535"/>
		<line fill="none" stroke="#A5A5A5" stroke-miterlimit="10" x1="500" y1="316.667" x2="500" y2="366"/>
		<rect x="474.334" y="366" fill="#D1D1D1" stroke="#A5A5A5" stroke-miterlimit="10" width="25.666" height="35.535"/>
		<line fill="none" stroke="#A5A5A5" stroke-miterlimit="10" x1="500" y1="366" x2="500" y2="401.535"/>
		<polygon fill="#D1D1D1" stroke="#A5A5A5" stroke-miterlimit="10" points="390.125,45 359.667,44.667 359.667,81.25 379.625,81.25 
			379.625,81.25 390.125,81.25 		"/>
		<polygon fill="#D1D1D1" stroke="#A5A5A5" stroke-miterlimit="10" points="379.625,106 351.5,106 351.5,167.75 388,167.75 388,106 
					"/>
		<ellipse fill="#D1D1D1" stroke="#A5A5A5" stroke-miterlimit="10" cx="386.371" cy="426.5" rx="32.629" ry="20.833"/>
		<ellipse fill="#D1D1D1" stroke="#A5A5A5" stroke-miterlimit="10" cx="386.371" cy="279.25" rx="32.629" ry="20.833"/>
		<path fill="#D1D1D1" stroke="#A5A5A5" stroke-miterlimit="10" d="M178.181,251.819h30.5c0,0,5-21.891,16.5-38.695
			c-11-9.305-24.65-20.305-24.65-20.305S182.879,218.819,178.181,251.819z"/>
		<polygon fill="#D1D1D1" stroke="#A5A5A5" stroke-miterlimit="10" points="259.667,128.177 285.333,145 303.75,108.667 
			274.667,99.25 		"/>
		<polygon fill="#D1D1D1" stroke="#A5A5A5" stroke-miterlimit="10" points="141.998,487.667 121.247,487.531 121.247,513.667 
			141.667,513.667 		"/>
		<polygon fill="#D1D1D1" stroke="#A5A5A5" stroke-miterlimit="10" points="121.247,513.667 121.333,540 141.667,540 
			141.667,513.667 		"/>
		<path fill="#D1D1D1" stroke="#A5A5A5" stroke-miterlimit="10" d="M517.404,618.419c-3.058,5.773-11.333,9.914-21.07,9.914
			c-10.329,0-19.016-4.658-21.569-10.982c-3.174,4.313-5.053,9.636-5.053,15.398c0,14.361,11.64,26,26,26s26-11.639,26-26
			C521.712,627.453,520.124,622.529,517.404,618.419z"/>
		<rect x="474.334" y="304" fill="#D1D1D1" stroke="#A5A5A5" stroke-miterlimit="10" width="25.666" height="35.535"/>
		<path fill="#D1D1D1" stroke="#A5A5A5" stroke-miterlimit="10" d="M215.206,568.613l18.466-14.57
			c-16.455-12.996-34.374-17.037-43.082-8.658c-8.01,7.709-5.867,23.67,4.078,39.435L215.206,568.613L215.206,568.613z"/>
		<path fill="#D1D1D1" stroke="#A5A5A5" stroke-miterlimit="10" d="M215.206,568.613l-20.538,16.203
			c2.892,4.584,6.438,9.149,10.592,13.493c5.438,5.687,11.299,10.341,17.13,13.843l0.091,0.133
			c13.999,8.272,27.765,9.881,35.008,2.813c0.018-0.018,0.032-0.039,0.05-0.057L215.206,568.613z"/>
		<path fill="#D1D1D1" stroke="#A5A5A5" stroke-miterlimit="10" d="M606.75,121.333h-0.083c0,0,0.034-0.036,0.083-0.087l0,0
			c1.096-1.155,13.916-15.057,13.916-33.246c0-19-29.667-54-64-39.667c-9.99,4.261-14.333,8.333-14.333,8.333V39.334h-0.083h-30
			l-0.25,6h-93.334v-6h-32V45h3.459v36.25h-10.5V106H388v61.75L500,168v0.25h106.75V121.333z"/>
		<path fill="#D1D1D1" stroke="#A5A5A5" stroke-miterlimit="10" d="M620.333,219h4.334v-97.667H606.75v46.917H500v82.083h134.986
			C634.688,229.126,620.333,219,620.333,219z"/>
		<polygon fill="#D1D1D1" stroke="#A5A5A5" stroke-miterlimit="10" points="121.333,578.917 121.333,598.667 138.872,598.75 
			138.872,590 138.917,590 138.917,578.917 		"/>
		<polygon id="_x33_01b-c" fill="#D1D1D1" stroke="#A5A5A5" stroke-miterlimit="10" points="194.5,666.25 194.5,677.185 
			251.667,683.093 252.615,671.337 		"/>
		<rect x="617" y="513.333" fill="#D1D1D1" stroke="#A5A5A5" stroke-miterlimit="10" width="7.333" height="0.916"/>
		<path fill="#D1D1D1" stroke="#A5A5A5" stroke-miterlimit="10" d="M548.417,513.937l-30.667-0.274v-0.328h-18.001v0.6v-0.6H499
			h0.749l0.001-344.9l-147.995-0.307l-66.943,63.543L189.174,144c-7.735,7.212-14.312,11.298-23.424,23.501
			c-1.793,2.402-12.3,17.583-18.425,33.403c-5.593,14.446-6.895,29.306-7.442,37.856l0.367,33.991h-19.5l0.333,326.348l3,0.166
			v1.502l-5.333,3.666v5.666l-4.333,4.334l3,5.334l-3,4.666l2,4.666l-2,5.668l4.833,5l-1.833,5.666l4,3.334l0.333,6.332l6,2.668
			v6.666h7v6.334h8l2.667,5h5.667l4.333,4.332l5.333-2l5,3.668l4.667-3l5.667,3l4.667-4.334l5.667,1.666l3.667-5.666l2.667,0.334v3
			l314.606,35.554l-1.772,12.278l23.25,1.007l0.069-11.103l73.848,8.596l19.333-177.764h-38.75V514.25l-2.225-0.021
			c0.077-0.303,0.131-0.6,0.196-0.896h-32.89v0.604h-0.001V513.937z"/>
	</g>
	<rect x="499.75" y="433" fill="#CCBB9A" stroke="#A58C65" stroke-miterlimit="10" width="18" height="80.334"/>
	<path fill="#D1D1D1" stroke="#A5A5A5" stroke-miterlimit="10" d="M634.535,402c0.295-1.704,0.465-3.48,0.465-5.332
		C635,378,619,368,619,368h-2v34v47v35v29.334h7.333V484v-35v-22.332h-6C618.333,426.667,631.852,417.468,634.535,402z"/>
	<path fill="#CCBB9A" stroke="#A58C65" stroke-miterlimit="10" d="M584.686,361.584c0.26-1.546,0.398-3.131,0.398-4.75
		c0-15.924-12.966-28.833-28.958-28.833c-15.993,0-28.958,12.909-28.958,28.833c0,3.801,0.746,7.427,2.089,10.75H499.75v6H500v0.25
		h32.742c3.768,5.129,9.192,8.967,15.495,10.741c0.005,0.112,0.007,0.215,0.013,0.33l0.167,128.763h32.89
		c0.54-2.406,0.776-4.729,0.776-7.498c0-13.531-7.238-24.5-16.166-24.5c-0.393,0-0.781,0.027-1.167,0.07v-96.685V384.7
		c-0.018-0.11-0.034-0.21-0.052-0.319c8.08-2.49,14.643-8.409,17.982-16.047H617h2h5.667v-6.75H584.686z"/>
	<g>
		<polygon id="_x34_17" fill="#D1D1D1" stroke="#A5A5A5" stroke-miterlimit="10" points="268.006,369.25 231.523,369.25 231.35,398 
			268.004,398 		"/>
		<polygon id="_x34_16c" fill="#D1D1D1" stroke="#A5A5A5" stroke-miterlimit="10" points="231.35,398 231.286,408.5 268.003,408.5 
			268.004,398 		"/>
		<polygon id="_x34_16b" fill="#D1D1D1" stroke="#A5A5A5" stroke-miterlimit="10" points="231.286,408.5 231.229,418 268.003,418 
			268.003,408.5 		"/>
		<polygon id="_x34_16a" fill="#D1D1D1" stroke="#A5A5A5" stroke-miterlimit="10" points="231.229,418 231.168,428 268.002,428 
			268.003,418 		"/>
		<polygon id="_x34_15" fill="#D1D1D1" stroke="#A5A5A5" stroke-miterlimit="10" points="231.168,428 230.983,458.5 268.001,458.5 
			268.002,428 		"/>
		<polygon id="_x34_13-414" fill="#D1D1D1" stroke="#A5A5A5" stroke-miterlimit="10" points="230.983,458.5 230.62,518.667 
			248.357,518.667 267.999,502 268.001,458.5 		"/>
		<path id="_x34_22a" fill="#D1D1D1" stroke="#A5A5A5" stroke-miterlimit="10" d="M268.013,250.703l-15.781-15.953h-19.853
			c-0.031,0.267-0.045,0.417-0.045,0.417l-0.212,35.083h35.89L268.013,250.703z"/>
		<polygon id="_x34_21" fill="#D1D1D1" stroke="#A5A5A5" stroke-miterlimit="10" points="268.012,270.25 232.122,270.25 
			232.067,279.25 268.011,279.25 		"/>
		<polygon id="_x34_20-419b" fill="#D1D1D1" stroke="#A5A5A5" stroke-miterlimit="10" points="268.011,279.25 232.067,279.25 
			231.757,330.5 268.008,330.5 		"/>
		<polygon id="_x34_18" fill="#D1D1D1" stroke="#A5A5A5" stroke-miterlimit="10" points="231.706,339 231.617,353.75 
			268.007,353.75 268.008,339 		"/>
		<polygon id="_x34_19a" fill="#D1D1D1" stroke="#A5A5A5" stroke-miterlimit="10" points="268.008,330.5 231.757,330.5 231.706,339 
			268.008,339 		"/>
		<path id="_x34_22b" fill="#D1D1D1" stroke="#A5A5A5" stroke-miterlimit="10" d="M285.062,231.668l-31.874-29.218
			c0,0-10.554,8.616-15.355,15.551c-3.975,5.741-5.218,14.728-5.455,16.749h19.853l0,0l0,0l15.781,15.953v-2.697L285.062,231.668z"
			/>
		<polygon id="_x34_67" fill="#D1D1D1" stroke="#A5A5A5" stroke-miterlimit="10" points="156.667,524.001 144.5,524.001 
			144.583,541.167 156.667,541.167 		"/>
		<polygon id="_x34_64" fill="#D1D1D1" stroke="#A5A5A5" stroke-miterlimit="10" points="144.583,541.167 141.917,541.167 
			144.583,541.167 121.333,541.083 121.333,578.917 138.917,578.917 138.917,590 152,589.75 156.667,587.175 156.667,541.167 		"/>
		<polygon id="_x34_32" fill="#D1D1D1" stroke="#A5A5A5" stroke-miterlimit="10" points="121.13,399 121.159,428.001 121.161,429.5 
			156.583,429.5 156.554,399 		"/>
		<polygon id="_x34_30-431a" fill="#D1D1D1" stroke="#A5A5A5" stroke-miterlimit="10" points="156.5,342 144,342 144,347.667 
			121.078,347.667 121.114,383.75 156.54,383.75 		"/>
		<polygon id="_x34_31b" fill="#D1D1D1" stroke="#A5A5A5" stroke-miterlimit="10" points="121.114,383.75 121.13,399 156.554,399 
			156.54,383.75 		"/>
		<polygon id="_x34_33" fill="#D1D1D1" stroke="#A5A5A5" stroke-miterlimit="10" points="121.161,429.5 121.203,457.5 
			156.609,457.5 156.583,429.5 		"/>
		<polygon id="_x34_34a" fill="#D1D1D1" stroke="#A5A5A5" stroke-miterlimit="10" points="121.203,457.5 121.226,473.5 
			156.624,473.5 156.609,457.5 		"/>
		<polygon id="_x34_34b-434c" fill="#D1D1D1" stroke="#A5A5A5" stroke-miterlimit="10" points="141.667,518.667 156.667,518.667 
			156.637,487.667 156.624,473.5 121.226,473.5 121.247,487.531 141.998,487.667 141.998,487.667 		"/>
		<path id="_x34_12" fill="#D1D1D1" stroke="#A5A5A5" stroke-miterlimit="10" d="M315.333,544.167l-28,25.166l-0.327,9.439
			c0,0,15.053,1.543,35.309,3.616l4.444-37.051L315.333,544.167z"/>
		<path id="_x34_11" fill="#D1D1D1" stroke="#A5A5A5" stroke-miterlimit="10" d="M326.759,545.339l-4.446,37.051
			c12.188,1.25,26.26,2.691,40.07,4.105l4.717-37.016L326.759,545.339z"/>
		<path id="_x34_08-410" fill="#D1D1D1" stroke="#A5A5A5" stroke-miterlimit="10" d="M430.667,556.001l-63.566-6.521l-4.717,37.017
			c30.492,3.119,59.719,6.104,64.617,6.58L430.667,556.001z"/>
		<polygon id="_x34_01" fill="#D1D1D1" stroke="#A5A5A5" stroke-miterlimit="10" points="255.833,648.166 251.667,683.093 
			307.25,689.25 310.925,653.625 		"/>
		<path fill="#D1D1D1" stroke="#A5A5A5" stroke-miterlimit="10" d="M500.025,422.667L500.025,422.667
			c-0.018-9.166-0.025-16.576-0.025-21.132h-25.666V393v-17.5H268.006l-0.001,17.5L268,502l-19.643,16.668H230.62v5.334
			c0,0,31.676,13.84,51.547,54.332l4.839,0.438l0.327-9.438l28-25.168L430.666,556L427,593.076c0,0,82.865,7.684,87.117,9.121
			l4.55-45.195l-18.334-0.334C500.333,556.667,500.103,468.06,500.025,422.667z M386.371,447.333
			c-18.021,0-32.629-9.326-32.629-20.832s14.606-20.834,32.629-20.834c18.021,0,32.629,9.328,32.629,20.834
			S404.392,447.333,386.371,447.333z"/>
		<path id="paragon-living" fill="#D1D1D1" stroke="#A5A5A5" stroke-miterlimit="10" d="M500,168l-148.236-0.25l-83.75,80.255
			L268.006,375.5h206.328V366H500v-26.465h-25.666V304H500V168z M386.371,300.083c-18.021,0-32.629-9.327-32.629-20.833
			c0-0.42,0.023-0.836,0.063-1.25c1.016-10.923,15.203-19.583,32.565-19.583s31.552,8.66,32.563,19.583
			c0.038,0.414,0.063,0.83,0.063,1.25C419,290.756,404.392,300.083,386.371,300.083z"/>
		<path id="_x34_02-407" fill="#D1D1D1" stroke="#A5A5A5" stroke-miterlimit="10" d="M315.648,653.998l-3.563,35.979l156.575,18.189
			l3.341-38C466.855,669.474,315.648,653.998,315.648,653.998z"/>
		<rect x="379.625" y="106" fill="#D1D1D1" stroke="#A5A5A5" stroke-miterlimit="10" width="8.375" height="0.682"/>
		<path id="_x34_26-427" fill="#D1D1D1" stroke="#A5A5A5" stroke-miterlimit="10" d="M140.5,237c0,36,0,36,0,36H121v4l0.001,1
			h35.353c1.247-14.308,3.641-29.205,7.979-42.333c0.894-2.704,1.875-5.401,2.91-8.065l-25.533-5.064
			C140.952,227.166,140.5,231.999,140.5,237z"/>
		<path id="_x34_24-425" fill="#D1D1D1" stroke="#A5A5A5" stroke-miterlimit="10" d="M170.667,174.333l-2,2.338l-5.933-4.168
			c0,0-16.325,21.344-21.024,50.034l25.533,5.064c8.12-20.902,19.744-39.668,21.531-41.602L170.667,174.333z"/>
		<path id="_x34_28a" fill="#D1D1D1" stroke="#A5A5A5" stroke-miterlimit="10" d="M156.286,278.718
			c0.02-0.238,0.047-0.479,0.068-0.718h-35.353l0.027,16.667h35.315L156.286,278.718z"/>
		<polygon id="_x34_28b" fill="#D1D1D1" stroke="#A5A5A5" stroke-miterlimit="10" points="156.343,294.667 121.028,294.667 
			121.047,306.516 121.031,306.516 121.038,308.667 156.393,308.667 		"/>
		<polygon id="_x34_29b" fill="#D1D1D1" stroke="#A5A5A5" stroke-miterlimit="10" points="121.078,324 121.078,338.672 
			156.5,338.672 156.447,324 		"/>
		<polygon id="_x34_29a" fill="#D1D1D1" stroke="#A5A5A5" stroke-miterlimit="10" points="156.393,308.667 121.038,308.667 
			121.078,322.5 121.078,324 156.447,324 		"/>
		<path id="_x34_23" fill="#D1D1D1" stroke="#A5A5A5" stroke-miterlimit="10" d="M189.424,144c0,0-18.174,15.375-21.753,21.564
			c6.25,4.75,24.079,17.187,24.079,17.187l18.811-19.375L189.424,144z"/>
		<rect id="_x34_b-5" x="173.25" y="270" fill="#D1D1D1" stroke="#A5A5A5" stroke-miterlimit="10" width="39.25" height="22.5"/>
		
			<rect id="_x34_b-3" x="173.25" y="321.75" fill="#D1D1D1" stroke="#A5A5A5" stroke-miterlimit="10" width="39.25" height="23.75"/>
		<rect id="_x34_b-4" x="173.25" y="300" fill="#D1D1D1" stroke="#A5A5A5" stroke-miterlimit="10" width="39.25" height="21.75"/>
		<polygon id="_x34_b-2" fill="#D1D1D1" stroke="#A5A5A5" stroke-miterlimit="10" points="212.5,356.25 173.25,356.25 173.25,378.5 
			193.5,378.5 193.5,378.25 193.5,378.5 212.5,378.5 		"/>
		
			<rect id="_x34_b1-1" x="173.25" y="378.5" fill="#D1D1D1" stroke="#A5A5A5" stroke-miterlimit="10" width="20.25" height="23.035"/>
		<rect id="_x34_b1-2" x="193.5" y="378.5" fill="#D1D1D1" stroke="#A5A5A5" stroke-miterlimit="10" width="19" height="23.035"/>
		<path id="_x34_37" fill="#D1D1D1" stroke="#A5A5A5" stroke-miterlimit="10" d="M214,417.8c0-2.514-0.924-4.551-2.064-4.551
			h-36.122c-1.14,0-2.064,2.037-2.064,4.551v39.7H214V417.8z"/>
		<path id="_x34_38" fill="#D1D1D1" stroke="#A5A5A5" stroke-miterlimit="10" d="M173.75,457.5v39.949
			c0,2.514,0.924,4.551,2.064,4.551h36.122c1.14,0,2.064-2.037,2.064-4.551V457.5H173.75z"/>
		<path id="_x34_65" fill="#D1D1D1" stroke="#A5A5A5" stroke-miterlimit="10" d="M138.417,598.75c-2.274,0-4.514,0.146-6.72,0.404
			c-5.882,7.653-9.364,17.108-9.364,27.348c0,25.496,21.565,46.166,48.166,46.166c9.338,0,18.049-2.555,25.431-6.963
			c0.366-2.67,0.57-5.391,0.57-8.162C196.5,625.072,170.495,598.75,138.417,598.75z"/>
		<path id="_x34_39a" fill="#D1D1D1" stroke="#A5A5A5" stroke-miterlimit="10" d="M287.436,593.093
			c-1.648-0.172-3.114,0.957-3.275,2.521l-3.843,37.408c-0.161,1.563,1.046,2.965,2.694,3.135l46.375,4.764l3.919-43.113
			L287.436,593.093z"/>
		<polygon id="_x34_39d" fill="#D1D1D1" stroke="#A5A5A5" stroke-miterlimit="10" points="333.306,597.806 329.387,640.919 
			378.14,645.927 382.433,602.853 		"/>
		<path id="_x34_39b-c" fill="#D1D1D1" stroke="#A5A5A5" stroke-miterlimit="10" d="M449.582,609.751l-67.149-6.898l-4.293,43.074
			l67.021,6.887c1.646,0.173,3.111-0.956,3.272-2.52l3.844-37.41C452.438,611.324,451.229,609.921,449.582,609.751z"/>
		<path id="_x34_40a" fill="#D1D1D1" stroke="#A5A5A5" stroke-miterlimit="10" d="M515.501,683.333h4c0,0,1.608-2.949,1.938-3.311
			c-0.329-0.115-1.938-1.857-1.938-1.857l1.5-1.5l2.333,1.5c33.833-19.666,21-53,21-53h-12.833l-2.955,2.676l-0.014,0.015
			c0.548,2.407,0.854,4.909,0.854,7.485c0,18.599-15.076,33.674-33.673,33.674c-4.139,0-8.101-0.752-11.764-2.114l-0.116,0.1
			l-3,34.334l32.646,3.078L515.501,683.333z"/>
		<path id="_x34_40" fill="#D1D1D1" stroke="#A5A5A5" stroke-miterlimit="10" d="M555.667,545.333v11.191l-37,0.477l-5,49.666
			c0.082,0.111,0.153,0.229,0.231,0.34c7.298,4.695,12.651,12.133,14.635,20.855c0-0.004,0-0.006-0.001-0.008l0.014-0.015
			l2.955-2.676h12.833c0,0,12.833,33.332-21,53l-2.333-1.5l-1.5,1.5c0,0,1.608,1.742,1.938,1.856
			c-0.329,0.359-1.938,3.31-1.938,3.31h-4l-2.021,21.078l16.854,1.59l-1.181,8.752L603,723.349l19.333-178.016H555.667z"/>
		<path id="_x34_66" fill="#D1D1D1" stroke="#A5A5A5" stroke-miterlimit="10" d="M253.866,577.488l0.06-0.064
			c-3.06-5.135-6.957-10.279-11.61-15.145c-2.913-3.045-5.949-5.798-9.035-8.234l-18.466,14.57l42.333,46.43
			C264.742,607.558,262.939,592.558,253.866,577.488z"/>
		<path id="_x34_b-9" fill="#D1D1D1" stroke="#A5A5A5" stroke-miterlimit="10" d="M187.932,589.248l6.399-4.98
			c-4.806-7.762-7.715-15.545-8.448-22.348l-8.055,0.732C178.625,571.152,182.055,580.474,187.932,589.248z"/>
		<path id="_x34_b-11" fill="#D1D1D1" stroke="#A5A5A5" stroke-miterlimit="10" d="M238.358,550.003
			c-9.377-9.133-20.255-14.852-30.246-16.508l0.201,8.033c7.771,1.414,16.624,5.674,25.105,12.317L238.358,550.003z"/>
		<path id="_x34_b-10" fill="#D1D1D1" stroke="#A5A5A5" stroke-miterlimit="10" d="M185.75,538.722
			c-6.292,5.525-8.836,14.189-7.922,23.933l8.055-0.732c-0.738-6.854,0.734-12.711,4.708-16.537
			c4.179-4.02,10.481-5.172,17.723-3.854l-0.201-8.033C199.482,532.064,191.514,533.662,185.75,538.722z"/>
		<path id="ac-5" fill="#D1D1D1" stroke="#A5A5A5" stroke-miterlimit="10" d="M212.041,604.689l-4.585-3.439l-3.599,4.801
			l14.601,10.947l3.599-4.799l-2.164-1.623C217.253,608.841,214.623,606.875,212.041,604.689z"/>
		<path id="ac-4" fill="#D1D1D1" stroke="#A5A5A5" stroke-miterlimit="10" d="M232.499,617.078l-3.814-1.035l-1.57,5.791
			l17.614,4.773l1.569-5.789l-6.308-1.711C237.585,618.701,235.074,618.017,232.499,617.078z"/>
		<path id="ac-3" fill="#D1D1D1" stroke="#A5A5A5" stroke-miterlimit="10" d="M263.973,608.068l-5.003,4.694
			c-0.487,0.729-1.015,1.431-1.629,2.062l0.199,0.219c-0.018,0.018-0.032,0.039-0.05,0.057c-1.119,1.095-2.41,1.953-3.816,2.64
			l-3.005,2.819l4.105,4.373l13.306-12.489L263.973,608.068z"/>
		<path id="ac-2" fill="#D1D1D1" stroke="#A5A5A5" stroke-miterlimit="10" d="M265.1,585.845l-5.852,1.324l1.081,4.779
			c0.49,1.698,0.868,3.362,1.126,4.979l1.819,8.043l5.852-1.322L265.1,585.845z"/>
		<path id="ac-1" fill="#D1D1D1" stroke="#A5A5A5" stroke-miterlimit="10" d="M253.926,577.423l-0.06,0.064
			c1.24,2.061,2.33,4.114,3.292,6.151l4.744-2.731l-9.112-15.813l-5.198,2.996l0.485,0.842
			C250.271,571.736,252.231,574.58,253.926,577.423z"/>
		<rect x="500" y="250.5" fill="#D1D1D1" stroke="#A5A5A5" stroke-miterlimit="10" width="44" height="28"/>
		<path fill="#D1D1D1" stroke="#A5A5A5" stroke-miterlimit="10" d="M623.667,275.75V254h-52.333v-3.5H544v28h75.07
			C619.829,278.168,621.585,277.318,623.667,275.75z"/>
		<path id="_x34_b-7" fill="#D1D1D1" stroke="#A5A5A5" stroke-miterlimit="10" d="M228.75,215.75l-3.569-2.626
			c-11.5,16.805-16.5,38.695-16.5,38.695s7.569,2.218,9.319-1.551c-0.25-4.269,0-18.201,0-18.201L228.75,215.75z"/>
		<path id="_x34_b-6" fill="#D1D1D1" stroke="#A5A5A5" stroke-miterlimit="10" d="M186.657,220.326l0.003-0.013l-5.91-4.563
			c0,0-13.25,26.686-10.5,36.718c5,5.032,7.931,7.032,7.931,7.032s16.819,0,18.819-3.25c0-4.431,0-4.431,0-4.431h-18.819
			C179.84,240.167,183.115,229.396,186.657,220.326z"/>
		<path id="_x34_b-8" fill="#D1D1D1" stroke="#A5A5A5" stroke-miterlimit="10" d="M219.75,190.66l-13.25-2.16l-5.97,4.319
			c0,0,3.43,2.764,8.237,6.693l19.983,16.238l1.87-14.75L219.75,190.66z"/>
		<path id="exotique-thai" fill="#D1D1D1" stroke="#A5A5A5" stroke-miterlimit="10" d="M359.667,81.25V40.015l-118.331-0.294
			c0,0-1.554,36.833-19.287,64.14c-14.615,22.504-24.183,32.268-32.625,40.139l95.638,87.668L351.5,167.75V106h28.125V81.25H359.667
			z M285.333,145l-25.667-16.823l15-28.927l29.083,9.417L285.333,145z"/>
	</g>
</g>
<g id="rooms">
	<polygon id="r4a3" fill="#AA9774" stroke="#725D41" stroke-miterlimit="10" points="548.667,422.667 500,422.667 500,433 511,433 
		518,433 518,449.667 548.667,449.667 	"/>
	<polygon id="r4a2" fill="#AA9774" stroke="#725D41" stroke-miterlimit="10" points="548.667,450 548.667,449.667 518,449.667 
		518,450 518,478.667 548.667,478.667 	"/>
	<polygon id="r4a1" fill="#AA9774" stroke="#725D41" stroke-miterlimit="10" points="518,478.667 518,513.662 548.667,513.937 
		548.667,478.667 	"/>
	<rect id="r4a8" x="565" y="413" fill="#AA9774" stroke="#725D41" stroke-miterlimit="10" width="52" height="30.668"/>
	<path id="r4a10" fill="#AA9774" stroke="#725D41" stroke-miterlimit="10" d="M603.667,469.667H565v11.736
		c0.386-0.041,0.774-0.07,1.167-0.07c2.64,0,5.13,0.965,7.33,2.666c2.089,1.615,3.909,3.904,5.352,6.668h24.818V469.667z"/>
	<path id="r4a11" fill="#AA9774" stroke="#725D41" stroke-miterlimit="10" d="M603.667,469.667v21l0,0l0,0h-24.818
		c2.18,4.172,3.484,9.434,3.484,15.168c0,2.949-0.345,5.775-0.975,8.396l2.225,0.02H617v-44.584H603.667L603.667,469.667z"/>
	<rect id="r4a9" x="565" y="443.667" fill="#AA9774" stroke="#725D41" stroke-miterlimit="10" width="52" height="26"/>
	<path id="r4a4" fill="#AA9774" stroke="#725D41" stroke-miterlimit="10" d="M532.804,373.5H500v49.167h48.667V384.57
		C542.181,382.757,536.611,378.794,532.804,373.5z"/>
	<path id="r4a7" fill="#AA9774" stroke="#725D41" stroke-miterlimit="10" d="M565,413h52v-45h-34.169
		c-3.287,7.784-9.907,13.83-18.081,16.366v0.355C564.835,384.821,565,413,565,413z"/>
	<path id="r4a5-4a6" fill="#AA9774" stroke="#725D41" stroke-miterlimit="10" d="M618.667,278.667c0,0,0.146-0.054,0.403-0.167H544
		h-44V353v13.75h-0.25v0.5h29.374c-1.259-3.231-1.956-6.742-1.956-10.416c0-15.924,12.965-28.833,28.958-28.833
		c15.992,0,28.958,12.909,28.958,28.833c0,1.502-0.116,2.976-0.339,4.416h39.922V360v-0.083v-81.25H618.667z"/>
</g>
<g id="signs">
	<rect id="stairs" x="533.333" y="333.75" fill="#5E513F" width="45" height="45"/>
</g>
</svg>
