<?xml version="1.0" encoding="utf-8"?>
<!-- Generator: Adobe Illustrator 17.0.0, SVG Export Plug-In . SVG Version: 6.00 Build 0)  -->
<!DOCTYPE svg PUBLIC "-//W3C//DTD SVG 1.1//EN" "http://www.w3.org/Graphics/SVG/1.1/DTD/svg11.dtd">
<svg version="1.1" id="Layer_1" xmlns="http://www.w3.org/2000/svg" xmlns:xlink="http://www.w3.org/1999/xlink" x="0px" y="0px"
	 width="677px" height="803.07px" viewBox="0 0 677 803.07" enable-background="new 0 0 677 803.07" xml:space="preserve">
<g id="Background">
</g>
<g id="Etc">
	<path fill="#DDD1BA" stroke="#3F3628" d="M181.858,107.991c-0.508,0.446-1.013,0.892-1.535,1.342
		c-48.667,42-58.665,110.666-58.665,110.666s0,217.999,0,254.665c-19.333,12-25.998,41.334-25.998,41.334v228h312.307l2.762-35.525
		l0,0l0,0l75.873,9.775l0,0l0,0l-1.611,33.082H618.33v-52l17.333-3.332l-4.665-147.334h-21.665v10.672H556v-5.334h-76.333V427.667
		V322.333l0,0l0,0H609v-205c0,0,22.667-30-4.667-57.333s-62-8-62-8V41.333h-324c0,0,3.884,9.49-3.768,26.263
		C214.565,67.596,204.741,88.866,181.858,107.991z"/>
	<polygon fill="#CCBB9A" stroke="#A58C65" points="410.73,708.472 407.969,743.998 408.329,743.998 480.329,751.33 484.99,751.33 
		486.604,718.248 	"/>
	<rect x="568" y="516.335" fill="#CCBB9A" stroke="#A58C65" width="41" height="17"/>
	<polygon fill="#CCBB9A" stroke="#A58C65" points="609,533.335 568,533.335 568,533.335 568,533.335 568,516.335 568,516.335 
		568,516.335 609,516.335 609,506.335 554,506.335 554,519.667 503.667,519.667 503.667,427.667 479.667,427.667 479.667,554.001 
		556,554.001 556,559.335 609.333,559.335 609.333,548.664 609,548.664 	"/>
	<polygon fill="#CCBB9A" stroke="#A58C65" points="503.667,427.667 503.667,427.667 503.667,519.667 554,519.667 554,506.335 
		554,506.335 554,506.335 609,506.335 609,322.333 479.667,322.333 479.667,427.667 	"/>
	<polygon fill="#CCBB9A" stroke="#A58C65" points="113.5,546 138.25,546 138.25,582.75 113.25,582.75 	"/>
	<polygon fill="#CCBB9A" stroke="#A58C65" points="166,619.5 202.25,582.75 202.25,568.5 284.5,568.5 290,575.25 287.25,616.75 
		275,629 197,629 191.75,623.5 180.75,634 	"/>
	<path fill="#CCBB9A" stroke="#A58C65" d="M199.333,258.667H231c0,0,0.667-25,12.667-44.333c-9.333-4-27.333-14.333-27.333-14.333
		S202.333,218.667,199.333,258.667z"/>
	<polygon fill="#CCBB9A" stroke="#A58C65" points="336.667,70 409,70 409,101.667 392.334,101.667 392.334,162.667 490,162.667 
		490,149 504.667,149 504.667,172 491.334,172 491.334,192.667 336.667,192.667 	"/>
	<ellipse fill="#CCBB9A" stroke="#A58C65" cx="493.667" cy="640.833" rx="27.333" ry="27.167"/>
	<polygon id="operation-office" fill="#CCBB9A" stroke="#A58C65" points="138,605.667 138,619.333 153.667,619.333 153.667,645.333 
		162.667,654.667 198,654.667 198,674.333 277.333,674.333 277.333,744.001 95.662,744.001 95.625,605.689 	"/>
	<polygon fill="#CCBB9A" stroke="#A58C65" points="213.126,120.272 233.739,140.886 225.825,148.363 206.153,128.154 	"/>
</g>
<g id="Rooms">
	<path id="sea-life-bangkok-ocean0world" fill="#AA9774" stroke="#725D41" d="M618.329,751.33c0,0-0.329-105.33-0.329-122.33
		s-18-23-18-23l-147-16l3.5-28.5l-142.833-16.832l-15.333,150l188.333,23.334L485,751.333L618.329,751.33z M466.334,640.833
		c0-15.004,12.237-27.168,27.333-27.168S521,625.83,521,640.833C521,655.836,508.763,668,493.667,668
		S466.334,655.837,466.334,640.833z"/>
	<g id="auto-spa">
		<path fill="#AA9774" stroke="#725D41" d="M249.709,41.333v9.47h-18.29c0,0,0.821,32.229-39.196,64.896l-7.501-10.175
			c0,0,32.614-33.541,34.554-55.579c0,0,0.338-7.518-0.942-8.612H249.709z"/>
		<path fill="#AA9774" stroke="#725D41" d="M245.418,60.453l39.384,7.502c0,0-14.673,37.697-35.093,61.046L220.5,110.339
			C220.5,110.339,241.667,91.96,245.418,60.453z"/>
		<polygon fill="#AA9774" stroke="#725D41" points="202.658,129 227.5,153.5 213.536,167.727 189.004,144.096 		"/>
	</g>
	<path id="flower-decor" fill="#AA9774" stroke="#725D41" d="M238.085,225.5l-16.585-8.649v41.816h9.5
		C231,258.667,234.183,233.15,238.085,225.5z"/>
	<path id="bag-studio" fill="#AA9774" stroke="#725D41" d="M210.348,211.944v46.723l-11.015,0.096
		C199.333,258.763,202.095,221.038,210.348,211.944z"/>
</g>
<g id="Signs">
	<rect id="taxi" x="387" y="73" fill="#5E513F" width="45" height="45"/>
	<g id="lift">
		<rect id="elevator-1" x="339" y="113" fill="#5E513F" width="45" height="45"/>
		<rect id="elevator-2" x="503" y="499" fill="#5E513F" width="45" height="45"/>
		<rect id="elevator-3" x="102" y="537" fill="#5E513F" width="45" height="45"/>
		<rect id="elevator-4" x="151" y="602" fill="#5E513F" width="45" height="45"/>
		<rect id="elevator-5" x="500" y="694" fill="#5E513F" width="45" height="45"/>
	</g>
	<g id="escalator">
		<rect id="escalator-1" x="403" y="143" fill="#5E513F" width="45" height="45"/>
		<rect id="escalator-2" x="479" y="453" fill="#5E513F" width="45" height="45"/>
		<rect id="escalator-3" x="198" y="203" fill="#5E513F" width="45" height="45"/>
		<rect id="escalator-4" x="243" y="573" fill="#5E513F" width="45" height="45"/>
		<rect id="escalator-5" x="452" y="627" fill="#5E513F" width="45" height="45"/>
		<rect id="escalator-6" x="526" y="715" fill="#5E513F" width="45" height="45"/>
	</g>
	<g id="atm">
		<rect id="atm-1" x="463" y="129" fill="#5E513F" width="45" height="45"/>
		<rect id="atm-2" x="572" y="471" fill="#5E513F" width="45" height="45"/>
		<rect id="atm-3" x="213" y="595" fill="#5E513F" width="45" height="45"/>
	</g>
	<g id="toilet">
		<rect id="toilet-1" x="489" y="131" fill="#5E513F" width="45" height="45"/>
		<rect id="toilet-2" x="560" y="503" fill="#5E513F" width="45" height="45"/>
		<rect id="toilet-3" x="473" y="715" fill="#5E513F" width="45" height="45"/>
	</g>
	<rect id="first-aid" x="160" y="640" fill="#5E513F" width="45" height="45"/>
	<rect id="prayer-room" x="572" y="526" fill="#5E513F" width="45" height="45"/>
	<rect id="telephone" x="468" y="163" fill="#5E513F" width="45" height="45"/>
	<g id="entrance">
		<rect id="entrance4" x="182.5" y="263" fill="#5E513F" width="45" height="45"/>
		<rect id="entrance3" x="352" y="180.5" fill="#5E513F" width="45" height="45"/>
		<rect id="entrance2" x="106" y="624.5" fill="#5E513F" width="45" height="45"/>
		<rect id="entrance1" x="466.5" y="405.167" fill="#5E513F" width="45" height="45"/>
	</g>
	<rect id="parking" x="294" y="360.167" fill="#5E513F" width="45" height="45"/>
</g>
</svg>
