<?xml version="1.0" encoding="utf-8"?>
<!-- Generator: Adobe Illustrator 16.0.0, SVG Export Plug-In . SVG Version: 6.00 Build 0)  -->
<!DOCTYPE svg PUBLIC "-//W3C//DTD SVG 1.1//EN" "http://www.w3.org/Graphics/SVG/1.1/DTD/svg11.dtd">
<svg version="1.1" id="Layer_1" xmlns="http://www.w3.org/2000/svg" xmlns:xlink="http://www.w3.org/1999/xlink" x="0px" y="0px"
	 width="841.891px" height="595.281px" viewBox="0 0 841.891 595.281" enable-background="new 0 0 841.891 595.281"
	 xml:space="preserve">
<rect id="background" fill="#FFFFFF" width="841.891" height="595.281"/>
<g id="etc">
	<path fill="#BFBFBF" stroke="#494949" stroke-width="0.5" stroke-miterlimit="10" d="M157.754,378.914l31.94,7.127l0.001,18.625
		l36.422,24.462l10.888,1.282l12.553,5.78l-8.181,20.552l-13.751-5.148l-5.924,14.016l18.983,17.699l51.365,20.424l16.785,2.961
		l30.934-12.178l1.158,4.003l17.497-5.925l2.085-30.005l-24.434,7.968l-4.694-14.902c0,0,59.421-30.528,86.727-9.712L416.02,448
		l12.231,12.944l1.577-1.938l3.005,2.898l6.418-5.924h2.139c0,0,5.214,11.425,5.762,20.979h-10.015v17.996l67.416,15.138
		l4.441-4.498h31.925l-0.002-25.615l6.036,3.07c0,0,13.671,43.323,68.867,40.247c40.375-2.25,51.625-30.511,57.629-60.057h71.554
		V133.8h-297.17V98.254H344.052v0.879h-75.148v-5.814h-14.208l0.933-19.637H97.212v107.951h2.358l-0.083,16.07h66.402l-0.422,46.396
		l-90.636-21.218l-26.658,108.28V446.35l73.559,23.121l11.106-37.767l13.905,3.867L157.754,378.914z"/>
	
		<rect x="647.501" y="133.8" fill="none" stroke="#494949" stroke-width="0.6582" stroke-miterlimit="10" width="96.979" height="189.134"/>
	
		<rect x="97.212" y="73.681" fill="none" stroke="#494949" stroke-width="0.6582" stroke-miterlimit="10" width="158.416" height="107.951"/>
	<polygon fill="none" stroke="#494949" stroke-width="0.6582" stroke-miterlimit="10" points="385.96,255.135 411.191,257.547 
		411.191,218.053 387.276,218.053 	"/>
	<polygon fill="none" stroke="#494949" stroke-width="0.6582" stroke-miterlimit="10" points="385.96,263.033 411.191,270.274 
		411.191,312.621 384.204,312.621 	"/>
	<polygon fill="none" stroke="#494949" stroke-width="0.6582" stroke-miterlimit="10" points="382.887,322.712 412.29,318.326 
		414.045,368.133 381.571,365.061 	"/>
	<polygon fill="none" stroke="#494949" stroke-width="0.6582" stroke-miterlimit="10" points="381.571,375.152 414.045,376.029 
		416.897,411.794 379.158,411.794 	"/>
	<circle fill="none" stroke="#494949" stroke-width="0.6582" stroke-miterlimit="10" cx="611.052" cy="446.902" r="24.793"/>
	<circle fill="none" stroke="#494949" stroke-width="0.6582" stroke-miterlimit="10" cx="611.052" cy="446.903" r="15.029"/>
	<polyline fill="none" stroke="#494949" stroke-width="0.6582" stroke-miterlimit="10" points="99.296,181.632 99.296,197.703 
		165.889,197.703 165.465,244.099 	"/>
	<polyline fill="none" stroke="#494949" stroke-width="0.6582" stroke-miterlimit="10" points="168.96,197.703 168.96,238.458 
		182.947,242.463 	"/>
	<polygon fill="none" stroke="#494949" stroke-width="0.6582" stroke-miterlimit="10" points="224.252,219.426 234.043,241.312 
		252.885,231.685 243.423,210.209 	"/>
	<polyline fill="none" stroke="#494949" stroke-width="0.6582" stroke-miterlimit="10" points="255.628,93.318 268.903,93.318 
		268.903,102.752 344.052,102.752 	"/>
	
		<rect x="268.903" y="99.133" fill="none" stroke="#494949" stroke-width="0.6582" stroke-miterlimit="10" width="9.394" height="3.619"/>
	
		<rect x="278.297" y="99.133" fill="none" stroke="#494949" stroke-width="0.6582" stroke-miterlimit="10" width="9.394" height="3.619"/>
	
		<rect x="287.689" y="99.133" fill="none" stroke="#494949" stroke-width="0.6582" stroke-miterlimit="10" width="9.394" height="3.619"/>
	
		<rect x="297.083" y="99.133" fill="none" stroke="#494949" stroke-width="0.6582" stroke-miterlimit="10" width="9.395" height="3.619"/>
	
		<rect x="306.478" y="99.133" fill="none" stroke="#494949" stroke-width="0.6582" stroke-miterlimit="10" width="9.396" height="3.619"/>
	
		<rect x="315.871" y="99.133" fill="none" stroke="#494949" stroke-width="0.6582" stroke-miterlimit="10" width="9.395" height="3.619"/>
	
		<rect x="325.265" y="99.133" fill="none" stroke="#494949" stroke-width="0.6582" stroke-miterlimit="10" width="9.396" height="3.619"/>
	
		<rect x="334.657" y="99.133" fill="none" stroke="#494949" stroke-width="0.6582" stroke-miterlimit="10" width="9.395" height="3.619"/>
	
		<line fill="none" stroke="#494949" stroke-width="0.6582" stroke-miterlimit="10" x1="157.754" y1="378.914" x2="189.694" y2="386.041"/>
	
		<line fill="none" stroke="#494949" stroke-width="0.6582" stroke-miterlimit="10" x1="158.662" y1="374.242" x2="189.694" y2="381.188"/>
	
		<line fill="none" stroke="#494949" stroke-width="0.6582" stroke-miterlimit="10" x1="166.098" y1="380.775" x2="167.295" y2="376.174"/>
	
		<line fill="none" stroke="#494949" stroke-width="0.6582" stroke-miterlimit="10" x1="174.178" y1="382.58" x2="175.529" y2="378.018"/>
	
		<line fill="none" stroke="#494949" stroke-width="0.6582" stroke-miterlimit="10" x1="182.809" y1="384.505" x2="184.007" y2="379.914"/>
	
		<line fill="none" stroke="#494949" stroke-width="0.6582" stroke-miterlimit="10" x1="249.557" y1="436.189" x2="241.378" y2="456.742"/>
	<polyline fill="none" stroke="#494949" stroke-width="0.6582" stroke-miterlimit="10" points="253.603,462.302 256.834,454.306 
		290.981,450.576 	"/>
	
		<line fill="none" stroke="#494949" stroke-width="0.6582" stroke-miterlimit="10" x1="326.553" y1="451.181" x2="326.321" y2="473.74"/>
	<path fill="none" stroke="#494949" stroke-width="0.6582" stroke-miterlimit="10" d="M336.075,470.556l-4.694-14.902
		c0,0,63.479-31.076,86.729-9.709"/>
	<path fill="none" stroke="#494949" stroke-width="0.6582" stroke-miterlimit="10" d="M429.828,459.005l3.005,2.898l6.418-5.924
		h2.139c0,0,5.516,11.354,5.762,20.979"/>
	<path fill="none" stroke="#494949" stroke-width="0.6582" stroke-miterlimit="10" d="M443.335,445.941
		c0,0,8.968,21.229,8.775,31.021"/>
	
		<line fill="none" stroke="#494949" stroke-width="0.6582" stroke-miterlimit="10" x1="462.617" y1="445.941" x2="462.617" y2="476.96"/>
	<path fill="none" stroke="#494949" stroke-width="0.6582" stroke-miterlimit="10" d="M468.76,445.941
		c0,0,10.344,8.806,35.465,7.814s29.896-3.128,29.896-3.128v-4.688"/>
	
		<line fill="none" stroke="#494949" stroke-width="0.6582" stroke-miterlimit="10" x1="488.947" y1="476.96" x2="488.947" y2="453.079"/>
	
		<line fill="none" stroke="#494949" stroke-width="0.6582" stroke-miterlimit="10" x1="493.197" y1="476.96" x2="493.197" y2="453.549"/>
	<path fill="none" stroke="#494949" stroke-width="0.6582" stroke-miterlimit="10" d="M588.167,408.473
		c0,0,9.949-7.271,29.416-4.606"/>
	
		<line fill="none" stroke="#494949" stroke-width="0.6582" stroke-miterlimit="10" x1="365.006" y1="423.592" x2="428.883" y2="423.592"/>
	
		<rect x="365.691" y="420.766" fill="none" stroke="#494949" stroke-width="0.6582" stroke-miterlimit="10" width="14.894" height="2.825"/>
	
		<rect x="391.527" y="420.766" fill="none" stroke="#494949" stroke-width="0.6582" stroke-miterlimit="10" width="25.371" height="2.825"/>
	<circle fill="none" stroke="#494949" stroke-width="0.6582" stroke-miterlimit="10" cx="582.726" cy="222.419" r="12.799"/>
	<path fill="none" stroke="#494949" stroke-width="0.6582" stroke-miterlimit="10" d="M573.713,379.541l14.956,22.875
		c0,0,4.443-2.387,10.943-1.977l0.409-28.223C600.023,372.219,583.357,371.973,573.713,379.541z"/>
	
		<rect x="390.833" y="361.203" fill="none" stroke="#494949" stroke-width="0.5" stroke-miterlimit="10" width="13.379" height="8.24"/>
	<path id="r2243" fill="#BFBFBF" stroke="#494949" stroke-width="0.5" stroke-miterlimit="10" d="M473.451,410.779v17.474h5.154
		v-18.326C476.898,410.219,475.177,410.503,473.451,410.779z"/>
	<path id="r2244" fill="#BFBFBF" stroke="#494949" stroke-width="0.5" stroke-miterlimit="10" d="M478.605,409.926v18.325h4.99
		v-19.219C481.943,409.337,480.279,409.635,478.605,409.926z"/>
	<polygon id="r2204" fill="#BFBFBF" stroke="#494949" stroke-width="0.5" stroke-miterlimit="10" points="502.083,479.978 
		502.083,476.96 487.273,476.96 473.56,476.96 473.56,498.244 480.47,498.244 480.47,504.685 487.273,506.213 504.552,510.094 
		508.833,505.595 508.994,505.595 508.994,479.978 	"/>
	
		<rect id="r2205" x="504.224" y="467.749" fill="#BFBFBF" stroke="#494949" stroke-width="0.5" stroke-miterlimit="10" width="25.231" height="9.213"/>
	<path id="r2444" fill="#BFBFBF" stroke="#494949" stroke-width="0.5" stroke-miterlimit="10" d="M533.734,256.903v23.683h10.313
		V261.05C540.734,259.617,537.292,258.234,533.734,256.903z"/>
	<path id="r2326" fill="#BFBFBF" stroke="#494949" stroke-width="0.5" stroke-miterlimit="10" d="M345.697,238.158v33.434v6.746
		h12.013v-32.171v-9.157C353.657,237.342,349.655,237.729,345.697,238.158z"/>
	<polygon id="r2317" fill="#BFBFBF" stroke="#494949" stroke-width="0.5" stroke-miterlimit="10" points="345.697,288.266 
		369.221,288.266 369.469,278.337 345.697,278.337 	"/>
	<path id="r2324" fill="#BFBFBF" stroke="#494949" stroke-width="0.5" stroke-miterlimit="10" d="M370.525,236.142
		c-4.315,0.239-8.596,0.521-12.815,0.867v9.157h12.564L370.525,236.142z"/>
	<polygon id="r2416" fill="#BFBFBF" stroke="#494949" stroke-width="0.5" stroke-miterlimit="10" points="460.232,315.363 
		460.232,304.283 426.635,304.283 426.886,315.363 	"/>
	<path id="r2450" fill="#BFBFBF" stroke="#494949" stroke-width="0.5" stroke-miterlimit="10" d="M542.183,351.457v20.994
		c5.938-2.498,11.483-5.149,16.602-7.938l-6.067-13.058L542.183,351.457L542.183,351.457z"/>
</g>
<g id="rooms">
	<polygon id="robinson" fill="#939598" stroke="#494949" stroke-width="0.6582" stroke-miterlimit="10" points="344.052,98.254 
		447.833,98.254 447.833,180.095 419.311,180.095 419.311,203.792 375.646,203.792 375.646,180.534 344.052,180.534 	"/>
	<polygon id="r2264" fill="#939598" stroke="#494949" stroke-width="0.6582" stroke-miterlimit="10" points="565.914,396.322 
		575.094,390.896 581.511,399.453 569.583,406.201 	"/>
	<path id="blu-o-sub-zero" fill="#939598" stroke="#494949" stroke-width="0.6582" stroke-miterlimit="10" d="M454.525,133.8v9.104
		h18.318v5.705h19.199v46.625h36.86v19.363h38.508l0.103,0.081c2.822-5.538,8.565-9.338,15.209-9.338
		c9.436,0,17.08,7.646,17.08,17.078c0,4.843-2.021,9.203-5.258,12.311h33.45v19.747l17.088,0.22l0.22-120.896H454.525L454.525,133.8
		z"/>
	<path id="r2624" fill="#939598" stroke="#494949" stroke-width="0.6582" stroke-miterlimit="10" d="M552.438,214.598h-12.778
		v20.724C552.357,231.234,552.438,214.598,552.438,214.598z"/>
	<polygon id="r2530" fill="#939598" stroke="#494949" stroke-width="0.6582" stroke-miterlimit="10" points="209.935,230.944 
		226.155,230.944 223.429,223.375 209.03,197.703 183.605,197.703 183.117,230.944 209.524,230.944 	"/>
	<polygon id="r2524" fill="#939598" stroke="#494949" stroke-width="0.6582" stroke-miterlimit="10" points="230.56,183.14 
		237.678,204.521 247.348,201.278 243.012,183.14 	"/>
	<polygon id="r2526-2528" fill="#939598" stroke="#494949" stroke-width="0.6582" stroke-miterlimit="10" points="183.605,183.14 
		183.605,193.178 210.677,193.508 220.714,210.209 237.678,204.521 230.56,183.14 	"/>
	<polygon id="r2522" fill="#939598" stroke="#494949" stroke-width="0.6582" stroke-miterlimit="10" points="266.818,177.052 
		257.164,177.052 257.164,183.14 243.012,183.14 247.348,201.278 248.442,200.912 266.818,194.083 	"/>
	<path id="ikea" fill="#939598" stroke="#494949" stroke-width="0.6582" stroke-miterlimit="10" d="M196.971,271.446l0.786-3.146
		l-16.784-20.57L74.832,222.882l-26.658,108.28V446.35l73.559,23.121l11.106-37.767l13.905,3.867l16.292-83.847l5.595,1.398
		l2.798-30.359l-22.956-18.896l12.013-7.269l4.608,14.728l7.651-1.976l-4.114-17.36l10.775,0.938
		C183.44,285.404,189.374,278.208,196.971,271.446z"/>
	<path id="r2236-2240" fill="#939598" stroke="#494949" stroke-width="0.6582" stroke-miterlimit="10" d="M463.358,412.271
		c-1.416,0.193-5.035,0.646-7.294,0.924c-1.315,0.158-2.629,0.316-3.953,0.465c-2.384,0.264-4.777,0.511-7.187,0.74v13.853h7.187
		h0.003h5.976v-0.003l5.27,0.001L463.358,412.271L463.358,412.271z"/>
	<path id="r2241" fill="#939598" stroke="#494949" stroke-width="0.6582" stroke-miterlimit="10" d="M463.357,412.273v15.979h4.717
		v-16.646C466.51,411.835,464.938,412.059,463.357,412.273z"/>
	<path id="r2242" fill="#939598" stroke="#494949" stroke-width="0.6582" stroke-miterlimit="10" d="M468.074,411.604v16.646h5.377
		v-17.473C471.67,411.064,469.876,411.339,468.074,411.604z"/>
	<path id="r2246" fill="#939598" stroke="#494949" stroke-width="0.6582" stroke-miterlimit="10" d="M487.035,408.375
		c-1.144,0.223-2.285,0.443-3.438,0.658v19.22h4.841v-0.009l0.001,0.008h6.5v-4.443v-17.033
		C493.085,407.172,489.41,407.906,487.035,408.375z"/>
	<path id="r2248" fill="#939598" stroke="#494949" stroke-width="0.6582" stroke-miterlimit="10" d="M494.938,406.773v17.031h13.101
		v-20.093C503.751,404.796,499.388,405.818,494.938,406.773z"/>
	<path id="r2250" fill="#939598" stroke="#494949" stroke-width="0.6582" stroke-miterlimit="10" d="M508.035,423.808h8.558v-22.362
		c-2.812,0.783-5.662,1.544-8.558,2.271V423.808L508.035,423.808z"/>
	<path id="r2252" fill="#939598" stroke="#494949" stroke-width="0.6582" stroke-miterlimit="10" d="M521.035,400.171v13.188h12.343
		v-17.082C529.367,397.635,525.251,398.934,521.035,400.171z"/>
	<path id="r2254" fill="#939598" stroke="#494949" stroke-width="0.6582" stroke-miterlimit="10" d="M533.376,396.275v17.082v15.224
		l16.621-10.202l-9.696-24.538C538.031,394.671,535.72,395.48,533.376,396.275z"/>
	<path id="r2256" fill="#939598" stroke="#494949" stroke-width="0.6582" stroke-miterlimit="10" d="M540.301,393.839l9.696,24.539
		l6.582-3.866l-9.026-23.457C545.177,392.003,542.763,392.934,540.301,393.839z"/>
	<path id="r2258-2262" fill="#939598" stroke="#494949" stroke-width="0.6582" stroke-miterlimit="10" d="M565.83,396.102
		l9.265-5.207l-6.939-9.229c-2.104,1.096-8.389,4.052-10.609,5.111c-1.562,0.701-3.146,1.404-4.382,1.945
		c-1.843,0.789-3.706,1.569-5.611,2.332l9.026,23.455l6.418-4.031l-0.011-0.028l6.6-4.249L565.83,396.102z"/>
	<path id="r2638" fill="#939598" stroke="#494949" stroke-width="0.6582" stroke-miterlimit="10" d="M619.419,332.5
		c5.906,2.357,19.511,7.77,22.156,8.641c3.398,1.118,3.51-0.675,3.51-0.675v-20.905l-22.854-0.287
		C621.943,323.762,620.986,328.177,619.419,332.5z"/>
	<path id="r2636" fill="#939598" stroke="#494949" stroke-width="0.6582" stroke-miterlimit="10" d="M622.333,316.352
		c0,0.955-0.035,1.902-0.097,2.854h22.851v-11.08h-23.513C622.068,310.837,622.333,313.58,622.333,316.352z"/>
	<path id="r2634" fill="#939598" stroke="#494949" stroke-width="0.6582" stroke-miterlimit="10" d="M619.265,299.785
		c1.021,2.744,1.798,5.523,2.313,8.338h23.513v-13.495h-10.918L619.265,299.785z"/>
	<path id="r2632" fill="#939598" stroke="#494949" stroke-width="0.6582" stroke-miterlimit="10" d="M628.001,254.476v25.589
		l-13.527,9.924c1.951,3.204,3.557,6.472,4.793,9.795l14.904-5.157h10.916v-40.151H628.001L628.001,254.476z"/>
	<path id="r2630" fill="#939598" stroke="#494949" stroke-width="0.6582" stroke-miterlimit="10" d="M607.439,264.775
		L607.439,264.775l-6.815,8.519c5.676,5.322,10.325,10.904,13.85,16.695l13.527-9.924v-25.589h-12.316L607.439,264.775z"/>
	<path id="r2616" fill="#939598" stroke="#494949" stroke-width="0.6582" stroke-miterlimit="10" d="M506.306,228.553v-33.318
		h-14.26v30.087C496.894,226.325,501.652,227.402,506.306,228.553z"/>
	<path id="r2618-2620" fill="#939598" stroke="#494949" stroke-width="0.6582" stroke-miterlimit="10" d="M528.908,234.947v-20.35
		v-19.363h-22.604v33.318C514.138,230.488,521.683,232.625,528.908,234.947z"/>
	<path id="r2608" fill="#939598" stroke="#494949" stroke-width="0.6582" stroke-miterlimit="10" d="M434.667,184.924h-12.284
		v31.757c4.131,0.201,8.229,0.453,12.284,0.753V184.924z"/>
	<path id="r2610" fill="#939598" stroke="#494949" stroke-width="0.6582" stroke-miterlimit="10" d="M444.103,218.219v-33.296
		h-9.437v32.511C437.835,217.666,440.982,217.927,444.103,218.219z"/>
	<path id="r2611" fill="#939598" stroke="#494949" stroke-width="0.6582" stroke-miterlimit="10" d="M454.525,219.311v-34.388
		h-10.424v33.296C447.609,218.547,451.083,218.911,454.525,219.311z"/>
	<path id="r2612-2614" fill="#939598" stroke="#494949" stroke-width="0.6582" stroke-miterlimit="10" d="M492.047,225.322v-30.087
		V148.61h-19.201v-5.705h-18.318v42.019v34.388C467.531,220.822,480.07,222.846,492.047,225.322z"/>
	<path id="r2628" fill="#939598" stroke="#494949" stroke-width="0.6582" stroke-miterlimit="10" d="M595.525,253.927l5.896,5.373
		l5.955,5.421l8.112-10.245h0.188h12.316v-19.747H594.54c-3.068,2.949-7.229,4.771-11.822,4.771c-0.209,0-0.409-0.022-0.616-0.03
		c-4.435,2.482-8.606,8.024,0.524,19.947c1.803,1.165,3.551,2.348,5.244,3.547L595.525,253.927z"/>
	<path id="r2627" fill="#939598" stroke="#494949" stroke-width="0.6582" stroke-miterlimit="10" d="M601.426,259.301l-5.898-5.373
		l-7.646,9.036c2.245,1.594,4.396,3.216,6.444,4.866L601.426,259.301z"/>
	<path id="r2626" fill="#939598" stroke="#494949" stroke-width="0.6582" stroke-miterlimit="10" d="M600.604,273.276l6.774-8.555
		l-5.953-5.421l-7.103,8.529C596.535,269.613,598.633,271.427,600.604,273.276z"/>
	<path id="r2622" fill="#939598" stroke="#494949" stroke-width="0.6582" stroke-miterlimit="10" d="M532.724,236.201
		c2.647,0.083,4.947-0.242,6.936-0.879v-20.724h-10.75v20.35C530.188,235.36,531.463,235.777,532.724,236.201z"/>
	<path id="r2502" fill="#939598" stroke="#494949" stroke-width="0.6582" stroke-miterlimit="10" d="M339.526,182.399h-7.323v38.029
		c2.423-0.331,4.866-0.639,7.323-0.935c1.964-0.233,3.938-0.458,5.924-0.671v-36.423H339.526z"/>
	<path id="r2503-2506" fill="#939598" stroke="#494949" stroke-width="0.6582" stroke-miterlimit="10" d="M357.71,182.399
		L357.71,182.399l-6.171,0.001v-0.001h-6.088v36.423c2.018-0.215,4.047-0.419,6.087-0.61v0.001c2.05-0.193,4.104-0.375,6.172-0.539
		v-0.001c4.479-0.36,9.009-0.656,13.576-0.897v-34.377H357.71z"/>
	<polygon id="r2519-4" fill="#939598" stroke="#494949" stroke-width="0.6582" stroke-miterlimit="10" points="296.658,122.475 
		286.058,122.475 278.53,139.141 278.53,139.141 278.53,139.141 266.818,139.141 266.818,151.475 296.658,151.475 	"/>
	<polygon id="r2519-3" fill="#939598" stroke="#494949" stroke-width="0.6582" stroke-miterlimit="10" points="296.658,151.475 
		266.818,151.475 266.818,161.141 282.778,161.141 282.778,161.141 296.658,161.141 	"/>
	
		<rect id="r2519-2" x="266.818" y="161.141" fill="#939598" stroke="#494949" stroke-width="0.6582" stroke-miterlimit="10" width="15.96" height="14"/>
	
		<rect id="r2519-1" x="266.818" y="175.141" fill="#939598" stroke="#494949" stroke-width="0.6582" stroke-miterlimit="10" width="15.96" height="15.333"/>
	<polygon id="r2519" fill="#939598" stroke="#494949" stroke-width="0.6582" stroke-miterlimit="10" points="286.058,122.475 
		286.058,122.475 286.058,122.475 296.658,122.475 296.658,104.509 276.253,104.509 266.818,117.564 266.818,139.141 
		278.53,139.141 	"/>
	<polygon id="r2521" fill="#939598" stroke="#494949" stroke-width="0.6582" stroke-miterlimit="10" points="282.778,190.474 
		266.818,190.474 266.818,208.292 266.857,208.457 266.963,208.457 266.967,208.475 282.778,208.475 	"/>
	<path id="r2518" fill="#939598" stroke="#494949" stroke-width="0.6582" stroke-miterlimit="10" d="M266.967,208.475l5.688,24.605
		c3.309-0.993,6.692-1.939,10.123-2.854v-21.752L266.967,208.475L266.967,208.475z"/>
	<path id="r2520" fill="#939598" stroke="#494949" stroke-width="0.6582" stroke-miterlimit="10" d="M332.203,220.428v-38.029
		v-8.008h7.323v-46.735h-17.525v-14.81l-7.791-8.338h-17.552v122.295C307.99,224.247,319.87,222.108,332.203,220.428z"/>
	<path id="r2534-2536" fill="#939598" stroke="#494949" stroke-width="0.6582" stroke-miterlimit="10" d="M209.935,230.944h-0.411
		h-26.407l-0.17,11.519l20.329,23.756c5.505-4.25,11.69-8.302,18.486-12.127L209.935,230.944z"/>
	<path id="r2532" fill="#939598" stroke="#494949" stroke-width="0.6582" stroke-miterlimit="10" d="M232.476,248.494l-6.32-17.55
		h-16.22l11.828,23.147C225.181,252.167,228.755,250.301,232.476,248.494z"/>
	<path id="r2128" fill="#939598" stroke="#494949" stroke-width="0.6582" stroke-miterlimit="10" d="M203.518,388.592l7.591,5.661
		l10.16-15.92c-2.689-1.522-5.271-3.088-7.764-4.685L203.518,388.592z"/>
	<path id="r2126" fill="#939598" stroke="#494949" stroke-width="0.6582" stroke-miterlimit="10" d="M203.518,388.592l9.987-14.939
		c-5.006-3.204-9.606-6.545-13.763-10.008l-10.048,14.145v26.879l10.336,6.941l11.078-17.354L203.518,388.592z"/>
	<path id="r2130" fill="#939598" stroke="#494949" stroke-width="0.6582" stroke-miterlimit="10" d="M221.269,378.333l-10.16,15.92
		l-11.078,17.354l11.096,7.451l21.666-34.701C228.781,382.419,224.931,380.412,221.269,378.333z"/>
	<path id="r2132" fill="#939598" stroke="#494949" stroke-width="0.6582" stroke-miterlimit="10" d="M211.126,419.061
		l14.991,10.066l17.854-40.211c0,0-7.973-3.008-11.181-4.561L211.126,419.061z"/>
	<path id="r2234" fill="#939598" stroke="#494949" stroke-width="0.6582" stroke-miterlimit="10" d="M428.883,415.662v18.515
		l5.104,5.186l10.939-11.107v-13.851C439.644,414.904,434.295,415.326,428.883,415.662z"/>
	<polygon id="r2232" fill="#939598" stroke="#494949" stroke-width="0.6582" stroke-miterlimit="10" points="433.984,439.359 
		439.99,445.941 458.914,445.941 458.914,428.251 444.926,428.251 	"/>
	
		<rect id="r2230" x="458.914" y="428.251" fill="#939598" stroke="#494949" stroke-width="0.6582" stroke-miterlimit="10" width="19.691" height="17.689"/>
	
		<rect id="r2229" x="478.605" y="428.251" fill="#939598" stroke="#494949" stroke-width="0.6582" stroke-miterlimit="10" width="16.328" height="17.689"/>
	<polygon id="r2227" fill="#939598" stroke="#494949" stroke-width="0.6582" stroke-miterlimit="10" points="494.938,445.941 
		516.592,445.941 516.646,428.581 504.84,428.581 504.785,423.808 494.938,423.808 	"/>
	<polygon id="r2224" fill="#939598" stroke="#494949" stroke-width="0.6582" stroke-miterlimit="10" points="533.376,428.581 
		520.515,428.581 520.515,445.941 550.301,445.941 550.301,418.201 	"/>
	<path id="r2208" fill="#939598" stroke="#494949" stroke-width="0.6582" stroke-miterlimit="10" d="M577.287,483.214
		l-9.502-16.313l-13.592,5.894l3.127,5.813l-10.367,4.441c0,0,4.115,17.771,25.343,29.291l11.034-17.188l-9.114-8.32
		L577.287,483.214z"/>
	<path id="r2222" fill="#939598" stroke="#494949" stroke-width="0.6582" stroke-miterlimit="10" d="M560.771,411.876L550.3,418.2
		v27.74h19.311c0.189-8.459,2.911-16.289,7.439-22.77L560.771,411.876z"/>
	<path id="r2221" fill="#939598" stroke="#494949" stroke-width="0.6582" stroke-miterlimit="10" d="M590.115,411.109l-8.604-11.656
		l-20.739,12.424l16.278,11.298C580.479,418.271,584.938,414.146,590.115,411.109z"/>
	<path id="r2220" fill="#939598" stroke="#494949" stroke-width="0.6582" stroke-miterlimit="10" d="M637.242,397.041l-0.383-10.258
		h-15.194l-4.563,19.094c4.291,0.629,8.367,1.912,12.131,3.748L637.242,397.041z"/>
	<path id="r2217-2219" fill="#939598" stroke="#494949" stroke-width="0.6582" stroke-miterlimit="10" d="M645.224,423.417
		l12.918-13.269v-13.107h-20.896l-8.014,12.584C635.679,412.773,641.185,417.551,645.224,423.417z"/>
	<path id="r2214" fill="#939598" stroke="#494949" stroke-width="0.6582" stroke-miterlimit="10" d="M647.74,466.23l22.691,10.959
		c3.162-11.219,4.278-22.271,4.623-30.287h-22.537C652.521,453.885,650.79,460.458,647.74,466.23z"/>
	<path id="r2212" fill="#939598" stroke="#494949" stroke-width="0.6582" stroke-miterlimit="10" d="M632.912,482.138l18.619,18.188
		l-8.969,8.642l3.291,5.842c13.242-8.853,20.563-23.361,24.578-37.617l-22.691-10.959
		C644.292,472.761,639.158,478.255,632.912,482.138z"/>
	<path id="r2216" fill="#939598" stroke="#494949" stroke-width="0.6582" stroke-miterlimit="10" d="M675.037,434.724l-8.723-0.222
		v-18.868h-6.475l-11.931,12.274c2.938,5.688,4.605,12.146,4.605,18.992h22.535C675.371,439.533,675.037,434.724,675.037,434.724z"
		/>
	<path id="r2209" fill="#939598" stroke="#494949" stroke-width="0.6582" stroke-miterlimit="10" d="M573.47,464.435
		l-5.687,2.467l9.502,16.313l-3.071,3.619l9.114,8.32L591,483.201C583.354,478.969,577.188,472.39,573.47,464.435z"/>
	<path id="r2146" fill="#939598" stroke="#494949" stroke-width="0.6582" stroke-miterlimit="10" d="M315.199,425.837h8.118v-14.881
		c-2.81-0.438-5.583-0.905-8.337-1.396v16.274L315.199,425.837L315.199,425.837z"/>
	<path id="r2150" fill="#939598" stroke="#494949" stroke-width="0.6582" stroke-miterlimit="10" d="M337.909,425.837v-12.842
		c-1.983-0.244-3.962-0.494-5.924-0.763v13.604L337.909,425.837L337.909,425.837z"/>
	<path id="r2148" fill="#939598" stroke="#494949" stroke-width="0.6582" stroke-miterlimit="10" d="M331.984,425.837v-13.604
		c-2.917-0.396-5.806-0.824-8.667-1.273v14.882h8.667V425.837z"/>
	<path id="r2152" fill="#939598" stroke="#494949" stroke-width="0.6582" stroke-miterlimit="10" d="M343.722,425.837v-12.161
		c-1.946-0.216-3.885-0.441-5.813-0.681v12.842H343.722L343.722,425.837z"/>
	<path id="r2140" fill="#939598" stroke="#494949" stroke-width="0.6582" stroke-miterlimit="10" d="M287.196,413.605v-9.984
		c-2.744-0.694-5.446-1.418-8.115-2.16l-3.65,12.146L287.196,413.605L287.196,413.605z"/>
	<path id="r2144" fill="#939598" stroke="#494949" stroke-width="0.6582" stroke-miterlimit="10" d="M301.007,425.837h13.977
		v-16.274c-4.739-0.838-9.398-1.748-13.977-2.728v6.771V425.837z"/>
	<path id="r2116" fill="#939598" stroke="#494949" stroke-width="0.6582" stroke-miterlimit="10" d="M337.909,425.837h-5.924h-8.667
		v25.757c7.977-0.918,14.77-2.423,20.402-4.121v-21.636H337.909z"/>
	<path id="r2138" fill="#939598" stroke="#494949" stroke-width="0.6582" stroke-miterlimit="10" d="M275.43,421.433v-7.827
		l3.65-12.146c-3.311-0.924-6.579-1.873-9.771-2.868l-5.365,19.055L275.43,421.433z"/>
	<path id="r2114" fill="#939598" stroke="#494949" stroke-width="0.6582" stroke-miterlimit="10" d="M365.006,415.557
		c-7.217-0.473-14.309-1.111-21.283-1.882v12.161v21.636c14.388-4.338,21.283-9.896,21.283-9.896V415.557z"/>
	<path id="r2118-2120" fill="#939598" stroke="#494949" stroke-width="0.6582" stroke-miterlimit="10" d="M315.199,425.837h-0.223
		h-13.974v12.781H290.98v13.154c12.397,1.145,23.149,0.877,32.336-0.182v-25.756L315.199,425.837L315.199,425.837z"/>
	<path id="r2134-2136" fill="#939598" stroke="#494949" stroke-width="0.6582" stroke-miterlimit="10" d="M250.349,391.979
		l-4.356,12.547l19.487,7.675l3.831-13.604C262.725,396.537,256.393,394.33,250.349,391.979z"/>
	<path id="r2124" fill="#939598" stroke="#494949" stroke-width="0.6582" stroke-miterlimit="10" d="M237.005,430.41l17.472,8.046
		l-1.92,6.088c1.206,0.332,2.37,0.619,3.555,0.93l7.834-27.825l1.535-5.446l-19.487-7.675L237.005,430.41z"/>
	<path id="r2122" fill="#939598" stroke="#494949" stroke-width="0.6582" stroke-miterlimit="10" d="M284.728,438.783v-13.082
		h-10.861l-11.133-3.75l-6.623,23.521c11.079,2.896,21.279,4.779,30.591,5.854v-12.541L284.728,438.783L284.728,438.783z"/>
	<polygon id="r2108" fill="#939598" stroke="#494949" stroke-width="0.6582" stroke-miterlimit="10" points="332.348,471.773 
		304.667,480.801 308.835,506.691 339.766,494.515 338.139,489.527 	"/>
	<polygon id="r2110" fill="#939598" stroke="#494949" stroke-width="0.6582" stroke-miterlimit="10" points="348.3,466.57 
		332.348,471.773 338.017,489.148 339.768,494.515 339.772,494.513 340.927,498.517 358.424,492.594 360.509,462.589 	"/>
	<polygon id="r2102" fill="#939598" stroke="#494949" stroke-width="0.6582" stroke-miterlimit="10" points="227.625,451.594 
		221.701,465.607 240.684,483.308 249.966,459.958 	"/>
	<polygon id="r2104" fill="#939598" stroke="#494949" stroke-width="0.6582" stroke-miterlimit="10" points="259.046,463.355 
		249.557,486.896 271.122,495.439 280.519,471.392 	"/>
	<polygon id="r2106" fill="#939598" stroke="#494949" stroke-width="0.6582" stroke-miterlimit="10" points="303.022,479.814 
		280.519,471.392 271.122,495.439 292.05,503.73 	"/>
	<polygon id="r2233" fill="#939598" stroke="#494949" stroke-width="0.6582" stroke-miterlimit="10" points="416.019,447.999 
		426.386,437.796 438.07,448.876 428.251,460.943 	"/>
	<polygon id="r2202" fill="#939598" stroke="#494949" stroke-width="0.6582" stroke-miterlimit="10" points="449.535,476.96 
		437.136,476.96 437.136,494.956 449.535,497.738 471.914,502.763 471.914,476.96 	"/>
	
		<rect id="r2206" x="508.994" y="479.978" fill="#939598" stroke="#494949" stroke-width="0.6582" stroke-miterlimit="10" width="31.925" height="25.617"/>
	<path id="mega-cineplex" fill="#939598" stroke="#494949" stroke-width="0.6582" stroke-miterlimit="10" d="M645.085,324.085
		v16.379c0,0-0.106,1.794-3.51,0.675c-2.646-0.871-16.25-6.279-22.156-8.64c0,0-7.877,20.056-20.219,29.519l22.463,24.768h15.195
		l0.383,10.258h20.896v20.346l1.701-1.748h6.474v18.868l8.724,0.219c0,0,0.334,4.813,0.021,12.182
		c-0.193,4.605-0.668,10.232-1.613,16.303l0.008,0.033h71.554v-139.16H645.085z"/>
	<path id="r2464" fill="#939598" stroke="#494949" stroke-width="0.6582" stroke-miterlimit="10" d="M453.758,375.152v18.951
		c2.174-0.256,4.332-0.523,6.477-0.812V375.15L453.758,375.152L453.758,375.152z"/>
	<path id="r2430" fill="#939598" stroke="#494949" stroke-width="0.6582" stroke-miterlimit="10" d="M472.736,241.253
		c-3.748-0.611-7.555-1.183-11.408-1.703v24.031v10.203h11.408V241.253z"/>
	<path id="r2432-2434" fill="#939598" stroke="#494949" stroke-width="0.6582" stroke-miterlimit="10" d="M489.688,273.785h5.649
		V245.63c-7.269-1.641-14.813-3.104-22.603-4.376v32.531H489.688z"/>
	<path id="r2436" fill="#939598" stroke="#494949" stroke-width="0.6582" stroke-miterlimit="10" d="M505.758,273.785V248.15
		c-3.398-0.883-6.882-1.72-10.42-2.521v28.155L505.758,273.785L505.758,273.785z"/>
	<path id="r2438" fill="#939598" stroke="#494949" stroke-width="0.6582" stroke-miterlimit="10" d="M505.758,273.785h7.791v-23.51
		c-2.556-0.732-5.148-1.441-7.791-2.125V273.785L505.758,273.785z"/>
	<path id="r2440" fill="#939598" stroke="#494949" stroke-width="0.6582" stroke-miterlimit="10" d="M525.943,273.785v-19.648
		c-2.723-0.917-5.496-1.809-8.336-2.666v22.314H525.943z"/>
	<path id="r2442" fill="#939598" stroke="#494949" stroke-width="0.6582" stroke-miterlimit="10" d="M525.943,254.135v19.648h2.688
		V284.7h5.104v-4.114v-23.683C531.195,255.955,528.599,255.03,525.943,254.135z"/>
	<path id="r2428" fill="#939598" stroke="#494949" stroke-width="0.6582" stroke-miterlimit="10" d="M450.906,238.271v25.311h10.422
		v-24.031C457.896,239.086,454.42,238.662,450.906,238.271z"/>
	<path id="r2426" fill="#939598" stroke="#494949" stroke-width="0.6582" stroke-miterlimit="10" d="M440.265,237.219v13.309v13.055
		h10.643v-25.311C447.396,237.884,443.849,237.53,440.265,237.219z"/>
	<path id="r2328" fill="#939598" stroke="#494949" stroke-width="0.6582" stroke-miterlimit="10" d="M333.766,239.612v31.979h11.934
		v-33.434C341.671,238.595,337.688,239.077,333.766,239.612z"/>
	<path id="r2330" fill="#939598" stroke="#494949" stroke-width="0.6582" stroke-miterlimit="10" d="M324.716,240.945v30.646h9.051
		v-31.979C330.716,240.027,327.698,240.472,324.716,240.945z"/>
	<path id="r2331" fill="#939598" stroke="#494949" stroke-width="0.6582" stroke-miterlimit="10" d="M316.158,242.397v29.193h8.558
		v-30.646C321.829,241.403,318.978,241.889,316.158,242.397z"/>
	<path id="r2364" fill="#939598" stroke="#494949" stroke-width="0.6582" stroke-miterlimit="10" d="M321.59,355.516v35.729
		c3.543,0.588,7.136,1.14,10.778,1.647v-37.377H321.59L321.59,355.516z"/>
	<path id="r2366" fill="#939598" stroke="#494949" stroke-width="0.6582" stroke-miterlimit="10" d="M332.368,392.893
		c3.924,0.549,7.898,1.049,11.931,1.498v-13.285v-25.59h-11.931V392.893z"/>
	<path id="r2302" fill="#939598" stroke="#494949" stroke-width="0.6582" stroke-miterlimit="10" d="M355.488,395.5v-14.396h-11.189
		v13.287C347.986,394.803,351.718,395.171,355.488,395.5z"/>
	<polygon id="r2322" fill="#939598" stroke="#494949" stroke-width="0.6582" stroke-miterlimit="10" points="370.274,246.166 
		357.71,246.166 357.71,254.888 370.056,254.888 	"/>
	<polygon id="r2320" fill="#939598" stroke="#494949" stroke-width="0.6582" stroke-miterlimit="10" points="357.71,254.888 
		357.71,266.324 369.77,266.324 370.056,254.888 	"/>
	<polygon id="r2316" fill="#939598" stroke="#494949" stroke-width="0.6582" stroke-miterlimit="10" points="368.972,298.25 
		369.221,288.266 345.697,288.266 345.697,298.25 	"/>
	<polygon id="r2305" fill="#939598" stroke="#494949" stroke-width="0.6582" stroke-miterlimit="10" points="367.135,371.807 
		344.299,371.807 344.299,381.104 355.488,381.104 366.902,381.104 	"/>
	<polygon id="r2306" fill="#939598" stroke="#494949" stroke-width="0.6582" stroke-miterlimit="10" points="367.542,355.516 
		344.299,355.516 344.299,371.807 367.135,371.807 	"/>
	<polygon id="r2308" fill="#939598" stroke="#494949" stroke-width="0.6582" stroke-miterlimit="10" points="367.921,340.376 
		344.299,340.376 344.299,355.516 367.542,355.516 	"/>
	<polygon id="r2310-2312" fill="#939598" stroke="#494949" stroke-width="0.6582" stroke-miterlimit="10" points="368.381,321.945 
		333.19,321.945 333.19,331.162 333.19,340.376 344.299,340.376 367.921,340.376 	"/>
	<polygon id="r2314" fill="#939598" stroke="#494949" stroke-width="0.6582" stroke-miterlimit="10" points="368.381,321.945 
		368.972,298.25 345.697,298.25 345.697,288.266 345.697,278.337 345.697,271.591 307.93,271.591 307.93,288.266 277.24,288.266 
		277.24,321.178 268.903,321.178 268.903,331.162 333.19,331.162 333.19,321.945 	"/>
	<path id="r2304" fill="#939598" stroke="#494949" stroke-width="0.6582" stroke-miterlimit="10" d="M355.488,381.104V395.5
		c3.642,0.316,7.32,0.584,11.033,0.82l0.38-15.217H355.488L355.488,381.104z"/>
	<path id="r2356-2358" fill="#939598" stroke="#494949" stroke-width="0.6582" stroke-miterlimit="10" d="M279.626,357.162v24.563
		c4.577,1.354,9.292,2.635,14.152,3.832V357.16h-14.152V357.162z"/>
	<path id="r2360" fill="#939598" stroke="#494949" stroke-width="0.6582" stroke-miterlimit="10" d="M293.778,357.162v28.396
		c2.594,0.639,5.23,1.25,7.899,1.842v-30.236L293.778,357.162L293.778,357.162z"/>
	<path id="r2462" fill="#939598" stroke="#494949" stroke-width="0.6582" stroke-miterlimit="10" d="M516.592,381.531
		c3.965-1.184,7.815-2.422,11.549-3.717v-26.357h-11.549V381.531z"/>
	<path id="r2452-2454" fill="#939598" stroke="#494949" stroke-width="0.6582" stroke-miterlimit="10" d="M542.183,372.451v-20.994
		H528.14v26.357C533.031,376.119,537.717,374.328,542.183,372.451z"/>
	<path id="r2448" fill="#939598" stroke="#494949" stroke-width="0.6582" stroke-miterlimit="10" d="M598.064,316.352
		c0-18.302-15.029-35.186-40.361-48.744l-6.854,12.979h-6.801h-10.313v4.114h-5.104l-0.492,66.757h14.043h10.531l6.067,13.056
		C583.461,351.052,598.064,334.393,598.064,316.352z"/>
	<path id="r2446" fill="#939598" stroke="#494949" stroke-width="0.6582" stroke-miterlimit="10" d="M544.047,280.586h6.801
		l6.854-12.979c-4.268-2.285-8.828-4.473-13.655-6.558V280.586z"/>
	<path id="r2456" fill="#939598" stroke="#494949" stroke-width="0.6582" stroke-miterlimit="10" d="M489.688,289.989v98.313
		c9.433-1.975,18.425-4.239,26.903-6.771v-30.074h11.549l0.492-66.757l-4.39,5.289H489.688L489.688,289.989z"/>
	<polygon id="r2422" fill="#939598" stroke="#494949" stroke-width="0.6582" stroke-miterlimit="10" points="425.996,276.198 
		461.328,276.198 461.328,273.785 461.328,263.582 440.265,263.582 425.708,263.582 	"/>
	<polygon id="r2420" fill="#939598" stroke="#494949" stroke-width="0.6582" stroke-miterlimit="10" points="426.271,288.266 
		461.328,288.266 461.328,276.198 425.996,276.198 	"/>
	<polygon id="r2414" fill="#939598" stroke="#494949" stroke-width="0.6582" stroke-miterlimit="10" points="427.164,327.541 
		460.232,327.541 460.232,315.363 426.886,315.363 	"/>
	<polygon id="r2412" fill="#939598" stroke="#494949" stroke-width="0.6582" stroke-miterlimit="10" points="427.501,342.352 
		460.232,342.352 460.232,327.541 427.164,327.541 	"/>
	<polygon id="r2408-2410" fill="#939598" stroke="#494949" stroke-width="0.6582" stroke-miterlimit="10" points="427.98,363.416 
		460.232,363.416 460.232,342.352 427.501,342.352 	"/>
	<polygon id="r2406" fill="#939598" stroke="#494949" stroke-width="0.6582" stroke-miterlimit="10" points="427.98,363.416 
		428.248,375.152 453.758,375.152 460.232,375.152 460.232,363.416 	"/>
	<polygon id="r2424" fill="#939598" stroke="#494949" stroke-width="0.6582" stroke-miterlimit="10" points="425.708,263.582 
		440.265,263.582 440.265,250.527 425.412,250.527 	"/>
	<path id="r2402" fill="#939598" stroke="#494949" stroke-width="0.6582" stroke-miterlimit="10" d="M428.525,387.314l4.75,8.719
		c6.951-0.504,13.795-1.143,20.479-1.93v-18.951h-25.509L428.525,387.314z"/>
	<path id="r2425" fill="#939598" stroke="#494949" stroke-width="0.6582" stroke-miterlimit="10" d="M440.265,250.527v-13.309
		c-4.986-0.437-10.062-0.78-15.183-1.063l0.328,14.372H440.265L440.265,250.527z"/>
	<path id="r2418-2460" fill="#939598" stroke="#494949" stroke-width="0.6582" stroke-miterlimit="10" d="M472.736,273.785h-11.408
		v2.413v12.068h-35.061l0.365,16.017h33.6v11.08v12.178v14.813v21.063v11.735v18.144c10.201-1.354,20.047-3.022,29.451-4.989V289.99
		v-16.204L472.736,273.785L472.736,273.785z"/>
	<path id="r2332" fill="#939598" stroke="#494949" stroke-width="0.6582" stroke-miterlimit="10" d="M310.798,243.4v11.289
		l-5.362,2.419v14.48h10.726v-29.192C314.358,242.722,312.569,243.056,310.798,243.4z"/>
	<path id="r2334-2335" fill="#939598" stroke="#494949" stroke-width="0.6582" stroke-miterlimit="10" d="M289.966,271.591h15.47
		V257.11l5.362-2.419V243.4c-8.17,1.596-16.024,3.412-23.531,5.424l2.699,7.112V271.591z"/>
	<path id="r2336-2" fill="#939598" stroke="#494949" stroke-width="0.6582" stroke-miterlimit="10" d="M275.748,252.156
		c-1.565,0.488-3.121,0.981-4.651,1.486V268.3h6.143h0.879l0.727-8.178L275.748,252.156z"/>
	<path id="r2336-1" fill="#939598" stroke="#494949" stroke-width="0.6582" stroke-miterlimit="10" d="M285.03,259.029l-3.141-8.718
		c-2.08,0.598-4.122,1.215-6.141,1.845l3.099,7.966l0,0l0,0l-0.727,8.178h6.91L285.03,259.029L285.03,259.029z"/>
	<path id="r2340" fill="#939598" stroke="#494949" stroke-width="0.6582" stroke-miterlimit="10" d="M227.434,308.178v4.334h8.008
		v18.648h5.924h27.537v-9.982h8.337V268.3h-6.143v12.067h-19.199H239.61l-4.53-11.234c-7.563,4.251-14.132,8.81-19.568,13.622
		l11.922,14.287V308.178L227.434,308.178z"/>
	<path id="r2351" fill="#939598" stroke="#494949" stroke-width="0.6582" stroke-miterlimit="10" d="M254.778,331.162h-13.412
		v18.104l-8.201,13.207c3.445,2.006,7.119,3.942,10.986,5.812l10.627-16.906V331.162z"/>
	<path id="r2352" fill="#939598" stroke="#494949" stroke-width="0.6582" stroke-miterlimit="10" d="M254.778,331.162v20.215l0,0
		l0,0l-10.627,16.906c4.595,2.22,9.469,4.343,14.62,6.351l7.499-17.472h2.413l0.22-26H254.778z"/>
	<path id="r2354" fill="#939598" stroke="#494949" stroke-width="0.6582" stroke-miterlimit="10" d="M279.626,357.162h-10.942
		h-2.413l-7.499,17.472c6.539,2.548,13.508,4.918,20.854,7.093V357.162L279.626,357.162z"/>
	<path id="r2350" fill="#939598" stroke="#494949" stroke-width="0.6582" stroke-miterlimit="10" d="M241.366,331.162h-5.924
		v-18.648h-8.008h-2.153v7.625v16.002l-10.642,13.021c5.146,4.689,11.364,9.143,18.526,13.313l8.201-13.207V331.162L241.366,331.162
		z"/>
	<path id="r2348" fill="#939598" stroke="#494949" stroke-width="0.6582" stroke-miterlimit="10" d="M225.28,320.136h-10.408
		l-14.149,10.743c2.861,6.389,7.582,12.51,13.917,18.277l10.642-13.02L225.28,320.136L225.28,320.136L225.28,320.136z"/>
	<path id="r2347" fill="#939598" stroke="#494949" stroke-width="0.6582" stroke-miterlimit="10" d="M215.421,308.178l-13.307-9.156
		c-3.012,5.584-4.614,11.381-4.614,17.33c0,4.961,1.109,9.813,3.223,14.527l14.149-10.743h10.408v-7.625h2.153v-4.334
		L215.421,308.178L215.421,308.178z"/>
	<path id="r2346" fill="#939598" stroke="#494949" stroke-width="0.6582" stroke-miterlimit="10" d="M202.114,299.021l13.307,9.154
		h12.014V297.04l-11.922-14.287C209.688,287.909,205.171,293.354,202.114,299.021z"/>
	<path id="r2344" fill="#939598" stroke="#494949" stroke-width="0.6582" stroke-miterlimit="10" d="M235.081,269.133l4.53,11.234
		h12.288l-6.502-16.551C241.781,265.529,238.338,267.302,235.081,269.133z"/>
	<path id="r2338-2342" fill="#939598" stroke="#494949" stroke-width="0.6582" stroke-miterlimit="10" d="M245.396,263.816
		l6.502,16.551h19.199V268.3v-14.658C261.796,256.718,253.194,260.124,245.396,263.816z"/>
	<path id="r2362" fill="#939598" stroke="#494949" stroke-width="0.6582" stroke-miterlimit="10" d="M279.626,357.162h14.152h7.899
		v30.234c6.434,1.426,13.077,2.709,19.912,3.848v-35.729h10.778h11.931v-15.144H333.19v-9.215H268.9l-0.22,26h10.943
		L279.626,357.162L279.626,357.162z"/>
	<polygon id="r2318" fill="#939598" stroke="#494949" stroke-width="0.6582" stroke-miterlimit="10" points="357.71,266.324 
		357.71,278.337 369.469,278.337 369.77,266.324 	"/>
</g>
<g id="signs">
	<g id="atm">
		<rect x="292.49" y="272.331" opacity="0.8" enable-background="new    " width="14.812" height="14.812"/>
		<rect x="507.49" y="273.25" opacity="0.8" enable-background="new    " width="14.812" height="14.812"/>
		<rect x="171.085" y="195.399" opacity="0.8" enable-background="new    " width="14.812" height="14.811"/>
	</g>
	<g id="escalator">
		<rect x="386.032" y="375.152" opacity="0.8" enable-background="new    " width="14.812" height="14.813"/>
		<rect x="388.538" y="230.866" opacity="0.8" enable-background="new    " width="14.812" height="14.812"/>
		<rect x="494.08" y="388.871" opacity="0.8" enable-background="new    " width="14.812" height="14.813"/>
		<rect x="483.281" y="227.917" opacity="0.8" enable-background="new    " width="14.812" height="14.812"/>
		<rect x="411.191" y="167.18" opacity="0.8" enable-background="new    " width="14.81" height="14.811"/>
		<rect x="367.941" y="167.18" opacity="0.8" enable-background="new    " width="14.812" height="14.811"/>
		<rect x="239.971" y="220.768" opacity="0.8" enable-background="new    " width="14.811" height="14.811"/>
		<rect x="169.015" y="287.156" opacity="0.8" enable-background="new    " width="14.811" height="14.811"/>
		<rect x="145.427" y="326.156" opacity="0.8" enable-background="new    " width="14.811" height="14.812"/>
		<rect x="179.092" y="328.732" opacity="0.8" enable-background="new    " width="14.812" height="14.813"/>
		<rect x="139.998" y="367.227" opacity="0.8" enable-background="new    " width="14.812" height="14.813"/>
		<rect x="292.489" y="388.916" opacity="0.8" enable-background="new    " width="14.812" height="14.813"/>
		<rect x="346.958" y="453.54" opacity="0.8" enable-background="new    " width="14.812" height="14.811"/>
		<rect x="582.726" y="215.015" opacity="0.8" enable-background="new    " width="14.813" height="14.811"/>
		<rect x="588.617" y="385.891" opacity="0.8" enable-background="new    " width="14.812" height="14.812"/>
		<rect x="556.271" y="460.342" opacity="0.8" enable-background="new    " width="14.811" height="14.813"/>
		<rect x="633.938" y="487.749" opacity="0.8" enable-background="new    " width="14.813" height="14.811"/>
	</g>
	<g id="lift">
		<rect x="419.229" y="408.473" opacity="0.8" enable-background="new    " width="14.812" height="14.812"/>
		<rect x="224.252" y="213.363" opacity="0.8" enable-background="new    " width="14.812" height="14.812"/>
		<rect x="143.919" y="280.656" opacity="0.8" enable-background="new    " width="14.812" height="14.812"/>
		<rect x="132.594" y="317.156" opacity="0.8" enable-background="new    " width="14.811" height="14.812"/>
		<rect x="111.498" y="402.607" opacity="0.8" enable-background="new    " width="14.812" height="14.811"/>
		<rect x="101.498" y="427.107" opacity="0.8" enable-background="new    " width="14.812" height="14.812"/>
		<rect x="566.115" y="215.015" opacity="0.8" enable-background="new    " width="14.812" height="14.811"/>
		<rect x="579.463" y="370.08" opacity="0.8" enable-background="new    " width="14.813" height="14.813"/>
		<rect x="540.917" y="465.167" opacity="0.8" enable-background="new    " width="14.812" height="14.813"/>
	</g>
	<g id="toilet">
		<rect x="277.24" y="272.331" opacity="0.8" enable-background="new    " width="14.812" height="14.812"/>
		<rect x="492.24" y="273.25" opacity="0.8" enable-background="new    " width="14.812" height="14.812"/>
		<rect x="160.419" y="183.14" opacity="0.8" enable-background="new    " width="14.812" height="14.811"/>
		<rect x="285.667" y="417.594" opacity="0.8" enable-background="new    " width="14.812" height="14.813"/>
		<rect x="518.566" y="413.551" opacity="0.8" enable-background="new    " width="14.812" height="14.813"/>
		<rect x="658.951" y="397.311" opacity="0.8" enable-background="new    " width="14.812" height="14.813"/>
	</g>
</g>
</svg>
