<?xml version="1.0" encoding="utf-8"?>
<!-- Generator: Adobe Illustrator 16.0.0, SVG Export Plug-In . SVG Version: 6.00 Build 0)  -->
<!DOCTYPE svg PUBLIC "-//W3C//DTD SVG 1.1//EN" "http://www.w3.org/Graphics/SVG/1.1/DTD/svg11.dtd">
<svg version="1.1" id="Layer_1" xmlns="http://www.w3.org/2000/svg" xmlns:xlink="http://www.w3.org/1999/xlink" x="0px" y="0px"
	 width="1000px" height="1000px" viewBox="0 0 1000 1000" enable-background="new 0 0 1000 1000" xml:space="preserve">
<rect id="background" y="146.455" fill="#FFFFFF" width="1000" height="707.091"/>
<g id="etc">
	<path fill="#BFBFBF" stroke="#494949" stroke-width="0.5" stroke-miterlimit="10" d="M187.433,596.508l37.891,8.435v22.093
		l43.235,29.101l12.947,1.544l14.966,6.891l-9.74,24.469l-16.392-6.059l-7.008,16.63l22.568,21.022l61.052,24.231l19.955,3.562
		l36.703-14.489l1.425,4.751l20.786-7.009l2.494-35.634l-28.981,9.502l-5.583-17.697c0,0,70.555-36.229,102.981-11.521l-2.613,2.257
		l14.491,15.322l1.899-2.257l3.563,3.444l7.602-7.009h2.495c0,0,6.176,13.541,6.889,24.944h-11.878v21.38l80.059,17.936l5.226-5.345
		h37.891v-30.407l7.128,3.683c0,0,16.271,51.432,81.839,47.749c47.985-2.613,61.29-36.229,68.416-71.386h85.165V305.381H531.893
		v-42.167H408.719v1.069h-89.203v-6.889h-16.866l1.068-23.281H115.453v128.281h2.851l-0.119,19.124h78.869l-0.475,55.114
		L88.965,411.45L57.251,539.85v136.833l87.421,27.438l13.185-44.898l16.51,4.633L187.433,596.508z"/>
	
		<rect x="769.094" y="305.381" fill="none" stroke="#494949" stroke-width="0.6582" stroke-miterlimit="10" width="115.217" height="224.611"/>
	
		<rect x="115.453" y="233.995" fill="none" stroke="#494949" stroke-width="0.6582" stroke-miterlimit="10" width="188.146" height="128.281"/>
	<polygon fill="none" stroke="#494949" stroke-width="0.6582" stroke-miterlimit="10" points="458.486,449.46 488.419,452.311 
		488.419,405.511 460.031,405.511 	"/>
	<polygon fill="none" stroke="#494949" stroke-width="0.6582" stroke-miterlimit="10" points="458.486,458.843 488.419,467.514 
		488.419,517.758 456.349,517.758 	"/>
	<polygon fill="none" stroke="#494949" stroke-width="0.6582" stroke-miterlimit="10" points="454.805,529.754 489.726,524.527 
		491.745,583.68 453.261,580.116 	"/>
	<polygon fill="none" stroke="#494949" stroke-width="0.6582" stroke-miterlimit="10" points="453.261,592.113 491.745,593.062 
		495.189,635.586 450.41,635.586 	"/>
	<circle fill="none" stroke="#494949" stroke-width="0.6582" stroke-miterlimit="10" cx="725.858" cy="677.277" r="29.457"/>
	<circle fill="none" stroke="#494949" stroke-width="0.6582" stroke-miterlimit="10" cx="725.858" cy="677.278" r="17.817"/>
	<polyline fill="none" stroke="#494949" stroke-width="0.6582" stroke-miterlimit="10" points="117.947,362.157 117.947,381.28 
		197.054,381.28 196.579,436.394 	"/>
	<polyline fill="none" stroke="#494949" stroke-width="0.6582" stroke-miterlimit="10" points="200.736,381.28 200.736,429.742 
		217.247,434.493 	"/>
	<polygon fill="none" stroke="#494949" stroke-width="0.6582" stroke-miterlimit="10" points="266.421,407.056 277.943,433.068 
		300.392,421.665 289.108,396.128 	"/>
	<polyline fill="none" stroke="#494949" stroke-width="0.6582" stroke-miterlimit="10" points="303.599,257.275 319.396,257.275 
		319.396,268.559 408.719,268.559 	"/>
	
		<rect x="319.396" y="264.165" fill="none" stroke="#494949" stroke-width="0.6582" stroke-miterlimit="10" width="11.164" height="4.276"/>
	
		<rect x="330.562" y="264.165" fill="none" stroke="#494949" stroke-width="0.6582" stroke-miterlimit="10" width="11.164" height="4.276"/>
	
		<rect x="341.727" y="264.165" fill="none" stroke="#494949" stroke-width="0.6582" stroke-miterlimit="10" width="11.166" height="4.276"/>
	
		<rect x="352.893" y="264.165" fill="none" stroke="#494949" stroke-width="0.6582" stroke-miterlimit="10" width="11.165" height="4.276"/>
	
		<rect x="364.058" y="264.165" fill="none" stroke="#494949" stroke-width="0.6582" stroke-miterlimit="10" width="11.165" height="4.276"/>
	
		<rect x="375.223" y="264.165" fill="none" stroke="#494949" stroke-width="0.6582" stroke-miterlimit="10" width="11.165" height="4.276"/>
	
		<rect x="386.388" y="264.165" fill="none" stroke="#494949" stroke-width="0.6582" stroke-miterlimit="10" width="11.165" height="4.276"/>
	
		<rect x="397.553" y="264.165" fill="none" stroke="#494949" stroke-width="0.6582" stroke-miterlimit="10" width="11.166" height="4.276"/>
	
		<line fill="none" stroke="#494949" stroke-width="0.6582" stroke-miterlimit="10" x1="187.433" y1="596.508" x2="225.324" y2="604.941"/>
	
		<line fill="none" stroke="#494949" stroke-width="0.6582" stroke-miterlimit="10" x1="188.502" y1="590.926" x2="225.324" y2="599.24"/>
	
		<line fill="none" stroke="#494949" stroke-width="0.6582" stroke-miterlimit="10" x1="197.292" y1="598.765" x2="198.717" y2="593.301"/>
	
		<line fill="none" stroke="#494949" stroke-width="0.6582" stroke-miterlimit="10" x1="206.913" y1="600.902" x2="208.457" y2="595.438"/>
	
		<line fill="none" stroke="#494949" stroke-width="0.6582" stroke-miterlimit="10" x1="217.128" y1="603.159" x2="218.553" y2="597.695"/>
	
		<line fill="none" stroke="#494949" stroke-width="0.6582" stroke-miterlimit="10" x1="296.472" y1="664.568" x2="286.732" y2="688.918"/>
	<polyline fill="none" stroke="#494949" stroke-width="0.6582" stroke-miterlimit="10" points="301.224,695.569 305.024,686.067 
		345.646,681.673 	"/>
	
		<line fill="none" stroke="#494949" stroke-width="0.6582" stroke-miterlimit="10" x1="387.932" y1="682.385" x2="387.576" y2="709.11"/>
	<path fill="none" stroke="#494949" stroke-width="0.6582" stroke-miterlimit="10" d="M399.216,705.428l-5.582-17.697
		c0,0,75.425-36.939,102.981-11.521"/>
	<path fill="none" stroke="#494949" stroke-width="0.6582" stroke-miterlimit="10" d="M510.512,691.649l3.563,3.444l7.602-7.009
		h2.495c0,0,6.532,13.541,6.889,24.944"/>
	<path fill="none" stroke="#494949" stroke-width="0.6582" stroke-miterlimit="10" d="M526.547,676.09
		c0,0,10.69,25.182,10.453,36.821"/>
	
		<line fill="none" stroke="#494949" stroke-width="0.6582" stroke-miterlimit="10" x1="549.472" y1="676.09" x2="549.472" y2="713.03"/>
	<path fill="none" stroke="#494949" stroke-width="0.6582" stroke-miterlimit="10" d="M556.836,676.09
		c0,0,12.234,10.452,42.166,9.266c29.933-1.188,35.516-3.684,35.516-3.684v-5.582"/>
	
		<line fill="none" stroke="#494949" stroke-width="0.6582" stroke-miterlimit="10" x1="580.71" y1="713.03" x2="580.71" y2="684.642"/>
	
		<line fill="none" stroke="#494949" stroke-width="0.6582" stroke-miterlimit="10" x1="585.817" y1="713.03" x2="585.817" y2="685.117"/>
	<path fill="none" stroke="#494949" stroke-width="0.6582" stroke-miterlimit="10" d="M698.658,631.666
		c0,0,11.759-8.67,34.921-5.464"/>
	
		<line fill="none" stroke="#494949" stroke-width="0.6582" stroke-miterlimit="10" x1="433.543" y1="649.604" x2="509.443" y2="649.604"/>
	
		<rect x="434.375" y="646.276" fill="none" stroke="#494949" stroke-width="0.6582" stroke-miterlimit="10" width="17.697" height="3.324"/>
	
		<rect x="465.02" y="646.276" fill="none" stroke="#494949" stroke-width="0.6582" stroke-miterlimit="10" width="30.171" height="3.324"/>
	<circle fill="none" stroke="#494949" stroke-width="0.6582" stroke-miterlimit="10" cx="692.125" cy="410.619" r="15.204"/>
	<path fill="none" stroke="#494949" stroke-width="0.6582" stroke-miterlimit="10" d="M681.435,597.221l17.817,27.2
		c0,0,5.227-2.851,12.946-2.376l0.476-33.495C712.674,588.55,692.956,588.312,681.435,597.221z"/>
	
		<rect x="464.188" y="575.484" fill="none" stroke="#494949" stroke-width="0.5" stroke-miterlimit="10" width="15.916" height="9.738"/>
	
		<rect id="_x3C_Path_x3E__2_" x="598.884" y="701.983" fill="#BFBFBF" stroke="#494949" stroke-width="0.5" stroke-miterlimit="10" width="29.933" height="10.928"/>
	<path id="_x3C_Path_x3E_" fill="#BFBFBF" stroke="#494949" stroke-width="0.5" stroke-miterlimit="10" d="M681.197,698.062
		l-6.771,2.971l11.284,19.36l-3.683,4.275l10.81,9.859l9.146-14.254C692.956,715.405,685.592,707.566,681.197,698.062z"/>
	<polygon id="_x3C_Path_x3E__1_" fill="#BFBFBF" stroke="#494949" stroke-width="0.5" stroke-miterlimit="10" points="
		359.9,716.355 333.175,706.379 322.01,734.886 346.835,744.744 	"/>
</g>
<g id="rooms">
	<polygon id="robinson" fill="#939598" stroke="#494949" stroke-width="0.6582" stroke-miterlimit="10" points="408.719,263.214 
		531.893,263.214 531.893,360.375 498.04,360.375 498.04,388.526 446.134,388.526 446.134,360.851 408.719,360.851 	"/>
	<polygon id="r2264" fill="#939598" stroke="#494949" stroke-width="0.6582" stroke-miterlimit="10" points="672.17,617.176 
		683.098,610.762 690.699,620.977 676.564,628.935 	"/>
	<path id="blu-o-sub-zero" fill="#939598" stroke="#494949" stroke-width="0.6582" stroke-miterlimit="10" d="M539.851,305.381
		v10.809h21.736v6.771h22.806v55.351h43.829v23.043h45.73l0.118,0.119c3.326-6.533,10.215-11.046,18.055-11.046
		c11.165,0,20.312,9.027,20.312,20.312c0,5.701-2.377,10.927-6.297,14.609h39.791v23.399l20.312,0.237l0.237-143.604
		L539.851,305.381L539.851,305.381z"/>
	<path id="r2624" fill="#939598" stroke="#494949" stroke-width="0.6582" stroke-miterlimit="10" d="M656.135,401.354h-15.203
		v24.587C656.135,421.071,656.135,401.354,656.135,401.354z"/>
	<polygon id="r2530" fill="#939598" stroke="#494949" stroke-width="0.6582" stroke-miterlimit="10" points="249.317,420.715 
		268.678,420.715 265.352,411.807 248.248,381.28 218.078,381.28 217.484,420.715 248.842,420.715 	"/>
	<polygon id="r2524" fill="#939598" stroke="#494949" stroke-width="0.6582" stroke-miterlimit="10" points="273.904,363.938 
		282.337,389.357 293.74,385.557 288.633,363.938 	"/>
	<polygon id="r2526-2528" fill="#939598" stroke="#494949" stroke-width="0.6582" stroke-miterlimit="10" points="218.078,363.938 
		218.078,375.936 250.267,376.292 262.145,396.128 282.337,389.357 273.904,363.938 	"/>
	<polygon id="r2522" fill="#939598" stroke="#494949" stroke-width="0.6582" stroke-miterlimit="10" points="316.902,356.812 
		305.499,356.812 305.499,363.938 288.633,363.938 293.74,385.557 295.047,385.082 316.902,377.004 	"/>
	<path id="ikea" fill="#939598" stroke="#494949" stroke-width="0.6582" stroke-miterlimit="10" d="M233.995,468.82l0.95-3.683
		L214.99,440.67L88.847,411.213L57.251,539.851v136.833l87.421,27.438l13.185-44.898l16.51,4.633l19.361-99.537l6.651,1.663
		l3.326-36.108l-27.319-22.449l14.253-8.671l5.464,17.461l9.146-2.376l-4.87-20.668l12.828,1.069
		C217.841,485.449,224.967,476.897,233.995,468.82z"/>
	<path id="r2236-2240" fill="#939598" stroke="#494949" stroke-width="0.6582" stroke-miterlimit="10" d="M550.422,636.18
		c-1.663,0.238-5.938,0.713-8.671,1.069c-1.544,0.237-3.089,0.356-4.751,0.594c-2.852,0.356-5.702,0.594-8.553,0.832v16.51H537l0,0
		h7.126l0,0h6.296V636.18L550.422,636.18z"/>
	<path id="r2241" fill="#939598" stroke="#494949" stroke-width="0.6582" stroke-miterlimit="10" d="M550.422,636.18v19.005h5.582
		v-19.717C554.104,635.586,552.203,635.942,550.422,636.18z"/>
	<path id="r2242" fill="#939598" stroke="#494949" stroke-width="0.6582" stroke-miterlimit="10" d="M556.004,635.349v19.719h6.414
		V634.28C560.28,634.755,558.143,634.992,556.004,635.349z"/>
	<path id="r2246" fill="#939598" stroke="#494949" stroke-width="0.6582" stroke-miterlimit="10" d="M578.453,631.548
		c-1.307,0.237-2.731,0.476-4.038,0.831v22.806h5.701l0,0l0,0h7.721v-5.227v-20.192
		C585.699,630.122,581.305,630.954,578.453,631.548z"/>
	<path id="r2248" fill="#939598" stroke="#494949" stroke-width="0.6582" stroke-miterlimit="10" d="M587.837,629.646v20.192h15.562
		v-23.875C598.408,627.271,593.182,628.459,587.837,629.646z"/>
	<path id="r2250" fill="#939598" stroke="#494949" stroke-width="0.6582" stroke-miterlimit="10" d="M603.396,649.84h10.216v-26.605
		c-3.326,0.949-6.771,1.78-10.216,2.73V649.84L603.396,649.84z"/>
	<path id="r2252" fill="#939598" stroke="#494949" stroke-width="0.6582" stroke-miterlimit="10" d="M618.838,621.808v15.68h14.61
		v-20.312C628.815,618.72,623.827,620.264,618.838,621.808z"/>
	<path id="r2254" fill="#939598" stroke="#494949" stroke-width="0.6582" stroke-miterlimit="10" d="M633.566,617.176v20.312v18.055
		l19.718-12.115l-11.521-29.102C639.031,615.275,636.299,616.226,633.566,617.176z"/>
	<path id="r2256" fill="#939598" stroke="#494949" stroke-width="0.6582" stroke-miterlimit="10" d="M641.763,614.206l11.521,29.101
		l7.84-4.632l-10.69-27.913C647.583,612.068,644.732,613.137,641.763,614.206z"/>
	<path id="r2258-2262" fill="#939598" stroke="#494949" stroke-width="0.6582" stroke-miterlimit="10" d="M672.051,616.938
		l11.047-6.176l-8.194-10.928c-2.495,1.307-9.979,4.869-12.591,6.058c-1.9,0.831-3.684,1.663-5.228,2.258
		c-2.138,0.949-4.395,1.899-6.651,2.73l10.69,27.913l7.602-4.751l0,0l7.84-4.988L672.051,616.938z"/>
	<path id="r2638" fill="#939598" stroke="#494949" stroke-width="0.6582" stroke-miterlimit="10" d="M735.717,541.395
		c7.008,2.852,23.162,9.266,26.369,10.216c4.038,1.307,4.157-0.831,4.157-0.831v-24.825l-27.2-0.356
		C738.688,531.061,737.617,536.287,735.717,541.395z"/>
	<path id="r2636" fill="#939598" stroke="#494949" stroke-width="0.6582" stroke-miterlimit="10" d="M739.161,522.271
		c0,1.188,0,2.256-0.118,3.443h27.2V512.53H738.33C738.924,515.619,739.161,518.945,739.161,522.271z"/>
	<path id="r2634" fill="#939598" stroke="#494949" stroke-width="0.6582" stroke-miterlimit="10" d="M735.598,502.554
		c1.188,3.207,2.14,6.533,2.732,9.858h27.913v-16.035h-12.947L735.598,502.554z"/>
	<path id="r2632" fill="#939598" stroke="#494949" stroke-width="0.6582" stroke-miterlimit="10" d="M745.932,448.747v30.407
		l-16.034,11.759c2.376,3.802,4.275,7.721,5.7,11.641l17.698-6.177h12.947v-47.749L745.932,448.747L745.932,448.747z"/>
	<path id="r2630" fill="#939598" stroke="#494949" stroke-width="0.6582" stroke-miterlimit="10" d="M721.463,460.981
		L721.463,460.981l-8.076,10.096c6.771,6.296,12.234,12.947,16.511,19.836l16.034-11.759v-30.407h-14.608L721.463,460.981z"/>
	<path id="r2616" fill="#939598" stroke="#494949" stroke-width="0.6582" stroke-miterlimit="10" d="M601.378,417.983V378.43
		h-16.985v35.752C590.213,415.251,595.914,416.558,601.378,417.983z"/>
	<path id="r2618-2620" fill="#939598" stroke="#494949" stroke-width="0.6582" stroke-miterlimit="10" d="M628.222,425.466v-24.23
		v-23.043h-26.844v39.553C610.643,420.24,619.67,422.734,628.222,425.466z"/>
	<path id="r2608" fill="#939598" stroke="#494949" stroke-width="0.6582" stroke-miterlimit="10" d="M516.332,366.077h-14.609
		v37.772c4.869,0.237,9.739,0.594,14.609,0.95V366.077z"/>
	<path id="r2610" fill="#939598" stroke="#494949" stroke-width="0.6582" stroke-miterlimit="10" d="M527.497,405.63v-39.553
		h-11.165v38.603C520.015,405.036,523.815,405.274,527.497,405.63z"/>
	<path id="r2611" fill="#939598" stroke="#494949" stroke-width="0.6582" stroke-miterlimit="10" d="M539.851,406.937v-40.86
		h-12.354v39.553C531.654,405.986,535.812,406.461,539.851,406.937z"/>
	<path id="r2612-2614" fill="#939598" stroke="#494949" stroke-width="0.6582" stroke-miterlimit="10" d="M584.393,414.063v-35.752
		V322.96h-22.806v-6.771h-21.736v49.887v40.86C555.292,408.718,570.258,411.094,584.393,414.063z"/>
	<path id="r2628" fill="#939598" stroke="#494949" stroke-width="0.6582" stroke-miterlimit="10" d="M707.328,448.034l7.009,6.414
		l7.126,6.414l9.621-12.115h0.238h14.608v-23.399H706.14c-3.682,3.444-8.552,5.701-14.016,5.701c-0.237,0-0.477,0-0.713,0
		c-5.228,2.97-10.215,9.502,0.594,23.637c2.139,1.427,4.276,2.732,6.177,4.157L707.328,448.034z"/>
	<path id="r2626-2627" fill="#939598" stroke="#494949" stroke-width="0.6582" stroke-miterlimit="10" d="M721.463,460.862
		l-14.016-12.828l-9.027,10.689c2.613,1.9,12.71,10.334,15.085,12.234L721.463,460.862z"/>
	<path id="r2622" fill="#939598" stroke="#494949" stroke-width="0.6582" stroke-miterlimit="10" d="M632.735,427.011
		c3.089,0.118,5.819-0.237,8.195-1.068v-24.587h-12.828v24.231C629.766,426.061,631.311,426.535,632.735,427.011z"/>
	<path id="r2502" fill="#939598" stroke="#494949" stroke-width="0.6582" stroke-miterlimit="10" d="M403.255,363.107h-8.671v45.136
		c2.852-0.356,5.82-0.712,8.671-1.069c2.375-0.238,4.632-0.594,7.008-0.832v-43.235H403.255z"/>
	<path id="r2503-2506" fill="#939598" stroke="#494949" stroke-width="0.6582" stroke-miterlimit="10" d="M424.872,363.107
		L424.872,363.107h-7.364l0,0h-7.245v43.235c2.375-0.237,4.751-0.475,7.245-0.713l0,0c2.494-0.237,4.87-0.475,7.364-0.594l0,0
		c5.346-0.475,10.69-0.832,16.154-1.069v-40.86L424.872,363.107L424.872,363.107z"/>
	<polygon id="r2519-4" fill="#939598" stroke="#494949" stroke-width="0.6582" stroke-miterlimit="10" points="352.417,291.958 
		339.826,291.958 330.8,311.676 330.8,311.676 330.8,311.676 316.902,311.676 316.902,326.404 352.417,326.404 	"/>
	<polygon id="r2519-3" fill="#939598" stroke="#494949" stroke-width="0.6582" stroke-miterlimit="10" points="352.417,326.404 
		316.902,326.404 316.902,337.808 335.907,337.808 335.907,337.808 352.417,337.808 	"/>
	
		<rect id="r2519-2" x="316.902" y="337.808" fill="#939598" stroke="#494949" stroke-width="0.6582" stroke-miterlimit="10" width="19.005" height="16.629"/>
	
		<rect id="r2519-1" x="316.902" y="354.437" fill="#939598" stroke="#494949" stroke-width="0.6582" stroke-miterlimit="10" width="19.005" height="18.173"/>
	<polygon id="r2519" fill="#939598" stroke="#494949" stroke-width="0.6582" stroke-miterlimit="10" points="339.826,291.958 
		339.826,291.958 339.826,291.958 352.417,291.958 352.417,270.579 328.188,270.579 316.902,286.139 316.902,311.676 330.8,311.676 
			"/>
	<polygon id="r2521" fill="#939598" stroke="#494949" stroke-width="0.6582" stroke-miterlimit="10" points="335.907,372.729 
		316.902,372.729 316.902,393.871 317.021,394.108 317.14,394.108 317.14,394.108 335.907,394.108 	"/>
	<path id="r2518" fill="#939598" stroke="#494949" stroke-width="0.6582" stroke-miterlimit="10" d="M317.14,394.108l6.771,29.22
		c3.92-1.188,7.958-2.257,11.997-3.444V393.99L317.14,394.108L317.14,394.108z"/>
	<path id="r2520" fill="#939598" stroke="#494949" stroke-width="0.6582" stroke-miterlimit="10" d="M394.584,408.243v-45.136
		v-9.502h8.671v-55.47h-20.786v-17.58l-9.266-9.858h-20.904v145.267C365.839,412.757,379.974,410.263,394.584,408.243z"/>
	<path id="r2534-2536" fill="#939598" stroke="#494949" stroke-width="0.6582" stroke-miterlimit="10" d="M249.317,420.715h-0.475
		h-31.357l-0.238,13.66l24.112,28.269c6.533-4.987,13.897-9.857,21.974-14.371L249.317,420.715z"/>
	<path id="r2532" fill="#939598" stroke="#494949" stroke-width="0.6582" stroke-miterlimit="10" d="M276.161,441.62l-7.483-20.905
		h-19.243l14.016,27.438C267.49,446.015,271.766,443.758,276.161,441.62z"/>
	<path id="r2128" fill="#939598" stroke="#494949" stroke-width="0.6582" stroke-miterlimit="10" d="M241.715,608.029l9.027,6.771
		l12.116-18.886c-3.207-1.781-6.295-3.683-9.265-5.583L241.715,608.029z"/>
	<path id="r2126" fill="#939598" stroke="#494949" stroke-width="0.6582" stroke-miterlimit="10" d="M241.715,608.029l11.878-17.698
		c-5.939-3.801-11.403-7.721-16.392-11.878l-11.878,16.748v31.952l12.234,8.194l13.184-20.668L241.715,608.029z"/>
	<path id="r2130" fill="#939598" stroke="#494949" stroke-width="0.6582" stroke-miterlimit="10" d="M262.858,595.795
		l-12.116,18.886l-13.184,20.668l13.184,8.908l25.775-41.216C271.766,600.665,267.134,598.289,262.858,595.795z"/>
	<path id="r2132" fill="#939598" stroke="#494949" stroke-width="0.6582" stroke-miterlimit="10" d="M250.742,644.257l17.817,11.997
		l21.262-47.749c0,0-9.502-3.562-13.303-5.464L250.742,644.257z"/>
	<path id="r2234" fill="#939598" stroke="#494949" stroke-width="0.6582" stroke-miterlimit="10" d="M509.443,640.219v21.975
		l6.058,6.177l12.946-13.186v-16.51C522.152,639.269,515.857,639.743,509.443,640.219z"/>
	<polygon id="r2232" fill="#939598" stroke="#494949" stroke-width="0.6582" stroke-miterlimit="10" points="515.501,668.369 
		522.627,676.09 545.076,676.09 545.076,655.185 528.447,655.185 	"/>
	
		<rect id="r2230" x="545.076" y="655.185" fill="#939598" stroke="#494949" stroke-width="0.6582" stroke-miterlimit="10" width="23.399" height="21.024"/>
	
		<rect id="r2229" x="568.477" y="655.185" fill="#939598" stroke="#494949" stroke-width="0.6582" stroke-miterlimit="10" width="19.36" height="21.024"/>
	<polygon id="r2227" fill="#939598" stroke="#494949" stroke-width="0.6582" stroke-miterlimit="10" points="587.837,676.09 
		613.612,676.09 613.612,655.541 599.596,655.541 599.596,649.84 587.837,649.84 	"/>
	<polygon id="r2224" fill="#939598" stroke="#494949" stroke-width="0.6582" stroke-miterlimit="10" points="633.566,655.541 
		618.244,655.541 618.244,676.09 653.641,676.09 653.641,643.188 	"/>
	<path id="r2208" fill="#939598" stroke="#494949" stroke-width="0.6582" stroke-miterlimit="10" d="M685.711,720.395l-11.284-19.36
		l-16.152,7.008l3.682,6.89l-12.234,5.227c0,0,4.87,21.144,30.052,34.803l13.065-20.43l-10.81-9.859L685.711,720.395z"/>
	<path id="r2222" fill="#939598" stroke="#494949" stroke-width="0.6582" stroke-miterlimit="10" d="M666.112,635.705l-12.473,7.482
		v32.901h22.925c0.237-10.097,3.444-19.361,8.789-27.082L666.112,635.705z"/>
	<path id="r2221" fill="#939598" stroke="#494949" stroke-width="0.6582" stroke-miterlimit="10" d="M700.914,634.755
		l-10.215-13.896l-24.587,14.729l19.36,13.422C689.512,643.307,694.738,638.318,700.914,634.755z"/>
	<path id="r2214" fill="#939598" stroke="#494949" stroke-width="0.6582" stroke-miterlimit="10" d="M769.331,700.202l26.963,13.064
		c3.801-13.303,5.107-26.486,5.464-35.989h-26.726C775.032,685.592,773.014,693.432,769.331,700.202z"/>
	<path id="r2212" fill="#939598" stroke="#494949" stroke-width="0.6582" stroke-miterlimit="10" d="M751.752,719.088l22.093,21.617
		l-10.689,10.216l3.92,6.889c15.679-10.57,24.469-27.794,29.22-44.66l-26.963-13.065
		C765.293,708.041,759.235,714.574,751.752,719.088z"/>
	<path id="r2216" fill="#939598" stroke="#494949" stroke-width="0.6582" stroke-miterlimit="10" d="M801.758,662.786l-10.334-0.237
		V640.1h-7.721l-14.135,14.61c3.444,6.771,5.464,14.372,5.464,22.567h26.726C802.233,668.488,801.758,662.786,801.758,662.786z"/>
	<path id="r2146" fill="#939598" stroke="#494949" stroke-width="0.6582" stroke-miterlimit="10" d="M374.392,652.215h9.621v-17.579
		c-3.325-0.475-6.651-1.067-9.858-1.663v19.361L374.392,652.215L374.392,652.215z"/>
	<path id="r2150" fill="#939598" stroke="#494949" stroke-width="0.6582" stroke-miterlimit="10" d="M401.354,652.215v-15.203
		c-2.375-0.237-4.752-0.594-7.009-0.949v16.152H401.354L401.354,652.215z"/>
	<path id="r2148" fill="#939598" stroke="#494949" stroke-width="0.6582" stroke-miterlimit="10" d="M394.346,652.215v-16.152
		c-3.443-0.477-6.889-0.95-10.333-1.545v17.697H394.346L394.346,652.215z"/>
	<path id="r2152" fill="#939598" stroke="#494949" stroke-width="0.6582" stroke-miterlimit="10" d="M408.243,652.215v-14.49
		c-2.257-0.237-4.632-0.476-6.89-0.832v15.204h6.89V652.215z"/>
	<path id="r2140" fill="#939598" stroke="#494949" stroke-width="0.6582" stroke-miterlimit="10" d="M341.133,637.725v-11.878
		c-3.207-0.832-6.414-1.663-9.621-2.612l-4.274,14.372L341.133,637.725L341.133,637.725z"/>
	<path id="r2144" fill="#939598" stroke="#494949" stroke-width="0.6582" stroke-miterlimit="10" d="M357.524,652.215h16.629
		v-19.359c-5.582-0.95-11.165-2.021-16.629-3.207v8.076V652.215z"/>
	<path id="r2116" fill="#939598" stroke="#494949" stroke-width="0.6582" stroke-miterlimit="10" d="M401.354,652.215h-7.009
		h-10.333v30.646c9.502-1.069,17.579-2.852,24.23-4.87v-25.656L401.354,652.215L401.354,652.215z"/>
	<path id="r2138" fill="#939598" stroke="#494949" stroke-width="0.6582" stroke-miterlimit="10" d="M327.117,646.989v-9.266
		l4.275-14.373c-3.92-1.067-7.84-2.257-11.641-3.443l-6.414,22.687L327.117,646.989z"/>
	<path id="r2114" fill="#939598" stroke="#494949" stroke-width="0.6582" stroke-miterlimit="10" d="M433.543,640.1
		c-8.552-0.594-16.985-1.307-25.3-2.257v14.491v25.656c17.104-5.107,25.3-11.759,25.3-11.759V640.1z"/>
	<path id="r2118-2120" fill="#939598" stroke="#494949" stroke-width="0.6582" stroke-miterlimit="10" d="M374.392,652.215h-0.237
		h-16.629v15.204h-11.879v15.679c14.729,1.308,27.438,1.069,38.366-0.236v-30.646H374.392L374.392,652.215z"/>
	<path id="r2134-2136" fill="#939598" stroke="#494949" stroke-width="0.6582" stroke-miterlimit="10" d="M297.304,612.068
		l-5.226,14.847l23.162,9.146l4.514-16.153C312.032,617.413,304.549,614.8,297.304,612.068z"/>
	<path id="r2124" fill="#939598" stroke="#494949" stroke-width="0.6582" stroke-miterlimit="10" d="M281.506,657.679l20.786,9.503
		l-2.257,7.245c1.426,0.356,2.852,0.713,4.275,1.069l9.266-33.021l1.782-6.414l-23.162-9.146L281.506,657.679z"/>
	<path id="r2122" fill="#939598" stroke="#494949" stroke-width="0.6582" stroke-miterlimit="10" d="M338.164,667.656v-15.561
		h-12.947l-13.185-4.514l-7.839,27.913c13.184,3.444,25.3,5.701,36.346,7.008v-14.848L338.164,667.656L338.164,667.656z"/>
	<polygon id="r2108a" fill="#939598" stroke="#494949" stroke-width="0.6582" stroke-miterlimit="10" points="394.702,706.854 
		383.537,710.417 384.605,710.18 394.346,737.498 403.611,733.816 401.592,727.877 	"/>
	<polygon id="r2110" fill="#939598" stroke="#494949" stroke-width="0.6582" stroke-miterlimit="10" points="413.707,700.677 
		394.702,706.854 401.473,727.402 403.611,733.816 403.611,733.816 404.918,738.567 425.704,731.56 428.198,695.926 	"/>
	<polygon id="r2102" fill="#939598" stroke="#494949" stroke-width="0.6582" stroke-miterlimit="10" points="270.341,682.86 
		263.333,699.489 285.901,720.513 296.947,692.838 	"/>
	<polygon id="r2104" fill="#939598" stroke="#494949" stroke-width="0.6582" stroke-miterlimit="10" points="307.638,696.876 
		296.472,724.789 322.01,734.886 333.175,706.379 	"/>
	<polygon id="r2233" fill="#939598" stroke="#494949" stroke-width="0.6582" stroke-miterlimit="10" points="494.12,678.584 
		506.474,666.469 520.371,679.653 508.73,693.906 	"/>
	<polygon id="r2202" fill="#939598" stroke="#494949" stroke-width="0.6582" stroke-miterlimit="10" points="533.911,713.03 
		519.183,713.03 519.183,734.41 533.911,737.617 560.518,743.675 560.518,713.03 	"/>
	
		<rect id="r2206" x="604.585" y="716.594" fill="#939598" stroke="#494949" stroke-width="0.6582" stroke-miterlimit="10" width="37.891" height="30.407"/>
	<path id="mega-cineplex" fill="#939598" stroke="#494949" stroke-width="0.6582" stroke-miterlimit="10" d="M766.243,531.417
		v19.479c0,0-0.119,2.139-4.157,0.831c-3.089-1.068-19.242-7.482-26.369-10.215c0,0-9.384,23.874-23.993,35.039l26.726,29.457
		h18.055l0.477,12.234h24.823v24.111l2.021-2.02h7.721v22.449l10.334,0.237c0,0,0.356,5.701,0,14.49
		c-0.238,5.464-0.832,12.116-1.9,19.361l0,0h84.928V531.417H766.243L766.243,531.417z"/>
	<path id="r2464" fill="#939598" stroke="#494949" stroke-width="0.6582" stroke-miterlimit="10" d="M539.019,592.113v22.566
		c2.613-0.354,5.107-0.594,7.722-0.949v-21.5L539.019,592.113L539.019,592.113z"/>
	<path id="r2430" fill="#939598" stroke="#494949" stroke-width="0.6582" stroke-miterlimit="10" d="M561.468,433.068
		c-4.395-0.713-9.025-1.427-13.54-2.021v28.507v12.115h13.54V433.068z"/>
	<path id="r2432-2434" fill="#939598" stroke="#494949" stroke-width="0.6582" stroke-miterlimit="10" d="M581.66,471.671h6.651
		v-33.495c-8.671-1.899-17.579-3.683-26.845-5.227v38.604L581.66,471.671L581.66,471.671z"/>
	<path id="r2436" fill="#939598" stroke="#494949" stroke-width="0.6582" stroke-miterlimit="10" d="M600.784,471.671v-30.407
		c-4.039-1.068-8.196-2.02-12.354-2.97v33.496L600.784,471.671L600.784,471.671z"/>
	<path id="r2438" fill="#939598" stroke="#494949" stroke-width="0.6582" stroke-miterlimit="10" d="M600.784,471.671h9.265v-27.913
		c-3.088-0.831-6.058-1.662-9.265-2.494V471.671L600.784,471.671z"/>
	<path id="r2440" fill="#939598" stroke="#494949" stroke-width="0.6582" stroke-miterlimit="10" d="M624.658,471.671v-23.28
		c-3.207-1.068-6.532-2.138-9.858-3.207v26.487H624.658z"/>
	<path id="r2442" fill="#939598" stroke="#494949" stroke-width="0.6582" stroke-miterlimit="10" d="M624.658,448.271v23.28h3.207
		v12.946h6.058v-4.87v-28.149C630.954,450.528,627.865,449.341,624.658,448.271z"/>
	<path id="r2428" fill="#939598" stroke="#494949" stroke-width="0.6582" stroke-miterlimit="10" d="M535.574,429.505v30.051h12.354
		v-28.507C543.889,430.455,539.731,429.979,535.574,429.505z"/>
	<path id="r2426" fill="#939598" stroke="#494949" stroke-width="0.6582" stroke-miterlimit="10" d="M522.983,428.198v15.798v15.56
		h12.591v-30.051C531.417,429.029,527.141,428.555,522.983,428.198z"/>
	<path id="r2328" fill="#939598" stroke="#494949" stroke-width="0.6582" stroke-miterlimit="10" d="M396.484,431.049v38.009h14.135
		v-39.672C405.867,429.861,401.116,430.455,396.484,431.049z"/>
	<path id="r2330" fill="#939598" stroke="#494949" stroke-width="0.6582" stroke-miterlimit="10" d="M385.676,432.593v36.348h10.81
		V430.93C392.802,431.523,389.238,432.118,385.676,432.593z"/>
	<path id="r2331" fill="#939598" stroke="#494949" stroke-width="0.6582" stroke-miterlimit="10" d="M375.579,434.375v34.683h10.215
		v-36.346C382.23,433.188,378.905,433.78,375.579,434.375z"/>
	<path id="r2364" fill="#939598" stroke="#494949" stroke-width="0.6582" stroke-miterlimit="10" d="M381.993,568.714v42.404
		c4.157,0.712,8.434,1.306,12.828,1.899v-44.424L381.993,568.714L381.993,568.714z"/>
	<path id="r2366" fill="#939598" stroke="#494949" stroke-width="0.6582" stroke-miterlimit="10" d="M394.821,613.137
		c4.632,0.595,9.384,1.188,14.135,1.782v-15.798v-30.407h-14.135V613.137z"/>
	<path id="r2302" fill="#939598" stroke="#494949" stroke-width="0.6582" stroke-miterlimit="10" d="M422.259,616.226v-17.104
		h-13.303v15.798C413.351,615.394,417.746,615.869,422.259,616.226z"/>
	<polygon id="r2322" fill="#939598" stroke="#494949" stroke-width="0.6582" stroke-miterlimit="10" points="439.839,438.889 
		424.872,438.889 424.872,449.222 439.601,449.222 	"/>
	<polygon id="r2320" fill="#939598" stroke="#494949" stroke-width="0.6582" stroke-miterlimit="10" points="424.872,449.222 
		424.872,462.763 439.244,462.763 439.601,449.222 	"/>
	<polygon id="r2316" fill="#939598" stroke="#494949" stroke-width="0.6582" stroke-miterlimit="10" points="438.294,500.653 
		438.532,488.895 410.619,488.895 410.619,500.653 	"/>
	<polygon id="r2305" fill="#939598" stroke="#494949" stroke-width="0.6582" stroke-miterlimit="10" points="436.037,588.074 
		408.956,588.074 408.956,599.121 422.259,599.121 435.8,599.121 	"/>
	<polygon id="r2306" fill="#939598" stroke="#494949" stroke-width="0.6582" stroke-miterlimit="10" points="436.513,568.714 
		408.956,568.714 408.956,588.074 436.037,588.074 	"/>
	<polygon id="r2308" fill="#939598" stroke="#494949" stroke-width="0.6582" stroke-miterlimit="10" points="436.988,550.778 
		408.956,550.778 408.956,568.714 436.513,568.714 	"/>
	<polygon id="r2310-2312" fill="#939598" stroke="#494949" stroke-width="0.6582" stroke-miterlimit="10" points="437.582,528.804 
		395.771,528.804 395.771,539.851 395.771,550.778 408.956,550.778 436.988,550.778 	"/>
	<polygon id="r2314" fill="#939598" stroke="#494949" stroke-width="0.6582" stroke-miterlimit="10" points="437.582,528.804 
		438.294,500.653 410.619,500.653 410.619,488.895 410.619,477.017 410.619,469.058 365.721,469.058 365.721,488.895 
		329.255,488.895 329.255,527.973 319.396,527.973 319.396,539.851 395.771,539.851 395.771,528.804 	"/>
	<path id="r2304" fill="#939598" stroke="#494949" stroke-width="0.6582" stroke-miterlimit="10" d="M422.259,599.121v17.104
		c4.276,0.355,8.671,0.712,13.066,0.95l0.475-18.055L422.259,599.121L422.259,599.121z"/>
	<path id="r2356-2358" fill="#939598" stroke="#494949" stroke-width="0.6582" stroke-miterlimit="10" d="M332.105,570.732v29.22
		c5.465,1.663,11.047,3.089,16.866,4.514v-33.733H332.105L332.105,570.732z"/>
	<path id="r2360" fill="#939598" stroke="#494949" stroke-width="0.6582" stroke-miterlimit="10" d="M348.973,570.732v33.732
		c3.088,0.713,6.178,1.426,9.385,2.139v-35.871H348.973L348.973,570.732z"/>
	<path id="r2462" fill="#939598" stroke="#494949" stroke-width="0.6582" stroke-miterlimit="10" d="M613.612,599.596
		c4.751-1.425,9.265-2.851,13.659-4.395v-31.357h-13.659V599.596z"/>
	<path id="r2454" fill="#939598" stroke="#494949" stroke-width="0.6582" stroke-miterlimit="10" d="M644.02,588.906v-24.943
		h-16.629v31.357C633.092,593.182,638.675,591.044,644.02,588.906z"/>
	<path id="r2448" fill="#939598" stroke="#494949" stroke-width="0.6582" stroke-miterlimit="10" d="M710.417,522.271
		c0-21.737-17.817-41.812-47.987-57.847l-8.194,15.441h-8.077h-12.234v4.87h-6.058l-0.595,79.344H643.9h12.473l7.245,15.561
		C693.075,563.487,710.417,543.651,710.417,522.271z"/>
	<path id="r2446" fill="#939598" stroke="#494949" stroke-width="0.6582" stroke-miterlimit="10" d="M646.157,479.748h8.077
		l8.194-15.441c-5.106-2.73-10.452-5.345-16.271-7.839V479.748L646.157,479.748z"/>
	<path id="r2456" fill="#939598" stroke="#494949" stroke-width="0.6582" stroke-miterlimit="10" d="M581.66,490.913v116.76
		c11.166-2.375,21.854-4.988,31.952-8.077v-35.752h13.659l0.594-79.345l-5.227,6.296H581.66V490.913z"/>
	<polygon id="r2422" fill="#939598" stroke="#494949" stroke-width="0.6582" stroke-miterlimit="10" points="505.998,474.521 
		547.928,474.521 547.928,471.671 547.928,459.556 522.983,459.556 505.642,459.556 	"/>
	<polygon id="r2420" fill="#939598" stroke="#494949" stroke-width="0.6582" stroke-miterlimit="10" points="506.354,488.895 
		547.928,488.895 547.928,474.521 505.998,474.521 	"/>
	<polygon id="r2414" fill="#939598" stroke="#494949" stroke-width="0.6582" stroke-miterlimit="10" points="507.424,535.455 
		546.621,535.455 546.621,521.083 507.067,521.083 	"/>
	<polygon id="r2412" fill="#939598" stroke="#494949" stroke-width="0.6582" stroke-miterlimit="10" points="507.78,553.153 
		546.621,553.153 546.621,535.455 507.424,535.455 	"/>
	<polygon id="r2408-2410" fill="#939598" stroke="#494949" stroke-width="0.6582" stroke-miterlimit="10" points="508.374,578.097 
		546.621,578.097 546.621,553.153 507.78,553.153 	"/>
	<polygon id="r2406" fill="#939598" stroke="#494949" stroke-width="0.6582" stroke-miterlimit="10" points="508.374,578.097 
		508.611,592.113 539.019,592.113 546.621,592.113 546.621,578.097 	"/>
	<polygon id="r2424" fill="#939598" stroke="#494949" stroke-width="0.6582" stroke-miterlimit="10" points="505.642,459.556 
		522.983,459.556 522.983,443.996 505.285,443.996 	"/>
	<path id="r2402" fill="#939598" stroke="#494949" stroke-width="0.6582" stroke-miterlimit="10" d="M508.968,606.485l5.701,10.334
		c8.314-0.595,16.392-1.308,24.35-2.258v-22.567H508.73L508.968,606.485z"/>
	<path id="r2425" fill="#939598" stroke="#494949" stroke-width="0.6582" stroke-miterlimit="10" d="M522.983,443.996v-15.798
		c-5.938-0.477-11.996-0.95-18.055-1.308l0.355,17.104L522.983,443.996L522.983,443.996z"/>
	<path id="r2418-2460" fill="#939598" stroke="#494949" stroke-width="0.6582" stroke-miterlimit="10" d="M561.468,471.671h-13.54
		v2.852v14.372h-41.69l0.475,19.005h39.91v13.185v14.491v17.579v25.062v13.897v21.499c12.115-1.663,23.756-3.563,35.039-5.939
		v-116.76v-19.242H561.468L561.468,471.671z"/>
	<path id="r2332" fill="#939598" stroke="#494949" stroke-width="0.6582" stroke-miterlimit="10" d="M369.165,435.562v13.422
		l-6.414,2.851v17.223h12.709v-34.683C373.441,434.73,371.303,435.206,369.165,435.562z"/>
	<path id="r2334-2335" fill="#939598" stroke="#494949" stroke-width="0.6582" stroke-miterlimit="10" d="M355.149,469.058h-1.069
		h8.671v-17.223l6.414-2.851v-13.422c-9.74,1.899-5.107,0.594-14.016,2.97V469.058z"/>
	<path id="r2336-2" fill="#939598" stroke="#494949" stroke-width="0.6582" stroke-miterlimit="10" d="M327.474,446.015
		c-1.899,0.595-3.683,1.188-5.583,1.782v17.46h7.246h1.068l0.832-9.739L327.474,446.015z"/>
	<path id="r2336-1" fill="#939598" stroke="#494949" stroke-width="0.6582" stroke-miterlimit="10" d="M338.52,454.092
		l-3.682-10.334c-2.494,0.713-4.87,1.426-7.245,2.14l3.683,9.502l0,0l0,0l-0.831,9.739h8.194L338.52,454.092L338.52,454.092z"/>
	<path id="r2340" fill="#939598" stroke="#494949" stroke-width="0.6582" stroke-miterlimit="10" d="M270.104,512.531v5.106h9.502
		v22.094h7.008h32.664v-11.878h9.858V465.02h-7.246v14.372h-22.806h-14.609l-5.345-13.303c-9.027,5.107-16.748,10.452-23.281,16.153
		l14.135,16.984L270.104,512.531L270.104,512.531z"/>
	<path id="r2351" fill="#939598" stroke="#494949" stroke-width="0.6582" stroke-miterlimit="10" d="M302.648,539.851h-15.917
		v21.499l-9.74,15.68c4.039,2.375,8.433,4.632,13.065,6.889l12.59-20.073L302.648,539.851L302.648,539.851z"/>
	<path id="r2352" fill="#939598" stroke="#494949" stroke-width="0.6582" stroke-miterlimit="10" d="M302.648,539.851v23.993l0,0
		l0,0l-12.59,20.073c5.464,2.613,11.284,5.107,17.342,7.603l8.907-20.786h2.852l0.237-30.883H302.648z"/>
	<path id="r2354" fill="#939598" stroke="#494949" stroke-width="0.6582" stroke-miterlimit="10" d="M332.105,570.732h-12.946
		h-2.852L307.4,591.52c7.721,2.97,16.034,5.82,24.823,8.434L332.105,570.732L332.105,570.732z"/>
	<path id="r2350" fill="#939598" stroke="#494949" stroke-width="0.6582" stroke-miterlimit="10" d="M286.732,539.851h-7.008
		v-22.093h-9.502h-2.613v9.027v19.004l-12.59,15.441c6.058,5.582,13.541,10.809,21.974,15.798l9.74-15.68L286.732,539.851
		L286.732,539.851z"/>
	<path id="r2347" fill="#939598" stroke="#494949" stroke-width="0.6582" stroke-miterlimit="10" d="M255.85,512.531l-15.797-10.929
		c-3.563,6.651-5.464,13.541-5.464,20.55c0,5.938,1.307,11.641,3.801,17.223l16.748-12.709h12.353v-9.027h2.613v-5.106
		L255.85,512.531L255.85,512.531z"/>
	<path id="r2346" fill="#939598" stroke="#494949" stroke-width="0.6582" stroke-miterlimit="10" d="M240.052,501.604l15.798,10.929
		h14.253v-13.305l-14.135-16.984C249.08,488.419,243.734,494.952,240.052,501.604z"/>
	<path id="r2344" fill="#939598" stroke="#494949" stroke-width="0.6582" stroke-miterlimit="10" d="M279.25,466.089l5.345,13.303
		h14.61l-7.721-19.717C287.208,461.812,283.05,463.95,279.25,466.089z"/>
	<path id="r2338-2342" fill="#939598" stroke="#494949" stroke-width="0.6582" stroke-miterlimit="10" d="M291.483,459.793
		l7.721,19.718h22.806v-14.372v-17.461C310.963,451.36,300.748,455.398,291.483,459.793z"/>
	<path id="r2362" fill="#939598" stroke="#494949" stroke-width="0.6582" stroke-miterlimit="10" d="M332.105,570.732h16.866h9.385
		v35.871c7.602,1.662,15.56,3.207,23.637,4.515v-42.404h12.828h14.135v-17.936h-13.185V539.85h-76.375l-0.237,30.883H332.105
		L332.105,570.732L332.105,570.732z"/>
	<polygon id="r2318" fill="#939598" stroke="#494949" stroke-width="0.6582" stroke-miterlimit="10" points="424.872,462.763 
		424.872,477.017 438.889,477.017 439.244,462.763 	"/>
	<polygon id="r2142" fill="#939598" stroke="#494949" stroke-width="0.6582" stroke-miterlimit="10" points="357.524,629.646 
		346.953,627.747 347.429,637.962 357.524,637.725 	"/>
	<path id="r2217-2220" fill="#939598" stroke="#494949" stroke-width="0.6582" stroke-miterlimit="10" d="M732.984,628.578
		l5.464-22.688h18.055l0.476,12.234h24.824v15.56l-14.966,16.154c-6.89-8.79-12.115-14.016-19.005-16.392
		C742.487,630.954,739.043,629.054,732.984,628.578z"/>
	<path id="love-toast" fill="#939598" stroke="#494949" stroke-width="0.6582" stroke-miterlimit="10" d="M733.579,626.202
		l4.869-20.312l-5.701-6.296l-9.027,25.896C726.333,625.252,729.54,625.371,733.579,626.202z"/>
	<path id="dairy-queen" fill="#939598" stroke="#494949" stroke-width="0.6582" stroke-miterlimit="10" d="M681.435,597.221
		c-0.712-1.188,15.323-7.958,15.68-6.89c0.119,0.356,3.802,14.967,3.802,14.967l-10.69,5.345L681.435,597.221z"/>
	<polygon id="dakasi" fill="#939598" stroke="#494949" stroke-width="0.6582" stroke-miterlimit="10" points="699.252,624.421 
		690.225,610.762 700.914,605.416 706.379,622.401 	"/>
	<path id="r2452" fill="#939598" stroke="#494949" stroke-width="0.6582" stroke-miterlimit="10" d="M644.02,563.963v24.943
		c7.009-2.971,13.659-6.059,19.718-9.384l-7.245-15.561L644.02,563.963L644.02,563.963z"/>
	<g id="r2348">
		<path id="r2348b" fill="#939598" stroke="#494949" stroke-width="0.6582" stroke-miterlimit="10" d="M267.609,526.666h-12.353
			l-16.748,12.709c3.444,7.604,9.027,14.848,16.51,21.736l12.59-15.44L267.609,526.666L267.609,526.666L267.609,526.666z"/>
		<polygon id="r2348a" fill="#939598" stroke="#494949" stroke-width="0.6582" stroke-miterlimit="10" points="596.389,716.594 
			596.389,713.03 578.81,713.03 562.537,713.03 562.537,738.211 570.732,738.211 570.732,745.932 578.81,747.714 599.358,752.346 
			604.348,747.001 604.585,747.001 604.585,716.594 		"/>
	</g>
	<path id="r2244" fill="#939598" stroke="#494949" stroke-width="0.6582" stroke-miterlimit="10" d="M562.418,634.398v20.785h11.997
		V632.26C572.396,632.616,564.318,634.042,562.418,634.398z"/>
	<polygon id="r2108c" fill="#939598" stroke="#494949" stroke-width="0.6582" stroke-miterlimit="10" points="361.92,717.544 
		366.789,748.308 382.706,742.012 373.085,713.861 	"/>
	<polygon id="r2108b" fill="#939598" stroke="#494949" stroke-width="0.6582" stroke-miterlimit="10" points="373.085,713.861 
		384.605,710.18 394.346,737.498 382.706,742.012 	"/>
	<polygon id="r2416" fill="#939598" stroke="#494949" stroke-width="0.6582" stroke-miterlimit="10" points="546.621,521.083 
		546.621,507.898 506.711,507.898 507.067,521.083 	"/>
	<path id="r2444" fill="#939598" stroke="#494949" stroke-width="0.6582" stroke-miterlimit="10" d="M633.923,451.598v28.15h12.234
		v-23.28C642.238,454.805,638.199,453.142,633.923,451.598z"/>
	<path id="r2324" fill="#939598" stroke="#494949" stroke-width="0.6582" stroke-miterlimit="10" d="M440.076,426.892
		c-5.107,0.237-10.215,0.595-15.204,1.069v10.928h14.967L440.076,426.892z"/>
	<path id="r2327" fill="#939598" stroke="#494949" stroke-width="0.6582" stroke-miterlimit="10" d="M410.619,429.386v39.672v7.959
		h14.253V438.77v-10.809C420.121,428.316,415.37,428.792,410.619,429.386z"/>
	<polygon id="r2317" fill="#939598" stroke="#494949" stroke-width="0.6582" stroke-miterlimit="10" points="410.619,488.895 
		438.532,488.895 438.889,477.017 410.619,477.017 	"/>
	<polygon id="r2335" fill="#939598" stroke="#494949" stroke-width="0.6582" stroke-miterlimit="10" points="341.252,441.977 
		355.149,438.532 355.149,469.058 344.459,469.058 344.459,450.41 	"/>
	
		<rect id="k201" x="711.392" y="544.344" transform="matrix(0.3949 -0.9187 0.9187 0.3949 -69.9012 990.1556)" fill="#939598" stroke="#494949" stroke-width="0.6582" stroke-miterlimit="10" width="10.69" height="7.6"/>
	
		<rect id="k202" x="718.444" y="522.74" transform="matrix(0.2002 -0.9798 0.9798 0.2002 63.0325 1130.2942)" fill="#939598" stroke="#494949" stroke-width="0.6582" stroke-miterlimit="10" width="10.69" height="7.602"/>
	
		<rect id="k203" x="562.181" y="420.715" fill="#939598" stroke="#494949" stroke-width="0.6582" stroke-miterlimit="10" width="9.74" height="6.296"/>
	
		<rect id="k204" x="497.922" y="410.619" fill="#939598" stroke="#494949" stroke-width="0.6582" stroke-miterlimit="10" width="6.889" height="8.79"/>
	
		<rect id="k205" x="396.136" y="412.387" transform="matrix(0.9971 -0.0765 0.0765 0.9971 -30.6581 31.8061)" fill="#939598" stroke="#494949" stroke-width="0.6582" stroke-miterlimit="10" width="7.127" height="7.127"/>
	
		<rect id="k206" x="396.736" y="419.39" transform="matrix(0.9971 -0.0765 0.0765 0.9971 -31.1696 31.8475)" fill="#939598" stroke="#494949" stroke-width="0.6582" stroke-miterlimit="10" width="7.126" height="7.127"/>
	
		<rect id="k207" x="261.193" y="453.739" transform="matrix(0.8987 -0.4386 0.4386 0.8987 -174.0628 162.959)" fill="#939598" stroke="#494949" stroke-width="0.6582" stroke-miterlimit="10" width="9.027" height="9.027"/>
	
		<rect id="k208" x="208.247" y="515.402" transform="matrix(0.6548 -0.7558 0.7558 0.6548 -320.6216 340.767)" fill="#939598" stroke="#494949" stroke-width="0.6582" stroke-miterlimit="10" width="9.027" height="11.996"/>
	
		<rect id="k209" x="278.102" y="590.082" transform="matrix(0.5 -0.866 0.866 0.5 -371.7162 541.0845)" fill="#939598" stroke="#494949" stroke-width="0.6582" stroke-miterlimit="10" width="9.265" height="4.751"/>
	
		<rect id="k210" x="294.301" y="599.269" transform="matrix(0.5408 -0.8411 0.8411 0.5408 -368.8012 527.6984)" fill="#939598" stroke="#494949" stroke-width="0.6582" stroke-miterlimit="10" width="9.265" height="4.751"/>
	
		<rect id="k213" x="417.131" y="622.885" transform="matrix(0.09 -0.9959 0.9959 0.09 -243.2245 988.8337)" fill="#939598" stroke="#494949" stroke-width="0.6582" stroke-miterlimit="10" width="4.752" height="9.263"/>
	
		<rect id="k211" x="348.735" y="612.543" fill="#939598" stroke="#494949" stroke-width="0.6582" stroke-miterlimit="10" width="4.274" height="4.276"/>
	
		<rect id="k212" x="348.735" y="617.532" fill="#939598" stroke="#494949" stroke-width="0.6582" stroke-miterlimit="10" width="4.274" height="4.274"/>
</g>
<g id="signs">
	<g id="atm">
		<rect x="347.429" y="469.89" opacity="0.8" enable-background="new    " width="17.579" height="17.579"/>
		<rect x="602.803" y="470.959" opacity="0.8" enable-background="new    " width="17.58" height="17.579"/>
		<rect x="203.231" y="378.548" opacity="0.8" enable-background="new    " width="17.579" height="17.58"/>
	</g>
	<g id="escalator">
		<rect x="458.486" y="592.113" opacity="0.8" enable-background="new    " width="17.58" height="17.579"/>
		<rect x="461.456" y="420.715" opacity="0.8" enable-background="new    " width="17.579" height="17.579"/>
		<rect x="586.887" y="608.386" opacity="0.8" enable-background="new    " width="17.579" height="17.579"/>
		<rect x="574.059" y="417.152" opacity="0.8" enable-background="new    " width="17.579" height="17.58"/>
		<rect x="488.419" y="345.053" opacity="0.8" enable-background="new    " width="17.579" height="17.58"/>
		<rect x="436.988" y="345.053" opacity="0.8" enable-background="new    " width="17.579" height="17.58"/>
		<rect x="285.069" y="408.718" opacity="0.8" enable-background="new    " width="17.58" height="17.58"/>
		<rect x="200.736" y="487.588" opacity="0.8" enable-background="new    " width="17.58" height="17.579"/>
		<rect x="172.705" y="533.911" opacity="0.8" enable-background="new    " width="17.579" height="17.579"/>
		<rect x="212.733" y="536.881" opacity="0.8" enable-background="new    " width="17.58" height="17.579"/>
		<rect x="166.291" y="582.61" opacity="0.8" enable-background="new    " width="17.579" height="17.58"/>
		<rect x="347.429" y="608.386" opacity="0.8" enable-background="new    " width="17.579" height="17.579"/>
		<rect x="412.163" y="685.117" opacity="0.8" enable-background="new    " width="17.579" height="17.579"/>
		<rect x="692.125" y="401.829" opacity="0.8" enable-background="new    " width="17.579" height="17.58"/>
		<rect x="699.133" y="604.822" opacity="0.8" enable-background="new    " width="17.579" height="17.579"/>
		<rect x="660.768" y="693.194" opacity="0.8" enable-background="new    " width="17.579" height="17.579"/>
		<rect x="752.939" y="725.739" opacity="0.8" enable-background="new    " width="17.58" height="17.579"/>
	</g>
	<g id="lift">
		<rect x="497.922" y="631.666" opacity="0.8" enable-background="new    " width="17.579" height="17.58"/>
		<rect x="266.421" y="399.929" opacity="0.8" enable-background="new    " width="17.579" height="17.579"/>
		<rect x="170.923" y="479.867" opacity="0.8" enable-background="new    " width="17.579" height="17.579"/>
		<rect x="157.501" y="523.222" opacity="0.8" enable-background="new    " width="17.579" height="17.579"/>
		<rect x="132.438" y="624.658" opacity="0.8" enable-background="new    " width="17.579" height="17.579"/>
		<rect x="120.561" y="653.76" opacity="0.8" enable-background="new    " width="17.58" height="17.579"/>
		<rect x="672.407" y="401.829" opacity="0.8" enable-background="new    " width="17.579" height="17.58"/>
		<rect x="688.324" y="586.056" opacity="0.8" enable-background="new    " width="17.579" height="17.579"/>
		<rect x="642.476" y="699.014" opacity="0.8" enable-background="new    " width="17.579" height="17.58"/>
	</g>
	<g id="toilet">
		<rect x="329.255" y="469.89" opacity="0.8" enable-background="new    " width="17.58" height="17.579"/>
		<rect x="584.63" y="470.959" opacity="0.8" enable-background="new    " width="17.579" height="17.579"/>
		<rect x="190.521" y="363.938" opacity="0.8" enable-background="new    " width="17.579" height="17.58"/>
		<rect x="339.352" y="642.476" opacity="0.8" enable-background="new    " width="17.579" height="17.579"/>
		<rect x="615.987" y="637.725" opacity="0.8" enable-background="new    " width="17.579" height="17.579"/>
		<rect x="782.753" y="618.363" opacity="0.8" enable-background="new    " width="17.579" height="17.579"/>
	</g>
</g>
<rect x="281.849" y="629.247" transform="matrix(0.3975 -0.9176 0.9176 0.3975 -406.9819 642.0815)" fill="#BFBFBF" stroke="#494949" stroke-width="0.5" stroke-miterlimit="10" width="7.246" height="3.444"/>
</svg>
