<?xml version="1.0" encoding="utf-8"?>
<!-- Generator: Adobe Illustrator 19.2.0, SVG Export Plug-In . SVG Version: 6.00 Build 0)  -->
<svg version="1.1" id="Layer_1" xmlns="http://www.w3.org/2000/svg" xmlns:xlink="http://www.w3.org/1999/xlink" x="0px" y="0px"
	 viewBox="0 0 841.9 595.3" style="enable-background:new 0 0 841.9 595.3;" xml:space="preserve">
<style type="text/css">
	.st0{fill:#BFBFBF;stroke:#494949;stroke-width:0.6582;stroke-miterlimit:10;}
	.st1{fill:none;stroke:#494949;stroke-width:0.6582;stroke-miterlimit:10;}
	.st2{fill:#939598;stroke:#494949;stroke-width:0.6582;stroke-miterlimit:10;}
	.st3{display:none;}
	.st4{display:inline;opacity:0.8;enable-background:new    ;}
	.st5{display:inline;}
	.st6{opacity:0.8;enable-background:new    ;}
</style>
<g id="background">
</g>
<g id="etc">
	<path class="st0" d="M793.3,363.3v-49.1h-6.9V133.8H654.7l0.3-27.3l41.3-0.1V85.7h-62.9v20.8h3.9v36.2h-83.9v-4.3h-80.3v4.3h-23.8
		V98.3H348.4v8.4h-70.8V100h-13.4V73.7H83.6v114.4h19.3v10.6l68.6,1v45.7l-96.7-22.5L48.2,331.2v115.2l73.6,23.1l11.1-37.8l13.9,3.9
		l12.3-63.1l30,7.1v15.9l-5.3,9.7l6.2,7l9.2,10.4l0,0l0,0l2.2,2.5l16.6-2.8c0,0,3.4,2.2,9.9,5.3c3.9,1.9,8.8,4.1,14.8,6.3
		c2.8,1,5.8,2.1,8.9,3.1l0,0l0,0l0,0c1.1,0.4,2.3,0.7,3.5,1.1l0,0l-4.5,11.3l-10.4-3.9L239,443l-5.5-2.7l-13.2,5.6l-0.9,9.1
		l24.2,20.4l2.6-5.2l9.3,4.5l-0.9,4.6l44,15.7l10.9-23.5l1.6-0.2l7,24.5l32.3-10.9l1.8,3.9l15.3-3.8l3.2-29.9l-28.9,7.7l-3.6-14
		c12.1-5.6,34.5-13.2,54.3-15s24.6,2.9,24.6,2.9v8.1l8.8,7.8l2.2-2l3.1,3.2l6.9-6.1h3c2.8,7.2,5.5,19.7,5.5,19.7h-7.9
		c0,0-4.1,4.3-8.4,11.2c-4.3,6.9,2.7,10.8,2.7,10.8l14.1,2.6l0,0l0,0l0,0l22.4,4.2l0.8-5.7h9.4v5.1l23.8,6.8l3.8-3.4h32.9v-24.8
		l5.8,1.6c0,0,0,0.4,0.8,2c2.3,5.8,10.2,22.8,24.3,29.6l7.7-10.3c4.8,2.3,9.3,4,13.7,5.3l-2.6,6.5c0,0,20,9.2,40.1,0l-1.8-5.4l0,0
		c8.4-2,12.2-5.2,12.2-5.2l7.8,10.1l27.9-28.4l-3-1.6c2.9-3.7,4.8-9.4,6-15.6l0,0c1.3-7,1.7-14.9,1.8-21.8l0,0c0-10.6-0.8-19-0.8-19
		l-10.1-0.5V396h15.6v50.8h3.7v14.3h107v-97.9L793.3,363.3z"/>
	<circle class="st0" cx="611.1" cy="446.9" r="24.8"/>
	<circle class="st0" cx="611.1" cy="446.9" r="15"/>
	<path class="st0" d="M579.4,381.7l15.9,25.2c0,0,6-2.7,14.2-2.4l1-30.4C610.5,374.2,591.3,374.2,579.4,381.7z"/>
	<circle class="st0" cx="585.7" cy="229.7" r="10.1"/>
	<path class="st1" d="M579.1,497.3c0,0,33.5,18,61.6,1.3"/>
	<path class="st0" d="M592.8,502.5l-2.6,6.5c0,0,20,9.2,40.1,0l-1.8-5.4"/>
	<path class="st0" d="M595.6,503.3l4.8-16.3c0,0,11.6,2.9,21.1,0.5l4.3,16.9"/>
	<path class="st1" d="M473.7,444c0,0,17.7,14.6,73.3,6.5l0.5-5.5"/>
	<line class="st1" x1="497.1" y1="451.7" x2="497.1" y2="464.5"/>
	<line class="st1" x1="501.7" y1="452.3" x2="501.7" y2="465"/>
	<line class="st1" x1="467.5" y1="443.8" x2="467.5" y2="467.5"/>
	<path class="st1" d="M428.2,450.7l3.1,3.2l6.9-6.1h3c0,0,4.9,13.1,5.5,19.7"/>
	<path class="st1" d="M445.1,443.4c0,0,5.8,12.9,7.2,24.1"/>
	<line class="st1" x1="382.7" y1="427.5" x2="427" y2="427.5"/>
	<rect x="382.7" y="424.4" class="st1" width="14.4" height="3.1"/>
	<rect x="404" y="424.4" class="st1" width="18.1" height="3.1"/>
	<line class="st1" x1="333.2" y1="465.6" x2="333.5" y2="453.4"/>
	<polyline class="st1" points="290.4,464.5 292.2,460.9 306.7,466.4 305.1,470 	"/>
	<polyline class="st1" points="263.5,454.4 267.6,446.1 304.2,450.4 	"/>
	<line class="st1" x1="250.7" y1="449.5" x2="255.2" y2="438.2"/>
	<line class="st1" x1="159" y1="372.5" x2="189" y2="379.6"/>
	
		<rect x="174.6" y="357.9" transform="matrix(0.2319 -0.9727 0.9727 0.2319 -225.7773 455.3779)" class="st1" width="1.7" height="25.6"/>
	<polyline class="st1" points="102.9,188.1 102.9,198.8 171.5,199.8 171.5,245.4 	"/>
	<rect x="115.2" y="193.7" class="st1" width="18.6" height="2.4"/>
	<rect x="156" y="193.7" class="st1" width="18.6" height="2.4"/>
	<line class="st1" x1="171.9" y1="193.7" x2="171.9" y2="188.1"/>
	<line class="st1" x1="118.1" y1="193.7" x2="118.1" y2="188.1"/>
	<polyline class="st1" points="264.2,100 277.6,100 277.6,111 348.4,111 	"/>
	<rect x="277.6" y="106.7" class="st1" width="11.8" height="4.3"/>
	<rect x="289.4" y="106.7" class="st1" width="11.8" height="4.3"/>
	<rect x="301.2" y="106.7" class="st1" width="11.8" height="4.3"/>
	<rect x="313" y="106.7" class="st1" width="11.8" height="4.3"/>
	<rect x="324.8" y="106.7" class="st1" width="11.8" height="4.3"/>
	<rect x="336.6" y="106.7" class="st1" width="11.8" height="4.3"/>
	<rect x="473.1" y="138.4" class="st1" width="13.4" height="4.3"/>
	<rect x="486.5" y="138.4" class="st1" width="13.4" height="4.3"/>
	<rect x="499.8" y="138.4" class="st1" width="13.4" height="4.3"/>
	<rect x="513.2" y="138.4" class="st1" width="13.4" height="4.3"/>
	<rect x="526.6" y="138.4" class="st1" width="13.4" height="4.3"/>
	<rect x="540" y="138.4" class="st1" width="13.4" height="4.3"/>
	<rect x="650.6" y="106.6" class="st1" width="4.1" height="4.5"/>
	<rect x="650.6" y="111.1" class="st1" width="4.1" height="4.5"/>
	<rect x="650.6" y="115.6" class="st1" width="4.1" height="4.5"/>
	<rect x="650.6" y="120.2" class="st1" width="4.1" height="4.5"/>
	<rect x="650.6" y="124.7" class="st1" width="4.1" height="4.5"/>
	<rect x="650.6" y="129.2" class="st1" width="4.1" height="4.5"/>
	<line class="st1" x1="518.2" y1="142.7" x2="449.3" y2="142.7"/>
	<path class="st1" d="M637.3,106.5"/>
	<polyline class="st1" points="637.3,106.5 633.4,106.5 633.4,85.7 696.2,85.7 696.2,106.5 650.6,106.5 	"/>
	<polyline class="st1" points="637.3,142.7 637.3,106.5 637.3,90.3 691.7,90.3 691.7,106.6 	"/>
	<line class="st1" x1="650.6" y1="133.8" x2="650.6" y2="106.5"/>
	<rect x="394.9" y="343.2" class="st0" width="14.8" height="12.8"/>
	<polygon class="st0" points="392.3,336.8 412.5,336.8 410.9,275.9 396.1,275.9 	"/>
	<rect x="399.1" y="260.9" class="st0" width="9.4" height="7.3"/>
	<rect x="402.4" y="241" class="st0" width="4" height="19.9"/>
	<polyline class="st1" points="387.7,237.9 389.6,223.7 419.3,223.7 420.4,238.7 	"/>
	<line class="st1" x1="379.1" y1="214.5" x2="421.6" y2="214.5"/>
	<rect x="640" y="282.9" class="st0" width="8.8" height="12.6"/>
	<rect x="640" y="268.6" class="st0" width="8.8" height="14.3"/>
	<rect x="640" y="254.4" class="st0" width="8.8" height="14.3"/>
	<rect x="640" y="240.1" class="st0" width="8.8" height="14.3"/>
	<rect x="640.3" y="225.9" class="st0" width="8.8" height="14.3"/>
	<rect x="640.3" y="211.6" class="st0" width="8.8" height="14.3"/>
	<rect x="640.3" y="198.2" class="st0" width="8.8" height="13.4"/>
	<path class="st0" d="M709,374h10.8C719.7,374,714.5,383.7,709,374z"/>
	
		<rect id="_x3C_path_x3E_" x="239.7" y="214.4" transform="matrix(0.9252 -0.3795 0.3795 0.9252 -65.3709 109.8882)" class="st0" width="12.7" height="12.7"/>
	<path id="_x3C_path_x3E__1_" class="st0" d="M597.9,417.3l-13.2-19l-13.6,7.3l17.4,17.6C591.3,420.7,594.4,418.7,597.9,417.3z"/>
	<path id="_x3C_path_x3E__2_" class="st0" d="M594.4,207.1h5.3c0,0,0.9,11.1-5.3,11.1V207.1z"/>
	<path id="_x3C_path_x3E__3_" class="st0" d="M518.2,178.6v8.5h10.1l3-4.8c-1.4-2.1-2.4-4.5-3-7.2L518.2,178.6z"/>
</g>
<g id="rooms">
	<rect id="big-c" x="650.6" y="133.8" class="st2" width="135.8" height="180.4"/>
	<rect id="homepro" x="83.6" y="73.7" class="st2" width="180.6" height="114.4"/>
	<path id="ikea" class="st2" d="M197,271.4l0.8-3.1L181,247.7L74.8,222.9L48.2,331.2v115.2l73.6,23.1l11.1-37.8l13.9,3.9l16.3-83.8
		l5.6,1.4l2.8-30.4l-23-18.9l12-7.3l4.6,14.7l7.7-2l-4.1-17.4l10.8,0.9C183.4,285.4,189.4,278.2,197,271.4z"/>
	<polygon id="r1628" class="st2" points="557,213.2 535.2,213.2 535.2,228.3 554.9,228.3 566.3,234.2 571.6,220.5 	"/>
	<path id="r1636" class="st2" d="M593.2,142.7h-15.4v28.5l15.8,10.7c1.7-2.1,3.5-4,5.4-5.7h4.9l-10.7-8.9V142.7L593.2,142.7z"/>
	<path id="r1632-5b" class="st2" d="M518.2,152.4V166c0,0,12.5,0.1,12.5,0c-0.7-3.8-3.3-13.6-3.3-13.6H518.2L518.2,152.4z"/>
	<path id="r1632-6" class="st2" d="M518.2,179.1l10.1-3.5c0-0.1,0-0.2-0.1-0.2c-0.7-3.8,2.5-9.4,2.5-9.4h-12.5V179.1z"/>
	<path id="r1632-8" class="st2" d="M537.2,142.7v21c3.2,0,7,1.1,11.2,3.7v-24.7H537.2L537.2,142.7z"/>
	<path id="r1632-9" class="st2" d="M548.4,142.7v24.7c3.4,2.1,7.1,5.1,10.9,9.2l0,0l0.6-33.9L548.4,142.7L548.4,142.7z"/>
	<path id="r1632-1-3" class="st2" d="M574.8,213.1c0,0-1-13.9-17.6-17.4c-6.2-1.3-11.4-2.9-15.8-5l-6.4,14.1l0,0l23.7,0.5
		L574.8,213.1L574.8,213.1L574.8,213.1z"/>
	<path id="r1630" class="st2" d="M535.2,204.8v8.4H557l14.6,7.4c0,0,1.2-3,3.2-7.5l-16-7.8L535.2,204.8z"/>
	<rect id="r1640" x="611.2" y="142.7" class="st2" width="14.7" height="33.6"/>
	<polygon id="r1644-1-3" class="st2" points="637.3,142.7 637.3,152.4 637.3,152.4 637.3,161 637.3,176.3 645.3,176.3 645.3,161 
		645.3,152.4 645.3,152.4 645.3,142.7 	"/>
	<rect id="r1642" x="625.9" y="142.7" class="st2" width="11.4" height="33.6"/>
	<polygon id="r1668" class="st2" points="615.3,264.3 615.3,250.6 601.8,251.4 597.1,257 606.9,264.3 	"/>
	<polygon id="r1678" class="st2" points="630.3,261.9 630.3,249.7 619.6,250.3 619.6,261.9 	"/>
	<polygon id="r1680" class="st2" points="630.3,249.7 630.3,261.9 640,261.9 640,249 	"/>
	<polygon id="r1674" class="st2" points="618,278.4 638,278.4 638,295.5 624,295.5 	"/>
	<rect id="r1646" x="604.5" y="198.2" class="st2" width="9" height="11.6"/>
	<polygon id="r1664-1667" class="st2" points="631.2,209.8 622.5,209.8 622.5,215.5 622.5,233 640,233 640,215.5 640,209.8 	"/>
	<rect id="r1663" x="627.1" y="233" class="st2" width="12.9" height="11"/>
	<rect id="r1661" x="604.5" y="233" class="st2" width="10.8" height="11"/>
	<polygon id="r1662" class="st2" points="622.5,233 615.8,233 615.3,233 615.3,243.9 627.1,243.9 627.1,233 	"/>
	<polygon id="r1660" class="st2" points="615.8,233 622.5,233 622.5,226.8 604.5,226.8 604.5,233 615.3,233 	"/>
	<rect id="r1658" x="604.5" y="221.1" class="st2" width="18" height="5.8"/>
	<rect id="r1530" x="255.2" y="188.1" class="st2" width="31.1" height="11.8"/>
	<polygon id="r1528" class="st2" points="286.3,200 255.2,200 257.9,210.1 286.3,210.1 	"/>
	<polygon id="r1526" class="st2" points="257.9,210.1 260.7,220.5 273.7,220.5 286.3,220.5 286.3,210.1 	"/>
	<polygon id="r1534" class="st2" points="214.3,212.1 206.4,195.3 176.4,195.3 176,218.9 199,218.9 	"/>
	<polygon id="r1536" class="st2" points="214.3,212.1 199,218.9 176,218.9 175.6,237.4 192.5,240.6 221.1,226.6 	"/>
	<polygon id="r1538-1540" class="st2" points="228,241.2 221.1,226.6 207.5,233.2 216.8,247.2 226.2,261.2 230.5,246.6 	"/>
	<polygon id="r1131" class="st2" points="192.9,371.7 189,376.1 189,395.5 183.8,405.2 189.9,412.2 212.5,384.8 	"/>
	<path id="r1120" class="st2" d="M298,428.7v18c0.9,0.1,1.9,0.2,2.8,0.3l4.9,4.9l3.9,0.2v-23.5L298,428.7L298,428.7z"/>
	<polygon id="r1116" class="st2" points="342.4,417.9 342.4,444.2 354,440.3 354,417.9 	"/>
	<polygon id="r1112" class="st2" points="382.7,417.9 365.2,417.9 365.2,436.4 382.7,430.4 	"/>
	<polygon id="r1114" class="st2" points="354,417.9 354,440.3 365.2,436.4 365.2,417.9 	"/>
	<polygon id="r1117-1119" class="st2" points="330.6,417.9 319.9,417.9 309.6,417.9 309.6,428.7 309.6,452.2 319.9,452.7 
		329.8,453.2 333.8,453.4 340.1,445 342.4,444.2 342.4,417.9 	"/>
	<path id="r1126" class="st2" d="M239.1,402.7l-11.2,25c3.9,1.9,8.8,4.1,14.8,6.3l10-25.5L239.1,402.7z"/>
	<path id="r1128" class="st2" d="M238.9,402.6l-11.4-7.7l-7.9-5.3l-20.4,33l2.2,2.5l16.6-2.8c0,0,3.4,2.2,9.9,5.3l11.2-25H238.9z"/>
	<polygon id="r1130" class="st2" points="215.9,387.1 215.9,387.1 215.9,387.1 212.5,384.8 189.9,412.2 199.1,422.6 219.6,389.6 	
		"/>
	<path id="r1124" class="st2" d="M252.6,408.5l-10,25.5c2.8,1,5.8,2.1,8.9,3.1l10-24.7L252.6,408.5z"/>
	<path id="r1122" class="st2" d="M277.2,417.9h-2.7v25.2c5.5,1.2,11.5,2.2,17.7,3v-28.2H277.2z"/>
	<path id="r1123" class="st2" d="M266.1,414.3L266.1,414.3L266.1,414.3l-4.5-1.9l-10,24.7c6.7,2.2,14.3,4.2,22.8,6v-25.2
		L266.1,414.3z"/>
	<polygon id="r1108" class="st2" points="311.3,471.5 318.3,495.9 350.5,485.1 342.4,463 	"/>
	<polygon id="r1110" class="st2" points="356.6,459.2 342.4,463 348.9,480.8 350.5,485.1 352.3,489 367.6,485.2 370.8,455.3 	"/>
	<polygon id="r1106" class="st2" points="309.6,471.7 286.2,462.9 276.4,487.2 298.7,495.2 	"/>
	<polygon id="r1102" class="st2" points="240.3,445.6 239.1,443.1 238.7,442.9 233.6,440.4 220.4,446.1 219.6,455.1 230.5,464.4 
		243.3,475.4 243.7,475.6 255.7,451.4 	"/>
	<polygon id="r1104" class="st2" points="259.1,452.7 249.9,472 255.6,474.8 254.7,479.5 276.4,487.2 286.2,462.9 	"/>
	<polygon id="r1232" class="st2" points="505.6,424.6 505.6,444.4 516.1,444.5 516.1,424.6 	"/>
	<polygon id="r1234" class="st2" points="482.4,417.2 482.4,444 494.6,444.2 494.6,417.2 	"/>
	<polygon id="r1233" class="st2" points="505.6,417.2 494.6,417.2 494.6,444.2 505.6,444.4 505.6,424.6 	"/>
	<polygon id="r1230" class="st2" points="535.5,422.2 535.5,424.6 521.7,424.6 521.7,444.6 539.9,444.9 539.9,422.2 	"/>
	<polygon id="r1237" class="st2" points="449.3,422.9 449.3,443.5 460.5,443.7 460.5,422.9 	"/>
	<polygon id="r1238-1239" class="st2" points="428.5,422.9 428.5,425.6 417.2,437 417.2,444.9 426,452.7 436.2,443.3 449.3,443.5 
		449.3,422.9 	"/>
	<polygon id="r1235" class="st2" points="471.7,417.2 471.7,422.9 471.7,443.8 482.4,444 482.4,417.2 	"/>
	<polygon id="r1236" class="st2" points="460.5,422.9 460.5,443.7 471.7,443.8 471.7,422.9 	"/>
	<polygon id="r1220" class="st2" points="656.9,396.1 656.9,386.2 625.3,386.2 622.2,396.1 655.1,396.1 	"/>
	<path id="r1228" class="st2" d="M561.8,410.3l-11.4,6.2l20.7,28.9l0,0l7-4.4c0.8-3.7,2.2-7.3,4.1-10.4L561.8,410.3z"/>
	<path id="r1229" class="st2" d="M550.4,416.5l-10.4,5.6v22.7l31.3,0.5L550.4,416.5z"/>
	<path id="r1227" class="st2" d="M588.8,422.8l-17.4-17.6l-9.5,5.1l20.5,20.2C584.1,427.7,586.2,425.1,588.8,422.8z"/>
	<path id="r1208-1209" class="st2" d="M579.4,459.1L546.3,476c0,0,8,23.4,25.1,31.6l22.8-30.5C587.3,473.1,582,466.7,579.4,459.1z"
		/>
	<path id="r1210" class="st2" d="M642,461.7c-2.4,5.5-6.3,10.2-11.1,13.6l14,16.4l-6,4.4l9.6,12.4l27.9-28.4l-3-1.6l-21.1-11.3
		L642,461.7z"/>
	<path id="r1214" class="st2" d="M681.1,441.1c0-10.6-0.8-19-0.8-19l-16.1-0.8L642,434.1c1,2.2,1.8,4.5,2.3,6.9L681.1,441.1
		L681.1,441.1z"/>
	<path id="r1212" class="st2" d="M644.9,448c0,1.7-0.1,3.4-0.4,5l34.8,9.9c1.3-7,1.7-14.9,1.8-21.8h-36.9
		C644.7,443.3,644.9,445.6,644.9,448z"/>
	<path id="r1211" class="st2" d="M644.5,453c-0.5,3.1-1.3,6-2.5,8.7l10.3,5.5l21.1,11.3c2.9-3.7,4.8-9.4,6-15.6L644.5,453z"/>
	<path id="r1218" class="st2" d="M655.1,396.1h-32.8l-5.8,18.5c6.4,1,12.1,3.8,16.8,7.8L655.1,396.1z"/>
	<path id="r1216" class="st2" d="M640.2,430.8l22.7-13.3h7.4v-21.4h-3.5H657h-1.9l-21.8,26.4C636,424.9,638.3,427.7,640.2,430.8z"/>
	<polygon id="r1704" class="st2" points="666.7,363.3 666.7,396.1 670.2,396.1 676.6,396.1 676.6,363.3 	"/>
	<polygon id="r1221" class="st2" points="656.9,375 646.6,375 636,375 628.8,375 625.3,386.2 656.9,386.2 	"/>
	<polygon id="r1222-4-1224-1" class="st2" points="636,363.3 636,363.3 628.8,363.3 628.8,366.1 628.8,366.1 628.8,370.3 
		628.8,370.3 628.8,374.8 628.8,375 636,375 646.6,375 646.6,363.3 	"/>
	<rect id="r1224-2-4" x="646.6" y="363.3" class="st2" width="10.3" height="11.7"/>
	<polygon id="r1702" class="st2" points="656.9,386.2 656.9,396.1 666.7,396.1 666.7,363.3 656.9,363.3 656.9,375 	"/>
	<path id="r1728" class="st2" d="M718.5,384.7h13.6v-21.4h-0.2C721.1,369.5,718.3,377.6,718.5,384.7z"/>
	<polygon id="r1706" class="st2" points="685.8,363.3 676.6,363.3 676.6,396.1 685.8,396.1 685.8,384.7 	"/>
	<rect id="r1708" x="685.8" y="363.3" class="st2" width="11.5" height="21.4"/>
	<path id="r1710-a" class="st2" d="M705.9,370.7c-4.9-6.6-6.2-6.9-8.2-7.4h-0.3v7.4H705.9z"/>
	<rect id="r1738" x="767.4" y="363.3" class="st2" width="7.7" height="21.4"/>
	<polygon id="r1740" class="st2" points="775.1,363.3 775.1,384.7 767.4,384.7 758.4,384.7 749.7,384.7 744.5,384.7 744.5,461.2 
		796.5,461.2 796.5,363.3 	"/>
	<polygon id="r1732" class="st2" points="744.5,384.7 749.7,384.7 749.7,363.3 740.9,363.3 740.9,384.7 	"/>
	<rect id="r1730" x="732.1" y="363.3" class="st2" width="8.8" height="21.4"/>
	<rect id="r1734" x="749.7" y="363.3" class="st2" width="8.7" height="21.4"/>
	<path id="r1712" class="st2" d="M709.9,384.7h-12.6h-11.5v11.4h21.1C708.2,393.2,709.6,389.1,709.9,384.7z"/>
	<path id="r1726" class="st2" d="M744.5,401.8v-17.1h-3.6h-8.8h-13.6c0.3,8.5,4.9,15.8,5.8,17.1H744.5z"/>
	<path id="r1724" class="st2" d="M724.5,402c0,0-0.1-0.1-0.2-0.2l0,0c2.9,3.7,4.7,8.9,4.7,14.7c0,1-0.1,1.9-0.2,2.9h15.6v-17.6
		h-20.1C724.4,401.9,724.5,402,724.5,402z"/>
	<path id="r1722" class="st2" d="M744.5,419.4h-15.6c-0.4,3.7-1.5,7.1-3.2,9.8l5.5,6.8v25.2h13.3V419.4L744.5,419.4z"/>
	<path id="r1720" class="st2" d="M725.7,429.2c-2.8,4.6-7,7.6-11.8,7.6h-0.1v24.4h17.4V436L725.7,429.2z"/>
	<path id="r1716" class="st2" d="M702.8,430.3c-2.5-3.6-4.1-8.5-4.1-13.8c0-0.3,0-0.5,0-0.8h-13V439h8L702.8,430.3z"/>
	<path id="r1714" class="st2" d="M704.4,400.6c0.5-0.8,1.5-2.4,2.4-4.5h-21.1v19.5h13C698.9,409.6,701.1,404.2,704.4,400.6z"/>
	<path id="r1718" class="st2" d="M702.8,430.3l-9.1,8.6h-8v8h3.7v14.3h24.2v-24.4C709.4,436.7,705.5,434.3,702.8,430.3z"/>
	<path id="r1604" class="st2" d="M443.2,228.5V190h-10.7v37.8C436.1,228,439.6,228.2,443.2,228.5z"/>
	<path id="r1605" class="st2" d="M452.5,229.3V190h-9.3v38.5C446.3,228.7,449.4,229,452.5,229.3z"/>
	<path id="r1612" class="st2" d="M474,187h-10.4v43.5c3.5,0.4,7,0.9,10.4,1.4V187z"/>
	<path id="r1616" class="st2" d="M498.4,187v49c3.4,0.7,6.7,1.4,10,2.1V187H498.4L498.4,187z"/>
	<path id="r1618" class="st2" d="M508.4,187v51.1c3.3,0.7,6.5,1.5,9.7,2.3v-35.6V187H508.4L508.4,187z"/>
	<path id="r1620" class="st2" d="M535.2,245.2v-16.9v-23.5h-17v35.6C524,241.9,529.7,243.5,535.2,245.2z"/>
	<path id="r1622" class="st2" d="M546.7,249v-20.7h-11.5v16.9C539.1,246.4,543,247.7,546.7,249z"/>
	<path id="r1624" class="st2" d="M554.9,252.1v-23.8h-8.2V249C549.5,250,552.3,251,554.9,252.1z"/>
	<path id="r1626" class="st2" d="M559.9,254.1l6.4-19.8l-11.4-5.9v23.8C556.6,252.7,558.2,253.4,559.9,254.1z"/>
	<path id="r1670" class="st2" d="M606.9,264.3l-9.7-7.2l-9.3,11.3c3.5,2.2,6.8,4.5,9.8,6.9L606.9,264.3z"/>
	<path id="r1672" class="st2" d="M603.5,280.3l9.6-6.4h2.2v-9.6h-8.5l-9.2,11C599.7,276.9,601.7,278.6,603.5,280.3z"/>
	<path id="r1606" class="st2" d="M463.5,230.5V187h-6.7v3h-4.3v39.3C456.2,229.7,459.9,230.1,463.5,230.5z"/>
	<path id="r1614" class="st2" d="M474,187v44.8c8.4,1.2,16.5,2.6,24.4,4.1v-49h19.7v-41.6h-25.4v5.6h-14.5v-5.6h-21.4V187h6.7H474
		L474,187z"/>
	<path id="r1502-1" class="st2" d="M304.2,164h-17.9v61v14.6c5.8-1.1,11.8-2.1,17.9-3c0.1,0,0.2,0,0.2,0V164H304.2z"/>
	<path id="r1502-2" class="st2" d="M304.4,164v72.7c5.8-0.9,11.7-1.6,17.7-2.4v-52.4V164H304.4z"/>
	<path id="r1516-1518" class="st2" d="M339.4,230.3v-43.2V164h-17.3v68.6C327.8,231.7,333.6,231,339.4,230.3z"/>
	<path id="r1506" class="st2" d="M349.4,229.2v-42.1h-10v43.2C342.7,229.9,346.1,229.6,349.4,229.2z"/>
	<path id="r1505" class="st2" d="M359.5,228.4v-41.3h-10.1v42.1C352.7,228.9,356.1,228.6,359.5,228.4z"/>
	<path id="r1502-1504" class="st2" d="M369,187.1L369,187.1h-9.5v41.3c3.2-0.2,6.3-0.5,9.5-0.6l0,0c3.3-0.2,6.7-0.4,10.1-0.5v-40.1
		H369V187.1z"/>
	<path id="r1522-1524" class="st2" d="M286.3,220.5h-25.5l6.6,24.3c4-1.2,14.8-4.1,19-5.2L286.3,220.5z"/>
	<path id="r1542" class="st2" d="M207.5,233.2l-15,7.3l22.4,27c3.5-2.2,7.3-4.3,11.3-6.4L207.5,233.2z"/>
	<path id="r1142" class="st2" d="M261.7,385.4l-9,23.1l9,3.9l4.5,1.9l9.4-24.7C270.8,388.3,266.2,386.9,261.7,385.4z"/>
	<path id="r1146" class="st2" d="M277.2,417.9h15l0.8-12.7l2.9-10.6c-3.5-0.8-6.9-1.5-10.2-2.4L277.2,417.9z"/>
	<path id="r1144" class="st2" d="M275.5,389.6l-9.4,24.7l8.3,3.6h2.7l8.4-25.7C282.2,391.4,278.8,390.5,275.5,389.6z"/>
	<path id="r1136" class="st2" d="M226.4,371l-10.5,16.1l3.7,2.5l7.9,5.3l9-19.1C233,374.3,229.6,372.7,226.4,371z"/>
	<path id="r1134" class="st2" d="M216.1,365.3l-11.4,14.3l7.8,5.2l3.4,2.3l10.5-16.1C222.8,369.1,219.4,367.2,216.1,365.3z"/>
	<path id="r1132" class="st2" d="M205.2,357.9L193,371.7l11.7,7.9l11.4-14.3C212.2,362.9,208.5,360.4,205.2,357.9z"/>
	<path id="r1138" class="st2" d="M236.4,375.8l-9,19.1l11.4,7.7l0.2,0.1l9.7-21.8C244.5,379.3,240.4,377.6,236.4,375.8z"/>
	<path id="r1140" class="st2" d="M248.8,380.9l-9.7,21.8l13.6,5.8l9-23.1C257.2,384,253,382.5,248.8,380.9z"/>
	<path id="r1157" class="st2" d="M342.4,402.1v15.8H354v-14.7C350.1,402.9,346.2,402.5,342.4,402.1z"/>
	<path id="r1158" class="st2" d="M354,403.2v14.7h11.2v-13.8C361.5,403.8,357.7,403.5,354,403.2z"/>
	<path id="r1156" class="st2" d="M331.1,400.7l-0.3,12.5l0,0l-0.1,4.6h11.8V402C338.6,401.7,334.8,401.2,331.1,400.7z"/>
	<path id="r1152" class="st2" d="M316.7,398.6v14.7h6.7v-13.6C321.1,399.3,318.9,398.9,316.7,398.6z"/>
	<path id="r1150" class="st2" d="M309.6,397.3v15.9h7.1v-14.7C314.3,398.2,311.9,397.8,309.6,397.3z"/>
	<path id="r1148" class="st2" d="M301.5,395.8l-2.8,9v8.4h10.9v-15.9C306.9,396.8,304.2,396.3,301.5,395.8z"/>
	<path id="r1159" class="st2" d="M365.2,417.9h17.5v-6.3l-6.7-7c-3.6-0.2-7.2-0.4-10.8-0.6V417.9z"/>
	<path id="r1252" class="st2" d="M500.1,395.7l3.5,17.4h7.7l-3.6-19C505.1,394.7,502.6,395.2,500.1,395.7z"/>
	<path id="r1254" class="st2" d="M530.5,388.2c-3.8,1.1-7.7,2.2-11.7,3.2l3.3,11.3v3.3h12.8v-3L530.5,388.2z"/>
	<path id="r1253" class="st2" d="M511.2,413.1h5.2v-10.9l-3.3-9.4c-1.8,0.4-3.6,0.9-5.5,1.3L511.2,413.1z"/>
	<path id="r1246" class="st2" d="M471.7,400.5v16.6h10.7V413h3l-2.5-14.3C479.2,399.4,475.5,400,471.7,400.5z"/>
	<path id="r1248" class="st2" d="M482.9,398.9l2.5,14.3h8.1l-3-15.6C488,398,485.5,398.4,482.9,398.9z"/>
	<path id="r1244" class="st2" d="M460.5,401.9v21h11.2v-5.8v-16.6C468,401,464.2,401.5,460.5,401.9z"/>
	<path id="r1262" class="st2" d="M568.1,401.4l14-7.6l-13.6-19.6c-2.6,1.2-5.3,2.4-8.1,3.6L568.1,401.4z"/>
	<path id="r1258" class="st2" d="M541.1,385l8.6,26.4l9-4.9l-8.3-24.8C547.4,382.8,544.3,383.9,541.1,385z"/>
	<path id="r1256" class="st2" d="M530.5,388.2l4.4,14.8v3v13.3l14.8-8l-8.6-26.4C537.7,386.1,534.2,387.2,530.5,388.2z"/>
	<path id="r1260" class="st2" d="M550.4,381.7l8.3,24.8l9.4-5.1l-7.6-23.6C557.2,379.1,553.8,380.4,550.4,381.7z"/>
	<path id="r1240" class="st2" d="M428.5,404.5v18.4h20.7V403C442.5,403.7,435.5,404.2,428.5,404.5z"/>
	<path id="r1242" class="st2" d="M449.3,403.1V423h11.2v-21C456.8,402.3,453,402.7,449.3,403.1z"/>
	<path id="r1154" class="st2" d="M323.4,399.6v13.6h7.4l0.3-12.5C328.5,400.4,325.9,400,323.4,399.6z"/>
	<path id="r1336" class="st2" d="M319.9,267.6h3.8v-30.1c-4.3,0.7-8.5,1.4-12.7,2.2v27.9H319.9z"/>
	<path id="r1332" class="st2" d="M346.6,267.6v-33.1c-3.6,0.4-7.2,0.8-10.8,1.3v31.8H346.6L346.6,267.6z"/>
	<path id="r1339" class="st2" d="M298.7,267.6h5.5V241c-2.9,0.6-5.7,1.2-8.5,1.9l3,11.4V267.6z"/>
	<path id="r1334" class="st2" d="M335.8,267.6v-31.8c-4.1,0.5-8.2,1.1-12.2,1.7v30.1H335.8L335.8,267.6z"/>
	<path id="r1338" class="st2" d="M311,267.6v-27.9c-2.3,0.4-4.5,0.9-6.7,1.3v26.5h6.7V267.6z"/>
	<path id="r1342" class="st2" d="M265.6,271.3h13.2v-3.7V257l-2.4-9c-4.2,1.2-8.2,2.5-12.1,3.8l1.4,5.6L265.6,271.3L265.6,271.3z"/>
	<path id="r1340" class="st2" d="M278.8,267.6h7.9h6.8l0.5-13l-2.8-10.6c-5.1,1.2-10.1,2.6-14.9,4l2.4,9L278.8,267.6L278.8,267.6z"
		/>
	<polygon id="r1320-1322" class="st2" points="356.4,256.1 356.4,267.6 369,267.6 369,279.2 389.6,279.2 390.6,256.1 366,256.1 	"/>
	<polygon id="r1310-1314" class="st2" points="356.4,301.6 356.4,267.6 346.6,267.6 335.8,267.6 323.6,267.6 319.9,267.6 
		319.9,286.4 286.7,286.4 286.7,340.9 332.4,340.9 356.1,340.9 356.1,361.2 371.5,361.2 386.2,361.2 388.2,313.1 356.4,313.1 	"/>
	<polygon id="r1318" class="st2" points="369,267.6 356.4,267.6 356.4,301.6 388.7,301.6 389.6,279.2 369,279.2 	"/>
	<path id="r1330" class="st2" d="M356.4,267.6v-11.4v-22.6c-3.3,0.3-6.6,0.6-9.8,0.9v33.1H356.4z"/>
	<path id="r1344" class="st2" d="M265.6,271.3v-13.9l-1.4-5.6c-4.6,1.6-9,3.2-13.2,4.9l6.9,14.5L265.6,271.3L265.6,271.3z"/>
	<path id="r1324-1328" class="st2" d="M384.9,231.9c-6.4,0.2-12.7,0.5-18.9,0.9l0,0c-3.2,0.2-6.4,0.5-9.6,0.7v22.6h9.6h24.5
		l0.4-10.6v-0.3L384.9,231.9z"/>
	<path id="r1374-1376" class="st2" d="M332.4,363.8v-23h-45.7v9.7v36.4c7.3,1.9,15,3.6,22.9,5.1v-28.3L332.4,363.8L332.4,363.8z"/>
	<path id="r1382" class="st2" d="M356.1,340.9h-23.8v23v32c7.7,1.1,15.7,1.9,23.8,2.6v-37.3V340.9z"/>
	<path id="r1378" class="st2" d="M309.6,363.8v28.3c7.4,1.4,9.8,1.4,17.6,2.5v-31.2L309.6,363.8L309.6,363.8z"/>
	<path id="r1380" class="st2" d="M327.2,363.4v31.2c7.4,1.4-2.6-0.2,5.2,0.8v-32h-22.8H327.2z"/>
	<path id="r1372" class="st2" d="M275.3,350.6l-3.1,3.1v29.2c4.7,1.4,9.5,2.8,14.5,4.1v-36.4L275.3,350.6L275.3,350.6z"/>
	<path id="r1346" class="st2" d="M251,256.7c-2.7,1.1-5.3,2.2-7.8,3.3l6.8,14.7l7.9-3.5L251,256.7z"/>
	<path id="r1368" class="st2" d="M256.7,353.6v23.9c2.5,1,5.1,1.9,7.8,2.8v-26.7L256.7,353.6L256.7,353.6z"/>
	<path id="r1302-1304" class="st2" d="M385.5,378.9h-14v-8.8v-8.9h-15.4v37.3c3.6,0.3,7.2,0.6,10.9,0.8l18.3-16.6L385.5,378.9z"/>
	<path id="r1370" class="st2" d="M265.2,353.6h-0.7v26.7c2.5,0.9,5.1,1.7,7.7,2.5v-29.2H265.2z"/>
	<path id="r1352" class="st2" d="M230.7,290v-6.8l-5.6-0.4c0,0-4.3-5.8-6.7-9c-4.2,2.9-8.1,6-11.4,9.1l6.5,6.7L230.7,290z"/>
	<path id="r1356" class="st2" d="M230.7,299.1h-36.3c-1.9,3.8-3.2,7.6-3.8,11.6h40.1L230.7,299.1L230.7,299.1z"/>
	<path id="r1358" class="st2" d="M230.7,310.6h-40.1c-0.3,1.8-0.4,3.6-0.4,5.4c0,2,0.2,4,0.5,6h40L230.7,310.6L230.7,310.6z"/>
	<path id="r1347-1350" class="st2" d="M250,274.7l-6.8-14.7c-1.4,0.7-9.9,4.8-11.2,5.5l0,0c-0.1,0-0.2,0.1-0.3,0.1
		c-0.7,0.4-1.5,0.8-2.2,1.2l0,0c-5.2,3-9.9,6-11.2,6.9c2.3,3.2,6.7,9,6.7,9l5.6,0.4l6.5-2.8l0,0l0,0L250,274.7z"/>
	<path id="r1354" class="st2" d="M230.7,290l-17.2-0.3L207,283c-5.5,5.1-9.8,10.6-12.6,16.2h36.3V290L230.7,290z"/>
	<path id="r1366-1367" class="st2" d="M264.5,353.6h0.7h7l3.1-3.1h11.4v-9.7v-54.5v-18.8h-7.9v3.7h-13.2h-7.7l-14.8,6.5l0,0l0,0
		l-6,2.6l0,0l0,0l-6.5,2.8v6.8v9.1v11.6V322v9.7v13.7h-18.2l-4.3,4.8c11.5,10.4,28.1,19.7,48.6,27.4v-23.9h7.8V353.6z"/>
	<path id="r1360" class="st2" d="M230.7,331.7V322h-40c1.2,7.1,4.7,13.9,10,20.4l12.1-10.7L230.7,331.7L230.7,331.7z"/>
	<path id="r1362" class="st2" d="M230.7,345.4v-13.7h-17.9l-12.1,10.7c2.2,2.7,4.7,5.3,7.5,7.8l4.3-4.8H230.7L230.7,345.4z"/>
	<polygon id="r1308" class="st2" points="371.5,370.1 385.9,370.1 386.2,361.2 371.5,361.2 	"/>
	<polygon id="r1306" class="st2" points="371.5,370.1 371.5,378.9 385.5,378.9 385.9,370.1 	"/>
	<polygon id="r1316" class="st2" points="356.4,313.1 388.2,313.1 388.7,301.6 356.4,301.6 	"/>
	<path id="r1436" class="st2" d="M523.9,271.8h4.3v-14.3l2.8-7.7c-3.3-1.1-6.8-2.1-10.3-3v25H523.9z"/>
	<path id="r1434" class="st2" d="M515.8,271.8v-26.4c-6-1.6-12.2-3-18.7-4.4v30.7L515.8,271.8L515.8,271.8z"/>
	<path id="r1440" class="st2" d="M550,265.9l3-8.1c-4-1.7-8.3-3.3-12.6-4.9l-2.8,7.6l-0.6,20.7h13L550,265.9L550,265.9z"/>
	<path id="r1446" class="st2" d="M592.9,281.6c-5-4.5-10.9-8.8-17.7-12.8l-10.3,12.5h-3H550v-0.1h-13l-0.1,3.6H532v30.3h41.3H587
		v-10.6v-3.9l-5.3-4.6L592.9,281.6z"/>
	<path id="r1454" class="st2" d="M573.3,315.1v11.7h10.4h25.8c1.1-3.5,1.7-7.1,1.7-10.8c0-0.3,0-0.6,0-0.9H587L573.3,315.1
		L573.3,315.1z"/>
	<path id="r1444" class="st2" d="M561.8,281.3h3l10.3-12.5c-3.4-2-6.9-3.9-10.7-5.8l-2.7,6.8v11.5H561.8z"/>
	<path id="r1452" class="st2" d="M587,315.1h24.1c-0.1-3.6-0.8-7.1-1.9-10.6H587V315.1L587,315.1z"/>
	<path id="r1448" class="st2" d="M587,300.6l12.7-12.1c-2-2.3-4.3-4.6-6.8-6.9L581.8,296L587,300.6z"/>
	<path id="r1450" class="st2" d="M587,304.5h22.2c-1.9-5.5-5.1-10.9-9.5-16L587,300.6V304.5L587,304.5z"/>
	<path id="r1442" class="st2" d="M550,281.3h11.8v-11.4l2.7-6.8c-3.7-1.8-7.5-3.6-11.5-5.3l-3,8.1V281.3L550,281.3z"/>
	<path id="r1472-1474" class="st2" d="M528.2,271.8h-4.3v15.3H491h-0.1v49.6l0,0l0,0h-27.4v0.1h6.1v59c12.3-1.7,24-3.8,35.1-6.4
		v-40.6h13.1H532v-33.7v-30.3h4.9l0.4-13H528.2z"/>
	<path id="r1438" class="st2" d="M540.4,252.9c-3.1-1.1-6.2-2.1-9.4-3.2l-2.8,7.7v14.3h9.1l0.3-11.2L540.4,252.9z"/>
	<path id="r1464" class="st2" d="M552.8,348.8h-11.4v14.9l3.4,13.9c5-1.9,9.8-3.9,14.3-5.9l-6.3-12.5V348.8z"/>
	<path id="r1466" class="st2" d="M541.4,348.8H532V382c4.4-1.4,8.7-2.9,12.8-4.5l-3.4-13.9L541.4,348.8L541.4,348.8z"/>
	<path id="r1462" class="st2" d="M552.8,348.8v10.3l6.3,12.5c5.6-2.6,10.9-5.3,15.7-8.1l-11.5-14.6L552.8,348.8L552.8,348.8z"/>
	<path id="r1456" class="st2" d="M583.7,326.8v4.9l15.6,12.5c4.9-5.5,8.4-11.3,10.3-17.3L583.7,326.8L583.7,326.8z"/>
	<path id="r1458-1460" class="st2" d="M583.7,326.8h-10.4v-11.7H532v33.7h9.4h11.4h10.5l11.5,14.6c10.1-5.9,18.3-12.4,24.4-19.3
		l-15.6-12.5L583.7,326.8L583.7,326.8z"/>
	<path id="r1470" class="st2" d="M517.8,348.8h-13.1v40.6c4.5-1,8.8-2.1,13.1-3.2c0.4-0.1,0.7-0.2,1.1-0.3v-37h-1.1V348.8z"/>
	<path id="r1468" class="st2" d="M532,348.8h-13v37c4.5-1.2,8.8-2.5,13-3.9V348.8z"/>
	<path id="r1402-1404" class="st2" d="M438.5,370.1v8.8h-18.1v14l4.8,7c8.7-0.4,17.2-1,25.5-1.8v-38.9h-12.3L438.5,370.1
		L438.5,370.1L438.5,370.1z"/>
	<rect id="r1405" x="420.4" y="370.1" class="st2" width="18.1" height="8.8"/>
	<path id="r1476" class="st2" d="M463.5,336.8h-12.8v22.3V398c6.4-0.6,12.7-1.4,18.8-2.2v-59H463.5L463.5,336.8z"/>
	<polygon id="r1410" class="st2" points="420.4,359.1 438.5,359.1 450.8,359.1 450.8,336.8 420.4,336.8 	"/>
	<rect id="r1406" x="420.4" y="359.1" class="st2" width="18.1" height="11"/>
	<polygon id="r1414" class="st2" points="420.4,268.7 420.4,291.2 463.5,291.2 463.5,287.1 463.5,268.7 	"/>
	<path id="r1426" class="st2" d="M451.6,234.2c-3.8-0.4-7.6-0.7-11.4-1v19.9h11.4V234.2z"/>
	<polygon id="r1418-1420" class="st2" points="463.5,268.7 463.5,253.1 451.6,253.1 440.2,253.1 420.4,253.1 420.4,268.7 	"/>
	<path id="r1428" class="st2" d="M463.5,253.1v-17.6c-3.9-0.5-7.9-0.9-11.9-1.3V253L463.5,253.1L463.5,253.1z"/>
	<path id="r1411-1413-1430-1432" class="st2" d="M480.3,237.9L480.3,237.9L480.3,237.9c-5.5-0.9-11.1-1.7-16.8-2.4v17.6v15.7v22.5
		h-43.1v11.3v5.3v5.3v10.2v13.5h30.4l21.1-0.1h19v-49.6l0,0h0.1v-15.3h6.1V241C491.6,239.9,486,238.9,480.3,237.9z"/>
	<path id="r1424" class="st2" d="M435.3,232.8h-5V253h9.9v-19.9C438.6,233,437,232.9,435.3,232.8z"/>
	<polygon id="r1422" class="st2" points="428.4,232.8 420.4,238.7 420.4,253.1 430.3,253.1 430.3,232.8 	"/>
	<polygon id="r1760" class="st2" points="693.2,314.2 693.2,348.3 702.9,348.3 703.6,314.2 	"/>
	<polygon id="r1758" class="st2" points="703.6,314.2 702.9,348.3 713,348.3 713,314.2 	"/>
	<rect id="r1762" x="683.5" y="314.2" class="st2" width="9.8" height="34.1"/>
	<rect id="r1756" x="713" y="314.2" class="st2" width="11.7" height="34.1"/>
	<rect id="r1752" x="734.5" y="314.2" class="st2" width="10.8" height="34.1"/>
	<rect id="r1754" x="724.7" y="314.2" class="st2" width="9.8" height="34.1"/>
	<rect id="r1746" x="764.9" y="314.2" class="st2" width="9.3" height="34.1"/>
	<polygon id="r1742" class="st2" points="783.6,314.2 783.6,348.3 786.4,348.3 793.3,341.4 793.3,314.2 	"/>
	<rect id="r1748" x="755.1" y="314.2" class="st2" width="9.8" height="34.1"/>
	<rect id="r1750" x="745.3" y="314.2" class="st2" width="9.8" height="34.1"/>
	<path id="r1202" class="st2" d="M473.7,467.5h-15h-11.4h-8.5c0,0-4.1,4.3-8.4,11.2c-4.3,6.9,2.7,10.8,2.7,10.8l21.6,4l0,0l14.9,2.8
		L473.7,467.5z"/>
	<path id="r1206" class="st2" d="M523.9,474.3c-1-6-6.1-7.6-6.1-7.6l-10.1-1.1v8.3l0,0v25.2h32.9v-24.8H523.9z"/>
	<polygon id="r1204" class="st2" points="486.6,463.2 474.7,470.7 474.7,490.3 480,490.6 480,495.7 503.8,502.5 507.6,499.1 
		507.6,474 507.6,465.6 	"/>
	<rect id="r1644-8" x="637.3" y="115.6" class="st2" width="8" height="5.4"/>
	<rect id="r1644-7" x="637.3" y="121" class="st2" width="8" height="5.4"/>
	<rect id="r1644-6" x="637.3" y="126.4" class="st2" width="8" height="5.4"/>
	<rect id="r1644-5" x="637.3" y="131.9" class="st2" width="8" height="5.4"/>
	<rect id="r1644-4" x="637.3" y="137.3" class="st2" width="8" height="5.4"/>
	<rect id="r1645-4" x="582.2" y="198.2" class="st2" width="8.8" height="5.8"/>
	<rect id="r1645-5" x="590.9" y="198.2" class="st2" width="8.8" height="5.8"/>
	<rect id="r1645-1" x="582.2" y="212.9" class="st2" width="12.2" height="5.4"/>
	<polygon id="r1654-1656" class="st2" points="613.5,209.8 604.5,209.8 604.5,215.5 604.5,221.1 622.5,221.1 622.5,215.5 
		622.5,209.8 	"/>
	<polygon id="robinson" class="st2" points="432.5,227.7 421.6,227.2 421.6,203.8 379.1,203.8 379.1,180.5 348.4,180.5 348.4,98.3 
		449.3,98.3 449.3,180.1 432.5,180.1 	"/>
	<polygon id="k06" class="st2" points="231,233.8 254.5,224.4 259.4,236.1 236.1,245.7 	"/>
	
		<rect id="k05" x="228.1" y="219.2" transform="matrix(0.9252 -0.3795 0.3795 0.9252 -68.0487 105.846)" class="st2" width="12.7" height="12.7"/>
	
		<rect id="k02" x="179.5" y="344.3" transform="matrix(0.2812 -0.9596 0.9596 0.2812 -207.3521 427.9764)" class="st2" width="5" height="16.3"/>
	
		<rect id="k01" x="178.1" y="349.1" transform="matrix(0.2812 -0.9596 0.9596 0.2812 -213.0451 430.1058)" class="st2" width="5" height="16.3"/>
	<rect id="k07" x="394.9" y="368.2" class="st2" width="7.4" height="7.4"/>
	
		<rect id="k12" x="319.7" y="395.5" transform="matrix(0.1902 -0.9817 0.9817 0.1902 -129.4448 636.3251)" class="st2" width="2.5" height="2.2"/>
	<rect id="k11" x="364.1" y="400.3" class="st2" width="2.2" height="2.5"/>
	<rect id="k10" x="426.4" y="401.2" class="st2" width="2.2" height="2.5"/>
	
		<rect id="k09" x="487.4" y="393.7" transform="matrix(0.9867 -0.1623 0.1623 0.9867 -57.6187 84.5214)" class="st2" width="2.2" height="2.5"/>
	
		<rect id="k08" x="565" y="370.5" transform="matrix(0.9177 -0.3973 0.3973 0.9177 -101.099 255.5017)" class="st2" width="2.2" height="2.5"/>
	<path id="k03" class="st2" d="M589.8,377.2l4.9,12.3l-7.6,4.3l-7.6-12.1C582,380,586.4,378.3,589.8,377.2z"/>
	<path id="r1251" class="st2" d="M490.5,397.5l3.3,15.6h9.8l-3.5-17.4C496.9,396.4,493.8,397,490.5,397.5z"/>
	<path id="r1710-b" class="st2" d="M697.3,384.7v-14h8.6c3.2,3.5,4.5,8.1,4,14H697.3z"/>
	<rect id="r1736" x="758.4" y="363.3" class="st2" width="9" height="21.4"/>
	<rect id="k04" x="784.7" y="350.6" class="st2" width="6.3" height="9.9"/>
	<rect id="r1744" x="774.2" y="314.2" class="st2" width="9.4" height="34.1"/>
	<polygon id="r1764-1766" class="st2" points="654.2,323 678.7,323 678.7,314.2 683.5,314.2 683.5,348.3 659.3,348.3 654.2,342.4 	
		"/>
	<polygon id="hong-tong-health" class="st2" points="619.6,261.9 619.6,273.9 640,273.9 640,261.9 630.3,261.9 	"/>
	<rect id="disco-best-beef" x="582.2" y="207.2" class="st2" width="12.2" height="5.8"/>
	<rect id="chaweyong" x="613.5" y="198.2" class="st2" width="9" height="11.6"/>
	<rect id="naihua-roti-chachuk" x="622.5" y="198.2" class="st2" width="8.7" height="11.6"/>
	<rect id="the-south-coffee" x="631.2" y="198.2" class="st2" width="8.8" height="11.6"/>
	<polygon id="r1638" class="st2" points="593.2,142.7 593.2,167.3 603.9,176.3 611.2,176.3 611.2,142.7 	"/>
	<path id="r1634" class="st2" d="M577.8,142.7h-17.9l-0.6,33.9l25.9,17.2c2.6-4.1,5.4-8.2,8.5-11.8l-15.8-10.7L577.8,142.7
		L577.8,142.7z"/>
	<path id="r1632-7" class="st2" d="M518.2,142.7v9.7h9.2l0,0l0,0l3.3,13.5c1.6-1.4,3.8-2.2,6.5-2.2v-21H518.2L518.2,142.7z"/>
	<path id="r1632-4" class="st2" d="M528.3,187.2L528.3,187.2h-10.1v17.6h17l6.4-14.1c-4.5-2.2-7.9-4.9-10.2-8.3L528.3,187.2
		L528.3,187.2z"/>
	<circle id="pizza-hut" class="st2" cx="590.2" cy="229.1" r="3.2"/>
</g>
<g id="signs" class="st3">
	<rect id="wheelchair" x="390.6" y="391.1" class="st4" width="14.8" height="14.8"/>
	<rect id="baby-stroller" x="374" y="391.1" class="st4" width="14.8" height="14.8"/>
	<g id="information" class="st5">
		<rect x="624" y="179.3" class="st6" width="14.8" height="14.8"/>
		<rect x="407.2" y="391.1" class="st6" width="14.8" height="14.8"/>
		<rect x="390.7" y="407.8" class="st6" width="14.8" height="14.8"/>
	</g>
	<rect id="prayer-room" x="255.2" y="171.6" class="st4" width="14.8" height="14.8"/>
	<rect id="first-aid" x="270.7" y="171.6" class="st4" width="14.8" height="14.8"/>
	<g id="entrance" class="st5">
		<rect x="391.1" y="437.2" class="st6" width="14.8" height="14.8"/>
		<rect x="603.1" y="423" class="st6" width="14.8" height="14.8"/>
		<rect x="780.8" y="348.6" class="st6" width="14.8" height="14.8"/>
		<rect x="140" y="190.9" class="st6" width="14.8" height="14.8"/>
		<rect x="164.5" y="379.4" class="st6" width="14.8" height="14.8"/>
		<rect x="383.3" y="84.3" class="st6" width="14.8" height="14.8"/>
		<rect x="638.7" y="119.5" class="st6" width="14.8" height="14.8"/>
	</g>
	<g id="toilet" class="st5">
		<rect x="518.4" y="408" class="st6" width="14.8" height="14.8"/>
		<rect x="291.3" y="414.8" class="st6" width="14.8" height="14.8"/>
		<rect x="492.2" y="272" class="st6" width="14.8" height="14.8"/>
		<rect x="288.6" y="269.7" class="st6" width="14.8" height="14.8"/>
		<rect x="670.7" y="396.8" class="st6" width="14.8" height="14.8"/>
	</g>
	<g id="atm" class="st5">
		<rect x="526.9" y="464.3" class="st6" width="14.8" height="14.8"/>
		<rect x="252.2" y="453.5" class="st6" width="14.8" height="14.8"/>
		<rect x="508.1" y="272" class="st6" width="14.8" height="14.8"/>
		<rect x="304.2" y="269.7" class="st6" width="14.8" height="14.8"/>
	</g>
	<g id="escalator" class="st5">
		<rect x="587" y="222.3" class="st6" width="14.8" height="14.8"/>
		<rect x="655.8" y="304.5" class="st6" width="14.8" height="14.8"/>
		<rect x="795.6" y="335.5" class="st6" width="14.8" height="14.8"/>
		<rect x="598.8" y="388.7" class="st6" width="14.8" height="14.8"/>
		<rect x="565.3" y="451.7" class="st6" width="14.8" height="14.8"/>
		<rect x="632.2" y="483.2" class="st6" width="14.8" height="14.8"/>
		<rect x="484.5" y="387.8" class="st6" width="14.8" height="14.8"/>
		<rect x="390.6" y="374.5" class="st6" width="14.8" height="14.8"/>
		<rect x="357.8" y="446" class="st6" width="14.8" height="14.8"/>
		<rect x="303.8" y="384.5" class="st6" width="14.8" height="14.8"/>
		<rect x="185.1" y="335.8" class="st6" width="14.8" height="14.8"/>
		<rect x="147.4" y="332.2" class="st6" width="14.8" height="14.8"/>
		<rect x="194.4" y="183.5" class="st6" width="14.8" height="14.8"/>
		<rect x="380.8" y="171.6" class="st6" width="14.8" height="14.8"/>
		<rect x="421.1" y="170.5" class="st6" width="14.8" height="14.8"/>
		<rect x="396.8" y="225.2" class="st6" width="14.8" height="14.8"/>
		<rect x="485" y="231.3" class="st6" width="14.8" height="14.8"/>
		<rect x="243.6" y="230.1" class="st6" width="14.8" height="14.8"/>
		<rect x="174.2" y="291" class="st6" width="14.8" height="14.8"/>
		<rect x="125.8" y="376.2" class="st6" width="14.8" height="14.8"/>
		<rect x="668.2" y="90.9" class="st6" width="14.8" height="14.8"/>
	</g>
	<g id="lift" class="st5">
		<rect x="795.6" y="309.8" class="st6" width="14.8" height="14.8"/>
		<rect x="587" y="372" class="st6" width="14.8" height="14.8"/>
		<rect x="549" y="459.1" class="st6" width="14.8" height="14.8"/>
		<rect x="421.1" y="400.6" class="st6" width="14.8" height="14.8"/>
		<rect x="146.1" y="283.6" class="st6" width="14.8" height="14.8"/>
		<rect x="176.4" y="183.5" class="st6" width="14.8" height="14.8"/>
		<rect x="227.6" y="220.3" class="st6" width="14.8" height="14.8"/>
		<rect x="652.2" y="90.9" class="st6" width="14.8" height="14.8"/>
		<rect x="106.3" y="414.8" class="st6" width="14.8" height="14.8"/>
		<rect x="93.4" y="440.4" class="st6" width="14.8" height="14.8"/>
		<rect x="131.3" y="321.2" class="st6" width="14.8" height="14.8"/>
		<rect x="570.4" y="222.3" class="st6" width="14.8" height="14.8"/>
	</g>
</g>
</svg>
