<?xml version="1.0" encoding="utf-8"?>
<!-- Generator: Adobe Illustrator 19.2.0, SVG Export Plug-In . SVG Version: 6.00 Build 0)  -->
<svg version="1.1" id="Layer_1" xmlns="http://www.w3.org/2000/svg" xmlns:xlink="http://www.w3.org/1999/xlink" x="0px" y="0px"
	 viewBox="0 0 841.9 595.3" style="enable-background:new 0 0 841.9 595.3;" xml:space="preserve">
<style type="text/css">
	.st0{fill:#FFFFFF;}
	.st1{fill:#BFBFBF;stroke:#494949;stroke-width:0.5;stroke-miterlimit:10;}
	.st2{fill:none;stroke:#494949;stroke-width:0.6582;stroke-miterlimit:10;}
	.st3{fill:none;stroke:#494949;stroke-width:0.5;stroke-miterlimit:10;}
	.st4{fill:#939598;stroke:#494949;stroke-width:0.6582;stroke-miterlimit:10;}
	.st5{opacity:0.8;enable-background:new    ;}
</style>
<rect id="background" class="st0" width="841.9" height="595.3"/>
<g id="etc">
	<path class="st1" d="M157.8,378.9l31.9,7.1v18.6l36.4,24.5l10.9,1.3l12.6,5.8l-8.2,20.6l-13.8-5.1l-5.9,14l19,17.7l51.4,20.4
		l16.8,3l30.9-12.2l1.2,4l17.5-5.9l2.1-30l-24.4,8l-4.7-14.9c0,0,59.4-30.5,86.7-9.7L416,448l12.2,12.9l1.6-1.9l3,2.9l6.4-5.9h2.1
		c0,0,5.2,11.4,5.8,21h-10v18l67.4,15.1l4.4-4.5h31.9V480l6,3.1c0,0,13.7,43.3,68.9,40.2c40.4-2.2,51.6-30.5,57.6-60.1H745V133.8
		H447.8V98.3H344.1v0.9H269v-5.8h-14.2l0.9-19.6H97.2v108h2.4l-0.1,16.1h66.4l-0.4,46.4l-90.6-21.2L48.2,331.2v115.2l73.6,23.1
		l11.1-37.8l13.9,3.9L157.8,378.9z"/>
	<rect x="647.5" y="133.8" class="st2" width="97" height="189.1"/>
	<rect x="97.2" y="73.7" class="st2" width="158.4" height="108"/>
	<polygon class="st2" points="386,255.1 411.2,257.5 411.2,218.1 387.3,218.1 	"/>
	<polygon class="st2" points="386,263 411.2,270.3 411.2,312.6 384.2,312.6 	"/>
	<polygon class="st2" points="382.9,322.7 412.3,318.3 414,368.1 381.6,365.1 	"/>
	<polygon class="st2" points="381.6,375.2 414,376 416.9,411.8 379.2,411.8 	"/>
	<circle class="st2" cx="611.1" cy="446.9" r="24.8"/>
	<circle class="st2" cx="611.1" cy="446.9" r="15"/>
	<polyline class="st2" points="99.3,181.6 99.3,197.7 165.9,197.7 165.5,244.1 	"/>
	<polyline class="st2" points="169,197.7 169,238.5 182.9,242.5 	"/>
	<polygon class="st2" points="224.3,219.4 234,241.3 252.9,231.7 243.4,210.2 	"/>
	<polyline class="st2" points="255.6,93.3 268.9,93.3 268.9,102.8 344.1,102.8 	"/>
	<rect x="268.9" y="99.1" class="st2" width="9.4" height="3.6"/>
	<rect x="278.3" y="99.1" class="st2" width="9.4" height="3.6"/>
	<rect x="287.7" y="99.1" class="st2" width="9.4" height="3.6"/>
	<rect x="297.1" y="99.1" class="st2" width="9.4" height="3.6"/>
	<rect x="306.5" y="99.1" class="st2" width="9.4" height="3.6"/>
	<rect x="315.9" y="99.1" class="st2" width="9.4" height="3.6"/>
	<rect x="325.3" y="99.1" class="st2" width="9.4" height="3.6"/>
	<rect x="334.7" y="99.1" class="st2" width="9.4" height="3.6"/>
	<line class="st2" x1="157.8" y1="378.9" x2="189.7" y2="386"/>
	<line class="st2" x1="158.7" y1="374.2" x2="189.7" y2="381.2"/>
	<line class="st2" x1="166.1" y1="380.8" x2="167.3" y2="376.2"/>
	<line class="st2" x1="174.2" y1="382.6" x2="175.5" y2="378"/>
	<line class="st2" x1="182.8" y1="384.5" x2="184" y2="379.9"/>
	<line class="st2" x1="249.6" y1="436.2" x2="241.4" y2="456.7"/>
	<polyline class="st2" points="253.6,462.3 256.8,454.3 291,450.6 	"/>
	<line class="st2" x1="326.6" y1="451.2" x2="326.3" y2="473.7"/>
	<path class="st2" d="M336.1,470.6l-4.7-14.9c0,0,63.5-31.1,86.7-9.7"/>
	<path class="st2" d="M429.8,459l3,2.9l6.4-5.9h2.1c0,0,5.5,11.4,5.8,21"/>
	<path class="st2" d="M443.3,445.9c0,0,9,21.2,8.8,31"/>
	<line class="st2" x1="462.6" y1="445.9" x2="462.6" y2="477"/>
	<path class="st2" d="M468.8,445.9c0,0,10.3,8.8,35.5,7.8s29.9-3.1,29.9-3.1v-4.7"/>
	<line class="st2" x1="488.9" y1="477" x2="488.9" y2="453.1"/>
	<line class="st2" x1="493.2" y1="477" x2="493.2" y2="453.5"/>
	<path class="st2" d="M588.2,408.5c0,0,9.9-7.3,29.4-4.6"/>
	<line class="st2" x1="365" y1="423.6" x2="428.9" y2="423.6"/>
	<rect x="365.7" y="420.8" class="st2" width="14.9" height="2.8"/>
	<rect x="391.5" y="420.8" class="st2" width="25.4" height="2.8"/>
	<circle class="st2" cx="582.7" cy="222.4" r="12.8"/>
	<path class="st2" d="M573.7,379.5l15,22.9c0,0,4.4-2.4,10.9-2l0.4-28.2C600,372.2,583.4,372,573.7,379.5z"/>
	<rect x="390.8" y="361.2" class="st3" width="13.4" height="8.2"/>
	<rect id="_x3C_Path_x3E__2_" x="504.2" y="467.7" class="st1" width="25.2" height="9.2"/>
	<path id="_x3C_Path_x3E_" class="st1" d="M573.5,464.4l-5.7,2.5l9.5,16.3l-3.1,3.6l9.1,8.3l7.7-12
		C583.4,479,577.2,472.4,573.5,464.4z"/>
	<polygon id="_x3C_Path_x3E__1_" class="st1" points="303,479.8 280.5,471.4 271.1,495.4 292,503.7 	"/>
</g>
<g id="rooms">
	<polygon id="robinson" class="st4" points="344.1,98.3 447.8,98.3 447.8,180.1 419.3,180.1 419.3,203.8 375.6,203.8 375.6,180.5 
		344.1,180.5 	"/>
	<polygon id="r2264" class="st4" points="565.9,396.3 575.1,390.9 581.5,399.5 569.6,406.2 	"/>
	<path id="blu-o-sub-zero" class="st4" d="M454.5,133.8v9.1h18.3v5.7H492v46.6h36.9v19.4h38.5l0.1,0.1c2.8-5.5,8.6-9.3,15.2-9.3
		c9.4,0,17.1,7.6,17.1,17.1c0,4.8-2,9.2-5.3,12.3H628v19.7l17.1,0.2l0.2-120.9L454.5,133.8L454.5,133.8z"/>
	<path id="r2624" class="st4" d="M552.4,214.6h-12.8v20.7C552.4,231.2,552.4,214.6,552.4,214.6z"/>
	<polygon id="r2530" class="st4" points="209.9,230.9 226.2,230.9 223.4,223.4 209,197.7 183.6,197.7 183.1,230.9 209.5,230.9 	"/>
	<polygon id="r2524" class="st4" points="230.6,183.1 237.7,204.5 247.3,201.3 243,183.1 	"/>
	<polygon id="r2526-2528" class="st4" points="183.6,183.1 183.6,193.2 210.7,193.5 220.7,210.2 237.7,204.5 230.6,183.1 	"/>
	<polygon id="r2522" class="st4" points="266.8,177.1 257.2,177.1 257.2,183.1 243,183.1 247.3,201.3 248.4,200.9 266.8,194.1 	"/>
	<path id="ikea" class="st4" d="M197,271.4l0.8-3.1L181,247.7L74.8,222.9L48.2,331.2v115.2l73.6,23.1l11.1-37.8l13.9,3.9l16.3-83.8
		l5.6,1.4l2.8-30.4l-23-18.9l12-7.3l4.6,14.7l7.7-2l-4.1-17.4l10.8,0.9C183.4,285.4,189.4,278.2,197,271.4z"/>
	<path id="r2236-2240" class="st4" d="M463.4,412.3c-1.4,0.2-5,0.6-7.3,0.9c-1.3,0.2-2.6,0.3-4,0.5c-2.4,0.3-4.8,0.5-7.2,0.7v13.9
		h7.2l0,0h6l0,0h5.3V412.3L463.4,412.3z"/>
	<path id="r2241" class="st4" d="M463.4,412.3v16h4.7v-16.6C466.5,411.8,464.9,412.1,463.4,412.3z"/>
	<path id="r2242" class="st4" d="M468.1,411.6v16.6h5.4v-17.5C471.7,411.1,469.9,411.3,468.1,411.6z"/>
	<path id="r2246" class="st4" d="M487,408.4c-1.1,0.2-2.3,0.4-3.4,0.7v19.2h4.8l0,0l0,0h6.5v-4.4v-17
		C493.1,407.2,489.4,407.9,487,408.4z"/>
	<path id="r2248" class="st4" d="M494.9,406.8v17H508v-20.1C503.8,404.8,499.4,405.8,494.9,406.8z"/>
	<path id="r2250" class="st4" d="M508,423.8h8.6v-22.4c-2.8,0.8-5.7,1.5-8.6,2.3L508,423.8L508,423.8z"/>
	<path id="r2252" class="st4" d="M521,400.2v13.2h12.3v-17.1C529.4,397.6,525.2,398.9,521,400.2z"/>
	<path id="r2254" class="st4" d="M533.4,396.3v17.1v15.2l16.6-10.2l-9.7-24.5C538,394.7,535.7,395.5,533.4,396.3z"/>
	<path id="r2256" class="st4" d="M540.3,393.8l9.7,24.5l6.6-3.9l-9-23.5C545.2,392,542.8,392.9,540.3,393.8z"/>
	<path id="r2258-2262" class="st4" d="M565.8,396.1l9.3-5.2l-6.9-9.2c-2.1,1.1-8.4,4.1-10.6,5.1c-1.6,0.7-3.1,1.4-4.4,1.9
		c-1.8,0.8-3.7,1.6-5.6,2.3l9,23.5l6.4-4l0,0l6.6-4.2L565.8,396.1z"/>
	<path id="r2638" class="st4" d="M619.4,332.5c5.9,2.4,19.5,7.8,22.2,8.6c3.4,1.1,3.5-0.7,3.5-0.7v-20.9l-22.9-0.3
		C621.9,323.8,621,328.2,619.4,332.5z"/>
	<path id="r2636" class="st4" d="M622.3,316.4c0,1,0,1.9-0.1,2.9h22.9v-11.1h-23.5C622.1,310.8,622.3,313.6,622.3,316.4z"/>
	<path id="r2634" class="st4" d="M619.3,299.8c1,2.7,1.8,5.5,2.3,8.3h23.5v-13.5h-10.9L619.3,299.8z"/>
	<path id="r2632" class="st4" d="M628,254.5v25.6l-13.5,9.9c2,3.2,3.6,6.5,4.8,9.8l14.9-5.2h10.9v-40.2L628,254.5L628,254.5z"/>
	<path id="r2630" class="st4" d="M607.4,264.8L607.4,264.8l-6.8,8.5c5.7,5.3,10.3,10.9,13.9,16.7l13.5-9.9v-25.6h-12.3L607.4,264.8z
		"/>
	<path id="r2616" class="st4" d="M506.3,228.6v-33.3H492v30.1C496.9,226.3,501.7,227.4,506.3,228.6z"/>
	<path id="r2618-2620" class="st4" d="M528.9,234.9v-20.4v-19.4h-22.6v33.3C514.1,230.5,521.7,232.6,528.9,234.9z"/>
	<path id="r2608" class="st4" d="M434.7,184.9h-12.3v31.8c4.1,0.2,8.2,0.5,12.3,0.8V184.9z"/>
	<path id="r2610" class="st4" d="M444.1,218.2v-33.3h-9.4v32.5C437.8,217.7,441,217.9,444.1,218.2z"/>
	<path id="r2611" class="st4" d="M454.5,219.3v-34.4h-10.4v33.3C447.6,218.5,451.1,218.9,454.5,219.3z"/>
	<path id="r2612-2614" class="st4" d="M492,225.3v-30.1v-46.6h-19.2v-5.7h-18.3v42v34.4C467.5,220.8,480.1,222.8,492,225.3z"/>
	<path id="r2628" class="st4" d="M595.5,253.9l5.9,5.4l6,5.4l8.1-10.2h0.2H628v-19.7h-33.5c-3.1,2.9-7.2,4.8-11.8,4.8
		c-0.2,0-0.4,0-0.6,0c-4.4,2.5-8.6,8,0.5,19.9c1.8,1.2,3.6,2.3,5.2,3.5L595.5,253.9z"/>
	<path id="r2626-2627" class="st4" d="M607.4,264.7l-11.8-10.8l-7.6,9c2.2,1.6,10.7,8.7,12.7,10.3L607.4,264.7z"/>
	<path id="r2622" class="st4" d="M532.7,236.2c2.6,0.1,4.9-0.2,6.9-0.9v-20.7h-10.8V235C530.2,235.4,531.5,235.8,532.7,236.2z"/>
	<path id="r2502" class="st4" d="M339.5,182.4h-7.3v38c2.4-0.3,4.9-0.6,7.3-0.9c2-0.2,3.9-0.5,5.9-0.7v-36.4H339.5z"/>
	<path id="r2503-2506" class="st4" d="M357.7,182.4L357.7,182.4h-6.2l0,0h-6.1v36.4c2-0.2,4-0.4,6.1-0.6l0,0
		c2.1-0.2,4.1-0.4,6.2-0.5l0,0c4.5-0.4,9-0.7,13.6-0.9v-34.4H357.7z"/>
	<polygon id="r2519-4" class="st4" points="296.7,122.5 286.1,122.5 278.5,139.1 278.5,139.1 278.5,139.1 266.8,139.1 266.8,151.5 
		296.7,151.5 	"/>
	<polygon id="r2519-3" class="st4" points="296.7,151.5 266.8,151.5 266.8,161.1 282.8,161.1 282.8,161.1 296.7,161.1 	"/>
	<rect id="r2519-2" x="266.8" y="161.1" class="st4" width="16" height="14"/>
	<rect id="r2519-1" x="266.8" y="175.1" class="st4" width="16" height="15.3"/>
	<polygon id="r2519" class="st4" points="286.1,122.5 286.1,122.5 286.1,122.5 296.7,122.5 296.7,104.5 276.3,104.5 266.8,117.6 
		266.8,139.1 278.5,139.1 	"/>
	<polygon id="r2521" class="st4" points="282.8,190.5 266.8,190.5 266.8,208.3 266.9,208.5 267,208.5 267,208.5 282.8,208.5 	"/>
	<path id="r2518" class="st4" d="M267,208.5l5.7,24.6c3.3-1,6.7-1.9,10.1-2.9v-21.8L267,208.5L267,208.5z"/>
	<path id="r2520" class="st4" d="M332.2,220.4v-38v-8h7.3v-46.7H322v-14.8l-7.8-8.3h-17.6v122.3C308,224.2,319.9,222.1,332.2,220.4z
		"/>
	<path id="r2534-2536" class="st4" d="M209.9,230.9h-0.4h-26.4l-0.2,11.5l20.3,23.8c5.5-4.2,11.7-8.3,18.5-12.1L209.9,230.9z"/>
	<path id="r2532" class="st4" d="M232.5,248.5l-6.3-17.6H210l11.8,23.1C225.2,252.2,228.8,250.3,232.5,248.5z"/>
	<path id="r2128" class="st4" d="M203.5,388.6l7.6,5.7l10.2-15.9c-2.7-1.5-5.3-3.1-7.8-4.7L203.5,388.6z"/>
	<path id="r2126" class="st4" d="M203.5,388.6l10-14.9c-5-3.2-9.6-6.5-13.8-10l-10,14.1v26.9l10.3,6.9l11.1-17.4L203.5,388.6z"/>
	<path id="r2130" class="st4" d="M221.3,378.3l-10.2,15.9L200,411.6l11.1,7.5l21.7-34.7C228.8,382.4,224.9,380.4,221.3,378.3z"/>
	<path id="r2132" class="st4" d="M211.1,419.1l15,10.1L244,389c0,0-8-3-11.2-4.6L211.1,419.1z"/>
	<path id="r2234" class="st4" d="M428.9,415.7v18.5l5.1,5.2l10.9-11.1v-13.9C439.6,414.9,434.3,415.3,428.9,415.7z"/>
	<polygon id="r2232" class="st4" points="434,439.4 440,445.9 458.9,445.9 458.9,428.3 444.9,428.3 	"/>
	<rect id="r2230" x="458.9" y="428.3" class="st4" width="19.7" height="17.7"/>
	<rect id="r2229" x="478.6" y="428.3" class="st4" width="16.3" height="17.7"/>
	<polygon id="r2227" class="st4" points="494.9,445.9 516.6,445.9 516.6,428.6 504.8,428.6 504.8,423.8 494.9,423.8 	"/>
	<polygon id="r2224" class="st4" points="533.4,428.6 520.5,428.6 520.5,445.9 550.3,445.9 550.3,418.2 	"/>
	<path id="r2208" class="st4" d="M577.3,483.2l-9.5-16.3l-13.6,5.9l3.1,5.8L547,483c0,0,4.1,17.8,25.3,29.3l11-17.2l-9.1-8.3
		L577.3,483.2z"/>
	<path id="r2222" class="st4" d="M560.8,411.9l-10.5,6.3v27.7h19.3c0.2-8.5,2.9-16.3,7.4-22.8L560.8,411.9z"/>
	<path id="r2221" class="st4" d="M590.1,411.1l-8.6-11.7l-20.7,12.4l16.3,11.3C580.5,418.3,584.9,414.1,590.1,411.1z"/>
	<path id="r2214" class="st4" d="M647.7,466.2l22.7,11c3.2-11.2,4.3-22.3,4.6-30.3h-22.5C652.5,453.9,650.8,460.5,647.7,466.2z"/>
	<path id="r2212" class="st4" d="M632.9,482.1l18.6,18.2l-9,8.6l3.3,5.8c13.2-8.9,20.6-23.4,24.6-37.6l-22.7-11
		C644.3,472.8,639.2,478.3,632.9,482.1z"/>
	<path id="r2216" class="st4" d="M675,434.7l-8.7-0.2v-18.9h-6.5l-11.9,12.3c2.9,5.7,4.6,12.1,4.6,19H675
		C675.4,439.5,675,434.7,675,434.7z"/>
	<path id="r2146" class="st4" d="M315.2,425.8h8.1V411c-2.8-0.4-5.6-0.9-8.3-1.4v16.3L315.2,425.8L315.2,425.8z"/>
	<path id="r2150" class="st4" d="M337.9,425.8V413c-2-0.2-4-0.5-5.9-0.8v13.6L337.9,425.8L337.9,425.8z"/>
	<path id="r2148" class="st4" d="M332,425.8v-13.6c-2.9-0.4-5.8-0.8-8.7-1.3v14.9H332L332,425.8z"/>
	<path id="r2152" class="st4" d="M343.7,425.8v-12.2c-1.9-0.2-3.9-0.4-5.8-0.7v12.8h5.8V425.8z"/>
	<path id="r2140" class="st4" d="M287.2,413.6v-10c-2.7-0.7-5.4-1.4-8.1-2.2l-3.6,12.1L287.2,413.6L287.2,413.6z"/>
	<path id="r2144" class="st4" d="M301,425.8h14v-16.3c-4.7-0.8-9.4-1.7-14-2.7v6.8V425.8z"/>
	<path id="r2116" class="st4" d="M337.9,425.8H332h-8.7v25.8c8-0.9,14.8-2.4,20.4-4.1v-21.6L337.9,425.8L337.9,425.8z"/>
	<path id="r2138" class="st4" d="M275.4,421.4v-7.8l3.6-12.1c-3.3-0.9-6.6-1.9-9.8-2.9l-5.4,19.1L275.4,421.4z"/>
	<path id="r2114" class="st4" d="M365,415.6c-7.2-0.5-14.3-1.1-21.3-1.9v12.2v21.6c14.4-4.3,21.3-9.9,21.3-9.9V415.6z"/>
	<path id="r2118-2120" class="st4" d="M315.2,425.8H315h-14v12.8h-10v13.2c12.4,1.1,23.1,0.9,32.3-0.2v-25.8H315.2L315.2,425.8z"/>
	<path id="r2134-2136" class="st4" d="M250.3,392l-4.4,12.5l19.5,7.7l3.8-13.6C262.7,396.5,256.4,394.3,250.3,392z"/>
	<path id="r2124" class="st4" d="M237,430.4l17.5,8l-1.9,6.1c1.2,0.3,2.4,0.6,3.6,0.9l7.8-27.8l1.5-5.4l-19.5-7.7L237,430.4z"/>
	<path id="r2122" class="st4" d="M284.7,438.8v-13.1h-10.9l-11.1-3.8l-6.6,23.5c11.1,2.9,21.3,4.8,30.6,5.9v-12.5H284.7L284.7,438.8
		z"/>
	<polygon id="r2108a" class="st4" points="332.3,471.8 322.9,474.8 323.8,474.6 332,497.6 339.8,494.5 338.1,489.5 	"/>
	<polygon id="r2110" class="st4" points="348.3,466.6 332.3,471.8 338,489.1 339.8,494.5 339.8,494.5 340.9,498.5 358.4,492.6 
		360.5,462.6 	"/>
	<polygon id="r2102" class="st4" points="227.6,451.6 221.7,465.6 240.7,483.3 250,460 	"/>
	<polygon id="r2104" class="st4" points="259,463.4 249.6,486.9 271.1,495.4 280.5,471.4 	"/>
	<polygon id="r2233" class="st4" points="416,448 426.4,437.8 438.1,448.9 428.3,460.9 	"/>
	<polygon id="r2202" class="st4" points="449.5,477 437.1,477 437.1,495 449.5,497.7 471.9,502.8 471.9,477 	"/>
	<rect id="r2206" x="509" y="480" class="st4" width="31.9" height="25.6"/>
	<path id="mega-cineplex" class="st4" d="M645.1,324.1v16.4c0,0-0.1,1.8-3.5,0.7c-2.6-0.9-16.2-6.3-22.2-8.6c0,0-7.9,20.1-20.2,29.5
		l22.5,24.8h15.2l0.4,10.3h20.9v20.3l1.7-1.7h6.5v18.9l8.7,0.2c0,0,0.3,4.8,0,12.2c-0.2,4.6-0.7,10.2-1.6,16.3l0,0H745V324.1H645.1
		L645.1,324.1z"/>
	<path id="r2464" class="st4" d="M453.8,375.2v19c2.2-0.3,4.3-0.5,6.5-0.8v-18.1L453.8,375.2L453.8,375.2z"/>
	<path id="r2430" class="st4" d="M472.7,241.3c-3.7-0.6-7.6-1.2-11.4-1.7v24v10.2h11.4V241.3z"/>
	<path id="r2432-2434" class="st4" d="M489.7,273.8h5.6v-28.2c-7.3-1.6-14.8-3.1-22.6-4.4v32.5L489.7,273.8L489.7,273.8z"/>
	<path id="r2436" class="st4" d="M505.8,273.8v-25.6c-3.4-0.9-6.9-1.7-10.4-2.5v28.2L505.8,273.8L505.8,273.8z"/>
	<path id="r2438" class="st4" d="M505.8,273.8h7.8v-23.5c-2.6-0.7-5.1-1.4-7.8-2.1V273.8L505.8,273.8z"/>
	<path id="r2440" class="st4" d="M525.9,273.8v-19.6c-2.7-0.9-5.5-1.8-8.3-2.7v22.3H525.9z"/>
	<path id="r2442" class="st4" d="M525.9,254.1v19.6h2.7v10.9h5.1v-4.1v-23.7C531.2,256,528.6,255,525.9,254.1z"/>
	<path id="r2428" class="st4" d="M450.9,238.3v25.3h10.4v-24C457.9,239.1,454.4,238.7,450.9,238.3z"/>
	<path id="r2426" class="st4" d="M440.3,237.2v13.3v13.1h10.6v-25.3C447.4,237.9,443.8,237.5,440.3,237.2z"/>
	<path id="r2328" class="st4" d="M333.8,239.6v32h11.9v-33.4C341.7,238.6,337.7,239.1,333.8,239.6z"/>
	<path id="r2330" class="st4" d="M324.7,240.9v30.6h9.1v-32C330.7,240,327.7,240.5,324.7,240.9z"/>
	<path id="r2331" class="st4" d="M316.2,242.4v29.2h8.6V241C321.8,241.4,319,241.9,316.2,242.4z"/>
	<path id="r2364" class="st4" d="M321.6,355.5v35.7c3.5,0.6,7.1,1.1,10.8,1.6v-37.4L321.6,355.5L321.6,355.5z"/>
	<path id="r2366" class="st4" d="M332.4,392.9c3.9,0.5,7.9,1,11.9,1.5v-13.3v-25.6h-11.9V392.9z"/>
	<path id="r2302" class="st4" d="M355.5,395.5v-14.4h-11.2v13.3C348,394.8,351.7,395.2,355.5,395.5z"/>
	<polygon id="r2322" class="st4" points="370.3,246.2 357.7,246.2 357.7,254.9 370.1,254.9 	"/>
	<polygon id="r2320" class="st4" points="357.7,254.9 357.7,266.3 369.8,266.3 370.1,254.9 	"/>
	<polygon id="r2316" class="st4" points="369,298.2 369.2,288.3 345.7,288.3 345.7,298.2 	"/>
	<polygon id="r2305" class="st4" points="367.1,371.8 344.3,371.8 344.3,381.1 355.5,381.1 366.9,381.1 	"/>
	<polygon id="r2306" class="st4" points="367.5,355.5 344.3,355.5 344.3,371.8 367.1,371.8 	"/>
	<polygon id="r2308" class="st4" points="367.9,340.4 344.3,340.4 344.3,355.5 367.5,355.5 	"/>
	<polygon id="r2310-2312" class="st4" points="368.4,321.9 333.2,321.9 333.2,331.2 333.2,340.4 344.3,340.4 367.9,340.4 	"/>
	<polygon id="r2314" class="st4" points="368.4,321.9 369,298.2 345.7,298.2 345.7,288.3 345.7,278.3 345.7,271.6 307.9,271.6 
		307.9,288.3 277.2,288.3 277.2,321.2 268.9,321.2 268.9,331.2 333.2,331.2 333.2,321.9 	"/>
	<path id="r2304" class="st4" d="M355.5,381.1v14.4c3.6,0.3,7.3,0.6,11,0.8l0.4-15.2L355.5,381.1L355.5,381.1z"/>
	<path id="r2356-2358" class="st4" d="M279.6,357.2v24.6c4.6,1.4,9.3,2.6,14.2,3.8v-28.4H279.6L279.6,357.2z"/>
	<path id="r2360" class="st4" d="M293.8,357.2v28.4c2.6,0.6,5.2,1.2,7.9,1.8v-30.2L293.8,357.2L293.8,357.2z"/>
	<path id="r2462" class="st4" d="M516.6,381.5c4-1.2,7.8-2.4,11.5-3.7v-26.4h-11.5V381.5z"/>
	<path id="r2454" class="st4" d="M542.2,372.5v-21h-14v26.4C533,376.1,537.7,374.3,542.2,372.5z"/>
	<path id="r2448" class="st4" d="M598.1,316.4c0-18.3-15-35.2-40.4-48.7l-6.9,13H544h-10.3v4.1h-5.1l-0.5,66.8h14h10.5l6.1,13.1
		C583.5,351.1,598.1,334.4,598.1,316.4z"/>
	<path id="r2446" class="st4" d="M544,280.6h6.8l6.9-13c-4.3-2.3-8.8-4.5-13.7-6.6V280.6L544,280.6z"/>
	<path id="r2456" class="st4" d="M489.7,290v98.3c9.4-2,18.4-4.2,26.9-6.8v-30.1h11.5l0.5-66.8l-4.4,5.3h-34.5V290z"/>
	<polygon id="r2422" class="st4" points="426,276.2 461.3,276.2 461.3,273.8 461.3,263.6 440.3,263.6 425.7,263.6 	"/>
	<polygon id="r2420" class="st4" points="426.3,288.3 461.3,288.3 461.3,276.2 426,276.2 	"/>
	<polygon id="r2414" class="st4" points="427.2,327.5 460.2,327.5 460.2,315.4 426.9,315.4 	"/>
	<polygon id="r2412" class="st4" points="427.5,342.4 460.2,342.4 460.2,327.5 427.2,327.5 	"/>
	<polygon id="r2408-2410" class="st4" points="428,363.4 460.2,363.4 460.2,342.4 427.5,342.4 	"/>
	<polygon id="r2406" class="st4" points="428,363.4 428.2,375.2 453.8,375.2 460.2,375.2 460.2,363.4 	"/>
	<polygon id="r2424" class="st4" points="425.7,263.6 440.3,263.6 440.3,250.5 425.4,250.5 	"/>
	<path id="r2402" class="st4" d="M428.5,387.3l4.8,8.7c7-0.5,13.8-1.1,20.5-1.9v-19h-25.5L428.5,387.3z"/>
	<path id="r2425" class="st4" d="M440.3,250.5v-13.3c-5-0.4-10.1-0.8-15.2-1.1l0.3,14.4L440.3,250.5L440.3,250.5z"/>
	<path id="r2418-2460" class="st4" d="M472.7,273.8h-11.4v2.4v12.1h-35.1l0.4,16h33.6v11.1v12.2v14.8v21.1v11.7v18.1
		c10.2-1.4,20-3,29.5-5V290v-16.2H472.7L472.7,273.8z"/>
	<path id="r2332" class="st4" d="M310.8,243.4v11.3l-5.4,2.4v14.5h10.7v-29.2C314.4,242.7,312.6,243.1,310.8,243.4z"/>
	<path id="r2334-2335" class="st4" d="M299,271.6h-0.9h7.3v-14.5l5.4-2.4v-11.3c-8.2,1.6-4.3,0.5-11.8,2.5V271.6z"/>
	<path id="r2336-2" class="st4" d="M275.7,252.2c-1.6,0.5-3.1,1-4.7,1.5v14.7h6.1h0.9l0.7-8.2L275.7,252.2z"/>
	<path id="r2336-1" class="st4" d="M285,259l-3.1-8.7c-2.1,0.6-4.1,1.2-6.1,1.8l3.1,8l0,0l0,0l-0.7,8.2h6.9L285,259L285,259z"/>
	<path id="r2340" class="st4" d="M227.4,308.2v4.3h8v18.6h5.9h27.5v-10h8.3v-52.9H271v12.1h-19.2h-12.3l-4.5-11.2
		c-7.6,4.3-14.1,8.8-19.6,13.6l11.9,14.3L227.4,308.2L227.4,308.2z"/>
	<path id="r2351" class="st4" d="M254.8,331.2h-13.4v18.1l-8.2,13.2c3.4,2,7.1,3.9,11,5.8l10.6-16.9L254.8,331.2L254.8,331.2z"/>
	<path id="r2352" class="st4" d="M254.8,331.2v20.2l0,0l0,0l-10.6,16.9c4.6,2.2,9.5,4.3,14.6,6.4l7.5-17.5h2.4l0.2-26H254.8z"/>
	<path id="r2354" class="st4" d="M279.6,357.2h-10.9h-2.4l-7.5,17.5c6.5,2.5,13.5,4.9,20.9,7.1L279.6,357.2L279.6,357.2z"/>
	<path id="r2350" class="st4" d="M241.4,331.2h-5.9v-18.6h-8h-2.2v7.6v16l-10.6,13c5.1,4.7,11.4,9.1,18.5,13.3l8.2-13.2V331.2
		L241.4,331.2z"/>
	<path id="r2348" class="st4" d="M225.3,320.1h-10.4l-14.1,10.7c2.9,6.4,7.6,12.5,13.9,18.3l10.6-13V320.1L225.3,320.1L225.3,320.1z
		"/>
	<path id="r2347" class="st4" d="M215.4,308.2l-13.3-9.2c-3,5.6-4.6,11.4-4.6,17.3c0,5,1.1,9.8,3.2,14.5l14.1-10.7h10.4v-7.6h2.2
		v-4.3L215.4,308.2L215.4,308.2z"/>
	<path id="r2346" class="st4" d="M202.1,299l13.3,9.2h12V297l-11.9-14.3C209.7,287.9,205.2,293.4,202.1,299z"/>
	<path id="r2344" class="st4" d="M235.1,269.1l4.5,11.2h12.3l-6.5-16.6C241.8,265.5,238.3,267.3,235.1,269.1z"/>
	<path id="r2338-2342" class="st4" d="M245.4,263.8l6.5,16.6h19.2v-12.1v-14.7C261.8,256.7,253.2,260.1,245.4,263.8z"/>
	<path id="r2362" class="st4" d="M279.6,357.2h14.2h7.9v30.2c6.4,1.4,13.1,2.7,19.9,3.8v-35.7h10.8h11.9v-15.1h-11.1v-9.2h-64.3
		l-0.2,26L279.6,357.2L279.6,357.2L279.6,357.2z"/>
	<polygon id="r2318" class="st4" points="357.7,266.3 357.7,278.3 369.5,278.3 369.8,266.3 	"/>
	<polygon id="r2142" class="st4" points="301,406.8 292.1,405.2 292.5,413.8 301,413.6 	"/>
	<path id="r2217-2220" class="st4" d="M617.1,405.9l4.6-19.1h15.2l0.4,10.3h20.9v13.1l-12.6,13.6c-5.8-7.4-10.2-11.8-16-13.8
		C625.1,407.9,622.2,406.3,617.1,405.9z"/>
	<path id="love-toast" class="st4" d="M617.6,403.9l4.1-17.1l-4.8-5.3l-7.6,21.8C611.5,403.1,614.2,403.2,617.6,403.9z"/>
	<path id="dairy-queen" class="st4" d="M573.7,379.5c-0.6-1,12.9-6.7,13.2-5.8c0.1,0.3,3.2,12.6,3.2,12.6l-9,4.5L573.7,379.5z"/>
	<polygon id="dakasi" class="st4" points="588.7,402.4 581.1,390.9 590.1,386.4 594.7,400.7 	"/>
	<path id="r2452" class="st4" d="M542.2,351.5v21c5.9-2.5,11.5-5.1,16.6-7.9l-6.1-13.1H542.2L542.2,351.5z"/>
	<polygon id="r2348" class="st4" points="502.1,480 502.1,477 487.3,477 473.6,477 473.6,498.2 480.5,498.2 480.5,504.7 
		487.3,506.2 504.6,510.1 508.8,505.6 509,505.6 509,480 	"/>
	<path id="r2244" class="st4" d="M473.5,410.8v17.5h10.1V409C481.9,409.3,475.1,410.5,473.5,410.8z"/>
	<polygon id="r2108c" class="st4" points="304.7,480.8 308.8,506.7 322.2,501.4 314.1,477.7 	"/>
	<polygon id="r2108b" class="st4" points="314.1,477.7 323.8,474.6 332,497.6 322.2,501.4 	"/>
	<polygon id="r2416" class="st4" points="460.2,315.4 460.2,304.3 426.6,304.3 426.9,315.4 	"/>
	<path id="r2444" class="st4" d="M533.7,256.9v23.7H544V261C540.7,259.6,537.3,258.2,533.7,256.9z"/>
	<path id="r2324" class="st4" d="M370.5,236.1c-4.3,0.2-8.6,0.5-12.8,0.9v9.2h12.6L370.5,236.1z"/>
	<path id="r2327" class="st4" d="M345.7,238.2v33.4v6.7h12v-32.2V237C353.7,237.3,349.7,237.7,345.7,238.2z"/>
	<polygon id="r2317" class="st4" points="345.7,288.3 369.2,288.3 369.5,278.3 345.7,278.3 	"/>
	<polygon id="r2335" class="st4" points="287.3,248.8 299,245.9 299,271.6 290,271.6 290,255.9 	"/>
	
		<rect id="k201" x="598.9" y="335" transform="matrix(0.3949 -0.9187 0.9187 0.3949 54.4178 758.9775)" class="st4" width="9" height="6.4"/>
	
		<rect id="k202" x="604.8" y="316.8" transform="matrix(0.2002 -0.9798 0.9798 0.2002 173.8027 852.9427)" class="st4" width="9" height="6.4"/>
	<rect id="k203" x="473.3" y="230.9" class="st4" width="8.2" height="5.3"/>
	<rect id="k204" x="419.2" y="222.4" class="st4" width="5.8" height="7.4"/>
	
		<rect id="k205" x="333.5" y="223.9" transform="matrix(0.9971 -7.651168e-02 7.651168e-02 0.9971 -16.3747 26.4124)" class="st4" width="6" height="6"/>
	
		<rect id="k206" x="334" y="229.8" transform="matrix(0.9971 -7.651168e-02 7.651168e-02 0.9971 -16.8245 26.4677)" class="st4" width="6" height="6"/>
	
		<rect id="k207" x="219.9" y="258.7" transform="matrix(0.8987 -0.4385 0.4385 0.8987 -92.4463 124.6641)" class="st4" width="7.6" height="7.6"/>
	
		<rect id="k208" x="175.3" y="310.6" transform="matrix(0.6548 -0.7558 0.7558 0.6548 -176.714 244.3216)" class="st4" width="7.6" height="10.1"/>
	
		<rect id="k209" x="234.1" y="373.5" transform="matrix(0.5 -0.866 0.866 0.5 -206.1615 393.8546)" class="st4" width="7.8" height="4"/>
	
		<rect id="k210" x="247.8" y="381.2" transform="matrix(0.5409 -0.8411 0.8411 0.5409 -206.7744 387.6488)" class="st4" width="7.8" height="4"/>
	
		<rect id="k213" x="351.2" y="401.1" transform="matrix(8.993246e-02 -0.9959 0.9959 8.993246e-02 -81.9481 720.3401)" class="st4" width="4" height="7.8"/>
	<rect id="k211" x="293.6" y="392.4" class="st4" width="3.6" height="3.6"/>
	<rect id="k212" x="293.6" y="396.6" class="st4" width="3.6" height="3.6"/>
</g>
<g id="signs">
	<g id="atm">
		<rect x="292.5" y="272.3" class="st5" width="14.8" height="14.8"/>
		<rect x="507.5" y="273.2" class="st5" width="14.8" height="14.8"/>
		<rect x="171.1" y="195.4" class="st5" width="14.8" height="14.8"/>
	</g>
	<g id="escalator">
		<rect x="386" y="375.2" class="st5" width="14.8" height="14.8"/>
		<rect x="388.5" y="230.9" class="st5" width="14.8" height="14.8"/>
		<rect x="494.1" y="388.9" class="st5" width="14.8" height="14.8"/>
		<rect x="483.3" y="227.9" class="st5" width="14.8" height="14.8"/>
		<rect x="411.2" y="167.2" class="st5" width="14.8" height="14.8"/>
		<rect x="367.9" y="167.2" class="st5" width="14.8" height="14.8"/>
		<rect x="240" y="220.8" class="st5" width="14.8" height="14.8"/>
		<rect x="169" y="287.2" class="st5" width="14.8" height="14.8"/>
		<rect x="145.4" y="326.2" class="st5" width="14.8" height="14.8"/>
		<rect x="179.1" y="328.7" class="st5" width="14.8" height="14.8"/>
		<rect x="140" y="367.2" class="st5" width="14.8" height="14.8"/>
		<rect x="292.5" y="388.9" class="st5" width="14.8" height="14.8"/>
		<rect x="347" y="453.5" class="st5" width="14.8" height="14.8"/>
		<rect x="582.7" y="215" class="st5" width="14.8" height="14.8"/>
		<rect x="588.6" y="385.9" class="st5" width="14.8" height="14.8"/>
		<rect x="556.3" y="460.3" class="st5" width="14.8" height="14.8"/>
		<rect x="633.9" y="487.7" class="st5" width="14.8" height="14.8"/>
	</g>
	<g id="lift">
		<rect x="419.2" y="408.5" class="st5" width="14.8" height="14.8"/>
		<rect x="224.3" y="213.4" class="st5" width="14.8" height="14.8"/>
		<rect x="143.9" y="280.7" class="st5" width="14.8" height="14.8"/>
		<rect x="132.6" y="317.2" class="st5" width="14.8" height="14.8"/>
		<rect x="111.5" y="402.6" class="st5" width="14.8" height="14.8"/>
		<rect x="101.5" y="427.1" class="st5" width="14.8" height="14.8"/>
		<rect x="566.1" y="215" class="st5" width="14.8" height="14.8"/>
		<rect x="579.5" y="370.1" class="st5" width="14.8" height="14.8"/>
		<rect x="540.9" y="465.2" class="st5" width="14.8" height="14.8"/>
	</g>
	<g id="toilet">
		<rect x="277.2" y="272.3" class="st5" width="14.8" height="14.8"/>
		<rect x="492.2" y="273.2" class="st5" width="14.8" height="14.8"/>
		<rect x="160.4" y="183.1" class="st5" width="14.8" height="14.8"/>
		<rect x="285.7" y="417.6" class="st5" width="14.8" height="14.8"/>
		<rect x="518.6" y="413.6" class="st5" width="14.8" height="14.8"/>
		<rect x="659" y="397.3" class="st5" width="14.8" height="14.8"/>
	</g>
</g>
<rect x="237.3" y="406.5" transform="matrix(0.3975 -0.9176 0.9176 0.3975 -229.5365 466.3115)" class="st1" width="6.1" height="2.9"/>
</svg>
