<?xml version="1.0" encoding="utf-8"?>
<!-- Generator: Adobe Illustrator 16.0.0, SVG Export Plug-In . SVG Version: 6.00 Build 0)  -->
<!DOCTYPE svg PUBLIC "-//W3C//DTD SVG 1.1//EN" "http://www.w3.org/Graphics/SVG/1.1/DTD/svg11.dtd">
<svg version="1.1" id="Layer_1" xmlns="http://www.w3.org/2000/svg" xmlns:xlink="http://www.w3.org/1999/xlink" x="0px" y="0px"
	 width="878.74px" height="595.281px" viewBox="0 0 878.74 595.281" enable-background="new 0 0 878.74 595.281"
	 xml:space="preserve">
<g id="background">
	<rect fill="#FFFFFF" width="878.74" height="595.281"/>
</g>
<g id="etc">
	<path fill="#EEEADB" d="M723.564,300.16v-51.257c0,0-13.227-22.984-28.553-32.535c-0.01-0.006-0.019-0.011-0.023-0.018
		c0.188,0.13,0.129,0.074,0.029-0.006c0.898,0.026,0.398,0.007,0.049-0.004c0.885,0.005-0.826-0.513-0.098-0.004
		c-0.142-0.1-0.287-0.203,0,0.002c-0.008,0-0.019,0-0.021,0c0.006,0,0.021,0.006,0.027,0.006c-0.211-0.01-0.158-0.01-0.027-0.006
		c-2.034-0.113-19.575-7.543-19.629-7.565v-0.002h-0.005l0,0l0,0l-60.503,0.049c-12.557-0.231-29.637-0.112-48.314,0.028
		l-67.653,0.037c-15.48-0.227-30.439-0.099-43.73,0h-27.486h-3.087c-57.265-1.013-112.902,0-112.902,0H136.131
		c0,0-31.835,3.577-58.249,31.093c-26.416,27.518-54.764,93.566-54.764,93.566s-2.438,10.763-2.069,30.131
		c0.377,19.367,1.753,39.304,1.753,39.304s-3.128,19.202,26.341,19.28c29.47,0.084,178.697-0.291,178.697-0.291
		s42.401-17.315,69.487-32.663c6.75-3.824,13.523-7.527,17.314-10.812l15.895-3.943l97.133-27.819l26.813,1.849l163.949,23.178
		l62.647,0.478c0,0,26.67,2.322,31.957-15.354c4.49-14.969,12.791-42.897,12.791-42.897L723.564,300.16z"/>
	<path fill="#C7DFF3" stroke="#FFFFFF" stroke-miterlimit="10" d="M723.564,300.16h-9.27h-0.004h-0.003h-42.315v-7.042h32.397V255
		l-9.396,0.713v-33.021v-6.35c-0.211-0.01-0.158-0.01-0.027-0.006c-2.035-0.113-19.576-7.543-19.629-7.565l0.008,41.946
		l-7.386,6.148v6.449h-44.321v-6.847l-8.809-0.195v-47.454l-38.702,16.764l-136.442-0.292l-12.044-16.407h-3.086
		c-57.266-1.013-112.902,0-112.902,0H136.131c0,0-31.835,3.577-58.249,31.093c-26.416,27.518-54.764,93.566-54.764,93.566
		s-2.438,10.762-2.069,30.131c0.377,19.367,1.753,39.304,1.753,39.304s-3.128,19.202,26.341,19.28
		c29.47,0.084,178.697-0.291,178.697-0.291s42.401-17.315,69.487-32.664v-12.088c-0.675-21.014-0.716-68.828,0-68.375
		c0.954,0.584,13.23,0,13.23,0h19.979v22.72v-0.063v43.055l97.133-27.817l26.813,1.849l163.95,23.178l62.647,0.476
		c0,0,26.67,2.322,31.957-15.354c4.49-14.969,12.791-42.896,12.791-42.896L723.564,300.16z"/>
	<path fill="#FFFFFF" d="M269.917,280.552c-0.184-0.162-0.376-0.322-0.591-0.484c-9.523-7.116-46.393-10.739-48.38-10.93
		l-13.961,3.796l-9.036-14.088c-0.36-0.552-0.814-1.042-1.358-1.447c-2.93-2.19-7.63-1.569-7.683-1.557
		c-0.399,0.032-37.759,3.48-60.496,5.396c-6.372,0.534-10.403,2.146-11.669,4.672c-1.883,3.756,2.405,9.246,4.219,11.042
		l7.532,7.005c0,0,28.707,26.712,33.007,30.72c4.167,3.914,16.639,5.404,16.75,5.418l62.354,5.195
		c1.895-1.506,16.401-12.953,25.89-20.313c4.736-3.67,7.688-7.72,8.531-11.709C275.982,288.725,274.217,284.328,269.917,280.552z"
		/>
	<path fill="none" d="M724.289,300.13v-51.365c0,0-13.252-23.031-28.608-32.603c-0.01-0.006-0.019-0.011-0.023-0.017
		c0.188,0.131,0.129,0.073,0.028-0.006c0.901,0.025,0.399,0.007,0.05-0.004c0.887,0.005-0.828-0.516-0.098-0.005
		c-0.142-0.101-0.289-0.204,0,0.003c-0.008,0-0.019-0.002-0.023-0.002c0.008,0.002,0.023,0.006,0.03,0.006
		c-0.214-0.01-0.159-0.01-0.03-0.006c-2.039-0.113-19.614-7.559-19.668-7.58v-0.002h-0.007l0,0l0,0l-60.622,0.049
		c-12.587-0.232-29.701-0.111-48.419,0.027l-67.795,0.037c-15.515-0.227-30.505-0.098-43.823,0h-27.542h-3.096
		c-57.382-1.014-113.136,0-113.136,0H135.642c0,0-31.901,3.584-58.369,31.158c-26.47,27.573-54.876,93.762-54.876,93.762
		s-2.443,10.779-2.074,30.191c0.379,19.406,1.756,39.385,1.756,39.385s-3.134,19.238,26.396,19.316
		c29.53,0.082,179.066-0.295,179.066-0.295s42.488-17.35,69.63-32.729c6.767-3.832,13.554-7.541,17.354-10.832l15.924-3.953
		l97.333-27.875l26.872,1.85l164.289,23.229l62.775,0.473c0,0,26.729,2.326,32.024-15.387c4.498-14.998,12.813-42.98,12.813-42.98
		L724.289,300.13z"/>
	<path fill="#CCCCCC" stroke="#FFFFFF" stroke-width="0.5" stroke-miterlimit="10" d="M722.956,300.128h-9.286h-0.003h-0.004H671.26
		v-7.062h32.467V254.87l-9.416,0.716v-33.089v-6.363c-0.213-0.01-0.158-0.01-0.029-0.006c-2.039-0.113-19.615-7.559-19.668-7.58
		l0.008,42.031l-7.399,6.162v6.461h-44.414v-6.861l-8.82-0.193v-47.553L575.2,225.392l-136.727-0.289l-12.066-16.443h-3.095
		c-57.383-1.014-113.137,0-113.137,0H295.87v100.176c1.128,0.564,13.229-0.014,13.229-0.014h20.02v22.701v0.063v43.08l97.333-27.875
		l26.872,1.85l164.289,23.229l62.775,0.473c0,0,26.729,2.326,32.024-15.387c4.498-14.998,12.814-42.982,12.814-42.982
		L722.956,300.128z"/>
	<path fill="#FFFFFF" d="M269.703,280.481c-0.183-0.164-0.376-0.324-0.592-0.488c-9.543-7.128-46.488-10.759-48.48-10.951
		l-13.989,3.805l-9.056-14.119c-0.359-0.552-0.814-1.042-1.359-1.447c-2.938-2.196-7.647-1.573-7.699-1.563
		c-0.4,0.033-37.838,3.488-60.622,5.408c-6.385,0.534-10.425,2.148-11.693,4.682c-1.886,3.764,2.41,9.264,4.228,11.064l7.548,7.02
		c0,0,28.766,26.768,33.075,30.781c4.177,3.923,16.673,5.416,16.785,5.431l62.482,5.205c1.898-1.509,16.437-12.979,25.943-20.354
		c4.746-3.68,7.702-7.737,8.548-11.735C275.781,288.669,274.012,284.265,269.703,280.481z"/>
</g>
<g id="rooms">
	<path id="r601" fill="#939598" stroke="#FFFFFF" stroke-width="0.5" stroke-miterlimit="10" d="M134.309,208.661
		c0,0-31.901,3.584-58.369,31.158c-26.47,27.573-54.876,93.762-54.876,93.762s-2.443,10.78-2.074,30.19
		c0.379,19.405,1.756,39.386,1.756,39.386s-3.134,19.236,26.396,19.318c29.53,0.08,179.066-0.297,179.066-0.297
		s42.488-17.35,69.63-32.729v-12.11c-0.675-21.059-0.717-68.973,0-68.518c0.009,0.005,0.022,0.009,0.031,0.014V208.661H134.309z
		 M274.821,293.22c-0.846,3.998-3.802,8.056-8.548,11.735c-9.507,7.375-24.045,18.845-25.943,20.354l-62.482-5.205
		c-0.112-0.015-12.608-1.508-16.785-5.431c-4.31-4.013-33.075-30.781-33.075-30.781l-7.548-7.02c-1.817-1.8-6.113-7.3-4.228-11.064
		c1.269-2.534,5.309-4.148,11.693-4.682c22.784-1.92,60.222-5.375,60.622-5.408c0.052-0.01,4.762-0.633,7.699,1.563
		c0.545,0.405,1,0.895,1.359,1.447l9.056,14.119l13.989-3.805c1.992,0.192,38.938,3.823,48.48,10.951
		c0.216,0.164,0.409,0.324,0.592,0.488C274.012,284.265,275.781,288.669,274.821,293.22z"/>
</g>
<g id="signs">
	<rect id="escalator" x="203.821" y="248.224" opacity="0.8" enable-background="new    " width="14.811" height="14.81"/>
	<rect id="toilet" x="624.234" y="217.916" opacity="0.8" enable-background="new    " width="14.812" height="14.81"/>
	<g id="lift">
		<rect id="lift-2" x="308.126" y="319.537" opacity="0.8" enable-background="new    " width="14.812" height="14.811"/>
		<rect id="lift-1" x="650.258" y="217.916" opacity="0.8" enable-background="new    " width="14.813" height="14.81"/>
	</g>
</g>
</svg>
