<?xml version="1.0" encoding="utf-8"?>
<!-- Generator: Adobe Illustrator 16.0.0, SVG Export Plug-In . SVG Version: 6.00 Build 0)  -->
<!DOCTYPE svg PUBLIC "-//W3C//DTD SVG 1.1//EN" "http://www.w3.org/Graphics/SVG/1.1/DTD/svg11.dtd">
<svg version="1.1" id="Layer_1" xmlns="http://www.w3.org/2000/svg" xmlns:xlink="http://www.w3.org/1999/xlink" x="0px" y="0px"
	 width="878.74px" height="595.281px" viewBox="0 0 878.74 595.281" enable-background="new 0 0 878.74 595.281"
	 xml:space="preserve">
<g id="background">
	<rect x="56.662" y="0" fill="#FFFFFF" width="878.74" height="595.281"/>
</g>
<g id="etc">
	<path fill="#EFEBDD" d="M137.527,208.148l-10.279,67.393l10.279,25.814v117.541h630.042V208.148H137.527z"/>
	<path fill="#C7DFF3" stroke="#FFFFFF" stroke-miterlimit="10" d="M140.551,273.204c-8.419-1.825-13.303,2.337-13.303,2.337
		l10.206,25.814h20.649V283.63C153.839,280.029,150.067,275.266,140.551,273.204z"/>
	<polygon fill="#C7DFF3" stroke="#FFFFFF" stroke-miterlimit="10" points="513.898,399.754 544.443,399.754 544.404,372.939 
		534.218,363.725 524.031,363.725 513.841,355.436 503.671,363.484 486.636,363.484 467.945,382.432 447.621,382.432 
		447.621,407.605 513.906,407.605 	"/>
	<polygon fill="#C7DFF3" stroke="#FFFFFF" stroke-miterlimit="10" points="486.636,363.484 422.228,363.484 401.89,363.484 
		401.89,407.605 447.621,407.605 447.621,382.432 467.945,382.432 	"/>
	<polygon fill="#C7DFF3" stroke="#FFFFFF" stroke-miterlimit="10" points="646.138,280.272 646.13,271.884 615.076,271.884 
		615.167,254.531 595.199,254.322 595.183,236.341 534.099,236.341 534.148,259.455 299.94,259.455 299.947,268.598 
		330.496,268.598 330.499,277.406 340.686,277.406 340.693,286.056 361.072,303.458 330.557,328.922 320.365,319.945 
		259.38,319.945 218.521,283.63 158.103,283.63 158.103,301.355 158.103,301.355 158.103,370.455 218.603,370.455 218.627,388.025 
		238.985,388.025 239.006,405.715 361.177,405.715 361.164,389.406 340.801,389.195 340.766,354.92 361.135,354.92 361.115,337.941 
		381.472,337.941 381.479,346.857 422.212,346.857 422.228,363.484 486.636,363.484 574.859,280.272 	"/>
	<polygon fill="#C7DFF3" stroke="#FFFFFF" stroke-miterlimit="10" points="218.627,388.025 218.603,370.455 158.103,370.455 
		158.103,361.6 138.327,361.641 138.327,413.721 259.271,413.721 259.262,405.715 239.006,405.715 238.985,388.025 	"/>
	<polygon fill="#C7DFF3" stroke="#FFFFFF" stroke-miterlimit="10" points="768.121,208.148 258.739,208.148 258.739,251.052 
		269.002,259.455 534.148,259.455 534.099,236.341 595.183,236.341 595.199,254.322 615.167,254.531 615.15,236.341 
		686.308,236.341 686.339,264.085 665.99,264.085 665.99,306.955 624.476,318.184 613.636,345.648 701.888,345.648 701.888,387.912 
		596.964,387.912 585.26,418.896 768.121,418.896 	"/>
	<path fill="#C7DFF3" stroke="#FFFFFF" stroke-miterlimit="10" d="M282.275,280.046l9.977,29.794c0,0-29.046,3.705-31.188-9.877
		C258.917,286.379,282.275,280.046,282.275,280.046z"/>
	<rect x="618.851" y="346.885" fill="#CDCCCC" width="1.742" height="39.722"/>
	<rect x="621.912" y="346.885" fill="#CDCCCC" width="1.744" height="39.722"/>
	<rect x="624.974" y="346.885" fill="#CDCCCC" width="1.74" height="39.722"/>
	<rect x="628.035" y="346.885" fill="#CDCCCC" width="1.744" height="39.722"/>
	<rect x="653.806" y="346.885" fill="#CDCCCC" width="1.742" height="39.722"/>
	<rect x="656.865" y="346.885" fill="#CDCCCC" width="1.748" height="39.722"/>
	<rect x="659.929" y="346.885" fill="#CDCCCC" width="1.744" height="39.722"/>
	<rect x="662.994" y="346.885" fill="#CDCCCC" width="1.74" height="39.722"/>
	<g>
		<rect x="689.751" y="346.885" fill="#CDCCCC" width="1.744" height="39.722"/>
		<rect x="692.814" y="346.885" fill="#CDCCCC" width="1.739" height="39.722"/>
		<rect x="695.876" y="346.885" fill="#CDCCCC" width="1.743" height="39.722"/>
		<rect x="698.939" y="346.885" fill="#CDCCCC" width="1.739" height="39.722"/>
	</g>
	<path fill="#999999" d="M175.304,266.777c0,3.203-2.598,5.793-5.793,5.793c-3.2,0-5.797-2.59-5.797-5.793
		c0-3.198,2.597-5.793,5.797-5.793C172.708,260.984,175.304,263.579,175.304,266.777z"/>
	<path fill="#999999" d="M253.546,242.134c0,3.198-2.593,5.792-5.793,5.792c-3.198,0-5.795-2.595-5.795-5.792
		c0-3.202,2.597-5.793,5.795-5.793C250.954,236.341,253.546,238.932,253.546,242.134z"/>
	<circle fill="#999999" cx="224.998" cy="225.103" r="5.794"/>
	<circle fill="#999999" cx="198.488" cy="225.103" r="5.794"/>
	<path fill="#999999" d="M179.596,216.252c0,3.198-2.597,5.793-5.792,5.793c-3.203,0-5.798-2.595-5.798-5.793
		c0-3.199,2.595-5.793,5.798-5.793C177.001,210.459,179.596,213.052,179.596,216.252z"/>
	<circle fill="#999999" cx="149.116" cy="225.103" r="5.794"/>
	<circle fill="#999999" cx="199.781" cy="268.863" r="5.794"/>
	<path fill="#999999" d="M235.847,274.659c0,3.198-2.597,5.792-5.798,5.792c-3.198,0-5.792-2.595-5.792-5.792
		c0-3.203,2.594-5.796,5.792-5.796C233.252,268.863,235.847,271.456,235.847,274.659z"/>
	<circle fill="#999999" cx="525.479" cy="341.092" r="5.793"/>
	<polygon fill="#CCCCCC" stroke="#FFFFFF" stroke-width="0.5" stroke-miterlimit="10" points="768.376,208.148 258.791,208.148 
		258.791,251.067 269.059,259.473 534.308,259.473 534.261,236.351 595.367,236.351 595.385,254.339 615.359,254.549 
		615.345,236.351 686.529,236.351 686.558,264.108 666.203,264.108 666.203,306.994 624.673,318.223 613.83,345.703 
		702.115,345.703 702.115,387.977 597.148,387.977 585.443,418.979 768.376,418.979 	"/>
	<rect x="619.048" y="346.938" fill="#666666" width="1.74" height="39.731"/>
	<rect x="622.107" y="346.938" fill="#666666" width="1.741" height="39.731"/>
	<rect x="625.173" y="346.938" fill="#666666" width="1.738" height="39.731"/>
	<rect x="628.234" y="346.938" fill="#666666" width="1.739" height="39.731"/>
	<rect x="654.013" y="346.938" fill="#666666" width="1.746" height="39.731"/>
	<rect x="657.076" y="346.938" fill="#666666" width="1.746" height="39.731"/>
	<rect x="660.14" y="346.938" fill="#666666" width="1.744" height="39.731"/>
	<rect x="663.205" y="346.938" fill="#666666" width="1.742" height="39.731"/>
	<rect x="689.974" y="346.938" fill="#666666" width="1.746" height="39.731"/>
	<rect x="693.039" y="346.938" fill="#666666" width="1.742" height="39.731"/>
	<rect x="696.099" y="346.938" fill="#666666" width="1.746" height="39.731"/>
	<rect x="699.164" y="346.938" fill="#666666" width="1.746" height="39.731"/>
	<path fill="#CCCCCC" stroke="#FFFFFF" stroke-miterlimit="10" d="M140.557,273.228c-8.425-1.824-13.311,2.34-13.311,2.34
		l10.211,25.818h20.657v-17.728C153.852,280.056,150.077,275.292,140.557,273.228z"/>
	<polygon fill="#CCCCCC" stroke="#FFFFFF" stroke-miterlimit="10" points="218.663,388.094 218.64,370.516 158.116,370.516 
		158.116,361.66 138.333,361.699 138.333,413.801 259.324,413.801 259.314,405.792 239.05,405.792 239.029,388.094 	"/>
</g>
<g id="rooms">
	<polygon id="lg04" fill="#939598" stroke="#FFFFFF" stroke-width="0.5" stroke-miterlimit="10" points="514.052,399.824 
		544.609,399.824 544.57,373.004 534.38,363.783 524.188,363.783 513.994,355.488 503.82,363.541 486.779,363.541 468.082,382.498 
		447.749,382.498 447.749,407.684 514.058,407.684 	"/>
	<polygon id="lg03" fill="#939598" stroke="#FFFFFF" stroke-width="0.5" stroke-miterlimit="10" points="486.779,363.541 
		422.345,363.541 401.998,363.541 401.998,407.684 447.749,407.684 447.749,382.498 468.082,382.498 	"/>
	<polygon id="lg01b" fill="#939598" stroke="#FFFFFF" stroke-width="0.5" stroke-miterlimit="10" points="300.01,259.473 
		300.01,267.807 330.577,267.807 330.577,277.431 340.77,277.431 340.77,286.085 361.164,303.492 551.174,303.492 575.037,280.299 
		646.345,280.299 646.332,271.907 615.269,271.907 615.269,254.549 595.385,254.549 595.385,236.351 534.261,236.351 
		534.261,259.473 	"/>
	<polygon id="lg01" fill="#939598" stroke="#FFFFFF" stroke-width="0.5" stroke-miterlimit="10" points="361.164,303.492 
		551.174,303.492 486.779,363.541 422.345,363.541 422.345,346.91 381.58,346.91 381.58,337.992 361.208,337.992 361.208,354.977 
		340.85,354.977 340.85,389.26 361.258,389.26 361.258,405.792 239.05,405.792 239.05,388.094 218.626,388.094 218.626,370.516 
		158.116,370.516 158.116,283.659 218.204,283.659 259.432,319.986 320.441,319.986 330.637,328.969 	"/>
	<path id="lg05" fill="#939598" stroke="#FFFFFF" stroke-width="0.5" stroke-miterlimit="10" d="M282.336,280.071l9.981,29.808
		c0,0-29.06,3.707-31.203-9.882C258.969,286.41,282.336,280.071,282.336,280.071z"/>
</g>
<g id="signs">
	<g id="escalator">
		<rect id="escalator-2" x="305.212" y="287.801" opacity="0.8" enable-background="new    " width="14.813" height="14.812"/>
		<rect id="escalator-1" x="635.694" y="288.508" opacity="0.8" enable-background="new    " width="14.813" height="14.812"/>
	</g>
	<g id="lift">
		<rect id="elevator-2" x="365.212" y="390.98" opacity="0.8" enable-background="new    " width="14.813" height="14.813"/>
		<rect id="elevator-1" x="654.48" y="240.535" opacity="0.8" enable-background="new    " width="14.811" height="14.812"/>
	</g>
	
		<rect id="driver-waiting-room" x="138.333" y="282.396" opacity="0.8" enable-background="new    " width="14.813" height="14.811"/>
	<rect id="valet-parking" x="162.103" y="288.508" opacity="0.8" enable-background="new    " width="14.813" height="14.81"/>
</g>
</svg>
