<?xml version="1.0" encoding="utf-8"?>
<!-- Generator: Adobe Illustrator 16.0.0, SVG Export Plug-In . SVG Version: 6.00 Build 0)  -->
<!DOCTYPE svg PUBLIC "-//W3C//DTD SVG 1.1//EN" "http://www.w3.org/Graphics/SVG/1.1/DTD/svg11.dtd">
<svg version="1.1" id="Layer_1" xmlns="http://www.w3.org/2000/svg" xmlns:xlink="http://www.w3.org/1999/xlink" x="0px" y="0px"
	 width="878.74px" height="595.281px" viewBox="0 0 878.74 595.281" enable-background="new 0 0 878.74 595.281"
	 xml:space="preserve">
<g id="background">
	<rect y="-2.92" fill="#FFFFFF" width="878.74" height="595.281"/>
</g>
<g id="etc">
	<path fill="#EEEADB" d="M722.564,300.16v-51.257c0,0-13.228-22.984-28.554-32.535c-0.01-0.006-0.019-0.011-0.022-0.018
		c0.188,0.13,0.129,0.073,0.028-0.006c0.898,0.025,0.398,0.007,0.05-0.005c0.885,0.006-0.826-0.513-0.099-0.004
		c-0.142-0.1-0.287-0.203,0,0.002c-0.008,0-0.019,0-0.021,0c0.006,0,0.021,0.007,0.026,0.007c-0.211-0.011-0.157-0.011-0.026-0.007
		c-2.034-0.112-19.575-7.543-19.629-7.564v-0.002h-0.006l0,0l0,0l-60.503,0.049c-12.557-0.231-29.637-0.112-48.313,0.028
		l-67.653,0.037c-15.479-0.228-30.438-0.1-43.729,0h-27.486h-3.087c-57.265-1.014-112.902,0-112.902,0H135.131
		c0,0-31.835,3.576-58.249,31.093c-26.416,27.518-54.764,93.566-54.764,93.566s-2.438,10.763-2.069,30.131
		c0.377,19.367,1.753,39.304,1.753,39.304s-3.128,19.202,26.341,19.28c29.47,0.084,178.697-0.291,178.697-0.291
		s42.401-17.315,69.487-32.663c6.75-3.824,13.523-7.527,17.314-10.813l15.895-3.942l97.133-27.819l26.813,1.849l163.948,23.179
		l62.647,0.478c0,0,26.67,2.322,31.957-15.354c4.49-14.97,12.791-42.897,12.791-42.897L722.564,300.16z"/>
	<path fill="#C7DFF3" stroke="#FFFFFF" stroke-miterlimit="10" d="M722.564,300.16h-9.271h-0.004h-0.003h-42.315v-7.042h32.397V255
		l-9.396,0.713v-33.021v-6.351c-0.211-0.01-0.158-0.01-0.026-0.006c-2.035-0.112-19.576-7.543-19.629-7.564l0.008,41.945
		l-7.386,6.148v6.449h-44.321v-6.848l-8.81-0.194v-47.454l-38.701,16.764l-136.442-0.292l-12.044-16.407h-3.086
		c-57.266-1.013-112.902,0-112.902,0H135.131c0,0-31.835,3.577-58.249,31.094c-26.416,27.518-54.764,93.565-54.764,93.565
		s-2.438,10.763-2.069,30.132c0.377,19.366,1.753,39.304,1.753,39.304s-3.128,19.202,26.341,19.28
		c29.47,0.084,178.697-0.291,178.697-0.291s42.401-17.315,69.487-32.664v-12.088c-0.675-21.015-0.716-68.828,0-68.375
		c0.954,0.584,13.23,0,13.23,0h19.979v22.72v-0.063v43.056l97.133-27.817l26.813,1.849l163.949,23.179l62.647,0.476
		c0,0,26.67,2.322,31.957-15.354c4.49-14.97,12.791-42.896,12.791-42.896L722.564,300.16z"/>
	<path fill="none" d="M723.289,300.131v-51.365c0,0-13.252-23.031-28.608-32.604c-0.01-0.006-0.019-0.011-0.022-0.017
		c0.188,0.131,0.129,0.073,0.027-0.006c0.901,0.024,0.399,0.007,0.051-0.004c0.887,0.005-0.828-0.517-0.099-0.006
		c-0.142-0.101-0.289-0.203,0,0.003c-0.008,0-0.019-0.002-0.022-0.002c0.008,0.002,0.022,0.007,0.029,0.007
		c-0.214-0.011-0.158-0.011-0.029-0.007c-2.039-0.112-19.614-7.559-19.668-7.579v-0.003h-0.007l0,0l0,0l-60.622,0.05
		c-12.587-0.232-29.701-0.111-48.419,0.026l-67.796,0.037c-15.515-0.227-30.505-0.098-43.822,0h-27.542h-3.097
		c-57.381-1.014-113.136,0-113.136,0H134.642c0,0-31.901,3.584-58.369,31.158c-26.47,27.573-54.876,93.762-54.876,93.762
		s-2.443,10.779-2.074,30.191c0.379,19.406,1.756,39.385,1.756,39.385s-3.134,19.238,26.396,19.316
		c29.53,0.082,179.066-0.295,179.066-0.295s42.488-17.351,69.63-32.729c6.767-3.832,13.554-7.541,17.354-10.832l15.924-3.953
		l97.333-27.875l26.872,1.851l164.289,23.229l62.774,0.474c0,0,26.729,2.326,32.024-15.388
		c4.498-14.997,12.813-42.979,12.813-42.979L723.289,300.131z"/>
	<path fill="#FFFFFF" d="M268.703,280.481c-0.183-0.164-0.376-0.324-0.592-0.488c-9.543-7.128-46.488-10.759-48.48-10.951
		l-13.989,3.806l-9.056-14.119c-0.359-0.553-0.814-1.042-1.359-1.447c-2.938-2.196-7.647-1.573-7.699-1.563
		c-0.4,0.032-37.838,3.487-60.622,5.407c-6.385,0.534-10.425,2.148-11.693,4.683c-1.886,3.764,2.41,9.264,4.228,11.063l7.548,7.021
		c0,0,28.766,26.768,33.075,30.781c4.177,3.923,16.673,5.416,16.785,5.431l62.482,5.205c1.898-1.509,16.437-12.979,25.943-20.354
		c4.746-3.68,7.702-7.737,8.548-11.734C274.781,288.669,273.012,284.265,268.703,280.481z"/>
	<path fill="#FFFFFF" d="M597.766,302.718c-3.832,0.033-70.545,0.701-75.256,0.754c-10.742,0.098-10.818,0.278-0.018-9.203
		c5.33-4.672,21.441-18.608,21.441-18.608c5.909-5.125,14.897-4.217,26.929-4.754l37.562-0.231
		c6.771,0.079,10.749,0.17,10.768,4.248c0.014,4.074,1.254,12.346-4.118,18.429C609.704,299.442,601.599,302.686,597.766,302.718"/>
	<path fill="#FFFFFF" d="M268.917,280.552c-0.184-0.162-0.376-0.322-0.591-0.484c-9.523-7.116-46.393-10.739-48.38-10.93
		l-13.961,3.796l-9.036-14.088c-0.36-0.553-0.814-1.042-1.358-1.447c-2.93-2.19-7.63-1.569-7.683-1.558
		c-0.399,0.032-37.759,3.48-60.496,5.396c-6.372,0.534-10.403,2.146-11.669,4.672c-1.883,3.756,2.405,9.246,4.219,11.042
		l7.532,7.005c0,0,28.707,26.713,33.007,30.721c4.167,3.914,16.639,5.403,16.75,5.418l62.354,5.194
		c1.895-1.506,16.401-12.952,25.89-20.313c4.736-3.67,7.688-7.721,8.531-11.709C274.982,288.725,273.217,284.328,268.917,280.552z"
		/>
</g>
<g id="rooms">
	<g id="r602">
		<path id="r602" fill="#939598" stroke="#FFFFFF" stroke-width="0.5" stroke-miterlimit="10" d="M722.956,300.129h-9.286h-0.003
			h-0.004H671.26v-7.063h32.467V254.87l-9.416,0.716v-33.089v-6.363c-0.213-0.01-0.157-0.01-0.028-0.006
			c-2.039-0.112-19.615-7.559-19.668-7.58l0.008,42.031l-7.399,6.162v6.461h-44.414v-6.861l-8.819-0.192v-47.553L575.2,225.392
			l-136.728-0.289l-12.065-16.443h-3.095c-57.383-1.014-113.138,0-113.138,0H295.87v100.177c1.128,0.563,13.229-0.015,13.229-0.015
			h20.02v22.701v0.063v43.079l97.333-27.875l26.872,1.851l164.289,23.229l62.774,0.474c0,0,26.729,2.325,32.024-15.388
			c4.498-14.998,12.814-42.981,12.814-42.981L722.956,300.129z"/>
		<polygon id="r602" fill="#939598" stroke="#FFFFFF" stroke-width="0.5" stroke-miterlimit="10" points="328.119,308.822 
			328.119,374.666 425.452,346.791 425.452,308.822 328.119,308.822 		"/>
	</g>
	<path id="r601" fill="#939598" stroke="#FFFFFF" stroke-width="0.5" stroke-miterlimit="10" d="M134.309,208.661
		c0,0-31.901,3.584-58.369,31.158c-26.47,27.573-54.876,93.762-54.876,93.762s-2.443,10.78-2.074,30.19
		c0.379,19.405,1.756,39.386,1.756,39.386s-3.134,19.236,26.396,19.318c29.53,0.08,179.066-0.297,179.066-0.297
		s42.488-17.351,69.63-32.729V377.34c-0.675-21.06-0.717-68.974,0-68.519c0.009,0.005,0.022,0.009,0.031,0.015V208.661H134.309z
		 M274.821,293.22c-0.846,3.997-3.802,8.056-8.548,11.734c-9.507,7.375-24.045,18.846-25.943,20.354l-62.482-5.205
		c-0.112-0.015-12.608-1.508-16.785-5.431c-4.31-4.014-33.075-30.781-33.075-30.781l-7.548-7.021c-1.817-1.8-6.113-7.3-4.228-11.063
		c1.269-2.534,5.309-4.148,11.693-4.683c22.784-1.92,60.222-5.375,60.622-5.407c0.052-0.011,4.762-0.634,7.699,1.563
		c0.545,0.405,1,0.895,1.359,1.447l9.056,14.119l13.989-3.806c1.992,0.192,38.938,3.823,48.48,10.951
		c0.216,0.164,0.409,0.324,0.592,0.488C274.012,284.265,275.781,288.669,274.821,293.22z"/>
	
		<rect id="r60h1" x="251.869" y="233.528" fill="#939598" stroke="#FFFFFF" stroke-width="0.5" stroke-miterlimit="10" width="44" height="27.946"/>
	
		<rect id="r60h2" x="310.537" y="236.528" fill="#939598" stroke="#FFFFFF" stroke-width="0.5" stroke-miterlimit="10" width="50.667" height="24.279"/>
	
		<rect id="r60h3" x="361.203" y="236.528" fill="#939598" stroke="#FFFFFF" stroke-width="0.5" stroke-miterlimit="10" width="66.583" height="24.279"/>
	
		<rect id="r60h4" x="427.786" y="236.528" fill="#939598" stroke="#FFFFFF" stroke-width="0.5" stroke-miterlimit="10" width="78.463" height="24.279"/>
	
		<rect id="r60h5" x="506.249" y="236.528" fill="#939598" stroke="#FFFFFF" stroke-width="0.5" stroke-miterlimit="10" width="107.74" height="24.279"/>
	
		<rect id="r60h10" x="372.416" y="308.89" fill="#939598" stroke="#FFFFFF" stroke-width="0.5" stroke-miterlimit="10" width="30.955" height="18.125"/>
	<path id="r60h7" fill="#939598" stroke="#FFFFFF" stroke-width="0.5" stroke-miterlimit="10" d="M382.537,283.141
		c0,4.971-4.029,9-9,9h-19c-4.971,0-9-4.029-9-9v-5.333c0-4.971,4.029-9,9-9h19c4.971,0,9,4.029,9,9V283.141z"/>
	
		<rect id="r60h13" x="642.87" y="284.299" fill="#939598" stroke="#FFFFFF" stroke-width="0.5" stroke-miterlimit="10" width="20.842" height="20.843"/>
	<path id="r60h14" fill="#939598" stroke="#FFFFFF" stroke-width="0.5" stroke-miterlimit="10" d="M678.004,347.712
		c0,3.212-2.328,5.815-5.2,5.815h-10.401c-2.872,0-5.201-2.604-5.201-5.815v-5.814c0-3.212,2.329-5.814,5.201-5.814h10.401
		c2.872,0,5.2,2.603,5.2,5.814V347.712z"/>
	<path id="r60h11" fill="#939598" stroke="#FFFFFF" stroke-width="0.5" stroke-miterlimit="10" d="M605.989,333.711
		c0,3.212-2.328,5.815-5.2,5.815h-10.401c-2.872,0-5.201-2.604-5.201-5.815v-5.814c0-3.212,2.329-5.814,5.201-5.814h10.401
		c2.872,0,5.2,2.603,5.2,5.814V333.711z"/>
	<path id="r60h12" fill="#939598" stroke="#FFFFFF" stroke-width="0.5" stroke-miterlimit="10" d="M633.792,328.711
		c0,3.212-2.328,5.815-5.2,5.815H618.19c-2.872,0-5.201-2.604-5.201-5.815v-5.814c0-3.212,2.329-5.814,5.201-5.814h10.401
		c2.872,0,5.2,2.603,5.2,5.814V328.711z"/>
	<path id="r60h8" fill="#939598" stroke="#FFFFFF" stroke-width="0.5" stroke-miterlimit="10" d="M466.81,305.851
		c0,4.236-3.071,7.671-6.859,7.671h-13.72c-3.788,0-6.86-3.435-6.86-7.671v-7.669c0-4.237,3.072-7.67,6.86-7.67h13.72
		c3.788,0,6.859,3.433,6.859,7.67V305.851z"/>
	<path id="r60h9" fill="#939598" stroke="#FFFFFF" stroke-width="0.5" stroke-miterlimit="10" d="M503.482,293.257
		c0,4.236-3.071,7.671-6.859,7.671h-13.72c-3.788,0-6.86-3.435-6.86-7.671v-7.67c0-4.236,3.072-7.669,6.86-7.669h13.72
		c3.788,0,6.859,3.433,6.859,7.669V293.257z"/>
	<path id="r60h15" fill="#939598" stroke="#FFFFFF" stroke-width="0.5" stroke-miterlimit="10" d="M703.429,356.434
		c0,3.212-2.328,5.814-5.2,5.814h-10.401c-2.872,0-5.201-2.603-5.201-5.814v-5.814c0-3.212,2.329-5.815,5.201-5.815h10.401
		c2.872,0,5.2,2.604,5.2,5.815V356.434z"/>
	<path id="r60h6" fill="#939598" stroke="#FFFFFF" stroke-width="0.5" stroke-miterlimit="10" d="M674.287,208.435v42.313
		l-7.348,6.117v6.337h56.35v-14.437c0,0-11.071-22.235-28.553-32.63C685.495,210.64,674.287,208.435,674.287,208.435z"/>
</g>
<g id="signs">
	<g id="toilet">
		<rect id="toilet-2" x="624.234" y="217.916" opacity="0.8" enable-background="new    " width="14.812" height="14.811"/>
		<rect id="toilet-1" x="304.234" y="217.916" opacity="0.8" enable-background="new    " width="14.812" height="14.811"/>
	</g>
	<g id="lift">
		<rect id="lift-2" x="307.568" y="348.276" opacity="0.8" enable-background="new    " width="14.812" height="14.812"/>
		<rect id="lift-1" x="652.87" y="217.916" opacity="0.8" enable-background="new    " width="15.667" height="14.811"/>
	</g>
	<g id="atm">
		<rect id="atm-2" x="300.162" y="319.609" opacity="0.8" enable-background="new    " width="14.812" height="14.812"/>
		<rect id="atm-1" x="624.234" y="238.319" opacity="0.8" enable-background="new    " width="14.812" height="14.812"/>
	</g>
	<g id="escalator">
		<rect id="escalator-2" x="203.821" y="248.224" opacity="0.8" enable-background="new    " width="14.811" height="14.81"/>
		<rect id="escalator-1" x="559.468" y="279.679" opacity="0.8" enable-background="new    " width="14.811" height="14.81"/>
	</g>
</g>
</svg>
