<?xml version="1.0" encoding="utf-8"?>
<!-- Generator: Adobe Illustrator 16.0.0, SVG Export Plug-In . SVG Version: 6.00 Build 0)  -->
<!DOCTYPE svg PUBLIC "-//W3C//DTD SVG 1.1//EN" "http://www.w3.org/Graphics/SVG/1.1/DTD/svg11.dtd">
<svg version="1.1" id="Layer_1" xmlns="http://www.w3.org/2000/svg" xmlns:xlink="http://www.w3.org/1999/xlink" x="0px" y="0px"
	 width="878.74px" height="595.281px" viewBox="0 0 878.74 595.281" enable-background="new 0 0 878.74 595.281"
	 xml:space="preserve">
<g id="background">
	<rect x="0.5" fill="#FFFFFF" width="878.74" height="595.281"/>
</g>
<g id="etc">
	<path fill="#EFEBDD" d="M765.872,180.723l-618.076,1.107c-13.625,0.058-19.758,2.177-24.8,10.045
		c-2.001,3.125-3.834,7.127-5.891,12.306c-4.208,10.609-9.024,22.154-12.685,30.805c-3.384,7.999-5.776,13.524-5.776,13.524h3.64
		l-1.745,10.779l-14.88,37.187l-6.136-0.337l-12.209,29.515c0,0-9.855,19.797-6.064,30.766
		c1.735,13.354,23.759,13.037,23.759,13.037s62.313-0.006,85.112,0c3.002,0,5.352,0,6.748,0c4.79,0.01,11.188-2.855,17.427-6.531
		c3.531,4.805,7.565,10.947,10.855,16.123c-1.106,0.336-1.691,0.512-1.691,0.512c-13.045-0.129-22.355,33.822,0.651,33.732
		c15.202-0.063,104.256,0,104.256,0h64.962h65.25h123.713c0,0,10.155-2.721,15.312-7.127c6.68-5.697-7.081-17.791-7.081-17.791
		l-52.089-41.744c8.439-9.391,27.176-28.264,38.373-24.523c17.744,5.912,54.658,16.41,91.066,26.479l-0.563,0.496
		c50.012,13.959,79.13,23.76,96.375,25.487c0.322,0.089,0.503,0.136,0.503,0.136s0.048-0.06,0.062-0.072
		c7.869,0.72,13.213-0.303,16.912-3.463c2.908-2.481,8.533-9.297,8.533-9.297l50.479-49.146l26.189-50.151l18.758-46.962
		L765.872,180.723z"/>
	<path fill="#C7DFF3" stroke="#FFFFFF" stroke-miterlimit="10" d="M570.519,388.375l-53.355-42.76H438.58l0,0l0,0v33.756v33.922
		h123.712c0,0,10.156-2.721,15.313-7.127C584.279,400.468,570.519,388.375,570.519,388.375z"/>
	<polygon fill="#C7DFF3" stroke="#FFFFFF" stroke-miterlimit="10" points="608.361,180.458 608.361,224.647 661.292,224.647 
		661.292,214.282 647.945,214.34 647.761,180.458 		"/>
	<polygon fill="#C7DFF3" stroke="#FFFFFF" stroke-miterlimit="10" points="568.902,224.647 568.902,224.647 608.361,224.647 
		608.361,180.458 608.361,180.458 568.902,180.458 568.902,182.771 		"/>
	<path fill="#C7DFF3" stroke="#FFFFFF" stroke-miterlimit="10" d="M608.361,180.458L608.361,180.458L608.361,180.458z"/>
	<polygon fill="#C7DFF3" stroke="#FFFFFF" stroke-miterlimit="10" points="532.251,224.647 541.167,224.647 568.902,224.647 
		568.902,182.771 568.902,180.458 516.683,180.458 516.683,224.647 		"/>
	<path fill="#C7DFF3" stroke="#FFFFFF" stroke-miterlimit="10" d="M568.902,224.647v-41.876V224.647z"/>
	<rect x="499.974" y="180.458" fill="#C7DFF3" stroke="#FFFFFF" stroke-miterlimit="10" width="16.709" height="44.19"/>
	<rect x="516.683" y="180.458" fill="#C7DFF3" stroke="#FFFFFF" stroke-miterlimit="10" width="0" height="44.19"/>
	<polygon fill="#C7DFF3" stroke="#FFFFFF" stroke-miterlimit="10" points="467.88,224.647 499.974,224.647 499.974,180.458 
		467.88,180.458 467.88,180.458 467.88,180.458 		"/>
	<rect x="499.974" y="180.458" fill="#C7DFF3" stroke="#FFFFFF" stroke-miterlimit="10" width="0" height="44.19"/>
	<polygon fill="#C7DFF3" stroke="#FFFFFF" stroke-miterlimit="10" points="436.041,224.647 436.041,224.647 467.88,224.647 
		467.88,224.647 467.88,224.647 467.88,180.458 436.041,180.458 		"/>
	<rect x="467.88" y="180.458" fill="#C7DFF3" stroke="#FFFFFF" stroke-miterlimit="10" width="0" height="44.19"/>
	<polygon fill="#C7DFF3" stroke="#FFFFFF" stroke-miterlimit="10" points="404.254,224.647 436.041,224.647 436.041,180.458 
		436.041,180.458 436.041,180.458 404.254,180.458 404.254,180.458 404.254,180.458 		"/>
	<rect x="436.041" y="180.458" fill="#C7DFF3" stroke="#FFFFFF" stroke-miterlimit="10" width="0" height="44.19"/>
	<polygon fill="#C7DFF3" stroke="#FFFFFF" stroke-miterlimit="10" points="509.005,271.9 509.005,297.417 527.679,297.411 
		527.679,271.885 		"/>
	<polygon fill="#C7DFF3" stroke="#FFFFFF" stroke-miterlimit="10" points="373.329,345.615 373.329,352.572 379.705,352.572 
		379.705,367.125 373.329,367.125 373.329,388.699 373.329,388.699 373.329,402.148 373.329,413.292 438.579,413.292 
		438.579,379.371 438.579,345.615 		"/>
	<path fill="#C7DFF3" stroke="#FFFFFF" stroke-miterlimit="10" d="M438.579,345.615v33.756V345.615z"/>
	<polygon fill="#C7DFF3" stroke="#FFFFFF" stroke-miterlimit="10" points="820.173,312.725 846.363,262.573 865.121,215.611 
		770.329,180.458 736.559,180.776 778.83,205.663 761.675,273.679 703.439,299.775 723.939,307.537 745.193,301.721 
		745.193,301.721 769.691,361.873 		"/>
	<path fill="#C7DFF3" stroke="#FFFFFF" stroke-miterlimit="10" d="M723.939,307.537l-20.5-7.762l0,0l0,0l-56.133,49.307
		c73.707,20.576,102.07,32.141,113.852,22.088c2.908-2.482,8.533-9.297,8.533-9.297l-24.498-60.15l0,0L723.939,307.537z"/>
	<polygon fill="#C7DFF3" stroke="#FFFFFF" stroke-miterlimit="10" points="723.939,307.537 703.439,299.775 703.439,299.775 
		723.939,307.537 745.193,301.721 745.193,301.721 745.193,301.721 		"/>
	<polygon fill="#C7DFF3" stroke="#FFFFFF" stroke-miterlimit="10" points="332.524,225.822 332.524,203.635 292.886,203.635 
		292.902,225.822 		"/>
	<rect x="240.251" y="181.83" fill="#C7DFF3" stroke="#FFFFFF" stroke-miterlimit="10" width="22.328" height="43.992"/>
	<polygon fill="#C7DFF3" stroke="#FFFFFF" stroke-miterlimit="10" points="292.886,203.635 279.551,203.635 279.551,181.83 
		262.579,181.83 262.579,225.822 292.902,225.822 		"/>
	<polygon fill="#C7DFF3" stroke="#FFFFFF" stroke-miterlimit="10" points="292.902,225.822 292.886,203.635 292.886,203.635 		"/>
	<polygon fill="#C7DFF3" stroke="#FFFFFF" stroke-miterlimit="10" points="349.728,224.647 404.254,224.647 404.254,224.647 
		404.254,224.647 404.254,180.458 391.195,180.458 391.195,203.635 349.728,203.635 		"/>
	<rect x="404.254" y="180.458" fill="#C7DFF3" stroke="#FFFFFF" stroke-miterlimit="10" width="0" height="44.19"/>
	<polygon fill="#C7DFF3" stroke="#FFFFFF" stroke-miterlimit="10" points="165.209,181.83 174.813,225.822 174.818,225.822 
		203.405,225.822 203.405,181.83 		"/>
	<rect x="203.405" y="181.83" fill="#C7DFF3" stroke="#FFFFFF" stroke-miterlimit="10" width="36.846" height="43.992"/>
	<path fill="#C7DFF3" stroke="#FFFFFF" stroke-miterlimit="10" d="M174.813,225.822l-9.604-43.992h-17.414
		c-13.625,0.058-19.758,2.177-24.8,10.045l42.572,35.798c5.035-1.724,9.25-1.852,9.25-1.852h-0.004V225.822L174.813,225.822z"/>
	<path fill="#C7DFF3" stroke="#FFFFFF" stroke-miterlimit="10" d="M117.105,204.181c-4.208,10.609-9.024,22.154-12.685,30.805
		h49.792c0.679-0.79,1.434-1.565,2.298-2.304c2.842-2.425,6.092-3.992,9.057-5.008l-42.572-35.798
		C120.995,195,119.161,199.002,117.105,204.181z"/>
	<path fill="#C7DFF3" stroke="#FFFFFF" stroke-miterlimit="10" d="M98.644,248.511h50.214c0,0,0-7.303,5.354-13.524H104.42
		C101.038,242.985,98.644,248.511,98.644,248.511z"/>
	<polygon fill="#C7DFF3" stroke="#FFFFFF" stroke-miterlimit="10" points="174.813,225.822 165.209,181.83 165.209,181.83 		"/>
	<path fill="#C7DFF3" stroke="#FFFFFF" stroke-miterlimit="10" d="M162.95,303.253c-13.221,0.013-13.389-11.014-13.389-11.014
		l-0.533-32.949h-48.49l-14.88,37.187l-6.136-0.337l-12.209,29.514c0,0-9.855,19.799-6.064,30.768
		c1.735,13.354,23.759,13.037,23.759,13.037s62.313-0.006,85.112,0V303.26C166.504,303.253,163.92,303.253,162.95,303.253z"/>
	<path fill="#C7DFF3" stroke="#FFFFFF" stroke-miterlimit="10" d="M228.472,303.117c-8.271,0.174-42.841,0.154-58.353,0.141v66.199
		c3.002,0,5.352,0,6.748,0c13.396,0.02,39.359-22.369,39.359-22.369l25.946-22.154C261.648,308.314,238.672,302.9,228.472,303.117z
		"/>
	<path fill="#C7DFF3" stroke="#FFFFFF" stroke-miterlimit="10" d="M342.465,388.699v-32.727h16.889v-10.357H308.37l0,0
		c0.533-0.184-0.537,0.182,0,0v67.678h64.962v-11.145v-13.449H342.465L342.465,388.699z"/>
	<path fill="#C7DFF3" stroke="#FFFFFF" stroke-miterlimit="10" d="M373.329,388.699v13.449V388.699z"/>
	<path fill="#C7DFF3" stroke="#FFFFFF" stroke-miterlimit="10" d="M308.367,345.615c-64.468,21.939-104.907,33.943-104.907,33.943
		c-13.045-0.129-22.355,33.821,0.651,33.731c15.202-0.063,104.256,0,104.256,0l0,0l0,0V345.615z"/>
	<path fill="#C7DFF3" stroke="#FFFFFF" stroke-miterlimit="10" d="M308.367,345.615v67.678l0,0V345.615
		C307.83,345.796,308.899,345.432,308.367,345.615z"/>
	<path fill="#C7DFF3" stroke="#FFFFFF" stroke-miterlimit="10" d="M213.789,248.631c-8.935,0.313-25.191-4.596-25.191-4.596
		s-8.357-4.985-20.694-0.978c-17.494,5.697-7.25,18.048,8.464,23.158c8.365,2.73,19.378,0.855,25.678,6.207
		c30.807,26.174,59.631-7.03,44.018-17.345C237.458,249.389,229.136,248.102,213.789,248.631z"/>
	<path fill="#999999" d="M293.47,345.576c0,3.193-2.591,5.783-5.785,5.783c-3.196,0-5.784-2.59-5.784-5.783
		c0-3.197,2.588-5.789,5.784-5.789S293.47,342.378,293.47,345.576"/>
	<path fill="#999999" d="M184.164,253.529c0,3.195-2.589,5.783-5.785,5.783c-3.193,0-5.781-2.588-5.781-5.783
		c0-3.196,2.588-5.786,5.781-5.786C181.574,247.743,184.164,250.333,184.164,253.529"/>
	<path fill="#999999" d="M545.988,308.992c0,3.199-2.588,5.783-5.785,5.783c-3.191,0-5.779-2.584-5.779-5.783
		c0-3.193,2.588-5.783,5.779-5.783C543.4,303.208,545.988,305.798,545.988,308.992"/>
	<path fill="#999999" d="M511.469,245.71c0,3.195-2.59,5.783-5.785,5.783c-3.191,0-5.779-2.588-5.779-5.783
		c0-3.195,2.588-5.786,5.779-5.786C508.88,239.925,511.469,242.515,511.469,245.71"/>
	<path fill="#FFFFFF" d="M559.107,293.125l22.455-23.922c0,0,2.727-5.456,8.813-5.037c6.088,0.419,40.926-2.73,40.926-2.73
		s6.508-0.626,4.199,6.086c-2.313,6.718-21.621,28.752-21.621,28.752s-0.838,6.294-9.229,5.669
		c-8.396-0.633-44.072,1.256-44.072,1.256S552.39,301.73,559.107,293.125z"/>
	<path fill="#FFFFFF" d="M267.232,260.152c12.019,0.576,78.479-0.113,82.533-0.241c4.057-0.128,5.565,4.621,1.419,7.257
		c-4.146,2.637-33.304,17.78-34.97,18.43c-1.821,0.708-3.947,3.135-12.555,0c-8.604-3.14-36.087-15.064-40.313-16.761
		C258.597,266.928,255.49,259.592,267.232,260.152z"/>
	<rect x="279.551" y="180.956" fill="#CCCCCC" width="111.646" height="22.679"/>
	<polygon fill="#CCCCCC" points="165.419,181.599 175.045,225.682 175.051,225.682 203.693,225.682 203.693,181.599 	"/>
	<polygon fill="#CCCCCC" points="820.708,312.757 846.953,262.506 865.748,215.447 769.691,180.224 736.559,180.776 779.283,205.48 
		762.093,273.635 703.738,299.783 724.281,307.561 745.578,301.732 745.578,301.732 770.126,362.007 	"/>
	<polygon fill="#CCCCCC" stroke="#FFFFFF" stroke-miterlimit="10" points="527.698,271.836 508.983,271.85 508.983,297.421 
		527.698,297.413 	"/>
</g>
<g id="rooms">
	<polygon id="g16" fill="#939598" stroke="#FFFFFF" stroke-width="0.5" stroke-miterlimit="10" points="609.469,180.224 
		609.469,224.504 662.509,224.504 662.509,214.115 649.134,214.173 648.949,180.224 	"/>
	<polygon id="g15" fill="#939598" stroke="#FFFFFF" stroke-width="0.5" stroke-miterlimit="10" points="569.929,224.504 
		569.929,224.504 609.469,224.504 609.469,180.224 609.469,180.224 569.929,180.224 569.929,182.541 	"/>
	<polygon id="g14" fill="#939598" stroke="#FFFFFF" stroke-width="0.5" stroke-miterlimit="10" points="533.205,224.504 
		542.136,224.504 569.929,224.504 569.929,182.541 569.929,180.224 517.605,180.224 517.605,224.504 	"/>
	
		<rect id="g13" x="500.861" y="180.224" fill="#939598" stroke="#FFFFFF" stroke-width="0.5" stroke-miterlimit="10" width="16.744" height="44.28"/>
	<polygon id="g12" fill="#939598" stroke="#FFFFFF" stroke-width="0.5" stroke-miterlimit="10" points="468.699,224.504 
		500.861,224.504 500.861,180.224 468.699,180.224 468.699,180.224 468.699,180.224 	"/>
	<polygon id="g11" fill="#939598" stroke="#FFFFFF" stroke-width="0.5" stroke-miterlimit="10" points="436.802,224.504 
		436.802,224.504 468.699,224.504 468.699,224.504 468.699,224.504 468.699,180.224 436.802,180.224 	"/>
	<polygon id="g10" fill="#939598" stroke="#FFFFFF" stroke-width="0.5" stroke-miterlimit="10" points="404.949,224.504 
		436.802,224.504 436.802,180.224 436.802,180.224 436.802,180.224 404.949,180.224 404.949,180.224 404.949,180.224 	"/>
	<polygon id="g19" fill="#939598" stroke="#FFFFFF" stroke-width="0.5" stroke-miterlimit="10" points="373.965,345.716 
		373.965,352.689 380.352,352.689 380.352,367.271 373.965,367.271 373.965,388.889 373.965,388.889 373.965,402.365 
		373.965,413.531 439.345,413.531 439.345,379.541 439.345,345.716 	"/>
	<path id="g17" fill="#939598" stroke="#FFFFFF" stroke-width="0.5" stroke-miterlimit="10" d="M725.281,307.561l-20.543-7.773l0,0
		l0,0l-56.242,49.404c73.854,20.617,102.275,32.203,114.078,22.137c2.916-2.49,8.553-9.314,8.553-9.314l-24.549-60.275l0,0
		L725.281,307.561z"/>
	<polygon id="g08_1_" fill="#939598" stroke="#FFFFFF" stroke-width="0.5" stroke-miterlimit="10" points="333.074,225.682 
		333.074,203.446 293.357,203.446 293.372,225.682 	"/>
	
		<rect id="g06" x="240.616" y="181.599" fill="#939598" stroke="#FFFFFF" stroke-width="0.5" stroke-miterlimit="10" width="22.371" height="44.083"/>
	<polygon id="g07" fill="#939598" stroke="#FFFFFF" stroke-width="0.5" stroke-miterlimit="10" points="293.357,203.446 
		279.996,203.446 279.996,181.599 262.987,181.599 262.987,225.682 293.372,225.682 	"/>
	<polygon id="g09" fill="#939598" stroke="#FFFFFF" stroke-width="0.5" stroke-miterlimit="10" points="350.315,224.504 
		404.949,224.504 404.949,224.504 404.949,224.504 404.949,180.224 391.865,180.224 391.865,203.446 350.315,203.446 	"/>
	
		<rect id="g05" x="203.693" y="181.599" fill="#939598" stroke="#FFFFFF" stroke-width="0.5" stroke-miterlimit="10" width="36.923" height="44.083"/>
	<path id="g03_1_" fill="#939598" stroke="#FFFFFF" stroke-width="0.5" stroke-miterlimit="10" d="M175.045,225.682l-9.626-44.083
		H147.97c-13.651,0.058-19.8,2.181-24.852,10.065l42.66,35.87C170.82,225.806,175.046,225.681,175.045,225.682L175.045,225.682
		L175.045,225.682z"/>
	<path id="g02" fill="#939598" stroke="#FFFFFF" stroke-width="0.5" stroke-miterlimit="10" d="M117.219,203.996
		c-4.219,10.631-9.042,22.196-12.712,30.867h49.896c0.681-0.791,1.436-1.568,2.302-2.313c2.849-2.428,6.104-4,9.076-5.019
		l-42.66-35.87C121.118,194.796,119.28,198.805,117.219,203.996z"/>
	<path id="g01" fill="#939598" stroke="#FFFFFF" stroke-width="0.5" stroke-miterlimit="10" d="M98.719,248.413h50.316
		c0,0,0-7.315,5.366-13.55h-49.896C101.12,242.879,98.719,248.413,98.719,248.413z"/>
	<path id="g23" fill="#939598" stroke="#FFFFFF" stroke-width="0.5" stroke-miterlimit="10" d="M163.156,303.27
		c-13.246,0.016-13.415-11.039-13.415-11.039l-0.536-33.014H100.62l-14.91,37.26l-6.148-0.338l-12.235,29.575
		c0,0-9.872,19.838-6.075,30.83c1.737,13.381,23.81,13.063,23.81,13.063s62.438-0.006,85.28,0v-66.336
		C166.717,303.27,164.131,303.27,163.156,303.27z"/>
	<path id="g22" fill="#939598" stroke="#FFFFFF" stroke-width="0.5" stroke-miterlimit="10" d="M228.812,303.13
		c-8.288,0.175-42.926,0.154-58.473,0.142v66.336c3.013,0,5.361,0,6.765,0c13.424,0.021,39.438-22.414,39.438-22.414l25.999-22.199
		C262.055,308.337,239.034,302.914,228.812,303.13z"/>
	<path id="g20" fill="#939598" stroke="#FFFFFF" stroke-width="0.5" stroke-miterlimit="10" d="M343.034,388.889v-32.793h16.922
		v-10.38h-51.085l0,0c0.53-0.184-0.541,0.185,0,0v67.813h65.095v-11.166v-13.479L343.034,388.889L343.034,388.889z"/>
	<path id="g21" fill="#939598" stroke="#FFFFFF" stroke-width="0.5" stroke-miterlimit="10" d="M308.871,345.716
		C244.269,367.7,203.749,379.73,203.749,379.73c-13.072-0.131-22.4,33.895,0.654,33.803c15.229-0.063,104.468,0,104.468,0l0,0l0,0
		V345.716z"/>
	<path id="g24" fill="#939598" stroke="#FFFFFF" stroke-width="0.5" stroke-miterlimit="10" d="M214.099,248.533
		c-8.953,0.314-25.244-4.604-25.244-4.604s-8.376-4.996-20.736-0.979c-17.528,5.709-7.265,18.085,8.48,23.205
		c8.382,2.735,19.417,0.854,25.729,6.22c30.867,26.225,59.751-7.046,44.105-17.381C237.818,249.297,229.477,248.003,214.099,248.533
		z"/>
	<path id="g18" fill="#939598" stroke="#FFFFFF" stroke-width="0.5" stroke-miterlimit="10" d="M571.55,388.564l-53.467-42.851
		h-78.737l0,0l0,0v33.824v33.987h123.959c0,0,10.179-2.728,15.342-7.144C585.339,400.682,571.55,388.564,571.55,388.564z"/>
</g>
<g id="signs">
	<rect id="taxi" x="178.618" y="369.609" opacity="0.8" enable-background="new    " width="14.813" height="14.811"/>
	<g id="escalator">
		<rect id="escalator-2" x="301.308" y="243.999" opacity="0.8" enable-background="new    " width="14.813" height="14.811"/>
		<rect id="escalator-1" x="624.322" y="277.223" opacity="0.8" enable-background="new    " width="14.813" height="14.811"/>
	</g>
	<rect id="atm" x="656.488" y="184.679" opacity="0.8" enable-background="new    " width="14.813" height="14.811"/>
	<rect id="toilet" x="675.488" y="184.679" opacity="0.8" enable-background="new    " width="14.813" height="14.811"/>
	<g id="lift">
		<rect id="lift-2" x="362.821" y="353.139" opacity="0.8" enable-background="new    " width="14.813" height="14.813"/>
		<rect id="lift-1" x="695.001" y="184.679" opacity="0.8" enable-background="new    " width="14.813" height="14.811"/>
	</g>
	<rect id="information" x="510.936" y="277.223" opacity="0.8" enable-background="new    " width="14.812" height="14.811"/>
	<rect id="dropoff" x="151.541" y="388.019" opacity="0.8" enable-background="new    " width="14.813" height="14.811"/>
</g>
</svg>
