<?xml version="1.0" encoding="utf-8"?>
<!-- Generator: Adobe Illustrator 16.0.0, SVG Export Plug-In . SVG Version: 6.00 Build 0)  -->
<!DOCTYPE svg PUBLIC "-//W3C//DTD SVG 1.1//EN" "http://www.w3.org/Graphics/SVG/1.1/DTD/svg11.dtd">
<svg version="1.1" id="Layer_1" xmlns="http://www.w3.org/2000/svg" xmlns:xlink="http://www.w3.org/1999/xlink" x="0px" y="0px"
	 width="878.74px" height="595.281px" viewBox="0 0 878.74 595.281" enable-background="new 0 0 878.74 595.281"
	 xml:space="preserve">
<g id="Background">
	<rect x="0" fill="#FFFFFF" width="878.74" height="595.281"/>
</g>
<g id="Original">
</g>
<g id="etc">
	<g>
		<path fill="#EFEBDD" d="M855.246,214.686l-90.236-32.634l-613.604-0.118c-13.666,0.058-20.497,2.41-25.554,10.302
			c-0.278,0.435-0.597,0.993-0.935,1.613c-1.944,3.192-3.77,7.15-5.81,12.086c-8.379,20.251-19.063,44.061-19.063,44.061
			L80.19,295.863l-12.246,29.601c0,0-1.403,2.816-2.946,6.914c-2.707,6.668-6.178,17.438-3.852,24.509
			c1.495,13.235,23.304,13.114,23.304,13.114s79.124-0.563,91.024-0.565c0.251,0,0.517-0.021,0.78-0.039c0.597,0,1.138,0,1.565,0
			c4.803,0.01,11.216-2.86,17.476-6.549c3.412,4.637,7.279,10.512,10.511,15.58c-2.74,0.799-4.166,1.202-4.166,1.202
			c-12.919-0.121-22.742,31.642,0.056,31.517c15.065-0.074,104.738,0.037,104.738,0.037h38.566h26.168l0,0h6.274h0.251h9.391H556.56
			c0,0,6.984,0.317,12.205-2.729c1.365-0.631,2.685-1.395,3.812-2.344c6.709-5.652-5.844-16.9-5.844-16.9l-51.478-42.773
			c9.104-9.76,31.258-27.168,42.096-23.555c6.666,2.223,15.188,5.555,25.724,8.912l0,0l78.457,23.736l0.912,0.318
			c0.899,0.25,1.754,0.49,2.631,0.736l19.578,5.85l0,0c11.899,3.637,20.323,6.332,27.282,8.674l0,0
			c21.763,7.52,33.591,12.608,45.438,2.627c2.93-2.467,19.219-27.219,19.219-27.219l39.398-33.305l26.123-47.719l15.401-34.699
			C857.515,230.797,863.589,217.692,855.246,214.686z"/>
	</g>
	<path fill="#FFFFFF" stroke="#FFFFFF" stroke-miterlimit="10" d="M561.671,293.293l22.52-23.993c0,0,2.735-5.472,8.842-5.052
		c6.102,0.42,41.041-2.738,41.041-2.738s6.526-0.628,4.215,6.104c-2.318,6.737-21.682,28.833-21.682,28.833
		s-3.619,5.414-9.265,5.683c-8.436,0.404-44.201,1.267-44.201,1.267S554.933,301.923,561.671,293.293z"/>
	<path fill="#999999" d="M288.257,337.75c0,3.205-2.599,5.801-5.803,5.801s-5.8-2.596-5.8-5.801s2.597-5.803,5.8-5.803
		C285.659,331.947,288.257,334.544,288.257,337.75"/>
	<path fill="#999999" d="M547.9,309.313c0,3.205-2.599,5.801-5.804,5.801c-3.204,0-5.799-2.596-5.799-5.801
		c0-3.203,2.594-5.804,5.799-5.804S547.9,306.109,547.9,309.313"/>
	<path fill="#999999" d="M492.677,262.678c0,3.204-2.602,5.8-5.805,5.8s-5.799-2.596-5.799-5.8c0-3.205,2.596-5.803,5.799-5.803
		C490.077,256.875,492.677,259.474,492.677,262.678"/>
	<g>
		<polygon fill="#FFFFFF" stroke="#FFFFFF" stroke-miterlimit="10" points="770.384,307.417 802.988,307.417 802.988,302.541 
			802.988,296.524 770.074,296.814 770.26,302.541 711.719,302.541 770.26,302.541 		"/>
		<polygon fill="#FFFFFF" stroke="#FFFFFF" stroke-miterlimit="10" points="332.598,389.988 332.598,357.441 358.167,357.441 
			358.195,346.436 306.436,346.436 306.436,411.184 345.005,411.184 345.005,389.988 		"/>
		<path fill="#FFFFFF" stroke="#FFFFFF" stroke-miterlimit="10" d="M566.732,389.21l-51.478-42.774h-39.719l-0.016,64.748h82.684
			c0,0,9.182-0.703,14.369-5.072C579.285,400.458,566.732,389.21,566.732,389.21z"/>
		<path fill="#FFFFFF" stroke="#FFFFFF" stroke-miterlimit="10" d="M605.763,312.68l-22.688,19.114l101.578,30.642l-0.509-39.414
			c0,0,0.031-21.853-12.995-21.642l-39.104,0.08C632.042,301.46,619.966,300.712,605.763,312.68z"/>
		<polygon fill="#FFFFFF" stroke="#FFFFFF" stroke-miterlimit="10" points="658.183,247.18 658.199,235.77 645.171,235.844 
			645.259,182.387 606.14,182.387 606.046,247.18 		"/>
		<polygon fill="#FFFFFF" stroke="#FFFFFF" stroke-miterlimit="10" points="606.046,247.18 606.14,182.387 567.033,182.387 
			566.943,247.18 		"/>
		<polygon fill="#FFFFFF" stroke="#FFFFFF" stroke-miterlimit="10" points="566.943,247.18 567.033,182.387 541.188,182.387 
			541.188,247.18 		"/>
		<polygon fill="#FFFFFF" stroke="#FFFFFF" stroke-miterlimit="10" points="541.188,247.18 541.188,182.387 514.896,182.387 
			514.792,247.18 		"/>
		<polygon fill="#FFFFFF" stroke="#FFFFFF" stroke-miterlimit="10" points="514.792,247.18 514.896,182.387 488.824,182.387 
			488.722,247.18 		"/>
		<polygon fill="#FFFFFF" stroke="#FFFFFF" stroke-miterlimit="10" points="488.722,247.18 488.824,182.387 449.719,182.387 
			449.646,226.617 		"/>
		<path fill="#FFFFFF" stroke="#FFFFFF" stroke-miterlimit="10" d="M371.458,226.617h78.188l0.071-44.23h-78.262v22.376
			C371.574,204.985,371.475,223.56,371.458,226.617L371.458,226.617z"/>
		<path fill="#FFFFFF" stroke="#FFFFFF" stroke-miterlimit="10" d="M345.407,204.763l-0.01,21.854h26.061c0,0-0.004,0.283,0,0
			v-21.854c0,0,0-0.005,0,0H345.407z"/>
		<path fill="#FFFFFF" stroke="#FFFFFF" stroke-miterlimit="10" d="M371.458,204.763v21.854
			C371.475,223.56,371.574,204.985,371.458,204.763z"/>
		<path fill="#FFFFFF" stroke="#FFFFFF" stroke-miterlimit="10" d="M201.642,379.63c-12.919-0.121-22.742,31.642,0.056,31.517
			c15.065-0.076,104.737,0.037,104.737,0.037v-64.748C241.228,368.648,201.642,379.63,201.642,379.63z"/>
		<polygon fill="#FFFFFF" stroke="#FFFFFF" stroke-miterlimit="10" points="449.476,346.436 449.374,411.184 475.523,411.184 
			475.539,346.436 		"/>
		<polygon fill="#FFFFFF" stroke="#FFFFFF" stroke-miterlimit="10" points="423.403,346.436 423.305,411.184 449.374,411.184 
			449.476,346.436 		"/>
		<polygon fill="#FFFFFF" stroke="#FFFFFF" stroke-miterlimit="10" points="371.26,346.436 371.26,357.441 378.212,357.441 
			378.212,368.376 371.226,368.43 371.173,411.184 377.698,411.184 377.447,411.184 423.305,411.184 423.403,346.436 		"/>
		<polygon fill="#FFFFFF" stroke="#FFFFFF" stroke-miterlimit="10" points="765.009,182.051 763.826,204.411 737.938,204.403 
			737.921,226.252 711.833,226.393 711.824,242.265 737.898,242.121 855.246,214.686 		"/>
		<path fill="#FFFFFF" stroke="#FFFFFF" stroke-miterlimit="10" d="M840.896,217.786L737.898,242.12
			c-0.019,10.925-26.121,32.912-26.121,32.912l130.336-22.246L840.896,217.786z"/>
		<polygon fill="#FFFFFF" stroke="#FFFFFF" stroke-miterlimit="10" points="770.074,296.814 802.988,296.524 802.988,302.541 
			821.605,302.541 842.113,264.661 842.113,252.787 711.777,275.032 711.719,302.541 770.26,302.541 		"/>
		<path fill="#FFFFFF" stroke="#FFFFFF" stroke-miterlimit="10" d="M821.605,302.541h-18.617v4.877h-32.604l-0.123-4.877H711.72
			l0.217,68.568c21.763,7.52,33.591,12.607,45.438,2.627c2.93-2.467,19.219-27.219,19.219-27.219l39.398-33.305L821.605,302.541z"/>
		<polygon fill="#FFFFFF" stroke="#FFFFFF" stroke-miterlimit="10" points="332.333,226.617 332.364,204.763 293.082,204.763 
			293.082,226.617 		"/>
		<polygon fill="#FFFFFF" stroke="#FFFFFF" stroke-miterlimit="10" points="293.082,226.617 293.082,204.763 280.226,204.763 
			280.259,182.387 241.148,182.387 241.088,226.617 		"/>
		<polygon fill="#FFFFFF" stroke="#FFFFFF" stroke-miterlimit="10" points="241.088,226.617 241.148,182.387 175.975,182.387 
			175.907,226.617 		"/>
		<path fill="#FFFFFF" stroke="#FFFFFF" stroke-miterlimit="10" d="M157.648,234.137c7.718-6.501,18.259-7.52,18.259-7.52
			l0.067-44.23c0,0-7.208-0.101-26.073,0c-18.865,0.108-23.318,5.479-30.794,23.547c-8.379,20.251-19.063,44.061-19.063,44.061
			h49.762C149.805,249.995,149.938,240.63,157.648,234.137z"/>
		<path fill="#FFFFFF" stroke="#FFFFFF" stroke-miterlimit="10" d="M227.731,303.846c-10.106,0.223-59.834,0.209-64.92,0.223
			c-13.088,0.022-13.072-10.898-13.072-10.898l0.051-32.663h-39.106l-0.037,21.956l-13.023,0.067l-17.329,14.59l-12.61,29.272
			c0,0-10.109,19.642-6.535,30.494c1.495,13.235,23.304,13.114,23.304,13.114s79.124-0.563,91.024-0.565
			c13.26-0.002,39.365-21.996,39.365-21.996l26.095-21.994C260.52,308.945,237.84,303.611,227.731,303.846z"/>
		<path fill="#FFFFFF" stroke="#FFFFFF" stroke-miterlimit="10" d="M550.865,267.481l-37.803,0.056
			c-14.015,0.019-14.361,9.785-14.361,9.785s-0.842,21.316-0.896,29.777c-0.063,8.459,1.882,7.842,9.201,10.729
			c7.32,2.889,13.75-4.279,13.75-4.279s20.441-22.308,32.439-35.005C565.185,265.856,550.865,267.481,550.865,267.481z"/>
		<polygon fill="#FFFFFF" stroke="#FFFFFF" stroke-miterlimit="10" points="693.644,278.693 693.689,253.096 674.957,253.129 
			674.917,278.727 		"/>
	</g>
	<path fill="#FFFFFF" stroke="#FFFFFF" stroke-miterlimit="10" d="M202.504,259.824c0,0-8.964-1.855-8.653,5.873
		c0.309,7.727,0,9.36,0,13.6c0,3.166,1.854,7.728,5.873,7.728c6.182,0,60.272,0.309,67.072,0
		c6.802-0.309,16.073,7.418,16.073,13.602c0,6.182,11.127,8.652,14.837,3.709c3.71-4.945,24.729-35.855,24.729-35.855
		s4.637-9.582-13.603-8.655C291.546,260.703,202.504,259.824,202.504,259.824z"/>
	<path fill="#FFFFFF" stroke="#FFFFFF" stroke-miterlimit="10" d="M333.318,287.544c5.188-9.792,6.734-11.647,6.734-11.647
		s6.491-12.364,12.056-12.673c16.979-0.941,71.959-1.738,94.896-2.038c10.51-1.053,12.656,7.597,12.656,7.597l9.08,28.543
		c0,0,7.11,18.544-8.242,16.484c-15.352-2.061-121.229-14.035-121.229-14.035S328.133,297.336,333.318,287.544z"/>
	<rect x="280.259" y="182.387" fill="#CCCCCC" width="91.199" height="22.376"/>
	<polygon fill="#CCCCCC" stroke="#FFFFFF" stroke-miterlimit="10" points="712.13,391.324 712.121,391.406 664.078,391.55 
		712.119,428.638 712.181,391.324 	"/>
	<polygon fill="#CCCCCC" stroke="#FFFFFF" stroke-miterlimit="10" points="711.935,371.109 684.652,362.436 664.078,391.458 
		712.13,391.324 	"/>
</g>
<g id="Rooms">
	<polygon id="r123" fill="#939598" stroke="#FFFFFF" stroke-width="0.5" stroke-miterlimit="10" points="332.351,390.018 
		332.351,357.5 357.896,357.5 357.927,346.503 306.215,346.503 306.215,411.193 344.745,411.193 344.745,390.018 	"/>
	<path id="r119" fill="#939598" stroke="#FFFFFF" stroke-width="0.5" stroke-miterlimit="10" d="M566.271,389.242l-51.429-42.738
		h-39.682l-0.019,64.689h82.608c0,0,9.173-0.701,14.354-5.066C578.813,400.479,566.271,389.242,566.271,389.242z"/>
	<path id="r118" fill="#939598" stroke="#FFFFFF" stroke-width="0.5" stroke-miterlimit="10" d="M605.269,312.779l-22.668,19.1
		l101.483,30.611l-0.507-39.377c0,0,0.029-21.832-12.982-21.621l-39.069,0.08C631.525,301.572,619.457,300.826,605.269,312.779z"/>
	<polygon id="r112" fill="#939598" stroke="#FFFFFF" stroke-width="0.5" stroke-miterlimit="10" points="657.64,247.34 
		657.658,235.939 644.638,236.015 644.726,182.605 605.646,182.605 605.552,247.34 	"/>
	<polygon id="r111" fill="#939598" stroke="#FFFFFF" stroke-width="0.5" stroke-miterlimit="10" points="605.552,247.34 
		605.646,182.605 566.574,182.605 566.484,247.34 	"/>
	<polygon id="r110" fill="#939598" stroke="#FFFFFF" stroke-width="0.5" stroke-miterlimit="10" points="566.484,247.34 
		566.574,182.605 540.751,182.605 540.751,247.34 	"/>
	<polygon id="r109" fill="#939598" stroke="#FFFFFF" stroke-width="0.5" stroke-miterlimit="10" points="540.751,247.34 
		540.751,182.605 514.484,182.605 514.382,247.34 	"/>
	<polygon id="r108" fill="#939598" stroke="#FFFFFF" stroke-width="0.5" stroke-miterlimit="10" points="514.382,247.34 
		514.484,182.605 488.435,182.605 488.333,247.34 	"/>
	<polygon id="r107" fill="#939598" stroke="#FFFFFF" stroke-width="0.5" stroke-miterlimit="10" points="488.333,247.34 
		488.435,182.605 449.365,182.605 449.292,226.795 	"/>
	<path id="r106" fill="#939598" stroke="#FFFFFF" stroke-width="0.5" stroke-miterlimit="10" d="M371.177,226.795h78.115
		l0.072-44.189h-78.188v22.355C371.291,205.184,371.192,223.741,371.177,226.795L371.177,226.795z"/>
	<path id="r105" fill="#939598" stroke="#FFFFFF" stroke-width="0.5" stroke-miterlimit="10" d="M345.147,204.961l-0.01,21.834
		h26.037c0,0-0.005,0.283,0,0v-21.834c0,0,0-0.004,0,0H345.147z"/>
	<path id="r124" fill="#939598" stroke="#FFFFFF" stroke-width="0.5" stroke-miterlimit="10" d="M201.514,379.669
		c-12.909-0.119-22.725,31.613,0.055,31.488c15.052-0.078,104.646,0.034,104.646,0.034v-64.688
		C241.064,368.699,201.514,379.669,201.514,379.669z"/>
	<polygon id="r120" fill="#939598" stroke="#FFFFFF" stroke-width="0.5" stroke-miterlimit="10" points="449.124,346.503 
		449.02,411.193 475.146,411.193 475.164,346.503 	"/>
	<polygon id="r121" fill="#939598" stroke="#FFFFFF" stroke-width="0.5" stroke-miterlimit="10" points="423.074,346.503 
		422.975,411.193 449.02,411.193 449.124,346.503 	"/>
	<polygon id="r122" fill="#939598" stroke="#FFFFFF" stroke-width="0.5" stroke-miterlimit="10" points="370.976,346.503 
		370.976,357.5 377.923,357.5 377.923,368.428 370.944,368.48 370.888,411.193 377.41,411.193 377.159,411.193 422.975,411.193 
		423.074,346.503 	"/>
	<polygon id="r113" fill="#939598" stroke="#FFFFFF" stroke-width="0.5" stroke-miterlimit="10" points="711.242,226.571 
		711.232,242.43 737.204,242.286 737.204,226.433 	"/>
	<polygon id="r114" fill="#939598" stroke="#FFFFFF" stroke-width="0.5" stroke-miterlimit="10" points="854.525,214.875 
		764.369,182.271 763.188,204.609 737.324,204.602 737.304,226.432 737.204,226.433 737.204,242.286 737.285,242.285 	"/>
	<path id="r115" fill="#939598" stroke="#FFFFFF" stroke-width="0.5" stroke-miterlimit="10" d="M840.189,217.973l-102.904,24.313
		c-0.021,10.914-26.1,32.882-26.1,32.882l130.219-22.226L840.189,217.973z"/>
	<polygon id="r116" fill="#939598" stroke="#FFFFFF" stroke-width="0.5" stroke-miterlimit="10" points="769.431,296.93 
		802.316,296.639 802.316,302.652 820.914,302.652 841.404,264.805 841.404,252.941 711.185,275.167 711.126,302.652 
		769.615,302.652 	"/>
	<polygon id="r104_1_" fill="#939598" stroke="#FFFFFF" stroke-width="0.5" stroke-miterlimit="10" points="332.087,226.795 
		332.117,204.961 292.871,204.961 292.871,226.795 	"/>
	<polygon id="r103" fill="#939598" stroke="#FFFFFF" stroke-width="0.5" stroke-miterlimit="10" points="292.871,226.795 
		292.871,204.961 280.026,204.961 280.06,182.605 240.983,182.605 240.924,226.795 	"/>
	<polygon id="r102" fill="#939598" stroke="#FFFFFF" stroke-width="0.5" stroke-miterlimit="10" points="240.924,226.795 
		240.983,182.605 175.869,182.605 175.802,226.795 	"/>
	<path id="r101" fill="#939598" stroke="#FFFFFF" stroke-width="0.5" stroke-miterlimit="10" d="M157.56,234.309
		c7.71-6.494,18.242-7.514,18.242-7.514l0.065-44.189c0,0-7.202-0.102-26.05,0c-18.846,0.109-23.294,5.475-30.765,23.525
		c-8.374,20.232-19.048,44.021-19.048,44.021h49.718C149.725,250.152,149.856,240.797,157.56,234.309z"/>
	<path id="r125" fill="#939598" stroke="#FFFFFF" stroke-width="0.5" stroke-miterlimit="10" d="M227.58,303.955
		c-10.097,0.221-59.779,0.207-64.859,0.221c-13.077,0.025-13.062-10.89-13.062-10.89l0.051-32.633h-39.071l-0.036,21.936
		l-13.014,0.068l-17.313,14.576l-12.603,29.25c0,0-10.1,19.619-6.527,30.465c1.494,13.227,23.282,13.104,23.282,13.104
		s79.053-0.563,90.939-0.565c13.249-0.002,39.333-21.978,39.333-21.978l26.067-21.975
		C260.338,309.048,237.677,303.721,227.58,303.955z"/>
	<g id="r117">
		<path fill="#939598" stroke="#FFFFFF" stroke-width="0.5" stroke-miterlimit="10" d="M820.914,302.652h-18.598v4.871H769.74
			l-0.125-4.871h-58.486l0.217,68.504c21.744,7.514,33.562,12.6,45.396,2.625c2.928-2.463,19.201-27.193,19.201-27.193
			l39.362-33.271L820.914,302.652z"/>
		<polygon fill="#939598" stroke="#FFFFFF" stroke-width="0.5" stroke-miterlimit="10" points="693.07,278.824 693.115,253.25 
			674.4,253.284 674.359,278.858 		"/>
	</g>
</g>
<g id="Signs">
	<rect id="bts" x="687.563" y="379.33" width="14.811" height="14.813"/>
	<g id="escalator">
		<rect id="escalator-2" x="226.172" y="242.747" width="14.813" height="14.811"/>
		<rect id="escalator-1" x="628.322" y="270.392" width="14.813" height="14.811"/>
	</g>
	<rect id="atm" x="650.255" y="189.89" width="14.812" height="14.811"/>
	<g id="toilet">
		<rect id="toilet-2" x="94.916" y="265.986" width="14.812" height="14.811"/>
		<rect id="toilet-1" x="669.277" y="189.89" width="14.813" height="14.811"/>
	</g>
	<g id="elevator">
		<rect id="elevator-2" x="361.821" y="355.083" width="14.813" height="14.812"/>
		<rect id="elevator-1" x="687.563" y="189.89" width="14.811" height="14.811"/>
	</g>
</g>
</svg>
