<?xml version="1.0" encoding="utf-8"?>
<!-- Generator: Adobe Illustrator 16.0.0, SVG Export Plug-In . SVG Version: 6.00 Build 0)  -->
<!DOCTYPE svg PUBLIC "-//W3C//DTD SVG 1.1//EN" "http://www.w3.org/Graphics/SVG/1.1/DTD/svg11.dtd">
<svg version="1.1" id="Layer_1" xmlns="http://www.w3.org/2000/svg" xmlns:xlink="http://www.w3.org/1999/xlink" x="0px" y="0px"
	 width="878.74px" height="595.281px" viewBox="0 0 878.74 595.281" enable-background="new 0 0 878.74 595.281"
	 xml:space="preserve">
<g id="background">
	<rect x="0" fill="#FFFFFF" width="878.74" height="595.281"/>
</g>
<g id="etc">
	<polygon fill="#C7DFF3" stroke="#FFFFFF" stroke-miterlimit="10" points="285.475,215.573 267.514,215.845 267.647,247.122 
		285.668,247.122 		"/>
	<polygon fill="#C7DFF3" stroke="#FFFFFF" stroke-miterlimit="10" points="267.514,215.848 260.245,215.824 260.22,203.379 
		222.388,203.379 222.516,247.122 267.647,247.122 		"/>
	<path fill="#C7DFF3" stroke="#FFFFFF" stroke-miterlimit="10" d="M221.168,335.189h64.763v20.633l-12.64,0.131l0.063,21.582
		l12.576-0.129v24.793c0,0-36.142,19.238-64.763,20.52V335.189L221.168,335.189z"/>
	<polygon fill="#C7DFF3" stroke="#FFFFFF" stroke-miterlimit="10" points="184.951,335.189 221.168,335.189 221.168,422.718 
		185.209,422.718 		"/>
	<polygon fill="#C7DFF3" stroke="#FFFFFF" stroke-miterlimit="10" points="134.121,335.189 184.949,335.189 185.209,422.718 
		134.431,422.718 		"/>
	<path fill="#C7DFF3" stroke="#FFFFFF" stroke-miterlimit="10" d="M689.254,265.531v-5.788c0,0-0.58-4.892-8.479-4.81
		c-7.902,0.087-16.861,0.054-16.861,0.054l-0.067-21.577l12.364-10.728l0.148-19.303h63.354
		c23.256-0.229,24.969,11.971,24.989,18.242c0.006,2.063,0.056,21.585,0.056,21.585l-75.505,22.34"/>
	<path fill="#C7DFF3" stroke="#FFFFFF" stroke-miterlimit="10" d="M550.256,203.379l0.09,43.743h50.449l-0.052-18.642h-6.303
		l0.024-10.666h-6.209v-14.435C588.258,203.379,554.285,203.314,550.256,203.379"/>
	<polygon fill="#C7DFF3" stroke="#FFFFFF" stroke-miterlimit="10" points="512.802,203.379 512.802,247.122 550.345,247.122 
		550.256,203.379 		"/>
	<rect x="474.707" y="203.379" fill="#C7DFF3" stroke="#FFFFFF" stroke-miterlimit="10" width="38.097" height="43.743"/>
	<rect x="436.808" y="203.379" fill="#C7DFF3" stroke="#FFFFFF" stroke-miterlimit="10" width="37.897" height="43.743"/>
	<rect x="398.924" y="203.379" fill="#C7DFF3" stroke="#FFFFFF" stroke-miterlimit="10" width="37.885" height="43.743"/>
	<polygon fill="#C7DFF3" stroke="#FFFFFF" stroke-miterlimit="10" points="398.924,247.122 361.232,247.122 361.098,203.379 
		398.924,203.379 		"/>
	<path fill="#C7DFF3" stroke="#FFFFFF" stroke-miterlimit="10" d="M449.792,343.416l-0.022-10.787
		c-0.023-10.271-6.47-10.729-25.26-10.541l-25.213,0.254l0.091,35.633L449.792,343.416z"/>
	<polygon fill="#C7DFF3" stroke="#FFFFFF" stroke-miterlimit="10" points="197.174,203.379 197.39,247.122 222.516,247.122 
		222.388,203.379 		"/>
	<polygon fill="#C7DFF3" stroke="#FFFFFF" stroke-miterlimit="10" points="689.254,265.401 764.662,243.291 764.799,292.452 
		752.01,292.352 752.01,281.507 715.863,281.583 715.863,293.088 689.254,293.088 		"/>
	<path fill="#C7DFF3" stroke="#FFFFFF" stroke-miterlimit="10" d="M651.574,363.074l-0.112-54.014l25.616,0.082
		c12.214-0.455,12.185-0.822,12.177-16.055h26.608v7.875h36.146v-8.696l12.888,0.103l-1.259,8.396l-14.006,42.104
		c-6.543,22.115-34.347,18.984-47.569,19.646L651.574,363.074z"/>
	<path fill="#C7DFF3" stroke="#FFFFFF" stroke-miterlimit="10" d="M651.461,309.061l-49.902,0.94
		c-13.139-0.326-25.723,10.59-25.762,21.392l0.139,21.575l75.64,10.105L651.461,309.061z"/>
	<path fill="#C7DFF3" stroke="#FFFFFF" stroke-miterlimit="10" d="M184.693,247.122c-50.449,0.496-63.023,13.225-62.693,67.172
		l-25.388,0.25l-25.222,0.25l-0.033-10.793l-31.513,0.313c0,0,27.266-50.713,50.221-70.63c5.557-4.823,36.013-30.097,56.664-30.305
		c0,0,37.835,0.124,50.445,0l0.214,43.743H184.693L184.693,247.122z"/>
	<path fill="#C7DFF3" stroke="#FFFFFF" stroke-miterlimit="10" d="M121.861,325.083l-37.832,0.371l-62.896,54.571
		c0.357,18.07-2.042,38.365,16.398,42.691c5.563,1.303,96.896,0,96.896,0l0.071-87.529
		C127.382,335.262,121.893,335.873,121.861,325.083"/>
	<path fill="#C7DFF3" stroke="#FFFFFF" stroke-miterlimit="10" d="M335.261,376.91v-43.162l13.627-0.119l-0.053-10.762
		l25.229-0.275c0,0,11.988-0.117,12.623-0.127c6.953-0.072,12.607-0.123,12.607-0.123l0.093,35.635L335.261,376.91z"/>
	<polygon fill="#C7DFF3" stroke="#FFFFFF" stroke-miterlimit="10" points="361.232,247.122 323.463,247.122 323.264,203.379 
		361.098,203.379 		"/>
	<polygon fill="#C7DFF3" stroke="#FFFFFF" stroke-miterlimit="10" points="323.583,225.895 298.374,225.895 298.439,247.122 
		323.712,247.122 		"/>
	<path fill="#C7DFF3" stroke="#FFFFFF" stroke-miterlimit="10" d="M477.458,287.441l-6.02-12.335c0,0-3.345-4.191,6.987-4.093
		c10.326,0.099,28.379,0.061,28.379,0.061s5.785-0.061,5.022,3.201c-0.762,3.262-0.037,3.711-5.674,6.239
		c-5.625,2.526-19.922,8.678-19.922,8.678S479.683,292.012,477.458,287.441"/>
	<path fill="#C7DFF3" stroke="#FFFFFF" stroke-miterlimit="10" d="M637.734,274.347l25.631-1.263c0,0,6.354-0.313,5.679,2.773
		c-0.675,3.086-1.474,13.308-1.474,13.308s-0.838,5.621-7.832,5.737c-4.17,0.068-24.584,0.932-24.584,0.932
		s-3.59-0.348-3.267-4.287c0.324-3.938,2.297-14.119,2.297-14.119S635.439,274.462,637.734,274.347"/>
	<path fill="#EEEADB" d="M764.799,292.369l-0.138-49.078l-0.231,0.067c0-0.017,0-0.036,0-0.055l0.328-0.098
		c0,0-0.05-19.522-0.056-21.585c-0.01-2.9-0.414-7.722-3.108-12.053c-0.14-0.243-0.306-0.474-0.457-0.711
		c-0.088-0.128-0.16-0.259-0.254-0.386c-3.55-5.234-10.16-5.207-21.515-5.092c-24.424,0.241-63.349,0-63.349,0
		s-20.894-0.523-37.815,0c-24.474,0.753-24.008-1.891-239.281,0h-38.147h-25.223H259.89h-37.845h-25.201h-50.448
		c-22.017,0.218-53.847,27.243-56.663,29.689c-26.146,22.686-49.459,70.615-56.508,81.483c-7.048,10.853-12.53,23.642-12.516,32.492
		l0.101,32.356l0.029,10.791c0.64,12.83,1.357,22.629,8.024,27.883c2.202,1.951,5.013,3.788,8.669,4.646
		c5.563,1.303,96.896,0,96.896,0l0,0h0.003h50.777h35.959l0,0H546.04c13.174-0.977,18.827-4.297,25.735-14.422l33.063-50.998
		l-0.862-0.123l0.651-0.373l46.944,6.271l50.488-0.563c13.225-0.659,41.026,2.472,47.569-19.646l14.006-42.105l0.64-4.276
		c0.088-0.461,0.159-0.944,0.221-1.452l0.398-2.666h-0.098v0.003H764.799z"/>
	<path fill="#FFFFFF" d="M595.701,296.997c-4.496,0.038-82.748,0.822-88.274,0.883c-12.601,0.115-12.692,0.327-0.022-10.794
		c6.252-5.481,25.151-21.827,25.151-21.827c6.931-6.012,17.474-4.949,31.588-5.579l44.058-0.271c7.944,0.092,12.61,0.2,12.631,4.982
		c0.015,4.78,1.47,14.483-4.831,21.618C609.705,293.153,600.197,296.959,595.701,296.997 M454.197,294.165
		c-16.287,7.792-25.19,11.036-49.897,11.342c0,0-40.996,0.341-45.399,0.38c-5.563,0.063-5.569-6.501,3.281-10.818l60.406-27.569
		c9.536-4.189,20.659-4.091,26.981,1.239l11.616,9.799C467.502,283.868,468.871,287.134,454.197,294.165 M283.754,307.757
		c-7.924,0.082-63.052,0.623-63.052,0.623l-42.348,0.422c-8.104,0.078-20.001-5.879-20.409-16.496
		c-0.387-10.269,5.91-15.729,24.82-15.907l176.202-1.46c0,0,12.959-0.42,12.979,4.979
		C371.966,284.604,301.004,307.587,283.754,307.757"/>
	<path fill="#EEEADB" stroke="#FFFFFF" stroke-miterlimit="10" d="M604.84,357.298l-32.14-4.627l-100.979-9.678l-25.229,0.245
		l-50.402,14.564l-60.828,18.924c0,0-76.262,45.615-114.094,45.99l0,0h324.871c13.175-0.977,18.828-4.297,25.736-14.422
		L604.84,357.298z"/>
	<path fill="#CCCCCC" d="M181.068,321.691c0,3.199-2.595,5.791-5.793,5.791c-3.203,0-5.792-2.592-5.792-5.791
		c0-3.201,2.59-5.797,5.792-5.797C178.473,315.895,181.068,318.49,181.068,321.691"/>
	<path fill="#CCCCCC" d="M470.029,259.125c0,3.2-2.595,5.792-5.791,5.792c-3.203,0-5.795-2.592-5.795-5.792
		c0-3.201,2.592-5.797,5.795-5.797C467.435,253.328,470.029,255.923,470.029,259.125"/>
	<path fill="#CCCCCC" d="M491.435,305.225c0,3.198-2.596,5.795-5.795,5.795c-3.2,0-5.791-2.597-5.791-5.795
		c0-3.199,2.591-5.795,5.791-5.795C488.84,299.43,491.435,302.025,491.435,305.225"/>
	<path fill="#CCCCCC" d="M143.202,308.865c0,3.199-2.595,5.793-5.794,5.793c-3.203,0-5.793-2.594-5.793-5.793
		c0-3.201,2.59-5.797,5.793-5.797C140.607,303.068,143.202,305.664,143.202,308.865"/>
	<path fill="#CCCCCC" stroke="#FFFFFF" stroke-miterlimit="10" d="M764.515,221.046c-0.021-6.273-1.733-18.477-25-18.248h-63.373
		l-0.146,19.309l-0.45,0.392l11.104,33.316c2.155,1.417,2.393,3.363,2.393,3.363v5.791l0.001,0.014l75.528-22.345
		C764.572,242.638,764.523,223.109,764.515,221.046z"/>
	<path fill="#CCCCCC" stroke="#FFFFFF" stroke-miterlimit="10" d="M449.504,342.882l-0.022-10.793
		c-0.025-10.276-6.472-10.729-25.268-10.543l-25.222,0.254l0.09,35.642L449.504,342.882z"/>
	<polygon fill="#CCCCCC" stroke="#FFFFFF" stroke-miterlimit="10" points="196.805,202.797 197.02,246.555 222.155,246.555 
		222.027,202.797 	"/>
	<polygon fill="#CCCCCC" stroke="#FFFFFF" stroke-miterlimit="10" points="689.042,264.838 764.476,242.723 764.613,291.899 
		751.818,291.801 751.818,280.951 715.662,281.027 715.662,292.536 689.042,292.536 	"/>
	<path fill="#CCCCCC" stroke="#FFFFFF" stroke-miterlimit="10" d="M651.238,308.514l-49.918,0.942
		c-13.146-0.328-25.729,10.592-25.771,21.396l0.139,21.584l75.662,10.108L651.238,308.514z"/>
	<path fill="#CCCCCC" stroke="#FFFFFF" stroke-miterlimit="10" d="M477.179,286.885l-6.021-12.338c0,0-3.347-4.193,6.99-4.094
		c10.327,0.1,28.387,0.061,28.387,0.061s5.787-0.061,5.024,3.203c-0.762,3.262-0.039,3.711-5.674,6.238
		c-5.629,2.53-19.931,8.683-19.931,8.683S479.406,291.459,477.179,286.885"/>
</g>
<g id="rooms">
	<polygon id="r505" fill="#939598" stroke="#FFFFFF" stroke-width="0.5" stroke-miterlimit="10" points="285.135,214.995 
		267.168,215.27 267.3,246.555 285.328,246.555 	"/>
	<polygon id="r504" fill="#939598" stroke="#FFFFFF" stroke-width="0.5" stroke-miterlimit="10" points="267.168,215.272 
		259.896,215.247 259.872,202.797 222.027,202.797 222.155,246.555 267.3,246.555 	"/>
	<path id="r522" fill="#939598" stroke="#FFFFFF" stroke-width="0.5" stroke-miterlimit="10" d="M220.806,334.652h64.782v20.639
		l-12.644,0.131l0.063,21.592l12.58-0.133v24.805c0,0-36.151,19.24-64.782,20.525V334.652L220.806,334.652z"/>
	<polygon id="r523" fill="#939598" stroke="#FFFFFF" stroke-width="0.5" stroke-miterlimit="10" points="184.578,334.652 
		220.806,334.652 220.806,422.21 184.835,422.21 	"/>
	<polygon id="r524" fill="#939598" stroke="#FFFFFF" stroke-width="0.5" stroke-miterlimit="10" points="133.731,334.652 
		184.576,334.652 184.835,422.21 134.042,422.21 	"/>
	<path id="r514" fill="#939598" stroke="#FFFFFF" stroke-width="0.5" stroke-miterlimit="10" d="M663.628,232.839l0.065,21.584
		c0,0,8.963,0.033,16.866-0.055c2.916-0.03,4.83,0.618,6.091,1.447l-11.104-33.316L663.628,232.839z"/>
	<path id="r513" fill="#939598" stroke="#FFFFFF" stroke-width="0.5" stroke-miterlimit="10" d="M550.001,202.797l0.089,43.758
		h50.467l-0.053-18.648H594.2l0.022-10.668h-6.211v-14.441C588.013,202.797,554.029,202.733,550.001,202.797"/>
	<polygon id="r512" fill="#939598" stroke="#FFFFFF" stroke-width="0.5" stroke-miterlimit="10" points="512.535,202.797 
		512.535,246.555 550.09,246.555 550.001,202.797 	"/>
	<rect id="r511" x="474.427" y="202.797" fill="#939598" stroke="#FFFFFF" stroke-width="0.5" stroke-miterlimit="10" width="38.106" height="43.758"/>
	<rect id="r510" x="436.518" y="202.797" fill="#939598" stroke="#FFFFFF" stroke-width="0.5" stroke-miterlimit="10" width="37.91" height="43.758"/>
	<rect id="r509" x="398.619" y="202.797" fill="#939598" stroke="#FFFFFF" stroke-width="0.5" stroke-miterlimit="10" width="37.897" height="43.758"/>
	<polygon id="r508" fill="#939598" stroke="#FFFFFF" stroke-width="0.5" stroke-miterlimit="10" points="398.619,246.555 
		360.917,246.555 360.782,202.797 398.619,202.797 	"/>
	<path id="r517" fill="#939598" stroke="#FFFFFF" stroke-width="0.5" stroke-miterlimit="10" d="M651.351,362.544l-0.112-54.03
		l25.627,0.082c12.215-0.455,12.187-0.822,12.179-16.06h26.618v7.879h36.156v-8.703l12.892,0.104l-1.259,8.397l-14.01,42.121
		c-6.545,22.121-34.356,18.988-47.586,19.648L651.351,362.544z"/>
	<path id="r501" fill="#939598" stroke="#FFFFFF" stroke-width="0.5" stroke-miterlimit="10" d="M89.661,233.112
		c-22.963,19.924-50.237,70.654-50.237,70.654l31.523-0.312l0.034,10.795L96.21,314l25.396-0.252
		c-0.219-35.959,5.297-53.608,23.929-61.53v-49.382C124.9,203.668,95.148,228.35,89.661,233.112z"/>
	<path id="r502" fill="#939598" stroke="#FFFFFF" stroke-width="0.5" stroke-miterlimit="10" d="M197.018,246.556l-0.213-43.758
		c-12.616,0.123-50.464,0-50.464,0c-0.265,0.002-0.538,0.027-0.807,0.038v49.382c9.331-3.967,21.946-5.498,38.786-5.662v0.001
		L197.018,246.556L197.018,246.556z"/>
	<path id="r525" fill="#939598" stroke="#FFFFFF" stroke-width="0.5" stroke-miterlimit="10" d="M121.468,324.542l-37.843,0.369
		L20.71,379.503c0.357,18.076-2.042,38.377,16.403,42.707c5.565,1.301,96.926,0,96.926,0l0.073-87.56
		C126.991,334.725,121.5,335.335,121.468,324.542"/>
	<path id="r521" fill="#939598" stroke="#FFFFFF" stroke-width="0.5" stroke-miterlimit="10" d="M334.935,376.387v-43.179
		l13.634-0.117l-0.053-10.766l25.236-0.277c0,0,11.993-0.116,12.628-0.125c6.954-0.075,12.611-0.123,12.611-0.123l0.09,35.646
		L334.935,376.387z"/>
	<polygon id="r507" fill="#939598" stroke="#FFFFFF" stroke-width="0.5" stroke-miterlimit="10" points="360.917,246.555 
		323.135,246.555 322.936,202.797 360.782,202.797 	"/>
	<polygon id="r506" fill="#939598" stroke="#FFFFFF" stroke-width="0.5" stroke-miterlimit="10" points="323.256,225.321 
		298.036,225.321 298.103,246.555 323.383,246.555 	"/>
	<path id="r526" fill="#939598" stroke="#FFFFFF" stroke-width="0.5" stroke-miterlimit="10" d="M637.508,273.787l25.64-1.262
		c0,0,6.356-0.314,5.68,2.773c-0.674,3.087-1.476,13.313-1.476,13.313s-0.836,5.623-7.834,5.738
		c-4.17,0.068-24.592,0.932-24.592,0.932s-3.59-0.348-3.267-4.287c0.322-3.939,2.295-14.124,2.295-14.124
		S635.211,273.902,637.508,273.787"/>
	<polygon id="r519" fill="#939598" stroke="#FFFFFF" stroke-width="0.5" stroke-miterlimit="10" points="449.504,329.525 
		470.643,329.525 470.643,343.279 449.504,342.882 	"/>
</g>
<g id="signs">
	<g id="lift">
		<rect id="lift-2" x="646.322" y="210.064" opacity="0.8" enable-background="new    " width="14.812" height="14.811"/>
		<rect id="lift-1" x="315.531" y="330.955" opacity="0.8" enable-background="new    " width="14.812" height="14.811"/>
	</g>
	<g id="toilet">
		<rect id="toilet-2" x="621.984" y="210.064" opacity="0.8" enable-background="new    " width="14.812" height="14.811"/>
		<rect id="toilet-1" x="39.843" y="308.49" opacity="0.8" enable-background="new    " width="14.812" height="14.809"/>
	</g>
	<g id="escalator">
		<rect id="escalator-2" x="237.612" y="253.328" opacity="0.8" enable-background="new    " width="14.811" height="14.809"/>
		<rect id="escalator-1" x="613.578" y="277.051" opacity="0.8" enable-background="new    " width="14.812" height="14.809"/>
	</g>
	<g id="atm">
		<rect id="atm-2" x="599.324" y="210.064" opacity="0.8" enable-background="new    " width="14.812" height="14.811"/>
		<rect id="atm-1" x="39.843" y="328.664" opacity="0.8" enable-background="new    " width="14.812" height="14.809"/>
	</g>
</g>
</svg>
