<?xml version="1.0" encoding="utf-8"?>
<!-- Generator: Adobe Illustrator 16.0.0, SVG Export Plug-In . SVG Version: 6.00 Build 0)  -->
<!DOCTYPE svg PUBLIC "-//W3C//DTD SVG 1.1//EN" "http://www.w3.org/Graphics/SVG/1.1/DTD/svg11.dtd">
<svg version="1.1" id="Layer_1" xmlns="http://www.w3.org/2000/svg" xmlns:xlink="http://www.w3.org/1999/xlink" x="0px" y="0px"
	 width="878.74px" height="595.281px" viewBox="0 0 878.74 595.281" enable-background="new 0 0 878.74 595.281"
	 xml:space="preserve">
<g id="background">
	<rect x="-0.998" y="0" fill="#FFFFFF" width="878.74" height="595.281"/>
</g>
<g id="etc">
	<path fill="#C7DFF3" stroke="#FFFFFF" stroke-miterlimit="10" d="M331.266,380.732v-21.576l13.117,0.051l0.049-21.344
		c0,0-52.419,4.224-63.563,10.429l0.097,64.276h63.518l-0.067-31.836H331.266L331.266,380.732z"/>
	<rect x="255.334" y="230.906" fill="#C7DFF3" stroke="#FFFFFF" stroke-miterlimit="10" width="25.399" height="21.578"/>
	<polygon fill="#C7DFF3" stroke="#FFFFFF" stroke-miterlimit="10" points="629.785,235.44 629.808,251.417 648.813,251.478 
		641.078,241.73 	"/>
	<polygon fill="#C7DFF3" stroke="#FFFFFF" stroke-miterlimit="10" points="653.211,242.581 659.844,250.411 691.109,250.517 
		684.703,242.581 	"/>
	<path fill="#C7DFF3" stroke="#FFFFFF" stroke-miterlimit="10" d="M766.751,304.746l-0.023-10.672h38.104l0.011,10.672H766.751z
		 M817.545,304.873l-12.832-32.042H779.4l-0.029-21.448l16.714,0.321c0,0-0.332,0.095-1.565-4.025
		c-1.234-4.118-11.125-16.889-24.72-18.539l-46.022-5.982L652.516,352.48l101.451,16.008c0,0,9.651,1.547,25.267-10.182
		L817.545,304.873z"/>
	<rect x="230.094" y="230.906" fill="#C7DFF3" stroke="#FFFFFF" stroke-miterlimit="10" width="25.239" height="21.578"/>
	<rect x="204.741" y="209.91" fill="#C7DFF3" stroke="#FFFFFF" stroke-miterlimit="10" width="25.354" height="42.574"/>
	<path fill="#C7DFF3" stroke="#FFFFFF" stroke-miterlimit="10" d="M141.146,209.91l-0.05,31.087c0,0,0.021,11.438,12.714,11.487
		h50.931V209.91H141.146z"/>
	<polygon fill="#C7DFF3" stroke="#FFFFFF" stroke-miterlimit="10" points="192.042,315.924 166.526,305.167 166.594,347.832 
		192.042,347.934 	"/>
	<polygon fill="#C7DFF3" stroke="#FFFFFF" stroke-miterlimit="10" points="77.587,272.812 77.631,304.816 90.34,304.863 
		90.36,326.275 128.463,326.275 128.5,347.686 166.598,347.826 166.526,305.167 	"/>
	<path fill="#C7DFF3" stroke="#FFFFFF" stroke-miterlimit="10" d="M216.479,370.16l-13.314-11.225l13.716-12.613l3.442,2.904
		c0,0,10.641,8.803,1.989,16.043L216.479,370.16z"/>
	<path fill="#C7DFF3" stroke="#FFFFFF" stroke-miterlimit="10" d="M90.594,378.59l-0.052-31.179l101.499,0.381v-32l22.497,13.255
		c10.732,9.052,3.172,16.584,3.172,16.584l-25.529,23.5c-15.049,10.73-25.385,10.571-25.385,10.571L90.594,378.59z"/>
	<path fill="#C7DFF3" stroke="#FFFFFF" stroke-miterlimit="10" d="M547.683,412.568H433.385l-0.108-73.84l90.082,16.35
		c0,0,7.836,1.845,14.768,7.287l31.478,30.236c0,0,3.271,4.213,0.533,10.221C570.133,402.822,561.621,412.605,547.683,412.568z"/>
	<polygon fill="#C7DFF3" stroke="#FFFFFF" stroke-miterlimit="10" points="433.273,338.73 407.97,337.781 407.97,412.568 
		433.38,412.568 	"/>
	<polygon fill="#C7DFF3" stroke="#FFFFFF" stroke-miterlimit="10" points="369.492,338.027 369.503,348.693 382.195,348.744 
		382.233,370.01 369.536,370.031 369.696,412.568 407.97,412.568 407.97,337.867 	"/>
	<path fill="#C7DFF3" stroke="#FFFFFF" stroke-miterlimit="10" d="M280.885,348.275c0,0-16.489,5.307-25.397,10.576l0.094,53.717
		h25.399L280.885,348.275z"/>
	<path fill="#C7DFF3" stroke="#FFFFFF" stroke-miterlimit="10" d="M204.789,412.568c-13.636,0.023-13.36-16.313-13.36-16.313
		c1.043-11.964,13.732-16.304,13.732-16.304l17.107-6.512l33.234-14.604l0.087,53.729L204.789,412.568L204.789,412.568z"/>
	<polygon fill="#C7DFF3" stroke="#FFFFFF" stroke-miterlimit="10" points="610.845,242.937 598.351,242.708 598.158,209.91 
		560.207,209.91 560.207,252.484 610.861,252.484 	"/>
	<rect x="522.101" y="209.91" fill="#C7DFF3" stroke="#FFFFFF" stroke-miterlimit="10" width="38.104" height="42.574"/>
	<rect x="484.042" y="209.91" fill="#C7DFF3" stroke="#FFFFFF" stroke-miterlimit="10" width="38.06" height="42.574"/>
	<rect x="445.966" y="209.91" fill="#C7DFF3" stroke="#FFFFFF" stroke-miterlimit="10" width="38.076" height="42.574"/>
	<polygon fill="#C7DFF3" stroke="#FFFFFF" stroke-miterlimit="10" points="395.148,252.484 445.966,252.484 445.966,209.91 
		420.384,209.91 420.384,231.409 395.124,231.278 	"/>
	<polygon fill="#C7DFF3" stroke="#FFFFFF" stroke-miterlimit="10" points="395.234,252.484 369.869,252.484 369.869,209.91 
		420.384,209.91 420.384,231.336 395.206,231.21 	"/>
	<rect x="344.505" y="209.91" fill="#C7DFF3" stroke="#FFFFFF" stroke-miterlimit="10" width="25.364" height="42.574"/>
	<rect x="318.708" y="209.91" fill="#C7DFF3" stroke="#FFFFFF" stroke-miterlimit="10" width="25.796" height="42.574"/>
	<rect x="293.351" y="230.906" fill="#C7DFF3" stroke="#FFFFFF" stroke-miterlimit="10" width="25.358" height="21.578"/>
	<path fill="#C7DFF3" stroke="#FFFFFF" stroke-miterlimit="10" d="M527.32,294.943l-8.521-17.311c0,0-4.737-5.904,9.931-5.573
		c14.659,0.333,40.297,0.632,40.297,0.632s8.207,0.025,7.114,4.561c-1.092,4.531-0.063,5.17-8.063,8.585
		c-8.005,3.414-28.312,11.708-28.312,11.708S530.472,301.357,527.32,294.943z"/>
	<polygon fill="#C7DFF3" stroke="#FFFFFF" stroke-miterlimit="10" points="70.534,272.583 93.032,220.392 60.471,220.392 
		43.257,221.864 35.421,261.136 	"/>
	<path fill="#EEEADB" d="M723.773,223.158L598.158,209.91c0,0-451.682,0.354-459.923-0.13c-14.006-0.825-15.652,0-22.247,0
		c-13.303,0-21.034,6.393-27.19,18.949c-7.049,14.377-23.881,56.186-27.497,71.742c-4.271,18.381-1.146,32.034,1.477,50.168
		c0.929,6.424-0.259,14.51,4.61,19.594c4.453,4.651,11.771,7.369,18.02,8.535c0,0,71.396,0.828,83.287,0.825
		c0.256,0,7.821-2.127,8.082-2.144c0.599,0,4.06-1.819,4.456-1.979c6.103-2.475,22.509-16.4,22.509-16.4l16.726,15.332
		l-20.431,8.492c-11.876,6.104-12.369,28.864,3.959,29.522c14.391,0.581,128.667,0.284,141.466,0.051c0.584-0.011,25.544,0,25.544,0
		l177.977,0.412c0,0,8.791-1.483,14.004-4.532c1.365-0.63,6.291-6.054,7.416-7.002c6.711-5.65-7.006-14.832-7.006-14.832
		l-46.646-35.367c9.104-9.75,31.246-27.153,42.08-23.541c6.662,2.224,15.185,5.556,25.714,8.91l70.317,16.629
		c0,0,100.521,17.717,105.463,15.244c3.418-1.712,16.894-8.65,16.894-8.65l40.332-54.861l-12.832-32.043l-12.258-30.507
		c0,0-12.722-12.209-17.304-12.771C760.517,227.763,734.667,224.577,723.773,223.158z"/>
	<path fill="#CCCCCC" d="M260.215,345.287c0,3.203-2.598,5.8-5.803,5.8c-3.201,0-5.799-2.597-5.799-5.8
		c0-3.202,2.598-5.799,5.799-5.799C257.617,339.488,260.215,342.083,260.215,345.287"/>
	<path fill="#CCCCCC" d="M559.308,312.74c0,3.203-2.596,5.799-5.797,5.799c-3.207,0-5.799-2.596-5.799-5.799
		s2.592-5.801,5.799-5.801C556.713,306.939,559.308,309.537,559.308,312.74"/>
	<path fill="#CCCCCC" d="M494.22,271.066c0,3.204-2.599,5.799-5.799,5.799c-3.207,0-5.8-2.595-5.8-5.799s2.593-5.8,5.8-5.8
		C491.623,265.267,494.22,267.863,494.22,271.066"/>
	<path fill="#FFFFFF" d="M393.989,282.988c0,0-5.602-10.883-13.16-10.964l-35.819-0.098c0,0-6.845-1.031-10.581,5.303l-15.885,26.91
		c0,0,2.236,3.959,3.077,5.437c3.109,5.496,9.366,5.528,9.366,5.528l68.894,0.756c0,0,12.504,0.125,6.354-10.762L393.989,282.988z"
		/>
	<path fill="#FFFFFF" d="M288.19,271.508l-37.535-0.381l-55.124-0.5c0,0-4.794-0.292-8.007,3.411l-5.777,7.229
		c0,0-3.179,5.383,6.161,10.896l65.326,38.562c0,0,5.696,4.094,12.514,0.125l18.862-10.636l21.991-37.257
		C306.601,282.956,305.052,271.682,288.19,271.508z"/>
	<path fill="#FFFFFF" d="M494.369,305.998l-55.915-33.002c-18.752-11.07-22.053,5.175-18.943,10.587l12.132,22.083
		c0,0,5.789,7.98,14.188,10.673l35.832,11.19l18.863-10.653C500.525,316.876,503.697,311.504,494.369,305.998z"/>
	<path fill="#FFFFFF" d="M641.705,279.377l-44.786-0.463c0,0-5.229-0.063-8.406,5.32l-9.526,16.155c0,0-6.386,10.773,15.465,16.418
		l46.862,5.881c0,0,12.515,0.127,18.892-10.653l0.171-21.643C660.371,290.39,654.215,279.491,641.705,279.377z"/>
	<polygon fill="#CCCCCC" points="766.751,304.746 766.726,294.073 804.828,294.073 804.838,304.746 	"/>
	<polygon fill="#CCCCCC" stroke="#FFFFFF" stroke-miterlimit="10" points="70.813,272.604 93.298,220.438 60.754,220.438 
		43.55,221.911 35.718,261.164 	"/>
	<rect x="230.094" y="209.91" fill="#CCCCCC" width="88.613" height="20.997"/>
	<polygon fill="#CCCCCC" stroke="#FFFFFF" stroke-miterlimit="10" points="629.769,235.481 629.792,251.45 648.785,251.511 
		641.054,241.769 	"/>
</g>
<g id="rooms">
	
		<rect id="r204" x="264.015" y="230.367" fill="#939598" stroke="#FFFFFF" stroke-width="0.5" stroke-miterlimit="10" width="25.386" height="21.566"/>
	<polygon id="r215" fill="#939598" stroke="#FFFFFF" stroke-width="0.5" stroke-miterlimit="10" points="661.681,242.033 
		668.31,249.859 699.558,249.965 693.156,242.033 	"/>
	<path id="r216" fill="#939598" stroke="#FFFFFF" stroke-width="0.5" stroke-miterlimit="10" d="M775.162,304.168l-0.022-10.666
		h38.08l0.012,10.666H775.162z M825.929,304.293l-12.825-32.021h-25.3l-0.026-21.438l16.705,0.318c0,0-0.334,0.097-1.568-4.021
		c-1.235-4.118-11.116-16.881-24.705-18.528l-46-5.98l-71.221,129.253l101.396,16c0,0,9.646,1.546,25.25-10.176L825.929,304.293z"/>
	
		<rect id="r203" x="238.789" y="230.367" fill="#939598" stroke="#FFFFFF" stroke-width="0.5" stroke-miterlimit="10" width="25.228" height="21.566"/>
	
		<rect id="r202" x="213.449" y="209.383" fill="#939598" stroke="#FFFFFF" stroke-width="0.5" stroke-miterlimit="10" width="25.34" height="42.552"/>
	<path id="r201" fill="#939598" stroke="#FFFFFF" stroke-width="0.5" stroke-miterlimit="10" d="M149.888,209.383l-0.052,31.07
		c0,0,0.022,11.431,12.708,11.48h50.904v-42.552L149.888,209.383L149.888,209.383z"/>
	<polygon id="r224" fill="#939598" stroke="#FFFFFF" stroke-width="0.5" stroke-miterlimit="10" points="200.756,315.339 
		175.254,304.587 175.322,347.228 200.756,347.329 	"/>
	<polygon id="r225" fill="#939598" stroke="#FFFFFF" stroke-width="0.5" stroke-miterlimit="10" points="86.362,272.249 
		86.406,304.237 99.108,304.286 99.128,325.685 137.211,325.685 137.248,347.083 175.327,347.222 175.254,304.587 	"/>
	<g id="r223">
		<path fill="#939598" stroke="#FFFFFF" stroke-width="0.5" stroke-miterlimit="10" d="M225.182,369.544l-13.31-11.218
			l13.709-12.604l3.44,2.898c0,0,10.635,8.797,1.988,16.034L225.182,369.544z"/>
		<path fill="#939598" stroke="#FFFFFF" stroke-width="0.5" stroke-miterlimit="10" d="M99.362,377.97l-0.05-31.162l101.443,0.381
			v-31.979l22.485,13.243c10.727,9.048,3.17,16.574,3.17,16.574l-25.516,23.49c-15.041,10.727-25.372,10.563-25.372,10.563
			L99.362,377.97z"/>
	</g>
	<path id="r217" fill="#939598" stroke="#FFFFFF" stroke-width="0.5" stroke-miterlimit="10" d="M556.211,411.931h-114.24
		l-0.108-73.8l90.032,16.339c0,0,7.831,1.844,14.764,7.286l31.455,30.222c0,0,3.271,4.207,0.535,10.215
		C578.646,402.192,570.14,411.968,556.211,411.931z"/>
	<polygon id="r218" fill="#939598" stroke="#FFFFFF" stroke-width="0.5" stroke-miterlimit="10" points="441.86,338.132 
		416.571,337.181 416.571,411.931 441.968,411.931 	"/>
	<polygon id="r219" fill="#939598" stroke="#FFFFFF" stroke-width="0.5" stroke-miterlimit="10" points="378.114,337.427 
		378.124,348.091 390.81,348.14 390.849,369.397 378.157,369.419 378.317,411.931 416.571,411.931 416.571,337.269 	"/>
	<polygon id="r213" fill="#939598" stroke="#FFFFFF" stroke-width="0.5" stroke-miterlimit="10" points="619.34,242.39 
		606.851,242.163 606.658,209.383 568.726,209.383 568.726,251.934 619.354,251.934 	"/>
	
		<rect id="r212" x="530.64" y="209.383" fill="#939598" stroke="#FFFFFF" stroke-width="0.5" stroke-miterlimit="10" width="38.086" height="42.552"/>
	
		<rect id="r211" x="492.604" y="209.383" fill="#939598" stroke="#FFFFFF" stroke-width="0.5" stroke-miterlimit="10" width="38.036" height="42.552"/>
	
		<rect id="r210" x="454.548" y="209.383" fill="#939598" stroke="#FFFFFF" stroke-width="0.5" stroke-miterlimit="10" width="38.056" height="42.552"/>
	<polygon id="r209" fill="#939598" stroke="#FFFFFF" stroke-width="0.5" stroke-miterlimit="10" points="403.757,251.934 
		454.548,251.934 454.548,209.383 428.978,209.383 428.978,230.867 403.731,230.739 	"/>
	<polygon id="r208" fill="#939598" stroke="#FFFFFF" stroke-width="0.5" stroke-miterlimit="10" points="403.844,251.934 
		378.49,251.934 378.49,209.383 428.978,209.383 428.978,230.795 403.813,230.669 	"/>
	
		<rect id="r207" x="353.138" y="209.383" fill="#939598" stroke="#FFFFFF" stroke-width="0.5" stroke-miterlimit="10" width="25.354" height="42.552"/>
	
		<rect id="r206" x="327.357" y="209.383" fill="#939598" stroke="#FFFFFF" stroke-width="0.5" stroke-miterlimit="10" width="25.779" height="42.552"/>
	
		<rect id="r205" x="302.012" y="230.367" fill="#939598" stroke="#FFFFFF" stroke-width="0.5" stroke-miterlimit="10" width="25.345" height="21.566"/>
	<path id="r227" fill="#939598" stroke="#FFFFFF" stroke-width="0.5" stroke-miterlimit="10" d="M535.857,294.368l-8.515-17.299
		c0,0-4.735-5.901,9.92-5.573c14.654,0.332,40.276,0.632,40.276,0.632s8.201,0.029,7.111,4.561c-1.093,4.526-0.063,5.168-8.062,8.58
		c-8,3.411-28.295,11.7-28.295,11.7S539.008,300.78,535.857,294.368z"/>
	<path id="r222" fill="#939598" stroke="#FFFFFF" stroke-width="0.5" stroke-miterlimit="10" d="M213.497,411.931
		c-13.629,0.021-13.354-16.307-13.354-16.307c1.042-11.956,13.726-16.297,13.726-16.297l17.099-6.509l33.218-14.592l0.087,53.7
		L213.497,411.931L213.497,411.931z"/>
	<path id="r220" fill="#939598" stroke="#FFFFFF" stroke-width="0.5" stroke-miterlimit="10" d="M339.907,380.112v-21.564
		l13.109,0.048l0.05-21.326c0,0-52.396,4.217-63.53,10.416l0.097,64.246h63.481l-0.066-31.818L339.907,380.112L339.907,380.112z"/>
	<path id="r221" fill="#939598" stroke="#FFFFFF" stroke-width="0.5" stroke-miterlimit="10" d="M289.553,347.671
		c0,0-16.481,5.308-25.385,10.571l0.095,53.688h25.386L289.553,347.671z"/>
	<polygon id="k201" fill="#939598" stroke="#FFFFFF" stroke-width="0.5" stroke-miterlimit="10" points="319.495,287.534 
		325.313,287.395 332.761,274.93 326.939,274.944 	"/>
	<polygon id="k202" fill="#939598" stroke="#FFFFFF" stroke-width="0.5" stroke-miterlimit="10" points="311.025,301.601 
		316.844,301.461 324.291,288.996 318.469,289.01 	"/>
	<polygon id="k203" fill="#939598" stroke="#FFFFFF" stroke-width="0.5" stroke-miterlimit="10" points="482.8,278.434 
		486.464,286.484 502.408,286.047 498.857,277.882 	"/>
	<polygon id="k204" fill="#939598" stroke="#FFFFFF" stroke-width="0.5" stroke-miterlimit="10" points="514.057,290.67 
		517.927,298.623 533.854,297.776 530.095,289.705 	"/>
</g>
<g id="signs">
	<g id="escalator">
		<rect id="escalator-2" x="664.717" y="277.966" opacity="0.8" enable-background="new    " width="14.813" height="14.812"/>
		<rect id="escalator-1" x="259.762" y="254.427" opacity="0.8" enable-background="new    " width="14.811" height="14.813"/>
	</g>
	<rect id="atm" x="645.777" y="220.438" opacity="0.8" enable-background="new    " width="14.812" height="14.811"/>
	<g id="lift">
		<rect id="lift-2" x="624.469" y="220.438" opacity="0.8" enable-background="new    " width="14.813" height="14.811"/>
		<rect id="lift-1" x="363.363" y="350.813" opacity="0.8" enable-background="new    " width="14.812" height="14.813"/>
	</g>
	<g id="toilet">
		<rect id="toilet-2" x="604.42" y="220.438" opacity="0.8" enable-background="new    " width="14.813" height="14.811"/>
		<rect id="toilet-1" x="70.457" y="343.408" opacity="0.8" enable-background="new    " width="14.812" height="14.812"/>
	</g>
	<rect id="entrance" x="51.789" y="235.289" opacity="0.8" enable-background="new    " width="14.812" height="14.813"/>
</g>
</svg>
