<?xml version="1.0" encoding="utf-8"?>
<!-- Generator: Adobe Illustrator 16.0.0, SVG Export Plug-In . SVG Version: 6.00 Build 0)  -->
<!DOCTYPE svg PUBLIC "-//W3C//DTD SVG 1.1//EN" "http://www.w3.org/Graphics/SVG/1.1/DTD/svg11.dtd">
<svg version="1.1" id="Layer_1" xmlns="http://www.w3.org/2000/svg" xmlns:xlink="http://www.w3.org/1999/xlink" x="0px" y="0px"
	 width="878.74px" height="595.281px" viewBox="0 0 878.74 595.281" enable-background="new 0 0 878.74 595.281"
	 xml:space="preserve">
<g id="Background">
	<rect x="0" fill="#FFFFFF" width="878.74" height="595.281"/>
</g>
<g id="Original">
	<g>
		<g>
			<path fill="#EFEBDD" d="M734.832,369.107l23.66-54.955c0.808-1.898,1.709-6.303,1.609-7.924l-5.447-74.011
				c-0.651-7.851-4.582-12.315-12.811-14.2l-91.306-21.344c-1.604-0.364-3.352-0.014-5.215,0h-508.96l-10.955,11.283l-17.957,2.231
				c-6.758,0.069-13.813,2.996-13.884,8.781l-0.553,43.993c-0.017,1.434,0.155,2.791,0.503,4.049l22.927,81.556
				c1.188,4.225,3.469,7.803,6.75,10.564l47.267,40.43c6.784,5.713,17.184,11.299,28.812,11.342h368.898
				c3.568,0.016,8.16-4.277,9.837-7.793l22.477-47.061c2.135-4.451,8.32-8.049,12.146-7.049l107.938,28.479
				C725.205,378.682,732.404,374.477,734.832,369.107"/>
			<rect x="242.997" y="196.674" fill="#CCCCCC" width="80.534" height="29.829"/>
			<path fill="#FFFFFF" d="M522.092,355.968l8.686-22.231c0.668-1.725,3.082-3.2,4.555-2.805l41.687,11.424l-17.297,36.162
				L522.092,355.968z M533.292,302.113l14.976-13.842c3.486-3.228,7.947-5.287,11.598-5.359l37.963-0.835
				c5.293-0.124,7.398,3.863,4.802,9.083l-17.829,35.753c-2.033,4.062-7.617,7.269-11.037,6.33l-42.672-11.672
				C523.667,319.541,524.746,310.003,533.292,302.113 M327.556,312.248c-2.132,1.787-4.683,2.922-6.845,3.063l-29.88,1.897
				c-3.472,0.217-6.357-0.526-8.326-2.17l-39.833-33.176c-2.191-1.83-1.467-5.709,1.744-9.273c2.945-3.262,7.332-5.355,10.566-5.032
				l101.565,10.118c5.103,0.507,4.614,6.507-0.898,11.111L327.556,312.248z M399.185,313.982l-33.569-3.766
				c-5.814-0.648-5.359-7.438,0.847-12.834l15.617-13.587c4.16-3.619,9.325-5.758,13.351-5.532l24.624,1.393
				c5.805,0.326,6.776,5.983,2.028,11.835l-15.039,18.526C404.982,312.559,401.617,314.253,399.185,313.982 M467.83,325.537
				l-38.855-6.219c-5.756-0.918-6.395-6.996-1.388-13.188l10.5-12.994c3.301-4.085,8.972-6.422,12.068-4.98l35.729,16.659
				c4.131,1.929,3.104,7.944-2.215,12.994l-2.328,2.219C477.213,323.923,471.751,326.156,467.83,325.537"/>
			<path fill="#C7DFF3" stroke="#FFFFFF" stroke-miterlimit="10" d="M605.955,350.128l-0.961-2.746l41.039-81.224h13.197V245.76
				l10.98,0.089v-44.233l71.633,16.402c7.301,1.7,12.239,7.128,12.811,14.2l5.447,74.011c0.227,2.771-0.15,4.636-1.609,7.924
				l-23.659,54.955c-2.212,4.964-9.957,9.416-14.265,8.371L605.955,350.128z"/>
			<path fill="#C7DFF3" stroke="#FFFFFF" stroke-miterlimit="10" d="M559.547,379.189l20.807,17.711l19.49-39.986
				c1.012-2.065,2.783-4.129,4.981-5.799l-0.957-2.752l-26.703-5.602L559.547,379.189z"/>
			<path fill="#C7DFF3" stroke="#FFFFFF" stroke-miterlimit="10" d="M500.777,348.875v62.027h66.736
				c3.473,0,7.924-3.654,9.487-7.102l2.972-6.572l-20.803-17.711C559.17,379.518,522.138,354.781,500.777,348.875"/>
			<path fill="#C7DFF3" stroke="#FFFFFF" stroke-miterlimit="10" d="M500.777,410.902h-20.951V344.07
				c12.769,2.486,20.951,4.48,20.951,4.48V410.902z"/>
			<path fill="#C7DFF3" stroke="#FFFFFF" stroke-miterlimit="10" d="M479.826,410.902h-24.061V340.25
				c8.924,1.381,17.348,2.836,24.061,4.146V410.902z"/>
			<path fill="#C7DFF3" stroke="#FFFFFF" stroke-miterlimit="10" d="M455.765,410.902h-24.633v-73.545
				c8.527,0.932,17.086,2.043,24.633,3.217V410.902z"/>
			<path fill="#C7DFF3" stroke="#FFFFFF" stroke-miterlimit="10" d="M590.455,263.77c0,0-15.079,0.94-42.989,1.336v-68.432h32.696
				v59.393l10.294,0.113L590.455,263.77L590.455,263.77z"/>
			<path fill="#C7DFF3" stroke="#FFFFFF" stroke-miterlimit="10" d="M547.465,265.328c-5.636,0.08-12.062,0.133-18.755,0.157
				v-68.811h18.755V265.328z"/>
			<path fill="#C7DFF3" stroke="#FFFFFF" stroke-miterlimit="10" d="M528.711,265.702c-5.419,0.017-11.115,0.021-17.214-0.017
				v-0.005v-69.006h17.214V265.702z"/>
			<path fill="#C7DFF3" stroke="#FFFFFF" stroke-miterlimit="10" d="M511.498,265.354c-10.963-0.056-22.637-0.21-35.754-0.495
				v-68.186h35.754V265.354z"/>
			<polygon fill="#C7DFF3" stroke="#FFFFFF" stroke-miterlimit="10" points="288.385,252.039 273.19,250.871 273.19,226.503 
				288.305,226.503 			"/>
			<polygon fill="#C7DFF3" stroke="#FFFFFF" stroke-miterlimit="10" points="273.19,250.871 242.997,248.539 242.997,226.503 
				273.19,226.503 			"/>
			<polygon fill="#C7DFF3" stroke="#FFFFFF" stroke-miterlimit="10" points="242.997,248.539 213.455,246.245 213.455,196.674 
				242.997,196.674 242.997,226.503 			"/>
			<path fill="#C7DFF3" stroke="#FFFFFF" stroke-miterlimit="10" d="M213.455,246.573l-33.909-2.651
				c-8.767-0.686-15.054-4.688-17.672-11.263l-13.414-35.986h64.995V246.573L213.455,246.573z"/>
			<polygon fill="#C7DFF3" stroke="#FFFFFF" stroke-miterlimit="10" points="375.6,410.902 328.152,410.902 328.152,334.818 
				369.238,334.818 369.238,391.695 375.649,391.695 			"/>
			<path fill="#C7DFF3" stroke="#FFFFFF" stroke-miterlimit="10" d="M431.133,410.902h-37.936v-46.891h5.46v-20.568h-16.714v-8.225
				c16.396-0.361,33.375,0.734,49.189,2.469V410.902z"/>
			<rect x="287.706" y="334.818" fill="#C7DFF3" stroke="#FFFFFF" stroke-miterlimit="10" width="40.446" height="76.084"/>
			<rect x="269.818" y="334.818" fill="#C7DFF3" stroke="#FFFFFF" stroke-miterlimit="10" width="17.888" height="76.084"/>
			<rect x="251.959" y="334.818" fill="#C7DFF3" stroke="#FFFFFF" stroke-miterlimit="10" width="17.859" height="76.084"/>
			<path fill="#C7DFF3" stroke="#FFFFFF" stroke-miterlimit="10" d="M251.959,410.902h-41.606v-76.084
				c2.854,0.506,5.622,0.01,8.589,0h33.019L251.959,410.902L251.959,410.902z"/>
			<path fill="#C7DFF3" stroke="#FFFFFF" stroke-miterlimit="10" d="M210.352,410.902L210.352,410.902
				c-16.064,0.029-30.779-3.721-39.891-11.863v-1.115v-68.209l18.652-14.948c-0.375,10.563,9.588,17.996,21.238,20.053V410.902
				L210.352,410.902z"/>
			<path fill="#C7DFF3" stroke="#FFFFFF" stroke-miterlimit="10" d="M108.02,320.109l20.454,0.121v6.871h28.144l28.282-21.105
				l-3.49-10.018c-2.507-7.233-8.372-12.227-16.792-14.317l-71.563-17.463c0,0,1.592,7.322,2.344,8.339L108.02,320.109z"/>
			<path fill="#C7DFF3" stroke="#FFFFFF" stroke-miterlimit="10" d="M475.744,264.536c-5.813-0.136-11.446-0.445-17.692-0.624
				v-67.239h17.692V264.536z"/>
			<path fill="#C7DFF3" stroke="#FFFFFF" stroke-miterlimit="10" d="M458.051,263.913c-5.429-0.159-10.855-0.5-16.587-0.717v-66.522
				h16.587V263.913z"/>
			<path fill="#C7DFF3" stroke="#FFFFFF" stroke-miterlimit="10" d="M441.464,263.196c-6.128-0.205-12.026-0.775-18.485-1.064
				v-65.458h18.485V263.196z"/>
			<path fill="#C7DFF3" stroke="#FFFFFF" stroke-miterlimit="10" d="M422.979,262.131c-5.722-0.232-11.2-0.828-17.197-1.118v-64.339
				h17.197V262.131z"/>
			<path fill="#C7DFF3" stroke="#FFFFFF" stroke-miterlimit="10" d="M405.782,261.016c-13.432-0.666-27.355-1.449-42.105-2.388
				v-61.954h42.105V261.016z"/>
			<path fill="#C7DFF3" stroke="#FFFFFF" stroke-miterlimit="10" d="M363.677,258.302c-13.303-0.84-25.82-1.017-40.146-2.11v-59.518
				h40.146V258.302z"/>
			<path fill="#C7DFF3" stroke="#FFFFFF" stroke-miterlimit="10" d="M323.53,256.192c-8.712-0.671-16.172-0.336-25.257-1.113
				v-28.576h25.257V256.192z"/>
			<path fill="#C7DFF3" stroke="#FFFFFF" stroke-miterlimit="10" d="M605.955,350.128l-0.961-2.746l41.039-81.224h13.197V245.76
				l10.98,0.089v-44.233l71.633,16.402c7.301,1.7,12.239,7.128,12.811,14.2l5.447,74.011c0.227,2.771-0.15,4.636-1.609,7.924
				l-23.659,54.955c-2.212,4.964-9.957,9.416-14.265,8.371L605.955,350.128z"/>
			<path fill="#C7DFF3" stroke="#FFFFFF" stroke-miterlimit="10" d="M559.547,379.189l20.807,17.711l19.49-39.986
				c1.012-2.065,2.783-4.129,4.981-5.799l-0.957-2.752l-26.703-5.602L559.547,379.189z"/>
			<path fill="#C7DFF3" stroke="#FFFFFF" stroke-miterlimit="10" d="M500.777,348.875v62.027h66.736
				c3.473,0,7.924-3.654,9.487-7.102l2.972-6.572l-20.803-17.711C559.17,379.518,522.138,354.781,500.777,348.875"/>
			<path fill="#C7DFF3" stroke="#FFFFFF" stroke-miterlimit="10" d="M500.777,410.902h-20.951V344.07
				c12.769,2.486,20.951,4.48,20.951,4.48V410.902z"/>
			<path fill="#C7DFF3" stroke="#FFFFFF" stroke-miterlimit="10" d="M479.826,410.902h-24.061V340.25
				c8.924,1.381,17.348,2.836,24.061,4.146V410.902z"/>
			<path fill="#C7DFF3" stroke="#FFFFFF" stroke-miterlimit="10" d="M455.765,410.902h-24.633v-73.545
				c8.527,0.932,17.086,2.043,24.633,3.217V410.902z"/>
			<path fill="#C7DFF3" stroke="#FFFFFF" stroke-miterlimit="10" d="M590.455,263.77c0,0-15.079,0.94-42.989,1.336v-68.432h32.696
				v59.393l10.294,0.113L590.455,263.77L590.455,263.77z"/>
			<path fill="#C7DFF3" stroke="#FFFFFF" stroke-miterlimit="10" d="M547.465,265.328c-5.636,0.08-12.062,0.133-18.755,0.157
				v-68.811h18.755V265.328z"/>
			<path fill="#C7DFF3" stroke="#FFFFFF" stroke-miterlimit="10" d="M528.711,265.702c-5.419,0.017-11.115,0.021-17.214-0.017
				v-0.005v-69.006h17.214V265.702z"/>
			<path fill="#C7DFF3" stroke="#FFFFFF" stroke-miterlimit="10" d="M511.498,265.354c-10.963-0.056-22.637-0.21-35.754-0.495
				v-68.186h35.754V265.354z"/>
			<polygon fill="#C7DFF3" stroke="#FFFFFF" stroke-miterlimit="10" points="288.385,252.039 273.19,250.871 273.19,226.503 
				288.305,226.503 			"/>
			<polygon fill="#C7DFF3" stroke="#FFFFFF" stroke-miterlimit="10" points="273.19,250.871 242.997,248.539 242.997,226.503 
				273.19,226.503 			"/>
			<polygon fill="#C7DFF3" stroke="#FFFFFF" stroke-miterlimit="10" points="242.997,248.539 213.455,246.245 213.455,196.674 
				242.997,196.674 242.997,226.503 			"/>
			<path fill="#C7DFF3" stroke="#FFFFFF" stroke-miterlimit="10" d="M213.455,246.573l-33.909-2.651
				c-8.767-0.686-15.054-4.688-17.672-11.263l-13.414-35.986h64.995V246.573L213.455,246.573z"/>
			<polygon fill="#C7DFF3" stroke="#FFFFFF" stroke-miterlimit="10" points="375.6,410.902 328.152,410.902 328.152,334.818 
				369.238,334.818 369.238,391.695 375.649,391.695 			"/>
			<path fill="#C7DFF3" stroke="#FFFFFF" stroke-miterlimit="10" d="M431.133,410.902h-37.936v-46.891h5.46v-20.568h-16.714v-8.225
				c16.396-0.361,33.375,0.734,49.189,2.469V410.902z"/>
			<rect x="287.706" y="334.818" fill="#C7DFF3" stroke="#FFFFFF" stroke-miterlimit="10" width="40.446" height="76.084"/>
			<rect x="269.818" y="334.818" fill="#C7DFF3" stroke="#FFFFFF" stroke-miterlimit="10" width="17.888" height="76.084"/>
			<rect x="251.959" y="334.818" fill="#C7DFF3" stroke="#FFFFFF" stroke-miterlimit="10" width="17.859" height="76.084"/>
			<path fill="#C7DFF3" stroke="#FFFFFF" stroke-miterlimit="10" d="M251.959,410.902h-41.606v-76.084
				c2.854,0.506,5.622,0.01,8.589,0h33.019L251.959,410.902L251.959,410.902z"/>
			<path fill="#C7DFF3" stroke="#FFFFFF" stroke-miterlimit="10" d="M210.352,410.902L210.352,410.902
				c-16.064,0.029-30.779-3.721-39.891-11.863v-1.115v-68.209l18.652-14.948c-0.375,10.563,9.588,17.996,21.238,20.053V410.902
				L210.352,410.902z"/>
			<path fill="#C7DFF3" stroke="#FFFFFF" stroke-miterlimit="10" d="M108.02,320.109l20.454,0.121v6.871h28.144l28.282-21.105
				l-3.49-10.018c-2.507-7.233-8.372-12.227-16.792-14.317l-71.563-17.463l0.786,3.955
				C93.835,269.456,108.02,320.109,108.02,320.109z"/>
			<path fill="#C7DFF3" stroke="#FFFFFF" stroke-miterlimit="10" d="M475.744,264.536c-5.813-0.136-11.446-0.445-17.692-0.624
				v-67.239h17.692V264.536z"/>
			<path fill="#C7DFF3" stroke="#FFFFFF" stroke-miterlimit="10" d="M458.051,263.913c-5.429-0.159-10.855-0.5-16.587-0.717v-66.522
				h16.587V263.913z"/>
			<path fill="#C7DFF3" stroke="#FFFFFF" stroke-miterlimit="10" d="M441.464,263.196c-6.128-0.205-12.026-0.775-18.485-1.064
				v-65.458h18.485V263.196z"/>
			<path fill="#C7DFF3" stroke="#FFFFFF" stroke-miterlimit="10" d="M422.979,262.131c-5.722-0.232-11.2-0.828-17.197-1.118v-64.339
				h17.197V262.131z"/>
			<path fill="#C7DFF3" stroke="#FFFFFF" stroke-miterlimit="10" d="M405.782,261.016c-13.432-0.666-27.355-1.449-42.105-2.388
				v-61.954h42.105V261.016z"/>
			<path fill="#C7DFF3" stroke="#FFFFFF" stroke-miterlimit="10" d="M363.677,258.302c-13.303-0.84-25.82-1.017-40.146-2.11v-59.518
				h40.146V258.302z"/>
			<path fill="#C7DFF3" stroke="#FFFFFF" stroke-miterlimit="10" d="M323.53,256.192c-8.712-0.671-16.172-0.336-25.257-1.113
				v-28.576h25.257V256.192z"/>
			<path fill="#C7DFF3" stroke="#FFFFFF" stroke-miterlimit="10" d="M491.135,293.935l-5.599-11.502c0,0-3.104-3.914,6.451-3.776
				c9.543,0.14,26.244,0.188,26.244,0.188s5.346-0.026,4.65,3.004c-0.695,3.032-0.023,3.453-5.226,5.775
				c-5.198,2.328-18.399,7.977-18.399,7.977S493.217,298.197,491.135,293.935"/>
			<path fill="#C7DFF3" stroke="#FFFFFF" stroke-miterlimit="10" d="M199.488,260.615l22.613-0.014c0,0,8.564-0.99,1.447,6.796
				c-7.116,7.796-19.25,21.493-19.25,21.493s-3.806,4.399-8.198,2.622c-4.398-1.779-5.562-1.396-5.564-6.591
				c0-5.2,0.4-18.293,0.4-18.293S191.103,260.622,199.488,260.615"/>
		</g>
		<path fill="#999999" d="M247.673,320.43c0,3.204-2.598,5.799-5.799,5.799c-3.207,0-5.799-2.595-5.799-5.799
			c0-3.201,2.593-5.802,5.799-5.802C245.075,314.628,247.673,317.229,247.673,320.43"/>
		<path fill="#999999" d="M479.381,278.718c0,3.204-2.599,5.799-5.8,5.799c-3.207,0-5.801-2.595-5.801-5.799
			c0-3.204,2.594-5.802,5.801-5.802C476.783,272.916,479.381,275.514,479.381,278.718"/>
		<path fill="#999999" d="M500.806,324.867c0,3.199-2.599,5.799-5.799,5.799c-3.207,0-5.8-2.6-5.8-5.799
			c0-3.207,2.593-5.805,5.8-5.805C498.208,319.063,500.806,321.66,500.806,324.867"/>
		<path fill="#999999" d="M209.768,307.591c0,3.205-2.599,5.8-5.799,5.8c-3.206,0-5.8-2.595-5.8-5.8c0-3.202,2.594-5.801,5.8-5.801
			C207.17,301.791,209.768,304.389,209.768,307.591"/>
		<path fill="#EFEBDD" stroke="#FFFFFF" stroke-miterlimit="10" d="M125.409,207.957l-17.956,2.23
			c-6.759,0.07-13.813,2.996-13.885,8.782l-0.517,45.229l46.198,11.164c0,0,32.833,4.25-2.316-78.688h-0.569L125.409,207.957z"/>
	</g>
</g>
<g id="ETC">
	<path fill="none" d="M734.644,368.975l23.643-54.918c0.808-1.896,1.709-6.298,1.607-7.916l-5.441-73.958
		c-0.651-7.846-4.58-12.309-12.803-14.191l-91.242-21.328c-1.602-0.365-3.348-0.016-5.211,0H136.592l-10.945,11.275l-17.945,2.229
		c-6.753,0.07-13.803,2.994-13.875,8.775l-0.552,43.963c-0.016,1.434,0.157,2.789,0.504,4.043l22.911,81.5
		c1.187,4.223,3.467,7.799,6.743,10.559l47.234,40.402c6.779,5.707,17.17,11.291,28.79,11.334H568.1
		c3.563,0.016,8.154-4.275,9.83-7.789l22.459-47.027c2.133-4.447,8.313-8.043,12.137-7.043l107.865,28.459
		C725.021,378.542,732.217,374.339,734.644,368.975"/>
	<rect x="243.152" y="196.663" fill="none" width="80.477" height="29.807"/>
	<path fill="none" d="M522.051,355.843l8.682-22.215c0.666-1.723,3.078-3.198,4.549-2.803l41.658,11.416l-17.285,36.137
		L522.051,355.843z M533.246,302.027l14.964-13.833c3.483-3.223,7.942-5.283,11.59-5.355l37.938-0.836
		c5.289-0.119,7.394,3.861,4.797,9.077l-17.813,35.73c-2.033,4.059-7.613,7.262-11.033,6.326l-42.641-11.662
		C523.626,319.443,524.705,309.912,533.246,302.027 M327.652,312.156c-2.13,1.785-4.678,2.92-6.84,3.061l-29.859,1.896
		c-3.469,0.22-6.353-0.524-8.319-2.166l-39.806-33.153c-2.19-1.829-1.464-5.704,1.744-9.266c2.941-3.262,7.325-5.351,10.558-5.027
		l101.497,10.109c5.098,0.506,4.609,6.504-0.898,11.103L327.652,312.156z M399.231,313.889l-33.546-3.765
		c-5.813-0.646-5.355-7.43,0.845-12.825l15.607-13.578c4.157-3.614,9.317-5.752,13.342-5.525l24.604,1.39
		c5.803,0.329,6.775,5.979,2.027,11.827l-15.025,18.515C405.023,312.464,401.66,314.16,399.231,313.889 M467.83,325.436
		l-38.829-6.215c-5.753-0.916-6.39-6.992-1.391-13.179l10.495-12.983c3.296-4.083,8.965-6.417,12.058-4.976l35.707,16.647
		c4.127,1.926,3.104,7.938-2.215,12.984l-2.324,2.215C477.205,323.824,471.742,326.053,467.83,325.436"/>
	<path fill="none" d="M247.852,320.33c0,3.205-2.597,5.795-5.795,5.795c-3.204,0-5.795-2.59-5.795-5.795
		c0-3.199,2.591-5.795,5.795-5.795C245.255,314.535,247.852,317.13,247.852,320.33"/>
	<path fill="none" d="M479.398,278.65c0,3.198-2.596,5.795-5.795,5.795c-3.205,0-5.799-2.597-5.799-5.795
		c0-3.204,2.594-5.8,5.799-5.8C476.802,272.851,479.398,275.446,479.398,278.65"/>
	<path fill="none" d="M500.808,324.766c0,3.198-2.598,5.795-5.795,5.795c-3.205,0-5.797-2.597-5.797-5.795
		c0-3.205,2.592-5.802,5.797-5.802C498.211,318.964,500.808,321.561,500.808,324.766"/>
	<path fill="none" d="M209.973,307.501c0,3.203-2.597,5.795-5.795,5.795c-3.204,0-5.796-2.592-5.796-5.795
		c0-3.201,2.592-5.797,5.796-5.797C207.377,301.705,209.973,304.3,209.973,307.501"/>
	<path fill="none" d="M125.672,207.938l-17.944,2.227c-6.753,0.072-13.804,2.996-13.875,8.777l-0.515,45.198l46.166,11.156
		c0,0,32.811,4.245-2.315-78.634h-0.57L125.672,207.938z"/>
	<polygon fill="#CCCCCC" stroke="#FFFFFF" stroke-miterlimit="10" points="273.325,250.823 243.152,248.492 243.152,226.47 
		273.325,226.47 	"/>
	<rect x="269.954" y="334.71" fill="#CCCCCC" stroke="#FFFFFF" stroke-miterlimit="10" width="17.875" height="76.031"/>
	<rect x="252.108" y="334.71" fill="#CCCCCC" stroke="#FFFFFF" stroke-miterlimit="10" width="17.846" height="76.031"/>
	<path fill="#CCCCCC" stroke="#FFFFFF" stroke-miterlimit="10" d="M405.825,260.96c-13.424-0.665-27.34-1.447-42.079-2.388v-61.909
		h42.079V260.96z"/>
	<path fill="#CCCCCC" stroke="#FFFFFF" stroke-miterlimit="10" d="M363.746,258.249c-13.292-0.84-25.801-1.019-40.117-2.109v-59.477
		h40.117V258.249z"/>
	<path fill="#CCCCCC" stroke="#FFFFFF" stroke-miterlimit="10" d="M323.629,256.14c-8.705-0.67-16.16-0.338-25.239-1.114V226.47
		h25.239V256.14z"/>
	<polygon fill="#CCCCCC" stroke="#FFFFFF" stroke-miterlimit="10" points="243.152,248.492 213.631,246.2 213.631,196.663 
		243.152,196.663 243.152,226.47 	"/>
</g>
<g id="Rooms">
	<path id="r316" fill="#939598" stroke="#FFFFFF" stroke-width="0.5" stroke-miterlimit="10" d="M605.857,350.012l-0.961-2.746
		l41.01-81.166h13.188v-20.387l10.975,0.092v-44.204l71.582,16.391c7.295,1.699,12.232,7.122,12.803,14.191l5.441,73.958
		c0.227,2.771-0.148,4.631-1.607,7.916l-23.643,54.918c-2.211,4.961-9.951,9.407-14.254,8.366L605.857,350.012z"/>
	<path id="r317" fill="#939598" stroke="#FFFFFF" stroke-width="0.5" stroke-miterlimit="10" d="M559.482,379.048l20.791,17.699
		l19.478-39.959c1.012-2.063,2.78-4.125,4.979-5.793l-0.955-2.75l-26.686-5.6L559.482,379.048z"/>
	<path id="r318" fill="#939598" stroke="#FFFFFF" stroke-width="0.5" stroke-miterlimit="10" d="M500.752,348.755v61.986h66.69
		c3.469,0,7.918-3.652,9.482-7.098l2.967-6.568l-20.787-17.699C559.105,379.376,522.099,354.658,500.752,348.755"/>
	<path id="r319" fill="#939598" stroke="#FFFFFF" stroke-width="0.5" stroke-miterlimit="10" d="M500.752,410.742h-20.937v-66.787
		c12.758,2.484,20.937,4.479,20.937,4.479V410.742z"/>
	<path id="r320" fill="#939598" stroke="#FFFFFF" stroke-width="0.5" stroke-miterlimit="10" d="M479.816,410.742h-24.045v-70.604
		c8.918,1.379,17.336,2.832,24.045,4.141V410.742z"/>
	<path id="r321" fill="#939598" stroke="#FFFFFF" stroke-width="0.5" stroke-miterlimit="10" d="M455.771,410.742h-24.613v-73.494
		c8.521,0.933,17.071,2.041,24.613,3.213V410.742z"/>
	<path id="r315" fill="#939598" stroke="#FFFFFF" stroke-width="0.5" stroke-miterlimit="10" d="M590.367,263.711
		c0,0-15.067,0.94-42.959,1.337v-68.385h32.672v59.352l10.287,0.111V263.711z"/>
	<path id="r314" fill="#939598" stroke="#FFFFFF" stroke-width="0.5" stroke-miterlimit="10" d="M547.408,265.27
		c-5.631,0.077-12.055,0.13-18.741,0.154v-68.761h18.741V265.27z"/>
	<path id="r313" fill="#939598" stroke="#FFFFFF" stroke-width="0.5" stroke-miterlimit="10" d="M528.667,265.642
		c-5.414,0.02-11.107,0.023-17.201-0.016v-0.004v-68.959h17.201V265.642z"/>
	<path id="r312" fill="#939598" stroke="#FFFFFF" stroke-width="0.5" stroke-miterlimit="10" d="M511.465,265.294
		c-10.953-0.054-22.621-0.208-35.728-0.492v-68.139h35.728V265.294z"/>
	<path id="r301" fill="#939598" stroke="#FFFFFF" stroke-width="0.5" stroke-miterlimit="10" d="M213.631,246.528l-33.886-2.649
		c-8.76-0.686-15.043-4.685-17.66-11.257l-13.404-35.959h64.95V246.528L213.631,246.528z"/>
	<polygon id="r323" fill="#939598" stroke="#FFFFFF" stroke-width="0.5" stroke-miterlimit="10" points="375.662,410.742 
		328.249,410.742 328.249,334.71 369.304,334.71 369.304,391.546 375.713,391.546 	"/>
	<path id="r322" fill="#939598" stroke="#FFFFFF" stroke-width="0.5" stroke-miterlimit="10" d="M431.158,410.742h-37.911v-46.857
		h5.455v-20.557h-16.699v-8.219c16.381-0.361,33.352,0.734,49.154,2.467L431.158,410.742L431.158,410.742z"/>
	
		<rect id="r324" x="287.829" y="334.71" fill="#939598" stroke="#FFFFFF" stroke-width="0.5" stroke-miterlimit="10" width="40.419" height="76.031"/>
	<path id="r327" fill="#939598" stroke="#FFFFFF" stroke-width="0.5" stroke-miterlimit="10" d="M252.108,410.742h-41.58V334.71
		c2.852,0.506,5.619,0.011,8.584,0h32.996V410.742z"/>
	<path id="r328" fill="#939598" stroke="#FFFFFF" stroke-width="0.5" stroke-miterlimit="10" d="M210.528,410.742L210.528,410.742
		c-16.051,0.029-30.756-3.721-39.861-11.854v-1.115V329.61l18.641-14.938c-0.374,10.559,9.581,17.983,21.221,20.041V410.742
		L210.528,410.742z"/>
	<path id="r329" fill="#939598" stroke="#FFFFFF" stroke-width="0.5" stroke-miterlimit="10" d="M108.269,320.012l20.438,0.12V327
		h28.125l28.263-21.092l-3.489-10.013c-2.504-7.229-8.365-12.217-16.78-14.307L93.313,264.14l0.787,3.952
		C94.094,269.396,108.269,320.012,108.269,320.012z"/>
	<path id="r311" fill="#939598" stroke="#FFFFFF" stroke-width="0.5" stroke-miterlimit="10" d="M475.738,264.479
		c-5.813-0.136-11.44-0.444-17.686-0.623v-67.192h17.686V264.479z"/>
	<path id="r310" fill="#939598" stroke="#FFFFFF" stroke-width="0.5" stroke-miterlimit="10" d="M458.052,263.855
		c-5.424-0.159-10.847-0.501-16.573-0.719v-66.474h16.573V263.855z"/>
	<path id="r309" fill="#939598" stroke="#FFFFFF" stroke-width="0.5" stroke-miterlimit="10" d="M441.479,263.137
		c-6.123-0.202-12.016-0.771-18.471-1.062v-65.412h18.471V263.137z"/>
	<path id="r308" fill="#939598" stroke="#FFFFFF" stroke-width="0.5" stroke-miterlimit="10" d="M423.009,262.075
		c-5.719-0.231-11.19-0.83-17.184-1.119v-64.293h17.184V262.075z"/>
	<path id="r331" fill="#939598" stroke="#FFFFFF" stroke-width="0.5" stroke-miterlimit="10" d="M491.117,293.854l-5.594-11.494
		c0,0-3.102-3.908,6.447-3.773c9.535,0.141,26.227,0.188,26.227,0.188s5.34-0.024,4.646,3.001c-0.695,3.031-0.025,3.451-5.224,5.771
		c-5.194,2.326-18.389,7.972-18.389,7.972S493.195,298.116,491.117,293.854"/>
	<path id="r330" fill="#939598" stroke="#FFFFFF" stroke-width="0.5" stroke-miterlimit="10" d="M199.674,260.56l22.598-0.014
		c0,0,8.56-0.99,1.448,6.789c-7.112,7.793-19.236,21.477-19.236,21.477s-3.805,4.396-8.193,2.621
		c-4.396-1.776-5.556-1.395-5.561-6.587c0-5.196,0.399-18.278,0.399-18.278S191.295,260.565,199.674,260.56"/>
	<polygon id="r304" fill="#939598" stroke="#FFFFFF" stroke-width="0.5" stroke-miterlimit="10" points="288.507,251.991 
		273.325,250.823 273.325,226.47 288.428,226.47 	"/>
</g>
<g id="Signs">
	<g id="escalator">
		<rect id="escalator-2" x="608.822" y="288.897" opacity="0.8" enable-background="new    " width="14.812" height="14.81"/>
		<rect id="escalator-1" x="303.604" y="257.074" opacity="0.8" enable-background="new    " width="14.811" height="14.81"/>
	</g>
	<g id="toilet">
		<rect id="toilet-2" x="597.324" y="219.064" opacity="0.8" enable-background="new    " width="14.812" height="14.811"/>
		<rect id="toilet-1" x="119.321" y="332.734" opacity="0.8" enable-background="new    " width="14.811" height="14.809"/>
	</g>
	<g id="elevator">
		<rect id="elevator-2" x="382.003" y="345.955" opacity="0.8" enable-background="new    " width="14.811" height="14.81"/>
		<rect id="elevator-1" x="644.322" y="219.064" opacity="0.8" enable-background="new    " width="14.812" height="14.811"/>
	</g>
</g>
</svg>
