<?xml version="1.0" encoding="utf-8"?>
<!-- Generator: Adobe Illustrator 16.0.0, SVG Export Plug-In . SVG Version: 6.00 Build 0)  -->
<!DOCTYPE svg PUBLIC "-//W3C//DTD SVG 1.1//EN" "http://www.w3.org/Graphics/SVG/1.1/DTD/svg11.dtd">
<svg version="1.1" id="Layer_1" xmlns="http://www.w3.org/2000/svg" xmlns:xlink="http://www.w3.org/1999/xlink" x="0px" y="0px"
	 width="878.74px" height="595.281px" viewBox="0 0 878.74 595.281" enable-background="new 0 0 878.74 595.281"
	 xml:space="preserve">
<g id="background">
	<rect y="0" fill="#FFFFFF" width="878.74" height="595.281"/>
</g>
<g id="etc">
	<polygon fill="#C8E0F4" stroke="#FFFFFF" stroke-miterlimit="10" points="327.094,335.428 374.854,336.238 374.854,358.51 
		363.744,358.582 363.744,410.031 327.346,410.031 	"/>
	<path fill="#C8E0F4" stroke="#FFFFFF" stroke-miterlimit="10" d="M762.623,308.156l-5.065-70.967
		c-0.543-7.667-5.483-12.892-13.659-14.454l-27.683-5.04l-29.856,58.959c0.385,2.444-1.492,6.922-1.492,6.922l-2.625,9.592
		c-0.26,1.565-0.971,4.138-1.576,6.242c-0.672,2.263-1.771,6.373-3.266,8.746c-0.642,1.004-1.127,0-1.127,0H762.623z"/>
	<path fill="#C8E0F4" stroke="#FFFFFF" stroke-miterlimit="10" d="M660.605,267.37l4.913-0.224c0,0,7.464-0.119,10.558-0.024
		c3.084,0.108,5.526,2.092,5.526,2.092c4.546,3.553,4.244,7.876,4.244,7.876l30.367-59.395l-44.445-10.659v45.191l-11.163,0.005
		V267.37z"/>
	<path fill="#C8E0F4" stroke="#FFFFFF" stroke-miterlimit="10" d="M675.767,308.156c-8.379,9.353-18.004,8.859-18.004,8.859
		l-27.228,0.127c-7.224,0.033-9.821,6.176-9.821,6.176l-14.072,27.01l1.276,2.3c2.244-1.489,5.089-0.662,5.089-0.662l110.721,27.507
		c3.134,0.78,8.269-2.263,9.979-5.925l27.019-57.731c1.104-2.346,1.604-5.691,1.476-7.657h-0.082h-86.352"/>
	<path fill="#C8E0F4" stroke="#FFFFFF" stroke-miterlimit="10" d="M387.159,341.77l-0.006-6.233c0,0,107.458,3.854,138.348,22.83
		l36.666,22.306l18.434-36.684l25.347,6.938l1.272,2.303c0,0-2.356,0.645-4.301,4.32l-22.935,44.864c0,0-2.396,7.966-12.254,7.013
		l-163.859,0.605l-0.011-15.139l-5.249,0.043l-0.04-36.154l5.465-0.043l-0.018-16.969H387.159L387.159,341.77z"/>
	<polygon fill="#C8E0F4" stroke="#FFFFFF" stroke-miterlimit="10" points="327.093,336.488 327.344,410.031 288.974,410.031 
		288.627,334.994 327.095,335.428 	"/>
	<polygon fill="#C8E0F4" stroke="#FFFFFF" stroke-miterlimit="10" points="231.931,334.699 288.574,335.041 288.912,410.031 
		232.41,410.031 	"/>
	<path fill="#C8E0F4" stroke="#FFFFFF" stroke-miterlimit="10" d="M172.578,399.48l-0.706-70.412l13.593-9.725
		c0,0,6.6,13.907,21.129,15.112l1.567,0.214l23.197,0.52l0.477,74.842h-24.303C207.532,410.031,189.447,413.417,172.578,399.48"/>
	<path fill="#C8E0F4" stroke="#FFFFFF" stroke-miterlimit="10" d="M327.76,261.148c-16.026-1.24-26.256-2.106-26.256-2.106
		l0.404-25.365h25.853L327.76,261.148L327.76,261.148z"/>
	<path fill="#C8E0F4" stroke="#FFFFFF" stroke-miterlimit="10" d="M346.175,262.602c-7.077-0.519-12.792-1.01-18.415-1.454v-27.473
		l0,0v-30.21h18.711L346.175,262.602z"/>
	<path fill="#C8E0F4" stroke="#FFFFFF" stroke-miterlimit="10" d="M363.858,263.828c-6.257-0.418-12.165-0.833-17.685-1.226
		l0.296-59.138h17.696L363.858,263.828z"/>
	<path fill="#C8E0F4" stroke="#FFFFFF" stroke-miterlimit="10" d="M435.964,267.887c-26.234-1.181-51.226-2.656-72.104-4.061
		l0.313-60.362h71.793L435.964,267.887L435.964,267.887z"/>
	<path fill="#C8E0F4" stroke="#FFFFFF" stroke-miterlimit="10" d="M453.631,268.639c-5.966-0.234-11.836-0.496-17.667-0.751v-64.423
		h17.667l0,0V268.639z"/>
	<path fill="#C8E0F4" stroke="#FFFFFF" stroke-miterlimit="10" d="M482.699,269.578c-9.739-0.255-19.494-0.571-29.067-0.938v-65.174
		h29.067V269.578z"/>
	<path fill="#C8E0F4" stroke="#FFFFFF" stroke-miterlimit="10" d="M512.642,270.148c-9.92-0.104-19.991-0.307-29.942-0.568v-66.115
		h29.942V270.148z"/>
	<path fill="#C8E0F4" stroke="#FFFFFF" stroke-miterlimit="10" d="M530.726,270.256c-5.991-0.005-11.993-0.03-18.084-0.107v-66.684
		h18.084V270.256z"/>
	<path fill="#C8E0F4" stroke="#FFFFFF" stroke-miterlimit="10" d="M548.027,270.146c-5.658,0.071-11.496,0.115-17.302,0.115v-0.006
		v-66.791h17.302V270.146z"/>
	<path fill="#C8E0F4" stroke="#FFFFFF" stroke-miterlimit="10" d="M566.433,269.77c-6.019,0.174-12.159,0.296-18.405,0.376v-66.682
		h18.405V269.77z"/>
	<path fill="#C8E0F4" stroke="#FFFFFF" stroke-miterlimit="10" d="M598.355,268.214c-10.185,0.716-20.656,1.225-31.923,1.557
		v-66.306h26.964l-2.705,56.187l8.502,0.107L598.355,268.214z"/>
	<polygon fill="#C8E0F4" stroke="#FFFFFF" stroke-miterlimit="10" points="294.943,262.282 279.373,260.602 279.66,233.676 
		295.253,233.676 	"/>
	<polygon fill="#C8E0F4" stroke="#FFFFFF" stroke-miterlimit="10" points="279.56,260.973 248.54,257.028 248.54,233.676 
		279.843,233.676 	"/>
	<polygon fill="#C8E0F4" stroke="#FFFFFF" stroke-miterlimit="10" points="248.54,203.465 248.54,256.807 213.469,252.068 
		213.469,203.465 	"/>
	<path fill="#C8E0F4" stroke="#FFFFFF" stroke-miterlimit="10" d="M213.469,252.068l-12.542-2.321c0,0-8.038-2.658-15.515,2.118
		l-28.835-18.125v-30.275h56.893L213.469,252.068L213.469,252.068z"/>
	<path fill="#C8E0F4" stroke="#FFFFFF" stroke-miterlimit="10" d="M176.331,265.533l-34.65-13.857l-39.656,0.029l-0.504-33.151
		c0,0,1.706-14.173,15.331-14.146l39.727-0.942v29.84l28.835,18.561C185.413,251.866,178.433,255.54,176.331,265.533"/>
	<path fill="#C8E0F4" stroke="#FFFFFF" stroke-miterlimit="10" d="M181.791,289.484l-78.466-6.59c0,0-0.011,2.231,0,0l-1.039-31.414
		l39.651-0.024l34.644,13.864C176.581,265.321,176.023,269.096,181.791,289.484"/>
	<polygon fill="#C8E0F4" stroke="#FFFFFF" stroke-miterlimit="10" points="181.791,289.484 187.786,313.838 164.988,330.725 
		135.698,330.855 135.738,323.545 114.032,323.434 103.325,282.895 	"/>
	<path fill="#C7DFF3" stroke="#FFFFFF" stroke-miterlimit="10" d="M198.491,316.047l12.689-2.496c0,0,6.012-0.979,4.344-6.052
		c-1.938-5.877-3.616-16.494-3.616-16.494s-0.794-2.258-6.255-0.164c-4.435,1.703-9.257,3.033-11.675,7.479
		c-2.419,4.445-1.042,16.908-1.042,16.908S193.374,317.391,198.491,316.047"/>
	<path fill="#C7DFF3" stroke="#FFFFFF" stroke-miterlimit="10" d="M629.552,282.733l25.668-1.201c0,0,6.358-0.301,5.633,2.791
		c-0.729,3.099-3.405,13.76-3.405,13.76s-1.791,4.766-6.235,5.334c-4.449,0.563-24.617,0.872-24.617,0.872s-3.592-0.354-3.196-4.304
		c0.389-3.951,2.553-14.169,2.553-14.169S627.251,282.844,629.552,282.733"/>
	<path fill="#EFEBDD" d="M733.631,372.197l26.262-57.021c1.056-2.284,1.543-5.101,1.425-7.021l-4.438-70.566
		c-0.472-7.539-5.115-12.779-12.912-14.573l-93.228-20.153c-1.756-0.4,2.054-0.01,0,0l-533.889,1.543
		c-5.152,0.041-15.266,9.722-15.331,14.146l1.805,64.342c-0.073,4.733-1.083-4.153,0,0l14.771,61.063
		c2.106,8.106,6.433,14.864,12.789,19.953l41.693,35.567c8.049,6.446,21.378,10.556,34.955,10.551l362.189-1.394
		c2.41,0.009,5.543-2.026,6.854-4.438L604.07,353.4c1.022-1.893,3.644-3.371,5.256-2.979l113.713,28.096
		C726.385,379.346,731.842,376.09,733.631,372.197"/>
	<rect x="248.54" y="203.465" fill="#CCCCCC" width="79.22" height="30.21"/>
	<path fill="#CCCCCC" d="M523.529,357.227l8.25-22.319c0.526-1.414,2.551-2.69,3.787-2.392l45.032,11.473l-18.435,36.684
		L523.529,357.227z"/>
	<path fill="#FFFFFF" d="M535.523,305.123l15.952-13.785c3.236-2.798,7.229-4.564,10.468-4.627l38.305-0.749
		c4.832-0.096,6.699,3.505,4.277,8.256l-17.455,34.384c-1.858,3.654-6.925,6.6-10.06,5.85l-44.209-10.592
		C525.429,322.098,526.797,312.667,535.523,305.123 M369.273,292.839l-35.605,24.046c-3.282,2.207-6.85,3.467-9.768,3.422
		l-39.921-0.558c-2.274-0.026-4.204-0.562-5.668-1.56l-47.409-32.203c-2.306-1.57-0.854-5.721,3.05-8.651l4.528-3.383
		c3.402-2.554,7.289-3.938,10.27-3.662l122.774,11.472C376.689,282.237,375.376,288.722,369.273,292.839 M389.639,321.291
		l-21.764-0.786c-5.549-0.198-4.366-6.907,1.949-11.146l33.604-22.533c4.133-2.771,8.636-4.202,12.109-3.841l8.106,0.843
		c5.096,0.53,4.779,6.337-0.608,11.187l-25.26,22.738C395.28,320.006,392.101,321.383,389.639,321.291"/>
	<path fill="#CCCCCC" d="M518.426,330.855c0,3.195-2.591,5.783-5.783,5.783c-3.196,0-5.782-2.588-5.782-5.783
		s2.586-5.785,5.782-5.785C515.836,325.07,518.426,327.66,518.426,330.855"/>
	<path fill="#CCCCCC" d="M447.515,289.484c0,3.196-2.592,5.785-5.784,5.785c-3.197,0-5.783-2.589-5.783-5.785
		c0-3.195,2.586-5.784,5.783-5.784C444.924,283.7,447.515,286.29,447.515,289.484"/>
	<path fill="#CCCCCC" d="M229.017,325.756c0,3.194-2.592,5.782-5.784,5.782c-3.197,0-5.784-2.588-5.784-5.782
		s2.586-5.784,5.784-5.784C226.426,319.971,229.017,322.561,229.017,325.756"/>
	<path fill="#CCCCCC" d="M192.101,265.559c0,3.194-2.59,5.783-5.784,5.783c-3.197,0-5.783-2.589-5.783-5.783
		c0-3.195,2.585-5.786,5.783-5.786C189.51,259.773,192.101,262.364,192.101,265.559"/>
</g>
<g id="rooms">
	<polygon id="r423" fill="#939598" stroke="#FFFFFF" stroke-width="0.5" stroke-miterlimit="10" points="327.524,335.307 
		375.382,336.117 375.382,358.434 364.248,358.506 364.248,410.063 327.777,410.063 	"/>
	<path id="r418" fill="#939598" stroke="#FFFFFF" stroke-width="0.5" stroke-miterlimit="10" d="M763.939,307.979l-5.076-71.111
		c-0.545-7.683-5.496-12.918-13.688-14.483l-27.735-5.05l-29.92,59.078c0.385,2.449-1.496,6.938-1.496,6.938l-2.631,9.611
		c-0.261,1.567-0.97,4.146-1.578,6.253c-0.67,2.27-1.775,6.387-3.271,8.766c-0.644,1.006-1.132,0-1.132,0L763.939,307.979
		L763.939,307.979z"/>
	<path id="r417" fill="#939598" stroke="#FFFFFF" stroke-width="0.5" stroke-miterlimit="10" d="M661.717,267.109l4.92-0.226
		c0,0,7.479-0.117,10.578-0.022c3.094,0.106,5.539,2.096,5.539,2.096c4.557,3.56,4.25,7.893,4.25,7.893l30.434-59.516L672.9,206.653
		v45.282l-11.185,0.006L661.717,267.109L661.717,267.109z"/>
	<path id="r419" fill="#939598" stroke="#FFFFFF" stroke-width="0.5" stroke-miterlimit="10" d="M676.906,307.979
		c-8.396,9.371-18.043,8.875-18.043,8.875l-27.274,0.129c-7.237,0.035-9.849,6.188-9.849,6.188l-14.101,27.063l1.279,2.305
		c2.247-1.493,5.099-0.664,5.099-0.664l110.948,27.563c3.136,0.783,8.284-2.267,9.996-5.935l27.075-57.854
		c1.104-2.35,1.604-5.703,1.478-7.672h-0.084L676.906,307.979"/>
	<path id="r422" fill="#939598" stroke="#FFFFFF" stroke-width="0.5" stroke-miterlimit="10" d="M387.705,335.412l0.007,6.25h16.894
		l0.019,17.002l-5.477,0.043l0.04,36.229l5.258-0.045l0.013,15.172l41.412-0.153v-70.138
		C414.892,336.388,387.705,335.412,387.705,335.412z"/>
	<path id="r421" fill="#939598" stroke="#FFFFFF" stroke-width="0.5" stroke-miterlimit="10" d="M441.548,339.771v70.138
		l54.667-0.203v-60.967C479.974,344.683,460.086,341.796,441.548,339.771z"/>
	<path id="r420" fill="#939598" stroke="#FFFFFF" stroke-width="0.5" stroke-miterlimit="10" d="M606.94,350.833l-25.398-6.95
		l-18.471,36.759l-36.74-22.354c-6.092-3.741-15.163-6.896-25.794-9.55v60.967l68.109-0.253c9.88,0.955,12.281-7.026,12.281-7.026
		l22.979-44.957c1.945-3.683,4.308-4.327,4.308-4.327L606.94,350.833z"/>
	<polygon id="r424" fill="#939598" stroke="#FFFFFF" stroke-width="0.5" stroke-miterlimit="10" points="327.523,336.369 
		327.775,410.063 289.328,410.063 288.98,334.873 327.525,335.307 	"/>
	<polygon id="r425" fill="#939598" stroke="#FFFFFF" stroke-width="0.5" stroke-miterlimit="10" points="288.925,334.917 
		249.203,334.678 249.203,358.805 249.203,358.805 249.203,358.805 232.322,358.805 232.648,410.063 289.264,410.063 	"/>
	<polygon id="r426" fill="#939598" stroke="#FFFFFF" stroke-width="0.5" stroke-miterlimit="10" points="249.203,334.678 
		232.168,334.576 232.322,358.805 249.203,358.805 	"/>
	<path id="r427" fill="#939598" stroke="#FFFFFF" stroke-width="0.5" stroke-miterlimit="10" d="M172.694,399.488l-0.707-70.555
		l13.62-9.746c0,0,6.612,13.938,21.171,15.148l1.572,0.211l23.245,0.521l0.478,74.994h-24.354
		C207.719,410.063,189.598,413.455,172.694,399.488"/>
	<path id="r406" fill="#939598" stroke="#FFFFFF" stroke-width="0.5" stroke-miterlimit="10" d="M328.191,260.875
		c-16.059-1.242-26.31-2.11-26.31-2.11l0.404-25.418h25.905L328.191,260.875L328.191,260.875z"/>
	<path id="r407" fill="#939598" stroke="#FFFFFF" stroke-width="0.5" stroke-miterlimit="10" d="M346.644,262.332
		c-7.091-0.52-12.817-1.012-18.452-1.457v-27.528l0,0v-30.271h18.749L346.644,262.332z"/>
	<path id="r408" fill="#939598" stroke="#FFFFFF" stroke-width="0.5" stroke-miterlimit="10" d="M364.364,263.561
		c-6.271-0.42-12.189-0.836-17.721-1.229l0.296-59.257h17.733L364.364,263.561z"/>
	<path id="r409" fill="#939598" stroke="#FFFFFF" stroke-width="0.5" stroke-miterlimit="10" d="M436.613,267.628
		c-26.286-1.183-51.328-2.661-72.249-4.066l0.312-60.485h71.938L436.613,267.628L436.613,267.628z"/>
	<path id="r410" fill="#939598" stroke="#FFFFFF" stroke-width="0.5" stroke-miterlimit="10" d="M454.318,268.381
		c-5.978-0.233-11.861-0.498-17.705-0.753v-64.553h17.705l0,0V268.381z"/>
	<path id="r411" fill="#939598" stroke="#FFFFFF" stroke-width="0.5" stroke-miterlimit="10" d="M483.443,269.321
		c-9.761-0.256-19.533-0.571-29.125-0.94v-65.306h29.125V269.321z"/>
	<path id="r412" fill="#939598" stroke="#FFFFFF" stroke-width="0.5" stroke-miterlimit="10" d="M513.449,269.893
		c-9.938-0.104-20.033-0.307-30.006-0.568v-66.249h30.006V269.893z"/>
	<path id="r413" fill="#939598" stroke="#FFFFFF" stroke-width="0.5" stroke-miterlimit="10" d="M531.57,270.002
		c-6.006-0.005-12.021-0.03-18.121-0.108v-66.817h18.121V270.002z"/>
	<path id="r414" fill="#939598" stroke="#FFFFFF" stroke-width="0.5" stroke-miterlimit="10" d="M548.906,269.891
		c-5.67,0.071-11.521,0.114-17.336,0.114v-0.004v-66.927h17.336V269.891z"/>
	<path id="r415" fill="#939598" stroke="#FFFFFF" stroke-width="0.5" stroke-miterlimit="10" d="M567.349,269.514
		c-6.03,0.174-12.187,0.297-18.442,0.377v-66.815h18.442V269.514z"/>
	<path id="r416" fill="#939598" stroke="#FFFFFF" stroke-width="0.5" stroke-miterlimit="10" d="M599.338,267.955
		c-10.205,0.717-20.699,1.228-31.988,1.56v-66.438h27.019l-2.709,56.299l8.519,0.108L599.338,267.955z"/>
	<polygon id="r405" fill="#939598" stroke="#FFFFFF" stroke-width="0.5" stroke-miterlimit="10" points="295.309,262.011 
		279.707,260.327 279.994,233.346 295.619,233.346 	"/>
	<polygon id="r404" fill="#939598" stroke="#FFFFFF" stroke-width="0.5" stroke-miterlimit="10" points="279.894,260.699 
		248.811,256.746 248.811,233.346 280.177,233.346 	"/>
	<polygon id="r403" fill="#939598" stroke="#FFFFFF" stroke-width="0.5" stroke-miterlimit="10" points="248.811,203.075 
		248.811,256.524 213.669,251.776 213.669,203.075 	"/>
	<path id="r402" fill="#939598" stroke="#FFFFFF" stroke-width="0.5" stroke-miterlimit="10" d="M213.669,251.776l-12.567-2.325
		c0,0-8.055-2.664-15.546,2.123l-28.895-18.162v-30.337h57.008V251.776z"/>
	<path id="r401" fill="#939598" stroke="#FFFFFF" stroke-width="0.5" stroke-miterlimit="10" d="M176.455,265.268l-34.722-13.886
		l-39.736,0.029l-0.505-33.22c0,0,1.709-14.2,15.362-14.175l39.807-0.942v29.899l28.895,18.6
		C185.556,251.574,178.562,255.256,176.455,265.268"/>
	<path id="r429" fill="#939598" stroke="#FFFFFF" stroke-width="0.5" stroke-miterlimit="10" d="M181.926,289.27l-78.626-6.604
		c0,0-0.011,2.236,0,0l-1.041-31.479l39.731-0.023l34.714,13.893C176.705,265.056,176.146,268.839,181.926,289.27"/>
	<polygon id="r428" fill="#939598" stroke="#FFFFFF" stroke-width="0.5" stroke-miterlimit="10" points="181.926,289.27 
		187.934,313.67 165.089,330.592 135.739,330.723 135.779,323.398 114.029,323.287 103.3,282.666 	"/>
	<path id="r433" fill="#939598" stroke="#FFFFFF" stroke-width="0.5" stroke-miterlimit="10" d="M630.597,282.504l25.72-1.203
		c0,0,6.375-0.303,5.646,2.797c-0.729,3.104-3.412,13.789-3.412,13.789s-1.795,4.773-6.248,5.341
		c-4.459,0.564-24.668,0.875-24.668,0.875s-3.601-0.356-3.203-4.313c0.386-3.958,2.558-14.197,2.558-14.197
		S628.292,282.615,630.597,282.504"/>
	<circle id="r430" fill="#939598" stroke="#FFFFFF" stroke-width="0.5" stroke-miterlimit="10" cx="409.37" cy="319.818" r="4"/>
	<path id="r434" fill="#939598" stroke="#FFFFFF" stroke-width="0.5" stroke-miterlimit="10" d="M198.66,315.885l12.714-2.502
		c0,0,6.025-0.981,4.354-6.063c-1.942-5.889-3.623-16.526-3.623-16.526s-0.796-2.263-6.269-0.164
		c-4.442,1.706-9.274,3.04-11.698,7.494c-2.426,4.454-1.046,16.941-1.046,16.941S193.532,317.232,198.66,315.885"/>
</g>
<g id="signs">
	<g id="lift">
		<rect id="lift-2" x="644.322" y="219.064" opacity="0.8" enable-background="new    " width="14.812" height="14.811"/>
		<rect id="lift-1" x="382.003" y="345.955" opacity="0.8" enable-background="new    " width="14.811" height="14.811"/>
	</g>
	<g id="toilet">
		<rect id="toilet-2" x="597.324" y="219.064" opacity="0.8" enable-background="new    " width="14.812" height="14.811"/>
		<rect id="toilet-1" x="134.688" y="340.635" opacity="0.8" enable-background="new    " width="14.811" height="14.81"/>
	</g>
	<rect id="atm" x="153.688" y="353.361" opacity="0.8" enable-background="new    " width="14.811" height="14.81"/>
	<g id="escalator">
		<rect id="escalator-2" x="307.632" y="262.812" opacity="0.8" enable-background="new    " width="14.811" height="14.81"/>
		<rect id="escalator-1" x="603.131" y="295.009" opacity="0.8" enable-background="new    " width="14.812" height="14.811"/>
	</g>
</g>
</svg>
