<?xml version="1.0" encoding="utf-8"?>
<!-- Generator: Adobe Illustrator 16.0.0, SVG Export Plug-In . SVG Version: 6.00 Build 0)  -->
<!DOCTYPE svg PUBLIC "-//W3C//DTD SVG 1.1//EN" "http://www.w3.org/Graphics/SVG/1.1/DTD/svg11.dtd">
<svg version="1.1" id="Layer_1" xmlns="http://www.w3.org/2000/svg" xmlns:xlink="http://www.w3.org/1999/xlink" x="0px" y="0px"
	 width="878.74px" height="595.281px" viewBox="0 0 878.74 595.281" enable-background="new 0 0 878.74 595.281"
	 xml:space="preserve">
<g id="background">
	<rect x="2.108" y="0" fill="#FFFFFF" width="878.74" height="595.281"/>
</g>
<g id="etc">
	<path fill="#EFEBDD" d="M736.333,369.033l23.66-54.955c0.807-1.897,1.709-6.303,1.607-7.924l-5.445-74.012
		c-0.652-7.851-4.582-12.314-12.813-14.199l-91.305-21.345c-1.605-0.363-3.354-0.014-5.215,0H137.862l-10.955,11.283l-17.957,2.231
		c-6.758,0.068-13.813,2.996-13.884,8.78l-0.553,43.993c-0.017,1.435,0.155,2.791,0.503,4.05l22.927,81.556
		c1.188,4.226,3.469,7.803,6.75,10.564l47.267,40.43c6.784,5.713,17.184,11.299,28.812,11.342h368.898
		c3.568,0.017,8.16-4.276,9.836-7.793l22.479-47.061c2.135-4.451,8.318-8.05,12.145-7.05l107.939,28.479
		C726.706,378.608,733.905,374.403,736.333,369.033"/>
	<rect x="244.498" y="196.599" fill="#CCCCCC" width="80.534" height="29.829"/>
	<path fill="#FFFFFF" d="M523.593,355.894l8.686-22.231c0.668-1.725,3.082-3.2,4.555-2.805l41.688,11.424l-17.297,36.162
		L523.593,355.894z M534.792,302.039l14.977-13.842c3.486-3.229,7.947-5.287,11.598-5.359l37.963-0.835
		c5.293-0.124,7.398,3.863,4.803,9.083l-17.83,35.753c-2.031,4.063-7.615,7.27-11.037,6.33l-42.672-11.672
		C525.167,319.467,526.247,309.929,534.792,302.039 M329.057,312.174c-2.132,1.787-4.683,2.923-6.845,3.063l-29.88,1.896
		c-3.472,0.218-6.357-0.525-8.326-2.17l-39.833-33.176c-2.191-1.83-1.467-5.709,1.744-9.273c2.945-3.262,7.332-5.354,10.566-5.031
		L358.047,277.6c5.103,0.508,4.614,6.508-0.898,11.111L329.057,312.174z M400.686,313.908l-33.569-3.766
		c-5.814-0.648-5.359-7.438,0.847-12.835l15.617-13.587c4.16-3.618,9.325-5.758,13.351-5.531l24.624,1.393
		c5.805,0.326,6.776,5.983,2.028,11.835l-15.039,18.526C406.482,312.485,403.118,314.179,400.686,313.908 M469.331,325.463
		l-38.856-6.219c-5.756-0.918-6.395-6.996-1.388-13.188l10.5-12.994c3.3-4.085,8.972-6.423,12.068-4.98l35.729,16.659
		c4.131,1.929,3.105,7.944-2.215,12.994l-2.328,2.219C478.714,323.849,473.251,326.082,469.331,325.463"/>
	<path fill="#C7DFF3" stroke="#FFFFFF" stroke-miterlimit="10" d="M607.456,350.054l-0.961-2.746l41.039-81.225h13.197v-20.397
		l10.979,0.089v-44.233l71.633,16.402c7.303,1.7,12.24,7.128,12.813,14.2l5.445,74.011c0.229,2.771-0.148,4.636-1.607,7.924
		l-23.66,54.955c-2.211,4.964-9.957,9.416-14.264,8.371L607.456,350.054z"/>
	<path fill="#C7DFF3" stroke="#FFFFFF" stroke-miterlimit="10" d="M561.048,379.115l20.807,17.711l19.49-39.986
		c1.012-2.064,2.783-4.129,4.98-5.799l-0.957-2.752l-26.703-5.602L561.048,379.115z"/>
	<path fill="#C7DFF3" stroke="#FFFFFF" stroke-miterlimit="10" d="M502.278,348.802v62.026h66.734c3.475,0,7.926-3.654,9.488-7.102
		l2.971-6.572l-20.803-17.711C560.671,379.444,523.638,354.707,502.278,348.802"/>
	<path fill="#C7DFF3" stroke="#FFFFFF" stroke-miterlimit="10" d="M502.278,410.828h-20.951v-66.832
		c12.768,2.486,20.951,4.48,20.951,4.48V410.828z"/>
	<path fill="#C7DFF3" stroke="#FFFFFF" stroke-miterlimit="10" d="M481.327,410.828h-24.063v-70.651
		c8.926,1.381,17.35,2.836,24.063,4.146V410.828z"/>
	<path fill="#C7DFF3" stroke="#FFFFFF" stroke-miterlimit="10" d="M457.265,410.828h-24.632v-73.545
		c8.527,0.932,17.085,2.043,24.632,3.217V410.828z"/>
	<path fill="#C7DFF3" stroke="#FFFFFF" stroke-miterlimit="10" d="M591.956,263.696c0,0-15.08,0.939-42.99,1.336v-68.433h32.697
		v59.394l10.293,0.113V263.696L591.956,263.696z"/>
	<path fill="#C7DFF3" stroke="#FFFFFF" stroke-miterlimit="10" d="M548.966,265.254c-5.637,0.08-12.063,0.133-18.756,0.157v-68.812
		h18.756V265.254z"/>
	<path fill="#C7DFF3" stroke="#FFFFFF" stroke-miterlimit="10" d="M530.212,265.628c-5.42,0.018-11.115,0.021-17.215-0.017v-0.005
		v-69.007h17.215V265.628z"/>
	<path fill="#C7DFF3" stroke="#FFFFFF" stroke-miterlimit="10" d="M512.999,265.28c-10.963-0.057-22.637-0.21-35.754-0.495v-68.187
		h35.754V265.28z"/>
	<polygon fill="#C7DFF3" stroke="#FFFFFF" stroke-miterlimit="10" points="289.885,251.965 274.69,250.797 274.69,226.428 
		289.806,226.428 	"/>
	<polygon fill="#C7DFF3" stroke="#FFFFFF" stroke-miterlimit="10" points="274.69,250.797 244.498,248.465 244.498,226.428 
		274.69,226.428 	"/>
	<polygon fill="#C7DFF3" stroke="#FFFFFF" stroke-miterlimit="10" points="244.498,248.465 214.956,246.171 214.956,196.599 
		244.498,196.599 244.498,226.428 	"/>
	<path fill="#C7DFF3" stroke="#FFFFFF" stroke-miterlimit="10" d="M214.956,246.499l-33.909-2.651
		c-8.767-0.686-15.054-4.688-17.672-11.263l-13.414-35.986h64.995V246.499L214.956,246.499z"/>
	<polygon fill="#C7DFF3" stroke="#FFFFFF" stroke-miterlimit="10" points="377.101,410.828 329.652,410.828 329.652,334.744 
		370.738,334.744 370.738,391.621 377.149,391.621 	"/>
	<path fill="#C7DFF3" stroke="#FFFFFF" stroke-miterlimit="10" d="M432.633,410.828h-37.936v-46.891h5.46v-20.568h-16.714v-8.225
		c16.396-0.361,33.375,0.733,49.189,2.469L432.633,410.828L432.633,410.828z"/>
	<rect x="289.207" y="334.744" fill="#C7DFF3" stroke="#FFFFFF" stroke-miterlimit="10" width="40.446" height="76.084"/>
	<rect x="271.318" y="334.744" fill="#C7DFF3" stroke="#FFFFFF" stroke-miterlimit="10" width="17.888" height="76.084"/>
	<rect x="253.459" y="334.744" fill="#C7DFF3" stroke="#FFFFFF" stroke-miterlimit="10" width="17.859" height="76.084"/>
	<path fill="#C7DFF3" stroke="#FFFFFF" stroke-miterlimit="10" d="M253.459,410.828h-41.606v-76.084c2.854,0.506,5.622,0.01,8.589,0
		h33.019L253.459,410.828L253.459,410.828z"/>
	<path fill="#C7DFF3" stroke="#FFFFFF" stroke-miterlimit="10" d="M211.853,410.828L211.853,410.828
		c-16.064,0.029-30.779-3.721-39.891-11.863v-1.114v-68.209l18.652-14.948c-0.375,10.563,9.588,17.996,21.238,20.053
		L211.853,410.828L211.853,410.828z"/>
	<path fill="#C7DFF3" stroke="#FFFFFF" stroke-miterlimit="10" d="M109.521,320.035l20.454,0.121v6.871h28.144l28.282-21.105
		l-3.49-10.018c-2.507-7.233-8.372-12.228-16.792-14.317l-71.563-17.463c0,0,1.592,7.322,2.344,8.339L109.521,320.035z"/>
	<path fill="#C7DFF3" stroke="#FFFFFF" stroke-miterlimit="10" d="M477.245,264.462c-5.814-0.136-11.447-0.445-17.693-0.624v-67.239
		h17.693V264.462z"/>
	<path fill="#C7DFF3" stroke="#FFFFFF" stroke-miterlimit="10" d="M459.552,263.839c-5.43-0.159-10.855-0.5-16.588-0.717v-66.522
		h16.588V263.839z"/>
	<path fill="#C7DFF3" stroke="#FFFFFF" stroke-miterlimit="10" d="M442.964,263.122c-6.127-0.205-12.026-0.775-18.485-1.064v-65.458
		h18.485V263.122z"/>
	<path fill="#C7DFF3" stroke="#FFFFFF" stroke-miterlimit="10" d="M424.479,262.056c-5.722-0.231-11.2-0.827-17.196-1.117v-64.34
		h17.196V262.056z"/>
	<path fill="#C7DFF3" stroke="#FFFFFF" stroke-miterlimit="10" d="M407.283,260.942c-13.432-0.666-27.355-1.449-42.105-2.389
		v-61.954h42.105V260.942z"/>
	<path fill="#C7DFF3" stroke="#FFFFFF" stroke-miterlimit="10" d="M365.177,258.228c-13.303-0.841-25.82-1.018-40.146-2.11v-59.519
		h40.146V258.228z"/>
	<path fill="#C7DFF3" stroke="#FFFFFF" stroke-miterlimit="10" d="M325.03,256.118c-8.712-0.671-16.172-0.336-25.257-1.113v-28.576
		h25.257V256.118z"/>
	<path fill="#C7DFF3" stroke="#FFFFFF" stroke-miterlimit="10" d="M607.456,350.054l-0.961-2.746l41.039-81.225h13.197v-20.397
		l10.979,0.089v-44.233l71.633,16.402c7.303,1.7,12.24,7.128,12.813,14.2l5.445,74.011c0.229,2.771-0.148,4.636-1.607,7.924
		l-23.66,54.955c-2.211,4.964-9.957,9.416-14.264,8.371L607.456,350.054z"/>
	<path fill="#C7DFF3" stroke="#FFFFFF" stroke-miterlimit="10" d="M561.048,379.115l20.807,17.711l19.49-39.986
		c1.012-2.064,2.783-4.129,4.98-5.799l-0.957-2.752l-26.703-5.602L561.048,379.115z"/>
	<path fill="#C7DFF3" stroke="#FFFFFF" stroke-miterlimit="10" d="M502.278,348.802v62.026h66.734c3.475,0,7.926-3.654,9.488-7.102
		l2.971-6.572l-20.803-17.711C560.671,379.444,523.638,354.707,502.278,348.802"/>
	<path fill="#C7DFF3" stroke="#FFFFFF" stroke-miterlimit="10" d="M502.278,410.828h-20.951v-66.832
		c12.768,2.486,20.951,4.48,20.951,4.48V410.828z"/>
	<path fill="#C7DFF3" stroke="#FFFFFF" stroke-miterlimit="10" d="M481.327,410.828h-24.063v-70.651
		c8.926,1.381,17.35,2.836,24.063,4.146V410.828z"/>
	<path fill="#C7DFF3" stroke="#FFFFFF" stroke-miterlimit="10" d="M457.265,410.828h-24.632v-73.545
		c8.527,0.932,17.085,2.043,24.632,3.217V410.828z"/>
	<path fill="#C7DFF3" stroke="#FFFFFF" stroke-miterlimit="10" d="M591.956,263.696c0,0-15.08,0.939-42.99,1.336v-68.433h32.697
		v59.394l10.293,0.113V263.696L591.956,263.696z"/>
	<path fill="#C7DFF3" stroke="#FFFFFF" stroke-miterlimit="10" d="M548.966,265.254c-5.637,0.08-12.063,0.133-18.756,0.157v-68.812
		h18.756V265.254z"/>
	<path fill="#C7DFF3" stroke="#FFFFFF" stroke-miterlimit="10" d="M530.212,265.628c-5.42,0.018-11.115,0.021-17.215-0.017v-0.005
		v-69.007h17.215V265.628z"/>
	<path fill="#C7DFF3" stroke="#FFFFFF" stroke-miterlimit="10" d="M512.999,265.28c-10.963-0.057-22.637-0.21-35.754-0.495v-68.187
		h35.754V265.28z"/>
	<polygon fill="#C7DFF3" stroke="#FFFFFF" stroke-miterlimit="10" points="289.885,251.965 274.69,250.797 274.69,226.428 
		289.806,226.428 	"/>
	<polygon fill="#C7DFF3" stroke="#FFFFFF" stroke-miterlimit="10" points="274.69,250.797 244.498,248.465 244.498,226.428 
		274.69,226.428 	"/>
	<polygon fill="#C7DFF3" stroke="#FFFFFF" stroke-miterlimit="10" points="244.498,248.465 214.956,246.171 214.956,196.599 
		244.498,196.599 244.498,226.428 	"/>
	<path fill="#C7DFF3" stroke="#FFFFFF" stroke-miterlimit="10" d="M214.956,246.499l-33.909-2.651
		c-8.767-0.686-15.054-4.688-17.672-11.263l-13.414-35.986h64.995V246.499L214.956,246.499z"/>
	<polygon fill="#C7DFF3" stroke="#FFFFFF" stroke-miterlimit="10" points="377.101,410.828 329.652,410.828 329.652,334.744 
		370.738,334.744 370.738,391.621 377.149,391.621 	"/>
	<path fill="#C7DFF3" stroke="#FFFFFF" stroke-miterlimit="10" d="M432.633,410.828h-37.936v-46.891h5.46v-20.568h-16.714v-8.225
		c16.396-0.361,33.375,0.733,49.189,2.469L432.633,410.828L432.633,410.828z"/>
	<rect x="289.207" y="334.744" fill="#C7DFF3" stroke="#FFFFFF" stroke-miterlimit="10" width="40.446" height="76.084"/>
	<rect x="271.318" y="334.744" fill="#C7DFF3" stroke="#FFFFFF" stroke-miterlimit="10" width="17.888" height="76.084"/>
	<rect x="253.459" y="334.744" fill="#C7DFF3" stroke="#FFFFFF" stroke-miterlimit="10" width="17.859" height="76.084"/>
	<path fill="#C7DFF3" stroke="#FFFFFF" stroke-miterlimit="10" d="M253.459,410.828h-41.606v-76.084c2.854,0.506,5.622,0.01,8.589,0
		h33.019L253.459,410.828L253.459,410.828z"/>
	<path fill="#C7DFF3" stroke="#FFFFFF" stroke-miterlimit="10" d="M211.853,410.828L211.853,410.828
		c-16.064,0.029-30.779-3.721-39.891-11.863v-1.114v-68.209l18.652-14.948c-0.375,10.563,9.588,17.996,21.238,20.053
		L211.853,410.828L211.853,410.828z"/>
	<path fill="#C7DFF3" stroke="#FFFFFF" stroke-miterlimit="10" d="M109.521,320.035l20.454,0.121v6.871h28.144l28.282-21.105
		l-3.49-10.018c-2.507-7.233-8.372-12.228-16.792-14.317l-71.563-17.463l0.786,3.955
		C95.335,269.382,109.521,320.035,109.521,320.035z"/>
	<path fill="#C7DFF3" stroke="#FFFFFF" stroke-miterlimit="10" d="M477.245,264.462c-5.814-0.136-11.447-0.445-17.693-0.624v-67.239
		h17.693V264.462z"/>
	<path fill="#C7DFF3" stroke="#FFFFFF" stroke-miterlimit="10" d="M459.552,263.839c-5.43-0.159-10.855-0.5-16.588-0.717v-66.522
		h16.588V263.839z"/>
	<path fill="#C7DFF3" stroke="#FFFFFF" stroke-miterlimit="10" d="M442.964,263.122c-6.127-0.205-12.026-0.775-18.485-1.064v-65.458
		h18.485V263.122z"/>
	<path fill="#C7DFF3" stroke="#FFFFFF" stroke-miterlimit="10" d="M424.479,262.056c-5.722-0.231-11.2-0.827-17.196-1.117v-64.34
		h17.196V262.056z"/>
	<path fill="#C7DFF3" stroke="#FFFFFF" stroke-miterlimit="10" d="M407.283,260.942c-13.432-0.666-27.355-1.449-42.105-2.389
		v-61.954h42.105V260.942z"/>
	<path fill="#C7DFF3" stroke="#FFFFFF" stroke-miterlimit="10" d="M365.177,258.228c-13.303-0.841-25.82-1.018-40.146-2.11v-59.519
		h40.146V258.228z"/>
	<path fill="#C7DFF3" stroke="#FFFFFF" stroke-miterlimit="10" d="M325.03,256.118c-8.712-0.671-16.172-0.336-25.257-1.113v-28.576
		h25.257V256.118z"/>
	<path fill="#C7DFF3" stroke="#FFFFFF" stroke-miterlimit="10" d="M492.636,293.861l-5.6-11.502c0,0-3.104-3.914,6.451-3.776
		c9.543,0.14,26.244,0.188,26.244,0.188s5.346-0.026,4.65,3.004c-0.695,3.031-0.023,3.452-5.227,5.774
		c-5.197,2.328-18.398,7.978-18.398,7.978S494.718,298.123,492.636,293.861"/>
	<path fill="#C7DFF3" stroke="#FFFFFF" stroke-miterlimit="10" d="M200.988,260.541l22.613-0.014c0,0,8.564-0.99,1.447,6.796
		c-7.116,7.796-19.25,21.493-19.25,21.493s-3.806,4.398-8.198,2.622c-4.398-1.779-5.562-1.396-5.564-6.592
		c0-5.199,0.4-18.293,0.4-18.293S192.604,260.548,200.988,260.541"/>
	<path fill="#999999" d="M249.173,320.356c0,3.204-2.598,5.799-5.799,5.799c-3.207,0-5.799-2.595-5.799-5.799
		c0-3.201,2.593-5.802,5.799-5.802C246.576,314.554,249.173,317.155,249.173,320.356"/>
	<path fill="#999999" d="M480.882,278.643c0,3.204-2.6,5.8-5.801,5.8c-3.207,0-5.801-2.596-5.801-5.8
		c0-3.203,2.594-5.802,5.801-5.802C478.284,272.842,480.882,275.44,480.882,278.643"/>
	<path fill="#999999" d="M506.551,328.209c0,3.199-2.598,5.8-5.799,5.8c-3.207,0-5.799-2.601-5.799-5.8
		c0-3.207,2.592-5.805,5.799-5.805C503.953,322.405,506.551,325.002,506.551,328.209"/>
	<path fill="#999999" d="M211.269,307.517c0,3.205-2.599,5.8-5.799,5.8c-3.206,0-5.8-2.595-5.8-5.8c0-3.202,2.594-5.802,5.8-5.802
		C208.67,301.717,211.269,304.315,211.269,307.517"/>
	<path fill="#EFEBDD" stroke="#FFFFFF" stroke-miterlimit="10" d="M126.91,207.883l-17.956,2.23
		c-6.759,0.069-13.813,2.996-13.885,8.782l-0.517,45.229l46.198,11.164c0,0,32.833,4.25-2.316-78.688h-0.569L126.91,207.883z"/>
	<path fill="none" d="M736.144,368.901l23.645-54.918c0.807-1.896,1.709-6.298,1.605-7.916l-5.439-73.958
		c-0.652-7.847-4.58-12.31-12.803-14.191l-91.242-21.328c-1.604-0.365-3.35-0.016-5.211,0H138.092l-10.945,11.275l-17.945,2.229
		c-6.753,0.07-13.803,2.994-13.875,8.775l-0.552,43.963c-0.016,1.434,0.157,2.789,0.504,4.043l22.911,81.5
		c1.187,4.224,3.467,7.799,6.743,10.56l47.234,40.401c6.779,5.707,17.17,11.291,28.79,11.334h368.643
		c3.563,0.017,8.154-4.274,9.83-7.789l22.459-47.026c2.133-4.447,8.313-8.043,12.137-7.043l107.865,28.459
		C726.522,378.468,733.718,374.265,736.144,368.901"/>
	<rect x="244.652" y="196.589" fill="none" width="80.477" height="29.808"/>
	<path fill="none" d="M523.552,355.769l8.682-22.215c0.666-1.724,3.078-3.198,4.549-2.804l41.658,11.416l-17.285,36.138
		L523.552,355.769z M534.747,301.953l14.963-13.833c3.484-3.223,7.943-5.283,11.59-5.355l37.939-0.836
		c5.289-0.119,7.393,3.861,4.797,9.077l-17.814,35.73c-2.031,4.059-7.611,7.262-11.031,6.326L532.548,321.4
		C525.126,319.369,526.206,309.838,534.747,301.953 M329.152,312.082c-2.13,1.785-4.678,2.92-6.84,3.062l-29.859,1.896
		c-3.469,0.22-6.353-0.523-8.319-2.166l-39.806-33.153c-2.19-1.829-1.464-5.704,1.744-9.266c2.941-3.262,7.325-5.351,10.558-5.027
		l101.497,10.109c5.098,0.506,4.609,6.504-0.898,11.103L329.152,312.082z M400.731,313.815l-33.546-3.766
		c-5.813-0.646-5.355-7.43,0.845-12.825l15.607-13.577c4.157-3.614,9.317-5.753,13.342-5.525l24.604,1.39
		c5.803,0.329,6.775,5.979,2.027,11.827l-15.025,18.516C406.523,312.39,403.161,314.086,400.731,313.815 M469.331,325.362
		l-38.83-6.215c-5.753-0.916-6.39-6.992-1.391-13.179l10.495-12.983c3.295-4.083,8.965-6.417,12.057-4.977l35.707,16.647
		c4.127,1.926,3.104,7.938-2.215,12.984l-2.324,2.215C478.706,323.75,473.243,325.979,469.331,325.362"/>
	<path fill="none" d="M249.353,320.256c0,3.205-2.597,5.796-5.795,5.796c-3.204,0-5.795-2.591-5.795-5.796
		c0-3.198,2.591-5.795,5.795-5.795C246.755,314.461,249.353,317.056,249.353,320.256"/>
	<path fill="none" d="M480.899,278.576c0,3.198-2.598,5.795-5.795,5.795c-3.205,0-5.801-2.597-5.801-5.795
		c0-3.204,2.596-5.8,5.801-5.8C478.302,272.777,480.899,275.372,480.899,278.576"/>
	<path fill="none" d="M502.308,324.692c0,3.198-2.598,5.795-5.795,5.795c-3.205,0-5.797-2.597-5.797-5.795
		c0-3.205,2.592-5.802,5.797-5.802C499.712,318.89,502.308,321.487,502.308,324.692"/>
	<path fill="none" d="M211.474,307.427c0,3.202-2.597,5.795-5.795,5.795c-3.204,0-5.796-2.593-5.796-5.795
		c0-3.201,2.592-5.798,5.796-5.798C208.877,301.631,211.474,304.226,211.474,307.427"/>
	<path fill="none" d="M127.172,207.864l-17.944,2.227c-6.753,0.072-13.804,2.996-13.875,8.777l-0.515,45.198l46.166,11.155
		c0,0,32.811,4.245-2.315-78.634h-0.57L127.172,207.864z"/>
	<path fill="#CCCCCC" stroke="#FFFFFF" stroke-miterlimit="10" d="M325.129,256.066c-8.705-0.67-16.16-0.338-25.239-1.114v-28.556
		h25.239V256.066z"/>
</g>
<g id="rooms">
	<path id="r316" fill="#939598" stroke="#FFFFFF" stroke-width="0.5" stroke-miterlimit="10" d="M606.857,350.012l-0.961-2.746
		l41.01-81.166h13.188v-20.388l10.976,0.093v-44.204l71.582,16.391c7.295,1.699,12.231,7.122,12.803,14.191l5.44,73.958
		c0.228,2.771-0.147,4.631-1.606,7.916l-23.644,54.918c-2.211,4.961-9.95,9.407-14.254,8.366L606.857,350.012z"/>
	<polygon id="r302-303" fill="#939598" stroke="#FFFFFF" stroke-width="0.5" stroke-miterlimit="10" points="274.325,226.47 
		244.152,226.47 244.152,196.663 214.631,196.663 214.631,246.2 242.413,248.357 242.413,248.357 243.038,248.406 244.152,248.492 
		244.152,248.491 274.325,250.823 	"/>
	<path id="r317" fill="#939598" stroke="#FFFFFF" stroke-width="0.5" stroke-miterlimit="10" d="M560.482,379.049l20.791,17.698
		l19.478-39.959c1.012-2.063,2.78-4.125,4.979-5.793l-0.955-2.75l-26.687-5.6L560.482,379.049z"/>
	<path id="r318" fill="#939598" stroke="#FFFFFF" stroke-width="0.5" stroke-miterlimit="10" d="M501.752,348.756v61.985h66.69
		c3.469,0,7.918-3.651,9.481-7.098l2.967-6.568l-20.787-17.698C560.105,379.377,523.099,354.658,501.752,348.756"/>
	<path id="r319" fill="#939598" stroke="#FFFFFF" stroke-width="0.5" stroke-miterlimit="10" d="M501.752,410.742h-20.937v-66.787
		c12.758,2.484,20.937,4.479,20.937,4.479V410.742z"/>
	<path id="r320" fill="#939598" stroke="#FFFFFF" stroke-width="0.5" stroke-miterlimit="10" d="M480.816,410.742h-24.045v-70.604
		c8.918,1.379,17.336,2.832,24.045,4.141V410.742z"/>
	<path id="r321" fill="#939598" stroke="#FFFFFF" stroke-width="0.5" stroke-miterlimit="10" d="M456.771,410.742h-24.613v-73.494
		c8.521,0.934,17.07,2.041,24.613,3.214V410.742z"/>
	<path id="r315" fill="#939598" stroke="#FFFFFF" stroke-width="0.5" stroke-miterlimit="10" d="M591.367,263.711
		c0,0-15.067,0.94-42.959,1.337v-68.385h32.672v59.353l10.287,0.11V263.711z"/>
	<path id="r314" fill="#939598" stroke="#FFFFFF" stroke-width="0.5" stroke-miterlimit="10" d="M548.408,265.27
		c-5.631,0.077-12.055,0.13-18.741,0.153v-68.761h18.741V265.27z"/>
	<path id="r313" fill="#939598" stroke="#FFFFFF" stroke-width="0.5" stroke-miterlimit="10" d="M529.667,265.642
		c-5.414,0.02-11.107,0.022-17.201-0.017v-0.004v-68.959h17.201V265.642z"/>
	<path id="r312" fill="#939598" stroke="#FFFFFF" stroke-width="0.5" stroke-miterlimit="10" d="M512.465,265.294
		c-10.953-0.054-22.621-0.208-35.728-0.491v-68.14h35.728V265.294z"/>
	<path id="r301" fill="#939598" stroke="#FFFFFF" stroke-width="0.5" stroke-miterlimit="10" d="M214.631,246.528l-33.886-2.649
		c-8.76-0.686-15.043-4.685-17.66-11.257l-13.404-35.959h64.95V246.528L214.631,246.528z"/>
	<polygon id="r323" fill="#939598" stroke="#FFFFFF" stroke-width="0.5" stroke-miterlimit="10" points="376.662,410.742 
		329.249,410.742 329.249,334.711 370.304,334.711 370.304,391.547 376.713,391.547 	"/>
	<path id="r322" fill="#939598" stroke="#FFFFFF" stroke-width="0.5" stroke-miterlimit="10" d="M432.158,410.742h-37.911v-46.856
		h5.455v-20.558h-16.699v-8.219c16.381-0.361,33.352,0.734,49.154,2.467L432.158,410.742L432.158,410.742z"/>
	
		<rect id="r324" x="288.829" y="334.711" fill="#939598" stroke="#FFFFFF" stroke-width="0.5" stroke-miterlimit="10" width="40.419" height="76.03"/>
	<path id="r328" fill="#939598" stroke="#FFFFFF" stroke-width="0.5" stroke-miterlimit="10" d="M211.528,410.742L211.528,410.742
		c-16.051,0.029-30.756-3.721-39.861-11.854v-1.115V329.61l18.641-14.938c-0.374,10.559,9.581,17.982,21.221,20.041L211.528,410.742
		L211.528,410.742z"/>
	<path id="r329" fill="#939598" stroke="#FFFFFF" stroke-width="0.5" stroke-miterlimit="10" d="M109.269,320.012l20.438,0.12v6.868
		h28.125l28.263-21.093l-3.489-10.013c-2.504-7.229-8.365-12.217-16.78-14.308L94.313,264.14l0.787,3.951
		C95.094,269.396,109.269,320.012,109.269,320.012z"/>
	<path id="r311" fill="#939598" stroke="#FFFFFF" stroke-width="0.5" stroke-miterlimit="10" d="M476.738,264.479
		c-5.813-0.136-11.44-0.444-17.687-0.623v-67.192h17.687V264.479z"/>
	<path id="r310" fill="#939598" stroke="#FFFFFF" stroke-width="0.5" stroke-miterlimit="10" d="M459.052,263.855
		c-5.424-0.159-10.847-0.501-16.573-0.719v-66.475h16.573V263.855z"/>
	<path id="r309" fill="#939598" stroke="#FFFFFF" stroke-width="0.5" stroke-miterlimit="10" d="M442.479,263.137
		c-6.122-0.202-12.016-0.771-18.471-1.063v-65.412h18.471V263.137z"/>
	<path id="r308" fill="#939598" stroke="#FFFFFF" stroke-width="0.5" stroke-miterlimit="10" d="M424.009,262.075
		c-5.719-0.23-11.19-0.83-17.184-1.119v-64.293h17.184V262.075z"/>
	<path id="r331" fill="#939598" stroke="#FFFFFF" stroke-width="0.5" stroke-miterlimit="10" d="M492.117,293.854l-5.594-11.494
		c0,0-3.103-3.908,6.446-3.773c9.535,0.142,26.228,0.188,26.228,0.188s5.34-0.024,4.646,3.001c-0.694,3.031-0.024,3.451-5.224,5.771
		c-5.194,2.326-18.389,7.973-18.389,7.973S494.195,298.116,492.117,293.854"/>
	<path id="r330" fill="#939598" stroke="#FFFFFF" stroke-width="0.5" stroke-miterlimit="10" d="M200.674,260.56l22.598-0.015
		c0,0,8.56-0.989,1.448,6.789c-7.112,7.793-19.236,21.478-19.236,21.478s-3.805,4.396-8.193,2.621
		c-4.396-1.776-5.556-1.396-5.561-6.587c0-5.196,0.399-18.278,0.399-18.278S192.295,260.565,200.674,260.56"/>
	<polygon id="r304" fill="#939598" stroke="#FFFFFF" stroke-width="0.5" stroke-miterlimit="10" points="289.507,251.991 
		274.325,250.823 274.325,226.47 289.428,226.47 	"/>
	<path id="r301_1_" fill="#939598" stroke="#FFFFFF" stroke-width="0.5" stroke-miterlimit="10" d="M286.131,189.861l-33.886-2.649
		c-8.76-0.686-15.043-4.685-17.66-11.257l-13.404-35.959h64.95V189.861L286.131,189.861z"/>
	<path id="r306-307" fill="#939598" stroke="#FFFFFF" stroke-width="0.5" stroke-miterlimit="10" d="M406.825,196.663h-39.288
		h-2.791h-40.117v59.478c14.316,1.09,29.616,1.769,42.908,2.608v-0.001c13.706,0.863,26.717,1.589,39.288,2.212V196.663z"/>
	
		<rect id="k06" x="627.12" y="247.64" fill="#939598" stroke="#FFFFFF" stroke-width="0.5" stroke-miterlimit="10" width="27.75" height="14.5"/>
	<path id="k305" fill="#939598" stroke="#FFFFFF" stroke-width="0.5" stroke-miterlimit="10" d="M500.832,303.95
		c1.241,0.774,1.619,2.411,0.844,3.653l-2.094,3.352c-0.774,1.241-2.411,1.62-3.652,0.845l0,0c-1.243-0.775-1.622-2.412-0.846-3.655
		l2.093-3.351C497.952,303.551,499.589,303.174,500.832,303.95L500.832,303.95z"/>
	<path id="k304" fill="#939598" stroke="#FFFFFF" stroke-width="0.5" stroke-miterlimit="10" d="M495.255,312.95
		c1.241,0.774,1.619,2.411,0.844,3.653l-2.094,3.352c-0.774,1.241-2.411,1.62-3.652,0.845l0,0c-1.243-0.775-1.622-2.412-0.846-3.655
		l2.093-3.351C492.375,312.551,494.012,312.174,495.255,312.95L495.255,312.95z"/>
	<path id="r325-327" fill="#939598" stroke="#FFFFFF" stroke-width="0.5" stroke-miterlimit="10" d="M270.954,334.711h-4.417
		h-13.429h-2.904h-30.092c-2.965,0.011-5.732,0.506-8.584,0v76.031h41.58v-0.001h13.429h4.417h17.875v-76.03H270.954z"/>
	<path id="k302" fill="#939598" stroke="#FFFFFF" stroke-width="0.5" stroke-miterlimit="10" d="M375.081,317.175
		c-0.287,2.143-2.256,3.647-4.4,3.361l-5.784-0.772c-2.144-0.287-3.647-2.259-3.361-4.402l0,0c0.288-2.145,2.258-3.649,4.402-3.363
		l5.783,0.773C373.862,313.058,375.368,315.03,375.081,317.175L375.081,317.175z"/>
	<path id="k301" fill="#939598" stroke="#FFFFFF" stroke-width="0.5" stroke-miterlimit="10" d="M366.625,289.39
		c1.43,1.621,1.275,4.095-0.347,5.526l-4.375,3.861c-1.622,1.432-4.097,1.273-5.528-0.348l0,0c-1.431-1.623-1.275-4.097,0.346-5.528
		l4.375-3.86C362.718,287.612,365.194,287.767,366.625,289.39L366.625,289.39z"/>
</g>
<g id="signs">
	<g id="escalator">
		<rect id="escalator-2" x="608.822" y="288.897" opacity="0.8" enable-background="new    " width="14.812" height="14.81"/>
		<rect id="escalator-1" x="303.604" y="257.074" opacity="0.8" enable-background="new    " width="14.811" height="14.81"/>
	</g>
	<g id="toilet">
		<rect id="toilet-2" x="597.324" y="219.064" opacity="0.8" enable-background="new    " width="14.812" height="14.811"/>
		<rect id="toilet-1" x="119.321" y="332.734" opacity="0.8" enable-background="new    " width="14.811" height="14.81"/>
	</g>
	<rect id="atm" x="586.586" y="237.326" opacity="0.8" enable-background="new    " width="14.812" height="14.811"/>
	<g id="lift">
		<rect id="lift-2" x="382.003" y="345.955" opacity="0.8" enable-background="new    " width="14.811" height="14.811"/>
		<rect id="lift-1" x="644.322" y="219.064" opacity="0.8" enable-background="new    " width="14.812" height="14.811"/>
	</g>
</g>
</svg>
