<?xml version="1.0" encoding="utf-8"?>
<!-- Generator: Adobe Illustrator 16.0.0, SVG Export Plug-In . SVG Version: 6.00 Build 0)  -->
<!DOCTYPE svg PUBLIC "-//W3C//DTD SVG 1.1//EN" "http://www.w3.org/Graphics/SVG/1.1/DTD/svg11.dtd">
<svg version="1.1" id="Layer_1" xmlns="http://www.w3.org/2000/svg" xmlns:xlink="http://www.w3.org/1999/xlink" x="0px" y="0px"
	 width="878.74px" height="595.281px" viewBox="0 0 878.74 595.281" enable-background="new 0 0 878.74 595.281"
	 xml:space="preserve">
<g id="Background">
	<rect x="0" fill="#FFFFFF" width="878.74" height="595.281"/>
</g>
<g id="Original">
	<g>
		<g>
			<g>
				<g>
					<g>
						<path fill="#C7DFF3" stroke="#FFFFFF" stroke-miterlimit="10" d="M331.266,380.732v-21.576l13.117,0.051l0.049-21.344
							c0,0-52.42,4.223-63.563,10.428l0.097,64.277h63.517l-0.067-31.836H331.266L331.266,380.732z"/>
					</g>
				</g>
			</g>
		</g>
		<g>
			<g>
				<g>
					<g>
						<rect x="255.334" y="230.906" fill="#C7DFF3" stroke="#FFFFFF" stroke-miterlimit="10" width="25.399" height="21.578"/>
					</g>
				</g>
			</g>
		</g>
		<g>
			<g>
				<g>
					<g>
						<polygon fill="#C7DFF3" stroke="#FFFFFF" stroke-miterlimit="10" points="629.785,235.44 629.808,251.417 648.813,251.478 
							641.078,241.73 						"/>
					</g>
				</g>
			</g>
		</g>
		<g>
			<g>
				<g>
					<g>
						<polygon fill="#C7DFF3" stroke="#FFFFFF" stroke-miterlimit="10" points="653.211,242.581 659.844,250.411 691.109,250.517 
							684.703,242.581 						"/>
					</g>
				</g>
			</g>
		</g>
		<g>
			<g>
				<g>
					<g>
						<path fill="#C7DFF3" stroke="#FFFFFF" stroke-miterlimit="10" d="M766.751,304.746l-0.023-10.672h38.103l0.011,10.672H766.751
							z M817.545,304.873l-12.832-32.042H779.4l-0.029-21.448l16.714,0.321c0,0-0.332,0.095-1.566-4.026
							c-1.235-4.118-11.125-16.888-24.719-18.539l-46.024-5.982l-71.26,129.323l101.451,16.008c0,0,9.651,1.547,25.265-10.182
							L817.545,304.873z"/>
					</g>
				</g>
			</g>
		</g>
		<g>
			<g>
				<g>
					<g>
						<rect x="230.094" y="230.906" fill="#C7DFF3" stroke="#FFFFFF" stroke-miterlimit="10" width="25.239" height="21.578"/>
					</g>
				</g>
			</g>
		</g>
		<g>
			<g>
				<g>
					<g>
						<rect x="204.741" y="209.91" fill="#C7DFF3" stroke="#FFFFFF" stroke-miterlimit="10" width="25.354" height="42.574"/>
					</g>
				</g>
			</g>
		</g>
		<g>
			<g>
				<g>
					<g>
						<path fill="#C7DFF3" stroke="#FFFFFF" stroke-miterlimit="10" d="M141.146,209.91l-0.05,31.087
							c0,0,0.021,11.438,12.714,11.487h50.931V209.91H141.146z"/>
					</g>
				</g>
			</g>
		</g>
		<g>
			<g>
				<g>
					<g>
						<polygon fill="#C7DFF3" stroke="#FFFFFF" stroke-miterlimit="10" points="192.042,315.923 166.526,305.167 166.594,347.832 
							192.042,347.934 						"/>
					</g>
				</g>
			</g>
		</g>
		<g>
			<g>
				<g>
					<g>
						<polygon fill="#C7DFF3" stroke="#FFFFFF" stroke-miterlimit="10" points="77.587,272.812 77.631,304.816 90.34,304.863 
							90.36,326.275 128.463,326.275 128.5,347.686 166.598,347.826 166.526,305.167 						"/>
					</g>
				</g>
			</g>
		</g>
		<g>
			<g>
				<g>
					<g>
						<path fill="#C7DFF3" stroke="#FFFFFF" stroke-miterlimit="10" d="M216.479,370.16l-13.314-11.225l13.716-12.613l3.442,2.904
							c0,0,10.641,8.803,1.989,16.043L216.479,370.16z"/>
					</g>
				</g>
			</g>
		</g>
		<g>
			<g>
				<g>
					<g>
						<g>
							<path fill="#C7DFF3" stroke="#FFFFFF" stroke-miterlimit="10" d="M90.594,378.589l-0.052-31.178l101.499,0.381v-32
								l22.497,13.254c10.732,9.052,3.172,16.584,3.172,16.584l-25.529,23.5c-15.049,10.731-25.385,10.572-25.385,10.572
								L90.594,378.589z"/>
						</g>
					</g>
				</g>
			</g>
		</g>
		<g>
			<g>
				<g>
					<g>
						<path fill="#C7DFF3" stroke="#FFFFFF" stroke-miterlimit="10" d="M547.683,412.568H433.385l-0.11-73.84l90.082,16.35
							c0,0,7.836,1.844,14.768,7.287l31.476,30.236c0,0,3.271,4.213,0.535,10.221C570.133,402.822,561.621,412.605,547.683,412.568z
							"/>
					</g>
				</g>
			</g>
		</g>
		<g>
			<g>
				<g>
					<g>
						<polygon fill="#C7DFF3" stroke="#FFFFFF" stroke-miterlimit="10" points="433.273,338.73 407.97,337.781 407.97,412.568 
							433.38,412.568 						"/>
					</g>
				</g>
			</g>
		</g>
		<g>
			<g>
				<g>
					<g>
						<polygon fill="#C7DFF3" stroke="#FFFFFF" stroke-miterlimit="10" points="369.492,338.027 369.503,348.693 382.195,348.744 
							382.233,370.009 369.536,370.031 369.696,412.568 407.97,412.568 407.97,337.867 						"/>
					</g>
				</g>
			</g>
		</g>
		<g>
			<g>
				<g>
					<g>
						<path fill="#C7DFF3" stroke="#FFFFFF" stroke-miterlimit="10" d="M280.885,348.275c0,0-16.489,5.307-25.397,10.576
							l0.094,53.717h25.399L280.885,348.275z"/>
					</g>
				</g>
			</g>
		</g>
		<g>
			<g>
				<g>
					<g>
						<path fill="#C7DFF3" stroke="#FFFFFF" stroke-miterlimit="10" d="M204.789,412.568c-13.636,0.024-13.36-16.314-13.36-16.314
							c1.043-11.963,13.732-16.303,13.732-16.303l17.107-6.512l33.234-14.603l0.087,53.729L204.789,412.568L204.789,412.568z"/>
					</g>
				</g>
			</g>
		</g>
		<g>
			<g>
				<g>
					<g>
						<polygon fill="#C7DFF3" stroke="#FFFFFF" stroke-miterlimit="10" points="610.845,242.937 598.351,242.708 598.158,209.91 
							560.207,209.91 560.207,252.484 610.861,252.484 						"/>
					</g>
				</g>
			</g>
		</g>
		<g>
			<g>
				<g>
					<g>
						<rect x="522.101" y="209.91" fill="#C7DFF3" stroke="#FFFFFF" stroke-miterlimit="10" width="38.104" height="42.574"/>
					</g>
				</g>
			</g>
		</g>
		<g>
			<g>
				<g>
					<g>
						<rect x="484.042" y="209.91" fill="#C7DFF3" stroke="#FFFFFF" stroke-miterlimit="10" width="38.06" height="42.574"/>
					</g>
				</g>
			</g>
		</g>
		<g>
			<g>
				<g>
					<g>
						<rect x="445.966" y="209.91" fill="#C7DFF3" stroke="#FFFFFF" stroke-miterlimit="10" width="38.076" height="42.574"/>
					</g>
				</g>
			</g>
		</g>
		<g>
			<g>
				<g>
					<g>
						<polygon fill="#C7DFF3" stroke="#FFFFFF" stroke-miterlimit="10" points="395.148,252.484 445.966,252.484 445.966,209.91 
							420.384,209.91 420.384,231.409 395.124,231.278 						"/>
					</g>
				</g>
			</g>
		</g>
		<g>
			<g>
				<g>
					<g>
						<polygon fill="#C7DFF3" stroke="#FFFFFF" stroke-miterlimit="10" points="395.234,252.484 369.869,252.484 369.869,209.91 
							420.384,209.91 420.384,231.336 395.206,231.21 						"/>
					</g>
				</g>
			</g>
		</g>
		<g>
			<g>
				<g>
					<g>
						<rect x="344.505" y="209.91" fill="#C7DFF3" stroke="#FFFFFF" stroke-miterlimit="10" width="25.364" height="42.574"/>
					</g>
				</g>
			</g>
		</g>
		<g>
			<g>
				<g>
					<g>
						<rect x="318.708" y="209.91" fill="#C7DFF3" stroke="#FFFFFF" stroke-miterlimit="10" width="25.796" height="42.574"/>
					</g>
				</g>
			</g>
		</g>
		<g>
			<g>
				<g>
					<g>
						<rect x="293.351" y="230.906" fill="#C7DFF3" stroke="#FFFFFF" stroke-miterlimit="10" width="25.358" height="21.578"/>
					</g>
				</g>
			</g>
		</g>
		<g>
			<g>
				<g>
					<g>
						<g>
							<path fill="#C7DFF3" stroke="#FFFFFF" stroke-miterlimit="10" d="M527.32,294.943l-8.519-17.31c0,0-4.739-5.905,9.929-5.574
								c14.661,0.333,40.297,0.632,40.297,0.632s8.207,0.026,7.116,4.561c-1.092,4.531-0.063,5.17-8.063,8.585
								c-8.005,3.414-28.311,11.708-28.311,11.708S530.472,301.357,527.32,294.943z"/>
						</g>
					</g>
				</g>
			</g>
		</g>
		<polygon fill="#C7DFF3" stroke="#FFFFFF" stroke-miterlimit="10" points="70.534,272.583 93.032,220.392 60.471,220.392 
			43.257,221.864 35.421,261.136 		"/>
	</g>
</g>
<g id="etc">
	<path fill="#EEEADB" d="M723.773,223.158L598.158,209.91c0,0-451.682,0.353-459.923-0.13c-14.006-0.825-15.652,0-22.247,0
		c-13.303,0-21.034,6.393-27.19,18.949c-7.049,14.377-23.881,56.186-27.497,71.742c-4.271,18.381-1.146,32.034,1.477,50.168
		c0.929,6.424-0.259,14.51,4.61,19.594c4.453,4.651,11.771,7.369,18.02,8.535c0,0,71.396,0.828,83.287,0.825
		c0.256,0,7.821-2.127,8.082-2.143c0.599,0,4.06-1.82,4.456-1.979c6.103-2.474,22.509-16.4,22.509-16.4l16.726,15.332l-20.431,8.492
		c-11.876,6.104-12.369,28.864,3.959,29.522c14.391,0.582,128.667,0.285,141.466,0.051c0.584-0.01,25.544,0,25.544,0l177.975,0.412
		c0,0,8.791-1.483,14.004-4.532c1.366-0.63,6.291-6.054,7.416-7.002c6.711-5.65-7.006-14.832-7.006-14.832l-46.646-35.367
		c9.103-9.75,31.246-27.154,42.08-23.541c6.662,2.223,15.185,5.555,25.714,8.91l70.317,16.629c0,0,100.521,17.717,105.463,15.244
		c3.418-1.712,16.894-8.65,16.894-8.65l40.332-54.863l-12.832-32.042l-12.258-30.507c0,0-12.722-12.209-17.304-12.771
		C760.517,227.763,734.667,224.577,723.773,223.158z"/>
	<path fill="#CCCCCC" d="M260.215,345.287c0,3.203-2.598,5.799-5.803,5.799c-3.201,0-5.799-2.596-5.799-5.799
		s2.598-5.799,5.799-5.799C257.617,339.488,260.215,342.083,260.215,345.287"/>
	<path fill="#CCCCCC" d="M559.308,312.74c0,3.203-2.596,5.799-5.797,5.799c-3.207,0-5.799-2.596-5.799-5.799
		s2.592-5.801,5.799-5.801C556.713,306.939,559.308,309.537,559.308,312.74"/>
	<path fill="#CCCCCC" d="M494.22,271.066c0,3.204-2.599,5.799-5.799,5.799c-3.207,0-5.8-2.595-5.8-5.799s2.593-5.8,5.8-5.8
		C491.623,265.267,494.22,267.863,494.22,271.066"/>
	<path fill="#FFFFFF" d="M393.989,282.988c0,0-5.601-10.883-13.16-10.964l-35.819-0.098c0,0-6.845-1.031-10.581,5.303l-15.885,26.91
		c0,0,2.236,3.959,3.077,5.436c3.109,5.496,9.366,5.529,9.366,5.529l68.894,0.756c0,0,12.504,0.125,6.354-10.762L393.989,282.988z"
		/>
	<path fill="#FFFFFF" d="M288.19,271.508l-37.535-0.381l-55.124-0.5c0,0-4.794-0.292-8.007,3.411l-5.777,7.228
		c0,0-3.179,5.383,6.161,10.896l65.326,38.561c0,0,5.696,4.094,12.514,0.125l18.862-10.636l21.991-37.256
		C306.601,282.956,305.052,271.682,288.19,271.508z"/>
	<path fill="#FFFFFF" d="M494.369,305.998l-55.915-33.002c-18.752-11.07-22.053,5.175-18.943,10.587l12.132,22.083
		c0,0,5.789,7.98,14.188,10.672l35.832,11.191l18.863-10.654C500.525,316.875,503.697,311.503,494.369,305.998z"/>
	<path fill="#FFFFFF" d="M641.705,279.377l-44.786-0.463c0,0-5.229-0.063-8.406,5.32l-9.528,16.155c0,0-6.384,10.774,15.465,16.418
		l46.862,5.881c0,0,12.515,0.127,18.892-10.654l0.171-21.643C660.371,290.39,654.215,279.491,641.705,279.377z"/>
	<polygon fill="#CCCCCC" points="766.751,304.746 766.726,294.073 804.828,294.073 804.838,304.746 	"/>
	<polygon fill="#CCCCCC" stroke="#FFFFFF" stroke-miterlimit="10" points="70.813,272.604 93.298,220.438 60.754,220.438 
		43.55,221.911 35.718,261.164 	"/>
	<rect x="230.094" y="209.91" fill="#CCCCCC" width="88.613" height="20.997"/>
	<path fill="#CCCCCC" stroke="#FFFFFF" stroke-miterlimit="10" d="M331.407,380.695V359.13l13.11,0.048l0.049-21.326
		c0,0-52.395,4.217-63.53,10.416l0.097,64.246h63.481l-0.066-31.818H331.407L331.407,380.695z"/>
	<path fill="#CCCCCC" stroke="#FFFFFF" stroke-miterlimit="10" d="M281.053,348.253c0,0-16.481,5.308-25.385,10.572l0.095,53.688
		h25.386L281.053,348.253z"/>
	<path fill="#CCCCCC" stroke="#FFFFFF" stroke-miterlimit="10" d="M204.997,412.514c-13.629,0.022-13.354-16.306-13.354-16.306
		c1.042-11.957,13.726-16.297,13.726-16.297l17.099-6.509l33.218-14.592l0.087,53.701L204.997,412.514L204.997,412.514z"/>
	<polygon fill="#CCCCCC" stroke="#FFFFFF" stroke-miterlimit="10" points="629.769,235.481 629.792,251.45 648.785,251.511 
		641.054,241.769 	"/>
</g>
<g id="rooms">
	
		<rect id="r204" x="255.515" y="230.95" fill="#939598" stroke="#FFFFFF" stroke-width="0.5" stroke-miterlimit="10" width="25.386" height="21.566"/>
	<polygon id="r215" fill="#939598" stroke="#FFFFFF" stroke-width="0.5" stroke-miterlimit="10" points="653.181,242.616 
		659.81,250.442 691.058,250.548 684.656,242.616 	"/>
	<path id="r216" fill="#939598" stroke="#FFFFFF" stroke-width="0.5" stroke-miterlimit="10" d="M766.662,304.75l-0.022-10.665
		h38.08l0.01,10.665H766.662z M817.429,304.875l-12.825-32.021h-25.3l-0.028-21.437l16.705,0.318c0,0-0.334,0.097-1.568-4.021
		c-1.235-4.119-11.116-16.881-24.705-18.529l-46-5.98l-71.221,129.253l101.397,16c0,0,9.646,1.545,25.25-10.176L817.429,304.875z"/>
	
		<rect id="r203" x="230.289" y="230.95" fill="#939598" stroke="#FFFFFF" stroke-width="0.5" stroke-miterlimit="10" width="25.228" height="21.566"/>
	
		<rect id="r202" x="204.949" y="209.966" fill="#939598" stroke="#FFFFFF" stroke-width="0.5" stroke-miterlimit="10" width="25.34" height="42.551"/>
	<path id="r201" fill="#939598" stroke="#FFFFFF" stroke-width="0.5" stroke-miterlimit="10" d="M141.388,209.966l-0.052,31.07
		c0,0,0.022,11.431,12.708,11.48h50.904v-42.551L141.388,209.966L141.388,209.966z"/>
	<polygon id="r225" fill="#939598" stroke="#FFFFFF" stroke-width="0.5" stroke-miterlimit="10" points="192.256,315.921 
		166.754,305.169 166.822,347.811 192.256,347.912 	"/>
	<polygon id="r224" fill="#939598" stroke="#FFFFFF" stroke-width="0.5" stroke-miterlimit="10" points="77.862,272.832 
		77.906,304.82 90.608,304.869 90.628,326.268 128.711,326.268 128.748,347.666 166.827,347.805 166.754,305.169 	"/>
	<g id="r223">
		<path fill="#939598" stroke="#FFFFFF" stroke-width="0.5" stroke-miterlimit="10" d="M216.682,370.126l-13.31-11.217
			l13.709-12.604l3.44,2.899c0,0,10.635,8.797,1.988,16.034L216.682,370.126z"/>
		<path fill="#939598" stroke="#FFFFFF" stroke-width="0.5" stroke-miterlimit="10" d="M90.862,378.553l-0.05-31.162l101.443,0.381
			v-31.979l22.485,13.244c10.727,9.047,3.17,16.574,3.17,16.574l-25.516,23.49c-15.041,10.727-25.372,10.565-25.372,10.565
			L90.862,378.553z"/>
	</g>
	<path id="r217" fill="#939598" stroke="#FFFFFF" stroke-width="0.5" stroke-miterlimit="10" d="M547.711,412.514H433.471
		l-0.11-73.8l90.034,16.339c0,0,7.831,1.844,14.762,7.286l31.455,30.222c0,0,3.271,4.207,0.535,10.215
		C570.146,402.775,561.64,412.55,547.711,412.514z"/>
	<polygon id="r218" fill="#939598" stroke="#FFFFFF" stroke-width="0.5" stroke-miterlimit="10" points="433.36,338.714 
		408.071,337.764 408.071,412.514 433.468,412.514 	"/>
	<polygon id="r219" fill="#939598" stroke="#FFFFFF" stroke-width="0.5" stroke-miterlimit="10" points="369.614,338.009 
		369.624,348.673 382.31,348.723 382.349,369.98 369.657,370.001 369.817,412.514 408.071,412.514 408.071,337.852 	"/>
	<polygon id="r213" fill="#939598" stroke="#FFFFFF" stroke-width="0.5" stroke-miterlimit="10" points="610.84,242.973 
		598.351,242.746 598.158,209.966 560.226,209.966 560.226,252.517 610.854,252.517 	"/>
	
		<rect id="r212" x="522.14" y="209.966" fill="#939598" stroke="#FFFFFF" stroke-width="0.5" stroke-miterlimit="10" width="38.086" height="42.551"/>
	
		<rect id="r211" x="484.103" y="209.966" fill="#939598" stroke="#FFFFFF" stroke-width="0.5" stroke-miterlimit="10" width="38.037" height="42.551"/>
	
		<rect id="r210" x="446.048" y="209.966" fill="#939598" stroke="#FFFFFF" stroke-width="0.5" stroke-miterlimit="10" width="38.056" height="42.551"/>
	<polygon id="r209" fill="#939598" stroke="#FFFFFF" stroke-width="0.5" stroke-miterlimit="10" points="395.257,252.517 
		446.048,252.517 446.048,209.966 420.478,209.966 420.478,231.45 395.231,231.322 	"/>
	<polygon id="r208" fill="#939598" stroke="#FFFFFF" stroke-width="0.5" stroke-miterlimit="10" points="395.344,252.517 
		369.99,252.517 369.99,209.966 420.478,209.966 420.478,231.378 395.313,231.252 	"/>
	
		<rect id="r207" x="344.638" y="209.966" fill="#939598" stroke="#FFFFFF" stroke-width="0.5" stroke-miterlimit="10" width="25.353" height="42.551"/>
	
		<rect id="r206" x="318.857" y="209.966" fill="#939598" stroke="#FFFFFF" stroke-width="0.5" stroke-miterlimit="10" width="25.78" height="42.551"/>
	
		<rect id="r205" x="293.512" y="230.95" fill="#939598" stroke="#FFFFFF" stroke-width="0.5" stroke-miterlimit="10" width="25.345" height="21.566"/>
	<path id="r227" fill="#939598" stroke="#FFFFFF" stroke-width="0.5" stroke-miterlimit="10" d="M527.357,294.951l-8.513-17.299
		c0,0-4.737-5.901,9.92-5.573c14.654,0.332,40.276,0.632,40.276,0.632s8.201,0.029,7.111,4.56c-1.091,4.527-0.063,5.168-8.06,8.58
		c-8,3.411-28.295,11.701-28.295,11.701S530.508,301.363,527.357,294.951z"/>
	
		<rect id="r226" x="115.37" y="266.178" fill="#939598" stroke="#FFFFFF" stroke-width="0.5" stroke-miterlimit="10" width="22" height="13.308"/>
</g>
<g id="Signs">
	<g id="escalator">
		<rect id="escalator-2" x="664.717" y="277.966" opacity="0.8" enable-background="new    " width="14.812" height="14.811"/>
		<rect id="escalator-1" x="259.762" y="254.427" opacity="0.8" enable-background="new    " width="14.811" height="14.813"/>
	</g>
	<rect id="atm" x="645.777" y="220.438" opacity="0.8" enable-background="new    " width="14.812" height="14.811"/>
	<g id="elevator">
		<rect id="elevator-2" x="624.469" y="220.438" opacity="0.8" enable-background="new    " width="14.812" height="14.811"/>
		<rect id="elevator-1" x="363.363" y="350.813" opacity="0.8" enable-background="new    " width="14.812" height="14.813"/>
	</g>
	<g id="toilet">
		<rect id="toilet-2" x="604.42" y="220.438" opacity="0.8" enable-background="new    " width="14.812" height="14.811"/>
		<rect id="toilet-1" x="70.457" y="343.408" opacity="0.8" enable-background="new    " width="14.812" height="14.811"/>
	</g>
	<rect id="entrance" x="51.789" y="235.289" opacity="0.8" enable-background="new    " width="14.812" height="14.812"/>
</g>
</svg>
