<?xml version="1.0" encoding="utf-8"?>
<!-- Generator: Adobe Illustrator 16.0.0, SVG Export Plug-In . SVG Version: 6.00 Build 0)  -->
<!DOCTYPE svg PUBLIC "-//W3C//DTD SVG 1.1//EN" "http://www.w3.org/Graphics/SVG/1.1/DTD/svg11.dtd">
<svg version="1.1" id="Layer_1" xmlns="http://www.w3.org/2000/svg" xmlns:xlink="http://www.w3.org/1999/xlink" x="0px" y="0px"
	 width="841.89px" height="595.281px" viewBox="0 0 841.89 595.281" enable-background="new 0 0 841.89 595.281"
	 xml:space="preserve">
<g id="background">
	<rect y="0" fill="#FFFFFF" width="841.89" height="595.281"/>
</g>
<g id="etc">
	<path fill="#D3D3D3" stroke="#494949" stroke-width="0.5" stroke-miterlimit="10" d="M590.125,380.126l-0.645-0.623l0.002-0.002
		L453,247.375l-15.75-6.25l-144.805-0.246v63.122H396.5l0.063,2.875l1.625,1.911l15.063-0.125l0.313,0.125h7.092
		c0,0,1.875,2.567,4.248,5.533l8.973,8.867l0,0c0.006,0,0.008,0,0.014,0l1.824-0.099c0.301-0.072,0.553-0.173,0.779-0.28
		l1.256-1.053c0-0.001,0.002-0.005,0.002-0.005l0.002,0.002v-0.002c0,0,53.863,51.893,108.139,104.19l-0.002,0.001
		c0.273,0.264,0.549,0.527,0.822,0.792l43.525-46.61h-0.113V380.126z"/>
	<path fill="#D3D3D3" stroke="#494949" stroke-width="0.5" stroke-miterlimit="10" d="M832.267,409.758
		c-0.17-0.169-0.342-0.338-0.518-0.507c-5.209-4.981-117.012-113.278-138.025-133.634c-1.418-1.373-2.473-2.393-3.096-2.998
		l-52.164,55.859l0.41,0.396v14.716l-34.625,36.534h-14.014l-43.525,46.61c51.92,50.027,103.969,100.19,109.373,105.433
		c9.625,9.29,16.908,9.082,21.258,7.357c0.793-0.434,1.592-0.943,2.408-1.523c0.383-0.272,1.145-0.821,2.211-1.592
		c0,0,125.123-91.186,143.123-104.407c0.549-0.404,1.07-0.806,1.566-1.201c0.021-0.019,0.043-0.035,0.064-0.054
		C840.201,419.923,834.195,411.803,832.267,409.758z"/>
	<path fill="#D3D3D3" stroke="#494949" stroke-width="0.5" stroke-miterlimit="10" d="M690.333,272.334
		c-0.002-0.001-0.004-0.003-0.006-0.005l-0.154-0.119h-0.002L659.25,248.5l-1.916,1.75L537.25,134.856
		c-1.768-1.698-3.527-3.298-5.275-4.815l-1.662,1.646L517.5,119.375l-4.41-2.969c-1.223-0.718-2.42-1.386-3.602-2.023l-20.861-8.514
		c-0.822-0.225-1.588-0.418-2.305-0.591L480,104.125h-17.813v-2.958H294.333l-1.888,1.483v67.603L462.5,170.5l21,8.25
		l154.389,149.172l0.578,0.558l52.162-55.859C690.517,272.513,690.417,272.414,690.333,272.334z"/>
	<path fill="#BEBEBE" stroke="#494949" stroke-width="0.5" stroke-miterlimit="10" d="M662.125,407.807
		c-5.262-9.739-4.625-22.307,1.875-26.307s18.25,0.875,23.625,8.875s11,22.375,4.625,28.5S670.125,422.613,662.125,407.807z"/>
	<g>
		
			<rect x="665.57" y="405.615" transform="matrix(0.6673 0.7448 -0.7448 0.6673 531.2725 -373.6737)" fill="#BEBEBE" stroke="#494949" stroke-width="0.5" stroke-miterlimit="10" width="36.62" height="4.374"/>
		
			<rect x="662.423" y="408.603" transform="matrix(-0.6673 -0.7448 0.7448 -0.6673 829.162 1191.6006)" fill="#BEBEBE" stroke="#494949" stroke-width="0.5" stroke-miterlimit="10" width="36.616" height="3.999"/>
	</g>
	<g>
		
			<rect x="605.233" y="341.399" transform="matrix(0.4284 0.9036 -0.9036 0.4284 666.8738 -367.0327)" fill="#BEBEBE" stroke="#494949" stroke-width="0.5" stroke-miterlimit="10" width="36.618" height="4.375"/>
		
			<rect x="601.526" y="343.386" transform="matrix(-0.4284 -0.9036 0.9036 -0.4284 573.2767 1053.4246)" fill="#BEBEBE" stroke="#494949" stroke-width="0.5" stroke-miterlimit="10" width="36.615" height="4.001"/>
	</g>
	<g>
		
			<rect x="539.645" y="387.618" transform="matrix(0.7095 0.7047 -0.7047 0.7095 436.7814 -279.9537)" fill="#BEBEBE" stroke="#494949" stroke-width="0.5" stroke-miterlimit="10" width="36.618" height="4.377"/>
		
			<rect x="536.734" y="390.772" transform="matrix(-0.7095 -0.7047 0.7047 -0.7095 672.0428 1062.5875)" fill="#BEBEBE" stroke="#494949" stroke-width="0.5" stroke-miterlimit="10" width="36.613" height="4.002"/>
	</g>
	<path id="Path_1_" fill="#D3D3D3" stroke="#494949" stroke-width="0.5" stroke-miterlimit="10" d="M725.937,415.126
		c1.867-3.363,5.5-4.313,9.125-3.813s7.564,3.188,6.625,7.438c-0.938,4.25-3.375,8.313-8.375,8.25S721.5,423.126,725.937,415.126z"
		/>
	<path id="Path" fill="#D3D3D3" stroke="#494949" stroke-width="0.5" stroke-miterlimit="10" d="M723.458,397.708
		c-1.25-1.084-4.146-2.396-4.146-2.396c-3.125-1.625-6.813,0.313-8,3.063c-0.43,0.995-1.486,3.528-2.367,5.679l-0.029-0.016
		c-0.258,0.643-0.512,1.293-0.756,1.942c-0.006,0.012-0.01,0.024-0.016,0.036v0.001c-0.662,1.759-1.25,3.496-1.582,4.92
		c-0.77,3.313,0.396,5.229,3.105,6.563s4.959,0.541,6.459-1.168c0.926-1.056,2.744-3.479,4.596-6.079l-0.012-0.007
		c1.146-1.623,2.563-3.648,3.291-4.748C726.542,401.667,724.708,398.792,723.458,397.708z"/>
</g>
<g id="rooms">
	<polygon id="r406-6" fill="#939598" stroke="#494949" stroke-width="0.5" stroke-miterlimit="10" points="658,480.501 674,464.001 
		677.625,464.001 699,484.126 699,502.876 678.5,524.626 669.25,525.126 655.25,510.876 671.75,493.876 	"/>
	<polygon id="r402-403" fill="#939598" stroke="#494949" stroke-width="0.5" stroke-miterlimit="10" points="736.253,317.408 
		720.857,302.438 682.576,342.379 697.88,357.16 713.226,371.98 751.468,332.199 	"/>
	<polygon id="r401" fill="#939598" stroke="#494949" stroke-width="0.5" stroke-miterlimit="10" points="705.75,287.75 702.25,291 
		694.75,283.625 687.25,285.5 658.5,315.501 658.5,319.126 682.576,342.379 720.857,302.438 	"/>
	<polygon id="r406-1" fill="#939598" stroke="#494949" stroke-width="0.5" stroke-miterlimit="10" points="782.386,362.26 
		743.951,401.654 757.25,414.501 796,411.376 813.625,392.631 	"/>
	<path id="r406-4" fill="#939598" stroke="#494949" stroke-width="0.5" stroke-miterlimit="10" d="M713.539,468.513
		c4.227,4.139,19.012,18.602,26.109,25.401l20.691-15.073l-29.555-28.117L713.539,468.513z"/>
	<polygon id="r406-2" fill="#939598" stroke="#494949" stroke-width="0.5" stroke-miterlimit="10" points="827.5,428.876 
		825.625,426.876 814.875,433.501 802.5,421.751 755,425.751 748.259,432.703 780.984,463.804 826.875,430.376 	"/>
	<polygon id="r406-3" fill="#939598" stroke="#494949" stroke-width="0.5" stroke-miterlimit="10" points="730.787,450.724 
		760.341,478.842 780.984,463.804 748.259,432.703 	"/>
	<polygon id="r404-405" fill="#939598" stroke="#494949" stroke-width="0.5" stroke-miterlimit="10" points="767.115,347.41 
		760.576,354.11 745.023,338.902 713.226,371.98 728.625,386.851 728.623,386.852 743.951,401.654 782.386,362.26 	"/>
	<polygon id="r409-410" fill="#939598" stroke="#494949" stroke-width="0.5" stroke-miterlimit="10" points="621.14,409.109 
		618.625,406.689 591.625,407.807 587.625,411.126 603.375,426.876 586.25,444.626 601.875,459.501 618.75,442.376 636.88,424.246 	
		"/>
	<polygon id="r407-408" fill="#939598" stroke="#494949" stroke-width="0.5" stroke-miterlimit="10" points="652.236,439.013 
		636.88,424.246 618.75,442.376 634.283,456.967 651.75,473.376 656.75,467.876 659.25,469.876 669.25,459.876 669.25,455.376 	"/>
	<path id="op-401" fill="#939598" stroke="#494949" stroke-width="0.5" stroke-miterlimit="10" d="M657.812,330.126
		c-3.041-2.766-9.863-9.218-11.396-10.666c-0.199-0.188-0.311-0.294-0.311-0.294l-8.266,8.71l1.035,1v14.715l-8.178,8.629
		c1.184,2.601,3.248,7.041,4.238,8.595c1.439,2.25,2.689,1,7.439-3.813c4.75-4.813,13.188-13.938,16.125-16.875
		C661.437,337.188,661.25,333.251,657.812,330.126z"/>
	<path id="op-413-414-2" fill="#939598" stroke="#494949" stroke-width="0.5" stroke-miterlimit="10" d="M625.5,369.751
		c-0.818-0.74-3.996-3.478-6.271-5.431l-13.553,14.301l0,0l-1.426,1.505h-14.125l-0.676-0.652l-18.207,19.458l32.195-1.556
		c0,0,6.205-6.291,11.902-12.099l-0.002-0.002c3.703-3.78,7.959-8.135,8.912-9.149C627.125,373.063,626.812,370.938,625.5,369.751z"
		/>
	<path id="op-411-412" fill="#939598" stroke="#494949" stroke-width="0.5" stroke-miterlimit="10" d="M636.88,385.376
		c-2.631-0.938-6.381-3.438-10.006,0.813c-1.34,1.571-2.559,2.946-3.48,4.317c-1.563,2.338-2.25,4.661-1.145,7.933
		c1.75,5.188,4.625,6.25,8.063,7.188c3.439,0.938,5.814,0.438,6.939-4.313c0.377-1.591,0.717-3.19,1.004-4.621l-0.002-0.001
		c0.572-2.842,0.934-5.003,0.934-5.003C639.751,389.251,639.509,386.313,636.88,385.376z"/>
	<path id="op-402" fill="#939598" stroke="#494949" stroke-width="0.5" stroke-miterlimit="10" d="M676,352.813
		c-2.063-3.375-5.5-3.188-9.375-0.75c-2.059,1.296-5.248,3.599-8.338,5.911l8.998,13.809c2.729-1.729,5.488-3.789,8.152-6.22
		C681.812,359.751,678.062,356.188,676,352.813z"/>
	<path id="op-403" fill="#939598" stroke="#494949" stroke-width="0.5" stroke-miterlimit="10" d="M651.187,363.438
		c-3.688,2.938-5.477,6.205-3.813,10c1.563,3.563,3.375,5.375,9.063,3.563c3.313-1.056,7.049-2.81,10.848-5.219l-8.998-13.809
		C655.562,360.014,652.916,362.062,651.187,363.438z"/>
	<path id="op-404-405" fill="#939598" stroke="#494949" stroke-width="0.5" stroke-miterlimit="10" d="M702.708,380.251
		c-0.883-0.74-2.348-2.033-3.967-3.47c-3.121-2.766-6.826-6.069-8.115-7.03c-1.959-1.457-4.209-3.457-8.625,1.168
		c-2.758,2.888-6.328,6.978-8.621,9.643c5.084,1.197,10.391,4.579,13.711,9.066c0.184,0.245,0.363,0.493,0.533,0.748
		c2.918,4.342,5.902,10.559,7.01,16.315c3.045-4.865,10.021-16.135,11.283-19.274C707.542,383.376,705.292,382.417,702.708,380.251z
		"/>
	<path id="op-409-410" fill="#939598" stroke="#494949" stroke-width="0.5" stroke-miterlimit="10" d="M663.453,410.04l0.002-0.001
		c-0.463-0.711-0.908-1.452-1.33-2.23c-2.535-4.692-3.688-10.037-3.486-14.771c-1.813-0.689-4.186-1.063-6.68,0.048
		c-5.25,2.334-5.625,6.416-6.207,10.375c-0.514,3.483-1.797,8.583,0.605,13.138l-0.004,0.001c0.326,0.617,0.719,1.229,1.189,1.82
		c3.957,4.957,5.459,5.957,9.875,8.416s9.748,3,13.166,0c2.277-2,4.529-4.604,5.783-6.123
		C671.697,418.99,667.011,415.521,663.453,410.04z"/>
	<g id="r406-5-op-406-407">
		<path id="r406-5" fill="#939598" stroke="#494949" stroke-width="0.5" stroke-miterlimit="10" d="M703.25,479.126l3.25,3.125
			v28.625l10.125-6.75l3,4.375l20.021-14.584c-7.098-6.804-21.883-21.267-26.107-25.402L703.25,479.126z"/>
		<path id="op-416-417" fill="#939598" stroke="#494949" stroke-width="0.5" stroke-miterlimit="10" d="M714.937,433.564
			c-3.625-3.438-6.5-2.313-8.313-1.125c-1.393,0.912-2.795,2.313-6.119,5.121c-1,0.846-2.166,1.813-3.568,2.938
			c-6.063,4.875-2.154,10.035,0,12.439c3.814,4.25,8.75,3.938,11.5,0c1.244-1.781,2.311-3.191,3.363-4.613
			c1.275-1.721,2.535-3.457,4.074-5.887C718.687,438.001,718.562,437.001,714.937,433.564z"/>
	</g>
	<path id="op-408" fill="#939598" stroke="#494949" stroke-width="0.5" stroke-miterlimit="10" d="M667.667,442.251
		c-1.078-4.313,0.166-5.392,6-7.945c5.832-2.553,7.531-1.861,10.182,0c2.652,1.863,3.684,6.113,0,7.945
		c-3.682,1.834-9.35,3.834-10.766,4S668.417,445.251,667.667,442.251z"/>
	<path id="central-department-store" fill="#939598" stroke="#494949" stroke-width="0.5" stroke-miterlimit="10" d="M292,103
		l-7-7.5c0,0-66.698,0.182-132.555,0.351c-58.169,0.149-115.682,0.29-126,0.29c-22,0-17.697,11.525-17.697,11.525V286.58
		c0,22.189,14.627,18.669,14.627,18.669l129.07-0.432l140-0.47V102.602L292,103z"/>
</g>
<g id="signs">
	<rect id="toilet" x="640.802" y="478.845" opacity="0.8" enable-background="new    " width="14.811" height="14.811"/>
	<g id="escalator">
		<rect x="625.992" y="360.438" opacity="0.8" enable-background="new    " width="14.811" height="14.813"/>
		<rect x="690.291" y="419.47" opacity="0.8" enable-background="new    " width="14.811" height="14.811"/>
		<rect x="563.953" y="399.689" opacity="0.8" enable-background="new    " width="14.811" height="14.812"/>
	</g>
	<g id="fire-exit">
		<rect x="277.106" y="290.344" opacity="0.8" enable-background="new    " width="14.811" height="14.81"/>
		<rect x="681.96" y="275.706" opacity="0.8" enable-background="new    " width="14.811" height="14.812"/>
		<rect x="663.453" y="526.357" opacity="0.8" enable-background="new    " width="14.811" height="14.812"/>
		<rect x="820.291" y="411.688" opacity="0.8" enable-background="new    " width="14.811" height="14.813"/>
		<rect x="279.239" y="97.524" opacity="0.8" enable-background="new    " width="14.811" height="14.81"/>
		<rect x="403.71" y="108.357" opacity="0.8" enable-background="new    " width="14.812" height="14.81"/>
		<rect x="571.357" y="185.627" opacity="0.8" enable-background="new    " width="14.811" height="14.811"/>
		<rect x="574.814" y="423.265" opacity="0.8" enable-background="new    " width="14.811" height="14.813"/>
	</g>
	<g id="lift">
		<rect x="584.093" y="414.633" opacity="0.8" enable-background="new    " width="14.813" height="14.811"/>
		<rect x="430.562" y="301.383" opacity="0.8" enable-background="new    " width="14.813" height="14.811"/>
	</g>
</g>
</svg>
