<?xml version="1.0" encoding="utf-8"?>
<!-- Generator: Adobe Illustrator 16.0.0, SVG Export Plug-In . SVG Version: 6.00 Build 0)  -->
<!DOCTYPE svg PUBLIC "-//W3C//DTD SVG 1.1//EN" "http://www.w3.org/Graphics/SVG/1.1/DTD/svg11.dtd">
<svg version="1.1" id="Layer_1" xmlns="http://www.w3.org/2000/svg" xmlns:xlink="http://www.w3.org/1999/xlink" x="0px" y="0px"
	 width="841.89px" height="595.281px" viewBox="0 0 841.89 595.281" enable-background="new 0 0 841.89 595.281"
	 xml:space="preserve">
<g id="background">
	<rect fill="#FFFFFF" width="841.89" height="595.281"/>
</g>
<g id="etc">
	<path fill="#D3D3D3" stroke="#494949" stroke-width="0.66" stroke-miterlimit="10" d="M831.75,409.251
		c0,0-133.48-129.23-141.416-136.917S659.25,248.5,659.25,248.5l-1.916,1.75c0,0-1.258-1.209-3.502-3.367v-0.001
		c-16.895-16.232-90.406-86.874-116.563-112.008C507.636,106.399,480,104.125,480,104.125h-17.813v-2.958H294.05L292,103
		l-0.555-0.595v201.946L396.5,304l0.063,2.875l1.625,1.912h22.471c0,0,10.291,14.104,13.218,14.4
		c2.932,0.295,3.875-1.438,3.875-1.438s33.285,32.074,73.924,71.235l-0.002,0.002c59.486,57.327,134.73,129.841,144.41,139.181
		c16.291,15.723,25.877,4.242,25.877,4.242s125.123-91.188,143.123-104.408C843.083,418.777,831.75,409.251,831.75,409.251z"/>
	<path fill="#BEBEBE" stroke="#494949" stroke-width="0.5" stroke-miterlimit="10" d="M657.875,395.125
		c-3-5.875-3.25-9.5-1.625-12.5s7.125-7.5,12.75-4s28,27.25,28,27.25s4.75,10.086-5,15.918s-18.904,2.246-24.166-8.168
		S657.875,395.125,657.875,395.125z"/>
	<polygon fill="#BEBEBE" stroke="#494949" stroke-width="0.5" stroke-miterlimit="10" points="494.562,257.438 526.625,287.25 
		542.167,271.25 512.062,239.716 	"/>
	<path fill="#BEBEBE" stroke="#494949" stroke-width="0.5" stroke-miterlimit="10" d="M477.562,241l17.811-18.813
		c0,0-21.955-24.045-34.371-26.491c-12.418-2.446-38.092-2.946-38.092-2.946v27c0,0,17.967,1.25,28.111,5.083
		C461.167,228.666,476.208,239.5,477.562,241z"/>
	<path fill="#BEBEBE" stroke="#494949" stroke-width="0.5" stroke-miterlimit="10" d="M351.833,228.667V219h49v-26.486
		c0,0-24.917-1.014-45.958,1.653s-32.625,9.417-36.125,14.667S313.333,225,329.833,227.25S351.833,228.667,351.833,228.667z"/>
	<path fill="#BEBEBE" stroke="#494949" stroke-width="0.5" stroke-miterlimit="10" d="M569.667,343.167l7.75-7.75l-35.25-33.084
		l15.785-16.75c0,0,26.877,20.618,38.771,32.581c11.898,11.961,18.148,28.912,19.273,38.688c1.125,9.776-7.939,16.773-20.564,8.713
		C582.808,357.503,569.667,343.167,569.667,343.167z"/>
	
		<rect x="558.238" y="308.765" transform="matrix(-0.7036 0.7106 -0.7106 -0.7036 1199.4392 121.5768)" fill="#BEBEBE" stroke="#494949" stroke-width="0.5" stroke-miterlimit="10" width="32.249" height="4.373"/>
	
		<rect x="555.278" y="306.059" transform="matrix(0.7036 -0.7106 0.7106 0.7036 -49.5402 497.3523)" fill="#BEBEBE" stroke="#494949" stroke-width="0.5" stroke-miterlimit="10" width="32.251" height="4.001"/>
	
		<rect x="567.844" y="345.351" transform="matrix(0.7239 0.6899 -0.6899 0.7239 401.393 -307.9503)" fill="#BEBEBE" stroke="#494949" stroke-width="0.5" stroke-miterlimit="10" width="35.23" height="4.374"/>
	
		<rect x="564.944" y="348.573" transform="matrix(-0.724 -0.6898 0.6898 -0.724 762.5077 1006.2368)" fill="#BEBEBE" stroke="#494949" stroke-width="0.5" stroke-miterlimit="10" width="35.229" height="4.001"/>
	
		<rect x="668.431" y="405.84" transform="matrix(0.5573 0.8303 -0.8303 0.5573 642.8151 -389.5751)" fill="#BEBEBE" stroke="#494949" stroke-width="0.5" stroke-miterlimit="10" width="36.62" height="4.375"/>
	
		<rect x="664.979" y="408.361" transform="matrix(-0.5573 -0.8303 0.8303 -0.5573 723.3512 1206.3973)" fill="#BEBEBE" stroke="#494949" stroke-width="0.5" stroke-miterlimit="10" width="36.617" height="4.001"/>
	
		<rect x="658.03" y="413.373" transform="matrix(0.6616 0.7498 -0.7498 0.6616 540.4664 -366.5369)" fill="#BEBEBE" stroke="#494949" stroke-width="0.5" stroke-miterlimit="10" width="36.641" height="4.374"/>
	
		<rect x="654.838" y="416.277" transform="matrix(-0.6616 -0.7499 0.7499 -0.6616 804.8396 1199.7888)" fill="#BEBEBE" stroke="#494949" stroke-width="0.5" stroke-miterlimit="10" width="36.644" height="4"/>
	
		<rect x="500.724" y="257.08" transform="matrix(0.9995 -0.0307 0.0307 0.9995 -7.7147 16.0455)" fill="#BEBEBE" stroke="#494949" stroke-width="0.5" stroke-miterlimit="10" width="35.947" height="4.375"/>
	
		<rect x="500.849" y="261.463" transform="matrix(-0.9995 0.0306 -0.0306 -0.9995 1045.4655 510.924)" fill="#BEBEBE" stroke="#494949" stroke-width="0.5" stroke-miterlimit="10" width="35.947" height="4"/>
	
		<rect x="495.624" y="246.687" transform="matrix(0.999 0.0447 -0.0447 0.999 11.6391 -22.7186)" fill="#BEBEBE" stroke="#494949" stroke-width="0.5" stroke-miterlimit="10" width="36.296" height="4.374"/>
	
		<rect x="495.45" y="251.029" transform="matrix(-0.999 -0.0447 0.0447 -0.999 1015.3741 528.7646)" fill="#BEBEBE" stroke="#494949" stroke-width="0.5" stroke-miterlimit="10" width="36.298" height="4"/>
	
		<rect x="355.611" y="205.437" transform="matrix(-0.004 -1 1 -0.004 164.5385 579.1327)" fill="#BEBEBE" stroke="#494949" stroke-width="0.5" stroke-miterlimit="10" width="30.146" height="4.375"/>
	
		<rect x="359.793" y="205.605" transform="matrix(0.0041 1 -1 0.0041 580.9265 -168.1119)" fill="#BEBEBE" stroke="#494949" stroke-width="0.5" stroke-miterlimit="10" width="30.146" height="4"/>
	
		<rect x="315.753" y="217.609" fill="#BEBEBE" stroke="#494949" stroke-width="0.5" stroke-miterlimit="10" width="38.813" height="4.375"/>
	
		<rect x="315.748" y="221.983" fill="#BEBEBE" stroke="#494949" stroke-width="0.5" stroke-miterlimit="10" width="38.811" height="4"/>
	<polygon id="r233-1" fill="#BEBEBE" stroke="#494949" stroke-width="0.5" stroke-miterlimit="10" points="612.412,417.516 
		603.044,426.677 586.667,444.501 594.873,452.287 620.353,425.121 	"/>
	<polygon id="r231" fill="#BEBEBE" stroke="#494949" stroke-width="0.5" stroke-miterlimit="10" points="651.296,454.744 
		617.003,490.455 624.865,498.097 659.16,462.271 	"/>
</g>
<g id="rooms">
	<path id="r205" fill="#939598" stroke="#494949" stroke-width="0.5" stroke-miterlimit="10" d="M391.125,122.5H376.25v53.617
		c4.128-0.009,8.221-0.019,12.229-0.029l2.646-2.713V122.5z"/>
	<path id="r207" fill="#939598" stroke="#494949" stroke-width="0.5" stroke-miterlimit="10" d="M425,125.125v3.25h-6.25v47.617
		c9.921-0.041,17.634-0.086,21.625-0.137v-50.73H425z"/>
	<path id="r206" fill="#939598" stroke="#494949" stroke-width="0.5" stroke-miterlimit="10" d="M397.625,128.375v44.5l2.772,3.18
		c6.627-0.02,12.821-0.041,18.353-0.063v-47.617H397.625z"/>
	<path id="r207-1" fill="#939598" stroke="#494949" stroke-width="0.5" stroke-miterlimit="10" d="M462.125,125.125h-21.75v50.73
		c0.15-0.002,0.32-0.004,0.459-0.006c7.221-0.1,13.105,0.837,18.262,2.447l3.029-7.671V125.125z"/>
	<path id="r208" fill="#939598" stroke="#494949" stroke-width="0.5" stroke-miterlimit="10" d="M532,130.688l-2.5,2.5L511,115.75
		l-22.938-9.188H463v18.563h-0.875v45.5l-3.029,7.671c7.459,2.328,13.389,6.076,19.523,10.236l7.006-8.782l46.525-48.92L532,130.688
		z"/>
	<path id="r210" fill="#939598" stroke="#494949" stroke-width="0.5" stroke-miterlimit="10" d="M547.968,145.856l-53.102,54.739
		c2.699,2.199,5.459,4.506,8.115,6.761l52.557-54.309L547.968,145.856z"/>
	<path id="r204" fill="#939598" stroke="#494949" stroke-width="0.5" stroke-miterlimit="10" d="M354.875,102.125v74.035
		c3.557-0.006,7.15-0.013,10.75-0.021v-74.014H354.875z"/>
	<path id="r204-1" fill="#939598" stroke="#494949" stroke-width="0.5" stroke-miterlimit="10" d="M365.625,102.125v74.014
		c3.548-0.007,7.099-0.015,10.625-0.022v-73.992H365.625z"/>
	<path id="r201" fill="#939598" stroke="#494949" stroke-width="0.5" stroke-miterlimit="10" d="M294.688,102.125l-3.521,2.709
		v71.416c0,0,3.906-0.004,10.458-0.011v-74.114H294.688z"/>
	<path id="r201-1" fill="#939598" stroke="#494949" stroke-width="0.5" stroke-miterlimit="10" d="M301.625,102.125v74.114
		c2.988-0.004,6.528-0.008,10.5-0.013v-74.101H301.625z"/>
	<path id="r202-1" fill="#939598" stroke="#494949" stroke-width="0.5" stroke-miterlimit="10" d="M322.75,102.125v74.086
		c3.379-0.005,6.931-0.01,10.625-0.016v-74.071L322.75,102.125L322.75,102.125z"/>
	<path id="r203" fill="#939598" stroke="#494949" stroke-width="0.5" stroke-miterlimit="10" d="M333.375,102.125v74.071
		c6.809-0.01,14.074-0.022,21.5-0.036v-74.035H333.375z"/>
	<path id="r202" fill="#939598" stroke="#494949" stroke-width="0.5" stroke-miterlimit="10" d="M312.125,102.125v74.101
		c3.27-0.004,6.834-0.009,10.625-0.014v-74.086L312.125,102.125L312.125,102.125z"/>
	<path id="r209" fill="#939598" stroke="#494949" stroke-width="0.5" stroke-miterlimit="10" d="M532.15,130.83l-46.525,48.92
		l-7.006,8.782c1.346,0.912,2.701,1.841,4.086,2.78c3.346,2.267,7.666,5.621,12.162,9.283l53.102-54.739L532.15,130.83z"/>
	<polygon id="r215" fill="#939598" stroke="#494949" stroke-width="0.5" stroke-miterlimit="10" points="624.953,220.383 
		573.533,273.553 588.839,288.385 640.478,235.23 	"/>
	<polygon id="r216-218-1" fill="#939598" stroke="#494949" stroke-width="0.5" stroke-miterlimit="10" points="671.687,265.072 
		656.167,250.23 640.478,235.23 588.839,288.385 604.388,303.453 619.57,318.164 633.333,331.5 637.916,331.5 684.25,282.5 
		684.25,277.083 	"/>
	<path id="r210-1" fill="#939598" stroke="#494949" stroke-width="0.5" stroke-miterlimit="10" d="M563.187,160.313l-7.646-7.265
		l-52.557,54.309c2.889,2.454,5.65,4.841,8.063,6.946l43.662-44.743L563.187,160.313z"/>
	<path id="r211" fill="#939598" stroke="#494949" stroke-width="0.5" stroke-miterlimit="10" d="M549.375,175.375l5.334-5.816
		l-43.662,44.743c5.012,4.375,8.514,7.531,8.514,7.531h3.686l35.801-37.195L549.375,175.375z"/>
	<polygon id="r213-214" fill="#939598" stroke="#494949" stroke-width="0.5" stroke-miterlimit="10" points="609.785,205.879 
		594.25,191.025 580.119,204.831 579.812,204.54 542.562,243.543 557.953,258.457 573.533,273.553 624.953,220.383 	"/>
	<polygon id="r212" fill="#939598" stroke="#494949" stroke-width="0.5" stroke-miterlimit="10" points="564.267,189.644 
		528.74,226.217 528.5,229.917 542.562,243.543 579.812,204.54 	"/>
	<polygon id="r220" fill="#939598" stroke="#494949" stroke-width="0.5" stroke-miterlimit="10" points="703.035,293.891 
		653.226,345.734 668.292,360.328 718.558,308.957 	"/>
	<polygon id="r222" fill="#939598" stroke="#494949" stroke-width="0.5" stroke-miterlimit="10" points="733.853,323.8 
		683.771,375.316 698.83,389.9 748.955,338.453 	"/>
	<polygon id="r219" fill="#939598" stroke="#494949" stroke-width="0.5" stroke-miterlimit="10" points="695.5,286.58 
		693.667,288.137 686.734,288.137 644.167,332.333 644.167,336.962 653.226,345.734 703.035,293.891 	"/>
	<polygon id="r221" fill="#939598" stroke="#494949" stroke-width="0.5" stroke-miterlimit="10" points="718.558,308.957 
		668.292,360.328 683.771,375.316 733.853,323.8 	"/>
	<polygon id="r225" fill="#939598" stroke="#494949" stroke-width="0.5" stroke-miterlimit="10" points="795.466,383.587 760.5,420 
		730.513,420.583 730.833,420.895 729.402,440.033 751.082,459.998 810.833,398.5 	"/>
	<polygon id="r224-224-1" fill="#939598" stroke="#494949" stroke-width="0.5" stroke-miterlimit="10" points="795.466,383.587 
		764.687,353.718 714.636,405.208 730.513,420.583 760.5,420 	"/>
	<polygon id="r223-1" fill="#939598" stroke="#494949" stroke-width="0.5" stroke-miterlimit="10" points="756.947,346.208 
		706.89,397.707 714.636,405.208 764.687,353.718 	"/>
	<polygon id="r223" fill="#939598" stroke="#494949" stroke-width="0.5" stroke-miterlimit="10" points="748.955,338.453 
		698.83,389.9 706.89,397.707 756.947,346.208 	"/>
	<polygon id="r229" fill="#939598" stroke="#494949" stroke-width="0.5" stroke-miterlimit="10" points="674.804,492.501 
		674.804,530.001 676.332,532.333 716.855,503.533 689.367,477.314 	"/>
	<polygon id="r228-1" fill="#939598" stroke="#494949" stroke-width="0.5" stroke-miterlimit="10" points="689.367,477.314 
		716.855,503.533 726.923,496.378 697.636,468.691 	"/>
	<polygon id="r226-227" fill="#939598" stroke="#494949" stroke-width="0.5" stroke-miterlimit="10" points="757,475.001 
		726.166,444.501 720.833,444.501 705.791,460.187 736.783,489.369 	"/>
	<polygon id="r228" fill="#939598" stroke="#494949" stroke-width="0.5" stroke-miterlimit="10" points="705.791,460.187 
		697.636,468.691 726.923,496.378 736.783,489.369 	"/>
	<polygon id="r233" fill="#939598" stroke="#494949" stroke-width="0.5" stroke-miterlimit="10" points="620.353,425.121 
		594.873,452.287 603,459.998 628.203,432.634 	"/>
	<polygon id="r232" fill="#939598" stroke="#494949" stroke-width="0.5" stroke-miterlimit="10" points="628.203,432.634 
		603,459.998 598.833,464.73 613.833,478.333 643.822,447.587 	"/>
	<polygon id="r234" fill="#939598" stroke="#494949" stroke-width="0.5" stroke-miterlimit="10" points="596.728,402.501 
		593.289,402.501 586.667,409.514 603.044,426.677 612.412,417.516 	"/>
	<polygon id="r231-1" fill="#939598" stroke="#494949" stroke-width="0.5" stroke-miterlimit="10" points="643.822,447.587 
		613.833,478.333 609.333,483.001 617.003,490.455 651.296,454.744 	"/>
	<polygon id="r230" fill="#939598" stroke="#494949" stroke-width="0.5" stroke-miterlimit="10" points="663.625,473.296 
		632.603,505.617 640.539,513.33 648.667,504.501 664.333,519.501 667.833,519.501 667.833,484.333 	"/>
	<polygon id="r230-1" fill="#939598" stroke="#494949" stroke-width="0.5" stroke-miterlimit="10" points="659.572,462.667 
		659.16,462.271 624.865,498.097 632.603,505.617 663.625,473.296 	"/>
	<polygon id="r249" fill="#939598" stroke="#494949" stroke-width="0.5" stroke-miterlimit="10" points="320.875,239.5 
		320.875,289.609 333.25,289.217 333.25,239.5 	"/>
	<polygon id="r248-1" fill="#939598" stroke="#494949" stroke-width="0.5" stroke-miterlimit="10" points="333.25,239.5 
		333.25,289.217 334.5,289.178 334.5,301.896 344,302.005 344,239.5 	"/>
	<polygon id="r249-1" fill="#939598" stroke="#494949" stroke-width="0.5" stroke-miterlimit="10" points="311,239.5 308.5,241.996 
		308.5,290 320.875,289.609 320.875,239.5 	"/>
	<polygon id="r247" fill="#939598" stroke="#494949" stroke-width="0.5" stroke-miterlimit="10" points="354.565,239.5 
		354.565,302.126 376.125,302.375 376.125,239.5 	"/>
	<polygon id="r244" fill="#939598" stroke="#494949" stroke-width="0.5" stroke-miterlimit="10" points="439.666,241.418 438,239.5 
		408.125,239.5 408.125,302.74 416.339,302.833 	"/>
	<polygon id="r245-246" fill="#939598" stroke="#494949" stroke-width="0.5" stroke-miterlimit="10" points="376.125,239.5 
		376.125,302.375 408.125,302.74 408.125,239.5 	"/>
	<polygon id="r248" fill="#939598" stroke="#494949" stroke-width="0.5" stroke-miterlimit="10" points="344,239.5 344,302.005 
		354.565,302.126 354.565,239.5 	"/>
	<polygon id="r241" fill="#939598" stroke="#494949" stroke-width="0.5" stroke-miterlimit="10" points="483.734,273.928 
		452.802,306.253 459.671,312.699 446.941,326.218 455.089,334.148 499.238,288.854 	"/>
	<polygon id="r242-243" fill="#939598" stroke="#494949" stroke-width="0.5" stroke-miterlimit="10" points="468.208,258.982 
		453.599,244.917 450.5,245.865 433.833,290 437.021,291.452 437.191,291.61 452.802,306.253 483.734,273.928 	"/>
	<polygon id="r240" fill="#939598" stroke="#494949" stroke-width="0.5" stroke-miterlimit="10" points="499.238,288.854 
		455.089,334.148 470.341,348.994 514.562,303.609 	"/>
	<polygon id="r239" fill="#939598" stroke="#494949" stroke-width="0.5" stroke-miterlimit="10" points="509.64,339.843 
		530.14,318.605 514.562,303.609 470.341,348.994 486.052,364.281 	"/>
	<polygon id="r235-1" fill="#939598" stroke="#494949" stroke-width="0.5" stroke-miterlimit="10" points="591.833,378.001 
		576.701,363.434 556.75,383.5 573.974,400.496 591.833,381.906 	"/>
	<polygon id="r238-1" fill="#939598" stroke="#494949" stroke-width="0.5" stroke-miterlimit="10" points="525.5,354.25 
		545.822,333.703 530.14,318.605 509.64,339.843 	"/>
	<polygon id="r235-2-236-7-238-2" fill="#939598" stroke="#494949" stroke-width="0.5" stroke-miterlimit="10" points="
		576.701,363.434 545.822,333.703 525.5,354.25 509.64,339.843 486.052,364.281 549.47,426.001 573.974,400.496 556.75,383.5 	"/>
	<path id="e-22-24" fill="#939598" stroke="#494949" stroke-width="0.5" stroke-miterlimit="10" d="M607.876,385.912
		c-0.432,0-0.85,0.044-1.258,0.124c-2.988,0.586-5.242,3.217-5.242,6.376c0,1.275,0.373,2.461,1.008,3.465
		c1.15,1.822,3.178,3.035,5.492,3.035c3.063,0,5.623-2.12,6.311-4.971c0.119-0.491,0.189-1.002,0.189-1.529
		C614.376,388.822,611.466,385.912,607.876,385.912z"/>
	<path id="e-25-27" fill="#939598" stroke="#494949" stroke-width="0.5" stroke-miterlimit="10" d="M627.812,378.014
		c-0.166-3.443-3.002-6.187-6.484-6.187c-1.449,0-2.785,0.479-3.867,1.284c-1.594,1.185-2.633,3.076-2.633,5.216
		c0,3.022,2.068,5.558,4.865,6.284c0.521,0.136,1.068,0.216,1.635,0.216c3.59,0,6.5-2.91,6.5-6.5
		C627.828,378.221,627.818,378.118,627.812,378.014z"/>
	<path id="e-28-30" fill="#939598" stroke="#494949" stroke-width="0.5" stroke-miterlimit="10" d="M643.115,360.003
		c-0.707-2.827-3.256-4.924-6.301-4.924c-1.752,0-3.338,0.696-4.508,1.821c-1.227,1.184-1.992,2.841-1.992,4.679
		c0,2.762,1.725,5.114,4.152,6.057c0.73,0.282,1.52,0.443,2.348,0.443c3.59,0,6.5-2.91,6.5-6.5
		C643.314,361.035,643.24,360.509,643.115,360.003z"/>
	<path id="e-32" fill="#939598" stroke="#494949" stroke-width="0.5" stroke-miterlimit="10" d="M646.83,376.584l-0.059,0.229l0,0
		l-1.738,6.809c0.541,0.146,1.105,0.23,1.693,0.23c3.59,0,6.5-2.91,6.5-6.5c0-0.35-0.035-0.688-0.088-1.022L646.83,376.584z"/>
	<path id="e-31-33" fill="#939598" stroke="#494949" stroke-width="0.5" stroke-miterlimit="10" d="M653.138,376.329
		c-0.492-3.104-3.172-5.478-6.412-5.478c-1.424,0-2.734,0.461-3.805,1.236c-1.631,1.182-2.695,3.096-2.695,5.264
		c0,3.002,2.039,5.522,4.807,6.27l1.738-6.809l-0.178-0.22l0.236-0.009L653.138,376.329z"/>
	<path id="e-34-36" fill="#939598" stroke="#494949" stroke-width="0.5" stroke-miterlimit="10" d="M636.814,387.544
		c-0.025,0-0.051,0.004-0.074,0.004c-3.557,0.04-6.426,2.933-6.426,6.496c0,0.886,0.18,1.728,0.498,2.496
		c0.979,2.351,3.297,4.004,6.002,4.004c2.209,0,4.154-1.104,5.33-2.786c0.734-1.054,1.17-2.332,1.17-3.714
		C643.314,390.455,640.404,387.544,636.814,387.544z"/>
	<path id="e-19-21" fill="#939598" stroke="#494949" stroke-width="0.5" stroke-miterlimit="10" d="M627.164,402.361
		c-1.055-2.16-3.27-3.652-5.836-3.652c-1.785,0-3.4,0.721-4.574,1.885c-1.188,1.178-1.926,2.811-1.926,4.615
		c0,3.089,2.156,5.669,5.045,6.33c0.469,0.107,0.955,0.17,1.455,0.17c3.59,0,6.5-2.91,6.5-6.5
		C627.828,404.186,627.583,403.223,627.164,402.361z"/>
	<path id="e-17-e-18" fill="#939598" stroke="#494949" stroke-width="0.5" stroke-miterlimit="10" d="M642.779,416.919
		c-1-2.305-3.293-3.918-5.965-3.918c-2.158,0-4.064,1.058-5.246,2.676c-0.785,1.073-1.254,2.394-1.254,3.824
		c0,3.172,2.271,5.809,5.277,6.381l1.252-6.346l-0.244-0.179l0.303-0.118L642.779,416.919z"/>
	<path id="e-16" fill="#939598" stroke="#494949" stroke-width="0.5" stroke-miterlimit="10" d="M636.902,419.24l-1.311,6.643
		c0.396,0.076,0.805,0.119,1.223,0.119c3.59,0,6.5-2.91,6.5-6.5c0-0.918-0.191-1.79-0.535-2.582L636.902,419.24z"/>
	<path id="e-01" fill="#939598" stroke="#494949" stroke-width="0.5" stroke-miterlimit="10" d="M658.224,407.059
		c-0.469-3.129-3.16-5.531-6.42-5.531c-1.016,0-1.975,0.238-2.83,0.654l3.439,5.955l0,0l0.043,0.075L658.224,407.059z"/>
	<path id="e-03" fill="#939598" stroke="#494949" stroke-width="0.5" stroke-miterlimit="10" d="M652.318,408.24l0.096-0.104
		l-3.439-5.955c-2.17,1.053-3.67,3.271-3.67,5.846c0,2.07,0.973,3.912,2.48,5.102L652.318,408.24L652.318,408.24z"/>
	<path id="e-02" fill="#939598" stroke="#494949" stroke-width="0.5" stroke-miterlimit="10" d="M658.224,407.059l-5.768,1.153l0,0
		l-0.139,0.027l-4.533,4.889c1.105,0.873,2.5,1.397,4.02,1.397c3.59,0,6.5-2.909,6.5-6.5
		C658.304,407.697,658.271,407.375,658.224,407.059z"/>
	<path id="e-14" fill="#939598" stroke="#494949" stroke-width="0.5" stroke-miterlimit="10" d="M651.761,434.754l-4.922-4.046
		c-0.957,1.132-1.535,2.593-1.535,4.191c0,3.135,2.221,5.751,5.174,6.362l1.316-6.481L651.761,434.754L651.761,434.754z"/>
	<path id="e-15" fill="#939598" stroke="#494949" stroke-width="0.5" stroke-miterlimit="10" d="M651.804,434.734l5.764-2.835
		c-1.086-2.078-3.258-3.499-5.764-3.499c-1.992,0-3.771,0.896-4.965,2.309l4.922,4.046L651.804,434.734L651.804,434.734z"/>
	<path id="e-13" fill="#939598" stroke="#494949" stroke-width="0.5" stroke-miterlimit="10" d="M651.804,434.734l-0.01,0.047l0,0
		l-1.316,6.481c0.428,0.089,0.871,0.138,1.326,0.138c3.59,0,6.5-2.91,6.5-6.5c0-1.083-0.27-2.104-0.736-3.001L651.804,434.734z"/>
	<path id="e-12" fill="#939598" stroke="#494949" stroke-width="0.5" stroke-miterlimit="10" d="M667.101,443.269
		c-1.955,0-3.705,0.867-4.896,2.234l4.229,4.272l0.111-0.044l0,0l6.514-2.563C672.052,444.875,669.765,443.269,667.101,443.269z"/>
	<path id="e-10" fill="#939598" stroke="#494949" stroke-width="0.5" stroke-miterlimit="10" d="M673.056,447.169l-6.512,2.563
		l-0.02,0.139l0,0l-0.822,6.244c0.451,0.099,0.918,0.153,1.396,0.153c3.592,0,6.5-2.909,6.5-6.5
		C673.601,448.844,673.406,447.966,673.056,447.169z"/>
	<path id="e-11" fill="#939598" stroke="#494949" stroke-width="0.5" stroke-miterlimit="10" d="M666.431,449.776L666.431,449.776
		l-4.227-4.272c-0.996,1.142-1.605,2.631-1.605,4.266c0,3.109,2.186,5.705,5.104,6.347l0.822-6.244L666.431,449.776z"/>
	<path id="e-09" fill="#939598" stroke="#494949" stroke-width="0.5" stroke-miterlimit="10" d="M689.117,461.458
		c-1.047-2.186-3.273-3.698-5.859-3.698c-2.299,0-4.314,1.197-5.471,3l5.123,2.755l0,0l0.014,0.009L689.117,461.458z"/>
	<path id="e-07" fill="#939598" stroke="#494949" stroke-width="0.5" stroke-miterlimit="10" d="M689.117,461.458l-6.193,2.064l0,0
		l-0.016,0.006l-1.359,6.997c0.547,0.147,1.117,0.233,1.709,0.233c3.59,0,6.5-2.91,6.5-6.5
		C689.757,463.254,689.523,462.307,689.117,461.458z"/>
	<path id="e-08" fill="#939598" stroke="#494949" stroke-width="0.5" stroke-miterlimit="10" d="M682.908,463.528l0.002-0.015
		l-5.123-2.755c-0.648,1.011-1.029,2.21-1.029,3.5c0,2.997,2.031,5.515,4.791,6.267L682.908,463.528L682.908,463.528z"/>
	<path id="e-04" fill="#939598" stroke="#494949" stroke-width="0.5" stroke-miterlimit="10" d="M699.291,440.201
		c-2.131,0-4.016,1.028-5.201,2.613l4.705,3.953l0.006-0.002l0,0l6.574-2.338C704.453,441.96,702.08,440.201,699.291,440.201z"/>
	<path id="e-06" fill="#939598" stroke="#494949" stroke-width="0.5" stroke-miterlimit="10" d="M698.792,446.768L698.792,446.768
		l-4.703-3.953c-0.813,1.085-1.299,2.428-1.299,3.887c0,3.136,2.221,5.752,5.174,6.364l0.834-6.293L698.792,446.768z"/>
	<path id="e-05" fill="#939598" stroke="#494949" stroke-width="0.5" stroke-miterlimit="10" d="M705.375,444.428l-6.574,2.338
		l-0.002,0.007l0,0l-0.832,6.293c0.428,0.089,0.871,0.136,1.324,0.136c3.59,0,6.5-2.91,6.5-6.5
		C705.791,445.9,705.638,445.136,705.375,444.428z"/>
	<path id="e-37-38" fill="#939598" stroke="#494949" stroke-width="0.5" stroke-miterlimit="10" d="M709.675,414.939
		c-0.285-3.326-3.072-5.938-6.471-5.938c-2.121,0-3.998,1.021-5.186,2.592c-0.822,1.089-1.314,2.439-1.314,3.908
		c0,2.927,1.934,5.399,4.594,6.215c0.604,0.186,1.242,0.285,1.906,0.285c3.59,0,6.5-2.91,6.5-6.5
		C709.705,415.311,709.693,415.125,709.675,414.939z"/>
	<path id="op-209" fill="#939598" stroke="#494949" stroke-width="0.5" stroke-miterlimit="10" d="M672.675,420.307
		c-0.842-0.799-1.646-1.69-2.396-2.697l-6.729-7.568c-1.674,1.783-3.424,3.712-3.979,4.549c-1.154,1.744-1.203,4.162,1.027,7.203
		c2.232,3.041,6.9,9.062,8.566,10.842c1.666,1.783,4.334,2.22,6.75,0c0.834-0.766,2.465-2.271,4.24-3.913L672.675,420.307z"/>
	<path id="op-201" fill="#939598" stroke="#494949" stroke-width="0.5" stroke-miterlimit="10" d="M318.75,208.833
		c2.038-3.056,6.837-6.617,14.625-9.588v-6.921c0,0-21.563,0-23.25,0s-2.813,0.988-2.813,3.238c0,0,0,8.588,0,16.415h9.859
		C317.595,210.811,318.147,209.737,318.75,208.833z"/>
	<path id="op-201-1" fill="#939598" stroke="#494949" stroke-width="0.5" stroke-miterlimit="10" d="M317.172,211.977h-9.859
		c0,5.791,0,11.166,0,12.335c0,2.75,1,4.505,3.938,4.505s22.125,0,22.125,0v-1.111c-1.122-0.136-2.297-0.286-3.542-0.456
		C316.173,225.387,315.139,217.587,317.172,211.977z"/>
	<path id="op-202-202-1" fill="#939598" stroke="#494949" stroke-width="0.5" stroke-miterlimit="10" d="M407.313,192.324
		c-1.871,0-5.555,0.074-8.213,0.133c1.118,0.032,1.734,0.057,1.734,0.057V219h-16.458c0,2.017,0,4.929,0,6.25
		c0,2.125,1.067,3.471,3.471,3.471c2.404,0,19.341,0,20.966,0s3.329-0.125,3.329-3.33s0-27.829,0-30.017
		S410.438,192.324,407.313,192.324z"/>
	<path id="op-207" fill="#939598" stroke="#494949" stroke-width="0.5" stroke-miterlimit="10" d="M577.05,300.794
		c0.48-0.438,0.938-0.864,1.283-1.211c1.25-1.252,2.475-3.906,0.797-5.583s-10.357-10.355-12.213-12.211
		c-1.857-1.856-3.936-1.139-5.074,0c-0.678,0.679-2.482,2.485-3.836,3.836C558.66,286.125,567.457,292.896,577.05,300.794z"/>
	<path id="op-208" fill="#939598" stroke="#494949" stroke-width="0.5" stroke-miterlimit="10" d="M629.666,342.5
		c-1.416-1.416-18.832-18.082-20.416-19.582c-1.582-1.5-2.25-1.584-4.334,0c-1.014,0.77-1.785,1.535-2.314,2.125
		C610.703,336,615.078,348.835,616,356.852c0.154,1.342,0.111,2.627-0.102,3.832c4.568-4.568,12.059-12.06,13.768-13.769
		C632.166,344.416,631.082,343.916,629.666,342.5z"/>
	<path id="op-203" fill="#939598" stroke="#494949" stroke-width="0.5" stroke-miterlimit="10" d="M422.908,219.75
		c0,1.799,0,3.976,0,5.083c0,2.083,1.342,3.417,5.342,3.417c2.227,0,8.789-0.178,16.125,1.543v-6.918
		C434.542,220.561,422.908,219.75,422.908,219.75z"/>
	<path id="op-203-2" fill="#939598" stroke="#494949" stroke-width="0.5" stroke-miterlimit="10" d="M451.021,224.833
		c-1.979-0.749-4.262-1.397-6.645-1.958v6.918c5.846,1.372,12.182,3.949,17.209,8.79c4.066,3.917,7.098,6.746,9.402,8.851
		l6.504-6.505C475.802,239.209,461.035,228.617,451.021,224.833z"/>
	<path id="op-204-1" fill="#939598" stroke="#494949" stroke-width="0.5" stroke-miterlimit="10" d="M486.41,231.657l-6.328,6.682
		l3.279-3.279l-3.279,3.279l-2.52,2.661c-0.018-0.02-0.049-0.048-0.07-0.071l-6.504,6.505c0.078,0.071,0.16,0.147,0.236,0.217
		l8.463-8.463l-8.463,8.463c3.953,3.604,5.672,4.993,6.693,6.016c1.625,1.625,3.168,2.083,5.25,0
		c1.049-1.049,6.795-6.991,12.43-12.822L486.41,231.657z"/>
	<path id="op-204" fill="#939598" stroke="#494949" stroke-width="0.5" stroke-miterlimit="10" d="M506.5,223.833
		c-1.25-1.25-7.875-6.875-9-8s-3.889-0.694-5.166,0.583c-0.201,0.203-0.701,0.612-1.395,1.155c2.729,2.746,4.436,4.615,4.436,4.615
		l-8.965,9.469l9.188,9.188c5.555-5.747,11.002-11.387,11.738-12.124C508.82,227.236,507.75,225.083,506.5,223.833z"/>
	<path id="op-206-1" fill="#939598" stroke="#494949" stroke-width="0.5" stroke-miterlimit="10" d="M494.562,257.438l0.988-1.001
		c0,0-4.09,4.091-5.531,5.532c-1.441,1.441-0.42,2.746,0.898,4.063c1.004,1.004,19.551,18.854,28.865,27.839l6.441-6.991
		L494.562,257.438z"/>
	<path id="op-206" fill="#939598" stroke="#494949" stroke-width="0.5" stroke-miterlimit="10" d="M546.833,276.667
		c-0.914-0.913-3.361-3.328-5.064-5.007l-15.145,15.59l-0.396-0.37l-6.443,6.991c2.91,2.807,4.93,4.757,5.217,5.044
		c1.207,1.209,3.043,2.099,5.139,0c2.1-2.097,14.152-14.958,16.027-16.833S548.291,278.125,546.833,276.667z"/>
	<path id="central-department-store" fill="#939598" stroke="#494949" stroke-width="0.5" stroke-miterlimit="10" d="M285,95.5
		c0,0-66.698,0.181-132.555,0.35c-58.169,0.15-115.682,0.29-126,0.29c-22,0-17.697,11.526-17.697,11.526V286.58
		c0,22.189,14.627,18.669,14.627,18.669l129.07-0.435v0.002l139-0.465V102.405L285,95.5z"/>
	<path id="op-205" fill="#939598" stroke="#494949" stroke-width="0.5" stroke-miterlimit="10" d="M512.195,239.5l3.418-3.773
		c0,0,1.75-1.833,3.5,0s16.334,15.667,16.334,15.667l-5.334,5.747H528.5L512.195,239.5z"/>
</g>
<g id="signs">
	<g id="entrance">
		<rect x="405.845" y="310.632" opacity="0.8" enable-background="new    " width="14.813" height="14.812"/>
		<rect x="539.927" y="431.132" opacity="0.8" enable-background="new    " width="14.813" height="14.812"/>
		<rect x="292.039" y="306.764" opacity="0.8" enable-background="new    " width="14.811" height="14.811"/>
	</g>
	<g id="elevator">
		<rect x="584.093" y="414.632" opacity="0.8" enable-background="new    " width="14.813" height="14.812"/>
		<rect x="430.562" y="301.382" opacity="0.8" enable-background="new    " width="14.813" height="14.812"/>
	</g>
	<g id="escalator">
		<rect x="356.57" y="222.389" opacity="0.8" enable-background="new    " width="14.811" height="14.81"/>
		<rect x="479.728" y="249.154" opacity="0.8" enable-background="new    " width="14.813" height="14.81"/>
		<rect x="538.416" y="251.892" opacity="0.8" enable-background="new    " width="14.811" height="14.81"/>
		<rect x="579.261" y="288.274" opacity="0.8" enable-background="new    " width="14.813" height="14.81"/>
		<rect x="555.783" y="329.023" opacity="0.8" enable-background="new    " width="14.811" height="14.811"/>
		<rect x="688.857" y="425.23" opacity="0.8" enable-background="new    " width="14.811" height="14.809"/>
	</g>
	<g id="fire-exit">
		<rect x="277.106" y="290.344" opacity="0.8" enable-background="new    " width="14.811" height="14.811"/>
		<rect x="574.814" y="423.265" opacity="0.8" enable-background="new    " width="14.811" height="14.813"/>
		<rect x="443.062" y="308.811" opacity="0.8" enable-background="new    " width="14.813" height="14.813"/>
		<rect x="571.357" y="185.627" opacity="0.8" enable-background="new    " width="14.811" height="14.81"/>
		<rect x="403.71" y="108.357" opacity="0.8" enable-background="new    " width="14.813" height="14.81"/>
		<rect x="279.239" y="97.524" opacity="0.8" enable-background="new    " width="14.811" height="14.81"/>
		<rect x="820.291" y="411.688" opacity="0.8" enable-background="new    " width="14.811" height="14.813"/>
		<rect x="663.453" y="526.357" opacity="0.8" enable-background="new    " width="14.811" height="14.811"/>
		<rect x="681.96" y="275.706" opacity="0.8" enable-background="new    " width="14.811" height="14.811"/>
	</g>
	<g id="toilet">
		<rect x="764.625" y="449.292" opacity="0.8" enable-background="new    " width="14.811" height="14.811"/>
		<rect x="424.056" y="108.357" opacity="0.8" enable-background="new    " width="14.813" height="14.81"/>
	</g>
	<rect id="parking" x="403.709" y="399.941" opacity="0.8" enable-background="new    " width="14.811" height="14.811"/>
</g>
</svg>
