<?xml version="1.0" encoding="utf-8"?>
<!-- Generator: Adobe Illustrator 16.0.0, SVG Export Plug-In . SVG Version: 6.00 Build 0)  -->
<!DOCTYPE svg PUBLIC "-//W3C//DTD SVG 1.1//EN" "http://www.w3.org/Graphics/SVG/1.1/DTD/svg11.dtd">
<svg version="1.1" id="Layer_1" xmlns="http://www.w3.org/2000/svg" xmlns:xlink="http://www.w3.org/1999/xlink" x="0px" y="0px"
	 width="841.89px" height="595.281px" viewBox="0 0 841.89 595.281" enable-background="new 0 0 841.89 595.281"
	 xml:space="preserve">
<g id="background">
	<rect fill="#FFFFFF" width="841.89" height="595.281"/>
</g>
<g id="etc">
	<path fill="#BFBFBF" stroke="#494949" stroke-width="0.66" stroke-miterlimit="10" d="M831.75,409.251
		c0,0-133.48-129.23-141.416-136.917S659.25,248.5,659.25,248.5l-1.916,1.75c0,0-1.258-1.209-3.502-3.367
		c-16.895-16.233-90.406-86.875-116.563-112.009C507.636,106.399,480,104.125,480,104.125h-17.813v-2.958H294.05l-1.605,1.435
		v201.746L396.5,304l0.063,2.875l1.625,1.912h22.47c0,0,10.29,14.104,13.219,14.4c2.932,0.295,3.875-1.437,3.875-1.437
		s33.285,32.074,73.924,71.235c59.486,57.326,134.73,129.841,144.408,139.181c16.291,15.723,25.877,4.242,25.877,4.242
		s125.123-91.187,143.123-104.408C843.083,418.777,831.75,409.251,831.75,409.251z"/>
	<path fill="#A3A3A3" stroke="#494949" stroke-width="0.5" stroke-miterlimit="10" d="M353.167,228.834c0,0,0.167-19,0-23.667
		s-3.667-14-15.167-7s-18.5,14.729-20.333,18.698c-1.833,3.969-3.334,11.969,7.833,11.969S353.167,228.834,353.167,228.834z"/>
	<path fill="#A3A3A3" stroke="#494949" stroke-width="0.5" stroke-miterlimit="10" d="M568.25,307.75
		c-3.146,3.189-9.25,8.311-16.5,1.82c-7.25-6.486-17.584-18.57-4.334-19.07s17,3.5,20.5,5.167S574.333,301.583,568.25,307.75z"/>
	<path fill="#A3A3A3" stroke="#494949" stroke-width="0.5" stroke-miterlimit="10" d="M441.75,244.917c0.584-3.167,0.502-7,9.918-7
		s13.082,2.084,9.666,9.167s-8.25,7.75-10.084,9.083c-1.832,1.333-7.666,0.75-8.666-3.667S441.75,244.917,441.75,244.917z"/>
	
		<rect x="545.118" y="295.473" transform="matrix(0.724 0.6898 -0.6898 0.724 360.2218 -304.9893)" fill="#BFBFBF" stroke="#494949" stroke-width="0.5" stroke-miterlimit="10" width="32.25" height="4.374"/>
	
		<rect x="542.152" y="298.718" transform="matrix(-0.724 -0.6898 0.6898 -0.724 755.0233 903.5392)" fill="#BFBFBF" stroke="#494949" stroke-width="0.5" stroke-miterlimit="10" width="32.249" height="3.998"/>
	
		<rect x="571.133" y="347.545" transform="matrix(0.7239 0.6899 -0.6899 0.7239 403.4185 -308.5893)" fill="#BFBFBF" stroke="#494949" stroke-width="0.5" stroke-miterlimit="10" width="32.25" height="4.374"/>
	
		<rect x="568.271" y="350.757" transform="matrix(-0.724 -0.6898 0.6898 -0.724 764.1481 1011.2728)" fill="#BFBFBF" stroke="#494949" stroke-width="0.5" stroke-miterlimit="10" width="32.249" height="3.998"/>
	
		<rect x="504.577" y="262.522" transform="matrix(-0.9996 0.0299 -0.0299 -0.9996 1049.0837 513.3576)" fill="#BFBFBF" stroke="#494949" stroke-width="0.5" stroke-miterlimit="10" width="32.253" height="4"/>
	
		<rect x="669.373" y="404.055" transform="matrix(0.5523 0.8337 -0.8337 0.5523 645.5793 -389.5897)" fill="#BFBFBF" stroke="#494949" stroke-width="0.5" stroke-miterlimit="10" width="32.253" height="4.376"/>
	
		<rect x="665.952" y="406.553" transform="matrix(-0.5522 -0.8337 0.8337 -0.5522 718.1126 1202.8127)" fill="#BFBFBF" stroke="#494949" stroke-width="0.5" stroke-miterlimit="10" width="32.25" height="4.003"/>
	
		<rect x="316.14" y="219.259" transform="matrix(1 0.0056 -0.0056 1 1.2464 -1.8761)" fill="#BFBFBF" stroke="#494949" stroke-width="0.5" stroke-miterlimit="10" width="38.42" height="4.375"/>
	
		<rect x="316.108" y="223.65" transform="matrix(-1 -0.0056 0.0056 -1 669.3647 453.1761)" fill="#BFBFBF" stroke="#494949" stroke-width="0.5" stroke-miterlimit="10" width="38.42" height="4"/>
	
		<rect x="545.118" y="295.473" transform="matrix(0.724 0.6898 -0.6898 0.724 360.2218 -304.9893)" fill="#BFBFBF" stroke="#494949" stroke-width="0.5" stroke-miterlimit="10" width="32.25" height="4.374"/>
	
		<rect x="542.152" y="298.718" transform="matrix(-0.724 -0.6898 0.6898 -0.724 755.0233 903.5392)" fill="#BFBFBF" stroke="#494949" stroke-width="0.5" stroke-miterlimit="10" width="32.249" height="3.998"/>
	
		<rect x="504.437" y="258.182" transform="matrix(0.9996 -0.0299 0.0299 0.9996 -7.5523 15.6812)" fill="#BFBFBF" stroke="#494949" stroke-width="0.5" stroke-miterlimit="10" width="32.253" height="4.375"/>
	<g id="pmt">
		
			<rect x="363.5" y="194.834" fill="#A3A3A3" stroke="#494949" stroke-width="0.5" stroke-miterlimit="10" width="35.167" height="24.333"/>
		<path fill="#A3A3A3" stroke="#494949" stroke-width="0.5" stroke-miterlimit="10" d="M410,198c0,3.583,0,16.75,0,19.167
			s0.833,3.5,3.75,3.583s29.666-1.417,44.25,7.25s19,12.917,24.168,18.083c5.166,5.166,5.5,7.083,10,2.667s10.416-10.25,12-12.25
			c1.582-2,1.916-3.333-1.168-6.167c-3.082-2.834-21.916-22.5-30-27.667c-8.082-5.167-17.832-8.333-32.75-8.5
			c-14.916-0.167-23.833,0.501-26.167,0.667S410,194.417,410,198z"/>
		<polygon fill="#A3A3A3" stroke="#494949" stroke-width="0.5" stroke-miterlimit="10" points="566,323.677 583.416,305.729 
			624.917,345.916 607.083,364.242 		"/>
		<path fill="#A3A3A3" stroke="#494949" stroke-width="0.5" stroke-miterlimit="10" d="M615.416,373.333
			c0,0,13.834-15.25,14.334-15.5s3.834-2.418,8.334,0.75c4.5,3.166,20,19.153,21.916,21.119c1.916,1.965,3.582,4.047,4.166,6.881
			s1.75,4.416,2.168,6.5c0.416,2.084-0.084,3.25-2.418,6.166c-2.332,2.918-7.416,7.885-8.666,9.233
			c-1.25,1.348-2.75,1.767-5.75-1.233S615.416,373.333,615.416,373.333z"/>
	</g>
	<polygon id="central-laundry" fill="#BFBFBF" stroke="#494949" stroke-width="0.66" stroke-miterlimit="10" points="
		574.125,486.25 559.687,471.814 553.062,478.439 547.125,472.5 553.687,465.939 541.562,453.814 557.894,437.53 590.197,468.661 	
		"/>
</g>
<g id="rooms">
	<path id="central-department-store" fill="#939598" stroke="#494949" stroke-width="0.5" stroke-miterlimit="10" d="M292,103
		l-7-7.5c0,0-66.698,0.181-132.555,0.35c-58.169,0.15-115.682,0.29-126,0.29c-22,0-17.697,11.526-17.697,11.526V286.58
		c0,22.189,14.627,18.669,14.627,18.669l129.07-0.433l140-0.469V102.602L292,103z"/>
	<polygon id="r107" fill="#939598" stroke="#494949" stroke-width="0.5" stroke-miterlimit="10" points="485.333,123.333 
		487.509,110.75 441.167,110.75 441.167,180.5 456.279,180.5 464.5,175.5 	"/>
	
		<rect id="r106" x="419.5" y="110.75" fill="#939598" stroke="#494949" stroke-width="0.5" stroke-miterlimit="10" width="21.667" height="69.75"/>
	<polygon id="r108" fill="#939598" stroke="#494949" stroke-width="0.5" stroke-miterlimit="10" points="509.5,120 509.431,119.971 
		502.333,130.667 480.833,183 482.033,190.669 493.919,202.036 542.623,151.941 	"/>
	
		<rect id="r104" x="377.5" y="123.333" fill="#939598" stroke="#494949" stroke-width="0.5" stroke-miterlimit="10" width="13.5" height="57.167"/>
	
		<rect id="r105" x="397.167" y="123.333" fill="#939598" stroke="#494949" stroke-width="0.5" stroke-miterlimit="10" width="22.333" height="57.167"/>
	<polygon id="r109" fill="#939598" stroke="#494949" stroke-width="0.5" stroke-miterlimit="10" points="542.623,151.941 
		493.919,202.036 509.429,216.865 557.984,166.754 	"/>
	
		<rect id="r101" x="309.25" y="110.75" fill="#939598" stroke="#494949" stroke-width="0.5" stroke-miterlimit="10" width="23.529" height="69.75"/>
	
		<rect id="r102" x="332.779" y="110.75" fill="#939598" stroke="#494949" stroke-width="0.5" stroke-miterlimit="10" width="22.471" height="69.75"/>
	
		<rect id="r103" x="355.25" y="110.75" fill="#939598" stroke="#494949" stroke-width="0.5" stroke-miterlimit="10" width="22.25" height="69.75"/>
	<polygon id="r121" fill="#939598" stroke="#494949" stroke-width="0.5" stroke-miterlimit="10" points="748.464,339.063 
		694.41,393.74 709.83,408.482 763.941,353.832 	"/>
	<polygon id="r119" fill="#939598" stroke="#494949" stroke-width="0.5" stroke-miterlimit="10" points="717.425,309.445 
		663.56,364.242 679.728,379.703 732.894,324.207 	"/>
	<polygon id="r120" fill="#939598" stroke="#494949" stroke-width="0.5" stroke-miterlimit="10" points="732.894,324.207 
		679.728,379.703 694.41,393.74 748.464,339.063 	"/>
	<polygon id="r122" fill="#939598" stroke="#494949" stroke-width="0.5" stroke-miterlimit="10" points="763.941,353.832 
		709.83,408.482 724.75,422.75 713.25,434.5 745.5,465.75 810.75,398.5 	"/>
	<polygon id="r116-1" fill="#939598" stroke="#494949" stroke-width="0.5" stroke-miterlimit="10" points="602.365,305.729 
		617.267,319.979 622.833,320.5 642.98,299.438 625.5,281.5 	"/>
	<polygon id="r114-116" fill="#939598" stroke="#494949" stroke-width="0.5" stroke-miterlimit="10" points="619.595,226.168 
		571.24,275.967 602.365,305.729 625.5,281.5 642.98,299.438 668.216,273.055 	"/>
	<polygon id="r111" fill="#939598" stroke="#494949" stroke-width="0.5" stroke-miterlimit="10" points="565.183,191.942 
		527.167,229.833 527.167,233.826 540.25,246.336 579.876,206.71 	"/>
	<polygon id="r113" fill="#939598" stroke="#494949" stroke-width="0.5" stroke-miterlimit="10" points="619.595,226.168 
		604.572,211.681 555.417,260.837 571.24,275.967 	"/>
	<polygon id="r112" fill="#939598" stroke="#494949" stroke-width="0.5" stroke-miterlimit="10" points="589.636,197.278 
		580.166,207 579.876,206.71 540.25,246.336 555.417,260.837 604.572,211.681 	"/>
	<polygon id="r110" fill="#939598" stroke="#494949" stroke-width="0.5" stroke-miterlimit="10" points="509.429,216.865 
		518.111,225.167 523.333,225.167 559.353,186.083 549.171,175.849 	"/>
	<polygon id="r117-1" fill="#939598" stroke="#494949" stroke-width="0.5" stroke-miterlimit="10" points="664.835,297.398 
		633.333,330 633.333,335.339 646.523,347.951 681.166,312.833 	"/>
	<polygon id="r117-118" fill="#939598" stroke="#494949" stroke-width="0.5" stroke-miterlimit="10" points="717.425,309.445 
		696,289 684.75,289 678.642,283.111 664.835,297.398 681.166,312.833 646.523,347.951 663.56,364.242 	"/>
	<polygon id="r123-125" fill="#939598" stroke="#494949" stroke-width="0.5" stroke-miterlimit="10" points="756.833,462.667 
		745,474.667 709.199,440.033 699.937,449.292 689.234,459.998 679.728,469.501 718.833,506.501 729.402,498.794 742.246,489.429 
		766.833,471.501 	"/>
	<polygon id="r126-2" fill="#939598" stroke="#494949" stroke-width="0.5" stroke-miterlimit="10" points="670.333,469.833 
		683.167,455.833 653.72,427.517 640.539,441.167 	"/>
	<polygon id="r126-129" fill="#939598" stroke="#494949" stroke-width="0.5" stroke-miterlimit="10" points="683,504.501 
		694.41,493.001 670.333,469.833 640.539,441.167 653.72,427.517 609.333,384.833 586.667,409.791 604.167,427.833 587.5,444.833 
		602.5,459.998 599,464.73 613.667,478.333 609.333,483.25 657.833,530.001 662.5,525.333 683.333,524.833 689.234,520.667 
		685.666,515.333 690.333,511.667 	"/>
	<polygon id="r134" fill="#939598" stroke="#494949" stroke-width="0.5" stroke-miterlimit="10" points="502.515,316.57 
		470.886,349.563 486.072,364.229 517.875,331.544 	"/>
	<polygon id="r137" fill="#939598" stroke="#494949" stroke-width="0.5" stroke-miterlimit="10" points="451.5,266.834 444,268.167 
		433.833,290.5 438,292.167 452.613,307.13 472.203,287.018 	"/>
	<polygon id="r135-136" fill="#939598" stroke="#494949" stroke-width="0.5" stroke-miterlimit="10" points="472.203,287.018 
		452.613,307.13 458.833,313.501 446.833,326.333 470.886,349.563 502.515,316.57 	"/>
	<polygon id="r130" fill="#939598" stroke="#494949" stroke-width="0.5" stroke-miterlimit="10" points="590.666,377.833 
		575.804,363.666 556.5,384.167 573.367,400.146 590.666,382.5 	"/>
	<polygon id="r133-1" fill="#939598" stroke="#494949" stroke-width="0.5" stroke-miterlimit="10" points="545.611,334.884 
		544.333,333.667 518,331.667 517.875,331.544 509.705,339.939 525.611,354.833 	"/>
	<polygon id="r131-133" fill="#939598" stroke="#494949" stroke-width="0.5" stroke-miterlimit="10" points="575.804,363.666 
		545.611,334.884 525.611,354.833 509.705,339.939 486.072,364.229 549,425 573.367,400.146 556.5,384.167 	"/>
	<polygon id="r142" fill="#939598" stroke="#494949" stroke-width="0.5" stroke-miterlimit="10" points="310.5,241.167 
		306.833,243.834 306.833,272.334 334.5,272.334 334.5,241.257 	"/>
	<polygon id="r141" fill="#939598" stroke="#494949" stroke-width="0.5" stroke-miterlimit="10" points="355.833,241.037 
		355.333,241.334 334.5,241.257 334.5,272.334 334.833,272.334 334.833,277.667 355.833,277.667 	"/>
	<polygon id="r139" fill="#939598" stroke="#494949" stroke-width="0.5" stroke-miterlimit="10" points="392.112,231.834 
		377,231.834 377,290 392.112,290 411.112,290 411.112,231.834 	"/>
	<polygon id="r138" fill="#939598" stroke="#494949" stroke-width="0.5" stroke-miterlimit="10" points="423.833,236 416.5,231.834 
		411.112,231.834 411.112,290 419.833,290 431.167,263.167 431.167,252.167 	"/>
	<polygon id="r140" fill="#939598" stroke="#494949" stroke-width="0.5" stroke-miterlimit="10" points="371.333,231.834 
		355.833,241.037 355.833,277.667 334.833,277.667 334.833,301.833 376,301.833 376,290 377,290 377,231.834 	"/>
	<path id="op-101" fill="#939598" stroke="#494949" stroke-width="0.5" stroke-miterlimit="10" d="M317.667,216.865
		c1.833-3.969,8.833-11.698,20.333-18.698c2.849-1.734,5.206-2.464,7.144-2.512c-4.054-0.13-21.119-0.675-25.811-0.821
		c-5.333-0.167-7.333,3.333-7.333,8c0,0,0,6.167,0,10s1.833,5.333,3.667,5.333c0.436,0,0.947,0,1.473,0
		C317.304,217.702,317.483,217.263,317.667,216.865z"/>
	<path id="k-101" fill="#939598" stroke="#494949" stroke-width="0.5" stroke-miterlimit="10" d="M475.595,253.65
		c0.941,0.936,0.873,2.528-0.15,3.556l-6.594,6.618c-1.023,1.028-2.615,1.102-3.555,0.166l-3.711-3.695
		c-0.939-0.937-0.873-2.529,0.152-3.557l6.592-6.618c1.021-1.028,2.615-1.103,3.557-0.166L475.595,253.65z"/>
	<path id="k-102" fill="#939598" stroke="#494949" stroke-width="0.5" stroke-miterlimit="10" d="M490.931,268.998
		c0.941,0.936,0.873,2.528-0.15,3.556l-6.594,6.618c-1.023,1.028-2.615,1.102-3.555,0.166l-3.711-3.695
		c-0.939-0.937-0.873-2.529,0.152-3.557l6.592-6.618c1.023-1.028,2.615-1.103,3.557-0.166L490.931,268.998z"/>
	<path id="k-103" fill="#939598" stroke="#494949" stroke-width="0.5" stroke-miterlimit="10" d="M506.267,283.66
		c0.941,0.936,0.873,2.528-0.15,3.556l-6.594,6.618c-1.023,1.028-2.615,1.102-3.555,0.166l-3.711-3.695
		c-0.939-0.937-0.873-2.529,0.152-3.557l6.592-6.618c1.023-1.028,2.615-1.103,3.557-0.166L506.267,283.66z"/>
	<path id="k-104" fill="#939598" stroke="#494949" stroke-width="0.5" stroke-miterlimit="10" d="M522.015,298.576
		c0.941,0.938,0.873,2.527-0.15,3.555l-6.594,6.619c-1.023,1.027-2.615,1.104-3.555,0.166l-3.711-3.695
		c-0.939-0.938-0.873-2.527,0.152-3.557l6.592-6.619c1.023-1.028,2.615-1.103,3.557-0.166L522.015,298.576z"/>
	<path id="k-105" fill="#939598" stroke="#494949" stroke-width="0.5" stroke-miterlimit="10" d="M537.013,313.248
		c0.941,0.938,0.873,2.527-0.15,3.557l-6.594,6.617c-1.021,1.029-2.613,1.104-3.555,0.166l-3.709-3.693
		c-0.941-0.938-0.873-2.528,0.152-3.559l6.592-6.617c1.02-1.027,2.615-1.104,3.555-0.166L537.013,313.248z"/>
	<path id="op-103" fill="#939598" stroke="#494949" stroke-width="0.5" stroke-miterlimit="10" d="M664.945,416.391l11.809-12.229
		l7.857,11.862l6.6-5.123l12.734,11.988c0,0,1.875,2,0,3.875s-14.25,14.75-14.25,14.75s-2.188,2.646-4.832,0
		c-2.646-2.646-20.799-20-20.799-20S661.757,419.578,664.945,416.391z"/>
	<path id="op-102-1" fill="#939598" stroke="#494949" stroke-width="0.5" stroke-miterlimit="10" d="M520.837,258.13l0.004,0.057
		l10.865-0.325c-7.76-7.438-16.695-15.972-16.695-15.972s-2.715-3.867-5.582-1c-2.867,2.867-8.379,8.407-8.379,8.407
		s-2.771,1.913,0,4.804c3.639,3.793,3.895,4.374,3.895,4.374L520.837,258.13z"/>
	<path id="op-102-2" fill="#939598" stroke="#494949" stroke-width="0.5" stroke-miterlimit="10" d="M542.623,268.39
		c-0.768-0.767-2.996-2.922-5.863-5.679l0.1,3.315l-31.371,0.938l20.145,18.926c0,0,4.314,3,7.314,0s9.678-9.923,9.678-9.923
		S545.585,271.354,542.623,268.39z"/>
</g>
<g id="signs">
	<rect id="information" x="444.568" y="239.291" opacity="0.8" enable-background="new    " width="14.811" height="14.81"/>
	<g id="escalator">
		<rect x="356.095" y="216.546" opacity="0.8" enable-background="new    " width="14.813" height="14.81"/>
		<rect x="664.064" y="378.93" opacity="0.8" enable-background="new    " width="14.811" height="14.813"/>
		<rect x="594.96" y="359.805" opacity="0.8" enable-background="new    " width="14.811" height="14.813"/>
		<rect x="550.898" y="292.555" opacity="0.8" enable-background="new    " width="14.811" height="14.812"/>
		<rect x="486.24" y="256.245" opacity="0.8" enable-background="new    " width="14.811" height="14.811"/>
	</g>
	<rect id="parking" x="403.709" y="399.941" opacity="0.8" enable-background="new    " width="14.811" height="14.811"/>
	<g id="lift">
		<rect x="430.562" y="301.382" opacity="0.8" enable-background="new    " width="14.813" height="14.812"/>
		<rect x="584.093" y="414.632" opacity="0.8" enable-background="new    " width="14.813" height="14.812"/>
	</g>
	<g id="entrance">
		<rect x="294.048" y="97.524" opacity="0.8" enable-background="new    " width="14.813" height="14.81"/>
		<rect x="491.857" y="103.345" opacity="0.8" enable-background="new    " width="14.811" height="14.812"/>
		<rect x="674.554" y="263.65" opacity="0.8" enable-background="new    " width="14.813" height="14.81"/>
		<rect x="405.845" y="310.632" opacity="0.8" enable-background="new    " width="14.813" height="14.812"/>
		<rect x="539.927" y="431.132" opacity="0.8" enable-background="new    " width="14.813" height="14.812"/>
		<rect x="292.039" y="306.764" opacity="0.8" enable-background="new    " width="14.811" height="14.811"/>
	</g>
	<g id="toilet">
		<rect x="311" y="280.687" opacity="0.8" enable-background="new    " width="14.811" height="14.81"/>
		<rect x="764.625" y="449.292" opacity="0.8" enable-background="new    " width="14.811" height="14.811"/>
	</g>
	<g id="fire-exit">
		<rect x="571.357" y="185.627" opacity="0.8" enable-background="new    " width="14.811" height="14.81"/>
		<rect x="277.106" y="290.344" opacity="0.8" enable-background="new    " width="14.811" height="14.811"/>
		<rect x="403.71" y="108.357" opacity="0.8" enable-background="new    " width="14.813" height="14.81"/>
		<rect x="279.239" y="97.524" opacity="0.8" enable-background="new    " width="14.811" height="14.81"/>
		<rect x="574.814" y="423.265" opacity="0.8" enable-background="new    " width="14.811" height="14.813"/>
		<rect x="820.291" y="411.688" opacity="0.8" enable-background="new    " width="14.811" height="14.813"/>
		<rect x="663.453" y="526.357" opacity="0.8" enable-background="new    " width="14.811" height="14.811"/>
		<rect x="681.96" y="275.706" opacity="0.8" enable-background="new    " width="14.811" height="14.811"/>
	</g>
</g>
</svg>
