<?xml version="1.0" encoding="utf-8"?>
<!-- Generator: Adobe Illustrator 16.0.0, SVG Export Plug-In . SVG Version: 6.00 Build 0)  -->
<!DOCTYPE svg PUBLIC "-//W3C//DTD SVG 1.1//EN" "http://www.w3.org/Graphics/SVG/1.1/DTD/svg11.dtd">
<svg version="1.1" id="Layer_1" xmlns="http://www.w3.org/2000/svg" xmlns:xlink="http://www.w3.org/1999/xlink" x="0px" y="0px"
	 width="1000px" height="1000px" viewBox="0 0 1000 1000" enable-background="new 0 0 1000 1000" xml:space="preserve">
<g id="background">
	<rect y="146.455" fill="#FFFFFF" width="1000" height="707.091"/>
</g>
<g id="etc">
	<path fill="#BFBFBF" stroke="#494949" stroke-width="0.66" stroke-miterlimit="10" d="M988.003,632.616
		c0,0-158.569-153.462-167.953-162.608c-9.384-9.146-36.94-28.269-36.94-28.269l-2.257,2.138c0,0-1.544-1.426-4.157-4.038
		c-20.073-19.243-107.376-103.219-138.496-133.033c-35.158-33.852-68.061-36.465-68.061-36.465h-21.143v-3.563H349.21l-1.9,1.663
		v239.577l123.649-0.356l0.118,3.444l1.9,2.257h26.726c0,0,12.234,16.748,15.679,17.104s4.633-1.663,4.633-1.663
		s39.553,38.128,87.777,84.57c70.673,68.061,159.995,154.176,171.517,165.341c19.361,18.648,30.764,4.988,30.764,4.988
		s148.593-108.444,169.973-124.124C1001.426,643.9,988.003,632.616,988.003,632.616z"/>
	<path fill="#A3A3A3" stroke="#494949" stroke-width="0.5" stroke-miterlimit="10" d="M419.527,418.221c0,0,0.237-22.568,0-28.15
		c-0.237-5.583-4.395-16.629-18.055-8.315c-13.659,8.315-21.974,17.46-24.112,22.212c-2.138,4.751-3.919,14.253,9.265,14.253
		C399.81,418.221,419.527,418.221,419.527,418.221z"/>
	<path fill="#A3A3A3" stroke="#494949" stroke-width="0.5" stroke-miterlimit="10" d="M674.902,512.056
		c-3.683,3.802-10.928,9.859-19.599,2.139c-8.553-7.721-20.905-22.093-5.107-22.688c15.797-0.594,20.192,4.157,24.35,6.177
		S682.147,504.691,674.902,512.056z"/>
	<path fill="#A3A3A3" stroke="#494949" stroke-width="0.5" stroke-miterlimit="10" d="M524.766,437.344
		c0.713-3.801,0.594-8.314,11.759-8.314s15.561,2.494,11.521,10.928c-4.038,8.434-9.739,9.265-11.996,10.809
		c-2.139,1.545-9.146,0.951-10.334-4.395C524.527,441.026,524.766,437.344,524.766,437.344z"/>
	
		<rect x="663.934" y="480.871" transform="matrix(-0.6898 0.724 -0.724 -0.6898 1488.3286 362.3157)" fill="#BFBFBF" stroke="#494949" stroke-width="0.5" stroke-miterlimit="10" width="5.227" height="38.247"/>
	
		<rect x="660.737" y="484.477" transform="matrix(-0.6897 0.7241 -0.7241 -0.6897 1485.1228 370.8206)" fill="#BFBFBF" stroke="#494949" stroke-width="0.5" stroke-miterlimit="10" width="4.752" height="38.247"/>
	
		<rect x="694.93" y="542.674" transform="matrix(-0.6899 0.7239 -0.7239 -0.6899 1585.4653 444.4241)" fill="#BFBFBF" stroke="#494949" stroke-width="0.5" stroke-miterlimit="10" width="5.226" height="38.247"/>
	
		<rect x="691.707" y="546.267" transform="matrix(-0.6898 0.724 -0.724 -0.6898 1582.2096 452.9302)" fill="#BFBFBF" stroke="#494949" stroke-width="0.5" stroke-miterlimit="10" width="4.751" height="38.247"/>
	
		<rect x="599.387" y="458.261" transform="matrix(-0.9996 0.0299 -0.0299 -0.9996 1250.6405 902.5684)" fill="#BFBFBF" stroke="#494949" stroke-width="0.5" stroke-miterlimit="10" width="38.367" height="4.752"/>
	
		<rect x="811.705" y="609.911" transform="matrix(-0.8337 0.5523 -0.5523 -0.8337 1840.6184 703.8082)" fill="#BFBFBF" stroke="#494949" stroke-width="0.5" stroke-miterlimit="10" width="5.227" height="38.367"/>
	
		<rect x="807.763" y="612.543" transform="matrix(-0.8338 0.5521 -0.5521 -0.8338 1834.36 711.0146)" fill="#BFBFBF" stroke="#494949" stroke-width="0.5" stroke-miterlimit="10" width="4.751" height="38.246"/>
	
		<rect x="395.666" y="386.624" transform="matrix(-0.0056 1 -1 -0.0056 809.9355 13.4521)" fill="#BFBFBF" stroke="#494949" stroke-width="0.5" stroke-miterlimit="10" width="5.226" height="45.612"/>
	
		<rect x="395.849" y="391.677" transform="matrix(-0.0055 1 -1 -0.0055 814.9115 18.564)" fill="#BFBFBF" stroke="#494949" stroke-width="0.5" stroke-miterlimit="10" width="4.752" height="45.612"/>
	
		<rect x="663.934" y="480.871" transform="matrix(-0.6898 0.724 -0.724 -0.6898 1488.3286 362.3157)" fill="#BFBFBF" stroke="#494949" stroke-width="0.5" stroke-miterlimit="10" width="5.227" height="38.247"/>
	
		<rect x="660.737" y="484.477" transform="matrix(-0.6897 0.7241 -0.7241 -0.6897 1485.1228 370.8206)" fill="#BFBFBF" stroke="#494949" stroke-width="0.5" stroke-miterlimit="10" width="4.752" height="38.247"/>
	
		<rect x="599.269" y="453.154" transform="matrix(-0.9996 0.0299 -0.0299 -0.9996 1250.2474 892.85)" fill="#BFBFBF" stroke="#494949" stroke-width="0.5" stroke-miterlimit="10" width="38.367" height="5.226"/>
	<g id="pmt">
		
			<rect x="431.762" y="377.836" fill="#A3A3A3" stroke="#494949" stroke-width="0.5" stroke-miterlimit="10" width="41.81" height="28.863"/>
		<path fill="#A3A3A3" stroke="#494949" stroke-width="0.5" stroke-miterlimit="10" d="M486.994,381.637c0,4.276,0,19.955,0,22.806
			s0.95,4.157,4.514,4.276c3.562,0.119,35.277-1.663,52.5,8.552s22.567,15.322,28.744,21.499s6.533,8.434,11.878,3.207
			s12.354-12.115,14.254-14.491s2.257-3.92-1.426-7.364c-3.682-3.326-26.013-26.725-35.634-32.902
			c-9.621-6.176-21.143-9.858-38.959-10.096c-17.698-0.237-28.27,0.594-31.12,0.832
			C488.895,378.192,486.994,377.361,486.994,381.637z"/>
		<polygon fill="#A3A3A3" stroke="#494949" stroke-width="0.5" stroke-miterlimit="10" points="672.289,530.942 692.956,509.562 
			742.25,557.311 721.107,579.048 		"/>
		<path fill="#A3A3A3" stroke="#494949" stroke-width="0.5" stroke-miterlimit="10" d="M730.966,589.856
			c0,0,16.392-18.055,16.985-18.411s4.514-2.851,9.858,0.95s23.756,22.806,26.013,25.062c2.257,2.376,4.276,4.751,4.988,8.196
			c0.713,3.444,2.139,5.226,2.613,7.72c0.476,2.495-0.118,3.802-2.851,7.364c-2.731,3.445-8.789,9.384-10.333,10.928
			c-1.545,1.545-3.326,2.139-6.89-1.425S730.966,589.856,730.966,589.856z"/>
	</g>
	<polygon id="central-laundry" fill="#BFBFBF" stroke="#494949" stroke-width="0.66" stroke-miterlimit="10" points="
		681.91,723.958 664.806,706.854 656.967,714.693 649.84,707.685 657.679,699.846 643.307,685.474 662.668,666.112 701.033,703.172 
			"/>
	<polygon id="_x3C_Path_x3E_" fill="#BFBFBF" stroke="#494949" stroke-width="0.66" stroke-miterlimit="10" points="
		796.176,704.478 811.498,687.849 776.458,654.234 760.779,670.507 	"/>
</g>
<g id="rooms">
	<path id="central-department-store" fill="#939598" stroke="#494949" stroke-width="0.5" stroke-miterlimit="10" d="
		M346.835,268.797l-8.315-8.909c0,0-79.225,0.238-157.5,0.356c-69.129,0.238-137.427,0.356-149.662,0.356
		c-26.131,0-21.023,13.66-21.023,13.66v212.495c0,26.369,17.341,22.212,17.341,22.212l153.344-0.475l166.291-0.595V268.322
		L346.835,268.797z"/>
	<polygon id="r107" fill="#939598" stroke="#494949" stroke-width="0.5" stroke-miterlimit="10" points="576.435,292.909 
		579.047,278.062 524.053,278.062 524.053,360.851 541.988,360.851 551.729,354.912 	"/>
	
		<rect id="r106" x="498.277" y="278.062" fill="#939598" stroke="#494949" stroke-width="0.5" stroke-miterlimit="10" width="25.775" height="82.908"/>
	<polygon id="r108" fill="#939598" stroke="#494949" stroke-width="0.5" stroke-miterlimit="10" points="605.179,288.989 
		605.06,288.989 596.627,301.699 571.089,363.82 572.515,372.966 586.649,386.388 644.494,326.88 	"/>
	
		<rect id="r104" x="448.391" y="292.909" fill="#939598" stroke="#494949" stroke-width="0.5" stroke-miterlimit="10" width="16.035" height="67.941"/>
	
		<rect id="r105" x="471.79" y="292.909" fill="#939598" stroke="#494949" stroke-width="0.5" stroke-miterlimit="10" width="26.487" height="67.941"/>
	<polygon id="r109" fill="#939598" stroke="#494949" stroke-width="0.5" stroke-miterlimit="10" points="644.494,326.88 
		586.649,386.388 605.06,404.086 662.786,344.578 	"/>
	
		<rect id="r101" x="367.265" y="278.062" fill="#939598" stroke="#494949" stroke-width="0.5" stroke-miterlimit="10" width="27.913" height="82.908"/>
	
		<rect id="r102" x="395.297" y="278.062" fill="#939598" stroke="#494949" stroke-width="0.5" stroke-miterlimit="10" width="26.725" height="82.908"/>
	
		<rect id="r103" x="421.902" y="278.062" fill="#939598" stroke="#494949" stroke-width="0.5" stroke-miterlimit="10" width="26.369" height="82.908"/>
	<polygon id="r121" fill="#939598" stroke="#494949" stroke-width="0.5" stroke-miterlimit="10" points="889.061,549.234 
		824.801,614.087 843.093,631.666 907.353,566.694 	"/>
	<polygon id="r119" fill="#939598" stroke="#494949" stroke-width="0.5" stroke-miterlimit="10" points="852.12,513.956 
		788.217,579.048 807.341,597.458 870.531,531.536 	"/>
	<polygon id="r120" fill="#939598" stroke="#494949" stroke-width="0.5" stroke-miterlimit="10" points="870.531,531.536 
		807.341,597.458 824.801,614.087 889.061,549.234 	"/>
	<polygon id="r122" fill="#939598" stroke="#494949" stroke-width="0.5" stroke-miterlimit="10" points="907.353,566.694 
		843.093,631.666 860.91,648.651 847.132,662.549 885.497,699.727 963.06,619.789 	"/>
	<polygon id="r116-1" fill="#939598" stroke="#494949" stroke-width="0.5" stroke-miterlimit="10" points="715.524,509.562 
		733.223,526.547 739.755,527.141 763.749,502.078 742.962,480.817 	"/>
	<polygon id="r114-116" fill="#939598" stroke="#494949" stroke-width="0.5" stroke-miterlimit="10" points="735.954,415.132 
		678.465,474.284 715.524,509.562 742.962,480.817 763.749,502.078 793.681,470.84 	"/>
	<polygon id="r111" fill="#939598" stroke="#494949" stroke-width="0.5" stroke-miterlimit="10" points="671.339,374.391 
		626.203,419.409 626.203,424.159 641.644,439.007 688.799,391.971 	"/>
	<polygon id="r113" fill="#939598" stroke="#494949" stroke-width="0.5" stroke-miterlimit="10" points="735.954,415.132 
		718.138,397.91 659.698,456.229 678.465,474.284 	"/>
	<polygon id="r112" fill="#939598" stroke="#494949" stroke-width="0.5" stroke-miterlimit="10" points="700.32,380.805 
		689.155,392.327 688.799,391.971 641.644,439.007 659.698,456.229 718.138,397.91 	"/>
	<polygon id="r110" fill="#939598" stroke="#494949" stroke-width="0.5" stroke-miterlimit="10" points="605.06,404.086 
		615.394,413.945 621.57,413.945 664.449,367.502 652.334,355.268 	"/>
	<polygon id="r117-1" fill="#939598" stroke="#494949" stroke-width="0.5" stroke-miterlimit="10" points="789.643,499.703 
		752.227,538.425 752.227,544.721 767.906,559.806 809.122,517.995 	"/>
	<polygon id="r117-118" fill="#939598" stroke="#494949" stroke-width="0.5" stroke-miterlimit="10" points="852.12,513.956 
		826.701,489.726 813.398,489.726 806.034,482.718 789.643,499.703 809.122,517.995 767.906,559.806 788.217,579.048 	"/>
	<polygon id="r123-125" fill="#939598" stroke="#494949" stroke-width="0.5" stroke-miterlimit="10" points="898.919,696.045 
		884.903,710.298 842.381,669.082 831.334,680.128 818.625,692.838 807.341,704.121 853.783,748.07 866.374,738.924 
		881.577,727.759 910.797,706.497 	"/>
	<polygon id="r126-129" fill="#939598" stroke="#494949" stroke-width="0.5" stroke-miterlimit="10" points="811.26,745.694 
		824.801,732.035 796.176,704.478 760.779,670.507 776.458,654.234 723.72,603.516 696.876,633.211 717.662,654.591 
		697.826,674.783 715.644,692.838 711.486,698.42 728.946,714.574 723.72,720.395 781.328,775.982 786.91,770.4 811.616,769.807 
		818.625,764.937 814.467,758.522 819.931,754.246 	"/>
	<polygon id="r134" fill="#939598" stroke="#494949" stroke-width="0.5" stroke-miterlimit="10" points="596.864,522.509 
		559.33,561.706 577.385,579.048 615.156,540.207 	"/>
	<polygon id="r137" fill="#939598" stroke="#494949" stroke-width="0.5" stroke-miterlimit="10" points="536.287,463.356 
		527.379,465.02 515.263,491.507 520.252,493.526 537.594,511.225 560.874,487.35 	"/>
	<polygon id="r135-136" fill="#939598" stroke="#494949" stroke-width="0.5" stroke-miterlimit="10" points="560.874,487.35 
		537.594,511.225 544.958,518.826 530.704,534.03 559.33,561.706 596.864,522.509 	"/>
	<polygon id="r130" fill="#939598" stroke="#494949" stroke-width="0.5" stroke-miterlimit="10" points="701.627,595.201 
		683.93,578.453 661.005,602.803 681.078,621.689 701.627,600.784 	"/>
	<polygon id="r133-1" fill="#939598" stroke="#494949" stroke-width="0.5" stroke-miterlimit="10" points="648.058,544.245 
		646.514,542.82 615.275,540.444 615.156,540.207 605.416,550.184 624.302,567.882 	"/>
	<polygon id="r131-133" fill="#939598" stroke="#494949" stroke-width="0.5" stroke-miterlimit="10" points="683.93,578.453 
		648.058,544.245 624.302,567.882 605.416,550.184 577.385,579.048 652.097,651.265 681.078,621.689 661.005,602.803 	"/>
	<polygon id="r142" fill="#939598" stroke="#494949" stroke-width="0.5" stroke-miterlimit="10" points="368.809,432.949 
		364.414,436.037 364.414,469.89 397.315,469.89 397.315,433.068 	"/>
	<polygon id="r141" fill="#939598" stroke="#494949" stroke-width="0.5" stroke-miterlimit="10" points="422.615,432.712 
		422.021,433.068 397.315,433.068 397.315,469.89 397.672,469.89 397.672,476.304 422.615,476.304 	"/>
	<polygon id="r139" fill="#939598" stroke="#494949" stroke-width="0.5" stroke-miterlimit="10" points="465.732,421.784 
		447.797,421.784 447.797,490.913 465.732,490.913 488.301,490.913 488.301,421.784 	"/>
	<polygon id="r138" fill="#939598" stroke="#494949" stroke-width="0.5" stroke-miterlimit="10" points="503.385,426.772 
		494.715,421.784 488.301,421.784 488.301,490.913 498.634,490.913 512.175,459.081 512.175,446.015 	"/>
	<polygon id="r140" fill="#939598" stroke="#494949" stroke-width="0.5" stroke-miterlimit="10" points="441.026,421.784 
		422.615,432.712 422.615,476.304 397.672,476.304 397.672,504.93 446.609,504.93 446.609,490.913 447.797,490.913 447.797,421.784 
			"/>
	<path id="op-101" fill="#939598" stroke="#494949" stroke-width="0.5" stroke-miterlimit="10" d="M377.36,404.086
		c2.139-4.751,10.453-13.897,24.112-22.211c3.326-2.02,6.177-2.97,8.434-2.97c-4.87-0.119-25.062-0.832-30.645-0.95
		c-6.296-0.238-8.672,3.92-8.672,9.502c0,0,0,7.364,0,11.878s2.139,6.295,4.396,6.295c0.475,0,1.069,0,1.781,0
		C376.886,405.036,377.123,404.561,377.36,404.086z"/>
	<path id="k-101" fill="#939598" stroke="#494949" stroke-width="0.5" stroke-miterlimit="10" d="M564.913,447.678
		c1.068,1.069,1.068,2.97-0.119,4.276l-7.84,7.839c-1.188,1.188-3.088,1.307-4.275,0.238l-4.396-4.396
		c-1.068-1.068-1.068-2.969,0.238-4.275l7.839-7.84c1.188-1.188,3.089-1.307,4.276-0.237L564.913,447.678z"/>
	<path id="k-102" fill="#939598" stroke="#494949" stroke-width="0.5" stroke-miterlimit="10" d="M583.086,465.97
		c1.069,1.069,1.069,2.97-0.119,4.276l-7.839,7.839c-1.188,1.188-3.089,1.307-4.276,0.238l-4.395-4.396
		c-1.069-1.068-1.069-2.969,0.237-4.275l7.84-7.84c1.188-1.188,3.088-1.307,4.275-0.237L583.086,465.97z"/>
	<path id="k-103" fill="#939598" stroke="#494949" stroke-width="0.5" stroke-miterlimit="10" d="M601.378,483.431
		c1.069,1.068,1.069,2.969-0.119,4.275l-7.839,7.84c-1.188,1.188-3.089,1.307-4.276,0.237l-4.395-4.395
		c-1.069-1.069-1.069-2.97,0.237-4.276l7.84-7.839c1.188-1.188,3.088-1.307,4.275-0.238L601.378,483.431z"/>
	<path id="k-104" fill="#939598" stroke="#494949" stroke-width="0.5" stroke-miterlimit="10" d="M620.026,501.128
		c1.069,1.069,1.069,2.97-0.237,4.276l-7.84,7.84c-1.188,1.188-3.088,1.307-4.276,0.237l-4.395-4.395
		c-1.069-1.069-1.069-2.97,0.237-4.276l7.84-7.84c1.188-1.188,3.088-1.307,4.275-0.237L620.026,501.128z"/>
	<path id="k-105" fill="#939598" stroke="#494949" stroke-width="0.5" stroke-miterlimit="10" d="M637.843,518.47
		c1.069,1.069,1.069,2.97-0.237,4.276l-7.84,7.84c-1.188,1.188-3.088,1.307-4.275,0.237l-4.395-4.395
		c-1.069-1.069-1.069-2.97,0.237-4.276l7.839-7.84c1.188-1.188,3.089-1.307,4.276-0.237L637.843,518.47z"/>
	<path id="op-103" fill="#939598" stroke="#494949" stroke-width="0.5" stroke-miterlimit="10" d="M789.762,641.05l14.016-14.491
		l9.384,14.135l7.839-6.058l15.085,14.254c0,0,2.257,2.375,0,4.632s-16.866,17.579-16.866,17.579s-2.613,3.089-5.701,0
		c-3.089-3.088-24.707-23.755-24.707-23.755S786.079,644.851,789.762,641.05z"/>
	<path id="op-102-1" fill="#939598" stroke="#494949" stroke-width="0.5" stroke-miterlimit="10" d="M618.601,453.022
		L618.601,453.022l12.947-0.355c-9.265-8.79-19.836-19.005-19.836-19.005s-3.207-4.633-6.652-1.188
		c-3.444,3.444-9.978,9.977-9.978,9.977s-3.325,2.257,0,5.702c4.276,4.514,4.633,5.226,4.633,5.226L618.601,453.022z"/>
	<path id="op-102-2" fill="#939598" stroke="#494949" stroke-width="0.5" stroke-miterlimit="10" d="M644.494,465.257
		c-0.95-0.95-3.562-3.444-7.008-6.771l0.119,3.92l-37.297,1.069l23.875,22.449c0,0,5.107,3.563,8.671,0s11.521-11.759,11.521-11.759
		S648.058,468.82,644.494,465.257z"/>
</g>
<g id="signs">
	<rect id="information" x="528.091" y="430.692" opacity="0.8" enable-background="new    " width="17.58" height="17.579"/>
	<g id="escalator">
		<rect x="422.972" y="403.611" opacity="0.8" enable-background="new    " width="17.579" height="17.58"/>
		<rect x="788.811" y="596.508" opacity="0.8" enable-background="new    " width="17.58" height="17.579"/>
		<rect x="706.734" y="573.821" opacity="0.8" enable-background="new    " width="17.58" height="17.579"/>
		<rect x="654.354" y="494.002" opacity="0.8" enable-background="new    " width="17.579" height="17.579"/>
		<rect x="577.503" y="450.767" opacity="0.8" enable-background="new    " width="17.579" height="17.579"/>
	</g>
	<rect id="parking" x="479.511" y="621.451" opacity="0.8" enable-background="new    " width="17.579" height="17.579"/>
	<g id="lift">
		<rect x="511.462" y="504.454" opacity="0.8" enable-background="new    " width="17.579" height="17.579"/>
		<rect x="693.788" y="638.912" opacity="0.8" enable-background="new    " width="17.579" height="17.579"/>
	</g>
	<g id="entrance">
		<rect x="349.21" y="262.264" opacity="0.8" enable-background="new    " width="17.579" height="17.58"/>
		<rect x="584.273" y="269.153" opacity="0.8" enable-background="new    " width="17.579" height="17.579"/>
		<rect x="801.283" y="459.556" opacity="0.8" enable-background="new    " width="17.579" height="17.579"/>
		<rect x="482.005" y="515.382" opacity="0.8" enable-background="new    " width="17.579" height="17.579"/>
		<rect x="641.287" y="658.511" opacity="0.8" enable-background="new    " width="17.58" height="17.579"/>
		<rect x="346.835" y="510.868" opacity="0.8" enable-background="new    " width="17.579" height="17.579"/>
	</g>
	<g id="toilet">
		<rect x="369.402" y="479.867" opacity="0.8" enable-background="new    " width="17.579" height="17.579"/>
		<rect x="908.184" y="680.128" opacity="0.8" enable-background="new    " width="17.579" height="17.579"/>
	</g>
	<g id="fire-exit">
		<rect x="678.703" y="366.908" opacity="0.8" enable-background="new    " width="17.579" height="17.579"/>
		<rect x="329.137" y="491.27" opacity="0.8" enable-background="new    " width="17.579" height="17.579"/>
		<rect x="479.511" y="275.211" opacity="0.8" enable-background="new    " width="17.579" height="17.579"/>
		<rect x="331.631" y="262.264" opacity="0.8" enable-background="new    " width="17.579" height="17.58"/>
		<rect x="682.741" y="649.246" opacity="0.8" enable-background="new    " width="17.579" height="17.579"/>
		<rect x="974.344" y="635.468" opacity="0.8" enable-background="new    " width="17.579" height="17.579"/>
		<rect x="788.099" y="771.707" opacity="0.8" enable-background="new    " width="17.579" height="17.579"/>
		<rect x="810.072" y="473.928" opacity="0.8" enable-background="new    " width="17.579" height="17.579"/>
	</g>
</g>
</svg>
