<?xml version="1.0" encoding="utf-8"?>
<!-- Generator: Adobe Illustrator 19.2.0, SVG Export Plug-In . SVG Version: 6.00 Build 0)  -->
<svg version="1.1" id="Layer_1" xmlns="http://www.w3.org/2000/svg" xmlns:xlink="http://www.w3.org/1999/xlink" x="0px" y="0px"
	 viewBox="0 0 841.9 595.3" style="enable-background:new 0 0 841.9 595.3;" xml:space="preserve">
<style type="text/css">
	.st0{fill:#FFFFFF;}
	.st1{fill:#BFBFBF;stroke:#494949;stroke-width:0.66;stroke-miterlimit:10;}
	.st2{fill:#A3A3A3;stroke:#494949;stroke-width:0.5;stroke-miterlimit:10;}
	.st3{fill:#BFBFBF;stroke:#494949;stroke-width:0.5;stroke-miterlimit:10;}
	.st4{fill:#939598;stroke:#494949;stroke-width:0.5;stroke-miterlimit:10;}
	.st5{opacity:0.8;enable-background:new    ;}
</style>
<g id="background">
	<rect class="st0" width="841.9" height="595.3"/>
</g>
<g id="etc">
	<path class="st1" d="M831.8,409.3c0,0-133.5-129.2-141.4-136.9s-31.1-23.8-31.1-23.8l-1.9,1.8c0,0-1.3-1.2-3.5-3.4
		c-16.9-16.2-90.4-86.9-116.6-112c-29.6-28.5-57.3-30.7-57.3-30.7h-17.8v-3H294l-1.6,1.4v201.7l104.1-0.3l0.1,2.9l1.6,1.9h22.5
		c0,0,10.3,14.1,13.2,14.4c2.9,0.3,3.9-1.4,3.9-1.4s33.3,32.1,73.9,71.2c59.5,57.3,134.7,129.8,144.4,139.2
		c16.3,15.7,25.9,4.2,25.9,4.2S807.1,445.2,825.1,432C843.1,418.8,831.8,409.3,831.8,409.3z"/>
	<path class="st2" d="M353.2,228.8c0,0,0.2-19,0-23.7s-3.7-14-15.2-7s-18.5,14.7-20.3,18.7s-3.3,12,7.8,12S353.2,228.8,353.2,228.8z
		"/>
	<path class="st2" d="M568.2,307.8c-3.1,3.2-9.2,8.3-16.5,1.8c-7.2-6.5-17.6-18.6-4.3-19.1s17,3.5,20.5,5.2S574.3,301.6,568.2,307.8
		z"/>
	<path class="st2" d="M441.8,244.9c0.6-3.2,0.5-7,9.9-7s13.1,2.1,9.7,9.2s-8.2,7.8-10.1,9.1c-1.8,1.3-7.7,0.8-8.7-3.7
		S441.8,244.9,441.8,244.9z"/>
	
		<rect x="559" y="281.5" transform="matrix(0.6898 -0.724 0.724 0.6898 -41.4119 498.6695)" class="st3" width="4.4" height="32.2"/>
	<rect x="556.3" y="284.6" transform="matrix(0.6898 -0.724 0.724 0.6898 -44.5479 497.468)" class="st3" width="4" height="32.2"/>
	
		<rect x="585.1" y="333.6" transform="matrix(0.6899 -0.7239 0.7239 0.6899 -71.0649 533.5657)" class="st3" width="4.4" height="32.2"/>
	
		<rect x="582.4" y="336.6" transform="matrix(0.6898 -0.724 0.724 0.6898 -74.1256 532.5154)" class="st3" width="4" height="32.2"/>
	
		<rect x="504.6" y="262.5" transform="matrix(0.9996 -2.989859e-02 2.989859e-02 0.9996 -7.6757 15.6858)" class="st3" width="32.3" height="4"/>
	
		<rect x="683.3" y="390.2" transform="matrix(0.8337 -0.5523 0.5523 0.8337 -110.3539 446.1618)" class="st3" width="4.4" height="32.3"/>
	
		<rect x="680.1" y="392.4" transform="matrix(0.8337 -0.5522 0.5522 0.8337 -112.1851 444.5895)" class="st3" width="4" height="32.2"/>
	
		<rect x="333.2" y="202.2" transform="matrix(5.599912e-03 -1 1 5.599912e-03 112.0334 555.5593)" class="st3" width="4.4" height="38.4"/>
	
		<rect x="333.3" y="206.4" transform="matrix(5.599912e-03 -1 1 5.599912e-03 107.7878 559.6898)" class="st3" width="4" height="38.4"/>
	
		<rect x="559" y="281.5" transform="matrix(0.6898 -0.724 0.724 0.6898 -41.4119 498.6695)" class="st3" width="4.4" height="32.2"/>
	<rect x="556.3" y="284.6" transform="matrix(0.6898 -0.724 0.724 0.6898 -44.5479 497.468)" class="st3" width="4" height="32.2"/>
	
		<rect x="504.5" y="258.2" transform="matrix(0.9996 -2.989859e-02 2.989859e-02 0.9996 -7.5523 15.6813)" class="st3" width="32.3" height="4.4"/>
	<g id="pmt">
		<rect x="363.5" y="194.8" class="st2" width="35.2" height="24.3"/>
		<path class="st2" d="M410,198c0,3.6,0,16.8,0,19.2s0.8,3.5,3.8,3.6s29.7-1.4,44.2,7.2s19,12.9,24.2,18.1c5.2,5.2,5.5,7.1,10,2.7
			s10.4-10.2,12-12.2c1.6-2,1.9-3.3-1.2-6.2c-3.1-2.8-21.9-22.5-30-27.7c-8.1-5.2-17.8-8.3-32.8-8.5c-14.9-0.2-23.8,0.5-26.2,0.7
			S410,194.4,410,198z"/>
		<polygon class="st2" points="566,323.7 583.4,305.7 624.9,345.9 607.1,364.2 		"/>
		<path class="st2" d="M615.4,373.3c0,0,13.8-15.2,14.3-15.5s3.8-2.4,8.3,0.8c4.5,3.2,20,19.2,21.9,21.1c1.9,2,3.6,4,4.2,6.9
			s1.8,4.4,2.2,6.5c0.4,2.1-0.1,3.2-2.4,6.2c-2.3,2.9-7.4,7.9-8.7,9.2s-2.8,1.8-5.8-1.2S615.4,373.3,615.4,373.3z"/>
	</g>
	<polygon id="central-laundry" class="st1" points="574.1,486.2 559.7,471.8 553.1,478.4 547.1,472.5 553.7,465.9 541.6,453.8 
		557.9,437.5 590.2,468.7 	"/>
	<polygon id="_x3C_Path_x3E_" class="st1" points="670.3,469.8 683.2,455.8 653.7,427.5 640.5,441.2 	"/>
</g>
<g id="rooms">
	<path id="central-department-store" class="st4" d="M292,103l-7-7.5c0,0-66.7,0.2-132.6,0.3c-58.2,0.2-115.7,0.3-126,0.3
		c-22,0-17.7,11.5-17.7,11.5v178.9c0,22.2,14.6,18.7,14.6,18.7l129.1-0.4l140-0.5V102.6L292,103z"/>
	<polygon id="r107" class="st4" points="485.3,123.3 487.5,110.8 441.2,110.8 441.2,180.5 456.3,180.5 464.5,175.5 	"/>
	<rect id="r106" x="419.5" y="110.8" class="st4" width="21.7" height="69.8"/>
	<polygon id="r108" class="st4" points="509.5,120 509.4,120 502.3,130.7 480.8,183 482,190.7 493.9,202 542.6,151.9 	"/>
	<rect id="r104" x="377.5" y="123.3" class="st4" width="13.5" height="57.2"/>
	<rect id="r105" x="397.2" y="123.3" class="st4" width="22.3" height="57.2"/>
	<polygon id="r109" class="st4" points="542.6,151.9 493.9,202 509.4,216.9 558,166.8 	"/>
	<rect id="r101" x="309.2" y="110.8" class="st4" width="23.5" height="69.8"/>
	<rect id="r102" x="332.8" y="110.8" class="st4" width="22.5" height="69.8"/>
	<rect id="r103" x="355.2" y="110.8" class="st4" width="22.2" height="69.8"/>
	<polygon id="r121" class="st4" points="748.5,339.1 694.4,393.7 709.8,408.5 763.9,353.8 	"/>
	<polygon id="r119" class="st4" points="717.4,309.4 663.6,364.2 679.7,379.7 732.9,324.2 	"/>
	<polygon id="r120" class="st4" points="732.9,324.2 679.7,379.7 694.4,393.7 748.5,339.1 	"/>
	<polygon id="r122" class="st4" points="763.9,353.8 709.8,408.5 724.8,422.8 713.2,434.5 745.5,465.8 810.8,398.5 	"/>
	<polygon id="r116-1" class="st4" points="602.4,305.7 617.3,320 622.8,320.5 643,299.4 625.5,281.5 	"/>
	<polygon id="r114-116" class="st4" points="619.6,226.2 571.2,276 602.4,305.7 625.5,281.5 643,299.4 668.2,273.1 	"/>
	<polygon id="r111" class="st4" points="565.2,191.9 527.2,229.8 527.2,233.8 540.2,246.3 579.9,206.7 	"/>
	<polygon id="r113" class="st4" points="619.6,226.2 604.6,211.7 555.4,260.8 571.2,276 	"/>
	<polygon id="r112" class="st4" points="589.6,197.3 580.2,207 579.9,206.7 540.2,246.3 555.4,260.8 604.6,211.7 	"/>
	<polygon id="r110" class="st4" points="509.4,216.9 518.1,225.2 523.3,225.2 559.4,186.1 549.2,175.8 	"/>
	<polygon id="r117-1" class="st4" points="664.8,297.4 633.3,330 633.3,335.3 646.5,348 681.2,312.8 	"/>
	<polygon id="r117-118" class="st4" points="717.4,309.4 696,289 684.8,289 678.6,283.1 664.8,297.4 681.2,312.8 646.5,348 
		663.6,364.2 	"/>
	<polygon id="r123-125" class="st4" points="756.8,462.7 745,474.7 709.2,440 699.9,449.3 689.2,460 679.7,469.5 718.8,506.5 
		729.4,498.8 742.2,489.4 766.8,471.5 	"/>
	<polygon id="r126-129" class="st4" points="683,504.5 694.4,493 670.3,469.8 640.5,441.2 653.7,427.5 609.3,384.8 586.7,409.8 
		604.2,427.8 587.5,444.8 602.5,460 599,464.7 613.7,478.3 609.3,483.2 657.8,530 662.5,525.3 683.3,524.8 689.2,520.7 685.7,515.3 
		690.3,511.7 	"/>
	<polygon id="r134" class="st4" points="502.5,316.6 470.9,349.6 486.1,364.2 517.9,331.5 	"/>
	<polygon id="r137" class="st4" points="451.5,266.8 444,268.2 433.8,290.5 438,292.2 452.6,307.1 472.2,287 	"/>
	<polygon id="r135-136" class="st4" points="472.2,287 452.6,307.1 458.8,313.5 446.8,326.3 470.9,349.6 502.5,316.6 	"/>
	<polygon id="r130" class="st4" points="590.7,377.8 575.8,363.7 556.5,384.2 573.4,400.1 590.7,382.5 	"/>
	<polygon id="r133-1" class="st4" points="545.6,334.9 544.3,333.7 518,331.7 517.9,331.5 509.7,339.9 525.6,354.8 	"/>
	<polygon id="r131-133" class="st4" points="575.8,363.7 545.6,334.9 525.6,354.8 509.7,339.9 486.1,364.2 549,425 573.4,400.1 
		556.5,384.2 	"/>
	<polygon id="r142" class="st4" points="310.5,241.2 306.8,243.8 306.8,272.3 334.5,272.3 334.5,241.3 	"/>
	<polygon id="r141" class="st4" points="355.8,241 355.3,241.3 334.5,241.3 334.5,272.3 334.8,272.3 334.8,277.7 355.8,277.7 	"/>
	<polygon id="r139" class="st4" points="392.1,231.8 377,231.8 377,290 392.1,290 411.1,290 411.1,231.8 	"/>
	<polygon id="r138" class="st4" points="423.8,236 416.5,231.8 411.1,231.8 411.1,290 419.8,290 431.2,263.2 431.2,252.2 	"/>
	<polygon id="r140" class="st4" points="371.3,231.8 355.8,241 355.8,277.7 334.8,277.7 334.8,301.8 376,301.8 376,290 377,290 
		377,231.8 	"/>
	<path id="op-101" class="st4" d="M317.7,216.9c1.8-4,8.8-11.7,20.3-18.7c2.8-1.7,5.2-2.5,7.1-2.5c-4.1-0.1-21.1-0.7-25.8-0.8
		c-5.3-0.2-7.3,3.3-7.3,8c0,0,0,6.2,0,10s1.8,5.3,3.7,5.3c0.4,0,0.9,0,1.5,0C317.3,217.7,317.5,217.3,317.7,216.9z"/>
	<path id="k-101" class="st4" d="M475.6,253.6c0.9,0.9,0.9,2.5-0.1,3.6l-6.6,6.6c-1,1-2.6,1.1-3.6,0.2l-3.7-3.7
		c-0.9-0.9-0.9-2.5,0.2-3.6l6.6-6.6c1-1,2.6-1.1,3.6-0.2L475.6,253.6z"/>
	<path id="k-102" class="st4" d="M490.9,269c0.9,0.9,0.9,2.5-0.1,3.6l-6.6,6.6c-1,1-2.6,1.1-3.6,0.2l-3.7-3.7
		c-0.9-0.9-0.9-2.5,0.2-3.6l6.6-6.6c1-1,2.6-1.1,3.6-0.2L490.9,269z"/>
	<path id="k-103" class="st4" d="M506.3,283.7c0.9,0.9,0.9,2.5-0.1,3.6l-6.6,6.6c-1,1-2.6,1.1-3.6,0.2l-3.7-3.7
		c-0.9-0.9-0.9-2.5,0.2-3.6l6.6-6.6c1-1,2.6-1.1,3.6-0.2L506.3,283.7z"/>
	<path id="k-104" class="st4" d="M522,298.6c0.9,0.9,0.9,2.5-0.2,3.6l-6.6,6.6c-1,1-2.6,1.1-3.6,0.2l-3.7-3.7
		c-0.9-0.9-0.9-2.5,0.2-3.6l6.6-6.6c1-1,2.6-1.1,3.6-0.2L522,298.6z"/>
	<path id="k-105" class="st4" d="M537,313.2c0.9,0.9,0.9,2.5-0.2,3.6l-6.6,6.6c-1,1-2.6,1.1-3.6,0.2l-3.7-3.7
		c-0.9-0.9-0.9-2.5,0.2-3.6l6.6-6.6c1-1,2.6-1.1,3.6-0.2L537,313.2z"/>
	<path id="op-103" class="st4" d="M664.9,416.4l11.8-12.2l7.9,11.9l6.6-5.1l12.7,12c0,0,1.9,2,0,3.9s-14.2,14.8-14.2,14.8
		s-2.2,2.6-4.8,0c-2.6-2.6-20.8-20-20.8-20S661.8,419.6,664.9,416.4z"/>
	<path id="op-102-1" class="st4" d="M520.8,258.1L520.8,258.1l10.9-0.3c-7.8-7.4-16.7-16-16.7-16s-2.7-3.9-5.6-1
		c-2.9,2.9-8.4,8.4-8.4,8.4s-2.8,1.9,0,4.8c3.6,3.8,3.9,4.4,3.9,4.4L520.8,258.1z"/>
	<path id="op-102-2" class="st4" d="M542.6,268.4c-0.8-0.8-3-2.9-5.9-5.7l0.1,3.3l-31.4,0.9l20.1,18.9c0,0,4.3,3,7.3,0
		s9.7-9.9,9.7-9.9S545.6,271.4,542.6,268.4z"/>
</g>
<g id="signs">
	<rect id="information" x="444.6" y="239.3" class="st5" width="14.8" height="14.8"/>
	<g id="escalator">
		<rect x="356.1" y="216.5" class="st5" width="14.8" height="14.8"/>
		<rect x="664.1" y="378.9" class="st5" width="14.8" height="14.8"/>
		<rect x="595" y="359.8" class="st5" width="14.8" height="14.8"/>
		<rect x="550.9" y="292.6" class="st5" width="14.8" height="14.8"/>
		<rect x="486.2" y="256.2" class="st5" width="14.8" height="14.8"/>
	</g>
	<rect id="parking" x="403.7" y="399.9" class="st5" width="14.8" height="14.8"/>
	<g id="lift">
		<rect x="430.6" y="301.4" class="st5" width="14.8" height="14.8"/>
		<rect x="584.1" y="414.6" class="st5" width="14.8" height="14.8"/>
	</g>
	<g id="entrance">
		<rect x="294" y="97.5" class="st5" width="14.8" height="14.8"/>
		<rect x="491.9" y="103.3" class="st5" width="14.8" height="14.8"/>
		<rect x="674.6" y="263.6" class="st5" width="14.8" height="14.8"/>
		<rect x="405.8" y="310.6" class="st5" width="14.8" height="14.8"/>
		<rect x="539.9" y="431.1" class="st5" width="14.8" height="14.8"/>
		<rect x="292" y="306.8" class="st5" width="14.8" height="14.8"/>
	</g>
	<g id="toilet">
		<rect x="311" y="280.7" class="st5" width="14.8" height="14.8"/>
		<rect x="764.6" y="449.3" class="st5" width="14.8" height="14.8"/>
	</g>
	<g id="fire-exit">
		<rect x="571.4" y="185.6" class="st5" width="14.8" height="14.8"/>
		<rect x="277.1" y="290.3" class="st5" width="14.8" height="14.8"/>
		<rect x="403.7" y="108.4" class="st5" width="14.8" height="14.8"/>
		<rect x="279.2" y="97.5" class="st5" width="14.8" height="14.8"/>
		<rect x="574.8" y="423.3" class="st5" width="14.8" height="14.8"/>
		<rect x="820.3" y="411.7" class="st5" width="14.8" height="14.8"/>
		<rect x="663.5" y="526.4" class="st5" width="14.8" height="14.8"/>
		<rect x="682" y="275.7" class="st5" width="14.8" height="14.8"/>
	</g>
</g>
</svg>
