<?xml version="1.0" encoding="utf-8"?>
<!-- Generator: Adobe Illustrator 16.0.0, SVG Export Plug-In . SVG Version: 6.00 Build 0)  -->
<!DOCTYPE svg PUBLIC "-//W3C//DTD SVG 1.1//EN" "http://www.w3.org/Graphics/SVG/1.1/DTD/svg11.dtd">
<svg version="1.1" id="Layer_1" xmlns="http://www.w3.org/2000/svg" xmlns:xlink="http://www.w3.org/1999/xlink" x="0px" y="0px"
	 width="841.89px" height="595.281px" viewBox="0 0 841.89 595.281" enable-background="new 0 0 841.89 595.281"
	 xml:space="preserve">
<g id="background">
	<rect y="0" fill="#FFFFFF" width="841.89" height="595.281"/>
</g>
<g id="etc">
	<path fill="#D3D3D3" stroke="#494949" stroke-width="0.66" stroke-miterlimit="10" d="M831.75,409.252
		c0,0-133.48-129.23-141.416-136.918c-7.936-7.687-31.084-23.834-31.084-23.834l-1.916,1.75c0,0-1.258-1.209-3.502-3.367v-0.001
		c-16.895-16.231-90.406-86.874-116.563-112.008C507.636,106.399,480,104.125,480,104.125h-17.813v-2.958H294.05L292,103
		l-0.555-0.595v201.946l105.055-0.351l0.063,2.875l1.625,1.911h22.471c0,0,10.292,14.104,13.217,14.4
		c2.932,0.295,3.875-1.438,3.875-1.438s33.285,32.074,73.924,71.235l-0.002,0.002c59.486,57.327,134.73,129.841,144.41,139.181
		c16.291,15.724,25.877,4.242,25.877,4.242s125.123-91.188,143.123-104.407C843.083,418.777,831.75,409.252,831.75,409.252z"/>
	<polygon fill="#BEBEBE" stroke="#494949" stroke-width="0.5" stroke-miterlimit="10" points="494.562,257.438 526.625,287.25 
		542.167,271.25 512.062,239.716 	"/>
	<path fill="#BEBEBE" stroke="#494949" stroke-width="0.5" stroke-miterlimit="10" d="M477.562,241l17.811-18.813
		c0,0-21.955-24.045-34.371-26.491c-12.418-2.446-38.092-2.946-38.092-2.946v27c0,0,17.967,1.25,28.111,5.083
		C461.167,228.666,476.208,239.5,477.562,241z"/>
	<path fill="#BEBEBE" stroke="#494949" stroke-width="0.5" stroke-miterlimit="10" d="M400.833,192.514v27.281
		c0,0-59.458,2.454-71.333,1.079s-24.5-3-24.375-12.5s14.625-13.375,21.938-14.75S389.167,192.277,400.833,192.514z"/>
	<path fill="#BEBEBE" stroke="#494949" stroke-width="0.5" stroke-miterlimit="10" d="M541.333,302.667l16.619-17.083
		c0,0,25.131,17.583,36.049,28.083c10.916,10.5,34.574,36.117,24.666,45.584c-9.908,9.468-32.379-6.693-45.34-20.279
		C560.367,325.386,541.333,302.667,541.333,302.667z"/>
	<path fill="#BEBEBE" stroke="#494949" stroke-width="0.5" stroke-miterlimit="10" d="M667.437,403.438
		c-1.291,3.354-4.938,8.375,1.75,16.063c6.689,7.688,12.314,10.938,19.064,8.813s7.438-20.749,6.188-25.749
		s-5.688-15.813-15.813-12.063S667.437,403.438,667.437,403.438z"/>
	<g>
		
			<rect x="665.569" y="405.621" transform="matrix(-0.6673 -0.7448 0.7448 -0.6673 836.5129 1189.2823)" fill="#BEBEBE" stroke="#494949" stroke-width="0.5" stroke-miterlimit="10" width="36.621" height="4.376"/>
		
			<rect x="662.419" y="408.598" transform="matrix(0.6673 0.7448 -0.7448 0.6673 532.295 -370.3937)" fill="#BEBEBE" stroke="#494949" stroke-width="0.5" stroke-miterlimit="10" width="36.616" height="3.999"/>
	</g>
	<g>
		
			<rect x="658.383" y="413.07" transform="matrix(-0.6673 -0.7448 0.7448 -0.6673 818.9844 1196.351)" fill="#BEBEBE" stroke="#494949" stroke-width="0.5" stroke-miterlimit="10" width="36.621" height="4.376"/>
		
			<rect x="655.235" y="416.046" transform="matrix(0.6673 0.7448 -0.7448 0.6673 535.4517 -362.5657)" fill="#BEBEBE" stroke="#494949" stroke-width="0.5" stroke-miterlimit="10" width="36.616" height="3.999"/>
	</g>
	<g>
		
			<rect x="555.028" y="310.251" transform="matrix(0.6991 -0.715 0.715 0.6991 -50.8885 503.9495)" fill="#BEBEBE" stroke="#494949" stroke-width="0.5" stroke-miterlimit="10" width="36.617" height="4.376"/>
		
			<rect x="552.054" y="307.508" transform="matrix(-0.6991 0.7151 -0.7151 -0.6991 1190.4042 118.0278)" fill="#BEBEBE" stroke="#494949" stroke-width="0.5" stroke-miterlimit="10" width="36.623" height="4.001"/>
	</g>
	<g>
		
			<rect x="495.657" y="246.77" transform="matrix(-0.9998 -0.021 0.021 -0.9998 1022.5852 508.6598)" fill="#BEBEBE" stroke="#494949" stroke-width="0.5" stroke-miterlimit="10" width="36.617" height="4.374"/>
		
			<rect x="495.541" y="251.153" transform="matrix(0.9998 0.0209 -0.0209 0.9998 5.3984 -10.6751)" fill="#BEBEBE" stroke="#494949" stroke-width="0.5" stroke-miterlimit="10" width="36.617" height="4.001"/>
	</g>
	<g>
		
			<rect x="353.567" y="202.774" transform="matrix(0.0071 1 -1 0.0071 572.5951 -166.7551)" fill="#BEBEBE" stroke="#494949" stroke-width="0.5" stroke-miterlimit="10" width="33.404" height="4.375"/>
		
			<rect x="357.726" y="202.938" transform="matrix(-0.0071 -1 1 -0.0071 172.1546 580.8124)" fill="#BEBEBE" stroke="#494949" stroke-width="0.5" stroke-miterlimit="10" width="33.404" height="4"/>
	</g>
	
		<rect id="Path" x="333.188" y="102.083" fill="#D3D3D3" stroke="#494949" stroke-width="0.66" stroke-miterlimit="10" width="21.313" height="69.833"/>
	<polygon id="Path_2_" fill="#D3D3D3" stroke="#494949" stroke-width="0.5" stroke-miterlimit="10" points="418.875,266.375 
		418.875,275.063 418.875,289.125 421.385,289.125 427.185,275.063 430.769,266.375 	"/>
	<polygon id="Path_3_" fill="#D3D3D3" stroke="#494949" stroke-width="0.5" stroke-miterlimit="10" points="437.093,279.157 
		443.021,284.753 449.091,278.562 440.617,270.366 	"/>
	<path id="Path_1_" fill="#BEBEBE" stroke="#494949" stroke-width="0.5" stroke-miterlimit="10" d="M451.021,224.833
		c-10.146-3.833-28.113-5.083-28.113-5.083s0.676,4.583,5.926,6s14.832,1.917,18.166,3.417s8.535,4.333,12.977,0
		C456.878,227.426,453.771,225.872,451.021,224.833z"/>
	<g>
		
			<rect x="605.192" y="340.943" transform="matrix(-0.4398 -0.8981 0.8981 -0.4398 589.5577 1054.0044)" fill="#BEBEBE" stroke="#494949" stroke-width="0.5" stroke-miterlimit="10" width="36.619" height="4.375"/>
		
			<rect x="601.504" y="342.973" transform="matrix(0.4398 0.8981 -0.8981 0.4398 657.0496 -363.3963)" fill="#BEBEBE" stroke="#494949" stroke-width="0.5" stroke-miterlimit="10" width="36.617" height="3.999"/>
	</g>
</g>
<g id="rooms">
	
		<rect id="jb-26" x="304.438" y="186.438" fill="#939598" stroke="#494949" stroke-width="0.5" stroke-miterlimit="10" width="8.313" height="8.25"/>
	
		<rect id="jb-2" x="304.438" y="221.965" fill="#939598" stroke="#494949" stroke-width="0.5" stroke-miterlimit="10" width="8.313" height="5.348"/>
	<path id="jb-25" fill="#939598" stroke="#494949" stroke-width="0.5" stroke-miterlimit="10" d="M320,186.438h-7.25v11.86
		c2.27-1.234,4.803-2.2,7.25-2.951V186.438z"/>
	<path id="jb-24" fill="#939598" stroke="#494949" stroke-width="0.5" stroke-miterlimit="10" d="M329.25,193.358v-6.921H322v8.335
		c1.858-0.498,3.604-0.873,5.063-1.147C327.57,193.529,328.314,193.441,329.25,193.358z"/>
	<path id="jb-23" fill="#939598" stroke="#494949" stroke-width="0.5" stroke-miterlimit="10" d="M337.125,192.933v-6.496h-7.875
		v6.921C331.145,193.192,333.853,193.051,337.125,192.933z"/>
	<path id="jb-22" fill="#939598" stroke="#494949" stroke-width="0.5" stroke-miterlimit="10" d="M346.188,186.438h-7.25v6.434
		c2.228-0.069,4.665-0.132,7.25-0.185V186.438z"/>
	<path id="jb-21" fill="#939598" stroke="#494949" stroke-width="0.5" stroke-miterlimit="10" d="M354.063,192.555v-6.117h-7.875
		v6.249C348.695,192.635,351.34,192.591,354.063,192.555z"/>
	<path id="jb-20" fill="#939598" stroke="#494949" stroke-width="0.5" stroke-miterlimit="10" d="M363.313,186.438h-7.875v6.099
		c2.585-0.032,5.226-0.059,7.875-0.08V186.438z"/>
	<path id="jb-19" fill="#939598" stroke="#494949" stroke-width="0.5" stroke-miterlimit="10" d="M386.25,192.396v-5.959h-7.875
		v5.954C381.133,192.388,383.779,192.39,386.25,192.396z"/>
	<path id="jb-18" fill="#939598" stroke="#494949" stroke-width="0.5" stroke-miterlimit="10" d="M394.125,192.434v-5.996h-7.875
		v5.959C389.159,192.403,391.819,192.417,394.125,192.434z"/>
	
		<rect id="jb-15" x="400.833" y="194.375" fill="#939598" stroke="#494949" stroke-width="0.5" stroke-miterlimit="10" width="7.667" height="7.875"/>
	
		<rect id="jb-14" x="400.833" y="203.188" fill="#939598" stroke="#494949" stroke-width="0.5" stroke-miterlimit="10" width="7.667" height="7.875"/>
	<polygon id="jb-13" fill="#939598" stroke="#494949" stroke-width="0.5" stroke-miterlimit="10" points="400.833,213.938 
		400.833,218.938 408.5,218.938 408.5,211.063 400.833,211.063 	"/>
	<path id="jb-11" fill="#939598" stroke="#494949" stroke-width="0.5" stroke-miterlimit="10" d="M392.958,227.313h7.875v-7.518
		c0,0-3.041,0.125-7.875,0.305V227.313z"/>
	<path id="jb-10_1_" fill="#939598" stroke="#494949" stroke-width="0.5" stroke-miterlimit="10" d="M383.458,227.313h7.875v-7.154
		c-2.328,0.084-4.992,0.178-7.875,0.273V227.313z"/>
	<path id="jb-9" fill="#939598" stroke="#494949" stroke-width="0.5" stroke-miterlimit="10" d="M375.583,220.681v6.631h7.875v-6.88
		C380.974,220.515,378.328,220.599,375.583,220.681z"/>
	<path id="jb-8" fill="#939598" stroke="#494949" stroke-width="0.5" stroke-miterlimit="10" d="M366.32,227.313h7.875v-6.59
		c-2.572,0.074-5.218,0.147-7.875,0.215V227.313z"/>
	<path id="jb-7" fill="#939598" stroke="#494949" stroke-width="0.5" stroke-miterlimit="10" d="M345.757,227.313h7.875v-6.112
		c-2.73,0.042-5.38,0.072-7.875,0.085V227.313z"/>
	<path id="jb-6" fill="#939598" stroke="#494949" stroke-width="0.5" stroke-miterlimit="10" d="M337.882,221.259v6.055h7.875
		v-6.027C342.896,221.301,340.239,221.294,337.882,221.259z"/>
	<path id="jb-5" fill="#939598" stroke="#494949" stroke-width="0.5" stroke-miterlimit="10" d="M328.75,220.788v6.525h7.875v-6.076
		c-3.061-0.063-5.527-0.177-7.125-0.362C329.25,220.846,329,220.817,328.75,220.788z"/>
	<path id="jb-4" fill="#939598" stroke="#494949" stroke-width="0.5" stroke-miterlimit="10" d="M320.875,219.713v7.601h7.875
		v-6.525C326.098,220.478,323.424,220.147,320.875,219.713z"/>
	<path id="jb-3" fill="#939598" stroke="#494949" stroke-width="0.5" stroke-miterlimit="10" d="M312.75,227.313h7.875v-7.643
		c-2.863-0.498-5.559-1.133-7.875-2.023V227.313z"/>
	<path id="jb-1" fill="#939598" stroke="#494949" stroke-width="0.5" stroke-miterlimit="10" d="M306.809,213.653h-2.363v7.875
		h8.108v-3.96C310.118,216.605,308.118,215.349,306.809,213.653z"/>
	<path id="jb-27" fill="#939598" stroke="#494949" stroke-width="0.5" stroke-miterlimit="10" d="M312.555,198.402v-3.715h-8.108
		v7.875h2.885C308.659,200.924,310.487,199.548,312.555,198.402z"/>
	
		<rect id="jb-17" x="395.125" y="186.438" fill="#939598" stroke="#494949" stroke-width="0.5" stroke-miterlimit="10" width="6.313" height="5.887"/>
	
		<rect id="jb-16" x="401.438" y="186.438" fill="#939598" stroke="#494949" stroke-width="0.5" stroke-miterlimit="10" width="7" height="5.887"/>
	
		<rect id="jb-12" x="400.833" y="220.159" fill="#939598" stroke="#494949" stroke-width="0.5" stroke-miterlimit="10" width="7.667" height="7.154"/>
	<path id="op-305" fill="#939598" stroke="#494949" stroke-width="0.5" stroke-miterlimit="10" d="M571.4,295.328
		c0.799-0.835,1.621-1.662,2.35-2.328c2.459-2.247,2.334-4.667,0.584-6.5s-6.334-6.25-10-9.75c-3.668-3.5-9.418-1.583-11.584,0.333
		s-13.25,13-15.416,15.5c-2.168,2.5-1.75,4.167-0.5,5.668c1.25,1.5,4.5,4.418,4.5,4.418l16.619-17.084
		C557.953,285.583,563.974,289.797,571.4,295.328z"/>
	<path id="op-304" fill="#939598" stroke="#494949" stroke-width="0.5" stroke-miterlimit="10" d="M494.562,257.438l17.5-17.722
		l8.906,9.329c2.193-1.676,3.996-3.073,4.531-3.545c1.664-1.465,2-3.583,0.75-5.083s-9-9.833-11.75-12.25s-4-2-5.5-0.417
		s-17.166,18.333-19.082,20.25s-1.441,3.69,0,5.132c1.441,1.442,7.137,6.622,7.137,6.622l0,0L494.562,257.438z"/>
	<path id="op-303-1" fill="#939598" stroke="#494949" stroke-width="0.5" stroke-miterlimit="10" d="M427.433,192.877
		c5.365,0.18,14.619,0.578,22.9,1.378V183.25c0,0-17.166-0.917-20-0.75s-3,1.417-2.916,3.333
		C427.476,187.173,427.453,190.807,427.433,192.877z"/>
	<path id="op-303-2" fill="#939598" stroke="#494949" stroke-width="0.5" stroke-miterlimit="10" d="M496.5,209.667
		c-1.082-1.5-17-15.417-19.582-17.342c-2.584-1.925-15.584-6.907-15.584-6.907l-3.055,9.807c0.959,0.148,1.873,0.307,2.721,0.474
		c9.201,1.813,23.629,15.476,30.492,22.438c1.514-1.688,3.367-3.703,4.117-4.301C496.966,212.75,497.583,211.167,496.5,209.667z"/>
	<polygon id="r330-331" fill="#939598" stroke="#494949" stroke-width="0.5" stroke-miterlimit="10" points="624.958,406.958 
		606.333,389.083 602.416,389.083 584.75,407.252 604.419,427.496 604.75,427.833 587.791,444.792 602.478,459.481 639.441,420.854 
			"/>
	<polygon id="r329" fill="#939598" stroke="#494949" stroke-width="0.5" stroke-miterlimit="10" points="613.828,478.079 
		654.585,435.387 639.441,420.854 602.478,459.481 602.791,459.792 599.166,463.417 	"/>
	<polygon id="r328" fill="#939598" stroke="#494949" stroke-width="0.5" stroke-miterlimit="10" points="654.585,435.387 
		613.828,478.079 614.125,478.377 608,484.502 623.548,499.577 670.105,450.281 	"/>
	<polygon id="r327" fill="#939598" stroke="#494949" stroke-width="0.5" stroke-miterlimit="10" points="675.667,465.502 
		673.546,453.583 670.105,450.281 623.548,499.577 638.167,513.751 648.5,503.252 643.667,498.502 	"/>
	
		<rect id="r302" x="311.5" y="102.083" fill="#939598" stroke="#494949" stroke-width="0.5" stroke-miterlimit="10" width="21.688" height="69.833"/>
	<polygon id="r301" fill="#939598" stroke="#494949" stroke-width="0.5" stroke-miterlimit="10" points="294.333,102.083 
		291.583,104.25 291.583,171.917 311.5,171.917 311.5,102.083 	"/>
	<polygon id="r305" fill="#939598" stroke="#494949" stroke-width="0.5" stroke-miterlimit="10" points="376,122.25 376,171.917 
		387.333,171.917 390.188,168.833 390.188,122.25 	"/>
	<polygon id="r304" fill="#939598" stroke="#494949" stroke-width="0.5" stroke-miterlimit="10" points="376,102.083 354.5,102.083 
		354.5,171.917 376,171.917 376,122.25 	"/>
	<polygon id="r307-2" fill="#939598" stroke="#494949" stroke-width="0.5" stroke-miterlimit="10" points="451.113,124.916 
		451.113,171.852 461,171.917 461.083,171.949 461.083,124.916 	"/>
	<polygon id="r307-1" fill="#939598" stroke="#494949" stroke-width="0.5" stroke-miterlimit="10" points="440.25,124.916 
		440.25,171.78 451.113,171.852 451.113,124.916 	"/>
	<polygon id="r307" fill="#939598" stroke="#494949" stroke-width="0.5" stroke-miterlimit="10" points="424.5,124.916 424.5,128 
		418.833,128 418.833,171.639 440.25,171.78 440.25,124.916 	"/>
	<polygon id="r306" fill="#939598" stroke="#494949" stroke-width="0.5" stroke-miterlimit="10" points="396.833,128 
		396.833,168.75 397.583,171.5 418.833,171.639 418.833,128 	"/>
	<polygon id="r308-1-309" fill="#939598" stroke="#494949" stroke-width="0.5" stroke-miterlimit="10" points="532.167,131.25 
		530.333,132.916 517.25,120.417 514.57,118.597 503.417,129.75 476.123,177.8 483.833,180.801 483.917,180.833 489.722,186.526 
		538.708,137.541 	"/>
	<polygon id="r309-1" fill="#939598" stroke="#494949" stroke-width="0.5" stroke-miterlimit="10" points="547.482,145.981 
		538.708,137.541 489.722,186.526 499.052,195.677 	"/>
	<polygon id="r308" fill="#939598" stroke="#494949" stroke-width="0.5" stroke-miterlimit="10" points="514.57,118.597 
		510.5,115.833 487.417,106.416 479.833,105.166 462,105.166 462,124.916 461.083,124.916 461.083,171.949 476.123,177.8 
		503.417,129.75 	"/>
	<polygon id="r310" fill="#939598" stroke="#494949" stroke-width="0.5" stroke-miterlimit="10" points="562.833,160.75 
		547.482,145.981 499.052,195.677 514.488,210.814 549.333,174.75 	"/>
	<polygon id="r311" fill="#939598" stroke="#494949" stroke-width="0.5" stroke-miterlimit="10" points="514.488,210.814 
		522.833,219 527.005,219 560,185.417 549.333,174.75 	"/>
	<polygon id="r315" fill="#939598" stroke="#494949" stroke-width="0.5" stroke-miterlimit="10" points="624.759,220.441 
		575.693,270.706 591.113,285.611 640.042,235.019 	"/>
	<polygon id="r313-1-314" fill="#939598" stroke="#494949" stroke-width="0.5" stroke-miterlimit="10" points="601.437,198.196 
		552.679,248.461 575.693,270.706 624.759,220.441 	"/>
	<polygon id="r312-313" fill="#939598" stroke="#494949" stroke-width="0.5" stroke-miterlimit="10" points="594.417,191.5 
		580.417,205.834 563.554,189.584 529.917,223.334 529.917,226.458 552.679,248.461 601.437,198.196 	"/>
	<polygon id="r318" fill="#939598" stroke="#494949" stroke-width="0.5" stroke-miterlimit="10" points="671.263,264.797 
		622.062,315.527 636,329.001 639.833,329.001 686.416,279.25 	"/>
	<polygon id="r316" fill="#939598" stroke="#494949" stroke-width="0.5" stroke-miterlimit="10" points="640.042,235.019 
		591.113,285.611 606.496,300.48 655.732,249.984 	"/>
	<polygon id="r317" fill="#939598" stroke="#494949" stroke-width="0.5" stroke-miterlimit="10" points="655.732,249.984 
		606.496,300.48 622.062,315.527 671.263,264.797 	"/>
	<polygon id="r319" fill="#939598" stroke="#494949" stroke-width="0.5" stroke-miterlimit="10" points="682.5,292.834 
		644.25,332.252 644.25,336.502 653.066,345.018 693.5,303.333 	"/>
	<polygon id="r325" fill="#939598" stroke="#494949" stroke-width="0.5" stroke-miterlimit="10" points="790.789,372.43 
		778.437,385.313 770.5,377.813 730.5,419.501 727.583,417.002 719.916,424.583 719.916,428.917 752,459.833 814,394.833 	"/>
	<polygon id="r323" fill="#939598" stroke="#494949" stroke-width="0.5" stroke-miterlimit="10" points="752.347,335.324 
		699.019,389.408 714.873,404.723 767.759,350.201 	"/>
	<polygon id="r324" fill="#939598" stroke="#494949" stroke-width="0.5" stroke-miterlimit="10" points="770.5,377.813 
		778.437,385.313 790.789,372.43 767.759,350.201 714.873,404.723 727.583,417.002 730.5,419.501 	"/>
	<polygon id="r320-322" fill="#939598" stroke="#494949" stroke-width="0.5" stroke-miterlimit="10" points="736.734,320.256 
		721.226,305.285 706.083,290.668 693.5,303.333 653.066,345.018 668.509,359.936 684.087,374.984 699.019,389.408 752.347,335.324 
			"/>
	<polygon id="r345-1" fill="#939598" stroke="#494949" stroke-width="0.5" stroke-miterlimit="10" points="333.125,237.833 
		333.125,288.917 333.833,288.917 333.833,303.501 343.75,303.501 343.75,237.833 	"/>
	<polygon id="r346-1" fill="#939598" stroke="#494949" stroke-width="0.5" stroke-miterlimit="10" points="308.5,237.833 
		305.833,240.75 305.833,290.5 310.917,290.5 310.917,288.917 319.563,288.917 319.563,237.833 	"/>
	
		<rect id="r346" x="319.563" y="237.833" fill="#939598" stroke="#494949" stroke-width="0.5" stroke-miterlimit="10" width="13.563" height="51.083"/>
	
		<rect id="r344-1" x="354.583" y="237.833" fill="#939598" stroke="#494949" stroke-width="0.5" stroke-miterlimit="10" width="10.583" height="65.668"/>
	
		<rect id="r345" x="343.75" y="237.833" fill="#939598" stroke="#494949" stroke-width="0.5" stroke-miterlimit="10" width="10.833" height="65.668"/>
	
		<rect id="r344" x="365.167" y="237.833" fill="#939598" stroke="#494949" stroke-width="0.5" stroke-miterlimit="10" width="10.667" height="65.668"/>
	
		<rect id="r343-1" x="375.833" y="237.833" fill="#939598" stroke="#494949" stroke-width="0.5" stroke-miterlimit="10" width="10.75" height="65.668"/>
	<polygon id="r343" fill="#939598" stroke="#494949" stroke-width="0.5" stroke-miterlimit="10" points="386.583,237.833 
		386.583,303.501 396.75,303.501 396.75,302.583 396.75,289.125 397.625,289.125 397.625,237.833 	"/>
	<polygon id="r341-4" fill="#939598" stroke="#494949" stroke-width="0.5" stroke-miterlimit="10" points="418.875,266.375 
		430.769,266.375 434.3,257.813 418.875,257.813 	"/>
	<polygon id="r341-3" fill="#939598" stroke="#494949" stroke-width="0.5" stroke-miterlimit="10" points="418.875,249.125 
		418.875,257.813 434.3,257.813 437.884,249.125 	"/>
	<polygon id="r341-2-342" fill="#939598" stroke="#494949" stroke-width="0.5" stroke-miterlimit="10" points="429.501,249.125 
		429.501,237.833 418.875,237.833 397.625,237.833 397.625,289.125 396.75,289.125 396.75,302.583 415.833,302.583 421.385,289.125 
		418.875,289.125 418.875,249.125 	"/>
	<polygon id="r341-1" fill="#939598" stroke="#494949" stroke-width="0.5" stroke-miterlimit="10" points="441.441,240.5 
		439.583,237.833 429.501,237.833 429.501,249.125 437.884,249.125 	"/>
	<polygon id="r338" fill="#939598" stroke="#494949" stroke-width="0.5" stroke-miterlimit="10" points="486.017,271.228 
		452.466,306.236 458.916,312.626 445.916,325.751 445.916,328.667 453.269,335.666 501.222,286.086 	"/>
	<polygon id="r337-1" fill="#939598" stroke="#494949" stroke-width="0.5" stroke-miterlimit="10" points="501.222,286.086 
		453.269,335.666 460.855,342.889 508.636,293.332 	"/>
	<polygon id="r337" fill="#939598" stroke="#494949" stroke-width="0.5" stroke-miterlimit="10" points="508.636,293.332 
		460.855,342.889 468.923,350.568 516.58,301.094 	"/>
	<polygon id="r339" fill="#939598" stroke="#494949" stroke-width="0.5" stroke-miterlimit="10" points="470.828,256.386 
		436.906,290.992 437.166,291.083 452.466,306.236 486.017,271.228 	"/>
	<polygon id="r334-1" fill="#939598" stroke="#494949" stroke-width="0.5" stroke-miterlimit="10" points="547.396,331.208 
		500.263,380.4 507.052,386.864 555.14,338.775 	"/>
	<polygon id="r334" fill="#939598" stroke="#494949" stroke-width="0.5" stroke-miterlimit="10" points="562.703,346.166 
		555.14,338.775 507.052,386.864 515.726,395.121 	"/>
	<polygon id="r333" fill="#939598" stroke="#494949" stroke-width="0.5" stroke-miterlimit="10" points="570.537,353.82 
		523.335,402.367 531.171,409.824 578.05,361.164 	"/>
	<polygon id="r336" fill="#939598" stroke="#494949" stroke-width="0.5" stroke-miterlimit="10" points="516.58,301.094 
		468.923,350.568 484.333,365.238 532.173,316.333 	"/>
	<polygon id="r332" fill="#939598" stroke="#494949" stroke-width="0.5" stroke-miterlimit="10" points="578.05,361.164 
		531.171,409.824 548.777,426.583 593.917,380.417 593.917,376.667 	"/>
	<polygon id="r333-1" fill="#939598" stroke="#494949" stroke-width="0.5" stroke-miterlimit="10" points="562.703,346.166 
		515.726,395.121 523.335,402.367 570.537,353.82 	"/>
	<polygon id="r335" fill="#939598" stroke="#494949" stroke-width="0.5" stroke-miterlimit="10" points="532.173,316.333 
		484.333,365.238 500.263,380.4 547.396,331.208 	"/>
	<polygon id="r340-6" fill="#939598" stroke="#494949" stroke-width="0.5" stroke-miterlimit="10" points="432.916,289.583 
		436.906,290.992 443.021,284.753 437.093,279.157 	"/>
	<polygon id="r340-3" fill="#939598" stroke="#494949" stroke-width="0.5" stroke-miterlimit="10" points="447.328,253.616 
		443.972,261.991 454.966,272.567 461.117,266.292 	"/>
	<polygon id="r340-4" fill="#939598" stroke="#494949" stroke-width="0.5" stroke-miterlimit="10" points="440.617,270.366 
		449.091,278.562 454.966,272.567 443.972,261.991 	"/>
	<polygon id="r340-1" fill="#939598" stroke="#494949" stroke-width="0.5" stroke-miterlimit="10" points="470.828,256.386 
		464.263,249.972 454.208,259.942 461.117,266.292 	"/>
	<polygon id="r340-2" fill="#939598" stroke="#494949" stroke-width="0.5" stroke-miterlimit="10" points="455.083,241 
		452.083,241.751 447.328,253.616 454.208,259.942 464.263,249.972 	"/>
	<polygon id="r326" fill="#939598" stroke="#494949" stroke-width="0.5" stroke-miterlimit="10" points="682.833,463.333 
		681.583,468.583 652.833,498.502 674.541,520.208 674.541,530.501 676.644,532.604 737.16,489.06 695.656,450.021 	"/>
	<polygon id="r325-1" fill="#939598" stroke="#494949" stroke-width="0.5" stroke-miterlimit="10" points="761.083,457.502 
		750.5,468.252 715.083,433.833 711.25,433.833 695.656,450.021 737.16,489.06 769.667,465.667 	"/>
	<path id="op-307" fill="#939598" stroke="#494949" stroke-width="0.5" stroke-miterlimit="10" d="M657.357,363.666
		c-5.262-5.125-10.58-10.27-11.67-11.104c-2.125-1.625-4-1.063-6.063,1.125c-0.949,1.006-6.111,6.396-11.41,11.928l14.096,13.564
		L657.357,363.666z"/>
	<path id="op-307-3" fill="#939598" stroke="#494949" stroke-width="0.5" stroke-miterlimit="10" d="M628.214,365.615
		c-6.229,6.502-12.65,13.197-12.65,13.197c-1,0.875-1.875,2.813,0.688,5.313c1.229,1.199,6.053,5.896,10.953,10.632l15.107-15.574
		L628.214,365.615z"/>
	<path id="op-307-1" fill="#939598" stroke="#494949" stroke-width="0.5" stroke-miterlimit="10" d="M668.509,374.501
		c-1.223-1.125-6.16-5.972-11.15-10.834l-15.047,15.516l14.49,13.94c5.807-6.022,11.631-12.088,12.447-13.061
		C670.875,378.126,671.017,376.813,668.509,374.501z"/>
	<path id="op-307-2" fill="#939598" stroke="#494949" stroke-width="0.5" stroke-miterlimit="10" d="M627.205,394.756
		c5.316,5.144,10.725,10.336,11.732,11.183c1.938,1.625,3.938,1.813,5.563,0c0.809-0.9,6.545-6.84,12.303-12.813l-14.49-13.943
		L627.205,394.756z"/>
	<path id="op-308-1" fill="#939598" stroke="#494949" stroke-width="0.5" stroke-miterlimit="10" d="M688.25,428.314
		c-6.75,2.125-12.375-1.125-19.063-8.813c-3.373-3.878-4.115-7.076-3.859-9.726c-2.18,2.276-7.584,7.918-8.578,8.912
		c-1.25,1.25-1.813,2.809-0.25,4.217c1.563,1.407,20.875,20.032,22.313,21.347c1.439,1.313,2.5,1.375,4.064-0.313
		c0.771-0.834,6.795-7.057,12.826-13.288l-4.758-4.375C690.179,427.269,689.287,427.986,688.25,428.314z"/>
	<path id="op-308-2" fill="#939598" stroke="#494949" stroke-width="0.5" stroke-miterlimit="10" d="M708.25,413.001
		c-1.322-1.273-10.766-10.394-15.307-14.777c0.705,1.594,1.193,3.137,1.494,4.342c1.059,4.23,0.727,18.224-3.492,23.712l4.758,4.375
		c6.172-6.379,12.354-12.769,12.922-13.397C709.75,416.001,710,414.688,708.25,413.001z"/>
	<path id="central-department-store" fill="#939598" stroke="#494949" stroke-width="0.5" stroke-miterlimit="10" d="M285,95.5
		c0,0-66.698,0.182-132.555,0.351c-58.169,0.149-115.682,0.29-126,0.29c-22,0-17.697,11.525-17.697,11.525V286.58
		c0,22.189,14.627,18.669,14.627,18.669l129.07-0.435v0.002l139-0.465V102.405L285,95.5z"/>
	<path id="op-306" fill="#939598" stroke="#494949" stroke-width="0.5" stroke-miterlimit="10" d="M622.062,334.766l1.883-1.25
		c0,0,0.375-1.375,2.375,0.625s7.125,6.5,7.125,6.5s1.248,1.754-1.375,4.377c-2.623,2.625-3.125,3.498-3.125,3.498L622.062,334.766z
		"/>
	<path id="cha-tra-mue" fill="#939598" stroke="#494949" stroke-width="0.5" stroke-miterlimit="10" d="M583.793,304.874
		c0,0,17.776,13.892,28.151,28.892l-1.98-4.356l7.449-3.684l4.648,9.041l2.697-1.711c0,0-13.274-17.216-34.618-34.618
		L583.793,304.874z"/>
</g>
<g id="signs">
	<rect id="lift" x="430.562" y="301.383" opacity="0.8" enable-background="new    " width="14.813" height="14.812"/>
	<g id="toilet">
		<rect x="424.056" y="108.357" opacity="0.8" enable-background="new    " width="14.813" height="14.81"/>
		<rect x="764.625" y="449.292" opacity="0.8" enable-background="new    " width="14.811" height="14.812"/>
	</g>
	<g id="escalator">
		<rect x="592.339" y="298.85" opacity="0.8" enable-background="new    " width="14.813" height="14.811"/>
		<rect x="533.242" y="244.451" opacity="0.8" enable-background="new    " width="14.811" height="14.812"/>
		<rect x="364.375" y="172.928" opacity="0.8" enable-background="new    " width="14.811" height="14.813"/>
		<rect x="656.156" y="389.083" opacity="0.8" enable-background="new    " width="14.811" height="14.813"/>
		<rect x="584.093" y="414.633" opacity="0.8" enable-background="new    " width="14.813" height="14.812"/>
	</g>
	<g id="entrance">
		<rect x="405.845" y="310.633" opacity="0.8" enable-background="new    " width="14.813" height="14.812"/>
		<rect x="539.927" y="431.133" opacity="0.8" enable-background="new    " width="14.813" height="14.812"/>
		<rect x="292.039" y="306.764" opacity="0.8" enable-background="new    " width="14.811" height="14.811"/>
	</g>
	<g id="fire-exit">
		<rect x="571.357" y="185.627" opacity="0.8" enable-background="new    " width="14.811" height="14.811"/>
		<rect x="403.71" y="108.357" opacity="0.8" enable-background="new    " width="14.813" height="14.81"/>
		<rect x="279.239" y="97.524" opacity="0.8" enable-background="new    " width="14.811" height="14.81"/>
		<rect x="574.814" y="423.265" opacity="0.8" enable-background="new    " width="14.811" height="14.813"/>
		<rect x="820.291" y="411.688" opacity="0.8" enable-background="new    " width="14.811" height="14.813"/>
		<rect x="663.453" y="526.357" opacity="0.8" enable-background="new    " width="14.811" height="14.812"/>
		<rect x="681.96" y="275.706" opacity="0.8" enable-background="new    " width="14.811" height="14.812"/>
		<rect x="277.106" y="290.344" opacity="0.8" enable-background="new    " width="14.811" height="14.811"/>
	</g>
	<rect id="parking" x="403.709" y="399.941" opacity="0.8" enable-background="new    " width="14.811" height="14.812"/>
</g>
</svg>
