<?xml version="1.0" encoding="utf-8"?>
<!-- Generator: Adobe Illustrator 19.2.0, SVG Export Plug-In . SVG Version: 6.00 Build 0)  -->
<svg version="1.1" id="Layer_1" xmlns="http://www.w3.org/2000/svg" xmlns:xlink="http://www.w3.org/1999/xlink" x="0px" y="0px"
	 viewBox="0 0 1683.8 1190.6" style="enable-background:new 0 0 1683.8 1190.6;" xml:space="preserve">
<style type="text/css">
	.st0{fill:#FFFFFF;}
	.st1{fill:#DEDEDE;stroke:#494949;stroke-width:0.5;stroke-miterlimit:10;}
	.st2{fill:#DEDEDE;stroke:#494949;stroke-width:0.5;stroke-linecap:round;stroke-linejoin:round;stroke-miterlimit:10;}
	.st3{fill:#939598;stroke:#494949;stroke-width:0.5;stroke-miterlimit:10;}
	.st4{fill:#939598;stroke:#494949;stroke-width:0.5;stroke-linejoin:round;stroke-miterlimit:10;}
	.st5{fill:#939598;stroke:#494949;stroke-width:0.5;stroke-linecap:round;stroke-linejoin:round;stroke-miterlimit:10;}
	.st6{opacity:0.8;enable-background:new    ;}
</style>
<g id="Layer_1_1_">
	<g id="Background">
		<rect x="17.7" y="5.7" class="st0" width="1683.8" height="1190.6"/>
	</g>
	<g id="Original">
	</g>
	<g id="ETC">
		<polygon class="st1" points="306,489.6 413.2,438.2 463.6,398.1 552.1,323.3 751.9,240.7 790.5,232.2 826,211.2 904.8,211.2 
			919.6,232.2 926.2,240.2 1044.1,306.9 1160.7,389.9 1438.5,554.3 1451,569.9 1340.7,966.9 1175.9,879.9 963.1,751.4 951.4,739.7 
			860.5,698.1 731.7,727.5 574.4,828.3 362.8,864.4 262.2,797.4 120.1,582.9 215.6,486 		"/>
		<path class="st1" d="M1246.2,909c5.8,5.8,6.7,14.1,2.1,18.7l-27,27c-4.6,4.6-13,3.6-18.7-2.1l-64.6-64.6
			c-5.8-5.8-6.7-14.1-2.1-18.7l27-27c4.6-4.6,13-3.6,18.7,2.1L1246.2,909z"/>
		<path class="st2" d="M1300.7,926.5l-26.3,26.3l-23.8-23c9-17-7.7-28.3-7.7-28.3l16.4-16.4l-65.5-65.5l21.1-21.1l-20.2-20.2
			l-28.6,28.4c-12.5-14.1-39.1-21.9-39.1-21.9c1.1-25.2-17.9-40.1-17.9-40.1l26-26l-33.1-33.1l-36.3,36.3
			c-24.6-39.8-65.2-62.2-65.2-62.2l31.9-31.9l16.4,16.4l-2.2,2.2l3.7,3.7l-5.4,5.4l24.1,24.1l13.5-13.5l-73.8-73.8H905.1v20.1h34.1
			v11.8h39.5v-5.1h30.6l9.2,9.5l-26.1,26.1c-52.1-26.1-111.6-11.4-111.6-11.4c-12.5-14.4-29-19.2-29-19.2v-31.8h-44.3v32
			c0,0-17.7,5.9-27.8,18.9c0,0-27-4.1-56.5-2.8v-21.3l56.7-0.6v-26.2H651.3L390.6,853l-15.8-15.8l-11,11l9.1,9.1l-20.5,20.5l2.2,2.2
			l-18.4,18.4c25.3,6.3,54.3,0.7,94.2-19.2c10.5-5.2,20-8.3,28.7-9.8l-1-6.7l-27-27.2l39.2-39.2c0,0,28,29.2,54,30.5
			s50.8-11.8,70.2-50c0,0,31.5-15.6,71.1-71.2l27.9,31.8l-4.8,5.6l7.7,8.7l5.5-5.5l7.1-6.5l-11.5-12l-1.1,1.3l-25.9-26.5
			c0,0,0,0,0,0l0,0c14.3-7.1,62.1-27.8,111.5-14c0,0,11.8,13,33.5,17.2c0,0-0.8,16.8-10.8,34h50.5c-8.9-12.2-10.5-34.2-10.5-34.2
			s11.5,1.2,33.8-16.5c0,0,69.6-15.9,111.2,14.8v0c0,0,0,0,0,0l-25,25l-1.2-1.2l-11.9,11.9l5.8,5.8l6,6l8.4-8.5l-5.5-5.5l9-9
			l-1.4-1.4l19.6-19.6c6.6,7.9,35.7,42.1,52.9,54c0,0-2.2,44.3,53,48.3c0,0,25,38.5,36.2,44c0,0-15.8,13-7.2,35.5l-14.4,12.8
			l2.3,2.3l-7.5,6.5c1.2,2.4,2.5,4.7,3.7,6.9L1134,896c0,0,48.3,50.8,62.1,64.6s33,10.5,42.2,1.3s17.3-16,17.3-16l25.1,24.4
			c6.2,0.4,12.7,1.6,20.4,2.9c28,5,39.8-6.5,39.8-6.5L1300.7,926.5z M715.4,640.9c-18,1.4-36.2,5.2-49.2,13.3l-20.1-20.5l15.9-14
			l53.3-0.5V640.9L715.4,640.9z"/>
		<ellipse class="st1" cx="830.6" cy="663.7" rx="43.9" ry="28.1"/>
		<polygon class="st1" points="553.2,537.3 563.7,526.9 563.7,510.1 570.1,510.1 594.6,485.5 614,504.9 607,511.9 607,528.2 
			601,528.2 580.8,548.4 571.3,548.4 567.8,551.8 		"/>
		<polygon class="st1" points="1057.4,528.2 1080.7,551.6 1092.5,551.6 1113.5,572.5 1130,556 1096.2,522.2 1096.2,513.1 
			1068.2,488 1047.5,509 1055.9,516.7 		"/>
		<path class="st1" d="M1125.5,824.9c-6.2-8.6-6.8-13.5,10.1-18s17.3,9.1,11,17.1S1133.2,835.7,1125.5,824.9z"/>
		<path class="st1" d="M1110,782.7c1.1-6.9-0.3-15.2-4.6-23.1c-7.9-14.8-22.7-22.3-32.9-16.8c-1.7,0.9-3.1,2.1-4.4,3.6l7.4,10.6
			l-11.7,9.2c0.7,4.4,2.2,9,4.5,13.4c7.6,14.1,21.4,21.6,31.6,17.4l-3.2-9.4L1110,782.7z"/>
		<path class="st1" d="M999.1,683.5c1.1-5.8,0.6-13.5,14.4-1.1c13.8,12.4,39.3,39.5,42.3,45.1c3,5.6,2.1,5.6-1.4,11.8
			s-3.5,13.4-15,1.8c-11.5-11.6-37.9-40.9-40.2-44.4S998.2,688.3,999.1,683.5z"/>
		
			<rect x="850.3" y="637.9" transform="matrix(0.9234 -0.3839 0.3839 0.9234 -188.6563 378.6418)" class="st1" width="7.9" height="48"/>
		
			<rect x="786" y="658.3" transform="matrix(0.3742 -0.9273 0.9273 0.3742 -107.2827 1165.5656)" class="st1" width="48" height="7.8"/>
		<path class="st1" d="M670.4,676.2c-0.1,8.5-2,15.2,15.7,7.9c20.6-8.5,60.8-11.6,70.8-9.6s12-1.4,14-9.8c2-8.4,6.6-12.7-11.1-12.9
			s-42.2-1.2-66.4,5.5S670.7,659.7,670.4,676.2z"/>
		<path class="st1" d="M578,739.7c9-14.3,44.3-47,55.5-53.5c6.3-3.6,10.6-1.2,12.4,11.2c1.8,12.3,4.3,13.8-7.9,26.7
			c-12.2,12.8-26.3,25-32.7,30.3c-6.3,5.3-9.8,3.3-20.7,0C573.9,751.1,571.2,750.6,578,739.7z"/>
		<path class="st1" d="M559.2,783.6l-6.1-15.9c-7.1-0.9-15.4,1-23,5.7c-14.3,8.9-20.7,24.4-14.3,34.8c0.8,1.2,1.7,2.3,2.7,3.3
			l11-7.7l9.5,12.5c4.7-0.8,9.6-2.6,14.2-5.5c12.4-7.7,18.9-20.5,16.1-30.5L559.2,783.6z"/>
		<path class="st1" d="M891.2,663.1c-2.2-7.1-2.7-10.3,4.7-10.8c12.8-0.9,23.7-1.3,37.2-0.5s38.2,6.6,45.8,9.5
			c7.6,2.9,6.4,4.2,6.3,13.7s2.1,13.5-10.7,8.8c-12.8-4.7-26.2-8.9-39.5-9.6c-13.2-0.7-26.9-1.2-34.7-0.5
			C892.4,674.3,891.7,664.7,891.2,663.1z"/>
		<path class="st1" d="M95.9,558.7c-41,52.3-1.3,90.4-1.3,90.4l-16.3,16.3l159.5,159.5l8.7-8.7l44.7,44.7l53.5-53.5L95.9,558.7z"/>
		
			<rect x="1050.6" y="514.2" transform="matrix(1 -4.499954e-03 4.499954e-03 1 -2.3209 4.8411)" class="st1" width="48" height="7.9"/>
		
			<rect x="1054.3" y="522.3" transform="matrix(1 -4.499954e-03 4.499954e-03 1 -2.357 4.8577)" class="st1" width="48" height="7.9"/>
		
			<rect x="1204.7" y="621.7" transform="matrix(0.704 -0.7102 0.7102 0.704 -100.8467 1049.489)" class="st1" width="7.8" height="48"/>
		
			<rect x="1197.9" y="626" transform="matrix(0.7041 -0.7101 0.7101 0.7041 -105.9375 1045.7798)" class="st1" width="7.8" height="48"/>
		
			<rect x="1193.1" y="635.5" transform="matrix(0.7041 -0.7101 0.7101 0.7041 -112.1348 1044.349)" class="st1" width="7.8" height="42.5"/>
		
			<rect x="1209.9" y="618.3" transform="matrix(0.7041 -0.7101 0.7101 0.7041 -94.9855 1051.1594)" class="st1" width="7.8" height="42.5"/>
		
			<rect x="562.1" y="512.2" transform="matrix(1 -4.499954e-03 4.499954e-03 1 -2.3165 2.6427)" class="st1" width="48" height="7.9"/>
		
			<rect x="560.8" y="520.2" transform="matrix(1 -4.599951e-03 4.599951e-03 1 -2.4049 2.6956)" class="st1" width="48" height="7.9"/>
		<polygon class="st1" points="625.9,474.7 625.9,502.4 630,502.4 639.8,512.1 679.9,512.1 661.5,493.8 680.2,475.1 		"/>
		
			<rect x="795.9" y="485.3" transform="matrix(0.9111 -0.4123 0.4123 0.9111 -137.4055 374.2431)" class="st1" width="5.5" height="40.6"/>
		
			<rect x="842.7" y="501.9" transform="matrix(0.3629 -0.9318 0.9318 0.3629 79.5414 1125.6775)" class="st1" width="40.5" height="5.5"/>
		<path class="st1" d="M843.3,457.2c-0.8-6.5-6.3-11.5-13-11.5c-6.9,0-12.5,5.3-13.1,12.1c0,0.4-0.1,0.7-0.1,1.1c0,3.1,1.1,6,3,8.3
			c0.3,0.4,0.6,0.7,0.9,1c0,0,0.1,0.1,0.1,0.1c0.3,0.3,0.6,0.5,0.9,0.8c0.1,0.1,0.2,0.2,0.3,0.2c0.3,0.2,0.5,0.4,0.8,0.5
			c0.1,0.1,0.3,0.2,0.4,0.2c0.3,0.1,0.5,0.3,0.8,0.4c0.2,0.1,0.3,0.1,0.5,0.2c0.3,0.1,0.5,0.2,0.8,0.3c0.2,0.1,0.3,0.1,0.5,0.2
			c0.3,0.1,0.6,0.2,0.8,0.2c0.2,0,0.3,0.1,0.5,0.1c0.3,0.1,0.6,0.1,0.9,0.2c0.2,0,0.3,0.1,0.4,0.1c0.5,0.1,0.9,0.1,1.4,0.1
			c0.5,0,1,0,1.5-0.1c0.1,0,0.3,0,0.4-0.1c0.3,0,0.7-0.1,1-0.2c0.2,0,0.3-0.1,0.5-0.1c0.3-0.1,0.6-0.2,1-0.3c0.1,0,0.3-0.1,0.4-0.1
			c0.3-0.1,0.7-0.3,1-0.4c0.1,0,0.2-0.1,0.3-0.1c1.7-0.9,3.2-2.2,4.4-3.7c1.7-2.2,2.7-5,2.7-8C843.4,458.2,843.4,457.7,843.3,457.2z
			"/>
		<path class="st1" d="M850.1,469.3l-3.2-5.4h-32.2l-2.8,5.4c-6.9,0.5-14.2,1.3-21.7,2.6l25,57.6h31.3l24.5-57.6
			C871,471.9,863.1,470.3,850.1,469.3z"/>
		<polygon class="st1" points="980.1,475.2 980.1,512.7 1024.4,512.7 1036.3,500.7 1036.3,475.6 		"/>
		<path class="st1" d="M1356.9,472.2l-16.2,15.2l-10-9.9c6-6.1,9.6-14.5,9.6-23.7c0-18.8-15.2-34-34-34c-9.3,0-17.6,3.7-23.8,9.7
			l-23.1-23.1c5.7-6.1,9.2-14.2,9.2-23.2c0-18.8-15.2-34-34-34c-9,0-17.2,3.5-23.3,9.2l-20.6-20.5c6.1-6.1,9.9-14.6,9.9-23.9
			c0-18.8-15.2-34-34-34c-9.4,0-17.9,3.8-24,9.9l-12.6-12.5l15.8-14.3l-57.7-55.3H571.3l-14.1,14.1c-6.1-5.6-14.1-9-23-9
			c-18.8,0-34,15.2-34,34c0,8.9,3.4,16.9,9,23l-5.5,5.5c-6-5.4-14-8.7-22.7-8.7c-18.8,0-34,15.2-34,34c0,8.7,3.3,16.7,8.7,22.7
			l-102.1,102l78.1,78.1L563.4,372l536.6,1.6l272.7,271.7l78.4-78.4L1356.9,472.2z"/>
		<polygon id="r1-shp018a" class="st1" points="1160.6,646.5 1116.4,690.7 1128.5,702.7 1172.7,658.6 		"/>
		<polygon class="st1" points="1149.2,635.1 1104.9,679.3 1116.4,690.7 1160.6,646.5 		"/>
		<path class="st1" d="M291,860.9l-6.5,6.5c16.9,15.9,33.2,26.7,51.5,31.2l18.4-18.4l-2.2-2.2l7.5-7.5l-39.2-39L291,860.9z"/>
		<polygon class="st1" points="374.5,837.4 344.5,807.4 320.5,831.5 359.6,870.5 372.6,857.5 363.5,848.4 		"/>
		<path class="st1" d="M1150.9,914.1l-24.5,24.5c3.4,4.2,6.8,8.1,10.3,11.7l24.9-24.9C1157.9,921.4,1154.2,917.6,1150.9,914.1z"/>
		<path class="st1" d="M1161.6,925.3l-24.9,24.9c4.2,4.3,8.5,8.1,12.8,11.5l24-24C1169.6,933.7,1165.6,929.4,1161.6,925.3z"/>
		<path class="st1" d="M1280.5,970.5l-25.1-24.4c0,0-8.2,6.8-17.3,16c0,0-0.1,0.1-0.1,0.1l9.7,9.7v5.1
			C1260.2,971,1269.8,969.7,1280.5,970.5z"/>
		<path class="st1" d="M1237.9,962.2c-9.1,9-27.8,12.2-41.5-0.8l-18,18c25.3,11.4,45.7,11.4,45.7,11.4c9.1-6.2,16.7-10.7,23.4-13.8
			v-5.1L1237.9,962.2z"/>
		<path class="st1" d="M1195.9,960.7c-4.6-4.6-13.1-13.4-22.3-23l-24,24c9.8,7.8,19.7,13.4,28.9,17.6l18-18
			C1196.3,961.1,1196.1,960.9,1195.9,960.7z"/>
		<path class="st1" d="M1250.4,930.1l23.8,23l26.3-26.3l-41.4-41.4l-16.4,16.4C1242.7,901.7,1259.4,913.1,1250.4,930.1z"/>
		<path class="st1" d="M524.1,826.9c-2.4-0.1-4.8-0.5-7.3-1l-12.4,51.8c16.1,10,23.4,24.5,23.4,24.5c8.1-1.2,15.6-3.1,22.5-5.4
			v-74.1C541.9,826.1,533.1,827.3,524.1,826.9z"/>
		<path class="st1" d="M614.3,795.3l-19.7-18.5c-0.1,0.1-0.2,0.1-0.2,0.1c-4.1,8-8.3,14.8-12.8,20.7l15.2,15.2L614.3,795.3z"/>
		<path class="st1" d="M1105.4,819l-49.1,49.1c8.1,10.3,16.2,17.6,23.5,22.6l45.7-45.7C1118.5,837.4,1110.7,826.6,1105.4,819z"/>
		<polygon class="st1" points="381.4,319.4 405,295.8 445.1,335.9 421.6,359.4 		"/>
		<rect x="698.5" y="476.9" class="st1" width="21.1" height="35.1"/>
		<path id="Path" class="st1" d="M661.9,619.9l-15.9,14l20.1,20.5c4.8-3,10.4-5.4,16.3-7.4v-27.3L661.9,619.9z"/>
		<polygon id="Path_1_" class="st1" points="752,402.4 752,465.1 770.2,465.1 776.5,458.8 781,458.8 781,402.4 		"/>
	</g>
	<g id="Rooms">
		<polygon id="r1-shp041b" class="st3" points="715.9,402.4 716.5,459 721.9,459 728,465.1 734.4,465.1 734.4,402.4 		"/>
		<rect id="r1-shp041a" x="734.4" y="402.4" class="st3" width="17.6" height="62.7"/>
		<rect id="r1-shp043a" x="666" y="402.4" class="st3" width="16" height="56.6"/>
		<polygon id="r1-shp042a" class="st3" points="698.5,402.4 698.5,459 716.5,459 715.9,402.4 		"/>
		<rect id="r1-shp042b" x="682" y="402.4" class="st3" width="16.5" height="56.6"/>
		<polygon id="r1-shp037b" class="st3" points="881,402.4 881,458.8 885.9,458.8 892,464.9 898.4,464.9 898.4,402.4 		"/>
		<rect id="r1-shp037a_1_" x="898.4" y="402.4" class="st3" width="15.8" height="62.5"/>
		<polygon id="r1-shp038" class="st3" points="854.2,402.4 854.2,440.4 875.2,458.8 881,458.8 881,402.4 		"/>
		<polygon id="r1-shp039" class="st3" points="805.4,402.4 781,402.4 781,458.8 786.5,458.8 805.4,440.9 		"/>
		<polygon id="r1-shp050" class="st3" points="424.5,546.3 473.1,595 497.4,570.7 449.1,522.4 		"/>
		<polygon id="r1-shp049" class="st3" points="449.1,522.4 497.4,570.7 515,553.1 515,545.6 511.3,541.8 511.3,541.8 470.8,501.4 		
			"/>
		<rect id="r1-shp043b" x="649" y="402.4" class="st3" width="17" height="56.6"/>
		<polygon id="r1-shp047a" class="st3" points="531.8,442.2 571.3,481.7 582.3,470.7 582.3,467.3 544.7,429.7 		"/>
		<polygon id="r1-shp047b-48a-48b" class="st3" points="531.8,442.2 518.5,455.1 490.6,482.2 527,518.5 534.5,518.5 558.2,494.9 
			571.3,481.7 		"/>
		<polygon id="r1-shp022-51" class="st3" points="1242.7,588.1 1266.1,611.5 1266.1,611.5 1266.1,611.5 1282.9,594.7 1188.7,500.9 
			1172.1,517.5 		"/>
		<polygon id="r1-shp028" class="st3" points="1172.1,517.5 1148.1,541.5 1148.2,541.6 1148.2,549.7 1168.2,569.7 1197.2,542.5 		
			"/>
		<polygon id="r1-shp027" class="st3" points="1197.2,542.5 1168.2,569.7 1168.3,569.8 1183.2,584.7 1191.6,584.7 1195.1,588.2 
			1219.9,565.3 		"/>
		<polygon id="r1-shp026" class="st3" points="1195.1,588.2 1195.6,588.7 1218.8,611.9 1242.7,588.1 1219.9,565.3 		"/>
		<polygon id="r1-shp036" class="st3" points="914.2,402.4 914.2,464.9 933.9,464.9 940.4,458.5 946.2,458.5 946.2,402.4 		"/>
		<polygon id="r1-shp025b" class="st3" points="1242.7,588.1 1218.8,611.9 1223.9,617.1 1223.9,624.5 1225.1,625.7 1252.7,598.1 		
			"/>
		<polygon id="r1-shp025a" class="st3" points="1225.1,625.7 1227.1,627.7 1238.5,639.1 1266.1,611.5 1252.7,598.1 		"/>
		<polygon id="r1-shp022a" class="st3" points="1317.8,629.5 1300.8,646.1 1309.6,654.9 1278.9,685.6 1307.1,713.8 1354.9,666.4 		
			"/>
		<polygon id="r1-shp022b-023" class="st3" points="1317.8,629.5 1317.4,629.1 1306.4,618.1 1289.5,634.9 1261.9,662.5 
			1273.2,673.7 1273.2,679.9 1278.9,685.6 1309.6,654.9 1300.8,646.1 		"/>
		<polygon id="r1-shp029a" class="st3" points="1171.1,483.3 1157.2,469.5 1116.1,509.5 1125.9,519.2 1134.9,519.2 		"/>
		<polygon id="r1-shp035a" class="st3" points="989.5,402.4 965.7,402.4 965.7,458.5 983.5,458.5 989.5,452.6 		"/>
		<rect id="r1-shp035b" x="946.2" y="402.4" class="st3" width="19.5" height="56.1"/>
		<polygon id="r1-shp030a" class="st3" points="1130.9,443.3 1090.5,483.8 1102.4,495.7 1142.9,455.2 		"/>
		<polygon id="r1-shp029b" class="st3" points="1142.9,455.2 1102.4,495.7 1116.1,509.5 1157.2,469.5 		"/>
		<polygon id="r1-shp030b" class="st3" points="1119.5,431.9 1079,472.4 1090.5,483.8 1130.9,443.3 		"/>
		<polygon id="r1-shp045b" class="st3" points="580.9,375 563.4,375 542.9,395.6 556.1,408.8 548.7,416.3 565.3,432.9 580.9,417.4 
					"/>
		<rect id="r1-shp045a2" x="580.9" y="375" class="st3" width="32.8" height="42.4"/>
		<rect id="r1-shp045a1" x="613.7" y="375" class="st3" width="27.2" height="42.4"/>
		<polygon id="r1-shp044" class="st3" points="586.1,428.3 573.4,441 591.4,459 640.9,459 640.9,428.3 		"/>
		<polygon id="r1-shp033a" class="st3" points="1012.5,376.6 1012.5,394.7 1002,394.7 1002,419.1 1079.9,419.1 1079.9,376.6 		"/>
		<polygon id="r1-shp033b" class="st3" points="1113,389.6 1100,376.6 1079.9,376.6 1079.9,419.1 1081.2,419.1 1100.4,438.2 
			1112.8,425.8 1094.8,407.8 		"/>
		<polygon id="r1-shp031b-2" class="st3" points="1044.5,428.6 1044.5,458.5 1054,458.5 1061.3,428.6 		"/>
		<polygon id="r1-shp031b-1" class="st3" points="1077,428.6 1061.3,428.6 1054,458.5 1064.2,458.5 		"/>
		<polygon id="r1-shp032" class="st3" points="1002,428.6 1002,451.7 1009.2,458.5 1044.5,458.5 1044.5,428.6 		"/>
		<polygon id="r1-shp031a" class="st3" points="1077.5,428.6 1077,428.6 1064.2,458.5 1065.1,458.5 1072.5,465.9 1093.7,444.7 		"/>
		<polygon id="r1-shp007a" class="st3" points="738.7,562.6 738.7,523.2 730.2,523.2 724.7,528.7 724.7,562.6 		"/>
		<polygon id="r1-shp007b" class="st3" points="738.7,523.2 738.7,562.6 738.7,586.9 752.9,586.9 752.9,523.2 		"/>
		<polygon id="r1-shp006" class="st3" points="713.4,562.6 713.4,528.7 682.4,528.7 682.4,586.9 705,586.9 705,562.6 		"/>
		<polygon id="r1-shp008b" class="st3" points="808.9,554.6 780.5,526.3 780.5,586.9 809.2,586.9 809.2,554.6 		"/>
		<polygon id="r1-shp008a-1" class="st3" points="777.4,523.2 766.7,523.2 766.7,586.9 780.5,586.9 780.5,526.3 		"/>
		<rect id="r1-shp008a-2" x="752.9" y="523.2" class="st3" width="13.8" height="63.7"/>
		<polygon id="r1-shp001a" class="st3" points="511.4,634.1 556,678.7 570.1,664.5 525.6,619.9 		"/>
		
			<rect id="r1-shp002" x="551.3" y="593.7" transform="matrix(0.7071 -0.7071 0.7071 0.7071 -270.1424 576.0543)" class="st3" width="18" height="40.8"/>
		<polygon id="r1-shp001b" class="st3" points="525.6,619.9 570.1,664.5 584,650.5 539.5,606 		"/>
		<rect id="r1-shp005b" x="666" y="528.7" class="st3" width="16.3" height="58.2"/>
		<polygon id="r1-shp004b" class="st3" points="597.5,557.4 637.2,597.1 647.4,586.9 648.4,586.9 625.8,529.1 		"/>
		<polygon id="r1-shp005a" class="st3" points="626.2,528.7 625.8,529.1 648.4,586.9 666,586.9 666,528.7 		"/>
		<polygon id="r1-shp004a" class="st3" points="586.3,568.6 586.1,568.6 625.9,608.4 637.2,597.1 597.5,557.4 		"/>
		<polygon class="st3" points="997.8,529.5 993.7,529.5 997.8,586.9 993.7,586.9 1010.9,586.9 1028.5,545.8 1035.5,529.5 		"/>
		<polygon id="r1-shp015" class="st3" points="1112.2,598.1 1104,598.1 1080.3,621.8 1089.2,630.6 1072.6,647.2 1081.9,656.5 
			1126.3,612.2 		"/>
		<polygon id="r1-shp016a-b" class="st3" points="1138.1,624 1126.3,612.2 1081.9,656.5 1092.9,667.4 1104.9,679.3 1149.2,635.1 		
			"/>
		<polyline id="r1-shp020a-b-21b_2_" class="st4" points="1186.9,760.6 1230.8,716.7 1223.1,709 1215.2,709 1188.4,735.7 
			1188.4,738.1 1176.3,750.2 1186.9,760.6 		"/>
		<path id="r1-shp020a-b-21b_1_" class="st4" d="M1198.7,772.4"/>
		<polygon id="r1-shp018b-019" class="st3" points="1184.5,670.4 1172.7,658.6 1128.5,702.7 1140.4,714.5 1167.2,741.1 
			1180.4,727.9 1182.9,727.9 1208.6,702.2 1208.6,694.5 		"/>
		<polygon id="r1-shp011a" class="st3" points="945.7,529.5 945.7,563.2 956.4,563.2 956.4,586.9 962,586.9 962,529.5 		"/>
		<polygon id="r1-shp010" class="st3" points="936,564 936,529.5 935.9,529.5 930.2,523.8 912.2,523.8 912.2,586.9 924.5,586.9 
			924.5,564 		"/>
		<polygon id="r1-shp009b" class="st3" points="897.5,523.8 882,523.8 881.7,524.1 881.7,586.9 897.5,586.9 897.5,586.9 
			912.2,586.9 912.2,523.8 		"/>
		<polygon id="r1-shp014" class="st3" points="1075.2,617.4 1098.9,593.7 1098.9,584.9 1083.2,569.1 1075.4,569.1 1075.3,569 
			1034.7,609.6 1050.8,625.6 1067.1,609.4 		"/>
		<polygon id="r1-shp013" class="st3" points="1035.8,529.5 1035.5,529.5 1010.9,586.9 1011.9,586.9 1034.7,609.6 1075.3,569 		"/>
		<polygon id="robinson" class="st3" points="392.9,844.4 125,576.6 313.4,388.2 431.5,506.4 407.4,530.6 556.5,679.7 		"/>
		<polygon id="central-department-store" class="st3" points="1200.2,820.7 1451,569.9 1640.2,759 1389.5,1009.7 		"/>
		<path id="r019" class="st3" d="M1133.8,896.2l-21.5,21.5c4.4,7.8,9.2,14.7,14.1,20.9l24.5-24.5
			C1141.1,903.9,1133.8,896.2,1133.8,896.2z"/>
		<path id="r027" class="st3" d="M1135,718.9l-26,26c0,0,5.4,4.2,10.3,12.1l27.7-26L1135,718.9z"/>
		<path id="r026" class="st3" d="M1147,731l-27.7,26c4.3,6.8,8.1,16.3,7.6,28.1c0,0,3.6,1,8.7,3.1L1170,754L1147,731z"/>
		<path id="r025" class="st3" d="M1170,754l-34.4,34.1c8.9,3.5,22.5,9.9,30.4,18.8l28.6-28.4L1170,754z"/>
		<path id="r030" class="st3" d="M1044.7,655.7l5.4-5.4l-3.7-3.7l2.2-2.2l-16.4-16.4l-31.9,31.9c0,0,12,6.6,26.9,19.1l20.4-20.4
			L1044.7,655.7z"/>
		<path id="r029" class="st3" d="M1047.7,658.6l-20.4,20.4c5.3,4.5,11,9.7,16.7,15.6l19.8-19.8L1047.7,658.6z"/>
		<path id="r028" class="st3" d="M1101.9,685.9l-19.6-19.6l-13.5,13.5l-5.1-5.1l-19.8,19.8c7.6,8,15.2,17.2,21.6,27.6L1101.9,685.9z
			"/>
		<g id="r161-178-179-1-179-2-180-2">
			<polygon id="r1-shp009a" class="st3" points="851.6,554.2 851.6,592.5 881.7,592.5 881.7,524.1 			"/>
			<path id="r031-032" class="st3" d="M880.6,643.5c0,0,59.5-14.8,111.6,11.4l26.1-26.1l-9.2-9.5h-30.6v5.1H939v-11.8h-34.1v-20.1
				h-53.2v31.8C851.6,624.3,868.1,629.2,880.6,643.5z"/>
		</g>
		<path id="r037" class="st3" d="M682.4,619.7V647c5.4-1.7,11.2-3.1,17.2-4.1v-23.4L682.4,619.7z"/>
		<path id="r036" class="st3" d="M699.5,619.6V643c5.1-0.9,10.4-1.5,15.7-1.9v-21.7L699.5,619.6z"/>
		<path id="r035" class="st3" d="M723,619.3v21.3c8.8-0.4,17.4-0.3,25.2,0v-21.6L723,619.3z"/>
		<path id="r033" class="st3" d="M779.7,592.5v24.6v1.7v24.5c10.2-12.9,27.7-18.7,27.7-18.7v-32L779.7,592.5L779.7,592.5z"/>
		<path id="r034" class="st3" d="M748.2,619.1v21.6c18.1,0.8,31.3,2.8,31.3,2.8c0.1-0.1,0.1-0.1,0.2-0.2v-24.5L748.2,619.1z"/>
		<path id="r039" class="st3" d="M624.9,641.7l-5.9,5.9l-3.8-3.8l-6.2,6.2l5.6,5.6L598,672l15.5,15.5c18.6-15.5,33.1-24.1,33.1-24.1
			L624.9,641.7z"/>
		<path id="r043" class="st3" d="M488.8,754.8l18.2,17.6c10-10.1,20.9-14.6,29.7-16.5l-24.3-24.7L488.8,754.8z"/>
		<path id="r042a" class="st3" d="M523.4,720.2l32.7,32.4c3.1-5.2,6.4-10.2,9.9-15.1l-30.4-29.6L523.4,720.2z"/>
		<path id="r041a" class="st3" d="M587,712.3l-28-27.7l-10.9,10.9l28.5,28.5C580,719.9,583.5,716,587,712.3z"/>
		<path id="r041b" class="st3" d="M548.1,695.5l-12.4,12.4l30.4,29.6c3.4-4.7,6.9-9.2,10.5-13.5L548.1,695.5z"/>
		<path id="r042b" class="st3" d="M512.4,731.2l24.3,24.7c10.4-2.3,18.1-1,18.1-1c0.4-0.8,0.9-1.5,1.4-2.3l-32.7-32.4L512.4,731.2z"
			/>
		<path id="r040b" class="st3" d="M559,684.6l28,27.7c4.1-4.4,8.3-8.5,12.4-12.3l-28.3-27.5L559,684.6z"/>
		<path id="r040a" class="st3" d="M598,672l-13.2-13.2l-13.7,13.7l28.3,27.5c4.8-4.5,9.6-8.7,14.1-12.5L598,672z"/>
		<path id="r004" class="st3" d="M589.2,820.4l7.6-7.6l-15.2-15.2c-9.6,12.6-20.1,20.7-31.2,25.1v74.1
			c52.8-17.4,71.8-60.6,71.8-60.6l-6-6l-8.6,8.6L589.2,820.4z"/>
		<path id="r001" class="st3" d="M470.1,796.4l-39.2,39.2l26.9,27.2l35-47.9C479.7,806.4,470.1,796.4,470.1,796.4z"/>
		<path id="r002" class="st3" d="M492.8,814.9l-35,47.9l0.1,0l1,6.7c19.5-3.4,34.6,1.3,45.6,8.1l12.4-51.8
			C508.4,824,500,819.7,492.8,814.9z"/>
		<path id="r010" class="st3" d="M781.9,688.7c-11.6-3.2-23-4.6-34-4.6v75.7c28.6-0.9,51.8-9.3,51.8-9.3l5-10.5
			c10-17.2,10.8-34,10.8-34C793.6,701.7,781.9,688.7,781.9,688.7z"/>
		<path id="r009" class="st3" d="M714.1,687.6v52.2h-5.3l-7.1,6.5l9.6,9.6c12.3,3.3,24.8,4.2,36.5,3.8V684
			C735.8,683.9,724.4,685.4,714.1,687.6z"/>
		<path id="r007" class="st3" d="M693.4,737.5l-27.9-31.8c-5.7,8-11.2,15.2-16.5,21.6l45.9,45.9c5-9.5,6.3-16.5,6.3-16.5l-4.9-4.9
			l-7.7-8.7L693.4,737.5z"/>
		<path id="r008" class="st3" d="M697.3,727.8l11.5,12h5.3v-52.2c-20.4,4.3-36.4,11.4-43.7,15.1l25.9,26.5L697.3,727.8z"/>
		<path id="r005-006" class="st3" d="M649,727.3c-29.8,36.2-52.2,48.4-54.4,49.5l19.7,18.5l-17.5,17.5l-7.6,7.6l18.3,18.3l8.6-8.6
			l16.5-16.5l0,0l2.9-2.9l6.6,6.6c30.3-10.9,45.5-30.3,52.7-44.3L649,727.3z"/>
		<path id="r011" class="st3" d="M878.4,689.2c-22.2,17.8-33.8,16.5-33.8,16.5s1.6,22,10.5,34.2l5.8,10.8
			c24.8,12.3,51.8,11.1,69,8.3v-73.7C902,683.8,878.4,689.2,878.4,689.2z"/>
		<path id="r013" class="st3" d="M993.3,707.4l-19.6,19.6l1.4,1.4l-9,9l5.5,5.5l-8.4,8.5l-4.8,4.8c1.4,6.1,3.7,11.8,6.6,17
			l45.7-45.7C1002.7,718.6,996,710.7,993.3,707.4z"/>
		<path id="r018" class="st3" d="M1135.4,853.7c-2.7-1.3-6.2-4.5-9.9-8.6l-45.7,45.7c13.6,9.5,23.9,11.4,23.9,11.4l5.1-5.1l5,5
			l14.4-12.8C1119.6,866.7,1135.4,853.7,1135.4,853.7z"/>
		<path id="r014-015" class="st3" d="M1052,784.3c-6.5-11.6-5.9-22.9-5.9-22.9c-10-6.9-24.1-21.5-35.4-33.9L965,773.2
			c16.7,30.2,52.9,44.7,52.9,44.7l6.5-6l18.3-18.3L1052,784.3z"/>
		<path id="r016" class="st3" d="M1099.1,809.7c-11.1-0.8-19.9-3.2-26.9-6.6l-9.8,9.8l-18.8,18.8l-5.8,5.5
			c5.7,12.5,12,22.7,18.5,30.9l49.1-49.1C1101.6,813.5,1099.1,809.7,1099.1,809.7z"/>
		<path id="yves-rocher" class="st3" d="M1052,784.3l-9.3,9.3h0l-18.3,18.3l19.2,19.8l18.8-18.8l9.8-9.8
			C1062,798.1,1055.8,791.1,1052,784.3z"/>
		<polygon id="r1-kio035-038" class="st3" points="752.9,476.9 731.7,476.9 731.7,512 752.9,512 752.9,494.5 752.9,494.5 		"/>
		<polygon id="r1-kio037" class="st3" points="773.6,476.9 752.9,476.9 752.9,494.5 769.9,494.5 		"/>
		<polygon id="r1-kio036" class="st3" points="752.9,494.5 752.9,512 772.6,512 769.9,494.5 		"/>
		<rect id="r1-kio020-017" x="893.1" y="478.3" class="st3" width="23.5" height="31.6"/>
		<polygon id="r1-kio019" class="st3" points="995.9,493.9 980.5,478.5 944.9,478.3 944.9,494.1 995.7,494.1 		"/>
		<polygon id="r1-kio018" class="st3" points="944.9,494.1 944.9,509.9 979.9,509.9 995.7,494.1 		"/>
		<polygon id="r1-kio030" class="st3" points="1041.5,500.4 1048.7,507.2 1066.9,489 1060,482.4 		"/>
		<rect id="r1-kio029" x="617.5" y="476.9" class="st3" width="8.4" height="24.5"/>
		<rect id="r1-kio063-064" x="637.2" y="465.9" class="st3" width="29.2" height="8.9"/>
		<rect id="r1-kio061-062" x="644.4" y="513" class="st3" width="29.2" height="8.9"/>
		<rect id="r1-kio031" x="790.2" y="463.9" class="st3" width="21.7" height="5.4"/>
		<rect id="r1-kio032" x="853.1" y="463.9" class="st3" width="21.5" height="5.6"/>
		<path id="r023-024" class="st3" d="M1221.7,952c-4.8,4.6-12.6,4.2-17.5-0.8l-60.5-62.5c-4.9-5.1-5-12.9-0.3-17.5l18.2-17.6
			c4.8-4.6,12.6-4.2,17.5,0.8l60.5,62.5c4.9,5.1,5,12.9,0.3,17.5L1221.7,952z"/>
		<path class="st3" d="M430.9,835.7l-11.1-11.8l39-39c0,0,5.1,5.8,11.3,11.6L430.9,835.7z"/>
		<path class="st3" d="M957.7,689.4c-9.3-2.4-18.8-3.6-27.8-4.1V759c10.8-1.7,17.8-4.3,17.8-4.3l10.1-65.5"/>
		<path class="st5" d="M957.6,689.6l-10,65.1l9.5-9.3l-5.8-5.8l11.9-11.9l1.2,1.2l25-25c-9.5-7.1-20.5-11.7-31.8-14.5"/>
		<path id="RADLEY" class="st3" d="M1044,745.2c0,0,7.2,5.8,9.9,5.9c3.5,0.1,9.4-7.8,9.4-12.9c0-2.8-6.9-11-9-12.8
			c-1-0.9,4.7,3.2-0.1,12.1C1048.6,747.8,1044,745.2,1044,745.2z"/>
		<polygon class="st4" points="1230.6,716.5 1186.7,760.4 1198.7,772.4 1245.2,725.9 1235.7,716.5 		"/>
		<rect id="g05" x="962" y="529.5" class="st3" width="16.5" height="57.4"/>
	</g>
	<g id="Signs">
		<rect id="baby-change-room" x="953.9" y="593.6" class="st6" width="14.8" height="14.8"/>
		<g id="fire-exit">
			<rect x="932.5" y="571.5" class="st6" width="14.8" height="14.8"/>
			<rect x="714.2" y="571.5" class="st6" width="14.8" height="14.8"/>
			<rect x="582.5" y="623.7" class="st6" width="14.8" height="14.8"/>
			<rect x="1059.8" y="624.1" class="st6" width="14.8" height="14.8"/>
			<rect x="1169.8" y="733.6" class="st6" width="14.8" height="14.8"/>
		</g>
		<rect id="parking" x="824.3" y="287.2" class="st6" width="14.8" height="14.8"/>
		<g id="toilet">
			<rect x="1111.5" y="426.5" class="st6" width="14.8" height="14.8"/>
			<rect x="863" y="379.2" class="st6" width="14.8" height="14.8"/>
			<rect x="467.3" y="444" class="st6" width="14.8" height="14.8"/>
			<rect x="920.8" y="593.6" class="st6" width="14.8" height="14.8"/>
			<rect x="625.9" y="599.2" class="st6" width="14.8" height="14.8"/>
			<rect x="1276.2" y="950.3" class="st6" width="14.8" height="14.8"/>
		</g>
		<g id="elevator">
			<rect x="1197" y="489.6" class="st6" width="14.8" height="14.8"/>
			<rect x="970.4" y="593.6" class="st6" width="14.8" height="14.8"/>
			<rect x="659" y="599.2" class="st6" width="14.8" height="14.8"/>
			<rect x="796.3" y="379.2" class="st6" width="14.8" height="14.8"/>
			<rect x="452.5" y="486" class="st6" width="14.8" height="14.8"/>
		</g>
		<g id="stairs">
			<rect x="1118.9" y="564.1" class="st6" width="14.8" height="14.8"/>
			<rect x="525.1" y="564.1" class="st6" width="14.8" height="14.8"/>
		</g>
		<g id="escalator">
			<rect x="1174" y="618.6" class="st6" width="14.8" height="14.8"/>
			<rect x="1061.5" y="497" class="st6" width="14.8" height="14.8"/>
			<rect x="848.2" y="526.2" class="st6" width="14.8" height="14.8"/>
			<rect x="560.8" y="772.9" class="st6" width="14.8" height="14.8"/>
			<rect x="825.1" y="686" class="st6" width="14.8" height="14.8"/>
			<rect x="1083.8" y="783.3" class="st6" width="14.8" height="14.8"/>
			<rect x="794.7" y="526.2" class="st6" width="14.8" height="14.8"/>
			<rect x="587.5" y="497.3" class="st6" width="14.8" height="14.8"/>
		</g>
		<g id="handicapped-toilet">
			<rect x="1128.3" y="426.5" class="st6" width="14.8" height="14.8"/>
			<rect x="879.8" y="379.2" class="st6" width="14.8" height="14.8"/>
			<rect x="484.1" y="444" class="st6" width="14.8" height="14.8"/>
			<rect x="642.4" y="599.2" class="st6" width="14.8" height="14.8"/>
			<rect x="937.3" y="593.6" class="st6" width="14.8" height="14.8"/>
		</g>
		<g id="telephone">
			<rect x="1145.1" y="426.5" class="st6" width="14.8" height="14.8"/>
			<rect x="896.6" y="379.2" class="st6" width="14.8" height="14.8"/>
			<rect x="500.9" y="444" class="st6" width="14.8" height="14.8"/>
		</g>
		<g id="atm">
			<rect x="913.4" y="379.2" class="st6" width="14.8" height="14.8"/>
			<rect x="517.7" y="444" class="st6" width="14.8" height="14.8"/>
		</g>
	</g>
	<rect x="978.5" y="529.5" class="st3" width="19.3" height="57.4"/>
</g>
<g id="Layer_2">
</g>
</svg>
