<?xml version="1.0" encoding="utf-8"?>
<!-- Generator: Adobe Illustrator 19.2.0, SVG Export Plug-In . SVG Version: 6.00 Build 0)  -->
<svg version="1.1" id="Layer_1" xmlns="http://www.w3.org/2000/svg" xmlns:xlink="http://www.w3.org/1999/xlink" x="0px" y="0px"
	 viewBox="0 0 1683.8 1190.6" style="enable-background:new 0 0 1683.8 1190.6;" xml:space="preserve">
<style type="text/css">
	.st0{fill:#FFFFFF;}
	.st1{fill:#DEDEDE;stroke:#494949;stroke-width:0.5;stroke-miterlimit:10;}
	.st2{fill:#939598;stroke:#494949;stroke-width:0.5;stroke-miterlimit:10;}
	.st3{fill:none;stroke:#494949;stroke-width:0.5;stroke-miterlimit:10;}
	.st4{opacity:0.8;enable-background:new    ;}
</style>
<g id="Background">
	<rect class="st0" width="1683.8" height="1190.6"/>
</g>
<g id="Original">
	<g>
		<g>
		</g>
	</g>
</g>
<g id="ETC">
	<polygon class="st1" points="306,489.6 413.2,438.2 463.6,398.1 505.4,289.2 561.2,233.7 751.9,240.7 790.5,232.2 826,211.2 
		904.8,211.2 919.6,232.2 934.5,203.2 1082.8,203.2 1160.6,245.8 1469.7,554.1 1398.7,625 1425.8,653.8 1481.7,598.9 1625,779.3 
		1429.7,976.6 1175.9,879.9 965.1,752.9 951.4,739.7 860.5,698.1 812.4,702.8 731.7,727.5 702.1,742.9 574.4,828.3 362.8,864.4 
		262.2,797.4 150.2,628.4 253.4,525.2 	"/>
	<path class="st1" d="M1119.5,755.9c-1.5-3-3.5-6-5.8-8.7c-11.2-13.5-28.1-19-42.2-15c-16.9-39-67.9-71.1-67.9-71.1l32.4-32.4
		l14.5,13.9l-3,3l3.5,3.5l-1.1,1.1l2.9,2.9l-4.7,4.7l21,21l13.6-13.6l-73.9-73.9H904v19.7h32.4v6.8v21.4
		c-33.5-3.5-56.4,3.7-56.4,3.7c-11.7-15.9-28.5-19.1-28.5-19.1v-32.6h-46.2v32.7c-17.9,5.3-27.6,18.9-27.6,18.9
		c-18.8-5.1-38.5-5.3-56.2-3.4c0,0,0,0,0,0V618v-5.9h32.1v-20.8h-103l-75.2,75.2l13.8,13.8l7.6-7.6l-11.3-11.3l13.9-13.9l4.4,4.4
		l6.4-6.4l-1.9-1.9l13.3-13.3l29.1,29.1c-51.2,23.7-91.9,83.9-99.8,96.2c-6.3-1.1-12.2-0.7-17.5,0.6c-12.8,3.1-22.4,11.3-26.9,15.9
		h0l-2,2l-18.4-18.4L390,852L92.2,554.3c-44.2,53.6-8.6,89.1-8.6,89.1l-13.8,14c0,0,164,164,206.5,207.8s106.8,41.2,132.8,23.5
		s49.2-21.1,49.2-21.1l5.8-39.2l25.6-25.6c0,0,34.9,47.9,83.1,0s85-85.9,85-85.9l35.8,35.2l11.4-11.4l3.6,3.6h240l4.1-4.1l13.1,13.1
		l35.8-35.9c0,0,22.4,27.8,46.7,45c-0.5,10.2,3,21.2,10.5,30.4c7.3,8.8,17,14.2,26.7,15.8C1085.6,808.5,1139.6,813.6,1119.5,755.9z
		 M712.7,640.7c-27.5,4.1-48,12.3-48,12.3l-20.6-20.2l15.4-14.9h53.2V640.7z M996,656.1c-18.7-8.8-36.5-13.6-52.4-15.9v-22.3h65.5
		l12.3,12.5L996,656.1z"/>
	<ellipse class="st1" cx="831.1" cy="666.9" rx="41" ry="27.8"/>
	
		<rect x="850.3" y="637.9" transform="matrix(0.9234 -0.3839 0.3839 0.9234 -188.6362 378.6433)" class="st1" width="7.9" height="48"/>
	
		<rect x="786" y="658.3" transform="matrix(0.3742 -0.9273 0.9273 0.3742 -107.2823 1165.5652)" class="st1" width="48" height="7.8"/>
	<path class="st1" d="M660.2,713.1l24.3,24.3l12.5-12.5l-12-25.8C685,699.1,668.9,700.2,660.2,713.1z"/>
	<path class="st1" d="M886.5,653.2c0,0,3.5,11.9-0.7,20.4l13.5,11.9c0,0,26.2-20.3,58.8,1.6l22.3-4.7c0,0,4.7-11.7,5.5-13.7
		c0.8-2,2.3-5.2-2.7-6.9S926,641,886.5,653.2z"/>
	<path class="st1" d="M771.4,653.5c0,0-3.5,11.9,0.7,20.4l-13.5,11.9c0,0-26.2-20.3-58.8,1.6l-22.3-4.7c0,0-4.7-11.7-5.5-13.7
		s-2.3-5.2,2.7-6.9C679.6,660.3,731.9,641.3,771.4,653.5z"/>
	<path class="st1" d="M1101.2,757.8c-10.3-13.5-26.1-18.6-35.4-11.5c-9.3,7.1-8.5,23.8,1.7,37.2c2.6,3.4,5.5,6.2,8.5,8.5l16.1-10.8
		l10.4,14.2c0.1-0.1,0.3-0.2,0.4-0.3C1112.2,788,1111.5,771.3,1101.2,757.8z"/>
	<path class="st1" d="M563.3,773.7c-6.1-9.7-22.7-10.1-37-1.1c-3,1.9-5.6,4-7.9,6.4l5.5,15.6l-14.5,5.9c0.3,2.2,1,4.3,2.2,6.1
		c6.1,9.7,22.7,10.1,37,1C562.8,798.5,569.4,783.3,563.3,773.7z"/>
	<path class="st1" d="M961.2,725.4l12.2,12.3l25.3-25.3c0,0-5.6-11.2-25.9-13.1L961.2,725.4z"/>
	<path class="st1" d="M1010,711.6c-4.2-4.8-2.7-6.8-1.7-13.2c1-6.3,0.3-17.5,12-7c11.7,10.5,34.7,32.9,38,37.8
		c3.3,4.9-1.2,7.4-6.7,9.2c-5.5,1.8-9.1,5.8-18.3-3C1024.2,726.6,1010,711.6,1010,711.6z"/>
	<path class="st1" d="M574.9,763.3c-8.2-3.1-16.2-6.5-1-23.7c15.2-17.2,45.9-45,53.4-50.4c7.6-5.4,10.5-7.6,12.5,4.3
		c2,11.8,8.4,18.6-1.9,30.6s-34,32.8-40,37.5S591.4,769.5,574.9,763.3z"/>
	
		<rect x="1358.8" y="848.7" transform="matrix(0.7091 -0.7052 0.7052 0.7091 -218.9971 1213.9436)" class="st1" width="5.5" height="47.3"/>
	
		<rect x="1355" y="852.4" transform="matrix(0.7091 -0.7052 0.7052 0.7091 -222.6961 1212.2614)" class="st1" width="5.5" height="47.3"/>
	
		<rect x="1449.4" y="757.1" transform="matrix(0.7091 -0.7051 0.7051 0.7091 -128.1087 1251.0266)" class="st1" width="5.5" height="47.3"/>
	
		<rect x="1445.5" y="761" transform="matrix(0.7092 -0.705 0.705 0.7092 -131.9907 1249.2039)" class="st1" width="5.5" height="47.3"/>
	<polygon class="st1" points="1332.3,871.2 1355,848.5 1385.4,878.9 1363,901.3 	"/>
	<polygon class="st1" points="1424.5,778.5 1446.1,757 1476,786.8 1454.8,808 	"/>
	<path class="st1" d="M1221.9,844.3l-68.9,68.9l-1.8,1.8l-11.9,11.9l-16.3-16.3l-8.8,8.8c32,66,111.8,71.5,111.8,71.5
		c17-15,51.8-26.5,79.7-16.7c27.8,9.8,38-8.2,38-8.2L1221.9,844.3z"/>
	<polygon class="st1" points="1372.6,833.9 1399.4,807 1425.8,833.4 1399.2,860.1 	"/>
	<rect x="819.2" y="368.1" class="st1" width="21" height="25.3"/>
	
		<rect x="1204" y="410.9" transform="matrix(0.6985 -0.7156 0.7156 0.6985 65.7208 1002.0967)" class="st1" width="36.3" height="24.3"/>
	
		<rect x="1217.3" y="429.6" transform="matrix(0.6985 -0.7156 0.7156 0.6985 60.4718 1015.5029)" class="st1" width="36.3" height="12.7"/>
	
		<rect x="1230.8" y="436.7" transform="matrix(0.6985 -0.7156 0.7156 0.6985 55.0997 1029.1534)" class="st1" width="36.3" height="25.1"/>
	<polygon class="st1" points="1128.4,351.2 1165.9,387.4 1234.5,320.1 1209.5,295.1 1179,324.2 1167.9,313 	"/>
	
		<ellipse transform="matrix(0.4902 -0.8716 0.8716 0.4902 222.5075 1120.9075)" class="st1" cx="1069.5" cy="370.2" rx="42" ry="32.5"/>
	<path class="st1" d="M1082.8,436.4c-17.3,12.9-37.3,17-53.6,8.9c-6.5-3.3-11.9-8.2-15.9-14.3"/>
	<path class="st1" d="M1070.3,355.7c-8.5,0-15.4,6.9-15.4,15.4c0,7.5,5.4,13.8,12.5,15.1L1081,360
		C1078.2,357.3,1074.5,355.7,1070.3,355.7z"/>
	<polygon class="st1" points="974.5,476.4 1038,476.4 1038,505.3 1033.7,505.3 1026.2,512.8 974.5,512.8 	"/>
	
		<rect x="1056.2" y="516.6" transform="matrix(1 -4.299961e-03 4.299961e-03 1 -2.2232 4.6424)" class="st1" width="44.6" height="5.5"/>
	
		<rect x="1056.2" y="521.9" transform="matrix(1 -4.299961e-03 4.299961e-03 1 -2.2459 4.6425)" class="st1" width="44.6" height="5.5"/>
	
		<rect x="1206.5" y="625.5" transform="matrix(0.7091 -0.7052 0.7052 0.7091 -105.9216 1041.5342)" class="st1" width="5.5" height="47.3"/>
	
		<rect x="1202.8" y="629.1" transform="matrix(0.709 -0.7052 0.7052 0.709 -109.508 1040.0736)" class="st1" width="5.5" height="47.3"/>
	<polyline class="st1" points="1059.7,527.5 1084,551.8 1094.8,551.8 1117.6,574.5 1132,560.2 1097,527.3 	"/>
	<polyline class="st1" points="1057.8,516.7 1048.3,507.1 1067.9,487.5 1098.4,516.5 	"/>
	<path class="st1" d="M1186.8,459.8c0,0,0.6,17.6,22.8,23"/>
	<polygon class="st1" points="1181,645.7 1201.7,625 1233.3,656.6 1212.9,676.9 	"/>
	<circle class="st1" cx="1324.7" cy="768.4" r="4.2"/>
	<circle class="st1" cx="1259.7" cy="702.4" r="25.5"/>
	<circle class="st1" cx="1259.7" cy="702.4" r="17.9"/>
	<path class="st1" d="M1489.7,399.6c-5.2,0-9.4,4.2-9.4,9.4s4.2,9.4,9.4,9.4c1.3,0,2.6-0.3,3.7-0.8c2.2-0.9,4-2.7,4.9-4.9
		c0.5-1.1,0.8-2.4,0.8-3.7C1499,403.8,1494.8,399.6,1489.7,399.6z"/>
	<polygon class="st1" points="1413.4,409.7 1449.5,445.8 1456.8,438.5 1453.9,435.7 1461,428.6 1464,431.6 1471.9,423.7 
		1460.8,412.5 1464.9,408.3 1462.8,406.3 1470.7,398.4 1473.5,401.2 1479.2,395.4 1473.9,390.1 1470.7,393.4 1463,385.7 
		1465.9,382.9 1454.1,371.2 1429,396.2 1430.8,398 1423.9,404.8 1421.6,402.5 	"/>
	<circle class="st1" cx="1367" cy="537.3" r="18.6"/>
	
		<rect x="579.1" y="496.2" transform="matrix(1.400003e-02 -0.9999 0.9999 1.400003e-02 55.2906 1093.0165)" class="st1" width="5.5" height="44.6"/>
	<polygon class="st1" points="559.4,526.2 559.5,520.7 604.1,521.3 604,526.8 561.5,526.2 	"/>
	<polyline class="st1" points="563.1,515.4 592.8,485.7 612.7,505.7 604.1,513.5 604.2,516 	"/>
	<polygon class="st1" points="560.8,526.2 602.4,526.8 576.5,551.2 567.7,551.2 544,574.9 529.5,560.4 560.4,529.5 	"/>
	<polygon class="st1" points="515,638.9 555.4,679.2 576.3,658.2 536,617.9 	"/>
	<polygon class="st1" points="570.7,633.5 578.1,626 553,600.9 536,617.9 576.3,658.2 586.4,648.1 	"/>
	<polygon class="st1" points="468.3,547.2 468.3,547.2 468.3,547.2 482.9,561.8 510,534.7 482.4,507.1 455.3,534.2 	"/>
	<polygon class="st1" points="482.4,507.1 473.8,498.5 446.3,525.2 455.3,534.2 	"/>
	<polygon class="st1" points="468.3,547.2 456.6,558.9 483.2,585.6 494.9,573.8 482.9,561.8 	"/>
	<polygon class="st1" points="468.3,547.2 455.3,534.2 446.3,525.2 423.9,546.9 472.9,595.9 483.2,585.6 456.6,558.9 	"/>
	<polygon class="st1" points="496.7,547.9 508.8,560 522,546.7 510,534.7 482.9,561.8 494.9,573.8 508.8,560 	"/>
	<polygon class="st1" points="604.1,589.2 624.7,609.7 636.3,598 615.7,577.5 	"/>
	<polygon class="st1" points="595.8,597.5 616.4,618 624.7,609.7 604.1,589.2 	"/>
	<polygon class="st1" points="579.6,613.7 585.1,619.2 592.6,611.7 607.7,626.7 616.4,618 595.8,597.5 	"/>
	<polygon class="st1" points="632.5,570.6 627.6,565.7 615.7,577.5 636.3,598 647.4,586.9 648.9,586.9 633.1,571.2 	"/>
	<rect x="660.2" y="571.2" class="st1" width="20.9" height="15.8"/>
	<rect x="681.1" y="571.2" class="st1" width="23.6" height="15.8"/>
	<polygon class="st1" points="633.1,571.2 648.9,586.9 660.2,586.9 660.2,571.2 	"/>
	<rect x="768.5" y="557.7" class="st1" width="12.2" height="29.2"/>
	<path class="st1" d="M797,561.1v20.8l5.3,5h11.2v-19.8C807.7,565.7,802.2,563.7,797,561.1z"/>
	<rect x="756.2" y="557.7" class="st1" width="12.3" height="29.2"/>
	<rect x="741" y="557.7" class="st1" width="15.2" height="29.2"/>
	<rect x="909.5" y="557.7" class="st1" width="16.2" height="29.2"/>
	<path class="st1" d="M864.8,561.2c-5.7,2.9-11.8,5-18.3,6.4v19.4h12.2l6.1-4.8V561.2z"/>
	<rect x="894.7" y="557.7" class="st1" width="14.8" height="29.2"/>
	<rect x="881" y="557.7" class="st1" width="13.7" height="29.2"/>
	<path class="st1" d="M797,561.1c-2.1-1-4.1-2.2-6.1-3.4h-10.3v23.8H797L797,561.1L797,561.1z"/>
	<polygon class="st1" points="797,581.9 797,581.5 780.7,581.5 780.7,586.9 802.3,586.9 	"/>
	<path class="st1" d="M871,557.7c-2,1.3-4.1,2.4-6.2,3.5v20.4H881v-23.8H871z"/>
	<polygon class="st1" points="864.8,582.1 858.7,586.9 881,586.9 881,581.5 864.8,581.5 	"/>
	<path class="st1" d="M846.5,567.5c-5,1.1-10.2,1.6-15.5,1.6c-6,0-11.9-0.7-17.5-2v19.8h7.2l10.3,10.3l10.3-10.3h5.2L846.5,567.5
		L846.5,567.5z"/>
	<rect x="925.7" y="557.7" class="st1" width="11.7" height="9.2"/>
	<rect x="925.7" y="566.9" class="st1" width="11.7" height="26.1"/>
	<path class="st1" d="M1041.7,573.3c-4.7,4.8-17.5,17.5-21.7,21.7l8,7.9l21.7-21.7L1041.7,573.3z"/>
	<polygon class="st1" points="1021.1,564.1 1014.7,557.7 1001.2,557.7 1001.2,586.9 1011.7,586.9 1021.5,564.1 	"/>
	<path class="st1" d="M1041.7,573.3l-9.2-9.2h-11l-9.9,22.8h0.2l8.2,8.1C1024.2,590.8,1037,578.1,1041.7,573.3z"/>
	<polygon class="st1" points="1049.7,581.3 1028,602.9 1036.2,611.1 1057.8,589.4 	"/>
	<polygon class="st1" points="1057.8,589.4 1036.2,611.1 1044.3,619.1 1065.9,597.5 	"/>
	<rect x="945.7" y="557.7" class="st1" width="10.5" height="9.2"/>
	<rect x="956.2" y="557.7" class="st1" width="12.1" height="29.2"/>
	<rect x="990.9" y="557.7" class="st1" width="10.4" height="29.2"/>
	<rect x="968.4" y="557.7" class="st1" width="12.2" height="29.2"/>
	<rect x="980.6" y="557.7" class="st1" width="10.2" height="29.2"/>
	<polygon class="st1" points="1104.6,636.2 1083.2,657.7 1106.8,681.2 1128.2,659.8 	"/>
	<polygon class="st1" points="1198.8,730.4 1177.7,751.6 1189.2,763 1210.3,741.9 	"/>
	<polygon class="st1" points="1210.3,741.9 1189.2,763 1201.2,774.9 1222.2,753.8 	"/>
	<polygon class="st1" points="1128.2,659.8 1106.8,681.2 1118.2,692.5 1139.6,671.2 	"/>
	<polygon class="st1" points="1244.4,776 1233.9,765.5 1212.9,786.5 1223.4,796.9 	"/>
	<polygon class="st1" points="1222.2,753.8 1201.2,774.9 1212.9,786.5 1233.9,765.5 	"/>
	<polygon class="st1" points="1190.8,722.4 1169.6,743.5 1177.7,751.6 1198.8,730.4 	"/>
	<polygon class="st1" points="1175.4,707 1154.2,728.2 1169.6,743.5 1190.8,722.4 	"/>
	<polygon class="st1" points="1139.6,671.2 1118.2,692.5 1130,704.2 1151.3,682.9 	"/>
	<polygon class="st1" points="1151.3,682.9 1130,704.2 1141.8,716 1163.4,695 	"/>
	<polygon class="st1" points="1163.4,695 1141.8,716 1154.2,728.2 1175.4,707 	"/>
	<polygon class="st1" points="1076.2,619.2 1081.9,613.5 1065.9,597.5 1044.3,619.1 1052.7,627.4 1068.4,611.8 	"/>
	<polygon class="st1" points="1088.1,619.7 1082.6,625.2 1091,633.6 1075,649.6 1083.2,657.7 1104.6,636.2 	"/>
	<polygon class="st1" points="1068.4,611.8 1052.7,627.4 1049.3,630.8 1056.9,638.5 1060.3,635 1076.2,619.2 	"/>
	<polygon class="st1" points="1082.6,625.2 1066.6,641.3 1062.7,645.2 1071.4,653.2 1075,649.6 1091,633.6 	"/>
	<rect x="945.7" y="566.9" class="st1" width="10.5" height="26.1"/>
	<polygon class="st1" points="882.4,402.4 883.3,430.9 899.4,430.9 899.4,402.4 	"/>
	<rect x="899.4" y="402.4" class="st1" width="14.2" height="28.5"/>
	<path class="st1" d="M871,402.4v27c0.8,0.5,1.6,1,2.4,1.5h9.9l-0.9-28.5H871z"/>
	<rect x="913.6" y="402.4" class="st1" width="16.1" height="28.5"/>
	<rect x="997.1" y="402.4" class="st1" width="18.8" height="28.5"/>
	<rect x="980.7" y="402.4" class="st1" width="16.4" height="28.5"/>
	<rect x="964.4" y="402.4" class="st1" width="16.4" height="28.5"/>
	<rect x="929.7" y="402.4" class="st1" width="16.4" height="28.5"/>
	<rect x="946.1" y="402.4" class="st1" width="18.2" height="28.5"/>
	<polygon class="st1" points="552.5,422.1 541.1,433.3 562.2,454.4 573.4,443.1 562.1,431.7 	"/>
	<polygon class="st1" points="562.1,431.7 573.4,443.1 585.6,430.9 585.7,430.9 574.3,419.5 	"/>
	<polygon class="st1" points="572.9,402.4 571.4,403.8 580.7,413.2 574.3,419.5 585.7,430.9 615.7,430.9 615.7,402.4 	"/>
	<polygon class="st1" points="574.3,419.5 580.7,413.2 571.4,403.8 552.5,422.1 562.1,431.7 	"/>
	<rect x="615.7" y="402.4" class="st1" width="16.2" height="28.5"/>
	<polygon class="st1" points="490,482.7 507.8,500.5 516,500.5 527,489.5 505.4,467.9 	"/>
	<polygon class="st1" points="529.3,444.7 550.6,465.9 562.2,454.4 541.1,433.3 	"/>
	<rect x="631.9" y="402.4" class="st1" width="16.4" height="28.5"/>
	<polygon class="st1" points="517.6,456 539.1,477.5 550.6,465.9 529.3,444.7 	"/>
	<polygon class="st1" points="505.4,467.9 527,489.5 539.1,477.5 517.6,456 	"/>
	<rect x="748" y="402.4" class="st1" width="16.5" height="28.5"/>
	<rect x="764.5" y="402.4" class="st1" width="16.3" height="28.5"/>
	<rect x="648.3" y="402.4" class="st1" width="16.4" height="28.5"/>
	<rect x="731.9" y="402.4" class="st1" width="16.2" height="28.5"/>
	<path class="st1" d="M780.9,402.4v28.5h7.7c5.5-3.8,11.6-6.8,18-9v-19.6L780.9,402.4L780.9,402.4z"/>
	<rect x="664.7" y="402.4" class="st1" width="16.2" height="28.5"/>
	<rect x="680.9" y="402.4" class="st1" width="16.5" height="28.5"/>
	<rect x="697.4" y="402.4" class="st1" width="16.5" height="28.5"/>
	<rect x="713.9" y="402.4" class="st1" width="18" height="28.5"/>
	<polygon class="st1" points="1112.3,424.8 1091.8,445.3 1099.9,453.4 1120.4,432.8 	"/>
	<polygon class="st1" points="1120.4,432.8 1099.9,453.4 1107.1,460.6 1128.1,440.5 	"/>
	<polygon class="st1" points="1104.2,416.7 1083.7,437.2 1091.8,445.3 1112.3,424.8 	"/>
	<polygon class="st1" points="1095.7,408.2 1077.4,426.6 1077.4,430.9 1083.7,437.2 1104.2,416.7 	"/>
	<polygon class="st1" points="1128.1,440.5 1107.1,460.6 1115,468.5 1136,448.4 	"/>
	<polygon class="st1" points="1159.6,471.9 1138.5,492 1145.2,498.7 1148.4,498.7 1167.4,479.7 	"/>
	<polygon class="st1" points="1143.8,456.1 1122.7,476.3 1138.5,492 1159.6,471.9 	"/>
	<polygon class="st1" points="1136,448.4 1115,468.5 1122.7,476.3 1143.8,456.1 	"/>
	
		<rect x="1289.1" y="542.3" transform="matrix(0.7071 -0.7071 0.7071 0.7071 -16.7411 1080.9463)" class="st1" width="14.7" height="36.8"/>
	<polygon class="st1" points="1348,659.5 1348,659.5 1347.7,659.3 	"/>
	<polygon class="st1" points="1295.5,607.3 1274.1,628.7 1286.8,641.3 1308.2,619.9 	"/>
	<polygon class="st1" points="1315.9,627.6 1294.5,649 1302.4,656.9 1323.8,635.5 	"/>
	<polygon class="st1" points="1308.2,619.9 1286.8,641.3 1294.5,649 1315.9,627.6 	"/>
	<polygon class="st1" points="1331.8,643.4 1323.8,635.5 1302.4,656.9 1310.4,664.9 	"/>
	<polygon class="st1" points="1342.9,647.5 1339.4,651 1317.9,672.4 1326.5,681 1348,659.5 1351.5,656 	"/>
	<polygon class="st1" points="1335.3,639.9 1331.8,643.4 1310.4,664.9 1317.9,672.4 1339.4,651 1342.9,647.5 	"/>
	<path class="st1" d="M1331.8,643.4L1331.8,643.4L1331.8,643.4z"/>
	<polygon class="st1" points="1262.8,348.3 1234.5,320.1 1180.8,372.8 1209.5,401.6 1226.9,384.2 1226.9,384.2 	"/>
	<polygon class="st1" points="1164,389.2 1192.9,418.2 1209.5,401.6 1180.8,372.8 	"/>
	<polygon class="st1" points="1262.8,348.3 1226.9,384.2 1265.1,422.5 1301.1,386.5 	"/>
	<polygon class="st1" points="1301.1,386.5 1265.1,422.5 1291.5,448.9 1327.6,412.9 	"/>
	<polygon class="st1" points="1327.6,412.9 1291.5,448.9 1318.4,475.8 1354.5,439.7 	"/>
	<polygon class="st1" points="1354.5,439.7 1318.4,475.8 1344.8,502.2 1380.9,466 	"/>
	<polygon class="st1" points="1226.9,384.2 1226.9,384.2 1262.8,348.3 	"/>
	<path class="st1" d="M1367,555.9c-2.9,0-5.6-0.7-8-1.8l-7.5,7.5l-5.6-5.6l-21.8,21.8l6.8,6.8l-5,5l24.8,24.8l15.5-15.5l26.9,26.9
		l3.9-3.9l1.6,1.6l20.6-20.6l-47.7-47.6C1370,555.7,1368.5,555.9,1367,555.9z"/>
	<path class="st1" d="M1401.3,486.3l-32.5,32.5c9.4,0.9,16.8,8.9,16.8,18.5c0,8.7-6,16.1-14.1,18.1l47.7,47.6l49.6-49.6
		L1401.3,486.3z"/>
	<path class="st1" d="M1368.9,518.7l32.5-32.5l-20.4-20.3l-36.2,36.2l17.2,17.2c1.6-0.4,3.3-0.7,5-0.7
		C1367.6,518.7,1368.2,518.7,1368.9,518.7z"/>
	<polygon class="st1" points="1263.1,568.2 1259.7,571.6 1236.9,594.3 1236.9,599.2 1258.2,620.5 1262.8,620.5 1285.8,597.6 
		1289.2,594.2 	"/>
	
		<rect x="1273" y="555.2" transform="matrix(0.7071 -0.7071 0.7071 0.7071 -29.6057 1075.7175)" class="st1" width="21.5" height="36.8"/>
	<polygon class="st1" points="1351.5,656 1342.5,665 1326.6,680.9 1333.8,688.1 1349.7,672.2 1358.7,663.3 	"/>
	
		<rect x="1336.4" y="677.7" transform="matrix(0.7071 -0.7071 0.7071 0.7071 -90.3873 1153.871)" class="st1" width="22.5" height="16.6"/>
	
		<rect x="1348.3" y="689.4" transform="matrix(0.7072 -0.707 0.707 0.7072 -95.3435 1165.5089)" class="st1" width="22.5" height="16.9"/>
	<polygon class="st1" points="1269,800.6 1223.6,846 1235.5,857.8 1280.8,812.4 	"/>
	<polygon class="st1" points="1244.4,776 1199.1,821.5 1223.6,846 1269,800.6 	"/>
	<polygon class="st1" points="1280.8,812.4 1235.5,857.8 1247.1,869.5 1292.5,824.1 	"/>
	
		<rect x="1253.5" y="840.3" transform="matrix(0.7071 -0.7071 0.7071 0.7071 -233.3855 1161.6492)" class="st1" width="64.2" height="44.5"/>
	
		<rect x="1282.5" y="880.9" transform="matrix(0.7071 -0.7071 0.7071 0.7071 -251.1519 1185.0188)" class="st1" width="44.7" height="29.6"/>
	<polygon class="st1" points="1331.2,890.4 1299.6,921.9 1391.9,1014.3 1423.5,982.7 1363.4,922.6 	"/>
	<polygon class="st1" points="1545.6,860.7 1518.4,833.4 1531.4,820.4 1507.9,796.9 1516,788.7 1506.6,779.3 1408.7,877.2 
		1468.9,937.4 	"/>
	
		<rect x="1413" y="875.5" transform="matrix(0.7071 -0.7071 0.7071 0.7071 -230.8575 1278.6815)" class="st1" width="30.2" height="85.1"/>
	
		<rect x="1388.5" y="898.1" transform="matrix(0.7071 -0.7071 0.7071 0.7071 -253.5281 1269.3099)" class="st1" width="33.9" height="85.1"/>
	<polygon class="st1" points="1189.6,501.8 1168.6,522.8 1193.3,547.5 1214.3,526.4 	"/>
	<polygon class="st1" points="1240.6,552.6 1225.9,537.9 1204.8,559 1219.5,573.7 	"/>
	<polygon class="st1" points="1214.3,526.4 1193.3,547.5 1204.8,559 1225.9,537.9 	"/>
	<path class="st1" d="M1067.8,475.5c4.2,9.4,13.8,14.2,21.5,10.8l-7.6-17L1067.8,475.5z"/>
	<path class="st1" d="M1074.2,452.3c-7.7,3.4-10.5,13.8-6.3,23.2l13.9-6.2L1074.2,452.3z"/>
	<path class="st1" d="M1074.2,452.3l7.6,17l13.9-6.2C1091.4,453.7,1081.8,448.9,1074.2,452.3z"/>
	<path class="st1" d="M1089.3,486.3c7.7-3.4,10.5-13.8,6.3-23.2l-13.9,6.2L1089.3,486.3z"/>
	<path class="st1" d="M1043.5,562.3c9.4,4.2,19.8,1.4,23.2-6.3l-17-7.6L1043.5,562.3z"/>
	<path class="st1" d="M1032.7,540.9c-3.4,7.7,1.4,17.3,10.8,21.5l6.2-13.9L1032.7,540.9z"/>
	<path class="st1" d="M1032.7,540.9l17,7.6l6.2-13.9C1046.5,530.4,1036.1,533.2,1032.7,540.9z"/>
	<path class="st1" d="M1066.7,556c3.4-7.7-1.4-17.3-10.8-21.5l-6.2,13.9L1066.7,556z"/>
	<path class="st1" d="M1075.9,594.1c9.5,4,19.8,1,23.1-6.7l-17.1-7.3L1075.9,594.1z"/>
	<path class="st1" d="M1064.8,572.8c-3.3,7.7,1.7,17.3,11.2,21.3l6-14L1064.8,572.8z"/>
	<path class="st1" d="M1064.8,572.8l17.1,7.3l6-14C1078.4,562,1068.1,565,1064.8,572.8z"/>
	<path class="st1" d="M1099,587.4c3.3-7.7-1.7-17.3-11.2-21.3l-6,14L1099,587.4z"/>
	<path class="st1" d="M1122.9,532.1c4.3,9.3,14,14.1,21.6,10.6l-7.8-16.9L1122.9,532.1z"/>
	<path class="st1" d="M1129,508.8c-7.6,3.5-10.4,13.9-6.1,23.3l13.8-6.3l13.8-6.3C1146.3,510,1136.6,505.3,1129,508.8z"/>
	<path class="st1" d="M1144.5,542.7c7.6-3.5,10.4-13.9,6.1-23.3l-13.8,6.3L1144.5,542.7z"/>
	<rect x="1053.5" y="203.2" class="st1" width="27.1" height="30.5"/>
	<polygon class="st1" points="1134.1,279.2 1164,249.2 1140.2,225.4 1111.4,254.2 1103.5,254.2 1103.5,299.3 1114,299.3 	"/>
	<polygon class="st1" points="1140.2,225.4 1116.4,201.6 1103,214.9 1091.4,203.2 1080.6,203.2 1080.6,233.7 1103.5,233.7 
		1103.5,254.2 1111.4,254.2 	"/>
	<polygon class="st1" points="1134.1,279.2 1114,299.3 1103.5,299.3 1103.5,324.9 1112.9,334.3 1151.1,296.1 	"/>
	
		<rect x="1113.4" y="311.7" transform="matrix(0.7071 -0.7071 0.7071 0.7071 105.1702 901.159)" class="st1" width="54" height="23.9"/>
	<rect x="1046.4" y="242.7" class="st1" width="34.2" height="29"/>
	<rect x="946.1" y="452.3" class="st1" width="7.8" height="10"/>
	<rect x="946.1" y="439.1" class="st1" width="7.8" height="13.2"/>
	<rect x="921.7" y="452.3" class="st1" width="8.1" height="10"/>
	<rect x="921.7" y="439.1" class="st1" width="8.1" height="13.2"/>
	<rect x="929.7" y="452.3" class="st1" width="8.2" height="10"/>
	<rect x="929.7" y="439.1" class="st1" width="8.2" height="13.2"/>
	<rect x="937.9" y="452.3" class="st1" width="8.2" height="10"/>
	<rect x="937.9" y="439.1" class="st1" width="8.2" height="13.2"/>
	<rect x="986.7" y="452.3" class="st1" width="7.8" height="10"/>
	<rect x="986.7" y="439.1" class="st1" width="7.8" height="13.2"/>
	<rect x="962.3" y="452.3" class="st1" width="8.1" height="10"/>
	<rect x="962.3" y="439.1" class="st1" width="8.1" height="13.2"/>
	<rect x="970.4" y="452.3" class="st1" width="8.2" height="10"/>
	<rect x="970.4" y="439.1" class="st1" width="8.2" height="13.2"/>
	<rect x="978.5" y="452.3" class="st1" width="8.2" height="10"/>
	<rect x="978.5" y="439.1" class="st1" width="8.2" height="13.2"/>
	<rect x="921.8" y="527.7" class="st1" width="7.8" height="10.7"/>
	<rect x="921.8" y="538.5" class="st1" width="7.8" height="10"/>
	<rect x="946" y="527.7" class="st1" width="8.1" height="10.7"/>
	<rect x="946" y="538.5" class="st1" width="8.1" height="10"/>
	<rect x="937.8" y="527.7" class="st1" width="8.2" height="10.7"/>
	<rect x="937.8" y="538.5" class="st1" width="8.2" height="10"/>
	<rect x="954.1" y="497.2" class="st1" width="8.1" height="8.4"/>
	<rect x="954.1" y="505.6" class="st1" width="8.1" height="7.8"/>
	<rect x="945.9" y="497.2" class="st1" width="8.2" height="8.4"/>
	<rect x="945.9" y="505.6" class="st1" width="8.2" height="7.8"/>
	<rect x="954.1" y="476.4" class="st1" width="8.1" height="8.4"/>
	<rect x="954.1" y="484.8" class="st1" width="8.1" height="7.8"/>
	<rect x="945.9" y="476.4" class="st1" width="8.2" height="8.4"/>
	<rect x="945.9" y="484.8" class="st1" width="8.2" height="7.8"/>
	<rect x="914.7" y="497.2" class="st1" width="8.1" height="8.4"/>
	<rect x="914.7" y="505.6" class="st1" width="8.1" height="7.8"/>
	<rect x="906.5" y="497.2" class="st1" width="8.2" height="8.4"/>
	<rect x="906.5" y="505.6" class="st1" width="8.2" height="7.8"/>
	<rect x="914.7" y="476.4" class="st1" width="8.1" height="8.4"/>
	<rect x="914.7" y="484.8" class="st1" width="8.1" height="7.8"/>
	<rect x="906.5" y="476.4" class="st1" width="8.2" height="8.4"/>
	<rect x="906.5" y="484.8" class="st1" width="8.2" height="7.8"/>
	<rect x="929.6" y="527.7" class="st1" width="8.2" height="10.7"/>
	<rect x="929.6" y="538.5" class="st1" width="8.2" height="10"/>
	<rect x="962.3" y="527.7" class="st1" width="7.8" height="10.7"/>
	<rect x="962.3" y="538.5" class="st1" width="7.8" height="10"/>
	<rect x="986.4" y="527.7" class="st1" width="7.2" height="10.7"/>
	<rect x="986.4" y="538.5" class="st1" width="7.2" height="10"/>
	<rect x="978.2" y="527.7" class="st1" width="8.2" height="10.7"/>
	<rect x="978.2" y="538.5" class="st1" width="8.2" height="10"/>
	<rect x="970" y="527.7" class="st1" width="8.2" height="10.7"/>
	<rect x="970" y="538.5" class="st1" width="8.2" height="10"/>
	<rect x="1000.7" y="527.7" class="st1" width="12.8" height="20.7"/>
	<rect x="1001.2" y="439.1" class="st1" width="12.8" height="23.2"/>
	<rect x="927.4" y="476.4" class="st1" width="12.8" height="16.2"/>
	<rect x="927.3" y="497.2" class="st1" width="12.8" height="16.2"/>
	<path class="st1" d="M898.4,527.7c-2.1,4.2-4.7,8.2-7.5,11.9v8.8h22.7v-20.7H898.4z"/>
	<path class="st1" d="M890.9,440.3v7.1c3.3,4.2,6.1,8.8,8.4,13.7h14.3v-20.7H890.9z"/>
	<rect x="712.7" y="456.1" class="st1" width="17.8" height="27.2"/>
	<rect x="730.5" y="456.1" class="st1" width="17.5" height="27.2"/>
	<rect x="726" y="531.7" class="st1" width="11.7" height="14"/>
	<rect x="737.7" y="531.7" class="st1" width="10.9" height="14"/>
	<rect x="748.6" y="531.7" class="st1" width="10.1" height="14"/>
	<path class="st1" d="M765.7,531.7h-7v14h17.6C772.3,541.5,768.7,536.8,765.7,531.7z"/>
	<path class="st1" d="M755.4,493.5c0-3.5,0.3-6.9,0.7-10.3h-25.5v48.5h35.2C759.2,520.5,755.4,507.5,755.4,493.5z"/>
	<path class="st1" d="M765.3,456.1H748v27.2h8C757.4,473.5,760.6,464.3,765.3,456.1z"/>
	<rect x="712.7" y="483.2" class="st1" width="17.8" height="12"/>
	<rect x="712.7" y="495.2" class="st1" width="17.8" height="12.2"/>
	<rect x="712.7" y="507.5" class="st1" width="17.8" height="11.9"/>
	<rect x="712.7" y="519.4" class="st1" width="17.8" height="12.3"/>
	<rect x="712.7" y="531.7" class="st1" width="13.3" height="14"/>
	<polygon class="st1" points="624.7,476.6 686.7,476.6 686.7,511.4 634.2,511.4 625.5,502.7 	"/>
	<rect x="624.7" y="456.1" class="st1" width="11.4" height="20.5"/>
	<rect x="636" y="456.1" class="st1" width="12.3" height="20.5"/>
	<rect x="648.3" y="456" class="st1" width="10.2" height="20.6"/>
	<rect x="658.5" y="456" class="st1" width="12" height="20.6"/>
	
		<rect x="532.6" y="511.7" transform="matrix(0.7015 -0.7127 0.7127 0.7015 -206.4333 539.7405)" class="st1" width="16.9" height="9.1"/>
	
		<rect x="544.2" y="499.2" transform="matrix(0.7015 -0.7127 0.7127 0.7015 -193.814 544.7556)" class="st1" width="18.3" height="9.1"/>
	
		<rect x="557.5" y="487.2" transform="matrix(0.7015 -0.7127 0.7127 0.7015 -181.782 549.6047)" class="st1" width="15.3" height="9.2"/>
	
		<rect x="567.9" y="475.4" transform="matrix(0.7015 -0.7127 0.7127 0.7015 -169.8808 554.3596)" class="st1" width="17.9" height="9.2"/>
	<rect x="670.5" y="456.1" class="st1" width="10.3" height="20.5"/>
	<rect x="680.9" y="456.1" class="st1" width="10.2" height="20.5"/>
	<rect x="691" y="456.1" class="st1" width="10.3" height="20.5"/>
	<rect x="686.7" y="477.5" class="st1" width="14.7" height="12.1"/>
	<rect x="634.2" y="511.4" class="st1" width="14.1" height="22.2"/>
	<rect x="648.3" y="511.4" class="st1" width="16.4" height="22.2"/>
	<rect x="664.7" y="511.4" class="st1" width="16.2" height="22.2"/>
	<rect x="680.9" y="511.4" class="st1" width="20.5" height="22.2"/>
	<rect x="687.5" y="501.4" class="st1" width="13.8" height="10"/>
	<rect x="687.5" y="489.5" class="st1" width="13.8" height="11.8"/>
	<rect x="636" y="541.9" class="st1" width="16.2" height="10.3"/>
	<rect x="617" y="533.6" class="st1" width="10.3" height="6.6"/>
	
		<rect x="624.6" y="507.1" transform="matrix(0.7018 -0.7123 0.7123 0.7018 -176.3078 599.6404)" class="st1" width="7.1" height="6.6"/>
	<rect x="652.2" y="541.9" class="st1" width="14.7" height="10.3"/>
	<rect x="666.9" y="541.9" class="st1" width="14.2" height="10.3"/>
	<rect x="681.1" y="541.9" class="st1" width="16.2" height="10.3"/>
	<rect x="681.1" y="552.2" class="st1" width="16.2" height="9"/>
	<rect x="666.9" y="552.2" class="st1" width="14.2" height="9"/>
	<rect x="652.2" y="552.2" class="st1" width="14.7" height="9"/>
	<rect x="636" y="552.2" class="st1" width="16.2" height="9"/>
	
		<rect x="560.7" y="585.4" transform="matrix(0.7061 -0.7081 0.7081 0.7061 -251.0114 577.079)" class="st1" width="18.1" height="11.1"/>
	
		<rect x="573.7" y="573.1" transform="matrix(0.7061 -0.7081 0.7081 0.7061 -238.7617 582.0882)" class="st1" width="16.4" height="11.1"/>
	
		<rect x="585.3" y="561.8" transform="matrix(0.7061 -0.7081 0.7081 0.7061 -227.3515 586.817)" class="st1" width="15.9" height="11.1"/>
	
		<rect x="596.3" y="549.6" transform="matrix(0.7061 -0.7082 0.7082 0.7061 -215.2088 591.8646)" class="st1" width="18.2" height="11.1"/>
	
		<rect x="603.6" y="557.6" transform="matrix(0.7061 -0.7081 0.7081 0.7061 -218.2357 599.1235)" class="st1" width="18.1" height="9.7"/>
	
		<rect x="592.7" y="569.7" transform="matrix(0.7061 -0.7081 0.7081 0.7061 -230.3047 594.1509)" class="st1" width="15.9" height="9.7"/>
	<polygon class="st1" points="591.6,576.8 580,588.4 567.3,601.2 574.1,608 586.9,595.2 598.4,583.6 	"/>
	<rect x="749.9" y="374.6" class="st1" width="10.5" height="22.3"/>
	<rect x="760.4" y="374.6" class="st1" width="18.7" height="22.3"/>
	<rect x="779" y="374.6" class="st1" width="28.8" height="20.5"/>
	<rect x="1001.2" y="373.9" class="st1" width="9.8" height="23.2"/>
	<rect x="1001.2" y="357.2" class="st1" width="9.8" height="16.7"/>
	<rect x="1011" y="357.2" class="st1" width="11" height="19"/>
	<rect x="1011" y="376.2" class="st1" width="11" height="20.8"/>
	
		<rect x="1096" y="492.9" transform="matrix(0.6986 -0.7156 0.7156 0.6986 -23.478 937.3937)" class="st1" width="9.7" height="7.3"/>
	
		<rect x="1102.8" y="485.9" transform="matrix(0.6985 -0.7156 0.7156 0.6985 -16.3929 940.1946)" class="st1" width="9.7" height="7.3"/>
	
		<rect x="1101.3" y="498.1" transform="matrix(0.6986 -0.7156 0.7156 0.6986 -25.5834 942.73)" class="st1" width="9.7" height="7.3"/>
	
		<rect x="1108" y="491.1" transform="matrix(0.6986 -0.7156 0.7156 0.6986 -18.5279 945.4465)" class="st1" width="9.7" height="7.3"/>
	
		<rect x="1106.4" y="503.1" transform="matrix(0.6985 -0.7156 0.7156 0.6985 -27.5945 948.0155)" class="st1" width="9.7" height="7.3"/>
	
		<rect x="1113.2" y="496.1" transform="matrix(0.6985 -0.7156 0.7156 0.6985 -20.5367 950.7361)" class="st1" width="9.7" height="7.3"/>
	
		<rect x="1103.5" y="610.1" transform="matrix(0.6986 -0.7155 0.7155 0.6986 -106.216 977.2214)" class="st1" width="6.7" height="9.1"/>
	
		<rect x="1108.2" y="605.3" transform="matrix(0.6984 -0.7157 0.7157 0.6984 -101.2473 979.5055)" class="st1" width="6.7" height="9.1"/>
	
		<rect x="1110.1" y="616.5" transform="matrix(0.6985 -0.7156 0.7156 0.6985 -108.7246 984.0405)" class="st1" width="6.7" height="9.1"/>
	
		<rect x="1114.8" y="611.7" transform="matrix(0.6987 -0.7154 0.7154 0.6987 -103.9805 985.608)" class="st1" width="6.7" height="9.1"/>
	
		<rect x="1116.6" y="622.9" transform="matrix(0.6985 -0.7156 0.7156 0.6985 -111.3627 990.5858)" class="st1" width="6.7" height="9.1"/>
	
		<rect x="1121.2" y="618.1" transform="matrix(0.6986 -0.7155 0.7155 0.6986 -106.5743 992.3199)" class="st1" width="6.7" height="9.1"/>
	
		<rect x="1115.6" y="598.2" transform="matrix(0.6985 -0.7156 0.7156 0.6985 -93.9506 982.4652)" class="st1" width="6.7" height="9.1"/>
	
		<rect x="1120.3" y="593.4" transform="matrix(0.6985 -0.7156 0.7156 0.6985 -89.1166 984.366)" class="st1" width="6.7" height="9.1"/>
	
		<rect x="1122.3" y="604.5" transform="matrix(0.6984 -0.7157 0.7157 0.6984 -96.4007 989.3501)" class="st1" width="6.7" height="9.1"/>
	
		<rect x="1126.8" y="599.8" transform="matrix(0.6985 -0.7156 0.7156 0.6985 -91.7082 990.969)" class="st1" width="6.7" height="9.1"/>
	
		<rect x="1128.7" y="610.9" transform="matrix(0.6986 -0.7155 0.7155 0.6986 -99.1859 995.5012)" class="st1" width="6.7" height="9.1"/>
	
		<rect x="1133.4" y="606.1" transform="matrix(0.6985 -0.7156 0.7156 0.6985 -94.3061 997.5677)" class="st1" width="6.7" height="9.1"/>
	
		<rect x="1127.4" y="634.1" transform="matrix(0.6986 -0.7156 0.7156 0.6986 -116.1768 1001.632)" class="st1" width="6.7" height="9.1"/>
	
		<rect x="1132" y="629.3" transform="matrix(0.6985 -0.7156 0.7156 0.6985 -111.2639 1003.575)" class="st1" width="6.7" height="9.1"/>
	
		<rect x="1134" y="640.4" transform="matrix(0.6985 -0.7156 0.7156 0.6985 -118.6504 1008.3325)" class="st1" width="6.7" height="9.1"/>
	
		<rect x="1138.6" y="635.6" transform="matrix(0.6984 -0.7157 0.7157 0.6984 -113.7634 1010.407)" class="st1" width="6.7" height="9.1"/>
	
		<rect x="1140.5" y="646.9" transform="matrix(0.6986 -0.7156 0.7156 0.6986 -121.3655 1014.8359)" class="st1" width="6.7" height="9.1"/>
	
		<rect x="1145.1" y="642" transform="matrix(0.6986 -0.7155 0.7155 0.6986 -116.4984 1016.6039)" class="st1" width="6.7" height="9.1"/>
	
		<rect x="1139.5" y="620.9" transform="matrix(0.6986 -0.7155 0.7155 0.6986 -103.0561 1006.2224)" class="st1" width="6.7" height="9.1"/>
	
		<rect x="1144.2" y="616.1" transform="matrix(0.6984 -0.7157 0.7157 0.6984 -98.0807 1008.5159)" class="st1" width="6.7" height="9.1"/>
	
		<rect x="1146" y="627.3" transform="matrix(0.6983 -0.7158 0.7158 0.6983 -105.5011 1013.3416)" class="st1" width="6.7" height="9.1"/>
	
		<rect x="1150.7" y="622.5" transform="matrix(0.6986 -0.7155 0.7155 0.6986 -100.8155 1014.7231)" class="st1" width="6.7" height="9.1"/>
	
		<rect x="1152.6" y="633.6" transform="matrix(0.6984 -0.7157 0.7157 0.6984 -108.1055 1019.8226)" class="st1" width="6.7" height="9.1"/>
	
		<rect x="1157.3" y="628.9" transform="matrix(0.6986 -0.7156 0.7156 0.6986 -103.4468 1021.4517)" class="st1" width="6.7" height="9.1"/>
	
		<rect x="1170.8" y="624.2" transform="matrix(0.6986 -0.7156 0.7156 0.6986 -95.1493 1031.6598)" class="st1" width="12.2" height="9.1"/>
	
		<rect x="1179.3" y="615.4" transform="matrix(0.6987 -0.7154 0.7154 0.6987 -86.3606 1034.817)" class="st1" width="12.2" height="9.1"/>
	
		<rect x="1156.4" y="610.6" transform="matrix(0.6986 -0.7156 0.7156 0.6986 -89.732 1017.2954)" class="st1" width="12.2" height="9.1"/>
	
		<rect x="1164.9" y="601.8" transform="matrix(0.6986 -0.7155 0.7155 0.6986 -80.8959 1020.6242)" class="st1" width="12.2" height="9.1"/>
	
		<rect x="1143.7" y="597" transform="matrix(0.6986 -0.7156 0.7156 0.6986 -83.8653 1004.1078)" class="st1" width="12.2" height="9.1"/>
	
		<rect x="1152.3" y="588.2" transform="matrix(0.6987 -0.7154 0.7154 0.6987 -75.0535 1007.3051)" class="st1" width="12.2" height="9.1"/>
	
		<rect x="1130.6" y="583.2" transform="matrix(0.6985 -0.7156 0.7156 0.6985 -77.9029 990.6522)" class="st1" width="12.2" height="9.1"/>
	
		<rect x="1139.2" y="574.5" transform="matrix(0.6987 -0.7154 0.7154 0.6987 -69.1967 993.7856)" class="st1" width="12.2" height="9.1"/>
	
		<rect x="1140.6" y="406.9" transform="matrix(0.6985 -0.7156 0.7156 0.6985 51.5032 945.4507)" class="st1" width="14.4" height="9.4"/>
	
		<rect x="1147.3" y="413.5" transform="matrix(0.6984 -0.7157 0.7157 0.6984 48.9215 952.367)" class="st1" width="14.4" height="9.4"/>
	
		<rect x="1111.4" y="394.8" transform="matrix(0.6985 -0.7156 0.7156 0.6985 42.154 923.5397)" class="st1" width="11.5" height="34"/>
	
		<rect x="1153.9" y="420" transform="matrix(0.6985 -0.7156 0.7156 0.6985 46.1343 958.9228)" class="st1" width="14.4" height="9.4"/>
	
		<rect x="1169.4" y="435.7" transform="matrix(0.6985 -0.7156 0.7156 0.6985 39.9505 974.5951)" class="st1" width="14.4" height="8.4"/>
	
		<rect x="1175.6" y="441.4" transform="matrix(0.6985 -0.7156 0.7156 0.6985 37.712 980.8066)" class="st1" width="14.4" height="8.4"/>
	
		<rect x="1181.6" y="447.4" transform="matrix(0.6985 -0.7156 0.7156 0.6985 35.2631 986.832)" class="st1" width="14.4" height="8.4"/>
	<polygon class="st1" points="1139.4,413.5 1133.2,419.4 1108.9,395.7 1115.5,389.2 	"/>
	<polygon class="st1" points="929.7,375.2 946.1,375.2 946.1,357.2 929.7,357.2 929.7,371.4 	"/>
	<polygon class="st1" points="913,371.4 929.7,371.4 929.7,357.2 913,357.2 913,366.7 	"/>
	<polygon class="st1" points="984.4,375.2 994.5,375.2 994.5,357.2 980.7,357.2 980.7,375.2 	"/>
	<polygon class="st1" points="974.5,375.2 980.7,375.2 980.7,357.2 971.2,357.2 971.2,375.2 	"/>
	<polygon class="st1" points="956.2,375.2 964.4,375.2 971.2,375.2 971.2,357.2 958.1,357.2 958.1,374.6 958.1,357.2 946.1,357.2 
		946.1,375.2 	"/>
	<polygon class="st1" points="913,366.7 913,357.2 881.7,357.2 870.1,368.8 871,395.7 886.5,395.7 886.5,366.7 	"/>
	<rect x="984.4" y="375.2" class="st1" width="10.1" height="20.5"/>
	<polygon class="st1" points="980.7,375.2 974.5,375.2 974.5,395.7 984.4,395.7 984.4,375.2 	"/>
	<polygon class="st1" points="946.1,375.2 929.7,375.2 929.7,371.4 913,371.4 913,366.7 886.5,366.7 886.5,395.7 956.2,395.7 
		956.2,375.2 	"/>
	<polygon class="st1" points="971.2,375.2 964.4,375.2 964.4,395.7 974.5,395.7 974.5,375.2 	"/>
	<rect x="956.2" y="375.2" class="st1" width="8.2" height="20.5"/>
	<polygon class="st1" points="1250.9,477.5 1251.2,477.2 1264.4,464 1297.1,496.8 1283.8,510.1 	"/>
	<polygon class="st1" points="1283.8,510.1 1309.6,484.3 1322.7,497.5 1297.3,523 	"/>
	<polygon class="st1" points="1264.4,464 1297.1,496.8 1309.6,484.3 1276.5,451.7 	"/>
	<polygon class="st1" points="1312.5,521.4 1330.5,503.4 1334.5,512.4 1321.7,529.4 	"/>
	<polygon class="st1" points="1125.2,427.6 1171.9,474.7 1186.8,459.8 1139.4,413.5 	"/>
	<path class="st1" d="M1080.6,308.3v-36.6h-34.2v46.5C1057.4,311,1069.4,307.5,1080.6,308.3z"/>
	<path class="st1" d="M1085.7,371.1c0-4.3-1.8-8.2-4.7-11l-13.6,26.2c0.9,0.2,1.9,0.3,2.9,0.3
		C1078.8,386.5,1085.7,379.6,1085.7,371.1z"/>
	<path class="st1" d="M1046.4,318.2V203.2H782.5v49.2h14.3c0.2-5.7,0.4,0,0.4,0h-0.4c-0.1,4-0.3,13.9-0.3,35.7
		c0,52.3,40.7,54.2,40.7,54.2h184.7C1028.9,332.2,1037.3,324,1046.4,318.2z"/>
	<path class="st1" d="M796.8,252.4h0.4C797.2,252.4,797,246.7,796.8,252.4z"/>
	
		<rect x="795.9" y="485.3" transform="matrix(0.9111 -0.4123 0.4123 0.9111 -137.406 374.2432)" class="st1" width="5.5" height="40.6"/>
	
		<rect x="842.7" y="501.9" transform="matrix(0.3629 -0.9318 0.9318 0.3629 79.5417 1125.6775)" class="st1" width="40.5" height="5.5"/>
	<path class="st1" d="M828.9,452.2c-0.2,0-0.3,0-0.4-0.1C828.6,452.2,828.7,452.2,828.9,452.2z"/>
	<path class="st1" d="M827.5,452c-0.2,0-0.3-0.1-0.5-0.1C827.1,451.9,827.3,451.9,827.5,452z"/>
	<path class="st1" d="M826.1,451.6c-0.2-0.1-0.3-0.1-0.5-0.2C825.8,451.5,826,451.5,826.1,451.6z"/>
	<path class="st1" d="M824.8,451.1c-0.2-0.1-0.3-0.1-0.5-0.2C824.5,450.9,824.7,451,824.8,451.1z"/>
	<path class="st1" d="M836.3,450.9c-0.1,0-0.2,0.1-0.3,0.1C836.1,450.9,836.2,450.9,836.3,450.9z"/>
	<path class="st1" d="M835,451.4c-0.1,0-0.3,0.1-0.4,0.1C834.8,451.5,834.9,451.5,835,451.4z"/>
	<path class="st1" d="M823.6,450.4c-0.1-0.1-0.3-0.2-0.4-0.2C823.3,450.3,823.5,450.4,823.6,450.4z"/>
	<path class="st1" d="M833.7,451.8c-0.2,0-0.3,0.1-0.5,0.1C833.4,451.9,833.5,451.9,833.7,451.8z"/>
	<path class="st1" d="M832.2,452.1c-0.1,0-0.3,0.1-0.4,0.1C831.9,452.2,832.1,452.2,832.2,452.1z"/>
	<path class="st1" d="M822.4,449.6c-0.1-0.1-0.2-0.2-0.3-0.2C822.2,449.5,822.3,449.6,822.4,449.6z"/>
	<path class="st1" d="M821.2,448.6c0,0-0.1-0.1-0.1-0.1C821.1,448.6,821.2,448.6,821.2,448.6z"/>
	<path class="st1" d="M872.9,462.3c-10.1-4.2-20.3-6.5-29.9-7.6l-2.3-7.5l0,0c-1.2,1.5-2.7,2.8-4.4,3.7c-0.1,0-0.2,0.1-0.3,0.1
		c-0.3,0.2-0.7,0.3-1,0.4c-0.1,0-0.3,0.1-0.4,0.1c-0.3,0.1-0.6,0.2-1,0.3c-0.2,0-0.3,0.1-0.5,0.1c-0.3,0.1-0.7,0.1-1,0.2
		c-0.1,0-0.3,0.1-0.4,0.1c-0.5,0.1-1,0.1-1.5,0.1c-0.5,0-1,0-1.4-0.1c-0.2,0-0.3,0-0.4-0.1c-0.3,0-0.6-0.1-0.9-0.2
		c-0.2,0-0.3-0.1-0.5-0.1c-0.3-0.1-0.6-0.2-0.8-0.2c-0.2-0.1-0.3-0.1-0.5-0.2c-0.3-0.1-0.5-0.2-0.8-0.3c-0.2-0.1-0.3-0.1-0.5-0.2
		c-0.3-0.1-0.5-0.3-0.8-0.4c-0.1-0.1-0.3-0.2-0.4-0.2c-0.3-0.2-0.5-0.4-0.8-0.5c-0.1-0.1-0.2-0.2-0.3-0.2c-0.3-0.2-0.6-0.5-0.9-0.8
		c0,0-0.1-0.1-0.1-0.1c-0.3-0.3-0.6-0.7-0.9-1l-2.7,6.9c-17.5,1.4-29.6,5.6-29.6,5.6l11.9,31l-4.1,1.4l12.9,28.6l2.5-0.2l3.6,9.4
		h31.8l3.6-9.2h3.6l11.2-28.7l-3.2-1.1L872.9,462.3z"/>
	<path class="st1" d="M843.3,437.6c-0.8-6.5-6.3-11.5-13-11.5c-6.9,0-12.5,5.3-13.1,12.1c0,0.4-0.1,0.7-0.1,1.1c0,3.1,1.1,6,3,8.3
		c0.3,0.4,0.6,0.7,0.9,1c0,0,0.1,0.1,0.1,0.1c0.3,0.3,0.6,0.5,0.9,0.8c0.1,0.1,0.2,0.2,0.3,0.2c0.3,0.2,0.5,0.4,0.8,0.5
		c0.1,0.1,0.3,0.2,0.4,0.2c0.3,0.1,0.5,0.3,0.8,0.4c0.2,0.1,0.3,0.2,0.5,0.2c0.3,0.1,0.5,0.2,0.8,0.3c0.2,0.1,0.3,0.1,0.5,0.2
		c0.3,0.1,0.6,0.2,0.8,0.2c0.2,0,0.3,0.1,0.5,0.1c0.3,0.1,0.6,0.1,0.9,0.2c0.2,0,0.3,0.1,0.4,0.1c0.5,0.1,0.9,0.1,1.4,0.1
		c0.5,0,1,0,1.5-0.1c0.1,0,0.3,0,0.4-0.1c0.3,0,0.7-0.1,1-0.2c0.2,0,0.3-0.1,0.5-0.1c0.3-0.1,0.6-0.2,1-0.3c0.1,0,0.3-0.1,0.4-0.1
		c0.3-0.1,0.7-0.3,1-0.4c0.1,0,0.2-0.1,0.3-0.1c1.7-0.9,3.2-2.2,4.4-3.7c1.7-2.2,2.7-5,2.7-8C843.4,438.6,843.4,438.1,843.3,437.6z"
		/>
	<path class="st1" d="M831.8,452.2c-0.5,0.1-1,0.1-1.5,0.1C830.8,452.3,831.3,452.3,831.8,452.2z"/>
	<path class="st1" d="M836,451c-0.3,0.2-0.7,0.3-1,0.4C835.4,451.3,835.7,451.1,836,451z"/>
	<path class="st1" d="M834.6,451.6c-0.3,0.1-0.6,0.2-1,0.3C834,451.8,834.3,451.7,834.6,451.6z"/>
	<path class="st1" d="M825.6,451.4c-0.3-0.1-0.5-0.2-0.8-0.3C825.1,451.2,825.4,451.3,825.6,451.4z"/>
	<path class="st1" d="M823.2,450.2c-0.3-0.2-0.5-0.4-0.8-0.6C822.7,449.8,822.9,450,823.2,450.2z"/>
	<path class="st1" d="M822.1,449.4c-0.3-0.2-0.6-0.5-0.9-0.8C821.5,448.9,821.8,449.2,822.1,449.4z"/>
	<path class="st1" d="M824.4,450.9c-0.3-0.1-0.5-0.3-0.8-0.4C823.9,450.6,824.1,450.7,824.4,450.9z"/>
	<path class="st1" d="M827,451.9c-0.3-0.1-0.6-0.1-0.8-0.2C826.4,451.7,826.7,451.8,827,451.9z"/>
	<path class="st1" d="M820.2,447.5c0.3,0.4,0.6,0.7,0.9,1C820.8,448.2,820.5,447.8,820.2,447.5L820.2,447.5z"/>
	<path class="st1" d="M830.3,452.3c-0.5,0-1,0-1.4-0.1C829.3,452.3,829.8,452.3,830.3,452.3z"/>
	<path class="st1" d="M836.3,450.9c1.7-0.9,3.2-2.2,4.4-3.7C839.5,448.7,838,450,836.3,450.9z"/>
	<path class="st1" d="M828.4,452.1c-0.3,0-0.6-0.1-0.9-0.2C827.8,452,828.1,452.1,828.4,452.1z"/>
	
		<rect x="1174.4" y="659.8" transform="matrix(0.7089 -0.7053 0.7053 0.7089 -135.4846 1029.4779)" class="st1" width="10.1" height="38.1"/>
	
		<rect x="1230.1" y="602.9" transform="matrix(0.709 -0.7052 0.7052 0.709 -79.1472 1052.0389)" class="st1" width="10.1" height="38.1"/>
	<polygon class="st1" points="1113.8,577.9 1117.3,574.2 1107.5,564.4 1103.9,568 	"/>
	
		<rect x="1098.3" y="554.5" transform="matrix(0.7071 -0.7071 0.7071 0.7071 -74.524 942.8307)" class="st1" width="5.1" height="13.8"/>
	<polygon class="st1" points="1114.3,536.6 1110.8,540.3 1121.5,550.4 1125.1,546.8 	"/>
	<polygon class="st1" points="1134.4,555.5 1125.1,546.8 1121.5,550.4 1131,559.3 	"/>
	
		<rect x="1234.6" y="525" transform="matrix(0.7071 -0.7071 0.7071 0.7071 -13.2834 1037.3456)" class="st1" width="22" height="19.4"/>
	<polygon class="st1" points="1213.3,486.9 1199.5,500.8 1219.7,520.4 1233.3,506.9 	"/>
	<polygon class="st1" points="1233.3,506.9 1219.7,520.4 1226.4,527 1224.4,529 1230.9,535.6 1246.5,520 	"/>
	<polygon class="st1" points="1219.2,492.8 1229.3,482.7 1219.4,472.9 1209.3,483 	"/>
	
		<rect x="1239.5" y="484" transform="matrix(0.7071 -0.7071 0.7071 0.7071 4.4608 1031.0317)" class="st1" width="14.5" height="52.3"/>
	
		<rect x="1248.7" y="543.3" transform="matrix(0.7071 -0.7071 0.7071 0.7071 -21.8841 1047.5287)" class="st1" width="9.7" height="13.8"/>
	
		<rect x="1262.8" y="526.6" transform="matrix(0.7071 -0.7071 0.7071 0.7071 -5.2382 1054.3588)" class="st1" width="14.5" height="13.8"/>
	
		<rect x="1255.2" y="535.8" transform="matrix(0.7071 -0.7071 0.7071 0.7071 -14.4203 1050.5835)" class="st1" width="11.5" height="13.8"/>
	<path class="st1" d="M550.6,203.2h232v87.5l-3.5,3c0,0,0.5,57.9,28.8,80.8H716l-2.1-1.9h-59.6l-2.2,2.5h-26.4c0,0,1.6-9.1-3.2-32.2
		h-71.8L550.6,203.2L550.6,203.2z"/>
	<polygon class="st1" points="346.9,424.2 428.1,505.4 550.6,385.9 550.6,313.4 505.4,272.2 443.7,333.8 441.5,331.5 	"/>
	
		<rect x="547" y="565.7" transform="matrix(0.7071 -0.7071 0.7071 0.7071 -242.7242 561.6664)" class="st1" width="19.3" height="16.3"/>
	<polygon class="st1" points="567.7,551.2 557.7,561.2 569.2,572.7 583.5,558.4 576.4,551.2 	"/>
	<polygon class="st1" points="605.6,536.4 602.4,526.8 589.8,538.7 596.5,545.4 	"/>
	<polygon class="st1" points="589.8,538.7 576.5,551.2 576.4,551.2 583.5,558.4 596.5,545.4 	"/>
	<path class="st1" d="M1232.7,656c0,0,3.3-16-4.8-24.2c-8.2-8.2-25.8-6.4-25.8-6.4L1232.7,656z"/>
	<path class="st1" d="M1181.4,646c0,0-3.3,16.1,4.8,24.2c8.1,8.1,25.8,6.4,25.8,6.4L1181.4,646z"/>
	<polygon class="st1" points="1310.8,689.7 1295.5,674.8 1283.6,687.1 1298.9,701.5 	"/>
	<polygon class="st1" points="1310.8,689.7 1298.9,701.5 1311.7,713.6 1323.2,701.7 	"/>
	<polygon class="st1" points="1284.9,715.5 1297.7,728 1311.7,713.6 1298.9,701.5 	"/>
	<polygon class="st1" points="1242.4,727.5 1231,739.2 1245.9,753.6 1257.5,742.2 	"/>
	<polygon class="st1" points="1245.9,753.6 1258.7,766.1 1270.1,754.3 1257.5,742.2 	"/>
	<polygon class="st1" points="1272,727.9 1257.5,742.2 1270.1,754.3 1284.2,739.7 	"/>
	<polygon class="st1" points="1206.9,693.1 1196.2,704.1 1208.3,715.9 1219.2,704.9 	"/>
	<polygon class="st1" points="1234.2,690 1221.6,677.8 1206.9,693.1 1219.2,704.9 	"/>
	<polygon class="st1" points="1208.3,715.9 1223.9,731 1234.7,719.9 1219.2,704.9 	"/>
	<polygon class="st1" points="1246.7,654.6 1234.2,667.5 1247.2,680.1 1260.3,667.1 	"/>
	<polygon class="st1" points="1259.7,641.2 1246.7,654.6 1260.3,667.1 1275.1,680.8 1287.4,668.1 	"/>
	<path class="st1" d="M1298.9,701.5l-15.3-14.5l-2.1,2.2c2.3,3.8,3.7,8.4,3.7,13.2c0,3.9-0.9,7.7-2.5,11l2.2,2.1L1298.9,701.5z"/>
	<path class="st1" d="M1245.9,723.8l-3.5,3.6l15.2,14.7l14.4-14.3l-2.2-2.1c-3.1,1.3-6.5,2.1-10.1,2.1
		C1254.6,727.9,1249.9,726.4,1245.9,723.8z"/>
	<path class="st1" d="M1236.4,692.1l-2.2-2.1l-15,15l15.5,14.9l3.6-3.7c-2.5-4-4-8.7-4-13.8C1234.2,698.7,1235,695.2,1236.4,692.1z"
		/>
	<path class="st1" d="M1274.3,681.5l0.8-0.8l-14.8-13.7l-13.1,13.1l0,0c3.7-2.1,7.9-3.2,12.5-3.2
		C1265.2,676.9,1270.2,678.6,1274.3,681.5z"/>
	
		<rect x="1452.8" y="739.5" transform="matrix(0.7071 -0.7071 0.7071 0.7071 -98.0246 1250.29)" class="st1" width="14.8" height="8"/>
	
		<rect x="1459" y="745" transform="matrix(0.7071 -0.7071 0.7071 0.7071 -100.5608 1256.4155)" class="st1" width="14.8" height="9.3"/>
	
		<rect x="1464.9" y="751.8" transform="matrix(0.7071 -0.7071 0.7071 0.7071 -103.0065 1262.3209)" class="st1" width="14.8" height="7.4"/>
	
		<rect x="1445.7" y="730.1" transform="matrix(0.7071 -0.7071 0.7071 0.7071 -95.0459 1243.1041)" class="st1" width="14.8" height="12.3"/>
	
		<rect x="1487.9" y="774.7" transform="matrix(0.7071 -0.7071 0.7071 0.7071 -112.5465 1285.3529)" class="st1" width="14.8" height="7.7"/>
	
		<rect x="1470.4" y="756.9" transform="matrix(0.7071 -0.7071 0.7071 0.7071 -105.3121 1267.8839)" class="st1" width="14.8" height="8.3"/>
	
		<rect x="1482.1" y="768.4" transform="matrix(0.7071 -0.7071 0.7071 0.7071 -110.1519 1279.5719)" class="st1" width="14.8" height="8.7"/>
	
		<rect x="1476.2" y="762.8" transform="matrix(0.7071 -0.7071 0.7071 0.7071 -107.7065 1273.6658)" class="st1" width="14.8" height="8"/>
	<polygon class="st1" points="1371.6,707.9 1362.2,716.9 1371.6,726.3 1381.1,717.3 	"/>
	<polygon class="st1" points="1381.1,717.3 1371.6,726.3 1380.4,735.1 1390,726.3 	"/>
	<path class="st1" d="M1390,726.3l0.3-0.2L1390,726.3l11.3,11.3c0,0,5.8-5.8,10.9-10.9c3.8-3.8,7.2-7.2,7.2-7.2
		c0.3-0.3,3.6,3.6,3.6,3.6l13.6-13.6l-32.5-32.5l-32.5,31l9.4,9.4L1390,726.3z"/>
	<path class="st1" d="M1401.3,737.6l20.5,21.3l11.6-11.6l-21.2-20.5C1407.1,731.8,1401.3,737.6,1401.3,737.6z"/>
	<path class="st1" d="M1453.9,726.7l-17.3-17.3L1423,723c0,0-3.2-3.9-3.6-3.6c-0.1,0.1-3.4,3.4-7.2,7.2l21.2,20.5l10.1-10.1
		L1453.9,726.7z"/>
	<polygon class="st1" points="1390,726.3 1380.4,735.1 1392.1,746.8 1401.3,737.6 	"/>
	<polygon class="st1" points="1392.1,746.8 1413,767.7 1421.8,758.9 1401.3,737.6 	"/>
	
		<rect x="1418.1" y="641.1" transform="matrix(0.707 -0.7072 0.7072 0.707 -39.7586 1199.6652)" class="st1" width="19.7" height="13.4"/>
	<polyline class="st1" points="1431.7,653.7 1443.3,665.4 1451.5,657.3 1439.8,645.6 1431.3,654.1 	"/>
	
		<rect x="1505.4" y="666.7" transform="matrix(0.7071 -0.7071 0.7071 0.7071 -43.6457 1291.1597)" class="st1" width="62.6" height="63.1"/>
	
		<rect x="1439.2" y="608.8" transform="matrix(0.7071 -0.7071 0.7071 0.7071 -16.2146 1224.9465)" class="st1" width="62.6" height="46.4"/>
	<polygon class="st1" points="1470.6,587.8 1425.9,631.7 1432,637.8 1476.3,593.5 	"/>
	
		<rect x="1469.4" y="642.8" transform="matrix(0.7071 -0.7071 0.7071 0.7071 -28.726 1255.1267)" class="st1" width="62.6" height="38.9"/>
	
		<rect x="1599.2" y="720.2" transform="matrix(0.7071 -0.7071 0.7071 0.7071 -58.2946 1360.7256)" class="st1" width="28.4" height="61.1"/>
	<polygon class="st1" points="1601.8,719 1581.2,698.4 1536.9,742.7 1557.6,763.3 1581.8,739.1 	"/>
	
		<rect x="1574.1" y="742.3" transform="matrix(0.7071 -0.7071 0.7071 0.7071 -80.4279 1351.5367)" class="st1" width="34.2" height="61.1"/>
	<path class="st1" d="M1428.6,782.5l-4.6,4c2.3,6,5.7,10.7,9.2,14.2l7-7L1428.6,782.5z"/>
	<path class="st1" d="M1451.3,804.6l-11.2-10.9l-7,7c6.6,6.8,13.4,9.5,13.4,9.5L1451.3,804.6z"/>
	<polygon class="st1" points="1368.3,853.5 1364.4,857.4 1370.2,863.2 1374.1,859.4 	"/>
	<polygon class="st1" points="1362.1,847.3 1358.2,851.2 1364.4,857.4 1368.3,853.5 	"/>
	<polygon class="st1" points="1374.1,859.4 1370.2,863.2 1376.6,869.7 1380.5,865.8 	"/>
	<polygon class="st1" points="1386.4,871.8 1380.5,865.8 1376.6,869.7 1382.5,875.6 	"/>
	
		<rect x="1249.5" y="766.5" transform="matrix(0.7071 -0.7071 0.7071 0.7071 -179.1874 1111.865)" class="st1" width="6" height="11.5"/>
	
		<rect x="1225.5" y="742.3" transform="matrix(0.707 -0.7072 0.7072 0.707 -169.1621 1087.978)" class="st1" width="6" height="11.7"/>
	
		<rect x="1303.8" y="820.4" transform="matrix(0.7071 -0.7071 0.7071 0.7071 -201.6798 1166.1671)" class="st1" width="6" height="12.2"/>
	
		<rect x="1271.9" y="788.5" transform="matrix(0.7071 -0.7071 0.7071 0.7071 -188.4645 1134.2611)" class="st1" width="6" height="12.3"/>
	
		<rect x="1323.6" y="841.3" transform="matrix(0.707 -0.7072 0.7072 0.707 -209.8523 1186.1566)" class="st1" width="6" height="10"/>
	
		<rect x="1324" y="689.4" transform="matrix(0.7071 -0.7071 0.7071 0.7071 -102.7288 1141.9117)" class="st1" width="6" height="11.1"/>
	
		<rect x="1284.9" y="651" transform="matrix(0.7069 -0.7073 0.7073 0.7069 -86.4533 1103.2239)" class="st1" width="6" height="9.8"/>
	
		<rect x="1308.4" y="673.9" transform="matrix(0.7071 -0.7071 0.7071 0.7071 -96.2711 1126.3212)" class="st1" width="6" height="10.9"/>
	
		<rect x="1353.1" y="718.1" transform="matrix(0.7071 -0.7071 0.7071 0.7071 -114.8442 1171.0458)" class="st1" width="6" height="12.1"/>
	
		<rect x="1336.1" y="702" transform="matrix(0.7071 -0.7071 0.7071 0.7071 -107.7251 1154.0099)" class="st1" width="6" height="10.2"/>
	
		<rect x="1455.2" y="676.8" transform="matrix(0.7071 -0.7071 0.7071 0.7071 -53.4031 1234.8154)" class="st1" width="17.3" height="10.2"/>
	
		<rect x="1469.6" y="691.5" transform="matrix(0.7071 -0.7071 0.7071 0.7071 -59.4192 1249.2277)" class="st1" width="17.3" height="9.7"/>
	
		<rect x="1462.6" y="684" transform="matrix(0.7071 -0.7071 0.7071 0.7071 -56.3794 1242.1674)" class="st1" width="17.3" height="10.4"/>
	
		<rect x="1448.2" y="670" transform="matrix(0.7071 -0.7071 0.7071 0.7071 -50.473 1227.7935)" class="st1" width="17.3" height="9.6"/>
	
		<rect x="1491.1" y="712.5" transform="matrix(0.7071 -0.7071 0.7071 0.7071 -68.3242 1270.7224)" class="st1" width="17.3" height="10.6"/>
	
		<rect x="1476.6" y="698.1" transform="matrix(0.7071 -0.7071 0.7071 0.7071 -62.2737 1256.23)" class="st1" width="17.3" height="10.3"/>
	<polygon class="st1" points="1509.6,715.3 1497.3,727.5 1504.4,734.6 1511.3,727.7 1520.9,737.2 1526.2,732 	"/>
	
		<rect x="1483.8" y="705.4" transform="matrix(0.7071 -0.7071 0.7071 0.7071 -65.2049 1263.3613)" class="st1" width="17.3" height="10"/>
	
		<rect x="1296.5" y="740.1" transform="matrix(0.7069 -0.7073 0.7073 0.7069 -144.6717 1137.0193)" class="st1" width="6.3" height="6"/>
	
		<rect x="1284.3" y="726.7" transform="matrix(0.7072 -0.707 0.707 0.7072 -139.7062 1124.2162)" class="st1" width="6.3" height="8.2"/>
	<polygon class="st1" points="1278.4,717.2 1273.9,721.9 1275.5,723.2 1279.5,727.2 1283.9,722.8 	"/>
	
		<rect x="1340.2" y="780.7" transform="matrix(0.7071 -0.7071 0.7071 0.7071 -162.8372 1180.3229)" class="st1" width="6.3" height="12"/>
	
		<rect x="1328.2" y="770.7" transform="matrix(0.707 -0.7072 0.7072 0.707 -157.7293 1168.5015)" class="st1" width="6.3" height="7.9"/>
	
		<rect x="1300.9" y="744.2" transform="matrix(0.7072 -0.707 0.707 0.7072 -146.5488 1140.7742)" class="st1" width="6.3" height="6.2"/>
	
		<rect x="1342.3" y="804.8" transform="matrix(0.7072 -0.7071 0.7071 0.7072 -178.3135 1189.4026)" class="st1" width="8.8" height="10.4"/>
	
		<rect x="1335.8" y="811" transform="matrix(0.707 -0.7072 0.7072 0.707 -184.4815 1187.1448)" class="st1" width="9.3" height="10.4"/>
	
		<rect x="1322.9" y="796.7" transform="matrix(0.7071 -0.7071 0.7071 0.7071 -179.3699 1173.9889)" class="st1" width="9" height="13.6"/>
	
		<rect x="1329.1" y="790.4" transform="matrix(0.7071 -0.7071 0.7071 0.7071 -173.0552 1176.512)" class="st1" width="9.1" height="13.6"/>
	
		<rect x="1350.4" y="811.8" transform="matrix(0.7071 -0.7071 0.7071 0.7071 -181.6263 1197.5972)" class="st1" width="8.8" height="12.5"/>
	
		<rect x="1316.4" y="803.2" transform="matrix(0.7072 -0.7071 0.7071 0.7072 -185.8239 1171.2633)" class="st1" width="9.4" height="13.6"/>
	
		<rect x="1311.5" y="782.7" transform="matrix(0.7071 -0.7071 0.7071 0.7071 -171.9651 1165.1887)" class="st1" width="18.1" height="14.9"/>
	
		<rect x="1306.2" y="792.5" transform="matrix(0.7071 -0.7071 0.7071 0.7071 -181.6835 1161.2423)" class="st1" width="9.4" height="14.9"/>
	
		<rect x="1287.1" y="772.7" transform="matrix(0.7073 -0.707 0.707 0.7073 -173.7494 1141.786)" class="st1" width="9.4" height="16"/>
	<polygon class="st1" points="1320.5,828.9 1336.6,845.2 1343,838.8 1326.8,822.6 	"/>
	<polygon class="st1" points="1312.8,808.5 1312.8,808.5 1312.8,808.5 1302.2,798 1296.1,804.1 1316.1,824.4 1322.4,818.1 	"/>
	<polygon class="st1" points="1334.2,829.9 1340.8,823.3 1333.4,815.9 1326.8,822.6 1343,838.8 1349.6,832.1 1340.8,823.3 	"/>
	
		<rect x="1343.9" y="818.2" transform="matrix(0.7071 -0.7072 0.7072 0.7071 -187.9245 1195.182)" class="st1" width="9.3" height="12.5"/>
	
		<rect x="1275.8" y="761.9" transform="matrix(0.7071 -0.7071 0.7071 0.7071 -169.1934 1130.8342)" class="st1" width="9.4" height="15.4"/>
	
		<rect x="1292.3" y="763" transform="matrix(0.7071 -0.7071 0.7071 0.7071 -164.0471 1146.0128)" class="st1" width="18.1" height="16"/>
	
		<rect x="1281.1" y="752.2" transform="matrix(0.7071 -0.7071 0.7071 0.7071 -159.4785 1134.8582)" class="st1" width="18.1" height="15.4"/>
	<polygon class="st1" points="1282.6,778.4 1282.6,778.4 1282.6,778.4 1271.8,767.5 1265.9,773.4 1287.9,795.8 1293.9,789.7 	"/>
	<polygon class="st1" points="1386.2,779.2 1378.2,771.2 1371.6,777.8 1379.6,785.8 1392.5,773 1384.4,764.9 1378.2,771.2 	"/>
	<polygon class="st1" points="1364.2,757.2 1364.2,757.2 1364.2,757.2 1373.8,766.7 1380,760.5 1359.9,740.4 1353.6,746.6 	"/>
	
		<rect x="1351" y="747.7" transform="matrix(0.7071 -0.7072 0.7072 0.7071 -136.8941 1179.9088)" class="st1" width="9.4" height="14.9"/>
	
		<rect x="1368.3" y="779.2" transform="matrix(0.7071 -0.7071 0.7071 0.7071 -152.9435 1200.4343)" class="st1" width="8.5" height="11.3"/>
	<polygon class="st1" points="1351.6,732.1 1329.9,710.4 1323.6,716.6 1345.3,738.3 	"/>
	
		<rect x="1381" y="777.6" transform="matrix(0.7071 -0.7071 0.7071 0.7071 -146.8179 1212.4469)" class="st1" width="18.2" height="11.6"/>
	
		<rect x="1361.1" y="758.5" transform="matrix(0.7071 -0.7071 0.7071 0.7071 -141.0863 1189.8623)" class="st1" width="9.4" height="13.5"/>
	<polygon class="st1" points="1334.2,727.2 1327.5,733.8 1338.7,744.9 1345.3,738.3 1323.6,716.6 1316.9,723.2 1327.5,733.8 	"/>
	
		<rect x="1361.4" y="785.5" transform="matrix(0.7071 -0.7071 0.7071 0.7071 -159.335 1197.77)" class="st1" width="9.6" height="11.3"/>
	
		<rect x="1369.5" y="793.5" transform="matrix(0.7071 -0.7071 0.7071 0.7071 -162.7035 1205.9152)" class="st1" width="9.6" height="11.6"/>
	
		<rect x="1376.5" y="787.2" transform="matrix(0.7072 -0.707 0.707 0.7072 -156.4258 1208.3741)" class="st1" width="8.5" height="11.6"/>
	
		<rect x="1346.9" y="768.3" transform="matrix(0.7071 -0.7072 0.7072 0.7071 -150.8557 1185.9105)" class="st1" width="18.1" height="13.5"/>
	<polygon class="st1" points="1316.9,723.2 1304.1,735.9 1314.8,746.6 1327.5,733.8 	"/>
	
		<rect x="1317.7" y="737.9" transform="matrix(0.7071 -0.7071 0.7071 0.7071 -138.7828 1156.5889)" class="st1" width="18.1" height="15.8"/>
	
		<rect x="1336.8" y="757.5" transform="matrix(0.7071 -0.7071 0.7071 0.7071 -146.6813 1175.7152)" class="st1" width="18.1" height="14.9"/>
	<polygon class="st1" points="965.9,753.2 964.7,754.4 965.9,753.2 	"/>
	<polygon class="st1" points="1366.4,682.6 1376.8,693 1398.7,671 1386.9,659.2 1373.4,672.8 1375.1,674.4 	"/>
	<polygon class="st1" points="1360.2,604.9 1366,610.6 1350.2,626.4 1371,646.9 1393.1,625.8 1366.2,598.9 	"/>
	<path id="_x3C_Path_x3E__2_" class="st1" d="M647.1,727.9c-3.2,3.3-7,7.2-11.4,11.7l24.4,24.4l11.6-11.6L647.1,727.9z"/>
	<path id="_x3C_Path_x3E__1_" class="st1" d="M693.7,752.1l-35.8-35.2c0,0-3.9,4-10.7,11l40.6,40.4c3.2-6.1,4.7-10.3,4.7-10.3
		l-2.3-2.3L693.7,752.1z"/>
	<polygon class="st1" points="346.9,424.2 428.1,505.4 550.4,386.1 550.4,203.4 	"/>
	<path id="_x3C_path_x3E_" class="st1" d="M803.6,523.2l-18.9,8.5c0,0-11.9-10.5-13-30.4l18.2-8.2L803.6,523.2z"/>
	<rect id="_x3C_Path_x3E_" x="911.7" y="611.1" class="st1" width="24.7" height="14.1"/>
</g>
<g id="rooms">
	<polygon id="it-city" class="st2" points="1499.6,793.2 1380,912.9 1436.5,969.4 1556.5,848.5 	"/>
	<path id="sb-design-square" class="st2" d="M1046.4,314.5V203.2H782.5v49.2h14.7l-0.4,42.5c0,0,7.2,47.4,40.4,47.4
		c24.5,0,128.1,0,180.5,0C1024.3,330.5,1034.3,320.8,1046.4,314.5z"/>
	<path id="major-cineplex" class="st2" d="M779,293.7l3.5-3v-87.5h-232l-0.2,0.2v182.6l0.2-0.2l199.3,0.3v-11.6c0,0,0,0,58,0
		C781.3,355.7,779,293.7,779,293.7z"/>
	<path id="catwalk" class="st2" d="M831.1,568.6c-41.6,0-75.3-34.1-75.3-76.2c0-33.4,21.2-61.7,50.7-72v-18.1l-233.7,0l-149,144.5
		l135.5,136.3l91.3-91.9l212.4-0.4v-29.5C853.4,566.1,842.6,568.6,831.1,568.6z"/>
	<path id="f-runway" class="st2" d="M1014,402.4H871v25.4c21.3,13.5,35.5,37.4,35.5,64.6c0,30.5-17.8,56.9-43.4,69v29.5l1.7,0
		l144.1,0.4l68.4-145.6C1048.6,445.3,1024.2,427.5,1014,402.4z"/>
	<path id="digital-park" class="st2" d="M1499.6,793.2l-375.3-364.8c-12.3,10.8-28.3,17.4-45.9,17.4c-0.4,0-0.8,0-1.2,0l-68.4,145.6
		L1219,801.5l-19.9,20l192.8,192.8l44.6-44.9l-56.6-56.6L1499.6,793.2z"/>
	<path id="feelfit" class="st2" d="M1209.5,295.1l-93.2-93.5l-70,1.7v111.3c-22.3,11.6-37.5,34.9-37.5,61.7
		c0,38.4,31.1,69.5,69.5,69.5s69.5-31.1,69.5-69.5c0-6-0.8-11.8-2.2-17.4L1209.5,295.1z"/>
	<path id="campus-park" class="st2" d="M1245.7,331.1l-62.9,68.5l-37.1-40.7c1.4,5.5,2.2,11.4,2.2,17.4c0,13.1-3.6,25.3-9.9,35.7
		l233,234.9l98.6-92.8L1245.7,331.1z"/>
	<polygon id="fitness-first" class="st2" points="1209.5,295.1 1145.7,358.9 1182.8,399.6 1246.5,330.3 	"/>
	<path id="r3-kio025" class="st2" d="M820.2,447.5c-1.9-2.3-3-5.1-3-8.3c0-0.4,0-0.7,0.1-1.1c-9.7,2.5-20.3,7.8-31.4,17.3l2,4.5
		c0,0,12.1-4.2,29.6-5.6L820.2,447.5z"/>
	<path id="r3-kio026" class="st2" d="M840.7,447.2L840.7,447.2l2.3,7.5c9.6,1.1,19.8,3.4,29.9,7.6l2.7-6.9c0,0-12.5-13.6-32.3-17.9
		c0.1,0.5,0.1,1.1,0.1,1.6C843.4,442.2,842.4,444.9,840.7,447.2z"/>
	<path id="r3-kio028" class="st2" d="M858.6,523.6l18.6,8.1c0,0,10.4-8.1,13.7-32.6l-19.7-7.9L858.6,523.6z"/>
	<path id="r001-004" class="st2" d="M687.7,768.3l-16-15.9L660.1,764l-11.5,11.5l0,0h0l-24.4-24.3c-3.7,3.8-7.7,7.8-12,12.1l0,0
		c-4.6,4.7-9.5,9.6-14.6,14.7c-7.8,7.8-16.1,16.1-24.8,24.8h0c-4.7,4.6-9.2,8.4-13.6,11.3l6.6,33.2l20.3,18.3
		c15.2-13.3,20.1-25.9,20.1-25.9l1.8-1.8l0,0h0l6.7-6.7l4.7,4.7l18.7-18.7l-4.8-4.8l5-5l2.3,2.3c4.7-1.4,9-3.3,13-5.4l0,0
		c5.2-2.9,9.9-6.3,14-9.9v0c4.3-3.8,8-7.9,11-12v0C682.5,777.4,685.5,772.4,687.7,768.3z"/>
	<path id="r035" class="st2" d="M603.9,652l-4.4-4.4l-13.9,13.9l11.3,11.3l-7.6,7.6l13.3,13.3c7.3-6.9,15.2-13.5,23.5-19.5
		L603.9,652z"/>
	<path id="r031-032" class="st2" d="M679.7,618v30c8.5-2.5,19.9-5.4,33-7.3V618H679.7z"/>
	<path id="r033" class="st2" d="M659.5,618l-15.4,14.9l20.6,20.2c0,0,5.7-2.3,15-5v-30L659.5,618L659.5,618z"/>
	<path id="r030" class="st2" d="M721.5,612.1v5.9v21.6c7.8-0.8,16.1-1.3,24.5-1v-26.5L721.5,612.1L721.5,612.1z"/>
	<path id="r028" class="st2" d="M779.4,612.8v28.8c3.5-2.3,12.3-7.4,25.9-9.8v-19L779.4,612.8L779.4,612.8z"/>
	<rect id="swensens" x="779.4" y="591.3" class="st2" width="25.9" height="21.5"/>
	<path id="r025" class="st2" d="M936.4,625.2h-24.7v13.7c7.3-0.1,15.6-0.1,24.7,0.4v-10.7V625.2z"/>
	<path id="r027" class="st2" d="M851.5,612.4v18.8c0,0,15.4,1.7,27,9.9v-28.7L851.5,612.4L851.5,612.4z"/>
	<path id="r024" class="st2" d="M943.7,617.9v22.3c5.6,0.8,11.6,2,17.7,3.5v-25.8H943.7z"/>
	<path id="r023" class="st2" d="M977.6,617.9h-16.2v25.8c4.5,1.1,9.1,2.4,13.8,4l3.1-9L977.6,617.9z"/>
	<path id="r018-021" class="st2" d="M1048.2,657.8l4.7-4.7l-2.9-2.9l1.1-1.1l-3.5-3.5l3-3l-14.5-13.9l-32.4,32.4
		c0,0,51,32,67.9,71.1c14.1-3.9,30.9,1.5,42.2,15c2.3,2.8,4.2,5.7,5.8,8.7l27.2-26.7l-64-64l-13.6,13.6L1048.2,657.8z"/>
	<path id="r011-015" class="st2" d="M1085.6,808.5c-9.8-1.6-19.4-7-26.7-15.8c-7.6-9.1-11.1-20.1-10.5-30.4
		c-24.3-17.2-46.7-45-46.7-45l-35.8,35.9l0,0l-1.2,1.2l-3.5,3.5c11.8,40.2,54.3,56.7,54.3,56.7l5.6-5.6l2.2,2.2l-4.3,4.3l21.2,21.2
		l4.2-4.2l3.5,3.5l-2.7,2.7c4.3,10.4,9.6,19.1,15.3,26.3l16.4-15.2L1085.6,808.5z"/>
	<polygon id="robinson" class="st2" points="559.4,683.2 403.7,527.5 428.1,505.4 346.9,424.2 154.1,616.9 389.6,852.4 	"/>
	<path class="st3" d="M567.9,988.4"/>
	<path id="r029" class="st2" d="M753.7,591.3v20.8H746v26.5c10.5,0.3,21.2,1.6,31.7,4.4c0,0,0.6-0.8,1.7-2.1v-49.6H753.7z"/>
	<path id="r034" class="st2" d="M650.9,659.4l-29.1-29.1l-13.3,13.3l1.9,1.9l-6.4,6.4l22.1,22.1
		C633.9,668.4,642.2,663.4,650.9,659.4z"/>
	<rect id="dairy-queen" x="851.5" y="591.3" class="st2" width="27" height="21.1"/>
	<polygon id="kfc" class="st2" points="878.6,621.4 878.6,591.2 904.1,591.2 904.1,611 911.8,611 911.8,621.4 	"/>
	<path id="r026" class="st2" d="M878.6,621.8h33.2v17c0,0-31,2.4-31.7,4.5c-0.6,2.1-1.5-1.9-1.5-1.9V621.8z"/>
	<path id="r001-r004" class="st2" d="M491.6,871.8l10.6-57.4c19.4,13.5,39.9,12,56.8-0.7l6.6,33.2l20.3,18.3
		c-13.8,13.6-35.9,24-65.1,27.7C513.8,883,504.3,875.5,491.6,871.8z"/>
	<path id="r036-r039" class="st2" d="M502.2,814.4l-11.7,65.2l-33.8-6.2l1.7-5.8c-14.7,6.6-36.5,16.3-57.9,25.8l-37-34.1l17-16
		l9.2,9.2l185.9-185.9l27,27L551,755.7c-33.2-9-61.8,34.2-61.3,47.1C492.5,806.6,496.7,810.5,502.2,814.4z"/>
</g>
<g id="Signs">
	<rect id="baby-change-room" x="983.6" y="597.6" class="st4" width="14.8" height="14.8"/>
	<g id="fire-exit">
		<rect x="694.8" y="567.5" class="st4" width="14.8" height="14.8"/>
		<rect x="581.7" y="623.3" class="st4" width="14.8" height="14.8"/>
		<rect x="934.5" y="567.5" class="st4" width="14.8" height="14.8"/>
		<rect x="1059.7" y="625" class="st4" width="14.8" height="14.8"/>
		<rect x="1173.6" y="733.5" class="st4" width="14.8" height="14.8"/>
	</g>
	<g id="toilet">
		<rect x="876.4" y="378.8" class="st4" width="14.8" height="14.8"/>
		<rect x="1381.8" y="697.1" class="st4" width="14.8" height="14.8"/>
		<rect x="1132" y="438.4" class="st4" width="14.8" height="14.8"/>
		<rect x="711.3" y="567.5" class="st4" width="14.8" height="14.8"/>
		<rect x="467.5" y="451.6" class="st4" width="14.8" height="14.8"/>
		<rect x="950.6" y="597.6" class="st4" width="14.8" height="14.8"/>
		<rect x="654.3" y="605" class="st4" width="14.8" height="14.8"/>
	</g>
	<g id="handicapped-toilet">
		<rect x="892.7" y="378.8" class="st4" width="14.8" height="14.8"/>
		<rect x="1398.2" y="697.1" class="st4" width="14.8" height="14.8"/>
		<rect x="1148.3" y="438.4" class="st4" width="14.8" height="14.8"/>
		<rect x="727.6" y="567.5" class="st4" width="14.8" height="14.8"/>
		<rect x="483.9" y="451.6" class="st4" width="14.8" height="14.8"/>
		<rect x="967.1" y="597.6" class="st4" width="14.8" height="14.8"/>
		<rect x="637.8" y="605" class="st4" width="14.8" height="14.8"/>
	</g>
	<g id="telephone">
		<rect x="909" y="378.8" class="st4" width="14.8" height="14.8"/>
		<rect x="1414.5" y="697.1" class="st4" width="14.8" height="14.8"/>
		<rect x="1164.6" y="438.4" class="st4" width="14.8" height="14.8"/>
		<rect x="744" y="567.5" class="st4" width="14.8" height="14.8"/>
		<rect x="500.2" y="451.6" class="st4" width="14.8" height="14.8"/>
	</g>
	<g id="elevator">
		<rect x="806.6" y="378.8" class="st4" width="14.8" height="14.8"/>
		<rect x="440.4" y="505.9" class="st4" width="14.8" height="14.8"/>
		<rect x="1201.9" y="492.7" class="st4" width="14.8" height="14.8"/>
		<rect x="1365.4" y="653" class="st4" width="14.8" height="14.8"/>
		<rect x="999.9" y="597.6" class="st4" width="14.8" height="14.8"/>
		<rect x="621.3" y="605" class="st4" width="14.8" height="14.8"/>
	</g>
	<g id="stairs">
		<rect x="520.4" y="570.1" class="st4" width="14.8" height="14.8"/>
		<rect x="1124.6" y="568.6" class="st4" width="14.8" height="14.8"/>
	</g>
	<g id="escalator">
		<rect x="772.1" y="469" class="st4" width="14.8" height="14.8"/>
		<rect x="610.1" y="514.1" class="st4" width="14.8" height="14.8"/>
		<rect x="823.7" y="671.5" class="st4" width="14.8" height="14.8"/>
		<rect x="1075.4" y="773.5" class="st4" width="14.8" height="14.8"/>
		<rect x="520.4" y="780.5" class="st4" width="14.8" height="14.8"/>
		<rect x="872.1" y="469" class="st4" width="14.8" height="14.8"/>
		<rect x="1106.3" y="514.4" class="st4" width="14.8" height="14.8"/>
		<rect x="1418.4" y="753.6" class="st4" width="14.8" height="14.8"/>
		<rect x="1328.9" y="844.3" class="st4" width="14.8" height="14.8"/>
		<rect x="1199.8" y="643.5" class="st4" width="14.8" height="14.8"/>
	</g>
	<g id="atm">
		<rect x="424" y="505.9" class="st4" width="14.8" height="14.8"/>
		<rect x="829.7" y="340.8" class="st4" width="14.8" height="14.8"/>
	</g>
</g>
<path class="st1" d="M635.7,739.6c-3.5,3.5-7.3,7.4-11.4,11.6l24.4,24.3l11.5-11.5L635.7,739.6z"/>
<path class="st1" d="M904.2,718.7c-3.4-8.7-12.4-26.9,16.9-29.4s44.4,12.6,33.4,29.4s-17.6,16.6-26.8,16.8S907.8,727.8,904.2,718.7z
	"/>
<path class="st1" d="M842.1,723.5c-3.1-7.1,5.2-13.1,16.2-18.4s20.8-11.5,28.1,6.4s-0.2,25.8-21.7,23
	C843.4,731.8,843.9,727.5,842.1,723.5z"/>
<path class="st1" d="M753.7,718.9c3.4-8.7,12.4-26.9-16.9-29.4s-44.4,12.6-33.4,29.4s17.6,16.6,26.8,16.8S750.1,728,753.7,718.9z"/>
<path class="st1" d="M815.8,723.8c3.1-7.1-5.2-13.1-16.2-18.4s-20.8-11.5-28.1,6.4s0.2,25.8,21.7,23
	C814.6,732,814.1,727.8,815.8,723.8z"/>
<path class="st1" d="M1021.5,630.4l-12.3-12.5h-31.6l0.6,20.8l-3.1,9c6.8,2.3,13.8,5,20.9,8.4L1021.5,630.4z"/>
<path class="st1" d="M1199.1,821.5l19.9-20l-72.3-72.3l-27.2,26.7c20,57.7-33.9,52.6-33.9,52.6l-8.7,41.1l-16.4,15.2
	c19.3,24.5,42.7,31.8,42.7,31.8l2.5-2.5l10,10l14.1-14.1l23.2,23.2l68.9-68.9L1199.1,821.5z"/>
</svg>
