<?xml version="1.0" encoding="utf-8"?>
<!-- Generator: Adobe Illustrator 16.0.0, SVG Export Plug-In . SVG Version: 6.00 Build 0)  -->
<!DOCTYPE svg PUBLIC "-//W3C//DTD SVG 1.1//EN" "http://www.w3.org/Graphics/SVG/1.1/DTD/svg11.dtd">
<svg version="1.1" id="Layer_1" xmlns="http://www.w3.org/2000/svg" xmlns:xlink="http://www.w3.org/1999/xlink" x="0px" y="0px"
	 width="1683.781px" height="1190.551px" viewBox="0 0 1683.781 1190.551" enable-background="new 0 0 1683.781 1190.551"
	 xml:space="preserve">
<g id="background">
	<rect fill="#FFFFFF" width="1683.781" height="1190.551"/>
</g>
<g id="etc">
	<polygon fill="#DEDEDE" stroke="#494949" stroke-width="0.5" stroke-miterlimit="10" points="306.007,489.564 413.238,438.236 
		463.618,398.092 552.079,323.255 751.909,240.655 790.543,232.155 825.992,211.155 904.769,211.155 919.58,232.155 
		926.242,240.218 1044.129,306.905 1160.71,389.905 1438.53,554.303 1451.048,569.884 1340.697,966.903 1175.933,879.91 
		965.113,752.903 951.363,739.653 860.492,698.118 812.39,702.775 731.696,727.465 702.11,742.902 574.408,828.33 362.829,864.387 
		262.169,797.431 150.22,628.427 253.371,525.19 	"/>
	<path fill="#DEDEDE" stroke="#494949" stroke-width="0.5" stroke-miterlimit="10" d="M1252.613,894.653l7.5-7.5l-64.875-64.875
		l23.75-23.75l-21.541-21.541l-23.25,23.25c-9.834-9.447-41-23.334-41-23.334c0.666-13.166-8.334-24.666-8.334-24.666l23.916-23.918
		l-21.666-21.666l-23.75,23.752c-9.5-10-27-8.334-27-8.334c-18.5-36.668-69.332-69.666-69.332-69.666l25.332-25.334l15.666,15.666
		l-2.582,2.582l4.996,4.996l-5.168,5.168l23.754,23.754l13.49-13.49l13.166,13.168l1.846-1.844l-87.838-87.838H904.197v21.771
		h32.166v3.398v4.002v21.27c-31.59-2.758-56.5,2.73-56.5,2.73c-14-16.168-28.834-18.5-28.834-18.5v-34.672h-44.666v34.504
		c-13.833,3.832-28.667,18.668-28.667,18.668c-21.213-3.313-39.9-3.539-55.667-2.246V618.07v-6.668h31.167v-22.17h-105.29
		l-74.16,75.651l15.15,15.15l23.799-23.799l-6-6l6.25-6.25l3.667,3.666l5.265-5.266l15.151,15.15
		c-61.167,39.971-90.167,88.531-90.167,88.531c-22-1.834-39.75,13.082-39.75,13.082l-8.084-8.084l5.583-5.582l-4.988-4.988
		l-49.55,50.547c6.168,5.963,23.479,22.662,28.788,27.357c6.5,5.75,26.5,18.25,43.75,18.75s39.5,0.5,62-32.25l9,9l-6.625,6.625
		l3.875,3.875l-4.5,4.5l11.125,11.125l4.625-4.625l4.541,4.541c0.067-0.1,0.14-0.191,0.209-0.291l8.25-8.25l3,3.25l19.5-19.5
		l-3.75-3.75l-33-29.666c0,0,38.333-26.502,64.5-61.168l12.833,12.834l4.667-4.5l9,9l-5.5,5.334l7.646,7.77l8.104-8.104l8.875,8.875
		c0,0,42.319,12.625,86.348-3.625c0,0,2.782-5.615,5.871-13.648c-36.499,14.588-37.24-10.004-32.989-22.602
		c4.5-13.334,15.42-13.5,23.478-8.834c5.138,2.977,11.694,8.053,15.773,11.342c0.742-3.279,1.321-6.57,1.646-9.758
		c0,0,21,6.25,36.5,0c0,0,3.195,22.335,5.8,29.078c-0.001,0-0.001,0-0.001,0c1.936,5.008,4.51,9.951,7.951,14.172
		c0,0,45.5,19.5,85.25,5.25l9.375-9.375l7.168,7.168l7.791-7.791l-4.5-4.5l24.584-24.584c4.834,9.168,48.666,50.166,48.666,50.166
		c1,13.834,8.834,23.666,8.834,23.666l4.166-4.166c14.332,28.834,43.166,25,43.166,25c0.168,47.668,27.584,78.084,27.584,78.084
		l-10.25,10.25l-5.5-5.502l-2.334,2.334l12.75,12.75l3.75,3.75l12.25-12.25c0,0,38,38,60.625,60.625s44.625,5.875,55.125-4.125
		S1280.863,917.903,1252.613,894.653z M664.55,654.403l-21.188-20.666l16.833-15.666h53.667l0.001,22.918
		C682.317,644.827,664.55,654.403,664.55,654.403z M1008.863,618.405l9.668,8.666l-26.168,27.334L1008.863,618.405z"/>
	
		<ellipse fill="#DEDEDE" stroke="#494949" stroke-width="0.5" stroke-miterlimit="10" cx="831.113" cy="666.895" rx="41" ry="27.758"/>
	<polygon fill="#DEDEDE" stroke="#494949" stroke-width="0.5" stroke-miterlimit="10" points="528.988,560.081 561.889,527.179 
		561.889,514.184 590.204,485.869 610.806,506.471 602.494,514.784 602.494,526.528 578.491,550.531 567.613,550.531 
		543.624,574.521 	"/>
	<polygon fill="#DEDEDE" stroke="#494949" stroke-width="0.5" stroke-miterlimit="10" points="1110.755,538.119 1098.207,525.57 
		1098.207,513.559 1069.873,485.226 1048.197,506.903 1055.568,513.57 1055.568,526.032 1082.675,553.139 1092.126,553.139 
		1093.923,554.936 1115.107,576.119 1131.931,559.295 	"/>
	
		<rect x="850.314" y="637.905" transform="matrix(-0.9234 0.3839 -0.3839 -0.9234 1897.1412 945.153)" fill="#DEDEDE" stroke="#494949" stroke-width="0.5" stroke-miterlimit="10" width="7.85" height="48.035"/>
	
		<rect x="806.034" y="638.214" transform="matrix(-0.9273 -0.3742 0.3742 -0.9273 1313.2463 1579.4453)" fill="#DEDEDE" stroke="#494949" stroke-width="0.5" stroke-miterlimit="10" width="7.85" height="48.032"/>
	<path fill="#DEDEDE" stroke="#494949" stroke-width="0.5" stroke-miterlimit="10" d="M91.613,558.653l44.5,44.5l2.5-2.5
		l251.5,251.5l3.001-3l30.75,30.75c0,0-74.751,56.5-142.001-12.5c-67.25-69-205.375-205.375-205.375-205.375l13.625-13.625
		C90.113,648.403,48.863,609.153,91.613,558.653z"/>
	<path fill="#DEDEDE" stroke="#494949" stroke-width="0.5" stroke-miterlimit="10" d="M894.697,662.229
		c2.102,10.35,4.332,8.508,16.666,8.174s44.444,3.5,53.973,7.5c9.529,4,14.361,5.334,13.195-7
		c-1.168-12.334-2.166-9.914-12.084-13.123c-9.916-3.211-43.633-9.619-61.076-6.877
		C892.113,652.987,892.531,651.555,894.697,662.229z"/>
	<path fill="#DEDEDE" stroke="#494949" stroke-width="0.5" stroke-miterlimit="10" d="M999.031,681.987
		c-1.9,6.016-3.834,10.252,2.332,16.918c6.168,6.666,35.334,37.666,40,43.332c4.668,5.668,7.334,1.518,10.334-3.24
		c3-4.76,8.494-8.107-1.254-19.35c-9.746-11.243-37.746-38.578-41.746-41.578C1004.697,675.071,1001.531,674.071,999.031,681.987z"
		/>
	<path fill="#DEDEDE" stroke="#494949" stroke-width="0.5" stroke-miterlimit="10" d="M761.317,663.243
		c-2.228,10.576-4.592,8.691-17.661,8.352c-13.07-0.34-47.101,3.576-57.194,7.664c-10.096,4.088-15.219,5.451-13.979-7.15
		c1.234-12.604,2.295-10.133,12.804-13.41c10.509-3.281,46.238-9.828,64.724-7.027C764.056,653.799,763.613,652.336,761.317,663.243
		z"/>
	<path fill="#DEDEDE" stroke="#494949" stroke-width="0.5" stroke-miterlimit="10" d="M568.613,746.934
		c4.625-5.02,56.75-57.219,63.5-61.5c6.75-4.279,8.896-2.779,9.946,5.971c1.054,8.75,1.471,10.398,2.221,14.45
		c0.75,4.05,3.917,8.052-4.583,16.718s-39.167,36.416-43.583,40.5c-4.417,4.082-9.167,2.582-13.333,0.832s-9.916-4.084-12.833-5.166
		C567.029,757.653,561.563,754.588,568.613,746.934z"/>
	<path fill="#DEDEDE" stroke="#494949" stroke-width="0.5" stroke-miterlimit="10" d="M1103.033,754.608
		c-10.813-12.439-27-16.135-36.56-8.498l6.224,7.961l-13.09,9.225c0.381,7.004,3.459,14.635,9.112,21.141
		c2.748,3.162,5.847,5.76,9.091,7.748l13.387-8.445l8.344,12.234c2.309-0.727,4.441-1.879,6.297-3.492
		C1115.313,784.245,1114.056,767.29,1103.033,754.608z"/>
	<path fill="#DEDEDE" stroke="#494949" stroke-width="0.5" stroke-miterlimit="10" d="M557.503,783.569l-4.765-13.293
		c-7.441-2.168-16.785-1.162-25.467,3.434c-2.706,1.432-5.157,3.115-7.327,4.977l4.085,16.053l-15.021,5.787
		c0.118,2.617,0.767,5.156,2.008,7.508c5.873,11.096,22.675,13.721,37.523,5.859c14.43-7.639,21.707-22.363,16.718-33.373
		L557.503,783.569z"/>
	
		<rect x="795.875" y="485.289" transform="matrix(0.9111 -0.4123 0.4123 0.9111 -137.4045 374.2346)" fill="#DEDEDE" stroke="#494949" stroke-width="0.5" stroke-miterlimit="10" width="5.5" height="40.554"/>
	
		<rect x="860.245" y="484.427" transform="matrix(0.9318 0.3629 -0.3629 0.9318 242.0098 -278.7919)" fill="#DEDEDE" stroke="#494949" stroke-width="0.5" stroke-miterlimit="10" width="5.5" height="40.547"/>
	<path fill="#DEDEDE" stroke="#494949" stroke-width="0.5" stroke-miterlimit="10" d="M846.259,449.364
		c-0.979-7.883-7.688-13.988-15.834-13.988c-8.386,0-15.249,6.467-15.906,14.683c-0.032,0.428-0.063,0.854-0.063,1.287
		c0,3.833,1.353,7.351,3.604,10.104c0.36,0.438,0.744,0.858,1.149,1.26c0.049,0.049,0.104,0.092,0.154,0.141
		c0.344,0.331,0.699,0.648,1.071,0.947c0.126,0.104,0.261,0.193,0.391,0.291c0.308,0.232,0.621,0.458,0.943,0.669
		c0.164,0.105,0.333,0.203,0.5,0.303c0.308,0.185,0.617,0.356,0.938,0.521c0.188,0.095,0.377,0.186,0.568,0.272
		c0.313,0.146,0.636,0.278,0.96,0.402c0.202,0.077,0.404,0.154,0.61,0.225c0.334,0.111,0.676,0.207,1.021,0.299
		c0.205,0.053,0.406,0.111,0.616,0.157c0.377,0.083,0.763,0.145,1.146,0.199c0.185,0.026,0.362,0.063,0.547,0.083
		c0.574,0.063,1.156,0.102,1.748,0.102c0.605,0,1.199-0.041,1.787-0.106c0.178-0.02,0.35-0.055,0.524-0.08
		c0.411-0.06,0.82-0.129,1.224-0.22c0.186-0.042,0.367-0.093,0.551-0.143c0.396-0.104,0.783-0.222,1.164-0.354
		c0.16-0.056,0.318-0.113,0.477-0.174c0.421-0.163,0.831-0.341,1.23-0.537c0.104-0.05,0.208-0.096,0.311-0.149
		c2.109-1.086,3.95-2.625,5.388-4.492c2.07-2.693,3.313-6.057,3.313-9.717C846.394,450.673,846.339,450.014,846.259,449.364z"/>
	<path fill="#DEDEDE" stroke="#494949" stroke-width="0.5" stroke-miterlimit="10" d="M786.238,467.316c0,0,42.482-27.087,86.679,0
		l-26.521,67.337h-30.532L786.238,467.316z"/>
	<path fill="#DEDEDE" stroke="#494949" stroke-width="0.5" stroke-miterlimit="10" d="M1356.865,472.236l-16.168,15.167
		l-9.965-9.936c5.951-6.124,9.623-14.477,9.623-23.689c0-18.778-15.224-34-34-34c-9.254,0-17.64,3.702-23.771,9.699l-23.133-23.059
		c5.678-6.076,9.156-14.23,9.156-23.201c0-18.778-15.224-34-34-34c-9.011,0-17.193,3.511-23.277,9.231l-20.586-20.521
		c6.096-6.145,9.863-14.603,9.863-23.943c0-18.778-15.224-34-34-34c-9.38,0-17.869,3.798-24.021,9.939l-12.559-12.52l15.834-14.333
		l-57.666-55.333H571.334l-14.14,14.118c-6.059-5.58-14.145-8.991-23.027-8.991c-18.778,0-34,15.222-34,34
		c0,8.866,3.396,16.937,8.955,22.989l-5.529,5.521c-6.021-5.419-13.991-8.72-22.729-8.72c-18.778,0-34,15.222-34,34
		c0,8.722,3.287,16.673,8.686,22.691L350.015,428.722l78.245,77.953l135.188-134.688l536.583,1.584l272.668,271.667l78.352-78.354
		L1356.865,472.236z"/>
	
		<rect x="1073.445" y="491.381" transform="matrix(0.0042 1 -1 0.0042 1588.2076 -564.14)" fill="#DEDEDE" stroke="#494949" stroke-width="0.5" stroke-miterlimit="10" width="7.849" height="48.039"/>
	
		<rect x="1072.541" y="499.209" transform="matrix(0.0046 1 -1 0.0046 1594.7332 -555.6349)" fill="#DEDEDE" stroke="#494949" stroke-width="0.5" stroke-miterlimit="10" width="7.85" height="48.039"/>
	
		<rect x="1206.172" y="624.079" transform="matrix(-0.7041 0.7101 -0.7101 -0.7041 2522.3491 245.1607)" fill="#DEDEDE" stroke="#494949" stroke-width="0.5" stroke-miterlimit="10" width="7.85" height="48.037"/>
	
		<rect x="1200.053" y="629.15" transform="matrix(-0.7041 0.7101 -0.7101 -0.7041 2515.4873 258.0294)" fill="#DEDEDE" stroke="#494949" stroke-width="0.5" stroke-miterlimit="10" width="7.849" height="48.037"/>
	
		<rect x="579.253" y="492.745" transform="matrix(0.0045 1 -1 0.0045 1097.3245 -68.7214)" fill="#DEDEDE" stroke="#494949" stroke-width="0.5" stroke-miterlimit="10" width="7.849" height="48.039"/>
	
		<rect x="578.39" y="500.587" transform="matrix(0.0045 1 -1 0.0045 1104.3064 -60.052)" fill="#DEDEDE" stroke="#494949" stroke-width="0.5" stroke-miterlimit="10" width="7.849" height="48.039"/>
	<polygon fill="#DEDEDE" stroke="#494949" stroke-width="0.5" stroke-miterlimit="10" points="621.863,475.903 621.863,504.236 
		631.696,504.236 639.615,512.155 678.696,512.155 680.531,510.321 673.467,503.257 689.822,486.903 689.822,475.903 	"/>
	
		<rect x="895.531" y="481.07" fill="#DEDEDE" stroke="#494949" stroke-width="0.5" stroke-miterlimit="10" width="18.666" height="27.333"/>
	
		<rect x="914.197" y="481.07" fill="#DEDEDE" stroke="#494949" stroke-width="0.5" stroke-miterlimit="10" width="17.666" height="27.333"/>
	<polygon fill="#DEDEDE" stroke="#494949" stroke-width="0.5" stroke-miterlimit="10" points="975.031,474.07 975.031,488.07 
		992.031,505.07 984.292,512.806 985.96,514.473 1022.697,514.473 1031.73,505.438 1037.363,505.438 1037.363,474.07 	"/>
	<polygon fill="#DEDEDE" stroke="#494949" stroke-width="0.5" stroke-miterlimit="10" points="1130.697,594.986 1150.962,574.719 
		1187.775,611.532 1167.632,631.674 	"/>
	<polygon fill="#DEDEDE" stroke="#494949" stroke-width="0.5" stroke-miterlimit="10" points="1179.531,646.432 1203.025,622.938 
		1234.675,654.59 1211.515,677.75 	"/>
	<path fill="#DEDEDE" stroke="#494949" stroke-width="0.5" stroke-miterlimit="10" d="M1055.695,437.802h-31.416v23.5h31.416
		c6.487,0,11.75-5.261,11.75-11.75C1067.445,443.063,1062.183,437.802,1055.695,437.802z"/>
	
		<rect x="1228.202" y="603.145" transform="matrix(0.7071 -0.7071 0.7071 0.7071 -64.4672 1067.2687)" fill="#DEDEDE" stroke="#494949" stroke-width="0.5" stroke-miterlimit="10" width="55.743" height="16.616"/>
	<polygon fill="#DEDEDE" stroke="#494949" stroke-width="0.5" stroke-miterlimit="10" points="562.05,375.09 540.861,396.28 
		555.236,410.655 547.613,418.278 587.738,458.403 597.488,458.403 597.488,375.09 	"/>
	
		<rect x="673.988" y="530.223" fill="#DEDEDE" stroke="#494949" stroke-width="0.5" stroke-miterlimit="10" width="16.5" height="56.681"/>
	<polygon fill="#DEDEDE" stroke="#494949" stroke-width="0.5" stroke-miterlimit="10" points="643.113,530.223 643.113,554.403 
		634.516,554.403 647.906,586.902 655.113,586.902 655.113,530.223 	"/>
	<polygon fill="#DEDEDE" stroke="#494949" stroke-width="0.5" stroke-miterlimit="10" points="643.113,554.403 643.113,530.223 
		624.613,530.223 624.571,530.264 634.516,554.403 	"/>
	
		<rect x="554.196" y="593.662" transform="matrix(0.7071 0.7071 -0.7071 0.7071 591.4883 -230.0495)" fill="#DEDEDE" stroke="#494949" stroke-width="0.5" stroke-miterlimit="10" width="38.485" height="10.607"/>
	<polygon fill="#DEDEDE" stroke="#494949" stroke-width="0.5" stroke-miterlimit="10" points="1142.363,635.903 1142.363,627.153 
		1127.55,612.34 1082.675,657.215 1106.152,680.524 1147.031,640.571 	"/>
	<path fill="#DEDEDE" stroke="#494949" stroke-width="0.5" stroke-miterlimit="10" d="M904.197,611.004v-21.771h-53.168v34.672
		c0,0,14.834,2.332,28.834,18.5c0,0,12.719-2.803,31.5-3.396v-28.006L904.197,611.004L904.197,611.004z"/>
	<path fill="#DEDEDE" stroke="#494949" stroke-width="0.5" stroke-miterlimit="10" d="M960.39,618.405l0.349,25.037l13.36,3.652
		c1.892,0.609,3.78,1.275,5.667,1.97v-30.659H960.39z"/>
	<path fill="#DEDEDE" stroke="#494949" stroke-width="0.5" stroke-miterlimit="10" d="M1194.738,958.778
		c-6.035-6.035-13.164-13.164-20.375-20.375l-23.979,23.979c17.277,13.506,40.945,25.313,72.347,28.301l2.563-21.354
		C1216.017,971.374,1205.449,969.489,1194.738,958.778z"/>
	<path fill="#DEDEDE" stroke="#494949" stroke-width="0.5" stroke-miterlimit="10" d="M1290.281,917.321l-30.168-30.168l-7.5,7.5
		c12.936,10.646,15.646,22.023,13.779,32.193l7.18,7.182L1290.281,917.321z"/>
	<path fill="#DEDEDE" stroke="#494949" stroke-width="0.5" stroke-miterlimit="10" d="M1290.281,917.321l-16.709,16.707
		l-7.181-7.182c-0.356,1.953-0.883,3.861-1.538,5.711l19.719,19.721l4-4l7.459,7.459l-12.767,12.766
		c3.688,0.145,7.474,0.582,11.349,1.4c39,8.25,29.25,8.5,45.75-2.5L1290.281,917.321z"/>
	<path fill="#DEDEDE" stroke="#494949" stroke-width="0.5" stroke-miterlimit="10" d="M1288.572,948.278l-4,4l-19.719-19.721
		c-3.392,9.557-10.224,17.555-14.99,22.096c-5.529,5.268-14.248,12.4-24.568,14.676l-2.563,21.354
		c0.791,0.076,1.578,0.156,2.383,0.223c0,0,24.744-23.713,58.15-22.4l12.768-12.766L1288.572,948.278z"/>
	<path fill="#DEDEDE" stroke="#494949" stroke-width="0.5" stroke-miterlimit="10" d="M1052.697,783.737l-2.834,2.834l-1.332,1.332
		c0,0-0.025-0.033-0.066-0.084l-5.986,5.34l19.177,19.621l8.598-9.768C1063.859,799.311,1057.472,793.344,1052.697,783.737z"/>
	<polygon fill="#DEDEDE" stroke="#494949" stroke-width="0.5" stroke-miterlimit="10" points="1022.863,810.653 1019.488,814.028 
		1041.113,835.653 1044.488,832.278 1061.654,812.78 1042.476,793.159 	"/>
	<path fill="#DEDEDE" stroke="#494949" stroke-width="0.5" stroke-miterlimit="10" d="M606.654,839.944l-4.541-4.541l-4.625,4.625
		l-11.125-11.125l4.5-4.5l-3.875-3.875l6.625-6.625l-9-9c-6.577,9.572-13.131,16.332-19.547,21.113l23.245,35.688
		C594.419,855.686,600.59,848.512,606.654,839.944z"/>
	<path fill="#DEDEDE" stroke="#494949" stroke-width="0.5" stroke-miterlimit="10" d="M499.625,740.499l4.988,4.988l-5.583,5.582
		l8.084,8.084c0,0,17.75-14.916,39.75-13.082c0,0,3.505-5.867,10.64-15.195l-24.464-24.465L499.625,740.499z"/>
	<path fill="#DEDEDE" stroke="#494949" stroke-width="0.5" stroke-miterlimit="10" d="M685.03,618.071v28.666
		c7.646-2.186,17.32-4.35,28.833-5.748v-22.918H685.03L685.03,618.071z"/>
	<path fill="#DEDEDE" stroke="#494949" stroke-width="0.5" stroke-miterlimit="10" d="M753.196,589.232v22.17h-6.833v28.107
		c9.708,0.266,20.17,1.15,31.333,2.895c0,0,0.479-0.479,1.333-1.275v-51.896L753.196,589.232L753.196,589.232z"/>
	<polygon fill="#DEDEDE" stroke="#494949" stroke-width="0.5" stroke-miterlimit="10" points="975.031,488.07 975.031,476.236 
		945.613,476.236 945.613,495.736 982.697,495.736 	"/>
	<polygon fill="#DEDEDE" stroke="#494949" stroke-width="0.5" stroke-miterlimit="10" points="945.613,495.736 945.613,511.329 
		985.771,511.329 992.031,505.07 982.697,495.736 	"/>
	<polygon fill="#DEDEDE" stroke="#494949" stroke-width="0.5" stroke-miterlimit="10" points="1227.197,688.905 1246.564,669.536 
		1281.376,704.348 1262.175,723.549 	"/>
	<path fill="#DEDEDE" stroke="#494949" stroke-width="0.5" stroke-miterlimit="10" d="M1016.447,437.802
		c-6.49,0-11.75,5.263-11.75,11.75c0,6.489,5.26,11.75,11.75,11.75h7.832v-23.5H1016.447z"/>
	<polygon fill="#DEDEDE" stroke="#494949" stroke-width="0.5" stroke-miterlimit="10" points="1167.929,455.454 1167.929,455.454 
		1175.058,448.325 1143.599,416.98 1128.414,432.166 1159.816,463.568 	"/>
	<polygon fill="#DEDEDE" stroke="#494949" stroke-width="0.5" stroke-miterlimit="10" points="1175.058,448.325 1167.929,455.454 
		1181.015,468.54 1188.083,461.302 	"/>
	<polygon fill="#DEDEDE" stroke="#494949" stroke-width="0.5" stroke-miterlimit="10" points="1159.816,463.568 1172.998,476.75 
		1181.015,468.54 1167.929,455.454 	"/>
	
		<rect x="880.195" y="372.838" fill="#DEDEDE" stroke="#494949" stroke-width="0.5" stroke-miterlimit="10" width="29.25" height="21.922"/>
	
		<rect x="852.238" y="372.838" fill="#DEDEDE" stroke="#494949" stroke-width="0.5" stroke-miterlimit="10" width="27.957" height="21.922"/>
	<polyline fill="#DEDEDE" stroke="#494949" stroke-width="0.5" stroke-miterlimit="10" points="469.886,465.201 484.091,479.407 
		498.121,465.377 483.838,451.299 470.188,464.899 	"/>
	<polyline fill="#DEDEDE" stroke="#494949" stroke-width="0.5" stroke-miterlimit="10" points="498.689,436.504 483.839,451.299 
		498.121,465.377 512.907,450.591 498.689,436.504 	"/>
</g>
<g id="rooms">
	
		<rect id="r2-shp034a" x="963.488" y="402.403" fill="#939598" stroke="#494949" stroke-width="0.5" stroke-miterlimit="10" width="16.375" height="57.25"/>
	<polygon id="r2-shp033" fill="#939598" stroke="#494949" stroke-width="0.5" stroke-miterlimit="10" points="979.863,402.403 
		979.863,459.653 986.113,459.653 998.613,447.153 998.613,432.153 998.613,402.403 	"/>
	<polygon id="r2-shp035c" fill="#939598" stroke="#494949" stroke-width="0.5" stroke-miterlimit="10" points="852.238,402.403 
		852.238,434.778 877.3,459.84 884.363,459.84 886.39,461.867 886.39,402.403 	"/>
	<polygon id="r2-shp035b" fill="#939598" stroke="#494949" stroke-width="0.5" stroke-miterlimit="10" points="886.39,402.403 
		886.39,461.867 890.175,465.653 919.056,465.653 919.056,402.403 	"/>
	<polygon id="r2-shp035a" fill="#939598" stroke="#494949" stroke-width="0.5" stroke-miterlimit="10" points="919.056,402.403 
		919.056,465.653 933.613,465.653 939.613,459.653 946.113,459.653 946.113,402.403 	"/>
	
		<rect id="r2-shp034b" x="946.113" y="402.403" fill="#939598" stroke="#494949" stroke-width="0.5" stroke-miterlimit="10" width="17.375" height="57.25"/>
	<polygon id="r2-shp049a-b-050" fill="#939598" stroke="#494949" stroke-width="0.5" stroke-miterlimit="10" points="
		470.327,501.866 457.628,514.184 446.405,525.071 422.611,548.152 469.55,595.09 492.988,571.652 509.23,555.411 510.988,553.653 
		510.988,542.527 	"/>
	<polygon id="r2-shp039-042" fill="#939598" stroke="#494949" stroke-width="0.5" stroke-miterlimit="10" points="785.363,458.403 
		806.363,437.403 806.363,402.403 680.613,402.403 680.613,458.403 717.613,458.403 724.863,465.653 767.113,465.653 
		774.363,458.403 	"/>
	<polygon id="r2-shp047a" fill="#939598" stroke="#494949" stroke-width="0.5" stroke-miterlimit="10" points="530.604,443.395 
		570.238,483.028 580.363,472.903 580.363,467.278 543.739,430.654 	"/>
	<polygon id="r2-shp047b" fill="#939598" stroke="#494949" stroke-width="0.5" stroke-miterlimit="10" points="517.026,456.566 
		556.863,496.403 570.238,483.028 530.604,443.395 	"/>
	<polygon id="r2-shp048a" fill="#939598" stroke="#494949" stroke-width="0.5" stroke-miterlimit="10" points="504.146,469.061 
		544.175,509.09 556.863,496.403 517.026,456.566 	"/>
	<polygon id="r2-shp048b" fill="#939598" stroke="#494949" stroke-width="0.5" stroke-miterlimit="10" points="489.298,483.463 
		525.925,520.09 533.175,520.09 544.175,509.09 504.146,469.061 	"/>
	
		<rect id="r2-shp025b" x="1216.555" y="591.643" transform="matrix(0.7071 -0.7071 0.7071 0.7071 -59.6484 1055.6047)" fill="#939598" stroke="#494949" stroke-width="0.5" stroke-miterlimit="10" width="55.742" height="16.326"/>
	
		<rect id="r2-shp026b" x="1193.404" y="568.236" transform="matrix(0.7071 -0.7071 0.7071 0.7071 -50.0585 1032.4545)" fill="#939598" stroke="#494949" stroke-width="0.5" stroke-miterlimit="10" width="55.742" height="16.836"/>
	
		<rect id="r2-shp026a" x="1205.067" y="580.232" transform="matrix(0.7071 -0.7071 0.7071 0.7071 -54.8743 1044.1472)" fill="#939598" stroke="#494949" stroke-width="0.5" stroke-miterlimit="10" width="55.742" height="16.158"/>
	
		<rect id="r2-shp027" x="1175.619" y="542.133" transform="matrix(0.7071 -0.7071 0.7071 0.7071 -42.6884 1014.6678)" fill="#939598" stroke="#494949" stroke-width="0.5" stroke-miterlimit="10" width="55.742" height="33.462"/>
	
		<rect id="r2-shp028" x="1151.642" y="517.713" transform="matrix(0.7071 -0.7071 0.7071 0.7071 -32.7511 990.7071)" fill="#939598" stroke="#494949" stroke-width="0.5" stroke-miterlimit="10" width="55.743" height="34.35"/>
	
		<rect id="r2-shp024" x="1243.127" y="613.532" transform="matrix(0.7071 -0.7071 0.7071 0.7071 -70.6232 1082.2008)" fill="#939598" stroke="#494949" stroke-width="0.5" stroke-miterlimit="10" width="55.741" height="25.634"/>
	<polygon id="r2-shp022b" fill="#939598" stroke="#494949" stroke-width="0.5" stroke-miterlimit="10" points="1330.443,642.075 
		1288.863,683.653 1299.863,694.653 1341.462,653.053 	"/>
	<polygon id="r2-shp022a" fill="#939598" stroke="#494949" stroke-width="0.5" stroke-miterlimit="10" points="1354.863,666.403 
		1341.462,653.053 1299.863,694.653 1313.08,707.87 	"/>
	<polygon id="r2-shp023" fill="#939598" stroke="#494949" stroke-width="0.5" stroke-miterlimit="10" points="1265.658,660.448 
		1288.863,683.653 1328.208,644.307 1305.074,621.032 	"/>
	
		<rect id="r2-shp029a-1" x="1111.766" y="485.812" transform="matrix(0.7071 -0.7071 0.7071 0.7071 -16.2285 950.8451)" fill="#939598" stroke="#494949" stroke-width="0.5" stroke-miterlimit="10" width="55.742" height="18.399"/>
	
		<rect id="r2-shp030" x="1087.763" y="462.522" transform="matrix(0.7071 -0.7071 0.7071 0.7071 -6.2906 926.8278)" fill="#939598" stroke="#494949" stroke-width="0.5" stroke-miterlimit="10" width="55.743" height="16.971"/>
	
		<rect id="r2-shp029b" x="1099.512" y="474.626" transform="matrix(0.7071 -0.7071 0.7071 0.7071 -11.1581 938.5767)" fill="#939598" stroke="#494949" stroke-width="0.5" stroke-miterlimit="10" width="55.743" height="16.262"/>
	<polygon id="r2-shp031" fill="#939598" stroke="#494949" stroke-width="0.5" stroke-miterlimit="10" points="1117.947,433.904 
		1119.71,432.139 1095.625,408.142 1071.613,432.153 1072.113,432.153 1072.113,466.903 1089.925,484.715 1129.341,445.299 	"/>
	<polygon id="r2-shp045b" fill="#939598" stroke="#494949" stroke-width="0.5" stroke-miterlimit="10" points="642.363,396.778 
		642.363,375.09 622.391,375.09 597.488,375.09 597.488,458.403 622.391,458.403 643.391,458.403 643.391,396.778 	"/>
	<polygon id="r2-shp045a" fill="#939598" stroke="#494949" stroke-width="0.5" stroke-miterlimit="10" points="653.391,396.778 
		643.391,396.778 643.391,458.403 653.391,458.403 680.613,458.403 680.613,396.778 	"/>
	<polygon id="r2-shp032c" fill="#939598" stroke="#494949" stroke-width="0.5" stroke-miterlimit="10" points="1011.529,374.903 
		1011.529,396.069 1004.697,396.069 1004.697,432.153 1026.39,432.153 1026.39,374.903 	"/>
	
		<rect id="r2-shp032b" x="1026.39" y="374.903" fill="#939598" stroke="#494949" stroke-width="0.5" stroke-miterlimit="10" width="22" height="57.25"/>
	<polygon id="r2-shp032a" fill="#939598" stroke="#494949" stroke-width="0.5" stroke-miterlimit="10" points="1113.061,389.768 
		1098.197,374.903 1048.39,374.903 1048.39,432.153 1071.613,432.153 	"/>
	
		<rect id="r2-shp005b" x="655.113" y="530.223" fill="#939598" stroke="#494949" stroke-width="0.5" stroke-miterlimit="10" width="18.875" height="56.681"/>
	<polygon id="r2-shp006b" fill="#939598" stroke="#494949" stroke-width="0.5" stroke-miterlimit="10" points="712.488,558.278 
		712.488,530.223 690.488,530.223 690.488,586.902 700.738,586.902 700.738,558.278 	"/>
	<polygon id="r2-shp004b" fill="#939598" stroke="#494949" stroke-width="0.5" stroke-miterlimit="10" points="634.516,554.403 
		634.516,554.403 624.571,530.264 598.46,556.375 638.193,596.107 647.363,586.902 647.906,586.902 	"/>
	<polygon id="r2-shp007" fill="#939598" stroke="#494949" stroke-width="0.5" stroke-miterlimit="10" points="731.113,522.043 
		723.113,530.043 723.113,558.278 735.613,558.278 735.613,586.902 748.39,586.902 748.39,522.043 	"/>
	
		<rect id="r2-shp008a" x="748.39" y="522.043" fill="#939598" stroke="#494949" stroke-width="0.5" stroke-miterlimit="10" width="24.667" height="64.859"/>
	<polygon id="r2-shp008b" fill="#939598" stroke="#494949" stroke-width="0.5" stroke-miterlimit="10" points="795.363,539.497 
		777.91,522.043 773.057,522.043 773.057,586.902 795.363,586.902 	"/>
	<polygon id="r2-shp001" fill="#939598" stroke="#494949" stroke-width="0.5" stroke-miterlimit="10" points="509.734,635.442 
		554.459,680.168 577,657.54 532.318,612.858 	"/>
	<polygon id="r2-shp002" fill="#939598" stroke="#494949" stroke-width="0.5" stroke-miterlimit="10" points="577.446,621.821 
		550.401,594.775 532.318,612.858 577,657.54 587.479,647.021 569.863,629.405 	"/>
	<polygon id="r2-shp004a" fill="#939598" stroke="#494949" stroke-width="0.5" stroke-miterlimit="10" points="584.273,570.563 
		583.555,570.563 623.675,610.684 638.193,596.107 598.46,556.375 	"/>
	<polygon id="r2-shp003b" fill="#939598" stroke="#494949" stroke-width="0.5" stroke-miterlimit="10" points="574.613,570.563 
		563.567,581.607 590.78,608.821 608.188,626.231 623.675,610.684 583.555,570.563 	"/>
	<polygon id="r2-shp009a-b" fill="#939598" stroke="#494949" stroke-width="0.5" stroke-miterlimit="10" points="882.863,522.34 
		852.613,552.59 852.613,586.902 913.113,586.902 913.113,522.34 	"/>
	<polygon id="r2-shp019" fill="#939598" stroke="#494949" stroke-width="0.5" stroke-miterlimit="10" points="1185.925,732.465 
		1216.55,701.84 1198.363,683.653 1153.992,728.024 1169.109,743.034 1182.8,729.34 	"/>
	<polygon id="r2-shp017a-b-18a" fill="#939598" stroke="#494949" stroke-width="0.5" stroke-miterlimit="10" points="
		1182.363,667.653 1174.113,667.653 1147.031,640.571 1106.152,680.524 1141.449,715.569 1185.863,671.153 	"/>
	<polygon id="r2-shp015a-b" fill="#939598" stroke="#494949" stroke-width="0.5" stroke-miterlimit="10" points="1110.197,594.986 
		1106.613,598.821 1086.613,619.278 1094.675,627.34 1073.708,648.309 1082.675,657.215 1127.55,612.34 	"/>
	<polygon id="r2-shp021" fill="#939598" stroke="#494949" stroke-width="0.5" stroke-miterlimit="10" points="1267.656,752.946 
		1244.425,729.715 1200.218,773.922 1223.363,796.903 	"/>
	<polygon id="r2-shp020" fill="#939598" stroke="#494949" stroke-width="0.5" stroke-miterlimit="10" points="1221.863,707.153 
		1177.576,751.44 1200.218,773.922 1244.425,729.715 	"/>
	<polygon id="r2-shp018b" fill="#939598" stroke="#494949" stroke-width="0.5" stroke-miterlimit="10" points="1185.863,671.153 
		1141.449,715.569 1153.992,728.024 1198.363,683.653 	"/>
	<polygon id="r2-shp011a-b" fill="#939598" stroke="#494949" stroke-width="0.5" stroke-miterlimit="10" points="963.488,528.528 
		945.613,528.528 945.613,556.903 956.863,556.903 956.863,586.902 979.988,586.902 979.988,528.528 	"/>
	<polygon id="r2-shp010" fill="#939598" stroke="#494949" stroke-width="0.5" stroke-miterlimit="10" points="934.863,557.403 
		934.863,528.278 928.925,522.34 913.113,522.34 913.113,586.902 924.238,586.902 924.238,557.403 	"/>
	<polygon id="r2-shp014" fill="#939598" stroke="#494949" stroke-width="0.5" stroke-miterlimit="10" points="1079.55,612.465 
		1099.9,592.115 1077.451,569.69 1036.136,611.004 1050.563,625.329 1071.488,604.403 	"/>
	
		<rect id="r2-shp012a" x="979.988" y="528.528" fill="#939598" stroke="#494949" stroke-width="0.5" stroke-miterlimit="10" width="18.625" height="58.375"/>
	<polygon id="r2-shp013b" fill="#939598" stroke="#494949" stroke-width="0.5" stroke-miterlimit="10" points="1064.943,557.199 
		1023.591,598.549 1036.136,611.004 1077.451,569.69 	"/>
	
		<rect id="r2-shp012b-1" x="998.613" y="528.528" fill="#939598" stroke="#494949" stroke-width="0.5" stroke-miterlimit="10" width="13.111" height="58.374"/>
	<polygon id="r2-shp012b-2" fill="#939598" stroke="#494949" stroke-width="0.5" stroke-miterlimit="10" points="1036.238,528.528 
		1014.113,528.528 1011.725,528.528 1011.725,586.902 1011.863,586.902 1012.175,587.213 1036.609,528.898 	"/>
	<polygon id="r2-shp013a" fill="#939598" stroke="#494949" stroke-width="0.5" stroke-miterlimit="10" points="1036.609,528.898 
		1012.175,587.213 1023.591,598.549 1064.943,557.199 	"/>
	<polygon id="robinson" fill="#939598" stroke="#494949" stroke-width="0.5" stroke-miterlimit="10" points="556.552,682.426 
		404.03,529.903 428.259,506.674 350.015,428.722 158.175,620.215 390.029,852.237 	"/>
	<polygon id="central-department-store" fill="#939598" stroke="#494949" stroke-width="0.5" stroke-miterlimit="10" points="
		1200.218,820.905 1452.541,568.582 1647.605,763.647 1394.523,1016.731 	"/>
	<path id="r028" fill="#939598" stroke="#494949" stroke-width="0.5" stroke-miterlimit="10" d="M936.363,616.528v-5.523h-25v28.006
		c7.508-0.236,15.979-0.123,25,0.664v-21.27V616.528z"/>
	<path id="r025" fill="#939598" stroke="#494949" stroke-width="0.5" stroke-miterlimit="10" d="M1018.531,627.071l-9.668-8.666
		h-29.098v30.659c4.229,1.556,8.441,3.314,12.598,5.341L1018.531,627.071z"/>
	<path id="r027" fill="#939598" stroke="#494949" stroke-width="0.5" stroke-miterlimit="10" d="M943.363,618.405v22.008
		c5.662,0.703,11.483,1.691,17.375,3.029v-25.037H943.363z"/>
	<path id="r024" fill="#939598" stroke="#494949" stroke-width="0.5" stroke-miterlimit="10" d="M1045.275,655.483l5.168-5.168
		l-4.996-4.996l2.582-2.582l-15.666-15.666l-25.332,25.334c0,0,11.834,7.684,26.162,19.754l14.379-14.379L1045.275,655.483z"/>
	<path id="r021" fill="#939598" stroke="#494949" stroke-width="0.5" stroke-miterlimit="10" d="M1102.447,681.987l-31.209,31.209
		c1.893,2.924,3.617,5.887,5.125,8.875c0,0,17.5-1.666,27,8.334l23.75-23.752L1102.447,681.987z"/>
	<path id="r022-023" fill="#939598" stroke="#494949" stroke-width="0.5" stroke-miterlimit="10" d="M1097.531,677.071l-1.846,1.844
		l-13.166-13.168l-13.49,13.49l-4.959-4.959l-16.498-16.498l-14.379,14.379c5.543,4.67,11.459,9.998,17.207,15.791
		c7.676,7.734,15.051,16.303,20.838,25.246l31.209-31.209L1097.531,677.071z"/>
	<path id="r020" fill="#939598" stroke="#494949" stroke-width="0.5" stroke-miterlimit="10" d="M1148.779,728.319l-23.916,23.918
		c0,0,9,11.5,8.334,24.666c0,0,4.35,1.938,10.309,4.855l29.357-29.355L1148.779,728.319z"/>
	<path id="r019" fill="#939598" stroke="#494949" stroke-width="0.5" stroke-miterlimit="10" d="M1197.447,776.987l-24.584-24.584
		l-29.357,29.355c9.998,4.896,24.531,12.559,30.691,18.479L1197.447,776.987z"/>
	<path id="r016" fill="#939598" stroke="#494949" stroke-width="0.5" stroke-miterlimit="10" d="M1134.113,898.153l-12.25,12.25
		l-3.75-3.75l-7.125,7.125c0,0,11.186,26.555,39.396,48.604l23.979-23.979C1154.542,918.584,1134.113,898.153,1134.113,898.153z"/>
	<path id="r013" fill="#939598" stroke="#494949" stroke-width="0.5" stroke-miterlimit="10" d="M1042.476,793.159L1042.476,793.159
		l5.988-5.34c-0.731-0.955-7.817-10.469-8.768-23.582c0,0-19.144-17.902-33.521-32.693l-23.479,22.527l-12.75-11.916l1,1
		l-7.791,7.791l1.957,1.957l-4.625,4.625c0,0,16.125,43.375,54.125,56.375l5.75-5.75l2.5,2.5L1042.476,793.159L1042.476,793.159z"/>
	<path id="r012" fill="#939598" stroke="#494949" stroke-width="0.5" stroke-miterlimit="10" d="M1006.177,731.543
		c-7.381-7.592-13.508-14.363-15.146-17.473l-24.584,24.584l3.5,3.5l12.75,11.916L1006.177,731.543z"/>
	<path id="r015" fill="#939598" stroke="#494949" stroke-width="0.5" stroke-miterlimit="10" d="M1105.13,855.534l-27.502,26.52
		c7.115,5.486,15.549,10.438,25.484,14.102l1.082-1.082l1.168-1.168l2.334-2.334l5.5,5.502l10.25-10.25
		C1123.447,886.821,1113.142,875.37,1105.13,855.534z"/>
	<path id="r014" fill="#939598" stroke="#494949" stroke-width="0.5" stroke-miterlimit="10" d="M1095.865,808.737
		c0,0-12.82,1.689-25.613-5.725l-25.764,29.266l2.125,2.125l-2.625,2.625c0,0,8.705,25.799,33.643,45.023l27.5-26.52
		C1100.076,843.021,1095.927,827.176,1095.865,808.737z"/>
	<path id="r006" fill="#939598" stroke="#494949" stroke-width="0.5" stroke-miterlimit="10" d="M600.863,781.737l33,29.666
		l4.25-4.25l2.765,2.766c0,0,20.094-6.721,36.932-27.234l-35.75-35.75C621.009,767.803,600.863,781.737,600.863,781.737z"/>
	<path id="r007" fill="#939598" stroke="#494949" stroke-width="0.5" stroke-miterlimit="10" d="M689.613,755.403l4.396-4.396
		l-7.646-7.77l5.5-5.334l-9-9l-4.667,4.5l-12.833-12.834c-7.197,9.535-15.315,18.445-23.304,26.363l35.75,35.75
		c5.458-6.648,10.575-14.738,14.555-24.529L689.613,755.403z"/>
	<path id="r002" fill="#939598" stroke="#494949" stroke-width="0.5" stroke-miterlimit="10" d="M478.863,818.403
		c-0.03-0.027-0.066-0.061-0.1-0.086l-30.9,38.336v11.43c3.53-1.121,7.054-1.873,10.25-1.93v5.25l33.5,5l1.25-5.75
		c0,0,1.17,0.514,3.048,1.445l10.354-38.313C494.263,829.551,483.348,822.372,478.863,818.403z"/>
	<path id="r001" fill="#939598" stroke="#494949" stroke-width="0.5" stroke-miterlimit="10" d="M478.765,818.317
		c-5.415-4.809-22.558-21.344-28.688-27.271l-56.962,58.107l30.75,30.75c0,0,12.059-8.035,23.999-11.82v-11.43L478.765,818.317z"/>
	<path id="r003" fill="#939598" stroke="#494949" stroke-width="0.5" stroke-miterlimit="10" d="M522.613,837.153
		c-5.348-0.154-10.956-1.463-16.349-3.365L495.911,872.1c6.25,3.109,20.435,10.941,26.202,20.555c0,0,9.553,0.795,23.771-3.938
		l-7.309-52.02C532.918,837.396,527.559,837.297,522.613,837.153z"/>
	<path id="r004" fill="#939598" stroke="#494949" stroke-width="0.5" stroke-miterlimit="10" d="M565.066,826.018
		c-9.239,6.889-18.188,9.65-26.491,10.68l7.309,52.02c11.844-3.941,26.925-11.729,42.429-27.012L565.066,826.018z"/>
	<path id="r037" fill="#939598" stroke="#494949" stroke-width="0.5" stroke-miterlimit="10" d="M533.039,706.411l24.464,24.465
		c5.207-6.807,12.35-15.457,21.479-25.021l-22.926-22.926L533.039,706.411z"/>
	<path id="r035-036" fill="#939598" stroke="#494949" stroke-width="0.5" stroke-miterlimit="10" d="M637.03,657.541l-15.152-15.152
		l-5.265,5.266l-3.667-3.666l-6.25,6.25l6,6l-23.797,23.797l-15.152-15.15l-17.689,18.045l22.926,22.925
		c5.356-5.613,11.394-11.543,18.133-17.599l0,0C608.441,678.076,621.728,667.539,637.03,657.541z"/>
	<path id="r034" fill="#939598" stroke="#494949" stroke-width="0.5" stroke-miterlimit="10" d="M660.196,618.071l-16.833,15.666
		l21.188,20.666c0,0,7.169-3.863,20.479-7.666v-28.666H660.196z"/>
	<path id="r032" fill="#939598" stroke="#494949" stroke-width="0.5" stroke-miterlimit="10" d="M722.03,611.403v4.918v1.75v22.088
		c7.47-0.613,15.593-0.883,24.333-0.646v-28.107L722.03,611.403L722.03,611.403z"/>
	<path id="r030" fill="#939598" stroke="#494949" stroke-width="0.5" stroke-miterlimit="10" d="M806.363,589.232H779.03v51.896
		c3.934-3.674,15.967-14.244,27.333-17.393V589.232L806.363,589.232z"/>
	<path id="r011" fill="#939598" stroke="#494949" stroke-width="0.5" stroke-miterlimit="10" d="M925.863,685.504
		c-10.332-0.268-22.666-0.934-20.166,22.898c2.5,23.834,20.375,38,46.354,15c25.98-23,8.814-34.77-8.688-36.332
		C925.863,685.504,925.863,685.504,925.863,685.504z"/>
	<path id="r009" fill="#939598" stroke="#494949" stroke-width="0.5" stroke-miterlimit="10" d="M770.218,711.903
		c-4.251,12.598-3.51,37.188,32.989,22.602c2.242-5.83,4.642-12.93,6.262-20.094c-4.079-3.289-10.637-8.365-15.773-11.342
		C785.638,698.403,774.718,698.569,770.218,711.903z"/>
	<polygon id="r2-kio033" fill="#939598" stroke="#494949" stroke-width="0.5" stroke-miterlimit="10" points="1049.447,505.653 
		1069.113,485.987 1060.195,477.07 1043.697,477.07 1043.697,505.653 	"/>
	<path id="r2-kio038-039" fill="#939598" stroke="#494949" stroke-width="0.5" stroke-miterlimit="10" d="M1115.164,576.061
		l-0.057,0.059l-10.355-10.355l0,0l-10.829-10.828c-0.149,0.991-0.254,1.999-0.254,3.032c0,5.239,2.021,9.995,5.305,13.573l0.001,0
		v0c3.677,4.004,8.937,6.527,14.798,6.527c0.485,0,0.965-0.039,1.44-0.072L1115.164,576.061z"/>
	<path id="r2-kio034" fill="#939598" stroke="#494949" stroke-width="0.5" stroke-miterlimit="10" d="M1133.871,557.968
		c0-11.101-8.998-20.1-20.103-20.1c-1.024,0-2.026,0.102-3.014,0.25l21.176,21.177l-0.059,0.061l1.922,0.109
		C1133.832,558.969,1133.871,558.473,1133.871,557.968z"/>
</g>
<g id="signs">
	<g id="stairs">
		<rect x="521.583" y="565.624" opacity="0.8" enable-background="new    " width="14.811" height="14.81"/>
		<rect x="1128.203" y="568.714" opacity="0.8" enable-background="new    " width="14.811" height="14.812"/>
	</g>
	<g id="handicapped-elevator">
		<rect x="469.688" y="453.496" opacity="0.8" enable-background="new    " width="14.812" height="14.81"/>
		<rect x="1151.832" y="435.375" opacity="0.8" enable-background="new    " width="14.811" height="14.81"/>
		<rect x="878.025" y="375.898" opacity="0.8" enable-background="new    " width="14.811" height="14.81"/>
		<rect x="948.693" y="597.827" opacity="0.8" enable-background="new    " width="14.811" height="14.809"/>
		<rect x="635.896" y="605.231" opacity="0.8" enable-background="new    " width="14.811" height="14.809"/>
	</g>
	<g id="telephone">
		<rect x="485.909" y="453.496" opacity="0.8" enable-background="new    " width="14.811" height="14.81"/>
		<rect x="1168.052" y="435.375" opacity="0.8" enable-background="new    " width="14.812" height="14.81"/>
		<rect x="894.248" y="375.898" opacity="0.8" enable-background="new    " width="14.811" height="14.81"/>
	</g>
	<g id="atm">
		<rect x="502.131" y="453.496" opacity="0.8" enable-background="new    " width="14.813" height="14.81"/>
		<rect x="910.47" y="375.898" opacity="0.8" enable-background="new    " width="14.812" height="14.81"/>
	</g>
	<g id="toilet">
		<rect x="1135.609" y="435.375" opacity="0.8" enable-background="new    " width="14.811" height="14.81"/>
		<rect x="453.464" y="453.496" opacity="0.8" enable-background="new    " width="14.813" height="14.81"/>
		<rect x="861.802" y="375.898" opacity="0.8" enable-background="new    " width="14.812" height="14.81"/>
		<rect x="652.729" y="605.231" opacity="0.8" enable-background="new    " width="14.813" height="14.809"/>
		<rect x="965.527" y="597.827" opacity="0.8" enable-background="new    " width="14.811" height="14.809"/>
	</g>
	<rect id="parking" x="824.414" y="290.564" opacity="0.8" enable-background="new    " width="14.811" height="14.81"/>
	<g id="lift">
		<rect x="447.909" y="486.624" opacity="0.8" enable-background="new    " width="14.811" height="14.81"/>
		<rect x="1199.697" y="490.758" opacity="0.8" enable-background="new    " width="14.811" height="14.812"/>
		<rect x="797.335" y="375.898" opacity="0.8" enable-background="new    " width="14.813" height="14.81"/>
		<rect x="998.791" y="597.827" opacity="0.8" enable-background="new    " width="14.811" height="14.809"/>
		<rect x="619.063" y="605.231" opacity="0.8" enable-background="new    " width="14.813" height="14.809"/>
	</g>
	<rect id="baby-change-room" x="982.359" y="597.827" opacity="0.8" enable-background="new    " width="14.811" height="14.809"/>
	<g id="escalator">
		<rect x="575.759" y="530.194" opacity="0.8" enable-background="new    " width="14.813" height="14.81"/>
		<rect x="1075.253" y="530.194" opacity="0.8" enable-background="new    " width="14.812" height="14.81"/>
		<rect x="1223.55" y="666.456" opacity="0.8" enable-background="new    " width="14.812" height="14.809"/>
		<rect x="802.083" y="530.194" opacity="0.8" enable-background="new    " width="14.811" height="14.81"/>
		<rect x="845.667" y="530.194" opacity="0.8" enable-background="new    " width="14.811" height="14.81"/>
		<rect x="1062.479" y="742.147" opacity="0.8" enable-background="new    " width="14.813" height="14.809"/>
		<rect x="820.146" y="668.456" opacity="0.8" enable-background="new    " width="14.811" height="14.809"/>
		<rect x="547.873" y="765.681" opacity="0.8" enable-background="new    " width="14.811" height="14.811"/>
	</g>
	<g id="fire-exit">
		<rect x="936.123" y="567.314" opacity="0.8" enable-background="new    " width="14.811" height="14.81"/>
		<rect x="710.015" y="567.314" opacity="0.8" enable-background="new    " width="14.813" height="14.81"/>
		<rect x="583.164" y="624.269" opacity="0.8" enable-background="new    " width="14.811" height="14.812"/>
		<rect x="1064.541" y="618.665" opacity="0.8" enable-background="new    " width="14.811" height="14.809"/>
		<rect x="1172.125" y="734.742" opacity="0.8" enable-background="new    " width="14.811" height="14.809"/>
	</g>
</g>
</svg>
