<?xml version="1.0" encoding="utf-8"?>
<!-- Generator: Adobe Illustrator 16.0.0, SVG Export Plug-In . SVG Version: 6.00 Build 0)  -->
<!DOCTYPE svg PUBLIC "-//W3C//DTD SVG 1.1//EN" "http://www.w3.org/Graphics/SVG/1.1/DTD/svg11.dtd">
<svg version="1.1" id="Layer_1" xmlns="http://www.w3.org/2000/svg" xmlns:xlink="http://www.w3.org/1999/xlink" x="0px" y="0px"
	 width="1000px" height="1000px" viewBox="0 0 1000 1000" enable-background="new 0 0 1000 1000" xml:space="preserve">
<g id="Layer_1_1_">
	<g id="Background">
		<rect x="10.512" y="149.84" fill="#FFFFFF" width="1000" height="707.091"/>
	</g>
	<g id="Original">
	</g>
	<g id="ETC">
		<polygon fill="#DEDEDE" stroke="#494949" stroke-width="0.5" stroke-miterlimit="10" points="181.732,437.226 245.397,406.699 
			275.33,382.884 327.89,338.46 446.55,289.405 469.474,284.357 490.557,271.885 537.355,271.885 546.146,284.357 550.065,289.108 
			620.086,328.721 689.334,378.014 854.317,475.65 861.741,484.915 796.234,720.691 698.361,669.022 571.98,592.707 
			565.031,585.759 511.047,561.053 434.553,578.513 341.133,638.378 215.465,659.817 155.719,620.026 71.327,492.636 
			128.044,435.087 		"/>
		<path fill="#DEDEDE" stroke="#494949" stroke-width="0.5" stroke-miterlimit="10" d="M740.111,686.305
			c3.445,3.444,3.979,8.374,1.247,11.105l-16.035,16.035c-2.731,2.732-7.72,2.139-11.105-1.247l-38.365-38.365
			c-3.445-3.444-3.979-8.374-1.247-11.105l16.035-16.035c2.731-2.732,7.721-2.139,11.105,1.247L740.111,686.305z"/>
		
			<path fill="#DEDEDE" stroke="#494949" stroke-width="0.5" stroke-linecap="round" stroke-linejoin="round" stroke-miterlimit="10" d="
			M772.479,696.698l-15.619,15.619l-14.135-13.659c5.345-10.097-4.573-16.808-4.573-16.808l9.74-9.74l-38.9-38.899l12.531-12.531
			l-11.996-11.997l-16.985,16.867c-7.424-8.374-23.222-13.007-23.222-13.007c0.653-14.966-10.631-23.815-10.631-23.815l15.441-15.44
			l-19.658-19.658l-21.558,21.559c-14.61-23.638-38.723-36.94-38.723-36.94l18.945-18.945l9.74,9.739l-1.307,1.307l2.197,2.198
			l-3.207,3.207l14.312,14.312l8.018-8.018l-43.829-43.829h-61.527v11.937h20.252v7.009h23.459v-3.029h18.173l5.464,5.642
			l-15.501,15.501c-30.941-15.501-66.278-6.771-66.278-6.771c-7.424-8.552-17.223-11.402-17.223-11.402v-18.886h-26.31v19.004
			c0,0-10.512,3.504-16.511,11.225c0,0-16.035-2.435-33.555-1.662v-12.65l33.674-0.356v-15.56h-76.375L231.975,653.047l-9.383-9.384
			l-6.533,6.533l5.404,5.404l-12.175,12.175l1.307,1.307l-10.928,10.928c15.025,3.741,32.249,0.415,55.945-11.403
			c6.236-3.088,11.878-4.929,17.045-5.82l-0.594-3.979l-16.035-16.154l23.28-23.28c0,0,16.629,17.342,32.07,18.113
			c15.441,0.772,30.17-7.008,41.691-29.694c0,0,18.708-9.265,42.227-42.285l16.569,18.886l-2.851,3.325l4.572,5.167l3.267-3.266
			l4.217-3.86l-6.83-7.127l-0.653,0.771l-15.382-15.738l0,0l0,0c8.493-4.216,36.881-16.51,66.22-8.314
			c0,0,7.008,7.721,19.896,10.216c0,0-0.476,9.977-6.414,20.192h29.991c-5.285-7.246-6.235-20.312-6.235-20.312
			s6.83,0.713,20.073-9.8c0,0,41.335-9.442,66.041,8.79l0,0l0,0l-14.847,14.848l-0.713-0.713l-7.067,7.067l3.444,3.444l3.563,3.563
			l4.988-5.048l-3.266-3.267l5.345-5.345l-0.831-0.832l11.64-11.64c3.92,4.691,21.202,25.003,31.417,32.07
			c0,0-1.307,26.31,31.477,28.685c0,0,14.848,22.865,21.499,26.132c0,0-9.384,7.721-4.276,21.083l-8.552,7.602l1.366,1.366
			l-4.454,3.86c0.712,1.425,1.484,2.791,2.197,4.098l12.769-12.828c0,0,28.686,30.17,36.881,38.365
			c8.195,8.196,19.599,6.236,25.062,0.772s10.274-9.502,10.274-9.502l14.906,14.491c3.683,0.237,7.543,0.95,12.116,1.722
			c16.629,2.97,23.637-3.86,23.637-3.86L772.479,696.698z M424.872,527.082c-10.689,0.831-21.499,3.088-29.22,7.898l-11.937-12.175
			l9.442-8.314l31.654-0.297v12.888H424.872z"/>
		
			<ellipse fill="#DEDEDE" stroke="#494949" stroke-width="0.5" stroke-miterlimit="10" cx="493.289" cy="540.622" rx="26.072" ry="16.688"/>
		<polygon fill="#DEDEDE" stroke="#494949" stroke-width="0.5" stroke-miterlimit="10" points="328.543,465.554 334.778,459.378 
			334.778,449.4 338.579,449.4 353.13,434.79 364.651,446.312 360.494,450.469 360.494,460.149 356.931,460.149 344.934,472.146 
			339.292,472.146 337.214,474.166 		"/>
		<polygon fill="#DEDEDE" stroke="#494949" stroke-width="0.5" stroke-miterlimit="10" points="627.984,460.149 641.822,474.047 
			648.83,474.047 661.302,486.459 671.102,476.66 651.027,456.586 651.027,451.182 634.398,436.275 622.104,448.747 627.094,453.32 
					"/>
		<path fill="#DEDEDE" stroke="#494949" stroke-width="0.5" stroke-miterlimit="10" d="M668.429,636.358
			c-3.683-5.107-4.039-8.018,5.998-10.69c10.037-2.672,10.274,5.404,6.533,10.156C677.218,640.575,673.002,642.772,668.429,636.358z
			"/>
		<path fill="#DEDEDE" stroke="#494949" stroke-width="0.5" stroke-miterlimit="10" d="M659.223,611.296
			c0.654-4.098-0.178-9.027-2.731-13.719c-4.691-8.79-13.481-13.244-19.539-9.978c-1.01,0.534-1.841,1.247-2.613,2.138l4.395,6.296
			l-6.948,5.464c0.416,2.612,1.307,5.345,2.673,7.958c4.514,8.374,12.709,12.828,18.767,10.334l-1.9-5.583L659.223,611.296z"/>
		<path fill="#DEDEDE" stroke="#494949" stroke-width="0.5" stroke-miterlimit="10" d="M593.36,552.382
			c0.653-3.445,0.356-8.018,8.552-0.653c8.196,7.364,23.34,23.459,25.122,26.784c1.781,3.326,1.247,3.326-0.831,7.008
			c-2.079,3.683-2.079,7.959-8.909,1.069c-6.829-6.89-22.509-24.29-23.874-26.369C592.054,558.143,592.826,555.232,593.36,552.382z"
			/>
		
			<rect x="504.995" y="525.296" transform="matrix(-0.9234 0.384 -0.384 -0.9234 1182.9572 842.9512)" fill="#DEDEDE" stroke="#494949" stroke-width="0.5" stroke-miterlimit="10" width="4.693" height="28.507"/>
		
			<rect x="466.728" y="537.444" transform="matrix(-0.3742 0.9273 -0.9273 -0.3742 1161.5193 295.727)" fill="#DEDEDE" stroke="#494949" stroke-width="0.5" stroke-miterlimit="10" width="28.506" height="4.632"/>
		<path fill="#DEDEDE" stroke="#494949" stroke-width="0.5" stroke-miterlimit="10" d="M398.147,548.046
			c-0.06,5.048-1.188,9.027,9.323,4.692c12.234-5.049,36.109-6.89,42.048-5.702c5.939,1.188,7.127-0.831,8.315-5.819
			c1.188-4.989,3.919-7.543-6.593-7.662c-10.512-0.118-25.062-0.712-39.435,3.267C397.435,540.801,398.325,538.247,398.147,548.046z
			"/>
		<path fill="#DEDEDE" stroke="#494949" stroke-width="0.5" stroke-miterlimit="10" d="M343.271,585.759
			c5.345-8.493,26.31-27.913,32.961-31.773c3.741-2.139,6.295-0.713,7.364,6.651c1.069,7.305,2.554,8.195-4.691,15.857
			c-7.246,7.602-15.62,14.847-19.421,17.994c-3.741,3.148-5.82,1.96-12.294,0C340.836,592.528,339.232,592.231,343.271,585.759z"/>
		<path fill="#DEDEDE" stroke="#494949" stroke-width="0.5" stroke-miterlimit="10" d="M332.105,611.83l-3.622-9.442
			c-4.217-0.535-9.146,0.594-13.66,3.385c-8.492,5.286-12.293,14.491-8.492,20.668c0.475,0.712,1.01,1.365,1.604,1.96l6.532-4.573
			l5.643,7.424c2.791-0.476,5.701-1.544,8.434-3.267c7.364-4.573,11.225-12.175,9.562-18.114L332.105,611.83z"/>
		<path fill="#DEDEDE" stroke="#494949" stroke-width="0.5" stroke-miterlimit="10" d="M529.279,540.266
			c-1.307-4.216-1.604-6.117,2.791-6.414c7.602-0.534,14.075-0.771,22.093-0.297c8.018,0.476,22.687,3.92,27.2,5.643
			c4.514,1.722,3.801,2.494,3.742,8.136c-0.06,5.643,1.247,8.018-6.355,5.227c-7.602-2.791-15.56-5.285-23.458-5.701
			c-7.84-0.416-15.977-0.713-20.608-0.297C529.992,546.918,529.576,541.217,529.279,540.266z"/>
		<path fill="#DEDEDE" stroke="#494949" stroke-width="0.5" stroke-miterlimit="10" d="M56.955,478.264
			c-24.35,31.061-0.772,53.688-0.772,53.688l-9.681,9.681l94.726,94.727l5.167-5.167l26.547,26.547l31.773-31.773L56.955,478.264z"
			/>
		
			<rect x="623.952" y="451.838" transform="matrix(-1 0.0045 -0.0045 -1 1278.4429 905.4995)" fill="#DEDEDE" stroke="#494949" stroke-width="0.5" stroke-miterlimit="10" width="28.507" height="4.691"/>
		
			<rect x="626.15" y="456.649" transform="matrix(-1 0.0045 -0.0045 -1 1282.86 915.1107)" fill="#DEDEDE" stroke="#494949" stroke-width="0.5" stroke-miterlimit="10" width="28.507" height="4.691"/>
		
			<rect x="715.456" y="515.687" transform="matrix(-0.704 0.7102 -0.7102 -0.704 1599.4553 393.31)" fill="#DEDEDE" stroke="#494949" stroke-width="0.5" stroke-miterlimit="10" width="4.631" height="28.507"/>
		
			<rect x="711.435" y="518.26" transform="matrix(-0.7041 0.7101 -0.7101 -0.7041 1594.451 400.6812)" fill="#DEDEDE" stroke="#494949" stroke-width="0.5" stroke-miterlimit="10" width="4.632" height="28.507"/>
		
			<rect x="708.595" y="523.891" transform="matrix(-0.7041 0.7101 -0.7101 -0.7041 1592.4484 409.5108)" fill="#DEDEDE" stroke="#494949" stroke-width="0.5" stroke-miterlimit="10" width="4.632" height="25.24"/>
		
			<rect x="718.55" y="513.658" transform="matrix(-0.704 0.7102 -0.7102 -0.704 1602.1284 384.8729)" fill="#DEDEDE" stroke="#494949" stroke-width="0.5" stroke-miterlimit="10" width="4.633" height="25.241"/>
		
			<rect x="333.832" y="450.65" transform="matrix(-1 0.0045 -0.0045 -1 698.2158 904.4145)" fill="#DEDEDE" stroke="#494949" stroke-width="0.5" stroke-miterlimit="10" width="28.507" height="4.692"/>
		
			<rect x="333.06" y="455.402" transform="matrix(-1 0.0046 -0.0046 -1 696.7402 913.885)" fill="#DEDEDE" stroke="#494949" stroke-width="0.5" stroke-miterlimit="10" width="28.507" height="4.692"/>
		<polygon fill="#DEDEDE" stroke="#494949" stroke-width="0.5" stroke-miterlimit="10" points="371.719,428.376 371.719,444.827 
			374.153,444.827 379.974,450.588 403.789,450.588 392.861,439.72 403.967,428.614 		"/>
		
			<rect x="472.712" y="434.678" transform="matrix(-0.9111 0.4122 -0.4122 -0.9111 1090.6638 658.2245)" fill="#DEDEDE" stroke="#494949" stroke-width="0.5" stroke-miterlimit="10" width="3.267" height="24.113"/>
		
			<rect x="500.469" y="444.571" transform="matrix(-0.3629 0.9318 -0.9318 -0.3629 1114.278 130.6005)" fill="#DEDEDE" stroke="#494949" stroke-width="0.5" stroke-miterlimit="10" width="24.052" height="3.266"/>
		<path fill="#DEDEDE" stroke="#494949" stroke-width="0.5" stroke-miterlimit="10" d="M500.831,417.983
			c-0.475-3.86-3.741-6.83-7.72-6.83c-4.099,0-7.424,3.147-7.78,7.186c0,0.238-0.06,0.416-0.06,0.653
			c0,1.841,0.653,3.564,1.781,4.929c0.179,0.237,0.356,0.416,0.535,0.594l0.059,0.06c0.179,0.179,0.356,0.297,0.535,0.476
			c0.06,0.059,0.119,0.118,0.178,0.118c0.179,0.119,0.297,0.238,0.476,0.297c0.06,0.06,0.178,0.119,0.237,0.119
			c0.178,0.06,0.297,0.178,0.476,0.237c0.118,0.06,0.178,0.06,0.297,0.119c0.178,0.06,0.297,0.119,0.475,0.178
			c0.119,0.06,0.179,0.06,0.297,0.119c0.179,0.06,0.356,0.119,0.476,0.119c0.118,0,0.178,0.059,0.297,0.059
			c0.178,0.06,0.356,0.06,0.534,0.119c0.119,0,0.179,0.06,0.237,0.06c0.298,0.06,0.535,0.06,0.832,0.06s0.594,0,0.891-0.06
			c0.06,0,0.179,0,0.237-0.06c0.179,0,0.416-0.06,0.595-0.119c0.118,0,0.178-0.059,0.297-0.059c0.178-0.06,0.355-0.119,0.594-0.179
			c0.06,0,0.178-0.06,0.237-0.06c0.179-0.059,0.416-0.178,0.594-0.237c0.06,0,0.119-0.06,0.179-0.06
			c1.01-0.534,1.9-1.307,2.613-2.197c1.009-1.307,1.604-2.969,1.604-4.751C500.891,418.577,500.891,418.28,500.831,417.983z"/>
		<path fill="#DEDEDE" stroke="#494949" stroke-width="0.5" stroke-miterlimit="10" d="M504.87,425.169l-1.9-3.207h-19.124
			l-1.662,3.207c-4.099,0.297-8.434,0.772-12.888,1.544l14.847,34.209h18.589l14.551-34.209
			C517.282,426.713,512.591,425.763,504.87,425.169z"/>
		<polygon fill="#DEDEDE" stroke="#494949" stroke-width="0.5" stroke-miterlimit="10" points="582.076,428.673 582.076,450.944 
			608.386,450.944 615.453,443.817 615.453,428.911 		"/>
		<path fill="#DEDEDE" stroke="#494949" stroke-width="0.5" stroke-miterlimit="10" d="M805.855,426.892l-9.621,9.027l-5.938-5.88
			c3.563-3.623,5.701-8.611,5.701-14.075c0-11.165-9.027-20.192-20.192-20.192c-5.523,0-10.452,2.197-14.135,5.761l-13.719-13.719
			c3.385-3.623,5.464-8.434,5.464-13.778c0-11.166-9.027-20.192-20.192-20.192c-5.346,0-10.215,2.078-13.838,5.463l-12.234-12.175
			c3.623-3.623,5.88-8.671,5.88-14.194c0-11.165-9.027-20.192-20.192-20.192c-5.583,0-10.631,2.257-14.254,5.879l-7.482-7.424
			l9.383-8.493l-34.268-32.842H339.292l-8.374,8.374c-3.623-3.326-8.374-5.345-13.659-5.345c-11.165,0-20.192,9.027-20.192,20.192
			c0,5.286,2.019,10.037,5.345,13.66l-3.267,3.267c-3.563-3.207-8.314-5.167-13.481-5.167c-11.166,0-20.192,9.027-20.192,20.192
			c0,5.167,1.959,9.918,5.167,13.481l-60.637,60.577l46.383,46.383l78.216-78.097l318.684,0.95l161.955,161.361l46.562-46.561
			L805.855,426.892z"/>
		<polygon id="r1-shp018a" fill="#DEDEDE" stroke="#494949" stroke-width="0.5" stroke-miterlimit="10" points="689.274,530.407 
			663.024,556.657 670.21,563.784 696.46,537.594 		"/>
		<polygon fill="#DEDEDE" stroke="#494949" stroke-width="0.5" stroke-miterlimit="10" points="682.504,523.637 656.194,549.887 
			663.024,556.657 689.274,530.407 		"/>
		<path fill="#DEDEDE" stroke="#494949" stroke-width="0.5" stroke-miterlimit="10" d="M172.823,657.738l-3.86,3.86
			c10.037,9.443,19.717,15.857,30.586,18.529l10.928-10.928l-1.307-1.306l4.454-4.455l-23.281-23.161L172.823,657.738z"/>
		<polygon fill="#DEDEDE" stroke="#494949" stroke-width="0.5" stroke-miterlimit="10" points="222.414,643.782 204.597,625.965 
			190.343,640.278 213.564,663.439 221.285,655.719 215.881,650.314 		"/>
		<path fill="#DEDEDE" stroke="#494949" stroke-width="0.5" stroke-miterlimit="10" d="M683.514,689.334l-14.551,14.55
			c2.02,2.495,4.039,4.811,6.117,6.949l14.788-14.788C687.671,693.669,685.474,691.412,683.514,689.334z"/>
		<path fill="#DEDEDE" stroke="#494949" stroke-width="0.5" stroke-miterlimit="10" d="M689.868,695.985l-14.788,14.788
			c2.494,2.554,5.048,4.811,7.602,6.83l14.254-14.254C694.619,700.974,692.244,698.42,689.868,695.985z"/>
		<path fill="#DEDEDE" stroke="#494949" stroke-width="0.5" stroke-miterlimit="10" d="M760.482,722.829l-14.907-14.491
			c0,0-4.87,4.039-10.274,9.503l-0.059,0.06l5.76,5.761v3.028C748.426,723.126,754.128,722.354,760.482,722.829z"/>
		<path fill="#DEDEDE" stroke="#494949" stroke-width="0.5" stroke-miterlimit="10" d="M735.183,717.9
			c-5.405,5.345-16.511,7.245-24.647-0.476l-10.689,10.69c15.025,6.771,27.141,6.771,27.141,6.771
			c5.404-3.683,9.918-6.355,13.897-8.196v-3.028L735.183,717.9z"/>
		<path fill="#DEDEDE" stroke="#494949" stroke-width="0.5" stroke-miterlimit="10" d="M710.238,717.009
			c-2.731-2.731-7.779-7.958-13.243-13.659l-14.254,14.254c5.82,4.632,11.7,7.958,17.164,10.452l10.689-10.69
			C710.477,717.247,710.357,717.128,710.238,717.009z"/>
		<path fill="#DEDEDE" stroke="#494949" stroke-width="0.5" stroke-miterlimit="10" d="M742.605,698.836l14.135,13.659l15.62-15.619
			l-24.587-24.587l-9.74,9.739C738.033,681.97,747.951,688.74,742.605,698.836z"/>
		<path fill="#DEDEDE" stroke="#494949" stroke-width="0.5" stroke-miterlimit="10" d="M311.26,637.546
			c-1.425-0.06-2.851-0.297-4.335-0.594l-7.364,30.764c9.562,5.939,13.897,14.551,13.897,14.551
			c4.811-0.713,9.265-1.842,13.362-3.207v-44.008C321.832,637.071,316.605,637.783,311.26,637.546z"/>
		<path fill="#DEDEDE" stroke="#494949" stroke-width="0.5" stroke-miterlimit="10" d="M364.83,618.779l-11.7-10.987
			c-0.06,0.06-0.119,0.06-0.119,0.06c-2.435,4.751-4.929,8.789-7.602,12.293l9.027,9.027L364.83,618.779z"/>
		<path fill="#DEDEDE" stroke="#494949" stroke-width="0.5" stroke-miterlimit="10" d="M656.491,632.854l-29.16,29.16
			c4.811,6.117,9.621,10.452,13.956,13.422l27.142-27.141C664.271,643.782,659.639,637.368,656.491,632.854z"/>
		<polygon fill="#DEDEDE" stroke="#494949" stroke-width="0.5" stroke-miterlimit="10" points="226.512,336.145 240.527,322.128 
			264.343,345.944 250.386,359.9 		"/>
		
			<rect x="414.836" y="429.683" fill="#DEDEDE" stroke="#494949" stroke-width="0.5" stroke-miterlimit="10" width="12.531" height="20.846"/>
		<path id="Path" fill="#DEDEDE" stroke="#494949" stroke-width="0.5" stroke-miterlimit="10" d="M393.099,514.609l-9.442,8.315
			l11.938,12.175c2.851-1.782,6.176-3.207,9.68-4.396v-16.213L393.099,514.609z"/>
		<polygon id="Path_1_" fill="#DEDEDE" stroke="#494949" stroke-width="0.5" stroke-miterlimit="10" points="446.609,385.438 
			446.609,422.675 457.418,422.675 461.159,418.934 463.832,418.934 463.832,385.438 		"/>
	</g>
	<g id="Rooms">
		<polygon id="r1-shp041b" fill="#939598" stroke="#494949" stroke-width="0.5" stroke-miterlimit="10" points="425.169,385.438 
			425.525,419.052 428.732,419.052 432.355,422.675 436.156,422.675 436.156,385.438 		"/>
		
			<rect id="r1-shp041a" x="436.156" y="385.438" fill="#939598" stroke="#494949" stroke-width="0.5" stroke-miterlimit="10" width="10.453" height="37.237"/>
		
			<rect id="r1-shp043a" x="395.534" y="385.438" fill="#939598" stroke="#494949" stroke-width="0.5" stroke-miterlimit="10" width="9.502" height="33.615"/>
		<polygon id="r1-shp042a" fill="#939598" stroke="#494949" stroke-width="0.5" stroke-miterlimit="10" points="414.836,385.438 
			414.836,419.052 425.525,419.052 425.169,385.438 		"/>
		
			<rect id="r1-shp042b" x="405.036" y="385.438" fill="#939598" stroke="#494949" stroke-width="0.5" stroke-miterlimit="10" width="9.8" height="33.615"/>
		<polygon id="r1-shp037b" fill="#939598" stroke="#494949" stroke-width="0.5" stroke-miterlimit="10" points="523.222,385.438 
			523.222,418.934 526.131,418.934 529.754,422.556 533.555,422.556 533.555,385.438 		"/>
		
			<rect id="r1-shp037a" x="533.555" y="385.438" fill="#939598" stroke="#494949" stroke-width="0.5" stroke-miterlimit="10" width="9.384" height="37.118"/>
		<polygon id="r1-shp038" fill="#939598" stroke="#494949" stroke-width="0.5" stroke-miterlimit="10" points="507.305,385.438 
			507.305,408.006 519.776,418.934 523.222,418.934 523.222,385.438 		"/>
		<polygon id="r1-shp039" fill="#939598" stroke="#494949" stroke-width="0.5" stroke-miterlimit="10" points="478.323,385.438 
			463.832,385.438 463.832,418.934 467.099,418.934 478.323,408.303 		"/>
		<polygon id="r1-shp050" fill="#939598" stroke="#494949" stroke-width="0.5" stroke-miterlimit="10" points="252.108,470.899 
			280.972,499.822 295.403,485.391 266.718,456.705 		"/>
		<polygon id="r1-shp049" fill="#939598" stroke="#494949" stroke-width="0.5" stroke-miterlimit="10" points="266.718,456.705 
			295.403,485.391 305.855,474.938 305.855,470.483 303.658,468.227 303.658,468.227 279.605,444.233 		"/>
		
			<rect id="r1-shp043b" x="385.438" y="385.438" fill="#939598" stroke="#494949" stroke-width="0.5" stroke-miterlimit="10" width="10.097" height="33.615"/>
		<polygon id="r1-shp047a" fill="#939598" stroke="#494949" stroke-width="0.5" stroke-miterlimit="10" points="315.833,409.075 
			339.292,432.533 345.825,426.001 345.825,423.981 323.494,401.651 		"/>
		<polygon id="r1-shp047b-48a-48b" fill="#939598" stroke="#494949" stroke-width="0.5" stroke-miterlimit="10" points="
			315.833,409.075 307.935,416.736 291.365,432.83 312.982,454.389 317.437,454.389 331.512,440.373 339.292,432.533 		"/>
		<polygon id="r1-shp022-51" fill="#939598" stroke="#494949" stroke-width="0.5" stroke-miterlimit="10" points="738.033,495.724 
			751.93,509.621 751.93,509.621 751.93,509.621 761.907,499.644 705.963,443.937 696.104,453.795 		"/>
		<polygon id="r1-shp028" fill="#939598" stroke="#494949" stroke-width="0.5" stroke-miterlimit="10" points="696.104,453.795 
			681.851,468.049 681.91,468.107 681.91,472.918 693.788,484.796 711.011,468.643 		"/>
		<polygon id="r1-shp027" fill="#939598" stroke="#494949" stroke-width="0.5" stroke-miterlimit="10" points="711.011,468.643 
			693.788,484.796 693.848,484.855 702.696,493.705 707.685,493.705 709.764,495.783 724.492,482.184 		"/>
		<polygon id="r1-shp026" fill="#939598" stroke="#494949" stroke-width="0.5" stroke-miterlimit="10" points="709.764,495.783 
			710.061,496.08 723.839,509.858 738.033,495.724 724.492,482.184 		"/>
		<polygon id="r1-shp036" fill="#939598" stroke="#494949" stroke-width="0.5" stroke-miterlimit="10" points="542.938,385.438 
			542.938,422.556 554.639,422.556 558.499,418.755 561.943,418.755 561.943,385.438 		"/>
		<polygon id="r1-shp025b" fill="#939598" stroke="#494949" stroke-width="0.5" stroke-miterlimit="10" points="738.033,495.724 
			723.839,509.858 726.868,512.947 726.868,517.342 727.58,518.055 743.972,501.663 		"/>
		<polygon id="r1-shp025a" fill="#939598" stroke="#494949" stroke-width="0.5" stroke-miterlimit="10" points="727.58,518.055 
			728.769,519.242 735.539,526.013 751.93,509.621 743.972,501.663 		"/>
		<polygon id="r1-shp022a" fill="#939598" stroke="#494949" stroke-width="0.5" stroke-miterlimit="10" points="782.635,520.312 
			772.538,530.17 777.765,535.396 759.532,553.629 776.279,570.377 804.668,542.226 		"/>
		<polygon id="r1-shp022b-023" fill="#939598" stroke="#494949" stroke-width="0.5" stroke-miterlimit="10" points="
			782.635,520.312 782.396,520.073 775.864,513.541 765.827,523.519 749.436,539.91 756.146,546.562 756.146,550.243 
			759.532,553.629 777.765,535.396 772.538,530.17 		"/>
		<polygon id="r1-shp029a" fill="#939598" stroke="#494949" stroke-width="0.5" stroke-miterlimit="10" points="695.51,433.483 
			687.255,425.288 662.846,449.044 668.666,454.805 674.011,454.805 		"/>
		<polygon id="r1-shp035a" fill="#939598" stroke="#494949" stroke-width="0.5" stroke-miterlimit="10" points="587.659,385.438 
			573.524,385.438 573.524,418.755 584.096,418.755 587.659,415.251 		"/>
		
			<rect id="r1-shp035b" x="561.943" y="385.438" fill="#939598" stroke="#494949" stroke-width="0.5" stroke-miterlimit="10" width="11.581" height="33.318"/>
		<polygon id="r1-shp030a" fill="#939598" stroke="#494949" stroke-width="0.5" stroke-miterlimit="10" points="671.636,409.728 
			647.643,433.78 654.71,440.848 678.763,416.795 		"/>
		<polygon id="r1-shp029b" fill="#939598" stroke="#494949" stroke-width="0.5" stroke-miterlimit="10" points="678.763,416.795 
			654.71,440.848 662.846,449.044 687.255,425.288 		"/>
		<polygon id="r1-shp030b" fill="#939598" stroke="#494949" stroke-width="0.5" stroke-miterlimit="10" points="664.865,402.958 
			640.812,427.011 647.643,433.78 671.636,409.728 		"/>
		<polygon id="r1-shp045b" fill="#939598" stroke="#494949" stroke-width="0.5" stroke-miterlimit="10" points="344.993,369.165 
			334.601,369.165 322.426,381.399 330.265,389.239 325.87,393.693 335.729,403.552 344.993,394.346 		"/>
		
			<rect id="r1-shp045a2" x="344.993" y="369.165" fill="#939598" stroke="#494949" stroke-width="0.5" stroke-miterlimit="10" width="19.48" height="25.181"/>
		
			<rect id="r1-shp045a1" x="364.474" y="369.165" fill="#939598" stroke="#494949" stroke-width="0.5" stroke-miterlimit="10" width="16.153" height="25.181"/>
		<polygon id="r1-shp044" fill="#939598" stroke="#494949" stroke-width="0.5" stroke-miterlimit="10" points="348.082,400.819 
			340.539,408.362 351.229,419.052 380.627,419.052 380.627,400.819 		"/>
		<polygon id="r1-shp033a" fill="#939598" stroke="#494949" stroke-width="0.5" stroke-miterlimit="10" points="601.318,370.115 
			601.318,380.865 595.082,380.865 595.082,395.355 641.347,395.355 641.347,370.115 		"/>
		<polygon id="r1-shp033b" fill="#939598" stroke="#494949" stroke-width="0.5" stroke-miterlimit="10" points="661.005,377.836 
			653.284,370.115 641.347,370.115 641.347,395.355 642.119,395.355 653.521,406.699 660.886,399.335 650.196,388.645 		"/>
		<polygon id="r1-shp031b-2" fill="#939598" stroke="#494949" stroke-width="0.5" stroke-miterlimit="10" points="620.323,400.998 
			620.323,418.755 625.965,418.755 630.301,400.998 		"/>
		<polygon id="r1-shp031b-1" fill="#939598" stroke="#494949" stroke-width="0.5" stroke-miterlimit="10" points="639.625,400.998 
			630.301,400.998 625.965,418.755 632.022,418.755 		"/>
		<polygon id="r1-shp032" fill="#939598" stroke="#494949" stroke-width="0.5" stroke-miterlimit="10" points="595.082,400.998 
			595.082,414.717 599.358,418.755 620.323,418.755 620.323,400.998 		"/>
		<polygon id="r1-shp031a" fill="#939598" stroke="#494949" stroke-width="0.5" stroke-miterlimit="10" points="639.922,400.998 
			639.625,400.998 632.022,418.755 632.558,418.755 636.952,423.15 649.543,410.56 		"/>
		<polygon id="r1-shp007a" fill="#939598" stroke="#494949" stroke-width="0.5" stroke-miterlimit="10" points="438.71,480.58 
			438.71,457.181 433.662,457.181 430.396,460.446 430.396,480.58 		"/>
		<polygon id="r1-shp007b" fill="#939598" stroke="#494949" stroke-width="0.5" stroke-miterlimit="10" points="438.71,457.181 
			438.71,480.58 438.71,495.012 447.144,495.012 447.144,457.181 		"/>
		<polygon id="r1-shp006" fill="#939598" stroke="#494949" stroke-width="0.5" stroke-miterlimit="10" points="423.685,480.58 
			423.685,460.446 405.273,460.446 405.273,495.012 418.695,495.012 418.695,480.58 		"/>
		<polygon id="r1-shp008b" fill="#939598" stroke="#494949" stroke-width="0.5" stroke-miterlimit="10" points="480.401,475.828 
			463.535,459.021 463.535,495.012 480.58,495.012 480.58,475.828 		"/>
		<polygon id="r1-shp008a-1" fill="#939598" stroke="#494949" stroke-width="0.5" stroke-miterlimit="10" points="461.693,457.181 
			455.339,457.181 455.339,495.012 463.535,495.012 463.535,459.021 		"/>
		
			<rect id="r1-shp008a-2" x="447.144" y="457.181" fill="#939598" stroke="#494949" stroke-width="0.5" stroke-miterlimit="10" width="8.195" height="37.831"/>
		<polygon id="r1-shp001a" fill="#939598" stroke="#494949" stroke-width="0.5" stroke-miterlimit="10" points="303.718,523.043 
			330.205,549.531 338.579,541.098 312.151,514.609 		"/>
		
			<rect id="r1-shp002" x="327.4" y="499.048" transform="matrix(-0.7071 0.7072 -0.7072 -0.7071 929.4857 637.2855)" fill="#939598" stroke="#494949" stroke-width="0.5" stroke-miterlimit="10" width="10.69" height="24.231"/>
		<polygon id="r1-shp001b" fill="#939598" stroke="#494949" stroke-width="0.5" stroke-miterlimit="10" points="312.151,514.609 
			338.579,541.098 346.835,532.783 320.406,506.354 		"/>
		
			<rect id="r1-shp005b" x="395.534" y="460.446" fill="#939598" stroke="#494949" stroke-width="0.5" stroke-miterlimit="10" width="9.681" height="34.565"/>
		<polygon id="r1-shp004b" fill="#939598" stroke="#494949" stroke-width="0.5" stroke-miterlimit="10" points="354.853,477.491 
			378.43,501.069 384.487,495.012 385.081,495.012 371.659,460.685 		"/>
		<polygon id="r1-shp005a" fill="#939598" stroke="#494949" stroke-width="0.5" stroke-miterlimit="10" points="371.896,460.446 
			371.659,460.685 385.081,495.012 395.534,495.012 395.534,460.446 		"/>
		<polygon id="r1-shp004a" fill="#939598" stroke="#494949" stroke-width="0.5" stroke-miterlimit="10" points="348.2,484.143 
			348.082,484.143 371.719,507.78 378.43,501.069 354.853,477.491 		"/>
		<polygon fill="#939598" stroke="#494949" stroke-width="0.5" stroke-miterlimit="10" points="592.588,460.922 590.153,460.922 
			592.588,495.012 590.153,495.012 600.368,495.012 610.82,470.603 614.979,460.922 		"/>
		<polygon id="r1-shp015" fill="#939598" stroke="#494949" stroke-width="0.5" stroke-miterlimit="10" points="660.529,501.663 
			655.66,501.663 641.584,515.738 646.87,520.965 637.012,530.823 642.535,536.347 668.903,510.037 		"/>
		<polygon id="r1-shp016a-b" fill="#939598" stroke="#494949" stroke-width="0.5" stroke-miterlimit="10" points="675.912,517.045 
			668.903,510.037 642.535,536.347 649.067,542.82 656.194,549.887 682.504,523.637 		"/>
		
			<polyline id="r1-shp020a-b-21b-2" fill="#939598" stroke="#494949" stroke-width="0.5" stroke-linejoin="round" stroke-miterlimit="10" points="
			704.894,598.171 730.966,572.099 726.393,567.525 721.701,567.525 705.784,583.383 705.784,584.809 698.599,591.994 
			704.894,598.171 		"/>
		
			<path id="r1-shp020a-b-21b-1" fill="#939598" stroke="#494949" stroke-width="0.5" stroke-linejoin="round" stroke-miterlimit="10" d="
			M711.901,605.179"/>
		<polygon id="r1-shp018b-019" fill="#939598" stroke="#494949" stroke-width="0.5" stroke-miterlimit="10" points="
			703.469,544.602 696.46,537.594 670.21,563.784 677.277,570.792 693.194,586.59 701.033,578.75 702.518,578.75 717.781,563.487 
			717.781,558.914 		"/>
		<polygon id="r1-shp011a" fill="#939598" stroke="#494949" stroke-width="0.5" stroke-miterlimit="10" points="561.646,460.922 
			561.646,480.936 568.001,480.936 568.001,495.012 571.327,495.012 571.327,460.922 		"/>
		<polygon id="r1-shp010" fill="#939598" stroke="#494949" stroke-width="0.5" stroke-miterlimit="10" points="555.886,481.411 
			555.886,460.922 555.826,460.922 552.441,457.536 541.751,457.536 541.751,495.012 549.056,495.012 549.056,481.411 		"/>
		<polygon id="r1-shp009b" fill="#939598" stroke="#494949" stroke-width="0.5" stroke-miterlimit="10" points="533.021,457.536 
			523.815,457.536 523.637,457.715 523.637,495.012 533.021,495.012 533.021,495.012 541.751,495.012 541.751,457.536 		"/>
		<polygon id="r1-shp014" fill="#939598" stroke="#494949" stroke-width="0.5" stroke-miterlimit="10" points="638.556,513.125 
			652.631,499.05 652.631,493.823 643.307,484.439 638.675,484.439 638.615,484.381 614.503,508.492 624.064,517.995 
			633.745,508.374 		"/>
		<polygon id="r1-shp013" fill="#939598" stroke="#494949" stroke-width="0.5" stroke-miterlimit="10" points="615.156,460.922 
			614.979,460.922 600.368,495.012 600.962,495.012 614.503,508.492 638.615,484.381 		"/>
		<polygon id="robinson" fill="#939598" stroke="#494949" stroke-width="0.5" stroke-miterlimit="10" points="233.341,647.939 
			74.237,488.895 186.126,377.004 256.266,447.203 241.953,461.575 330.502,550.125 		"/>
		<polygon id="central-department-store" fill="#939598" stroke="#494949" stroke-width="0.5" stroke-miterlimit="10" points="
			712.793,633.864 861.741,484.915 974.106,597.221 825.217,746.11 		"/>
		<path id="r019" fill="#939598" stroke="#494949" stroke-width="0.5" stroke-miterlimit="10" d="M673.357,678.703l-12.769,12.769
			c2.613,4.632,5.464,8.73,8.374,12.412l14.551-14.55C677.693,683.276,673.357,678.703,673.357,678.703z"/>
		<path id="r027" fill="#939598" stroke="#494949" stroke-width="0.5" stroke-miterlimit="10" d="M674.07,573.405l-15.441,15.441
			c0,0,3.207,2.494,6.117,7.187l16.451-15.441L674.07,573.405z"/>
		<path id="r026" fill="#939598" stroke="#494949" stroke-width="0.5" stroke-miterlimit="10" d="M681.197,580.592l-16.451,15.441
			c2.554,4.038,4.811,9.68,4.514,16.688c0,0,2.139,0.595,5.167,1.842l20.43-20.312L681.197,580.592z"/>
		<path id="r025" fill="#939598" stroke="#494949" stroke-width="0.5" stroke-miterlimit="10" d="M694.856,594.251l-20.43,20.252
			c5.286,2.078,13.362,5.88,18.055,11.165l16.985-16.866L694.856,594.251z"/>
		<path id="r030" fill="#939598" stroke="#494949" stroke-width="0.5" stroke-miterlimit="10" d="M620.441,535.871l3.207-3.207
			l-2.197-2.197l1.307-1.307l-9.739-9.74l-18.945,18.945c0,0,7.126,3.92,15.976,11.344l12.115-12.115L620.441,535.871z"/>
		<path id="r029" fill="#939598" stroke="#494949" stroke-width="0.5" stroke-miterlimit="10" d="M622.224,537.594l-12.115,12.115
			c3.147,2.673,6.532,5.761,9.918,9.265l11.759-11.759L622.224,537.594z"/>
		<path id="r028" fill="#939598" stroke="#494949" stroke-width="0.5" stroke-miterlimit="10" d="M654.412,553.807l-11.64-11.64
			l-8.018,8.018l-3.029-3.029l-11.759,11.759c4.514,4.752,9.027,10.215,12.828,16.392L654.412,553.807z"/>
		<g id="r161-178-179-1-179-2-180-2">
			<polygon id="r1-shp009a" fill="#939598" stroke="#494949" stroke-width="0.5" stroke-miterlimit="10" points="505.761,475.591 
				505.761,498.337 523.637,498.337 523.637,457.715 			"/>
			<path id="r031-032" fill="#939598" stroke="#494949" stroke-width="0.5" stroke-miterlimit="10" d="M522.983,528.626
				c0,0,35.337-8.79,66.279,6.771l15.5-15.501l-5.464-5.642h-18.173v3.028h-23.459v-7.008h-20.252v-11.938H505.82v18.886
				C505.761,517.223,515.561,520.133,522.983,528.626z"/>
		</g>
		<path id="r037" fill="#939598" stroke="#494949" stroke-width="0.5" stroke-miterlimit="10" d="M405.273,514.491v16.213
			c3.207-1.01,6.652-1.841,10.215-2.435v-13.897L405.273,514.491z"/>
		<path id="r036" fill="#939598" stroke="#494949" stroke-width="0.5" stroke-miterlimit="10" d="M415.43,514.432v13.897
			c3.028-0.535,6.176-0.892,9.324-1.129v-12.888L415.43,514.432z"/>
		<path id="r035" fill="#939598" stroke="#494949" stroke-width="0.5" stroke-miterlimit="10" d="M429.386,514.254v12.649
			c5.227-0.237,10.334-0.178,14.966,0v-12.828L429.386,514.254z"/>
		<path id="r033" fill="#939598" stroke="#494949" stroke-width="0.5" stroke-miterlimit="10" d="M463.06,498.337v14.61v1.009
			v14.551c6.058-7.661,16.451-11.105,16.451-11.105v-19.005L463.06,498.337L463.06,498.337z"/>
		<path id="r034" fill="#939598" stroke="#494949" stroke-width="0.5" stroke-miterlimit="10" d="M444.352,514.135v12.828
			c10.75,0.475,18.59,1.663,18.59,1.663c0.059-0.06,0.059-0.06,0.118-0.119v-14.551L444.352,514.135z"/>
		<path id="r039" fill="#939598" stroke="#494949" stroke-width="0.5" stroke-miterlimit="10" d="M371.125,527.557l-3.504,3.504
			l-2.257-2.257l-3.683,3.683l3.326,3.325l-9.858,9.74l9.205,9.205c11.046-9.205,19.658-14.312,19.658-14.312L371.125,527.557z"/>
		<path id="r043" fill="#939598" stroke="#494949" stroke-width="0.5" stroke-miterlimit="10" d="M290.296,594.727l10.809,10.452
			c5.939-5.998,12.413-8.671,17.639-9.799l-14.432-14.67L290.296,594.727z"/>
		<path id="r042a" fill="#939598" stroke="#494949" stroke-width="0.5" stroke-miterlimit="10" d="M310.845,574.178l19.42,19.242
			c1.841-3.089,3.801-6.058,5.88-8.968l-18.055-17.579L310.845,574.178z"/>
		<path id="r041a" fill="#939598" stroke="#494949" stroke-width="0.5" stroke-miterlimit="10" d="M348.616,569.485l-16.629-16.45
			l-6.474,6.473l16.926,16.927C344.459,573.999,346.537,571.683,348.616,569.485z"/>
		<path id="r041b" fill="#939598" stroke="#494949" stroke-width="0.5" stroke-miterlimit="10" d="M325.514,559.508l-7.364,7.365
			l18.055,17.579c2.019-2.792,4.098-5.464,6.235-8.018L325.514,559.508z"/>
		<path id="r042b" fill="#939598" stroke="#494949" stroke-width="0.5" stroke-miterlimit="10" d="M304.312,580.71l14.432,14.67
			c6.177-1.366,10.75-0.595,10.75-0.595c0.237-0.475,0.534-0.891,0.831-1.365l-19.42-19.242L304.312,580.71z"/>
		<path id="r040b" fill="#939598" stroke="#494949" stroke-width="0.5" stroke-miterlimit="10" d="M331.987,553.035l16.629,16.45
			c2.435-2.613,4.93-5.048,7.364-7.305l-16.807-16.332L331.987,553.035z"/>
		<path id="r040a" fill="#939598" stroke="#494949" stroke-width="0.5" stroke-miterlimit="10" d="M355.149,545.552l-7.84-7.84
			l-8.137,8.137l16.808,16.332c2.851-2.673,5.701-5.167,8.374-7.424L355.149,545.552z"/>
		<path id="r004" fill="#939598" stroke="#494949" stroke-width="0.5" stroke-miterlimit="10" d="M349.923,633.686l4.514-4.514
			l-9.027-9.027c-5.701,7.483-11.938,12.294-18.529,14.907v44.008c31.357-10.334,42.642-35.99,42.642-35.99l-3.563-3.563
			l-5.107,5.107L349.923,633.686z"/>
		<path id="r001" fill="#939598" stroke="#494949" stroke-width="0.5" stroke-miterlimit="10" d="M279.19,619.433l-23.281,23.28
			l15.976,16.154l20.786-28.448C284.891,625.371,279.19,619.433,279.19,619.433z"/>
		<path id="r002" fill="#939598" stroke="#494949" stroke-width="0.5" stroke-miterlimit="10" d="M292.671,630.419l-20.786,28.448
			h0.059l0.594,3.979c11.581-2.019,20.549,0.772,27.082,4.811l7.364-30.764C301.937,635.824,296.947,633.27,292.671,630.419z"/>
		<path id="r010" fill="#939598" stroke="#494949" stroke-width="0.5" stroke-miterlimit="10" d="M464.366,555.47
			c-6.889-1.9-13.659-2.731-20.192-2.731v44.957c16.985-0.534,30.764-5.522,30.764-5.522l2.97-6.236
			c5.938-10.215,6.414-20.192,6.414-20.192C471.314,563.19,464.366,555.47,464.366,555.47z"/>
		<path id="r009" fill="#939598" stroke="#494949" stroke-width="0.5" stroke-miterlimit="10" d="M424.101,554.816v31.001h-3.147
			l-4.217,3.86l5.701,5.702c7.305,1.959,14.729,2.494,21.677,2.257v-44.958C436.988,552.619,430.218,553.51,424.101,554.816z"/>
		<path id="r007" fill="#939598" stroke="#494949" stroke-width="0.5" stroke-miterlimit="10" d="M411.807,584.452l-16.569-18.886
			c-3.386,4.751-6.652,9.026-9.8,12.828l27.26,27.26c2.97-5.643,3.742-9.8,3.742-9.8l-2.91-2.91l-4.573-5.167L411.807,584.452z"/>
		<path id="r008" fill="#939598" stroke="#494949" stroke-width="0.5" stroke-miterlimit="10" d="M414.123,578.691l6.83,7.126h3.147
			v-31.001c-12.116,2.554-21.618,6.771-25.953,8.968l15.382,15.738L414.123,578.691z"/>
		<path id="r005-006" fill="#939598" stroke="#494949" stroke-width="0.5" stroke-miterlimit="10" d="M385.438,578.395
			c-17.698,21.499-31.001,28.744-32.308,29.397l11.7,10.987l-10.394,10.393l-4.514,4.514l10.868,10.868l5.107-5.107l9.8-9.799l0,0
			l1.722-1.723l3.92,3.92c17.995-6.474,27.022-17.995,31.298-26.31L385.438,578.395z"/>
		<path id="r011" fill="#939598" stroke="#494949" stroke-width="0.5" stroke-miterlimit="10" d="M521.677,555.767
			c-13.185,10.571-20.073,9.8-20.073,9.8s0.95,13.065,6.236,20.311l3.444,6.414c14.729,7.305,30.764,6.593,40.979,4.93V553.45
			C535.693,552.56,521.677,555.767,521.677,555.767z"/>
		<path id="r013" fill="#939598" stroke="#494949" stroke-width="0.5" stroke-miterlimit="10" d="M589.916,566.575l-11.641,11.641
			l0.831,0.832l-5.345,5.345l3.267,3.267l-4.989,5.048l-2.851,2.851c0.832,3.623,2.197,7.008,3.92,10.097l27.141-27.142
			C595.498,573.228,591.52,568.535,589.916,566.575z"/>
		<path id="r018" fill="#939598" stroke="#494949" stroke-width="0.5" stroke-miterlimit="10" d="M674.309,653.463
			c-1.604-0.772-3.683-2.673-5.88-5.108l-27.142,27.142c8.077,5.642,14.194,6.771,14.194,6.771l3.029-3.029l2.97,2.97l8.552-7.602
			C664.925,661.183,674.309,653.463,674.309,653.463z"/>
		<path id="r014-015" fill="#939598" stroke="#494949" stroke-width="0.5" stroke-miterlimit="10" d="M624.777,612.246
			c-3.86-6.889-3.504-13.601-3.504-13.601c-5.939-4.098-14.312-12.769-21.024-20.133l-27.141,27.142
			c9.918,17.936,31.417,26.547,31.417,26.547l3.86-3.563l10.868-10.868L624.777,612.246z"/>
		<path id="r016" fill="#939598" stroke="#494949" stroke-width="0.5" stroke-miterlimit="10" d="M652.75,627.331
			c-6.593-0.476-11.818-1.9-15.977-3.92l-5.819,5.82l-11.166,11.165l-3.444,3.267c3.385,7.424,7.127,13.481,10.987,18.352
			l29.16-29.16C654.234,629.588,652.75,627.331,652.75,627.331z"/>
		<path id="yves-rocher" fill="#939598" stroke="#494949" stroke-width="0.5" stroke-miterlimit="10" d="M624.777,612.246
			l-5.523,5.523l0,0l-10.868,10.868l11.402,11.759l11.166-11.165l5.819-5.82C630.716,620.441,627.034,616.284,624.777,612.246z"/>
		<polygon id="r1-kio035-038" fill="#939598" stroke="#494949" stroke-width="0.5" stroke-miterlimit="10" points="447.144,429.683 
			434.553,429.683 434.553,450.528 447.144,450.528 447.144,440.136 447.144,440.136 		"/>
		<polygon id="r1-kio037" fill="#939598" stroke="#494949" stroke-width="0.5" stroke-miterlimit="10" points="459.438,429.683 
			447.144,429.683 447.144,440.136 457.239,440.136 		"/>
		<polygon id="r1-kio036" fill="#939598" stroke="#494949" stroke-width="0.5" stroke-miterlimit="10" points="447.144,440.136 
			447.144,450.528 458.843,450.528 457.239,440.136 		"/>
		
			<rect id="r1-kio020-017" x="530.407" y="430.515" fill="#939598" stroke="#494949" stroke-width="0.5" stroke-miterlimit="10" width="13.957" height="18.767"/>
		<polygon id="r1-kio019" fill="#939598" stroke="#494949" stroke-width="0.5" stroke-miterlimit="10" points="591.46,439.779 
			582.313,430.633 561.171,430.515 561.171,439.897 591.341,439.897 		"/>
		<polygon id="r1-kio018" fill="#939598" stroke="#494949" stroke-width="0.5" stroke-miterlimit="10" points="561.171,439.897 
			561.171,449.281 581.957,449.281 591.341,439.897 		"/>
		<polygon id="r1-kio030" fill="#939598" stroke="#494949" stroke-width="0.5" stroke-miterlimit="10" points="618.541,443.64 
			622.817,447.678 633.626,436.869 629.528,432.949 		"/>
		
			<rect id="r1-kio029" x="366.73" y="429.683" fill="#939598" stroke="#494949" stroke-width="0.5" stroke-miterlimit="10" width="4.988" height="14.551"/>
		
			<rect id="r1-kio063-064" x="378.43" y="423.15" fill="#939598" stroke="#494949" stroke-width="0.5" stroke-miterlimit="10" width="17.342" height="5.285"/>
		
			<rect id="r1-kio061-062" x="382.706" y="451.122" fill="#939598" stroke="#494949" stroke-width="0.5" stroke-miterlimit="10" width="17.342" height="5.286"/>
		
			<rect id="r1-kio031" x="469.296" y="421.962" fill="#939598" stroke="#494949" stroke-width="0.5" stroke-miterlimit="10" width="12.888" height="3.207"/>
		
			<rect id="r1-kio032" x="506.651" y="421.962" fill="#939598" stroke="#494949" stroke-width="0.5" stroke-miterlimit="10" width="12.769" height="3.326"/>
		<path id="r023-024" fill="#939598" stroke="#494949" stroke-width="0.5" stroke-miterlimit="10" d="M725.562,711.842
			c-2.851,2.732-7.483,2.495-10.394-0.475l-35.931-37.118c-2.91-3.029-2.97-7.661-0.178-10.394l10.809-10.452
			c2.851-2.732,7.483-2.495,10.394,0.475l35.93,37.118c2.91,3.029,2.97,7.662,0.179,10.394L725.562,711.842z"/>
		<path fill="#939598" stroke="#494949" stroke-width="0.5" stroke-miterlimit="10" d="M255.909,642.772l-6.592-7.008l23.162-23.162
			c0,0,3.029,3.444,6.711,6.889L255.909,642.772z"/>
		<path fill="#939598" stroke="#494949" stroke-width="0.5" stroke-miterlimit="10" d="M568.773,555.886
			c-5.523-1.426-11.166-2.139-16.511-2.436v43.771c6.414-1.01,10.571-2.554,10.571-2.554l5.998-38.9"/>
		
			<path fill="#939598" stroke="#494949" stroke-width="0.5" stroke-linecap="round" stroke-linejoin="round" stroke-miterlimit="10" d="
			M568.714,556.004l-5.939,38.663l5.643-5.523l-3.445-3.444l7.067-7.067l0.713,0.713l14.848-14.848
			c-5.643-4.217-12.175-6.948-18.886-8.611"/>
		<path id="RADLEY" fill="#939598" stroke="#494949" stroke-width="0.5" stroke-miterlimit="10" d="M620.026,589.024
			c0,0,4.275,3.445,5.879,3.505c2.079,0.059,5.583-4.633,5.583-7.662c0-1.662-4.098-6.532-5.345-7.602
			c-0.595-0.534,2.791,1.9-0.06,7.187C622.758,590.569,620.026,589.024,620.026,589.024z"/>
		<polygon fill="#939598" stroke="#494949" stroke-width="0.5" stroke-linejoin="round" stroke-miterlimit="10" points="
			730.847,571.98 704.775,598.052 711.901,605.179 739.518,577.562 733.876,571.98 		"/>
		
			<rect id="g05" x="571.327" y="460.922" fill="#939598" stroke="#494949" stroke-width="0.5" stroke-miterlimit="10" width="9.799" height="34.09"/>
	</g>
	<g id="Signs">
		<rect id="baby-change-room" x="566.517" y="498.99" opacity="0.8" enable-background="new    " width="8.789" height="8.79"/>
		<g id="fire-exit">
			<rect x="553.807" y="485.865" opacity="0.8" enable-background="new    " width="8.79" height="8.79"/>
			<rect x="424.16" y="485.865" opacity="0.8" enable-background="new    " width="8.789" height="8.79"/>
			<rect x="345.943" y="516.866" opacity="0.8" enable-background="new    " width="8.79" height="8.79"/>
			<rect x="629.41" y="517.104" opacity="0.8" enable-background="new    " width="8.789" height="8.789"/>
			<rect x="694.738" y="582.136" opacity="0.8" enable-background="new    " width="8.789" height="8.789"/>
		</g>
		<rect id="parking" x="489.548" y="317.021" opacity="0.8" enable-background="new    " width="8.789" height="8.79"/>
		<g id="toilet">
			<rect x="660.114" y="399.75" opacity="0.8" enable-background="new    " width="8.789" height="8.79"/>
			<rect x="512.531" y="371.659" opacity="0.8" enable-background="new    " width="8.789" height="8.79"/>
			<rect x="277.527" y="410.144" opacity="0.8" enable-background="new    " width="8.79" height="8.79"/>
			<rect x="546.858" y="498.99" opacity="0.8" enable-background="new    " width="8.79" height="8.79"/>
			<rect x="371.719" y="502.316" opacity="0.8" enable-background="new    " width="8.79" height="8.789"/>
			<rect x="757.929" y="710.833" opacity="0.8" enable-background="new    " width="8.789" height="8.789"/>
		</g>
		<g id="elevator">
			<rect x="710.892" y="437.226" opacity="0.8" enable-background="new    " width="8.79" height="8.789"/>
			<rect x="576.315" y="498.99" opacity="0.8" enable-background="new    " width="8.79" height="8.79"/>
			<rect x="391.377" y="502.316" opacity="0.8" enable-background="new    " width="8.789" height="8.789"/>
			<rect x="472.918" y="371.659" opacity="0.8" enable-background="new    " width="8.79" height="8.79"/>
			<rect x="268.737" y="435.087" opacity="0.8" enable-background="new    " width="8.79" height="8.79"/>
		</g>
		<g id="stairs">
			<rect x="664.509" y="481.471" opacity="0.8" enable-background="new    " width="8.79" height="8.789"/>
			<rect x="311.854" y="481.471" opacity="0.8" enable-background="new    " width="8.789" height="8.789"/>
		</g>
		<g id="escalator">
			<rect x="697.232" y="513.838" opacity="0.8" enable-background="new    " width="8.79" height="8.789"/>
			<rect x="630.419" y="441.62" opacity="0.8" enable-background="new    " width="8.79" height="8.79"/>
			<rect x="503.741" y="458.962" opacity="0.8" enable-background="new    " width="8.79" height="8.79"/>
			<rect x="333.057" y="605.476" opacity="0.8" enable-background="new    " width="8.789" height="8.79"/>
			<rect x="490.022" y="553.866" opacity="0.8" enable-background="new    " width="8.79" height="8.79"/>
			<rect x="643.663" y="611.652" opacity="0.8" enable-background="new    " width="8.79" height="8.789"/>
			<rect x="471.968" y="458.962" opacity="0.8" enable-background="new    " width="8.79" height="8.79"/>
			<rect x="348.913" y="441.798" opacity="0.8" enable-background="new    " width="8.79" height="8.79"/>
		</g>
		<g id="handicapped-toilet">
			<rect x="670.092" y="399.75" opacity="0.8" enable-background="new    " width="8.789" height="8.79"/>
			<rect x="522.509" y="371.659" opacity="0.8" enable-background="new    " width="8.789" height="8.79"/>
			<rect x="287.504" y="410.144" opacity="0.8" enable-background="new    " width="8.79" height="8.79"/>
			<rect x="381.518" y="502.316" opacity="0.8" enable-background="new    " width="8.79" height="8.789"/>
			<rect x="556.657" y="498.99" opacity="0.8" enable-background="new    " width="8.79" height="8.79"/>
		</g>
		<g id="telephone">
			<rect x="680.068" y="399.75" opacity="0.8" enable-background="new    " width="8.79" height="8.79"/>
			<rect x="532.486" y="371.659" opacity="0.8" enable-background="new    " width="8.789" height="8.79"/>
			<rect x="297.482" y="410.144" opacity="0.8" enable-background="new    " width="8.79" height="8.79"/>
		</g>
		<g id="atm">
			<rect x="542.464" y="371.659" opacity="0.8" enable-background="new    " width="8.789" height="8.79"/>
			<rect x="307.459" y="410.144" opacity="0.8" enable-background="new    " width="8.79" height="8.79"/>
		</g>
	</g>
	
		<rect x="581.126" y="460.922" fill="#939598" stroke="#494949" stroke-width="0.5" stroke-miterlimit="10" width="11.462" height="34.09"/>
</g>
<g id="Layer_2">
</g>
</svg>
