<?xml version="1.0" encoding="utf-8"?>
<!-- Generator: Adobe Illustrator 16.0.0, SVG Export Plug-In . SVG Version: 6.00 Build 0)  -->
<!DOCTYPE svg PUBLIC "-//W3C//DTD SVG 1.1//EN" "http://www.w3.org/Graphics/SVG/1.1/DTD/svg11.dtd">
<svg version="1.1" id="Layer_1" xmlns="http://www.w3.org/2000/svg" xmlns:xlink="http://www.w3.org/1999/xlink" x="0px" y="0px"
	 width="1683.781px" height="1190.551px" viewBox="0 0 1683.781 1190.551" enable-background="new 0 0 1683.781 1190.551"
	 xml:space="preserve">
<g id="background">
	<rect fill="#FFFFFF" width="1683.781" height="1190.551"/>
</g>
<g id="etc">
	<polygon fill="#DEDEDE" stroke="#494949" stroke-width="0.5" stroke-miterlimit="10" points="306.007,489.564 413.238,438.236 
		463.618,398.092 552.079,323.255 751.909,240.655 790.543,232.155 825.992,211.155 904.769,211.155 919.58,232.155 
		926.242,240.218 1044.129,306.905 1160.71,389.905 1438.53,554.303 1451.048,569.884 1340.697,966.903 1175.933,879.91 
		963.113,751.403 951.363,739.653 860.492,698.118 731.696,727.465 574.408,828.33 362.829,864.387 262.169,797.431 
		120.076,582.919 215.566,486.034 	"/>
	<path fill="#DEDEDE" stroke="#494949" stroke-width="0.5" stroke-miterlimit="10" d="M1246.158,909.03
		c5.76,5.76,6.707,14.147,2.119,18.735l-27.006,27.011c-4.592,4.59-12.98,3.641-18.738-2.119l-64.604-64.603
		c-5.762-5.762-6.709-14.147-2.119-18.737l27.008-27.008c4.59-4.591,12.979-3.644,18.736,2.118L1246.158,909.03z"/>
	<path fill="#DEDEDE" stroke="#494949" stroke-width="0.5" stroke-miterlimit="10" d="M1300.531,926.737l-26.334,26.334l-23.832-23
		c9-17-7.678-28.324-7.678-28.324l16.428-16.426l-65.502-65.502l21.115-21.115l-20.154-20.154l-28.586,28.354
		c-12.5-14.125-39.125-21.875-39.125-21.875c1.125-25.25-17.875-40.125-17.875-40.125l25.971-25.972l-33.064-33.063l-36.279,36.281
		c-24.625-39.75-65.25-62.25-65.25-62.25l31.875-31.875l16.354,16.354l-2.188,2.188l3.707,3.705l-5.398,5.396l24.125,24.125
		l13.492-13.492l-73.803-73.805H904.863v20.149h34.125v11.75h39.541v-5.125h30.584l9.25,9.5L992.238,654.9
		c-52.125-26.125-111.625-11.375-111.625-11.375c-12.5-14.375-28.99-19.25-28.99-19.25v-31.774h-44.259v31.971
		c0,0-17.666,5.933-27.833,18.933c0,0-26.953-4.131-56.5-2.799v-21.291l56.667-0.578v-26.233H651.094L390.378,853.221
		l-15.833-15.832l-11.015,11.017l9.083,9.084l-20.5,20.5l2.25,2.25l-18.366,18.367c25.269,6.274,54.344,0.727,94.2-19.201
		c10.465-5.232,20.004-8.332,28.665-9.846l-0.999-6.654l-27-27.25l39.25-39.25c0,0,28,29.25,54,30.5s50.75-11.75,70.25-50
		c0,0,31.535-15.607,71.104-71.215l27.896,31.813l-4.833,5.568l7.708,8.707l5.5-5.5l7.083-6.541l-11.5-11.957l-1.083,1.291
		l-25.856-26.451c-0.011,0.006-0.02,0.01-0.031,0.016l0,0c14.308-7.115,62.146-27.789,111.516-13.979c0,0,11.75,13,33.5,17.25
		c0,0-0.75,16.75-10.75,34h50.5c-8.922-12.236-10.5-34.25-10.5-34.25s11.5,1.25,33.75-16.5c0,0,69.614-15.924,111.189,14.838v0.002
		c-0.006-0.004-0.012-0.01-0.018-0.014L964.53,728.99l-1.25-1.25l-11.918,11.916l5.75,5.75l6,6l8.416-8.5l-5.457-5.457l8.959-8.959
		l-1.418-1.418l19.641-19.642c6.647,7.938,35.674,42.074,52.858,53.976c0,0-2.25,44.311,53,48.281c0,0,25,38.469,36.25,43.969
		c0,0-15.75,13-7.25,35.5l-14.411,12.838l2.286,2.287l-7.459,6.459c1.22,2.379,2.472,4.682,3.746,6.922l21.506-21.506
		c0,0,48.334,50.834,62.084,64.584s33,10.498,42.166,1.332s17.334-15.998,17.334-15.998l25.104,24.385
		c6.189,0.439,12.729,1.578,20.394,2.947c28,5,39.834-6.5,39.834-6.5L1300.531,926.737z M715.196,641.09
		c-18.017,1.433-36.194,5.16-49.167,13.314l-20.102-20.5l15.936-13.965l53.333-0.548V641.09L715.196,641.09z"/>
	
		<ellipse fill="#DEDEDE" stroke="#494949" stroke-width="0.5" stroke-miterlimit="10" cx="830.613" cy="663.653" rx="43.917" ry="28.084"/>
	<polygon fill="#DEDEDE" stroke="#494949" stroke-width="0.5" stroke-miterlimit="10" points="532.541,557.997 563.665,526.872 
		563.665,510.07 570.096,510.07 594.646,485.52 614.03,504.903 607.005,511.927 607.005,528.171 601.03,528.171 580.789,548.413 
		571.334,548.413 546.696,571.736 	"/>
	<polygon fill="#DEDEDE" stroke="#494949" stroke-width="0.5" stroke-miterlimit="10" points="1057.363,528.236 1080.738,551.611 
		1092.529,551.611 1113.466,572.549 1130.029,555.987 1096.195,522.153 1096.195,513.07 1068.197,487.986 1047.529,508.986 
		1055.863,516.737 	"/>
	<path fill="#DEDEDE" stroke="#494949" stroke-width="0.5" stroke-miterlimit="10" d="M1125.479,824.903
		c-6.179-8.58-6.802-13.5,10.104-18s17.281,9.125,11.031,17.125S1133.218,835.653,1125.479,824.903z"/>
	<path fill="#DEDEDE" stroke="#494949" stroke-width="0.5" stroke-miterlimit="10" d="M1110.007,782.694
		c1.111-6.908-0.34-15.24-4.567-23.104c-7.944-14.77-22.688-22.274-32.933-16.766c-1.688,0.908-3.143,2.117-4.369,3.563l7.352,10.57
		l-11.673,9.195c0.657,4.389,2.151,8.965,4.534,13.391c7.605,14.137,21.438,21.611,31.589,17.396l-3.2-9.411L1110.007,782.694z"/>
	<path fill="#DEDEDE" stroke="#494949" stroke-width="0.5" stroke-miterlimit="10" d="M999.113,683.528
		c1.148-5.771,0.625-13.5,14.375-1.125s39.25,39.498,42.25,45.063c3,5.563,2.125,5.563-1.375,11.813s-3.5,13.396-15,1.821
		c-11.5-11.571-37.875-40.946-40.25-44.446S998.167,688.271,999.113,683.528z"/>
	
		<rect x="850.3" y="637.858" transform="matrix(0.9234 -0.3839 0.3839 0.9234 -188.647 378.683)" fill="#DEDEDE" stroke="#494949" stroke-width="0.5" stroke-miterlimit="10" width="7.85" height="48.036"/>
	
		<rect x="806.053" y="638.258" transform="matrix(0.9273 0.3742 -0.3742 0.9273 306.6891 -254.9894)" fill="#DEDEDE" stroke="#494949" stroke-width="0.5" stroke-miterlimit="10" width="7.85" height="48.03"/>
	<path fill="#DEDEDE" stroke="#494949" stroke-width="0.5" stroke-miterlimit="10" d="M670.381,676.153
		c-0.138,8.502-1.977,15.168,15.731,7.86c20.597-8.491,60.75-11.61,70.75-9.61s12-1.381,14-9.814
		c2-8.436,6.582-12.686-11.084-12.936s-42.166-1.25-66.416,5.5S670.65,659.653,670.381,676.153z"/>
	<path fill="#DEDEDE" stroke="#494949" stroke-width="0.5" stroke-miterlimit="10" d="M578.03,739.737
		c8.964-14.334,44.271-47,55.5-53.5c6.289-3.644,10.634-1.166,12.397,11.166c1.769,12.334,4.27,13.834-7.897,26.668
		c-12.167,12.832-26.334,25-32.667,30.332c-6.333,5.334-9.833,3.334-20.667,0C573.863,751.071,571.213,750.637,578.03,739.737z"/>
	<path fill="#DEDEDE" stroke="#494949" stroke-width="0.5" stroke-miterlimit="10" d="M559.238,783.584l-6.059-15.918
		c-7.084-0.859-15.406,1.002-23.021,5.723c-14.286,8.857-20.669,24.42-14.258,34.765c0.759,1.225,1.668,2.313,2.693,3.28
		l11.021-7.653l9.549,12.524c4.708-0.789,9.591-2.596,14.213-5.461c12.445-7.715,18.89-20.52,16.106-30.524L559.238,783.584z"/>
	<path fill="#DEDEDE" stroke="#494949" stroke-width="0.5" stroke-miterlimit="10" d="M891.197,663.071
		c-2.15-7.146-2.666-10.334,4.668-10.834c12.848-0.875,23.666-1.334,37.166-0.5s38.166,6.584,45.75,9.5
		c7.584,2.918,6.418,4.168,6.334,13.668s2.082,13.5-10.668,8.832c-12.75-4.666-26.24-8.916-39.453-9.582
		c-13.213-0.668-26.881-1.168-34.713-0.5C892.447,674.321,891.693,664.721,891.197,663.071z"/>
	<path fill="#DEDEDE" stroke="#494949" stroke-width="0.5" stroke-miterlimit="10" d="M95.863,558.706
		c-41,52.303-1.333,90.363-1.333,90.363l-16.334,16.334l159.5,159.5l8.667-8.666l44.667,44.666l53.515-53.517L95.863,558.706z"/>
	
		<rect x="1070.712" y="494.149" transform="matrix(-0.0045 -1 1 -0.0045 561.2868 1595.1158)" fill="#DEDEDE" stroke="#494949" stroke-width="0.5" stroke-miterlimit="10" width="7.851" height="48.04"/>
	
		<rect x="1074.388" y="502.201" transform="matrix(-0.0045 -1 1 -0.0045 556.9269 1606.8789)" fill="#DEDEDE" stroke="#494949" stroke-width="0.5" stroke-miterlimit="10" width="7.851" height="48.039"/>
	
		<rect x="1204.684" y="621.709" transform="matrix(0.704 -0.7102 0.7102 0.704 -100.8413 1049.5082)" fill="#DEDEDE" stroke="#494949" stroke-width="0.5" stroke-miterlimit="10" width="7.849" height="48.037"/>
	
		<rect x="1197.904" y="625.87" transform="matrix(0.7041 -0.7101 0.7101 0.7041 -105.8389 1045.8103)" fill="#DEDEDE" stroke="#494949" stroke-width="0.5" stroke-miterlimit="10" width="7.849" height="48.038"/>
	
		<rect x="1193.089" y="635.375" transform="matrix(0.7041 -0.7101 0.7101 0.7041 -112.0366 1044.3799)" fill="#DEDEDE" stroke="#494949" stroke-width="0.5" stroke-miterlimit="10" width="7.849" height="42.47"/>
	
		<rect x="1209.834" y="618.202" transform="matrix(0.7041 -0.7101 0.7101 0.7041 -94.8861 1051.189)" fill="#DEDEDE" stroke="#494949" stroke-width="0.5" stroke-miterlimit="10" width="7.849" height="42.472"/>
	
		<rect x="582.196" y="492.083" transform="matrix(-0.0045 -1 1 -0.0045 72.6483 1104.5298)" fill="#DEDEDE" stroke="#494949" stroke-width="0.5" stroke-miterlimit="10" width="7.85" height="48.04"/>
	
		<rect x="580.885" y="500.136" transform="matrix(-0.0046 -1 1 -0.0046 63.3513 1111.3728)" fill="#DEDEDE" stroke="#494949" stroke-width="0.5" stroke-miterlimit="10" width="7.85" height="48.04"/>
	<polygon fill="#DEDEDE" stroke="#494949" stroke-width="0.5" stroke-miterlimit="10" points="625.904,474.736 625.904,502.403 
		630.029,502.403 639.766,512.139 679.863,512.139 661.512,493.789 680.213,475.087 	"/>
	
		<rect x="795.917" y="485.305" transform="matrix(-0.9111 0.4123 -0.4123 -0.9111 1734.7423 636.9115)" fill="#DEDEDE" stroke="#494949" stroke-width="0.5" stroke-miterlimit="10" width="5.5" height="40.556"/>
	
		<rect x="860.243" y="484.396" transform="matrix(-0.9318 -0.3629 0.3629 -0.9318 1483.9871 1288.1311)" fill="#DEDEDE" stroke="#494949" stroke-width="0.5" stroke-miterlimit="10" width="5.5" height="40.545"/>
	<path fill="#DEDEDE" stroke="#494949" stroke-width="0.5" stroke-miterlimit="10" d="M843.31,457.164
		c-0.803-6.473-6.311-11.486-13.001-11.486c-6.885,0-12.521,5.313-13.06,12.06c-0.028,0.35-0.053,0.697-0.053,1.057
		c0,3.147,1.108,6.034,2.959,8.294c0.296,0.362,0.608,0.707,0.941,1.035c0.041,0.04,0.085,0.076,0.127,0.116
		c0.282,0.271,0.575,0.529,0.884,0.775c0.104,0.083,0.213,0.159,0.316,0.239c0.253,0.191,0.512,0.376,0.776,0.549
		c0.134,0.087,0.271,0.167,0.41,0.249c0.251,0.15,0.507,0.293,0.769,0.429c0.154,0.075,0.312,0.15,0.467,0.225
		c0.26,0.119,0.521,0.228,0.789,0.33c0.167,0.063,0.333,0.126,0.502,0.184c0.274,0.093,0.557,0.17,0.837,0.245
		c0.168,0.044,0.336,0.093,0.509,0.13c0.311,0.068,0.626,0.117,0.94,0.163c0.15,0.021,0.297,0.052,0.449,0.068
		c0.472,0.051,0.949,0.082,1.435,0.082c0.497,0,0.985-0.033,1.471-0.087c0.146-0.019,0.284-0.045,0.431-0.066
		c0.339-0.049,0.675-0.104,1.005-0.181c0.152-0.035,0.302-0.076,0.452-0.116c0.323-0.086,0.643-0.181,0.956-0.291
		c0.131-0.046,0.262-0.093,0.391-0.143c0.346-0.136,0.685-0.28,1.014-0.441c0.084-0.041,0.171-0.079,0.255-0.122
		c1.729-0.892,3.243-2.156,4.424-3.69c1.7-2.211,2.721-4.972,2.721-7.977C843.421,458.239,843.376,457.698,843.31,457.164z"/>
	<path fill="#DEDEDE" stroke="#494949" stroke-width="0.5" stroke-miterlimit="10" d="M850.08,469.336l-3.217-5.433h-32.167
		l-2.793,5.449c-6.904,0.511-14.179,1.319-21.707,2.553l25,57.592h31.333l24.5-57.592
		C871.031,471.905,863.113,470.292,850.08,469.336z"/>
	<polygon fill="#DEDEDE" stroke="#494949" stroke-width="0.5" stroke-miterlimit="10" points="980.113,475.236 980.113,512.653 
		1024.363,512.653 1036.281,500.736 1036.281,475.569 	"/>
	<path fill="#DEDEDE" stroke="#494949" stroke-width="0.5" stroke-miterlimit="10" d="M1356.865,472.236l-16.168,15.167
		l-9.965-9.937c5.951-6.124,9.623-14.477,9.623-23.688c0-18.778-15.225-34-34-34c-9.254,0-17.641,3.702-23.771,9.699l-23.133-23.059
		c5.678-6.076,9.156-14.23,9.156-23.201c0-18.778-15.225-34-34-34c-9.012,0-17.193,3.511-23.277,9.231l-20.586-20.521
		c6.096-6.145,9.863-14.603,9.863-23.943c0-18.778-15.225-34-34-34c-9.381,0-17.869,3.798-24.021,9.939l-12.559-12.52l15.834-14.333
		l-57.666-55.333H571.334l-14.14,14.118c-6.06-5.58-14.146-8.991-23.027-8.991c-18.778,0-34,15.222-34,34
		c0,8.866,3.396,16.937,8.955,22.989l-5.529,5.521c-6.021-5.419-13.991-8.72-22.729-8.72c-18.778,0-34,15.222-34,34
		c0,8.722,3.287,16.673,8.686,22.691L353.431,425.305l78.102,78.102l131.916-131.418l536.584,1.584l272.666,271.667l78.352-78.354
		L1356.865,472.236z"/>
	
		<rect x="1250.503" y="634.887" transform="matrix(-0.7071 0.7071 -0.7071 -0.7071 2622.6985 199.5907)" fill="#DEDEDE" stroke="#494949" stroke-width="0.5" stroke-miterlimit="10" width="39.021" height="16.146"/>
	
		<rect x="1238.788" y="622.742" transform="matrix(-0.7071 0.7071 -0.7071 -0.7071 2594.396 187.822)" fill="#DEDEDE" stroke="#494949" stroke-width="0.5" stroke-miterlimit="10" width="39.022" height="16.971"/>
	<polygon id="r1-shp018a" fill="#DEDEDE" stroke="#494949" stroke-width="0.5" stroke-miterlimit="10" points="1160.576,646.491 
		1116.384,690.684 1128.527,702.741 1172.675,658.59 	"/>
	<polygon fill="#DEDEDE" stroke="#494949" stroke-width="0.5" stroke-miterlimit="10" points="1149.175,635.09 1104.943,679.323 
		1116.384,690.684 1160.576,646.491 	"/>
	
		<rect x="962.029" y="529.497" fill="#DEDEDE" stroke="#494949" stroke-width="0.5" stroke-miterlimit="10" width="16.5" height="57.406"/>
	<path fill="#DEDEDE" stroke="#494949" stroke-width="0.5" stroke-miterlimit="10" d="M291.03,860.903l-6.5,6.5
		c16.923,15.94,33.204,26.662,51.467,31.201l18.366-18.367l-2.25-2.25l7.493-7.492l-39.156-39.01L291.03,860.903z"/>
	<polygon fill="#DEDEDE" stroke="#494949" stroke-width="0.5" stroke-miterlimit="10" points="374.544,837.389 344.545,807.389 
		320.45,831.485 359.606,870.495 372.613,857.487 363.529,848.403 	"/>
	<path fill="#DEDEDE" stroke="#494949" stroke-width="0.5" stroke-miterlimit="10" d="M1150.861,914.075l-24.473,24.469
		c3.365,4.219,6.826,8.092,10.348,11.654l24.877-24.875C1157.873,921.415,1154.222,917.596,1150.861,914.075z"/>
	<path fill="#DEDEDE" stroke="#494949" stroke-width="0.5" stroke-miterlimit="10" d="M1161.613,925.323l-24.877,24.875
		c4.215,4.268,8.508,8.094,12.822,11.51l23.967-23.965C1169.611,933.672,1165.563,929.45,1161.613,925.323z"/>
	<path fill="#DEDEDE" stroke="#494949" stroke-width="0.5" stroke-miterlimit="10" d="M1280.47,970.456l-25.104-24.385
		c0,0-8.168,6.832-17.334,15.998c-0.027,0.024-0.061,0.055-0.086,0.082l9.67,9.668v5.09
		C1260.164,971.032,1269.796,969.696,1280.47,970.456z"/>
	<path fill="#DEDEDE" stroke="#494949" stroke-width="0.5" stroke-miterlimit="10" d="M1237.945,962.151
		c-9.066,8.971-27.818,12.188-41.482-0.849l-17.996,17.996c25.328,11.426,45.73,11.438,45.73,11.438
		c9.063-6.188,16.662-10.662,23.418-13.828v-5.09L1237.945,962.151z"/>
	<path fill="#DEDEDE" stroke="#494949" stroke-width="0.5" stroke-miterlimit="10" d="M1195.865,960.737
		c-4.605-4.605-13.092-13.373-22.34-22.994l-23.969,23.965c9.791,7.754,19.678,13.43,28.906,17.594l17.998-17.996
		C1196.263,961.114,1196.061,960.934,1195.865,960.737z"/>
	<path fill="#DEDEDE" stroke="#494949" stroke-width="0.5" stroke-miterlimit="10" d="M1250.365,930.071l23.832,23l26.334-26.334
		l-41.416-41.416l-16.428,16.426C1242.688,901.747,1259.365,913.071,1250.365,930.071z"/>
	<path fill="#DEDEDE" stroke="#494949" stroke-width="0.5" stroke-miterlimit="10" d="M524.113,826.903
		c-2.408-0.115-4.833-0.476-7.251-1.023l-12.445,51.805c16.084,9.986,23.446,24.472,23.446,24.472
		c8.104-1.244,15.588-3.095,22.5-5.375v-74.104C541.87,826.073,533.065,827.334,524.113,826.903z"/>
	<path fill="#DEDEDE" stroke="#494949" stroke-width="0.5" stroke-miterlimit="10" d="M614.28,795.321l-19.728-18.519
		c-0.125,0.064-0.189,0.101-0.189,0.101c-4.06,7.959-8.348,14.809-12.82,20.68l15.237,15.238L614.28,795.321z"/>
	<path fill="#DEDEDE" stroke="#494949" stroke-width="0.5" stroke-miterlimit="10" d="M1105.404,818.987l-49.088,49.09
		c8.051,10.309,16.232,17.561,23.484,22.637l45.678-45.676C1118.539,837.403,1110.714,826.635,1105.404,818.987z"/>
	<polygon fill="#DEDEDE" stroke="#494949" stroke-width="0.5" stroke-miterlimit="10" points="381.363,319.403 404.988,295.778 
		445.113,335.903 421.613,359.403 	"/>
	
		<rect x="698.53" y="476.903" fill="#DEDEDE" stroke="#494949" stroke-width="0.5" stroke-miterlimit="10" width="21.083" height="35.14"/>
</g>
<g id="rooms">
	<polygon id="r1-shp041b" fill="#939598" stroke="#494949" stroke-width="0.5" stroke-miterlimit="10" points="715.889,402.403 
		716.492,458.954 721.886,458.954 728.03,465.098 734.39,465.098 734.39,402.403 	"/>
	
		<rect id="r1-shp041a" x="734.39" y="402.403" fill="#939598" stroke="#494949" stroke-width="0.5" stroke-miterlimit="10" width="17.64" height="62.695"/>
	
		<rect id="r1-shp043a" x="666.03" y="402.403" fill="#939598" stroke="#494949" stroke-width="0.5" stroke-miterlimit="10" width="16" height="56.551"/>
	<polygon id="r1-shp042a" fill="#939598" stroke="#494949" stroke-width="0.5" stroke-miterlimit="10" points="698.53,402.403 
		698.53,458.954 716.492,458.954 715.889,402.403 	"/>
	
		<rect id="r1-shp042b" x="682.03" y="402.403" fill="#939598" stroke="#494949" stroke-width="0.5" stroke-miterlimit="10" width="16.5" height="56.551"/>
	<polygon id="r1-shp037b" fill="#939598" stroke="#494949" stroke-width="0.5" stroke-miterlimit="10" points="881.031,402.403 
		881.031,458.792 885.88,458.792 892.031,464.94 898.391,464.94 898.391,402.403 	"/>
	
		<rect id="r1-shp037a" x="898.391" y="402.403" fill="#939598" stroke="#494949" stroke-width="0.5" stroke-miterlimit="10" width="15.808" height="62.539"/>
	<polygon id="r1-shp038" fill="#939598" stroke="#494949" stroke-width="0.5" stroke-miterlimit="10" points="854.197,402.403 
		854.197,440.403 875.21,458.792 881.031,458.792 881.031,402.403 	"/>
	<polygon id="r1-shp039" fill="#939598" stroke="#494949" stroke-width="0.5" stroke-miterlimit="10" points="805.363,402.403 
		781.029,402.403 781.029,458.792 786.549,458.792 805.363,440.903 	"/>
	<polygon id="r1-shp040" fill="#939598" stroke="#494949" stroke-width="0.5" stroke-miterlimit="10" points="752.029,402.403 
		752.029,465.098 770.224,465.098 776.53,458.792 781.029,458.792 781.029,402.403 	"/>
	<polygon id="r1-shp050" fill="#939598" stroke="#494949" stroke-width="0.5" stroke-miterlimit="10" points="424.473,546.346 
		473.113,594.986 497.405,570.694 449.134,522.424 	"/>
	<polygon id="r1-shp049" fill="#939598" stroke="#494949" stroke-width="0.5" stroke-miterlimit="10" points="449.134,522.424 
		497.405,570.694 515.03,553.07 515.03,545.571 511.251,541.792 511.251,541.792 470.834,501.374 	"/>
	
		<rect id="r1-shp043b" x="649.03" y="402.403" fill="#939598" stroke="#494949" stroke-width="0.5" stroke-miterlimit="10" width="17" height="56.551"/>
	<polygon id="r1-shp047a" fill="#939598" stroke="#494949" stroke-width="0.5" stroke-miterlimit="10" points="531.831,442.205 
		571.334,481.708 582.305,470.737 582.305,467.345 544.691,429.731 	"/>
	<polygon id="r1-shp047b-48a-48b" fill="#939598" stroke="#494949" stroke-width="0.5" stroke-miterlimit="10" points="
		531.831,442.205 518.486,455.15 490.63,482.17 526.988,518.528 534.515,518.528 558.189,494.854 571.334,481.708 	"/>
	<polygon id="r1-shp022-51" fill="#939598" stroke="#494949" stroke-width="0.5" stroke-miterlimit="10" points="1242.707,588.059 
		1266.125,611.475 1278.125,623.475 1289.541,634.893 1306.355,618.079 1188.716,500.883 1172.125,517.475 	"/>
	<polygon id="r1-shp028" fill="#939598" stroke="#494949" stroke-width="0.5" stroke-miterlimit="10" points="1172.125,517.475 
		1148.125,541.475 1148.218,541.57 1148.218,549.715 1168.234,569.732 1197.192,542.543 	"/>
	<polygon id="r1-shp027" fill="#939598" stroke="#494949" stroke-width="0.5" stroke-miterlimit="10" points="1197.192,542.543 
		1168.234,569.732 1168.3,569.798 1183.197,584.695 1191.572,584.695 1195.113,588.234 1219.938,565.289 	"/>
	<polygon id="r1-shp026" fill="#939598" stroke="#494949" stroke-width="0.5" stroke-miterlimit="10" points="1195.113,588.234 
		1195.572,588.693 1218.822,611.944 1242.707,588.059 1219.938,565.289 	"/>
	<polygon id="r1-shp036" fill="#939598" stroke="#494949" stroke-width="0.5" stroke-miterlimit="10" points="914.197,402.403 
		914.197,464.94 933.9,464.94 940.365,458.476 946.197,458.476 946.197,402.403 	"/>
	<polygon id="r1-shp025b" fill="#939598" stroke="#494949" stroke-width="0.5" stroke-miterlimit="10" points="1242.707,588.059 
		1218.822,611.944 1223.947,617.071 1223.947,624.487 1225.148,625.688 1252.742,598.094 	"/>
	<polygon id="r1-shp025a" fill="#939598" stroke="#494949" stroke-width="0.5" stroke-miterlimit="10" points="1225.148,625.688 
		1227.113,627.653 1238.529,639.069 1266.125,611.475 1252.742,598.094 	"/>
	<polygon id="r1-shp022a" fill="#939598" stroke="#494949" stroke-width="0.5" stroke-miterlimit="10" points="1317.824,629.504 
		1300.792,646.144 1309.582,654.934 1278.904,685.612 1307.097,713.805 1354.863,666.403 	"/>
	<polygon id="r1-shp022b-023" fill="#939598" stroke="#494949" stroke-width="0.5" stroke-miterlimit="10" points="
		1317.824,629.504 1317.375,629.057 1306.355,618.079 1289.541,634.893 1261.947,662.487 1273.197,673.737 1273.197,679.905 
		1278.904,685.612 1309.582,654.934 1300.792,646.144 	"/>
	<polygon id="r1-shp029a" fill="#939598" stroke="#494949" stroke-width="0.5" stroke-miterlimit="10" points="1171.091,483.325 
		1157.216,469.502 1116.142,509.494 1125.884,519.237 1134.863,519.237 	"/>
	<polygon id="r1-shp035a" fill="#939598" stroke="#494949" stroke-width="0.5" stroke-miterlimit="10" points="989.531,402.403 
		965.697,402.403 965.697,458.476 983.509,458.476 989.531,452.57 	"/>
	
		<rect id="r1-shp035b" x="946.197" y="402.403" fill="#939598" stroke="#494949" stroke-width="0.5" stroke-miterlimit="10" width="19.5" height="56.073"/>
	<polygon id="r1-shp030a" fill="#939598" stroke="#494949" stroke-width="0.5" stroke-miterlimit="10" points="1130.939,443.325 
		1090.457,483.809 1102.375,495.725 1142.878,455.219 	"/>
	<polygon id="r1-shp029b" fill="#939598" stroke="#494949" stroke-width="0.5" stroke-miterlimit="10" points="1142.878,455.219 
		1102.375,495.725 1116.142,509.494 1157.216,469.502 	"/>
	<polygon id="r1-shp030b" fill="#939598" stroke="#494949" stroke-width="0.5" stroke-miterlimit="10" points="1119.501,431.93 
		1079.041,472.392 1090.457,483.809 1130.939,443.325 	"/>
	<polygon id="r1-shp045b" fill="#939598" stroke="#494949" stroke-width="0.5" stroke-miterlimit="10" points="580.862,374.986 
		563.446,374.986 542.862,395.569 556.113,408.82 548.67,416.262 565.337,432.928 580.862,417.403 	"/>
	
		<rect id="r1-shp045a2" x="580.862" y="374.986" fill="#939598" stroke="#494949" stroke-width="0.5" stroke-miterlimit="10" width="32.833" height="42.417"/>
	
		<rect id="r1-shp045a1" x="613.696" y="374.986" fill="#939598" stroke="#494949" stroke-width="0.5" stroke-miterlimit="10" width="27.167" height="42.417"/>
	<polygon id="r1-shp044" fill="#939598" stroke="#494949" stroke-width="0.5" stroke-miterlimit="10" points="586.098,428.305 
		573.406,440.998 591.362,458.954 640.862,458.954 640.862,428.305 	"/>
	<polygon id="r1-shp033a" fill="#939598" stroke="#494949" stroke-width="0.5" stroke-miterlimit="10" points="1012.531,376.57 
		1012.531,394.736 1002.031,394.736 1002.031,419.069 1079.865,419.069 1079.865,376.57 	"/>
	<polygon id="r1-shp033b" fill="#939598" stroke="#494949" stroke-width="0.5" stroke-miterlimit="10" points="1113.031,389.57 
		1100.031,376.57 1079.865,376.57 1079.865,419.069 1081.197,419.069 1100.365,438.236 1112.781,425.82 1094.781,407.82 	"/>
	<polygon id="r1-shp031b-2" fill="#939598" stroke="#494949" stroke-width="0.5" stroke-miterlimit="10" points="1044.531,428.57 
		1044.531,458.476 1053.96,458.476 1061.254,428.57 	"/>
	<polygon id="r1-shp031b-1" fill="#939598" stroke="#494949" stroke-width="0.5" stroke-miterlimit="10" points="1077.048,428.57 
		1061.254,428.57 1053.96,458.476 1064.169,458.476 	"/>
	<polygon id="r1-shp032" fill="#939598" stroke="#494949" stroke-width="0.5" stroke-miterlimit="10" points="1002.031,428.57 
		1002.031,451.736 1009.242,458.476 1044.531,458.476 1044.531,428.57 	"/>
	<polygon id="r1-shp031a" fill="#939598" stroke="#494949" stroke-width="0.5" stroke-miterlimit="10" points="1077.531,428.57 
		1077.048,428.57 1064.169,458.476 1065.125,458.476 1072.541,465.892 1093.697,444.736 	"/>
	<polygon id="r1-shp007a" fill="#939598" stroke="#494949" stroke-width="0.5" stroke-miterlimit="10" points="738.696,562.57 
		738.696,523.189 730.197,523.189 724.696,528.69 724.696,562.57 	"/>
	<polygon id="r1-shp007b" fill="#939598" stroke="#494949" stroke-width="0.5" stroke-miterlimit="10" points="738.696,523.189 
		738.696,562.57 738.696,586.902 752.862,586.902 752.862,523.189 	"/>
	<polygon id="r1-shp006" fill="#939598" stroke="#494949" stroke-width="0.5" stroke-miterlimit="10" points="713.362,562.57 
		713.362,528.713 682.362,528.713 682.362,586.902 705.029,586.902 705.029,562.57 	"/>
	<polygon id="r1-shp008b" fill="#939598" stroke="#494949" stroke-width="0.5" stroke-miterlimit="10" points="808.863,554.641 
		780.528,526.306 780.528,586.902 809.196,586.902 809.196,554.641 	"/>
	<polygon id="r1-shp008a-1" fill="#939598" stroke="#494949" stroke-width="0.5" stroke-miterlimit="10" points="777.411,523.189 
		766.696,523.189 766.696,586.902 780.528,586.902 780.528,526.306 	"/>
	
		<rect id="r1-shp008a-2" x="752.862" y="523.189" fill="#939598" stroke="#494949" stroke-width="0.5" stroke-miterlimit="10" width="13.833" height="63.713"/>
	<polygon id="r1-shp001a" fill="#939598" stroke="#494949" stroke-width="0.5" stroke-miterlimit="10" points="511.399,634.106 
		555.958,678.665 570.096,664.471 525.566,619.94 	"/>
	
		<rect id="r1-shp002" x="551.27" y="593.698" transform="matrix(-0.7071 0.7071 -0.7071 -0.7071 1390.7159 652.2152)" fill="#939598" stroke="#494949" stroke-width="0.5" stroke-miterlimit="10" width="18.033" height="40.841"/>
	<polygon id="r1-shp009a" fill="#939598" stroke="#494949" stroke-width="0.5" stroke-miterlimit="10" points="851.599,554.212 
		851.599,586.902 881.697,586.902 881.697,524.117 	"/>
	<polygon id="r1-shp001b" fill="#939598" stroke="#494949" stroke-width="0.5" stroke-miterlimit="10" points="525.566,619.94 
		570.096,664.471 583.986,650.528 539.482,606.024 	"/>
	
		<rect id="r1-shp005b" x="666.029" y="528.713" fill="#939598" stroke="#494949" stroke-width="0.5" stroke-miterlimit="10" width="16.333" height="58.189"/>
	<polygon id="r1-shp004b" fill="#939598" stroke="#494949" stroke-width="0.5" stroke-miterlimit="10" points="597.518,557.392 
		637.215,597.09 647.363,586.902 648.36,586.902 625.832,529.079 	"/>
	<polygon id="r1-shp003" fill="#939598" stroke="#494949" stroke-width="0.5" stroke-miterlimit="10" points="576.863,568.642 
		557.566,587.939 586.279,616.653 594.196,608.737 609.936,624.475 625.904,608.446 586.101,568.642 	"/>
	<polygon id="r1-shp005a" fill="#939598" stroke="#494949" stroke-width="0.5" stroke-miterlimit="10" points="626.197,528.713 
		625.832,529.079 648.36,586.902 666.029,586.902 666.029,528.713 	"/>
	<polygon id="r1-shp004a" fill="#939598" stroke="#494949" stroke-width="0.5" stroke-miterlimit="10" points="586.268,568.642 
		586.101,568.642 625.904,608.446 637.215,597.09 597.518,557.392 	"/>
	<polygon id="r1-shp012b1-012b2" fill="#939598" stroke="#494949" stroke-width="0.5" stroke-miterlimit="10" points="
		1035.49,529.497 993.725,529.497 993.725,545.779 1028.517,545.779 	"/>
	<polygon id="r1-shp012a1" fill="#939598" stroke="#494949" stroke-width="0.5" stroke-miterlimit="10" points="993.725,545.779 
		993.725,529.497 978.529,529.497 978.529,586.902 993.725,586.902 1010.902,586.902 1028.517,545.779 	"/>
	<polygon id="r1-shp015" fill="#939598" stroke="#494949" stroke-width="0.5" stroke-miterlimit="10" points="1112.216,598.133 
		1103.966,598.133 1080.345,621.754 1089.177,630.588 1072.578,647.188 1081.945,656.487 1126.257,612.174 	"/>
	<polygon id="r1-shp016a-b" fill="#939598" stroke="#494949" stroke-width="0.5" stroke-miterlimit="10" points="1138.081,623.997 
		1126.257,612.174 1081.945,656.487 1092.938,667.403 1104.943,679.323 1149.175,635.09 	"/>
	<polygon id="r1-shp021a" fill="#939598" stroke="#494949" stroke-width="0.5" stroke-miterlimit="10" points="1245.156,725.946 
		1218.697,752.403 1243.355,777.063 1269.916,750.706 	"/>
	<polygon id="r1-shp020a-b-21b" fill="#939598" stroke="#494949" stroke-width="0.5" stroke-miterlimit="10" points="
		1245.156,725.946 1235.738,716.528 1230.613,716.528 1222.925,708.84 1214.966,708.84 1188.238,735.571 1188.238,737.946 
		1176.154,750.03 1223.363,796.903 1243.355,777.063 1218.697,752.403 	"/>
	<polygon id="r1-shp018b-019" fill="#939598" stroke="#494949" stroke-width="0.5" stroke-miterlimit="10" points="
		1184.507,670.424 1172.675,658.59 1128.527,702.741 1140.402,714.53 1167.164,741.102 1180.363,727.903 1182.863,727.903 
		1208.613,702.153 1208.613,694.528 	"/>
	<polygon id="r1-shp011a" fill="#939598" stroke="#494949" stroke-width="0.5" stroke-miterlimit="10" points="945.697,529.497 
		945.697,563.237 956.363,563.237 956.363,586.902 962.029,586.902 962.029,529.497 	"/>
	<polygon id="r1-shp010" fill="#939598" stroke="#494949" stroke-width="0.5" stroke-miterlimit="10" points="936.029,564.039 
		936.029,529.497 935.865,529.497 930.15,523.783 912.197,523.783 912.197,586.902 924.529,586.902 924.529,564.039 	"/>
	<polygon id="r1-shp009b" fill="#939598" stroke="#494949" stroke-width="0.5" stroke-miterlimit="10" points="897.529,523.783 
		882.031,523.783 881.697,524.117 881.697,586.902 897.529,586.902 897.529,586.903 912.197,586.903 912.197,523.783 	"/>
	<polygon id="r1-shp014" fill="#939598" stroke="#494949" stroke-width="0.5" stroke-miterlimit="10" points="1075.154,617.444 
		1098.945,593.652 1098.945,584.859 1083.175,569.09 1075.365,569.09 1075.306,569.032 1034.73,609.608 1050.833,625.598 
		1067.072,609.362 	"/>
	<polygon id="r1-shp013" fill="#939598" stroke="#494949" stroke-width="0.5" stroke-miterlimit="10" points="1035.77,529.497 
		1035.49,529.497 1010.902,586.902 1011.863,586.902 1034.73,609.608 1075.306,569.032 	"/>
	<polygon id="robinson" fill="#939598" stroke="#494949" stroke-width="0.5" stroke-miterlimit="10" points="392.863,844.405 
		125.03,576.57 313.363,388.237 431.53,506.404 407.363,530.571 556.511,679.719 	"/>
	<polygon id="central-department-store" fill="#939598" stroke="#494949" stroke-width="0.5" stroke-miterlimit="10" points="
		1200.197,820.737 1451.048,569.884 1640.169,759.006 1389.484,1009.692 	"/>
	<path id="r019" fill="#939598" stroke="#494949" stroke-width="0.5" stroke-miterlimit="10" d="M1133.781,896.153l-21.506,21.506
		c4.422,7.76,9.166,14.686,14.113,20.885l24.473-24.469C1141.104,903.856,1133.781,896.153,1133.781,896.153z"/>
	<path id="r027" fill="#939598" stroke="#494949" stroke-width="0.5" stroke-miterlimit="10" d="M1134.958,718.934l-25.971,25.972
		c0,0,5.424,4.25,10.305,12.057l27.701-25.99L1134.958,718.934z"/>
	<path id="r026" fill="#939598" stroke="#494949" stroke-width="0.5" stroke-miterlimit="10" d="M1146.994,730.969l-27.701,25.99
		c4.254,6.805,8.094,16.311,7.57,28.068c0,0,3.578,1.045,8.721,3.057L1170,753.975L1146.994,730.969z"/>
	<path id="r025" fill="#939598" stroke="#494949" stroke-width="0.5" stroke-miterlimit="10" d="M1170,753.975l-34.416,34.109
		c8.895,3.479,22.482,9.867,30.404,18.818l28.586-28.354L1170,753.975z"/>
	<path id="r030" fill="#939598" stroke="#494949" stroke-width="0.5" stroke-miterlimit="10" d="M1044.714,655.676l5.398-5.396
		l-3.707-3.705l2.188-2.188l-16.354-16.354l-31.875,31.875c0,0,12,6.646,26.904,19.094l20.387-20.383L1044.714,655.676z"/>
	<path id="r029" fill="#939598" stroke="#494949" stroke-width="0.5" stroke-miterlimit="10" d="M1047.654,658.614l-20.385,20.383
		c5.332,4.455,11.035,9.65,16.697,15.551l19.811-19.809L1047.654,658.614z"/>
	<path id="r028" fill="#939598" stroke="#494949" stroke-width="0.5" stroke-miterlimit="10" d="M1101.895,685.872l-19.563-19.563
		l-13.492,13.492l-5.063-5.063l-19.811,19.809c7.637,7.953,15.188,17.188,21.646,27.605L1101.895,685.872z"/>
	<path id="r031-032" fill="#939598" stroke="#494949" stroke-width="0.5" stroke-miterlimit="10" d="M880.613,643.528
		c0,0,59.5-14.75,111.625,11.375l26.125-26.125l-9.25-9.5h-30.584v5.125h-39.541v-11.75h-34.125v-20.149h-53.24v31.774
		C851.623,624.278,868.113,629.153,880.613,643.528z"/>
	<path id="r037" fill="#939598" stroke="#494949" stroke-width="0.5" stroke-miterlimit="10" d="M682.362,619.731v27.313
		c5.427-1.74,11.216-3.07,17.167-4.063v-23.429L682.362,619.731z"/>
	<path id="r038" fill="#939598" stroke="#494949" stroke-width="0.5" stroke-miterlimit="10" d="M661.863,619.94l-15.936,13.965
		l20.102,20.5c4.814-3.027,10.354-5.439,16.333-7.357v-27.313L661.863,619.94z"/>
	<path id="r036" fill="#939598" stroke="#494949" stroke-width="0.5" stroke-miterlimit="10" d="M699.529,619.555v23.429
		c5.146-0.861,10.414-1.478,15.667-1.894v-21.694L699.529,619.555z"/>
	<path id="r035" fill="#939598" stroke="#494949" stroke-width="0.5" stroke-miterlimit="10" d="M723.029,619.315v21.291
		c8.84-0.398,17.441-0.312,25.167,0.014v-21.563L723.029,619.315z"/>
	<path id="r033" fill="#939598" stroke="#494949" stroke-width="0.5" stroke-miterlimit="10" d="M779.696,592.504v24.567v1.666
		V643.2c10.189-12.855,27.667-18.728,27.667-18.728v-31.971L779.696,592.504L779.696,592.504z"/>
	<path id="r034" fill="#939598" stroke="#494949" stroke-width="0.5" stroke-miterlimit="10" d="M748.196,619.059v21.563
		c18.091,0.756,31.333,2.785,31.333,2.785c0.054-0.07,0.109-0.14,0.167-0.205v-24.463L748.196,619.059z"/>
	<path id="r039" fill="#939598" stroke="#494949" stroke-width="0.5" stroke-miterlimit="10" d="M624.863,641.653l-5.938,5.938
		l-3.813-3.813l-6.188,6.188l5.563,5.563l-16.5,16.5l15.495,15.494c18.586-15.478,33.13-24.119,33.13-24.119L624.863,641.653z"/>
	<path id="r043" fill="#939598" stroke="#494949" stroke-width="0.5" stroke-miterlimit="10" d="M488.78,754.819l18.25,17.584
		c10-10.076,20.85-14.584,29.679-16.521l-24.295-24.697L488.78,754.819z"/>
	<path id="r042a" fill="#939598" stroke="#494949" stroke-width="0.5" stroke-miterlimit="10" d="M523.412,720.188l32.743,32.396
		c3.09-5.217,6.405-10.248,9.894-15.084l-30.387-29.563L523.412,720.188z"/>
	<path id="r041a" fill="#939598" stroke="#494949" stroke-width="0.5" stroke-miterlimit="10" d="M586.994,712.294l-28.006-27.684
		l-10.881,10.882l28.479,28.479C579.999,719.902,583.484,716.003,586.994,712.294z"/>
	<path id="r041b" fill="#939598" stroke="#494949" stroke-width="0.5" stroke-miterlimit="10" d="M548.107,695.492l-12.446,12.446
		l30.387,29.563c3.385-4.697,6.92-9.209,10.54-13.528L548.107,695.492z"/>
	<path id="r042b" fill="#939598" stroke="#494949" stroke-width="0.5" stroke-miterlimit="10" d="M512.414,731.184l24.295,24.697
		c10.449-2.291,18.067-0.979,18.067-0.979c0.445-0.781,0.92-1.543,1.378-2.316l-32.743-32.396L512.414,731.184z"/>
	<path id="r040b" fill="#939598" stroke="#494949" stroke-width="0.5" stroke-miterlimit="10" d="M558.988,684.612l28.006,27.684
		c4.133-4.367,8.292-8.469,12.39-12.311l-28.292-27.479L558.988,684.612z"/>
	<path id="r040a" fill="#939598" stroke="#494949" stroke-width="0.5" stroke-miterlimit="10" d="M597.988,672.028l-13.208-13.207
		l-13.688,13.688l28.292,27.479c4.837-4.535,9.589-8.707,14.102-12.463L597.988,672.028z"/>
	<path id="r004" fill="#939598" stroke="#494949" stroke-width="0.5" stroke-miterlimit="10" d="M589.196,820.405l7.584-7.584
		l-15.237-15.238c-9.629,12.631-20.14,20.676-31.18,25.094v74.104c52.783-17.437,71.75-60.625,71.75-60.625l-6-6l-8.583,8.584
		L589.196,820.405z"/>
	<path id="r001" fill="#939598" stroke="#494949" stroke-width="0.5" stroke-miterlimit="10" d="M470.113,796.403l-39.25,39.25
		l26.95,27.201l34.962-47.939C479.661,806.368,470.113,796.403,470.113,796.403z"/>
	<path id="r002" fill="#939598" stroke="#494949" stroke-width="0.5" stroke-miterlimit="10" d="M492.775,814.915l-34.965,47.939
		l0.053,0.049l0.999,6.653c19.537-3.407,34.577,1.313,45.555,8.125l12.445-51.805C508.41,823.954,500.047,819.653,492.775,814.915z"
		/>
	<path id="r010" fill="#939598" stroke="#494949" stroke-width="0.5" stroke-miterlimit="10" d="M781.863,688.653
		c-11.557-3.23-23.022-4.566-34-4.64v75.699c28.563-0.873,51.75-9.313,51.75-9.313l5-10.5c10-17.25,10.75-34,10.75-34
		C793.613,701.653,781.863,688.653,781.863,688.653z"/>
	<path id="r009" fill="#939598" stroke="#494949" stroke-width="0.5" stroke-miterlimit="10" d="M714.113,687.555v52.185h-5.292
		l-7.083,6.541l9.625,9.625c12.257,3.264,24.827,4.168,36.5,3.813v-75.699C735.84,683.94,724.412,685.387,714.113,687.555z"/>
	<path id="r007" fill="#939598" stroke="#494949" stroke-width="0.5" stroke-miterlimit="10" d="M693.363,737.502l-27.896-31.813
		c-5.688,7.991-11.21,15.159-16.498,21.571l45.876,45.877c4.952-9.512,6.269-16.483,6.269-16.483l-4.875-4.875l-7.708-8.707
		L693.363,737.502z"/>
	<path id="r008" fill="#939598" stroke="#494949" stroke-width="0.5" stroke-miterlimit="10" d="M697.321,727.78l11.5,11.957h5.292
		v-52.185c-20.443,4.308-36.423,11.435-43.731,15.064l25.856,26.451L697.321,727.78z"/>
	<path id="r005-006" fill="#939598" stroke="#494949" stroke-width="0.5" stroke-miterlimit="10" d="M648.971,727.262
		c-29.833,36.19-52.152,48.363-54.416,49.543l19.727,18.518l-17.5,17.5l-7.584,7.584l18.333,18.332l8.584-8.584l16.501-16.499l0,0
		l2.875-2.875l6.625,6.625c30.341-10.857,45.462-30.297,52.731-44.267L648.971,727.262z"/>
	<path id="r011" fill="#939598" stroke="#494949" stroke-width="0.5" stroke-miterlimit="10" d="M878.363,689.153
		c-22.25,17.75-33.75,16.5-33.75,16.5s1.578,22.014,10.5,34.25l5.75,10.75c24.836,12.266,51.832,11.086,69,8.338v-73.676
		C901.951,683.76,878.363,689.153,878.363,689.153z"/>
	<path id="r013" fill="#939598" stroke="#494949" stroke-width="0.5" stroke-miterlimit="10" d="M993.251,707.43l-19.639,19.642
		l1.418,1.418l-8.959,8.959l5.457,5.457l-8.416,8.5l-4.75,4.75c1.436,6.147,3.744,11.821,6.631,17.037l45.723-45.728
		C1002.662,718.573,996.019,710.735,993.251,707.43z"/>
	<path id="r012" fill="#939598" stroke="#494949" stroke-width="0.5" stroke-miterlimit="10" d="M963.281,727.737l1.25,1.25
		l25.008-25.008c-17.375-12.851-39.637-17.55-59.676-18.664v73.676c10.828-1.732,17.75-4.088,17.75-4.088l9.5-9.5l-5.75-5.75
		L963.281,727.737z"/>
	<path id="r018" fill="#939598" stroke="#494949" stroke-width="0.5" stroke-miterlimit="10" d="M1135.363,853.653
		c-2.688-1.313-6.158-4.519-9.885-8.615l-45.678,45.676c13.572,9.502,23.873,11.377,23.873,11.377l5.063-5.063l4.963,4.963
		l14.412-12.838C1119.613,866.653,1135.363,853.653,1135.363,853.653z"/>
	<path id="r014-015" fill="#939598" stroke="#494949" stroke-width="0.5" stroke-miterlimit="10" d="M1052.007,784.258
		c-6.461-11.646-5.895-22.854-5.895-22.854c-10.033-6.945-24.104-21.474-35.396-33.938l-45.725,45.728
		c16.701,30.168,52.869,44.713,52.869,44.713l6.5-6l18.344-18.342L1052.007,784.258z"/>
	<path id="r016" fill="#939598" stroke="#494949" stroke-width="0.5" stroke-miterlimit="10" d="M1099.113,809.684
		c-11.145-0.801-19.943-3.241-26.898-6.631l-9.789,9.787l-18.813,18.813l-5.75,5.5c5.703,12.547,12.035,22.705,18.453,30.924
		l49.088-49.09C1101.623,813.543,1099.113,809.684,1099.113,809.684z"/>
	<path id="yves-rocher" fill="#939598" stroke="#494949" stroke-width="0.5" stroke-miterlimit="10" d="M1052.007,784.258
		l-9.303,9.306h0.001l-18.342,18.341l19.25,19.75l18.812-18.813l9.787-9.787C1062.024,798.09,1055.804,791.098,1052.007,784.258z"/>
	<polygon id="r1-kio035-038" fill="#939598" stroke="#494949" stroke-width="0.5" stroke-miterlimit="10" points="752.863,476.903 
		731.696,476.903 731.696,512.043 752.863,512.043 752.863,494.473 752.863,494.472 	"/>
	<polygon id="r1-kio037" fill="#939598" stroke="#494949" stroke-width="0.5" stroke-miterlimit="10" points="773.612,476.903 
		752.862,476.903 752.862,494.473 769.863,494.473 	"/>
	<polygon id="r1-kio036" fill="#939598" stroke="#494949" stroke-width="0.5" stroke-miterlimit="10" points="752.862,494.473 
		752.862,512.043 772.613,512.043 769.863,494.473 	"/>
	
		<rect id="r1-kio020-017" x="893.12" y="478.278" fill="#939598" stroke="#494949" stroke-width="0.5" stroke-miterlimit="10" width="23.486" height="31.625"/>
	<polygon id="r1-kio019" fill="#939598" stroke="#494949" stroke-width="0.5" stroke-miterlimit="10" points="995.894,493.872 
		980.519,478.497 944.863,478.278 944.863,494.09 995.675,494.09 	"/>
	<polygon id="r1-kio018" fill="#939598" stroke="#494949" stroke-width="0.5" stroke-miterlimit="10" points="944.863,494.09 
		944.863,509.903 979.863,509.903 995.675,494.09 	"/>
	<polygon id="r1-kio030" fill="#939598" stroke="#494949" stroke-width="0.5" stroke-miterlimit="10" points="1041.541,500.358 
		1048.675,507.215 1066.914,488.978 1059.988,482.357 	"/>
	
		<rect id="r1-kio029" x="617.529" y="476.903" fill="#939598" stroke="#494949" stroke-width="0.5" stroke-miterlimit="10" width="8.375" height="24.471"/>
	<path id="r1-kio045-047" fill="#939598" stroke="#494949" stroke-width="0.5" stroke-miterlimit="10" d="M553.25,537.287
		c-2.51-2.22-5.8-3.578-9.415-3.578c-7.861,0-14.233,6.372-14.233,14.233c0,3.611,1.358,6.901,3.579,9.414L553.25,537.287z"/>
	
		<rect id="r1-kio063-064" x="637.215" y="465.854" fill="#939598" stroke="#494949" stroke-width="0.5" stroke-miterlimit="10" width="29.168" height="8.921"/>
	
		<rect id="r1-kio061-062" x="644.393" y="513.014" fill="#939598" stroke="#494949" stroke-width="0.5" stroke-miterlimit="10" width="29.168" height="8.921"/>
	
		<rect id="r1-kio031" x="790.196" y="463.903" fill="#939598" stroke="#494949" stroke-width="0.5" stroke-miterlimit="10" width="21.707" height="5.449"/>
	
		<rect id="r1-kio032" x="853.075" y="463.903" fill="#939598" stroke="#494949" stroke-width="0.5" stroke-miterlimit="10" width="21.455" height="5.622"/>
	<path id="r023-024" fill="#939598" stroke="#494949" stroke-width="0.5" stroke-miterlimit="10" d="M1221.716,952.008
		c-4.76,4.611-12.603,4.236-17.518-0.837l-60.528-62.49c-4.913-5.071-5.038-12.924-0.277-17.533l18.152-17.582
		c4.76-4.611,12.604-4.236,17.518,0.837l60.529,62.489c4.912,5.072,5.037,12.925,0.276,17.534L1221.716,952.008z"/>
</g>
<g id="signs">
	<rect id="baby-change-room" x="953.878" y="593.565" opacity="0.8" enable-background="new    " width="14.813" height="14.809"/>
	<g id="fire-exit">
		<rect x="932.519" y="571.464" opacity="0.8" enable-background="new    " width="14.813" height="14.812"/>
		<rect x="714.184" y="571.464" opacity="0.8" enable-background="new    " width="14.813" height="14.812"/>
		<rect x="582.539" y="623.678" opacity="0.8" enable-background="new    " width="14.811" height="14.812"/>
		<rect x="1059.785" y="624.086" opacity="0.8" enable-background="new    " width="14.811" height="14.81"/>
		<rect x="1169.785" y="733.614" opacity="0.8" enable-background="new    " width="14.811" height="14.809"/>
	</g>
	<rect id="parking" x="824.305" y="287.231" opacity="0.8" enable-background="new    " width="14.813" height="14.809"/>
	<g id="toilet">
		<rect x="1111.466" y="426.487" opacity="0.8" enable-background="new    " width="14.813" height="14.809"/>
		<rect x="862.996" y="379.231" opacity="0.8" enable-background="new    " width="14.811" height="14.809"/>
		<rect x="467.325" y="443.983" opacity="0.8" enable-background="new    " width="14.811" height="14.809"/>
		<rect x="920.806" y="593.565" opacity="0.8" enable-background="new    " width="14.813" height="14.809"/>
		<rect x="625.904" y="599.231" opacity="0.8" enable-background="new    " width="14.811" height="14.809"/>
		<rect x="1276.154" y="950.278" opacity="0.8" enable-background="new    " width="14.811" height="14.809"/>
	</g>
	<g id="lift">
		<rect x="1197.021" y="489.564" opacity="0.8" enable-background="new    " width="14.813" height="14.809"/>
		<rect x="970.416" y="593.565" opacity="0.8" enable-background="new    " width="14.811" height="14.809"/>
		<rect x="658.977" y="599.231" opacity="0.8" enable-background="new    " width="14.813" height="14.809"/>
		<rect x="796.344" y="379.231" opacity="0.8" enable-background="new    " width="14.813" height="14.809"/>
		<rect x="452.514" y="486.034" opacity="0.8" enable-background="new    " width="14.813" height="14.809"/>
	</g>
	<g id="stairs">
		<rect x="1118.873" y="564.059" opacity="0.8" enable-background="new    " width="14.811" height="14.812"/>
		<rect x="525.135" y="564.059" opacity="0.8" enable-background="new    " width="14.813" height="14.812"/>
	</g>
	<g id="escalator">
		<rect x="1173.98" y="618.649" opacity="0.8" enable-background="new    " width="14.811" height="14.809"/>
		<rect x="1061.541" y="496.969" opacity="0.8" enable-background="new    " width="14.811" height="14.812"/>
		<rect x="848.185" y="526.199" opacity="0.8" enable-background="new    " width="14.813" height="14.809"/>
		<rect x="560.769" y="772.898" opacity="0.8" enable-background="new    " width="14.813" height="14.809"/>
		<rect x="825.104" y="685.973" opacity="0.8" enable-background="new    " width="14.813" height="14.812"/>
		<rect x="1083.82" y="783.303" opacity="0.8" enable-background="new    " width="14.811" height="14.812"/>
		<rect x="794.677" y="526.199" opacity="0.8" enable-background="new    " width="14.813" height="14.809"/>
		<rect x="587.469" y="497.295" opacity="0.8" enable-background="new    " width="14.813" height="14.812"/>
	</g>
	<g id="handicapped-toilet">
		<rect x="1128.27" y="426.487" opacity="0.8" enable-background="new    " width="14.812" height="14.809"/>
		<rect x="879.796" y="379.231" opacity="0.8" enable-background="new    " width="14.813" height="14.809"/>
		<rect x="484.126" y="443.983" opacity="0.8" enable-background="new    " width="14.813" height="14.809"/>
		<rect x="642.44" y="599.231" opacity="0.8" enable-background="new    " width="14.811" height="14.809"/>
		<rect x="937.341" y="593.565" opacity="0.8" enable-background="new    " width="14.813" height="14.809"/>
	</g>
	<g id="telephone">
		<rect x="1145.072" y="426.487" opacity="0.8" enable-background="new    " width="14.811" height="14.809"/>
		<rect x="896.599" y="379.231" opacity="0.8" enable-background="new    " width="14.813" height="14.809"/>
		<rect x="500.928" y="443.983" opacity="0.8" enable-background="new    " width="14.813" height="14.809"/>
	</g>
	<g id="atm">
		<rect x="913.402" y="379.231" opacity="0.8" enable-background="new    " width="14.811" height="14.809"/>
		<rect x="517.73" y="443.983" opacity="0.8" enable-background="new    " width="14.811" height="14.809"/>
	</g>
</g>
</svg>
