<?xml version="1.0" encoding="utf-8"?>
<!-- Generator: Adobe Illustrator 19.2.0, SVG Export Plug-In . SVG Version: 6.00 Build 0)  -->
<svg version="1.1" id="Layer_1" xmlns="http://www.w3.org/2000/svg" xmlns:xlink="http://www.w3.org/1999/xlink" x="0px" y="0px"
	 viewBox="0 0 1683.8 1190.6" style="enable-background:new 0 0 1683.8 1190.6;" xml:space="preserve">
<style type="text/css">
	.st0{fill:#FFFFFF;}
	.st1{display:none;}
	.st2{fill:#DEDEDE;stroke:#494949;stroke-width:0.5;stroke-miterlimit:10;}
	.st3{fill:#939598;stroke:#494949;stroke-width:0.5;stroke-miterlimit:10;}
	.st4{opacity:0.8;stroke:#494949;stroke-miterlimit:10;enable-background:new    ;}
	.st5{opacity:0.8;enable-background:new    ;}
</style>
<g id="Background">
	<rect class="st0" width="1683.8" height="1190.6"/>
</g>
<g id="Original" class="st1">
</g>
<g id="ETC">
	<polygon class="st2" points="289.6,324.8 338.7,275.7 451.5,366.8 540,292 743.4,207.7 745.1,150.4 914.1,150.4 915.6,207.7 
		1032,275.7 1148.6,358.7 1422.1,627.6 1357.9,802.5 1163.8,848.7 848.4,666.9 562.3,797.1 350.7,833.1 250,766.2 254.4,480.6 	"/>
	<path class="st2" d="M1356.9,472.2l-16.2,15.2l-10-9.9c6-6.1,9.6-14.5,9.6-23.7c0-18.8-15.2-34-34-34c-9.3,0-17.6,3.7-23.8,9.7
		l-23.1-23.1c5.7-6.1,9.2-14.2,9.2-23.2c0-18.8-15.2-34-34-34c-9,0-17.2,3.5-23.3,9.2l-20.6-20.5c6.1-6.1,9.9-14.6,9.9-23.9
		c0-18.8-15.2-34-34-34c-9.4,0-17.9,3.8-24,9.9l-12.6-12.5l15.8-14.3l-57.7-55.3H915.6V373l184.4,0.5l272.7,271.7l78.4-78.4
		L1356.9,472.2z"/>
	
		<rect x="560.1" y="522.3" transform="matrix(1 -4.399916e-03 4.399916e-03 1 -2.3096 2.5751)" class="st2" width="48" height="7.8"/>
	<path class="st2" d="M1332.3,956.8l-79.2-79.2l-9.2-9.2l4.9-4.9l-11.1-11.1l6.5-6.5l-11-11l6.4-6.4l-12.1-12.1l7.9-8l-223.6-221.5
		H647.4l-257,258l-134.6-135l-1.5,1.5l-94.7-96.7l15.3-16l-78.1-78.1l-13.9,13.9l5.1,5.1l-7.8,7.8l2.8,2.8c0,0-24.2,26.2-23.3,55.5
		h14.7c0.6,23,11.2,37.6,16.8,43.7l-12.7,12.7L240,824.6l6-6l12.2,12.2l-4.7,4.7l17.7,17.7l4.1-4.1l13.9,13.9l-4,4
		c25.2,32.5,63.3,32.8,63.3,32.8l-0.1-0.1c49.5,8,78.1-20.1,78.2-20.2c13.9-8.5,33.5-11.9,33.5-11.9l14.1-24.5l29.1,12.9l-8.3,17.2
		c22.8,7.2,33.2,28.2,33.2,28.2c4.1-0.7,8-1.5,11.8-2.5c54.4-13.8,76.5-55.7,76.5-55.7l-5.9-5.9l-2.1,2.1l-0.2-0.2l27.6-28l5.1,5
		c0,0,35.2-12.3,51.6-42.5l-21.9-21.9l2.1-3.7l26.8-0.3l5-4l5.2,4.8l0,0l4.1,4.2c0,0,5.8,1.6,14.9,2.9c7.2,1,16.4,1.9,26.5,1.7
		c13.3-0.3,28-2.4,41.6-8.3c0,0,2.4-3.7,5.4-9.6l56.2-0.8c1.6,4.1,3.3,7.5,4.9,9.7c0,0,22.9,8.7,50.4,9.2
		c10.9,0.2,22.6-0.9,33.9-4.4l5.8-5.8l-0.1-0.1l3.5-4l2.4,2.8l-0.2,0.2l6,6.2l-4.2,5.2c0,0,1.4,5.2,5.4,12.7
		c2.7,4.9,6.5,10.9,11.9,17.1c9,10.3,22.4,21.2,41.9,29.1l4.8-4.2l20.2,19.7l-2.3,2.3c7.6,13.1,18,24.6,28.4,34.1
		c10.5,9.6,20.8,17,27.9,21.6c5.1,3.3,8.4,5.2,8.9,5.5l14.9,15.1l-4,4l-3.9-3.9l-2.8,2.8c5.2,9.9,10.9,18.5,16.9,26
		c7.5,9.4,15.5,17.2,23.5,23.5c9.8,7.7,19.7,13.2,28.9,17.3c25.5,11.2,46,10.6,46,10.6l24.2-15.2l-0.7-4l31.9-5.9l0.1,0.1v4.2
		c0,0,16-1.2,21.5,2.5s27,9.2,38.4-4.9L1332.3,956.8z"/>
	<path class="st2" d="M986.5,479.1c0,0,0.5,25.2,22,30.1c21.5,4.9,38.2-8.7,43.6-19.2C1057.4,479.5,1005.9,471.8,986.5,479.1z"/>
	<circle class="st2" cx="830.3" cy="494" r="45"/>
	<circle class="st2" cx="830.3" cy="494" r="22.5"/>
	<circle class="st2" cx="649.6" cy="492.8" r="18.6"/>
	
		<rect x="1050.6" y="514.2" transform="matrix(1 -4.499909e-03 4.499909e-03 1 -2.3208 4.8409)" class="st2" width="48" height="7.9"/>
	
		<rect x="556.6" y="514.2" transform="matrix(1 -4.399916e-03 4.399916e-03 1 -2.274 2.5596)" class="st2" width="48" height="7.8"/>
	<polygon class="st2" points="387.8,715 382.2,709.4 384,707.7 416,675.3 421.6,680.8 	"/>
	
		<rect x="386.1" y="694.5" transform="matrix(0.7041 -0.7101 0.7101 0.7041 -374.5842 497.8859)" class="st2" width="48" height="7.8"/>
	
		<rect x="1054.3" y="522.3" transform="matrix(1 -4.499909e-03 4.499909e-03 1 -2.3572 4.8576)" class="st2" width="48" height="7.9"/>
	
		<rect x="1207.5" y="624.6" transform="matrix(0.7042 -0.71 0.71 0.7042 -102.1981 1051.9236)" class="st2" width="7.8" height="48"/>
	
		<rect x="1211.3" y="619.3" transform="matrix(0.7041 -0.7101 0.7101 0.7041 -95.6055 1052.5833)" class="st2" width="7.8" height="43.4"/>
	
		<rect x="1194.6" y="636.3" transform="matrix(0.7041 -0.7101 0.7101 0.7041 -112.637 1045.7817)" class="st2" width="7.8" height="43.4"/>
	
		<rect x="1198.7" y="626.8" transform="matrix(0.704 -0.7102 0.7102 0.704 -106.2324 1046.7117)" class="st2" width="7.8" height="48"/>
	<polygon class="st2" points="378.2,701.5 409.7,670.1 415.4,675.9 384,707.7 	"/>
	<polygon class="st2" points="396.8,717.3 402.8,723.4 433.4,692.8 427.2,686.6 	"/>
	<polygon class="st2" points="562.3,514.3 574.8,501.8 589,502.5 600.6,514.1 	"/>
	<polygon class="st2" points="562.3,530.2 603,530 588.8,544.3 575.8,544.3 	"/>
	<polygon class="st2" points="1056,514.1 1069,501.1 1082.7,501.1 1096.8,514.1 	"/>
	<polygon class="st2" points="1057.1,530.2 1098.6,530 1083.5,544.3 1070.5,544.3 	"/>
	<polygon class="st2" points="137.4,603.7 153.7,620.1 174.9,598.8 159,582.9 	"/>
	
		<rect x="793.1" y="475.9" transform="matrix(0.9207 -0.3904 0.3904 0.9207 -133.3415 350.6254)" class="st2" width="5.6" height="54.8"/>
	
		<rect x="837.7" y="500.5" transform="matrix(0.4412 -0.8974 0.8974 0.4412 31.7505 1057.5621)" class="st2" width="54.8" height="5.6"/>
	
		<rect x="850.3" y="637.9" transform="matrix(0.9234 -0.3839 0.3839 0.9234 -188.6438 378.6608)" class="st2" width="7.9" height="48"/>
	
		<rect x="785.9" y="658.4" transform="matrix(0.3742 -0.9273 0.9273 0.3742 -107.3725 1165.478)" class="st2" width="48" height="7.8"/>
	<ellipse class="st2" cx="831.5" cy="663.5" rx="44.4" ry="27.4"/>
	
		<ellipse transform="matrix(0.7071 -0.7071 0.7071 0.7071 -254.0155 1069.3484)" class="st2" cx="1163.8" cy="841.3" rx="18" ry="48.1"/>
	<path class="st2" d="M1068,765c-0.3,7.6-0.2,26.5,16.1,27.4s42.8-4,30-26.5S1069.7,721.2,1068,765z"/>
	<path class="st2" d="M517.4,804.1c-6.4-8.5-15-34.2,22.5-31.5s34.4,23.4,15.7,37.1S529.6,820.2,517.4,804.1z"/>
	<path class="st2" d="M571.3,207.7l-14.1,14.1c-6.1-5.6-14.1-9-23-9c-18.8,0-34,15.2-34,34c0,8.9,3.4,16.9,9,23l-5.5,5.5
		c-6-5.4-14-8.7-22.7-8.7c-18.8,0-34,15.2-34,34c0,8.7,3.3,16.7,8.7,22.7l-10,10l78.2,78.2l39.7-39.6l179.9,0.5V207.7H571.3z"/>
	<polygon id="g-shp087d" class="st2" points="778.9,360.4 778.9,303.9 745.1,303.9 745.1,373.2 763.1,373.2 763.1,360.4 	"/>
	<path class="st2" d="M1216.1,877.9v20.8l67.2,67.2v4.2c0,0,16-1.2,21.5,2.5s27,9.2,38.4-4.9l-90.2-90.2L1216.1,877.9z"/>
	<path class="st2" d="M1176.5,893.4l-0.5-0.4l-46.6,46.6c7.5,9.4,15.5,17.2,23.5,23.5L1199,917L1176.5,893.4z"/>
	<path class="st2" d="M1251.4,971.7l-29.8-31.1l-39.8,39.8c25.5,11.2,46,10.6,46,10.6l24.2-15.2L1251.4,971.7z"/>
	<path class="st2" d="M1199,916.9l-46.1,46.1c9.8,7.7,19.7,13.2,28.9,17.3l39.8-39.8L1199,916.9z"/>
	<polygon class="st2" points="563.9,373.2 534.4,402.4 547,415.6 568.7,394.4 583.7,394.4 583.7,373.3 	"/>
	<polygon class="st2" points="583.7,373.3 583.7,394.4 648,394.4 648,373.6 	"/>
	<polygon class="st2" points="692.9,373.9 648,373.6 648,394.4 692.9,394.4 	"/>
	
		<rect x="1135.8" y="419.9" transform="matrix(0.7071 -0.7071 0.7071 0.7071 28.2846 936.7079)" class="st2" width="18.1" height="28.6"/>
	<polygon class="st2" points="1098.9,375.4 1000.8,375.4 1000.8,395 1092.9,395 1128.3,430.4 1141.1,417.7 	"/>
	
		<rect x="1158.8" y="442.3" transform="matrix(0.7071 -0.7071 0.7071 0.7071 18.9944 959.5991)" class="st2" width="18.1" height="29.2"/>
	<polygon class="st2" points="883.5,475.2 891.9,488.1 901.4,488.1 901.4,513.4 912.4,513.4 912.4,475.2 	"/>
	<rect x="912.4" y="475.2" class="st2" width="26.8" height="38.2"/>
	<rect x="939.1" y="475.2" class="st2" width="26.4" height="38.2"/>
	<polygon class="st2" points="880.9,358.7 904.4,358.7 906.4,358.7 914.1,358.7 914.1,333.9 880.9,333.9 	"/>
	<rect x="880.9" y="358.7" class="st2" width="23.5" height="34"/>
	<polygon class="st2" points="880.9,249.4 880.9,275.7 880.9,303.9 880.9,333.9 914.1,333.9 914.1,249.4 	"/>
	<polygon class="st2" points="888.5,414.9 912.4,414.9 912.4,402.4 853.6,402.4 853.6,414.9 	"/>
	<path class="st2" d="M745.1,150.4v27.4v31.6h20.6h13.1v-59C764.4,150.4,745.1,150.4,745.1,150.4z"/>
	<polygon class="st2" points="1283.6,595.4 1239.3,639.7 1257.5,658 1301.9,613.6 	"/>
	<path class="st2" d="M1169.6,743.6l-39.5,39.5c0,0.6,0,1.2,0,1.9c0,0,12.8,5.8,24.3,12.2l34.4-34.4L1169.6,743.6z"/>
	<path id="_x3C_Path_x3E_" class="st2" d="M705.7,681.3c-13.3,3.4-26.7,9.3-38.8,19.1l44.6,43.7l-2.7,3.6l5.3,5.4
		c0,0,5.8,1.6,14.9,2.9v-12.1L705.7,681.3z"/>
</g>
<g id="Rooms">
	<polygon id="g-shp046-047" class="st3" points="805,402.4 747.7,402.4 747.7,459.7 787,460 805,441.2 	"/>
	<polygon id="g-shp054a" class="st3" points="517.4,456.2 559.2,498.1 571.6,485.7 530,444 	"/>
	<polygon id="g-shp055b" class="st3" points="504.9,468.3 547,510.3 559.2,498.1 517.4,456.2 	"/>
	<polygon id="g-shp048a-b-049-050-051a-b" class="st3" points="680.7,402.4 648,402.4 630.4,402.4 612.5,402.4 612.5,458.8 
		630.4,458.9 648,459.1 680.7,459.3 747.7,459.7 747.7,402.4 	"/>
	<polygon id="g-shp052-53-54b" class="st3" points="572.9,402.4 530,444 571.6,485.7 598.5,458.7 612.5,458.8 612.5,402.4 	"/>
	<polygon id="g-shp062" class="st3" points="279.5,687 324.5,732.1 347.2,709.4 347.4,709.4 302.6,664.6 	"/>
	<polygon id="g-shp061" class="st3" points="302.6,664.6 347.4,709.4 355.5,709.4 374.9,690.1 326.3,641.5 	"/>
	<polygon id="g-shp059" class="st3" points="368.7,600.4 350.7,617.9 398.9,666.1 411.7,653.2 411.7,643.4 	"/>
	<polygon id="g-shp063" class="st3" points="255.9,709.9 301.2,755.4 324.5,732.1 279.5,687 	"/>
	<polygon id="g-shp056b" class="st3" points="445.8,525.7 492.5,572.4 504.3,560.7 457.7,514.1 	"/>
	<polygon id="g-shp057b" class="st3" points="421.8,548.9 468.9,596 480.8,584.2 433.9,537.2 	"/>
	<polygon id="g-shp057a" class="st3" points="433.9,537.2 480.8,584.2 492.5,572.4 445.8,525.7 	"/>
	<polygon id="g-shp058" class="st3" points="402.6,567.6 444.7,609.7 455.2,609.7 468.9,596 421.8,548.9 	"/>
	<polygon id="g-shp060" class="st3" points="326.3,641.5 374.9,690.1 398.9,666.1 350.7,617.9 	"/>
	<polygon id="g-shp035b" class="st3" points="1189.6,501.8 1148,543.4 1148,550.5 1156.4,558.7 1201.4,513.5 	"/>
	<polygon id="g-shp035a" class="st3" points="1156.4,558.7 1167.8,569.8 1212.8,524.8 1201.4,513.5 	"/>
	<polygon id="g-shp037-038" class="st3" points="1118.6,431.1 1105,417.5 1058.8,463.6 1072.6,477.1 1096.8,500.6 1142.5,454.9 	"/>
	<g id="g-shp031-g-shp036">
		<polygon class="st3" points="1170.5,482.8 1142.5,454.9 1096.8,500.6 1120.2,523.4 1129.9,523.4 		"/>
	</g>
	<polygon id="g-shp033" class="st3" points="1236.1,548 1194.8,589.3 1219.5,614 1260.8,572.7 	"/>
	<polygon id="g-shp034" class="st3" points="1212.8,524.8 1167.8,569.8 1184.9,586.4 1191.9,586.4 1194.8,589.3 1236.1,548 	"/>
	<polygon id="g-shp043" class="st3" points="912.4,402.4 912.4,460.8 945.4,461 945.4,402.4 	"/>
	<polygon id="g-shp042b" class="st3" points="945.4,402.4 945.4,461 962.2,461.1 962.2,402.4 	"/>
	<polygon id="g-shp039" class="st3" points="1089.9,402.4 1045.2,402.4 1045.2,461.7 1056.9,461.7 1058.8,463.6 1105,417.5 	"/>
	<polygon id="g-shp040a" class="st3" points="1029.4,402.4 1029.4,461.6 1045.2,461.7 1045.2,402.4 	"/>
	<polygon id="g-shp040b" class="st3" points="1011.9,402.4 1011.9,461.4 1029.4,461.6 1029.4,402.4 	"/>
	<polygon id="g-shp041" class="st3" points="978.2,402.4 978.2,461.2 1011.9,461.4 1011.9,402.4 	"/>
	<polygon id="g-shp056a" class="st3" points="457.7,514.1 504.3,560.7 512.5,552.4 512.5,544.7 512.5,544.7 470,502.2 	"/>
	<polygon id="g-shp055a" class="st3" points="536,521.2 547,510.3 504.9,468.3 489.5,483.2 527.5,521.2 	"/>
	<polygon id="g-shp009" class="st3" points="582,567.8 582,567.8 574.9,567.8 555.6,587.1 585.2,616.8 592.5,609.5 608.8,625.7 
		624.3,610.1 592.6,578.4 	"/>
	<rect id="g-shp012b" x="702.7" y="525.6" class="st3" width="10.6" height="37"/>
	<path id="g-shp084" class="st3" d="M662.7,525.6c0,4.6,0,15.3,0,15.3H630l-37.4,37.4l31.7,31.7l23.1-23.2H680v-61.3L662.7,525.6
		L662.7,525.6z"/>
	<polygon id="g-shp007" class="st3" points="578.5,623.3 564,608.8 541.4,631.5 526.3,616.4 512,630.7 512,638.2 554.2,680.4 
		585,649.5 568.6,633.2 	"/>
	<polygon id="g-shp012a" class="st3" points="702.7,525.6 680,525.6 680,586.9 702.7,586.9 702.7,562.7 	"/>
	
		<rect id="g-shp008" x="529.1" y="601.9" transform="matrix(0.7071 -0.7071 0.7071 0.7071 -273.4648 564.8837)" class="st3" width="32" height="21.3"/>
	<polygon id="g-shp003a" class="st3" points="393.1,749.6 393.1,754.3 437,798.1 448.4,786.7 402.2,740.5 	"/>
	<polygon id="g-shp003b" class="st3" points="402.2,740.5 448.4,786.7 460,775 413.9,728.8 	"/>
	<polygon id="g-shp002" class="st3" points="393.1,754.4 369,778.5 412.9,822.3 437,798.1 393.1,754.3 	"/>
	<polygon id="g-shp004a" class="st3" points="413.9,728.8 460,775 470.6,764.3 424.5,718.2 	"/>
	<rect id="g-shp014a" x="761.9" y="525.6" class="st3" width="12" height="61.3"/>
	<polygon id="g-shp014b" class="st3" points="778.6,525.6 778.2,525.6 773.9,525.6 773.9,586.9 778.2,586.9 785.4,586.9 
		785.4,532.4 	"/>
	<polygon id="g-shp015" class="st3" points="804.4,551.4 785.4,532.4 785.4,586.9 804.4,586.9 	"/>
	<polygon id="g-shp010" class="st3" points="630,541 624,525.8 582,567.8 592.6,578.4 	"/>
	<polygon id="g-shp004b" class="st3" points="424.5,718.2 470.6,764.3 483.2,751.7 437.1,705.6 	"/>
	<path id="g-shp011" class="st3" d="M662.7,541c0,0,0-10.7,0-15.3h-38.5l-0.2,0.2l6,15.2h32.7V541z"/>
	<polygon id="g-shp024b" class="st3" points="1145.6,641 1112.2,651.8 1095.7,635.3 1078.2,652.8 1106.4,680.7 1145.6,641.4 	"/>
	<polygon id="g-shp021b" class="st3" points="1076.9,566.9 1054.3,544.3 1011.9,586.7 1011.8,586.9 1011.9,586.9 1034.8,609.6 
		1077.6,566.9 	"/>
	<polygon id="g-shp022a" class="st3" points="1093.9,575.4 1085.4,566.9 1077.6,566.9 1034.8,609.6 1049.8,624.5 1067.5,606.8 
		1065,604.3 	"/>
	<polygon id="g-shp027" class="st3" points="1246,727.2 1234.4,715.6 1226.5,715.6 1218.7,707.8 1176.3,750.2 1199.5,773.2 	"/>
	<polygon id="g-shp085" class="st3" points="1020.5,564.4 1009.6,564.4 995.5,564.4 995.5,525.6 979.1,525.6 979.1,586.9 
		1011.6,586.9 1011.9,586.7 	"/>
	<polygon id="g-shp018" class="st3" points="939.1,562 939.1,525.6 914,525.6 914,586.9 927.6,586.9 927.6,562 	"/>
	<polygon id="g-shp019" class="st3" points="944.7,525.6 944.7,562 957.6,562 957.6,586.9 979.1,586.9 979.1,525.6 	"/>
	<polygon id="g-shp020b" class="st3" points="1020.5,564.4 1035.5,525.6 1009.6,525.6 1009.6,564.4 	"/>
	<polygon id="g-shp021a" class="st3" points="1020.5,564.4 1020.5,564.4 1011.9,586.7 1054.3,544.3 1035.6,525.6 1035.5,525.6 	"/>
	<polygon id="g-shp022b" class="st3" points="1067.5,606.8 1076.3,615.6 1105.2,586.6 1093.9,575.4 1065,604.3 	"/>
	<rect id="g-shp020a" x="995.5" y="525.6" class="st3" width="14.1" height="38.8"/>
	<polygon id="g-shp070c" class="st3" points="880.9,209 880.9,178.7 865.9,178.7 865.9,201.5 873.3,209 	"/>
	<rect id="g-shp070b" x="865.9" y="150.4" class="st3" width="15" height="28.2"/>
	<polygon id="g-shp070a" class="st3" points="880.9,209 914.1,209 914.1,150.4 880.9,150.4 880.9,178.7 	"/>
	<polygon id="g-shp072" class="st3" points="880.9,249.4 852.6,249.4 852.8,275.7 880.9,275.7 	"/>
	<polygon id="g-shp073" class="st3" points="880.9,275.7 852.8,275.7 853,303.9 880.9,303.9 	"/>
	<polygon id="g-shp074" class="st3" points="880.9,303.9 853,303.9 853.2,333.9 880.9,333.9 	"/>
	<polygon id="g-shp075" class="st3" points="880.9,333.9 853.2,333.9 853.6,392.7 880.9,392.7 880.9,358.7 	"/>
	<polygon id="g-shp066" class="st3" points="778.9,249.4 806.6,249.4 806.6,226.9 800.9,221.2 778.9,221.2 	"/>
	<rect id="g-shp067" x="778.9" y="249.4" class="st3" width="27.8" height="26.3"/>
	<rect id="g-shp069a" x="778.9" y="303.9" class="st3" width="27.8" height="56.5"/>
	<rect id="g-shp068" x="778.9" y="275.7" class="st3" width="27.8" height="28.2"/>
	<path id="g-shp064" class="st3" d="M787.4,209.4l7-7c0.1-18.7,0.1-52,0-52s-6.9,0-15.5,0v59H787.4L787.4,209.4z"/>
	<rect id="g-shp087c" x="745.1" y="275.7" class="st3" width="33.8" height="28.2"/>
	<polygon id="g-shp069b" class="st3" points="806.6,360.4 778.9,360.4 763.1,360.4 763.1,373.2 806.6,373.2 	"/>
	<rect id="g-shp087a" x="745.1" y="221.2" class="st3" width="21.6" height="28.2"/>
	<rect id="g-shp066b" x="766.7" y="221.2" class="st3" width="12.1" height="28.2"/>
	<rect id="g-shp087b" x="745.1" y="249.4" class="st3" width="33.8" height="26.3"/>
	<polygon id="g-shp071" class="st3" points="865.9,221.4 863,221.4 858.6,221.4 852.5,227.5 852.6,249.4 880.9,249.4 880.9,221.4 	
		"/>
	<rect id="g-shp090" x="880.9" y="221.4" class="st3" width="33.2" height="28"/>
	<polygon id="g-shp082-a" class="st3" points="471.2,464.9 502.9,431.8 473.4,402.2 445.6,430 445.6,438.1 	"/>
	<polygon id="g-shp076-77b" class="st3" points="396.3,285.3 361.4,250.5 313.4,298.6 348.1,333.5 379.4,302.3 	"/>
	<polygon id="g-shp077a" class="st3" points="417.6,306.7 417.6,306.7 396.3,285.3 348.1,333.5 369.8,355.3 418.1,307.1 	"/>
	<polygon id="g-shp078-g-shp079" class="st3" points="453.4,342.6 418.1,307.1 369.8,355.3 405.1,390.9 	"/>
	<polygon id="g-shp080" class="st3" points="453.7,342.7 405.4,391.1 424.6,410.4 472.9,362 	"/>
	<polygon id="g-shp081" class="st3" points="482.3,371.3 472.9,362 424.6,410.4 433.9,419.7 	"/>
	<path id="g-kio038" class="st3" d="M1180.4,612.8c0,0-2.5-22.6-21.9-27.2c-0.4-5.8-3.6-16.3-21.5-13.7c0,0-0.5,8.7,5.8,13.8
		c-3.8,0.7-7.9,2-12.5,3.8c0,0,3.6,19.7,21.3,25.4c0.7,4.4,3.7,12.3,16.8,11c0,0,0.7-5.6-2.4-9.7
		C1170.3,615.8,1175.1,614.7,1180.4,612.8z"/>
	<g id="g-kio040-043">
		<path class="st3" d="M980,475c0,0,2.9,15.6,23.7,10.1C1003.8,485.1,1002.1,468.3,980,475z"/>
		<path class="st3" d="M984,513.1c0,0,20.2,13.4,31.7-12.4C1015.6,500.7,995.1,485,984,513.1z"/>
	</g>
	<path id="g-kio042" class="st3" d="M1020.6,510.2c0,0,9.3,10.2,19.2-2.4C1039.8,507.8,1030.7,496.2,1020.6,510.2z"/>
	<path id="g-kio041" class="st3" d="M1017.4,475.4c0,0,4.8,26.1,39.7,16.9C1057.1,492.4,1054.4,464.2,1017.4,475.4z"/>
	<polygon id="robinson" class="st3" points="254.2,711.4 475.7,496.5 296.4,318 94.5,518.4 174.9,598.7 159.5,614.7 	"/>
	<polygon id="central-department-store" class="st3" points="1223.4,796.9 1450.6,569.7 1643.1,761.4 1389.9,1014.4 1243.9,868.4 
		1248.7,863.5 1237.6,852.4 1244.1,845.9 1233.1,834.9 1239.5,828.5 1227.4,816.4 1235.2,808.4 	"/>
	<polygon id="g-shp029-030" class="st3" points="1333.8,639.3 1330.7,642.4 1308.2,619.9 1263.8,664.2 1274.9,675.4 1274.9,681.7 
		1307,713.9 1354.9,666.4 1357.9,663.4 	"/>
	<rect id="big-c" x="797.6" y="113.9" class="st3" width="64.5" height="87"/>
	<polygon id="sushi-express" class="st3" points="333.9,815.4 333.9,824.7 360.7,851.6 371.7,840.9 378.4,847.7 385.8,840.3 
		348.1,802.5 	"/>
	<path id="kfc" class="st3" d="M285.1,867.2l31.5-31.5h6.5l28.3,28.3l-7,7l2.8,2.8l-12.5,12.5l13.8,13.8
		C348.4,899.9,310.3,899.7,285.1,867.2z"/>
	<path id="r029-031" class="st3" d="M723.6,612.6h30.9v-25.7h49.9v37.8c0,0-19.5,7.2-28.2,23.8h-52.5v-35.9H723.6z"/>
	<path id="r009a" class="st3" d="M866.9,698c-5,3.2-11.2,5.9-18.5,7.1c0,0,1.5,6.2,3.8,14.1H867L866.9,698L866.9,698z"/>
	<path id="r009b" class="st3" d="M883.6,681.7c0,0-5.5,9.3-16.7,16.4v21.2l0,0l0,0h-14.8c3,10.6,7.5,24.1,11.5,29.4
		c0,0,22.9,8.7,50.4,9.2v-79.1C904.8,679,894.7,680,883.6,681.7z"/>
	<path id="r010" class="st3" d="M970.5,721.7l1.3,1.3l23.7-23.7c-1.1-1-24.5-22.5-81.6-20.6v79.1c10.9,0.2,22.6-0.9,33.9-4.4
		l5.8-5.8l-4.5-4.5L970.5,721.7z"/>
	<path id="r011a" class="st3" d="M999.5,703.3l-24.1,24.1l1.5,1.5l-17.6,17.6l6,6.2l-4.2,5.2c0,0,1.4,5.2,5.4,12.7l50.2-50.2
		L999.5,703.3z"/>
	<path id="r012" class="st3" d="M1031.3,734.8l-52.8,52.8c5,5.7,11.2,11.5,19.1,16.9l51.8-51.8L1031.3,734.8z"/>
	<path id="r013" class="st3" d="M1055.6,785.7c0,0-8.2-14-5.2-32l-0.9-0.9l-51.8,51.8c6.4,4.4,14,8.6,22.7,12.1L1055.6,785.7z"/>
	<path id="r011b" class="st3" d="M1016.8,720.3l-50.2,50.2c2.7,4.9,6.5,10.9,11.9,17.1l52.8-52.8L1016.8,720.3z"/>
	<path id="r014" class="st3" d="M1104.4,809.7c-21,0-31.6-4.9-31.6-4.9l-29.6,29.6c7.6,13.1,18,24.6,28.4,34.1l42.7-42.7
		C1108.2,816.4,1104.4,809.7,1104.4,809.7z"/>
	<path id="r016" class="st3" d="M1135,854.4l-35.6,35.6c5.5,3.6,9,5.6,9,5.6l8.4,8.4l15.9-15.9h1.5l16.8-16.8
		C1145.5,866.6,1140.1,860.7,1135,854.4z"/>
	<path id="r015" class="st3" d="M1114.2,825.7l-42.7,42.7c10.5,9.6,20.8,17,27.9,21.6l35.6-35.6
		C1127,844.7,1119.7,834.1,1114.2,825.7z"/>
	<path id="r017" class="st3" d="M1155.4,875.8l-16.8,16.8l1.3,1.3l-20.8,20.8l-3.9-3.9l-2.8,2.8c5.2,9.9,10.9,18.5,16.9,26L1176,893
		L1155.4,875.8z"/>
	<path id="r025" class="st3" d="M1065.9,674.4l-17.6-17.6l-24.9,24.1c6.8,5.6,13.2,11.5,18.9,17.1L1065.9,674.4z"/>
	<path id="r003-004" class="st3" d="M595.6,763.2v9l45.5,44.5c0,0,35.2-12.3,51.6-42.5L641.6,723
		C610.2,750.9,595.6,763.2,595.6,763.2z"/>
	<path id="r005" class="st3" d="M686.4,727.7L662.7,704c-7.7,7-14.7,13.3-21.1,18.9l51.1,51.1c2.9-5.3,5.2-11.1,6.6-17.5l-4-4.2
		l6-5.8l-16.7-16.7L686.4,727.7z"/>
	<path id="r008" class="st3" d="M813.9,705.2c0,0-20.5-3-34.8-23c0,0-9.4-2.7-23.6-4.1v79.7c13.3-0.3,28-2.4,41.6-8.3
		C797.1,749.4,811.4,727.4,813.9,705.2z"/>
	<path id="r007" class="st3" d="M705.7,681.3l23.3,62.6V756c7.2,1,16.4,1.9,26.5,1.7V678C742,676.7,724,676.6,705.7,681.3z"/>
	<path id="r001" class="st3" d="M517.4,827l-22.5,46.4c22.8,7.2,33.2,28.2,33.2,28.2c4.1-0.7,8-1.5,11.8-2.5l-4-70.3
		C525,830.2,517.4,827,517.4,827z"/>
	<path id="r002" class="st3" d="M616.5,843.5l-5.9-5.9l-2.1,2.1l-19.1-19.1l9.1-9.1L585,798.1h-6.6C564,820.6,548,827.5,536,828.9
		l4,70.3C594.3,885.4,616.5,843.5,616.5,843.5z"/>
	<path id="r037" class="st3" d="M591.4,680.4l-18.6-18.6l-18.5,18.6l38.4,39c4.1-6.1,8.8-11.6,13.8-16.6l-18.7-18.7L591.4,680.4z"/>
	<path id="r036b" class="st3" d="M591.4,680.4l-3.7,3.7l18.7,18.7c4.9-4.9,10-9.4,15.1-13.3l-19.6-19.6L591.4,680.4z"/>
	<path id="r036a" class="st3" d="M615.4,656.4l-13.5,13.5l19.6,19.6c5.5-4.2,10.9-7.9,15.9-11L615.4,656.4z"/>
	<path id="r035" class="st3" d="M664.2,664.9l-37.5-37.5l-14.6,14.8l2.8,2.8l-5.5,5.5l6,6l22.1,22.1
		C652.4,669.3,664.2,664.9,664.2,664.9z"/>
	<path id="r034" class="st3" d="M682.1,617.7h-20.6l-16.3,16.2l27.5,26.7c3.8-1.9,9-3.8,14.5-5.4l-5.1-14.2L682.1,617.7L682.1,617.7
		z"/>
	<path id="r033" class="st3" d="M700.7,617.7h-18.6V641l5.1,14.2c5.1-1.5,10.4-2.8,15.1-3.9l-1.6-11.5V617.7z"/>
	<path id="r032" class="st3" d="M716,617.7h-15.3v22.1l1.6,11.5c7.8-1.8,13.7-2.9,13.7-2.9V617.7z"/>
	<rect x="1222.4" y="666.9" class="st4" width="14.8" height="14.8"/>
	<g id="g-shp001-g-kio035">
		<polygon class="st3" points="346.6,800.9 390.4,844.9 412.9,822.3 369,778.5 		"/>
		
			<rect x="347.1" y="731" transform="matrix(0.6986 -0.7155 0.7155 0.6986 -423.6097 481.4583)" class="st3" width="25.2" height="25.2"/>
	</g>
	<path id="g-kio044" class="st3" d="M682.1,496.9c-1-5.9-8.8-4.1-8.8-4.1s1.8-13.8-5.2-18.6s-20.1,0-20.1,0s0,0,0,0.1
		c0.5,0,1-0.1,1.5-0.1c10.3,0,18.6,8.3,18.6,18.6c0,6.3-3.1,11.8-7.9,15.2l0,0C666.1,515.5,683.1,502.8,682.1,496.9z"/>
	<polygon id="g-shp082-b" class="st3" points="502.9,431.8 522.7,451.1 489.5,483.2 471.2,464.9 	"/>
	<polygon id="g-shp044-g-shp045" class="st3" points="879,460.6 912.4,460.8 912.4,414.9 853.6,414.9 853.6,439.2 	"/>
	<polygon id="g-shp042A" class="st3" points="962.2,402.4 962.2,461.1 978.2,461.2 978.2,402.4 	"/>
	<polygon id="g-shp032" class="st3" points="1260.8,572.7 1219.5,614 1223.2,617.7 1223.2,623.7 1239.3,639.7 1283.6,595.4 	"/>
	<polygon id="g-shp024a" class="st3" points="1112.2,651.8 1145.6,641 1145.6,627.1 1124.8,606.2 1095.7,635.3 	"/>
	<polygon id="g-shp023b" class="st3" points="1070.9,645.6 1117.3,598.8 1124.8,606.2 1078.2,652.8 	"/>
	<polygon id="g-shp023a" class="st3" points="1087.9,628.6 1117.3,598.8 1109.5,591 1079.9,620.6 	"/>
	<path id="g-shp016-017-027-028" class="st3" d="M852.5,623.4v-72.7l26.6-25H914V587h-16v8.6h7.7l0.5,16.5h34.5l0.5,12.6l39.5,1.5
		v-5.7l32.5,0.2l7.4,8.4L990,659.7c-28.3-20.7-64.6-26.9-109.2-18C871.4,631.9,862.2,625.5,852.5,623.4z"/>
	<path id="onitsuka-tiger" class="st3" d="M1114.1,765.9c0,0,8.2,13.8,0.2,18.8s-15,6.8-15,6.8l-15.2,0.9c0,0-13.8,0.9-15-13.2
		S1114.1,765.9,1114.1,765.9z"/>
	<path id="r026" class="st3" d="M1047.6,656.1l5.3-5.3l-5.7-5.3l2.8-3.1l-15.8-14.8l-36,36c8.5,4.5,17.2,10.7,25.3,17.4l24.9-24.1
		L1047.6,656.1z"/>
	<path id="r024" class="st3" d="M1088.4,662.9l-17.9,16.1l-4.6-4.6l-23.6,23.6c13.3,13.1,22.5,24.2,22.5,24.2l41.5-41.5
		L1088.4,662.9z"/>
	<path id="r022a" class="st3" d="M1201.2,774.9l-12.3-12.2l-34.4,34.4c5.9,3.3,11.5,6.7,14.9,9.6L1201.2,774.9z"/>
	<path id="r023" class="st3" d="M1153.2,727.2l-9.3,9.2l-1.2-1.2l-22,22.6c0,0,9.4,9,9.5,25.1l39.5-39.5L1153.2,727.2z"/>
	<path id="r038" class="st3" d="M497.6,802.5l-35-30.1l-72.2,72.5l3.4,4.1l-17.4,17.4c14.8,29.4,47.2,16.6,48.2,14.5
		c1.2-2.7,37.9-17.3,35.5-13.1C460,867.8,497.6,802.5,497.6,802.5z"/>
	<path id="chabuton" class="st3" d="M483.2,751.7l-20.6,20.7l35,30.1c-2.8-12.6,3-20.3,8.4-30.1L483.2,751.7z"/>
	
		<rect id="godiva" x="525.6" y="695" transform="matrix(0.7071 -0.7071 0.7071 0.7071 -343.8279 584.5425)" class="st3" width="16.2" height="24.7"/>
	<rect id="g-shp013a" x="721.6" y="525.7" class="st3" width="11.4" height="37.1"/>
	<rect id="g-shp013b" x="733" y="525.6" class="st3" width="28.9" height="61.3"/>
</g>
<g id="Signs">
	<rect id="bus-stop" x="163" y="323.2" class="st5" width="14.8" height="14.8"/>
	<rect id="van-station" x="192.2" y="810.9" class="st5" width="14.8" height="14.8"/>
	<g id="taxi">
		<rect x="259" y="228.7" class="st5" width="14.8" height="14.8"/>
		<rect x="133.5" y="754.7" class="st5" width="14.8" height="14.8"/>
		<rect x="1283" y="1016.7" class="st5" width="14.8" height="14.8"/>
	</g>
	<g id="parking">
		<rect x="639.8" y="282.5" class="st5" width="14.8" height="14.8"/>
		<rect x="1004.7" y="282.5" class="st5" width="14.8" height="14.8"/>
		<rect x="1547.7" y="924" class="st5" width="14.8" height="14.8"/>
	</g>
	<g id="elevator">
		<rect x="456.3" y="479.5" class="st5" width="14.8" height="14.8"/>
		<rect x="794.5" y="376.6" class="st5" width="14.8" height="14.8"/>
		<rect x="1198.6" y="486.9" class="st5" width="14.8" height="14.8"/>
		<rect x="998.6" y="593.9" class="st5" width="14.8" height="14.8"/>
		<rect x="647.2" y="593.9" class="st5" width="14.8" height="14.8"/>
	</g>
	<g id="atm">
		<rect x="800.4" y="153.9" class="st5" width="14.8" height="14.8"/>
		<rect x="314" y="327.2" class="st5" width="14.8" height="14.8"/>
		<rect x="1173" y="464" class="st5" width="14.8" height="14.8"/>
	</g>
	<g id="telephone">
		<rect x="475.7" y="394.8" class="st5" width="14.8" height="14.8"/>
		<rect x="1117.5" y="426.5" class="st5" width="14.8" height="14.8"/>
		<rect x="875.9" y="339" class="st5" width="14.8" height="14.8"/>
	</g>
	<g id="stairs">
		<rect x="518.8" y="572.5" class="st5" width="14.8" height="14.8"/>
		<rect x="1124.9" y="572.5" class="st5" width="14.8" height="14.8"/>
	</g>
	<rect id="information" x="554.9" y="723.4" class="st5" width="14.8" height="14.8"/>
	<g id="entrance">
		<rect x="286.7" y="289.9" class="st5" width="14.8" height="14.8"/>
		<rect x="66.7" y="623.7" class="st5" width="14.8" height="14.8"/>
		<rect x="250" y="842.4" class="st5" width="14.8" height="14.8"/>
		<rect x="822.9" y="747.3" class="st5" width="14.8" height="14.8"/>
		<rect x="623.6" y="825.7" class="st5" width="14.8" height="14.8"/>
		<rect x="1016.2" y="825.7" class="st5" width="14.8" height="14.8"/>
		<rect x="1268.2" y="976.1" class="st5" width="14.8" height="14.8"/>
		<rect x="472.1" y="858.4" class="st5" width="14.8" height="14.8"/>
	</g>
	<rect id="baby-change-room" x="982.4" y="593.9" class="st5" width="14.8" height="14.8"/>
	<g id="fire-exit">
		<rect x="710.6" y="568.9" class="st5" width="14.8" height="14.8"/>
		<rect x="587" y="623.7" class="st5" width="14.8" height="14.8"/>
		<rect x="479.5" y="739.9" class="st5" width="14.8" height="14.8"/>
		<rect x="934.9" y="568.9" class="st5" width="14.8" height="14.8"/>
		<rect x="1060.5" y="623.7" class="st5" width="14.8" height="14.8"/>
		<rect x="1168" y="735.2" class="st5" width="14.8" height="14.8"/>
	</g>
	<g id="escalator">
		<rect x="1063.5" y="780.5" class="st5" width="14.8" height="14.8"/>
		<rect x="575.2" y="531.6" class="st5" width="14.8" height="14.8"/>
		<rect x="797.3" y="531.6" class="st5" width="14.8" height="14.8"/>
		<rect x="846.8" y="531.6" class="st5" width="14.8" height="14.8"/>
		<rect x="1067.9" y="531.6" class="st5" width="14.8" height="14.8"/>
		<rect x="1223.8" y="667.6" class="st5" width="14.8" height="14.8"/>
		<rect x="533.1" y="787.9" class="st5" width="14.8" height="14.8"/>
		<rect x="824.1" y="667.6" class="st5" width="14.8" height="14.8"/>
		<rect x="374.8" y="716" class="st5" width="14.8" height="14.8"/>
		<rect x="822.9" y="402.2" class="st5" width="14.8" height="14.8"/>
		<rect x="915.6" y="651.7" class="st5" width="14.8" height="14.8"/>
	</g>
	<g id="handicapped-toilet">
		<rect x="491.8" y="394.8" class="st5" width="14.8" height="14.8"/>
		<rect x="1134.9" y="426.5" class="st5" width="14.8" height="14.8"/>
		<rect x="892.6" y="339" class="st5" width="14.8" height="14.8"/>
		<rect x="966" y="593.9" class="st5" width="14.8" height="14.8"/>
		<rect x="663.6" y="593.9" class="st5" width="14.8" height="14.8"/>
	</g>
	<g id="toilet">
		<rect x="507.9" y="394.8" class="st5" width="14.8" height="14.8"/>
		<rect x="1153.5" y="426.5" class="st5" width="14.8" height="14.8"/>
		<rect x="909.3" y="339" class="st5" width="14.8" height="14.8"/>
		<rect x="680" y="593.9" class="st5" width="14.8" height="14.8"/>
		<rect x="949.7" y="593.9" class="st5" width="14.8" height="14.8"/>
	</g>
</g>
</svg>
