<?xml version="1.0" encoding="utf-8"?>
<!-- Generator: Adobe Illustrator 16.0.0, SVG Export Plug-In . SVG Version: 6.00 Build 0)  -->
<!DOCTYPE svg PUBLIC "-//W3C//DTD SVG 1.1//EN" "http://www.w3.org/Graphics/SVG/1.1/DTD/svg11.dtd">
<svg version="1.1" id="Layer_1" xmlns="http://www.w3.org/2000/svg" xmlns:xlink="http://www.w3.org/1999/xlink" x="0px" y="0px"
	 width="1000px" height="1000px" viewBox="0 0 1000 1000" enable-background="new 0 0 1000 1000" xml:space="preserve">
<g id="Background">
	<rect y="146.455" fill="#FFFFFF" width="1000" height="707.091"/>
</g>
<g id="Original" display="none">
</g>
<g id="ETC">
	<polygon fill="#DEDEDE" stroke="#494949" stroke-width="0.5" stroke-miterlimit="10" points="181.732,437.226 245.397,406.699 
		275.33,382.884 327.89,338.46 446.55,289.405 469.474,284.357 490.557,271.885 537.355,271.885 546.146,284.357 550.065,289.108 
		620.086,328.721 689.334,378.014 854.317,475.65 861.741,484.915 796.234,720.691 698.361,669.021 573.168,593.598 
		565.031,585.759 511.047,561.053 482.48,563.844 434.553,578.513 416.974,587.659 341.133,638.378 215.465,659.817 
		155.719,620.026 89.203,519.658 150.493,458.368 	"/>
	<path fill="#DEDEDE" stroke="#494949" stroke-width="0.5" stroke-miterlimit="10" d="M743.912,677.812l4.455-4.455l-38.544-38.543
		l14.135-14.136l-12.769-12.769l-13.779,13.777c-5.819-5.582-24.35-13.838-24.35-13.838c0.416-7.84-4.93-14.67-4.93-14.67
		l14.194-14.192l-12.888-12.889l-14.136,14.136c-5.643-5.939-16.034-4.931-16.034-4.931c-10.987-21.796-41.157-41.395-41.157-41.395
		l15.024-15.025l9.324,9.324l-1.544,1.544l2.97,2.97l-3.089,3.088l14.135,14.136l8.019-8.019l7.84,7.84l1.069-1.068l-52.146-52.145
		H537v12.77h19.123v2.02v2.375v12.65c-18.768-1.663-33.555,1.604-33.555,1.604c-8.314-9.62-17.104-10.986-17.104-10.986v-20.608
		h-26.547v20.489c-8.196,2.257-17.045,11.105-17.045,11.105c-12.591-1.96-23.696-2.079-33.08-1.307V513.54v-3.979h18.529v-13.185
		h-62.537l-44.066,44.958l9.026,9.027l14.135-14.136l-3.562-3.562l3.682-3.682l2.197,2.196l3.146-3.146l9.027,9.025
		c-36.346,23.757-53.569,52.562-53.569,52.562c-13.064-1.069-23.637,7.779-23.637,7.779l-4.811-4.812l3.326-3.325l-2.97-2.97
		l-29.398,29.933c3.682,3.563,13.957,13.481,17.104,16.272c3.86,3.444,15.738,10.809,26.013,11.165
		c10.275,0.355,23.459,0.297,36.821-19.123l5.346,5.345l-3.92,3.92l2.316,2.316l-2.673,2.672l6.592,6.593l2.731-2.731l2.673,2.673
		c0.06-0.061,0.06-0.119,0.118-0.18l4.87-4.868l1.781,1.899l11.581-11.581l-2.257-2.257L356.81,610.7
		c0,0,22.746-15.738,38.307-36.348l7.602,7.603l2.792-2.672l5.346,5.345l-3.268,3.147l4.514,4.633l4.812-4.812l5.286,5.285
		c0,0,25.121,7.483,51.253-2.138c0,0,1.663-3.326,3.504-8.077c-21.678,8.671-22.093-5.938-19.599-13.422
		c2.673-7.898,9.146-8.019,13.955-5.228c3.029,1.782,6.949,4.812,9.385,6.711c0.416-1.959,0.771-3.919,0.949-5.818
		c0,0,12.473,3.682,21.679,0c0,0,1.899,13.243,3.444,17.281l0,0c1.127,2.97,2.673,5.938,4.75,8.434c0,0,27.022,11.581,50.601,3.089
		l5.583-5.583l4.275,4.276l4.633-4.634l-2.673-2.672l14.609-14.609c2.852,5.464,28.923,29.812,28.923,29.812
		c0.595,8.196,5.227,14.075,5.227,14.075l2.495-2.494c8.491,17.104,25.655,14.849,25.655,14.849
		c0.118,28.328,16.392,46.383,16.392,46.383l-6.059,6.058l-3.267-3.266l-1.365,1.364l7.603,7.604l2.257,2.257l7.245-7.246
		c0,0,22.567,22.568,35.989,35.99c13.423,13.422,26.488,3.504,32.725-2.436C748.604,707.507,760.72,691.591,743.912,677.812z
		 M394.643,535.1l-12.59-12.294l9.979-9.323h31.892v13.601C405.215,529.396,394.643,535.1,394.643,535.1z M599.181,513.719
		l5.762,5.167L589.381,535.1L599.181,513.719z"/>
	
		<ellipse fill="#DEDEDE" stroke="#494949" stroke-width="0.5" stroke-miterlimit="10" cx="493.586" cy="542.523" rx="24.35" ry="16.51"/>
	<polygon fill="#DEDEDE" stroke="#494949" stroke-width="0.5" stroke-miterlimit="10" points="314.17,479.095 333.709,459.556 
		333.709,451.835 350.517,435.028 362.751,447.262 357.821,452.191 357.821,459.14 343.568,473.394 337.095,473.394 
		322.841,487.646 	"/>
	<polygon fill="#DEDEDE" stroke="#494949" stroke-width="0.5" stroke-miterlimit="10" points="659.698,466.029 652.215,458.605 
		652.215,451.479 635.408,434.612 622.521,447.5 626.915,451.479 626.915,458.843 643.01,474.938 648.593,474.938 649.661,476.007 
		662.252,488.598 672.229,478.62 	"/>
	
		<rect x="505.006" y="525.326" transform="matrix(0.9234 -0.3838 0.3838 0.9234 -168.2264 236.025)" fill="#DEDEDE" stroke="#494949" stroke-width="0.5" stroke-miterlimit="10" width="4.692" height="28.506"/>
	
		<rect x="466.757" y="537.425" transform="matrix(0.3742 -0.9273 0.9273 0.3742 -199.5173 783.8204)" fill="#DEDEDE" stroke="#494949" stroke-width="0.5" stroke-miterlimit="10" width="28.505" height="4.632"/>
	<path fill="#DEDEDE" stroke="#494949" stroke-width="0.5" stroke-miterlimit="10" d="M54.401,478.264l26.428,26.429l1.485-1.484
		l149.364,149.364l1.782-1.781l18.292,18.292c0,0-44.423,33.555-84.333-7.424C127.509,620.68,45.433,539.612,45.433,539.612
		l8.077-8.076C53.51,531.536,29.042,508.255,54.401,478.264z"/>
	<path fill="#DEDEDE" stroke="#494949" stroke-width="0.5" stroke-miterlimit="10" d="M531.357,539.731
		c1.246,6.116,2.554,5.048,9.918,4.869c7.363-0.178,26.369,2.078,32.069,4.454c5.644,2.376,8.554,3.147,7.841-4.156
		c-0.714-7.305-1.308-5.881-7.188-7.78c-5.879-1.9-25.894-5.701-36.286-4.099C529.812,534.268,530.051,533.438,531.357,539.731z"/>
	<path fill="#DEDEDE" stroke="#494949" stroke-width="0.5" stroke-miterlimit="10" d="M593.301,551.49
		c-1.128,3.562-2.257,6.117,1.366,10.037c3.682,3.979,20.964,22.39,23.756,25.716c2.791,3.385,4.335,0.891,6.117-1.9
		c1.781-2.851,5.048-4.811-0.772-11.462c-5.761-6.652-22.39-22.925-24.766-24.706C596.686,547.393,594.785,546.799,593.301,551.49z"
		/>
	<path fill="#DEDEDE" stroke="#494949" stroke-width="0.5" stroke-miterlimit="10" d="M452.132,540.325
		c-1.307,6.296-2.73,5.167-10.512,4.989c-7.78-0.18-27.974,2.138-33.971,4.571c-5.998,2.437-9.027,3.268-8.314-4.274
		c0.713-7.483,1.366-5.998,7.603-7.958c6.235-1.96,27.438-5.82,38.425-4.157C453.795,534.743,453.498,533.852,452.132,540.325z"/>
	<path fill="#DEDEDE" stroke="#494949" stroke-width="0.5" stroke-miterlimit="10" d="M337.688,590.034
		c2.731-2.969,33.733-33.972,37.713-36.524c4.039-2.554,5.285-1.663,5.88,3.563c0.652,5.227,0.891,6.177,1.307,8.61
		c0.476,2.376,2.316,4.812-2.73,9.918c-5.05,5.107-23.281,21.618-25.896,24.054c-2.613,2.436-5.464,1.544-7.898,0.476
		s-5.88-2.436-7.602-3.089C336.738,596.448,333.531,594.607,337.688,590.034z"/>
	<path fill="#DEDEDE" stroke="#494949" stroke-width="0.5" stroke-miterlimit="10" d="M655.066,594.607
		c-6.414-7.364-16.035-9.562-21.737-5.049l3.683,4.751l-7.779,5.465c0.236,4.156,2.078,8.671,5.403,12.53
		c1.604,1.9,3.444,3.444,5.404,4.573l7.958-4.989l4.93,7.245c1.366-0.415,2.613-1.128,3.742-2.078
		C662.371,612.188,661.658,602.149,655.066,594.607z"/>
	<path fill="#DEDEDE" stroke="#494949" stroke-width="0.5" stroke-miterlimit="10" d="M331.097,611.83l-2.851-7.898
		c-4.396-1.307-9.979-0.713-15.146,2.021c-1.604,0.831-3.089,1.841-4.336,2.969l2.437,9.562l-8.909,3.443
		c0.06,1.544,0.476,3.088,1.188,4.454c3.504,6.592,13.48,8.137,22.271,3.504c8.553-4.514,12.888-13.304,9.918-19.836L331.097,611.83
		z"/>
	
		<rect x="472.739" y="434.689" transform="matrix(0.9112 -0.4121 0.4121 0.9112 -141.9429 235.1651)" fill="#DEDEDE" stroke="#494949" stroke-width="0.5" stroke-miterlimit="10" width="3.266" height="24.113"/>
	
		<rect x="500.495" y="444.583" transform="matrix(0.3629 -0.9318 0.9318 0.3629 -89.2712 761.8621)" fill="#DEDEDE" stroke="#494949" stroke-width="0.5" stroke-miterlimit="10" width="24.052" height="3.266"/>
	<path fill="#DEDEDE" stroke="#494949" stroke-width="0.5" stroke-miterlimit="10" d="M502.613,413.351
		c-0.594-4.691-4.573-8.314-9.385-8.314c-4.987,0-9.026,3.86-9.441,8.73c0,0.237-0.061,0.534-0.061,0.772
		c0,2.257,0.831,4.395,2.139,5.999c0.236,0.237,0.416,0.534,0.652,0.771c0,0,0.061,0.061,0.119,0.061
		c0.179,0.179,0.415,0.355,0.653,0.534c0.059,0.06,0.178,0.119,0.237,0.179c0.178,0.119,0.355,0.297,0.533,0.416
		c0.119,0.059,0.18,0.118,0.298,0.178c0.179,0.119,0.355,0.237,0.534,0.297c0.118,0.061,0.237,0.119,0.355,0.18
		c0.179,0.059,0.355,0.178,0.595,0.236c0.118,0.061,0.237,0.118,0.356,0.118c0.178,0.061,0.415,0.119,0.594,0.179
		c0.118,0.061,0.237,0.061,0.356,0.119c0.236,0.06,0.475,0.06,0.652,0.118c0.118,0,0.237,0.061,0.297,0.061
		c0.355,0.06,0.712,0.06,1.01,0.06c0.355,0,0.713,0,1.068-0.06c0.119,0,0.179-0.061,0.297-0.061c0.237-0.06,0.477-0.06,0.714-0.118
		c0.118,0,0.236-0.06,0.355-0.06c0.237-0.061,0.475-0.119,0.713-0.238c0.118-0.059,0.178-0.059,0.297-0.118
		c0.237-0.119,0.476-0.179,0.712-0.297c0.061,0,0.119-0.06,0.18-0.06c1.247-0.653,2.376-1.544,3.207-2.672
		c1.247-1.604,1.96-3.623,1.96-5.761C502.673,414.123,502.613,413.707,502.613,413.351z"/>
	<path fill="#DEDEDE" stroke="#494949" stroke-width="0.5" stroke-miterlimit="10" d="M466.92,423.981c0,0,25.24-16.096,51.491,0
		l-15.738,39.969h-18.114L466.92,423.981z"/>
	<path fill="#DEDEDE" stroke="#494949" stroke-width="0.5" stroke-miterlimit="10" d="M805.855,426.892l-9.621,9.027l-5.938-5.88
		c3.563-3.623,5.701-8.611,5.701-14.075c0-11.165-9.027-20.192-20.192-20.192c-5.522,0-10.452,2.197-14.135,5.761l-13.719-13.719
		c3.385-3.623,5.464-8.434,5.464-13.778c0-11.166-9.027-20.192-20.192-20.192c-5.346,0-10.215,2.078-13.838,5.463l-12.233-12.175
		c3.622-3.623,5.88-8.671,5.88-14.194c0-11.165-9.027-20.192-20.192-20.192c-5.583,0-10.631,2.257-14.254,5.879l-7.482-7.424
		l9.384-8.493l-34.269-32.842H339.292l-8.374,8.374c-3.623-3.326-8.374-5.345-13.659-5.345c-11.165,0-20.192,9.027-20.192,20.192
		c0,5.286,2.019,10.037,5.345,13.66l-3.268,3.267c-3.562-3.207-8.313-5.167-13.48-5.167c-11.166,0-20.192,9.027-20.192,20.192
		c0,5.167,1.959,9.918,5.167,13.481l-62.774,62.537l46.442,46.324l80.294-79.998l318.685,0.95l161.955,161.361l46.562-46.562
		L805.855,426.892z"/>
	
		<rect x="625.539" y="450.244" transform="matrix(1 -0.0042 0.0042 1 -1.8857 2.6778)" fill="#DEDEDE" stroke="#494949" stroke-width="0.5" stroke-miterlimit="10" width="28.508" height="4.632"/>
	
		<rect x="625.011" y="454.869" transform="matrix(1 -0.0046 0.0046 1 -2.1076 2.9613)" fill="#DEDEDE" stroke="#494949" stroke-width="0.5" stroke-miterlimit="10" width="28.507" height="4.692"/>
	
		<rect x="716.354" y="517.166" transform="matrix(0.704 -0.7102 0.7102 0.704 -164.696 667.6455)" fill="#DEDEDE" stroke="#494949" stroke-width="0.5" stroke-miterlimit="10" width="4.633" height="28.506"/>
	
		<rect x="712.701" y="520.154" transform="matrix(0.7041 -0.7101 0.7101 0.7041 -167.9177 665.8043)" fill="#DEDEDE" stroke="#494949" stroke-width="0.5" stroke-miterlimit="10" width="4.632" height="28.506"/>
	
		<rect x="332.1" y="451.065" transform="matrix(1 -0.0045 0.0045 1 -2.0466 1.5708)" fill="#DEDEDE" stroke="#494949" stroke-width="0.5" stroke-miterlimit="10" width="28.507" height="4.633"/>
	
		<rect x="331.565" y="455.697" transform="matrix(1 -0.0045 0.0045 1 -2.0675 1.5685)" fill="#DEDEDE" stroke="#494949" stroke-width="0.5" stroke-miterlimit="10" width="28.507" height="4.633"/>
	<polygon fill="#DEDEDE" stroke="#494949" stroke-width="0.5" stroke-miterlimit="10" points="369.343,429.089 369.343,445.896 
		375.163,445.896 379.855,450.647 403.076,450.647 404.146,449.519 399.988,445.361 409.669,435.622 409.669,429.089 	"/>
	
		<rect x="531.833" y="432.177" fill="#DEDEDE" stroke="#494949" stroke-width="0.5" stroke-miterlimit="10" width="11.104" height="16.214"/>
	
		<rect x="542.938" y="432.177" fill="#DEDEDE" stroke="#494949" stroke-width="0.5" stroke-miterlimit="10" width="10.513" height="16.214"/>
	<polygon fill="#DEDEDE" stroke="#494949" stroke-width="0.5" stroke-miterlimit="10" points="579.047,428.02 579.047,436.334 
		589.144,446.431 584.57,451.004 585.58,452.014 607.376,452.014 612.721,446.608 616.106,446.608 616.106,428.02 	"/>
	<polygon fill="#DEDEDE" stroke="#494949" stroke-width="0.5" stroke-miterlimit="10" points="671.517,499.822 683.573,487.766 
		705.428,509.621 693.432,521.618 	"/>
	<polygon fill="#DEDEDE" stroke="#494949" stroke-width="0.5" stroke-miterlimit="10" points="700.499,530.348 714.455,516.392 
		733.282,535.218 719.504,548.996 	"/>
	<path fill="#DEDEDE" stroke="#494949" stroke-width="0.5" stroke-miterlimit="10" d="M626.975,406.461h-18.647v13.957h18.647
		c3.86,0,7.009-3.147,7.009-7.008C633.983,409.549,630.835,406.461,626.975,406.461z"/>
	
		<rect x="337.396" y="490.754" transform="matrix(0.7071 -0.7071 0.7071 0.7071 -255.3561 387.8878)" fill="#DEDEDE" stroke="#494949" stroke-width="0.5" stroke-miterlimit="10" width="6.295" height="22.864"/>
	<path fill="#DEDEDE" stroke="#494949" stroke-width="0.5" stroke-miterlimit="10" d="M537,509.324v-12.947h-31.596v20.608
		c0,0,8.79,1.365,17.104,10.986c0,0,7.542-1.663,18.708-2.02v-16.629L537,509.324L537,509.324z"/>
	<path fill="#DEDEDE" stroke="#494949" stroke-width="0.5" stroke-miterlimit="10" d="M570.377,513.719l0.178,14.849l7.958,2.196
		c1.129,0.356,2.257,0.772,3.387,1.188V513.72L570.377,513.719L570.377,513.719z"/>
	<path fill="#DEDEDE" stroke="#494949" stroke-width="0.5" stroke-miterlimit="10" d="M709.526,715.881
		c-3.563-3.562-7.841-7.84-12.116-12.115l-14.253,14.253c10.273,8.019,24.29,15.025,42.938,16.809l1.544-12.71
		C722.176,723.364,715.881,722.235,709.526,715.881z"/>
	<path fill="#DEDEDE" stroke="#494949" stroke-width="0.5" stroke-miterlimit="10" d="M766.303,691.234l-17.936-17.937l-4.455,4.454
		c7.662,6.295,9.266,13.065,8.196,19.123l4.275,4.276L766.303,691.234z"/>
	<path fill="#DEDEDE" stroke="#494949" stroke-width="0.5" stroke-miterlimit="10" d="M766.303,691.234l-9.918,9.918l-4.275-4.276
		c-0.237,1.188-0.534,2.316-0.892,3.386l11.699,11.699l2.376-2.375l4.454,4.454l-7.603,7.602c2.197,0.061,4.454,0.356,6.711,0.831
		c23.161,4.87,17.343,5.049,27.2-1.483L766.303,691.234z"/>
	<path fill="#DEDEDE" stroke="#494949" stroke-width="0.5" stroke-miterlimit="10" d="M765.293,709.645l-2.376,2.377l-11.699-11.7
		c-2.02,5.702-6.058,10.453-8.909,13.125c-3.266,3.147-8.433,7.364-14.608,8.729l-1.544,12.71c0.475,0.06,0.95,0.118,1.425,0.118
		c0,0,14.67-14.075,34.565-13.303l7.602-7.604L765.293,709.645z"/>
	<path fill="#DEDEDE" stroke="#494949" stroke-width="0.5" stroke-miterlimit="10" d="M625.193,611.89l-1.663,1.663l-0.772,0.771
		c0,0,0,0-0.06-0.06l-3.563,3.147l11.403,11.641l5.106-5.819C631.845,621.154,628.044,617.591,625.193,611.89z"/>
	<polygon fill="#DEDEDE" stroke="#494949" stroke-width="0.5" stroke-miterlimit="10" points="607.495,627.925 605.476,629.885 
		618.304,642.771 620.323,640.753 630.538,629.172 619.135,617.532 	"/>
	<path fill="#DEDEDE" stroke="#494949" stroke-width="0.5" stroke-miterlimit="10" d="M360.316,645.267l-2.674-2.673l-2.731,2.732
		l-6.592-6.593l2.673-2.673l-2.316-2.315l3.92-3.92l-5.346-5.345c-3.92,5.7-7.779,9.681-11.581,12.53l13.778,21.202
		C353.011,654.65,356.693,650.374,360.316,645.267z"/>
	<path fill="#DEDEDE" stroke="#494949" stroke-width="0.5" stroke-miterlimit="10" d="M296.71,586.233l2.97,2.97l-3.326,3.325
		l4.811,4.811c0,0,10.571-8.849,23.637-7.779c0,0,2.079-3.504,6.296-9.026l-14.551-14.551L296.71,586.233z"/>
	<path fill="#DEDEDE" stroke="#494949" stroke-width="0.5" stroke-miterlimit="10" d="M406.818,513.541v17.045
		c4.514-1.307,10.272-2.554,17.104-3.386V513.6L406.818,513.541L406.818,513.541z"/>
	<path fill="#DEDEDE" stroke="#494949" stroke-width="0.5" stroke-miterlimit="10" d="M447.321,496.377v13.186h-4.038v16.688
		c5.761,0.179,11.996,0.713,18.589,1.723c0,0,0.297-0.297,0.772-0.771v-30.823L447.321,496.377L447.321,496.377z"/>
	<polygon fill="#DEDEDE" stroke="#494949" stroke-width="0.5" stroke-miterlimit="10" points="579.047,436.334 579.047,429.268 
		561.587,429.268 561.587,440.848 583.62,440.848 	"/>
	<polygon fill="#DEDEDE" stroke="#494949" stroke-width="0.5" stroke-miterlimit="10" points="561.587,440.848 561.587,450.113 
		585.461,450.113 589.144,446.431 583.62,440.848 	"/>
	<polygon fill="#DEDEDE" stroke="#494949" stroke-width="0.5" stroke-miterlimit="10" points="728.828,555.589 740.35,544.067 
		761.017,564.734 749.614,576.138 	"/>
	<path fill="#DEDEDE" stroke="#494949" stroke-width="0.5" stroke-miterlimit="10" d="M603.635,406.461
		c-3.859,0-7.008,3.148-7.008,7.008c0,3.86,3.147,7.008,7.008,7.008h4.633V406.52h-4.633V406.461z"/>
	<polygon fill="#DEDEDE" stroke="#494949" stroke-width="0.5" stroke-miterlimit="10" points="693.609,416.974 693.609,416.974 
		697.886,412.697 679.178,394.108 670.15,403.136 688.799,421.784 	"/>
	<polygon fill="#DEDEDE" stroke="#494949" stroke-width="0.5" stroke-miterlimit="10" points="697.886,412.697 693.609,416.974 
		701.39,424.694 705.606,420.418 	"/>
	<polygon fill="#DEDEDE" stroke="#494949" stroke-width="0.5" stroke-miterlimit="10" points="688.799,421.784 696.639,429.623 
		701.39,424.694 693.609,416.974 	"/>
	
		<rect x="522.746" y="367.858" fill="#DEDEDE" stroke="#494949" stroke-width="0.5" stroke-miterlimit="10" width="17.342" height="13.006"/>
	
		<rect x="506.117" y="367.858" fill="#DEDEDE" stroke="#494949" stroke-width="0.5" stroke-miterlimit="10" width="16.629" height="13.006"/>
	<polyline fill="#DEDEDE" stroke="#494949" stroke-width="0.5" stroke-miterlimit="10" points="279.071,422.734 287.504,431.168 
		295.819,422.854 287.326,414.479 279.25,422.556 	"/>
	<polyline fill="#DEDEDE" stroke="#494949" stroke-width="0.5" stroke-miterlimit="10" points="296.175,405.689 287.326,414.479 
		295.819,422.854 304.608,414.063 296.175,405.689 	"/>
	<polygon id="_x3C_Path_x3E_" fill="#DEDEDE" stroke="#494949" stroke-width="0.5" stroke-miterlimit="10" points="315.12,409.788 
		338.639,433.306 344.696,427.308 344.696,423.981 322.9,402.245 	"/>
	<polygon id="_x3C_Path_x3E__1_" fill="#DEDEDE" stroke="#494949" stroke-width="0.5" stroke-miterlimit="10" points="
		423.15,478.025 423.15,461.338 410.084,461.338 410.084,495.012 416.143,495.012 416.143,478.025 	"/>
	<path id="_x3C_Path_x3E__2_" fill="#DEDEDE" stroke="#494949" stroke-width="0.5" stroke-miterlimit="10" d="M560.28,513.719
		v13.066c3.386,0.415,6.83,1.009,10.334,1.781v-14.849L560.28,513.719L560.28,513.719z"/>
	<path id="_x3C_Path_x3E__3_" fill="#DEDEDE" stroke="#494949" stroke-width="0.5" stroke-miterlimit="10" d="M457.418,569.248
		c-2.554,7.482-2.079,22.093,19.599,13.422c1.308-3.444,2.731-7.661,3.741-11.938c-2.435-1.959-6.295-4.988-9.384-6.711
		C466.562,561.23,460.09,561.35,457.418,569.248z"/>
</g>
<g id="Rooms">
	
		<rect id="r2-shp034a" x="572.218" y="385.438" fill="#939598" stroke="#494949" stroke-width="0.5" stroke-miterlimit="10" width="9.739" height="33.971"/>
	<polygon id="r2-shp033" fill="#939598" stroke="#494949" stroke-width="0.5" stroke-miterlimit="10" points="581.957,385.438 
		581.957,419.468 585.64,419.468 593.062,412.044 593.062,403.136 593.062,385.438 	"/>
	<polygon id="r2-shp035c" fill="#939598" stroke="#494949" stroke-width="0.5" stroke-miterlimit="10" points="506.117,385.438 
		506.117,404.68 521.023,419.527 525.24,419.527 526.429,420.774 526.429,385.438 	"/>
	<polygon id="r2-shp035b" fill="#939598" stroke="#494949" stroke-width="0.5" stroke-miterlimit="10" points="526.429,385.438 
		526.429,420.774 528.686,423.031 545.849,423.031 545.849,385.438 	"/>
	<polygon id="r2-shp035a" fill="#939598" stroke="#494949" stroke-width="0.5" stroke-miterlimit="10" points="545.849,385.438 
		545.849,423.031 554.46,423.031 558.023,419.468 561.884,419.468 561.884,385.438 	"/>
	
		<rect id="r2-shp034b" x="561.884" y="385.438" fill="#939598" stroke="#494949" stroke-width="0.5" stroke-miterlimit="10" width="10.334" height="33.971"/>
	<polygon id="r2-shp050" fill="#939598" stroke="#494949" stroke-width="0.5" stroke-miterlimit="10" points="279.309,444.53 
		271.766,451.835 265.115,458.309 292.79,485.984 302.411,476.304 303.48,475.294 303.48,468.643 	"/>
	<polygon id="r2-shp039-042" fill="#939598" stroke="#494949" stroke-width="0.5" stroke-miterlimit="10" points="466.445,418.696 
		478.917,406.224 478.917,385.438 404.205,385.438 404.205,418.696 426.179,418.696 430.515,423.031 455.576,423.031 
		459.912,418.696 	"/>
	<polygon id="r2-shp047b" fill="#939598" stroke="#494949" stroke-width="0.5" stroke-miterlimit="10" points="307.044,417.627 
		330.74,441.264 338.639,433.306 315.12,409.788 	"/>
	<polygon id="r2-shp048a" fill="#939598" stroke="#494949" stroke-width="0.5" stroke-miterlimit="10" points="299.383,425.051 
		323.197,448.807 330.74,441.264 307.044,417.627 	"/>
	<polygon id="r2-shp048b" fill="#939598" stroke="#494949" stroke-width="0.5" stroke-miterlimit="10" points="290.593,433.603 
		312.329,455.339 316.665,455.339 323.197,448.807 299.383,425.051 	"/>
	
		<rect id="r2-shp025b" x="722.466" y="497.834" transform="matrix(0.7071 -0.7071 0.7071 0.7071 -138.9916 669.8041)" fill="#939598" stroke="#494949" stroke-width="0.5" stroke-miterlimit="10" width="33.079" height="9.681"/>
	
		<rect id="r2-shp026a" x="708.74" y="483.916" transform="matrix(0.7071 -0.7071 0.7071 0.7071 -133.2825 656.0286)" fill="#939598" stroke="#494949" stroke-width="0.5" stroke-miterlimit="10" width="33.079" height="9.978"/>
	
		<rect id="r2-shp026a_1" x="715.73" y="491.073" transform="matrix(0.7071 -0.7071 0.7071 0.7071 -136.1692 663.0154)" fill="#939598" stroke="#494949" stroke-width="0.5" stroke-miterlimit="10" width="33.079" height="9.621"/>
	
		<rect id="r2-shp026b-027a" x="698.189" y="468.434" transform="matrix(0.7071 -0.7071 0.7071 0.7071 -128.9271 645.5042)" fill="#939598" stroke="#494949" stroke-width="0.5" stroke-miterlimit="10" width="33.079" height="19.894"/>
	
		<rect id="r2-shp027b-028" x="683.924" y="453.961" transform="matrix(0.7071 -0.7071 0.7071 0.7071 -123.036 631.2655)" fill="#939598" stroke="#494949" stroke-width="0.5" stroke-miterlimit="10" width="33.08" height="20.37"/>
	
		<rect id="r2-shp024" x="738.292" y="510.881" transform="matrix(0.7071 -0.7071 0.7071 0.7071 -145.5339 685.6252)" fill="#939598" stroke="#494949" stroke-width="0.5" stroke-miterlimit="10" width="33.079" height="15.203"/>
	<polygon id="r2-shp022b" fill="#939598" stroke="#494949" stroke-width="0.5" stroke-miterlimit="10" points="790.117,527.794 
		765.471,552.5 772.004,559.033 796.71,534.327 	"/>
	<polygon id="r2-shp022a" fill="#939598" stroke="#494949" stroke-width="0.5" stroke-miterlimit="10" points="804.668,542.226 
		796.71,534.327 772.004,559.033 779.843,566.873 	"/>
	<polygon id="r2-shp023" fill="#939598" stroke="#494949" stroke-width="0.5" stroke-miterlimit="10" points="751.692,538.662 
		765.471,552.5 788.811,529.101 775.092,515.263 	"/>
	
		<rect id="r2-shp029a-1" x="660.278" y="434.968" transform="matrix(0.7071 -0.7071 0.7071 0.7071 -113.2001 607.5649)" fill="#939598" stroke="#494949" stroke-width="0.5" stroke-miterlimit="10" width="33.079" height="10.927"/>
	
		<rect id="r2-shp030" x="646.028" y="421.115" transform="matrix(0.7071 -0.7071 0.7071 0.7071 -107.2797 593.3343)" fill="#939598" stroke="#494949" stroke-width="0.5" stroke-miterlimit="10" width="33.08" height="10.096"/>
	
		<rect id="r2-shp029b" x="652.986" y="428.322" transform="matrix(0.7071 -0.7071 0.7071 0.7071 -110.1919 600.2964)" fill="#939598" stroke="#494949" stroke-width="0.5" stroke-miterlimit="10" width="33.079" height="9.68"/>
	<polygon id="r2-shp031" fill="#939598" stroke="#494949" stroke-width="0.5" stroke-miterlimit="10" points="663.915,404.146 
		664.984,403.076 650.671,388.823 636.418,403.136 636.715,403.136 636.715,423.744 647.286,434.315 670.686,410.916 	"/>
	<polygon id="r2-shp045b" fill="#939598" stroke="#494949" stroke-width="0.5" stroke-miterlimit="10" points="381.518,382.112 
		381.518,369.225 369.641,369.225 354.854,369.225 354.854,418.696 369.641,418.696 382.112,418.696 382.112,382.112 	"/>
	<polygon id="r2-shp045a" fill="#939598" stroke="#494949" stroke-width="0.5" stroke-miterlimit="10" points="388.051,382.112 
		382.112,382.112 382.112,418.696 388.051,418.696 404.205,418.696 404.205,382.112 	"/>
	<polygon id="r2-shp032c" fill="#939598" stroke="#494949" stroke-width="0.5" stroke-miterlimit="10" points="600.725,369.105 
		600.725,381.696 596.686,381.696 596.686,403.136 609.573,403.136 609.573,369.105 	"/>
	
		<rect id="r2-shp032b" x="609.573" y="369.105" fill="#939598" stroke="#494949" stroke-width="0.5" stroke-miterlimit="10" width="13.065" height="33.971"/>
	<polygon id="r2-shp032a" fill="#939598" stroke="#494949" stroke-width="0.5" stroke-miterlimit="10" points="661.064,377.955 
		652.215,369.105 622.64,369.105 622.64,403.136 636.418,403.136 	"/>
	
		<rect id="r2-shp005b" x="389.061" y="461.338" fill="#939598" stroke="#494949" stroke-width="0.5" stroke-miterlimit="10" width="11.226" height="33.674"/>
	<polygon id="r2-shp004b" fill="#939598" stroke="#494949" stroke-width="0.5" stroke-miterlimit="10" points="376.826,475.71 
		376.826,475.71 370.946,461.396 355.446,476.897 379.023,500.475 384.487,495.012 384.784,495.012 	"/>
	<polygon id="r2-shp007a" fill="#939598" stroke="#494949" stroke-width="0.5" stroke-miterlimit="10" points="434.196,456.468 
		429.445,461.219 429.445,478.025 436.869,478.025 436.988,456.468 	"/>
	
		<rect id="r2-shp007b-08a" x="436.988" y="456.468" fill="#939598" stroke="#494949" stroke-width="0.5" stroke-miterlimit="10" width="22.15" height="38.544"/>
	<polygon id="r2-shp008b" fill="#939598" stroke="#494949" stroke-width="0.5" stroke-miterlimit="10" points="472.384,466.86 
		461.99,456.468 459.14,456.468 459.14,495.012 472.384,495.012 	"/>
	<polygon id="r2-shp001" fill="#939598" stroke="#494949" stroke-width="0.5" stroke-miterlimit="10" points="302.708,523.815 
		329.314,550.422 342.678,536.94 316.13,510.452 	"/>
	<polygon id="r2-shp009a-b" fill="#939598" stroke="#494949" stroke-width="0.5" stroke-miterlimit="10" points="524.35,456.646 
		506.354,474.641 506.354,495.012 542.285,495.012 542.285,456.646 	"/>
	<polygon id="r2-shp019" fill="#939598" stroke="#494949" stroke-width="0.5" stroke-miterlimit="10" points="704.3,581.482 
		722.532,563.25 711.724,552.5 685.354,578.81 694.322,587.718 702.459,579.582 	"/>
	<polygon id="r2-shp015a-b" fill="#939598" stroke="#494949" stroke-width="0.5" stroke-miterlimit="10" points="659.342,499.822 
		657.204,502.078 645.326,514.254 650.137,519.005 637.665,531.477 643.01,536.762 669.676,510.096 	"/>
	<polygon id="r2-shp021" fill="#939598" stroke="#494949" stroke-width="0.5" stroke-miterlimit="10" points="752.881,593.598 
		739.043,579.819 712.793,606.069 726.57,619.729 	"/>
	<polygon id="r2-shp020" fill="#939598" stroke="#494949" stroke-width="0.5" stroke-miterlimit="10" points="725.68,566.457 
		699.37,592.707 712.793,606.069 739.043,579.819 	"/>
	<polygon id="r2-shp018b" fill="#939598" stroke="#494949" stroke-width="0.5" stroke-miterlimit="10" points="704.3,545.076 
		677.871,571.445 685.354,578.81 711.724,552.5 	"/>
	<polygon id="r2-shp011a-b" fill="#939598" stroke="#494949" stroke-width="0.5" stroke-miterlimit="10" points="572.218,460.328 
		561.587,460.328 561.587,477.194 568.298,477.194 568.298,495.012 582.017,495.012 582.017,460.328 	"/>
	<polygon id="r2-shp010" fill="#939598" stroke="#494949" stroke-width="0.5" stroke-miterlimit="10" points="555.232,477.491 
		555.232,460.209 551.669,456.646 542.285,456.646 542.285,495.012 548.878,495.012 548.878,477.491 	"/>
	<polygon id="r2-shp014" fill="#939598" stroke="#494949" stroke-width="0.5" stroke-miterlimit="10" points="641.169,510.215 
		653.225,498.1 639.922,484.796 615.334,509.324 623.945,517.816 636.358,505.404 	"/>
	
		<rect id="r2-shp012a" x="582.017" y="460.328" fill="#939598" stroke="#494949" stroke-width="0.5" stroke-miterlimit="10" width="11.048" height="34.684"/>
	<polygon id="r2-shp013b" fill="#939598" stroke="#494949" stroke-width="0.5" stroke-miterlimit="10" points="632.438,477.373 
		607.91,501.9 615.334,509.324 639.922,484.796 	"/>
	
		<rect id="r2-shp012b-1" x="593.062" y="460.328" fill="#939598" stroke="#494949" stroke-width="0.5" stroke-miterlimit="10" width="7.78" height="34.684"/>
	<polygon id="r2-shp012b-2" fill="#939598" stroke="#494949" stroke-width="0.5" stroke-miterlimit="10" points="615.394,460.328 
		602.269,460.328 600.844,460.328 600.844,495.012 600.962,495.012 601.141,495.189 615.631,460.565 	"/>
	<polygon id="r2-shp013a" fill="#939598" stroke="#494949" stroke-width="0.5" stroke-miterlimit="10" points="615.631,460.565 
		601.141,495.189 607.91,501.9 632.438,477.373 	"/>
	<polygon id="robinson" fill="#939598" stroke="#494949" stroke-width="0.5" stroke-miterlimit="10" points="330.562,551.729 
		239.934,461.159 254.365,447.381 207.863,401.057 93.954,514.788 231.619,652.571 	"/>
	<polygon id="central-department-store" fill="#939598" stroke="#494949" stroke-width="0.5" stroke-miterlimit="10" points="
		712.793,633.982 862.632,484.143 978.501,599.952 828.188,750.268 	"/>
	<path id="r028" fill="#939598" stroke="#494949" stroke-width="0.5" stroke-miterlimit="10" d="M556.123,512.591v-3.267h-14.848
		v16.629c4.453-0.119,9.503-0.061,14.848,0.416v-12.65V512.591z"/>
	<path id="r025" fill="#939598" stroke="#494949" stroke-width="0.5" stroke-miterlimit="10" d="M604.882,518.886l-5.761-5.167
		h-17.282v18.232c2.494,0.95,4.988,1.96,7.483,3.147L604.882,518.886z"/>
	<path id="r024" fill="#939598" stroke="#494949" stroke-width="0.5" stroke-miterlimit="10" d="M620.798,535.753l3.089-3.089
		l-2.97-2.97l1.544-1.544l-9.324-9.324l-15.024,15.025c0,0,7.008,4.572,15.561,11.76l8.552-8.553L620.798,535.753z"/>
	<path id="r021" fill="#939598" stroke="#494949" stroke-width="0.5" stroke-miterlimit="10" d="M654.71,551.49l-18.53,18.529
		c1.129,1.723,2.14,3.505,3.029,5.285c0,0,10.393-1.01,16.035,4.931l14.135-14.136L654.71,551.49z"/>
	<path id="r022-023" fill="#939598" stroke="#494949" stroke-width="0.5" stroke-miterlimit="10" d="M651.8,548.58l-1.068,1.069
		l-7.841-7.84l-8.018,8.019l-2.969-2.97l-9.801-9.801l-8.552,8.554c3.268,2.791,6.83,5.938,10.215,9.383
		c4.573,4.573,8.969,9.681,12.354,14.967l18.529-18.529L651.8,548.58z"/>
	<path id="r020" fill="#939598" stroke="#494949" stroke-width="0.5" stroke-miterlimit="10" d="M682.267,578.988l-14.193,14.192
		c0,0,5.345,6.83,4.93,14.67c0,0,2.554,1.128,6.117,2.91l17.46-17.461L682.267,578.988z"/>
	<path id="r019" fill="#939598" stroke="#494949" stroke-width="0.5" stroke-miterlimit="10" d="M711.13,607.911l-14.61-14.61
		l-17.46,17.461c5.938,2.91,14.551,7.482,18.232,10.986L711.13,607.911z"/>
	<path id="r016" fill="#939598" stroke="#494949" stroke-width="0.5" stroke-miterlimit="10" d="M673.536,679.891l-7.245,7.246
		l-2.258-2.257l-4.216,4.216c0,0,6.65,15.798,23.398,28.863l14.253-14.253C685.651,692.006,673.536,679.891,673.536,679.891z"/>
	<path id="r006" fill="#939598" stroke="#494949" stroke-width="0.5" stroke-miterlimit="10" d="M356.871,610.702l19.599,17.639
		l2.494-2.494l1.663,1.662c0,0,11.938-3.979,21.915-16.153l-21.262-21.262C368.809,602.447,356.871,610.702,356.871,610.702z"/>
	<path id="r007" fill="#939598" stroke="#494949" stroke-width="0.5" stroke-miterlimit="10" d="M409.55,595.083l2.613-2.613
		l-4.514-4.633l3.267-3.146l-5.346-5.346l-2.791,2.673l-7.603-7.603c-4.275,5.642-9.087,10.928-13.838,15.679l21.262,21.263
		c3.267-3.92,6.296-8.73,8.671-14.552L409.55,595.083z"/>
	<path id="r002" fill="#939598" stroke="#494949" stroke-width="0.5" stroke-miterlimit="10" d="M284.416,632.498l-0.059-0.061
		l-18.352,22.746v6.771c2.079-0.653,4.217-1.128,6.058-1.128v3.088l19.896,2.97l0.713-3.445c0,0,0.712,0.298,1.782,0.832
		l6.177-22.745C293.562,639.149,287.029,634.873,284.416,632.498z"/>
	<path id="r001" fill="#939598" stroke="#494949" stroke-width="0.5" stroke-miterlimit="10" d="M284.357,632.438
		c-3.207-2.851-13.422-12.648-17.045-16.213L233.46,650.73l18.292,18.291c0,0,7.186-4.75,14.253-7.008v-6.771L284.357,632.438z"/>
	<path id="r003" fill="#939598" stroke="#494949" stroke-width="0.5" stroke-miterlimit="10" d="M310.369,643.663
		c-3.147-0.119-6.532-0.891-9.682-2.021l-6.175,22.746c3.682,1.842,12.116,6.475,15.56,12.234c0,0,5.701,0.476,14.135-2.316
		l-4.335-30.882C316.486,643.782,313.339,643.723,310.369,643.663z"/>
	<path id="r004" fill="#939598" stroke="#494949" stroke-width="0.5" stroke-miterlimit="10" d="M335.61,637.012
		c-5.464,4.099-10.811,5.762-15.738,6.354l4.335,30.883c7.008-2.316,15.976-6.949,25.182-16.035L335.61,637.012z"/>
	<path id="r037" fill="#939598" stroke="#494949" stroke-width="0.5" stroke-miterlimit="10" d="M316.546,565.981l14.551,14.551
		c3.088-4.038,7.306-9.205,12.77-14.849l-13.602-13.6L316.546,565.981z"/>
	<path id="r035-036" fill="#939598" stroke="#494949" stroke-width="0.5" stroke-miterlimit="10" d="M378.311,536.94l-9.025-9.027
		l-3.148,3.146l-2.196-2.196l-3.683,3.682l3.563,3.563l-14.076,14.193l-9.026-9.026l-10.513,10.689l13.601,13.602
		c3.207-3.326,6.771-6.83,10.749-10.453l0,0C361.325,549.175,369.225,542.879,378.311,536.94z"/>
	<path id="r034" fill="#939598" stroke="#494949" stroke-width="0.5" stroke-miterlimit="10" d="M392.09,513.541l-9.978,9.324
		l12.59,12.293c0,0,4.276-2.315,12.175-4.572v-17.045H392.09z"/>
	<path id="r032" fill="#939598" stroke="#494949" stroke-width="0.5" stroke-miterlimit="10" d="M428.792,509.562v2.909v1.069
		v13.125c4.454-0.356,9.265-0.535,14.432-0.356v-16.688L428.792,509.562L428.792,509.562z"/>
	<path id="r030" fill="#939598" stroke="#494949" stroke-width="0.5" stroke-miterlimit="10" d="M478.917,496.377h-16.272V527.2
		c2.315-2.197,9.502-8.434,16.214-10.334L478.917,496.377L478.917,496.377z"/>
	<path id="r011" fill="#939598" stroke="#494949" stroke-width="0.5" stroke-miterlimit="10" d="M549.887,553.569
		c-6.117-0.179-13.479-0.534-11.996,13.601c1.484,14.135,12.115,22.567,27.558,8.908c15.44-13.66,5.227-20.668-5.167-21.56
		C549.887,553.569,549.887,553.569,549.887,553.569z"/>
	<polygon id="r2-kio033" fill="#939598" stroke="#494949" stroke-width="0.5" stroke-miterlimit="10" points="623.233,446.787 
		634.933,435.087 629.646,429.802 619.848,429.802 619.848,446.787 	"/>
	<path id="r2-kio038-039" fill="#939598" stroke="#494949" stroke-width="0.5" stroke-miterlimit="10" d="M662.312,488.598
		L662.312,488.598l-6.178-6.116l0,0l-6.414-6.414c-0.06,0.594-0.178,1.188-0.178,1.78c0,3.088,1.188,5.939,3.147,8.077l0,0l0,0
		c2.196,2.375,5.284,3.86,8.79,3.86c0.297,0,0.594,0,0.83-0.061v-1.127H662.312z"/>
	<path id="r2-kio034" fill="#939598" stroke="#494949" stroke-width="0.5" stroke-miterlimit="10" d="M673.417,477.848
		c0-6.592-5.345-11.938-11.937-11.938c-0.596,0-1.188,0.06-1.782,0.119l12.591,12.591l-0.061,0.06l1.129,0.06
		C673.357,478.441,673.417,478.145,673.417,477.848z"/>
	<polygon id="r2-shp050" fill="#939598" stroke="#494949" stroke-width="0.5" stroke-miterlimit="10" points="292.79,485.984 
		278.952,499.822 251.099,472.324 265.115,458.309 	"/>
	<polygon id="r2-shp046" fill="#939598" stroke="#494949" stroke-width="0.5" stroke-miterlimit="10" points="333.77,369.225 
		321.237,381.815 329.73,390.367 325.217,394.881 349.032,418.696 354.854,418.696 354.854,369.225 	"/>
	<polygon id="r2-shp002a" fill="#939598" stroke="#494949" stroke-width="0.5" stroke-miterlimit="10" points="316.13,510.452 
		342.678,536.94 348.913,530.704 338.461,520.252 322.366,504.217 	"/>
	
		<rect id="r2-shp002b" x="329.497" y="498.607" transform="matrix(0.7072 -0.707 0.707 0.7072 -263.1371 384.5327)" fill="#939598" stroke="#494949" stroke-width="0.5" stroke-miterlimit="10" width="6.355" height="22.685"/>
	
		<rect id="r2-shp025a" x="729.396" y="504.629" transform="matrix(0.7071 -0.7071 0.7071 0.7071 -141.8292 676.7213)" fill="#939598" stroke="#494949" stroke-width="0.5" stroke-miterlimit="10" width="33.08" height="9.859"/>
	<polygon id="r2-shp016-017-018a" fill="#939598" stroke="#494949" stroke-width="0.5" stroke-miterlimit="10" points="
		643.01,536.762 669.676,510.096 678.465,518.945 678.465,524.112 697.292,542.998 702.221,542.998 704.3,545.076 677.871,571.445 	
		"/>
	<path id="r014" fill="#939598" stroke="#494949" stroke-width="0.5" stroke-miterlimit="10" d="M620.323,640.753l15.321-17.401
		c2.555,1.843,9.801,4.157,15.204,3.387c-0.355,4.69,0.476,10.154,1.781,15.976l-20.073,20.489
		c-3.325-4.276-10.216-13.838-12.53-19.658L621.57,642L620.323,640.753z"/>
	<path id="r015" fill="#939598" stroke="#494949" stroke-width="0.5" stroke-miterlimit="10" d="M632.558,663.262l19.184-24.766
		c2.257,10.453,7.839,24.943,15.44,34.684l-6.058,6.059l-3.267-3.268l-2.732,2.732C645.386,675.614,640.693,672.823,632.558,663.262
		z"/>
	<path id="r012" fill="#939598" stroke="#494949" stroke-width="0.5" stroke-miterlimit="10" d="M573.939,585.164l14.609-14.609
		c3.563,5.583,11.938,13.125,19.776,21.083l-24.29,25.896c-5.998-6.593-10.631-13.66-13.602-21.145l2.732-2.73l-1.188-1.188
		l4.632-4.633L573.939,585.164z"/>
	<path id="r013" fill="#939598" stroke="#494949" stroke-width="0.5" stroke-miterlimit="10" d="M584.036,617.532l24.29-25.896
		l9.146,8.73c0.415,4.93,2.078,9.621,5.228,14.016l-15.204,13.541l-1.485-1.484l-3.443,3.444
		C595.142,627.153,589.084,622.938,584.036,617.532z"/>
	
		<rect id="r2-shp006a" x="400.285" y="461.338" fill="#939598" stroke="#494949" stroke-width="0.5" stroke-miterlimit="10" width="9.799" height="33.674"/>
	<polygon id="r2-shp005a" fill="#939598" stroke="#494949" stroke-width="0.5" stroke-miterlimit="10" points="381.934,461.338 
		370.946,461.338 376.826,475.71 384.784,495.012 389.061,495.012 389.061,461.338 	"/>
	<polygon id="r2-shp003b-004a" fill="#939598" stroke="#494949" stroke-width="0.5" stroke-miterlimit="10" points="
		361.207,518.352 334.719,491.863 341.252,485.331 346.597,485.331 355.446,476.897 379.023,500.475 	"/>
</g>
<g id="Signs">
	<g id="stairs">
		<rect x="309.775" y="482.361" opacity="0.8" enable-background="new    " width="8.79" height="8.79"/>
		<rect x="670.032" y="484.202" opacity="0.8" enable-background="new    " width="8.789" height="8.79"/>
	</g>
	<g id="handicapped-elevator">
		<rect x="278.952" y="415.786" opacity="0.8" enable-background="new    " width="8.79" height="8.79"/>
		<rect x="684.048" y="405.036" opacity="0.8" enable-background="new    " width="8.79" height="8.79"/>
		<rect x="521.439" y="369.699" opacity="0.8" enable-background="new    " width="8.789" height="8.79"/>
		<rect x="563.428" y="501.484" opacity="0.8" enable-background="new    " width="8.79" height="8.79"/>
		<rect x="377.658" y="505.88" opacity="0.8" enable-background="new    " width="8.789" height="8.789"/>
	</g>
	<g id="telephone">
		<rect x="288.573" y="415.786" opacity="0.8" enable-background="new    " width="8.79" height="8.79"/>
		<rect x="693.729" y="405.036" opacity="0.8" enable-background="new    " width="8.789" height="8.79"/>
		<rect x="531.061" y="369.699" opacity="0.8" enable-background="new    " width="8.79" height="8.79"/>
	</g>
	<g id="atm">
		<rect x="298.194" y="415.786" opacity="0.8" enable-background="new    " width="8.79" height="8.79"/>
		<rect x="540.741" y="369.699" opacity="0.8" enable-background="new    " width="8.79" height="8.79"/>
	</g>
	<g id="toilet">
		<rect x="674.427" y="405.036" opacity="0.8" enable-background="new    " width="8.79" height="8.79"/>
		<rect x="269.331" y="415.786" opacity="0.8" enable-background="new    " width="8.79" height="8.79"/>
		<rect x="511.818" y="369.699" opacity="0.8" enable-background="new    " width="8.79" height="8.79"/>
		<rect x="387.635" y="505.88" opacity="0.8" enable-background="new    " width="8.79" height="8.789"/>
		<rect x="573.405" y="501.484" opacity="0.8" enable-background="new    " width="8.79" height="8.79"/>
	</g>
	<rect id="parking" x="489.605" y="319.04" opacity="0.8" enable-background="new    " width="8.791" height="8.79"/>
	<g id="elevator">
		<rect x="266.005" y="435.443" opacity="0.8" enable-background="new    " width="8.79" height="8.79"/>
		<rect x="712.495" y="437.938" opacity="0.8" enable-background="new    " width="8.79" height="8.79"/>
		<rect x="473.513" y="369.699" opacity="0.8" enable-background="new    " width="8.789" height="8.79"/>
		<rect x="593.182" y="501.484" opacity="0.8" enable-background="new    " width="8.79" height="8.79"/>
		<rect x="367.681" y="505.88" opacity="0.8" enable-background="new    " width="8.789" height="8.789"/>
	</g>
	<rect id="baby-change-room" x="583.442" y="501.484" opacity="0.8" enable-background="new    " width="8.789" height="8.79"/>
	<g id="escalator">
		<rect x="341.965" y="461.338" opacity="0.8" enable-background="new    " width="8.789" height="8.789"/>
		<rect x="638.615" y="461.338" opacity="0.8" enable-background="new    " width="8.789" height="8.789"/>
		<rect x="726.689" y="542.285" opacity="0.8" enable-background="new    " width="8.789" height="8.79"/>
		<rect x="476.363" y="461.338" opacity="0.8" enable-background="new    " width="8.789" height="8.789"/>
		<rect x="502.257" y="461.338" opacity="0.8" enable-background="new    " width="8.79" height="8.789"/>
		<rect x="631.014" y="587.184" opacity="0.8" enable-background="new    " width="8.789" height="8.79"/>
		<rect x="487.053" y="543.473" opacity="0.8" enable-background="new    " width="8.79" height="8.79"/>
		<rect x="325.395" y="601.199" opacity="0.8" enable-background="new    " width="8.79" height="8.79"/>
	</g>
	<g id="fire-exit">
		<rect x="555.945" y="483.371" opacity="0.8" enable-background="new    " width="8.789" height="8.789"/>
		<rect x="421.665" y="483.371" opacity="0.8" enable-background="new    " width="8.79" height="8.789"/>
		<rect x="346.359" y="517.223" opacity="0.8" enable-background="new    " width="8.79" height="8.79"/>
		<rect x="632.201" y="513.896" opacity="0.8" enable-background="new    " width="8.789" height="8.789"/>
		<rect x="696.104" y="582.789" opacity="0.8" enable-background="new    " width="8.79" height="8.789"/>
	</g>
</g>
</svg>
