<?xml version="1.0" encoding="utf-8"?>
<!-- Generator: Adobe Illustrator 16.0.0, SVG Export Plug-In . SVG Version: 6.00 Build 0)  -->
<!DOCTYPE svg PUBLIC "-//W3C//DTD SVG 1.1//EN" "http://www.w3.org/Graphics/SVG/1.1/DTD/svg11.dtd">
<svg version="1.1" id="Layer_1" xmlns="http://www.w3.org/2000/svg" xmlns:xlink="http://www.w3.org/1999/xlink" x="0px" y="0px"
	 width="1683.781px" height="1190.551px" viewBox="0 0 1683.781 1190.551" enable-background="new 0 0 1683.781 1190.551"
	 xml:space="preserve">
<g id="background">
	<rect fill="#FFFFFF" width="1683.781" height="1190.551"/>
</g>
<g id="etc">
	<polygon fill="#DEDEDE" stroke="#494949" stroke-width="0.5" stroke-miterlimit="10" points="289.604,324.777 338.712,275.653 
		451.489,366.84 539.95,292.003 743.362,207.736 745.113,150.403 914.113,150.403 915.613,207.737 1032,275.653 1148.582,358.653 
		1422.072,627.563 1357.863,802.491 1163.804,848.658 848.363,666.866 562.279,797.078 350.7,833.135 250.04,766.179 
		254.441,480.62 	"/>
	<path fill="#DEDEDE" stroke="#494949" stroke-width="0.5" stroke-miterlimit="10" d="M1356.865,472.236l-16.168,15.167
		l-9.965-9.935c5.951-6.124,9.623-14.477,9.623-23.69c0-18.778-15.223-34-34-34c-9.254,0-17.639,3.702-23.77,9.699l-23.133-23.059
		c5.678-6.076,9.156-14.23,9.156-23.201c0-18.778-15.223-34-34-34c-9.01,0-17.193,3.511-23.277,9.231l-20.586-20.521
		c6.096-6.145,9.863-14.603,9.863-23.943c0-18.778-15.223-34-34-34c-9.379,0-17.869,3.798-24.021,9.939l-12.559-12.52l15.834-14.333
		l-57.666-55.333H915.613v165.289l184.418,0.544l272.666,271.667l78.352-78.354L1356.865,472.236z"/>
	
		<rect x="580.183" y="502.209" transform="matrix(-0.0044 -1 1 -0.0044 60.4276 1112.6211)" fill="#DEDEDE" stroke="#494949" stroke-width="0.5" stroke-miterlimit="10" width="7.849" height="48.038"/>
	<path fill="#DEDEDE" stroke="#494949" stroke-width="0.5" stroke-miterlimit="10" d="M1332.271,956.811l-79.242-79.241
		l-9.166-9.166l4.875-4.875l-11.125-11.125l6.5-6.5l-11-11l6.375-6.375l-12.125-12.125l7.875-8l-223.625-221.5h-364.25l-257,258
		L255.729,709.918l-1.532,1.486l-94.667-96.668l15.333-16L96.78,520.653L82.863,534.57l5.083,5.083l-7.833,7.833l2.75,2.751
		c0,0-24.167,26.167-23.333,55.5h14.713c0.589,22.985,11.198,37.557,16.835,43.699l-12.715,12.717l161.5,162.5l5.966-5.967
		l12.203,12.203l-4.667,4.667l17.747,17.746l4.083-4.084l13.916,13.916l-4.018,4.019c25.229,32.5,63.271,32.75,63.271,32.75
		l-0.056-0.056c49.55,8.011,78.07-20.099,78.191-20.219c13.885-8.55,33.52-11.854,33.52-11.854l14.096-24.478l29.095,12.904
		l-8.346,17.201c22.75,7.25,33.25,28.25,33.25,28.25c4.105-0.668,8.048-1.498,11.837-2.463
		c54.357-13.826,76.538-55.662,76.538-55.662l-5.875-5.875l-2.125,2.125l-0.158-0.157l27.643-27.994l5.141,5.026
		c0,0,35.163-12.33,51.626-42.541l-21.932-21.932l2.138-3.712l26.818-0.348l5.016-3.985l5.214,4.787l0,0l4.121,4.229
		c0,0,5.793,1.573,14.917,2.879c7.172,1.024,16.4,1.883,26.5,1.682c13.267-0.266,28.027-2.356,41.583-8.311
		c0,0,2.389-3.69,5.382-9.573l56.198-0.834c1.629,4.061,3.309,7.526,4.92,9.657c0,0,22.889,8.692,50.375,9.166
		c10.947,0.188,22.625-0.926,33.875-4.416l5.834-5.832l-0.109-0.109l3.523-3.992l2.371,2.814l-0.152,0.152l6.033,6.217l-4.25,5.188
		c0,0,1.359,5.174,5.445,12.703c2.68,4.937,6.531,10.885,11.943,17.057c9.021,10.291,22.375,21.199,41.861,29.054l4.814-4.236
		l20.211,19.71l-2.275,2.276c7.57,13.094,18.029,24.631,28.357,34.061c10.471,9.56,20.805,16.951,27.859,21.599
		c5.053,3.327,8.414,5.243,8.949,5.545l14.906,15.097l-4.012,4.013l-3.938-3.938l-2.75,2.75c5.211,9.879,10.914,18.496,16.9,26.016
		c7.527,9.449,15.51,17.164,23.541,23.459c9.799,7.678,19.67,13.24,28.891,17.277c25.525,11.178,46.043,10.623,46.043,10.623
		l24.25-15.25l-0.746-3.977l31.906-5.862l0.09,0.089v4.25c0,0,16-1.25,21.5,2.5s27,9.25,38.375-4.875L1332.271,956.811z"/>
	<path fill="#DEDEDE" stroke="#494949" stroke-width="0.5" stroke-miterlimit="10" d="M986.488,479.083
		c0,0,0.494,25.197,21.99,30.13s38.24-8.681,43.58-19.206C1057.402,479.483,1005.884,471.75,986.488,479.083z"/>
	<circle fill="#DEDEDE" stroke="#494949" stroke-width="0.5" stroke-miterlimit="10" cx="830.343" cy="493.971" r="44.99"/>
	<circle fill="#DEDEDE" stroke="#494949" stroke-width="0.5" stroke-miterlimit="10" cx="830.343" cy="493.971" r="22.516"/>
	<circle fill="#DEDEDE" stroke="#494949" stroke-width="0.5" stroke-miterlimit="10" cx="649.622" cy="492.846" r="18.592"/>
	
		<rect x="1070.712" y="494.149" transform="matrix(-0.0045 -1 1 -0.0045 561.2874 1595.1151)" fill="#DEDEDE" stroke="#494949" stroke-width="0.5" stroke-miterlimit="10" width="7.85" height="48.038"/>
	
		<rect x="576.681" y="494.145" transform="matrix(-0.0044 -1 1 -0.0044 64.9748 1101.0195)" fill="#DEDEDE" stroke="#494949" stroke-width="0.5" stroke-miterlimit="10" width="7.849" height="48.038"/>
	<polygon fill="#DEDEDE" stroke="#494949" stroke-width="0.5" stroke-miterlimit="10" points="387.778,714.961 382.205,709.436 
		383.959,707.667 416.019,675.317 421.595,680.842 	"/>
	
		<rect x="406.141" y="674.345" transform="matrix(-0.7101 -0.7041 0.7041 -0.7101 209.5897 1483.0117)" fill="#DEDEDE" stroke="#494949" stroke-width="0.5" stroke-miterlimit="10" width="7.849" height="48.036"/>
	
		<rect x="1074.414" y="502.214" transform="matrix(-0.0045 -1 1 -0.0045 556.9408 1606.9169)" fill="#DEDEDE" stroke="#494949" stroke-width="0.5" stroke-miterlimit="10" width="7.85" height="48.038"/>
	
		<rect x="1207.459" y="624.594" transform="matrix(0.7042 -0.71 0.71 0.7042 -102.1759 1051.9863)" fill="#DEDEDE" stroke="#494949" stroke-width="0.5" stroke-miterlimit="10" width="7.849" height="48.037"/>
	
		<rect x="1211.255" y="619.238" transform="matrix(0.7041 -0.7101 0.7101 0.7041 -95.5188 1052.6377)" fill="#DEDEDE" stroke="#494949" stroke-width="0.5" stroke-miterlimit="10" width="7.848" height="43.367"/>
	
		<rect x="1194.611" y="636.228" transform="matrix(0.7041 -0.7101 0.7101 0.7041 -112.5104 1045.8458)" fill="#DEDEDE" stroke="#494949" stroke-width="0.5" stroke-miterlimit="10" width="7.848" height="43.367"/>
	
		<rect x="1198.66" y="626.78" transform="matrix(0.704 -0.7102 0.7102 0.704 -106.2263 1046.7316)" fill="#DEDEDE" stroke="#494949" stroke-width="0.5" stroke-miterlimit="10" width="7.849" height="48.038"/>
	<polygon fill="#DEDEDE" stroke="#494949" stroke-width="0.5" stroke-miterlimit="10" points="378.196,701.487 409.696,670.071 
		415.401,675.94 383.959,707.667 	"/>
	<polygon fill="#DEDEDE" stroke="#494949" stroke-width="0.5" stroke-miterlimit="10" points="396.798,717.34 402.821,723.362 
		433.405,692.778 427.247,686.62 	"/>
	<polygon fill="#DEDEDE" stroke="#494949" stroke-width="0.5" stroke-miterlimit="10" points="562.279,514.292 574.807,501.764 
		588.988,502.528 600.563,514.102 	"/>
	<polygon fill="#DEDEDE" stroke="#494949" stroke-width="0.5" stroke-miterlimit="10" points="562.279,530.231 603.03,530.04 
		588.786,544.284 575.78,544.284 	"/>
	<polygon fill="#DEDEDE" stroke="#494949" stroke-width="0.5" stroke-miterlimit="10" points="1055.988,514.121 1069.025,501.084 
		1082.738,501.084 1096.8,514.102 	"/>
	<polygon fill="#DEDEDE" stroke="#494949" stroke-width="0.5" stroke-miterlimit="10" points="1057.111,530.218 1098.63,530.034 
		1083.488,544.256 1070.488,544.256 	"/>
	<polygon fill="#DEDEDE" stroke="#494949" stroke-width="0.5" stroke-miterlimit="10" points="137.363,603.737 153.696,620.071 
		174.947,598.821 159.03,582.902 	"/>
	
		<rect x="793.1" y="475.859" transform="matrix(-0.9207 0.3904 -0.3904 -0.9207 1725.1299 655.9063)" fill="#DEDEDE" stroke="#494949" stroke-width="0.5" stroke-miterlimit="10" width="5.624" height="54.802"/>
	
		<rect x="862.286" y="475.879" transform="matrix(-0.8974 -0.4412 0.4412 -0.8974 1419.3696 1336.6274)" fill="#DEDEDE" stroke="#494949" stroke-width="0.5" stroke-miterlimit="10" width="5.624" height="54.802"/>
	
		<rect x="850.3" y="637.859" transform="matrix(0.9234 -0.3839 0.3839 0.9234 -188.647 378.683)" fill="#DEDEDE" stroke="#494949" stroke-width="0.5" stroke-miterlimit="10" width="7.85" height="48.034"/>
	
		<rect x="806.053" y="638.256" transform="matrix(0.9273 0.3742 -0.3742 0.9273 306.6891 -254.9894)" fill="#DEDEDE" stroke="#494949" stroke-width="0.5" stroke-miterlimit="10" width="7.85" height="48.034"/>
	
		<ellipse fill="#DEDEDE" stroke="#494949" stroke-width="0.5" stroke-miterlimit="10" cx="831.51" cy="663.522" rx="44.398" ry="27.369"/>
	
		<ellipse transform="matrix(-0.7071 -0.7071 0.7071 -0.7071 1391.8804 2259.0474)" fill="#DEDEDE" stroke="#494949" stroke-width="0.5" stroke-miterlimit="10" cx="1163.804" cy="841.256" rx="48.125" ry="18.03"/>
	<path fill="#DEDEDE" stroke="#494949" stroke-width="0.5" stroke-miterlimit="10" d="M1067.988,765.028
		c-0.305,7.637-0.25,26.5,16.125,27.375s42.75-4,30-26.5S1069.738,721.153,1067.988,765.028z"/>
	<path fill="#DEDEDE" stroke="#494949" stroke-width="0.5" stroke-miterlimit="10" d="M517.407,804.071
		c-6.396-8.467-15.036-34.166,22.543-31.5s34.413,23.393,15.746,37.112S529.617,820.237,517.407,804.071z"/>
	<path fill="#DEDEDE" stroke="#494949" stroke-width="0.5" stroke-miterlimit="10" d="M571.334,207.736l-14.14,14.118
		c-6.058-5.58-14.144-8.991-23.027-8.991c-18.778,0-34,15.222-34,34c0,8.866,3.396,16.937,8.955,22.989l-5.529,5.521
		c-6.022-5.419-13.991-8.72-22.73-8.72c-18.778,0-34,15.222-34,34c0,8.722,3.287,16.673,8.686,22.691l-10.046,10.031l78.202,78.202
		l39.741-39.591l179.917,0.531V207.736H571.334z"/>
	<polygon id="g-shp087d" fill="#DEDEDE" stroke="#494949" stroke-width="0.5" stroke-miterlimit="10" points="778.863,360.403 
		778.863,303.903 745.113,303.903 745.113,373.153 763.113,373.153 763.113,360.403 	"/>
	<path fill="#DEDEDE" stroke="#494949" stroke-width="0.5" stroke-miterlimit="10" d="M1216.113,877.903v20.75l67.25,67.25v4.25
		c0,0,16-1.25,21.5,2.5s27,9.25,38.375-4.875l-90.209-90.209L1216.113,877.903z"/>
	<path fill="#DEDEDE" stroke="#494949" stroke-width="0.5" stroke-miterlimit="10" d="M1176.488,893.403l-0.521-0.437
		l-46.576,46.576c7.527,9.449,15.51,17.164,23.541,23.459l46.07-46.07L1176.488,893.403z"/>
	<path fill="#DEDEDE" stroke="#494949" stroke-width="0.5" stroke-miterlimit="10" d="M1251.363,971.653l-29.787-31.129
		l-39.756,39.756c25.527,11.178,46.043,10.623,46.043,10.623l24.25-15.25L1251.363,971.653z"/>
	<path fill="#DEDEDE" stroke="#494949" stroke-width="0.5" stroke-miterlimit="10" d="M1199.001,916.932l-46.07,46.07
		c9.797,7.678,19.668,13.24,28.889,17.277l39.756-39.756L1199.001,916.932z"/>
	<path fill="#DEDEDE" stroke="#494949" stroke-width="0.5" stroke-miterlimit="10" d="M1169.628,743.551l-39.48,39.48
		c0.002,0.614-0.008,1.235-0.035,1.871c0,0,12.787,5.793,24.344,12.176l34.418-34.418L1169.628,743.551z"/>
	<path fill="#DEDEDE" stroke="#494949" stroke-width="0.5" stroke-miterlimit="10" d="M1153.187,727.225l-9.252,9.25l-1.197-1.196
		l-22.047,22.625c0,0,9.432,9.049,9.457,25.129l39.48-39.48L1153.187,727.225z"/>
	<path fill="#DEDEDE" stroke="#494949" stroke-width="0.5" stroke-miterlimit="10" d="M1201.158,774.856l-12.283-12.195
		l-34.418,34.418c5.92,3.271,11.52,6.695,14.906,9.574L1201.158,774.856z"/>
	<path fill="#DEDEDE" stroke="#494949" stroke-width="0.5" stroke-miterlimit="10" d="M1088.433,662.93l-17.916,16.127l-4.627-4.627
		l-23.586,23.584c13.346,13.109,22.527,24.232,22.527,24.232l41.521-41.521L1088.433,662.93z"/>
	<path fill="#DEDEDE" stroke="#494949" stroke-width="0.5" stroke-miterlimit="10" d="M1047.556,656.096l5.277-5.276l-5.721-5.275
		l2.75-3.141l-15.791-14.84l-35.959,35.959c8.521,4.507,17.172,10.712,25.303,17.403l24.858-24.112L1047.556,656.096z"/>
	<polygon fill="#DEDEDE" stroke="#494949" stroke-width="0.5" stroke-miterlimit="10" points="563.863,373.153 534.363,402.403 
		546.958,415.569 568.696,394.403 583.695,394.403 583.695,373.268 	"/>
	<polygon fill="#DEDEDE" stroke="#494949" stroke-width="0.5" stroke-miterlimit="10" points="583.695,373.268 583.695,394.403 
		648.029,394.403 648.029,373.642 	"/>
	<polygon fill="#DEDEDE" stroke="#494949" stroke-width="0.5" stroke-miterlimit="10" points="692.863,373.903 648.029,373.642 
		648.029,394.403 692.863,394.403 	"/>
	
		<rect x="1135.807" y="419.864" transform="matrix(-0.7071 0.7071 -0.7071 -0.7071 2261.3862 -68.32)" fill="#DEDEDE" stroke="#494949" stroke-width="0.5" stroke-miterlimit="10" width="18.07" height="28.624"/>
	<polygon fill="#DEDEDE" stroke="#494949" stroke-width="0.5" stroke-miterlimit="10" points="1098.863,375.403 1000.798,375.403 
		1000.798,394.95 1092.855,394.95 1128.345,430.44 1141.123,417.663 	"/>
	
		<rect x="1150.695" y="445.566" transform="matrix(-0.7071 -0.7071 0.7071 -0.7071 1667.7969 1600.0492)" fill="#DEDEDE" stroke="#494949" stroke-width="0.5" stroke-miterlimit="10" width="29.191" height="18.07"/>
	<polygon fill="#DEDEDE" stroke="#494949" stroke-width="0.5" stroke-miterlimit="10" points="883.531,475.236 891.863,488.069 
		901.363,488.069 901.363,513.403 912.363,513.403 912.363,475.236 	"/>
	
		<rect x="912.363" y="475.236" fill="#DEDEDE" stroke="#494949" stroke-width="0.5" stroke-miterlimit="10" width="26.75" height="38.167"/>
	
		<rect x="939.113" y="475.236" fill="#DEDEDE" stroke="#494949" stroke-width="0.5" stroke-miterlimit="10" width="26.418" height="38.167"/>
	<polygon fill="#DEDEDE" stroke="#494949" stroke-width="0.5" stroke-miterlimit="10" points="1112.238,651.778 1145.644,641.018 
		1145.644,627.1 1124.781,606.237 1095.738,635.278 	"/>
	<polygon fill="#DEDEDE" stroke="#494949" stroke-width="0.5" stroke-miterlimit="10" points="880.863,358.653 904.363,358.653 
		906.447,358.653 914.113,358.653 914.113,333.903 880.863,333.903 	"/>
	
		<rect x="880.863" y="358.653" fill="#DEDEDE" stroke="#494949" stroke-width="0.5" stroke-miterlimit="10" width="23.5" height="34"/>
	<polygon fill="#DEDEDE" stroke="#494949" stroke-width="0.5" stroke-miterlimit="10" points="880.863,249.403 880.863,275.653 
		880.863,303.903 880.863,333.903 914.113,333.903 914.113,249.403 	"/>
	<polygon fill="#DEDEDE" stroke="#494949" stroke-width="0.5" stroke-miterlimit="10" points="1260.81,572.707 1219.49,614.03 
		1223.197,617.737 1223.197,623.653 1239.281,639.737 1283.603,595.412 	"/>
	<polygon fill="#DEDEDE" stroke="#494949" stroke-width="0.5" stroke-miterlimit="10" points="879.029,414.904 896.363,414.904 
		896.363,402.403 853.603,402.403 853.603,414.904 	"/>
	<polygon fill="#DEDEDE" stroke="#494949" stroke-width="0.5" stroke-miterlimit="10" points="879.029,414.904 879.029,460.572 
		896.363,460.686 896.363,414.904 	"/>
	<polygon fill="#DEDEDE" stroke="#494949" stroke-width="0.5" stroke-miterlimit="10" points="962.197,402.403 962.197,461.117 
		978.197,461.221 978.197,402.403 	"/>
	<path fill="#DEDEDE" stroke="#494949" stroke-width="0.5" stroke-miterlimit="10" d="M745.113,150.403v27.377v31.623h20.61h13.14
		v-59C764.425,150.403,745.113,150.403,745.113,150.403z"/>
</g>
<g id="rooms">
	<polygon id="g-shp046-047" fill="#939598" stroke="#494949" stroke-width="0.5" stroke-miterlimit="10" points="805.028,402.403 
		747.696,402.403 747.696,459.712 787.005,459.97 805.028,441.154 	"/>
	<polygon id="g-shp054a" fill="#939598" stroke="#494949" stroke-width="0.5" stroke-miterlimit="10" points="517.364,456.238 
		559.195,498.07 571.612,485.653 529.97,444.011 	"/>
	<polygon id="g-shp055b" fill="#939598" stroke="#494949" stroke-width="0.5" stroke-miterlimit="10" points="504.928,468.302 
		546.958,510.307 559.195,498.07 517.364,456.238 	"/>
	<polygon id="g-shp048a-b-049-050-051a-b" fill="#939598" stroke="#494949" stroke-width="0.5" stroke-miterlimit="10" points="
		680.695,402.403 648.029,402.403 630.362,402.403 612.529,402.403 612.529,458.828 630.362,458.944 648.029,459.06 
		680.695,459.274 747.696,459.712 747.696,402.403 	"/>
	<polygon id="g-shp052-53-54b" fill="#939598" stroke="#494949" stroke-width="0.5" stroke-miterlimit="10" points="
		572.863,402.403 529.97,444.011 571.612,485.653 598.529,458.736 612.529,458.828 612.529,402.403 	"/>
	<polygon id="g-shp062" fill="#939598" stroke="#494949" stroke-width="0.5" stroke-miterlimit="10" points="279.466,687.008 
		324.529,732.071 347.196,709.403 347.362,709.403 302.563,664.604 	"/>
	<polygon id="g-shp061" fill="#939598" stroke="#494949" stroke-width="0.5" stroke-miterlimit="10" points="302.563,664.604 
		347.362,709.403 355.529,709.403 374.862,690.071 326.335,641.543 	"/>
	<polygon id="g-shp059" fill="#939598" stroke="#494949" stroke-width="0.5" stroke-miterlimit="10" points="368.72,600.428 
		350.7,617.909 398.862,666.071 411.696,653.237 411.696,643.405 	"/>
	<polygon id="g-shp063" fill="#939598" stroke="#494949" stroke-width="0.5" stroke-miterlimit="10" points="255.863,709.903 
		301.195,755.405 324.529,732.071 279.466,687.008 	"/>
	<polygon id="g-shp056b" fill="#939598" stroke="#494949" stroke-width="0.5" stroke-miterlimit="10" points="445.792,525.667 
		492.528,572.404 504.279,560.653 457.72,514.094 	"/>
	<polygon id="g-shp057b" fill="#939598" stroke="#494949" stroke-width="0.5" stroke-miterlimit="10" points="421.849,548.891 
		468.945,595.986 480.778,584.154 433.862,537.238 	"/>
	<polygon id="g-shp057a" fill="#939598" stroke="#494949" stroke-width="0.5" stroke-miterlimit="10" points="433.862,537.238 
		480.778,584.154 492.528,572.404 445.792,525.667 	"/>
	<polygon id="g-shp058" fill="#939598" stroke="#494949" stroke-width="0.5" stroke-miterlimit="10" points="402.56,567.602 
		444.696,609.737 455.195,609.737 468.945,595.986 421.849,548.891 	"/>
	<polygon id="g-shp060" fill="#939598" stroke="#494949" stroke-width="0.5" stroke-miterlimit="10" points="326.335,641.543 
		374.862,690.071 398.862,666.071 350.7,617.909 	"/>
	<polygon id="g-shp035b" fill="#939598" stroke="#494949" stroke-width="0.5" stroke-miterlimit="10" points="1189.634,501.798 
		1148.031,543.404 1148.031,550.529 1156.444,558.723 1201.411,513.53 	"/>
	<polygon id="g-shp035a" fill="#939598" stroke="#494949" stroke-width="0.5" stroke-miterlimit="10" points="1156.444,558.723 
		1167.808,569.792 1212.761,524.838 1201.411,513.53 	"/>
	<polygon id="g-shp037-038" fill="#939598" stroke="#494949" stroke-width="0.5" stroke-miterlimit="10" points="1118.626,431.058 
		1104.974,417.458 1058.804,463.628 1072.611,477.073 1096.8,500.633 1142.546,454.887 	"/>
	<g id="g-shp031-g-shp036">
		<polygon fill="#939598" stroke="#494949" stroke-width="0.5" stroke-miterlimit="10" points="1170.515,482.751 1142.546,454.887 
			1096.8,500.633 1120.179,523.404 1129.863,523.404 		"/>
		<polygon fill="#939598" stroke="#494949" stroke-width="0.5" stroke-miterlimit="10" points="1283.603,595.412 1239.281,639.737 
			1257.531,657.987 1301.888,613.627 		"/>
	</g>
	<polygon id="g-shp033" fill="#939598" stroke="#494949" stroke-width="0.5" stroke-miterlimit="10" points="1236.054,548.043 
		1194.779,589.318 1219.49,614.03 1260.81,572.707 	"/>
	<polygon id="g-shp034" fill="#939598" stroke="#494949" stroke-width="0.5" stroke-miterlimit="10" points="1212.761,524.838 
		1167.808,569.792 1184.863,586.402 1191.863,586.402 1194.779,589.318 1236.054,548.043 	"/>
	<polygon id="g-shp044a" fill="#939598" stroke="#494949" stroke-width="0.5" stroke-miterlimit="10" points="896.363,402.403 
		896.363,414.904 896.363,460.686 912.363,460.791 912.363,402.403 	"/>
	<polygon id="g-shp043" fill="#939598" stroke="#494949" stroke-width="0.5" stroke-miterlimit="10" points="912.363,402.403 
		912.363,460.791 945.363,461.006 945.363,402.403 	"/>
	<polygon id="g-shp042b" fill="#939598" stroke="#494949" stroke-width="0.5" stroke-miterlimit="10" points="945.363,402.403 
		945.363,461.006 962.197,461.117 962.197,402.403 	"/>
	<polygon id="g-shp045a" fill="#939598" stroke="#494949" stroke-width="0.5" stroke-miterlimit="10" points="853.603,414.904 
		853.603,439.237 879.029,460.572 879.029,414.904 	"/>
	<polygon id="g-shp039" fill="#939598" stroke="#494949" stroke-width="0.5" stroke-miterlimit="10" points="1089.863,402.403 
		1045.197,402.403 1045.197,461.66 1056.863,461.736 1058.804,463.628 1104.974,417.458 	"/>
	<polygon id="g-shp040a" fill="#939598" stroke="#494949" stroke-width="0.5" stroke-miterlimit="10" points="1029.363,402.403 
		1029.363,461.556 1045.197,461.66 1045.197,402.403 	"/>
	<polygon id="g-shp040b" fill="#939598" stroke="#494949" stroke-width="0.5" stroke-miterlimit="10" points="1011.863,402.403 
		1011.863,461.442 1029.363,461.556 1029.363,402.403 	"/>
	<polygon id="g-shp041" fill="#939598" stroke="#494949" stroke-width="0.5" stroke-miterlimit="10" points="978.197,402.403 
		978.197,461.221 1011.863,461.442 1011.863,402.403 	"/>
	<polygon id="g-shp056a" fill="#939598" stroke="#494949" stroke-width="0.5" stroke-miterlimit="10" points="457.72,514.094 
		504.279,560.653 512.529,552.403 512.529,544.736 512.529,544.736 469.988,502.194 	"/>
	<polygon id="g-shp055a" fill="#939598" stroke="#494949" stroke-width="0.5" stroke-miterlimit="10" points="536.028,521.237 
		546.958,510.307 504.928,468.302 489.531,483.237 527.53,521.237 	"/>
	<polygon id="g-shp009" fill="#939598" stroke="#494949" stroke-width="0.5" stroke-miterlimit="10" points="582.019,567.809 
		581.977,567.85 574.862,567.85 555.586,587.127 585.238,616.778 592.55,609.465 608.75,625.667 624.283,610.073 592.613,578.402 	
		"/>
	
		<rect id="g-shp012b" x="702.738" y="525.631" fill="#939598" stroke="#494949" stroke-width="0.5" stroke-miterlimit="10" width="10.625" height="37.021"/>
	<path id="g-shp084" fill="#939598" stroke="#494949" stroke-width="0.5" stroke-miterlimit="10" d="M662.738,525.631
		c0,4.639,0,15.334,0,15.334H630.05l-37.438,37.438l31.67,31.67l23.08-23.17h32.64v-61.271H662.738z"/>
	<polygon id="g-shp007" fill="#939598" stroke="#494949" stroke-width="0.5" stroke-miterlimit="10" points="578.488,623.278 
		564.05,608.84 541.425,631.465 526.336,616.377 511.988,630.725 511.988,638.153 554.231,680.397 584.984,649.524 568.613,633.153 
			"/>
	<path id="g-shp013b" fill="#939598" stroke="#494949" stroke-width="0.5" stroke-miterlimit="10" d="M754.488,525.631v14.521
		h-12.125c0,0,0.287,37.577,0.107,46.75h19.419v-61.271H754.488z"/>
	<path id="g-shp013a" fill="#939598" stroke="#494949" stroke-width="0.5" stroke-miterlimit="10" d="M742.363,540.153h12.125
		v-14.521h-32.875v37.146h11.375v24.125h9.482C742.65,577.729,742.363,540.153,742.363,540.153z"/>
	<polygon id="g-shp012a" fill="#939598" stroke="#494949" stroke-width="0.5" stroke-miterlimit="10" points="702.738,525.631 
		680.002,525.631 680.002,586.902 702.738,586.902 702.738,562.653 	"/>
	
		<rect id="g-shp008" x="534.498" y="596.601" transform="matrix(-0.7071 -0.7071 0.7071 -0.7071 497.4861 1431.2637)" fill="#939598" stroke="#494949" stroke-width="0.5" stroke-miterlimit="10" width="21.339" height="31.997"/>
	<polygon id="g-shp003a" fill="#939598" stroke="#494949" stroke-width="0.5" stroke-miterlimit="10" points="393.086,749.625 
		393.086,754.252 436.959,798.125 448.375,786.665 402.211,740.5 	"/>
	<polygon id="g-shp003b" fill="#939598" stroke="#494949" stroke-width="0.5" stroke-miterlimit="10" points="402.211,740.5 
		448.375,786.665 460.019,774.975 413.878,728.834 	"/>
	<polygon id="g-shp002" fill="#939598" stroke="#494949" stroke-width="0.5" stroke-miterlimit="10" points="393.086,754.403 
		369.037,778.452 412.881,822.297 436.959,798.125 393.086,754.252 	"/>
	<polygon id="g-shp005-006" fill="#939598" stroke="#494949" stroke-width="0.5" stroke-miterlimit="10" points="479.059,663.653 
		443.711,699.002 478.55,733.84 482.363,730.028 493.6,741.264 529.218,705.508 487.363,663.653 	"/>
	<polygon id="g-shp004a" fill="#939598" stroke="#494949" stroke-width="0.5" stroke-miterlimit="10" points="413.878,728.834 
		460.019,774.975 470.645,764.309 424.524,718.188 	"/>
	
		<rect id="g-shp014a" x="761.89" y="525.631" fill="#939598" stroke="#494949" stroke-width="0.5" stroke-miterlimit="10" width="12" height="61.271"/>
	<polygon id="g-shp014b" fill="#939598" stroke="#494949" stroke-width="0.5" stroke-miterlimit="10" points="778.591,525.631 
		778.238,525.631 773.89,525.631 773.89,586.902 778.238,586.902 785.39,586.902 785.39,532.43 	"/>
	<polygon id="g-shp015" fill="#939598" stroke="#494949" stroke-width="0.5" stroke-miterlimit="10" points="804.363,551.403 
		785.39,532.43 785.39,586.902 804.363,586.902 	"/>
	<polygon id="g-shp010" fill="#939598" stroke="#494949" stroke-width="0.5" stroke-miterlimit="10" points="630.05,540.965 
		624.018,525.809 582.019,567.809 592.613,578.402 	"/>
	<polygon id="g-shp004b" fill="#939598" stroke="#494949" stroke-width="0.5" stroke-miterlimit="10" points="424.524,718.188 
		470.645,764.309 483.245,751.661 437.148,705.565 	"/>
	<path id="g-shp011" fill="#939598" stroke="#494949" stroke-width="0.5" stroke-miterlimit="10" d="M662.738,540.965
		c0,0,0-10.694,0-15.334h-38.542l-0.179,0.178l6.032,15.156H662.738z"/>
	<polygon id="g-shp024b" fill="#939598" stroke="#494949" stroke-width="0.5" stroke-miterlimit="10" points="1145.644,641.018 
		1112.238,651.778 1095.738,635.278 1078.222,652.793 1106.353,680.725 1145.644,641.434 	"/>
	<polygon id="g-shp023b" fill="#939598" stroke="#494949" stroke-width="0.5" stroke-miterlimit="10" points="1124.781,606.237 
		1109.511,590.967 1079.896,620.583 1087.916,628.602 1070.949,645.569 1078.222,652.793 1095.738,635.278 	"/>
	<polygon id="g-shp021b" fill="#939598" stroke="#494949" stroke-width="0.5" stroke-miterlimit="10" points="1076.863,566.861 
		1054.259,544.256 1011.859,586.658 1011.763,586.902 1011.863,586.902 1034.769,609.646 1077.554,566.861 	"/>
	<polygon id="g-shp022a" fill="#939598" stroke="#494949" stroke-width="0.5" stroke-miterlimit="10" points="1093.906,575.361 
		1085.406,566.861 1077.554,566.861 1034.769,609.646 1049.771,624.542 1067.511,606.801 1064.988,604.278 	"/>
	<polygon id="g-shp027-028" fill="#939598" stroke="#494949" stroke-width="0.5" stroke-miterlimit="10" points="1246.017,727.225 
		1234.363,715.571 1226.531,715.571 1218.738,707.778 1176.322,750.196 1199.542,773.25 1223.363,796.903 1269.707,750.913 	"/>
	<polygon id="g-shp085" fill="#939598" stroke="#494949" stroke-width="0.5" stroke-miterlimit="10" points="1020.486,564.402 
		1009.613,564.402 995.488,564.402 995.488,525.631 979.113,525.631 979.113,586.902 1011.613,586.902 1011.859,586.658 	"/>
	<polygon id="g-shp018" fill="#939598" stroke="#494949" stroke-width="0.5" stroke-miterlimit="10" points="939.113,562.038 
		939.113,525.631 913.988,525.631 913.988,586.902 927.613,586.902 927.613,562.038 	"/>
	<polygon id="g-shp019" fill="#939598" stroke="#494949" stroke-width="0.5" stroke-miterlimit="10" points="944.738,525.631 
		944.738,562.038 957.613,562.038 957.613,586.902 979.113,586.902 979.113,525.631 	"/>
	<polygon id="g-shp016-017" fill="#939598" stroke="#494949" stroke-width="0.5" stroke-miterlimit="10" points="879.113,525.631 
		852.484,550.658 852.484,586.902 879.113,586.902 913.988,586.902 913.988,525.631 	"/>
	<polygon id="g-shp020b" fill="#939598" stroke="#494949" stroke-width="0.5" stroke-miterlimit="10" points="1020.486,564.402 
		1035.513,525.631 1009.613,525.631 1009.613,564.402 	"/>
	<polygon id="g-shp021a" fill="#939598" stroke="#494949" stroke-width="0.5" stroke-miterlimit="10" points="1020.486,564.402 
		1020.486,564.402 1011.859,586.658 1054.259,544.256 1035.632,525.631 1035.513,525.631 	"/>
	<polygon id="g-shp022b" fill="#939598" stroke="#494949" stroke-width="0.5" stroke-miterlimit="10" points="1067.511,606.801 
		1076.273,615.563 1105.189,586.646 1093.906,575.361 1064.988,604.278 	"/>
	
		<rect id="g-shp020a" x="995.488" y="525.631" fill="#939598" stroke="#494949" stroke-width="0.5" stroke-miterlimit="10" width="14.125" height="38.771"/>
	<polygon id="g-shp070c" fill="#939598" stroke="#494949" stroke-width="0.5" stroke-miterlimit="10" points="880.863,208.966 
		880.863,178.653 865.863,178.653 865.863,201.528 873.3,208.966 	"/>
	
		<rect id="g-shp070b" x="865.863" y="150.403" fill="#939598" stroke="#494949" stroke-width="0.5" stroke-miterlimit="10" width="15" height="28.25"/>
	<polygon id="g-shp070a" fill="#939598" stroke="#494949" stroke-width="0.5" stroke-miterlimit="10" points="880.863,208.966 
		914.113,208.966 914.113,150.403 880.863,150.403 880.863,178.653 	"/>
	<polygon id="g-shp072" fill="#939598" stroke="#494949" stroke-width="0.5" stroke-miterlimit="10" points="880.863,249.403 
		852.63,249.403 852.808,275.653 880.863,275.653 	"/>
	<polygon id="g-shp073" fill="#939598" stroke="#494949" stroke-width="0.5" stroke-miterlimit="10" points="880.863,275.653 
		852.808,275.653 853,303.903 880.863,303.903 	"/>
	<polygon id="g-shp074" fill="#939598" stroke="#494949" stroke-width="0.5" stroke-miterlimit="10" points="880.863,303.903 
		853,303.903 853.205,333.903 880.863,333.903 	"/>
	<polygon id="g-shp075" fill="#939598" stroke="#494949" stroke-width="0.5" stroke-miterlimit="10" points="880.863,333.903 
		853.205,333.903 853.603,392.653 880.863,392.653 880.863,358.653 	"/>
	<polygon id="g-shp066" fill="#939598" stroke="#494949" stroke-width="0.5" stroke-miterlimit="10" points="778.863,249.403 
		806.613,249.403 806.613,226.903 800.863,221.153 778.863,221.153 	"/>
	
		<rect id="g-shp067" x="778.863" y="249.403" fill="#939598" stroke="#494949" stroke-width="0.5" stroke-miterlimit="10" width="27.75" height="26.25"/>
	
		<rect id="g-shp069a" x="778.863" y="303.903" fill="#939598" stroke="#494949" stroke-width="0.5" stroke-miterlimit="10" width="27.75" height="56.5"/>
	
		<rect id="g-shp068" x="778.863" y="275.653" fill="#939598" stroke="#494949" stroke-width="0.5" stroke-miterlimit="10" width="27.75" height="28.25"/>
	<path id="g-shp064" fill="#939598" stroke="#494949" stroke-width="0.5" stroke-miterlimit="10" d="M787.363,209.403l7.042-7.042
		c0.058-18.652,0.138-51.958-0.042-51.958c-0.094,0-6.94,0-15.5,0v59H787.363L787.363,209.403z"/>
	
		<rect id="g-shp087c" x="745.113" y="275.653" fill="#939598" stroke="#494949" stroke-width="0.5" stroke-miterlimit="10" width="33.75" height="28.25"/>
	<polygon id="g-shp069b" fill="#939598" stroke="#494949" stroke-width="0.5" stroke-miterlimit="10" points="806.613,360.403 
		778.863,360.403 763.113,360.403 763.113,373.153 806.613,373.153 	"/>
	
		<rect id="g-shp087a" x="745.113" y="221.153" fill="#939598" stroke="#494949" stroke-width="0.5" stroke-miterlimit="10" width="21.61" height="28.25"/>
	
		<rect id="g-shp066b" x="766.723" y="221.153" fill="#939598" stroke="#494949" stroke-width="0.5" stroke-miterlimit="10" width="12.14" height="28.25"/>
	
		<rect id="g-shp087b" x="745.113" y="249.403" fill="#939598" stroke="#494949" stroke-width="0.5" stroke-miterlimit="10" width="33.75" height="26.25"/>
	<polygon id="g-shp071" fill="#939598" stroke="#494949" stroke-width="0.5" stroke-miterlimit="10" points="865.863,221.403 
		862.988,221.403 858.613,221.403 852.484,227.533 852.63,249.403 880.863,249.403 880.863,221.403 	"/>
	
		<rect id="g-shp090" x="880.863" y="221.403" fill="#939598" stroke="#494949" stroke-width="0.5" stroke-miterlimit="10" width="33.25" height="28"/>
	<polygon id="g-shp082" fill="#939598" stroke="#494949" stroke-width="0.5" stroke-miterlimit="10" points="489.531,483.237 
		517.364,456.238 497.946,436.82 502.949,431.817 473.366,402.234 445.613,429.987 445.613,438.07 	"/>
	<polygon id="g-shp076-77b" fill="#939598" stroke="#494949" stroke-width="0.5" stroke-miterlimit="10" points="396.3,285.34 
		361.446,250.486 313.363,298.57 348.121,333.52 379.384,302.257 	"/>
	<polygon id="g-shp077a" fill="#939598" stroke="#494949" stroke-width="0.5" stroke-miterlimit="10" points="417.615,306.654 
		417.617,306.652 396.306,285.34 348.121,333.52 369.823,355.342 418.063,307.103 	"/>
	<polygon id="g-shp078" fill="#939598" stroke="#494949" stroke-width="0.5" stroke-miterlimit="10" points="443.946,332.986 
		418.063,307.103 369.823,355.342 395.635,381.297 	"/>
	<polygon id="g-shp080" fill="#939598" stroke="#494949" stroke-width="0.5" stroke-miterlimit="10" points="453.696,342.736 
		405.358,391.074 424.555,410.377 472.946,361.986 	"/>
	<polygon id="g-shp079" fill="#939598" stroke="#494949" stroke-width="0.5" stroke-miterlimit="10" points="443.946,332.986 
		395.635,381.297 405.358,391.074 453.696,342.736 	"/>
	<polygon id="g-shp081" fill="#939598" stroke="#494949" stroke-width="0.5" stroke-miterlimit="10" points="482.28,371.32 
		472.946,361.986 424.555,410.377 433.863,419.736 	"/>
	<path id="g-kio038" fill="#939598" stroke="#494949" stroke-width="0.5" stroke-miterlimit="10" d="M1180.396,612.821
		c0,0-2.477-22.644-21.923-27.202c-0.444-5.756-3.632-16.335-21.474-13.729c0,0-0.533,8.716,5.845,13.82
		c-3.775,0.747-7.919,1.99-12.481,3.848c0,0,3.585,19.736,21.294,25.398c0.66,4.354,3.651,12.317,16.813,10.955
		c0,0.001,0.736-5.565-2.419-9.673C1170.321,615.809,1175.083,614.729,1180.396,612.821z"/>
	<g id="g-kio040-043">
		<path fill="#939598" stroke="#494949" stroke-width="0.5" stroke-miterlimit="10" d="M980.009,474.972
			c0,0,2.859,15.646,23.746,10.136C1003.755,485.107,1002.119,468.269,980.009,474.972z"/>
		<path fill="#939598" stroke="#494949" stroke-width="0.5" stroke-miterlimit="10" d="M983.964,513.077
			c0,0,20.215,13.369,31.67-12.352C1015.634,500.726,995.095,484.953,983.964,513.077z"/>
	</g>
	<g id="g-kio041-042">
		<path fill="#939598" stroke="#494949" stroke-width="0.5" stroke-miterlimit="10" d="M1017.449,475.426
			c0,0,4.773,26.132,39.662,16.929C1057.111,492.355,1054.376,464.229,1017.449,475.426z"/>
		<path fill="#939598" stroke="#494949" stroke-width="0.5" stroke-miterlimit="10" d="M1020.607,510.227
			c0,0,9.326,10.208,19.24-2.43C1039.847,507.797,1030.677,496.213,1020.607,510.227z"/>
	</g>
	<polygon id="robinson" fill="#939598" stroke="#494949" stroke-width="0.5" stroke-miterlimit="10" points="254.196,711.405 
		475.654,496.528 296.446,317.986 94.53,518.403 174.863,598.737 159.53,614.737 	"/>
	<polygon id="central-department-store" fill="#939598" stroke="#494949" stroke-width="0.5" stroke-miterlimit="10" points="
		1223.363,796.903 1450.613,569.653 1643.113,761.403 1389.863,1014.403 1243.863,868.403 1248.738,863.528 1237.613,852.403 
		1244.113,845.903 1233.113,834.903 1239.488,828.528 1227.363,816.403 1235.238,808.403 	"/>
	<polygon id="g-shp029-030" fill="#939598" stroke="#494949" stroke-width="0.5" stroke-miterlimit="10" points="1333.769,639.309 
		1330.724,642.354 1308.15,619.866 1263.781,664.237 1274.906,675.362 1274.906,681.737 1307.037,713.868 1354.863,666.403 
		1357.863,663.403 	"/>
	
		<rect id="big-c" x="797.613" y="113.903" fill="#939598" stroke="#494949" stroke-width="0.5" stroke-miterlimit="10" width="64.5" height="87"/>
	<polygon id="sushi-express" fill="#939598" stroke="#494949" stroke-width="0.5" stroke-miterlimit="10" points="333.863,815.403 
		333.863,824.737 360.696,851.569 371.696,840.903 378.363,847.737 385.788,840.311 348.108,802.491 	"/>
	<path id="kfc" fill="#939598" stroke="#494949" stroke-width="0.5" stroke-miterlimit="10" d="M285.092,867.153l31.51-31.511h6.511
		l28.255,28.257l-7.005,7.004l2.75,2.75l-12.5,12.5l13.75,13.75C348.363,899.903,310.322,899.653,285.092,867.153z"/>
	<path id="r038" fill="#939598" stroke="#494949" stroke-width="0.5" stroke-miterlimit="10" d="M376.363,866.403l17.361-17.361
		l-3.361-4.139l92.882-93.242l8.056,8.055l14.313-14.313l-8.083-8.082l11.875-11.875l17.208,17.207l-5.75,17
		c0,0-26,12.426-23.25,42.838l-37.595,65.283c0,0-21.584,3.629-35.494,13.129C410.614,890.403,386.613,884.403,376.363,866.403z"/>
	<path id="r029-031" fill="#939598" stroke="#494949" stroke-width="0.5" stroke-miterlimit="10" d="M723.613,612.608h30.875
		v-25.706h49.875v37.75c0,0-19.5,7.25-28.25,23.75h-52.5V612.608z"/>
	<path id="r009a" fill="#939598" stroke="#494949" stroke-width="0.5" stroke-miterlimit="10" d="M866.89,698.036
		c-5.021,3.163-11.188,5.881-18.527,7.117c0,0,1.506,6.248,3.774,14.122h14.753V698.036z"/>
	<path id="r009b" fill="#939598" stroke="#494949" stroke-width="0.5" stroke-miterlimit="10" d="M883.613,681.653
		c0,0-5.494,9.309-16.723,16.383v21.239l0,0l0,0h-14.753c3.044,10.57,7.464,24.077,11.476,29.378c0,0,22.889,8.692,50.375,9.166
		v-79.074C904.757,679.045,894.654,679.95,883.613,681.653z"/>
	<path id="r010" fill="#939598" stroke="#494949" stroke-width="0.5" stroke-miterlimit="10" d="M970.531,721.737l1.332,1.332
		l23.707-23.707c-1.064-1.009-24.459-22.476-81.582-20.617v79.074c10.947,0.188,22.625-0.927,33.875-4.416l5.834-5.832l-4.5-4.5
		L970.531,721.737z"/>
	<path id="r011a" fill="#939598" stroke="#494949" stroke-width="0.5" stroke-miterlimit="10" d="M999.505,703.26l-24.059,24.062
		l1.5,1.5l-17.617,17.614l6.033,6.218l-4.25,5.188c0,0,1.357,5.174,5.443,12.703l50.193-50.195L999.505,703.26z"/>
	<path id="r012" fill="#939598" stroke="#494949" stroke-width="0.5" stroke-miterlimit="10" d="M1031.318,734.782L978.501,787.6
		c4.962,5.662,11.247,11.508,19.133,16.932l51.799-51.799L1031.318,734.782z"/>
	<path id="r013" fill="#939598" stroke="#494949" stroke-width="0.5" stroke-miterlimit="10" d="M1055.613,785.653
		c0,0-8.25-14-5.25-32l-0.93-0.921l-51.799,51.799c6.447,4.436,13.963,8.589,22.729,12.122L1055.613,785.653z"/>
	<path id="r011b" fill="#939598" stroke="#494949" stroke-width="0.5" stroke-miterlimit="10" d="M1016.751,720.348l-50.193,50.195
		c2.68,4.937,6.531,10.885,11.943,17.057l52.816-52.817L1016.751,720.348z"/>
	<path id="r014" fill="#939598" stroke="#494949" stroke-width="0.5" stroke-miterlimit="10" d="M1104.363,809.684
		c-21,0-31.625-4.905-31.625-4.905l-29.625,29.625c7.57,13.094,18.029,24.631,28.357,34.061l42.748-42.748
		C1108.16,816.374,1104.363,809.684,1104.363,809.684z"/>
	<path id="r016" fill="#939598" stroke="#494949" stroke-width="0.5" stroke-miterlimit="10" d="M1134.955,854.438l-35.623,35.622
		c5.518,3.636,9.031,5.593,9.031,5.593l8.375,8.375l15.875-15.875h1.5l16.75-16.75
		C1145.462,866.584,1140.062,860.672,1134.955,854.438z"/>
	<path id="r015" fill="#939598" stroke="#494949" stroke-width="0.5" stroke-miterlimit="10" d="M1114.218,825.715l-42.748,42.748
		c10.471,9.56,20.805,16.951,27.859,21.599l35.623-35.623C1126.955,844.676,1119.669,834.124,1114.218,825.715z"/>
	<path id="r017" fill="#939598" stroke="#494949" stroke-width="0.5" stroke-miterlimit="10" d="M1155.425,875.84l-16.75,16.75
		l1.313,1.313l-20.813,20.813l-3.938-3.938l-2.75,2.75c5.211,9.879,10.914,18.496,16.9,26.016l46.576-46.576L1155.425,875.84z"/>
	<path id="r025" fill="#939598" stroke="#494949" stroke-width="0.5" stroke-miterlimit="10" d="M1065.888,674.43l-17.614-17.616
		l-24.858,24.112c6.789,5.589,13.217,11.516,18.889,17.088L1065.888,674.43z"/>
	<path id="r027-028" fill="#939598" stroke="#494949" stroke-width="0.5" stroke-miterlimit="10" d="M1013.113,620.652l-32.5-0.25
		v5.664l-39.5-1.525v-0.001l-0.5-12.602h-34.5l-0.5-16.478h-7.666v-8.559h-45.463v36.5c0,0,20.379,6.25,28.129,18.25
		c0,0,27.631-7.843,60.5-2.14v0.001c15.869,2.754,32.959,8.662,48.75,20.14l30.623-30.647L1013.113,620.652z"/>
	<path id="r003-004" fill="#939598" stroke="#494949" stroke-width="0.5" stroke-miterlimit="10" d="M595.613,763.153v9l45.5,44.5
		c0,0,35.163-12.33,51.626-42.541l-51.146-51.146C610.239,750.934,595.613,763.153,595.613,763.153z"/>
	<path id="r005" fill="#939598" stroke="#494949" stroke-width="0.5" stroke-miterlimit="10" d="M686.363,727.737l-23.688-23.689
		c-7.727,6.975-14.741,13.264-21.081,18.92l51.146,51.146c2.87-5.269,5.176-11.074,6.624-17.459l-4-4.25l5.998-5.836l-16.664-16.664
		L686.363,727.737z"/>
	<path id="r008" fill="#939598" stroke="#494949" stroke-width="0.5" stroke-miterlimit="10" d="M813.863,705.153
		c0,0-20.5-3-34.75-23c0,0-9.402-2.726-23.583-4.115v79.676c13.267-0.266,28.027-2.356,41.583-8.311
		C797.113,749.403,811.363,727.403,813.863,705.153z"/>
	<path id="r007" fill="#939598" stroke="#494949" stroke-width="0.5" stroke-miterlimit="10" d="M705.689,681.297l23.34,62.605
		v12.129c7.172,1.024,16.4,1.883,26.5,1.682v-79.676C741.952,676.708,723.994,676.604,705.689,681.297z"/>
	<path id="r006" fill="#939598" stroke="#494949" stroke-width="0.5" stroke-miterlimit="10" d="M705.689,681.297
		c-13.262,3.4-26.698,9.326-38.778,19.117l44.618,43.654l-2.727,3.635l5.31,5.449c0,0,5.793,1.573,14.917,2.879v-12.129
		L705.689,681.297z"/>
	<path id="r001" fill="#939598" stroke="#494949" stroke-width="0.5" stroke-miterlimit="10" d="M517.363,827.03l-22.5,46.373
		c22.75,7.25,33.25,28.25,33.25,28.25c4.105-0.668,8.048-1.498,11.837-2.463l-3.956-70.283
		C525.011,830.237,517.363,827.03,517.363,827.03z"/>
	<path id="r002" fill="#939598" stroke="#494949" stroke-width="0.5" stroke-miterlimit="10" d="M616.488,843.528l-5.875-5.875
		l-2.125,2.125l-19.113-19.113l9.075-9.074l-13.465-13.465h-6.621c-14.363,22.443-30.359,29.324-42.368,30.781l3.956,70.283
		C594.309,885.364,616.488,843.528,616.488,843.528z"/>
	<path id="r037" fill="#939598" stroke="#494949" stroke-width="0.5" stroke-miterlimit="10" d="M591.363,680.397l-18.604-18.601
		l-18.526,18.601l38.381,39.006c4.126-6.074,8.817-11.613,13.775-16.64l-18.695-18.696L591.363,680.397z"/>
	<path id="r036b" fill="#939598" stroke="#494949" stroke-width="0.5" stroke-miterlimit="10" d="M591.363,680.397l-3.669,3.67
		l18.695,18.696c4.869-4.936,9.995-9.371,15.104-13.313l-19.59-19.592L591.363,680.397z"/>
	<path id="r036a" fill="#939598" stroke="#494949" stroke-width="0.5" stroke-miterlimit="10" d="M615.36,656.401l-13.458,13.457
		l19.59,19.592c5.452-4.211,10.88-7.861,15.949-10.969L615.36,656.401z"/>
	<path id="r035" fill="#939598" stroke="#494949" stroke-width="0.5" stroke-miterlimit="10" d="M664.196,664.903l-37.5-37.5
		l-14.608,14.774l2.759,2.759l-5.476,5.477l5.988,5.988l22.08,22.08C652.385,669.325,664.196,664.903,664.196,664.903z"/>
	<path id="r034" fill="#939598" stroke="#494949" stroke-width="0.5" stroke-miterlimit="10" d="M682.113,617.653H661.53
		l-16.333,16.25l27.5,26.668c3.803-1.926,9.024-3.752,14.527-5.379l-5.111-14.164V617.653z"/>
	<path id="r033" fill="#939598" stroke="#494949" stroke-width="0.5" stroke-miterlimit="10" d="M700.738,617.653h-18.625v23.375
		l5.111,14.164c5.09-1.504,10.414-2.836,15.086-3.912l-1.572-11.502V617.653z"/>
	<path id="r032" fill="#939598" stroke="#494949" stroke-width="0.5" stroke-miterlimit="10" d="M716.029,617.653h-15.292v22.125
		l1.572,11.502c7.768-1.791,13.72-2.877,13.72-2.877V617.653z"/>
	
		<rect x="1222.414" y="666.866" opacity="0.8" stroke="#494949" stroke-miterlimit="10" enable-background="new    " width="14.811" height="14.811"/>
	<g id="g-shp001-g-kio035">
		<polygon fill="#939598" stroke="#494949" stroke-width="0.5" stroke-miterlimit="10" points="346.556,800.934 390.363,844.903 
			412.881,822.297 369.037,778.452 		"/>
		
			<rect x="347.02" y="731.002" transform="matrix(0.7155 0.6986 -0.6986 0.7155 621.8141 -39.6603)" fill="#939598" stroke="#494949" stroke-width="0.5" stroke-miterlimit="10" width="25.158" height="25.158"/>
	</g>
	<path id="g-kio044" fill="#939598" stroke="#494949" stroke-width="0.5" stroke-miterlimit="10" d="M682.14,496.909
		c-1-5.866-8.75-4.063-8.75-4.063s1.75-13.821-5.176-18.592s-20.074,0-20.074,0s0.006,0.026,0.019,0.074
		c0.484-0.038,0.969-0.074,1.463-0.074c10.268,0,18.592,8.324,18.592,18.592c0,6.272-3.115,11.807-7.872,15.174
		c0.002,0.002,0.004,0.005,0.006,0.008C666.055,515.53,683.14,502.775,682.14,496.909z"/>
</g>
<g id="signs">
	<rect id="bus-stop" x="163.04" y="323.23" opacity="0.8" enable-background="new    " width="14.811" height="14.81"/>
	<rect id="van-station" x="192.203" y="810.919" opacity="0.8" enable-background="new    " width="14.811" height="14.811"/>
	<g id="taxi">
		<rect x="259.04" y="228.73" opacity="0.8" enable-background="new    " width="14.811" height="14.81"/>
		<rect x="133.536" y="754.667" opacity="0.8" enable-background="new    " width="14.811" height="14.81"/>
		<rect x="1283.011" y="1016.689" opacity="0.8" enable-background="new    " width="14.813" height="14.81"/>
	</g>
	<g id="parking">
		<rect x="639.844" y="282.492" opacity="0.8" enable-background="new    " width="14.812" height="14.81"/>
		<rect x="1004.656" y="282.492" opacity="0.8" enable-background="new    " width="14.811" height="14.81"/>
		<rect x="1547.679" y="924.023" opacity="0.8" enable-background="new    " width="14.811" height="14.81"/>
	</g>
	<g id="lift">
		<rect x="456.321" y="479.496" opacity="0.8" enable-background="new    " width="14.811" height="14.81"/>
		<rect x="794.474" y="376.618" opacity="0.8" enable-background="new    " width="14.812" height="14.81"/>
		<rect x="1198.56" y="486.9" opacity="0.8" enable-background="new    " width="14.811" height="14.81"/>
		<rect x="998.617" y="593.889" opacity="0.8" enable-background="new    " width="14.811" height="14.811"/>
		<rect x="647.249" y="593.889" opacity="0.8" enable-background="new    " width="14.811" height="14.811"/>
	</g>
	<g id="atm">
		<rect x="800.422" y="153.896" opacity="0.8" enable-background="new    " width="14.812" height="14.81"/>
		<rect x="314.04" y="327.23" opacity="0.8" enable-background="new    " width="14.811" height="14.81"/>
		<rect x="1172.992" y="464.05" opacity="0.8" enable-background="new    " width="14.811" height="14.811"/>
	</g>
	<g id="telephone">
		<rect x="475.654" y="394.829" opacity="0.8" enable-background="new    " width="14.811" height="14.81"/>
		<rect x="1117.466" y="426.486" opacity="0.8" enable-background="new    " width="14.813" height="14.81"/>
		<rect x="875.947" y="338.991" opacity="0.8" enable-background="new    " width="14.811" height="14.81"/>
	</g>
	<g id="stairs">
		<rect x="518.821" y="572.496" opacity="0.8" enable-background="new    " width="14.811" height="14.81"/>
		<rect x="1124.873" y="572.496" opacity="0.8" enable-background="new    " width="14.811" height="14.81"/>
	</g>
	<rect id="information" x="554.874" y="723.362" opacity="0.8" enable-background="new    " width="14.811" height="14.81"/>
	<g id="entrance">
		<rect x="286.706" y="289.897" opacity="0.8" enable-background="new    " width="14.811" height="14.81"/>
		<rect x="66.706" y="623.718" opacity="0.8" enable-background="new    " width="14.811" height="14.811"/>
		<rect x="250.04" y="842.385" opacity="0.8" enable-background="new    " width="14.811" height="14.811"/>
		<rect x="822.938" y="747.262" opacity="0.8" enable-background="new    " width="14.812" height="14.811"/>
		<rect x="623.625" y="825.729" opacity="0.8" enable-background="new    " width="14.811" height="14.81"/>
		<rect x="1016.203" y="825.729" opacity="0.8" enable-background="new    " width="14.811" height="14.81"/>
		<rect x="1268.203" y="976.098" opacity="0.8" enable-background="new    " width="14.811" height="14.811"/>
		<rect x="472.133" y="858.362" opacity="0.8" enable-background="new    " width="14.812" height="14.81"/>
	</g>
	<rect id="baby-change-room" x="982.449" y="593.889" opacity="0.8" enable-background="new    " width="14.811" height="14.811"/>
	<g id="fire-exit">
		<rect x="710.583" y="568.889" opacity="0.8" enable-background="new    " width="14.811" height="14.811"/>
		<rect x="587.028" y="623.719" opacity="0.8" enable-background="new    " width="14.811" height="14.81"/>
		<rect x="479.539" y="739.858" opacity="0.8" enable-background="new    " width="14.811" height="14.809"/>
		<rect x="934.873" y="568.89" opacity="0.8" enable-background="new    " width="14.811" height="14.81"/>
		<rect x="1060.515" y="623.719" opacity="0.8" enable-background="new    " width="14.813" height="14.81"/>
		<rect x="1167.958" y="735.229" opacity="0.8" enable-background="new    " width="14.811" height="14.81"/>
	</g>
	<g id="escalator">
		<rect x="1063.486" y="780.542" opacity="0.8" enable-background="new    " width="14.811" height="14.81"/>
		<rect x="575.249" y="531.556" opacity="0.8" enable-background="new    " width="14.811" height="14.811"/>
		<rect x="797.335" y="531.556" opacity="0.8" enable-background="new    " width="14.812" height="14.811"/>
		<rect x="846.8" y="531.556" opacity="0.8" enable-background="new    " width="14.813" height="14.811"/>
		<rect x="1067.921" y="531.556" opacity="0.8" enable-background="new    " width="14.811" height="14.811"/>
		<rect x="1223.828" y="667.565" opacity="0.8" enable-background="new    " width="14.811" height="14.809"/>
		<rect x="533.061" y="787.947" opacity="0.8" enable-background="new    " width="14.812" height="14.81"/>
		<rect x="824.105" y="667.565" opacity="0.8" enable-background="new    " width="14.811" height="14.81"/>
		<rect x="374.799" y="715.958" opacity="0.8" enable-background="new    " width="14.812" height="14.809"/>
		<rect x="822.938" y="402.234" opacity="0.8" enable-background="new    " width="14.812" height="14.81"/>
		<rect x="915.613" y="651.659" opacity="0.8" enable-background="new    " width="14.811" height="14.81"/>
	</g>
	<g id="handicapped-toilet">
		<rect x="491.758" y="394.829" opacity="0.8" enable-background="new    " width="14.812" height="14.81"/>
		<rect x="1134.875" y="426.486" opacity="0.8" enable-background="new    " width="14.811" height="14.81"/>
		<rect x="892.64" y="338.991" opacity="0.8" enable-background="new    " width="14.811" height="14.81"/>
		<rect x="966.015" y="593.889" opacity="0.8" enable-background="new    " width="14.811" height="14.811"/>
		<rect x="663.583" y="593.889" opacity="0.8" enable-background="new    " width="14.811" height="14.811"/>
	</g>
	<g id="toilet">
		<rect x="507.861" y="394.829" opacity="0.8" enable-background="new    " width="14.811" height="14.81"/>
		<rect x="1153.541" y="426.486" opacity="0.8" enable-background="new    " width="14.811" height="14.81"/>
		<rect x="909.333" y="338.991" opacity="0.8" enable-background="new    " width="14.811" height="14.81"/>
		<rect x="680.016" y="593.889" opacity="0.8" enable-background="new    " width="14.812" height="14.811"/>
		<rect x="949.681" y="593.889" opacity="0.8" enable-background="new    " width="14.813" height="14.811"/>
	</g>
</g>
</svg>
