<?xml version="1.0" encoding="utf-8"?>
<!-- Generator: Adobe Illustrator 16.0.0, SVG Export Plug-In . SVG Version: 6.00 Build 0)  -->
<!DOCTYPE svg PUBLIC "-//W3C//DTD SVG 1.1//EN" "http://www.w3.org/Graphics/SVG/1.1/DTD/svg11.dtd">
<svg version="1.1" id="Layer_1" xmlns="http://www.w3.org/2000/svg" xmlns:xlink="http://www.w3.org/1999/xlink" x="0px" y="0px"
	 width="1000px" height="1000px" viewBox="0 0 1000 1000" enable-background="new 0 0 1000 1000" xml:space="preserve">
<g id="Background">
	<rect y="146.455" fill="#FFFFFF" width="1000" height="707.091"/>
</g>
<g id="Original" display="none">
</g>
<g id="ETC">
	<polygon fill="#DEDEDE" stroke="#494949" stroke-width="0.5" stroke-miterlimit="10" points="181.732,437.226 239.221,314.467 
		268.084,342.083 327.89,338.46 446.55,289.405 469.474,284.357 490.557,271.885 537.355,271.885 546.146,284.357 550.065,289.108 
		620.086,328.721 689.334,378.014 840.836,479.808 967.573,606.545 789.523,775.389 696.698,672.586 573.168,593.598 
		565.031,585.759 511.047,561.053 482.48,563.844 434.553,578.513 416.974,587.659 341.133,638.378 295.106,677.753 
		228.115,634.458 155.719,620.026 89.203,519.658 150.493,458.368 	"/>
	<circle fill="#DEDEDE" stroke="#494949" stroke-width="0.5" stroke-miterlimit="10" cx="273.014" cy="683.513" r="26.488"/>
	<circle fill="#DEDEDE" stroke="#494949" stroke-width="0.5" stroke-miterlimit="10" cx="273.014" cy="683.514" r="22.093"/>
	<circle fill="#DEDEDE" stroke="#494949" stroke-width="0.5" stroke-miterlimit="10" cx="273.014" cy="683.514" r="11.225"/>
	<circle fill="#DEDEDE" stroke="#494949" stroke-width="0.5" stroke-miterlimit="10" cx="811.616" cy="785.129" r="26.487"/>
	<circle fill="#DEDEDE" stroke="#494949" stroke-width="0.5" stroke-miterlimit="10" cx="811.616" cy="785.129" r="22.093"/>
	<circle fill="#DEDEDE" stroke="#494949" stroke-width="0.5" stroke-miterlimit="10" cx="811.616" cy="785.129" r="11.225"/>
	<path fill="none" stroke="#494949" stroke-width="0.5" stroke-miterlimit="10" d="M224.73,715.049
		c0,0,248.723-31.654,260.601-33.674c11.878-2.019,14.135-3.146,30.051,3.979c15.916,7.127,313.636,136.182,313.636,136.182"/>
	<path fill="#DEDEDE" stroke="#494949" stroke-width="0.5" stroke-miterlimit="10" d="M811.616,763.096L586.53,535.1l-186.482,0.118
		c0,0-109.277,109.752-121.333,119.85c-12.056,10.096-72.04,34.683-114.503-8.196S33.555,515.679,33.555,515.679l37.95-20.607
		l154.472-42.761l216.89-15.322H653.7l81.481,39.673l160.055,202.221L811.616,763.096z"/>
	<path fill="#DEDEDE" stroke="#494949" stroke-width="0.5" stroke-miterlimit="10" d="M411.51,557.667
		c0,0-103.457,103.041-112.009,110.762c-8.552,7.722-4.098,24.054,9.265,23.162c13.363-0.892,20.905-1.484,27.974-2.673
		c7.067-1.188,9.442-6.533,4.098-12.769c-5.345-6.236-16.629-17.521-16.629-17.521l8.018-7.721c0,0,15.322,16.569,19.955,21.321
		c4.634,4.811,9.8,3.622,12.591,3.325s126.321-11.878,134.043-12.77c7.721-0.892,10.867,0,16.568,2.673
		s120.681,49.888,128.639,53.45c8.018,3.562,12.175-0.297,12.175-9.799c0-9.503,0-59.391,0-59.391l32.664,33.556
		c0,0-13.956-0.118-16.153,0.118c-2.198,0.237-4.455,2.494-4.455,5.347c0,2.851-0.118,34.147-0.118,36.701
		c0,2.555,0.297,7.425,5.938,9.621c5.643,2.197,23.459,9.801,23.459,9.801l2.376,5.048c0,0,60.458,26.486,70.852,31.417
		c13.006,6.177,28.804-5.701,11.878-22.746S582.195,557.607,582.195,557.607L411.51,557.667L411.51,557.667z"/>
	
		<line fill="none" stroke="#494949" stroke-width="0.5" stroke-miterlimit="10" x1="33.496" y1="540.741" x2="155.244" y2="658.511"/>
	<path fill="#DEDEDE" stroke="#494949" stroke-width="0.5" stroke-miterlimit="10" d="M47.809,463.594l-16.392,15.857l2.079,3.326
		v19.539c0,0,121.273,120.68,141.466,140.692c20.192,20.016,73.643,28.091,105.535-4.275c31.892-32.367,30.763-31.062,30.763-31.062
		"/>
	
		<rect x="229.302" y="561.123" transform="matrix(0.7039 -0.7103 0.7103 0.7039 -328.4355 339.0073)" fill="#DEDEDE" stroke="#494949" stroke-width="0.5" stroke-miterlimit="10" width="26.191" height="4.632"/>
	
		<rect x="225.91" y="557.73" transform="matrix(0.7039 -0.7103 0.7103 0.7039 -327.0298 335.5932)" fill="#DEDEDE" stroke="#494949" stroke-width="0.5" stroke-miterlimit="10" width="26.191" height="4.631"/>
	<polygon fill="#DEDEDE" stroke="#494949" stroke-width="0.5" stroke-miterlimit="10" points="630.835,269.807 620.857,269.807 
		620.857,236.073 365.542,236.073 365.542,269.807 340.302,269.807 223.126,386.982 268.975,432.83 334.601,367.383 
		653.284,368.333 815.239,529.636 852.951,491.923 	"/>
	<polygon fill="#DEDEDE" stroke="#494949" stroke-width="0.5" stroke-miterlimit="10" points="215.346,520.608 208.22,513.481 
		195.094,526.25 202.399,533.555 	"/>
	<polygon fill="#DEDEDE" stroke="#494949" stroke-width="0.5" stroke-miterlimit="10" points="268.737,533.793 260.958,541.572 
		267.49,548.343 275.448,540.801 	"/>
	<path fill="#DEDEDE" stroke="#494949" stroke-width="0.5" stroke-miterlimit="10" d="M672.646,687.73v40.503l29.693,12.591
		l2.673,6.235c0,0,63.249,28.21,70.673,31.062c7.424,2.851,10.395-5.228,5.82-9.8c-4.572-4.572-85.402-79.878-85.402-79.878
		L672.646,687.73z"/>
	<polygon fill="#DEDEDE" stroke="#494949" stroke-width="0.5" stroke-miterlimit="10" points="248.783,305.737 271.647,282.872 
		298.848,310.072 276.398,332.581 	"/>
	
		<rect x="712.749" y="520.206" transform="matrix(0.7039 -0.7103 0.7103 0.7039 -167.0795 665.7736)" fill="#DEDEDE" stroke="#494949" stroke-width="0.5" stroke-miterlimit="10" width="4.634" height="26.191"/>
	
		<rect x="716.124" y="516.893" transform="matrix(0.704 -0.7102 0.7102 0.704 -163.7477 667.0586)" fill="#DEDEDE" stroke="#494949" stroke-width="0.5" stroke-miterlimit="10" width="4.633" height="26.192"/>
	
		<rect x="625.775" y="456.482" transform="matrix(1 -0.0045 0.0045 1 -2.0634 2.8869)" fill="#DEDEDE" stroke="#494949" stroke-width="0.5" stroke-miterlimit="10" width="26.192" height="4.632"/>
	
		<rect x="627.514" y="451.708" transform="matrix(1 -0.0042 0.0042 1 -1.8905 2.679)" fill="#DEDEDE" stroke="#494949" stroke-width="0.5" stroke-miterlimit="10" width="26.193" height="4.69"/>
	
		<rect x="661.782" y="470.439" transform="matrix(0.704 -0.7102 0.7102 0.704 -142.5179 612.9171)" fill="#DEDEDE" stroke="#494949" stroke-width="0.5" stroke-miterlimit="10" width="4.633" height="14.016"/>
	
		<rect x="519.005" y="432.652" fill="#DEDEDE" stroke="#494949" stroke-width="0.5" stroke-miterlimit="10" width="79.7" height="17.4"/>
	
		<rect x="364.771" y="432.771" fill="#DEDEDE" stroke="#494949" stroke-width="0.5" stroke-miterlimit="10" width="78.097" height="16.926"/>
	
		<rect x="334.886" y="456.772" transform="matrix(1 -0.0045 0.0045 1 -2.0507 1.5616)" fill="#DEDEDE" stroke="#494949" stroke-width="0.5" stroke-miterlimit="10" width="26.192" height="4.69"/>
	
		<rect x="333.596" y="452.007" transform="matrix(1 -0.0045 0.0045 1 -2.0464 1.5688)" fill="#DEDEDE" stroke="#494949" stroke-width="0.5" stroke-miterlimit="10" width="26.191" height="4.692"/>
	<polygon fill="#DEDEDE" stroke="#494949" stroke-width="0.5" stroke-miterlimit="10" points="666.291,492.636 676.803,482.064 
		707.15,512.472 696.816,522.806 	"/>
	<polygon id="_x3C_Path_x3E_" fill="#DEDEDE" stroke="#494949" stroke-width="0.5" stroke-miterlimit="10" points="664.152,502.257 
		657.976,502.257 642.535,517.698 647.286,522.509 638.021,531.833 645.504,539.257 673.477,511.641 	"/>
	<polygon id="_x3C_Path_x3E__1_" fill="#DEDEDE" stroke="#494949" stroke-width="0.5" stroke-miterlimit="10" points="
		296.235,495.962 289.049,503.207 295.225,509.324 302.471,502.02 	"/>
	<polygon id="_x3C_Path_x3E__2_" fill="#DEDEDE" stroke="#494949" stroke-width="0.5" stroke-miterlimit="10" points="
		234.351,554.876 225.621,563.606 228.946,566.932 237.617,558.143 237.617,558.143 234.47,554.757 	"/>
	<polygon id="_x3C_Path_x3E__3_" fill="#DEDEDE" stroke="#494949" stroke-width="0.5" stroke-miterlimit="10" points="
		235.598,573.584 239.399,577.741 248.188,568.951 244.15,564.913 	"/>
</g>
<g id="Rooms">
	<polygon id="b-shp054b" fill="#939598" stroke="#494949" stroke-width="0.5" stroke-miterlimit="10" points="307.162,417.508 
		332.225,442.57 332.344,442.451 336.382,442.451 339.768,439.423 312.566,412.222 	"/>
	<polygon id="b-shp055" fill="#939598" stroke="#494949" stroke-width="0.5" stroke-miterlimit="10" points="289.049,435.028 
		312.092,458.071 316.07,458.071 332.225,442.57 307.162,417.508 	"/>
	<polygon id="b-shp054a" fill="#939598" stroke="#494949" stroke-width="0.5" stroke-miterlimit="10" points="312.566,412.222 
		339.768,439.423 348.854,431.168 321.355,403.729 	"/>
	<polygon id="b-shp056a" fill="#939598" stroke="#494949" stroke-width="0.5" stroke-miterlimit="10" points="273.607,450.054 
		301.224,477.67 306.212,472.74 306.212,467.752 281.209,442.689 	"/>
	<polygon id="b-shp044b-45" fill="#939598" stroke="#494949" stroke-width="0.5" stroke-miterlimit="10" points="508.077,385.438 
		508.077,412.163 516.271,420.478 532.545,420.478 532.545,385.438 	"/>
	
		<rect id="b-shp051" x="365.542" y="385.438" fill="#939598" stroke="#494949" stroke-width="0.5" stroke-miterlimit="10" width="19.718" height="39.316"/>
	<polygon id="b-shp056b" fill="#939598" stroke="#494949" stroke-width="0.5" stroke-miterlimit="10" points="264.758,458.665 
		292.434,486.341 301.224,477.67 273.607,450.054 	"/>
	<polygon id="b-shp053" fill="#939598" stroke="#494949" stroke-width="0.5" stroke-miterlimit="10" points="321.355,403.729 
		348.854,431.168 355.743,424.932 340.005,385.675 	"/>
	<polygon id="b-shp052" fill="#939598" stroke="#494949" stroke-width="0.5" stroke-miterlimit="10" points="365.542,424.812 
		365.542,385.438 340.242,385.438 340.005,385.675 355.743,424.932 355.98,424.812 	"/>
	<polygon id="b-shp046-050" fill="#939598" stroke="#494949" stroke-width="0.5" stroke-miterlimit="10" points="478.085,385.438 
		385.26,385.438 385.26,424.812 421.131,424.812 423.804,420.478 468.404,420.478 478.085,410.797 	"/>
	<polygon id="b-shp057a" fill="#939598" stroke="#494949" stroke-width="0.5" stroke-miterlimit="10" points="257.75,465.436 
		285.544,493.17 292.434,486.341 264.758,458.665 	"/>
	<polygon id="b-shp060a" fill="#939598" stroke="#494949" stroke-width="0.5" stroke-miterlimit="10" points="225.739,530.942 
		237.023,519.599 241.299,523.875 229.956,535.218 	"/>
	<polygon id="b-shp057b" fill="#939598" stroke="#494949" stroke-width="0.5" stroke-miterlimit="10" points="250.683,472.324 
		278.477,500.119 285.544,493.17 257.75,465.436 	"/>
	<polygon id="b-shp058" fill="#939598" stroke="#494949" stroke-width="0.5" stroke-miterlimit="10" points="250.683,472.324 
		239.221,483.431 253.296,497.446 263.986,508.195 270.341,508.195 278.477,500.119 	"/>
	<polygon id="b-shp060b" fill="#939598" stroke="#494949" stroke-width="0.5" stroke-miterlimit="10" points="241.299,523.875 
		229.956,535.218 222.77,528.032 222.77,528.032 222.77,528.032 215.346,520.608 202.399,533.555 223.364,554.579 245.219,533.021 
		245.219,527.794 	"/>
	<polygon id="b-shp061-63" fill="#939598" stroke="#494949" stroke-width="0.5" stroke-miterlimit="10" points="202.399,533.555 
		202.399,533.555 195.094,526.25 151.978,568.061 179.059,595.32 207.507,567.348 210.477,567.348 223.364,554.579 	"/>
	<polygon id="b-shp032a" fill="#939598" stroke="#494949" stroke-width="0.5" stroke-miterlimit="10" points="748.426,486.222 
		719.979,514.135 726.986,521.023 755.256,492.992 	"/>
	<polygon id="b-shp032b" fill="#939598" stroke="#494949" stroke-width="0.5" stroke-miterlimit="10" points="726.986,521.023 
		733.579,527.557 762.086,499.822 755.256,492.992 	"/>
	<polygon id="b-shp033" fill="#939598" stroke="#494949" stroke-width="0.5" stroke-miterlimit="10" points="735.183,473.037 
		708.873,498.872 708.873,503.207 719.979,514.135 748.426,486.222 	"/>
	<polygon id="b-shp036b" fill="#939598" stroke="#494949" stroke-width="0.5" stroke-miterlimit="10" points="669.201,458.189 
		675.08,457.893 696.698,435.682 688.027,426.119 662.015,452.132 	"/>
	<polygon id="b-shp035" fill="#939598" stroke="#494949" stroke-width="0.5" stroke-miterlimit="10" points="706.021,443.938 
		683.098,466.326 683.098,473.097 694.916,484.855 721.048,458.962 	"/>
	<polygon id="b-shp034" fill="#939598" stroke="#494949" stroke-width="0.5" stroke-miterlimit="10" points="721.048,458.962 
		694.916,484.855 708.873,498.753 708.873,498.872 735.183,473.037 	"/>
	<polygon id="b-shp029b" fill="#939598" stroke="#494949" stroke-width="0.5" stroke-miterlimit="10" points="797.66,535.634 
		769.628,563.606 776.221,570.079 804.312,541.988 	"/>
	<polygon id="b-shp030b" fill="#939598" stroke="#494949" stroke-width="0.5" stroke-miterlimit="10" points="777.111,514.788 
		749.02,542.82 763.511,557.667 791.78,529.933 	"/>
	<polygon id="b-shp030a" fill="#939598" stroke="#494949" stroke-width="0.5" stroke-miterlimit="10" points="763.511,557.667 
		769.628,563.606 797.66,535.634 791.78,529.933 	"/>
	<polygon id="b-shp031" fill="#939598" stroke="#494949" stroke-width="0.5" stroke-miterlimit="10" points="762.086,499.822 
		733.579,527.557 745.635,539.494 773.727,511.402 	"/>
	<polygon id="b-shp037b" fill="#939598" stroke="#494949" stroke-width="0.5" stroke-miterlimit="10" points="664.449,402.601 
		636.536,430.276 643.842,437.641 671.873,409.906 	"/>
	
		<rect id="b-shp041b" x="582.017" y="385.438" fill="#939598" stroke="#494949" stroke-width="0.5" stroke-miterlimit="10" width="10.216" height="39.197"/>
	<polygon id="b-shp037a" fill="#939598" stroke="#494949" stroke-width="0.5" stroke-miterlimit="10" points="671.873,409.906 
		643.842,437.641 649.483,443.343 653.225,443.343 653.225,443.401 679.178,417.211 	"/>
	<polygon id="b-shp042b" fill="#939598" stroke="#494949" stroke-width="0.5" stroke-miterlimit="10" points="562.418,385.438 
		562.418,420.596 566.635,424.635 572.812,424.635 572.812,385.438 	"/>
	
		<rect id="b-shp042a" x="572.812" y="385.438" fill="#939598" stroke="#494949" stroke-width="0.5" stroke-miterlimit="10" width="9.204" height="39.197"/>
	<polygon id="b-shp040b-041a" fill="#939598" stroke="#494949" stroke-width="0.5" stroke-miterlimit="10" points="601.556,385.438 
		592.231,385.438 592.231,424.635 601.556,424.635 610.523,424.635 610.523,385.438 	"/>
	<polygon id="b-shp043-44a" fill="#939598" stroke="#494949" stroke-width="0.5" stroke-miterlimit="10" points="532.545,385.438 
		532.545,420.478 562.359,420.478 562.418,420.596 562.418,385.438 	"/>
	<polygon id="b-shp038" fill="#939598" stroke="#494949" stroke-width="0.5" stroke-miterlimit="10" points="664.449,402.601 
		647.286,385.438 646.87,385.438 631.014,424.694 636.536,430.276 	"/>
	<polygon id="b-shp039-040a" fill="#939598" stroke="#494949" stroke-width="0.5" stroke-miterlimit="10" points="620.857,385.438 
		610.523,385.438 610.523,424.635 620.857,424.635 630.954,424.635 631.014,424.694 646.87,385.438 	"/>
	<polygon id="b-shp010a" fill="#939598" stroke="#494949" stroke-width="0.5" stroke-miterlimit="10" points="346.24,483.965 
		345.885,483.965 370.709,508.79 382.587,496.912 357.94,472.265 	"/>
	<polygon id="b-shp009" fill="#939598" stroke="#494949" stroke-width="0.5" stroke-miterlimit="10" points="342.915,484.202 
		330.74,496.199 347.072,512.531 350.992,508.552 361.028,518.529 370.709,508.79 345.885,483.965 	"/>
	<polygon id="b-shp007-008a" fill="#939598" stroke="#494949" stroke-width="0.5" stroke-miterlimit="10" points="305.678,520.965 
		305.678,526.844 329.255,550.422 347.605,532.011 321.179,505.642 	"/>
	<polygon id="b-shp008b" fill="#939598" stroke="#494949" stroke-width="0.5" stroke-miterlimit="10" points="343.093,516.392 
		326.82,500.06 321.179,505.642 347.605,532.011 352.18,527.379 342.143,517.342 	"/>
	<polygon id="b-shp010b" fill="#939598" stroke="#494949" stroke-width="0.5" stroke-miterlimit="10" points="357.94,472.265 
		382.587,496.912 384.487,495.012 385.2,495.012 370.354,459.853 	"/>
	<polygon id="b-shp011b" fill="#939598" stroke="#494949" stroke-width="0.5" stroke-miterlimit="10" points="402.305,456.705 
		389.535,456.705 386.091,459.675 385.438,459.675 390.961,481.292 402.305,481.292 	"/>
	<polygon id="b-shp011a" fill="#939598" stroke="#494949" stroke-width="0.5" stroke-miterlimit="10" points="370.531,459.675 
		370.354,459.853 385.2,495.012 390.427,495.012 390.427,481.292 390.961,481.292 385.438,459.675 	"/>
	<polygon id="b-shp012a" fill="#939598" stroke="#494949" stroke-width="0.5" stroke-miterlimit="10" points="415.43,481.53 
		415.43,456.705 404.68,456.705 402.305,456.705 402.305,481.292 402.305,481.292 402.305,481.292 390.427,481.292 390.427,495.012 
		404.68,495.012 418.34,495.012 418.34,481.53 	"/>
	<polygon id="b-shp012b" fill="#939598" stroke="#494949" stroke-width="0.5" stroke-miterlimit="10" points="418.34,481.53 
		423.565,481.53 423.565,459.081 423.506,459.081 420.834,456.705 415.43,456.705 415.43,481.53 	"/>
	<polygon id="b-shp003a" fill="#939598" stroke="#494949" stroke-width="0.5" stroke-miterlimit="10" points="235.242,590.628 
		234.351,594.073 233.935,594.488 259.71,620.264 273.311,606.604 246.348,579.642 	"/>
	<polygon id="b-shp003b" fill="#939598" stroke="#494949" stroke-width="0.5" stroke-miterlimit="10" points="246.348,579.642 
		273.311,606.604 280.437,599.418 253.534,572.515 	"/>
	<polygon id="b-shp001" fill="#939598" stroke="#494949" stroke-width="0.5" stroke-miterlimit="10" points="206.319,622.64 
		231.856,648.236 245.576,634.458 219.919,608.802 	"/>
	<polygon id="b-shp002a" fill="#939598" stroke="#494949" stroke-width="0.5" stroke-miterlimit="10" points="219.919,608.802 
		245.576,634.458 252.524,627.509 226.809,601.794 	"/>
	<polygon id="b-shp002b" fill="#939598" stroke="#494949" stroke-width="0.5" stroke-miterlimit="10" points="226.809,601.794 
		252.524,627.509 259.71,620.264 233.935,594.488 	"/>
	<polygon id="b-shp013a" fill="#939598" stroke="#494949" stroke-width="0.5" stroke-miterlimit="10" points="434.375,459.14 
		429.148,459.14 429.148,472.384 434.375,472.384 	"/>
	<path id="b-shp013b-014" fill="#939598" stroke="#494949" stroke-width="0.5" stroke-miterlimit="10" d="M434.375,459.14v13.244
		l0,0l0,0h-5.227v9.384h8.61v13.304h25.775c0-6.295,0-29.041,0-35.692L434.375,459.14z"/>
	<polygon id="b-shp006" fill="#939598" stroke="#494949" stroke-width="0.5" stroke-miterlimit="10" points="315.596,564.141 
		292.196,540.741 285.664,540.741 279.903,546.502 306.925,572.871 	"/>
	<polygon id="b-shp004b-5" fill="#939598" stroke="#494949" stroke-width="0.5" stroke-miterlimit="10" points="306.925,572.871 
		279.903,546.502 274.676,551.669 265.293,560.934 287.326,582.908 295.878,574.593 295.878,574.593 295.878,574.593 
		300.748,579.048 301.401,578.395 	"/>
	<polygon id="b-shp004a" fill="#939598" stroke="#494949" stroke-width="0.5" stroke-miterlimit="10" points="253.534,572.515 
		280.437,599.418 286.614,593.241 259.77,566.396 	"/>
	<polygon id="b-shp022c" fill="#939598" stroke="#494949" stroke-width="0.5" stroke-miterlimit="10" points="651.979,490.142 
		647.761,485.925 619.848,513.778 624.124,517.995 633.805,508.314 	"/>
	<polygon id="b-shp024" fill="#939598" stroke="#494949" stroke-width="0.5" stroke-miterlimit="10" points="645.504,539.257 
		657.085,550.778 681.375,526.487 681.375,519.539 673.477,511.641 	"/>
	<polygon id="b-shp022d" fill="#939598" stroke="#494949" stroke-width="0.5" stroke-miterlimit="10" points="639.328,513.778 
		654.234,498.872 654.234,492.339 651.979,490.142 633.805,508.314 	"/>
	<polygon id="b-shp022b" fill="#939598" stroke="#494949" stroke-width="0.5" stroke-miterlimit="10" points="645.683,483.846 
		640.575,483.846 615.216,509.205 619.848,513.778 647.761,485.925 	"/>
	<polygon id="b-shp022a" fill="#939598" stroke="#494949" stroke-width="0.5" stroke-miterlimit="10" points="640.516,483.846 
		633.389,476.66 608.029,502.02 615.216,509.205 640.575,483.846 	"/>
	<polygon id="b-shp028" fill="#939598" stroke="#494949" stroke-width="0.5" stroke-miterlimit="10" points="747.119,585.283 
		740.171,578.335 712.614,605.892 726.57,619.729 747.595,598.884 754.188,592.291 	"/>
	<polygon id="b-shp025-27" fill="#939598" stroke="#494949" stroke-width="0.5" stroke-miterlimit="10" points="701.212,539.375 
		694.856,539.375 670.329,563.903 712.614,605.892 740.171,578.335 	"/>
	<polygon id="b-shp019a" fill="#939598" stroke="#494949" stroke-width="0.5" stroke-miterlimit="10" points="572.812,456.705 
		565.625,456.705 561.765,459.972 561.765,482.064 569.545,482.064 569.545,495.012 581.779,495.012 581.779,479.808 
		581.779,456.705 	"/>
	<path id="b-shp015" fill="#939598" stroke="#494949" stroke-width="0.5" stroke-miterlimit="10" d="M478.382,491.923v-28.329
		l-4.216-4.216l-10.631-0.06c0,6.592,0,29.338,0,35.692h12.472v-3.089L478.382,491.923L478.382,491.923z"/>
	<polygon id="b-shp021" fill="#939598" stroke="#494949" stroke-width="0.5" stroke-miterlimit="10" points="616.403,459.496 
		616.284,459.496 600.962,495.012 608.029,502.02 633.389,476.66 	"/>
	<polygon id="b-shp016" fill="#939598" stroke="#494949" stroke-width="0.5" stroke-miterlimit="10" points="512.115,459.675 
		508.79,463 508.79,492.22 511.105,492.22 511.105,495.012 521.975,495.012 521.975,459.734 	"/>
	<polygon id="b-shp017" fill="#939598" stroke="#494949" stroke-width="0.5" stroke-miterlimit="10" points="521.975,459.734 
		521.975,495.012 542.82,495.012 542.82,459.853 	"/>
	<polygon id="b-shp020b" fill="#939598" stroke="#494949" stroke-width="0.5" stroke-miterlimit="10" points="601.259,459.496 
		598.705,456.705 591.223,456.705 591.223,495.012 600.962,495.012 600.962,495.012 616.284,459.496 	"/>
	<polygon id="b-shp020a" fill="#939598" stroke="#494949" stroke-width="0.5" stroke-miterlimit="10" points="581.779,456.705 
		581.779,479.808 581.779,495.012 591.223,495.012 591.223,456.705 	"/>
	<polygon id="b-shp018" fill="#939598" stroke="#494949" stroke-width="0.5" stroke-miterlimit="10" points="557.786,482.064 
		557.786,459.972 542.82,459.853 542.82,495.012 549.293,495.012 549.293,482.064 	"/>
	<polygon id="topsmarket" fill="#939598" stroke="#494949" stroke-width="0.5" stroke-miterlimit="10" points="151.978,568.061 
		254.899,468.227 244.269,457.596 268.5,433.365 210.654,375.52 255.494,330.681 218.138,293.325 47.809,463.594 	"/>
	<polygon id="homework" fill="#939598" stroke="#494949" stroke-width="0.5" stroke-miterlimit="10" points="726.57,619.729 
		853.664,492.636 967.573,606.545 831.273,742.903 717.188,628.815 	"/>
	<polygon id="b-kio072" fill="#939598" stroke="#494949" stroke-width="0.5" stroke-miterlimit="10" points="676.209,475.234 
		670.092,469.117 664.628,474.521 670.863,480.698 	"/>
	<polygon id="b-kio071" fill="#939598" stroke="#494949" stroke-width="0.5" stroke-miterlimit="10" points="664.093,463.238 
		658.748,468.702 664.628,474.521 670.092,469.117 	"/>
	<polygon id="b-kio021" fill="#939598" stroke="#494949" stroke-width="0.5" stroke-miterlimit="10" points="654.947,471.493 
		649.424,477.075 655.719,483.371 661.302,477.848 	"/>
	<polygon id="b-kio022" fill="#939598" stroke="#494949" stroke-width="0.5" stroke-miterlimit="10" points="655.719,483.371 
		661.896,489.429 667.419,483.846 661.302,477.848 	"/>
	<polygon id="breadtalk" fill="#939598" stroke="#494949" stroke-width="0.5" stroke-miterlimit="10" points="749.436,569.782 
		755.553,575.899 761.076,570.317 755.019,564.26 	"/>
	<polygon id="amor" fill="#939598" stroke="#494949" stroke-width="0.5" stroke-miterlimit="10" points="203.053,597.221 
		209.585,603.872 219.979,593.479 213.505,587.124 	"/>
	<polygon id="bonjour" fill="#939598" stroke="#494949" stroke-width="0.5" stroke-miterlimit="10" points="224.255,576.731 
		213.505,587.124 219.979,593.479 230.491,582.967 	"/>
	<polygon id="kanemochi" fill="#939598" stroke="#494949" stroke-width="0.5" stroke-miterlimit="10" points="224.255,576.731 
		217.9,570.317 207.27,580.948 213.505,587.124 	"/>
	<polygon id="simply-sweet" fill="#939598" stroke="#494949" stroke-width="0.5" stroke-miterlimit="10" points="207.27,580.948 
		197.114,591.104 203.053,597.221 213.505,587.124 	"/>
	<polygon id="b-kio055-056" fill="#939598" stroke="#494949" stroke-width="0.5" stroke-miterlimit="10" points="723.602,525.24 
		714.931,516.569 711.604,519.836 720.395,528.507 729.065,537.178 732.271,533.911 	"/>
	<polygon id="b-kio036" fill="#939598" stroke="#494949" stroke-width="0.5" stroke-miterlimit="10" points="722.414,543.829 
		713.564,535.1 709.586,539.138 718.315,547.868 	"/>
	<polygon id="b-kio037" fill="#939598" stroke="#494949" stroke-width="0.5" stroke-miterlimit="10" points="704.894,526.487 
		700.796,530.348 709.586,539.138 713.564,535.1 	"/>
	<path id="b-kio019" fill="#939598" stroke="#494949" stroke-width="0.5" stroke-miterlimit="10" d="M639.565,468.761
		c5.048,0,9.384-3.146,11.046-7.602h-22.152C630.182,465.613,634.458,468.761,639.565,468.761z"/>
	<path id="kyo-roll-en" fill="#939598" stroke="#494949" stroke-width="0.5" stroke-miterlimit="10" d="M639.565,445.005
		c-4.634,0-8.672,2.673-10.632,6.593h21.263C648.236,447.737,644.197,445.005,639.565,445.005z"/>
	<polygon id="b-kio012" fill="#939598" stroke="#494949" stroke-width="0.5" stroke-miterlimit="10" points="243.022,546.265 
		234.47,554.757 237.617,558.143 246.229,549.412 	"/>
	<polygon id="b-kio002" fill="#939598" stroke="#494949" stroke-width="0.5" stroke-miterlimit="10" points="252.88,556.123 
		244.15,564.913 248.188,568.951 256.979,560.221 	"/>
	<path id="b-kio017" fill="#939598" stroke="#494949" stroke-width="0.5" stroke-miterlimit="10" d="M347.429,469.117
		c4.691,0,8.671-2.672,10.631-6.592h-21.262C338.698,466.386,342.736,469.117,347.429,469.117z"/>
	<path id="b-kio079" fill="#939598" stroke="#494949" stroke-width="0.5" stroke-miterlimit="10" d="M347.429,445.361
		c-4.573,0-8.61,2.612-10.57,6.474h21.083C355.98,447.975,352.002,445.361,347.429,445.361z"/>
	<polygon id="b-shp059b" fill="#939598" stroke="#494949" stroke-width="0.5" stroke-miterlimit="10" points="232.213,514.788 
		226.749,509.265 215.346,520.608 220.87,526.131 	"/>
	<polygon id="yamazaki" fill="#939598" stroke="#494949" stroke-width="0.5" stroke-miterlimit="10" points="195.272,606.069 
		188.68,599.418 177.99,610.108 184.761,616.463 	"/>
	<polygon id="farm-design" fill="#939598" stroke="#494949" stroke-width="0.5" stroke-miterlimit="10" points="177.99,610.108 
		167.894,620.204 174.308,626.737 184.761,616.463 	"/>
	<polygon id="southern-coffee" fill="#939598" stroke="#494949" stroke-width="0.5" stroke-miterlimit="10" points="
		201.271,612.068 195.272,606.069 184.761,616.463 190.997,622.342 	"/>
	<polygon id="heads-or-tails" fill="#939598" stroke="#494949" stroke-width="0.5" stroke-miterlimit="10" points="184.761,616.463 
		174.308,626.737 180.425,632.973 190.997,622.342 	"/>
	<polygon id="wine-i-love-you-sweet-cafe" fill="#939598" stroke="#494949" stroke-width="0.5" stroke-miterlimit="10" points="
		262.442,527.2 247.892,541.038 254.484,547.986 260.958,541.572 260.958,541.572 268.737,533.793 	"/>
	<polygon id="first-snow" fill="#939598" stroke="#494949" stroke-width="0.5" stroke-miterlimit="10" points="254.484,547.986 
		260.838,554.697 267.49,548.343 260.958,541.572 	"/>
	<polygon id="potato-s-corner" fill="#939598" stroke="#494949" stroke-width="0.5" stroke-miterlimit="10" points="
		289.049,516.035 282.872,509.265 274.617,516.808 281.031,523.459 	"/>
	<polygon id="owlvee-soft" fill="#939598" stroke="#494949" stroke-width="0.5" stroke-miterlimit="10" points="274.617,516.808 
		267.49,523.28 273.845,530.229 281.031,523.459 	"/>
	<polygon id="secret-recipe" fill="#939598" stroke="#494949" stroke-width="0.5" stroke-miterlimit="10" points="273.845,530.229 
		279.903,536.881 287.386,530.051 281.031,523.459 	"/>
	<polygon id="cinnabon" fill="#939598" stroke="#494949" stroke-width="0.5" stroke-miterlimit="10" points="289.049,516.035 
		281.031,523.459 287.386,530.051 295.285,522.865 	"/>
	<polygon id="all-coco" fill="#939598" stroke="#494949" stroke-width="0.5" stroke-miterlimit="10" points="302.471,502.02 
		295.225,509.324 302.114,516.154 309.479,508.79 	"/>
	<g id="b-kio016-b-kio081">
		<polygon fill="#939598" stroke="#494949" stroke-width="0.5" stroke-miterlimit="10" points="324.088,467.396 309.598,482.361 
			313.933,486.519 328.543,471.73 		"/>
		<polygon fill="#939598" stroke="#494949" stroke-width="0.5" stroke-miterlimit="10" points="318.328,490.795 322.841,495.13 
			337.271,480.224 332.938,475.947 		"/>
	</g>
	
		<rect id="coffee-world" x="307.341" y="533.547" transform="matrix(0.6982 -0.7159 0.7159 0.6982 -296.3903 386.1673)" fill="#939598" stroke="#494949" stroke-width="0.5" stroke-miterlimit="10" width="5.048" height="22.211"/>
	<g id="b-shp059c">
		<polygon fill="#939598" stroke="#494949" stroke-width="0.5" stroke-miterlimit="10" points="220.87,526.131 232.213,514.788 
			237.023,519.599 225.739,530.942 		"/>
		<polygon fill="#939598" stroke="#494949" stroke-width="0.5" stroke-miterlimit="10" points="254.009,513.601 245.932,505.701 
			242.369,509.265 250.505,517.223 		"/>
	</g>
	<polygon id="gindaco" fill="#939598" stroke="#494949" stroke-width="0.5" stroke-miterlimit="10" points="239.874,496.496 
		236.786,499.644 237.023,499.881 236.786,499.644 233.341,503.147 237.202,506.89 243.734,500.237 	"/>
	<polygon id="s-p" fill="#939598" stroke="#494949" stroke-width="0.5" stroke-miterlimit="10" points="235.895,492.636 
		232.807,495.783 233.044,496.021 232.807,495.783 229.362,499.287 233.223,503.088 239.755,496.438 	"/>
	<path id="go-tiew-kan" fill="#939598" stroke="#494949" stroke-width="0.5" stroke-miterlimit="10" d="M223.364,656.967
		c0,0-26.369-0.713-38.604-13.007l17.401-18.232l26.191,25.598L223.364,656.967z"/>
	
		<rect id="b-shp036a" x="664.388" y="416.319" transform="matrix(0.7071 0.7071 -0.7071 0.7071 503.8642 -346.8821)" fill="#939598" stroke="#494949" stroke-width="0.5" stroke-miterlimit="10" width="12.47" height="36.82"/>
	
		<rect id="whiteday-patisserie" x="296.636" y="495.136" transform="matrix(0.7071 0.7071 -0.7071 0.7071 442.704 -70.0183)" fill="#939598" stroke="#494949" stroke-width="0.5" stroke-miterlimit="10" width="18.47" height="8.491"/>
	
		<rect id="cafe-amazon" x="496.615" y="463.594" fill="#939598" stroke="#494949" stroke-width="0.5" stroke-miterlimit="10" width="6.829" height="26.191"/>
	
		<rect id="dunkin-donuts" x="489.785" y="463.594" fill="#939598" stroke="#494949" stroke-width="0.5" stroke-miterlimit="10" width="6.83" height="26.191"/>
</g>
<g id="Signs">
	<g id="atm">
		<rect x="482.836" y="370.769" opacity="0.8" enable-background="new    " width="8.79" height="8.79"/>
		<rect x="482.836" y="477.67" opacity="0.8" enable-background="new    " width="8.79" height="8.789"/>
	</g>
	<rect id="parking" x="488.775" y="308.41" opacity="0.8" enable-background="new    " width="8.79" height="8.79"/>
	<g id="toilet">
		<rect x="677.1" y="411.807" opacity="0.8" enable-background="new    " width="8.789" height="8.79"/>
		<rect x="541.335" y="370.769" opacity="0.8" enable-background="new    " width="8.79" height="8.79"/>
		<rect x="274.676" y="413.113" opacity="0.8" enable-background="new    " width="8.79" height="8.79"/>
		<rect x="202.221" y="504.87" opacity="0.8" enable-background="new    " width="8.79" height="8.789"/>
	</g>
	<rect id="bus-stop" x="58.202" y="568.12" opacity="0.8" enable-background="new    " width="8.79" height="8.789"/>
	<rect id="van-station" x="62.597" y="358" opacity="0.8" enable-background="new    " width="8.79" height="8.79"/>
	<g id="taxi">
		<rect x="94.37" y="604.406" opacity="0.8" enable-background="new    " width="8.79" height="8.79"/>
		<rect x="141.05" y="291.187" opacity="0.8" enable-background="new    " width="8.79" height="8.79"/>
	</g>
	<g id="handicapped-toilet">
		<rect x="687.908" y="411.807" opacity="0.8" enable-background="new    " width="8.79" height="8.79"/>
		<rect x="552.144" y="370.769" opacity="0.8" enable-background="new    " width="8.79" height="8.79"/>
		<rect x="285.485" y="413.113" opacity="0.8" enable-background="new    " width="8.79" height="8.79"/>
		<rect x="213.089" y="504.87" opacity="0.8" enable-background="new    " width="8.79" height="8.789"/>
	</g>
	<g id="telephone">
		<rect x="698.717" y="411.807" opacity="0.8" enable-background="new    " width="8.79" height="8.79"/>
		<rect x="562.953" y="370.769" opacity="0.8" enable-background="new    " width="8.789" height="8.79"/>
		<rect x="296.354" y="413.113" opacity="0.8" enable-background="new    " width="8.79" height="8.79"/>
		<rect x="223.898" y="504.87" opacity="0.8" enable-background="new    " width="8.79" height="8.789"/>
	</g>
	<g id="elevator">
		<rect x="472.443" y="370.769" opacity="0.8" enable-background="new    " width="8.789" height="8.79"/>
		<rect x="265.708" y="433.425" opacity="0.8" enable-background="new    " width="8.79" height="8.789"/>
		<rect x="713.208" y="436.987" opacity="0.8" enable-background="new    " width="8.79" height="8.79"/>
	</g>
	<g id="stairs">
		<rect x="319.04" y="477.075" opacity="0.8" enable-background="new    " width="8.79" height="8.79"/>
		<rect x="666.35" y="477.67" opacity="0.8" enable-background="new    " width="8.79" height="8.789"/>
	</g>
	<g id="escalator">
		<rect x="224.73" y="568.12" opacity="0.8" enable-background="new    " width="8.79" height="8.789"/>
		<rect x="618.66" y="451.062" opacity="0.8" enable-background="new    " width="8.79" height="8.789"/>
		<rect x="712.793" y="526.785" opacity="0.8" enable-background="new    " width="8.789" height="8.789"/>
		<rect x="324.742" y="452.311" opacity="0.8" enable-background="new    " width="8.789" height="8.789"/>
		<rect x="488.775" y="424.635" opacity="0.8" enable-background="new    " width="8.79" height="8.79"/>
	</g>
	<g id="fire-exit">
		<rect x="479.985" y="482.064" opacity="0.8" enable-background="new    " width="8.79" height="8.788"/>
		<rect x="349.21" y="514.254" opacity="0.8" enable-background="new    " width="8.79" height="8.789"/>
		<rect x="424.338" y="483.608" opacity="0.8" enable-background="new    " width="8.789" height="8.79"/>
		<rect x="554.4" y="483.608" opacity="0.8" enable-background="new    " width="8.79" height="8.79"/>
		<rect x="630.122" y="514.669" opacity="0.8" enable-background="new    " width="8.79" height="8.79"/>
		<rect x="696.698" y="582.076" opacity="0.8" enable-background="new    " width="8.789" height="8.79"/>
	</g>
</g>
</svg>
