<?xml version="1.0" encoding="utf-8"?>
<!-- Generator: Adobe Illustrator 16.0.0, SVG Export Plug-In . SVG Version: 6.00 Build 0)  -->
<!DOCTYPE svg PUBLIC "-//W3C//DTD SVG 1.1//EN" "http://www.w3.org/Graphics/SVG/1.1/DTD/svg11.dtd">
<svg version="1.1" id="Layer_1" xmlns="http://www.w3.org/2000/svg" xmlns:xlink="http://www.w3.org/1999/xlink" x="0px" y="0px"
	 width="1000px" height="1000px" viewBox="0 0 1000 1000" enable-background="new 0 0 1000 1000" xml:space="preserve">
<g id="Background">
	<rect y="146.455" fill="#FFFFFF" width="1000" height="707.091"/>
</g>
<g id="Original" display="none">
</g>
<g id="ETC">
	<polygon fill="#DEDEDE" stroke="#494949" stroke-width="0.5" stroke-miterlimit="10" points="171.992,339.352 201.152,310.191 
		268.144,364.295 320.703,319.872 441.501,269.807 442.511,235.776 542.879,235.776 543.77,269.807 612.899,310.191 
		682.147,359.484 844.578,519.183 806.449,623.055 691.175,650.493 503.86,542.522 333.947,619.848 208.279,641.229 
		148.474,601.497 151.087,431.88 	"/>
	<path fill="#DEDEDE" stroke="#494949" stroke-width="0.5" stroke-miterlimit="10" d="M805.855,426.892l-9.621,9.027l-5.938-5.88
		c3.563-3.623,5.701-8.611,5.701-14.075c0-11.165-9.027-20.192-20.192-20.192c-5.523,0-10.452,2.197-14.135,5.761l-13.719-13.719
		c3.385-3.623,5.464-8.434,5.464-13.778c0-11.166-9.027-20.192-20.192-20.192c-5.346,0-10.215,2.078-13.838,5.463l-12.234-12.175
		c3.623-3.623,5.88-8.671,5.88-14.194c0-11.165-9.027-20.192-20.192-20.192c-5.583,0-10.631,2.257-14.254,5.879l-7.482-7.424
		l9.383-8.493l-34.268-32.842H543.77v98.111l109.515,0.297l161.955,161.361l46.562-46.562L805.855,426.892z"/>
	
		<rect x="332.644" y="456.648" transform="matrix(-1 0.0044 -0.0044 -1 695.8041 916.4042)" fill="#DEDEDE" stroke="#494949" stroke-width="0.5" stroke-miterlimit="10" width="28.507" height="4.633"/>
	<path fill="#DEDEDE" stroke="#494949" stroke-width="0.5" stroke-miterlimit="10" d="M791.246,714.693l-47.036-47.037l-5.464-5.464
		l2.91-2.91l-6.593-6.592l3.86-3.86l-6.533-6.533l3.802-3.801l-7.187-7.186l4.691-4.752L600.902,495.012H384.487L231.856,648.236
		l-79.938-80.176l-0.891,0.891l-56.242-57.43l9.086-9.502l-46.383-46.384l-8.255,8.256l3.029,3.028l-4.632,4.633l1.663,1.662
		c0,0-14.373,15.561-13.838,32.962h8.73c0.356,13.659,6.651,22.33,9.977,25.953l-7.542,7.542l95.914,96.508l3.563-3.563l7.246,7.246
		l-2.792,2.791l10.512,10.512l2.435-2.435l8.255,8.255l-2.375,2.376c14.966,19.302,37.593,19.479,37.593,19.479l-0.059-0.06
		c29.397,4.752,46.383-11.937,46.442-11.996c8.255-5.049,19.896-7.067,19.896-7.067l8.374-14.551l17.282,7.661l-4.929,10.215
		c13.541,4.276,19.717,16.748,19.717,16.748c2.435-0.416,4.751-0.891,7.008-1.484c32.308-8.196,45.433-33.08,45.433-33.08
		l-3.504-3.504l-1.247,1.247l-0.118-0.119l16.391-16.629l3.029,2.97c0,0,20.905-7.305,30.645-25.24l-13.006-13.007l1.247-2.197
		l15.916-0.178l2.97-2.376l3.089,2.851l0,0l2.435,2.494c0,0,3.444,0.95,8.849,1.723c4.276,0.594,9.74,1.128,15.738,1.01
		c7.899-0.179,16.629-1.426,24.706-4.93c0,0,1.426-2.197,3.207-5.701l33.377-0.476c0.95,2.436,1.96,4.455,2.91,5.762
		c0,0,13.601,5.166,29.933,5.463c6.474,0.119,13.422-0.534,20.133-2.612l3.444-3.445l-0.06-0.059l2.079-2.376l1.426,1.663
		l-0.119,0.118l3.563,3.683l-2.494,3.088c0,0,0.831,3.089,3.207,7.543c1.604,2.91,3.86,6.474,7.067,10.155
		c5.345,6.117,13.303,12.591,24.884,17.282l2.851-2.494l11.997,11.7L619.313,642c4.514,7.78,10.69,14.61,16.866,20.252
		c6.236,5.701,12.354,10.097,16.57,12.828c3.028,1.96,4.988,3.088,5.285,3.267l8.85,8.968l-2.376,2.376l-2.316-2.316l-1.663,1.663
		c3.089,5.879,6.474,10.986,10.037,15.44c4.454,5.583,9.205,10.216,13.957,13.957c5.82,4.573,11.699,7.839,17.163,10.274
		c15.145,6.651,27.319,6.295,27.319,6.295l14.372-9.027l-0.416-2.375l18.945-3.504l0.06,0.059v2.495c0,0,9.502-0.713,12.769,1.484
		s16.035,5.464,22.806-2.91L791.246,714.693z"/>
	<path fill="#DEDEDE" stroke="#494949" stroke-width="0.5" stroke-miterlimit="10" d="M585.877,430.989
		c0,0,0.297,14.967,13.066,17.876c12.769,2.91,22.687-5.166,25.894-11.402C627.984,431.227,597.398,426.654,585.877,430.989z"/>
	<circle fill="#DEDEDE" stroke="#494949" stroke-width="0.5" stroke-miterlimit="10" cx="493.111" cy="439.838" r="26.725"/>
	<circle fill="#DEDEDE" stroke="#494949" stroke-width="0.5" stroke-miterlimit="10" cx="493.111" cy="439.838" r="13.363"/>
	<circle fill="#DEDEDE" stroke="#494949" stroke-width="0.5" stroke-miterlimit="10" cx="385.794" cy="439.125" r="11.046"/>
	
		<rect x="623.952" y="451.838" transform="matrix(-1 0.0045 -0.0045 -1 1278.4429 905.4995)" fill="#DEDEDE" stroke="#494949" stroke-width="0.5" stroke-miterlimit="10" width="28.507" height="4.691"/>
	
		<rect x="330.565" y="451.838" transform="matrix(-1 0.0044 -0.0044 -1 691.6249 906.7922)" fill="#DEDEDE" stroke="#494949" stroke-width="0.5" stroke-miterlimit="10" width="28.507" height="4.633"/>
	<polygon fill="#DEDEDE" stroke="#494949" stroke-width="0.5" stroke-miterlimit="10" points="230.312,571.089 226.987,567.764 
		228.056,566.754 247.06,547.512 250.386,550.778 	"/>
	
		<rect x="229.303" y="558.925" transform="matrix(-0.7041 0.7101 -0.7101 -0.7041 813.5846 783.4558)" fill="#DEDEDE" stroke="#494949" stroke-width="0.5" stroke-miterlimit="10" width="28.507" height="4.632"/>
	
		<rect x="626.149" y="456.649" transform="matrix(-1 0.0045 -0.0045 -1 1282.8589 915.1108)" fill="#DEDEDE" stroke="#494949" stroke-width="0.5" stroke-miterlimit="10" width="28.508" height="4.691"/>
	
		<rect x="717.114" y="517.385" transform="matrix(-0.7041 0.7101 -0.7101 -0.7041 1603.5066 395.1591)" fill="#DEDEDE" stroke="#494949" stroke-width="0.5" stroke-miterlimit="10" width="4.632" height="28.507"/>
	
		<rect x="719.379" y="514.252" transform="matrix(-0.7041 0.7101 -0.7101 -0.7041 1604.1731 385.8834)" fill="#DEDEDE" stroke="#494949" stroke-width="0.5" stroke-miterlimit="10" width="4.632" height="25.775"/>
	
		<rect x="709.451" y="524.364" transform="matrix(-0.7041 0.7101 -0.7101 -0.7041 1594.4333 410.1661)" fill="#DEDEDE" stroke="#494949" stroke-width="0.5" stroke-miterlimit="10" width="4.632" height="25.775"/>
	
		<rect x="711.899" y="518.701" transform="matrix(-0.704 0.7102 -0.7102 -0.704 1595.535 400.9723)" fill="#DEDEDE" stroke="#494949" stroke-width="0.5" stroke-miterlimit="10" width="4.633" height="28.507"/>
	<polygon fill="#DEDEDE" stroke="#494949" stroke-width="0.5" stroke-miterlimit="10" points="224.611,563.071 243.319,544.423 
		246.704,547.868 228.056,566.754 	"/>
	<polygon fill="#DEDEDE" stroke="#494949" stroke-width="0.5" stroke-miterlimit="10" points="235.657,572.455 239.221,576.078 
		257.394,557.904 253.712,554.223 	"/>
	<polygon fill="#DEDEDE" stroke="#494949" stroke-width="0.5" stroke-miterlimit="10" points="333.947,451.895 341.371,444.471 
		349.804,444.887 356.693,451.775 	"/>
	<polygon fill="#DEDEDE" stroke="#494949" stroke-width="0.5" stroke-miterlimit="10" points="333.947,461.338 358.118,461.219 
		349.686,469.711 341.965,469.711 	"/>
	<polygon fill="#DEDEDE" stroke="#494949" stroke-width="0.5" stroke-miterlimit="10" points="627.152,451.775 634.873,444.055 
		643.01,444.055 651.384,451.775 	"/>
	<polygon fill="#DEDEDE" stroke="#494949" stroke-width="0.5" stroke-miterlimit="10" points="627.807,461.338 652.453,461.219 
		643.485,469.711 635.765,469.711 	"/>
	<polygon fill="#DEDEDE" stroke="#494949" stroke-width="0.5" stroke-miterlimit="10" points="81.601,504.988 91.282,514.729 
		103.872,502.078 94.429,492.636 	"/>
	
		<rect x="471.036" y="429.085" transform="matrix(-0.9206 0.3904 -0.3904 -0.9206 1081.7672 670.8043)" fill="#DEDEDE" stroke="#494949" stroke-width="0.5" stroke-miterlimit="10" width="3.327" height="32.547"/>
	
		<rect x="497.503" y="443.685" transform="matrix(-0.4412 0.8974 -0.8974 -0.4412 1140.1088 180.7627)" fill="#DEDEDE" stroke="#494949" stroke-width="0.5" stroke-miterlimit="10" width="32.545" height="3.325"/>
	
		<rect x="505.003" y="525.307" transform="matrix(-0.9234 0.3838 -0.3838 -0.9234 1182.9424 843.0457)" fill="#DEDEDE" stroke="#494949" stroke-width="0.5" stroke-miterlimit="10" width="4.691" height="28.508"/>
	
		<rect x="466.709" y="537.469" transform="matrix(-0.3742 0.9273 -0.9273 -0.3742 1161.5083 295.7584)" fill="#DEDEDE" stroke="#494949" stroke-width="0.5" stroke-miterlimit="10" width="28.506" height="4.632"/>
	
		<ellipse fill="#DEDEDE" stroke="#494949" stroke-width="0.5" stroke-miterlimit="10" cx="493.823" cy="540.503" rx="26.369" ry="16.273"/>
	
		<ellipse transform="matrix(-0.7071 -0.7071 0.7071 -0.7071 723.035 1591.6979)" fill="#DEDEDE" stroke="#494949" stroke-width="0.5" stroke-miterlimit="10" cx="691.169" cy="646.104" rx="28.566" ry="10.691"/>
	<path fill="#DEDEDE" stroke="#494949" stroke-width="0.5" stroke-miterlimit="10" d="M634.279,600.784
		c-0.178,4.514-0.118,15.738,9.562,16.272c9.68,0.534,25.418-2.376,17.816-15.738S635.289,574.771,634.279,600.784z"/>
	<path fill="#DEDEDE" stroke="#494949" stroke-width="0.5" stroke-miterlimit="10" d="M307.281,624.005
		c-3.801-5.048-8.908-20.311,13.362-18.707c22.271,1.604,20.431,13.896,9.324,22.033
		C318.862,635.468,314.526,633.567,307.281,624.005z"/>
	<path fill="#DEDEDE" stroke="#494949" stroke-width="0.5" stroke-miterlimit="10" d="M339.292,269.807l-8.374,8.374
		c-3.623-3.326-8.374-5.345-13.659-5.345c-11.165,0-20.192,9.027-20.192,20.192c0,5.286,2.019,10.037,5.345,13.66l-3.267,3.266
		c-3.563-3.207-8.314-5.167-13.481-5.167c-11.166,0-20.192,9.027-20.192,20.192c0,5.167,1.959,9.918,5.167,13.481l-5.939,5.939
		l46.443,46.443l23.577-23.519l106.842,0.297v-97.814H339.292z"/>
	<polygon id="g-shp087d" fill="#DEDEDE" stroke="#494949" stroke-width="0.5" stroke-miterlimit="10" points="462.585,360.494 
		462.585,326.939 442.511,326.939 442.511,368.096 453.201,368.096 453.201,360.494 	"/>
	<path fill="#DEDEDE" stroke="#494949" stroke-width="0.5" stroke-miterlimit="10" d="M722.235,667.835v12.353l39.91,39.91v2.494
		c0,0,9.502-0.713,12.769,1.484s16.035,5.464,22.806-2.91l-53.569-53.569L722.235,667.835z"/>
	<path fill="#DEDEDE" stroke="#494949" stroke-width="0.5" stroke-miterlimit="10" d="M698.717,677.04l-0.297-0.237l-27.675,27.675
		c4.454,5.583,9.205,10.216,13.956,13.957l27.379-27.379L698.717,677.04z"/>
	<path fill="#DEDEDE" stroke="#494949" stroke-width="0.5" stroke-miterlimit="10" d="M743.2,723.542l-17.698-18.47l-23.637,23.637
		c15.144,6.651,27.318,6.295,27.318,6.295l14.373-9.027L743.2,723.542z"/>
	<path fill="#DEDEDE" stroke="#494949" stroke-width="0.5" stroke-miterlimit="10" d="M712.08,690.996l-27.379,27.379
		c5.82,4.573,11.7,7.84,17.164,10.274l23.637-23.637L712.08,690.996z"/>
	<polygon fill="#DEDEDE" stroke="#494949" stroke-width="0.5" stroke-miterlimit="10" points="334.897,368.096 317.377,385.438 
		324.86,393.277 337.748,380.687 346.656,380.687 346.656,368.155 	"/>
	<polygon fill="#DEDEDE" stroke="#494949" stroke-width="0.5" stroke-miterlimit="10" points="346.656,368.155 346.656,380.687 
		384.844,380.687 384.844,368.333 	"/>
	<polygon fill="#DEDEDE" stroke="#494949" stroke-width="0.5" stroke-miterlimit="10" points="411.51,368.512 384.844,368.333 
		384.844,380.687 411.51,380.687 	"/>
	
		<rect x="674.535" y="395.835" transform="matrix(-0.7071 0.7071 -0.7071 -0.7071 1446.5806 209.4625)" fill="#DEDEDE" stroke="#494949" stroke-width="0.5" stroke-miterlimit="10" width="10.749" height="16.985"/>
	<polygon fill="#DEDEDE" stroke="#494949" stroke-width="0.5" stroke-miterlimit="10" points="652.631,369.402 594.37,369.402 
		594.37,381.043 649.067,381.043 670.092,402.067 677.693,394.524 	"/>
	
		<rect x="688.208" y="409.126" transform="matrix(-0.7071 0.7071 -0.7071 -0.7071 1479.4409 222.7613)" fill="#DEDEDE" stroke="#494949" stroke-width="0.5" stroke-miterlimit="10" width="10.749" height="17.342"/>
	<polygon fill="#DEDEDE" stroke="#494949" stroke-width="0.5" stroke-miterlimit="10" points="524.706,428.673 529.694,436.334 
		535.337,436.334 535.337,451.36 541.869,451.36 541.869,428.673 	"/>
	
		<rect x="541.869" y="428.673" fill="#DEDEDE" stroke="#494949" stroke-width="0.5" stroke-miterlimit="10" width="15.917" height="22.688"/>
	
		<rect x="557.727" y="428.673" fill="#DEDEDE" stroke="#494949" stroke-width="0.5" stroke-miterlimit="10" width="15.679" height="22.688"/>
	<polygon fill="#DEDEDE" stroke="#494949" stroke-width="0.5" stroke-miterlimit="10" points="523.162,359.484 537.118,359.484 
		538.307,359.484 542.879,359.484 542.879,344.756 523.162,344.756 	"/>
	
		<rect x="523.162" y="359.484" fill="#DEDEDE" stroke="#494949" stroke-width="0.5" stroke-miterlimit="10" width="13.956" height="20.192"/>
	<polygon fill="#DEDEDE" stroke="#494949" stroke-width="0.5" stroke-miterlimit="10" points="523.162,294.572 523.162,310.191 
		523.162,326.939 523.162,344.756 542.879,344.756 542.879,294.572 	"/>
	<polygon fill="#DEDEDE" stroke="#494949" stroke-width="0.5" stroke-miterlimit="10" points="527.676,392.861 541.869,392.861 
		541.869,385.438 506.948,385.438 506.948,392.861 	"/>
	<path fill="#DEDEDE" stroke="#494949" stroke-width="0.5" stroke-miterlimit="10" d="M442.511,235.776v16.272v18.767h12.234h7.78
		v-35.04C453.973,235.776,442.511,235.776,442.511,235.776z"/>
	<polygon fill="#DEDEDE" stroke="#494949" stroke-width="0.5" stroke-miterlimit="10" points="762.323,500.06 736.014,526.369 
		746.822,537.237 773.191,510.868 	"/>
	<path fill="#DEDEDE" stroke="#494949" stroke-width="0.5" stroke-miterlimit="10" d="M694.619,588.074l-23.459,23.459
		c0,0.356,0,0.713,0,1.129c0,0,7.603,3.444,14.432,7.245l20.431-20.43L694.619,588.074z"/>
	<path id="_x3C_Path_x3E_" fill="#DEDEDE" stroke="#494949" stroke-width="0.5" stroke-miterlimit="10" d="M419.111,551.075
		c-7.898,2.019-15.856,5.522-23.043,11.343l26.488,25.953l-1.604,2.139l3.147,3.207c0,0,3.444,0.95,8.849,1.722v-7.186
		L419.111,551.075z"/>
</g>
<g id="Rooms">
	<polygon id="g-shp046-047" fill="#939598" stroke="#494949" stroke-width="0.5" stroke-miterlimit="10" points="478.085,385.438 
		444.055,385.438 444.055,419.468 467.396,419.646 478.085,408.481 	"/>
	<polygon id="g-shp054a" fill="#939598" stroke="#494949" stroke-width="0.5" stroke-miterlimit="10" points="307.281,417.389 
		332.105,442.273 339.471,434.909 314.765,410.144 	"/>
	<polygon id="g-shp055b" fill="#939598" stroke="#494949" stroke-width="0.5" stroke-miterlimit="10" points="299.857,424.575 
		324.86,449.519 332.105,442.273 307.281,417.389 	"/>
	<polygon id="g-shp048a-b-049-050-051a-b" fill="#939598" stroke="#494949" stroke-width="0.5" stroke-miterlimit="10" points="
		404.264,385.438 384.844,385.438 374.392,385.438 363.761,385.438 363.761,418.934 374.392,418.993 384.844,419.111 
		404.264,419.23 444.055,419.468 444.055,385.438 	"/>
	<polygon id="g-shp052-53-54b" fill="#939598" stroke="#494949" stroke-width="0.5" stroke-miterlimit="10" points="
		340.242,385.438 314.765,410.144 339.471,434.909 355.446,418.874 363.761,418.934 363.761,385.438 	"/>
	<polygon id="g-shp062" fill="#939598" stroke="#494949" stroke-width="0.5" stroke-miterlimit="10" points="165.994,554.46 
		192.719,581.245 206.2,567.764 206.319,567.764 179.712,541.157 	"/>
	<polygon id="g-shp061" fill="#939598" stroke="#494949" stroke-width="0.5" stroke-miterlimit="10" points="179.712,541.157 
		206.319,567.764 211.129,567.764 222.651,556.301 193.788,527.438 	"/>
	<polygon id="g-shp059" fill="#939598" stroke="#494949" stroke-width="0.5" stroke-miterlimit="10" points="218.969,503.029 
		208.279,513.422 236.905,542.048 244.506,534.387 244.506,528.566 	"/>
	<polygon id="g-shp063" fill="#939598" stroke="#494949" stroke-width="0.5" stroke-miterlimit="10" points="151.978,568.061 
		178.881,595.083 192.719,581.245 165.994,554.46 	"/>
	<polygon id="g-shp056b" fill="#939598" stroke="#494949" stroke-width="0.5" stroke-miterlimit="10" points="264.758,458.665 
		292.493,486.399 299.501,479.451 271.826,451.775 	"/>
	<polygon id="g-shp057b" fill="#939598" stroke="#494949" stroke-width="0.5" stroke-miterlimit="10" points="250.505,472.443 
		278.477,500.416 285.544,493.408 257.691,465.495 	"/>
	<polygon id="g-shp057a" fill="#939598" stroke="#494949" stroke-width="0.5" stroke-miterlimit="10" points="257.691,465.495 
		285.544,493.408 292.493,486.399 264.758,458.665 	"/>
	<polygon id="g-shp058" fill="#939598" stroke="#494949" stroke-width="0.5" stroke-miterlimit="10" points="239.102,483.549 
		264.105,508.552 270.341,508.552 278.477,500.416 250.505,472.443 	"/>
	<polygon id="g-shp060" fill="#939598" stroke="#494949" stroke-width="0.5" stroke-miterlimit="10" points="193.788,527.438 
		222.651,556.301 236.905,542.048 208.279,513.422 	"/>
	<polygon id="g-shp035b" fill="#939598" stroke="#494949" stroke-width="0.5" stroke-miterlimit="10" points="706.497,444.471 
		681.791,469.177 681.791,473.394 686.78,478.264 713.505,451.419 	"/>
	<polygon id="g-shp035a" fill="#939598" stroke="#494949" stroke-width="0.5" stroke-miterlimit="10" points="686.78,478.264 
		693.551,484.855 720.275,458.131 713.505,451.419 	"/>
	<polygon id="g-shp037-038" fill="#939598" stroke="#494949" stroke-width="0.5" stroke-miterlimit="10" points="664.331,402.482 
		656.254,394.405 628.815,421.784 637.012,429.802 651.384,443.758 678.524,416.617 	"/>
	<g id="g-shp031-g-shp036">
		<polygon fill="#939598" stroke="#494949" stroke-width="0.5" stroke-miterlimit="10" points="695.154,433.187 678.524,416.617 
			651.384,443.758 665.281,457.299 671.042,457.299 		"/>
	</g>
	<polygon id="g-shp033" fill="#939598" stroke="#494949" stroke-width="0.5" stroke-miterlimit="10" points="734.113,471.909 
		709.586,496.437 724.255,511.105 748.782,486.578 	"/>
	<polygon id="g-shp034" fill="#939598" stroke="#494949" stroke-width="0.5" stroke-miterlimit="10" points="720.275,458.131 
		693.551,484.855 703.706,494.715 707.863,494.715 709.586,496.437 734.113,471.909 	"/>
	<polygon id="g-shp043" fill="#939598" stroke="#494949" stroke-width="0.5" stroke-miterlimit="10" points="541.869,385.438 
		541.869,420.121 561.468,420.24 561.468,385.438 	"/>
	<polygon id="g-shp042b" fill="#939598" stroke="#494949" stroke-width="0.5" stroke-miterlimit="10" points="561.468,385.438 
		561.468,420.24 571.445,420.299 571.445,385.438 	"/>
	<polygon id="g-shp039" fill="#939598" stroke="#494949" stroke-width="0.5" stroke-miterlimit="10" points="647.286,385.438 
		620.738,385.438 620.738,420.656 627.688,420.656 628.815,421.784 656.254,394.405 	"/>
	<polygon id="g-shp040a" fill="#939598" stroke="#494949" stroke-width="0.5" stroke-miterlimit="10" points="611.355,385.438 
		611.355,420.596 620.738,420.656 620.738,385.438 	"/>
	<polygon id="g-shp040b" fill="#939598" stroke="#494949" stroke-width="0.5" stroke-miterlimit="10" points="600.962,385.438 
		600.962,420.478 611.355,420.596 611.355,385.438 	"/>
	<polygon id="g-shp041" fill="#939598" stroke="#494949" stroke-width="0.5" stroke-miterlimit="10" points="580.948,385.438 
		580.948,420.359 600.962,420.478 600.962,385.438 	"/>
	<polygon id="g-shp056a" fill="#939598" stroke="#494949" stroke-width="0.5" stroke-miterlimit="10" points="271.826,451.775 
		299.501,479.451 304.371,474.521 304.371,469.949 304.371,469.949 279.13,444.708 	"/>
	<polygon id="g-shp055a" fill="#939598" stroke="#494949" stroke-width="0.5" stroke-miterlimit="10" points="318.328,455.992 
		324.86,449.519 299.857,424.575 290.711,433.425 313.279,455.992 	"/>
	<polygon id="g-shp009" fill="#939598" stroke="#494949" stroke-width="0.5" stroke-miterlimit="10" points="345.646,483.668 
		345.646,483.668 341.43,483.668 329.968,495.13 347.547,512.769 351.883,508.434 361.563,518.055 370.769,508.79 351.942,489.963 	
		"/>
	
		<rect id="g-shp012b" x="417.33" y="458.605" fill="#939598" stroke="#494949" stroke-width="0.5" stroke-miterlimit="10" width="6.295" height="21.975"/>
	<path id="g-shp084" fill="#939598" stroke="#494949" stroke-width="0.5" stroke-miterlimit="10" d="M393.574,458.605
		c0,2.732,0,9.087,0,9.087h-19.421l-22.211,22.211l18.826,18.827l13.719-13.778h19.361v-36.406L393.574,458.605L393.574,458.605z"/>
	<polygon id="g-shp007" fill="#939598" stroke="#494949" stroke-width="0.5" stroke-miterlimit="10" points="343.568,516.629 
		334.957,508.018 321.535,521.499 312.566,512.531 304.074,521.023 304.074,525.479 329.137,550.54 347.429,532.189 
		337.688,522.509 	"/>
	<polygon id="g-shp012a" fill="#939598" stroke="#494949" stroke-width="0.5" stroke-miterlimit="10" points="417.33,458.605 
		403.849,458.605 403.849,495.012 417.33,495.012 417.33,480.639 	"/>
	
		<rect id="g-shp008" x="314.235" y="503.936" transform="matrix(-0.7071 0.7071 -0.7071 -0.7071 913.4633 642.1536)" fill="#939598" stroke="#494949" stroke-width="0.5" stroke-miterlimit="10" width="19.005" height="12.65"/>
	<polygon id="g-shp003a" fill="#939598" stroke="#494949" stroke-width="0.5" stroke-miterlimit="10" points="233.46,591.638 
		233.46,594.43 259.532,620.441 266.302,613.672 238.864,586.233 	"/>
	<polygon id="g-shp003b" fill="#939598" stroke="#494949" stroke-width="0.5" stroke-miterlimit="10" points="238.864,586.233 
		266.302,613.672 273.191,606.723 245.813,579.285 	"/>
	<polygon id="g-shp002" fill="#939598" stroke="#494949" stroke-width="0.5" stroke-miterlimit="10" points="233.46,594.488 
		219.147,608.802 245.219,634.814 259.532,620.441 233.46,594.43 	"/>
	<polygon id="g-shp004a" fill="#939598" stroke="#494949" stroke-width="0.5" stroke-miterlimit="10" points="245.813,579.285 
		273.191,606.723 279.487,600.368 252.108,572.989 	"/>
	
		<rect id="g-shp014a" x="452.488" y="458.605" fill="#939598" stroke="#494949" stroke-width="0.5" stroke-miterlimit="10" width="7.127" height="36.406"/>
	<polygon id="g-shp014b" fill="#939598" stroke="#494949" stroke-width="0.5" stroke-miterlimit="10" points="462.406,458.605 
		462.169,458.605 459.615,458.605 459.615,495.012 462.169,495.012 466.445,495.012 466.445,462.645 	"/>
	<polygon id="g-shp015" fill="#939598" stroke="#494949" stroke-width="0.5" stroke-miterlimit="10" points="477.729,473.928 
		466.445,462.645 466.445,495.012 477.729,495.012 	"/>
	<polygon id="g-shp010" fill="#939598" stroke="#494949" stroke-width="0.5" stroke-miterlimit="10" points="374.153,467.752 
		370.59,458.725 345.646,483.668 351.942,489.963 	"/>
	<polygon id="g-shp004b" fill="#939598" stroke="#494949" stroke-width="0.5" stroke-miterlimit="10" points="252.108,572.989 
		279.487,600.368 286.97,592.885 259.591,565.507 	"/>
	<path id="g-shp011" fill="#939598" stroke="#494949" stroke-width="0.5" stroke-miterlimit="10" d="M393.574,467.752
		c0,0,0-6.355,0-9.087h-22.865l-0.119,0.119l3.563,9.026h19.421V467.752z"/>
	<polygon id="g-shp024b" fill="#939598" stroke="#494949" stroke-width="0.5" stroke-miterlimit="10" points="680.366,527.141 
		660.529,533.555 650.73,523.756 640.337,534.148 657.085,550.719 680.366,527.379 	"/>
	<polygon id="g-shp021b" fill="#939598" stroke="#494949" stroke-width="0.5" stroke-miterlimit="10" points="639.565,483.134 
		626.144,469.711 600.962,494.893 600.902,495.012 600.962,495.012 614.562,508.492 639.98,483.134 	"/>
	<polygon id="g-shp022a" fill="#939598" stroke="#494949" stroke-width="0.5" stroke-miterlimit="10" points="649.661,488.182 
		644.613,483.134 639.98,483.134 614.562,508.492 623.471,517.342 633.982,506.83 632.498,505.345 	"/>
	<polygon id="g-shp027" fill="#939598" stroke="#494949" stroke-width="0.5" stroke-miterlimit="10" points="739.993,578.335 
		733.104,571.445 728.412,571.445 723.779,566.813 698.599,591.994 712.377,605.654 	"/>
	<polygon id="g-shp085" fill="#939598" stroke="#494949" stroke-width="0.5" stroke-miterlimit="10" points="606.069,481.648 
		599.596,481.648 591.223,481.648 591.223,458.605 581.482,458.605 581.482,495.012 600.784,495.012 600.962,494.893 	"/>
	<polygon id="g-shp018" fill="#939598" stroke="#494949" stroke-width="0.5" stroke-miterlimit="10" points="557.727,480.224 
		557.727,458.605 542.82,458.605 542.82,495.012 550.896,495.012 550.896,480.224 	"/>
	<polygon id="g-shp019" fill="#939598" stroke="#494949" stroke-width="0.5" stroke-miterlimit="10" points="561.053,458.605 
		561.053,480.224 568.714,480.224 568.714,495.012 581.482,495.012 581.482,458.605 	"/>
	<polygon id="g-shp020b" fill="#939598" stroke="#494949" stroke-width="0.5" stroke-miterlimit="10" points="606.069,481.648 
		614.979,458.605 599.596,458.605 599.596,481.648 	"/>
	<polygon id="g-shp021a" fill="#939598" stroke="#494949" stroke-width="0.5" stroke-miterlimit="10" points="606.069,481.648 
		606.069,481.648 600.962,494.893 626.144,469.711 615.037,458.605 614.979,458.605 	"/>
	<polygon id="g-shp022b" fill="#939598" stroke="#494949" stroke-width="0.5" stroke-miterlimit="10" points="633.982,506.83 
		639.209,512.056 656.372,494.833 649.661,488.182 632.498,505.345 	"/>
	
		<rect id="g-shp020a" x="591.223" y="458.605" fill="#939598" stroke="#494949" stroke-width="0.5" stroke-miterlimit="10" width="8.373" height="23.043"/>
	<polygon id="g-shp070c" fill="#939598" stroke="#494949" stroke-width="0.5" stroke-miterlimit="10" points="523.162,270.579 
		523.162,252.583 514.254,252.583 514.254,266.124 518.648,270.579 	"/>
	
		<rect id="g-shp070b" x="514.254" y="235.776" fill="#939598" stroke="#494949" stroke-width="0.5" stroke-miterlimit="10" width="8.908" height="16.748"/>
	<polygon id="g-shp070a" fill="#939598" stroke="#494949" stroke-width="0.5" stroke-miterlimit="10" points="523.162,270.579 
		542.879,270.579 542.879,235.776 523.162,235.776 523.162,252.583 	"/>
	<polygon id="g-shp072" fill="#939598" stroke="#494949" stroke-width="0.5" stroke-miterlimit="10" points="523.162,294.572 
		506.354,294.572 506.474,310.191 523.162,310.191 	"/>
	<polygon id="g-shp073" fill="#939598" stroke="#494949" stroke-width="0.5" stroke-miterlimit="10" points="523.162,310.191 
		506.474,310.191 506.592,326.939 523.162,326.939 	"/>
	<polygon id="g-shp074" fill="#939598" stroke="#494949" stroke-width="0.5" stroke-miterlimit="10" points="523.162,326.939 
		506.592,326.939 506.711,344.756 523.162,344.756 	"/>
	<polygon id="g-shp075" fill="#939598" stroke="#494949" stroke-width="0.5" stroke-miterlimit="10" points="523.162,344.756 
		506.711,344.756 506.948,379.677 523.162,379.677 523.162,359.484 	"/>
	<polygon id="g-shp066" fill="#939598" stroke="#494949" stroke-width="0.5" stroke-miterlimit="10" points="462.585,294.572 
		479.035,294.572 479.035,281.209 475.65,277.824 462.585,277.824 	"/>
	
		<rect id="g-shp067" x="462.585" y="294.572" fill="#939598" stroke="#494949" stroke-width="0.5" stroke-miterlimit="10" width="16.51" height="15.62"/>
	
		<rect id="g-shp069a" x="462.585" y="326.939" fill="#939598" stroke="#494949" stroke-width="0.5" stroke-miterlimit="10" width="16.51" height="33.555"/>
	
		<rect id="g-shp068" x="462.585" y="310.191" fill="#939598" stroke="#494949" stroke-width="0.5" stroke-miterlimit="10" width="16.51" height="16.748"/>
	<path id="g-shp064" fill="#939598" stroke="#494949" stroke-width="0.5" stroke-miterlimit="10" d="M467.633,270.816l4.157-4.157
		c0.06-11.106,0.06-30.882,0-30.882s-4.098,0-9.205,0v35.04H467.633L467.633,270.816z"/>
	
		<rect id="g-shp087c" x="442.511" y="310.191" fill="#939598" stroke="#494949" stroke-width="0.5" stroke-miterlimit="10" width="20.074" height="16.748"/>
	<polygon id="g-shp069b" fill="#939598" stroke="#494949" stroke-width="0.5" stroke-miterlimit="10" points="479.035,360.494 
		462.585,360.494 453.201,360.494 453.201,368.096 479.035,368.096 	"/>
	
		<rect id="g-shp087a" x="442.511" y="277.824" fill="#939598" stroke="#494949" stroke-width="0.5" stroke-miterlimit="10" width="12.828" height="16.748"/>
	
		<rect id="g-shp066b" x="455.339" y="277.824" fill="#939598" stroke="#494949" stroke-width="0.5" stroke-miterlimit="10" width="7.187" height="16.748"/>
	
		<rect id="g-shp087b" x="442.511" y="294.572" fill="#939598" stroke="#494949" stroke-width="0.5" stroke-miterlimit="10" width="20.074" height="15.62"/>
	<polygon id="g-shp071" fill="#939598" stroke="#494949" stroke-width="0.5" stroke-miterlimit="10" points="514.254,277.943 
		512.531,277.943 509.918,277.943 506.295,281.565 506.354,294.572 523.162,294.572 523.162,277.943 	"/>
	
		<rect id="g-shp090" x="523.162" y="277.943" fill="#939598" stroke="#494949" stroke-width="0.5" stroke-miterlimit="10" width="19.717" height="16.629"/>
	<polygon id="g-shp082-a" fill="#939598" stroke="#494949" stroke-width="0.5" stroke-miterlimit="10" points="279.843,422.556 
		298.67,402.898 281.15,385.319 264.64,401.829 264.64,406.64 	"/>
	<polygon id="g-shp076-77b" fill="#939598" stroke="#494949" stroke-width="0.5" stroke-miterlimit="10" points="235.36,315.893 
		214.634,295.225 186.126,323.792 206.735,344.519 225.324,325.989 	"/>
	<polygon id="g-shp077a" fill="#939598" stroke="#494949" stroke-width="0.5" stroke-miterlimit="10" points="248.01,328.602 
		248.01,328.602 235.36,315.893 206.735,344.519 219.622,357.465 248.308,328.839 	"/>
	<polygon id="g-shp078-g-shp079" fill="#939598" stroke="#494949" stroke-width="0.5" stroke-miterlimit="10" points="
		269.272,349.923 248.308,328.839 219.622,357.465 240.587,378.608 	"/>
	<polygon id="g-shp080" fill="#939598" stroke="#494949" stroke-width="0.5" stroke-miterlimit="10" points="269.45,349.982 
		240.765,378.727 252.168,390.189 280.853,361.444 	"/>
	<polygon id="g-shp081" fill="#939598" stroke="#494949" stroke-width="0.5" stroke-miterlimit="10" points="286.436,366.968 
		280.853,361.444 252.168,390.189 257.691,395.712 	"/>
	<path id="g-kio038" fill="#939598" stroke="#494949" stroke-width="0.5" stroke-miterlimit="10" d="M701.033,510.394
		c0,0-1.484-13.423-13.006-16.154c-0.238-3.444-2.139-9.681-12.77-8.137c0,0-0.297,5.167,3.445,8.196
		c-2.257,0.415-4.692,1.188-7.424,2.257c0,0,2.138,11.699,12.65,15.085c0.415,2.613,2.197,7.305,9.977,6.532
		c0,0,0.416-3.325-1.425-5.761C695.035,512.175,697.886,511.521,701.033,510.394z"/>
	<g id="g-kio040-043">
		<path fill="#939598" stroke="#494949" stroke-width="0.5" stroke-miterlimit="10" d="M582.017,428.555
			c0,0,1.723,9.265,14.075,5.998C596.151,434.553,595.142,424.575,582.017,428.555z"/>
		<path fill="#939598" stroke="#494949" stroke-width="0.5" stroke-miterlimit="10" d="M584.393,451.182
			c0,0,11.996,7.958,18.826-7.364C603.159,443.817,590.984,434.493,584.393,451.182z"/>
	</g>
	<path id="g-kio042" fill="#939598" stroke="#494949" stroke-width="0.5" stroke-miterlimit="10" d="M606.129,449.46
		c0,0,5.523,6.058,11.402-1.426C617.531,448.034,612.127,441.146,606.129,449.46z"/>
	<path id="g-kio041" fill="#939598" stroke="#494949" stroke-width="0.5" stroke-miterlimit="10" d="M604.229,428.792
		c0,0,2.851,15.501,23.578,10.037C627.807,438.889,626.203,422.141,604.229,428.792z"/>
	<polygon id="robinson" fill="#939598" stroke="#494949" stroke-width="0.5" stroke-miterlimit="10" points="150.968,568.951 
		282.516,441.323 176.03,335.313 56.123,454.329 103.872,502.02 94.726,511.521 	"/>
	<polygon id="central-department-store" fill="#939598" stroke="#494949" stroke-width="0.5" stroke-miterlimit="10" points="
		726.57,619.729 861.504,484.796 975.828,598.646 825.454,748.901 738.746,662.192 741.597,659.282 735.004,652.69 738.864,648.83 
		732.332,642.297 736.133,638.496 728.946,631.311 733.579,626.559 	"/>
	<polygon id="g-shp029-030" fill="#939598" stroke="#494949" stroke-width="0.5" stroke-miterlimit="10" points="792.137,526.131 
		790.296,527.973 776.934,514.609 750.564,540.919 757.156,547.571 757.156,551.312 776.221,570.436 804.668,542.226 
		806.449,540.444 	"/>
	
		<rect id="big-c" x="473.69" y="214.099" fill="#939598" stroke="#494949" stroke-width="0.5" stroke-miterlimit="10" width="38.307" height="51.669"/>
	<polygon id="sushi-express" fill="#939598" stroke="#494949" stroke-width="0.5" stroke-miterlimit="10" points="198.301,630.716 
		198.301,636.239 214.218,652.215 220.75,645.86 224.73,649.899 229.125,645.504 206.735,623.055 	"/>
	<path id="kfc" fill="#939598" stroke="#494949" stroke-width="0.5" stroke-miterlimit="10" d="M169.319,661.48l18.708-18.708h3.86
		l16.808,16.807l-4.158,4.157l1.663,1.663l-7.424,7.424l8.196,8.196C206.913,680.9,184.286,680.781,169.319,661.48z"/>
	<path id="r029-031" fill="#939598" stroke="#494949" stroke-width="0.5" stroke-miterlimit="10" d="M429.742,510.274h18.352
		v-15.263h29.635v22.449c0,0-11.58,4.275-16.747,14.134h-31.18v-21.32H429.742L429.742,510.274z"/>
	<path id="r009a" fill="#939598" stroke="#494949" stroke-width="0.5" stroke-miterlimit="10" d="M514.848,560.993
		c-2.97,1.9-6.652,3.504-10.987,4.217c0,0,0.891,3.682,2.257,8.374h8.789L514.848,560.993L514.848,560.993z"/>
	<path id="r009b" fill="#939598" stroke="#494949" stroke-width="0.5" stroke-miterlimit="10" d="M524.766,551.312
		c0,0-3.267,5.523-9.918,9.74v12.59l0,0l0,0h-8.79c1.782,6.296,4.454,14.313,6.83,17.461c0,0,13.6,5.167,29.933,5.464V549.59
		C537.355,549.709,531.357,550.303,524.766,551.312z"/>
	<path id="r010" fill="#939598" stroke="#494949" stroke-width="0.5" stroke-miterlimit="10" d="M576.375,575.068l0.771,0.772
		l14.076-14.076c-0.653-0.594-14.551-13.362-48.462-12.233v46.977c6.474,0.119,13.422-0.534,20.133-2.613l3.444-3.444l-2.672-2.673
		L576.375,575.068z"/>
	<path id="r011a" fill="#939598" stroke="#494949" stroke-width="0.5" stroke-miterlimit="10" d="M593.598,564.141l-14.312,14.312
		l0.891,0.892l-10.452,10.452l3.563,3.682l-2.495,3.089c0,0,0.832,3.088,3.207,7.542l29.813-29.813L593.598,564.141z"/>
	<path id="r012" fill="#939598" stroke="#494949" stroke-width="0.5" stroke-miterlimit="10" d="M612.483,582.849l-31.357,31.357
		c2.97,3.385,6.651,6.83,11.344,10.037l30.764-30.764L612.483,582.849z"/>
	<path id="r013" fill="#939598" stroke="#494949" stroke-width="0.5" stroke-miterlimit="10" d="M626.915,613.077
		c0,0-4.87-8.314-3.088-19.004l-0.534-0.535l-30.764,30.764c3.801,2.613,8.314,5.107,13.48,7.187L626.915,613.077z"/>
	<path id="r011b" fill="#939598" stroke="#494949" stroke-width="0.5" stroke-miterlimit="10" d="M603.872,574.236l-29.813,29.814
		c1.604,2.91,3.86,6.473,7.067,10.155l31.357-31.357L603.872,574.236z"/>
	<path id="r014" fill="#939598" stroke="#494949" stroke-width="0.5" stroke-miterlimit="10" d="M655.897,627.331
		c-12.472,0-18.767-2.91-18.767-2.91L619.551,642c4.514,7.78,10.69,14.61,16.867,20.252l25.359-25.359
		C658.154,631.311,655.897,627.331,655.897,627.331z"/>
	<path id="r016" fill="#939598" stroke="#494949" stroke-width="0.5" stroke-miterlimit="10" d="M674.07,653.878l-21.143,21.143
		c3.267,2.139,5.346,3.326,5.346,3.326l4.988,4.988l9.443-9.442h0.891l9.978-9.978C680.307,661.124,677.1,657.62,674.07,653.878z"/>
	<path id="r015" fill="#939598" stroke="#494949" stroke-width="0.5" stroke-miterlimit="10" d="M661.718,636.833l-25.359,25.359
		c6.235,5.702,12.353,10.097,16.569,12.828l21.143-21.143C669.319,648.117,664.984,641.822,661.718,636.833z"/>
	<path id="r017" fill="#939598" stroke="#494949" stroke-width="0.5" stroke-miterlimit="10" d="M686.186,666.588l-9.977,9.977
		l0.771,0.772l-12.353,12.353l-2.316-2.315l-1.663,1.663c3.088,5.879,6.474,10.986,10.037,15.44l27.734-27.675L686.186,666.588z"/>
	<path id="r025" fill="#939598" stroke="#494949" stroke-width="0.5" stroke-miterlimit="10" d="M633.032,546.978l-10.452-10.453
		l-14.788,14.313c4.038,3.325,7.839,6.829,11.225,10.155L633.032,546.978z"/>
	<path id="r003-004" fill="#939598" stroke="#494949" stroke-width="0.5" stroke-miterlimit="10" d="M353.724,599.715v5.345
		l27.022,26.429c0,0,20.905-7.305,30.645-25.24l-30.348-30.407C362.395,592.41,353.724,599.715,353.724,599.715z"/>
	<path id="r005" fill="#939598" stroke="#494949" stroke-width="0.5" stroke-miterlimit="10" d="M407.649,578.632l-14.075-14.075
		c-4.573,4.157-8.73,7.898-12.531,11.225l30.348,30.348c1.723-3.147,3.089-6.592,3.92-10.394l-2.375-2.494l3.562-3.444l-9.918-9.918
		L407.649,578.632z"/>
	<path id="r008" fill="#939598" stroke="#494949" stroke-width="0.5" stroke-miterlimit="10" d="M483.371,565.27
		c0,0-12.175-1.782-20.668-13.66c0,0-5.582-1.604-14.016-2.435v47.333c7.898-0.178,16.629-1.425,24.706-4.93
		C473.394,591.52,481.887,578.453,483.371,565.27z"/>
	<path id="r007" fill="#939598" stroke="#494949" stroke-width="0.5" stroke-miterlimit="10" d="M419.111,551.075l13.838,37.178
		v7.186c4.276,0.595,9.74,1.129,15.738,1.01v-47.333C440.67,548.343,429.979,548.283,419.111,551.075z"/>
	<path id="r001" fill="#939598" stroke="#494949" stroke-width="0.5" stroke-miterlimit="10" d="M307.281,637.605l-13.363,27.557
		c13.541,4.276,19.717,16.748,19.717,16.748c2.435-0.416,4.751-0.891,7.008-1.485l-2.375-41.75
		C311.795,639.506,307.281,637.605,307.281,637.605z"/>
	<path id="r002" fill="#939598" stroke="#494949" stroke-width="0.5" stroke-miterlimit="10" d="M366.136,647.404l-3.504-3.504
		l-1.247,1.247l-11.343-11.343l5.404-5.404l-8.018-7.959h-3.92c-8.552,13.363-18.055,17.461-25.181,18.292l2.375,41.751
		C352.951,672.289,366.136,647.404,366.136,647.404z"/>
	<path id="r037" fill="#939598" stroke="#494949" stroke-width="0.5" stroke-miterlimit="10" d="M351.229,550.54l-11.047-11.046
		l-10.986,11.046l22.806,23.162c2.435-3.622,5.226-6.889,8.195-9.858l-11.105-11.105L351.229,550.54z"/>
	<path id="r036b" fill="#939598" stroke="#494949" stroke-width="0.5" stroke-miterlimit="10" d="M351.229,550.54l-2.197,2.198
		l11.105,11.105c2.91-2.91,5.939-5.583,8.968-7.898l-11.641-11.641L351.229,550.54z"/>
	<path id="r036a" fill="#939598" stroke="#494949" stroke-width="0.5" stroke-miterlimit="10" d="M365.482,536.287l-8.018,8.018
		l11.641,11.641c3.267-2.495,6.474-4.692,9.443-6.533L365.482,536.287z"/>
	<path id="r035" fill="#939598" stroke="#494949" stroke-width="0.5" stroke-miterlimit="10" d="M394.465,541.335l-22.271-22.271
		l-8.67,8.789l1.662,1.663l-3.266,3.267l3.562,3.563l13.125,13.125C387.457,543.948,394.465,541.335,394.465,541.335z"/>
	<path id="r034" fill="#939598" stroke="#494949" stroke-width="0.5" stroke-miterlimit="10" d="M405.096,513.304h-12.234
		l-9.681,9.621l16.332,15.856c2.257-1.128,5.346-2.257,8.612-3.207l-3.029-8.434V513.304L405.096,513.304z"/>
	<path id="r033" fill="#939598" stroke="#494949" stroke-width="0.5" stroke-miterlimit="10" d="M416.143,513.304h-11.047v13.837
		l3.029,8.434c3.028-0.891,6.176-1.663,8.967-2.316l-0.949-6.829V513.304z"/>
	<path id="r032" fill="#939598" stroke="#494949" stroke-width="0.5" stroke-miterlimit="10" d="M425.229,513.304h-9.086v13.125
		l0.949,6.829c4.633-1.068,8.137-1.722,8.137-1.722V513.304z"/>
	
		<rect x="725.977" y="542.522" opacity="0.8" stroke="#494949" stroke-miterlimit="10" enable-background="new    " width="8.79" height="8.79"/>
	<g id="g-shp001-g-kio035">
		<polygon fill="#939598" stroke="#494949" stroke-width="0.5" stroke-miterlimit="10" points="205.844,622.104 231.856,648.236 
			245.219,634.814 219.147,608.802 		"/>
		
			<rect x="206.155" y="580.575" transform="matrix(-0.6986 0.7155 -0.7155 -0.6986 783.6453 846.02)" fill="#939598" stroke="#494949" stroke-width="0.5" stroke-miterlimit="10" width="14.966" height="14.966"/>
	</g>
	<path id="g-kio044" fill="#939598" stroke="#494949" stroke-width="0.5" stroke-miterlimit="10" d="M405.096,441.561
		c-0.594-3.504-5.227-2.435-5.227-2.435s1.069-8.196-3.088-11.047s-11.938,0-11.938,0s0,0,0,0.06c0.297,0,0.594-0.06,0.891-0.06
		c6.117,0,11.047,4.93,11.047,11.047c0,3.741-1.841,7.008-4.692,9.027l0,0C395.594,452.607,405.689,445.064,405.096,441.561z"/>
	<polygon id="g-shp082-b" fill="#939598" stroke="#494949" stroke-width="0.5" stroke-miterlimit="10" points="298.67,402.898 
		310.429,414.36 290.711,433.425 279.843,422.556 	"/>
	<polygon id="g-shp044-g-shp045" fill="#939598" stroke="#494949" stroke-width="0.5" stroke-miterlimit="10" points="
		522.033,420.002 541.869,420.121 541.869,392.861 506.948,392.861 506.948,407.293 	"/>
	<polygon id="g-shp042A" fill="#939598" stroke="#494949" stroke-width="0.5" stroke-miterlimit="10" points="571.445,385.438 
		571.445,420.299 580.948,420.359 580.948,385.438 	"/>
	<polygon id="g-shp032" fill="#939598" stroke="#494949" stroke-width="0.5" stroke-miterlimit="10" points="748.782,486.578 
		724.255,511.105 726.452,513.304 726.452,516.866 736.014,526.369 762.323,500.06 	"/>
	<polygon id="g-shp024a" fill="#939598" stroke="#494949" stroke-width="0.5" stroke-miterlimit="10" points="660.529,533.555 
		680.366,527.141 680.366,518.886 668.013,506.474 650.73,523.756 	"/>
	<polygon id="g-shp023b" fill="#939598" stroke="#494949" stroke-width="0.5" stroke-miterlimit="10" points="636.002,529.873 
		663.559,502.078 668.013,506.474 640.337,534.148 	"/>
	<polygon id="g-shp023a" fill="#939598" stroke="#494949" stroke-width="0.5" stroke-miterlimit="10" points="646.098,519.776 
		663.559,502.078 658.926,497.446 641.347,515.025 	"/>
	<path id="g-shp016-017-027-028" fill="#939598" stroke="#494949" stroke-width="0.5" stroke-miterlimit="10" d="M506.295,516.688
		v-43.176l15.798-14.848h20.728v36.405h-9.503v5.107h4.573l0.297,9.8h20.489l0.297,7.483l23.459,0.891v-3.386l19.302,0.119
		l4.395,4.988l-18.173,18.174c-16.808-12.294-38.366-15.976-64.854-10.69C517.52,521.736,512.056,517.936,506.295,516.688z"/>
	<path id="onitsuka-tiger" fill="#939598" stroke="#494949" stroke-width="0.5" stroke-miterlimit="10" d="M661.658,601.318
		c0,0,4.87,8.196,0.119,11.165c-4.752,2.97-8.909,4.039-8.909,4.039l-9.026,0.534c0,0-8.196,0.534-8.909-7.84
		C634.221,600.844,661.658,601.318,661.658,601.318z"/>
	<path id="r026" fill="#939598" stroke="#494949" stroke-width="0.5" stroke-miterlimit="10" d="M622.164,536.108l3.147-3.147
		l-3.385-3.147l1.663-1.841l-9.384-8.79l-21.38,21.381c5.048,2.672,10.215,6.354,15.025,10.333l14.788-14.312L622.164,536.108z"/>
	<path id="r024" fill="#939598" stroke="#494949" stroke-width="0.5" stroke-miterlimit="10" d="M646.395,540.147l-10.63,9.562
		l-2.732-2.731l-14.016,14.016c7.898,7.78,13.362,14.372,13.362,14.372l24.646-24.646L646.395,540.147z"/>
	<path id="r022a" fill="#939598" stroke="#494949" stroke-width="0.5" stroke-miterlimit="10" d="M713.387,606.663l-7.306-7.245
		l-20.43,20.43c3.504,1.96,6.83,3.979,8.849,5.702L713.387,606.663z"/>
	<path id="r023" fill="#939598" stroke="#494949" stroke-width="0.5" stroke-miterlimit="10" d="M684.879,578.335l-5.522,5.464
		l-0.713-0.713l-13.065,13.422c0,0,5.582,5.345,5.642,14.907l23.459-23.459L684.879,578.335z"/>
	<path id="r038" fill="#939598" stroke="#494949" stroke-width="0.5" stroke-miterlimit="10" d="M295.522,623.055l-20.786-17.876
		l-42.879,43.058l2.02,2.435l-10.334,10.334c8.79,17.461,28.032,9.858,28.626,8.611c0.712-1.604,22.508-10.274,21.083-7.78
		C273.191,661.836,295.522,623.055,295.522,623.055z"/>
	<path id="chabuton" fill="#939598" stroke="#494949" stroke-width="0.5" stroke-miterlimit="10" d="M286.97,592.885l-12.234,12.294
		l20.786,17.876c-1.663-7.482,1.782-12.056,4.989-17.876L286.97,592.885z"/>
	
		<rect id="godiva" x="312.162" y="559.2" transform="matrix(-0.7071 0.7072 -0.7072 -0.7071 941.7194 742.9568)" fill="#939598" stroke="#494949" stroke-width="0.5" stroke-miterlimit="10" width="9.621" height="14.67"/>
	
		<rect id="g-shp013a" x="428.555" y="458.665" fill="#939598" stroke="#494949" stroke-width="0.5" stroke-miterlimit="10" width="6.771" height="22.033"/>
	
		<rect id="g-shp013b" x="435.325" y="458.605" fill="#939598" stroke="#494949" stroke-width="0.5" stroke-miterlimit="10" width="17.163" height="36.406"/>
</g>
<g id="Signs">
	<rect id="bus-stop" x="96.805" y="338.401" opacity="0.8" enable-background="new    " width="8.79" height="8.79"/>
	<rect id="van-station" x="114.146" y="628.044" opacity="0.8" enable-background="new    " width="8.79" height="8.789"/>
	<g id="taxi">
		<rect x="153.819" y="282.278" opacity="0.8" enable-background="new    " width="8.79" height="8.79"/>
		<rect x="79.285" y="594.667" opacity="0.8" enable-background="new    " width="8.79" height="8.789"/>
		<rect x="761.967" y="750.268" opacity="0.8" enable-background="new    " width="8.79" height="8.789"/>
	</g>
	<g id="parking">
		<rect x="379.974" y="314.229" opacity="0.8" enable-background="new    " width="8.79" height="8.79"/>
		<rect x="596.686" y="314.229" opacity="0.8" enable-background="new    " width="8.79" height="8.79"/>
		<rect x="919.171" y="695.213" opacity="0.8" enable-background="new    " width="8.79" height="8.79"/>
	</g>
	<g id="elevator">
		<rect x="270.994" y="431.227" opacity="0.8" enable-background="new    " width="8.79" height="8.79"/>
		<rect x="471.85" y="370.115" opacity="0.8" enable-background="new    " width="8.789" height="8.79"/>
		<rect x="711.842" y="435.622" opacity="0.8" enable-background="new    " width="8.79" height="8.789"/>
		<rect x="593.063" y="499.169" opacity="0.8" enable-background="new    " width="8.789" height="8.789"/>
		<rect x="384.369" y="499.169" opacity="0.8" enable-background="new    " width="8.789" height="8.789"/>
	</g>
	<g id="atm">
		<rect x="475.354" y="237.855" opacity="0.8" enable-background="new    " width="8.789" height="8.79"/>
		<rect x="186.483" y="340.777" opacity="0.8" enable-background="new    " width="8.79" height="8.79"/>
		<rect x="696.639" y="422.021" opacity="0.8" enable-background="new    " width="8.789" height="8.79"/>
	</g>
	<g id="telephone">
		<rect x="282.516" y="380.924" opacity="0.8" enable-background="new    " width="8.79" height="8.79"/>
		<rect x="663.678" y="399.75" opacity="0.8" enable-background="new    " width="8.789" height="8.79"/>
		<rect x="520.192" y="347.785" opacity="0.8" enable-background="new    " width="8.79" height="8.79"/>
	</g>
	<g id="stairs">
		<rect x="308.112" y="486.459" opacity="0.8" enable-background="new    " width="8.79" height="8.79"/>
		<rect x="668.072" y="486.459" opacity="0.8" enable-background="new    " width="8.79" height="8.79"/>
	</g>
	<rect id="information" x="329.553" y="576.078" opacity="0.8" enable-background="new    " width="8.789" height="8.789"/>
	<g id="entrance">
		<rect x="170.27" y="318.625" opacity="0.8" enable-background="new    " width="8.79" height="8.79"/>
		<rect x="39.613" y="516.866" opacity="0.8" enable-background="new    " width="8.79" height="8.79"/>
		<rect x="148.474" y="646.751" opacity="0.8" enable-background="new    " width="8.79" height="8.79"/>
		<rect x="488.716" y="590.271" opacity="0.8" enable-background="new    " width="8.79" height="8.79"/>
		<rect x="370.353" y="636.833" opacity="0.8" enable-background="new    " width="8.79" height="8.79"/>
		<rect x="603.516" y="636.833" opacity="0.8" enable-background="new    " width="8.79" height="8.79"/>
		<rect x="753.178" y="726.155" opacity="0.8" enable-background="new    " width="8.789" height="8.789"/>
		<rect x="280.378" y="656.254" opacity="0.8" enable-background="new    " width="8.79" height="8.789"/>
	</g>
	<rect id="baby-change-room" x="583.442" y="499.169" opacity="0.8" enable-background="new    " width="8.789" height="8.789"/>
	<g id="fire-exit">
		<rect x="422.021" y="484.321" opacity="0.8" enable-background="new    " width="8.79" height="8.789"/>
		<rect x="348.616" y="516.866" opacity="0.8" enable-background="new    " width="8.79" height="8.79"/>
		<rect x="284.772" y="585.877" opacity="0.8" enable-background="new    " width="8.79" height="8.79"/>
		<rect x="555.232" y="484.321" opacity="0.8" enable-background="new    " width="8.789" height="8.789"/>
		<rect x="629.825" y="516.866" opacity="0.8" enable-background="new    " width="8.79" height="8.79"/>
		<rect x="693.669" y="583.086" opacity="0.8" enable-background="new    " width="8.79" height="8.79"/>
	</g>
	<g id="escalator">
		<rect x="631.607" y="609.989" opacity="0.8" enable-background="new    " width="8.789" height="8.79"/>
		<rect x="341.608" y="462.169" opacity="0.8" enable-background="new    " width="8.79" height="8.79"/>
		<rect x="473.513" y="462.169" opacity="0.8" enable-background="new    " width="8.789" height="8.79"/>
		<rect x="502.91" y="462.169" opacity="0.8" enable-background="new    " width="8.789" height="8.79"/>
		<rect x="634.221" y="462.169" opacity="0.8" enable-background="new    " width="8.789" height="8.79"/>
		<rect x="726.809" y="542.938" opacity="0.8" enable-background="new    " width="8.789" height="8.79"/>
		<rect x="316.605" y="614.384" opacity="0.8" enable-background="new    " width="8.789" height="8.79"/>
		<rect x="489.429" y="542.938" opacity="0.8" enable-background="new    " width="8.79" height="8.79"/>
		<rect x="222.592" y="571.683" opacity="0.8" enable-background="new    " width="8.79" height="8.79"/>
		<rect x="488.716" y="385.319" opacity="0.8" enable-background="new    " width="8.79" height="8.79"/>
		<rect x="543.77" y="533.496" opacity="0.8" enable-background="new    " width="8.79" height="8.789"/>
	</g>
	<g id="handicapped-toilet">
		<rect x="292.078" y="380.924" opacity="0.8" enable-background="new    " width="8.79" height="8.79"/>
		<rect x="674.011" y="399.75" opacity="0.8" enable-background="new    " width="8.79" height="8.79"/>
		<rect x="530.11" y="347.785" opacity="0.8" enable-background="new    " width="8.79" height="8.79"/>
		<rect x="573.702" y="499.169" opacity="0.8" enable-background="new    " width="8.79" height="8.789"/>
		<rect x="394.108" y="499.169" opacity="0.8" enable-background="new    " width="8.79" height="8.789"/>
	</g>
	<g id="toilet">
		<rect x="301.639" y="380.924" opacity="0.8" enable-background="new    " width="8.79" height="8.79"/>
		<rect x="685.058" y="399.75" opacity="0.8" enable-background="new    " width="8.79" height="8.79"/>
		<rect x="540.028" y="347.785" opacity="0.8" enable-background="new    " width="8.79" height="8.79"/>
		<rect x="403.849" y="499.169" opacity="0.8" enable-background="new    " width="8.789" height="8.789"/>
		<rect x="564.021" y="499.169" opacity="0.8" enable-background="new    " width="8.79" height="8.789"/>
	</g>
</g>
</svg>
