<?xml version="1.0" encoding="utf-8"?>
<!-- Generator: Adobe Illustrator 19.2.0, SVG Export Plug-In . SVG Version: 6.00 Build 0)  -->
<svg version="1.1" id="Layer_1" xmlns="http://www.w3.org/2000/svg" xmlns:xlink="http://www.w3.org/1999/xlink" x="0px" y="0px"
	 viewBox="0 0 1683.8 1190.6" style="enable-background:new 0 0 1683.8 1190.6;" xml:space="preserve">
<style type="text/css">
	.st0{fill:#FFFFFF;}
	.st1{display:none;}
	.st2{display:inline;}
	.st3{fill:#DEDEDE;stroke:#494949;stroke-width:0.5;stroke-miterlimit:10;}
	.st4{fill:#939598;stroke:#494949;stroke-width:0.5;stroke-miterlimit:10;}
	.st5{opacity:0.8;enable-background:new    ;}
</style>
<g id="Background">
	<rect class="st0" width="1683.8" height="1190.6"/>
</g>
<g id="Original" class="st1">
	<g class="st2">
	</g>
</g>
<g id="ETC">
	<polygon class="st3" points="306,489.6 413.2,438.2 463.6,398.1 552.1,323.3 751.9,240.7 790.5,232.2 826,211.2 904.8,211.2 
		919.6,232.2 926.2,240.2 1044.1,306.9 1160.7,389.9 1438.5,554.3 1451,569.9 1340.7,966.9 1175.9,879.9 965.1,752.9 951.4,739.7 
		860.5,698.1 812.4,702.8 731.7,727.5 702.1,742.9 574.4,828.3 362.8,864.4 262.2,797.4 150.2,628.4 253.4,525.2 	"/>
	<path class="st3" d="M1252.6,894.7l7.5-7.5l-64.9-64.9l23.8-23.8l-21.5-21.5l-23.2,23.2c-9.8-9.4-41-23.3-41-23.3
		c0.7-13.2-8.3-24.7-8.3-24.7l23.9-23.9l-21.7-21.7l-23.8,23.8c-9.5-10-27-8.3-27-8.3c-18.5-36.7-69.3-69.7-69.3-69.7l25.3-25.3
		l15.7,15.7l-2.6,2.6l5,5l-5.2,5.2l23.8,23.8l13.5-13.5l13.2,13.2l1.8-1.8l-87.8-87.8H904.2V611h32.2v3.4v4v21.3
		c-31.6-2.8-56.5,2.7-56.5,2.7c-14-16.2-28.8-18.5-28.8-18.5v-34.7h-44.7v34.5c-13.8,3.8-28.7,18.7-28.7,18.7
		c-21.2-3.3-39.9-3.5-55.7-2.2v-22.1v-6.7h31.2v-22.2H647.9l-74.2,75.7l15.2,15.2l23.8-23.8l-6-6l6.2-6.2l3.7,3.7l5.3-5.3l15.2,15.2
		c-61.2,40-90.2,88.5-90.2,88.5c-22-1.8-39.8,13.1-39.8,13.1l-8.1-8.1l5.6-5.6l-5-5L450.1,791c6.2,6,23.5,22.7,28.8,27.4
		c6.5,5.8,26.5,18.2,43.8,18.8s39.5,0.5,62-32.2l9,9l-6.6,6.6l3.9,3.9l-4.5,4.5l11.1,11.1l4.6-4.6l4.5,4.5c0.1-0.1,0.1-0.2,0.2-0.3
		l8.2-8.2l3,3.2l19.5-19.5l-3.8-3.8l-33-29.7c0,0,38.3-26.5,64.5-61.2l12.8,12.8l4.7-4.5l9,9l-5.5,5.3l7.6,7.8l8.1-8.1l8.9,8.9
		c0,0,42.3,12.6,86.3-3.6c0,0,2.8-5.6,5.9-13.6c-36.5,14.6-37.2-10-33-22.6c4.5-13.3,15.4-13.5,23.5-8.8c5.1,3,11.7,8.1,15.8,11.3
		c0.7-3.3,1.3-6.6,1.6-9.8c0,0,21,6.2,36.5,0c0,0,3.2,22.3,5.8,29.1c0,0,0,0,0,0c1.9,5,4.5,10,8,14.2c0,0,45.5,19.5,85.2,5.2
		l9.4-9.4l7.2,7.2l7.8-7.8l-4.5-4.5l24.6-24.6c4.8,9.2,48.7,50.2,48.7,50.2c1,13.8,8.8,23.7,8.8,23.7l4.2-4.2
		c14.3,28.8,43.2,25,43.2,25c0.2,47.7,27.6,78.1,27.6,78.1l-10.2,10.2l-5.5-5.5l-2.3,2.3l12.8,12.8l3.8,3.8l12.2-12.2
		c0,0,38,38,60.6,60.6s44.6,5.9,55.1-4.1S1280.9,917.9,1252.6,894.7z M664.5,654.4l-21.2-20.7l16.8-15.7h53.7l0,22.9
		C682.3,644.8,664.5,654.4,664.5,654.4z M1008.9,618.4l9.7,8.7l-26.2,27.3L1008.9,618.4z"/>
	<ellipse class="st3" cx="831.1" cy="666.9" rx="41" ry="27.8"/>
	<polygon class="st3" points="529,560.1 561.9,527.2 561.9,514.2 590.2,485.9 610.8,506.5 602.5,514.8 602.5,526.5 578.5,550.5 
		567.6,550.5 543.6,574.5 	"/>
	<polygon class="st3" points="1110.8,538.1 1098.2,525.6 1098.2,513.6 1069.9,485.2 1048.2,506.9 1055.6,513.6 1055.6,526 
		1082.7,553.1 1092.1,553.1 1093.9,554.9 1115.1,576.1 1131.9,559.3 	"/>
	
		<rect x="850.3" y="637.9" transform="matrix(0.9234 -0.3839 0.3839 0.9234 -188.6362 378.6433)" class="st3" width="7.9" height="48"/>
	
		<rect x="786" y="658.3" transform="matrix(0.3742 -0.9273 0.9273 0.3742 -107.2823 1165.5652)" class="st3" width="48" height="7.8"/>
	<path class="st3" d="M91.6,558.7l44.5,44.5l2.5-2.5l251.5,251.5l3-3l30.8,30.8c0,0-74.8,56.5-142-12.5S76.5,662,76.5,662l13.6-13.6
		C90.1,648.4,48.9,609.2,91.6,558.7z"/>
	<path class="st3" d="M894.7,662.2c2.1,10.3,4.3,8.5,16.7,8.2s44.4,3.5,54,7.5c9.5,4,14.4,5.3,13.2-7c-1.2-12.3-2.2-9.9-12.1-13.1
		c-9.9-3.2-43.6-9.6-61.1-6.9C892.1,653,892.5,651.6,894.7,662.2z"/>
	<path class="st3" d="M999,682c-1.9,6-3.8,10.3,2.3,16.9c6.2,6.7,35.3,37.7,40,43.3c4.7,5.7,7.3,1.5,10.3-3.2
		c3-4.8,8.5-8.1-1.3-19.3c-9.7-11.2-37.7-38.6-41.7-41.6C1004.7,675.1,1001.5,674.1,999,682z"/>
	<path class="st3" d="M761.3,663.2c-2.2,10.6-4.6,8.7-17.7,8.4c-13.1-0.3-47.1,3.6-57.2,7.7c-10.1,4.1-15.2,5.5-14-7.2
		c1.2-12.6,2.3-10.1,12.8-13.4c10.5-3.3,46.2-9.8,64.7-7C764.1,653.8,763.6,652.3,761.3,663.2z"/>
	<path class="st3" d="M568.6,746.9c4.6-5,56.8-57.2,63.5-61.5c6.8-4.3,8.9-2.8,9.9,6c1.1,8.8,1.5,10.4,2.2,14.5
		c0.8,4,3.9,8.1-4.6,16.7s-39.2,36.4-43.6,40.5c-4.4,4.1-9.2,2.6-13.3,0.8s-9.9-4.1-12.8-5.2C567,757.7,561.6,754.6,568.6,746.9z"/>
	<path class="st3" d="M1103,754.6c-10.8-12.4-27-16.1-36.6-8.5l6.2,8l-13.1,9.2c0.4,7,3.5,14.6,9.1,21.1c2.7,3.2,5.8,5.8,9.1,7.7
		l13.4-8.4l8.3,12.2c2.3-0.7,4.4-1.9,6.3-3.5C1115.3,784.2,1114.1,767.3,1103,754.6z"/>
	<path class="st3" d="M557.5,783.6l-4.8-13.3c-7.4-2.2-16.8-1.2-25.5,3.4c-2.7,1.4-5.2,3.1-7.3,5l4.1,16.1l-15,5.8
		c0.1,2.6,0.8,5.2,2,7.5c5.9,11.1,22.7,13.7,37.5,5.9c14.4-7.6,21.7-22.4,16.7-33.4L557.5,783.6z"/>
	
		<rect x="795.9" y="485.3" transform="matrix(0.9111 -0.4123 0.4123 0.9111 -137.406 374.2432)" class="st3" width="5.5" height="40.6"/>
	
		<rect x="842.7" y="501.9" transform="matrix(0.3629 -0.9318 0.9318 0.3629 79.5417 1125.6775)" class="st3" width="40.5" height="5.5"/>
	<path class="st3" d="M846.3,449.4c-1-7.9-7.7-14-15.8-14c-8.4,0-15.2,6.5-15.9,14.7c0,0.4-0.1,0.9-0.1,1.3c0,3.8,1.4,7.4,3.6,10.1
		c0.4,0.4,0.7,0.9,1.1,1.3c0,0,0.1,0.1,0.2,0.1c0.3,0.3,0.7,0.6,1.1,0.9c0.1,0.1,0.3,0.2,0.4,0.3c0.3,0.2,0.6,0.5,0.9,0.7
		c0.2,0.1,0.3,0.2,0.5,0.3c0.3,0.2,0.6,0.4,0.9,0.5c0.2,0.1,0.4,0.2,0.6,0.3c0.3,0.1,0.6,0.3,1,0.4c0.2,0.1,0.4,0.2,0.6,0.2
		c0.3,0.1,0.7,0.2,1,0.3c0.2,0.1,0.4,0.1,0.6,0.2c0.4,0.1,0.8,0.1,1.1,0.2c0.2,0,0.4,0.1,0.5,0.1c0.6,0.1,1.2,0.1,1.7,0.1
		c0.6,0,1.2,0,1.8-0.1c0.2,0,0.3-0.1,0.5-0.1c0.4-0.1,0.8-0.1,1.2-0.2c0.2,0,0.4-0.1,0.6-0.1c0.4-0.1,0.8-0.2,1.2-0.4
		c0.2-0.1,0.3-0.1,0.5-0.2c0.4-0.2,0.8-0.3,1.2-0.5c0.1,0,0.2-0.1,0.3-0.1c2.1-1.1,4-2.6,5.4-4.5c2.1-2.7,3.3-6.1,3.3-9.7
		C846.4,450.7,846.3,450,846.3,449.4z"/>
	<path class="st3" d="M786.2,467.3c0,0,42.5-27.1,86.7,0l-26.5,67.3h-30.5L786.2,467.3z"/>
	<path class="st3" d="M1356.9,472.2l-16.2,15.2l-10-9.9c6-6.1,9.6-14.5,9.6-23.7c0-18.8-15.2-34-34-34c-9.3,0-17.6,3.7-23.8,9.7
		l-23.1-23.1c5.7-6.1,9.2-14.2,9.2-23.2c0-18.8-15.2-34-34-34c-9,0-17.2,3.5-23.3,9.2l-20.6-20.5c6.1-6.1,9.9-14.6,9.9-23.9
		c0-18.8-15.2-34-34-34c-9.4,0-17.9,3.8-24,9.9l-12.6-12.5l15.8-14.3l-57.7-55.3H571.3l-14.1,14.1c-6.1-5.6-14.1-9-23-9
		c-18.8,0-34,15.2-34,34c0,8.9,3.4,16.9,9,23l-5.5,5.5c-6-5.4-14-8.7-22.7-8.7c-18.8,0-34,15.2-34,34c0,8.7,3.3,16.7,8.7,22.7
		L350,428.7l78.2,78L563.4,372l536.6,1.6l272.7,271.7l78.4-78.4L1356.9,472.2z"/>
	
		<rect x="1053.3" y="511.5" transform="matrix(1 -4.199963e-03 4.199963e-03 1 -2.1551 4.5293)" class="st3" width="48" height="7.8"/>
	
		<rect x="1052.4" y="519.3" transform="matrix(1 -4.599951e-03 4.599951e-03 1 -2.3955 4.9572)" class="st3" width="48" height="7.9"/>
	
		<rect x="1206.2" y="624.1" transform="matrix(0.7041 -0.7101 0.7101 0.7041 -102.1641 1051.0765)" class="st3" width="7.8" height="48"/>
	
		<rect x="1200" y="629.1" transform="matrix(0.7041 -0.7101 0.7101 0.7041 -107.502 1048.1721)" class="st3" width="7.8" height="48"/>
	
		<rect x="559.2" y="512.9" transform="matrix(1 -4.499954e-03 4.499954e-03 1 -2.3196 2.6295)" class="st3" width="48" height="7.8"/>
	
		<rect x="558.3" y="520.7" transform="matrix(1 -4.499954e-03 4.499954e-03 1 -2.3549 2.6257)" class="st3" width="48" height="7.8"/>
	<polygon class="st3" points="621.9,475.9 621.9,504.2 631.7,504.2 639.6,512.2 678.7,512.2 680.5,510.3 673.5,503.3 689.8,486.9 
		689.8,475.9 	"/>
	<rect x="895.5" y="481.1" class="st3" width="18.7" height="27.3"/>
	<rect x="914.2" y="481.1" class="st3" width="17.7" height="27.3"/>
	<polygon class="st3" points="975,474.1 975,488.1 992,505.1 984.3,512.8 986,514.5 1022.7,514.5 1031.7,505.4 1037.4,505.4 
		1037.4,474.1 	"/>
	<polygon class="st3" points="1130.7,595 1151,574.7 1187.8,611.5 1167.6,631.7 	"/>
	<polygon class="st3" points="1179.5,646.4 1203,622.9 1234.7,654.6 1211.5,677.8 	"/>
	<path class="st3" d="M1055.7,437.8h-31.4v23.5h31.4c6.5,0,11.8-5.3,11.8-11.8S1062.2,437.8,1055.7,437.8z"/>
	
		<rect x="568.1" y="579.7" transform="matrix(0.7071 -0.7071 0.7071 0.7071 -255.5706 580.9125)" class="st3" width="10.6" height="38.5"/>
	<path class="st3" d="M904.2,611v-21.8H851v34.7c0,0,14.8,2.3,28.8,18.5c0,0,12.7-2.8,31.5-3.4v-28L904.2,611L904.2,611z"/>
	<path class="st3" d="M960.4,618.4l0.3,25l13.4,3.7c1.9,0.6,3.8,1.3,5.7,2v-30.7L960.4,618.4L960.4,618.4z"/>
	<path class="st3" d="M1194.7,958.8c-6-6-13.2-13.2-20.4-20.4l-24,24c17.3,13.5,40.9,25.3,72.3,28.3l2.6-21.4
		C1216,971.4,1205.4,969.5,1194.7,958.8z"/>
	<path class="st3" d="M1290.3,917.3l-30.2-30.2l-7.5,7.5c12.9,10.6,15.6,22,13.8,32.2l7.2,7.2L1290.3,917.3z"/>
	<path class="st3" d="M1290.3,917.3l-16.7,16.7l-7.2-7.2c-0.4,2-0.9,3.9-1.5,5.7l19.7,19.7l4-4l7.5,7.5l-12.8,12.8
		c3.7,0.1,7.5,0.6,11.3,1.4c39,8.2,29.2,8.5,45.8-2.5L1290.3,917.3z"/>
	<path class="st3" d="M1288.6,948.3l-4,4l-19.7-19.7c-3.4,9.6-10.2,17.6-15,22.1c-5.5,5.3-14.2,12.4-24.6,14.7l-2.6,21.4
		c0.8,0.1,1.6,0.2,2.4,0.2c0,0,24.7-23.7,58.2-22.4l12.8-12.8L1288.6,948.3z"/>
	<path class="st3" d="M1052.7,783.7l-2.8,2.8l-1.3,1.3c0,0,0,0-0.1-0.1l-6,5.3l19.2,19.6l8.6-9.8
		C1063.9,799.3,1057.5,793.3,1052.7,783.7z"/>
	<polygon class="st3" points="1022.9,810.7 1019.5,814 1041.1,835.7 1044.5,832.3 1061.7,812.8 1042.5,793.2 	"/>
	<path class="st3" d="M606.7,839.9l-4.5-4.5l-4.6,4.6l-11.1-11.1l4.5-4.5l-3.9-3.9l6.6-6.6l-9-9c-6.6,9.6-13.1,16.3-19.5,21.1
		l23.2,35.7C594.4,855.7,600.6,848.5,606.7,839.9z"/>
	<path class="st3" d="M499.6,740.5l5,5l-5.6,5.6l8.1,8.1c0,0,17.8-14.9,39.8-13.1c0,0,3.5-5.9,10.6-15.2L533,706.4L499.6,740.5z"/>
	<path class="st3" d="M685,618.1v28.7c7.6-2.2,17.3-4.3,28.8-5.7v-22.9L685,618.1L685,618.1z"/>
	<path class="st3" d="M753.2,589.2v22.2h-6.8v28.1c9.7,0.3,20.2,1.2,31.3,2.9c0,0,0.5-0.5,1.3-1.3v-51.9L753.2,589.2L753.2,589.2z"
		/>
	<polygon class="st3" points="975,488.1 975,476.2 945.6,476.2 945.6,495.7 982.7,495.7 	"/>
	<polygon class="st3" points="945.6,495.7 945.6,511.3 985.8,511.3 992,505.1 982.7,495.7 	"/>
	<polygon class="st3" points="1227.2,688.9 1246.6,669.5 1281.4,704.3 1262.2,723.5 	"/>
	<path class="st3" d="M1016.4,437.8c-6.5,0-11.8,5.3-11.8,11.8c0,6.5,5.3,11.8,11.8,11.8h7.8v-23.5H1016.4z"/>
	<polygon class="st3" points="1167.9,455.5 1167.9,455.5 1175.1,448.3 1143.6,417 1128.4,432.2 1159.8,463.6 	"/>
	<polygon class="st3" points="1175.1,448.3 1167.9,455.5 1181,468.5 1188.1,461.3 	"/>
	<polygon class="st3" points="1159.8,463.6 1173,476.8 1181,468.5 1167.9,455.5 	"/>
	<rect x="880.2" y="372.8" class="st3" width="29.2" height="21.9"/>
	<rect x="852.2" y="372.8" class="st3" width="28" height="21.9"/>
	<polyline class="st3" points="469.9,465.2 484.1,479.4 498.1,465.4 483.8,451.3 470.2,464.9 	"/>
	<polyline class="st3" points="498.7,436.5 483.8,451.3 498.1,465.4 512.9,450.6 498.7,436.5 	"/>
	<polygon id="_x3C_Path_x3E_" class="st3" points="530.6,443.4 570.2,483 580.4,472.9 580.4,467.3 543.7,430.7 	"/>
	<polygon id="_x3C_Path_x3E__1_" class="st3" points="712.5,558.3 712.5,530.2 690.5,530.2 690.5,586.9 700.7,586.9 700.7,558.3 	
		"/>
	<path id="_x3C_Path_x3E__2_" class="st3" d="M943.4,618.4v22c5.7,0.7,11.5,1.7,17.4,3v-25H943.4z"/>
	<path id="_x3C_Path_x3E__3_" class="st3" d="M770.2,711.9c-4.3,12.6-3.5,37.2,33,22.6c2.2-5.8,4.6-12.9,6.3-20.1
		c-4.1-3.3-10.6-8.4-15.8-11.3C785.6,698.4,774.7,698.6,770.2,711.9z"/>
</g>
<g id="Rooms">
	<rect id="r2-shp034a" x="963.5" y="402.4" class="st4" width="16.4" height="57.2"/>
	<polygon id="r2-shp033" class="st4" points="979.9,402.4 979.9,459.7 986.1,459.7 998.6,447.2 998.6,432.2 998.6,402.4 	"/>
	<polygon id="r2-shp035c" class="st4" points="852.2,402.4 852.2,434.8 877.3,459.8 884.4,459.8 886.4,461.9 886.4,402.4 	"/>
	<polygon id="r2-shp035b" class="st4" points="886.4,402.4 886.4,461.9 890.2,465.7 919.1,465.7 919.1,402.4 	"/>
	<polygon id="r2-shp035a" class="st4" points="919.1,402.4 919.1,465.7 933.6,465.7 939.6,459.7 946.1,459.7 946.1,402.4 	"/>
	<rect id="r2-shp034b" x="946.1" y="402.4" class="st4" width="17.4" height="57.2"/>
	<polygon id="r2-shp050" class="st4" points="470.3,501.9 457.6,514.2 446.4,525.1 493,571.7 509.2,555.4 511,553.7 511,542.5 	
		"/>
	<polygon id="r2-shp039-042" class="st4" points="785.4,458.4 806.4,437.4 806.4,402.4 680.6,402.4 680.6,458.4 717.6,458.4 
		724.9,465.7 767.1,465.7 774.4,458.4 	"/>
	<polygon id="r2-shp047b" class="st4" points="517,456.6 556.9,496.4 570.2,483 530.6,443.4 	"/>
	<polygon id="r2-shp048a" class="st4" points="504.1,469.1 544.2,509.1 556.9,496.4 517,456.6 	"/>
	<polygon id="r2-shp048b" class="st4" points="489.3,483.5 525.9,520.1 533.2,520.1 544.2,509.1 504.1,469.1 	"/>
	
		<rect id="r2-shp025b" x="1216.5" y="591.6" transform="matrix(0.7071 -0.7071 0.7071 0.7071 -59.6397 1055.605)" class="st4" width="55.7" height="16.3"/>
	
		<rect id="r2-shp026a" x="1193.4" y="568.2" transform="matrix(0.7071 -0.7071 0.7071 0.7071 -50.0502 1032.454)" class="st4" width="55.7" height="16.8"/>
	
		<rect id="r2-shp026a" x="1205.1" y="580.3" transform="matrix(0.7071 -0.7071 0.7071 0.7071 -54.8961 1044.1321)" class="st4" width="55.7" height="16.2"/>
	
		<rect id="r2-shp026b-027a" x="1175.6" y="542.1" transform="matrix(0.7071 -0.7071 0.7071 0.7071 -42.6798 1014.6674)" class="st4" width="55.7" height="33.5"/>
	
		<rect id="r2-shp027b-028" x="1151.6" y="517.7" transform="matrix(0.7071 -0.7071 0.7071 0.7071 -32.7579 990.7003)" class="st4" width="55.7" height="34.3"/>
	
		<rect id="r2-shp024" x="1243.1" y="613.6" transform="matrix(0.7071 -0.7071 0.7071 0.7071 -70.6459 1082.1854)" class="st4" width="55.7" height="25.6"/>
	<polygon id="r2-shp022b" class="st4" points="1330.4,642.1 1288.9,683.7 1299.9,694.7 1341.5,653.1 	"/>
	<polygon id="r2-shp022a" class="st4" points="1354.9,666.4 1341.5,653.1 1299.9,694.7 1313.1,707.9 	"/>
	<polygon id="r2-shp023" class="st4" points="1265.7,660.4 1288.9,683.7 1328.2,644.3 1305.1,621 	"/>
	
		<rect id="r2-shp029a-1" x="1111.8" y="485.8" transform="matrix(0.7071 -0.7071 0.7071 0.7071 -16.2491 950.8322)" class="st4" width="55.7" height="18.4"/>
	
		<rect id="r2-shp030" x="1087.8" y="462.5" transform="matrix(0.7071 -0.7071 0.7071 0.7071 -6.2972 926.8215)" class="st4" width="55.7" height="17"/>
	
		<rect id="r2-shp029b" x="1099.5" y="474.6" transform="matrix(0.7071 -0.7071 0.7071 0.7071 -11.1642 938.5701)" class="st4" width="55.7" height="16.3"/>
	<polygon id="r2-shp031" class="st4" points="1117.9,433.9 1119.7,432.1 1095.6,408.1 1071.6,432.2 1072.1,432.2 1072.1,466.9 
		1089.9,484.7 1129.3,445.3 	"/>
	<polygon id="r2-shp045b" class="st4" points="642.4,396.8 642.4,375.1 622.4,375.1 597.5,375.1 597.5,458.4 622.4,458.4 
		643.4,458.4 643.4,396.8 	"/>
	<polygon id="r2-shp045a" class="st4" points="653.4,396.8 643.4,396.8 643.4,458.4 653.4,458.4 680.6,458.4 680.6,396.8 	"/>
	<polygon id="r2-shp032c" class="st4" points="1011.5,374.9 1011.5,396.1 1004.7,396.1 1004.7,432.2 1026.4,432.2 1026.4,374.9 	"/>
	<rect id="r2-shp032b" x="1026.4" y="374.9" class="st4" width="22" height="57.2"/>
	<polygon id="r2-shp032a" class="st4" points="1113.1,389.8 1098.2,374.9 1048.4,374.9 1048.4,432.2 1071.6,432.2 	"/>
	<rect id="r2-shp005b" x="655.1" y="530.2" class="st4" width="18.9" height="56.7"/>
	<polygon id="r2-shp004b" class="st4" points="634.5,554.4 634.5,554.4 624.6,530.3 598.5,556.4 638.2,596.1 647.4,586.9 
		647.9,586.9 	"/>
	<polygon id="r2-shp007a" class="st4" points="731.1,522 723.1,530 723.1,558.3 735.6,558.3 735.8,522 	"/>
	<rect id="r2-shp007b-08a" x="735.8" y="522" class="st4" width="37.3" height="64.9"/>
	<polygon id="r2-shp008b" class="st4" points="795.4,539.5 777.9,522 773.1,522 773.1,586.9 795.4,586.9 	"/>
	<polygon id="r2-shp001" class="st4" points="509.7,635.4 554.5,680.2 577,657.5 532.3,612.9 	"/>
	<polygon id="r2-shp009a-b" class="st4" points="882.9,522.3 852.6,552.6 852.6,586.9 913.1,586.9 913.1,522.3 	"/>
	<polygon id="r2-shp019" class="st4" points="1185.9,732.5 1216.6,701.8 1198.4,683.7 1154,728 1169.1,743 1182.8,729.3 	"/>
	<polygon id="r2-shp015a-b" class="st4" points="1110.2,595 1106.6,598.8 1086.6,619.3 1094.7,627.3 1073.7,648.3 1082.7,657.2 
		1127.6,612.3 	"/>
	<polygon id="r2-shp021" class="st4" points="1267.7,752.9 1244.4,729.7 1200.2,773.9 1223.4,796.9 	"/>
	<polygon id="r2-shp020" class="st4" points="1221.9,707.2 1177.6,751.4 1200.2,773.9 1244.4,729.7 	"/>
	<polygon id="r2-shp018b" class="st4" points="1185.9,671.2 1141.4,715.6 1154,728 1198.4,683.7 	"/>
	<polygon id="r2-shp011a-b" class="st4" points="963.5,528.5 945.6,528.5 945.6,556.9 956.9,556.9 956.9,586.9 980,586.9 980,528.5 
			"/>
	<polygon id="r2-shp010" class="st4" points="934.9,557.4 934.9,528.3 928.9,522.3 913.1,522.3 913.1,586.9 924.2,586.9 
		924.2,557.4 	"/>
	<polygon id="r2-shp014" class="st4" points="1079.6,612.5 1099.9,592.1 1077.5,569.7 1036.1,611 1050.6,625.3 1071.5,604.4 	"/>
	<rect id="r2-shp012a" x="980" y="528.5" class="st4" width="18.6" height="58.4"/>
	<polygon id="r2-shp013b" class="st4" points="1064.9,557.2 1023.6,598.5 1036.1,611 1077.5,569.7 	"/>
	<rect id="r2-shp012b-1" x="998.6" y="528.5" class="st4" width="13.1" height="58.4"/>
	<polygon id="r2-shp012b-2" class="st4" points="1036.2,528.5 1014.1,528.5 1011.7,528.5 1011.7,586.9 1011.9,586.9 1012.2,587.2 
		1036.6,528.9 	"/>
	<polygon id="r2-shp013a" class="st4" points="1036.6,528.9 1012.2,587.2 1023.6,598.5 1064.9,557.2 	"/>
	<polygon id="robinson" class="st4" points="556.6,682.4 404,529.9 428.3,506.7 350,428.7 158.2,620.2 390,852.2 	"/>
	<polygon id="central-department-store" class="st4" points="1200.2,820.9 1452.5,568.6 1647.6,763.6 1394.5,1016.7 	"/>
	<path id="r028" class="st4" d="M936.4,616.5V611h-25v28c7.5-0.2,16-0.1,25,0.7v-21.3V616.5z"/>
	<path id="r025" class="st4" d="M1018.5,627.1l-9.7-8.7h-29.1v30.7c4.2,1.6,8.4,3.3,12.6,5.3L1018.5,627.1z"/>
	<path id="r024" class="st4" d="M1045.3,655.5l5.2-5.2l-5-5l2.6-2.6l-15.7-15.7l-25.3,25.3c0,0,11.8,7.7,26.2,19.8l14.4-14.4
		L1045.3,655.5z"/>
	<path id="r021" class="st4" d="M1102.4,682l-31.2,31.2c1.9,2.9,3.6,5.9,5.1,8.9c0,0,17.5-1.7,27,8.3l23.8-23.8L1102.4,682z"/>
	<path id="r022-023" class="st4" d="M1097.5,677.1l-1.8,1.8l-13.2-13.2l-13.5,13.5l-5-5l-16.5-16.5l-14.4,14.4
		c5.5,4.7,11.5,10,17.2,15.8c7.7,7.7,15.1,16.3,20.8,25.2l31.2-31.2L1097.5,677.1z"/>
	<path id="r020" class="st4" d="M1148.8,728.3l-23.9,23.9c0,0,9,11.5,8.3,24.7c0,0,4.3,1.9,10.3,4.9l29.4-29.4L1148.8,728.3z"/>
	<path id="r019" class="st4" d="M1197.4,777l-24.6-24.6l-29.4,29.4c10,4.9,24.5,12.6,30.7,18.5L1197.4,777z"/>
	<path id="r016" class="st4" d="M1134.1,898.2l-12.2,12.2l-3.8-3.8l-7.1,7.1c0,0,11.2,26.6,39.4,48.6l24-24
		C1154.5,918.6,1134.1,898.2,1134.1,898.2z"/>
	<path id="r006" class="st4" d="M600.9,781.7l33,29.7l4.2-4.2l2.8,2.8c0,0,20.1-6.7,36.9-27.2l-35.8-35.8
		C621,767.8,600.9,781.7,600.9,781.7z"/>
	<path id="r007" class="st4" d="M689.6,755.4l4.4-4.4l-7.6-7.8l5.5-5.3l-9-9l-4.7,4.5l-12.8-12.8c-7.2,9.5-15.3,18.4-23.3,26.4
		l35.8,35.8c5.5-6.6,10.6-14.7,14.6-24.5L689.6,755.4z"/>
	<path id="r002" class="st4" d="M478.9,818.4c0,0-0.1-0.1-0.1-0.1l-30.9,38.3v11.4c3.5-1.1,7.1-1.9,10.2-1.9v5.2l33.5,5l1.2-5.8
		c0,0,1.2,0.5,3,1.4l10.4-38.3C494.3,829.6,483.3,822.4,478.9,818.4z"/>
	<path id="r001" class="st4" d="M478.8,818.3c-5.4-4.8-22.6-21.3-28.7-27.3l-57,58.1l30.8,30.8c0,0,12.1-8,24-11.8v-11.4
		L478.8,818.3z"/>
	<path id="r003" class="st4" d="M522.6,837.2c-5.3-0.2-11-1.5-16.3-3.4l-10.4,38.3c6.2,3.1,20.4,10.9,26.2,20.6
		c0,0,9.6,0.8,23.8-3.9l-7.3-52C532.9,837.4,527.6,837.3,522.6,837.2z"/>
	<path id="r004" class="st4" d="M565.1,826c-9.2,6.9-18.2,9.7-26.5,10.7l7.3,52c11.8-3.9,26.9-11.7,42.4-27L565.1,826z"/>
	<path id="r037" class="st4" d="M533,706.4l24.5,24.5c5.2-6.8,12.3-15.5,21.5-25l-22.9-22.9L533,706.4z"/>
	<path id="r035-036" class="st4" d="M637,657.5l-15.2-15.2l-5.3,5.3l-3.7-3.7l-6.2,6.2l6,6L588.9,680l-15.2-15.2l-17.7,18l22.9,22.9
		c5.4-5.6,11.4-11.5,18.1-17.6l0,0C608.4,678.1,621.7,667.5,637,657.5z"/>
	<path id="r034" class="st4" d="M660.2,618.1l-16.8,15.7l21.2,20.7c0,0,7.2-3.9,20.5-7.7v-28.7H660.2z"/>
	<path id="r032" class="st4" d="M722,611.4v4.9v1.8v22.1c7.5-0.6,15.6-0.9,24.3-0.6v-28.1L722,611.4L722,611.4z"/>
	<path id="r030" class="st4" d="M806.4,589.2H779v51.9c3.9-3.7,16-14.2,27.3-17.4L806.4,589.2L806.4,589.2z"/>
	<path id="r011" class="st4" d="M925.9,685.5c-10.3-0.3-22.7-0.9-20.2,22.9c2.5,23.8,20.4,38,46.4,15c26-23,8.8-34.8-8.7-36.3
		C925.9,685.5,925.9,685.5,925.9,685.5z"/>
	<polygon id="r2-kio033" class="st4" points="1049.4,505.7 1069.1,486 1060.2,477.1 1043.7,477.1 1043.7,505.7 	"/>
	<path id="r2-kio038-039" class="st4" d="M1115.2,576.1L1115.2,576.1l-10.4-10.3l0,0l-10.8-10.8c-0.1,1-0.3,2-0.3,3
		c0,5.2,2,10,5.3,13.6h0l0,0c3.7,4,8.9,6.5,14.8,6.5c0.5,0,1,0,1.4-0.1L1115.2,576.1z"/>
	<path id="r2-kio034" class="st4" d="M1133.9,558c0-11.1-9-20.1-20.1-20.1c-1,0-2,0.1-3,0.2l21.2,21.2l-0.1,0.1l1.9,0.1
		C1133.8,559,1133.9,558.5,1133.9,558z"/>
	<polygon id="r2-shp050" class="st4" points="493,571.7 469.7,595 422.8,548.7 446.4,525.1 	"/>
	<polygon id="r2-shp046" class="st4" points="562,375.1 540.9,396.3 555.2,410.7 547.6,418.3 587.7,458.4 597.5,458.4 597.5,375.1 	
		"/>
	<polygon id="r2-shp002a" class="st4" points="532.3,612.9 577,657.5 587.5,647 569.9,629.4 542.8,602.4 	"/>
	
		<rect id="r2-shp002b" x="554.8" y="593" transform="matrix(0.7071 -0.7071 0.7071 0.7071 -268.7542 575.3501)" class="st4" width="10.7" height="38.2"/>
	
		<rect id="r2-shp025a" x="1228.2" y="603.1" transform="matrix(0.7071 -0.7071 0.7071 0.7071 -64.4741 1067.2609)" class="st4" width="55.7" height="16.6"/>
	<polygon id="r2-shp016-017-018a" class="st4" points="1082.7,657.2 1127.6,612.3 1142.4,627.2 1142.4,635.9 1174.1,667.7 
		1182.4,667.7 1185.9,671.2 1141.4,715.6 	"/>
	<path id="r014" class="st4" d="M1044.5,832.3l25.8-29.3c4.3,3.1,16.5,7,25.6,5.7c-0.6,7.9,0.8,17.1,3,26.9l-33.8,34.5
		c-5.6-7.2-17.2-23.3-21.1-33.1l2.6-2.6L1044.5,832.3z"/>
	<path id="r014" class="st4" d="M1065.1,870.2l32.3-41.7c3.8,17.6,13.2,42,26,58.4l-10.2,10.2l-5.5-5.5l-4.6,4.6
		C1086.7,891,1078.8,886.3,1065.1,870.2z"/>
	<path id="r012" class="st4" d="M966.4,738.7l24.6-24.6c6,9.4,20.1,22.1,33.3,35.5l-40.9,43.6c-10.1-11.1-17.9-23-22.9-35.6l4.6-4.6
		l-2-2l7.8-7.8L966.4,738.7z"/>
	<path id="r013" class="st4" d="M983.4,793.2l40.9-43.6l15.4,14.7c0.7,8.3,3.5,16.2,8.8,23.6l-25.6,22.8l-2.5-2.5l-5.8,5.8
		C1002.1,809.4,991.9,802.3,983.4,793.2z"/>
	<rect id="r2-shp006a" x="674" y="530.2" class="st4" width="16.5" height="56.7"/>
	<polygon id="r2-shp005a" class="st4" points="643.1,530.2 624.6,530.2 634.5,554.4 647.9,586.9 655.1,586.9 655.1,530.2 	"/>
	<polygon id="r2-shp003b-004a" class="st4" points="608.2,626.2 563.6,581.6 574.6,570.6 583.6,570.6 598.5,556.4 638.2,596.1 	"/>
</g>
<g id="Signs">
	<g id="stairs">
		<rect x="521.6" y="565.6" class="st5" width="14.8" height="14.8"/>
		<rect x="1128.2" y="568.7" class="st5" width="14.8" height="14.8"/>
	</g>
	<g id="handicapped-elevator">
		<rect x="469.7" y="453.5" class="st5" width="14.8" height="14.8"/>
		<rect x="1151.8" y="435.4" class="st5" width="14.8" height="14.8"/>
		<rect x="878" y="375.9" class="st5" width="14.8" height="14.8"/>
		<rect x="948.7" y="597.8" class="st5" width="14.8" height="14.8"/>
		<rect x="635.9" y="605.2" class="st5" width="14.8" height="14.8"/>
	</g>
	<g id="telephone">
		<rect x="485.9" y="453.5" class="st5" width="14.8" height="14.8"/>
		<rect x="1168.1" y="435.4" class="st5" width="14.8" height="14.8"/>
		<rect x="894.2" y="375.9" class="st5" width="14.8" height="14.8"/>
	</g>
	<g id="atm">
		<rect x="502.1" y="453.5" class="st5" width="14.8" height="14.8"/>
		<rect x="910.5" y="375.9" class="st5" width="14.8" height="14.8"/>
	</g>
	<g id="toilet">
		<rect x="1135.6" y="435.4" class="st5" width="14.8" height="14.8"/>
		<rect x="453.5" y="453.5" class="st5" width="14.8" height="14.8"/>
		<rect x="861.8" y="375.9" class="st5" width="14.8" height="14.8"/>
		<rect x="652.7" y="605.2" class="st5" width="14.8" height="14.8"/>
		<rect x="965.5" y="597.8" class="st5" width="14.8" height="14.8"/>
	</g>
	<rect id="parking" x="824.4" y="290.6" class="st5" width="14.8" height="14.8"/>
	<g id="elevator">
		<rect x="447.9" y="486.6" class="st5" width="14.8" height="14.8"/>
		<rect x="1199.7" y="490.8" class="st5" width="14.8" height="14.8"/>
		<rect x="797.3" y="375.9" class="st5" width="14.8" height="14.8"/>
		<rect x="998.8" y="597.8" class="st5" width="14.8" height="14.8"/>
		<rect x="619.1" y="605.2" class="st5" width="14.8" height="14.8"/>
	</g>
	<rect id="baby-change-room" x="982.4" y="597.8" class="st5" width="14.8" height="14.8"/>
	<g id="escalator">
		<rect x="575.8" y="530.2" class="st5" width="14.8" height="14.8"/>
		<rect x="1075.3" y="530.2" class="st5" width="14.8" height="14.8"/>
		<rect x="1223.6" y="666.5" class="st5" width="14.8" height="14.8"/>
		<rect x="802.1" y="530.2" class="st5" width="14.8" height="14.8"/>
		<rect x="845.7" y="530.2" class="st5" width="14.8" height="14.8"/>
		<rect x="1062.5" y="742.1" class="st5" width="14.8" height="14.8"/>
		<rect x="820.1" y="668.5" class="st5" width="14.8" height="14.8"/>
		<rect x="547.9" y="765.7" class="st5" width="14.8" height="14.8"/>
	</g>
	<g id="fire-exit">
		<rect x="936.1" y="567.3" class="st5" width="14.8" height="14.8"/>
		<rect x="710" y="567.3" class="st5" width="14.8" height="14.8"/>
		<rect x="583.2" y="624.3" class="st5" width="14.8" height="14.8"/>
		<rect x="1064.5" y="618.7" class="st5" width="14.8" height="14.8"/>
		<rect x="1172.1" y="734.7" class="st5" width="14.8" height="14.8"/>
	</g>
</g>
</svg>
