<?xml version="1.0" encoding="utf-8"?>
<!-- Generator: Adobe Illustrator 16.0.0, SVG Export Plug-In . SVG Version: 6.00 Build 0)  -->
<!DOCTYPE svg PUBLIC "-//W3C//DTD SVG 1.1//EN" "http://www.w3.org/Graphics/SVG/1.1/DTD/svg11.dtd">
<svg version="1.1" id="Layer_1" xmlns="http://www.w3.org/2000/svg" xmlns:xlink="http://www.w3.org/1999/xlink" x="0px" y="0px"
	 width="1683.781px" height="1190.551px" viewBox="0 0 1683.781 1190.551" enable-background="new 0 0 1683.781 1190.551"
	 xml:space="preserve">
<g id="background">
	<rect fill="#FFFFFF" width="1683.781" height="1190.551"/>
</g>
<g id="etc">
	<polygon fill="#DEDEDE" stroke="#494949" stroke-width="0.5" stroke-miterlimit="10" points="306.007,489.564 402.814,282.854 
		451.416,329.35 552.079,323.255 751.909,240.655 790.543,232.155 825.992,211.155 904.769,211.155 919.58,232.155 926.242,240.218 
		1044.129,306.905 1160.71,389.905 1415.774,561.278 1629.234,774.739 1329.41,1058.985 1173.13,885.908 965.113,752.903 
		951.363,739.653 860.492,698.118 812.39,702.775 731.696,727.465 702.11,742.902 574.408,828.33 496.94,894.56 384.122,821.67 
		262.169,797.431 150.22,628.427 253.371,525.19 	"/>
	<circle fill="#DEDEDE" stroke="#494949" stroke-width="0.5" stroke-miterlimit="10" cx="459.652" cy="904.262" r="44.625"/>
	<circle fill="#DEDEDE" stroke="#494949" stroke-width="0.5" stroke-miterlimit="10" cx="459.652" cy="904.26" r="37.165"/>
	<circle fill="#DEDEDE" stroke="#494949" stroke-width="0.5" stroke-miterlimit="10" cx="459.652" cy="904.262" r="18.915"/>
	<circle fill="#DEDEDE" stroke="#494949" stroke-width="0.5" stroke-miterlimit="10" cx="1366.576" cy="1075.448" r="44.625"/>
	<circle fill="#DEDEDE" stroke="#494949" stroke-width="0.5" stroke-miterlimit="10" cx="1366.576" cy="1075.446" r="37.166"/>
	<circle fill="#DEDEDE" stroke="#494949" stroke-width="0.5" stroke-miterlimit="10" cx="1366.576" cy="1075.448" r="18.915"/>
	<path fill="none" stroke="#494949" stroke-width="0.5" stroke-miterlimit="10" d="M378.404,957.403
		c0,0,418.792-53.332,438.792-56.666s23.813-5.334,50.571,6.666c26.762,12,528.096,229.334,528.096,229.334"/>
	<path fill="#DEDEDE" stroke="#494949" stroke-width="0.5" stroke-miterlimit="10" d="M1366.576,1038.28L987.55,654.383
		l-314.02,0.188c0,0-184,184.832-204.333,201.832S347.863,914.8,276.363,842.601c-71.5-72.196-220-220.934-220-220.934
		l63.875-34.725l260.226-71.947l365.232-25.832h354.975l137.245,66.813l269.531,340.546L1366.576,1038.28z"/>
	<path fill="#DEDEDE" stroke="#494949" stroke-width="0.5" stroke-miterlimit="10" d="M692.863,692.403
		c0,0-174.172,173.5-188.586,186.5s-6.914,40.5,15.586,39s35.151-2.5,47.077-4.5c11.923-2,15.923-11,6.923-21.5s-28-29.5-28-29.5
		l13.537-13c0,0,25.799,27.887,33.631,35.94c7.832,8.059,16.498,6.06,21.165,5.56s212.667-20,225.667-21.5s18.312,0,27.904,4.5
		c9.596,4.5,203.158,84,216.625,90c13.471,6,20.471-0.5,20.471-16.5s0-100,0-100l55,56.5c0,0-23.5-0.25-27.25,0.25s-7.5,4.25-7.5,9
		s-0.25,57.5-0.25,61.75s0.5,12.5,10,16.25s39.5,16.5,39.5,16.5l4,8.5c0,0,101.758,44.623,119.258,52.926
		c21.938,10.408,48.492-9.588,19.992-38.256c-28.5-28.67-337.5-338.42-337.5-338.42H692.863L692.863,692.403z"/>
	
		<line fill="none" stroke="#494949" stroke-width="0.5" stroke-miterlimit="10" x1="56.363" y1="663.903" x2="261.363" y2="862.223"/>
	<path fill="#DEDEDE" stroke="#494949" stroke-width="0.5" stroke-miterlimit="10" d="M80.509,534.049l-27.646,26.688l3.5,5.563
		v32.896c0,0,204.167,203.207,238.167,236.873c34,33.666,124.015,47.332,177.674-7.168s51.826-52.332,51.826-52.332"/>
	
		<rect x="404.288" y="680.093" transform="matrix(-0.7103 -0.7039 0.7039 -0.7103 203.908 1488.1799)" fill="#DEDEDE" stroke="#494949" stroke-width="0.5" stroke-miterlimit="10" width="7.849" height="44.068"/>
	
		<rect x="398.496" y="674.383" transform="matrix(-0.7103 -0.7039 0.7039 -0.7103 198.0904 1474.3553)" fill="#DEDEDE" stroke="#494949" stroke-width="0.5" stroke-miterlimit="10" width="7.849" height="44.068"/>
	<polygon fill="#DEDEDE" stroke="#494949" stroke-width="0.5" stroke-miterlimit="10" points="1062.232,207.736 1045.363,207.736 
		1045.363,150.903 615.529,150.903 615.529,207.736 573.029,207.736 375.738,405.028 452.862,482.152 563.446,371.986 
		1100.031,373.57 1372.697,645.237 1436.214,581.719 	"/>
	<polygon fill="#DEDEDE" stroke="#494949" stroke-width="0.5" stroke-miterlimit="10" points="362.612,629.989 350.615,617.991 
		328.45,639.491 340.779,651.821 	"/>
	<polygon fill="#DEDEDE" stroke="#494949" stroke-width="0.5" stroke-miterlimit="10" points="452.483,652.184 439.373,665.293 
		450.415,676.729 463.758,664.03 	"/>
	<path fill="#DEDEDE" stroke="#494949" stroke-width="0.5" stroke-miterlimit="10" d="M1132.613,911.403v68.25l50,21.25l4.5,10.5
		c0,0,106.5,47.5,119,52.25s17.5-8.75,9.75-16.5s-143.75-134.5-143.75-134.5L1132.613,911.403z"/>
	<polygon fill="#DEDEDE" stroke="#494949" stroke-width="0.5" stroke-miterlimit="10" points="418.863,268.153 457.363,229.653 
		503.238,275.528 465.363,313.403 	"/>
	
		<rect x="1200.114" y="629.195" transform="matrix(0.704 -0.7102 0.7102 0.704 -106.1012 1047.8911)" fill="#DEDEDE" stroke="#494949" stroke-width="0.5" stroke-miterlimit="10" width="7.849" height="44.068"/>
	
		<rect x="1205.83" y="623.627" transform="matrix(0.704 -0.7102 0.7102 0.704 -100.4554 1050.3031)" fill="#DEDEDE" stroke="#494949" stroke-width="0.5" stroke-miterlimit="10" width="7.849" height="44.069"/>
	
		<rect x="1071.864" y="503.87" transform="matrix(-0.0045 -1 1 -0.0045 554.7077 1604.0372)" fill="#DEDEDE" stroke="#494949" stroke-width="0.5" stroke-miterlimit="10" width="7.849" height="44.069"/>
	
		<rect x="1074.696" y="495.847" transform="matrix(-0.0042 -1 1 -0.0042 565.3053 1598.6848)" fill="#DEDEDE" stroke="#494949" stroke-width="0.5" stroke-miterlimit="10" width="7.85" height="44.071"/>
	
		<rect x="1114.295" y="545.327" transform="matrix(0.7041 -0.7101 0.7101 0.7041 -64.7197 958.9873)" fill="#DEDEDE" stroke="#494949" stroke-width="0.5" stroke-miterlimit="10" width="7.849" height="23.634"/>
	
		<rect x="873.863" y="481.902" fill="#DEDEDE" stroke="#494949" stroke-width="0.5" stroke-miterlimit="10" width="134.166" height="29.333"/>
	
		<rect x="614.196" y="482.069" fill="#DEDEDE" stroke="#494949" stroke-width="0.5" stroke-miterlimit="10" width="131.5" height="28.5"/>
	
		<rect x="581.974" y="504.408" transform="matrix(-0.0045 -1 1 -0.0045 62.0862 1114.6926)" fill="#DEDEDE" stroke="#494949" stroke-width="0.5" stroke-miterlimit="10" width="7.852" height="44.069"/>
	
		<rect x="579.795" y="496.385" transform="matrix(-0.0045 -1 1 -0.0045 67.9209 1104.4553)" fill="#DEDEDE" stroke="#494949" stroke-width="0.5" stroke-miterlimit="10" width="7.851" height="44.069"/>
	<polygon fill="#DEDEDE" stroke="#494949" stroke-width="0.5" stroke-miterlimit="10" points="1121.863,582.885 1139.604,565.144 
		1190.73,616.271 1173.314,633.686 	"/>
</g>
<g id="Rooms">
	<polygon id="b-shp054b" fill="#939598" stroke="#494949" stroke-width="0.5" stroke-miterlimit="10" points="517.195,456.403 
		559.399,498.608 559.613,498.403 566.363,498.403 572.059,493.267 526.332,447.54 	"/>
	<polygon id="b-shp055" fill="#939598" stroke="#494949" stroke-width="0.5" stroke-miterlimit="10" points="486.738,485.946 
		525.529,524.737 532.188,524.737 559.399,498.608 517.195,456.403 	"/>
	<polygon id="b-shp054a" fill="#939598" stroke="#494949" stroke-width="0.5" stroke-miterlimit="10" points="526.332,447.54 
		572.059,493.267 587.398,479.439 541.137,433.178 	"/>
	<polygon id="b-shp056a" fill="#939598" stroke="#494949" stroke-width="0.5" stroke-miterlimit="10" points="460.681,511.223 
		507.185,557.726 515.613,549.403 515.613,540.987 473.456,498.831 	"/>
	<polygon id="b-shp044b-45" fill="#939598" stroke="#494949" stroke-width="0.5" stroke-miterlimit="10" points="855.529,402.403 
		855.529,447.403 869.261,461.403 896.697,461.403 896.697,402.403 	"/>
	
		<rect id="b-shp051" x="615.529" y="402.403" fill="#939598" stroke="#494949" stroke-width="0.5" stroke-miterlimit="10" width="33.167" height="66.25"/>
	<polygon id="b-shp056b" fill="#939598" stroke="#494949" stroke-width="0.5" stroke-miterlimit="10" points="445.77,525.687 
		492.405,572.322 507.185,557.726 460.681,511.223 	"/>
	<polygon id="b-shp053" fill="#939598" stroke="#494949" stroke-width="0.5" stroke-miterlimit="10" points="541.137,433.178 
		587.398,479.439 599.045,468.94 572.458,402.796 	"/>
	<polygon id="b-shp052" fill="#939598" stroke="#494949" stroke-width="0.5" stroke-miterlimit="10" points="615.529,468.653 
		615.529,402.403 572.863,402.403 572.458,402.796 599.045,468.94 599.363,468.653 	"/>
	<polygon id="b-shp046-050" fill="#939598" stroke="#494949" stroke-width="0.5" stroke-miterlimit="10" points="805.029,402.403 
		648.696,402.403 648.696,468.653 709.113,468.653 713.613,461.403 788.696,461.403 805.029,445.07 	"/>
	<polygon id="b-shp057a" fill="#939598" stroke="#494949" stroke-width="0.5" stroke-miterlimit="10" points="434.032,537.073 
		480.771,583.813 492.405,572.322 445.77,525.687 	"/>
	<polygon id="b-shp060a" fill="#939598" stroke="#494949" stroke-width="0.5" stroke-miterlimit="10" points="380.054,647.421 
		399.104,628.289 406.279,635.479 387.197,654.562 	"/>
	<polygon id="b-shp057b" fill="#939598" stroke="#494949" stroke-width="0.5" stroke-miterlimit="10" points="422.061,548.686 
		468.906,595.531 480.771,583.813 434.032,537.073 	"/>
	<polygon id="b-shp058" fill="#939598" stroke="#494949" stroke-width="0.5" stroke-miterlimit="10" points="422.061,548.686 
		402.814,567.354 426.498,591.039 444.529,609.071 455.195,609.071 468.906,595.531 	"/>
	<polygon id="b-shp060b" fill="#939598" stroke="#494949" stroke-width="0.5" stroke-miterlimit="10" points="406.279,635.487 
		387.195,654.571 375.112,642.489 375.112,642.489 375.112,642.489 362.612,629.989 340.779,651.821 376.122,687.165 
		412.862,650.879 412.862,642.071 	"/>
	<polygon id="b-shp061-63" fill="#939598" stroke="#494949" stroke-width="0.5" stroke-miterlimit="10" points="340.779,651.821 
		340.779,651.821 328.45,639.491 255.863,709.903 301.546,755.756 349.363,708.653 354.363,708.653 376.122,687.165 	"/>
	<polygon id="b-shp032a" fill="#939598" stroke="#494949" stroke-width="0.5" stroke-miterlimit="10" points="1260.244,572.141 
		1212.253,619.055 1224.101,630.749 1271.692,583.547 	"/>
	<polygon id="b-shp032b" fill="#939598" stroke="#494949" stroke-width="0.5" stroke-miterlimit="10" points="1224.101,630.749 
		1235.24,641.745 1283.222,595.033 1271.692,583.547 	"/>
	<polygon id="b-shp019a" fill="#939598" stroke="#494949" stroke-width="0.5" stroke-miterlimit="10" points="1237.871,549.852 
		1193.613,593.359 1193.613,600.653 1212.253,619.055 1260.244,572.141 	"/>
	<polygon id="b-shp036" fill="#939598" stroke="#494949" stroke-width="0.5" stroke-miterlimit="10" points="1176.548,488.762 
		1143.556,455.894 1099.939,499.978 1126.505,526.403 1137.197,526.403 	"/>
	<polygon id="b-shp035" fill="#939598" stroke="#494949" stroke-width="0.5" stroke-miterlimit="10" points="1188.779,500.944 
		1150.197,538.57 1150.197,549.967 1170.14,569.808 1214.089,526.162 	"/>
	<polygon id="b-shp034" fill="#939598" stroke="#494949" stroke-width="0.5" stroke-miterlimit="10" points="1214.089,526.162 
		1170.14,569.808 1193.613,593.152 1193.613,593.359 1237.871,549.852 	"/>
	<polygon id="b-shp029b" fill="#939598" stroke="#494949" stroke-width="0.5" stroke-miterlimit="10" points="1343.056,655.254 
		1295.927,702.383 1306.977,713.29 1354.273,665.992 	"/>
	<polygon id="b-shp030b" fill="#939598" stroke="#494949" stroke-width="0.5" stroke-miterlimit="10" points="1308.457,620.172 
		1261.229,667.401 1285.566,692.403 1333.188,645.682 	"/>
	<polygon id="b-shp030a" fill="#939598" stroke="#494949" stroke-width="0.5" stroke-miterlimit="10" points="1285.566,692.403 
		1295.927,702.383 1343.056,655.254 1333.188,645.682 	"/>
	<polygon id="b-shp031" fill="#939598" stroke="#494949" stroke-width="0.5" stroke-miterlimit="10" points="1283.222,595.033 
		1235.24,641.745 1255.509,661.756 1302.765,614.502 	"/>
	<polygon id="b-shp037b" fill="#939598" stroke="#494949" stroke-width="0.5" stroke-miterlimit="10" points="1118.824,431.255 
		1071.75,477.864 1084.117,490.33 1131.263,443.648 	"/>
	
		<rect id="b-shp041b" x="980.031" y="402.403" fill="#939598" stroke="#494949" stroke-width="0.5" stroke-miterlimit="10" width="17.166" height="66"/>
	<polygon id="b-shp037a" fill="#939598" stroke="#494949" stroke-width="0.5" stroke-miterlimit="10" points="1131.263,443.648 
		1084.117,490.33 1093.613,499.903 1099.863,499.903 1099.939,499.978 1143.556,455.894 	"/>
	<polygon id="b-shp042b" fill="#939598" stroke="#494949" stroke-width="0.5" stroke-miterlimit="10" points="947.031,402.403 
		947.031,461.564 954.113,468.403 964.531,468.403 964.531,402.403 	"/>
	
		<rect id="b-shp042a" x="964.531" y="402.403" fill="#939598" stroke="#494949" stroke-width="0.5" stroke-miterlimit="10" width="15.5" height="66"/>
	<polygon id="b-shp040b-041a" fill="#939598" stroke="#494949" stroke-width="0.5" stroke-miterlimit="10" points="
		1012.863,402.403 997.197,402.403 997.197,468.403 1012.863,468.403 1028.029,468.403 1028.029,402.403 	"/>
	<polygon id="b-shp043-44a" fill="#939598" stroke="#494949" stroke-width="0.5" stroke-miterlimit="10" points="896.697,402.403 
		896.697,461.403 946.863,461.403 947.031,461.564 947.031,402.403 	"/>
	<polygon id="b-shp038" fill="#939598" stroke="#494949" stroke-width="0.5" stroke-miterlimit="10" points="1118.824,431.255 
		1089.863,402.403 1089.24,402.403 1062.502,468.543 1071.75,477.864 	"/>
	<polygon id="b-shp039-040a" fill="#939598" stroke="#494949" stroke-width="0.5" stroke-miterlimit="10" points="1045.363,402.403 
		1028.029,402.403 1028.029,468.403 1045.363,468.403 1062.363,468.403 1062.502,468.543 1089.24,402.403 	"/>
	<polygon id="b-shp010a" fill="#939598" stroke="#494949" stroke-width="0.5" stroke-miterlimit="10" points="582.988,568.278 
		582.402,568.317 624.22,610.135 644.182,590.096 602.675,548.59 	"/>
	<polygon id="b-shp009" fill="#939598" stroke="#494949" stroke-width="0.5" stroke-miterlimit="10" points="577.363,568.653 
		556.875,588.914 584.363,616.403 591.05,609.715 607.877,626.543 624.22,610.135 582.402,568.317 	"/>
	<polygon id="b-shp007-008a" fill="#939598" stroke="#494949" stroke-width="0.5" stroke-miterlimit="10" points="514.738,630.586 
		514.738,640.528 554.418,680.209 585.296,649.211 540.849,604.764 	"/>
	<polygon id="b-shp008b" fill="#939598" stroke="#494949" stroke-width="0.5" stroke-miterlimit="10" points="577.738,622.903 
		550.276,595.441 540.849,604.764 585.296,649.211 593.031,641.446 576.113,624.528 	"/>
	<polygon id="b-shp010b" fill="#939598" stroke="#494949" stroke-width="0.5" stroke-miterlimit="10" points="602.675,548.59 
		644.182,590.096 647.363,586.902 648.604,586.902 623.575,527.691 	"/>
	<polygon id="b-shp011b" fill="#939598" stroke="#494949" stroke-width="0.5" stroke-miterlimit="10" points="677.391,522.403 
		655.863,522.403 650.113,527.403 648.981,527.403 658.286,563.775 677.391,563.775 	"/>
	<polygon id="b-shp011a" fill="#939598" stroke="#494949" stroke-width="0.5" stroke-miterlimit="10" points="623.863,527.403 
		623.575,527.691 648.604,586.902 657.391,586.902 657.391,563.775 658.286,563.775 648.981,527.403 	"/>
	<polygon id="b-shp012a" fill="#939598" stroke="#494949" stroke-width="0.5" stroke-miterlimit="10" points="699.488,564.153 
		699.488,522.403 681.363,522.403 677.391,522.403 677.391,563.775 677.391,563.775 677.391,563.775 657.391,563.775 
		657.391,586.902 681.363,586.902 704.363,586.902 704.363,564.153 	"/>
	<polygon id="b-shp012b" fill="#939598" stroke="#494949" stroke-width="0.5" stroke-miterlimit="10" points="704.363,564.153 
		713.238,564.153 713.238,526.404 713.113,526.403 708.613,522.403 699.488,522.403 699.488,564.153 	"/>
	<polygon id="b-shp003a" fill="#939598" stroke="#494949" stroke-width="0.5" stroke-miterlimit="10" points="396.113,747.903 
		394.613,753.737 393.942,754.42 437.303,797.78 460.227,774.768 414.841,729.381 	"/>
	<polygon id="b-shp003b" fill="#939598" stroke="#494949" stroke-width="0.5" stroke-miterlimit="10" points="414.841,729.381 
		460.227,774.768 472.204,762.745 426.908,717.448 	"/>
	<polygon id="b-shp001" fill="#939598" stroke="#494949" stroke-width="0.5" stroke-miterlimit="10" points="347.423,801.805 
		390.363,844.903 413.505,821.67 370.318,778.483 	"/>
	<polygon id="b-shp002a" fill="#939598" stroke="#494949" stroke-width="0.5" stroke-miterlimit="10" points="370.318,778.483 
		413.505,821.67 425.17,809.961 381.898,766.688 	"/>
	<polygon id="b-shp002b" fill="#939598" stroke="#494949" stroke-width="0.5" stroke-miterlimit="10" points="381.898,766.688 
		425.17,809.961 437.303,797.78 393.942,754.42 	"/>
	<polygon id="b-shp013a" fill="#939598" stroke="#494949" stroke-width="0.5" stroke-miterlimit="10" points="731.391,526.521 
		722.613,526.464 722.613,548.775 731.391,548.775 	"/>
	<path id="b-shp013b-014" fill="#939598" stroke="#494949" stroke-width="0.5" stroke-miterlimit="10" d="M731.391,526.521v22.256
		l0,0l0,0h-8.776v15.752h14.5v22.375h43.375c0-10.617,0-48.935,0-60.065L731.391,526.521z"/>
	<polygon id="b-shp006" fill="#939598" stroke="#494949" stroke-width="0.5" stroke-miterlimit="10" points="531.401,703.317 
		491.988,663.903 481.05,663.903 471.253,673.593 516.766,718.009 	"/>
	<polygon id="b-shp004b-5" fill="#939598" stroke="#494949" stroke-width="0.5" stroke-miterlimit="10" points="516.766,718.009 
		471.253,673.593 462.479,682.271 446.705,697.87 483.777,734.941 498.192,720.927 498.192,720.927 498.192,720.927 
		506.381,728.434 507.51,727.301 	"/>
	<polygon id="b-shp004a" fill="#939598" stroke="#494949" stroke-width="0.5" stroke-miterlimit="10" points="426.908,717.448 
		472.204,762.745 482.622,752.286 437.404,707.067 	"/>
	<polygon id="b-shp022c" fill="#939598" stroke="#494949" stroke-width="0.5" stroke-miterlimit="10" points="1097.822,578.695 
		1090.697,571.57 1043.726,618.542 1050.876,625.641 1067.24,609.28 	"/>
	<polygon id="b-shp023" fill="#939598" stroke="#494949" stroke-width="0.5" stroke-miterlimit="10" points="1118.27,599.143 
		1107.854,599.143 1081.854,625.143 1089.931,633.221 1074.277,648.875 1086.854,661.361 1133.998,614.871 	"/>
	<polygon id="b-shp024" fill="#939598" stroke="#494949" stroke-width="0.5" stroke-miterlimit="10" points="1086.854,661.361 
		1106.449,680.819 1147.337,639.928 1147.337,628.211 1133.998,614.871 	"/>
	<polygon id="b-shp022d" fill="#939598" stroke="#494949" stroke-width="0.5" stroke-miterlimit="10" points="1076.458,618.499 
		1101.55,593.404 1101.55,582.424 1097.822,578.695 1067.24,609.28 	"/>
	<polygon id="b-shp022b" fill="#939598" stroke="#494949" stroke-width="0.5" stroke-miterlimit="10" points="1087.197,568.07 
		1078.574,568.07 1035.886,610.756 1043.726,618.542 1090.697,571.57 	"/>
	<polygon id="b-shp022a" fill="#939598" stroke="#494949" stroke-width="0.5" stroke-miterlimit="10" points="1078.531,568.07 
		1066.537,555.979 1023.781,598.737 1035.886,610.756 1078.574,568.07 	"/>
	<polygon id="b-shp028" fill="#939598" stroke="#494949" stroke-width="0.5" stroke-miterlimit="10" points="1258.011,738.885 
		1246.322,727.194 1199.906,773.612 1223.363,796.903 1258.779,761.756 1269.875,750.747 	"/>
	<polygon id="b-shp025-27" fill="#939598" stroke="#494949" stroke-width="0.5" stroke-miterlimit="10" points="1180.693,661.565 
		1169.951,661.565 1128.652,702.864 1199.906,773.612 1246.322,727.194 	"/>
	<polygon id="b-shp019a" fill="#939598" stroke="#494949" stroke-width="0.5" stroke-miterlimit="10" points="964.488,522.403 
		952.363,522.403 945.863,527.903 945.863,565.091 958.988,565.091 958.988,586.902 979.613,586.902 979.613,561.278 
		979.613,522.403 	"/>
	<path id="b-shp015" fill="#939598" stroke="#494949" stroke-width="0.5" stroke-miterlimit="10" d="M805.488,581.652v-47.625
		l-7.075-7.075l-17.925-0.115c0,11.133,0,49.448,0,60.065h21v-5.25H805.488z"/>
	<polygon id="b-shp021" fill="#939598" stroke="#494949" stroke-width="0.5" stroke-miterlimit="10" points="1037.863,527.07 
		1037.695,527.07 1011.906,586.943 1023.781,598.737 1066.537,555.979 	"/>
	<polygon id="b-shp016" fill="#939598" stroke="#494949" stroke-width="0.5" stroke-miterlimit="10" points="862.277,527.364 
		856.675,532.965 856.675,582.152 860.613,582.152 860.613,586.902 878.863,586.902 878.863,527.471 	"/>
	<polygon id="b-shp017" fill="#939598" stroke="#494949" stroke-width="0.5" stroke-miterlimit="10" points="878.863,527.471 
		878.863,586.902 913.988,586.902 913.988,527.698 	"/>
	<polygon id="b-shp020b" fill="#939598" stroke="#494949" stroke-width="0.5" stroke-miterlimit="10" points="1012.363,527.07 
		1008.113,522.403 995.488,522.403 995.488,586.902 1011.863,586.902 1011.906,586.943 1037.695,527.07 	"/>
	<polygon id="b-shp020a" fill="#939598" stroke="#494949" stroke-width="0.5" stroke-miterlimit="10" points="979.613,522.403 
		979.613,561.278 979.613,586.902 995.488,586.902 995.488,522.403 	"/>
	<polygon id="b-shp018" fill="#939598" stroke="#494949" stroke-width="0.5" stroke-miterlimit="10" points="939.238,565.091 
		939.238,527.86 913.988,527.698 913.988,586.902 924.863,586.902 924.863,565.091 	"/>
	<polygon id="topsmarket" fill="#939598" stroke="#494949" stroke-width="0.5" stroke-miterlimit="10" points="255.863,709.903 
		429.188,541.773 411.339,523.925 452.139,483.126 354.708,385.695 430.182,310.222 367.259,247.299 80.509,534.049 	"/>
	<polygon id="homework" fill="#939598" stroke="#494949" stroke-width="0.5" stroke-miterlimit="10" points="1223.363,796.903 
		1437.38,582.885 1629.234,774.739 1399.716,1004.256 1207.613,812.153 	"/>
	<polygon id="b-kio072" fill="#939598" stroke="#494949" stroke-width="0.5" stroke-miterlimit="10" points="1138.634,553.633 
		1128.252,543.345 1119.139,552.394 1129.594,562.755 	"/>
	<polygon id="b-kio071" fill="#939598" stroke="#494949" stroke-width="0.5" stroke-miterlimit="10" points="1118.248,533.432 
		1109.209,542.553 1119.139,552.394 1128.252,543.345 	"/>
	<polygon id="b-kio021" fill="#939598" stroke="#494949" stroke-width="0.5" stroke-miterlimit="10" points="1102.766,547.296 
		1093.459,556.684 1104.148,567.279 1113.529,557.965 	"/>
	<polygon id="b-kio022" fill="#939598" stroke="#494949" stroke-width="0.5" stroke-miterlimit="10" points="1104.148,567.279 
		1114.487,577.527 1123.793,568.14 1113.529,557.965 	"/>
	<polygon id="amor" fill="#939598" stroke="#494949" stroke-width="0.5" stroke-miterlimit="10" points="341.925,758.958 
		352.947,770.155 370.411,752.69 359.501,741.964 	"/>
	<polygon id="bonjour" fill="#939598" stroke="#494949" stroke-width="0.5" stroke-miterlimit="10" points="377.595,724.469 
		359.501,741.964 370.411,752.69 388.114,734.987 	"/>
	
		<polygon id="crepe-chad-na-crepe-par-cheou" fill="#939598" stroke="#494949" stroke-width="0.5" stroke-miterlimit="10" points="
		377.595,724.469 366.863,713.737 348.98,731.62 359.501,741.964 	"/>
	<polygon id="mango-mania" fill="#939598" stroke="#494949" stroke-width="0.5" stroke-miterlimit="10" points="348.98,731.62 
		331.863,748.737 341.925,758.958 359.501,741.964 	"/>
	<polygon id="b-kio055-056" fill="#939598" stroke="#494949" stroke-width="0.5" stroke-miterlimit="10" points="1218.447,637.821 
		1203.779,623.153 1198.216,628.715 1212.951,643.317 1227.64,657.875 1233.029,652.403 	"/>
	<polygon id="b-kio036" fill="#939598" stroke="#494949" stroke-width="0.5" stroke-miterlimit="10" points="1216.365,669.067 
		1201.548,654.383 1194.779,661.153 1209.529,675.903 	"/>
	<polygon id="b-kio037" fill="#939598" stroke="#494949" stroke-width="0.5" stroke-miterlimit="10" points="1186.943,639.907 
		1179.988,646.362 1194.779,661.153 1201.548,654.383 	"/>
	<path id="b-kio019" fill="#939598" stroke="#494949" stroke-width="0.5" stroke-miterlimit="10" d="M1076.865,542.736
		c8.514,0,15.766-5.331,18.648-12.829h-37.305C1061.095,537.405,1068.349,542.736,1076.865,542.736z"/>
	<path id="b-kio037" fill="#939598" stroke="#494949" stroke-width="0.5" stroke-miterlimit="10" d="M1076.865,502.736
		c-7.84,0-14.607,4.521-17.887,11.088h35.771C1091.468,507.257,1084.703,502.736,1076.865,502.736z"/>
	<polygon id="b-kio011" fill="#939598" stroke="#494949" stroke-width="0.5" stroke-miterlimit="10" points="394.571,687.735 
		379.904,702.401 385.466,707.963 400.067,693.231 400.14,693.158 394.759,687.548 	"/>
	<polygon id="b-kio012" fill="#939598" stroke="#494949" stroke-width="0.5" stroke-miterlimit="10" points="409.154,673.151 
		394.759,687.548 400.14,693.158 414.627,678.54 	"/>
	<polygon id="b-kio002" fill="#939598" stroke="#494949" stroke-width="0.5" stroke-miterlimit="10" points="425.817,689.815 
		411.134,704.631 417.904,711.401 432.653,696.651 	"/>
	<polygon id="b-kio001" fill="#939598" stroke="#494949" stroke-width="0.5" stroke-miterlimit="10" points="396.657,719.237 
		403.112,726.192 417.904,711.401 411.134,704.631 	"/>
	<path id="b-kio017" fill="#939598" stroke="#494949" stroke-width="0.5" stroke-miterlimit="10" d="M584.985,543.278
		c7.857,0,14.642-4.546,17.911-11.146h-35.822C570.342,538.732,577.125,543.278,584.985,543.278z"/>
	<path id="b-kio079" fill="#939598" stroke="#494949" stroke-width="0.5" stroke-miterlimit="10" d="M584.985,503.279
		c-7.749,0-14.453,4.414-17.774,10.854h35.548C599.438,507.692,592.733,503.279,584.985,503.279z"/>
	<polygon id="b-shp059b" fill="#939598" stroke="#494949" stroke-width="0.5" stroke-miterlimit="10" points="390.972,620.181 
		381.847,610.904 362.613,629.989 371.888,639.265 	"/>
	<polygon id="yamazaki" fill="#939598" stroke="#494949" stroke-width="0.5" stroke-miterlimit="10" points="328.809,773.873 
		317.68,762.745 299.736,780.689 311.077,791.358 	"/>
	<polygon id="farm-design" fill="#939598" stroke="#494949" stroke-width="0.5" stroke-miterlimit="10" points="299.736,780.689 
		282.68,797.745 293.478,808.714 311.077,791.358 	"/>
	<polygon id="southern-coffee" fill="#939598" stroke="#494949" stroke-width="0.5" stroke-miterlimit="10" points="
		338.931,783.995 328.809,773.873 311.077,791.358 321.635,801.291 	"/>
	<polygon id="heads-or-tails" fill="#939598" stroke="#494949" stroke-width="0.5" stroke-miterlimit="10" points="
		311.077,791.358 293.478,808.714 303.764,819.163 321.635,801.291 	"/>
	<polygon id="wine-i-love-you-sweet-cafe" fill="#939598" stroke="#494949" stroke-width="0.5" stroke-miterlimit="10" points="
		441.893,641.056 417.355,664.408 428.523,676.143 439.373,665.293 439.373,665.293 452.483,652.184 	"/>
	<polygon id="first-snow" fill="#939598" stroke="#494949" stroke-width="0.5" stroke-miterlimit="10" points="428.523,676.143 
		439.22,687.383 450.415,676.729 439.373,665.293 	"/>
	<polygon id="little-egg" fill="#939598" stroke="#494949" stroke-width="0.5" stroke-miterlimit="10" points="486.688,622.289 
		476.31,610.896 462.4,623.565 473.231,634.834 	"/>
	<polygon id="owlvee-soft" fill="#939598" stroke="#494949" stroke-width="0.5" stroke-miterlimit="10" points="462.4,623.565 
		450.413,634.484 461.063,646.177 473.231,634.834 	"/>
	<polygon id="secret-recipe" fill="#939598" stroke="#494949" stroke-width="0.5" stroke-miterlimit="10" points="461.063,646.177 
		471.288,657.401 483.89,645.923 473.231,634.834 	"/>
	<polygon id="cinnabon" fill="#939598" stroke="#494949" stroke-width="0.5" stroke-miterlimit="10" points="486.688,622.289 
		473.231,634.834 483.89,645.923 497.185,633.813 	"/>
	<polygon id="dhara-dhevi" fill="#939598" stroke="#494949" stroke-width="0.5" stroke-miterlimit="10" points="521.773,586.15 
		511.407,575.849 498.835,588.501 509.33,598.712 	"/>
	<polygon id="hanabatake-cafe" fill="#939598" stroke="#494949" stroke-width="0.5" stroke-miterlimit="10" points="
		498.835,588.501 486.715,600.697 497.121,611.037 509.33,598.712 	"/>
	<polygon id="dessert-warehouse" fill="#939598" stroke="#494949" stroke-width="0.5" stroke-miterlimit="10" points="
		533.396,597.699 521.773,586.15 509.33,598.712 521.054,610.12 	"/>
	<polygon id="all-coco" fill="#939598" stroke="#494949" stroke-width="0.5" stroke-miterlimit="10" points="509.33,598.712 
		497.121,611.037 508.706,622.547 521.054,610.12 	"/>
	<g id="b-kio016-b-kio081">
		<polygon fill="#939598" stroke="#494949" stroke-width="0.5" stroke-miterlimit="10" points="545.656,540.41 521.309,565.596 
			528.554,572.599 553.199,547.702 		"/>
		<polygon fill="#939598" stroke="#494949" stroke-width="0.5" stroke-miterlimit="10" points="536.009,579.806 543.598,587.141 
			567.945,561.955 560.554,554.811 		"/>
	</g>
	
		<rect id="coffee-world" x="503.078" y="666.293" transform="matrix(-0.7159 -0.6982 0.6982 -0.7159 427.1836 1514.9174)" fill="#939598" stroke="#494949" stroke-width="0.5" stroke-miterlimit="10" width="37.443" height="8.512"/>
	<g id="b-shp059c">
		<polygon fill="#939598" stroke="#494949" stroke-width="0.5" stroke-miterlimit="10" points="371.888,639.265 390.972,620.181 
			399.104,628.289 380.054,647.421 		"/>
		<polygon fill="#939598" stroke="#494949" stroke-width="0.5" stroke-miterlimit="10" points="427.733,618.198 414.095,604.896 
			408.075,610.915 421.79,624.292 		"/>
	</g>
	<polygon id="peco-peco" fill="#939598" stroke="#494949" stroke-width="0.5" stroke-miterlimit="10" points="387.578,595.328 
		392.916,600.561 398.662,594.716 393.368,589.422 	"/>
	<polygon id="hokkaido-kaisen-club" fill="#939598" stroke="#494949" stroke-width="0.5" stroke-miterlimit="10" points="
		398.557,584.129 393.368,589.422 398.662,594.716 403.91,589.377 	"/>
	<polygon id="gindaco" fill="#939598" stroke="#494949" stroke-width="0.5" stroke-miterlimit="10" points="403.91,589.377 
		398.662,594.716 399.058,595.112 398.662,594.716 392.916,600.561 399.416,606.934 410.395,595.736 	"/>
	<path id="go-tiew-kan" fill="#939598" stroke="#494949" stroke-width="0.5" stroke-miterlimit="10" d="M376.122,859.637
		c0,0-44.354-1.169-65.045-21.859l29.313-30.667l44.128,43.113L376.122,859.637z"/>
</g>
<g id="signs">
	<g id="atm">
		<rect x="813.04" y="377.73" opacity="0.8" enable-background="new    " width="14.811" height="14.81"/>
		<rect x="813.04" y="557.739" opacity="0.8" enable-background="new    " width="14.811" height="14.81"/>
	</g>
	<rect id="parking" x="823.026" y="272.73" opacity="0.8" enable-background="new    " width="14.811" height="14.81"/>
	<g id="toilet">
		<rect x="1140.091" y="446.754" opacity="0.8" enable-background="new    " width="14.813" height="14.813"/>
		<rect x="911.47" y="377.73" opacity="0.8" enable-background="new    " width="14.813" height="14.81"/>
		<rect x="462.513" y="448.998" opacity="0.8" enable-background="new    " width="14.813" height="14.81"/>
		<rect x="340.522" y="603.5" opacity="0.8" enable-background="new    " width="14.811" height="14.81"/>
	</g>
	<rect id="bus-stop" x="98.022" y="710.043" opacity="0.8" enable-background="new    " width="14.811" height="14.81"/>
	<rect id="van-station" x="105.427" y="356.231" opacity="0.8" enable-background="new    " width="14.811" height="14.81"/>
	<g id="taxi">
		<rect x="158.863" y="771.079" opacity="0.8" enable-background="new    " width="14.811" height="14.81"/>
		<rect x="237.54" y="243.731" opacity="0.8" enable-background="new    " width="14.811" height="14.81"/>
	</g>
	<g id="handicapped-toilet">
		<rect x="1158.32" y="446.754" opacity="0.8" enable-background="new    " width="14.811" height="14.813"/>
		<rect x="929.699" y="377.73" opacity="0.8" enable-background="new    " width="14.811" height="14.81"/>
		<rect x="480.742" y="448.998" opacity="0.8" enable-background="new    " width="14.811" height="14.81"/>
		<rect x="358.75" y="603.5" opacity="0.8" enable-background="new    " width="14.811" height="14.81"/>
	</g>
	<g id="telephone">
		<rect x="1176.548" y="446.754" opacity="0.8" enable-background="new    " width="14.813" height="14.813"/>
		<rect x="947.927" y="377.73" opacity="0.8" enable-background="new    " width="14.813" height="14.81"/>
		<rect x="498.97" y="448.998" opacity="0.8" enable-background="new    " width="14.813" height="14.81"/>
		<rect x="376.979" y="603.5" opacity="0.8" enable-background="new    " width="14.813" height="14.81"/>
	</g>
	<g id="lift">
		<rect x="795.54" y="377.73" opacity="0.8" enable-background="new    " width="14.811" height="14.81"/>
		<rect x="447.359" y="483.165" opacity="0.8" enable-background="new    " width="14.811" height="14.81"/>
		<rect x="1200.925" y="489.164" opacity="0.8" enable-background="new    " width="14.813" height="14.81"/>
	</g>
	<g id="stairs">
		<rect x="537.222" y="556.748" opacity="0.8" enable-background="new    " width="14.812" height="14.812"/>
		<rect x="1121.976" y="557.739" opacity="0.8" enable-background="new    " width="14.813" height="14.81"/>
	</g>
	<g id="escalator">
		<rect x="378.404" y="710.043" opacity="0.8" enable-background="new    " width="14.811" height="14.81"/>
		<rect x="1041.714" y="512.888" opacity="0.8" enable-background="new    " width="14.813" height="14.813"/>
		<rect x="1200.208" y="640.443" opacity="0.8" enable-background="new    " width="14.812" height="14.811"/>
		<rect x="546.837" y="514.996" opacity="0.8" enable-background="new    " width="14.813" height="14.811"/>
		<rect x="823.026" y="468.403" opacity="0.8" enable-background="new    " width="14.811" height="14.81"/>
	</g>
	<g id="fire-exit">
		<rect x="808.215" y="565.146" opacity="0.8" enable-background="new    " width="14.813" height="14.812"/>
		<rect x="588.04" y="619.336" opacity="0.8" enable-background="new    " width="14.811" height="14.813"/>
		<rect x="714.54" y="567.729" opacity="0.8" enable-background="new    " width="14.811" height="14.812"/>
		<rect x="933.541" y="567.729" opacity="0.8" enable-background="new    " width="14.811" height="14.812"/>
		<rect x="1060.96" y="619.978" opacity="0.8" enable-background="new    " width="14.812" height="14.813"/>
		<rect x="1173.13" y="733.478" opacity="0.8" enable-background="new    " width="14.813" height="14.813"/>
	</g>
</g>
</svg>
