<?xml version="1.0" encoding="utf-8"?>
<!-- Generator: Adobe Illustrator 19.2.0, SVG Export Plug-In . SVG Version: 6.00 Build 0)  -->
<svg version="1.1" id="Layer_1" xmlns="http://www.w3.org/2000/svg" xmlns:xlink="http://www.w3.org/1999/xlink" x="0px" y="0px"
	 viewBox="0 0 1683.8 1190.6" style="enable-background:new 0 0 1683.8 1190.6;" xml:space="preserve">
<style type="text/css">
	.st0{fill:#FFFFFF;}
	.st1{display:none;}
	.st2{fill:#DEDEDE;stroke:#494949;stroke-width:0.5;stroke-miterlimit:10;}
	.st3{fill:none;stroke:#494949;stroke-width:0.5;stroke-miterlimit:10;}
	.st4{fill:#939598;stroke:#494949;stroke-width:0.5;stroke-miterlimit:10;}
	.st5{opacity:0.8;enable-background:new    ;}
</style>
<g id="Background">
	<rect class="st0" width="1683.8" height="1190.6"/>
</g>
<g id="Original" class="st1">
</g>
<g id="ETC">
	<polygon class="st2" points="306,489.6 402.8,282.9 451.4,329.4 552.1,323.3 751.9,240.7 790.5,232.2 826,211.2 904.8,211.2 
		919.6,232.2 926.2,240.2 1044.1,306.9 1160.7,389.9 1415.8,561.3 1629.2,774.7 1329.4,1059 1173.1,885.9 965.1,752.9 951.4,739.7 
		860.5,698.1 812.4,702.8 731.7,727.5 702.1,742.9 574.4,828.3 496.9,894.6 384.1,821.7 262.2,797.4 150.2,628.4 253.4,525.2 	"/>
	<circle class="st2" cx="459.7" cy="904.3" r="44.6"/>
	<circle class="st2" cx="459.7" cy="904.3" r="37.2"/>
	<circle class="st2" cx="459.7" cy="904.3" r="18.9"/>
	<circle class="st2" cx="1366.6" cy="1075.4" r="44.6"/>
	<circle class="st2" cx="1366.6" cy="1075.4" r="37.2"/>
	<circle class="st2" cx="1366.6" cy="1075.4" r="18.9"/>
	<path class="st3" d="M378.4,957.4c0,0,418.8-53.3,438.8-56.7s23.8-5.3,50.6,6.7c26.8,12,528.1,229.3,528.1,229.3"/>
	<path class="st2" d="M1366.6,1038.3l-379-383.9l-314,0.2c0,0-184,184.8-204.3,201.8s-121.3,58.4-192.8-13.8
		c-71.5-72.2-220-220.9-220-220.9l63.9-34.7L380.5,515l365.2-25.8h355l137.2,66.8l269.5,340.5L1366.6,1038.3z"/>
	<path class="st2" d="M692.9,692.4c0,0-174.2,173.5-188.6,186.5s-6.9,40.5,15.6,39s35.2-2.5,47.1-4.5c11.9-2,15.9-11,6.9-21.5
		s-28-29.5-28-29.5l13.5-13c0,0,25.8,27.9,33.6,35.9c7.8,8.1,16.5,6.1,21.2,5.6s212.7-20,225.7-21.5s18.3,0,27.9,4.5
		c9.6,4.5,203.2,84,216.6,90c13.5,6,20.5-0.5,20.5-16.5s0-100,0-100l55,56.5c0,0-23.5-0.2-27.2,0.2s-7.5,4.2-7.5,9
		s-0.2,57.5-0.2,61.8s0.5,12.5,10,16.2s39.5,16.5,39.5,16.5l4,8.5c0,0,101.8,44.6,119.3,52.9c21.9,10.4,48.5-9.6,20-38.3
		c-28.5-28.7-337.5-338.4-337.5-338.4L692.9,692.4L692.9,692.4z"/>
	<line class="st3" x1="56.4" y1="663.9" x2="261.4" y2="862.2"/>
	<path class="st2" d="M80.5,534l-27.6,26.7l3.5,5.6v32.9c0,0,204.2,203.2,238.2,236.9s124,47.3,177.7-7.2s51.8-52.3,51.8-52.3"/>
	
		<rect x="386.1" y="698.2" transform="matrix(0.7039 -0.7103 0.7103 0.7039 -377.8515 497.829)" class="st2" width="44.1" height="7.8"/>
	
		<rect x="380.4" y="692.5" transform="matrix(0.7039 -0.7103 0.7103 0.7039 -375.5032 492.0787)" class="st2" width="44.1" height="7.8"/>
	<polygon class="st2" points="1062.2,207.7 1045.4,207.7 1045.4,150.9 615.5,150.9 615.5,207.7 573,207.7 375.7,405 452.9,482.2 
		563.4,372 1100,373.6 1372.7,645.2 1436.2,581.7 	"/>
	<polygon class="st2" points="362.6,630 350.6,618 328.5,639.5 340.8,651.8 	"/>
	<polygon class="st2" points="452.5,652.2 439.4,665.3 450.4,676.7 463.8,664 	"/>
	<path class="st2" d="M1132.6,911.4v68.2l50,21.2l4.5,10.5c0,0,106.5,47.5,119,52.3s17.5-8.8,9.8-16.5s-143.8-134.5-143.8-134.5
		L1132.6,911.4z"/>
	<polygon class="st2" points="418.9,268.2 457.4,229.7 503.2,275.5 465.4,313.4 	"/>
	
		<rect x="1200.1" y="629.2" transform="matrix(0.704 -0.7102 0.7102 0.704 -106.1192 1047.8821)" class="st2" width="7.8" height="44.1"/>
	
		<rect x="1205.8" y="623.6" transform="matrix(0.704 -0.7102 0.7102 0.704 -100.4736 1050.2936)" class="st2" width="7.8" height="44.1"/>
	
		<rect x="1053.7" y="522" transform="matrix(1 -4.499954e-03 4.499954e-03 1 -2.3556 4.8462)" class="st2" width="44.1" height="7.8"/>
	
		<rect x="1056.6" y="514" transform="matrix(1 -4.199963e-03 4.199963e-03 1 -2.1656 4.5349)" class="st2" width="44.1" height="7.9"/>
	
		<rect x="1114.3" y="545.4" transform="matrix(0.7041 -0.7101 0.7101 0.7041 -64.7968 958.95)" class="st2" width="7.8" height="23.6"/>
	<rect x="873.9" y="481.9" class="st2" width="134.2" height="29.3"/>
	<rect x="614.2" y="482.1" class="st2" width="131.5" height="28.5"/>
	
		<rect x="563.9" y="522.5" transform="matrix(1 -4.499954e-03 4.499954e-03 1 -2.363 2.6418)" class="st2" width="44.1" height="7.9"/>
	
		<rect x="561.7" y="514.5" transform="matrix(1 -4.499954e-03 4.499954e-03 1 -2.3269 2.6319)" class="st2" width="44.1" height="7.9"/>
	<polygon class="st2" points="1121.9,582.9 1139.6,565.1 1190.7,616.3 1173.3,633.7 	"/>
	<polygon id="_x3C_Path_x3E_" class="st2" points="1118.3,599.1 1107.9,599.1 1081.9,625.1 1089.9,633.2 1074.3,648.9 1086.9,661.4 
		1134,614.9 	"/>
	<polygon id="_x3C_Path_x3E__1_" class="st2" points="498.8,588.5 486.7,600.7 497.1,611 509.3,598.7 	"/>
	<polygon id="_x3C_Path_x3E__2_" class="st2" points="394.6,687.7 379.9,702.4 385.5,708 400.1,693.2 400.1,693.2 394.8,687.5 	"/>
	<polygon id="_x3C_Path_x3E__3_" class="st2" points="396.7,719.2 403.1,726.2 417.9,711.4 411.1,704.6 	"/>
</g>
<g id="Rooms">
	<polygon id="b-shp054b" class="st4" points="517.2,456.4 559.4,498.6 559.6,498.4 566.4,498.4 572.1,493.3 526.3,447.5 	"/>
	<polygon id="b-shp055" class="st4" points="486.7,485.9 525.5,524.7 532.2,524.7 559.4,498.6 517.2,456.4 	"/>
	<polygon id="b-shp054a" class="st4" points="526.3,447.5 572.1,493.3 587.4,479.4 541.1,433.2 	"/>
	<polygon id="b-shp056a" class="st4" points="460.7,511.2 507.2,557.7 515.6,549.4 515.6,541 473.5,498.8 	"/>
	<polygon id="b-shp044b-45" class="st4" points="855.5,402.4 855.5,447.4 869.3,461.4 896.7,461.4 896.7,402.4 	"/>
	<rect id="b-shp051" x="615.5" y="402.4" class="st4" width="33.2" height="66.2"/>
	<polygon id="b-shp056b" class="st4" points="445.8,525.7 492.4,572.3 507.2,557.7 460.7,511.2 	"/>
	<polygon id="b-shp053" class="st4" points="541.1,433.2 587.4,479.4 599,468.9 572.5,402.8 	"/>
	<polygon id="b-shp052" class="st4" points="615.5,468.7 615.5,402.4 572.9,402.4 572.5,402.8 599,468.9 599.4,468.7 	"/>
	<polygon id="b-shp046-050" class="st4" points="805,402.4 648.7,402.4 648.7,468.7 709.1,468.7 713.6,461.4 788.7,461.4 805,445.1 
			"/>
	<polygon id="b-shp057a" class="st4" points="434,537.1 480.8,583.8 492.4,572.3 445.8,525.7 	"/>
	<polygon id="b-shp060a" class="st4" points="380.1,647.4 399.1,628.3 406.3,635.5 387.2,654.6 	"/>
	<polygon id="b-shp057b" class="st4" points="422.1,548.7 468.9,595.5 480.8,583.8 434,537.1 	"/>
	<polygon id="b-shp058" class="st4" points="422.1,548.7 402.8,567.4 426.5,591 444.5,609.1 455.2,609.1 468.9,595.5 	"/>
	<polygon id="b-shp060b" class="st4" points="406.3,635.5 387.2,654.6 375.1,642.5 375.1,642.5 375.1,642.5 362.6,630 340.8,651.8 
		376.1,687.2 412.9,650.9 412.9,642.1 	"/>
	<polygon id="b-shp061-63" class="st4" points="340.8,651.8 340.8,651.8 328.5,639.5 255.9,709.9 301.5,755.8 349.4,708.7 
		354.4,708.7 376.1,687.2 	"/>
	<polygon id="b-shp032a" class="st4" points="1260.2,572.1 1212.3,619.1 1224.1,630.7 1271.7,583.5 	"/>
	<polygon id="b-shp032b" class="st4" points="1224.1,630.7 1235.2,641.7 1283.2,595 1271.7,583.5 	"/>
	<polygon id="b-shp019a" class="st4" points="1237.9,549.9 1193.6,593.4 1193.6,600.7 1212.3,619.1 1260.2,572.1 	"/>
	<polygon id="b-shp036b" class="st4" points="1126.8,524.9 1136.7,524.4 1173.1,487 1158.5,470.9 1114.7,514.7 	"/>
	<polygon id="b-shp035" class="st4" points="1188.8,500.9 1150.2,538.6 1150.2,550 1170.1,569.8 1214.1,526.2 	"/>
	<polygon id="b-shp034" class="st4" points="1214.1,526.2 1170.1,569.8 1193.6,593.2 1193.6,593.4 1237.9,549.9 	"/>
	<polygon id="b-shp029b" class="st4" points="1343.1,655.3 1295.9,702.4 1307,713.3 1354.3,666 	"/>
	<polygon id="b-shp030b" class="st4" points="1308.5,620.2 1261.2,667.4 1285.6,692.4 1333.2,645.7 	"/>
	<polygon id="b-shp030a" class="st4" points="1285.6,692.4 1295.9,702.4 1343.1,655.3 1333.2,645.7 	"/>
	<polygon id="b-shp031" class="st4" points="1283.2,595 1235.2,641.7 1255.5,661.8 1302.8,614.5 	"/>
	<polygon id="b-shp037b" class="st4" points="1118.8,431.3 1071.8,477.9 1084.1,490.3 1131.3,443.6 	"/>
	<rect id="b-shp041b" x="980" y="402.4" class="st4" width="17.2" height="66"/>
	<polygon id="b-shp037a" class="st4" points="1131.3,443.6 1084.1,490.3 1093.6,499.9 1099.9,499.9 1099.9,500 1143.6,455.9 	"/>
	<polygon id="b-shp042b" class="st4" points="947,402.4 947,461.6 954.1,468.4 964.5,468.4 964.5,402.4 	"/>
	<rect id="b-shp042a" x="964.5" y="402.4" class="st4" width="15.5" height="66"/>
	<polygon id="b-shp040b-041a" class="st4" points="1012.9,402.4 997.2,402.4 997.2,468.4 1012.9,468.4 1028,468.4 1028,402.4 	"/>
	<polygon id="b-shp043-44a" class="st4" points="896.7,402.4 896.7,461.4 946.9,461.4 947,461.6 947,402.4 	"/>
	<polygon id="b-shp038" class="st4" points="1118.8,431.3 1089.9,402.4 1089.2,402.4 1062.5,468.5 1071.8,477.9 	"/>
	<polygon id="b-shp039-040a" class="st4" points="1045.4,402.4 1028,402.4 1028,468.4 1045.4,468.4 1062.4,468.4 1062.5,468.5 
		1089.2,402.4 	"/>
	<polygon id="b-shp010a" class="st4" points="583,568.3 582.4,568.3 624.2,610.1 644.2,590.1 602.7,548.6 	"/>
	<polygon id="b-shp009" class="st4" points="577.4,568.7 556.9,588.9 584.4,616.4 591,609.7 607.9,626.5 624.2,610.1 582.4,568.3 	
		"/>
	<polygon id="b-shp007-008a" class="st4" points="514.7,630.6 514.7,640.5 554.4,680.2 585.3,649.2 540.8,604.8 	"/>
	<polygon id="b-shp008b" class="st4" points="577.7,622.9 550.3,595.4 540.8,604.8 585.3,649.2 593,641.4 576.1,624.5 	"/>
	<polygon id="b-shp010b" class="st4" points="602.7,548.6 644.2,590.1 647.4,586.9 648.6,586.9 623.6,527.7 	"/>
	<polygon id="b-shp011b" class="st4" points="677.4,522.4 655.9,522.4 650.1,527.4 649,527.4 658.3,563.8 677.4,563.8 	"/>
	<polygon id="b-shp011a" class="st4" points="623.9,527.4 623.6,527.7 648.6,586.9 657.4,586.9 657.4,563.8 658.3,563.8 649,527.4 	
		"/>
	<polygon id="b-shp012a" class="st4" points="699.5,564.2 699.5,522.4 681.4,522.4 677.4,522.4 677.4,563.8 677.4,563.8 
		677.4,563.8 657.4,563.8 657.4,586.9 681.4,586.9 704.4,586.9 704.4,564.2 	"/>
	<polygon id="b-shp012b" class="st4" points="704.4,564.2 713.2,564.2 713.2,526.4 713.1,526.4 708.6,522.4 699.5,522.4 
		699.5,564.2 	"/>
	<polygon id="b-shp003a" class="st4" points="396.1,747.9 394.6,753.7 393.9,754.4 437.3,797.8 460.2,774.8 414.8,729.4 	"/>
	<polygon id="b-shp003b" class="st4" points="414.8,729.4 460.2,774.8 472.2,762.7 426.9,717.4 	"/>
	<polygon id="b-shp001" class="st4" points="347.4,801.8 390.4,844.9 413.5,821.7 370.3,778.5 	"/>
	<polygon id="b-shp002a" class="st4" points="370.3,778.5 413.5,821.7 425.2,810 381.9,766.7 	"/>
	<polygon id="b-shp002b" class="st4" points="381.9,766.7 425.2,810 437.3,797.8 393.9,754.4 	"/>
	<polygon id="b-shp013a" class="st4" points="731.4,526.5 722.6,526.5 722.6,548.8 731.4,548.8 	"/>
	<path id="b-shp013b-014" class="st4" d="M731.4,526.5v22.3l0,0l0,0h-8.8v15.8h14.5v22.4h43.4c0-10.6,0-48.9,0-60.1L731.4,526.5z"/>
	<polygon id="b-shp006" class="st4" points="531.4,703.3 492,663.9 481,663.9 471.3,673.6 516.8,718 	"/>
	<polygon id="b-shp004b-5" class="st4" points="516.8,718 471.3,673.6 462.5,682.3 446.7,697.9 483.8,734.9 498.2,720.9 
		498.2,720.9 498.2,720.9 506.4,728.4 507.5,727.3 	"/>
	<polygon id="b-shp004a" class="st4" points="426.9,717.4 472.2,762.7 482.6,752.3 437.4,707.1 	"/>
	<polygon id="b-shp022c" class="st4" points="1097.8,578.7 1090.7,571.6 1043.7,618.5 1050.9,625.6 1067.2,609.3 	"/>
	<polygon id="b-shp024" class="st4" points="1086.9,661.4 1106.4,680.8 1147.3,639.9 1147.3,628.2 1134,614.9 	"/>
	<polygon id="b-shp022d" class="st4" points="1076.5,618.5 1101.6,593.4 1101.6,582.4 1097.8,578.7 1067.2,609.3 	"/>
	<polygon id="b-shp022b" class="st4" points="1087.2,568.1 1078.6,568.1 1035.9,610.8 1043.7,618.5 1090.7,571.6 	"/>
	<polygon id="b-shp022a" class="st4" points="1078.5,568.1 1066.5,556 1023.8,598.7 1035.9,610.8 1078.6,568.1 	"/>
	<polygon id="b-shp028" class="st4" points="1258,738.9 1246.3,727.2 1199.9,773.6 1223.4,796.9 1258.8,761.8 1269.9,750.7 	"/>
	<polygon id="b-shp025-27" class="st4" points="1180.7,661.6 1170,661.6 1128.7,702.9 1199.9,773.6 1246.3,727.2 	"/>
	<polygon id="b-shp019a" class="st4" points="964.5,522.4 952.4,522.4 945.9,527.9 945.9,565.1 959,565.1 959,586.9 979.6,586.9 
		979.6,561.3 979.6,522.4 	"/>
	<path id="b-shp015" class="st4" d="M805.5,581.7V534l-7.1-7.1l-17.9-0.1c0,11.1,0,49.4,0,60.1h21v-5.2H805.5z"/>
	<polygon id="b-shp021" class="st4" points="1037.9,527.1 1037.7,527.1 1011.9,586.9 1023.8,598.7 1066.5,556 	"/>
	<polygon id="b-shp016" class="st4" points="862.3,527.4 856.7,533 856.7,582.2 860.6,582.2 860.6,586.9 878.9,586.9 878.9,527.5 	
		"/>
	<polygon id="b-shp017" class="st4" points="878.9,527.5 878.9,586.9 914,586.9 914,527.7 	"/>
	<polygon id="b-shp020b" class="st4" points="1012.4,527.1 1008.1,522.4 995.5,522.4 995.5,586.9 1011.9,586.9 1011.9,586.9 
		1037.7,527.1 	"/>
	<polygon id="b-shp020a" class="st4" points="979.6,522.4 979.6,561.3 979.6,586.9 995.5,586.9 995.5,522.4 	"/>
	<polygon id="b-shp018" class="st4" points="939.2,565.1 939.2,527.9 914,527.7 914,586.9 924.9,586.9 924.9,565.1 	"/>
	<polygon id="topsmarket" class="st4" points="255.9,709.9 429.2,541.8 411.3,523.9 452.1,483.1 354.7,385.7 430.2,310.2 
		367.3,247.3 80.5,534 	"/>
	<polygon id="homework" class="st4" points="1223.4,796.9 1437.4,582.9 1629.2,774.7 1399.7,1004.3 1207.6,812.2 	"/>
	<polygon id="b-kio072" class="st4" points="1138.6,553.6 1128.3,543.3 1119.1,552.4 1129.6,562.8 	"/>
	<polygon id="b-kio071" class="st4" points="1118.2,533.4 1109.2,542.6 1119.1,552.4 1128.3,543.3 	"/>
	<polygon id="b-kio021" class="st4" points="1102.8,547.3 1093.5,556.7 1104.1,567.3 1113.5,558 	"/>
	<polygon id="b-kio022" class="st4" points="1104.1,567.3 1114.5,577.5 1123.8,568.1 1113.5,558 	"/>
	<polygon id="breadtalk" class="st4" points="1261.9,712.8 1272.2,723.1 1281.5,713.7 1271.3,703.5 	"/>
	<polygon id="amor" class="st4" points="341.9,759 352.9,770.2 370.4,752.7 359.5,742 	"/>
	<polygon id="bonjour" class="st4" points="377.6,724.5 359.5,742 370.4,752.7 388.1,735 	"/>
	<polygon id="amor" class="st4" points="377.6,724.5 366.9,713.7 349,731.6 359.5,742 	"/>
	<polygon id="simply-sweet" class="st4" points="349,731.6 331.9,748.7 341.9,759 359.5,742 	"/>
	<polygon id="b-kio055-056" class="st4" points="1218.4,637.8 1203.8,623.2 1198.2,628.7 1213,643.3 1227.6,657.9 1233,652.4 	"/>
	<polygon id="b-kio036" class="st4" points="1216.4,669.1 1201.5,654.4 1194.8,661.2 1209.5,675.9 	"/>
	<polygon id="b-kio037" class="st4" points="1186.9,639.9 1180,646.4 1194.8,661.2 1201.5,654.4 	"/>
	<path id="b-kio019" class="st4" d="M1076.9,542.7c8.5,0,15.8-5.3,18.6-12.8h-37.3C1061.1,537.4,1068.3,542.7,1076.9,542.7z"/>
	<path id="b-kio037" class="st4" d="M1076.9,502.7c-7.8,0-14.6,4.5-17.9,11.1h35.8C1091.5,507.3,1084.7,502.7,1076.9,502.7z"/>
	<polygon id="b-kio012" class="st4" points="409.2,673.2 394.8,687.5 400.1,693.2 414.6,678.5 	"/>
	<polygon id="b-kio002" class="st4" points="425.8,689.8 411.1,704.6 417.9,711.4 432.7,696.7 	"/>
	<path id="b-kio017" class="st4" d="M585,543.3c7.9,0,14.6-4.5,17.9-11.1h-35.8C570.3,538.7,577.1,543.3,585,543.3z"/>
	<path id="b-kio079" class="st4" d="M585,503.3c-7.7,0-14.5,4.4-17.8,10.9h35.5C599.4,507.7,592.7,503.3,585,503.3z"/>
	<polygon id="b-shp059b" class="st4" points="391,620.2 381.8,610.9 362.6,630 371.9,639.3 	"/>
	<polygon id="yamazaki" class="st4" points="328.8,773.9 317.7,762.7 299.7,780.7 311.1,791.4 	"/>
	<polygon id="farm-design" class="st4" points="299.7,780.7 282.7,797.7 293.5,808.7 311.1,791.4 	"/>
	<polygon id="southern-coffee" class="st4" points="338.9,784 328.8,773.9 311.1,791.4 321.6,801.3 	"/>
	<polygon id="heads-or-tails" class="st4" points="311.1,791.4 293.5,808.7 303.8,819.2 321.6,801.3 	"/>
	<polygon id="wine-i-love-you-sweet-cafe" class="st4" points="441.9,641.1 417.4,664.4 428.5,676.1 439.4,665.3 439.4,665.3 
		452.5,652.2 	"/>
	<polygon id="first-snow" class="st4" points="428.5,676.1 439.2,687.4 450.4,676.7 439.4,665.3 	"/>
	<polygon id="potato-s-corner" class="st4" points="486.7,622.3 476.3,610.9 462.4,623.6 473.2,634.8 	"/>
	<polygon id="owlvee-soft" class="st4" points="462.4,623.6 450.4,634.5 461.1,646.2 473.2,634.8 	"/>
	<polygon id="secret-recipe" class="st4" points="461.1,646.2 471.3,657.4 483.9,645.9 473.2,634.8 	"/>
	<polygon id="cinnabon" class="st4" points="486.7,622.3 473.2,634.8 483.9,645.9 497.2,633.8 	"/>
	<polygon id="all-coco" class="st4" points="509.3,598.7 497.1,611 508.7,622.5 521.1,610.1 	"/>
	<g id="b-kio016-b-kio081">
		<polygon class="st4" points="545.7,540.4 521.3,565.6 528.6,572.6 553.2,547.7 		"/>
		<polygon class="st4" points="536,579.8 543.6,587.1 567.9,562 560.6,554.8 		"/>
	</g>
	
		<rect id="coffee-world" x="517.5" y="651.8" transform="matrix(0.6982 -0.7159 0.7159 0.6982 -322.5684 575.9321)" class="st4" width="8.5" height="37.4"/>
	<g id="b-shp059c">
		<polygon class="st4" points="371.9,639.3 391,620.2 399.1,628.3 380.1,647.4 		"/>
		<polygon class="st4" points="427.7,618.2 414.1,604.9 408.1,610.9 421.8,624.3 		"/>
	</g>
	<polygon id="gindaco" class="st4" points="403.9,589.4 398.7,594.7 399.1,595.1 398.7,594.7 392.9,600.6 399.4,606.9 410.4,595.7 	
		"/>
	<polygon id="s-p" class="st4" points="397.2,582.9 392,588.2 392.4,588.6 392,588.2 386.2,594.1 392.7,600.5 403.7,589.3 	"/>
	<path id="go-tiew-kan" class="st4" d="M376.1,859.6c0,0-44.4-1.2-65-21.9l29.3-30.7l44.1,43.1L376.1,859.6z"/>
	
		<rect id="b-shp036a" x="1118.7" y="454.4" transform="matrix(0.7071 0.7071 -0.7071 0.7071 673.9617 -656.2998)" class="st4" width="21" height="62"/>
	
		<rect id="whiteday-patisserie" x="499.5" y="587.1" transform="matrix(0.7071 0.7071 -0.7071 0.7071 571.0674 -190.1276)" class="st4" width="31.1" height="14.3"/>
	<rect id="cafe-amazon" x="836.2" y="534" class="st4" width="11.5" height="44.1"/>
	<rect id="dunkin-donuts" x="824.7" y="534" class="st4" width="11.5" height="44.1"/>
</g>
<g id="Signs">
	<g id="atm">
		<rect x="813" y="377.7" class="st5" width="14.8" height="14.8"/>
		<rect x="813" y="557.7" class="st5" width="14.8" height="14.8"/>
	</g>
	<rect id="parking" x="823" y="272.7" class="st5" width="14.8" height="14.8"/>
	<g id="toilet">
		<rect x="1140.1" y="446.8" class="st5" width="14.8" height="14.8"/>
		<rect x="911.5" y="377.7" class="st5" width="14.8" height="14.8"/>
		<rect x="462.5" y="449" class="st5" width="14.8" height="14.8"/>
		<rect x="340.5" y="603.5" class="st5" width="14.8" height="14.8"/>
	</g>
	<rect id="bus-stop" x="98" y="710" class="st5" width="14.8" height="14.8"/>
	<rect id="van-station" x="105.4" y="356.2" class="st5" width="14.8" height="14.8"/>
	<g id="taxi">
		<rect x="158.9" y="771.1" class="st5" width="14.8" height="14.8"/>
		<rect x="237.5" y="243.7" class="st5" width="14.8" height="14.8"/>
	</g>
	<g id="handicapped-toilet">
		<rect x="1158.3" y="446.8" class="st5" width="14.8" height="14.8"/>
		<rect x="929.7" y="377.7" class="st5" width="14.8" height="14.8"/>
		<rect x="480.7" y="449" class="st5" width="14.8" height="14.8"/>
		<rect x="358.8" y="603.5" class="st5" width="14.8" height="14.8"/>
	</g>
	<g id="telephone">
		<rect x="1176.5" y="446.8" class="st5" width="14.8" height="14.8"/>
		<rect x="947.9" y="377.7" class="st5" width="14.8" height="14.8"/>
		<rect x="499" y="449" class="st5" width="14.8" height="14.8"/>
		<rect x="377" y="603.5" class="st5" width="14.8" height="14.8"/>
	</g>
	<g id="elevator">
		<rect x="795.5" y="377.7" class="st5" width="14.8" height="14.8"/>
		<rect x="447.4" y="483.2" class="st5" width="14.8" height="14.8"/>
		<rect x="1200.9" y="489.2" class="st5" width="14.8" height="14.8"/>
	</g>
	<g id="stairs">
		<rect x="537.2" y="556.7" class="st5" width="14.8" height="14.8"/>
		<rect x="1122" y="557.7" class="st5" width="14.8" height="14.8"/>
	</g>
	<g id="escalator">
		<rect x="378.4" y="710" class="st5" width="14.8" height="14.8"/>
		<rect x="1041.7" y="512.9" class="st5" width="14.8" height="14.8"/>
		<rect x="1200.2" y="640.4" class="st5" width="14.8" height="14.8"/>
		<rect x="546.8" y="515" class="st5" width="14.8" height="14.8"/>
		<rect x="823" y="468.4" class="st5" width="14.8" height="14.8"/>
	</g>
	<g id="fire-exit">
		<rect x="808.2" y="565.1" class="st5" width="14.8" height="14.8"/>
		<rect x="588" y="619.3" class="st5" width="14.8" height="14.8"/>
		<rect x="714.5" y="567.7" class="st5" width="14.8" height="14.8"/>
		<rect x="933.5" y="567.7" class="st5" width="14.8" height="14.8"/>
		<rect x="1061" y="620" class="st5" width="14.8" height="14.8"/>
		<rect x="1173.1" y="733.5" class="st5" width="14.8" height="14.8"/>
	</g>
</g>
</svg>
