<?xml version="1.0" encoding="utf-8"?>
<!-- Generator: Adobe Illustrator 19.2.1, SVG Export Plug-In . SVG Version: 6.00 Build 0)  -->
<svg version="1.1" id="ATM" xmlns="http://www.w3.org/2000/svg" xmlns:xlink="http://www.w3.org/1999/xlink" x="0px" y="0px"
	 viewBox="0 0 45 45" enable-background="new 0 0 45 45" xml:space="preserve">
<g id="ATM_2_">
	<g>
		<path d="M39.3,45L5.7,45C2.6,45,0,42.4,0,39.3L0,5.7C0,2.6,2.6,0,5.7,0l33.6,0C42.4,0,45,2.6,45,5.7l0,33.6
			C45,42.4,42.4,45,39.3,45z"/>
	</g>
	<g>
		<g>
			<path fill="#FFFFFF" d="M9.6,24.8l-1.3,3.8H6.7l4.1-12.2h1.9l4.1,12.2h-1.7l-1.3-3.8H9.6z M13.6,23.5L12.4,20
				c-0.3-0.8-0.5-1.5-0.6-2.2h0c-0.2,0.7-0.4,1.5-0.6,2.2l-1.2,3.5H13.6z"/>
		</g>
		<g>
			<path fill="#FFFFFF" d="M19.6,17.8h-3.7v-1.3h9v1.3h-3.7v10.8h-1.6V17.8z"/>
		</g>
		<g>
			<path fill="#FFFFFF" d="M36.5,23.2c-0.1-1.7-0.2-3.7-0.2-5.2h-0.1c-0.4,1.4-0.9,2.9-1.5,4.6l-2.1,5.9h-1.2l-2-5.8
				C28.8,21,28.3,19.4,28,18h0c0,1.5-0.1,3.6-0.2,5.4l-0.3,5.2h-1.5l0.8-12.2h2l2.1,5.9c0.5,1.5,0.9,2.8,1.2,4.1h0.1
				c0.3-1.2,0.7-2.6,1.3-4.1l2.2-5.9h2l0.8,12.2h-1.5L36.5,23.2z"/>
		</g>
	</g>
</g>
</svg>
