<?xml version="1.0" encoding="utf-8"?>
<!-- Generator: Adobe Illustrator 16.0.0, SVG Export Plug-In . SVG Version: 6.00 Build 0)  -->
<!DOCTYPE svg PUBLIC "-//W3C//DTD SVG 1.1//EN" "http://www.w3.org/Graphics/SVG/1.1/DTD/svg11.dtd">
<svg version="1.1" id="Baby_Change_Room" xmlns="http://www.w3.org/2000/svg" xmlns:xlink="http://www.w3.org/1999/xlink" x="0px"
	 y="0px" width="1000px" height="1000px" viewBox="0 0 1000 1000" enable-background="new 0 0 1000 1000" xml:space="preserve">
<g id="Baby_Change_Room_1_">
	<g>
		<path fill="#D01C1F" d="M873.333,1000H126.667C57.778,1000,0,942.223,0,873.333V126.667C0,57.778,57.778,0,126.667,0h746.667
			C942.223,0,1000,57.778,1000,126.667v746.667C1000,942.223,942.223,1000,873.333,1000z"/>
	</g>
	<g>
		<g>
			<path fill="#FFFFFF" d="M468.889,404.444c-28.889,42.223-57.777,82.223-84.444,124.444c-4.444,6.667-2.222,15.556-2.222,24.444
				c0,71.111,0,142.223,0,215.556c0,8.889,0,15.556,0,24.444C380,820,357.777,837.777,335.556,835.556
				c-24.444-2.223-42.222-20-42.222-44.444c0-91.111,0-182.223,0-271.111c0-11.111,4.444-22.223,11.111-31.111
				c40-57.777,80-115.555,120-173.333c13.333-20,31.111-31.111,55.556-24.444c24.444,6.667,31.111,24.444,35.556,46.667
				c2.222,8.889,4.444,15.556,4.444,24.444c0,51.111,22.223,86.667,68.889,108.889c15.556,8.889,26.667,24.444,13.334,42.222
				c-13.334,17.778-28.89,11.111-42.223,0c-6.667-4.444-11.111-8.889-17.777-13.333
				C506.667,473.333,468.889,455.556,468.889,404.444z"/>
		</g>
		<g>
			<path fill="#FFFFFF" d="M531.111,588.889c17.777,0,31.111,0,51.111,0c0-13.333-2.223-24.444,0-35.556
				c2.222-6.666,11.11-11.11,17.777-17.777c4.444,4.444,15.556,11.111,15.556,15.556c2.222,31.111,2.222,62.222,0,91.111
				c0,6.666-13.333,15.555-20,15.555c-31.111,2.223-62.223,2.223-91.111,0c-26.667,0-42.222-24.444-31.111-48.889
				C480,593.333,486.667,577.777,495.556,560c-8.889-6.667-20-13.333-28.889-22.223c-4.444-4.444-4.444-15.555-6.667-22.222
				c8.889-2.223,20-6.667,26.667-4.444C520,528.889,528.889,544.444,531.111,588.889z"/>
		</g>
		<g>
			<path fill="#FFFFFF" d="M475.556,226.667c0-35.555,26.667-62.222,62.222-62.222c33.334,0,62.223,26.667,62.223,62.222
				c0,33.333-31.111,64.445-64.444,64.445S475.556,262.222,475.556,226.667z"/>
		</g>
		<g>
			<path fill="#FFFFFF" d="M708.889,677.777c0,17.778,0,31.111,0,48.89c-33.333,0-66.666,0-97.777,0c-42.223,0-84.444,0-128.889,0
				c-17.778,0-17.778-11.111-17.778-24.444c0-11.111-4.444-24.445,15.556-24.445C555.556,677.777,631.111,677.777,708.889,677.777z"
				/>
		</g>
		<g>
			<path fill="#FFFFFF" d="M708.889,620c0,22.223-17.777,40-40,42.223c-24.444,0-40-17.778-42.222-40
				c0-22.223,17.777-42.223,40-42.223C691.111,580,708.889,597.777,708.889,620z"/>
		</g>
	</g>
</g>
</svg>
