<?xml version="1.0" encoding="utf-8"?>
<!-- Generator: Adobe Illustrator 19.2.1, SVG Export Plug-In . SVG Version: 6.00 Build 0)  -->
<svg version="1.1" id="Baby_Stroller_1_" xmlns="http://www.w3.org/2000/svg" xmlns:xlink="http://www.w3.org/1999/xlink" x="0px"
	 y="0px" viewBox="0 0 45 45" enable-background="new 0 0 45 45" xml:space="preserve">
<g id="Baby_Stroller">
	<g>
		<path d="M39.3,45L5.7,45C2.6,45,0,42.4,0,39.3L0,5.7C0,2.6,2.6,0,5.7,0l33.6,0C42.4,0,45,2.6,45,5.7l0,33.6
			C45,42.4,42.4,45,39.3,45z"/>
	</g>
	<g>
		<path fill="#FFFFFF" d="M23.2,20.7c3.5,0,6.9,0,10.4,0c0.8,0,1,0.3,0.9,1.1c-0.4,3.3-3.1,5.8-6.4,5.8c-3.3,0-6.6,0-9.9,0
			c-3.3,0-6.1-2.7-6.4-5.9c-0.1-0.7,0.1-1,0.9-1C16.2,20.8,19.7,20.7,23.2,20.7z"/>
		<path fill="#FFFFFF" d="M29.2,19.7c-1.5,0-3.1,0-4.6,0c-0.7,0-1.1-0.3-1.1-1c-0.1-1.9-0.3-3.8-0.4-5.6c-0.1-0.9,0.1-1.1,1.1-1.1
			c1.3,0,2.5,0,3.8,0c3.7,0.1,6.7,3.2,6.6,6.9c0,0.6-0.2,0.8-0.8,0.8C32.3,19.7,30.8,19.7,29.2,19.7z"/>
		<path fill="#FFFFFF" d="M18.3,28.3c1.9,0,3.4,1.5,3.4,3.4c0,1.9-1.5,3.4-3.4,3.4c-1.9,0-3.4-1.5-3.4-3.4
			C14.9,29.8,16.4,28.3,18.3,28.3z M18.3,30.5c-0.7,0-1.2,0.5-1.2,1.2c0,0.7,0.6,1.2,1.2,1.2c0.6,0,1.1-0.5,1.1-1.2
			C19.5,31,19,30.5,18.3,30.5z"/>
		<path fill="#FFFFFF" d="M24.5,31.6c0-1.9,1.5-3.4,3.4-3.4c1.9,0,3.4,1.5,3.4,3.4c0,1.9-1.6,3.4-3.5,3.4
			C25.9,35,24.5,33.5,24.5,31.6z M29.1,31.7c0-0.7-0.5-1.2-1.2-1.2c-0.7,0-1.2,0.5-1.2,1.2c0,0.7,0.4,1.1,1.1,1.2
			C28.5,32.9,29,32.3,29.1,31.7z"/>
		<path fill="#FFFFFF" d="M15.8,19.6c-0.6,0-1.1,0-1.6,0c0-0.3,0-0.6-0.1-0.8c-0.1-1.4-0.9-2.2-2.3-2.3c-0.3,0-0.6,0.1-0.8,0
			c-0.3-0.2-0.7-0.6-0.6-0.8c0.1-0.3,0.5-0.7,0.8-0.8c2.3-0.4,4.5,1.4,4.6,3.7C15.8,18.9,15.8,19.2,15.8,19.6z"/>
	</g>
</g>
</svg>
