<?xml version="1.0" encoding="utf-8"?>
<!-- Generator: Adobe Illustrator 19.2.1, SVG Export Plug-In . SVG Version: 6.00 Build 0)  -->
<svg version="1.1" id="Baby_Change_Room" xmlns="http://www.w3.org/2000/svg" xmlns:xlink="http://www.w3.org/1999/xlink" x="0px"
	 y="0px" viewBox="0 0 45 45" enable-background="new 0 0 45 45" xml:space="preserve">
<g id="Baby_Change_Room_1_">
	<g>
		<path d="M39.3,45L5.7,45C2.6,45,0,42.4,0,39.3L0,5.7C0,2.6,2.6,0,5.7,0l33.6,0C42.4,0,45,2.6,45,5.7l0,33.6
			C45,42.4,42.4,45,39.3,45z"/>
	</g>
	<g>
		<g>
			<path fill="#FFFFFF" d="M21.1,18.2c-1.3,1.9-2.6,3.7-3.8,5.6c-0.2,0.3-0.1,0.7-0.1,1.1c0,3.2,0,6.4,0,9.7c0,0.4,0,0.7,0,1.1
				c-0.1,1.2-1.1,2-2.1,1.9c-1.1-0.1-1.9-0.9-1.9-2c0-4.1,0-8.2,0-12.2c0-0.5,0.2-1,0.5-1.4c1.8-2.6,3.6-5.2,5.4-7.8
				c0.6-0.9,1.4-1.4,2.5-1.1c1.1,0.3,1.4,1.1,1.6,2.1c0.1,0.4,0.2,0.7,0.2,1.1c0,2.3,1,3.9,3.1,4.9c0.7,0.4,1.2,1.1,0.6,1.9
				c-0.6,0.8-1.3,0.5-1.9,0c-0.3-0.2-0.5-0.4-0.8-0.6C22.8,21.3,21.1,20.5,21.1,18.2z"/>
		</g>
		<g>
			<path fill="#FFFFFF" d="M23.9,26.5c0.8,0,1.4,0,2.3,0c0-0.6-0.1-1.1,0-1.6c0.1-0.3,0.5-0.5,0.8-0.8c0.2,0.2,0.7,0.5,0.7,0.7
				c0.1,1.4,0.1,2.8,0,4.1c0,0.3-0.6,0.7-0.9,0.7c-1.4,0.1-2.8,0.1-4.1,0c-1.2,0-1.9-1.1-1.4-2.2c0.3-0.7,0.6-1.4,1-2.2
				c-0.4-0.3-0.9-0.6-1.3-1c-0.2-0.2-0.2-0.7-0.3-1c0.4-0.1,0.9-0.3,1.2-0.2C23.4,23.8,23.8,24.5,23.9,26.5z"/>
		</g>
		<g>
			<path fill="#FFFFFF" d="M21.4,10.2c0-1.6,1.2-2.8,2.8-2.8c1.5,0,2.8,1.2,2.8,2.8c0,1.5-1.4,2.9-2.9,2.9
				C22.6,13.1,21.4,11.8,21.4,10.2z"/>
		</g>
		<g>
			<path fill="#FFFFFF" d="M31.9,30.5c0,0.8,0,1.4,0,2.2c-1.5,0-3,0-4.4,0c-1.9,0-3.8,0-5.8,0c-0.8,0-0.8-0.5-0.8-1.1
				c0-0.5-0.2-1.1,0.7-1.1C25,30.5,28.4,30.5,31.9,30.5z"/>
		</g>
		<g>
			<path fill="#FFFFFF" d="M31.9,27.9c0,1-0.8,1.8-1.8,1.9c-1.1,0-1.8-0.8-1.9-1.8c0-1,0.8-1.9,1.8-1.9
				C31.1,26.1,31.9,26.9,31.9,27.9z"/>
		</g>
	</g>
</g>
</svg>
