<?xml version="1.0" encoding="utf-8"?>
<!-- Generator: Adobe Illustrator 19.2.1, SVG Export Plug-In . SVG Version: 6.00 Build 0)  -->
<svg version="1.1" id="Isolation_Mode" xmlns="http://www.w3.org/2000/svg" xmlns:xlink="http://www.w3.org/1999/xlink" x="0px"
	 y="0px" viewBox="0 0 45 45" enable-background="new 0 0 45 45" xml:space="preserve">
<g id="Bag_Deposit">
	<g>
		<path d="M39.3,45L5.7,45C2.6,45,0,42.4,0,39.3L0,5.7C0,2.6,2.6,0,5.7,0l33.6,0C42.4,0,45,2.6,45,5.7l0,33.6
			C45,42.4,42.4,45,39.3,45z"/>
	</g>
	<g>
		<path fill="#FFFFFF" d="M28.4,13.7c0.2,1,0.4,2,0.5,2.9c0,0.3-0.1,0.9-0.4,1c-0.3,0.2-0.8,0.2-1.1,0c-0.3-0.2-0.4-0.7-0.4-1
			c0.1-1.6,0.3-3.2,0.3-4.8c-0.1-2.2-2.1-4.1-4.2-4.2c-2.5-0.2-4.8,1.2-5.3,3.6c-0.4,1.8-0.6,3.7,0.1,5.5c0.1,0.3-0.1,0.8-0.4,1
			c-0.2,0.2-0.8,0.2-1,0.1c-0.3-0.2-0.5-0.7-0.5-1c0-1.4,0.2-2.8,0.3-4.2c0.1-3.6,2.8-6.2,6.3-6.2c3.3,0.1,5.9,2.8,5.9,6.3
			c0,0.3,0,0.7,0,1C28.5,13.7,28.5,13.7,28.4,13.7z"/>
	</g>
	<g>
		<path fill="#FFFFFF" d="M16.9,21c-0.4,0.3-0.6,0.9-0.3,1.3c0.3,0.5,0.9,0.6,1.3,0.3c0.5-0.3,0.6-0.9,0.3-1.3
			C18,20.9,17.3,20.7,16.9,21z"/>
		<path fill="#FFFFFF" d="M29.3,13.8c0.1,0.9,0.1,1.7,0.4,2.5c0.3,0.9,0.1,1.6-0.7,2c-0.5,0.3-1.4,0.3-1.9,0c-0.8-0.3-0.9-1.1-0.7-2
			c0.2-0.8,0.2-1.6,0.4-2.5c-2.9,0-5.5,0-8.4,0c0.1,0.8,0,1.6,0.3,2.3c0.3,0.9,0.2,1.7-0.6,2.1c-0.5,0.3-1.4,0.3-1.9,0.1
			c-0.9-0.4-0.9-1.2-0.7-2.1c0.1-0.8,0.2-1.6,0.3-2.5c-1.8,0-3.4,0-5.1,0c0,8.3,0,16.6,0,24.9c8,0,15.9,0,23.9,0
			c0-8.3,0-16.6,0-24.8C32.7,13.8,31.1,13.8,29.3,13.8z M20.4,23.5c-0.5,1.9-0.9,3.8-1.4,5.7c-0.2,0.7-0.7,1-1.4,0.8
			c-1.4-0.3-2.8-0.7-4.2-1.1c-0.7-0.2-1-0.7-0.8-1.4c0.5-1.9,0.9-3.8,1.4-5.7c0.1-0.4,0.3-0.7,0.5-0.8c1.1-0.5,2-1,2.9-1.4
			c0.3-0.2,0.7-0.1,0.9,0.2c0.7,0.9,1.3,1.8,1.9,2.7C20.5,22.9,20.5,23.3,20.4,23.5z"/>
	</g>
</g>
</svg>
