<?xml version="1.0" encoding="utf-8"?>
<!-- Generator: Adobe Illustrator 16.0.0, SVG Export Plug-In . SVG Version: 6.00 Build 0)  -->
<!DOCTYPE svg PUBLIC "-//W3C//DTD SVG 1.1//EN" "http://www.w3.org/Graphics/SVG/1.1/DTD/svg11.dtd">
<svg version="1.1" id="Isolation_Mode" xmlns="http://www.w3.org/2000/svg" xmlns:xlink="http://www.w3.org/1999/xlink" x="0px"
	 y="0px" width="1000px" height="1000px" viewBox="0 0 1000 1000" enable-background="new 0 0 1000 1000" xml:space="preserve">
<g id="Bag_Deposit">
	<g>
		<path fill="#D01C1F" d="M873.333,1000H126.667C57.778,1000,0,942.223,0,873.333V126.667C0,57.778,57.778,0,126.667,0h746.667
			C942.223,0,1000,57.778,1000,126.667v746.667C1000,942.223,942.223,1000,873.333,1000z"/>
	</g>
	<g>
		<path fill="#FFFFFF" d="M631.111,304.444c4.444,22.222,8.889,44.444,11.111,64.444c0,6.667-2.223,20-8.89,22.223
			c-6.666,4.444-17.777,4.444-24.444,0c-6.666-4.445-8.889-15.556-8.889-22.223c2.223-35.555,6.667-71.111,6.667-106.667
			c-2.223-48.889-46.667-91.111-93.334-93.333c-55.556-4.444-106.666,26.667-117.777,80c-8.889,40-13.333,82.223,2.222,122.223
			c2.223,6.667-2.222,17.777-8.889,22.222c-4.444,4.444-17.777,4.444-22.222,2.222C360,391.111,355.556,380,355.556,373.333
			c0-31.111,4.444-62.222,6.667-93.333c2.222-80,62.222-137.778,140-137.778c73.333,2.222,131.11,62.222,131.11,140
			c0,6.667,0,15.556,0,22.222C633.333,304.444,633.333,304.444,631.111,304.444z"/>
	</g>
	<g>
		<path fill="#FFFFFF" d="M375.556,466.667c-8.889,6.666-13.333,20-6.667,28.889c6.667,11.111,20,13.333,28.889,6.667
			c11.111-6.667,13.334-20,6.667-28.89C400,464.444,384.444,460,375.556,466.667z"/>
		<path fill="#FFFFFF" d="M651.111,306.667c2.222,20,2.222,37.778,8.889,55.556c6.667,20,2.223,35.556-15.556,44.444
			c-11.111,6.667-31.111,6.667-42.222,0c-17.778-6.667-20-24.444-15.556-44.444c4.444-17.778,4.444-35.556,8.889-55.556
			c-64.444,0-122.223,0-186.667,0c2.223,17.778,0,35.556,6.667,51.111c6.667,20,4.444,37.778-13.333,46.667
			c-11.111,6.667-31.111,6.667-42.223,2.222C340,397.778,340,380,344.444,360c2.223-17.778,4.444-35.556,6.667-55.556
			c-40,0-75.556,0-113.333,0c0,184.444,0,368.889,0,553.333c177.778,0,353.333,0,531.111,0c0-184.444,0-368.889,0-551.111
			C726.667,306.667,691.111,306.667,651.111,306.667z M453.333,522.223c-11.11,42.222-20,84.444-31.11,126.666
			c-4.445,15.556-15.556,22.223-31.111,17.778C360,660,328.889,651.111,297.777,642.223c-15.555-4.445-22.222-15.556-17.777-31.111
			c11.111-42.223,20-84.444,31.111-126.667c2.222-8.889,6.666-15.556,11.111-17.777c24.444-11.111,44.444-22.223,64.444-31.111
			c6.666-4.444,15.556-2.223,20,4.444c15.556,20,28.889,40,42.222,60C455.556,508.889,455.556,517.777,453.333,522.223z"/>
	</g>
</g>
</svg>
