<?xml version="1.0" encoding="utf-8"?>
<!-- Generator: Adobe Illustrator 19.2.1, SVG Export Plug-In . SVG Version: 6.00 Build 0)  -->
<svg version="1.1" id="Isolation_Mode" xmlns="http://www.w3.org/2000/svg" xmlns:xlink="http://www.w3.org/1999/xlink" x="0px"
	 y="0px" viewBox="0 0 45 45" style="enable-background:new 0 0 45 45;" xml:space="preserve">
<style type="text/css">
	.st0{fill:#FFFFFF;}
	.st1{fill:none;}
</style>
<g id="Breastfeeding_Room">
	<g>
		<path d="M39.3,45L5.7,45C2.6,45,0,42.4,0,39.3L0,5.7C0,2.6,2.6,0,5.7,0l33.6,0C42.4,0,45,2.6,45,5.7l0,33.6
			C45,42.4,42.4,45,39.3,45z"/>
	</g>
	<g>
		<path class="st0" d="M26.8,12.9c0,2.1-1.7,3.8-3.8,3.8c-2.1,0-3.8-1.7-3.7-3.8c0-2.1,1.7-3.8,3.8-3.7
			C25.2,9.1,26.8,10.8,26.8,12.9z"/>
		<g>
			<path class="st1" d="M11.5,15.5c-0.9,0-1.8,0-2.8,0c-0.6,0-0.6,0.1-0.6,0.8c0.5,0,1,0,1.5,0c0.2,0,0.3,0.2,0.5,0.3
				c-0.2,0.1-0.3,0.3-0.5,0.3c-0.5,0-1,0-1.5,0c0,0.4,0,0.7,0,1.1c0.5,0,1,0,1.4,0c0.2,0,0.5,0.2,0.5,0.3c0,0.3-0.3,0.3-0.5,0.3
				c-0.5,0-1,0-1.5,0c0,0.4,0,0.7,0,1.1c0.4,0,0.8,0,1.2,0c0.3,0,0.8-0.2,0.8,0.3c0,0.5-0.5,0.3-0.8,0.3c-0.4,0-0.7,0-1.1,0
				c0,0.4,0,0.7,0,1.1c0.5,0,1,0,1.5,0c0.2,0,0.3,0.2,0.4,0.3c-0.1,0.1-0.3,0.3-0.4,0.3c-0.5,0-1,0-1.5,0c-0.1,0.7,0,0.8,0.6,0.8
				c0.9,0,1.8,0,2.7,0c0.4,0,0.6-0.2,0.5-0.6c0-2.1,0-4.2,0-6.3C12.1,15.7,11.9,15.5,11.5,15.5z"/>
			<g>
				<path class="st0" d="M25.6,29c-1.1,0.8-2.4,1.4-3.6,2.1c-0.7,0.4-1,1.2-0.7,1.9c0.4,0.7,1.1,1,1.9,0.7c0.2-0.1,0.3-0.2,0.5-0.2
					c2.3-1.2,4.6-2.5,6.4-4.4c0.9-0.9,1.6-1.9,2-3.2c0.7-2.2-0.3-4.5-2.4-5.9c-4.1-2.6-8.2-2.7-12.5-0.4c-0.8,0.5-1.7,1-2.5,1.5
					c-0.4,0.3-0.7,0.1-0.9-0.3c-0.6-1.2-1.2-2.4-1.1-3.8c0-0.4,0-0.8,0-1.1c0-0.4-0.2-0.7-0.5-0.9c-0.3-0.1-0.3-0.3-0.4-0.6
					c0-0.2-0.2-0.5-0.3-0.7c-0.3-0.3-0.6-0.9-0.6-1.4c0-0.3-0.1-0.6-0.3-0.8c-0.2-0.1-0.6-0.2-0.8-0.1c-0.2,0.1-0.4,0.4-0.4,0.6
					c0.1,0.4,0,0.7-0.2,1C9,13.4,9,13.6,8.7,13.7c-0.2,0.1-0.3,0.3-0.3,0.5c-0.1,0.2,0,0.4,0,0.6c-0.5,0.2-0.9,0.5-0.9,1
					c0,2.2,0,4.5,0,6.7c0,0.5,0.4,0.9,0.8,0.9c1.3,0,2.6-0.1,3.9-0.1c0.1,0,0.2,0,0.3,0.1c1.1,0.8,2.2,0.7,3.3,0.2
					c0.6-0.3,2.3-1.4,2.9-1.7c0,0.2-3.6,13.3-3.6,13.3s3.8,1.3,8.2,1.2c2.5,0,5.3-0.5,7.5-1.9c-0.1-0.4-0.8-3.9-0.9-3.9
					c-1.9,1.7-3.9,3-6.2,3.8c-1.1,0.4-2.3,0.3-2.9-0.3c-0.6-0.5-1.1-1.9-0.3-2.6c0.3-0.3,0.4-0.7,0-0.7c-0.5,0-1.1,0-1.6-0.1
					c-0.6-0.1-0.9-0.5-0.9-1c0-0.5,0.4-0.9,1-0.9c0.4,0,0.8,0,1.2,0.1c1.1,0.2,2.7-1.5,3.4-2c-0.2-0.2-0.4-0.3-0.6-0.4
					c-0.4-0.3-0.5-0.9-0.3-1.3c0.3-0.4,0.8-0.6,1.3-0.3c0.4,0.2,0.8,0.5,1.2,0.8c0.5,0.4,0.7,0.4,1.3,0.6c-0.7-0.4-1.1-1.1-1.1-2
					c0-1.2,1.1-2.3,2.3-2.2c1.3,0,2.3,1.1,2.2,2.4C30,25.7,26.6,28.3,25.6,29z M12.1,22.3c0,0.4-0.1,0.6-0.5,0.6c-0.9,0-1.8,0-2.7,0
					c-0.6,0-0.7-0.1-0.6-0.8c0.5,0,1,0,1.5,0c0.2,0,0.3-0.2,0.4-0.3c-0.1-0.1-0.3-0.3-0.4-0.3c-0.5,0-1,0-1.5,0c0-0.4,0-0.7,0-1.1
					c0.4,0,0.7,0,1.1,0c0.3,0,0.8,0.2,0.8-0.3c0-0.5-0.5-0.3-0.8-0.3c-0.4,0-0.7,0-1.2,0c0-0.4,0-0.7,0-1.1c0.5,0,1,0,1.5,0
					c0.2,0,0.5,0,0.5-0.3c0-0.1-0.3-0.3-0.5-0.3c-0.5,0-0.9,0-1.4,0c0-0.4,0-0.7,0-1.1c0.5,0,1,0,1.5,0c0.2,0,0.3-0.2,0.5-0.3
					c-0.2-0.1-0.3-0.3-0.5-0.3c-0.5,0-1,0-1.5,0c-0.1-0.7,0-0.8,0.6-0.8c0.9,0,1.8,0,2.8,0c0.4,0,0.5,0.2,0.5,0.5
					C12,18.1,12,20.2,12.1,22.3z"/>
			</g>
		</g>
	</g>
</g>
</svg>
