<?xml version="1.0" encoding="utf-8"?>
<!-- Generator: Adobe Illustrator 16.0.0, SVG Export Plug-In . SVG Version: 6.00 Build 0)  -->
<!DOCTYPE svg PUBLIC "-//W3C//DTD SVG 1.1//EN" "http://www.w3.org/Graphics/SVG/1.1/DTD/svg11.dtd">
<svg version="1.1" id="Isolation_Mode" xmlns="http://www.w3.org/2000/svg" xmlns:xlink="http://www.w3.org/1999/xlink" x="0px"
	 y="0px" width="1000px" height="1000px" viewBox="0 0 1000 1000" enable-background="new 0 0 1000 1000" xml:space="preserve">
<g id="Breastfeeding_Room">
	<g>
		<path fill="#D01C1F" d="M873.333,1000H126.667C57.778,1000,0,942.223,0,873.333V126.667C0,57.778,57.778,0,126.667,0h746.667
			C942.223,0,1000,57.778,1000,126.667v746.667C1000,942.223,942.223,1000,873.333,1000z"/>
	</g>
	<g>
		<path fill="#FFFFFF" d="M595.556,286.667c0,46.667-37.778,84.445-84.444,84.445c-46.667,0-84.444-37.778-82.223-84.445
			c0-46.667,37.778-84.444,84.444-82.222C560,202.222,595.556,240,595.556,286.667z"/>
		<g>
			<path fill="none" d="M255.556,344.444c-20,0-40,0-62.222,0C180,344.444,180,346.667,180,362.222c11.111,0,22.222,0,33.333,0
				c4.444,0,6.667,4.444,11.111,6.667c-4.444,2.223-6.667,6.667-11.111,6.667c-11.111,0-22.222,0-33.333,0
				c0,8.889,0,15.556,0,24.444c11.111,0,22.222,0,31.111,0c4.444,0,11.111,4.444,11.111,6.667c0,6.667-6.667,6.667-11.111,6.667
				c-11.111,0-22.223,0-33.333,0c0,8.889,0,15.556,0,24.444c8.889,0,17.778,0,26.667,0c6.667,0,17.778-4.444,17.778,6.667
				s-11.111,6.667-17.778,6.667c-8.889,0-15.556,0-24.444,0c0,8.889,0,15.556,0,24.444c11.111,0,22.222,0,33.333,0
				c4.444,0,6.667,4.444,8.889,6.666c-2.222,2.223-6.667,6.667-8.889,6.667c-11.111,0-22.222,0-33.333,0
				c-2.222,15.556,0,17.777,13.333,17.777c20,0,40,0,60,0c8.889,0,13.333-4.444,11.111-13.333c0-46.667,0-93.333,0-140
				C268.889,348.889,264.444,344.444,255.556,344.444z"/>
			<g>
				<path fill="#FFFFFF" d="M568.889,644.444c-24.444,17.778-53.333,31.111-80,46.667c-15.556,8.889-22.222,26.666-15.556,42.222
					c8.89,15.556,24.444,22.223,42.223,15.556c4.444-2.222,6.667-4.444,11.111-4.444c51.11-26.667,102.222-55.556,142.222-97.777
					c20-20,35.556-42.223,44.444-71.111c15.556-48.889-6.666-100-53.333-131.111c-91.111-57.778-182.223-60-277.777-8.889
					c-17.778,11.111-37.778,22.222-55.556,33.333c-8.89,6.667-15.556,2.223-20-6.666c-13.333-26.667-26.667-53.334-24.445-84.445
					c0-8.889,0-17.778,0-24.444c0-8.889-4.444-15.556-11.111-20c-6.667-2.222-6.667-6.667-8.889-13.333
					c0-4.444-4.444-11.111-6.667-15.556c-6.667-6.667-13.333-20-13.333-31.111c0-6.667-2.222-13.333-6.667-17.778
					c-4.444-2.222-13.333-4.444-17.778-2.222s-8.889,8.889-8.889,13.333c2.223,8.889,0,15.556-4.444,22.222
					c-4.444,8.889-4.444,13.333-11.111,15.556c-4.445,2.222-6.667,6.667-6.667,11.111c-2.222,4.444,0,8.889,0,13.333
					c-11.111,4.445-20,11.111-20,22.223c0,48.889,0,100,0,148.889c0,11.111,8.889,20,17.778,20c28.889,0,57.778-2.223,86.667-2.223
					c2.222,0,4.444,0,6.667,2.223c24.445,17.777,48.889,15.556,73.333,4.444c13.333-6.667,51.111-31.111,64.444-37.777
					c0,4.444-80,295.556-80,295.556S420,811.111,517.777,808.889c55.556,0,117.778-11.111,166.667-42.222
					c-2.222-8.89-17.777-86.667-20-86.667c-42.222,37.777-86.667,66.667-137.777,84.444c-24.444,8.889-51.111,6.667-64.444-6.667
					c-13.334-11.11-24.445-42.222-6.667-57.777c6.667-6.667,8.889-15.556,0-15.556c-11.111,0-24.444,0-35.556-2.222
					C406.667,680,400,671.111,400,660s8.889-20,22.223-20c8.889,0,17.777,0,26.666,2.223c24.444,4.444,60-33.334,75.556-44.445
					c-4.444-4.444-8.889-6.666-13.333-8.889c-8.889-6.666-11.111-20-6.667-28.889c6.667-8.889,17.778-13.333,28.889-6.667
					c8.89,4.444,17.778,11.111,26.667,17.778c11.111,8.889,15.556,8.889,28.889,13.333C573.333,575.556,564.444,560,564.444,540
					c0-26.667,24.444-51.111,51.111-48.889c28.889,0,51.111,24.444,48.889,53.333C666.667,571.111,591.111,628.889,568.889,644.444z
					 M268.889,495.556c0,8.889-2.222,13.333-11.111,13.333c-20,0-40,0-60,0c-13.333,0-15.556-2.222-13.333-17.777
					c11.111,0,22.222,0,33.333,0c4.444,0,6.667-4.444,8.889-6.667c-2.222-2.222-6.667-6.667-8.889-6.667
					c-11.111,0-22.222,0-33.333,0c0-8.889,0-15.555,0-24.444c8.889,0,15.556,0,24.444,0c6.667,0,17.778,4.444,17.778-6.666
					c0-11.111-11.111-6.667-17.778-6.667c-8.889,0-15.555,0-26.667,0c0-8.889,0-15.556,0-24.444c11.111,0,22.222,0,33.333,0
					c4.444,0,11.111,0,11.111-6.667c0-2.222-6.667-6.667-11.111-6.667c-11.111,0-20,0-31.111,0c0-8.889,0-15.555,0-24.444
					c11.111,0,22.222,0,33.333,0c4.444,0,6.667-4.444,11.111-6.667c-4.444-2.222-6.667-6.667-11.111-6.667
					c-11.111,0-22.222,0-33.333,0c-2.222-15.555,0-17.777,13.333-17.777c20,0,40,0,62.222,0c8.889,0,11.111,4.444,11.111,11.111
					C266.667,402.222,266.667,448.889,268.889,495.556z"/>
			</g>
		</g>
	</g>
</g>
</svg>
