<?xml version="1.0" encoding="utf-8"?>
<!-- Generator: Adobe Illustrator 19.2.1, SVG Export Plug-In . SVG Version: 6.00 Build 0)  -->
<svg version="1.1" id="BTS_1_" xmlns="http://www.w3.org/2000/svg" xmlns:xlink="http://www.w3.org/1999/xlink" x="0px" y="0px"
	 viewBox="0 0 45 45" enable-background="new 0 0 45 45" xml:space="preserve">
<g id="BTS">
	<g>
		<path d="M39.3,45L5.7,45C2.6,45,0,42.4,0,39.3L0,5.7C0,2.6,2.6,0,5.7,0l33.6,0C42.4,0,45,2.6,45,5.7l0,33.6
			C45,42.4,42.4,45,39.3,45z"/>
	</g>
	<g>
		<path fill="#FFFFFF" d="M30,36.6c-1.2,0-2.2,0-3.4,0c0-2.6-0.3-5.2-1.1-7.7c-0.9,2.4-1.4,5-1.3,7.6c-1.1,0-2.2,0-3.3,0
			c-0.2-1.3-0.2-2.6-0.5-3.9c-0.2-1.3-0.6-2.5-0.9-3.8c-0.1,0-0.2,0-0.3,0c-0.2,1.3-0.5,2.5-0.7,3.8c-0.2,1.3-0.2,2.6-0.3,3.9
			c-1,0-2.1,0-3.2,0c0-1.1-0.1-2.2,0-3.3c0.3-2.8,1-5.5,2.2-8c0.2-0.3,0-0.5-0.2-0.7c-1.9-1.9-4.2-2.8-6.8-2.9c-0.4,0-0.8,0-1.2,0
			c0-1,0-2,0-3c3.8-0.2,7.1,0.9,10,3.3c0.3-0.4,0.5-0.7,0.8-1c0.5-0.6,0.5-0.6-0.2-1.1c-2.5-1.8-5.4-2.7-8.5-3.1
			c-0.7-0.1-1.4-0.1-2.1-0.2c0-0.9,0-1.8,0-2.8c5-0.2,9.5,1.2,13.5,4.4c1.9-1.5,4-2.6,6.3-3.4c2.3-0.8,4.7-1.1,7.1-0.9
			c0,0.9,0,1.8,0,2.8c-4,0.2-7.9,1.1-11.2,3.7c0.1,0.1,0.1,0.2,0.2,0.3c0.4,0.5,0.7,0.9,1.1,1.4c2.9-2.4,6.1-3.5,9.9-3.3
			c0,1,0,1.9,0,2.9c-0.3,0-0.6,0-0.9,0c-2.7,0-5,0.9-6.9,2.7c-0.4,0.4-0.5,0.6-0.2,1.1c1.5,3.4,2.3,6.9,2.2,10.6
			C30.1,36.2,30,36.4,30,36.6z M22.4,22.7c-0.4,0.7-0.8,1.2-1.2,1.7c-0.1,0.1-0.1,0.3,0,0.4c0.4,0.8,0.8,1.5,1.2,2.3
			c0.4-0.8,0.8-1.5,1.2-2.2c0.1-0.1,0-0.3,0-0.4C23.3,23.9,22.9,23.4,22.4,22.7z"/>
		<path fill="#FFFFFF" d="M8.9,11.7c0-1.1,0-2.2,0-3.4c0.2,0,0.4,0,0.6,0c2.3,0,4.6,0,6.9,0c1.2,0,1.5,0.5,1.1,1.6
			c0,0.1,0,0.3,0,0.4c0.4,0.8,0,1.5-0.9,1.5c-1.2,0-2.4,0-3.6,0c-1.3,0-2.6,0-3.9,0C9.1,11.8,9,11.8,8.9,11.7z M10.6,10.4
			c0.4-0.5,0.7-0.7,1.3-0.7c0.6,0,1.3,0,1.9,0c0.7,0,1.5,0,2.2,0c0.2,0,0.3-0.2,0.5-0.3C16.4,9.3,16.2,9.1,16,9
			c-0.1-0.1-0.3,0-0.5,0c-1.3,0-2.6,0-3.9,0c-1.6,0-1.6,0-1.6,1.6c0,0.5,0.1,0.6,0.6,0.6c1.7,0,3.4,0,5.1,0c0.1,0,0.3,0,0.4,0
			c0.1-0.1,0.3-0.2,0.3-0.3c0-0.1-0.2-0.3-0.3-0.3c-0.2-0.1-0.4-0.1-0.7-0.1C13.9,10.4,12.3,10.4,10.6,10.4z"/>
		<path fill="#FFFFFF" d="M27.3,11.8c0.3-0.5,0.7-0.7,1.2-0.7c1.8,0,3.6,0,5.4,0c0.2,0,0.4,0,0.5,0c0.2-0.1,0.3-0.2,0.4-0.4
			c-0.1-0.1-0.3-0.3-0.4-0.3c-0.2-0.1-0.4,0-0.5,0c-1.6,0-3.3,0-4.9,0c-0.3,0-0.6,0-0.9-0.1c-0.6-0.1-1-0.5-0.9-1c0-0.5,0.4-0.9,1-1
			c0,0,0,0,0.1,0c2.6,0,5.1,0,7.8,0c-0.3,0.4-0.6,0.6-1,0.6c-1.8,0-3.6,0-5.5,0c-0.1,0-0.3,0-0.4,0c-0.2,0.1-0.4,0.3-0.6,0.4
			c0.2,0.1,0.4,0.3,0.6,0.3c1.8,0,3.6,0,5.3,0c0.4,0,0.8,0.1,1.2,0.2c0.5,0.1,0.7,0.5,0.6,1c-0.1,0.5-0.4,0.9-0.9,0.9
			c-0.6,0-1.1,0-1.7,0C31.4,11.8,29.4,11.8,27.3,11.8z"/>
		<path fill="#FFFFFF" d="M27.2,8.4C26.8,8.9,26.4,9,25.8,9c-0.9,0-1.8,0-2.8,0c0,1,0,1.9,0,2.8c-0.4,0-0.8,0-1.3,0
			c0-0.7,0-1.5,0-2.2c0-0.4-0.1-0.6-0.6-0.6c-1,0-2,0-3.1,0c0-0.1,0-0.1-0.1-0.2c0.3-0.1,0.7-0.4,1-0.4c2.6,0,5.2,0,7.8,0
			C27,8.4,27.1,8.4,27.2,8.4z"/>
	</g>
</g>
</svg>
