<?xml version="1.0" encoding="utf-8"?>
<!-- Generator: Adobe Illustrator 16.0.0, SVG Export Plug-In . SVG Version: 6.00 Build 0)  -->
<!DOCTYPE svg PUBLIC "-//W3C//DTD SVG 1.1//EN" "http://www.w3.org/Graphics/SVG/1.1/DTD/svg11.dtd">
<svg version="1.1" id="BTS_1_" xmlns="http://www.w3.org/2000/svg" xmlns:xlink="http://www.w3.org/1999/xlink" x="0px" y="0px"
	 width="1000px" height="1000px" viewBox="0 0 1000 1000" enable-background="new 0 0 1000 1000" xml:space="preserve">
<g id="BTS">
	<g>
		<path fill="#D01C1F" d="M873.333,1000H126.667C57.778,1000,0,942.223,0,873.333V126.667C0,57.778,57.778,0,126.667,0h746.667
			C942.223,0,1000,57.778,1000,126.667v746.667C1000,942.223,942.223,1000,873.333,1000z"/>
	</g>
	<g>
		<path fill="#FFFFFF" d="M666.667,813.333c-26.667,0-48.89,0-75.556,0c0-57.777-6.667-115.556-24.444-171.11
			c-20,53.333-31.111,111.11-28.89,168.889c-24.444,0-48.889,0-73.333,0c-4.444-28.89-4.444-57.778-11.111-86.667
			c-4.444-28.889-13.333-55.556-20-84.444c-2.222,0-4.444,0-6.666,0c-4.444,28.889-11.111,55.556-15.556,84.444
			s-4.444,57.777-6.667,86.667c-22.222,0-46.667,0-71.111,0c0-24.444-2.222-48.89,0-73.334C340,675.556,355.556,615.556,382.223,560
			c4.444-6.667,0-11.111-4.445-15.556c-42.222-42.223-93.333-62.223-151.11-64.444c-8.889,0-17.778,0-26.667,0
			c0-22.223,0-44.444,0-66.667c84.444-4.444,157.777,20,222.223,73.334c6.666-8.89,11.11-15.556,17.777-22.223
			c11.111-13.333,11.111-13.333-4.444-24.444c-55.556-40-120-60-188.889-68.889c-15.555-2.222-31.111-2.222-46.667-4.444
			c0-20,0-40,0-62.222c111.111-4.444,211.111,26.667,300,97.778c42.223-33.333,88.889-57.778,140-75.556s104.444-24.444,157.777-20
			c0,20,0,40,0,62.222c-88.889,4.444-175.555,24.444-248.889,82.223c2.223,2.222,2.223,4.444,4.444,6.666
			c8.89,11.111,15.556,20,24.444,31.111c64.445-53.333,135.556-77.778,220-73.333c0,22.222,0,42.222,0,64.444
			c-6.666,0-13.333,0-20,0c-60,0-111.11,20-153.333,60c-8.889,8.889-11.111,13.333-4.444,24.444
			C653.333,640,671.111,717.777,668.889,800C668.889,804.444,666.667,808.889,666.667,813.333z M497.777,504.444
			C488.889,520,480,531.111,471.111,542.223c-2.223,2.222-2.223,6.666,0,8.889c8.889,17.777,17.777,33.333,26.666,51.111
			c8.89-17.778,17.778-33.334,26.667-48.89c2.223-2.222,0-6.666,0-8.889C517.777,531.111,508.889,520,497.777,504.444z"/>
		<path fill="#FFFFFF" d="M197.778,260c0-24.444,0-48.889,0-75.556c4.444,0,8.889,0,13.333,0c51.111,0,102.222,0,153.333,0
			c26.667,0,33.333,11.111,24.444,35.556c0,2.222,0,6.667,0,8.889c8.889,17.778,0,33.333-20,33.333c-26.666,0-53.333,0-80,0
			c-28.889,0-57.777,0-86.667,0C202.222,262.222,200,262.222,197.778,260z M235.556,231.111
			c8.889-11.111,15.556-15.556,28.889-15.556c13.333,0,28.889,0,42.223,0c15.556,0,33.333,0,48.889,0
			c4.444,0,6.667-4.444,11.111-6.667c-2.223-2.222-6.667-6.667-11.111-8.889c-2.223-2.222-6.667,0-11.111,0
			c-28.889,0-57.778,0-86.667,0c-35.556,0-35.556,0-35.556,35.556c0,11.111,2.222,13.333,13.333,13.333c37.778,0,75.556,0,113.333,0
			c2.223,0,6.667,0,8.889,0c2.223-2.222,6.667-4.444,6.667-6.667s-4.444-6.667-6.667-6.667c-4.444-2.222-8.889-2.222-15.555-2.222
			C308.889,231.111,273.333,231.111,235.556,231.111z"/>
		<path fill="#FFFFFF" d="M606.667,262.222c6.666-11.111,15.556-15.556,26.666-15.556c40,0,80,0,120,0c4.444,0,8.89,0,11.111,0
			c4.444-2.222,6.667-4.444,8.889-8.889c-2.222-2.222-6.666-6.667-8.889-6.667c-4.444-2.223-8.889,0-11.111,0
			c-35.556,0-73.333,0-108.889,0c-6.667,0-13.333,0-20-2.223c-13.333-2.222-22.222-11.111-20-22.222
			c0-11.111,8.889-20,22.223-22.222c0,0,0,0,2.222,0c57.778,0,113.334,0,173.334,0c-6.667,8.889-13.334,13.333-22.223,13.333
			c-40,0-80,0-122.223,0c-2.222,0-6.666,0-8.889,0c-4.444,2.222-8.889,6.667-13.333,8.889c4.444,2.222,8.889,6.667,13.333,6.667
			c40,0,80,0,117.778,0c8.889,0,17.777,2.222,26.667,4.444c11.11,2.222,15.555,11.111,13.333,22.222c-2.223,11.111-8.89,20-20,20
			c-13.334,0-24.444,0-37.778,0C697.777,262.222,653.333,262.222,606.667,262.222z"/>
		<path fill="#FFFFFF" d="M604.444,186.667C595.556,197.778,586.667,200,573.333,200c-20,0-40,0-62.222,0
			c0,22.222,0,42.222,0,62.222c-8.889,0-17.778,0-28.889,0c0-15.556,0-33.333,0-48.889c0-8.889-2.223-13.333-13.334-13.333
			c-22.222,0-44.444,0-68.889,0c0-2.222,0-2.222-2.223-4.444c6.667-2.222,15.556-8.889,22.223-8.889c57.777,0,115.556,0,173.333,0
			C600,186.667,602.223,186.667,604.444,186.667z"/>
	</g>
</g>
</svg>
