<?xml version="1.0" encoding="utf-8"?>
<!-- Generator: Adobe Illustrator 19.2.1, SVG Export Plug-In . SVG Version: 6.00 Build 0)  -->
<svg version="1.1" id="Bus_Stop" xmlns="http://www.w3.org/2000/svg" xmlns:xlink="http://www.w3.org/1999/xlink" x="0px" y="0px"
	 viewBox="0 0 45 45" enable-background="new 0 0 45 45" xml:space="preserve">
<g id="Bus_Stop_1_">
	<g>
		<path d="M39.3,45L5.7,45C2.6,45,0,42.4,0,39.3L0,5.7C0,2.6,2.6,0,5.7,0l33.6,0C42.4,0,45,2.6,45,5.7l0,33.6
			C45,42.4,42.4,45,39.3,45z"/>
	</g>
	<g>
		<path fill="#FFFFFF" d="M29.9,34.2c-5,0-9.9,0-14.9,0c0,0.7,0,1.3,0,2c0.1,0.9-0.4,1.4-1.3,1.4c-0.4,0-0.8,0-1.2,0
			c-0.8,0-1.2-0.4-1.2-1.2c0-1.1,0.2-2.2-1-2.9c-0.3-0.2-0.4-1-0.4-1.5c0.1-6.9,0.3-13.8,0.5-20.7c0.1-2.1,1.1-3.1,3.6-3.4
			c5.7-0.6,11.3-0.6,17,0c2.8,0.3,3.6,1.3,3.6,4.2c0.1,6.5,0.3,13,0.5,19.5c0,1-0.1,1.9-1.1,2.5c-0.3,0.2-0.2,1-0.3,1.5
			c-0.2,0.6-0.3,1.6-0.6,1.6c-0.9,0.2-1.8,0.1-2.7-0.1c-0.2,0-0.3-0.6-0.4-0.9C29.9,35.6,29.9,34.9,29.9,34.2z M22.4,22.6
			c3,0,5.9,0,8.9,0c0.9,0,1.4-0.2,1.4-1.2c0-2.3,0-4.6,0-7c0-0.8-0.4-1.2-1.2-1.2c-6,0-12,0-18,0c-0.9,0-1.2,0.4-1.2,1.2
			c0,2.2,0.1,4.4,0,6.6c0,1.1,0.4,1.5,1.5,1.5C16.6,22.6,19.5,22.6,22.4,22.6z M29.3,11.6c-0.3-0.9,0.7-2.1-0.8-2.1c-4-0.1-8,0-12,0
			c-0.8,0-0.8,0.5-0.8,1.1c0,0.5-0.1,1.1,0.7,1.1C20.6,11.6,24.8,11.6,29.3,11.6z M30.7,31.4c0.9-0.1,1.5-0.6,1.5-1.5
			c0-0.9-0.6-1.5-1.5-1.5c-0.8,0-1.4,0.6-1.4,1.4C29.2,30.8,29.8,31.3,30.7,31.4z M15.8,30c-0.1-0.9-0.6-1.5-1.5-1.5
			c-0.9,0-1.5,0.6-1.4,1.5c0,0.8,0.6,1.4,1.4,1.4C15.2,31.4,15.6,30.8,15.8,30z"/>
	</g>
</g>
</svg>
