<?xml version="1.0" encoding="utf-8"?>
<!-- Generator: Adobe Illustrator 16.0.0, SVG Export Plug-In . SVG Version: 6.00 Build 0)  -->
<!DOCTYPE svg PUBLIC "-//W3C//DTD SVG 1.1//EN" "http://www.w3.org/Graphics/SVG/1.1/DTD/svg11.dtd">
<svg version="1.1" id="Bus_Parking" xmlns="http://www.w3.org/2000/svg" xmlns:xlink="http://www.w3.org/1999/xlink" x="0px"
	 y="0px" width="1000px" height="1000px" viewBox="0 0 1000 1000" enable-background="new 0 0 1000 1000" xml:space="preserve">
<g id="Bus_Parking_1_">
	<g>
		<path fill="#D01C1F" d="M873.333,1000H126.667C57.778,1000,0,942.223,0,873.333V126.667C0,57.778,57.778,0,126.667,0h746.667
			C942.223,0,1000,57.778,1000,126.667v746.667C1000,942.223,942.223,1000,873.333,1000z"/>
	</g>
	<path fill="#FFFFFF" d="M886.667,82.222c-46.667-4.444-93.334,0-140,0c0,82.222,0,166.667,0,251.111c17.777,0,33.333,0,51.11,0
		c0-31.111,0-62.222,0-95.556c24.445,0,46.667,0,68.89,0c42.222-2.222,71.11-28.889,73.333-66.667
		C944.444,122.222,926.667,86.667,886.667,82.222z M864.444,188.889c-20,4.445-42.222,4.445-66.667,4.445
		c0-26.667,0-48.889,0-71.111c22.223,0,42.223-2.222,64.445,0c17.777,2.222,26.666,15.556,26.666,33.333
		C888.889,171.111,882.223,186.667,864.444,188.889z"/>
	<g>
		<path fill="#FFFFFF" d="M540,784.444c-111.111,0-220,0-331.111,0c0,15.556,0,28.889,0,44.444C211.111,848.889,200,860,180,860
			c-8.889,0-17.778,0-26.667,0c-17.778,0-26.667-8.889-26.667-26.667c0-24.444,4.445-48.889-22.222-64.444
			c-6.667-4.444-8.889-22.222-8.889-33.333c2.222-153.333,6.667-306.667,11.111-460c2.222-46.667,24.445-68.889,80-75.556
			c126.667-13.333,251.111-13.333,377.778,0c62.223,6.667,80,28.889,80,93.333c2.223,144.444,6.667,288.889,11.111,433.333
			c0,22.222-2.223,42.222-24.444,55.556c-6.667,4.444-4.444,22.222-6.667,33.333c-4.444,13.333-6.667,35.556-13.333,35.556
			c-20,4.444-40,2.222-60-2.223c-4.444,0-6.667-13.333-8.889-20C540,815.556,540,800,540,784.444z M373.333,526.667
			c66.667,0,131.111,0,197.778,0c20,0,31.111-4.444,31.111-26.667c0-51.111,0-102.222,0-155.556c0-17.778-8.89-26.667-26.667-26.667
			c-133.333,0-266.667,0-400,0c-20,0-26.667,8.889-26.667,26.667c0,48.889,2.223,97.778,0,146.667
			c0,24.444,8.889,33.333,33.333,33.333C244.444,526.667,308.889,526.667,373.333,526.667z M526.667,282.222
			c-6.667-20,15.556-46.667-17.778-46.667c-88.889-2.222-177.777,0-266.667,0c-17.778,0-17.778,11.111-17.778,24.444
			c0,11.111-2.222,24.444,15.556,24.444C333.333,282.222,426.667,282.222,526.667,282.222z M557.777,722.223
			c20-2.223,33.334-13.334,33.334-33.334s-13.334-33.333-33.334-33.333c-17.777,0-31.11,13.333-31.11,31.111
			C524.444,708.889,537.777,720,557.777,722.223z M226.667,691.111c-2.222-20-13.333-33.334-33.333-33.334
			S160,671.111,162.222,691.111c0,17.777,13.333,31.111,31.111,31.111C213.333,722.223,222.222,708.889,226.667,691.111z"/>
	</g>
</g>
</svg>
