<?xml version="1.0" encoding="utf-8"?>
<!-- Generator: Adobe Illustrator 19.2.1, SVG Export Plug-In . SVG Version: 6.00 Build 0)  -->
<svg version="1.1" id="Bus_Parking" xmlns="http://www.w3.org/2000/svg" xmlns:xlink="http://www.w3.org/1999/xlink" x="0px"
	 y="0px" viewBox="0 0 45 45" enable-background="new 0 0 45 45" xml:space="preserve">
<g id="Bus_Parking_1_">
	<g>
		<path d="M39.3,45L5.7,45C2.6,45,0,42.4,0,39.3L0,5.7C0,2.6,2.6,0,5.7,0l33.6,0C42.4,0,45,2.6,45,5.7l0,33.6
			C45,42.4,42.4,45,39.3,45z"/>
	</g>
	<path fill="#FFFFFF" d="M39.9,3.7c-2.1-0.2-4.2,0-6.3,0c0,3.7,0,7.5,0,11.3c0.8,0,1.5,0,2.3,0c0-1.4,0-2.8,0-4.3c1.1,0,2.1,0,3.1,0
		c1.9-0.1,3.2-1.3,3.3-3C42.5,5.5,41.7,3.9,39.9,3.7z M38.9,8.5c-0.9,0.2-1.9,0.2-3,0.2c0-1.2,0-2.2,0-3.2c1,0,1.9-0.1,2.9,0
		C39.6,5.6,40,6.2,40,7C40,7.7,39.7,8.4,38.9,8.5z"/>
	<g>
		<path fill="#FFFFFF" d="M24.3,35.3c-5,0-9.9,0-14.9,0c0,0.7,0,1.3,0,2c0.1,0.9-0.4,1.4-1.3,1.4c-0.4,0-0.8,0-1.2,0
			c-0.8,0-1.2-0.4-1.2-1.2c0-1.1,0.2-2.2-1-2.9c-0.3-0.2-0.4-1-0.4-1.5c0.1-6.9,0.3-13.8,0.5-20.7C4.9,10.3,5.9,9.3,8.4,9
			c5.7-0.6,11.3-0.6,17,0c2.8,0.3,3.6,1.3,3.6,4.2c0.1,6.5,0.3,13,0.5,19.5c0,1-0.1,1.9-1.1,2.5c-0.3,0.2-0.2,1-0.3,1.5
			c-0.2,0.6-0.3,1.6-0.6,1.6c-0.9,0.2-1.8,0.1-2.7-0.1c-0.2,0-0.3-0.6-0.4-0.9C24.3,36.7,24.3,36,24.3,35.3z M16.8,23.7
			c3,0,5.9,0,8.9,0c0.9,0,1.4-0.2,1.4-1.2c0-2.3,0-4.6,0-7c0-0.8-0.4-1.2-1.2-1.2c-6,0-12,0-18,0c-0.9,0-1.2,0.4-1.2,1.2
			c0,2.2,0.1,4.4,0,6.6c0,1.1,0.4,1.5,1.5,1.5C11,23.7,13.9,23.7,16.8,23.7z M23.7,12.7c-0.3-0.9,0.7-2.1-0.8-2.1c-4-0.1-8,0-12,0
			c-0.8,0-0.8,0.5-0.8,1.1c0,0.5-0.1,1.1,0.7,1.1C15,12.7,19.2,12.7,23.7,12.7z M25.1,32.5c0.9-0.1,1.5-0.6,1.5-1.5
			c0-0.9-0.6-1.5-1.5-1.5c-0.8,0-1.4,0.6-1.4,1.4C23.6,31.9,24.2,32.4,25.1,32.5z M10.2,31.1c-0.1-0.9-0.6-1.5-1.5-1.5
			c-0.9,0-1.5,0.6-1.4,1.5c0,0.8,0.6,1.4,1.4,1.4C9.6,32.5,10,31.9,10.2,31.1z"/>
	</g>
</g>
</svg>
