<?xml version="1.0" encoding="utf-8"?>
<!-- Generator: Adobe Illustrator 16.0.0, SVG Export Plug-In . SVG Version: 6.00 Build 0)  -->
<!DOCTYPE svg PUBLIC "-//W3C//DTD SVG 1.1//EN" "http://www.w3.org/Graphics/SVG/1.1/DTD/svg11.dtd">
<svg version="1.1" id="call_point_service_1_" xmlns="http://www.w3.org/2000/svg" xmlns:xlink="http://www.w3.org/1999/xlink"
	 x="0px" y="0px" width="1000px" height="1000px" viewBox="0 0 1000 1000" enable-background="new 0 0 1000 1000"
	 xml:space="preserve">
<g id="call_point_service">
	<g>
		<path fill="#D01C1F" d="M860,1000H140C62.222,1000,0,937.777,0,860V140C0,62.222,62.222,0,140,0h722.223
			C937.777,0,1000,62.222,1000,140v722.223C1000,937.777,937.777,1000,860,1000z"/>
	</g>
	<g>
		<g>
			<path fill="#FFFFFF" d="M491.111,808.889c-4.444,0-6.667-2.222-11.111-2.222c-31.111-8.89-53.333-35.556-55.556-68.89
				c0-2.222,0-2.222,0-4.444c-2.222,0-4.444,0-6.667,0c-53.333,0-106.666,0-162.222,0c-20,0-28.889-8.889-33.333-26.666
				c-4.444-20-2.222-37.778,6.667-57.778c4.445-8.889,11.111-13.333,15.556-20c0,0,0,0,2.222-2.222
				c35.556-22.223,51.111-57.778,57.778-95.556c4.444-22.223,6.667-44.444,8.889-66.667C320,431.111,324.444,400,337.777,368.889
				c20-46.667,55.556-75.555,102.223-91.111c2.223,0,4.444-2.222,6.667-2.222c0,0,0,0,2.222,0
				c-4.444-11.111-6.666-24.444-4.444-37.778c6.667-22.222,20-37.778,44.444-44.444c2.223,0,2.223,0,4.444-2.222
				c6.667,0,11.111,0,17.778,0h2.222c37.778,8.889,55.556,44.444,42.223,80v2.222c6.667,2.222,15.556,4.444,22.222,8.889
				c53.334,22.222,86.667,64.444,100,120c8.89,35.555,15.556,71.111,20,108.889c2.223,22.222,8.89,44.444,17.778,66.666
				c6.667,15.556,15.556,28.89,31.111,40c2.222,2.223,4.444,2.223,6.666,4.445c26.667,20,40,53.333,31.111,88.889
				c-4.444,17.777-13.333,24.444-31.111,24.444c-53.333,0-108.889,0-162.222,0c-2.223,0-4.444,0-6.667,0
				c-2.222,6.667-2.222,13.333-4.444,20c-8.889,31.111-28.889,51.111-62.223,55.556h-2.222
				C502.223,808.889,495.556,808.889,491.111,808.889z M742.223,693.333c0-17.777-2.223-33.333-17.778-44.444
				c-20-13.333-35.556-31.111-44.444-53.333c-11.111-26.667-20-55.556-22.223-84.444c-4.444-33.334-8.889-68.889-17.777-102.223
				c-11.111-42.222-33.333-75.555-75.556-93.333c-26.667-11.111-55.556-13.333-84.444-11.111
				c-51.111,6.667-88.889,33.333-106.667,82.222c-11.11,28.889-15.556,60-22.222,91.111c-4.444,24.445-6.667,48.89-13.334,71.111
				c-8.889,42.223-28.889,77.778-64.444,102.223C260,660,260,675.556,260,691.111C420,693.333,580,693.333,742.223,693.333z
				 M537.777,733.333c-26.666,0-51.11,0-75.555,0c-2.223,17.778,15.555,37.778,35.555,37.778S535.556,755.556,537.777,733.333z
				 M520,248.889c0-11.111-8.889-20-20-20s-20,8.889-20,20c0,11.111,8.889,20,20,20S520,260,520,248.889z"/>
		</g>
	</g>
</g>
</svg>
