<?xml version="1.0" encoding="utf-8"?>
<!-- Generator: Adobe Illustrator 19.2.1, SVG Export Plug-In . SVG Version: 6.00 Build 0)  -->
<svg version="1.1" id="call_point_service_1_" xmlns="http://www.w3.org/2000/svg" xmlns:xlink="http://www.w3.org/1999/xlink"
	 x="0px" y="0px" viewBox="0 0 45 45" enable-background="new 0 0 45 45" xml:space="preserve">
<g id="call_point_service">
	<g>
		<path d="M38.7,45L6.3,45C2.8,45,0,42.2,0,38.7L0,6.3C0,2.8,2.8,0,6.3,0l32.5,0C42.2,0,45,2.8,45,6.3l0,32.5
			C45,42.2,42.2,45,38.7,45z"/>
	</g>
	<g>
		<g>
			<path fill="#FFFFFF" d="M22.1,36.4c-0.2,0-0.3-0.1-0.5-0.1c-1.4-0.4-2.4-1.6-2.5-3.1c0-0.1,0-0.1,0-0.2c-0.1,0-0.2,0-0.3,0
				c-2.4,0-4.8,0-7.3,0c-0.9,0-1.3-0.4-1.5-1.2c-0.2-0.9-0.1-1.7,0.3-2.6c0.2-0.4,0.5-0.6,0.7-0.9c0,0,0,0,0.1-0.1
				c1.6-1,2.3-2.6,2.6-4.3c0.2-1,0.3-2,0.4-3c0.3-1.5,0.5-2.9,1.1-4.3c0.9-2.1,2.5-3.4,4.6-4.1c0.1,0,0.2-0.1,0.3-0.1c0,0,0,0,0.1,0
				c-0.2-0.5-0.3-1.1-0.2-1.7c0.3-1,0.9-1.7,2-2c0.1,0,0.1,0,0.2-0.1c0.3,0,0.5,0,0.8,0c0,0,0.1,0,0.1,0c1.7,0.4,2.5,2,1.9,3.6
				c0,0,0,0.1,0,0.1c0.3,0.1,0.7,0.2,1,0.4c2.4,1,3.9,2.9,4.5,5.4c0.4,1.6,0.7,3.2,0.9,4.9c0.1,1,0.4,2,0.8,3
				c0.3,0.7,0.7,1.3,1.4,1.8c0.1,0.1,0.2,0.1,0.3,0.2c1.2,0.9,1.8,2.4,1.4,4c-0.2,0.8-0.6,1.1-1.4,1.1c-2.4,0-4.9,0-7.3,0
				c-0.1,0-0.2,0-0.3,0c-0.1,0.3-0.1,0.6-0.2,0.9c-0.4,1.4-1.3,2.3-2.8,2.5c0,0-0.1,0-0.1,0C22.6,36.4,22.3,36.4,22.1,36.4z
				 M33.4,31.2c0-0.8-0.1-1.5-0.8-2c-0.9-0.6-1.6-1.4-2-2.4c-0.5-1.2-0.9-2.5-1-3.8c-0.2-1.5-0.4-3.1-0.8-4.6
				c-0.5-1.9-1.5-3.4-3.4-4.2c-1.2-0.5-2.5-0.6-3.8-0.5c-2.3,0.3-4,1.5-4.8,3.7c-0.5,1.3-0.7,2.7-1,4.1c-0.2,1.1-0.3,2.2-0.6,3.2
				c-0.4,1.9-1.3,3.5-2.9,4.6c-0.6,0.4-0.6,1.1-0.6,1.8C18.9,31.2,26.1,31.2,33.4,31.2z M24.2,33c-1.2,0-2.3,0-3.4,0
				c-0.1,0.8,0.7,1.7,1.6,1.7C23.3,34.7,24.1,34,24.2,33z M23.4,11.2c0-0.5-0.4-0.9-0.9-0.9c-0.5,0-0.9,0.4-0.9,0.9
				c0,0.5,0.4,0.9,0.9,0.9C23,12.1,23.4,11.7,23.4,11.2z"/>
		</g>
	</g>
</g>
</svg>
