<?xml version="1.0" encoding="utf-8"?>
<!-- Generator: Adobe Illustrator 19.2.1, SVG Export Plug-In . SVG Version: 6.00 Build 0)  -->
<svg version="1.1" id="Currency_Exchange" xmlns="http://www.w3.org/2000/svg" xmlns:xlink="http://www.w3.org/1999/xlink" x="0px"
	 y="0px" viewBox="0 0 45 45" enable-background="new 0 0 45 45" xml:space="preserve">
<g id="Currency_Exchange_1_">
	<g>
		<path d="M39.3,45L5.7,45C2.6,45,0,42.4,0,39.3L0,5.7C0,2.6,2.6,0,5.7,0l33.6,0C42.4,0,45,2.6,45,5.7l0,33.6
			C45,42.4,42.4,45,39.3,45z"/>
	</g>
	<g>
		<path fill="#FFFFFF" d="M39.7,8.5c0,5.7,0,11.3,0,17c-1.8,0-3.6,0-5.5,0c-0.3,1.2-0.9,2.2-1.9,2.9c-0.8,0.5-1.6,0.8-2.5,0.8
			c-1.7,0-3.8-1.1-4.4-3.6c-0.1,0-0.2,0-0.4,0c-6.4,0-12.9,0-19.3,0c-0.1,0-0.2,0-0.4,0c0-5.7,0-11.3,0-17
			C16.8,8.5,28.2,8.5,39.7,8.5z M8.6,11.7c0,3.5,0,7,0,10.5c0.1,0,0.3,0,0.4,0c5.6,0,11.2,0,16.8,0c0.2,0,0.4-0.1,0.5-0.3
			c0.4-0.6,0.9-1,1.5-1.3c2-1,4.3-0.4,5.6,1.3c0.1,0.2,0.2,0.2,0.4,0.2c0.5,0,1,0,1.5,0c0.3,0,0.7,0,1,0c0-3.5,0-7,0-10.5
			C27.1,11.7,17.9,11.7,8.6,11.7z M31.9,23.5c0.1-1.2-0.8-2.2-2-2.1c-0.6,0-1.1,0.2-1.5,0.6c-0.5,0.6-0.5,1.3-0.3,2
			c-0.2,0-0.4,0-0.6,0c0,0.3,0,0.6,0,1c0.2,0,0.4,0,0.6,0c0.2,0,0.3,0.1,0.3,0.3c0,0.4-0.2,0.8-0.5,1.1c-0.1,0.1-0.1,0.1-0.1,0.2
			c0,0.3,0,0.5,0,0.8c1.4,0,2.7,0,4,0c0-0.3,0-0.6,0-0.9c-0.9,0-1.8,0-2.7,0c0.3-0.5,0.5-1,0.5-1.5c0.3,0,0.5,0,0.8,0
			c0-0.3,0-0.6,0-0.9c-0.2,0-0.4,0-0.6,0c-0.5,0-0.5-0.1-0.6-0.5c0-0.1,0-0.3,0-0.4c0.1-0.2,0.1-0.3,0.3-0.4c0.4-0.3,1-0.1,1.1,0.3
			c0.1,0.5,0.4,0.6,0.9,0.5C31.6,23.5,31.7,23.5,31.9,23.5z"/>
		<path fill="#FFFFFF" d="M22.4,36.1c0-2.5,2-4.5,4.4-4.5c2.4,0,4.4,2,4.5,4.4c0,2.5-2,4.5-4.4,4.5C24.4,40.5,22.4,38.6,22.4,36.1z
			 M29.3,33.4c-0.3,0-0.6,0-0.9,0c-0.2,0-0.3,0.1-0.4,0.2c-0.4,0.6-0.7,1.2-1.1,1.9c-0.1-0.1-0.1-0.2-0.2-0.3
			c-0.3-0.5-0.6-1.1-0.9-1.6c0-0.1-0.1-0.2-0.2-0.2c-0.4,0-0.8,0-1.2,0c0.7,1.1,1.3,2.2,1.9,3.4c-0.5,0-1,0-1.5,0c0,0.4,0,0.7,0,1.1
			c0.5,0,1,0,1.5,0c0,0.5,0,1,0,1.5c0.4,0,0.8,0,1.2,0c0-0.5,0-1,0-1.5c0.5,0,0.9,0,1.3,0c0-0.4,0-0.7,0-1.1c-0.5,0-0.9,0-1.4,0
			C28.1,35.6,28.7,34.5,29.3,33.4z"/>
		<path fill="#FFFFFF" d="M13,26.7c2.5,0,4.5,2,4.5,4.5c0,2.4-2,4.4-4.4,4.4c-2.5,0-4.5-2-4.5-4.4C8.6,28.7,10.6,26.7,13,26.7z
			 M13.5,29.8c0.4,0,0.7,0,1.1,0c0-1-0.4-1.8-1.5-1.9c-1-0.1-1.8,0.6-1.8,1.6c0,0.3,0,0.5,0,0.8c-0.2,0-0.4,0-0.6,0c0,0.4,0,0.7,0,1
			c0.2,0,0.4,0,0.7,0c0,0.8,0,1.6,0,2.5c0.3,0,0.6,0,0.9,0c0.2,0,0.2-0.1,0.2-0.2c0-0.6,0-1.3,0-1.9c0-0.1,0-0.2,0-0.3
			c0.3,0,0.5,0,0.8,0c0-0.3,0-0.7,0-1c-0.3,0-0.5,0-0.8,0c0-0.4,0.1-0.7,0.1-1c0-0.2,0.3-0.3,0.5-0.3c0.2,0,0.4,0.1,0.4,0.3
			C13.4,29.5,13.5,29.6,13.5,29.8z M14.6,30.3c-0.4,0-0.7,0-1.1,0c0,1.2,0,2.3,0,3.5c0.2,0,0.4,0,0.5,0c0.2,0,0.4,0,0.6,0
			c0-0.1,0-0.2,0-0.3c0-0.4,0-0.8,0-1.2c0-0.6,0.3-0.8,0.8-1c0.1,0,0.2,0,0.2-0.1c0-0.3,0-0.7,0-1c-0.5,0-0.8,0.2-1.1,0.5
			C14.6,30.6,14.6,30.5,14.6,30.3z"/>
		<path fill="#FFFFFF" d="M22.6,21.5c-2.5,0-4.5-2-4.5-4.5c0-2.5,2-4.5,4.5-4.4c2.5,0,4.4,2,4.4,4.4C27.1,19.5,25.1,21.5,22.6,21.5z
			 M22.1,14.1c-0.3,0.1-0.7,0.2-0.9,0.4c-1,0.6-1.1,1.9-0.2,2.5c0.3,0.2,0.6,0.2,0.9,0.4c0.1,0,0.2,0.1,0.2,0.1c0,0.4,0,0.8,0,1.2
			c-0.4-0.1-0.5-0.4-0.6-0.7c0-0.1-0.1-0.2-0.1-0.2c-0.3,0-0.7,0-1,0c0,0.1,0,0.1,0,0.1c0.1,0.8,0.7,1.5,1.6,1.8
			c0.2,0.1,0.2,0.1,0.2,0.3c0,0.2,0,0.4,0,0.5c0.4,0,0.7,0,1.1,0c0-0.3,0-0.5,0-0.7c0.1,0,0.2,0,0.3-0.1c0.5-0.1,0.9-0.3,1.2-0.7
			c0.7-0.9,0.4-2-0.7-2.4c-0.3-0.1-0.5-0.1-0.8-0.2c0-0.4,0-0.8,0-1.1c0.3,0,0.5,0.3,0.6,0.5c0,0.1,0.1,0.2,0.2,0.2c0.3,0,0.6,0,1,0
			c0-0.4-0.1-0.7-0.3-1c-0.4-0.5-0.9-0.7-1.5-0.9c0-0.3,0-0.5,0-0.7c-0.4,0-0.7,0-1.1,0C22.1,13.6,22.1,13.9,22.1,14.1z"/>
		<path fill="#FFFFFF" d="M23.2,17.6c0.4,0,0.7,0.2,0.7,0.5c0,0.3-0.3,0.5-0.7,0.5C23.2,18.3,23.2,17.9,23.2,17.6z"/>
		<path fill="#FFFFFF" d="M22.1,15.3c0,0.3,0,0.6,0,0.9c-0.3,0-0.5-0.1-0.6-0.3C21.5,15.6,21.7,15.3,22.1,15.3z"/>
	</g>
</g>
</svg>
