<?xml version="1.0" encoding="utf-8"?>
<!-- Generator: Adobe Illustrator 16.0.0, SVG Export Plug-In . SVG Version: 6.00 Build 0)  -->
<!DOCTYPE svg PUBLIC "-//W3C//DTD SVG 1.1//EN" "http://www.w3.org/Graphics/SVG/1.1/DTD/svg11.dtd">
<svg version="1.1" id="Currency_Exchange" xmlns="http://www.w3.org/2000/svg" xmlns:xlink="http://www.w3.org/1999/xlink" x="0px"
	 y="0px" width="1000px" height="1000px" viewBox="0 0 1000 1000" enable-background="new 0 0 1000 1000" xml:space="preserve">
<g id="Currency_Exchange_1_">
	<g>
		<path fill="#D01C1F" d="M873.333,1000H126.667C57.778,1000,0,942.223,0,873.333V126.667C0,57.778,57.778,0,126.667,0h746.667
			C942.223,0,1000,57.778,1000,126.667v746.667C1000,942.223,942.223,1000,873.333,1000z"/>
	</g>
	<g>
		<path fill="#FFFFFF" d="M882.223,188.889c0,126.667,0,251.111,0,377.778c-40,0-80,0-122.223,0
			c-6.667,26.666-20,48.889-42.223,64.444c-17.777,11.111-35.555,17.777-55.555,17.777c-37.778,0-84.445-24.444-97.778-80
			c-2.222,0-4.444,0-8.889,0c-142.223,0-286.667,0-428.889,0c-2.222,0-4.444,0-8.889,0c0-126.666,0-251.111,0-377.777
			C373.333,188.889,626.667,188.889,882.223,188.889z M191.111,260c0,77.778,0,155.556,0,233.333c2.222,0,6.667,0,8.889,0
			c124.444,0,248.889,0,373.333,0c4.444,0,8.89-2.222,11.111-6.666c8.889-13.334,20-22.223,33.333-28.89
			c44.445-22.222,95.556-8.889,124.445,28.89c2.222,4.444,4.444,4.444,8.889,4.444c11.111,0,22.222,0,33.333,0
			c6.667,0,15.556,0,22.223,0c0-77.778,0-155.556,0-233.333C602.223,260,397.777,260,191.111,260z M708.889,522.223
			c2.223-26.667-17.777-48.89-44.444-46.667c-13.333,0-24.444,4.444-33.333,13.333C620,502.223,620,517.777,624.444,533.333
			c-4.444,0-8.889,0-13.333,0c0,6.667,0,13.334,0,22.223c4.444,0,8.889,0,13.333,0s6.667,2.222,6.667,6.667
			c0,8.889-4.444,17.777-11.111,24.444c-2.223,2.222-2.223,2.222-2.223,4.444c0,6.666,0,11.111,0,17.777c31.111,0,60,0,88.89,0
			c0-6.666,0-13.333,0-20c-20,0-40,0-60,0c6.666-11.111,11.11-22.222,11.11-33.333c6.667,0,11.111,0,17.778,0c0-6.667,0-13.333,0-20
			c-4.444,0-8.889,0-13.333,0c-11.111,0-11.111-2.223-13.334-11.111c0-2.222,0-6.667,0-8.889c2.223-4.444,2.223-6.667,6.667-8.889
			c8.889-6.667,22.222-2.223,24.444,6.666c2.223,11.111,8.889,13.334,20,11.111C702.223,522.223,704.444,522.223,708.889,522.223z"
			/>
		<path fill="#FFFFFF" d="M497.777,802.223c0-55.556,44.445-100,97.778-100s97.777,44.444,100,97.777
			c0,55.556-44.444,100-97.778,100C542.223,900,497.777,857.777,497.777,802.223z M651.111,742.223c-6.667,0-13.334,0-20,0
			c-4.444,0-6.667,2.222-8.889,4.444c-8.89,13.333-15.556,26.666-24.445,42.222c-2.222-2.222-2.222-4.444-4.444-6.666
			c-6.666-11.111-13.333-24.444-20-35.556c0-2.223-2.222-4.444-4.444-4.444c-8.889,0-17.777,0-26.666,0
			c15.555,24.444,28.889,48.889,42.222,75.556c-11.111,0-22.222,0-33.333,0c0,8.889,0,15.556,0,24.444c11.111,0,22.222,0,33.333,0
			c0,11.11,0,22.222,0,33.333c8.889,0,17.778,0,26.667,0c0-11.111,0-22.223,0-33.333c11.111,0,20,0,28.889,0
			c0-8.89,0-15.556,0-24.444c-11.111,0-20,0-31.111,0C624.444,791.111,637.777,766.667,651.111,742.223z"/>
		<path fill="#FFFFFF" d="M288.889,593.333c55.556,0,100,44.444,100,100c0,53.334-44.444,97.778-97.777,97.778
			c-55.556,0-100-44.444-100-97.778C191.111,637.777,235.556,593.333,288.889,593.333z M300,662.223c8.889,0,15.556,0,24.444,0
			c0-22.223-8.889-40-33.333-42.223c-22.223-2.223-40,13.333-40,35.556c0,6.667,0,11.111,0,17.777c-4.445,0-8.889,0-13.333,0
			c0,8.89,0,15.556,0,22.223c4.444,0,8.889,0,15.556,0c0,17.777,0,35.556,0,55.556c6.667,0,13.333,0,20,0
			c4.444,0,4.444-2.223,4.444-4.444c0-13.334,0-28.89,0-42.223c0-2.222,0-4.444,0-6.667c6.667,0,11.111,0,17.778,0
			c0-6.666,0-15.555,0-22.222c-6.667,0-11.111,0-17.778,0c0-8.889,2.222-15.556,2.222-22.223c0-4.444,6.667-6.666,11.111-6.666
			c4.444,0,8.889,2.222,8.889,6.666C297.777,655.556,300,657.777,300,662.223z M324.444,673.333c-8.889,0-15.556,0-24.444,0
			c0,26.667,0,51.111,0,77.778c4.444,0,8.889,0,11.111,0c4.444,0,8.889,0,13.333,0c0-2.223,0-4.444,0-6.667
			c0-8.889,0-17.777,0-26.667c0-13.333,6.667-17.777,17.778-22.222c2.222,0,4.444,0,4.444-2.223c0-6.666,0-15.556,0-22.222
			c-11.111,0-17.778,4.444-24.444,11.111C324.444,680,324.444,677.777,324.444,673.333z"/>
		<path fill="#FFFFFF" d="M502.223,477.777c-55.556,0-100-44.444-100-100c0-55.556,44.444-100,100-97.778
			C557.777,280,600,324.444,600,377.778C602.223,433.333,557.777,477.777,502.223,477.777z M491.111,313.333
			c-6.667,2.222-15.556,4.444-20,8.889c-22.223,13.333-24.444,42.222-4.444,55.556c6.666,4.444,13.333,4.444,20,8.889
			c2.222,0,4.444,2.222,4.444,2.222c0,8.889,0,17.778,0,26.667c-8.889-2.222-11.111-8.889-13.334-15.556
			c0-2.222-2.222-4.444-2.222-4.444c-6.667,0-15.556,0-22.223,0c0,2.222,0,2.222,0,2.222c2.223,17.778,15.556,33.333,35.556,40
			c4.444,2.223,4.444,2.223,4.444,6.667s0,8.889,0,11.111c8.89,0,15.556,0,24.444,0c0-6.667,0-11.111,0-15.556
			c2.223,0,4.445,0,6.667-2.223c11.111-2.222,20-6.666,26.667-15.556c15.556-20,8.889-44.444-15.556-53.333
			c-6.667-2.222-11.111-2.222-17.778-4.444c0-8.889,0-17.778,0-24.444c6.667,0,11.111,6.667,13.334,11.111
			c0,2.222,2.222,4.445,4.444,4.445c6.667,0,13.333,0,22.222,0c0-8.889-2.222-15.556-6.666-22.223
			c-8.889-11.111-20-15.555-33.334-20c0-6.667,0-11.111,0-15.555c-8.889,0-15.555,0-24.444,0
			C491.111,302.222,491.111,308.889,491.111,313.333z"/>
		<path fill="#FFFFFF" d="M515.556,391.111c8.889,0,15.556,4.444,15.556,11.111s-6.667,11.111-15.556,11.111
			C515.556,406.667,515.556,397.778,515.556,391.111z"/>
		<path fill="#FFFFFF" d="M491.111,340c0,6.667,0,13.333,0,20c-6.667,0-11.111-2.222-13.334-6.667
			C477.777,346.667,482.223,340,491.111,340z"/>
	</g>
</g>
</svg>
