<?xml version="1.0" encoding="utf-8"?>
<!-- Generator: Adobe Illustrator 19.2.1, SVG Export Plug-In . SVG Version: 6.00 Build 0)  -->
<svg version="1.1" id="Sing__x40__Mall" xmlns="http://www.w3.org/2000/svg" xmlns:xlink="http://www.w3.org/1999/xlink" x="0px"
	 y="0px" viewBox="0 0 45 45" style="enable-background:new 0 0 45 45;" xml:space="preserve">
<style type="text/css">
	.st0{fill:#FFFFFF;}
	.st1{font-family:'MyriadPro-Bold';}
	.st2{font-size:7px;}
</style>
<g id="taxi_stand_4_">
	<g>
		<path d="M39.3,45L5.7,45C2.6,45,0,42.4,0,39.3L0,5.7C0,2.6,2.6,0,5.7,0l33.6,0C42.4,0,45,2.6,45,5.7l0,33.6
			C45,42.4,42.4,45,39.3,45z"/>
	</g>
	<g>
		<g>
			<text transform="matrix(1 0 0 1 9.0533 33.4102)" class="st0 st1 st2">SERVICE</text>
		</g>
		<g>
			<g>
				<path class="st0" d="M21.3,12.8c1.5,0,2.6-1.1,2.6-2.6c0-1.4-1.2-2.6-2.6-2.6c-1.4,0-2.6,1.2-2.6,2.6
					C18.7,11.6,19.9,12.8,21.3,12.8z"/>
			</g>
			<path class="st0" d="M31,19.5c0,0-2.7,0-3,0c-0.2,0-0.5-0.9-0.5-0.9L26.7,16c0,0-0.4-2.5-2.8-2.5c-1.7,0-3.9,0-5,0
				c-1.9,0-3.5,1.5-3.5,3.5c0,1.7,0,3.4,0,5.1h2.2c0-1.5,0-3,0-4.5c0.2,0,0.9,0,1.1,0c0,1.5,0,3,0,4.5h5.5c0-1.9,0-4.5,0-4.5h0.6
				l1,2.9c0,0,0.9,1.6,2.2,1.6c1.2,0,2,0,2,0s0.7,0.1,1.1,0c0.6-0.1,0.9-0.6,0.9-1.3C32,19.5,31,19.5,31,19.5z"/>
			<path class="st0" d="M34.1,23.9H9.5c-0.6,0-1,0.5-1,1s0.5,1,1,1h2.1h1.6h17.2H32h2.1c0.6,0,1-0.5,1-1S34.7,23.9,34.1,23.9z"/>
		</g>
	</g>
</g>
</svg>
