<?xml version="1.0" encoding="utf-8"?>
<!-- Generator: Adobe Illustrator 16.0.0, SVG Export Plug-In . SVG Version: 6.00 Build 0)  -->
<!DOCTYPE svg PUBLIC "-//W3C//DTD SVG 1.1//EN" "http://www.w3.org/Graphics/SVG/1.1/DTD/svg11.dtd">
<svg version="1.1" id="Sing__x40__Mall" xmlns="http://www.w3.org/2000/svg" xmlns:xlink="http://www.w3.org/1999/xlink" x="0px"
	 y="0px" width="1000px" height="1000px" viewBox="0 0 1000 1000" enable-background="new 0 0 1000 1000" xml:space="preserve">
<g id="taxi_stand_4_">
	<g>
		<path fill="#D01C1F" d="M873.333,1000H126.667C57.778,1000,0,942.223,0,873.333V126.667C0,57.778,57.778,0,126.667,0h746.667
			C942.223,0,1000,57.778,1000,126.667v746.667C1000,942.223,942.223,1000,873.333,1000z"/>
	</g>
	<g>
		<g>
			<text transform="matrix(1 0 0 1 201.1875 742.4531)" fill="#FFFFFF" font-family="'MyriadPro-Bold'" font-size="155.5555">SERVICE</text>
		</g>
		<g>
			<g>
				<path fill="#FFFFFF" d="M473.333,284.444c33.334,0,57.778-24.444,57.778-57.778c0-31.111-26.667-57.778-57.778-57.778
					c-31.11,0-57.777,26.667-57.777,57.778C415.556,257.778,442.223,284.444,473.333,284.444z"/>
			</g>
			<path fill="#FFFFFF" d="M688.889,433.333c0,0-60,0-66.666,0c-4.445,0-11.111-20-11.111-20l-17.778-57.778
				c0,0-8.889-55.556-62.222-55.556c-37.778,0-86.667,0-111.111,0c-42.223,0-77.777,33.333-77.777,77.778
				c0,37.778,0,75.555,0,113.333h48.889c0-33.334,0-66.667,0-100c4.444,0,20,0,24.444,0c0,33.333,0,66.666,0,100h122.222
				c0-42.223,0-100,0-100h13.334l22.222,64.444c0,0,20,35.556,48.89,35.556c26.666,0,44.444,0,44.444,0s15.556,2.222,24.444,0
				c13.333-2.223,20-13.334,20-28.889C711.111,433.333,688.889,433.333,688.889,433.333z"/>
			<path fill="#FFFFFF" d="M757.777,531.111H211.111c-13.333,0-22.223,11.111-22.223,22.222c0,11.111,11.111,22.223,22.223,22.223
				h46.667h35.556h382.222h35.556h46.666c13.334,0,22.223-11.111,22.223-22.223C780,542.223,771.111,531.111,757.777,531.111z"/>
		</g>
	</g>
</g>
</svg>
