<?xml version="1.0" encoding="utf-8"?>
<!-- Generator: Adobe Illustrator 19.2.1, SVG Export Plug-In . SVG Version: 6.00 Build 0)  -->
<svg version="1.1" id="Driver_Waiting_Room" xmlns="http://www.w3.org/2000/svg" xmlns:xlink="http://www.w3.org/1999/xlink"
	 x="0px" y="0px" viewBox="0 0 45 45" enable-background="new 0 0 45 45" xml:space="preserve">
<g id="Driver_Waiting_Room_1_">
	<g>
		<path d="M39.3,45L5.7,45C2.6,45,0,42.4,0,39.3L0,5.7C0,2.6,2.6,0,5.7,0l33.6,0C42.4,0,45,2.6,45,5.7l0,33.6
			C45,42.4,42.4,45,39.3,45z"/>
	</g>
	<g id="H7W8PQ.tif_4_">
		<g>
			<g>
				<path fill="#FFFFFF" d="M23.9,24.5c1.5,0,3,0,4.5,0c1.8,0,2.5,0.7,2.5,2.5c0,2.6,0,5.3,0,7.9c0,1.2-0.6,1.9-1.5,1.9
					c-0.9,0-1.5-0.7-1.5-1.9c0-2.1,0-4.2,0-6.4c-0.7,0-1.3,0-1.9,0c-1.4,0-2.8,0-4.1,0c-1.2,0-2-0.6-2.3-1.8c-0.7-3-1.3-6-2-9
					c-0.3-1.4,0.4-2.5,1.7-2.8c1.5-0.3,2.5,0.3,2.9,1.8c0.5,2.2,1,4.5,1.4,6.7C23.7,23.8,23.8,24.1,23.9,24.5z"/>
			</g>
			<g>
				<path fill="#FFFFFF" d="M21.8,32.3c-1.2,0-2.4,0-3.6,0c-0.8,0-1.4-0.3-1.6-1.1c-0.8-3-1.6-6.1-2.4-9.1C13.9,21,14.3,20.1,15,20
					c0.7-0.1,1.4,0.4,1.7,1.5c0.7,2.6,1.4,5.3,2.1,7.9c0.2,0.6,0.4,0.8,1,0.8c1.8,0,3.6,0,5.4,0c0.3,0,0.5,0,0.8,0
					c0.6,0.1,1.1,0.4,1.1,1c0,0.7-0.5,1-1.1,1C24.5,32.2,23.2,32.2,21.8,32.3C21.8,32.2,21.8,32.3,21.8,32.3z"/>
			</g>
			<g>
				<path fill="#FFFFFF" d="M19.8,8.2c1.6,0,2.9,1.3,2.9,2.9c0,1.6-1.3,2.9-2.9,2.9c-1.6,0-2.9-1.3-2.9-2.9
					C16.9,9.5,18.2,8.2,19.8,8.2z"/>
			</g>
		</g>
	</g>
</g>
</svg>
