<?xml version="1.0" encoding="utf-8"?>
<!-- Generator: Adobe Illustrator 16.0.0, SVG Export Plug-In . SVG Version: 6.00 Build 0)  -->
<!DOCTYPE svg PUBLIC "-//W3C//DTD SVG 1.1//EN" "http://www.w3.org/Graphics/SVG/1.1/DTD/svg11.dtd">
<svg version="1.1" id="Driver_Waiting_Room" xmlns="http://www.w3.org/2000/svg" xmlns:xlink="http://www.w3.org/1999/xlink"
	 x="0px" y="0px" width="1000px" height="1000px" viewBox="0 0 1000 1000" enable-background="new 0 0 1000 1000"
	 xml:space="preserve">
<g id="Driver_Waiting_Room_1_">
	<g>
		<path fill="#D01C1F" d="M873.333,1000H126.667C57.778,1000,0,942.223,0,873.333V126.667C0,57.778,57.778,0,126.667,0h746.667
			C942.223,0,1000,57.778,1000,126.667v746.667C1000,942.223,942.223,1000,873.333,1000z"/>
	</g>
	<g id="H7W8PQ.tif_4_">
		<g>
			<g>
				<path fill="#FFFFFF" d="M531.111,544.444c33.333,0,66.666,0,100,0c40,0,55.556,15.556,55.556,55.556
					c0,57.777,0,117.777,0,175.556c0,26.667-13.334,42.222-33.334,42.222S620,802.223,620,775.556c0-46.667,0-93.333,0-142.223
					c-15.556,0-28.889,0-42.223,0c-31.11,0-62.222,0-91.11,0c-26.667,0-44.444-13.333-51.111-40
					C420,526.667,406.667,460,391.111,393.333c-6.667-31.111,8.889-55.556,37.777-62.222c33.334-6.667,55.556,6.667,64.444,40
					c11.111,48.889,22.223,100,31.111,148.889C526.667,528.889,528.889,535.556,531.111,544.444z"/>
			</g>
			<g>
				<path fill="#FFFFFF" d="M484.444,717.777c-26.667,0-53.333,0-80,0c-17.777,0-31.111-6.666-35.556-24.444
					c-17.777-66.666-35.556-135.556-53.333-202.222c-6.667-24.444,2.222-44.444,17.777-46.667
					c15.556-2.222,31.111,8.889,37.778,33.333c15.556,57.778,31.111,117.778,46.666,175.556c4.445,13.334,8.89,17.778,22.223,17.778
					c40,0,80,0,120,0c6.667,0,11.111,0,17.777,0c13.334,2.222,24.445,8.889,24.445,22.222c0,15.556-11.111,22.223-24.445,22.223
					C544.444,715.556,515.556,715.556,484.444,717.777C484.444,715.556,484.444,717.777,484.444,717.777z"/>
			</g>
			<g>
				<path fill="#FFFFFF" d="M440,182.222c35.556,0,64.444,28.889,64.444,64.444c0,35.556-28.889,64.445-64.444,64.445
					s-64.444-28.889-64.444-64.445C375.556,211.111,404.444,182.222,440,182.222z"/>
			</g>
		</g>
	</g>
</g>
</svg>
