<?xml version="1.0" encoding="utf-8"?>
<!-- Generator: Adobe Illustrator 16.0.0, SVG Export Plug-In . SVG Version: 6.00 Build 0)  -->
<!DOCTYPE svg PUBLIC "-//W3C//DTD SVG 1.1//EN" "http://www.w3.org/Graphics/SVG/1.1/DTD/svg11.dtd">
<svg version="1.1" id="Dropoff" xmlns="http://www.w3.org/2000/svg" xmlns:xlink="http://www.w3.org/1999/xlink" x="0px" y="0px"
	 width="1000px" height="1000px" viewBox="0 0 1000 1000" enable-background="new 0 0 1000 1000" xml:space="preserve">
<g id="dropoff">
	<g>
		<path fill="#D01C1F" d="M873.333,1000H126.667C57.778,1000,0,942.223,0,873.333V126.667C0,57.778,57.778,0,126.667,0h746.667
			C942.223,0,1000,57.778,1000,126.667v746.667C1000,942.223,942.223,1000,873.333,1000z"/>
	</g>
	<g>
		<path fill="#FFFFFF" d="M748.889,684.444c0,0,0,31.111,0,48.889c0,15.556-6.666,24.444-24.444,24.444
			c-60,2.223-60,2.223-60-55.555c0-8.89,0-15.556,0-26.667c-108.889,0-217.777,0-328.889,0c0,20,0,40,0,57.777
			c0,17.778-6.667,24.444-24.444,24.444c-60,2.223-60,2.223-60-57.777c0-15.556,2.222-31.111-20-33.334
			c-6.667,0-13.333-11.11-15.556-17.777c-6.667-40-13.333-80-17.778-120c-2.222-26.667,13.333-44.444,33.333-62.222
			c11.111-8.89,20-20,26.667-31.111C266.667,420,273.333,402.222,280,386.667c22.223-55.556,37.777-84.444,117.777-84.444
			c4.445,0,202.223-2.222,215.556-2.222c44.444,0,71.111,20,88.89,57.778c8.889,17.778,17.777,37.778,24.444,57.778
			c11.11,22.222,20,44.444,44.444,60c24.444,13.333,28.889,40,26.666,66.666c-4.444,33.334-6.666,64.445-15.555,95.556
			c-4.445,15.556-13.334,26.667-22.223,26.667C748.889,664.444,748.889,684.444,748.889,684.444z M302.223,446.667
			c0,0,260,0,393.333,0C682.223,420,673.333,391.111,660,368.889c-8.889-11.111-26.667-22.222-42.223-22.222
			c-57.777-2.222-113.333,0-171.11,0c-104.444,0-104.444,0-142.223,97.778C304.444,442.223,302.223,446.667,302.223,446.667z
			 M293.333,573.333c22.222,0,40-17.777,40-40c0-20-17.777-37.777-37.777-37.777c-22.222,0-40,17.777-42.222,37.777
			C253.333,555.556,271.111,573.333,293.333,573.333z M704.444,573.333c22.223,0,40-15.556,40-37.777c0-22.223-17.777-40-40-37.778
			c-22.222,0-37.777,15.556-37.777,37.778C666.667,557.777,682.223,573.333,704.444,573.333z"/>
	</g>
</g>
</svg>
