<?xml version="1.0" encoding="utf-8"?>
<!-- Generator: Adobe Illustrator 19.2.1, SVG Export Plug-In . SVG Version: 6.00 Build 0)  -->
<svg version="1.1" id="Taxi_Drop-off" xmlns="http://www.w3.org/2000/svg" xmlns:xlink="http://www.w3.org/1999/xlink" x="0px"
	 y="0px" viewBox="0 0 45 45" enable-background="new 0 0 45 45" xml:space="preserve">
<g id="Taxi_Drop-off_1_">
	<g>
		<g>
			<path d="M39.3,45H5.7C2.6,45,0,42.4,0,39.3V5.7C0,2.6,2.6,0,5.7,0h33.6C42.4,0,45,2.6,45,5.7v33.6C45,42.4,42.4,45,39.3,45z"/>
		</g>
	</g>
	<g>
		<g>
			<path fill="#FFFFFF" d="M33.7,36.5c0,0.9,0,1.7,0,2.6c0,0.7-0.3,1.1-1.1,1.1c-2.7,0.1-2.7,0.1-2.7-2.5c0-0.4,0-0.7,0-1.2
				c-4.9,0-9.8,0-14.8,0c0,0.9,0,1.8,0,2.6s-0.3,1.1-1.1,1.1c-2.7,0.1-2.7,0.1-2.7-2.6c0-0.7,0.1-1.4-0.9-1.5
				c-0.3,0-0.6-0.5-0.7-0.8c-0.3-1.8-0.6-3.6-0.8-5.4c-0.1-1.2,0.6-2,1.5-2.8c0.5-0.4,0.9-0.9,1.2-1.4c0.4-0.7,0.7-1.5,1-2.2
				c1-2.5,2.3-4.4,5.3-3.8c0.1-0.2,0.2-0.2,0.2-0.3C18,17,18.3,16.9,20.7,17c1.3,0,2.6,0,3.9,0c1.7,0,1.9,0.2,1.9,1.9
				c0,0.2,0.1,0.5,0.1,0.7c0.3,0,0.6,0.1,0.9,0.1c2-0.1,3.2,0.9,4,2.6c0.4,0.8,0.8,1.7,1.1,2.6c0.5,1,0.9,2,2,2.7
				c1.1,0.6,1.3,1.8,1.2,3c-0.2,1.5-0.3,2.9-0.7,4.3c-0.2,0.7-0.8,1.2-1.2,1.8C34,36.5,33.8,36.5,33.7,36.5z M13.7,26.1
				c5.8,0,11.7,0,17.6,0c-0.6-1.2-1-2.5-1.6-3.5c-0.4-0.5-1.2-1-1.9-1c-2.6-0.1-5.1,0-7.7,0c-4.7,0-4.7,0-6.4,4.4
				C13.7,26,13.7,26,13.7,26.1z M13.2,31.9c1,0,1.8-0.8,1.8-1.8c0-0.9-0.8-1.7-1.7-1.7c-1,0-1.8,0.8-1.9,1.7
				C11.4,31,12.2,31.9,13.2,31.9z M31.7,31.9c1,0,1.8-0.7,1.8-1.7s-0.8-1.8-1.8-1.7c-1,0-1.7,0.7-1.7,1.7
				C30,31.1,30.7,31.9,31.7,31.9z"/>
		</g>
	</g>
	<g>
		<g enable-background="new    ">
			<path fill="#FFFFFF" d="M14.8,6.5h-1.6V5.3h4.7v1.2h-1.7v4.9h-1.4V6.5z"/>
			<path fill="#FFFFFF" d="M19.3,9.8l-0.4,1.6h-1.4l1.8-6.1h1.8l1.9,6.1h-1.5l-0.5-1.6H19.3z M20.9,8.8l-0.4-1.3
				c-0.1-0.4-0.2-0.8-0.3-1.2h0c-0.1,0.4-0.2,0.8-0.3,1.2l-0.4,1.3H20.9z"/>
			<path fill="#FFFFFF" d="M26.8,11.4l-0.5-1.1c-0.2-0.4-0.4-0.7-0.5-1.1h0c-0.1,0.4-0.3,0.7-0.5,1.1l-0.5,1.1h-1.6l1.8-3.1l-1.7-3
				h1.6l0.5,1.1c0.2,0.4,0.3,0.7,0.5,1h0c0.1-0.4,0.3-0.7,0.4-1l0.5-1.1h1.6l-1.7,3l1.8,3.1H26.8z"/>
			<path fill="#FFFFFF" d="M30.5,5.3v6.1h-1.4V5.3H30.5z"/>
		</g>
	</g>
</g>
</svg>
