<?xml version="1.0" encoding="utf-8"?>
<!-- Generator: Adobe Illustrator 19.2.1, SVG Export Plug-In . SVG Version: 6.00 Build 0)  -->
<svg version="1.1" id="Dropoff" xmlns="http://www.w3.org/2000/svg" xmlns:xlink="http://www.w3.org/1999/xlink" x="0px" y="0px"
	 viewBox="0 0 45 45" enable-background="new 0 0 45 45" xml:space="preserve">
<g id="dropoff">
	<g>
		<path d="M39.3,45H5.7C2.6,45,0,42.4,0,39.3V5.7C0,2.6,2.6,0,5.7,0h33.6C42.4,0,45,2.6,45,5.7v33.6C45,42.4,42.4,45,39.3,45z"/>
	</g>
	<g>
		<path fill="#FFFFFF" d="M33.7,30.8c0,0,0,1.4,0,2.2c0,0.7-0.3,1.1-1.1,1.1c-2.7,0.1-2.7,0.1-2.7-2.5c0-0.4,0-0.7,0-1.2
			c-4.9,0-9.8,0-14.8,0c0,0.9,0,1.8,0,2.6s-0.3,1.1-1.1,1.1c-2.7,0.1-2.7,0.1-2.7-2.6c0-0.7,0.1-1.4-0.9-1.5c-0.3,0-0.6-0.5-0.7-0.8
			c-0.3-1.8-0.6-3.6-0.8-5.4c-0.1-1.2,0.6-2,1.5-2.8c0.5-0.4,0.9-0.9,1.2-1.4c0.4-0.7,0.7-1.5,1-2.2c1-2.5,1.7-3.8,5.3-3.8
			c0.2,0,9.1-0.1,9.7-0.1c2,0,3.2,0.9,4,2.6c0.4,0.8,0.8,1.7,1.1,2.6c0.5,1,0.9,2,2,2.7c1.1,0.6,1.3,1.8,1.2,3
			c-0.2,1.5-0.3,2.9-0.7,4.3c-0.2,0.7-0.6,1.2-1,1.2C33.7,29.9,33.7,30.8,33.7,30.8z M13.6,20.1c0,0,11.7,0,17.7,0
			c-0.6-1.2-1-2.5-1.6-3.5c-0.4-0.5-1.2-1-1.9-1c-2.6-0.1-5.1,0-7.7,0c-4.7,0-4.7,0-6.4,4.4C13.7,19.9,13.6,20.1,13.6,20.1z
			 M13.2,25.8c1,0,1.8-0.8,1.8-1.8c0-0.9-0.8-1.7-1.7-1.7c-1,0-1.8,0.8-1.9,1.7C11.4,25,12.2,25.8,13.2,25.8z M31.7,25.8
			c1,0,1.8-0.7,1.8-1.7s-0.8-1.8-1.8-1.7c-1,0-1.7,0.7-1.7,1.7C30,25.1,30.7,25.8,31.7,25.8z"/>
	</g>
</g>
</svg>
