<?xml version="1.0" encoding="utf-8"?>
<!-- Generator: Adobe Illustrator 16.0.0, SVG Export Plug-In . SVG Version: 6.00 Build 0)  -->
<!DOCTYPE svg PUBLIC "-//W3C//DTD SVG 1.1//EN" "http://www.w3.org/Graphics/SVG/1.1/DTD/svg11.dtd">
<svg version="1.1" id="Layer_1" xmlns="http://www.w3.org/2000/svg" xmlns:xlink="http://www.w3.org/1999/xlink" x="0px" y="0px"
	 width="1000px" height="1000px" viewBox="0 0 1000 1000" enable-background="new 0 0 1000 1000" xml:space="preserve">
<g id="entrance">
	<g>
		<path fill="#D01C1F" d="M860,1000H140C62.222,1000,0,937.777,0,860V140C0,62.222,62.222,0,140,0h722.223
			C937.777,0,1000,62.222,1000,140v722.223C1000,937.777,937.777,1000,860,1000z"/>
	</g>
	<g>
		<path fill="#EDEDED" d="M686.667,200c-17.778,0-364.444,0-375.556,0s-8.889,15.556-8.889,22.222c0,153.333,0,304.445,0,457.778
			c0,15.556,8.889,42.223,20,46.667c88.889,22.222,175.555,46.666,264.444,68.889c24.444,8.889,31.11-13.333,31.11-22.223
			c0-151.11,0-302.222,0-453.333c0-15.556-6.666-22.222-20-26.667c-44.444-11.111-253.333-62.222-253.333-62.222h320
			c0,0,0,295.556,0,433.333c0,4.444,0,6.667,0,11.111c0,17.777,4.444,24.444,17.778,24.444c15.555,0,15.555-13.333,15.555-24.444
			c0-142.223,0-440,2.223-448.889C700,215.556,697.777,200,686.667,200z M548.889,468.889c15.556,0,28.889,13.334,28.889,28.889
			c0,15.556-13.333,28.89-28.889,28.89S520,513.333,520,497.777C520,482.223,533.333,468.889,548.889,468.889z"/>
	</g>
</g>
</svg>
