<?xml version="1.0" encoding="utf-8"?>
<!-- Generator: Adobe Illustrator 19.2.1, SVG Export Plug-In . SVG Version: 6.00 Build 0)  -->
<svg version="1.1" id="Layer_1" xmlns="http://www.w3.org/2000/svg" xmlns:xlink="http://www.w3.org/1999/xlink" x="0px" y="0px"
	 viewBox="0 0 45 45" enable-background="new 0 0 45 45" xml:space="preserve">
<g id="entrance">
	<g>
		<path d="M38.7,45L6.3,45C2.8,45,0,42.2,0,38.7L0,6.3C0,2.8,2.8,0,6.3,0l32.5,0C42.2,0,45,2.8,45,6.3l0,32.5
			C45,42.2,42.2,45,38.7,45z"/>
	</g>
	<g>
		<path fill="#EDEDED" d="M30.9,9C30.1,9,14.5,9,14,9c-0.5,0-0.4,0.7-0.4,1c0,6.9,0,13.7,0,20.6c0,0.7,0.4,1.9,0.9,2.1
			c4,1,7.9,2.1,11.9,3.1c1.1,0.4,1.4-0.6,1.4-1c0-6.8,0-13.6,0-20.4c0-0.7-0.3-1-0.9-1.2c-2-0.5-11.4-2.8-11.4-2.8h14.4
			c0,0,0,13.3,0,19.5c0,0.2,0,0.3,0,0.5c0,0.8,0.2,1.1,0.8,1.1c0.7,0,0.7-0.6,0.7-1.1c0-6.4,0-19.8,0.1-20.2C31.5,9.7,31.4,9,30.9,9
			z M24.7,21.1c0.7,0,1.3,0.6,1.3,1.3c0,0.7-0.6,1.3-1.3,1.3c-0.7,0-1.3-0.6-1.3-1.3C23.4,21.7,24,21.1,24.7,21.1z"/>
	</g>
</g>
</svg>
