<?xml version="1.0" encoding="utf-8"?>
<!-- Generator: Adobe Illustrator 19.2.1, SVG Export Plug-In . SVG Version: 6.00 Build 0)  -->
<svg version="1.1" id="Entrance_1_" xmlns="http://www.w3.org/2000/svg" xmlns:xlink="http://www.w3.org/1999/xlink" x="0px"
	 y="0px" viewBox="0 0 45 45" enable-background="new 0 0 45 45" xml:space="preserve">
<g id="Entrance">
	<path d="M20.1,34.1c0-0.2,0-0.3,0-0.5c0-8.9,0-17.9,0-26.8c0-0.3,0-0.6,0.1-0.9c0.3-0.8,1.1-1.3,2-1.1c0.8,0.1,1.4,0.8,1.5,1.6
		c0,0.2,0,0.4,0,0.5c0,8.9,0,17.8,0,26.7c0,0.2,0,0.3,0,0.6c0.2-0.2,0.3-0.3,0.4-0.4c3-3,6-6,9-9c0.5-0.5,1.2-0.8,1.9-0.6
		c1.2,0.4,1.7,1.8,0.9,2.8c-0.1,0.1-0.2,0.2-0.3,0.4c-4.1,4.1-8.1,8.1-12.2,12.2c-1,1-2,1-2.9,0c-4.1-4.1-8.2-8.2-12.2-12.2
		c-0.6-0.6-0.8-1.2-0.6-2c0.4-1.2,1.8-1.6,2.8-0.9c0.1,0.1,0.3,0.2,0.4,0.4c3,3,6,6,8.9,8.9c0.1,0.1,0.1,0.3,0.2,0.4
		C20,34.2,20.1,34.1,20.1,34.1z"/>
	<g>
		<path fill="none" d="M38.7,45L6.3,45C2.8,45,0,42.2,0,38.7L0,6.3C0,2.8,2.8,0,6.3,0l32.5,0C42.2,0,45,2.8,45,6.3l0,32.5
			C45,42.2,42.2,45,38.7,45z"/>
	</g>
</g>
</svg>
