<?xml version="1.0" encoding="utf-8"?>
<!-- Generator: Adobe Illustrator 16.0.0, SVG Export Plug-In . SVG Version: 6.00 Build 0)  -->
<!DOCTYPE svg PUBLIC "-//W3C//DTD SVG 1.1//EN" "http://www.w3.org/Graphics/SVG/1.1/DTD/svg11.dtd">
<svg version="1.1" id="Escalator" xmlns="http://www.w3.org/2000/svg" xmlns:xlink="http://www.w3.org/1999/xlink" x="0px" y="0px"
	 width="1000px" height="1000px" viewBox="0 0 1000 1000" enable-background="new 0 0 1000 1000" xml:space="preserve">
<g id="Escalator_1_">
	<g>
		<path fill="#D01C1F" d="M873.333,1000H126.667C57.778,1000,0,942.223,0,873.333V126.667C0,57.778,57.778,0,126.667,0h746.667
			C942.223,0,1000,57.778,1000,126.667v746.667C1000,942.223,942.223,1000,873.333,1000z"/>
	</g>
	<g>
		<g>
			<path fill="#FFFFFF" d="M893.333,375.556c-8.889-46.667-48.889-77.778-100-80c-46.666-2.223-95.556-4.444-142.222,0
				c-22.223,2.222-46.667,13.333-64.444,28.889c-31.111,26.667-60,60-88.89,91.111c-2.222-2.222-4.444-2.222-6.666-4.445
				c0-4.444,0-8.889,0-13.333c0-42.222-22.223-66.667-57.778-66.667S377.777,357.778,375.556,400c0,17.778-2.223,35.556,0,51.111
				c11.111,60-8.889,108.889-60,142.222c-13.333,8.889-28.889,15.556-42.222,17.778c-26.667,2.222-53.333,0-77.778,2.222
				C140,617.777,100,660,102.222,713.333c2.222,55.556,42.222,95.556,97.778,95.556c46.667,0,93.333,0,137.777,0
				c31.111,0,55.556-11.111,77.778-33.333c77.777-80,160-157.778,237.777-240c31.111-31.111,60-46.667,104.444-42.223
				c24.445,2.223,51.111,0,75.556-6.666C877.777,468.889,902.223,420,893.333,375.556z M822.223,446.667
				c-13.334,4.444-28.89,6.666-44.445,6.666c-4.444,0-8.889,0-13.333,0c-6.667,0-11.111,0-17.777,0
				c-46.667,0-84.444,17.778-120,55.556C580,560,528.889,608.889,480,657.777c-28.889,28.89-60,60-91.111,91.111
				c-15.556,15.556-26.666,20-44.444,20h-2.222c-15.556,0-31.111,0-48.889,0c-8.889,0-17.778,0-26.667,0c-8.889,0-17.777,0-26.667,0
				c-13.333,0-24.444,0-33.333,0c-33.333,0-57.778-24.444-57.778-57.777c0-33.334,22.222-57.778,57.778-60c4.444,0,8.889,0,15.555,0
				c4.445,0,11.111,0,15.556,0c6.667,0,11.111,0,17.778,0c11.111,0,22.222,0,31.111-2.223c20-2.222,42.222-11.111,60-24.444
				c31.11-24.444,91.11-91.111,148.889-157.777c8.889-8.89,17.777-20,22.222-24.444c8.89-6.667,22.223-17.778,44.445-40
				C580,386.667,600,366.667,613.333,355.556c11.111-11.111,28.89-17.778,42.223-20c17.777-2.222,37.777-2.222,60-2.222
				c20,0,42.222,0,62.222,2.222h13.334c33.333,0,57.777,20,62.222,46.667C860,411.111,846.667,437.777,822.223,446.667z"/>
		</g>
		<g>
			<path fill="#FFFFFF" d="M493.333,248.889c0,31.111-24.444,57.778-55.556,57.778C406.667,306.667,380,280,380,248.889
				c0-31.111,26.667-55.555,57.777-55.555C471.111,193.333,493.333,217.778,493.333,248.889z"/>
		</g>
	</g>
</g>
</svg>
