<?xml version="1.0" encoding="utf-8"?>
<!-- Generator: Adobe Illustrator 19.2.1, SVG Export Plug-In . SVG Version: 6.00 Build 0)  -->
<svg version="1.1" id="Escalator" xmlns="http://www.w3.org/2000/svg" xmlns:xlink="http://www.w3.org/1999/xlink" x="0px" y="0px"
	 viewBox="0 0 45 45" enable-background="new 0 0 45 45" xml:space="preserve">
<g id="Escalator_1_">
	<g>
		<path d="M39.3,45L5.7,45C2.6,45,0,42.4,0,39.3L0,5.7C0,2.6,2.6,0,5.7,0l33.6,0C42.4,0,45,2.6,45,5.7l0,33.6
			C45,42.4,42.4,45,39.3,45z"/>
	</g>
	<g>
		<g>
			<path fill="#FFFFFF" d="M40.2,16.9c-0.4-2.1-2.2-3.5-4.5-3.6c-2.1-0.1-4.3-0.2-6.4,0c-1,0.1-2.1,0.6-2.9,1.3
				c-1.4,1.2-2.7,2.7-4,4.1c-0.1-0.1-0.2-0.1-0.3-0.2c0-0.2,0-0.4,0-0.6c0-1.9-1-3-2.6-3c-1.6,0-2.5,1.2-2.6,3.1
				c0,0.8-0.1,1.6,0,2.3c0.5,2.7-0.4,4.9-2.7,6.4c-0.6,0.4-1.3,0.7-1.9,0.8c-1.2,0.1-2.4,0-3.5,0.1c-2.5,0.2-4.3,2.1-4.2,4.5
				c0.1,2.5,1.9,4.3,4.4,4.3c2.1,0,4.2,0,6.2,0c1.4,0,2.5-0.5,3.5-1.5c3.5-3.6,7.2-7.1,10.7-10.8c1.4-1.4,2.7-2.1,4.7-1.9
				c1.1,0.1,2.3,0,3.4-0.3C39.5,21.1,40.6,18.9,40.2,16.9z M37,20.1c-0.6,0.2-1.3,0.3-2,0.3c-0.2,0-0.4,0-0.6,0c-0.3,0-0.5,0-0.8,0
				c-2.1,0-3.8,0.8-5.4,2.5c-2.1,2.3-4.4,4.5-6.6,6.7c-1.3,1.3-2.7,2.7-4.1,4.1c-0.7,0.7-1.2,0.9-2,0.9c0,0-0.1,0-0.1,0
				c-0.7,0-1.4,0-2.2,0c-0.4,0-0.8,0-1.2,0c-0.4,0-0.8,0-1.2,0c-0.6,0-1.1,0-1.5,0c-1.5,0-2.6-1.1-2.6-2.6c0-1.5,1-2.6,2.6-2.7
				c0.2,0,0.4,0,0.7,0c0.2,0,0.5,0,0.7,0c0.3,0,0.5,0,0.8,0c0.5,0,1,0,1.4-0.1c0.9-0.1,1.9-0.5,2.7-1.1C17,27,19.7,24,22.3,21
				c0.4-0.4,0.8-0.9,1-1.1c0.4-0.3,1-0.8,2-1.8c0.8-0.7,1.7-1.6,2.3-2.1c0.5-0.5,1.3-0.8,1.9-0.9c0.8-0.1,1.7-0.1,2.7-0.1
				c0.9,0,1.9,0,2.8,0.1l0.6,0c1.5,0,2.6,0.9,2.8,2.1C38.7,18.5,38.1,19.7,37,20.1z"/>
		</g>
		<g>
			<path fill="#FFFFFF" d="M22.2,11.2c0,1.4-1.1,2.6-2.5,2.6c-1.4,0-2.6-1.2-2.6-2.6c0-1.4,1.2-2.5,2.6-2.5
				C21.2,8.7,22.2,9.8,22.2,11.2z"/>
		</g>
	</g>
</g>
</svg>
