<?xml version="1.0" encoding="utf-8"?>
<!-- Generator: Adobe Illustrator 16.0.0, SVG Export Plug-In . SVG Version: 6.00 Build 0)  -->
<!DOCTYPE svg PUBLIC "-//W3C//DTD SVG 1.1//EN" "http://www.w3.org/Graphics/SVG/1.1/DTD/svg11.dtd">
<svg version="1.1" id="Family_Parking" xmlns="http://www.w3.org/2000/svg" xmlns:xlink="http://www.w3.org/1999/xlink" x="0px"
	 y="0px" width="1000px" height="1000px" viewBox="0 0 1000 1000" enable-background="new 0 0 1000 1000" xml:space="preserve">
<g id="family_parking">
	<g>
		<path fill="#D01C1F" d="M873.333,1000H126.667C57.778,1000,0,942.223,0,873.333V126.667C0,57.778,57.778,0,126.667,0h746.667
			C942.223,0,1000,57.778,1000,126.667v746.667C1000,942.223,942.223,1000,873.333,1000z"/>
	</g>
	<g>
		<path fill="#FFFFFF" d="M388.889,900c-15.556,0-26.666,0-42.222,0c0-13.333,0-26.667,0-40c0-60,0-120,0-180
			c0-6.667-4.444-13.333-8.89-20c-2.222,6.667-6.666,13.333-6.666,20c0,64.444,0,128.889,0,193.333c0,28.89,0,28.89-26.667,26.667
			c-4.444,0-8.889,0-15.556-2.223c0-8.889,0-15.555,0-22.222c0-111.111,0-224.444,0-335.556c0-4.444,0-8.889,0-13.333
			c-2.222-6.667-4.444-11.111-6.667-17.778c-2.222,4.444-6.667,11.111-6.667,15.556c-2.222,26.667-4.444,55.556-4.444,82.223
			c0,15.556-4.445,22.222-20,24.444C200,640,200,640,200,695.556c0,60,0,120,0,180c0,24.444,0,24.444-26.667,20
			c-2.222-37.778-4.444-77.778-6.667-115.556c-2.222,0-6.667,0-8.889,0c-2.222,37.777-4.444,77.777-6.667,117.777
			c-8.889,0-17.778,0-26.667,0c0-77.777,0-153.333,0-228.889c-2.222,0-2.222,0-4.444-2.222
			c-8.889,24.444-17.778,51.11-26.667,77.777c-6.667-4.444-13.333-6.667-20-11.111c8.889-28.889,17.778-57.777,26.667-84.444
			c6.667-17.777,20-26.666,37.778-28.889c33.333-4.444,68.889-8.889,104.444-13.333c2.222-35.556,4.444-68.89,4.444-104.444
			c2.222-44.445,17.778-62.223,60-64.445c28.889-2.222,57.777,0,86.666,2.223c24.444,2.223,40,15.556,42.223,42.223
			c2.222,35.555,2.222,73.333,4.444,108.889c0,11.111,0,20,0,31.111c2.223,26.666,0,28.889-28.889,24.444
			c-2.223-35.556-2.223-73.334-4.444-108.89c0-4.444,0-11.11,0-15.555c-2.223-6.667-6.667-11.111-8.89-15.556
			c-2.222,4.444-6.666,11.11-6.666,15.556c0,17.777,0,35.555,0,53.333c0,97.777,0,197.777,0,295.556
			C388.889,882.223,388.889,888.889,388.889,900z"/>
		<path fill="#FFFFFF" d="M513.333,495.556c-6.666,22.222-15.556,44.444-22.222,66.667c-6.667,22.222-13.334,44.444-20,68.889
			c-8.889-2.223-17.778-4.444-26.667-8.889c2.223-8.89,4.444-15.556,4.444-24.445c11.111-40,22.223-80,33.334-120
			c6.666-22.222,17.777-35.555,40-37.777c31.11-2.223,64.444-2.223,95.555,2.223c8.89,0,22.223,8.889,24.445,17.777
			c17.777,51.111,33.333,102.223,48.889,157.777c-8.889,2.223-17.778,6.667-26.667,8.89c-11.111-33.334-22.222-66.667-33.333-100
			c-2.223-4.444-2.223-8.89-4.444-13.334c-4.444-6.666-8.89-11.11-13.334-17.777c0,6.667-4.444,15.556-2.222,22.222
			c15.556,51.111,31.111,104.445,48.889,155.556c4.444,11.111,6.667,22.223,11.111,35.556c-20,0-37.778,0-57.778,0
			c0,64.444,0,126.667,0,188.889c-13.333,0-24.444,0-37.777,0c0-62.222,0-124.444,0-184.444c-15.556-6.666-17.778,0-17.778,13.334
			c0,48.889,0,100,0,148.889c0,6.667,0,15.556,0,24.444c-13.333,0-24.444,0-35.555,0c0-62.223,0-124.444,0-186.667
			c-17.778,0-35.556,0-55.556,0c2.222-11.11,4.444-17.777,6.666-24.444c15.556-55.556,33.334-111.111,48.89-166.666
			c2.222-6.667,2.222-15.556,2.222-22.223C520,495.556,515.556,495.556,513.333,495.556z"/>
		<path fill="#FFFFFF" d="M700,617.777c8.889,0,17.777,2.223,24.444,2.223c2.223,22.223,2.223,42.223,6.667,62.223
			c6.666,35.555,24.444,57.777,57.777,66.666c31.111,6.667,60,0,80-26.667c20-28.889,24.444-62.222,8.889-95.555
			c-11.11-22.223-28.889-35.556-55.555-37.778c0,31.111,0,62.223,0,95.556c-24.445,0-44.445,0-68.89,0c0-8.889,0-17.777,0-28.889
			c11.111,0,24.444-2.223,37.778-2.223c0-31.111,0-62.222,0-93.333c46.666-11.111,91.111,8.889,111.111,48.889
			c24.444,44.444,15.555,106.667-20,144.444c-33.334,35.556-86.667,42.223-131.111,15.556
			C711.111,746.667,688.889,682.223,700,617.777z"/>
		<path fill="#FFFFFF" d="M748.889,788.889c31.111,0,53.334,24.444,53.334,55.556S777.777,900,748.889,900
			c-31.111,0-55.556-26.667-55.556-57.777C693.333,813.333,717.777,788.889,748.889,788.889z M746.667,813.333
			c-15.556,0-31.111,13.334-31.111,31.111c0,17.778,15.556,33.333,31.111,31.111c15.556,0,28.889-15.556,31.11-31.111
			C777.777,826.667,764.444,813.333,746.667,813.333z"/>
		<path fill="#FFFFFF" d="M928.889,844.444c0,31.111-24.444,55.556-55.556,55.556C844.444,900,820,873.333,820,844.444
			c0-31.111,24.444-55.556,55.556-55.556S931.111,813.333,928.889,844.444z M875.556,813.333c-15.556,0-31.111,13.334-31.111,31.111
			c0,17.778,13.333,33.333,31.111,33.333c15.556,0,31.111-13.333,31.111-31.11C906.667,826.667,893.333,813.333,875.556,813.333z"/>
		<path fill="#FFFFFF" d="M564.444,431.111c-22.222,0-40-17.778-40-40c0-20,20-40,40-40s37.778,17.777,37.778,37.777
			C604.444,413.333,586.667,431.111,564.444,431.111z"/>
		<path fill="#FFFFFF" d="M335.556,348.889c22.222,0,40,17.778,40,40c0,20-17.778,37.778-37.778,40c-22.222,0-40-15.555-40-37.777
			C297.777,366.667,315.556,348.889,335.556,348.889z"/>
		<path fill="#FFFFFF" d="M188.889,580c0,15.556-11.111,28.889-28.889,28.889c-15.556,0-28.889-13.333-28.889-28.889
			s13.333-31.111,28.889-31.111S188.889,564.444,188.889,580z"/>
	</g>
	<path fill="#FFFFFF" d="M886.667,82.222c-46.667-4.444-93.334,0-140,0c0,82.222,0,166.667,0,251.111c17.777,0,33.333,0,51.11,0
		c0-31.111,0-62.222,0-95.556c24.445,0,46.667,0,68.89,0c42.222-2.222,71.11-28.889,73.333-66.667
		C944.444,122.222,926.667,86.667,886.667,82.222z M864.444,188.889c-20,4.445-42.222,4.445-66.667,4.445
		c0-26.667,0-48.889,0-71.111c22.223,0,42.223-2.222,64.445,0c17.777,2.222,26.666,15.556,26.666,33.333
		C888.889,171.111,882.223,186.667,864.444,188.889z"/>
</g>
</svg>
