<?xml version="1.0" encoding="utf-8"?>
<!-- Generator: Adobe Illustrator 19.2.1, SVG Export Plug-In . SVG Version: 6.00 Build 0)  -->
<svg version="1.1" id="Family_Parking" xmlns="http://www.w3.org/2000/svg" xmlns:xlink="http://www.w3.org/1999/xlink" x="0px"
	 y="0px" viewBox="0 0 45 45" enable-background="new 0 0 45 45" xml:space="preserve">
<g id="family_parking">
	<g>
		<path d="M39.3,45L5.7,45C2.6,45,0,42.4,0,39.3L0,5.7C0,2.6,2.6,0,5.7,0l33.6,0C42.4,0,45,2.6,45,5.7l0,33.6
			C45,42.4,42.4,45,39.3,45z"/>
	</g>
	<g>
		<path fill="#FFFFFF" d="M17.5,40.5c-0.7,0-1.2,0-1.9,0c0-0.6,0-1.2,0-1.8c0-2.7,0-5.4,0-8.1c0-0.3-0.2-0.6-0.4-0.9
			c-0.1,0.3-0.3,0.6-0.3,0.9c0,2.9,0,5.8,0,8.7c0,1.3,0,1.3-1.2,1.2c-0.2,0-0.4,0-0.7-0.1c0-0.4,0-0.7,0-1c0-5,0-10.1,0-15.1
			c0-0.2,0-0.4,0-0.6c-0.1-0.3-0.2-0.5-0.3-0.8c-0.1,0.2-0.3,0.5-0.3,0.7c-0.1,1.2-0.2,2.5-0.2,3.7c0,0.7-0.2,1-0.9,1.1
			c-2.3,0.4-2.3,0.4-2.3,2.9c0,2.7,0,5.4,0,8.1c0,1.1,0,1.1-1.2,0.9c-0.1-1.7-0.2-3.5-0.3-5.2c-0.1,0-0.3,0-0.4,0
			c-0.1,1.7-0.2,3.5-0.3,5.3c-0.4,0-0.8,0-1.2,0c0-3.5,0-6.9,0-10.3c-0.1,0-0.1,0-0.2-0.1c-0.4,1.1-0.8,2.3-1.2,3.5
			c-0.3-0.2-0.6-0.3-0.9-0.5c0.4-1.3,0.8-2.6,1.2-3.8c0.3-0.8,0.9-1.2,1.7-1.3c1.5-0.2,3.1-0.4,4.7-0.6c0.1-1.6,0.2-3.1,0.2-4.7
			c0.1-2,0.8-2.8,2.7-2.9c1.3-0.1,2.6,0,3.9,0.1c1.1,0.1,1.8,0.7,1.9,1.9c0.1,1.6,0.1,3.3,0.2,4.9c0,0.5,0,0.9,0,1.4
			c0.1,1.2,0,1.3-1.3,1.1c-0.1-1.6-0.1-3.3-0.2-4.9c0-0.2,0-0.5,0-0.7c-0.1-0.3-0.3-0.5-0.4-0.7c-0.1,0.2-0.3,0.5-0.3,0.7
			c0,0.8,0,1.6,0,2.4c0,4.4,0,8.9,0,13.3C17.5,39.7,17.5,40,17.5,40.5z"/>
		<path fill="#FFFFFF" d="M23.1,22.3c-0.3,1-0.7,2-1,3c-0.3,1-0.6,2-0.9,3.1c-0.4-0.1-0.8-0.2-1.2-0.4c0.1-0.4,0.2-0.7,0.2-1.1
			c0.5-1.8,1-3.6,1.5-5.4c0.3-1,0.8-1.6,1.8-1.7c1.4-0.1,2.9-0.1,4.3,0.1c0.4,0,1,0.4,1.1,0.8c0.8,2.3,1.5,4.6,2.2,7.1
			c-0.4,0.1-0.8,0.3-1.2,0.4c-0.5-1.5-1-3-1.5-4.5c-0.1-0.2-0.1-0.4-0.2-0.6c-0.2-0.3-0.4-0.5-0.6-0.8c0,0.3-0.2,0.7-0.1,1
			c0.7,2.3,1.4,4.7,2.2,7c0.2,0.5,0.3,1,0.5,1.6c-0.9,0-1.7,0-2.6,0c0,2.9,0,5.7,0,8.5c-0.6,0-1.1,0-1.7,0c0-2.8,0-5.6,0-8.3
			c-0.7-0.3-0.8,0-0.8,0.6c0,2.2,0,4.5,0,6.7c0,0.3,0,0.7,0,1.1c-0.6,0-1.1,0-1.6,0c0-2.8,0-5.6,0-8.4c-0.8,0-1.6,0-2.5,0
			c0.1-0.5,0.2-0.8,0.3-1.1c0.7-2.5,1.5-5,2.2-7.5c0.1-0.3,0.1-0.7,0.1-1C23.4,22.3,23.2,22.3,23.1,22.3z"/>
		<path fill="#FFFFFF" d="M31.5,27.8c0.4,0,0.8,0.1,1.1,0.1c0.1,1,0.1,1.9,0.3,2.8c0.3,1.6,1.1,2.6,2.6,3c1.4,0.3,2.7,0,3.6-1.2
			c0.9-1.3,1.1-2.8,0.4-4.3c-0.5-1-1.3-1.6-2.5-1.7c0,1.4,0,2.8,0,4.3c-1.1,0-2,0-3.1,0c0-0.4,0-0.8,0-1.3c0.5,0,1.1-0.1,1.7-0.1
			c0-1.4,0-2.8,0-4.2c2.1-0.5,4.1,0.4,5,2.2c1.1,2,0.7,4.8-0.9,6.5c-1.5,1.6-3.9,1.9-5.9,0.7C32,33.6,31,30.7,31.5,27.8z"/>
		<path fill="#FFFFFF" d="M33.7,35.5c1.4,0,2.4,1.1,2.4,2.5c0,1.4-1.1,2.5-2.4,2.5c-1.4,0-2.5-1.2-2.5-2.6
			C31.2,36.6,32.3,35.5,33.7,35.5z M33.6,36.6c-0.7,0-1.4,0.6-1.4,1.4c0,0.8,0.7,1.5,1.4,1.4c0.7,0,1.3-0.7,1.4-1.4
			C35,37.2,34.4,36.6,33.6,36.6z"/>
		<path fill="#FFFFFF" d="M41.8,38c0,1.4-1.1,2.5-2.5,2.5c-1.3,0-2.4-1.2-2.4-2.5c0-1.4,1.1-2.5,2.5-2.5
			C40.8,35.5,41.9,36.6,41.8,38z M39.4,36.6c-0.7,0-1.4,0.6-1.4,1.4c0,0.8,0.6,1.5,1.4,1.5c0.7,0,1.4-0.6,1.4-1.4
			C40.8,37.2,40.2,36.6,39.4,36.6z"/>
		<path fill="#FFFFFF" d="M25.4,19.4c-1,0-1.8-0.8-1.8-1.8c0-0.9,0.9-1.8,1.8-1.8c0.9,0,1.7,0.8,1.7,1.7
			C27.2,18.6,26.4,19.4,25.4,19.4z"/>
		<path fill="#FFFFFF" d="M15.1,15.7c1,0,1.8,0.8,1.8,1.8c0,0.9-0.8,1.7-1.7,1.8c-1,0-1.8-0.7-1.8-1.7
			C13.4,16.5,14.2,15.7,15.1,15.7z"/>
		<path fill="#FFFFFF" d="M8.5,26.1c0,0.7-0.5,1.3-1.3,1.3c-0.7,0-1.3-0.6-1.3-1.3c0-0.7,0.6-1.4,1.3-1.4
			C7.9,24.7,8.5,25.4,8.5,26.1z"/>
	</g>
	<path fill="#FFFFFF" d="M39.9,3.7c-2.1-0.2-4.2,0-6.3,0c0,3.7,0,7.5,0,11.3c0.8,0,1.5,0,2.3,0c0-1.4,0-2.8,0-4.3c1.1,0,2.1,0,3.1,0
		c1.9-0.1,3.2-1.3,3.3-3C42.5,5.5,41.7,3.9,39.9,3.7z M38.9,8.5c-0.9,0.2-1.9,0.2-3,0.2c0-1.2,0-2.2,0-3.2c1,0,1.9-0.1,2.9,0
		C39.6,5.6,40,6.2,40,7C40,7.7,39.7,8.4,38.9,8.5z"/>
</g>
</svg>
