<?xml version="1.0" encoding="utf-8"?>
<!-- Generator: Adobe Illustrator 16.0.0, SVG Export Plug-In . SVG Version: 6.00 Build 0)  -->
<!DOCTYPE svg PUBLIC "-//W3C//DTD SVG 1.1//EN" "http://www.w3.org/Graphics/SVG/1.1/DTD/svg11.dtd">
<svg version="1.1" id="Family_Room" xmlns="http://www.w3.org/2000/svg" xmlns:xlink="http://www.w3.org/1999/xlink" x="0px"
	 y="0px" width="1000px" height="1000px" viewBox="0 0 1000 1000" enable-background="new 0 0 1000 1000" xml:space="preserve">
<g id="Family_Room_1_">
	<g>
		<path fill="#D01C1F" d="M873.333,1000H126.667C57.778,1000,0,942.223,0,873.333V126.667C0,57.778,57.778,0,126.667,0h746.667
			C942.223,0,1000,57.778,1000,126.667v746.667C1000,942.223,942.223,1000,873.333,1000z"/>
	</g>
	<path fill="#FFFFFF" d="M682.223,688.889c0,15.556,0,28.889,0,44.444c0,11.111-4.445,20-13.334,26.667
		c-11.111,6.667-20,11.111-31.111,13.333c-24.444,8.89-51.11,11.111-77.777,13.334c-33.333,2.222-66.667,2.222-100,2.222
		c-33.333-2.222-68.889-6.667-102.223-17.777c-8.889-4.444-20-8.89-28.889-13.334s-11.111-13.333-11.111-22.222
		c0-26.667,0-51.111,0-77.778c0-42.222,17.778-75.555,51.111-102.222c17.778-13.333,35.556-22.223,55.556-26.667
		c4.444,0,6.667,0,8.889,2.223c20,13.333,40,26.666,57.778,40c2.222,2.222,6.666,2.222,8.889,0c20-13.334,42.223-26.667,62.223-40
		c2.222-2.223,6.666-2.223,8.889-2.223c42.222,11.111,75.556,33.334,95.556,73.333c8.889,15.556,11.11,33.334,11.11,51.111
		C682.223,664.444,682.223,677.777,682.223,688.889L682.223,688.889z M520,735.556c2.223-2.223,6.667-4.444,8.889-4.444
		c4.444-2.223,8.889-6.667,15.556-11.111s13.333-8.889,17.778-15.556c4.444-4.444,4.444-8.889,0-15.556
		c-2.223-4.444-4.445-11.111-13.334-8.889c-2.222-6.667-2.222-6.667-6.666-2.223c-2.223,2.223-6.667,6.667-8.89,11.111
		c-2.222,4.444-4.444,6.667-8.889,8.889c-2.222,0-6.667,2.223-8.889,4.444c-6.667,2.223-13.333,6.667-20,2.223
		s-11.111-8.889-15.556-13.333c4.444-2.223,8.889-4.444,11.111-6.667c8.889-6.667,13.333-17.777,8.889-28.889
		s-6.667-24.444-11.111-35.556c-8.889-22.223-26.666-31.111-51.111-31.111c-26.666,0-46.666,13.334-53.333,35.556
		c-4.444,13.333-4.444,24.444-2.222,37.778c2.222,20,13.333,31.11,31.11,37.777c2.223,0,4.444,2.223,8.89,2.223
		c-4.445,8.889-6.667,17.777-11.111,26.666C455.556,746.667,500,760,544.444,771.111c0,0,0-2.223,2.223-2.223
		C537.777,753.333,528.889,744.444,520,735.556z"/>
	<path fill="#FFFFFF" d="M502.223,524.444c-20,0-40-6.667-55.556-20c-4.444-2.222-8.89-4.444-13.334-4.444
		c-22.222,0-46.666-4.444-66.666-15.556c-20-8.889-31.111-24.444-37.778-44.444c-2.222-6.667-2.222-8.889,4.444-11.111
		c11.111-4.444,17.778-11.111,20-22.222c4.444-22.222,8.89-44.444,15.556-66.667c6.667-24.444,11.111-48.889,24.444-71.111
		c17.778-28.889,40-48.889,73.334-57.777c11.11-2.223,22.222-4.445,33.333,2.222c2.223,0,2.223,0,4.444,0
		c13.333-6.667,28.889-4.445,42.223,0c35.556,13.333,60,40,75.556,75.555c11.11,26.667,15.555,55.556,22.222,84.445
		c2.223,11.111,4.444,24.444,8.889,35.555c2.223,11.111,8.89,17.778,20,20c6.667,2.223,8.89,4.444,4.444,13.334
		c-8.889,20-22.222,35.555-42.222,44.444c-20,8.889-42.223,11.11-64.444,13.333c-2.223,0-6.667,2.223-8.889,2.223
		C542.223,517.777,522.223,524.444,502.223,524.444z M544.444,313.333C542.223,313.333,542.223,313.333,544.444,313.333
		c-2.222,2.222-2.222,2.222-4.444,4.444c-13.333,15.556-26.667,26.667-42.223,37.778c-26.666,15.556-55.555,20-86.666,8.889
		c-2.223,0-4.444,0-6.667,0C391.111,366.667,380,380,380,393.333C380,406.667,391.111,420,406.667,420
		c4.444,0,6.666,2.223,6.666,6.667c6.667,22.222,15.556,42.222,33.334,57.777c33.333,33.333,77.777,33.333,108.889,0
		c15.556-15.556,26.667-35.556,31.111-57.777c0-4.444,2.222-6.667,6.666-6.667c13.334-2.222,22.223-13.333,22.223-26.667
		c0-13.333-8.889-24.444-20-26.667c-17.778-4.444-31.111-15.555-42.223-28.889C551.111,328.889,546.667,322.222,544.444,313.333z"/>
</g>
</svg>
