<?xml version="1.0" encoding="utf-8"?>
<!-- Generator: Adobe Illustrator 19.2.1, SVG Export Plug-In . SVG Version: 6.00 Build 0)  -->
<svg version="1.1" id="First_Aid" xmlns="http://www.w3.org/2000/svg" xmlns:xlink="http://www.w3.org/1999/xlink" x="0px" y="0px"
	 viewBox="0 0 45 45" enable-background="new 0 0 45 45" xml:space="preserve">
<g id="First_Aid_1_">
	<g>
		<path d="M39.3,45L5.7,45C2.6,45,0,42.4,0,39.3L0,5.7C0,2.6,2.6,0,5.7,0l33.6,0C42.4,0,45,2.6,45,5.7l0,33.6
			C45,42.4,42.4,45,39.3,45z"/>
	</g>
	<g>
		<path fill="#FFFFFF" d="M33.4,18.4h-6.8v-6.8c0-0.1-0.1-0.3-0.3-0.3h-7.7c-0.1,0-0.3,0.1-0.3,0.3v6.8h-6.8c-0.1,0-0.3,0.1-0.3,0.3
			v7.7c0,0.1,0.1,0.3,0.3,0.3h6.8v6.8c0,0.1,0.1,0.3,0.3,0.3h7.7c0.1,0,0.3-0.1,0.3-0.3v-6.8h6.8c0.1,0,0.3-0.1,0.3-0.3v-7.7
			C33.7,18.5,33.6,18.4,33.4,18.4z"/>
	</g>
</g>
</svg>
