<?xml version="1.0" encoding="utf-8"?>
<!-- Generator: Adobe Illustrator 16.0.0, SVG Export Plug-In . SVG Version: 6.00 Build 0)  -->
<!DOCTYPE svg PUBLIC "-//W3C//DTD SVG 1.1//EN" "http://www.w3.org/Graphics/SVG/1.1/DTD/svg11.dtd">
<svg version="1.1" id="First_Aid" xmlns="http://www.w3.org/2000/svg" xmlns:xlink="http://www.w3.org/1999/xlink" x="0px" y="0px"
	 width="1000px" height="1000px" viewBox="0 0 1000 1000" enable-background="new 0 0 1000 1000" xml:space="preserve">
<g id="First_Aid_1_">
	<g>
		<path fill="#D01C1F" d="M873.333,1000H126.667C57.778,1000,0,942.223,0,873.333V126.667C0,57.778,57.778,0,126.667,0h746.667
			C942.223,0,1000,57.778,1000,126.667v746.667C1000,942.223,942.223,1000,873.333,1000z"/>
	</g>
	<g>
		<path fill="#FFFFFF" d="M742.223,408.889H591.111V257.778c0-2.222-2.223-6.667-6.667-6.667H413.333
			c-2.222,0-6.666,2.222-6.666,6.667v151.111H255.556c-2.222,0-6.667,2.223-6.667,6.667v171.111c0,2.222,2.222,6.666,6.667,6.666
			h151.111v151.111c0,2.222,2.222,6.667,6.666,6.667h171.111c2.223,0,6.667-2.223,6.667-6.667V593.333h151.111
			c2.222,0,6.666-2.222,6.666-6.666V415.556C748.889,411.111,746.667,408.889,742.223,408.889z"/>
	</g>
</g>
</svg>
