<?xml version="1.0" encoding="utf-8"?>
<!-- Generator: Adobe Illustrator 19.2.1, SVG Export Plug-In . SVG Version: 6.00 Build 0)  -->
<svg version="1.1" id="Handicapped_Lift" xmlns="http://www.w3.org/2000/svg" xmlns:xlink="http://www.w3.org/1999/xlink" x="0px"
	 y="0px" viewBox="0 0 45 45" enable-background="new 0 0 45 45" xml:space="preserve">
<g id="Handicapped_Lift_1_">
	<g>
		<path d="M39.3,45L5.7,45C2.6,45,0,42.4,0,39.3L0,5.7C0,2.6,2.6,0,5.7,0l33.6,0C42.4,0,45,2.6,45,5.7l0,33.6
			C45,42.4,42.4,45,39.3,45z"/>
	</g>
	<g>
		<g>
			<path fill="#FFFFFF" d="M34.8,28.6c0,3.4,0,6.8,0,10.2c0,1.7-0.4,2.2-2.1,2.2c-6.9,0-13.8,0-20.7,0c-1.3,0-1.9-0.5-1.9-1.8
				c0-6.9,0-13.9,0-20.8c0-1.4,0.6-1.9,2-1.9c6.9,0,13.8,0,20.7,0c1.5,0,2,0.5,2,2C34.8,21.7,34.8,25.1,34.8,28.6z M12.4,38.7
				c6.8,0,13.5,0,20.2,0c0-6.8,0-13.5,0-20.2c-6.8,0-13.5,0-20.2,0C12.4,25.3,12.4,31.9,12.4,38.7z"/>
		</g>
		<g>
			<path fill="#FFFFFF" d="M31.6,7.8c0.8,2,0.4,3.3-1,4.3c-0.8,0.6-1.5,1.5-2.4,2.5c-1.2-1.3-2.5-2.4-3.4-3.7
				c-0.5-0.7-0.3-1.8-0.2-2.8c0.7,0.9,1.4,1.8,2.1,2.7c0.2-0.1,0.3-0.2,0.5-0.3c0-1.9,0-3.8,0-5.8c0.7,0,1.3,0,2,0
				c0,1.9,0,3.8,0,5.8c0.1,0,0.2,0.1,0.2,0.1C30.2,9.6,30.9,8.7,31.6,7.8z"/>
		</g>
		<g>
			<path fill="#FFFFFF" d="M20.1,10.7c-0.7-0.8-1.4-1.6-2.4-2.7c0,2.2,0,4.2,0,6.1c-0.7,0-1.3,0-2,0c0-1.9,0-3.9,0-6
				c-0.9,1-1.7,1.8-2.4,2.6c-0.4-1.5-0.6-2.9,0.7-3.9c0.9-0.7,1.7-1.7,2.7-2.7c1.2,1.3,2.5,2.3,3.3,3.6c0.5,0.7,0.4,1.9,0.5,2.8
				C20.4,10.6,20.2,10.7,20.1,10.7z"/>
		</g>
	</g>
	<g>
		<g>
			<path fill="#FFFFFF" d="M25.5,31.3c-1.2,0-2.4,0-3.6,0c-1,0-1.4-0.4-1.6-1.3c-0.3-1.4-0.5-2.9-0.8-4.3c-0.1-0.8,0.4-1.5,1.1-1.7
				c0.7-0.1,1.4,0.4,1.6,1.2c0.1,0.5,0.2,1.1,0.3,1.6c0.9,0,1.7,0,2.6,0c0.4,0,0.8,0.1,0.8,0.6c0,0.5-0.4,0.6-0.8,0.6
				c-0.8,0-1.5,0-2.3,0c0,0.3,0,0.5,0.1,0.9c0.9,0,1.7,0,2.6,0c1.1,0,1.4,0.3,1.6,1.4c0.3,1.5,0.5,2.9,0.8,4.5c0.3,0,0.6-0.1,0.8,0
				c0.3,0.1,0.6,0.3,0.7,0.5c0,0.2-0.2,0.6-0.4,0.7c-0.6,0.2-1.2,0.3-1.8,0.3c-0.5,0-0.7-0.3-0.8-0.8c-0.2-1.1-0.4-2.3-0.6-3.4
				C25.7,31.7,25.6,31.5,25.5,31.3z"/>
		</g>
		<g>
			<path fill="#FFFFFF" d="M19.2,27.3c0.3,0.7,0.2,1.1-0.4,1.7c-1.2,1.1-1.5,2.5-1,4.1c0.6,1.6,1.8,2.6,3.5,2.7
				c1.6,0.1,2.8-0.6,3.6-1.9c0.1-0.2,0.2-0.4,0.4-0.7c0.1,0.6,0.2,1,0.3,1.5c0,0.2-0.1,0.4-0.2,0.5c-1.1,1.5-3.4,2.2-5.3,1.6
				c-2.1-0.6-3.5-2.4-3.7-4.5C16.3,30.2,17.5,28.2,19.2,27.3z"/>
		</g>
		<g>
			<path fill="#FFFFFF" d="M19.1,21.9c0-0.9,0.7-1.6,1.6-1.6c1,0,1.7,0.7,1.7,1.6c0,0.9-0.8,1.6-1.6,1.6
				C19.9,23.6,19.1,22.8,19.1,21.9z"/>
		</g>
	</g>
</g>
</svg>
