<?xml version="1.0" encoding="utf-8"?>
<!-- Generator: Adobe Illustrator 19.2.1, SVG Export Plug-In . SVG Version: 6.00 Build 0)  -->
<svg version="1.1" id="Handicapped_Parking_1_" xmlns="http://www.w3.org/2000/svg" xmlns:xlink="http://www.w3.org/1999/xlink"
	 x="0px" y="0px" viewBox="0 0 45 45" enable-background="new 0 0 45 45" xml:space="preserve">
<g id="Handicapped_Parking">
	<g>
		<path d="M39.3,45L5.7,45C2.6,45,0,42.4,0,39.3L0,5.7C0,2.6,2.6,0,5.7,0l33.6,0C42.4,0,45,2.6,45,5.7l0,33.6
			C45,42.4,42.4,45,39.3,45z"/>
	</g>
	<path fill="#FFFFFF" d="M20.8,7.5C15.8,7,10.7,7.4,5.6,7.4c0,9,0,18.2,0,27.4c1.9,0,3.6,0,5.5,0c0-3.5,0-6.8,0-10.5
		c2.7,0,5.1,0.1,7.5,0c4.6-0.3,7.7-3.1,8.1-7.4C27.2,11.9,25.1,8,20.8,7.5z M18.3,19.2c-2.3,0.4-4.6,0.4-7.1,0.5c0-2.9,0-5.3,0-7.8
		c2.4,0,4.7-0.2,7,0.1c1.8,0.2,2.8,1.6,2.9,3.4C21.1,17.3,20.3,18.9,18.3,19.2z"/>
	<g>
		<g>
			<path fill="#FFFFFF" d="M37.2,30.7c-1.2,0-2.4,0-3.6,0c-1,0-1.4-0.4-1.6-1.3c-0.3-1.4-0.5-2.9-0.8-4.3c-0.1-0.8,0.4-1.5,1.1-1.7
				c0.7-0.1,1.4,0.4,1.6,1.2c0.1,0.5,0.2,1.1,0.3,1.6c0.9,0,1.7,0,2.6,0c0.4,0,0.8,0.1,0.8,0.6c0,0.5-0.4,0.6-0.8,0.6
				c-0.8,0-1.5,0-2.3,0c0,0.3,0,0.5,0.1,0.9c0.9,0,1.7,0,2.6,0c1.1,0,1.4,0.3,1.6,1.4c0.3,1.5,0.5,2.9,0.8,4.5c0.3,0,0.6-0.1,0.8,0
				c0.3,0.1,0.6,0.3,0.7,0.5c0,0.2-0.2,0.6-0.4,0.7c-0.6,0.2-1.2,0.3-1.8,0.3c-0.5,0-0.7-0.3-0.8-0.8c-0.2-1.1-0.4-2.3-0.6-3.4
				C37.4,31.2,37.3,31,37.2,30.7z"/>
		</g>
		<g>
			<path fill="#FFFFFF" d="M30.9,26.8c0.3,0.7,0.2,1.1-0.4,1.7c-1.2,1.1-1.5,2.5-1,4.1c0.6,1.6,1.8,2.6,3.5,2.7
				c1.6,0.1,2.8-0.6,3.6-1.9c0.1-0.2,0.2-0.4,0.4-0.7c0.1,0.6,0.2,1,0.3,1.5c0,0.2-0.1,0.4-0.2,0.5c-1.1,1.5-3.4,2.2-5.3,1.6
				c-2.1-0.6-3.5-2.4-3.7-4.5C28,29.6,29.2,27.6,30.9,26.8z"/>
		</g>
		<g>
			<path fill="#FFFFFF" d="M30.8,21.4c0-0.9,0.7-1.6,1.6-1.6c1,0,1.7,0.7,1.7,1.6c0,0.9-0.8,1.6-1.6,1.6
				C31.6,23,30.8,22.3,30.8,21.4z"/>
		</g>
	</g>
</g>
</svg>
