<?xml version="1.0" encoding="utf-8"?>
<!-- Generator: Adobe Illustrator 16.0.0, SVG Export Plug-In . SVG Version: 6.00 Build 0)  -->
<!DOCTYPE svg PUBLIC "-//W3C//DTD SVG 1.1//EN" "http://www.w3.org/Graphics/SVG/1.1/DTD/svg11.dtd">
<svg version="1.1" id="Isolation_Mode" xmlns="http://www.w3.org/2000/svg" xmlns:xlink="http://www.w3.org/1999/xlink" x="0px"
	 y="0px" width="1000px" height="1000px" viewBox="0 0 1000 1000" enable-background="new 0 0 1000 1000" xml:space="preserve">
<g id="Hands_Free_Shopping">
	<g>
		<path fill="#D01C1F" d="M873.333,1000H126.667C57.778,1000,0,942.223,0,873.333V126.667C0,57.778,57.778,0,126.667,0h746.667
			C942.223,0,1000,57.778,1000,126.667v746.667C1000,942.223,942.223,1000,873.333,1000z"/>
	</g>
	<g>
		<g>
			<circle fill="#FFFFFF" cx="253.333" cy="871.111" r="11.111"/>
			<circle fill="#FFFFFF" cx="380" cy="871.111" r="11.111"/>
			<path fill="#FFFFFF" d="M784.444,660v-42.223c0-13.333-6.667-26.666-17.777-35.556L762.223,580
				c-4.444-2.223-6.667-4.444-11.11-4.444v-28.889c13.333-4.444,11.11-20,11.11-26.667C751.111,462.223,737.777,404.444,720,346.667
				c-11.111-33.333-57.777-62.222-95.556-62.222c-20,0-46.667,42.222-46.667,42.222s-13.333-31.111-13.333-44.444
				c-2.223,0-6.667,0-8.89,0c-4.443,13.333-8.889,28.889-13.333,44.444c-42.223-48.889-53.334-53.333-106.667-24.444
				C384.444,328.889,320,408.889,293.333,460c-8.889,20-15.556,0-31.111,22.223c0,17.777,0,44.444,0,71.11h-17.778
				c-26.667,0-48.889,22.223-48.889,48.89v206.666c0,26.667,22.222,48.89,48.889,48.89h11.111h126.667l0,0
				c26.666,0,48.89-22.223,48.89-48.89V602.223c0-26.667-22.224-48.89-48.89-48.89h-8.89c0-22.222,0-44.444,0-66.666
				c0-6.667,2.223-20-11.11-20c-6.667,0-13.334,0-20-2.223c17.777-48.889,66.666-93.333,122.223-120c0,20,6.667,335.556,6.667,480
				c0,28.889,6.666,51.11,40,53.333c31.11,0,40-22.223,40-51.11c0-77.778,0-155.556,0-231.111c0-13.333,0-26.667,0-42.223
				c4.443,0,31.11,0,35.556,0c0,13.334,0,24.445,0,37.778c0,80,0,160,0,240c0,26.667,11.11,46.666,40,46.666
				c28.889,0,40-20,40-48.89c0-13.333,0-28.889,0-42.222c0-126.667-6.667-444.445-4.444-442.223
				c17.777,24.444,44.444,124.443,55.556,177.777c2.223,6.666,2.223,20,20,24.444v26.666c-20,4.444-35.556,22.223-35.556,42.223
				v117.777c0,2.223,0,4.444,0,4.444c0,4.444,0,8.89,0,13.334c-2.223,31.11,17.777,33.333,40,31.11
				c22.223,0,46.666,6.666,46.666-31.11c0-4.444,0-8.89,0-13.334c0-2.223,0-2.223,0-4.444v-35.556
				C786.667,686.667,786.667,673.333,784.444,660z M351.111,495.556c0,17.777,0,37.777,0,60H280c0-20,0-40,0-60
				C302.223,495.556,326.667,495.556,351.111,495.556z M557.777,457.777c-8.89,0-15.556-6.666-15.556-15.556
				s6.666-15.556,15.556-15.556s15.556,6.666,15.556,15.556S566.667,457.777,557.777,457.777z M557.777,388.889
				c-8.89,0-15.556-6.667-15.556-15.555c0-8.889,6.666-15.556,15.556-15.556s15.556,6.667,15.556,15.556
				C573.333,382.222,566.667,388.889,557.777,388.889z"/>
		</g>
		<path fill="#FFFFFF" d="M553.333,273.333L553.333,273.333c-33.333,0-60-26.667-60-60l0,0c0-33.333,26.667-46.667,60-46.667l0,0
			c33.334,0,60,13.333,60,46.667l0,0C615.556,246.667,586.667,273.333,553.333,273.333z"/>
		<path fill="#FFFFFF" d="M500,155.556c0,0,15.556-24.444,53.333-24.444c44.444,0,60,33.333,60,33.333l-11.11-71.111h-93.334
			L500,155.556z"/>
	</g>
</g>
</svg>
