<?xml version="1.0" encoding="utf-8"?>
<!-- Generator: Adobe Illustrator 19.2.1, SVG Export Plug-In . SVG Version: 6.00 Build 0)  -->
<svg version="1.1" id="Isolation_Mode" xmlns="http://www.w3.org/2000/svg" xmlns:xlink="http://www.w3.org/1999/xlink" x="0px"
	 y="0px" viewBox="0 0 45 45" style="enable-background:new 0 0 45 45;" xml:space="preserve">
<style type="text/css">
	.st0{fill:#FFFFFF;}
</style>
<g id="Hands_Free_Shopping">
	<g>
		<path d="M39.3,45L5.7,45C2.6,45,0,42.4,0,39.3L0,5.7C0,2.6,2.6,0,5.7,0l33.6,0C42.4,0,45,2.6,45,5.7l0,33.6
			C45,42.4,42.4,45,39.3,45z"/>
	</g>
	<g>
		<g>
			<circle class="st0" cx="11.4" cy="39.2" r="0.5"/>
			<circle class="st0" cx="17.1" cy="39.2" r="0.5"/>
			<path class="st0" d="M35.3,29.7v-1.9c0-0.6-0.3-1.2-0.8-1.6c0,0-0.2-0.1-0.2-0.1c-0.2-0.1-0.3-0.2-0.5-0.2v-1.3
				c0.6-0.2,0.5-0.9,0.5-1.2c-0.5-2.6-1.1-5.2-1.9-7.8c-0.5-1.5-2.6-2.8-4.3-2.8c-0.9,0-2.1,1.9-2.1,1.9s-0.6-1.4-0.6-2
				c-0.1,0-0.3,0-0.4,0c-0.2,0.6-0.4,1.3-0.6,2c-1.9-2.2-2.4-2.4-4.8-1.1c-2.3,1.2-5.2,4.8-6.4,7.1c-0.4,0.9-0.7,0-1.4,1
				c0,0.8,0,2,0,3.2h-0.8c-1.2,0-2.2,1-2.2,2.2v9.3c0,1.2,1,2.2,2.2,2.2h0.5h5.7h0c1.2,0,2.2-1,2.2-2.2v-9.3c0-1.2-1-2.2-2.2-2.2
				h-0.4c0-1,0-2,0-3c0-0.3,0.1-0.9-0.5-0.9c-0.3,0-0.6,0-0.9-0.1c0.8-2.2,3-4.2,5.5-5.4c0,0.9,0.3,15.1,0.3,21.6
				c0,1.3,0.3,2.3,1.8,2.4c1.4,0,1.8-1,1.8-2.3c0-3.5,0-7,0-10.4c0-0.6,0-1.2,0-1.9c0.2,0,1.4,0,1.6,0c0,0.6,0,1.1,0,1.7
				c0,3.6,0,7.2,0,10.8c0,1.2,0.5,2.1,1.8,2.1c1.3,0,1.8-0.9,1.8-2.2c0-0.6,0-1.3,0-1.9c0-5.7-0.3-20-0.2-19.9c0.8,1.1,2,5.6,2.5,8
				c0.1,0.3,0.1,0.9,0.9,1.1v1.2c-0.9,0.2-1.6,1-1.6,1.9v5.3c0,0.1,0,0.2,0,0.2c0,0.2,0,0.4,0,0.6c-0.1,1.4,0.8,1.5,1.8,1.4
				c1,0,2.1,0.3,2.1-1.4c0-0.2,0-0.4,0-0.6c0-0.1,0-0.1,0-0.2v-1.6C35.4,30.9,35.4,30.3,35.3,29.7z M15.8,22.3c0,0.8,0,1.7,0,2.7
				h-3.2c0-0.9,0-1.8,0-2.7C13.6,22.3,14.7,22.3,15.8,22.3z M25.1,20.6c-0.4,0-0.7-0.3-0.7-0.7c0-0.4,0.3-0.7,0.7-0.7
				c0.4,0,0.7,0.3,0.7,0.7C25.8,20.3,25.5,20.6,25.1,20.6z M25.1,17.5c-0.4,0-0.7-0.3-0.7-0.7c0-0.4,0.3-0.7,0.7-0.7
				c0.4,0,0.7,0.3,0.7,0.7C25.8,17.2,25.5,17.5,25.1,17.5z"/>
		</g>
		<path class="st0" d="M24.9,12.3L24.9,12.3c-1.5,0-2.7-1.2-2.7-2.7v0c0-1.5,1.2-2.1,2.7-2.1h0c1.5,0,2.7,0.6,2.7,2.1v0
			C27.7,11.1,26.4,12.3,24.9,12.3z"/>
		<path class="st0" d="M22.5,7c0,0,0.7-1.1,2.4-1.1c2,0,2.7,1.5,2.7,1.5l-0.5-3.2l-4.2,0L22.5,7z"/>
	</g>
</g>
</svg>
