<?xml version="1.0" encoding="utf-8"?>
<!-- Generator: Adobe Illustrator 19.2.1, SVG Export Plug-In . SVG Version: 6.00 Build 0)  -->
<svg version="1.1" id="Handicapped_Toilet" xmlns="http://www.w3.org/2000/svg" xmlns:xlink="http://www.w3.org/1999/xlink" x="0px"
	 y="0px" viewBox="0 0 45 45" enable-background="new 0 0 45 45" xml:space="preserve">
<g id="Handicapped_Toilet_1_">
	<g>
		<path d="M39.3,45L5.7,45C2.6,45,0,42.4,0,39.3L0,5.7C0,2.6,2.6,0,5.7,0l33.6,0C42.4,0,45,2.6,45,5.7l0,33.6
			C45,42.4,42.4,45,39.3,45z"/>
	</g>
	<g>
		<g>
			<path fill="#FFFFFF" d="M27,27.1c-2.1,0-4.2,0-6.3,0c-1.7,0-2.4-0.6-2.7-2.3c-0.5-2.5-0.9-5-1.3-7.4c-0.2-1.4,0.6-2.6,2-2.9
				c1.2-0.2,2.5,0.7,2.8,2c0.2,0.9,0.3,1.8,0.5,2.8c1.5,0,3,0,4.5,0c0.8,0,1.4,0.2,1.5,1.1c0,0.9-0.6,1.1-1.4,1.1c-1.3,0-2.6,0-4,0
				c0,0.5,0.1,0.9,0.1,1.5c1.5,0,3,0,4.4,0c1.8,0,2.5,0.6,2.8,2.4c0.4,2.5,0.9,5,1.3,7.7c0.5,0,1-0.2,1.4-0.1c0.4,0.1,1,0.5,1.1,0.8
				c0.1,0.3-0.4,1-0.7,1.1c-1,0.3-2.1,0.5-3.1,0.5c-0.9,0.1-1.3-0.6-1.4-1.4c-0.3-2-0.7-3.9-1-5.9C27.2,27.8,27.1,27.5,27,27.1z"/>
		</g>
		<g>
			<path fill="#FFFFFF" d="M16.2,20.3c0.5,1.1,0.4,1.9-0.6,2.9c-2.1,1.9-2.7,4.3-1.7,7c1,2.8,3.1,4.4,6,4.6c2.7,0.2,4.8-1,6.3-3.3
				c0.2-0.3,0.4-0.7,0.7-1.2c0.2,1,0.4,1.7,0.5,2.5c0,0.3-0.1,0.6-0.3,0.9c-1.9,2.6-5.9,3.8-9.2,2.8c-3.5-1-6.1-4.2-6.4-7.8
				C11.2,25.2,13.1,21.7,16.2,20.3z"/>
		</g>
		<g>
			<path fill="#FFFFFF" d="M16,11c0-1.6,1.2-2.8,2.7-2.8c1.6,0,2.9,1.2,2.9,2.8c0,1.5-1.3,2.8-2.8,2.8C17.3,13.8,16,12.6,16,11z"/>
		</g>
	</g>
</g>
</svg>
