<?xml version="1.0" encoding="utf-8"?>
<!-- Generator: Adobe Illustrator 16.0.0, SVG Export Plug-In . SVG Version: 6.00 Build 0)  -->
<!DOCTYPE svg PUBLIC "-//W3C//DTD SVG 1.1//EN" "http://www.w3.org/Graphics/SVG/1.1/DTD/svg11.dtd">
<svg version="1.1" id="Handicapped_Lift" xmlns="http://www.w3.org/2000/svg" xmlns:xlink="http://www.w3.org/1999/xlink" x="0px"
	 y="0px" width="1000px" height="1000px" viewBox="0 0 1000 1000" enable-background="new 0 0 1000 1000" xml:space="preserve">
<g id="Handicapped_Lift_1_">
	<g>
		<path fill="#D01C1F" d="M873.333,1000H126.667C57.778,1000,0,942.223,0,873.333V126.667C0,57.778,57.778,0,126.667,0h746.667
			C942.223,0,1000,57.778,1000,126.667v746.667C1000,942.223,942.223,1000,873.333,1000z"/>
	</g>
	<g>
		<g>
			<path fill="#FFFFFF" d="M773.333,635.556c0,75.556,0,151.111,0,226.667c0,37.777-8.889,48.889-46.666,48.889
				c-153.334,0-306.667,0-460,0c-28.889,0-42.222-11.111-42.222-40c0-153.334,0-308.889,0-462.223
				c0-31.111,13.333-42.222,44.444-42.222c153.334,0,306.667,0,460,0c33.334,0,44.444,11.111,44.444,44.445
				C773.333,482.223,773.333,557.777,773.333,635.556z M275.556,860c151.111,0,300,0,448.889,0c0-151.111,0-300,0-448.889
				c-151.111,0-300,0-448.889,0C275.556,562.223,275.556,708.889,275.556,860z"/>
		</g>
		<g>
			<path fill="#FFFFFF" d="M702.223,173.333C720,217.778,711.111,246.667,680,268.889c-17.777,13.333-33.333,33.333-53.333,55.556
				c-26.667-28.889-55.556-53.333-75.556-82.222c-11.111-15.556-6.667-40-4.444-62.222c15.556,20,31.11,40,46.666,60
				c4.444-2.222,6.667-4.444,11.111-6.667c0-42.222,0-84.445,0-128.889c15.556,0,28.889,0,44.444,0c0,42.222,0,84.444,0,128.889
				c2.223,0,4.444,2.222,4.444,2.222C671.111,213.333,686.667,193.333,702.223,173.333z"/>
		</g>
		<g>
			<path fill="#FFFFFF" d="M446.667,237.778c-15.556-17.778-31.111-35.556-53.334-60c0,48.889,0,93.333,0,135.556
				c-15.556,0-28.889,0-44.444,0c0-42.222,0-86.667,0-133.333c-20,22.222-37.777,40-53.333,57.778
				c-8.889-33.333-13.333-64.444,15.556-86.667c20-15.556,37.777-37.778,60-60c26.666,28.889,55.556,51.111,73.333,80
				c11.111,15.555,8.889,42.222,11.111,62.222C453.333,235.556,448.889,237.778,446.667,237.778z"/>
		</g>
	</g>
	<g>
		<g>
			<path fill="#FFFFFF" d="M566.667,695.556c-26.667,0-53.334,0-80,0c-22.223,0-31.111-8.889-35.556-28.889
				c-6.667-31.111-11.111-64.444-17.778-95.556c-2.222-17.778,8.89-33.334,24.444-37.778c15.556-2.222,31.111,8.89,35.556,26.667
				c2.223,11.111,4.444,24.444,6.667,35.556c20,0,37.777,0,57.777,0c8.89,0,17.778,2.222,17.778,13.333s-8.889,13.334-17.778,13.334
				c-17.777,0-33.333,0-51.11,0c0,6.666,0,11.11,2.222,20c20,0,37.778,0,57.778,0c24.444,0,31.11,6.666,35.556,31.11
				c6.666,33.334,11.11,64.444,17.777,100c6.667,0,13.333-2.222,17.777,0c6.667,2.223,13.334,6.667,15.556,11.111
				c0,4.444-4.444,13.333-8.889,15.556c-13.333,4.444-26.667,6.667-40,6.667c-11.111,0-15.556-6.667-17.777-17.778
				c-4.444-24.444-8.89-51.111-13.334-75.556C571.111,704.444,568.889,700,566.667,695.556z"/>
		</g>
		<g>
			<path fill="#FFFFFF" d="M426.667,606.667c6.666,15.556,4.444,24.444-8.89,37.777c-26.666,24.444-33.333,55.556-22.222,91.111
				c13.333,35.556,40,57.777,77.777,60c35.556,2.222,62.223-13.333,80-42.223c2.223-4.444,4.444-8.889,8.89-15.556
				c2.222,13.334,4.444,22.223,6.666,33.334c0,4.444-2.222,8.889-4.444,11.11c-24.444,33.334-75.556,48.89-117.777,35.556
				c-46.667-13.333-77.778-53.333-82.223-100C362.223,671.111,388.889,626.667,426.667,606.667z"/>
		</g>
		<g>
			<path fill="#FFFFFF" d="M424.444,486.667c0-20,15.556-35.556,35.556-35.556c22.223,0,37.777,15.556,37.777,35.556
				S480,522.223,462.223,522.223C442.223,524.444,424.444,506.667,424.444,486.667z"/>
		</g>
	</g>
</g>
</svg>
