<?xml version="1.0" encoding="utf-8"?>
<!-- Generator: Adobe Illustrator 16.0.0, SVG Export Plug-In . SVG Version: 6.00 Build 0)  -->
<!DOCTYPE svg PUBLIC "-//W3C//DTD SVG 1.1//EN" "http://www.w3.org/Graphics/SVG/1.1/DTD/svg11.dtd">
<svg version="1.1" id="Handicapped_Parking_1_" xmlns="http://www.w3.org/2000/svg" xmlns:xlink="http://www.w3.org/1999/xlink"
	 x="0px" y="0px" width="1000px" height="1000px" viewBox="0 0 1000 1000" enable-background="new 0 0 1000 1000"
	 xml:space="preserve">
<g id="Handicapped_Parking">
	<g>
		<path fill="#D01C1F" d="M873.333,1000H126.667C57.778,1000,0,942.223,0,873.333V126.667C0,57.778,57.778,0,126.667,0h746.667
			C942.223,0,1000,57.778,1000,126.667v746.667C1000,942.223,942.223,1000,873.333,1000z"/>
	</g>
	<path fill="#FFFFFF" d="M462.223,166.667c-111.111-11.111-224.445-2.222-337.778-2.222c0,200,0,404.444,0,608.889
		c42.222,0,80,0,122.222,0c0-77.777,0-151.11,0-233.333c60,0,113.333,2.223,166.667,0c102.223-6.667,171.111-68.889,180-164.444
		C604.444,264.444,557.777,177.778,462.223,166.667z M406.667,426.667c-51.111,8.889-102.223,8.889-157.778,11.11
		c0-64.444,0-117.777,0-173.333c53.334,0,104.444-4.444,155.556,2.222c40,4.445,62.223,35.556,64.444,75.556
		C468.889,384.444,451.111,420,406.667,426.667z"/>
	<g>
		<g>
			<path fill="#FFFFFF" d="M826.667,682.223c-26.667,0-53.334,0-80,0c-22.223,0-31.111-8.89-35.556-28.89
				c-6.667-31.11-11.111-64.444-17.777-95.556C691.111,540,702.223,524.444,717.777,520c15.556-2.223,31.111,8.889,35.556,26.667
				c2.223,11.11,4.444,24.444,6.667,35.556c20,0,37.777,0,57.777,0c8.89,0,17.778,2.222,17.778,13.333s-8.889,13.333-17.778,13.333
				c-17.777,0-33.333,0-51.11,0c0,6.667,0,11.111,2.222,20c20,0,37.778,0,57.778,0c24.444,0,31.11,6.667,35.556,31.111
				c6.666,33.333,11.11,64.444,17.777,100c6.666,0,13.333-2.222,17.777,0c6.667,2.223,13.334,6.667,15.556,11.111
				c0,4.444-4.444,13.333-8.889,15.556c-13.333,4.444-26.667,6.666-40,6.666c-11.111,0-15.556-6.666-17.778-17.777
				c-4.444-24.444-8.889-51.111-13.333-75.556C831.111,693.333,828.889,688.889,826.667,682.223z"/>
		</g>
		<g>
			<path fill="#FFFFFF" d="M686.667,595.556c6.666,15.556,4.444,24.444-8.89,37.777c-26.666,24.444-33.333,55.556-22.222,91.111
				c13.333,35.556,40,57.777,77.777,60c35.556,2.223,62.223-13.333,80-42.222c2.223-4.445,4.444-8.89,8.89-15.556
				c2.222,13.333,4.444,22.222,6.666,33.333c0,4.444-2.222,8.889-4.444,11.111C800,804.444,748.889,820,706.667,806.666
				c-46.667-13.333-77.778-53.333-82.223-99.999C622.223,657.777,648.889,613.333,686.667,595.556z"/>
		</g>
		<g>
			<path fill="#FFFFFF" d="M684.444,475.556C684.444,455.556,700,440,720,440c22.223,0,37.777,15.556,37.777,35.556
				S740,511.111,722.223,511.111C702.223,511.111,684.444,495.556,684.444,475.556z"/>
		</g>
	</g>
</g>
</svg>
