<?xml version="1.0" encoding="utf-8"?>
<!-- Generator: Adobe Illustrator 19.2.1, SVG Export Plug-In . SVG Version: 6.00 Build 0)  -->
<svg version="1.1" id="Information" xmlns="http://www.w3.org/2000/svg" xmlns:xlink="http://www.w3.org/1999/xlink" x="0px"
	 y="0px" viewBox="0 0 45 45" enable-background="new 0 0 45 45" xml:space="preserve">
<g id="Information_1_">
	<g id="information">
		<path d="M38.7,45L6.3,45C2.8,45,0,42.2,0,38.7L0,6.3C0,2.8,2.8,0,6.3,0l32.5,0C42.2,0,45,2.8,45,6.3l0,32.5
			C45,42.2,42.2,45,38.7,45z"/>
	</g>
	<g id="_x30_camvm.tif_4_">
		<g>
			<g>
				<path fill="#FFFFFF" d="M24.1,30.6l0.7-0.2c0.5-0.2,0.9,0.4,0.6,0.8c-1.1,1.9-4.6,4.1-6,3.6c-1.5-0.6-1.5-1.7-1.2-3
					c0.7-2.8,1.4-5.5,2-8.3c0.1-0.3,0.1-0.7,0.2-1.1c0-0.4-0.3-0.7-0.7-0.6L19.2,22c-0.4-0.7-0.3-0.6-0.7-1.3c0,0,0,0,0,0
					c1.1-0.9,2.3-1.9,3.6-2.6c0.7-0.4,2.1-0.4,2.7,0c0.6,0.4,1,1.7,0.8,2.5c-0.5,2.8-1.3,5.6-2,8.4c-0.1,0.3-0.1,0.6-0.2,1
					C23.3,30.4,23.7,30.8,24.1,30.6z"/>
			</g>
			<g>
				<path fill="#FFFFFF" d="M26.1,13.2c0,1.7-1.4,3-3,3c-1.7,0-3-1.4-3-3.1c0-1.7,1.4-3,3-3C24.7,10.2,26.1,11.5,26.1,13.2z"/>
			</g>
		</g>
	</g>
</g>
</svg>
