<?xml version="1.0" encoding="utf-8"?>
<!-- Generator: Adobe Illustrator 16.0.0, SVG Export Plug-In . SVG Version: 6.00 Build 0)  -->
<!DOCTYPE svg PUBLIC "-//W3C//DTD SVG 1.1//EN" "http://www.w3.org/Graphics/SVG/1.1/DTD/svg11.dtd">
<svg version="1.1" id="Information" xmlns="http://www.w3.org/2000/svg" xmlns:xlink="http://www.w3.org/1999/xlink" x="0px"
	 y="0px" width="1000px" height="1000px" viewBox="0 0 1000 1000" enable-background="new 0 0 1000 1000" xml:space="preserve">
<g id="Information_1_">
	<g id="information">
		<path fill="#D01C1F" d="M860,1000H140C62.222,1000,0,937.777,0,860V140C0,62.222,62.222,0,140,0h722.223
			C937.777,0,1000,62.222,1000,140v722.223C1000,937.777,937.777,1000,860,1000z"/>
	</g>
	<g id="_x30_camvm.tif_4_">
		<g>
			<g>
				<path fill="#FFFFFF" d="M535.556,680l15.556-4.444c11.111-4.444,20,8.889,13.333,17.777
					c-24.444,42.223-102.222,91.111-133.333,80c-33.334-13.333-33.334-37.777-26.667-66.666
					c15.556-62.223,31.111-122.223,44.444-184.444c2.223-6.667,2.223-15.556,4.444-24.445c0-8.889-6.666-15.555-15.556-13.333
					l-11.11,4.444c-8.89-15.556-6.667-13.333-15.556-28.889l0,0c24.444-20,51.111-42.222,80-57.778c15.556-8.889,46.666-8.889,60,0
					c13.333,8.889,22.222,37.778,17.777,55.555C557.777,520,540,582.223,524.444,644.444c-2.222,6.667-2.222,13.333-4.444,22.223
					C517.777,675.556,526.667,684.444,535.556,680z"/>
			</g>
			<g>
				<path fill="#FFFFFF" d="M580,293.333C580,331.111,548.889,360,513.333,360c-37.777,0-66.666-31.111-66.666-68.889
					c0-37.778,31.11-66.667,66.666-66.667C548.889,226.667,580,255.556,580,293.333z"/>
			</g>
		</g>
	</g>
</g>
</svg>
