<?xml version="1.0" encoding="utf-8"?>
<!-- Generator: Adobe Illustrator 16.0.0, SVG Export Plug-In . SVG Version: 6.00 Build 0)  -->
<!DOCTYPE svg PUBLIC "-//W3C//DTD SVG 1.1//EN" "http://www.w3.org/Graphics/SVG/1.1/DTD/svg11.dtd">
<svg version="1.1" id="Isolation_Mode" xmlns="http://www.w3.org/2000/svg" xmlns:xlink="http://www.w3.org/1999/xlink" x="0px"
	 y="0px" width="1000px" height="1000px" viewBox="0 0 1000 1000" enable-background="new 0 0 1000 1000" xml:space="preserve">
<g id="Interpreter_Service">
	<g>
		<path fill="#D01C1F" d="M873.333,1000H126.667C57.778,1000,0,942.223,0,873.333V126.667C0,57.778,57.778,0,126.667,0h746.667
			C942.223,0,1000,57.778,1000,126.667v746.667C1000,942.223,942.223,1000,873.333,1000z"/>
	</g>
	<g>
		<path fill="#FFFFFF" d="M502.223,242.222c4.444,0,8.889,2.222,13.333,2.222c31.111,8.889,57.777,35.556,62.222,68.889
			c0,4.444,2.223,8.889,2.223,13.333c0,48.889,0,100,0,148.889c0,37.777-26.667,71.111-64.444,80
			c-4.444,2.222-11.111,2.222-17.778,2.222c0-11.11,0-24.444,0-35.555c2.223,0,4.445,0,6.667,0c20-4.445,37.778-20,40-42.223
			c0-2.223,0-6.667,0-8.889c0-48.889,0-95.556,0-144.444c0-17.778-6.667-33.333-22.222-44.445
			c-8.89-6.667-17.778-6.667-26.667-6.667c-71.111,0-142.223,0-211.111,0c-28.889,0-55.556,0-84.444,0
			c-31.111,0-51.111,24.444-51.111,48.889c0,48.889,0,97.778,0,148.889c0,22.223,15.556,42.223,37.778,46.667
			c2.222,0,6.667,0,11.111,0c22.222,0,42.222,0,64.444,0c2.222,0,4.444,0,4.444,4.444c0,17.778,0,37.778,0,55.556
			c0,0,0,2.223,0,4.444c2.222-2.222,2.222-2.222,2.222-4.444c15.556-20,33.334-37.777,48.889-57.777C320,520,320,520,324.444,520
			c24.444,0,48.889,0,75.556,0c0,0,2.223,0,4.444,0c0,11.111,0,22.223,0,35.556c-2.222,0-2.222,0-4.444,0c-20,0-40,0-57.777,0
			c-2.223,0-4.445,0-4.445,2.222c-20,24.445-42.222,48.89-62.222,75.556c-6.667,6.667-13.333,8.89-22.222,8.89
			c-8.889-2.223-15.556-6.667-17.778-17.778c0-2.222,0-4.444,0-6.666c0-20,0-37.778,0-57.778c0-2.223,0-2.223,0-4.444
			c-2.222,0-2.222,0-4.444,0c-11.111,0-22.223,0-33.333,0c-24.444-2.223-44.444-13.333-57.778-31.111
			c-13.333-15.556-17.778-33.333-17.778-55.556c0-46.666,0-95.555,0-142.222c0-31.111,13.333-57.778,40-75.556
			C173.333,244.444,184.444,240,195.556,240h2.222C293.333,242.222,397.777,242.222,502.223,242.222z"/>
		<path fill="#FFFFFF" d="M746.667,833.333c-8.89-8.889-15.556-17.777-24.444-26.666c-15.556-17.778-28.89-35.556-44.445-53.334
			c-2.222-2.222-2.222-2.222-4.444-2.222c-53.333,0-104.444,0-157.777,0c-42.223,0-77.778-31.111-84.444-73.334
			c0-4.444,0-8.889,0-13.333c0-48.889,0-97.777,0-146.667c0-33.333,15.556-57.777,42.222-75.555
			c11.111-6.667,26.667-11.111,40-11.111c0,6.666,0,11.111,0,17.777c0,6.667,0,11.111,0,17.778c-2.222,0-4.444,0-6.666,0
			c-20,4.444-35.556,17.777-40,37.777c0,4.444-2.223,6.667-2.223,11.111c0,48.889,0,97.777,0,146.667
			c0,20,8.889,35.555,26.667,44.444c6.666,4.444,13.333,4.444,22.222,4.444c57.778,0,115.556,0,173.334,0
			c2.222,0,4.444,0,6.666,2.222c15.556,20,33.334,37.778,48.89,57.778c0,0,2.222,2.222,2.222,4.444c0-2.223,0-2.223,0-4.444
			c0-20,0-37.778,0-57.778c0-2.222,0-4.444,4.444-4.444c20,0,40,0,60,0c28.889,0,48.889-24.444,48.889-48.889
			c0-48.889,0-100,0-148.889c0-22.223-15.555-42.223-37.777-46.667c-4.444,0-8.889-2.223-13.333-2.223
			c-64.444,0-131.111,0-195.556,0c-2.223,0-2.223,0-4.444,0c0-11.11,0-22.222,0-35.555c2.222,0,2.222,0,4.444,0
			c66.666,0,131.111,0,197.777,0c46.667,0,80,35.555,84.444,73.333c0,4.444,0,8.889,0,13.333c0,46.667,0,93.334,0,142.223
			c0,24.444-8.889,46.666-26.666,64.444c-15.556,15.556-35.556,22.222-55.556,24.444c-8.889,0-20,0-28.889,0c0,0-2.223,0-4.445,0
			c0,2.222,0,2.222,0,4.444c0,17.777,0,35.556,0,53.333c0,11.111-2.222,17.778-11.11,24.444
			C762.223,833.333,753.333,833.333,746.667,833.333z"/>
		<path fill="#FFFFFF" d="M657.777,562.223c4.445,0,8.89,0,11.111-2.223c2.223,0,6.667,0,8.889,0c2.223,0,4.445,0,4.445-4.444
			v-2.223c8.889,2.223,17.777,2.223,26.666,4.444c0,2.223,0,4.445,0,6.667c2.223,0,2.223,0,4.444,2.223
			c15.556,6.666,28.89,17.777,31.111,35.556c4.444,28.889-6.667,51.11-35.556,62.222c-8.889,2.223-17.777,4.444-26.666,6.667H680
			c-4.444-6.667-8.889-13.334-13.333-20c4.444,0,6.666-2.223,11.11-2.223c11.111-2.222,20-4.444,28.89-11.111
			c11.11-6.666,15.556-20,11.11-31.11c-2.222-6.667-8.889-11.111-15.555-15.556c0,0,0,2.222-2.223,2.222
			c-8.889,15.556-20,28.889-31.111,42.223c-15.556,13.333-33.333,22.222-53.333,24.444s-31.111-11.111-31.111-28.889
			c0-20,8.889-35.556,24.444-46.667c6.667-4.444,13.334-8.889,20-11.111c2.223,0,2.223-2.222,2.223-4.444c0-8.889,0-17.777,0-24.444
			c0-2.223,0-4.444-4.444-4.444c-8.89,0-17.778,0-26.667,0c-2.223,0-2.223,0-4.444,0c0-8.889,0-17.778-2.223-26.667
			c2.223,0,2.223,0,4.444,0c8.89,0,20,0,28.89,0c2.222,0,4.444,0,4.444-4.444c0-6.667,0-13.333,0-20c8.889,0,20,2.223,28.889,2.223
			c0,2.222,0,4.444,0,6.666c0,4.444,0,8.889,0,13.334c0,2.222,0,2.222,2.223,2.222c8.889,0,17.777-2.222,24.444-2.222
			c11.11-2.223,22.222-4.445,33.333-4.445h2.223c0,6.667,2.222,13.334,2.222,20c0,0,0,0,0,2.223c0,4.444,0,6.667-4.444,6.667
			c-15.556,2.222-31.111,2.222-48.889,4.444c-4.444,0-8.889,0-13.334,0c0,0-2.222,0-2.222,2.222
			C657.777,546.667,657.777,555.556,657.777,562.223z M631.111,595.556c-6.667,2.222-11.111,6.667-15.556,11.111
			s-6.667,8.889-4.444,15.556c0,4.444,2.222,8.889,6.666,8.889c4.445,0,11.111-2.223,15.556-4.444l2.223-2.223
			c0-2.222,0-4.444,0-6.667C633.333,611.111,633.333,604.444,631.111,595.556z M660,606.667
			c4.444-2.223,13.333-17.778,15.556-22.223c-4.444,0-8.889,0-13.333,2.223L660,588.889C657.777,595.556,660,600,660,606.667z"/>
		<path fill="#FFFFFF" d="M417.777,466.667c-2.222,0-2.222,0-2.222,0c-8.889,0-20,0-28.889,0c-4.444,0-4.444-2.223-4.444-4.444
			c-2.223-8.89-6.667-20-8.89-28.89c0-2.222-2.222-4.444-4.444-4.444c-17.777,0-37.777,0-55.556,0c-2.222,0-4.444,0-4.444,2.223
			c-4.444,11.111-6.666,20-11.111,31.111c0,2.222-2.222,2.222-4.444,2.222c-8.889,0-20,0-28.889,0h-2.222c0-2.222,0-2.222,0-2.222
			c20-53.334,40-104.445,60-157.778c0-2.222,2.222-4.444,4.444-4.444c8.889,0,20,0,28.889,0c2.222,0,4.444,0,4.444,2.222
			c20,53.333,40,104.444,57.777,157.778C417.777,464.444,417.777,464.444,417.777,466.667z M337.777,342.222L337.777,342.222
			c-8.889,20-15.555,40-22.222,60c15.556,0,28.889,0,44.444,0C353.333,382.222,346.667,362.222,337.777,342.222z"/>
	</g>
</g>
</svg>
