<?xml version="1.0" encoding="utf-8"?>
<!-- Generator: Adobe Illustrator 19.2.1, SVG Export Plug-In . SVG Version: 6.00 Build 0)  -->
<svg version="1.1" id="Isolation_Mode" xmlns="http://www.w3.org/2000/svg" xmlns:xlink="http://www.w3.org/1999/xlink" x="0px"
	 y="0px" viewBox="0 0 45 45" style="enable-background:new 0 0 45 45;" xml:space="preserve">
<style type="text/css">
	.st0{fill:#FFFFFF;}
</style>
<g id="Interpreter_Service">
	<g>
		<path d="M39.3,45H5.7C2.6,45,0,42.4,0,39.3V5.7C0,2.6,2.6,0,5.7,0h33.6C42.4,0,45,2.6,45,5.7v33.6C45,42.4,42.4,45,39.3,45z"/>
	</g>
	<g>
		<path class="st0" d="M22.6,10.9c0.2,0,0.4,0.1,0.6,0.1c1.4,0.4,2.6,1.6,2.8,3.1c0,0.2,0.1,0.4,0.1,0.6c0,2.2,0,4.5,0,6.7
			c0,1.7-1.2,3.2-2.9,3.6c-0.2,0.1-0.5,0.1-0.8,0.1c0-0.5,0-1.1,0-1.6c0.1,0,0.2,0,0.3,0c0.9-0.2,1.7-0.9,1.8-1.9c0-0.1,0-0.3,0-0.4
			c0-2.2,0-4.3,0-6.5c0-0.8-0.3-1.5-1-2c-0.4-0.3-0.8-0.3-1.2-0.3c-3.2,0-6.4,0-9.5,0c-1.3,0-2.5,0-3.8,0c-1.4,0-2.3,1.1-2.3,2.2
			c0,2.2,0,4.4,0,6.7c0,1,0.7,1.9,1.7,2.1c0.1,0,0.3,0,0.5,0c1,0,1.9,0,2.9,0c0.1,0,0.2,0,0.2,0.2c0,0.8,0,1.7,0,2.5
			c0,0,0,0.1,0,0.2c0.1-0.1,0.1-0.1,0.1-0.2c0.7-0.9,1.5-1.7,2.2-2.6c0.1-0.1,0.1-0.1,0.3-0.1c1.1,0,2.2,0,3.4,0c0,0,0.1,0,0.2,0
			c0,0.5,0,1,0,1.6c-0.1,0-0.1,0-0.2,0c-0.9,0-1.8,0-2.6,0c-0.1,0-0.2,0-0.2,0.1c-0.9,1.1-1.9,2.2-2.8,3.4c-0.3,0.3-0.6,0.4-1,0.4
			c-0.4-0.1-0.7-0.3-0.8-0.8c0-0.1,0-0.2,0-0.3c0-0.9,0-1.7,0-2.6c0-0.1,0-0.1,0-0.2c-0.1,0-0.1,0-0.2,0c-0.5,0-1,0-1.5,0
			c-1.1-0.1-2-0.6-2.6-1.4c-0.6-0.7-0.8-1.5-0.8-2.5c0-2.1,0-4.3,0-6.4c0-1.4,0.6-2.6,1.8-3.4c0.5-0.3,1-0.5,1.5-0.5
			c0,0,0.1,0,0.1,0C13.2,10.9,17.9,10.9,22.6,10.9z"/>
		<path class="st0" d="M33.6,37.5c-0.4-0.4-0.7-0.8-1.1-1.2c-0.7-0.8-1.3-1.6-2-2.4c-0.1-0.1-0.1-0.1-0.2-0.1c-2.4,0-4.7,0-7.1,0
			c-1.9,0-3.5-1.4-3.8-3.3c0-0.2,0-0.4,0-0.6c0-2.2,0-4.4,0-6.6c0-1.5,0.7-2.6,1.9-3.4c0.5-0.3,1.2-0.5,1.8-0.5c0,0.3,0,0.5,0,0.8
			c0,0.3,0,0.5,0,0.8c-0.1,0-0.2,0-0.3,0c-0.9,0.2-1.6,0.8-1.8,1.7c0,0.2-0.1,0.3-0.1,0.5c0,2.2,0,4.4,0,6.6c0,0.9,0.4,1.6,1.2,2
			c0.3,0.2,0.6,0.2,1,0.2c2.6,0,5.2,0,7.8,0c0.1,0,0.2,0,0.3,0.1c0.7,0.9,1.5,1.7,2.2,2.6c0,0,0.1,0.1,0.1,0.2c0-0.1,0-0.1,0-0.2
			c0-0.9,0-1.7,0-2.6c0-0.1,0-0.2,0.2-0.2c0.9,0,1.8,0,2.7,0c1.3,0,2.2-1.1,2.2-2.2c0-2.2,0-4.5,0-6.7c0-1-0.7-1.9-1.7-2.1
			c-0.2,0-0.4-0.1-0.6-0.1c-2.9,0-5.9,0-8.8,0c-0.1,0-0.1,0-0.2,0c0-0.5,0-1,0-1.6c0.1,0,0.1,0,0.2,0c3,0,5.9,0,8.9,0
			c2.1,0,3.6,1.6,3.8,3.3c0,0.2,0,0.4,0,0.6c0,2.1,0,4.2,0,6.4c0,1.1-0.4,2.1-1.2,2.9c-0.7,0.7-1.6,1-2.5,1.1c-0.4,0-0.9,0-1.3,0
			c0,0-0.1,0-0.2,0c0,0.1,0,0.1,0,0.2c0,0.8,0,1.6,0,2.4c0,0.5-0.1,0.8-0.5,1.1C34.3,37.5,33.9,37.5,33.6,37.5z"/>
		<path class="st0" d="M29.6,25.3c0.2,0,0.4,0,0.5-0.1c0.1,0,0.3,0,0.4,0c0.1,0,0.2,0,0.2-0.2c0,0,0-0.1,0-0.1
			c0.4,0.1,0.8,0.1,1.2,0.2c0,0.1,0,0.2,0,0.3c0.1,0,0.1,0,0.2,0.1c0.7,0.3,1.3,0.8,1.4,1.6c0.2,1.3-0.3,2.3-1.6,2.8
			c-0.4,0.1-0.8,0.2-1.2,0.3c0,0-0.1,0-0.1,0c-0.2-0.3-0.4-0.6-0.6-0.9c0.2,0,0.3-0.1,0.5-0.1c0.5-0.1,0.9-0.2,1.3-0.5
			c0.5-0.3,0.7-0.9,0.5-1.4c-0.1-0.3-0.4-0.5-0.7-0.7c0,0,0,0.1-0.1,0.1c-0.4,0.7-0.9,1.3-1.4,1.9c-0.7,0.6-1.5,1-2.4,1.1
			c-0.9,0.1-1.4-0.5-1.4-1.3c0-0.9,0.4-1.6,1.1-2.1c0.3-0.2,0.6-0.4,0.9-0.5c0.1,0,0.1-0.1,0.1-0.2c0-0.4,0-0.8,0-1.1
			c0-0.1,0-0.2-0.2-0.2c-0.4,0-0.8,0-1.2,0c-0.1,0-0.1,0-0.2,0c0-0.4,0-0.8-0.1-1.2c0.1,0,0.1,0,0.2,0c0.4,0,0.9,0,1.3,0
			c0.1,0,0.2,0,0.2-0.2c0-0.3,0-0.6,0-0.9c0.4,0,0.9,0.1,1.3,0.1c0,0.1,0,0.2,0,0.3c0,0.2,0,0.4,0,0.6c0,0.1,0,0.1,0.1,0.1
			c0.4,0,0.8-0.1,1.1-0.1c0.5-0.1,1-0.2,1.5-0.2c0,0,0.1,0,0.1,0c0,0.3,0.1,0.6,0.1,0.9c0,0,0,0,0,0.1c0,0.2,0,0.3-0.2,0.3
			c-0.7,0.1-1.4,0.1-2.2,0.2c-0.2,0-0.4,0-0.6,0c0,0-0.1,0-0.1,0.1C29.6,24.6,29.6,25,29.6,25.3z M28.4,26.8
			c-0.3,0.1-0.5,0.3-0.7,0.5c-0.2,0.2-0.3,0.4-0.2,0.7c0,0.2,0.1,0.4,0.3,0.4c0.2,0,0.5-0.1,0.7-0.2c0,0,0.1-0.1,0.1-0.1
			c0-0.1,0-0.2,0-0.3C28.5,27.5,28.5,27.2,28.4,26.8z M29.7,27.3c0.2-0.1,0.6-0.8,0.7-1c-0.2,0-0.4,0-0.6,0.1c0,0-0.1,0.1-0.1,0.1
			C29.6,26.8,29.7,27,29.7,27.3z"/>
		<path class="st0" d="M18.8,21c-0.1,0-0.1,0-0.1,0c-0.4,0-0.9,0-1.3,0c-0.2,0-0.2-0.1-0.2-0.2c-0.1-0.4-0.3-0.9-0.4-1.3
			c0-0.1-0.1-0.2-0.2-0.2c-0.8,0-1.7,0-2.5,0c-0.1,0-0.2,0-0.2,0.1c-0.2,0.5-0.3,0.9-0.5,1.4c0,0.1-0.1,0.1-0.2,0.1
			c-0.4,0-0.9,0-1.3,0c0,0-0.1,0-0.1,0c0-0.1,0-0.1,0-0.1c0.9-2.4,1.8-4.7,2.7-7.1c0-0.1,0.1-0.2,0.2-0.2c0.4,0,0.9,0,1.3,0
			c0.1,0,0.2,0,0.2,0.1c0.9,2.4,1.8,4.7,2.6,7.1C18.8,20.9,18.8,20.9,18.8,21z M15.2,15.4C15.2,15.4,15.2,15.4,15.2,15.4
			c-0.4,0.9-0.7,1.8-1,2.7c0.7,0,1.3,0,2,0C15.9,17.2,15.6,16.3,15.2,15.4z"/>
	</g>
</g>
</svg>
