<?xml version="1.0" encoding="utf-8"?>
<!-- Generator: Adobe Illustrator 16.0.0, SVG Export Plug-In . SVG Version: 6.00 Build 0)  -->
<!DOCTYPE svg PUBLIC "-//W3C//DTD SVG 1.1//EN" "http://www.w3.org/Graphics/SVG/1.1/DTD/svg11.dtd">
<svg version="1.1" id="Isolation_Mode" xmlns="http://www.w3.org/2000/svg" xmlns:xlink="http://www.w3.org/1999/xlink" x="0px"
	 y="0px" width="1000px" height="1000px" viewBox="0 0 1000 1000" enable-background="new 0 0 1000 1000" xml:space="preserve">
<g id="Interpreter_Service">
	<g>
		<path fill="#D01C1F" d="M873.333,1000H126.667C57.778,1000,0,942.223,0,873.333V126.667C0,57.778,57.778,0,126.667,0h746.667
			C942.223,0,1000,57.778,1000,126.667v746.667C1000,942.223,942.223,1000,873.333,1000z"/>
	</g>
	<g>
		<path fill="#FFFFFF" d="M502.223,242.222c4.444,0,8.89,2.222,13.333,2.222c31.111,8.889,57.777,35.556,62.223,68.889
			c0,4.444,2.223,8.889,2.223,13.333c0,48.889,0,100,0,148.889c0,37.777-26.667,71.111-64.444,80
			c-4.443,2.223-11.11,2.223-17.777,2.223c0-11.11,0-24.444,0-35.556c2.223,0,4.444,0,6.667,0c20-4.444,37.777-20,40-42.223
			c0-2.223,0-6.667,0-8.889c0-48.89,0-95.556,0-144.444c0-17.778-6.667-33.333-22.223-44.445c-8.89-6.667-17.777-6.667-26.667-6.667
			c-71.11,0-142.223,0-211.111,0c-28.889,0-55.556,0-84.444,0c-31.111,0-51.111,24.444-51.111,48.889c0,48.889,0,97.778,0,148.889
			c0,22.223,15.556,42.223,37.778,46.667c2.222,0,6.667,0,11.111,0c22.222,0,42.222,0,64.444,0c2.222,0,4.444,0,4.444,4.444
			c0,17.777,0,37.777,0,55.556c0,0,0,2.223,0,4.444c2.222-2.223,2.222-2.223,2.222-4.444c15.556-20,33.333-37.777,48.889-57.777
			C320,520,320,520,324.444,520c24.443,0,48.889,0,75.556,0c0,0,2.223,0,4.444,0c0,11.111,0,22.223,0,35.556
			c-2.223,0-2.223,0-4.444,0c-20,0-40,0-57.777,0c-2.223,0-4.444,0-4.444,2.223c-20,24.444-42.222,48.89-62.222,75.556
			c-6.667,6.667-13.333,8.89-22.222,8.89c-8.889-2.223-15.556-6.667-17.778-17.777c0-2.223,0-4.444,0-6.666c0-20,0-37.778,0-57.778
			c0-2.223,0-2.223,0-4.444c-2.222,0-2.222,0-4.444,0c-11.111,0-22.223,0-33.333,0c-24.444-2.223-44.444-13.333-57.778-31.11
			c-13.333-15.557-17.778-33.333-17.778-55.557c0-46.666,0-95.555,0-142.222c0-31.111,13.333-57.778,40-75.556
			c11.11-6.669,22.221-11.113,33.333-11.113h2.222C293.333,242.222,397.777,242.222,502.223,242.222z"/>
		<path fill="#FFFFFF" d="M746.667,833.333c-8.89-8.889-15.556-17.777-24.444-26.666c-15.556-17.778-28.89-35.556-44.444-53.334
			c-2.223-2.222-2.223-2.222-4.444-2.222c-53.333,0-104.444,0-157.777,0c-42.223,0-77.777-31.111-84.443-73.334
			c0-4.444,0-8.89,0-13.333c0-48.89,0-97.777,0-146.667c0-33.333,15.556-57.777,42.222-75.556c11.111-6.667,26.667-11.11,40-11.11
			c0,6.666,0,11.11,0,17.776c0,6.667,0,11.111,0,17.778c-2.222,0-4.444,0-6.666,0c-20,4.444-35.556,17.777-40,37.777
			c0,4.443-2.223,6.667-2.223,11.11c0,48.89,0,97.777,0,146.667c0,20,8.889,35.556,26.667,44.444
			c6.666,4.444,13.333,4.444,22.222,4.444c57.778,0,115.556,0,173.334,0c2.222,0,4.444,0,6.666,2.222
			c15.556,20,33.334,37.778,48.89,57.778c0,0,2.223,2.222,2.223,4.443c0-2.223,0-2.223,0-4.443c0-20,0-37.778,0-57.778
			c0-2.222,0-4.444,4.443-4.444c20,0,40,0,60,0c28.89,0,48.89-24.443,48.89-48.889c0-48.889,0-100,0-148.889
			c0-22.224-15.556-42.224-37.777-46.667c-4.444,0-8.889-2.224-13.333-2.224c-64.443,0-131.111,0-195.556,0
			c-2.224,0-2.224,0-4.444,0c0-11.109,0-22.222,0-35.555c2.222,0,2.222,0,4.444,0c66.666,0,131.11,0,197.776,0
			c46.667,0,80,35.555,84.444,73.333c0,4.444,0,8.889,0,13.333c0,46.667,0,93.334,0,142.223c0,24.444-8.889,46.666-26.666,64.444
			c-15.556,15.556-35.556,22.222-55.556,24.444c-8.89,0-20,0-28.89,0c0,0-2.223,0-4.444,0c0,2.222,0,2.222,0,4.443
			c0,17.777,0,35.557,0,53.333c0,11.111-2.223,17.778-11.11,24.444C762.223,833.333,753.333,833.333,746.667,833.333z"/>
		<path fill="#FFFFFF" d="M657.777,562.223c4.444,0,8.89,0,11.11-2.223c2.224,0,6.667,0,8.89,0s4.444,0,4.444-4.444v-2.223
			c8.89,2.223,17.777,2.223,26.666,4.444c0,2.223,0,4.444,0,6.667c2.224,0,2.224,0,4.444,2.223
			c15.556,6.666,28.89,17.777,31.111,35.556c4.443,28.89-6.667,51.11-35.557,62.223c-8.889,2.223-17.776,4.443-26.666,6.667H680
			c-4.444-6.667-8.889-13.334-13.333-20c4.444,0,6.666-2.224,11.11-2.224c11.11-2.222,20-4.443,28.89-11.11
			c11.11-6.666,15.556-20,11.11-31.11c-2.223-6.667-8.89-11.111-15.556-15.556c0,0,0,2.222-2.223,2.222
			c-8.889,15.556-20,28.889-31.111,42.223c-15.556,13.333-33.333,22.223-53.333,24.444s-31.11-11.111-31.11-28.889
			c0-20,8.889-35.557,24.443-46.667c6.667-4.444,13.334-8.89,20-11.111c2.224,0,2.224-2.222,2.224-4.444c0-8.889,0-17.776,0-24.443
			c0-2.224,0-4.444-4.444-4.444c-8.89,0-17.778,0-26.667,0c-2.223,0-2.223,0-4.444,0c0-8.889,0-17.778-2.223-26.667
			c2.223,0,2.223,0,4.444,0c8.89,0,20,0,28.89,0c2.222,0,4.444,0,4.444-4.444c0-6.667,0-13.333,0-20c8.889,0,20,2.224,28.889,2.224
			c0,2.222,0,4.443,0,6.666c0,4.443,0,8.889,0,13.334c0,2.222,0,2.222,2.223,2.222c8.89,0,17.777-2.222,24.444-2.222
			c11.11-2.224,22.222-4.445,33.333-4.445h2.223c0,6.667,2.223,13.334,2.223,20c0,0,0,0,0,2.224c0,4.443,0,6.666-4.444,6.666
			c-15.556,2.223-31.111,2.223-48.889,4.444c-4.444,0-8.89,0-13.334,0c0,0-2.223,0-2.223,2.222
			C657.777,546.667,657.777,555.556,657.777,562.223z M631.111,595.556c-6.667,2.223-11.111,6.667-15.557,11.111
			c-4.444,4.444-6.667,8.889-4.443,15.556c0,4.444,2.222,8.89,6.666,8.89s11.11-2.224,15.556-4.444l2.224-2.223
			c0-2.223,0-4.444,0-6.667C633.333,611.111,633.333,604.444,631.111,595.556z M660,606.667
			c4.444-2.223,13.333-17.778,15.556-22.223c-4.443,0-8.889,0-13.333,2.223L660,588.889C657.777,595.556,660,600,660,606.667z"/>
		<path fill="#FFFFFF" d="M417.777,466.667c-2.223,0-2.223,0-2.223,0c-8.889,0-20,0-28.889,0c-4.444,0-4.444-2.223-4.444-4.444
			c-2.223-8.89-6.667-20-8.89-28.89c0-2.222-2.222-4.444-4.444-4.444c-17.776,0-37.776,0-55.556,0c-2.222,0-4.444,0-4.444,2.224
			c-4.443,11.11-6.666,20-11.11,31.11c0,2.223-2.222,2.223-4.444,2.223c-8.889,0-20,0-28.889,0h-2.222c0-2.223,0-2.223,0-2.223
			c20-53.333,40-104.445,60-157.778c0-2.222,2.223-4.444,4.444-4.444c8.889,0,20,0,28.889,0c2.223,0,4.444,0,4.444,2.222
			c20,53.333,40,104.444,57.777,157.778C417.777,464.444,417.777,464.444,417.777,466.667z M337.777,342.222L337.777,342.222
			c-8.89,20-15.556,40-22.223,60c15.557,0,28.89,0,44.444,0C353.333,382.222,346.667,362.222,337.777,342.222z"/>
	</g>
</g>
</svg>
