<?xml version="1.0" encoding="utf-8"?>
<!-- Generator: Adobe Illustrator 16.0.0, SVG Export Plug-In . SVG Version: 6.00 Build 0)  -->
<!DOCTYPE svg PUBLIC "-//W3C//DTD SVG 1.1//EN" "http://www.w3.org/Graphics/SVG/1.1/DTD/svg11.dtd">
<svg version="1.1" id="Kids_Toilet" xmlns="http://www.w3.org/2000/svg" xmlns:xlink="http://www.w3.org/1999/xlink" x="0px"
	 y="0px" width="1000px" height="1000px" viewBox="0 0 1000 1000" enable-background="new 0 0 1000 1000" xml:space="preserve">
<g id="Kids_Toilet_1_">
	<g>
		<g>
			<path fill="#D01C1F" d="M873.333,1000H126.667C57.778,1000,0,942.223,0,873.333V126.667C0,57.778,57.778,0,126.667,0h746.667
				C942.223,0,1000,57.778,1000,126.667v746.667C1000,942.223,942.223,1000,873.333,1000z"/>
		</g>
	</g>
	<g>
		<g>
			<g>
				<path fill="#FFFFFF" d="M495.556,148.889c0,37.778-2.223,75.556-2.223,113.333c0,184.445,0,368.889,0,553.333
					c0,8.889,0,20,0,31.111c-13.333,0-26.666,0-42.222,0c0-6.667-2.223-11.111-2.223-17.778c0-220,0-442.222,0-662.222
					c0-6.667,0-13.333,2.223-20C464.444,148.889,480,148.889,495.556,148.889z"/>
			</g>
		</g>
		<g>
			<g>
				<g>
					<path fill="#FFFFFF" d="M726.667,148.889c17.777,8.889,35.556,17.778,37.777,42.223c2.223,24.444-13.333,46.667-35.556,48.889
						c-24.444,4.444-46.666-8.889-53.333-31.111c-6.667-24.444,4.444-46.667,26.667-57.777c2.222-2.223,6.666-2.223,8.889-4.445
						C715.556,148.889,722.223,148.889,726.667,148.889z"/>
				</g>
			</g>
			<g>
				<g>
					<path fill="#FFFFFF" d="M664.444,504.444c-17.777,0-31.111,0-46.667,0c20-68.889,37.778-135.556,55.556-202.222
						c-2.222,0-4.444-2.222-8.889-2.222c-2.222,6.667-4.444,13.333-6.667,17.778c-8.889,33.333-20,68.889-28.889,102.222
						c-4.444,13.333-8.889,24.444-26.666,20c-17.778-4.444-15.556-17.777-11.111-31.111c11.111-40,22.222-80,33.333-120
						c6.667-24.444,22.223-37.777,46.667-37.777c28.889,0,57.777,0,88.889,0c24.444,0,42.223,15.555,48.889,37.777
						c11.111,40,22.223,82.223,35.556,122.223c4.444,13.333,2.223,22.222-11.111,26.666c-13.333,4.445-22.222-2.222-24.444-15.555
						c-8.889-35.556-20-71.111-28.889-106.667c-2.223-6.667-4.444-13.333-6.667-20c-2.222,0-4.444,2.222-8.889,2.222
						C782.223,364.444,802.223,431.111,820,500c-15.556,0-31.111,0-48.889,0c0,37.777,0,44.444,0,80c0,8.889,0,17.777,0,26.667
						c0,15.556-8.889,24.444-24.444,24.444s-24.444-8.889-24.444-26.667c0-35.556,0-42.222,0-77.777c0-8.89,0-17.778,0-26.667
						c-2.223,0-4.445,0-8.89,0c0,6.667-2.222,13.333-2.222,20c0,37.777,0,44.444,0,84.444c0,15.556-6.667,26.667-24.444,26.667
						c-15.556,0-24.444-11.111-24.444-26.667c0-6.667,0-13.333,0-20C664.444,551.111,664.444,544.444,664.444,504.444z"/>
				</g>
			</g>
		</g>
		<g>
			<g>
				<g>
					<path fill="#FFFFFF" d="M246.667,148.889c20,8.889,35.556,20,37.778,44.445c2.222,22.222-13.333,44.444-35.556,48.889
						c-24.444,4.444-44.444-8.889-53.333-28.889c-8.889-22.222,2.222-46.667,22.222-57.778c4.444-2.222,8.889-4.444,13.333-4.444
						C235.556,148.889,240,148.889,246.667,148.889z"/>
				</g>
			</g>
			<g>
				<g>
					<path fill="#FFFFFF" d="M173.333,322.222c0,31.111,0,64.444,0,95.556c0,6.667,2.222,13.333,0,17.778
						c-4.445,6.667-11.111,17.777-17.778,20c-11.111,2.222-20-6.667-20-17.778c0-46.666-2.222-93.333,0-137.777
						c0-26.667,22.222-42.222,48.889-42.222c35.556,0,71.111,0,106.667,0c28.889,0,48.889,20,48.889,48.889
						c0,42.222,0,84.445,0,126.667c0,13.334-2.223,24.444-17.777,24.444c-15.556,0-20-11.11-20-24.444c0-31.111,0-62.222,0-91.111
						c0-6.667-2.223-11.111-2.223-17.778c-2.223,0-4.444,0-6.667,0c0,6.667-2.222,13.333-2.222,20c0,97.778,0,162.223,0,260
						c0,8.889,0,17.778-2.223,22.223c-6.667,6.666-17.777,13.333-24.444,11.11c-15.556-2.222-20-13.333-20-28.889
						c0-53.333,0-77.777,0-131.111c0-6.666,0-13.333,0-20c-2.222,0-4.444,0-6.667,0c0,6.667-2.222,13.334-2.222,20
						c0,55.556,0,80,0,135.556c0,13.334-6.667,24.444-20,24.444c-8.889,0-17.778-6.666-24.444-13.333
						c-4.445-4.444-2.223-13.333-2.223-22.222c0-97.778,0-162.223,0-260c0-6.667-2.222-13.333-2.222-20
						C180,320,175.556,320,173.333,322.222z"/>
				</g>
			</g>
		</g>
		<g>
			<path fill="#FFFFFF" d="M88.889,720c6.667-2.223,17.778-2.223,28.889-2.223c15.556,0,24.444,2.223,33.333,8.89
				c6.667,4.444,8.889,11.11,8.889,20c0,11.111-6.667,22.222-20,26.666l0,0c11.111,2.223,24.444,11.111,24.444,28.89
				c0,11.11-4.444,17.777-8.889,24.444c-8.889,6.666-22.222,11.11-40,11.11c-11.111,0-17.778,0-24.444-2.222V720H88.889z
				 M104.444,768.889h13.333c15.556,0,24.444-8.889,24.444-20c0-13.333-11.111-20-26.667-20c-6.667,0-11.111,0-13.333,0v40H104.444z
				 M104.444,824.444c2.222,0,6.667,0,13.333,0c15.556,0,31.111-6.667,31.111-22.222c0-15.556-13.333-22.223-31.111-22.223h-13.333
				V824.444z"/>
			<path fill="#FFFFFF" d="M284.444,777.777c0,40-24.444,62.223-55.556,62.223c-28.889,0-51.111-24.444-51.111-60
				c0-37.777,22.222-62.223,55.556-62.223C264.444,717.777,284.444,742.223,284.444,777.777z M193.333,777.777
				c0,24.445,13.333,48.89,37.778,48.89c24.444,0,37.777-22.223,37.777-48.89c0-24.444-13.333-48.889-37.777-48.889
				C206.667,728.889,193.333,753.333,193.333,777.777z"/>
			<path fill="#FFFFFF" d="M326.667,837.777v-51.11L288.889,720h17.778l15.556,33.333c4.444,8.89,8.889,15.556,11.11,24.444l0,0
				c2.223-6.666,6.667-15.555,11.111-24.444L362.223,720H380l-40,66.667v51.11H326.667z"/>
		</g>
		<g>
			<path fill="#FFFFFF" d="M675.556,831.111c-6.667,2.222-20,6.666-35.556,6.666c-17.777,0-33.333-4.444-44.444-15.555
				C584.444,813.333,580,795.556,580,777.777c0-35.555,24.444-60,64.444-60c13.333,0,24.444,2.223,28.889,4.445l-4.444,13.333
				c-6.666-2.223-13.333-4.444-26.666-4.444c-28.89,0-46.667,17.777-46.667,46.666s17.777,46.667,44.444,46.667
				c8.889,0,17.777-2.223,20-2.223v-35.555h-24.444v-13.334h37.777v57.778H675.556z"/>
			<path fill="#FFFFFF" d="M713.333,720v117.777h-15.556V720H713.333z"/>
			<path fill="#FFFFFF" d="M740,720c6.667-2.223,17.777-2.223,28.889-2.223c15.556,0,26.667,2.223,33.334,8.89
				c6.666,4.444,8.889,13.333,8.889,22.222c0,15.556-8.889,26.667-22.223,31.111l0,0c8.889,2.223,15.556,11.111,17.778,24.444
				c4.444,15.556,6.666,28.889,8.889,33.333H800c-2.223-2.222-4.444-13.333-8.889-28.889s-8.889-22.222-24.444-22.222h-11.111v51.11
				H740V720z M755.556,773.333h15.556c15.556,0,26.666-8.889,26.666-22.222c0-15.556-11.11-22.223-26.666-22.223
				c-6.667,0-13.334,0-15.556,2.223V773.333z"/>
			<path fill="#FFFFFF" d="M835.556,720h15.556v104.444h51.111v13.333h-66.667V720z"/>
		</g>
		<g>
			
				<ellipse transform="matrix(-0.7487 -0.6629 0.6629 -0.7487 999.559 833.8277)" fill="#FFFFFF" cx="657.824" cy="227.457" rx="11.111" ry="17.778"/>
		</g>
		<g>
			
				<ellipse transform="matrix(-0.6629 -0.7487 0.7487 -0.6629 1130.6797 961.3398)" fill="#FFFFFF" cx="781.754" cy="226.135" rx="17.778" ry="11.111"/>
		</g>
	</g>
</g>
</svg>
