<?xml version="1.0" encoding="utf-8"?>
<!-- Generator: Adobe Illustrator 19.2.1, SVG Export Plug-In . SVG Version: 6.00 Build 0)  -->
<svg version="1.1" id="Kids_Toilet" xmlns="http://www.w3.org/2000/svg" xmlns:xlink="http://www.w3.org/1999/xlink" x="0px"
	 y="0px" viewBox="0 0 45 45" enable-background="new 0 0 45 45" xml:space="preserve">
<g id="Kids_Toilet_1_">
	<g>
		<g>
			<path d="M39.3,45L5.7,45C2.6,45,0,42.4,0,39.3L0,5.7C0,2.6,2.6,0,5.7,0l33.6,0C42.4,0,45,2.6,45,5.7l0,33.6
				C45,42.4,42.4,45,39.3,45z"/>
		</g>
	</g>
	<g>
		<g>
			<g>
				<path fill="#FFFFFF" d="M22.3,6.7c0,1.7-0.1,3.4-0.1,5.1c0,8.3,0,16.6,0,24.9c0,0.4,0,0.9,0,1.4c-0.6,0-1.2,0-1.9,0
					c0-0.3-0.1-0.5-0.1-0.8c0-9.9,0-19.9,0-29.8c0-0.3,0-0.6,0.1-0.9C20.9,6.7,21.6,6.7,22.3,6.7z"/>
			</g>
		</g>
		<g>
			<g>
				<g>
					<path fill="#FFFFFF" d="M32.7,6.7c0.8,0.4,1.6,0.8,1.7,1.9c0.1,1.1-0.6,2.1-1.6,2.2c-1.1,0.2-2.1-0.4-2.4-1.4
						c-0.3-1.1,0.2-2.1,1.2-2.6c0.1-0.1,0.3-0.1,0.4-0.2C32.2,6.7,32.5,6.7,32.7,6.7z"/>
				</g>
			</g>
			<g>
				<g>
					<path fill="#FFFFFF" d="M29.9,22.7c-0.8,0-1.4,0-2.1,0c0.9-3.1,1.7-6.1,2.5-9.1c-0.1,0-0.2-0.1-0.4-0.1
						c-0.1,0.3-0.2,0.6-0.3,0.8c-0.4,1.5-0.9,3.1-1.3,4.6c-0.2,0.6-0.4,1.1-1.2,0.9c-0.8-0.2-0.7-0.8-0.5-1.4c0.5-1.8,1-3.6,1.5-5.4
						c0.3-1.1,1-1.7,2.1-1.7c1.3,0,2.6,0,4,0c1.1,0,1.9,0.7,2.2,1.7c0.5,1.8,1,3.7,1.6,5.5c0.2,0.6,0.1,1-0.5,1.2
						c-0.6,0.2-1-0.1-1.1-0.7c-0.4-1.6-0.9-3.2-1.3-4.8c-0.1-0.3-0.2-0.6-0.3-0.9c-0.1,0-0.2,0.1-0.4,0.1c0.8,3,1.7,6,2.5,9.1
						c-0.7,0-1.4,0-2.2,0c0,1.7,0,2,0,3.6c0,0.4,0,0.8,0,1.2c0,0.7-0.4,1.1-1.1,1.1c-0.7,0-1.1-0.4-1.1-1.2c0-1.6,0-1.9,0-3.5
						c0-0.4,0-0.8,0-1.2c-0.1,0-0.2,0-0.4,0c0,0.3-0.1,0.6-0.1,0.9c0,1.7,0,2,0,3.8c0,0.7-0.3,1.2-1.1,1.2c-0.7,0-1.1-0.5-1.1-1.2
						c0-0.3,0-0.6,0-0.9C29.9,24.8,29.9,24.5,29.9,22.7z"/>
				</g>
			</g>
		</g>
		<g>
			<g>
				<g>
					<path fill="#FFFFFF" d="M11.1,6.7c0.9,0.4,1.6,0.9,1.7,2c0.1,1-0.6,2-1.6,2.2c-1.1,0.2-2-0.4-2.4-1.3c-0.4-1,0.1-2.1,1-2.6
						c0.2-0.1,0.4-0.2,0.6-0.2C10.6,6.7,10.8,6.7,11.1,6.7z"/>
				</g>
			</g>
			<g>
				<g>
					<path fill="#FFFFFF" d="M7.8,14.5c0,1.4,0,2.9,0,4.3c0,0.3,0.1,0.6,0,0.8c-0.2,0.3-0.5,0.8-0.8,0.9c-0.5,0.1-0.9-0.3-0.9-0.8
						c0-2.1-0.1-4.2,0-6.2c0-1.2,1-1.9,2.2-1.9c1.6,0,3.2,0,4.8,0c1.3,0,2.2,0.9,2.2,2.2c0,1.9,0,3.8,0,5.7c0,0.6-0.1,1.1-0.8,1.1
						c-0.7,0-0.9-0.5-0.9-1.1c0-1.4,0-2.8,0-4.1c0-0.3-0.1-0.5-0.1-0.8c-0.1,0-0.2,0-0.3,0c0,0.3-0.1,0.6-0.1,0.9
						c0,4.4,0,7.3,0,11.7c0,0.4,0,0.8-0.1,1c-0.3,0.3-0.8,0.6-1.1,0.5c-0.7-0.1-0.9-0.6-0.9-1.3c0-2.4,0-3.5,0-5.9
						c0-0.3,0-0.6,0-0.9c-0.1,0-0.2,0-0.3,0c0,0.3-0.1,0.6-0.1,0.9c0,2.5,0,3.6,0,6.1c0,0.6-0.3,1.1-0.9,1.1c-0.4,0-0.8-0.3-1.1-0.6
						c-0.2-0.2-0.1-0.6-0.1-1c0-4.4,0-7.3,0-11.7c0-0.3-0.1-0.6-0.1-0.9C8.1,14.4,7.9,14.4,7.8,14.5z"/>
				</g>
			</g>
		</g>
		<g>
			<path fill="#FFFFFF" d="M4,32.4c0.3-0.1,0.8-0.1,1.3-0.1c0.7,0,1.1,0.1,1.5,0.4c0.3,0.2,0.4,0.5,0.4,0.9c0,0.5-0.3,1-0.9,1.2v0
				c0.5,0.1,1.1,0.5,1.1,1.3c0,0.5-0.2,0.8-0.4,1.1c-0.4,0.3-1,0.5-1.8,0.5c-0.5,0-0.8,0-1.1-0.1V32.4z M4.7,34.6h0.6
				c0.7,0,1.1-0.4,1.1-0.9c0-0.6-0.5-0.9-1.2-0.9c-0.3,0-0.5,0-0.6,0V34.6z M4.7,37.1c0.1,0,0.3,0,0.6,0c0.7,0,1.4-0.3,1.4-1
				c0-0.7-0.6-1-1.4-1H4.7V37.1z"/>
			<path fill="#FFFFFF" d="M12.8,35c0,1.8-1.1,2.8-2.5,2.8C9,37.8,8,36.7,8,35.1c0-1.7,1-2.8,2.5-2.8C11.9,32.3,12.8,33.4,12.8,35z
				 M8.7,35c0,1.1,0.6,2.2,1.7,2.2c1.1,0,1.7-1,1.7-2.2c0-1.1-0.6-2.2-1.7-2.2C9.3,32.8,8.7,33.9,8.7,35z"/>
			<path fill="#FFFFFF" d="M14.7,37.7v-2.3L13,32.4h0.8l0.7,1.5c0.2,0.4,0.4,0.7,0.5,1.1h0c0.1-0.3,0.3-0.7,0.5-1.1l0.8-1.5h0.8
				l-1.8,3v2.3H14.7z"/>
		</g>
		<g>
			<path fill="#FFFFFF" d="M30.4,37.4c-0.3,0.1-0.9,0.3-1.6,0.3c-0.8,0-1.5-0.2-2-0.7c-0.5-0.4-0.7-1.2-0.7-2c0-1.6,1.1-2.7,2.9-2.7
				c0.6,0,1.1,0.1,1.3,0.2l-0.2,0.6c-0.3-0.1-0.6-0.2-1.2-0.2c-1.3,0-2.1,0.8-2.1,2.1c0,1.3,0.8,2.1,2,2.1c0.4,0,0.8-0.1,0.9-0.1
				v-1.6h-1.1v-0.6h1.7V37.4z"/>
			<path fill="#FFFFFF" d="M32.1,32.4v5.3h-0.7v-5.3H32.1z"/>
			<path fill="#FFFFFF" d="M33.3,32.4c0.3-0.1,0.8-0.1,1.3-0.1c0.7,0,1.2,0.1,1.5,0.4c0.3,0.2,0.4,0.6,0.4,1c0,0.7-0.4,1.2-1,1.4v0
				c0.4,0.1,0.7,0.5,0.8,1.1c0.2,0.7,0.3,1.3,0.4,1.5h-0.7c-0.1-0.1-0.2-0.6-0.4-1.3c-0.2-0.7-0.4-1-1.1-1H34v2.3h-0.7V32.4z
				 M34,34.8h0.7c0.7,0,1.2-0.4,1.2-1c0-0.7-0.5-1-1.2-1c-0.3,0-0.6,0-0.7,0.1V34.8z"/>
			<path fill="#FFFFFF" d="M37.6,32.4h0.7v4.7h2.3v0.6h-3V32.4z"/>
		</g>
		<g>
			
				<ellipse transform="matrix(0.6629 -0.7487 0.7487 0.6629 2.3435 25.6355)" fill="#FFFFFF" cx="29.6" cy="10.2" rx="0.8" ry="0.5"/>
		</g>
		<g>
			
				<ellipse transform="matrix(0.7487 -0.6629 0.6629 0.7487 2.0631 25.8734)" fill="#FFFFFF" cx="35.2" cy="10.2" rx="0.5" ry="0.8"/>
		</g>
	</g>
</g>
</svg>
