<?xml version="1.0" encoding="utf-8"?>
<!-- Generator: Adobe Illustrator 16.0.0, SVG Export Plug-In . SVG Version: 6.00 Build 0)  -->
<!DOCTYPE svg PUBLIC "-//W3C//DTD SVG 1.1//EN" "http://www.w3.org/Graphics/SVG/1.1/DTD/svg11.dtd">
<svg version="1.1" id="Lady_Parking_1_" xmlns="http://www.w3.org/2000/svg" xmlns:xlink="http://www.w3.org/1999/xlink" x="0px"
	 y="0px" width="1000px" height="1000px" viewBox="0 0 1000 1000" enable-background="new 0 0 1000 1000" xml:space="preserve">
<g id="Lady_Parking">
	<g>
		<path fill="#D01C1F" d="M873.333,1000H126.667C57.778,1000,0,942.223,0,873.333V126.667C0,57.778,57.778,0,126.667,0h746.667
			C942.223,0,1000,57.778,1000,126.667v746.667C1000,942.223,942.223,1000,873.333,1000z"/>
	</g>
	<path fill="#FFFFFF" d="M462.223,166.667c-111.111-11.111-224.445-2.222-337.778-2.222c0,200,0,404.444,0,608.889
		c42.222,0,80,0,122.222,0c0-77.777,0-151.11,0-233.333c60,0,113.333,2.223,166.667,0c102.223-6.667,171.111-68.889,180-164.444
		C604.444,264.444,557.777,177.778,462.223,166.667z M406.667,426.667c-51.111,8.889-102.223,8.889-157.778,11.11
		c0-64.444,0-117.777,0-173.333c53.334,0,104.444-4.444,155.556,2.222c40,4.445,62.223,35.556,64.444,75.556
		C468.889,384.444,451.111,420,406.667,426.667z"/>
	<g>
		<g>
			<path fill="#FFFFFF" d="M771.111,268.889c17.777,8.889,33.333,17.778,35.556,40c2.222,24.445-11.111,46.667-33.334,51.111
				c-24.444,4.444-46.666-6.667-55.556-31.111c-6.666-22.222,4.445-46.667,26.667-55.555c4.444-2.222,6.667-2.222,11.111-4.445
				C760,268.889,764.444,268.889,771.111,268.889z"/>
		</g>
		<g>
			<path fill="#FFFFFF" d="M706.667,624.444c-17.778,0-31.111,0-46.667,0c20-68.889,37.777-135.556,55.556-202.222
				c-2.223,0-4.444,0-6.667,0c-2.222,4.444-4.444,11.11-6.666,15.555c-8.89,35.556-20,68.89-28.89,104.445
				c-4.444,13.333-11.11,26.666-26.666,20c-15.556-4.445-13.334-20-8.89-31.111c11.111-37.778,22.223-77.778,33.334-115.556
				c8.889-28.889,24.444-40,55.556-42.222c24.444,0,51.11,0,75.556,0c28.889,0,44.444,13.333,53.333,40
				c11.111,40,22.222,82.222,35.556,122.222c4.444,13.333,0,22.222-11.111,24.444c-13.333,4.444-22.223-2.223-26.667-15.556
				c-8.889-35.556-20-68.889-28.889-104.444c-2.222-6.667-6.667-15.556-8.889-22.222c-2.223,0-4.444,2.222-6.667,2.222
				c17.778,66.667,37.778,133.333,55.556,200c-15.556,0-31.111,0-46.667,0c0,22.223,0,42.223,0,62.223c0,24.444,0,46.666,0,71.11
				c0,17.778-6.666,26.667-24.443,28.889c-15.557,2.223-24.445-11.11-24.445-28.889c0-37.777,0-73.333,0-111.11
				c0-6.667,0-13.334,0-20c-2.222,0-4.444,0-6.666-2.223c-2.223,6.667-4.444,11.111-4.444,17.777c0,37.778,0,75.556,0,113.334
				c0,20-8.89,31.11-24.444,28.889c-17.778-2.223-24.445-13.333-24.445-28.889c0-35.556,0-71.111,0-108.89
				C706.667,642.223,706.667,635.556,706.667,624.444z"/>
		</g>
	</g>
</g>
</svg>
