<?xml version="1.0" encoding="utf-8"?>
<!-- Generator: Adobe Illustrator 19.2.1, SVG Export Plug-In . SVG Version: 6.00 Build 0)  -->
<svg version="1.1" id="Lady_Parking_1_" xmlns="http://www.w3.org/2000/svg" xmlns:xlink="http://www.w3.org/1999/xlink" x="0px"
	 y="0px" viewBox="0 0 45 45" enable-background="new 0 0 45 45" xml:space="preserve">
<g id="Lady_Parking">
	<g>
		<path d="M39.3,45L5.7,45C2.6,45,0,42.4,0,39.3L0,5.7C0,2.6,2.6,0,5.7,0l33.6,0C42.4,0,45,2.6,45,5.7l0,33.6
			C45,42.4,42.4,45,39.3,45z"/>
	</g>
	<path fill="#FFFFFF" d="M20.8,7.5C15.8,7,10.7,7.4,5.6,7.4c0,9,0,18.2,0,27.4c1.9,0,3.6,0,5.5,0c0-3.5,0-6.8,0-10.5
		c2.7,0,5.1,0.1,7.5,0c4.6-0.3,7.7-3.1,8.1-7.4C27.2,11.9,25.1,8,20.8,7.5z M18.3,19.2c-2.3,0.4-4.6,0.4-7.1,0.5c0-2.9,0-5.3,0-7.8
		c2.4,0,4.7-0.2,7,0.1c1.8,0.2,2.8,1.6,2.9,3.4C21.1,17.3,20.3,18.9,18.3,19.2z"/>
	<g>
		<g>
			<path fill="#FFFFFF" d="M34.7,12.1c0.8,0.4,1.5,0.8,1.6,1.8c0.1,1.1-0.5,2.1-1.5,2.3c-1.1,0.2-2.1-0.3-2.5-1.4
				c-0.3-1,0.2-2.1,1.2-2.5c0.2-0.1,0.3-0.1,0.5-0.2C34.2,12.1,34.4,12.1,34.7,12.1z"/>
		</g>
		<g>
			<path fill="#FFFFFF" d="M31.8,28.1c-0.8,0-1.4,0-2.1,0c0.9-3.1,1.7-6.1,2.5-9.1C32.1,19,32,19,31.9,19c-0.1,0.2-0.2,0.5-0.3,0.7
				c-0.4,1.6-0.9,3.1-1.3,4.7c-0.2,0.6-0.5,1.2-1.2,0.9c-0.7-0.2-0.6-0.9-0.4-1.4c0.5-1.7,1-3.5,1.5-5.2c0.4-1.3,1.1-1.8,2.5-1.9
				c1.1,0,2.3,0,3.4,0c1.3,0,2,0.6,2.4,1.8c0.5,1.8,1,3.7,1.6,5.5c0.2,0.6,0,1-0.5,1.1c-0.6,0.2-1-0.1-1.2-0.7
				c-0.4-1.6-0.9-3.1-1.3-4.7c-0.1-0.3-0.3-0.7-0.4-1c-0.1,0-0.2,0.1-0.3,0.1c0.8,3,1.7,6,2.5,9c-0.7,0-1.4,0-2.1,0c0,1,0,1.9,0,2.8
				c0,1.1,0,2.1,0,3.2c0,0.8-0.3,1.2-1.1,1.3c-0.7,0.1-1.1-0.5-1.1-1.3c0-1.7,0-3.3,0-5c0-0.3,0-0.6,0-0.9c-0.1,0-0.2,0-0.3-0.1
				c-0.1,0.3-0.2,0.5-0.2,0.8c0,1.7,0,3.4,0,5.1c0,0.9-0.4,1.4-1.1,1.3c-0.8-0.1-1.1-0.6-1.1-1.3c0-1.6,0-3.2,0-4.9
				C31.8,28.9,31.8,28.6,31.8,28.1z"/>
		</g>
	</g>
</g>
</svg>
