<?xml version="1.0" encoding="utf-8"?>
<!-- Generator: Adobe Illustrator 16.0.0, SVG Export Plug-In . SVG Version: 6.00 Build 0)  -->
<!DOCTYPE svg PUBLIC "-//W3C//DTD SVG 1.1//EN" "http://www.w3.org/Graphics/SVG/1.1/DTD/svg11.dtd">
<svg version="1.1" id="Lift" xmlns="http://www.w3.org/2000/svg" xmlns:xlink="http://www.w3.org/1999/xlink" x="0px" y="0px"
	 width="1000px" height="1000px" viewBox="0 0 1000 1000" enable-background="new 0 0 1000 1000" xml:space="preserve">
<g id="Lift_1_">
	<g>
		<path fill="#D01C1F" d="M873.333,1000H126.667C57.778,1000,0,942.223,0,873.333V126.667C0,57.778,57.778,0,126.667,0h746.667
			C942.223,0,1000,57.778,1000,126.667v746.667C1000,942.223,942.223,1000,873.333,1000z"/>
	</g>
	<g>
		<g>
			<path fill="#FFFFFF" d="M773.333,635.556c0,75.556,0,151.111,0,226.667c0,37.777-8.889,48.889-46.666,48.889
				c-153.334,0-306.667,0-460,0c-28.889,0-42.222-11.111-42.222-40c0-153.334,0-308.889,0-462.223
				c0-31.111,13.333-42.222,44.444-42.222c153.334,0,306.667,0,460,0c33.334,0,44.444,11.111,44.444,44.445
				C773.333,482.223,773.333,557.777,773.333,635.556z M275.556,860c151.111,0,300,0,448.889,0c0-151.111,0-300,0-448.889
				c-151.111,0-300,0-448.889,0C275.556,562.223,275.556,708.889,275.556,860z"/>
		</g>
		<g>
			<path fill="#FFFFFF" d="M702.223,173.333C720,217.778,711.111,246.667,680,268.889c-17.777,13.333-33.333,33.333-53.333,55.556
				c-26.667-28.889-55.556-53.333-75.556-82.222c-11.111-15.556-6.667-40-4.444-62.222c15.556,20,31.11,40,46.666,60
				c4.444-2.222,6.667-4.444,11.111-6.667c0-42.222,0-84.445,0-128.889c15.556,0,28.889,0,44.444,0c0,42.222,0,84.444,0,128.889
				c2.223,0,4.444,2.222,4.444,2.222C671.111,213.333,686.667,193.333,702.223,173.333z"/>
		</g>
		<g>
			<path fill="#FFFFFF" d="M446.667,237.778c-15.556-17.778-31.111-35.556-53.334-60c0,48.889,0,93.333,0,135.556
				c-15.556,0-28.889,0-44.444,0c0-42.222,0-86.667,0-133.333c-20,22.222-37.777,40-53.333,57.778
				c-8.889-33.333-13.333-64.444,15.556-86.667c20-15.556,37.777-37.778,60-60c26.666,28.889,55.556,51.111,73.333,80
				c11.111,15.555,8.889,42.222,11.111,62.222C453.333,235.556,448.889,237.778,446.667,237.778z"/>
		</g>
		<g>
			<path fill="#FFFFFF" d="M393.333,673.333c0,22.223,0,44.444,0,64.444c0,24.445,0,48.89,0,73.334
				c0,13.333-2.222,24.444-17.777,24.444c-20,0-17.778-13.333-17.778-24.444c-2.222-71.111,0-146.667,0-217.778
				c0-8.889,0-17.777,0-24.444c-2.222,0-6.666,0-6.666,0v75.556c0,0,2.222,26.667-15.556,26.667
				C320,671.111,320,653.333,320,644.444c-2.223-28.889-2.223-57.777,0-86.667c0-28.889,15.556-42.222,44.444-42.222
				c24.444,0,51.111,0,75.556,0c26.667,0,40,13.333,42.223,40c2.222,31.111,2.222,62.222,0,93.333c0,8.889,0,24.444-15.556,24.444
				s-13.334-15.556-15.556-24.444c-2.223-26.666-2.223-77.777-2.223-77.777H440c0,0,0,171.111,0,242.222c0,6.667,0,24.444-20,24.444
				c-15.556,0-15.556-17.777-15.556-24.444c-2.222-40,0-73.333,0-113.333c0-8.889,0-15.556-2.222-24.444
				C397.777,673.333,395.556,673.333,393.333,673.333z"/>
		</g>
		<g>
			<path fill="#FFFFFF" d="M642.223,568.889c0,8.889,0,15.556,0,24.444c0,66.667,0,151.111,0,217.778
				c0,15.556-2.223,22.222-17.778,24.444c-15.556-2.223-17.777-6.667-20-24.444c0-40,0-97.778,0-137.778c-2.222,0-4.444,0-6.667,0
				c0,13.334,0,24.444,0,37.778c0,31.111,0,71.111,0,100c0,13.333-4.444,24.444-17.777,24.444c-13.333-2.223-20-11.111-20-24.444
				c0-68.889,0-146.667,0-215.556c0-8.889-2.223-24.444-2.223-24.444h-8.889c0,0,2.223,62.222,0,86.666
				c0,4.445,0,15.556-13.333,15.556s-13.333-8.889-13.333-15.556c0-37.777-2.223-75.555,2.222-113.333
				c2.223-11.111,20-24.444,33.333-26.667c28.89-4.444,57.778-2.222,86.667,0c22.223,0,35.556,13.334,35.556,35.556
				c0,33.334,0,66.667,0,100c0,6.667-2.223,20-15.556,20s-11.111-13.333-11.111-20c-2.222-26.666,0-53.333,0-82.222
				C651.111,568.889,646.667,568.889,642.223,568.889z"/>
		</g>
		<g>
			<path fill="#FFFFFF" d="M602.223,504.444c-22.223,0-35.556-13.333-35.556-35.556c0-20,15.556-35.556,35.556-35.556
				s35.555,15.556,35.555,35.556C637.777,491.111,624.444,504.444,602.223,504.444z"/>
		</g>
		<g>
			<path fill="#FFFFFF" d="M433.333,468.889c0,20-15.556,35.556-35.556,35.556s-35.555-15.556-35.555-35.556
				c0-17.777,17.777-35.556,35.555-35.556C417.777,433.333,433.333,451.111,433.333,468.889z"/>
		</g>
	</g>
</g>
</svg>
