<?xml version="1.0" encoding="utf-8"?>
<!-- Generator: Adobe Illustrator 19.2.1, SVG Export Plug-In . SVG Version: 6.00 Build 0)  -->
<svg version="1.1" id="Limousine_Service_1_" xmlns="http://www.w3.org/2000/svg" xmlns:xlink="http://www.w3.org/1999/xlink"
	 x="0px" y="0px" viewBox="0 0 45 45" enable-background="new 0 0 45 45" xml:space="preserve">
<g id="Limousine_Service">
	<g>
		<g>
			<path d="M39.3,45H5.7C2.6,45,0,42.4,0,39.3V5.7C0,2.6,2.6,0,5.7,0h33.6C42.4,0,45,2.6,45,5.7v33.6C45,42.4,42.4,45,39.3,45z"/>
		</g>
	</g>
	<g>
		<g enable-background="new    ">
			<path fill="#FFFFFF" d="M13,5.3h1.4v4.9h2.4v1.2H13V5.3z"/>
			<path fill="#FFFFFF" d="M19,5.3v6.1h-1.4V5.3H19z"/>
			<path fill="#FFFFFF" d="M25.3,9.1c0-0.7-0.1-1.6-0.1-2.5h0c-0.2,0.8-0.5,1.6-0.7,2.3l-0.7,2.4h-1.1l-0.6-2.3
				c-0.2-0.7-0.4-1.6-0.5-2.4h0c0,0.8-0.1,1.8-0.1,2.5l-0.1,2.3H20l0.4-6.1h1.8l0.6,2C23,8,23.2,8.8,23.3,9.5h0
				c0.2-0.7,0.4-1.5,0.6-2.2l0.6-2h1.8l0.3,6.1h-1.3L25.3,9.1z"/>
			<path fill="#FFFFFF" d="M33.3,8.3c0,2-1.2,3.2-3,3.2c-1.8,0-2.9-1.4-2.9-3.1c0-1.8,1.2-3.2,3-3.2C32.3,5.2,33.3,6.6,33.3,8.3z
				 M28.9,8.4c0,1.2,0.6,2,1.5,2c0.9,0,1.5-0.9,1.5-2.1c0-1.1-0.5-2-1.5-2C29.5,6.3,28.9,7.2,28.9,8.4z"/>
		</g>
	</g>
</g>
<g>
	<path fill="#FFFFFF" d="M36.3,25.7c-1.1-0.7-1.5-1.6-2-2.7c-0.4-0.9-0.7-1.7-1.1-2.6c-0.8-1.7-2-2.7-4-2.5c-0.3,0-12.2,0-12.7,0
		c-3.6-0.1-4.4,1.3-5.3,3.8c-0.3,0.8-0.6,1.5-1,2.2C9.9,24.5,9.5,25,9,25.4c-0.9,0.7-1.6,1.6-1.5,2.8C7.7,30,8,31.8,8.3,33.6
		c0.1,0.3,0.4,0.8,0.7,0.8c1,0.1,0.9,0.8,0.9,1.5c0,2.7,0,2.6,2.7,2.6c0.8,0,1.1-0.3,1.1-1.1c0-0.9,0-1.8,0-2.6c5,0,12.9,0,17.8,0
		c0,0.5,0,0.8,0,1.2c0,2.7,0,2.6,2.7,2.5c0.8,0,1.1-0.4,1.1-1.1c0-0.9,0-1.7,0-2.6c0.1,0,0.3,0.1,0.4,0.1c0.4-0.6,1-1.2,1.2-1.8
		c0.4-1.4,0.5-2.9,0.7-4.3C37.6,27.5,37.3,26.3,36.3,25.7z M11.7,30.2c-1,0-1.8-0.8-1.8-1.8c0-0.9,0.9-1.7,1.9-1.7
		c0.9,0,1.7,0.8,1.7,1.7C13.5,29.4,12.7,30.2,11.7,30.2z M27.1,31.5h-9.6c-0.8,0-1.4-0.6-1.4-1.4s-0.4-1.4,0.4-1.4h11.6
		c0.8,0,0.4,0.6,0.4,1.4S27.8,31.5,27.1,31.5z M12.2,24.4c0-0.1,0-0.1,0-0.2c1.7-4.4,1.7-4.4,6.4-4.4c2.6,0,8.1-0.1,10.7,0
		c0.6,0,1.5,0.5,1.9,1c0.7,1,1.1,2.2,1.6,3.5C26.9,24.4,18.1,24.4,12.2,24.4z M33.2,30.2c-1,0-1.7-0.7-1.7-1.8c0-1,0.7-1.7,1.7-1.7
		s1.8,0.8,1.8,1.7C35,29.5,34.2,30.2,33.2,30.2z"/>
</g>
</svg>
