<?xml version="1.0" encoding="utf-8"?>
<!-- Generator: Adobe Illustrator 16.0.0, SVG Export Plug-In . SVG Version: 6.00 Build 0)  -->
<!DOCTYPE svg PUBLIC "-//W3C//DTD SVG 1.1//EN" "http://www.w3.org/Graphics/SVG/1.1/DTD/svg11.dtd">
<svg version="1.1" id="Limousine_Service_1_" xmlns="http://www.w3.org/2000/svg" xmlns:xlink="http://www.w3.org/1999/xlink"
	 x="0px" y="0px" width="1000px" height="1000px" viewBox="0 0 1000 1000" enable-background="new 0 0 1000 1000"
	 xml:space="preserve">
<g id="Limousine_Service">
	<g>
		<g>
			<path fill="#D01C1F" d="M873.333,1000H126.667C57.778,1000,0,942.223,0,873.333V126.667C0,57.778,57.778,0,126.667,0h746.667
				C942.223,0,1000,57.778,1000,126.667v746.667C1000,942.223,942.223,1000,873.333,1000z"/>
		</g>
	</g>
	<g>
		<g enable-background="new    ">
			<path fill="#FFFFFF" d="M288.889,117.778H320v108.889h53.333v26.667h-84.444V117.778z"/>
			<path fill="#FFFFFF" d="M422.223,117.778v135.556h-31.111V117.778H422.223z"/>
			<path fill="#FFFFFF" d="M562.223,202.222c0-15.556-2.223-35.556-2.223-55.556l0,0c-4.444,17.778-11.111,35.556-15.556,51.111
				l-15.556,53.333h-24.444L491.111,200c-4.444-15.556-8.889-35.556-11.111-53.333l0,0c0,17.778-2.223,40-2.223,55.556
				l-2.222,51.111h-31.111l8.889-135.556h40l13.334,44.444c4.444,15.556,8.889,33.333,11.11,48.889l0,0
				c4.445-15.556,8.89-33.333,13.334-48.889l13.333-44.444h40l6.667,135.556h-28.889V202.222z"/>
			<path fill="#FFFFFF" d="M740,184.444c0,44.444-26.667,71.111-66.667,71.111s-64.444-31.111-64.444-68.889
				c0-40,26.667-71.111,66.667-71.111C717.777,115.556,740,146.667,740,184.444z M642.223,186.667
				c0,26.667,13.333,44.445,33.333,44.445s33.333-20,33.333-46.667C708.889,160,697.777,140,675.556,140
				C655.556,140,642.223,160,642.223,186.667z"/>
		</g>
	</g>
</g>
<g>
	<path fill="#FFFFFF" d="M806.667,571.111c-24.444-15.556-33.334-35.556-44.444-60c-8.89-20-15.556-37.778-24.445-57.778
		c-17.777-37.777-44.444-60-88.889-55.555c-6.666,0-271.111,0-282.222,0c-80-2.222-97.778,28.889-117.778,84.445
		c-6.667,17.777-13.333,33.333-22.222,48.889C220,544.444,211.111,555.556,200,564.444C180,580,164.444,600,166.667,626.667
		c4.445,40,11.111,80,17.778,120c2.222,6.666,8.889,17.777,15.556,17.777c22.222,2.223,20,17.777,20,33.333c0,60,0,57.778,60,57.778
		c17.777,0,24.444-6.667,24.444-24.444c0-20,0-40,0-57.778c111.111,0,286.667,0,395.556,0c0,11.111,0,17.778,0,26.667
		c0,60,0,57.777,60,55.556c17.777,0,24.444-8.889,24.444-24.444c0-20,0-37.778,0-57.778c2.223,0,6.667,2.223,8.889,2.223
		c8.89-13.333,22.223-26.667,26.667-40c8.889-31.111,11.111-64.444,15.556-95.556C835.556,611.111,828.889,584.444,806.667,571.111z
		 M260,671.111c-22.222,0-40-17.778-40-40c0-20,20-37.778,42.222-37.778c20,0,37.778,17.778,37.778,37.778
		C300,653.333,282.222,671.111,260,671.111z M602.223,700H388.889c-17.777,0-31.111-13.333-31.111-31.111
		c0-17.777-8.889-31.111,8.89-31.111h257.777c17.778,0,8.889,13.334,8.889,31.111C633.333,686.667,617.777,700,602.223,700z
		 M271.111,542.223c0-2.223,0-2.223,0-4.445C308.889,440,308.889,440,413.333,440c57.778,0,180-2.223,237.778,0
		c13.333,0,33.333,11.111,42.222,22.223c15.556,22.222,24.444,48.889,35.556,77.777
		C597.777,542.223,402.223,542.223,271.111,542.223z M737.777,671.111c-22.222,0-37.777-15.556-37.777-40
		c0-22.223,15.556-37.778,37.777-37.778c22.223,0,40,17.778,40,37.778C777.777,655.556,760,671.111,737.777,671.111z"/>
</g>
</svg>
