<?xml version="1.0" encoding="utf-8"?>
<!-- Generator: Adobe Illustrator 16.0.0, SVG Export Plug-In . SVG Version: 6.00 Build 0)  -->
<!DOCTYPE svg PUBLIC "-//W3C//DTD SVG 1.1//EN" "http://www.w3.org/Graphics/SVG/1.1/DTD/svg11.dtd">
<svg version="1.1" id="Isolation_Mode" xmlns="http://www.w3.org/2000/svg" xmlns:xlink="http://www.w3.org/1999/xlink" x="0px"
	 y="0px" width="1000px" height="1000px" viewBox="0 0 1000 1000" enable-background="new 0 0 1000 1000" xml:space="preserve">
<g id="Lost__x26__Found">
	<g>
		<path fill="#D01C1F" d="M873.333,1000H126.667C57.778,1000,0,942.223,0,873.333V126.667C0,57.778,57.778,0,126.667,0h746.667
			C942.223,0,1000,57.778,1000,126.667v746.667C1000,942.223,942.223,1000,873.333,1000z"/>
	</g>
	<path fill="#FFFFFF" d="M593.333,322.222c28.89,0,55.556,0,84.444,0c0,140,0,280,0,420c-113.333,0-228.889,0-342.222,0
		c0-140,0-280,0-420c8.889,0,17.777,0,26.667,0c8.889,0,17.777,0,28.889,0c8.889,0,17.777,0,28.889,0V320
		c0-17.778,0-37.778,0-55.556c0-4.444,0-6.667,2.223-11.111c2.222-11.111,11.11-17.778,20-22.222
		c6.666-2.223,13.333-4.445,22.222-4.445c31.111,0,60,0,91.111,0c8.889,0,15.556,2.222,22.222,4.445
		c8.89,4.444,15.556,11.111,17.778,22.222c0,2.222,0,4.444,0,8.889c0,20,0,37.778,0,57.778C593.333,320,593.333,320,593.333,322.222
		z M560,260c-4.444,0-111.111,0-111.111,0c0,20,0,40,0,62.222c37.778,0,75.556,0,111.111,0C560,300,560,280,560,260z"/>
	<path fill="#FFFFFF" d="M302.223,320c0,140,0,280,0,420H300c-15.556,0-31.111,0-46.667,0c-24.445,0-42.222-11.111-53.333-33.333
		c-4.444-8.89-6.667-17.778-6.667-28.89c0-2.222,0-2.222,0-4.444c0-97.777,0-193.333,0-291.111
		c0-26.667,13.333-44.444,35.555-57.778c8.889-4.444,17.778-6.667,28.889-6.667C271.111,320,286.667,320,302.223,320
		C300,320,302.223,320,302.223,320z"/>
	<path fill="#FFFFFF" d="M708.889,320L708.889,320c17.778,0,33.334,0,46.667,0c28.889,0,53.333,22.222,60,51.111
		c0,4.444,2.222,8.889,2.222,13.333c0,95.556,0,193.333,0,288.889c0,11.111-2.222,20-6.666,28.89
		c-8.889,20-24.444,31.11-44.444,35.555c-4.444,0-8.89,2.223-13.334,2.223c-15.556,0-28.889,0-44.444,0h-2.222
		C708.889,600,708.889,460,708.889,320z"/>
	<g>
		<path fill="#D01C1F" d="M528.889,393.333c53.334,0,95.556,40,102.223,91.111c6.666,51.111-28.889,106.667-88.889,115.556
			c-20,2.223-40,0-57.778-8.889c-4.444-2.223-6.667-2.223-11.111,2.222c-22.222,22.223-44.444,44.444-66.666,68.89
			c-8.89,8.889-20,11.11-31.111,8.889c-11.111-2.223-17.778-11.111-20-24.444c-2.223-11.111,2.222-20,8.889-26.667
			c22.223-22.223,44.444-44.444,66.667-66.667c4.444-4.444,4.444-6.666,2.222-11.11c-26.666-62.223,8.89-131.111,75.556-144.445
			C517.777,393.333,522.223,393.333,528.889,393.333z M442.223,495.556C440,540,477.777,584.444,528.889,584.444
			c48.889,0,88.889-40,88.889-86.667c0-48.889-40-88.889-88.889-88.889S442.223,448.889,442.223,495.556z M444.444,560
			c0,0-2.222,2.223-4.444,2.223c-13.333,13.333-24.444,24.444-37.777,37.777c-8.89,8.889-17.778,17.777-26.667,26.667
			c-4.444,4.444-6.667,8.889-6.667,15.556c2.223,6.666,4.444,11.11,11.111,13.333c6.667,2.222,11.111,0,17.777-4.444
			c22.223-22.223,44.445-44.444,66.667-66.667c2.223-2.222,2.223-2.222,2.223-4.444c0,0,0,0-2.223,0
			C457.777,575.556,451.111,566.667,444.444,560z"/>
		<path fill="#D01C1F" d="M468.889,493.333c0-28.889,28.889-55.556,57.778-55.556c2.222,0,4.444,2.223,6.666,2.223
			c-2.222,2.223-2.222,2.223-4.444,2.223c-11.111,0-22.222,4.444-31.111,13.333c-11.11,8.889-17.777,22.222-20,37.777v2.223
			c0,2.222-2.222,2.222-4.444,4.444c0-2.223-2.222-2.223-2.222-4.444C468.889,495.556,468.889,493.333,468.889,493.333z"/>
	</g>
</g>
</svg>
