<?xml version="1.0" encoding="utf-8"?>
<!-- Generator: Adobe Illustrator 19.2.1, SVG Export Plug-In . SVG Version: 6.00 Build 0)  -->
<svg version="1.1" id="Isolation_Mode" xmlns="http://www.w3.org/2000/svg" xmlns:xlink="http://www.w3.org/1999/xlink" x="0px"
	 y="0px" viewBox="0 0 45 45" style="enable-background:new 0 0 45 45;" xml:space="preserve">
<style type="text/css">
	.st0{fill:#FFFFFF;}
</style>
<g id="Lost__x26__Found">
	<g>
		<path d="M39.3,45L5.7,45C2.6,45,0,42.4,0,39.3L0,5.7C0,2.6,2.6,0,5.7,0l33.6,0C42.4,0,45,2.6,45,5.7l0,33.6
			C45,42.4,42.4,45,39.3,45z"/>
	</g>
	<path class="st0" d="M26.7,14.5c1.3,0,2.5,0,3.8,0c0,6.3,0,12.6,0,18.9c-5.1,0-10.3,0-15.4,0c0-6.3,0-12.6,0-18.9
		c0.4,0,0.8,0,1.2,0c0.4,0,0.8,0,1.3,0c0.4,0,0.8,0,1.3,0c0,0,0-0.1,0-0.1c0-0.8,0-1.7,0-2.5c0-0.2,0-0.3,0.1-0.5
		c0.1-0.5,0.5-0.8,0.9-1c0.3-0.1,0.6-0.2,1-0.2c1.4,0,2.7,0,4.1,0c0.4,0,0.7,0.1,1,0.2c0.4,0.2,0.7,0.5,0.8,1c0,0.1,0,0.2,0,0.4
		c0,0.9,0,1.7,0,2.6C26.7,14.4,26.7,14.4,26.7,14.5z M25.2,11.7c-0.2,0-5,0-5,0c0,0.9,0,1.8,0,2.8c1.7,0,3.4,0,5,0
		C25.2,13.5,25.2,12.6,25.2,11.7z"/>
	<path class="st0" d="M13.6,14.4c0,6.3,0,12.6,0,18.9c0,0-0.1,0-0.1,0c-0.7,0-1.4,0-2.1,0c-1.1,0-1.9-0.5-2.4-1.5
		c-0.2-0.4-0.3-0.8-0.3-1.3c0-0.1,0-0.1,0-0.2c0-4.4,0-8.7,0-13.1c0-1.2,0.6-2,1.6-2.6c0.4-0.2,0.8-0.3,1.3-0.3
		C12.2,14.4,12.9,14.4,13.6,14.4C13.5,14.4,13.6,14.4,13.6,14.4z"/>
	<path class="st0" d="M31.9,14.4C31.9,14.4,31.9,14.4,31.9,14.4c0.8,0,1.5,0,2.1,0c1.3,0,2.4,1,2.7,2.3c0,0.2,0.1,0.4,0.1,0.6
		c0,4.3,0,8.7,0,13c0,0.5-0.1,0.9-0.3,1.3c-0.4,0.9-1.1,1.4-2,1.6c-0.2,0-0.4,0.1-0.6,0.1c-0.7,0-1.3,0-2,0c0,0-0.1,0-0.1,0
		C31.9,27,31.9,20.7,31.9,14.4z"/>
	<g>
		<path d="M23.8,17.7c2.4,0,4.3,1.8,4.6,4.1c0.3,2.3-1.3,4.8-4,5.2c-0.9,0.1-1.8,0-2.6-0.4c-0.2-0.1-0.3-0.1-0.5,0.1c-1,1-2,2-3,3.1
			c-0.4,0.4-0.9,0.5-1.4,0.4c-0.5-0.1-0.8-0.5-0.9-1.1c-0.1-0.5,0.1-0.9,0.4-1.2c1-1,2-2,3-3c0.2-0.2,0.2-0.3,0.1-0.5
			c-1.2-2.8,0.4-5.9,3.4-6.5C23.3,17.7,23.5,17.7,23.8,17.7z M19.9,22.3c-0.1,2,1.6,4,3.9,4c2.2,0,4-1.8,4-3.9c0-2.2-1.8-4-4-4
			C21.6,18.4,19.9,20.2,19.9,22.3z M20,25.2c0,0-0.1,0.1-0.2,0.1c-0.6,0.6-1.1,1.1-1.7,1.7c-0.4,0.4-0.8,0.8-1.2,1.2
			c-0.2,0.2-0.3,0.4-0.3,0.7c0.1,0.3,0.2,0.5,0.5,0.6c0.3,0.1,0.5,0,0.8-0.2c1-1,2-2,3-3c0.1-0.1,0.1-0.1,0.1-0.2c0,0,0,0-0.1,0
			C20.6,25.9,20.3,25.5,20,25.2z"/>
		<path d="M21.1,22.2c0-1.3,1.3-2.5,2.6-2.5c0.1,0,0.2,0.1,0.3,0.1c-0.1,0.1-0.1,0.1-0.2,0.1c-0.5,0-1,0.2-1.4,0.6
			c-0.5,0.4-0.8,1-0.9,1.7c0,0,0,0.1,0,0.1c0,0.1-0.1,0.1-0.2,0.2c0-0.1-0.1-0.1-0.1-0.2C21.1,22.3,21.1,22.2,21.1,22.2z"/>
	</g>
</g>
</svg>
