<?xml version="1.0" encoding="utf-8"?>
<!-- Generator: Adobe Illustrator 19.2.1, SVG Export Plug-In . SVG Version: 6.00 Build 0)  -->
<svg version="1.1" id="Meeting_Point" xmlns="http://www.w3.org/2000/svg" xmlns:xlink="http://www.w3.org/1999/xlink" x="0px"
	 y="0px" viewBox="0 0 45 45" enable-background="new 0 0 45 45" xml:space="preserve">
<g id="Meeting_Point_1_">
	<g>
		<path d="M39.3,45L5.7,45C2.6,45,0,42.4,0,39.3L0,5.7C0,2.6,2.6,0,5.7,0l33.6,0C42.4,0,45,2.6,45,5.7l0,33.6
			C45,42.4,42.4,45,39.3,45z"/>
	</g>
	<path fill="#FFFFFF" d="M27.6,31c-0.6,0-1.2,0-1.9,0c0-0.2,0-0.3,0-0.4c0-1.8,0-3.7,0-5.5c0-0.2-0.3-0.4-0.7-0.3c0,2.1,0,4.2,0,6.3
		c-0.3,0-0.2,0-0.4,0c-1.1,0-2,0-3.1,0c-0.3,0-0.4-0.1-0.4-0.4c0-1.8,0-3.7,0-5.5c0-0.1,0-0.2,0-0.3c0-0.1-0.4-0.1-0.4-0.1
		c0,0-0.1,0.1-0.1,0.1c0,0.1,0,0.2,0,0.3c0,1.8,0,3.6,0,5.5c0,0.3-0.1,0.5-0.4,0.5c-0.4,0-0.8,0-1.2,0c-0.2,0-0.3-0.1-0.3-0.3
		c0-2.1,0-4.3,0-6.4c0-0.9,0.8-1.6,1.7-1.6c1.9,0,3.8,0,5.7,0c0.9,0,1.7,0.7,1.7,1.6c0,2.1,0,4.3,0,6.4C27.6,30.8,27.6,30.9,27.6,31
		z"/>
	<path fill="#FFFFFF" d="M15,14.4c-0.1,0-0.3,0-0.4,0c-2.1,0-4.1,0-6.2,0c-0.2,0-0.4-0.1-0.6-0.2c-0.7-0.7-1.4-1.4-2.1-2.1
		c-0.1-0.1-0.1-0.2-0.3-0.3c1.7,0,3.3,0,5,0c-1.7-1.7-3.3-3.3-5-5c0.7-0.7,1.3-1.3,1.9-1.9c1.6,1.6,3.3,3.3,5,5c0-1.7,0-3.3,0-4.9
		c0.1,0.1,0.2,0.1,0.3,0.2c0.7,0.7,1.4,1.4,2.2,2.2C14.9,7.4,15,7.6,15,7.8c0,2.1,0,4.2,0,6.3C15,14.2,15,14.3,15,14.4z"/>
	<path fill="#FFFFFF" d="M12.4,40.1c0-1.6,0-3.2,0-4.9c-1.7,1.7-3.4,3.4-5,5c-0.7-0.7-1.3-1.3-1.9-1.9c1.6-1.6,3.2-3.2,4.9-4.9
		c0,0,0-0.1-0.1-0.1c-1.6,0-3.2,0-4.9,0c0.1-0.2,0.2-0.2,0.2-0.3c0.7-0.7,1.5-1.5,2.2-2.2c0.1-0.1,0.3-0.2,0.4-0.2
		c2.2,0,4.3,0,6.5,0c0,0,0.1,0,0.2,0c0,0.1,0,0.3,0,0.4c0,2,0,4.1,0,6.1c0,0.3-0.1,0.5-0.3,0.7c-0.8,0.7-1.5,1.5-2.3,2.3
		C12.5,40.1,12.4,40.1,12.4,40.1z"/>
	<path fill="#FFFFFF" d="M33.9,4.9c0,1.7,0,3.3,0,4.9c1.7-1.7,3.3-3.3,4.9-4.9c0.7,0.7,1.3,1.3,1.8,1.9c-1.6,1.6-3.2,3.2-4.8,4.8
		c0,0,0,0.1,0.1,0.1c1.6,0,3.2,0,4.9,0c-0.1,0.2-0.2,0.2-0.2,0.3c-0.7,0.7-1.5,1.5-2.2,2.2c-0.1,0.1-0.3,0.2-0.4,0.2
		c-2.2,0-4.3,0-6.5,0c0,0-0.1,0-0.2,0c0-0.1,0-0.3,0-0.4c0-2,0-4.1,0-6.1c0-0.2,0.1-0.4,0.2-0.6c0.7-0.7,1.4-1.4,2.1-2.1
		C33.6,5.1,33.7,5,33.9,4.9z"/>
	<path fill="#FFFFFF" d="M31.3,30.6c0.1,0,0.3,0,0.4,0c2.1,0,4.1,0,6.2,0c0.2,0,0.4,0.1,0.6,0.2c0.8,0.8,1.5,1.5,2.4,2.4
		c-1.7,0-3.3,0-5,0c1.7,1.7,3.3,3.3,5,5c-0.7,0.7-1.3,1.3-1.9,1.9c-1.6-1.6-3.3-3.3-5-5c0,1.7,0,3.3,0,5c-0.1-0.1-0.2-0.1-0.3-0.2
		c-0.7-0.7-1.5-1.5-2.2-2.2c-0.1-0.1-0.2-0.3-0.2-0.4c0-2.2,0-4.3,0-6.5C31.2,30.8,31.2,30.7,31.3,30.6z"/>
	<path fill="#FFFFFF" d="M11.9,28.9c0-0.2,0-0.3,0-0.5c0-2,0-4,0-6c0-1.2,0.6-1.9,1.9-1.9c1.8,0,3.5,0,5.3,0c1,0,1.6,0.5,1.8,1.2
		c0,0.2,0,0.1,0,0.3c-0.4,0-0.7,0-1,0.1c-1,0.1-1.9,1.1-1.9,2.1c0,1.4,0,2.8,0,4.2c0,0.3-0.1,0.5-0.4,0.5c-1.1,0-1.6,0-2.7,0
		c-0.3,0-0.5-0.1-0.4-0.4c0-1.8,0-3.6,0-5.4c0-0.1,0-0.2,0-0.3c0-0.1-0.3-0.1-0.4-0.1c0,0-0.1,0.1-0.1,0.1c0,0.1,0,0.2,0,0.3
		c0,1.8,0,3.6,0,5.5c0,0.3-0.1,0.5-0.4,0.4C12.9,28.8,12.4,28.9,11.9,28.9z"/>
	<path fill="#FFFFFF" d="M28.5,28.8c0-1.4,0-2.8,0-4.2c0-0.3,0-0.6-0.1-0.9c-0.2-0.9-1-1.7-2.1-1.8c-0.6,0-1.1,0.2-1-0.3
		c0.2-0.7,0.8-1.1,1.5-1.2c1.5,0,2.9,0,4.4,0c0.5,0,1.1,0,1.6,0c0.9,0.1,1.6,0.7,1.6,1.6c0,2.1,0,4.3,0,6.4c0,0.2-0.1,0.3-0.3,0.3
		c-0.4,0-0.9,0-1.3,0c-0.3,0-0.4-0.1-0.4-0.4c0-1.7,0-3.5,0-5.2c0-0.2-0.1-0.5-0.1-0.7c-0.3,0.2-0.5,0.5-0.5,0.7c0,1.7,0,3.5,0,5.2
		c0,0.3-0.1,0.4-0.4,0.4c-1.1,0-1.4,0-2.5,0C28.8,28.9,28.7,28.9,28.5,28.8z"/>
	<path fill="#FFFFFF" d="M14.2,17.7c0-1.2,1-2.2,2.2-2.2c1.2,0,2.2,1,2.2,2.2c0,1.2-1,2.2-2.2,2.2C15.2,19.9,14.2,18.9,14.2,17.7z"
		/>
	<path fill="#FFFFFF" d="M25.3,13.8c0,1.2-1,2.2-2.2,2.2c-1.2,0-2.2-1-2.2-2.2c0-1.2,1-2.2,2.2-2.2C24.3,11.6,25.3,12.6,25.3,13.8z"
		/>
	<path fill="#FFFFFF" d="M32,17.7c0,1.2-1,2.2-2.2,2.2c-1.2,0-2.2-1-2.2-2.2c0-1.2,1-2.2,2.2-2.2C31,15.4,32,16.4,32,17.7z"/>
	<path fill="#FFFFFF" d="M23.1,17.6c1.2,0,2.2,1,2.2,2.2c0,1.2-1,2.2-2.2,2.2c-1.2,0-2.2-1-2.2-2.2C20.9,18.6,21.9,17.6,23.1,17.6z"
		/>
</g>
</svg>
