<?xml version="1.0" encoding="utf-8"?>
<!-- Generator: Adobe Illustrator 16.0.0, SVG Export Plug-In . SVG Version: 6.00 Build 0)  -->
<!DOCTYPE svg PUBLIC "-//W3C//DTD SVG 1.1//EN" "http://www.w3.org/Graphics/SVG/1.1/DTD/svg11.dtd">
<svg version="1.1" id="Meeting_Point" xmlns="http://www.w3.org/2000/svg" xmlns:xlink="http://www.w3.org/1999/xlink" x="0px"
	 y="0px" width="1000px" height="1000px" viewBox="0 0 1000 1000" enable-background="new 0 0 1000 1000" xml:space="preserve">
<g id="Meeting_Point_1_">
	<g>
		<path fill="#D01C1F" d="M873.333,1000H126.667C57.778,1000,0,942.223,0,873.333V126.667C0,57.778,57.778,0,126.667,0h746.667
			C942.223,0,1000,57.778,1000,126.667v746.667C1000,942.223,942.223,1000,873.333,1000z"/>
	</g>
	<path fill="#FFFFFF" d="M613.333,688.889c-13.333,0-26.666,0-42.222,0c0-4.444,0-6.666,0-8.889c0-40,0-82.223,0-122.223
		c0-4.444-6.667-8.889-15.556-6.666c0,46.666,0,93.333,0,140c-6.667,0-4.444,0-8.889,0c-24.444,0-44.444,0-68.89,0
		c-6.666,0-8.889-2.223-8.889-8.889c0-40,0-82.223,0-122.223c0-2.223,0-4.444,0-6.667c0-2.222-8.889-2.222-8.889-2.222l-2.223,2.222
		c0,2.223,0,4.444,0,6.667c0,40,0,80,0,122.223c0,6.666-2.222,11.11-8.889,11.11c-8.889,0-17.777,0-26.666,0
		c-4.445,0-6.667-2.222-6.667-6.666c0-46.667,0-95.556,0-142.223c0-20,17.777-35.556,37.777-35.556c42.223,0,84.444,0,126.667,0
		c20,0,37.777,15.556,37.777,35.556c0,46.667,0,95.556,0,142.223C613.333,684.444,613.333,686.667,613.333,688.889z"/>
	<path fill="#FFFFFF" d="M333.333,320c-2.222,0-6.666,0-8.889,0c-46.667,0-91.111,0-137.778,0c-4.444,0-8.889-2.222-13.333-4.444
		c-15.556-15.556-31.111-31.111-46.667-46.667c-2.222-2.222-2.222-4.444-6.667-6.667c37.778,0,73.333,0,111.111,0
		C193.333,224.444,157.778,188.889,120,151.111c15.556-15.556,28.889-28.889,42.222-42.223
		c35.556,35.556,73.333,73.333,111.111,111.111c0-37.778,0-73.333,0-108.889c2.222,2.222,4.444,2.222,6.667,4.444
		c15.556,15.556,31.111,31.111,48.889,48.889c2.223,0,4.444,4.444,4.444,8.889c0,46.667,0,93.333,0,140
		C333.333,315.556,333.333,317.778,333.333,320z"/>
	<path fill="#FFFFFF" d="M275.556,891.111c0-35.556,0-71.111,0-108.89C237.778,820,200,857.777,164.444,893.333
		c-15.556-15.556-28.889-28.889-42.222-42.222c35.556-35.556,71.111-71.111,108.889-108.89c0,0,0-2.222-2.223-2.222
		c-35.555,0-71.111,0-108.889,0c2.222-4.444,4.444-4.444,4.444-6.667C140,717.777,157.778,700,173.333,684.444
		c2.222-2.223,6.667-4.444,8.889-4.444c48.889,0,95.556,0,144.445,0c0,0,2.222,0,4.444,0c0,2.222,0,6.666,0,8.889
		c0,44.444,0,91.111,0,135.556c0,6.667-2.223,11.111-6.667,15.556c-17.777,15.556-33.333,33.333-51.111,51.111
		C277.778,891.111,275.556,891.111,275.556,891.111z"/>
	<path fill="#FFFFFF" d="M753.333,108.889c0,37.778,0,73.333,0,108.889c37.778-37.778,73.334-73.333,108.89-108.889
		c15.555,15.556,28.889,28.889,40,42.223c-35.556,35.555-71.111,71.111-106.667,106.667c0,0,0,2.222,2.222,2.222
		c35.556,0,71.111,0,108.89,0c-2.223,4.444-4.444,4.444-4.444,6.667c-15.556,15.556-33.334,33.333-48.89,48.889
		c-2.222,2.222-6.666,4.444-8.889,4.444c-48.889,0-95.556,0-144.444,0c0,0-2.223,0-4.444,0c0-2.222,0-6.667,0-8.889
		c0-44.445,0-91.111,0-135.556c0-4.444,2.222-8.889,4.444-13.333c15.556-15.556,31.111-31.111,46.667-46.667
		C746.667,113.333,748.889,111.111,753.333,108.889z"/>
	<path fill="#FFFFFF" d="M695.556,680c2.222,0,6.667,0,8.889,0c46.667,0,91.111,0,137.778,0c4.444,0,8.889,2.223,13.333,4.444
		c17.777,17.778,33.333,33.333,53.333,53.333c-37.777,0-73.333,0-111.111,0c37.778,37.778,73.334,73.334,111.111,111.111
		c-15.556,15.556-28.889,28.889-42.222,42.223C831.111,855.556,793.333,817.777,755.556,780c0,37.777,0,73.333,0,111.111
		c-2.223-2.223-4.444-2.223-6.667-4.444c-15.556-15.556-33.333-33.334-48.889-48.89c-2.223-2.222-4.444-6.666-4.444-8.889
		c0-48.889,0-95.556,0-144.444C693.333,684.444,693.333,682.223,695.556,680z"/>
	<path fill="#FFFFFF" d="M264.444,642.223c0-4.445,0-6.667,0-11.111c0-44.444,0-88.889,0-133.334
		c0-26.666,13.333-42.222,42.223-42.222c40,0,77.777,0,117.777,0c22.223,0,35.556,11.111,40,26.667c0,4.444,0,2.222,0,6.666
		c-8.889,0-15.556,0-22.222,2.223C420,493.333,400,515.556,400,537.777c0,31.111,0,62.223,0,93.334
		c0,6.666-2.223,11.111-8.889,11.111c-24.444,0-35.556,0-60,0c-6.667,0-11.111-2.223-8.889-8.89c0-40,0-80,0-120
		c0-2.222,0-4.444,0-6.666c0-2.223-6.667-2.223-8.89-2.223l-2.222,2.223c0,2.222,0,4.444,0,6.666c0,40,0,80,0,122.223
		c0,6.667-2.223,11.111-8.889,8.889C286.667,640,275.556,642.223,264.444,642.223z"/>
	<path fill="#FFFFFF" d="M633.333,640c0-31.111,0-62.223,0-93.333c0-6.667,0-13.334-2.222-20c-4.444-20-22.223-37.778-46.667-40
		c-13.333,0-24.444,4.444-22.222-6.667c4.444-15.556,17.777-24.444,33.333-26.667c33.333,0,64.444,0,97.777,0
		c11.111,0,24.444,0,35.556,0c20,2.223,35.556,15.556,35.556,35.556c0,46.667,0,95.556,0,142.223c0,4.444-2.222,6.666-6.667,6.666
		c-8.889,0-20,0-28.889,0c-6.666,0-8.889-2.222-8.889-8.889c0-37.777,0-77.777,0-115.556c0-4.444-2.223-11.11-2.223-15.556
		c-6.666,4.445-11.11,11.111-11.11,15.556c0,37.778,0,77.778,0,115.556c0,6.667-2.223,8.889-8.89,8.889c-24.444,0-31.11,0-55.555,0
		C640,642.223,637.777,642.223,633.333,640z"/>
	<path fill="#FFFFFF" d="M315.556,393.333c0-26.667,22.222-48.889,48.889-48.889s48.889,22.222,48.889,48.889
		c0,26.667-22.222,48.889-48.889,48.889S315.556,420,315.556,393.333z"/>
	<path fill="#FFFFFF" d="M562.223,306.667c0,26.667-22.223,48.889-48.89,48.889c-26.666,0-48.889-22.222-48.889-48.889
		c0-26.667,22.223-48.889,48.889-48.889C540,257.778,562.223,280,562.223,306.667z"/>
	<path fill="#FFFFFF" d="M711.111,393.333c0,26.667-22.223,48.889-48.889,48.889c-26.667,0-48.89-22.223-48.89-48.889
		c0-26.667,22.223-48.889,48.89-48.889C688.889,342.222,711.111,364.444,711.111,393.333z"/>
	<path fill="#FFFFFF" d="M513.333,391.111c26.667,0,48.89,22.222,48.89,48.889c0,26.667-22.223,48.889-48.89,48.889
		c-26.666,0-48.889-22.222-48.889-48.889C464.444,413.333,486.667,391.111,513.333,391.111z"/>
</g>
</svg>
