<?xml version="1.0" encoding="utf-8"?>
<!-- Generator: Adobe Illustrator 19.2.1, SVG Export Plug-In . SVG Version: 6.00 Build 0)  -->
<svg version="1.1" id="MRT_1_" xmlns="http://www.w3.org/2000/svg" xmlns:xlink="http://www.w3.org/1999/xlink" x="0px" y="0px"
	 viewBox="0 0 45 45" enable-background="new 0 0 45 45" xml:space="preserve">
<g id="MRT">
	<g>
		<path d="M39.3,45L5.7,45C2.6,45,0,42.4,0,39.3L0,5.7C0,2.6,2.6,0,5.7,0l33.6,0C42.4,0,45,2.6,45,5.7l0,33.6
			C45,42.4,42.4,45,39.3,45z"/>
	</g>
	<path fill="#FFFFFF" d="M7.4,24.8c0-0.3,0-0.7,0-1c0-0.1,0-0.2,0-0.3c0.1-0.6,0.1-1.3,0.2-1.9c0.6-3.2,2.1-5.9,4.5-8.2
		c2.6-2.4,5.6-3.7,9.1-4c0.3,0,0.5,0,0.8-0.1c0.3,0,0.7,0,1,0c0.1,0,0.1,0,0.2,0c1.3,0.1,2.6,0.3,3.9,0.7c5.8,1.8,10,7,10.5,13
		c0.1,1.4,0.1,2.8-0.2,4.1c-0.7,3.3-2.3,6.1-4.9,8.4c-0.1,0.1-0.2,0.1-0.4,0.1c-2.5,0-5,0-7.5,0c-3.9,0-7.8,0-11.7,0
		c-0.1,0-0.3,0-0.4-0.1c-0.3-0.2-0.5-0.5-0.8-0.7c-2.6-2.6-4-5.7-4.4-9.3C7.4,25.3,7.4,25,7.4,24.8z M32.6,15.4c-0.1,0-0.2,0-0.2,0
		c-1.9,0-3.8,0-5.7,0c-0.2,0-0.3,0-0.4,0.2c-1.2,2.3-2.4,4.7-3.6,7c0,0.1-0.1,0.1-0.1,0.2c0-0.1-0.1-0.1-0.1-0.2
		c-1.2-2.3-2.4-4.7-3.6-7c-0.1-0.1-0.1-0.2-0.3-0.2c-1.9,0-3.9,0-5.8,0c-0.2,0-0.2,0-0.2,0.2c0,5.6,0,11.2,0,16.8
		c0,0.2,0,0.2,0.2,0.2c1.6,0,3.3,0,4.9,0c0.2,0,0.2,0,0.2-0.2c0-2.9,0-5.8,0-8.7c0-0.1,0-0.1,0-0.2c0.1,0,0.1,0.1,0.1,0.1
		c0.8,1.7,1.6,3.3,2.5,5c0.1,0.1,0.1,0.2,0.3,0.2c1.1,0,2.3,0,3.4,0c0.1,0,0.2-0.1,0.3-0.2c0.8-1.7,1.6-3.3,2.4-5
		c0,0,0.1-0.1,0.1-0.2c0,0.1,0,0.2,0,0.2c0,2.9,0,5.8,0,8.7c0,0.2,0,0.2,0.2,0.2c1.7,0,3.4,0,5.2,0c0.2,0,0.2,0,0.2-0.2
		c0-5.6,0-11.2,0-16.7C32.6,15.6,32.6,15.5,32.6,15.4z"/>
</g>
</svg>
