<?xml version="1.0" encoding="utf-8"?>
<!-- Generator: Adobe Illustrator 16.0.0, SVG Export Plug-In . SVG Version: 6.00 Build 0)  -->
<!DOCTYPE svg PUBLIC "-//W3C//DTD SVG 1.1//EN" "http://www.w3.org/Graphics/SVG/1.1/DTD/svg11.dtd">
<svg version="1.1" id="MRT_1_" xmlns="http://www.w3.org/2000/svg" xmlns:xlink="http://www.w3.org/1999/xlink" x="0px" y="0px"
	 width="1000px" height="1000px" viewBox="0 0 1000 1000" enable-background="new 0 0 1000 1000" xml:space="preserve">
<g id="MRT">
	<g>
		<path fill="#D01C1F" d="M873.333,1000H126.667C57.778,1000,0,942.223,0,873.333V126.667C0,57.778,57.778,0,126.667,0h746.667
			C942.223,0,1000,57.778,1000,126.667v746.667C1000,942.223,942.223,1000,873.333,1000z"/>
	</g>
	<path fill="#FFFFFF" d="M164.444,551.111c0-6.667,0-15.556,0-22.223c0-2.222,0-4.444,0-6.666
		c2.222-13.334,2.222-28.89,4.444-42.223c13.333-71.111,46.667-131.111,100-182.222c57.778-53.333,124.444-82.222,202.223-88.889
		c6.666,0,11.111,0,17.777-2.222c6.667,0,15.556,0,22.223,0c2.222,0,2.222,0,4.444,0c28.889,2.222,57.777,6.667,86.667,15.556
		c128.889,40,222.222,155.556,233.333,288.889c2.222,31.111,2.222,62.222-4.444,91.111C815.556,675.556,780,737.777,722.223,788.889
		c-2.223,2.223-4.445,2.223-8.89,2.223c-55.556,0-111.11,0-166.667,0c-86.666,0-173.333,0-260,0c-2.222,0-6.667,0-8.889-2.223
		c-6.667-4.444-11.111-11.111-17.778-15.556c-57.778-57.777-88.889-126.666-97.778-206.666
		C164.444,562.223,164.444,555.556,164.444,551.111z M724.444,342.222c-2.222,0-4.444,0-4.444,0c-42.223,0-84.444,0-126.667,0
		c-4.444,0-6.666,0-8.889,4.444c-26.667,51.111-53.333,104.445-80,155.556c0,2.222-2.222,2.222-2.222,4.444
		c0-2.223-2.223-2.223-2.223-4.444c-26.667-51.111-53.333-104.445-80-155.556c-2.223-2.222-2.223-4.444-6.667-4.444
		c-42.222,0-86.666,0-128.889,0c-4.444,0-4.444,0-4.444,4.444c0,124.445,0,248.889,0,373.333c0,4.444,0,4.444,4.444,4.444
		c35.556,0,73.333,0,108.889,0c4.444,0,4.444,0,4.444-4.444c0-64.444,0-128.889,0-193.333c0-2.223,0-2.223,0-4.445
		c2.223,0,2.223,2.223,2.223,2.223c17.777,37.778,35.556,73.333,55.556,111.111c2.222,2.222,2.222,4.444,6.667,4.444
		c24.444,0,51.11,0,75.555,0c2.223,0,4.445-2.223,6.667-4.444c17.778-37.778,35.556-73.333,53.333-111.111
		c0,0,2.223-2.223,2.223-4.444c0,2.222,0,4.444,0,4.444c0,64.444,0,128.889,0,193.333c0,4.444,0,4.444,4.444,4.444
		c37.778,0,75.556,0,115.556,0c4.444,0,4.444,0,4.444-4.444c0-124.444,0-248.889,0-371.111
		C724.444,346.667,724.444,344.444,724.444,342.222z"/>
</g>
</svg>
