<?xml version="1.0" encoding="utf-8"?>
<!-- Generator: Adobe Illustrator 19.2.1, SVG Export Plug-In . SVG Version: 6.00 Build 0)  -->
<svg version="1.1" id="Isolation_Mode" xmlns="http://www.w3.org/2000/svg" xmlns:xlink="http://www.w3.org/1999/xlink" x="0px"
	 y="0px" viewBox="0 0 45 45" style="enable-background:new 0 0 45 45;" xml:space="preserve">
<style type="text/css">
	.st0{fill:#FFFFFF;}
</style>
<g id="Parking_Lobby">
	<g>
		<path d="M39.3,45H5.7C2.6,45,0,42.4,0,39.3L0,5.7C0,2.6,2.6,0,5.7,0h33.6C42.4,0,45,2.6,45,5.7l0,33.6C45,42.4,42.4,45,39.3,45z"
			/>
	</g>
	<g>
		<path class="st0" d="M11,22.5c0.7,0,1.3,0.4,1.5,1.1c0.1,0.2,0.1,0.4,0.1,0.5c0.1,0.5,0.2,1,0.3,1.5c0.2,0.9,0.4,1.9,0.5,2.8
			c0,0.2,0.1,0.5,0.1,0.7c0,0.1,0,0.1,0.1,0.1c0.1,0,0.1,0,0.2,0c1.6,0,3.1,0,4.7,0c0.5,0,0.9,0.3,1,0.9c0.1,0.7,0.3,1.5,0.4,2.2
			c0.2,0.8,0.3,1.6,0.4,2.4c0.1,0.5,0.2,1,0.3,1.5c0.1,0.4-0.1,0.8-0.5,1c-0.5,0.3-1.1,0.2-1.4-0.3c-0.1-0.1-0.1-0.3-0.2-0.4
			c-0.1-0.7-0.2-1.3-0.4-2c-0.1-0.7-0.3-1.5-0.4-2.2c0-0.3-0.1-0.5-0.1-0.8c0-0.1,0-0.1,0-0.2c0,0,0,0-0.1,0c0,0,0,0-0.1,0
			c-1.6,0-3.2,0-4.8,0c-0.3,0-0.5,0-0.8,0c-0.8,0-1.5-0.6-1.6-1.4c-0.1-0.7-0.2-1.3-0.4-2c-0.1-0.6-0.2-1.1-0.3-1.7
			c-0.1-0.6-0.2-1.2-0.3-1.9c-0.1-0.8,0.2-1.5,1-1.8C10.6,22.6,10.8,22.5,11,22.5z"/>
		<path class="st0" d="M12,34.3c-0.3,0-0.6,0-0.9,0c-0.8,0-1.5-0.2-2.2-0.7c-0.6-0.4-1-1-1.3-1.7c-0.1-0.4-0.2-0.8-0.3-1.2
			c-0.1-0.6-0.2-1.2-0.3-1.8C7,28.5,6.9,28,6.8,27.5c-0.1-0.6-0.2-1.1-0.3-1.7C6.4,25.4,6.7,25,7,24.9c0.5-0.1,0.9,0.2,1,0.6
			c0.1,0.7,0.3,1.3,0.4,2c0.1,0.5,0.2,1,0.3,1.4c0.1,0.5,0.2,0.9,0.3,1.4C9,30.7,9,30.9,9.1,31.2c0.2,0.6,0.6,1.1,1.2,1.4
			c0.3,0.1,0.7,0.2,1,0.2c0,0,0.1,0,0.1,0c1.4,0,2.9,0,4.3,0c0.5,0,0.9,0.4,0.8,0.9c-0.1,0.4-0.4,0.6-0.8,0.6c-0.7,0-1.4,0-2,0
			c0,0-0.1,0-0.1,0c0,0,0,0.1,0,0.1c0,1.1,0,2.2,0,3.2c0,0.4-0.3,0.7-0.6,0.8c-0.5,0.1-0.9-0.3-0.9-0.8c0-1.1,0-2.2,0-3.3
			C12,34.4,12,34.4,12,34.3z"/>
		<path class="st0" d="M8.8,20.6c0-0.9,0.7-1.6,1.6-1.6c0.9,0,1.6,0.8,1.6,1.6c0,0.9-0.7,1.6-1.6,1.6C9.5,22.1,8.8,21.4,8.8,20.6z"
			/>
	</g>
	<g>
		<g>
			<path class="st0" d="M39.9,14.9c0,2.3,0,4.6,0,6.9c0,1.7-1,2.8-2.8,2.8c-4.6,0-9.2,0-13.7,0c-1.6,0-2.7-1-2.8-2.6
				c0-4.7,0-9.3,0-14c0-1.7,1.1-2.7,2.8-2.7c4.6,0,9.1,0,13.7,0c1.7,0,2.8,1.1,2.8,2.8C39.9,10.3,39.9,12.6,39.9,14.9z M28,16.4
				c1.2,0,2.2,0,3.3,0c2-0.1,3.4-1.4,3.5-3.2c0.2-2.2-0.7-3.9-2.6-4.1C30.1,8.9,27.9,9,25.6,9c0,3.9,0,7.9,0,12c0.8,0,1.6,0,2.4,0
				C28,19.5,28,18,28,16.4z"/>
		</g>
		<g>
			<path class="st0" d="M28.1,14.4c0-1.3,0-2.3,0-3.4c1,0,2.1-0.1,3,0c0.8,0.1,1.2,0.7,1.3,1.5c0,0.8-0.3,1.5-1.2,1.6
				C30.2,14.4,29.2,14.4,28.1,14.4z"/>
		</g>
	</g>
</g>
</svg>
