<?xml version="1.0" encoding="utf-8"?>
<!-- Generator: Adobe Illustrator 16.0.0, SVG Export Plug-In . SVG Version: 6.00 Build 0)  -->
<!DOCTYPE svg PUBLIC "-//W3C//DTD SVG 1.1//EN" "http://www.w3.org/Graphics/SVG/1.1/DTD/svg11.dtd">
<svg version="1.1" id="Isolation_Mode" xmlns="http://www.w3.org/2000/svg" xmlns:xlink="http://www.w3.org/1999/xlink" x="0px"
	 y="0px" width="1000px" height="1000px" viewBox="0 0 1000 1000" enable-background="new 0 0 1000 1000" xml:space="preserve">
<g id="Parking_Lobby">
	<g>
		<path fill="#D01C1F" d="M873.333,1000H126.667C57.778,1000,0,942.223,0,873.333V126.667C0,57.778,57.778,0,126.667,0h746.667
			C942.223,0,1000,57.778,1000,126.667v746.667C1000,942.223,942.223,1000,873.333,1000z"/>
	</g>
	<g>
		<path fill="#FFFFFF" d="M244.444,500c15.556,0,28.889,8.889,33.333,24.444C280,528.889,280,533.333,280,535.556
			c2.222,11.111,4.444,22.222,6.667,33.333c4.445,20,8.889,42.223,11.111,62.223c0,4.444,2.223,11.111,2.223,15.556
			c0,2.222,0,2.222,2.223,2.222c2.222,0,2.222,0,4.444,0c35.556,0,68.889,0,104.444,0c11.111,0,20,6.667,22.222,20
			c2.223,15.556,6.667,33.334,8.89,48.889c4.444,17.778,6.666,35.556,8.889,53.334c2.222,11.111,4.444,22.222,6.666,33.333
			c2.223,8.889-2.222,17.778-11.11,22.223c-11.111,6.666-24.444,4.444-31.111-6.667c-2.223-2.223-2.223-6.667-4.444-8.889
			c-2.223-15.556-4.444-28.889-8.889-44.444c-2.223-15.556-6.667-33.334-8.89-48.89c0-6.666-2.222-11.11-2.222-17.777
			c0-2.223,0-2.223,0-4.444c0,0,0,0-2.223,0c0,0,0,0-2.222,0c-35.556,0-71.111,0-106.667,0c-6.667,0-11.111,0-17.778,0
			c-17.778,0-33.333-13.333-35.556-31.111c-2.222-15.556-4.444-28.889-8.889-44.444c-2.222-13.333-4.444-24.444-6.667-37.777
			c-2.223-13.334-4.445-26.667-6.667-42.223c-2.222-17.777,4.444-33.333,22.222-40C235.556,502.223,240,500,244.444,500z"/>
		<path fill="#FFFFFF" d="M266.667,762.223c-6.667,0-13.333,0-20,0c-17.778,0-33.333-4.445-48.889-15.556
			c-13.333-8.89-22.222-22.223-28.889-37.778c-2.222-8.889-4.444-17.777-6.667-26.667c-2.222-13.333-4.444-26.666-6.667-39.999
			c0-8.89-2.222-20-4.444-31.111c-2.223-13.334-4.445-24.444-6.667-37.778c-2.222-8.889,4.444-17.777,11.111-20
			c11.111-2.222,20,4.444,22.222,13.334c2.222,15.556,6.667,28.889,8.889,44.444c2.222,11.111,4.445,22.222,6.667,31.111
			c2.222,11.11,4.444,20,6.667,31.11c0,8.89,0,13.334,2.222,20c4.444,13.334,13.333,24.444,26.667,31.111
			c6.667,2.223,15.556,4.444,22.223,4.444h2.222c31.111,0,64.444,0,95.555,0c11.111,0,20,8.889,17.778,20
			c-2.223,8.89-8.89,13.334-17.778,13.334c-15.556,0-31.111,0-44.444,0h-2.222v2.222c0,24.444,0,48.889,0,71.111
			c0,8.889-6.667,15.556-13.334,17.777c-11.111,2.223-20-6.666-20-17.777c0-24.444,0-48.889,0-73.333
			C266.667,764.444,266.667,764.444,266.667,762.223z"/>
		<path fill="#FFFFFF" d="M195.556,457.777c0-20,15.556-35.555,35.556-35.555s35.555,17.777,35.555,35.555
			c0,20-15.555,35.556-35.555,35.556C211.111,491.111,195.556,475.556,195.556,457.777z"/>
	</g>
	<g>
		<g>
			<path fill="#FFFFFF" d="M886.667,331.111c0,51.111,0,102.222,0,153.333c0,37.778-22.223,62.223-62.223,62.223
				c-102.222,0-204.444,0-304.444,0c-35.556,0-60-22.223-62.223-57.778c0-104.444,0-206.667,0-311.111c0-37.778,24.445-60,62.223-60
				c102.223,0,202.223,0,304.444,0c37.778,0,62.223,24.444,62.223,62.222C886.667,228.889,886.667,280,886.667,331.111z
				 M622.223,364.444c26.666,0,48.889,0,73.333,0c44.444-2.222,75.556-31.111,77.777-71.111
				c4.444-48.889-15.556-86.667-57.777-91.111C668.889,197.778,620,200,568.889,200c0,86.667,0,175.556,0,266.667
				c17.778,0,35.556,0,53.334,0C622.223,433.333,622.223,400,622.223,364.444z"/>
		</g>
		<g>
			<path fill="#FFFFFF" d="M624.444,320c0-28.889,0-51.111,0-75.556c22.223,0,46.667-2.222,66.667,0
				C708.889,246.667,717.777,260,720,277.778c0,17.778-6.667,33.333-26.667,35.556C671.111,320,648.889,320,624.444,320z"/>
		</g>
	</g>
</g>
</svg>
