<?xml version="1.0" encoding="utf-8"?>
<!-- Generator: Adobe Illustrator 19.2.1, SVG Export Plug-In . SVG Version: 6.00 Build 0)  -->
<svg version="1.1" id="Parking" xmlns="http://www.w3.org/2000/svg" xmlns:xlink="http://www.w3.org/1999/xlink" x="0px" y="0px"
	 viewBox="0 0 45 45" enable-background="new 0 0 45 45" xml:space="preserve">
<g id="paking">
	<g>
		<path d="M39.3,45L5.7,45C2.6,45,0,42.4,0,39.3L0,5.7C0,2.6,2.6,0,5.7,0l33.6,0C42.4,0,45,2.6,45,5.7l0,33.6
			C45,42.4,42.4,45,39.3,45z"/>
	</g>
	<g>
		<g>
			<path fill="#FFFFFF" d="M35.2,22.5c0,3,0,6,0,9.1c0,2.3-1.4,3.7-3.6,3.7c-6,0-12.1,0-18.1,0c-2.2,0-3.6-1.3-3.6-3.4
				c-0.1-6.2-0.1-12.3,0-18.5c0-2.2,1.5-3.5,3.7-3.5c6,0,12,0,18,0c2.3,0,3.7,1.4,3.7,3.6C35.2,16.5,35.2,19.5,35.2,22.5z
				 M19.6,24.4c1.6,0,3,0.1,4.3,0c2.7-0.1,4.5-1.8,4.7-4.3c0.2-2.9-1-5.1-3.4-5.4c-2.9-0.3-5.8-0.1-8.8-0.1c0,5.2,0,10.5,0,15.8
				c1.1,0,2.1,0,3.2,0C19.6,28.5,19.6,26.6,19.6,24.4z"/>
		</g>
		<g>
			<path fill="#FFFFFF" d="M19.7,21.8c0-1.7,0-3.1,0-4.5c1.4,0,2.7-0.1,4,0c1,0.1,1.6,0.9,1.7,2c0,1.1-0.5,2-1.6,2.2
				C22.5,21.7,21.1,21.7,19.7,21.8z"/>
		</g>
	</g>
</g>
</svg>
