<?xml version="1.0" encoding="utf-8"?>
<!-- Generator: Adobe Illustrator 16.0.0, SVG Export Plug-In . SVG Version: 6.00 Build 0)  -->
<!DOCTYPE svg PUBLIC "-//W3C//DTD SVG 1.1//EN" "http://www.w3.org/Graphics/SVG/1.1/DTD/svg11.dtd">
<svg version="1.1" id="Muslim_Prayer_Room" xmlns="http://www.w3.org/2000/svg" xmlns:xlink="http://www.w3.org/1999/xlink" x="0px"
	 y="0px" width="1000px" height="1000px" viewBox="0 0 1000 1000" enable-background="new 0 0 1000 1000" xml:space="preserve">
<g id="Muslim_Prayer_Room_1_">
	<g>
		<path fill="#D01C1F" d="M873.333,1000H126.667C57.778,1000,0,942.223,0,873.333V126.667C0,57.778,57.778,0,126.667,0h746.667
			C942.223,0,1000,57.778,1000,126.667v746.667C1000,942.223,942.223,1000,873.333,1000z"/>
	</g>
	<g>
		<g>
			<circle fill="#FFFFFF" cx="640" cy="375.555" r="73.333"/>
		</g>
		<g>
			<path fill="#FFFFFF" d="M824.444,786.667l-86.667,8.889c8.89-8.889,82.223-15.556,68.889-104.444l-15.555-188.889
				C788.889,475.556,766.667,457.777,740,460l-51.111,4.444c-26.666,2.223-44.444,24.444-42.222,51.111l17.777,195.556
				c-31.111,8.889-64.444,20-93.333,35.556c-31.111,17.777-55.556,48.889-55.556,84.444c0,13.333,11.111,24.444,24.444,24.444
				h286.667c13.333,0,24.444-11.111,24.444-24.444v-22.223C848.889,797.777,837.777,786.667,824.444,786.667z"/>
		</g>
		<g id="YaSniB.tif_9_">
			<g>
				<g>
					<g>
						<path fill="#FFFFFF" d="M326.667,142.222c11.11,2.222,24.444,4.444,35.556,8.889c15.555,6.667,28.889,13.333,42.222,22.222
							c-42.222-15.556-82.222-15.556-120,6.667c-28.889,15.556-48.889,40-60,71.111c-22.222,62.222,2.222,131.111,60,162.222
							c53.333,31.111,142.223,22.222,184.444-53.333c0,2.222-2.222,4.444-2.222,8.889c-24.444,62.223-68.89,97.778-135.556,108.889
							c-2.223,0-2.223,0-4.444,2.223c-11.111,0-22.223,0-33.333,0c-2.222,0-4.445-2.223-6.667-2.223
							c-80-11.11-137.778-75.555-144.444-157.777C135.556,244.444,186.667,171.111,260,151.111c11.111-2.223,20-4.445,31.111-6.667
							C304.444,142.222,315.556,142.222,326.667,142.222z"/>
					</g>
					<g>
						<path fill="#FFFFFF" d="M333.333,366.667c2.223-17.778,6.667-35.555,8.89-51.111c2.222-6.667,0-11.111-6.667-15.556
							c-13.333-8.889-26.667-17.778-40-28.889c22.222-2.223,40-4.445,60-6.667c4.444-20,8.889-40,13.333-60h2.223
							c6.666,13.333,13.333,26.667,17.777,40C395.556,260,395.556,260,413.333,260c13.334,0,28.89-2.222,44.444-2.222
							c-11.11,11.111-20,22.222-28.889,28.889c-13.333,11.111-15.556,20-6.666,35.556c4.444,8.889,8.889,22.222,13.333,33.333
							C420,346.667,404.444,340,391.111,331.111c-6.667-4.445-11.111-2.223-15.556,2.222
							C360,344.444,346.667,355.556,333.333,366.667z"/>
					</g>
				</g>
			</g>
		</g>
	</g>
</g>
</svg>
