<?xml version="1.0" encoding="utf-8"?>
<!-- Generator: Adobe Illustrator 19.2.1, SVG Export Plug-In . SVG Version: 6.00 Build 0)  -->
<svg version="1.1" id="Muslim_Prayer_Room" xmlns="http://www.w3.org/2000/svg" xmlns:xlink="http://www.w3.org/1999/xlink" x="0px"
	 y="0px" viewBox="0 0 45 45" enable-background="new 0 0 45 45" xml:space="preserve">
<g id="Muslim_Prayer_Room_1_">
	<g>
		<path d="M39.3,45L5.7,45C2.6,45,0,42.4,0,39.3L0,5.7C0,2.6,2.6,0,5.7,0l33.6,0C42.4,0,45,2.6,45,5.7l0,33.6
			C45,42.4,42.4,45,39.3,45z"/>
	</g>
	<g>
		<g>
			<circle fill="#FFFFFF" cx="28.8" cy="16.9" r="3.3"/>
		</g>
		<g>
			<path fill="#FFFFFF" d="M37.1,35.4l-3.9,0.4c0.4-0.4,3.7-0.7,3.1-4.7l-0.7-8.5c-0.1-1.2-1.1-2-2.3-1.9l-2.3,0.2
				c-1.2,0.1-2,1.1-1.9,2.3l0.8,8.8c-1.4,0.4-2.9,0.9-4.2,1.6c-1.4,0.8-2.5,2.2-2.5,3.8c0,0.6,0.5,1.1,1.1,1.1h12.9
				c0.6,0,1.1-0.5,1.1-1.1v-1C38.2,35.9,37.7,35.4,37.1,35.4z"/>
		</g>
		<g id="YaSniB.tif_9_">
			<g>
				<g>
					<g>
						<path fill="#FFFFFF" d="M14.7,6.4c0.5,0.1,1.1,0.2,1.6,0.4c0.7,0.3,1.3,0.6,1.9,1c-1.9-0.7-3.7-0.7-5.4,0.3
							c-1.3,0.7-2.2,1.8-2.7,3.2c-1,2.8,0.1,5.9,2.7,7.3c2.4,1.4,6.4,1,8.3-2.4c0,0.1-0.1,0.2-0.1,0.4c-1.1,2.8-3.1,4.4-6.1,4.9
							c-0.1,0-0.1,0-0.2,0.1c-0.5,0-1,0-1.5,0c-0.1,0-0.2-0.1-0.3-0.1c-3.6-0.5-6.2-3.4-6.5-7.1C6.1,11,8.4,7.7,11.7,6.8
							c0.5-0.1,0.9-0.2,1.4-0.3C13.7,6.4,14.2,6.4,14.7,6.4z"/>
					</g>
					<g>
						<path fill="#FFFFFF" d="M15,16.5c0.1-0.8,0.3-1.6,0.4-2.3c0.1-0.3,0-0.5-0.3-0.7c-0.6-0.4-1.2-0.8-1.8-1.3
							c1-0.1,1.8-0.2,2.7-0.3c0.2-0.9,0.4-1.8,0.6-2.7c0,0,0.1,0,0.1,0c0.3,0.6,0.6,1.2,0.8,1.8c0.3,0.7,0.3,0.7,1.1,0.7
							c0.6,0,1.3-0.1,2-0.1c-0.5,0.5-0.9,1-1.3,1.3c-0.6,0.5-0.7,0.9-0.3,1.6c0.2,0.4,0.4,1,0.6,1.5c-0.7-0.4-1.4-0.7-2-1.1
							c-0.3-0.2-0.5-0.1-0.7,0.1C16.2,15.5,15.6,16,15,16.5z"/>
					</g>
				</g>
			</g>
		</g>
	</g>
</g>
</svg>
