<?xml version="1.0" encoding="utf-8"?>
<!-- Generator: Adobe Illustrator 19.2.1, SVG Export Plug-In . SVG Version: 6.00 Build 0)  -->
<svg version="1.1" id="Reserved_Parking" xmlns="http://www.w3.org/2000/svg" xmlns:xlink="http://www.w3.org/1999/xlink" x="0px"
	 y="0px" viewBox="0 0 45 45" enable-background="new 0 0 45 45" xml:space="preserve">
<g id="Reserved_Parking_1_">
	<g>
		<g>
			<path d="M39.3,45L5.7,45C2.6,45,0,42.4,0,39.3L0,5.7C0,2.6,2.6,0,5.7,0l33.6,0C42.4,0,45,2.6,45,5.7l0,33.6
				C45,42.4,42.4,45,39.3,45z"/>
		</g>
	</g>
	<g>
		<path fill="#FFFFFF" d="M2.2,23.4c0.4-0.1,1.1-0.1,1.8-0.1c0.9,0,1.5,0.1,2,0.5c0.4,0.3,0.6,0.7,0.6,1.3c0,0.8-0.5,1.3-1.1,1.5v0
			c0.4,0.2,0.7,0.6,0.8,1.1c0.2,0.7,0.4,1.5,0.5,1.7H5.3c-0.1-0.2-0.2-0.7-0.4-1.4c-0.2-0.8-0.4-1-1-1H3.5v2.4H2.2V23.4z M3.5,26
			h0.5c0.7,0,1.1-0.3,1.1-0.9c0-0.5-0.4-0.8-1-0.8c-0.3,0-0.5,0-0.6,0V26z"/>
		<path fill="#FFFFFF" d="M11.1,26.9H8.9v1.4h2.5v1.1H7.5v-6.1h3.7v1.1H8.9v1.3h2.2V26.9z"/>
		<path fill="#FFFFFF" d="M12.3,28c0.4,0.2,0.9,0.4,1.5,0.4c0.6,0,1-0.3,1-0.7c0-0.4-0.3-0.6-1-0.8c-1-0.4-1.7-0.9-1.7-1.8
			c0-1,0.9-1.8,2.3-1.8c0.7,0,1.2,0.1,1.5,0.3l-0.3,1.1c-0.2-0.1-0.7-0.3-1.3-0.3c-0.6,0-0.9,0.3-0.9,0.6c0,0.4,0.3,0.6,1.1,0.9
			c1.1,0.4,1.6,1,1.6,1.8c0,1-0.8,1.9-2.4,1.9c-0.7,0-1.4-0.2-1.7-0.4L12.3,28z"/>
		<path fill="#FFFFFF" d="M20.8,26.9h-2.2v1.4H21v1.1h-3.9v-6.1h3.7v1.1h-2.4v1.3h2.2V26.9z"/>
		<path fill="#FFFFFF" d="M22,23.4c0.4-0.1,1.1-0.1,1.8-0.1c0.9,0,1.5,0.1,2,0.5c0.4,0.3,0.6,0.7,0.6,1.3c0,0.8-0.5,1.3-1.1,1.5v0
			c0.4,0.2,0.7,0.6,0.8,1.1c0.2,0.7,0.4,1.5,0.5,1.7h-1.4c-0.1-0.2-0.2-0.7-0.4-1.4c-0.2-0.8-0.4-1-1-1h-0.4v2.4H22V23.4z M23.3,26
			h0.5c0.7,0,1.1-0.3,1.1-0.9c0-0.5-0.4-0.8-1-0.8c-0.3,0-0.5,0-0.6,0V26z"/>
		<path fill="#FFFFFF" d="M28.7,29.4l-1.9-6.1h1.5l0.7,2.6c0.2,0.7,0.4,1.4,0.5,2.2h0c0.2-0.7,0.3-1.4,0.5-2.1l0.8-2.6h1.5l-2,6.1
			H28.7z"/>
		<path fill="#FFFFFF" d="M36.6,26.9h-2.2v1.4h2.5v1.1H33v-6.1h3.7v1.1h-2.4v1.3h2.2V26.9z"/>
		<path fill="#FFFFFF" d="M37.8,23.4c0.5-0.1,1.2-0.1,1.8-0.1c1.2,0,1.9,0.2,2.5,0.6c0.6,0.5,1,1.2,1,2.3c0,1.2-0.4,2-1,2.5
			c-0.6,0.5-1.6,0.8-2.8,0.8c-0.7,0-1.2,0-1.6-0.1V23.4z M39.1,28.4c0.1,0,0.3,0,0.5,0c1.3,0,2.1-0.7,2.1-2.1c0-1.3-0.7-1.9-1.9-1.9
			c-0.3,0-0.5,0-0.6,0.1V28.4z"/>
		<path fill="#FFFFFF" d="M4.9,34.2c0.4-0.1,1-0.1,1.9-0.1c0.8,0,1.4,0.2,1.9,0.5C9,34.9,9.3,35.4,9.3,36c0,0.6-0.2,1.1-0.6,1.4
			c-0.5,0.4-1.2,0.6-2,0.6c-0.2,0-0.3,0-0.5,0v2.2H4.9V34.2z M6.3,37c0.1,0,0.3,0,0.5,0c0.7,0,1.2-0.4,1.2-1c0-0.6-0.4-0.9-1.1-0.9
			c-0.3,0-0.5,0-0.6,0V37z"/>
		<path fill="#FFFFFF" d="M11,38.7l-0.4,1.6H9.2l1.8-6.1h1.8l1.9,6.1h-1.5l-0.5-1.6H11z M12.6,37.6l-0.4-1.3
			c-0.1-0.4-0.2-0.8-0.3-1.2h0c-0.1,0.4-0.2,0.8-0.3,1.2l-0.4,1.3H12.6z"/>
		<path fill="#FFFFFF" d="M15.5,34.2c0.4-0.1,1.1-0.1,1.8-0.1c0.9,0,1.5,0.1,2,0.5c0.4,0.3,0.6,0.7,0.6,1.3c0,0.8-0.5,1.3-1.1,1.5v0
			c0.4,0.2,0.7,0.6,0.8,1.1c0.2,0.7,0.4,1.5,0.5,1.7h-1.4c-0.1-0.2-0.2-0.7-0.4-1.4c-0.2-0.8-0.4-1-1-1h-0.4v2.4h-1.4V34.2z
			 M16.9,36.8h0.5c0.7,0,1.1-0.3,1.1-0.9c0-0.5-0.4-0.8-1-0.8c-0.3,0-0.5,0-0.6,0V36.8z"/>
		<path fill="#FFFFFF" d="M20.8,34.2h1.4v2.7h0c0.1-0.2,0.3-0.5,0.4-0.7l1.4-2h1.7l-2,2.6l2.1,3.5h-1.6l-1.5-2.6l-0.5,0.6v2h-1.4
			V34.2z"/>
		<path fill="#FFFFFF" d="M27.7,34.2v6.1h-1.4v-6.1H27.7z"/>
		<path fill="#FFFFFF" d="M28.9,40.2v-6.1h1.6l1.3,2.2c0.4,0.6,0.7,1.4,1,2.1h0c-0.1-0.8-0.1-1.6-0.1-2.5v-1.8H34v6.1h-1.4l-1.3-2.3
			c-0.4-0.6-0.8-1.4-1.1-2.1h0c0,0.8,0.1,1.7,0.1,2.7v1.8H28.9z"/>
		<path fill="#FFFFFF" d="M40.2,39.9c-0.4,0.1-1.2,0.3-2,0.3c-1.1,0-1.9-0.3-2.5-0.8c-0.5-0.5-0.9-1.3-0.9-2.2c0-2,1.5-3.2,3.5-3.2
			c0.8,0,1.4,0.2,1.7,0.3l-0.3,1.1c-0.3-0.2-0.7-0.3-1.4-0.3c-1.1,0-2,0.6-2,2c0,1.3,0.8,2,1.9,2c0.3,0,0.6,0,0.7-0.1v-1.3H38v-1.1
			h2.3V39.9z"/>
	</g>
	<g>
		<g>
			<path fill="#FFFFFF" d="M29.6,16.1c0,0.5,0,1.1,0,1.6c0,0.5-0.2,0.7-0.7,0.7c-1.7,0.1-1.7,0.1-1.7-1.6c0-0.2,0-0.5,0-0.8
				c-3.2,0-6.3,0-9.5,0c0,0.6,0,1.1,0,1.7c0,0.5-0.2,0.7-0.7,0.7c-1.7,0-1.7,0.1-1.7-1.6c0-0.4,0.1-0.9-0.6-1
				c-0.2,0-0.4-0.3-0.4-0.5c-0.2-1.2-0.4-2.3-0.5-3.5c-0.1-0.8,0.4-1.3,1-1.8c0.3-0.2,0.6-0.6,0.8-0.9c0.3-0.4,0.4-0.9,0.6-1.4
				c0.5-1.4,1.3-2.5,2.7-2.5c0.2,0,6.5,0,6.9,0c1.3-0.1,2.1,0.6,2.6,1.6c0.3,0.5,0.5,1.1,0.7,1.6c0.3,0.7,0.6,1.3,1.3,1.7
				c0.7,0.4,0.9,1.2,0.8,1.9c-0.1,0.9-0.2,1.9-0.4,2.8c-0.1,0.4-0.5,0.8-0.8,1.2C29.8,16.2,29.7,16.2,29.6,16.1z M16.9,9.5
				c3.7,0,7.4,0,11.2,0c-0.4-0.8-0.6-1.6-1-2.2c-0.2-0.3-0.8-0.6-1.2-0.7c-1.6-0.1-3.3,0-4.9,0c-3,0-3,0-4.1,2.8
				C16.9,9.4,16.9,9.5,16.9,9.5z M16.6,13.2c0.6,0,1.2-0.5,1.1-1.1c0-0.6-0.5-1.1-1.1-1.1c-0.6,0-1.2,0.5-1.2,1.1
				C15.4,12.7,16,13.2,16.6,13.2z M28.4,13.2c0.7,0,1.1-0.5,1.1-1.1c0-0.6-0.5-1.1-1.1-1.1c-0.6,0-1.1,0.5-1.1,1.1
				C27.3,12.7,27.7,13.2,28.4,13.2z"/>
		</g>
	</g>
</g>
</svg>
