<?xml version="1.0" encoding="utf-8"?>
<!-- Generator: Adobe Illustrator 16.0.0, SVG Export Plug-In . SVG Version: 6.00 Build 0)  -->
<!DOCTYPE svg PUBLIC "-//W3C//DTD SVG 1.1//EN" "http://www.w3.org/Graphics/SVG/1.1/DTD/svg11.dtd">
<svg version="1.1" id="Security_1_" xmlns="http://www.w3.org/2000/svg" xmlns:xlink="http://www.w3.org/1999/xlink" x="0px"
	 y="0px" width="1000px" height="1000px" viewBox="0 0 1000 1000" enable-background="new 0 0 1000 1000" xml:space="preserve">
<g id="Security">
	<g>
		<path fill="#D01C1F" d="M873.333,1000H126.667C57.778,1000,0,942.223,0,873.333V126.667C0,57.778,57.778,0,126.667,0h746.667
			C942.223,0,1000,57.778,1000,126.667v746.667C1000,942.223,942.223,1000,873.333,1000z"/>
	</g>
	<g>
		<path fill="#FFFFFF" d="M602.223,533.333c-2.223,2.223-4.445,4.444-4.445,4.444c-80,80-160,160-240,240
			c-4.444,4.445-6.666,4.445-11.11,2.223c-37.778-8.889-75.556-24.444-106.667-44.444c-11.111-8.889-17.778-20-15.556-33.333
			c2.222-13.334,4.444-26.667,8.889-37.778c15.555-37.777,42.222-66.667,75.555-88.889c35.556-24.444,73.334-40,115.556-48.889
			c2.223,0,6.667,0,11.111,2.222c20,8.889,40,20,60,28.889c2.222,2.223,6.667,2.223,8.889,0c20-8.889,40-20,60-28.889
			c2.223-2.222,6.667-2.222,8.889,0C584.444,526.667,593.333,531.111,602.223,533.333z"/>
		<path fill="#FFFFFF" d="M360,377.778c-15.556,0-31.111,0-48.889,0c2.222-2.222,35.556-40,51.111-55.556
			c4.444-4.444,8.889-6.667,13.333-6.667c46.667,0,95.556,0,142.222,0c35.556,0,71.111,0,106.667,0c4.444,0,6.667,0,6.667,4.444
			C653.333,393.333,620,466.667,560,497.777c-66.667,33.334-146.667,6.667-182.223-62.222
			c-8.889-15.556-13.333-33.333-15.555-53.333C360,382.222,360,380,360,377.778z"/>
		<path fill="#FFFFFF" d="M402.223,788.889c2.222-2.222,4.444-2.222,4.444-4.444C484.444,706.667,560,631.111,637.777,553.333
			c4.445-4.444,6.667-4.444,11.111-2.222c35.556,17.777,68.889,40,95.556,71.111c17.778,22.222,28.889,48.889,33.333,80
			c2.223,13.333-4.444,24.444-15.555,33.333c-24.445,17.777-51.111,28.889-80,37.777c-42.223,13.334-86.667,20-131.111,24.444
			C504.444,800,455.556,800,408.889,793.333C406.667,793.333,404.444,791.111,402.223,788.889
			C402.223,791.111,402.223,791.111,402.223,788.889z M608.889,746.667c13.334-11.111,26.667-22.223,40-33.334
			c2.223-2.222,2.223-4.444,2.223-6.666c0-8.89,0-20,0-28.89c0-6.666,0-11.11,0-17.777c-28.889,0-55.556,0-84.444,0
			c0,15.556,0,31.111,0,48.889c0,2.223,2.222,4.444,2.222,4.444C584.444,724.444,595.556,735.556,608.889,746.667z"/>
		<polygon fill="#FFFFFF" points="362.223,293.333 308.889,204.444 480,182.222 651.111,204.444 633.333,293.333 		"/>
	</g>
</g>
</svg>
