<?xml version="1.0" encoding="utf-8"?>
<!-- Generator: Adobe Illustrator 19.2.1, SVG Export Plug-In . SVG Version: 6.00 Build 0)  -->
<svg version="1.1" id="Security_1_" xmlns="http://www.w3.org/2000/svg" xmlns:xlink="http://www.w3.org/1999/xlink" x="0px"
	 y="0px" viewBox="0 0 45 45" enable-background="new 0 0 45 45" xml:space="preserve">
<g id="Security">
	<g>
		<path d="M39.3,45L5.7,45C2.6,45,0,42.4,0,39.3L0,5.7C0,2.6,2.6,0,5.7,0l33.6,0C42.4,0,45,2.6,45,5.7l0,33.6
			C45,42.4,42.4,45,39.3,45z"/>
	</g>
	<g>
		<path fill="#FFFFFF" d="M27.1,24c-0.1,0.1-0.2,0.2-0.2,0.2c-3.6,3.6-7.2,7.2-10.8,10.8c-0.2,0.2-0.3,0.2-0.5,0.1
			c-1.7-0.4-3.4-1.1-4.8-2c-0.5-0.4-0.8-0.9-0.7-1.5c0.1-0.6,0.2-1.2,0.4-1.7c0.7-1.7,1.9-3,3.4-4c1.6-1.1,3.3-1.8,5.2-2.2
			c0.1,0,0.3,0,0.5,0.1c0.9,0.4,1.8,0.9,2.7,1.3c0.1,0.1,0.3,0.1,0.4,0c0.9-0.4,1.8-0.9,2.7-1.3c0.1-0.1,0.3-0.1,0.4,0
			C26.3,23.7,26.7,23.9,27.1,24z"/>
		<path fill="#FFFFFF" d="M16.2,17c-0.7,0-1.4,0-2.2,0c0.1-0.1,1.6-1.8,2.3-2.5c0.2-0.2,0.4-0.3,0.6-0.3c2.1,0,4.3,0,6.4,0
			c1.6,0,3.2,0,4.8,0c0.2,0,0.3,0,0.3,0.2c1,3.3-0.5,6.6-3.2,8c-3,1.5-6.6,0.3-8.2-2.8c-0.4-0.7-0.6-1.5-0.7-2.4
			C16.2,17.2,16.2,17.1,16.2,17z"/>
		<path fill="#FFFFFF" d="M18.1,35.5c0.1-0.1,0.2-0.1,0.2-0.2c3.5-3.5,6.9-6.9,10.4-10.4c0.2-0.2,0.3-0.2,0.5-0.1
			c1.6,0.8,3.1,1.8,4.3,3.2c0.8,1,1.3,2.2,1.5,3.6c0.1,0.6-0.2,1.1-0.7,1.5c-1.1,0.8-2.3,1.3-3.6,1.7c-1.9,0.6-3.9,0.9-5.9,1.1
			c-2.1,0.1-4.3,0.1-6.4-0.2C18.3,35.7,18.2,35.6,18.1,35.5C18.1,35.6,18.1,35.6,18.1,35.5z M27.4,33.6c0.6-0.5,1.2-1,1.8-1.5
			c0.1-0.1,0.1-0.2,0.1-0.3c0-0.4,0-0.9,0-1.3c0-0.3,0-0.5,0-0.8c-1.3,0-2.5,0-3.8,0c0,0.7,0,1.4,0,2.2c0,0.1,0.1,0.2,0.1,0.2
			C26.3,32.6,26.8,33.1,27.4,33.6z"/>
		<polygon fill="#FFFFFF" points="16.3,13.2 13.9,9.2 21.6,8.2 29.3,9.2 28.5,13.2 		"/>
	</g>
</g>
</svg>
