<?xml version="1.0" encoding="utf-8"?>
<!-- Generator: Adobe Illustrator 19.2.1, SVG Export Plug-In . SVG Version: 6.00 Build 0)  -->
<svg version="1.1" id="Shuttle_Bus" xmlns="http://www.w3.org/2000/svg" xmlns:xlink="http://www.w3.org/1999/xlink" x="0px"
	 y="0px" viewBox="0 0 45 45" enable-background="new 0 0 45 45" xml:space="preserve">
<g id="SHUTTLE_BUS">
	<g>
		<g>
			<path d="M39.3,45L5.7,45C2.6,45,0,42.4,0,39.3L0,5.7C0,2.6,2.6,0,5.7,0l33.6,0C42.4,0,45,2.6,45,5.7l0,33.6
				C45,42.4,42.4,45,39.3,45z"/>
		</g>
	</g>
	<g>
		<g>
			<path fill="#FFFFFF" d="M28.9,39.9c-4.3,0-8.5,0-12.8,0c0,0.6,0,1.1,0,1.7c0,0.8-0.3,1.2-1.1,1.2c-0.3,0-0.7,0-1,0
				c-0.7,0-1-0.3-1-1c0-0.9,0.2-1.8-0.9-2.4c-0.3-0.2-0.3-0.8-0.3-1.2c0.1-5.9,0.2-11.8,0.4-17.7c0-1.8,0.9-2.7,3.1-2.9
				c4.8-0.5,9.7-0.5,14.5,0c2.4,0.3,3.1,1.1,3.1,3.6c0.1,5.6,0.2,11.1,0.4,16.7c0,0.9-0.1,1.6-0.9,2.2c-0.3,0.2-0.2,0.9-0.3,1.3
				c-0.1,0.5-0.2,1.3-0.5,1.4c-0.7,0.2-1.6,0.1-2.3,0c-0.1,0-0.3-0.5-0.3-0.8C28.8,41.1,28.9,40.5,28.9,39.9z M22.4,30
				c2.5,0,5.1,0,7.6,0c0.7,0,1.2-0.2,1.2-1c0-2,0-4,0-6c0-0.7-0.3-1-1-1c-5.1,0-10.3,0-15.4,0c-0.8,0-1.1,0.3-1,1.1
				c0,1.9,0,3.8,0,5.7c0,1,0.3,1.3,1.3,1.3C17.5,30,19.9,30,22.4,30z M28.3,20.6c-0.2-0.7,0.6-1.8-0.7-1.8c-3.4-0.1-6.8,0-10.3,0
				c-0.7,0-0.7,0.5-0.6,0.9c0,0.4-0.1,1,0.6,0.9C20.9,20.6,24.5,20.6,28.3,20.6z M29.5,37.6c0.8-0.1,1.3-0.5,1.3-1.2
				c0-0.8-0.5-1.2-1.3-1.2c-0.7,0-1.2,0.5-1.2,1.2C28.3,37,28.7,37.5,29.5,37.6z M16.7,36.3c-0.1-0.8-0.5-1.3-1.3-1.2
				c-0.7,0-1.2,0.5-1.2,1.3c0,0.7,0.5,1.2,1.2,1.2C16.2,37.5,16.6,37.1,16.7,36.3z"/>
		</g>
	</g>
	<g>
		<path fill="#FFFFFF" d="M8,6.7C8.3,6.9,8.8,7,9.2,7C9.7,7,10,6.8,10,6.5C10,6.2,9.7,6,9.2,5.8C8.4,5.5,7.9,5.1,7.9,4.4
			C7.9,3.6,8.5,3,9.7,3c0.5,0,0.9,0.1,1.2,0.2l-0.2,0.9c-0.2-0.1-0.5-0.2-1-0.2C9.2,3.9,9,4.1,9,4.3C9,4.6,9.2,4.8,9.8,5
			C10.7,5.3,11,5.7,11,6.4c0,0.8-0.6,1.5-1.9,1.5c-0.5,0-1.1-0.1-1.3-0.3L8,6.7z"/>
		<path fill="#FFFFFF" d="M12.8,3.1v1.8h1.8V3.1h1.1v4.7h-1.1v-2h-1.8v2h-1.1V3.1H12.8z"/>
		<path fill="#FFFFFF" d="M17.7,3.1v2.7C17.7,6.6,18,7,18.5,7c0.6,0,0.9-0.4,0.9-1.2V3.1h1.1v2.6c0,1.5-0.7,2.2-2,2.2
			c-1.2,0-1.9-0.7-1.9-2.2V3.1H17.7z"/>
		<path fill="#FFFFFF" d="M22.3,4H21V3.1h3.6V4h-1.3v3.8h-1.1V4z"/>
		<path fill="#FFFFFF" d="M26.3,4H25V3.1h3.6V4h-1.3v3.8h-1.1V4z"/>
		<path fill="#FFFFFF" d="M29.2,3.1h1.1v3.8h1.9v0.9h-2.9V3.1z"/>
		<path fill="#FFFFFF" d="M35.6,5.8h-1.7v1.1h1.9v0.9h-3V3.1h2.9V4h-1.8v1h1.7V5.8z"/>
		<path fill="#FFFFFF" d="M16.6,10.1c0.3,0,0.8-0.1,1.4-0.1c0.7,0,1.1,0.1,1.4,0.3c0.3,0.2,0.6,0.5,0.6,0.9c0,0.4-0.2,0.8-0.8,1v0
			c0.5,0.1,0.9,0.6,0.9,1.2c0,0.4-0.2,0.8-0.5,1c-0.3,0.3-0.9,0.4-1.9,0.4c-0.5,0-0.9,0-1.2-0.1V10.1z M17.6,12H18
			c0.6,0,0.9-0.2,0.9-0.6c0-0.4-0.3-0.5-0.8-0.5c-0.2,0-0.4,0-0.5,0V12z M17.6,14c0.1,0,0.2,0,0.4,0c0.5,0,0.9-0.2,0.9-0.7
			c0-0.5-0.4-0.7-1-0.7h-0.4V14z"/>
		<path fill="#FFFFFF" d="M21.9,10.1v2.7c0,0.8,0.3,1.2,0.9,1.2c0.6,0,0.9-0.4,0.9-1.2v-2.7h1.1v2.6c0,1.5-0.7,2.2-2,2.2
			c-1.2,0-1.9-0.7-1.9-2.2v-2.6H21.9z"/>
		<path fill="#FFFFFF" d="M25.6,13.7c0.3,0.1,0.7,0.3,1.2,0.3c0.5,0,0.8-0.2,0.8-0.5c0-0.3-0.2-0.5-0.8-0.7
			c-0.8-0.3-1.3-0.7-1.3-1.4c0-0.8,0.7-1.4,1.8-1.4c0.5,0,0.9,0.1,1.2,0.2l-0.2,0.9c-0.2-0.1-0.5-0.2-1-0.2c-0.5,0-0.7,0.2-0.7,0.5
			c0,0.3,0.3,0.4,0.9,0.7c0.8,0.3,1.2,0.7,1.2,1.4c0,0.8-0.6,1.5-1.9,1.5c-0.5,0-1.1-0.1-1.3-0.3L25.6,13.7z"/>
	</g>
</g>
</svg>
