<?xml version="1.0" encoding="utf-8"?>
<!-- Generator: Adobe Illustrator 16.0.0, SVG Export Plug-In . SVG Version: 6.00 Build 0)  -->
<!DOCTYPE svg PUBLIC "-//W3C//DTD SVG 1.1//EN" "http://www.w3.org/Graphics/SVG/1.1/DTD/svg11.dtd">
<svg version="1.1" id="Shuttle_Bus" xmlns="http://www.w3.org/2000/svg" xmlns:xlink="http://www.w3.org/1999/xlink" x="0px"
	 y="0px" width="1000px" height="1000px" viewBox="0 0 1000 1000" enable-background="new 0 0 1000 1000" xml:space="preserve">
<g id="SHUTTLE_BUS">
	<g>
		<g>
			<path fill="#D01C1F" d="M873.333,1000H126.667C57.778,1000,0,942.223,0,873.333V126.667C0,57.778,57.778,0,126.667,0h746.667
				C942.223,0,1000,57.778,1000,126.667v746.667C1000,942.223,942.223,1000,873.333,1000z"/>
		</g>
	</g>
	<g>
		<g>
			<path fill="#FFFFFF" d="M642.223,886.667c-95.556,0-188.89,0-284.445,0c0,13.333,0,24.444,0,37.777
				c0,17.778-6.666,26.667-24.444,26.667c-6.666,0-15.556,0-22.222,0c-15.556,0-22.223-6.667-22.223-22.223c0-20,4.445-40-20-53.333
				c-6.667-4.444-6.667-17.778-6.667-26.667c2.222-131.111,4.444-262.222,8.889-393.333c0-40,20-60,68.889-64.444
				c106.667-11.111,215.556-11.111,322.223,0c53.333,6.667,68.889,24.444,68.889,80c2.222,124.444,4.444,246.666,8.889,371.111
				c0,20-2.223,35.555-20,48.889c-6.667,4.444-4.444,20-6.667,28.889c-2.222,11.111-4.444,28.889-11.11,31.111
				c-15.556,4.444-35.556,2.222-51.111,0c-2.223,0-6.667-11.111-6.667-17.778C640,913.333,642.223,900,642.223,886.667z
				 M497.777,666.667c55.556,0,113.334,0,168.89,0c15.556,0,26.666-4.444,26.666-22.223c0-44.444,0-88.889,0-133.333
				c0-15.556-6.666-22.223-22.222-22.223c-113.334,0-228.889,0-342.223,0c-17.777,0-24.444,6.667-22.222,24.444
				c0,42.223,0,84.444,0,126.667c0,22.223,6.666,28.889,28.889,28.889C388.889,666.667,442.223,666.667,497.777,666.667z
				 M628.889,457.777c-4.444-15.555,13.334-40-15.556-40c-75.556-2.222-151.11,0-228.889,0c-15.556,0-15.556,11.111-13.333,20
				c0,8.89-2.223,22.223,13.333,20C464.444,457.777,544.444,457.777,628.889,457.777z M655.556,835.556
				c17.777-2.223,28.889-11.111,28.889-26.667c0-17.777-11.111-26.667-28.889-26.667c-15.556,0-26.667,11.111-26.667,26.667
				C628.889,822.223,637.777,833.333,655.556,835.556z M371.111,806.667C368.889,788.889,360,777.777,342.223,780
				c-15.556,0-26.667,11.111-26.667,28.889c0,15.556,11.111,26.667,26.667,26.667C360,833.333,368.889,824.444,371.111,806.667z"/>
		</g>
	</g>
	<g>
		<path fill="#FFFFFF" d="M177.778,148.889c6.667,4.445,17.778,6.667,26.667,6.667c11.111,0,17.778-4.444,17.778-11.111
			c0-6.667-6.667-11.111-17.778-15.556c-17.778-6.667-28.889-15.555-28.889-31.111c0-17.778,13.333-31.111,40-31.111
			c11.111,0,20,2.222,26.667,4.445l-4.444,20c-4.444-2.223-11.111-4.445-22.222-4.445c-11.111,0-15.556,4.445-15.556,8.889
			c0,6.667,4.444,11.111,17.778,15.556c20,6.667,26.667,15.555,26.667,31.111c0,17.778-13.333,33.333-42.222,33.333
			c-11.111,0-24.444-2.222-28.889-6.667L177.778,148.889z"/>
		<path fill="#FFFFFF" d="M284.444,68.889v40h40v-40h24.444v104.445h-24.444v-44.445h-40v44.445H260V68.889H284.444z"/>
		<path fill="#FFFFFF" d="M393.333,68.889v60c0,17.778,6.667,26.667,17.778,26.667c13.333,0,20-8.889,20-26.667v-60h24.444v57.778
			c0,33.333-15.556,48.889-44.444,48.889c-26.667,0-42.223-15.556-42.223-48.889V68.889H393.333z"/>
		<path fill="#FFFFFF" d="M495.556,88.889h-28.889v-20h80v20h-28.89v84.445h-24.444V88.889H495.556z"/>
		<path fill="#FFFFFF" d="M584.444,88.889h-28.889v-20h80v20h-28.889v84.445h-24.444V88.889H584.444z"/>
		<path fill="#FFFFFF" d="M648.889,68.889h24.444v84.445h42.223v20h-64.444V68.889H648.889z"/>
		<path fill="#FFFFFF" d="M791.111,128.889h-37.778v24.445h42.223v20h-66.667V68.889h64.444v20h-40v22.223h37.778V128.889
			L791.111,128.889z"/>
		<path fill="#FFFFFF" d="M368.889,224.444c6.667,0,17.778-2.222,31.111-2.222c15.556,0,24.444,2.222,31.111,6.667
			c6.666,4.445,13.333,11.111,13.333,20c0,8.889-4.444,17.778-17.777,22.223l0,0c11.11,2.222,20,13.333,20,26.667
			c0,8.889-4.444,17.778-11.111,22.222c-6.667,6.667-20,8.889-42.223,8.889c-11.11,0-20,0-26.666-2.222V224.444H368.889z
			 M391.111,266.667H400c13.333,0,20-4.444,20-13.333c0-8.889-6.667-11.111-17.777-11.111c-4.445,0-8.89,0-11.111,0V266.667z
			 M391.111,311.111c2.222,0,4.444,0,8.889,0c11.111,0,20-4.445,20-15.556c0-11.111-8.889-15.556-22.223-15.556h-8.889v31.111
			H391.111z"/>
		<path fill="#FFFFFF" d="M486.667,224.444v60c0,17.778,6.666,26.667,20,26.667c13.333,0,20-8.889,20-26.667v-60h24.444v57.778
			c0,33.333-15.556,48.889-44.444,48.889c-26.667,0-42.223-15.556-42.223-48.889v-57.778H486.667z"/>
		<path fill="#FFFFFF" d="M568.889,304.444c6.667,2.222,15.556,6.667,26.667,6.667s17.777-4.445,17.777-11.111
			s-4.444-11.111-17.777-15.556c-17.778-6.667-28.889-15.556-28.889-31.111c0-17.778,15.556-31.111,40-31.111
			c11.11,0,20,2.222,26.666,4.444l-4.444,20c-4.444-2.222-11.111-4.444-22.222-4.444c-11.111,0-15.556,4.444-15.556,11.111
			c0,6.667,6.666,8.889,20,15.555c17.777,6.667,26.666,15.556,26.666,31.111c0,17.778-13.333,33.333-42.222,33.333
			c-11.111,0-24.444-2.222-28.889-6.667L568.889,304.444z"/>
	</g>
</g>
</svg>
