<?xml version="1.0" encoding="utf-8"?>
<!-- Generator: Adobe Illustrator 16.0.0, SVG Export Plug-In . SVG Version: 6.00 Build 0)  -->
<!DOCTYPE svg PUBLIC "-//W3C//DTD SVG 1.1//EN" "http://www.w3.org/Graphics/SVG/1.1/DTD/svg11.dtd">
<svg version="1.1" id="Smoking_Room" xmlns="http://www.w3.org/2000/svg" xmlns:xlink="http://www.w3.org/1999/xlink" x="0px"
	 y="0px" width="1000px" height="1000px" viewBox="0 0 1000 1000" enable-background="new 0 0 1000 1000" xml:space="preserve">
<g id="Smoking_Room_1_">
	<g>
		<path fill="#D01C1F" d="M873.333,1000H126.667C57.778,1000,0,942.223,0,873.333V126.667C0,57.778,57.778,0,126.667,0h746.667
			C942.223,0,1000,57.778,1000,126.667v746.667C1000,942.223,942.223,1000,873.333,1000z"/>
	</g>
	<path fill="#FFFFFF" d="M180,653.333c0-28.889,0-57.777,0-86.666c182.223,0,362.223,0,544.444,0c0,28.889,0,57.777,0,86.666
		C542.223,653.333,360,653.333,180,653.333z"/>
	<path fill="#FFFFFF" d="M551.111,206.667c0,8.889,0,17.778,0,26.667c-4.444,0-8.889,2.222-13.334,2.222
		c-22.222,6.667-37.777,24.444-40,51.111c-2.222,26.667,11.111,48.889,33.334,60c11.111,4.445,22.222,6.667,35.556,6.667
		c8.889,0,15.556,4.444,17.777,11.111c0,4.444,0,8.889-2.222,11.111c-4.445,11.111-6.667,22.222-4.445,33.333
		c4.445,20,17.778,31.111,40,31.111c24.445,0,46.667,0,71.111,0c13.334,0,28.889,2.223,42.223,6.667
		c20,8.889,33.333,22.222,37.777,44.444c2.223,20,2.223,40,4.444,60c-11.11,0-20,0-31.11,0c0-4.444,0-8.889,0-13.334
		c0-8.889,0-20,0-28.889c-2.223-22.222-13.334-35.556-37.778-37.777c-28.889-2.223-57.777,0-86.667-2.223
		c-13.333,0-24.444-2.222-35.555-8.889c-26.667-15.556-37.778-37.777-35.556-66.667c0-4.445,0-6.667,0-11.111
		c-31.111-4.444-55.556-17.778-71.111-46.667c-11.111-17.778-13.333-37.778-8.889-60
		C477.777,226.667,517.777,204.444,551.111,206.667z"/>
	<path fill="#FFFFFF" d="M580,262.222c0-8.889,0-17.778,0-28.889c60-4.445,122.223,55.555,91.111,135.555c4.444,0,8.889,0,13.333,0
		c80-2.222,128.889,57.778,128.889,128.889c0,17.778,0,35.556,0,53.334c-11.11,0-20,0-28.889,0c0-17.778,0-33.334,0-51.111
		c0-15.556-2.222-31.111-8.889-44.444C760,420,731.111,400,693.333,400c-13.333,0-26.666,0-37.777,0c-8.889,0-17.778,0-22.223-8.889
		c-4.444-8.889,0-15.556,4.444-22.223c8.89-13.333,13.334-28.889,13.334-44.444c-2.223-33.333-24.444-57.778-57.778-62.222
		C588.889,262.222,584.444,262.222,580,262.222z"/>
	<path fill="#FFFFFF" d="M768.889,653.333c-8.889,0-17.777,0-28.889,0c0-28.889,0-57.777,0-86.666c8.889,0,17.777,0,28.889,0
		C768.889,595.556,768.889,624.444,768.889,653.333z"/>
	<path fill="#FFFFFF" d="M815.556,653.333c-8.889,0-17.778,0-28.889,0c0-28.889,0-57.777,0-86.666c8.889,0,17.777,0,28.889,0
		C815.556,595.556,815.556,624.444,815.556,653.333z"/>
</g>
</svg>
