<?xml version="1.0" encoding="utf-8"?>
<!-- Generator: Adobe Illustrator 19.2.1, SVG Export Plug-In . SVG Version: 6.00 Build 0)  -->
<svg version="1.1" id="Smoking_Room" xmlns="http://www.w3.org/2000/svg" xmlns:xlink="http://www.w3.org/1999/xlink" x="0px"
	 y="0px" viewBox="0 0 45 45" enable-background="new 0 0 45 45" xml:space="preserve">
<g id="Smoking_Room_1_">
	<g>
		<path d="M39.3,45L5.7,45C2.6,45,0,42.4,0,39.3L0,5.7C0,2.6,2.6,0,5.7,0l33.6,0C42.4,0,45,2.6,45,5.7l0,33.6
			C45,42.4,42.4,45,39.3,45z"/>
	</g>
	<path fill="#FFFFFF" d="M8.1,29.4c0-1.3,0-2.6,0-3.9c8.2,0,16.3,0,24.5,0c0,1.3,0,2.6,0,3.9C24.4,29.4,16.2,29.4,8.1,29.4z"/>
	<path fill="#FFFFFF" d="M24.8,9.3c0,0.4,0,0.8,0,1.2c-0.2,0-0.4,0.1-0.6,0.1c-1,0.3-1.7,1.1-1.8,2.3c-0.1,1.2,0.5,2.2,1.5,2.7
		c0.5,0.2,1,0.3,1.6,0.3c0.4,0,0.7,0.2,0.8,0.5c0,0.2,0,0.4-0.1,0.5c-0.2,0.5-0.3,1-0.2,1.5c0.2,0.9,0.8,1.4,1.8,1.4
		c1.1,0,2.1,0,3.2,0c0.6,0,1.3,0.1,1.9,0.3c0.9,0.4,1.5,1,1.7,2c0.1,0.9,0.1,1.8,0.2,2.7c-0.5,0-0.9,0-1.4,0c0-0.2,0-0.4,0-0.6
		c0-0.4,0-0.9,0-1.3c-0.1-1-0.6-1.6-1.7-1.7c-1.3-0.1-2.6,0-3.9-0.1c-0.6,0-1.1-0.1-1.6-0.4C25,20,24.5,19,24.6,17.7
		c0-0.2,0-0.3,0-0.5c-1.4-0.2-2.5-0.8-3.2-2.1c-0.5-0.8-0.6-1.7-0.4-2.7C21.5,10.2,23.3,9.2,24.8,9.3z"/>
	<path fill="#FFFFFF" d="M26.1,11.8c0-0.4,0-0.8,0-1.3c2.7-0.2,5.5,2.5,4.1,6.1c0.2,0,0.4,0,0.6,0c3.6-0.1,5.8,2.6,5.8,5.8
		c0,0.8,0,1.6,0,2.4c-0.5,0-0.9,0-1.3,0c0-0.8,0-1.5,0-2.3c0-0.7-0.1-1.4-0.4-2c-0.7-1.6-2-2.5-3.7-2.5c-0.6,0-1.2,0-1.7,0
		c-0.4,0-0.8,0-1-0.4c-0.2-0.4,0-0.7,0.2-1c0.4-0.6,0.6-1.3,0.6-2c-0.1-1.5-1.1-2.6-2.6-2.8C26.5,11.8,26.3,11.8,26.1,11.8z"/>
	<path fill="#FFFFFF" d="M34.6,29.4c-0.4,0-0.8,0-1.3,0c0-1.3,0-2.6,0-3.9c0.4,0,0.8,0,1.3,0C34.6,26.8,34.6,28.1,34.6,29.4z"/>
	<path fill="#FFFFFF" d="M36.7,29.4c-0.4,0-0.8,0-1.3,0c0-1.3,0-2.6,0-3.9c0.4,0,0.8,0,1.3,0C36.7,26.8,36.7,28.1,36.7,29.4z"/>
</g>
</svg>
