<?xml version="1.0" encoding="utf-8"?>
<!-- Generator: Adobe Illustrator 16.0.0, SVG Export Plug-In . SVG Version: 6.00 Build 0)  -->
<!DOCTYPE svg PUBLIC "-//W3C//DTD SVG 1.1//EN" "http://www.w3.org/Graphics/SVG/1.1/DTD/svg11.dtd">
<svg version="1.1" id="Stairs" xmlns="http://www.w3.org/2000/svg" xmlns:xlink="http://www.w3.org/1999/xlink" x="0px" y="0px"
	 width="1000px" height="1000px" viewBox="0 0 1000 1000" enable-background="new 0 0 1000 1000" xml:space="preserve">
<g id="Stairs_1_">
	<g>
		<path fill="#D01C1F" d="M873.333,1000H126.667C57.778,1000,0,942.223,0,873.333V126.667C0,57.778,57.778,0,126.667,0h746.667
			C942.223,0,1000,57.778,1000,126.667v746.667C1000,942.223,942.223,1000,873.333,1000z"/>
	</g>
	<path fill="#FFFFFF" d="M135.556,733.333c44.444,0,86.667,0,133.333,0c0-44.444,0-88.889,0-133.333c44.444,0,86.667,0,131.111,0
		c0-46.667,0-88.889,0-135.556c44.444,0,88.889,0,135.556,0c0-44.444,0-88.889,0-133.333c44.444,0,88.889,0,131.111,0
		c0-44.445,0-88.889,0-133.333c66.666,0,133.333,0,197.777,0c0,22.222,0,44.444,0,68.889c-42.222,0-86.667,0-131.111,0
		c0,44.445,0,86.667,0,131.111c-44.444,0-86.666,0-133.333,0c0,46.667,0,88.889,0,135.555c-44.444,0-88.889,0-133.333,0
		c0,44.444,0,88.89,0,133.334c-44.444,0-88.89,0-133.334,0c0,46.666,0,91.11,0,135.556c-66.667,0-131.111,0-197.777,0
		C135.556,780,135.556,757.777,135.556,733.333z"/>
</g>
</svg>
