<?xml version="1.0" encoding="utf-8"?>
<!-- Generator: Adobe Illustrator 19.2.1, SVG Export Plug-In . SVG Version: 6.00 Build 0)  -->
<svg version="1.1" id="Stairs" xmlns="http://www.w3.org/2000/svg" xmlns:xlink="http://www.w3.org/1999/xlink" x="0px" y="0px"
	 viewBox="0 0 45 45" enable-background="new 0 0 45 45" xml:space="preserve">
<g id="Stairs_1_">
	<g>
		<path d="M39.3,45L5.7,45C2.6,45,0,42.4,0,39.3L0,5.7C0,2.6,2.6,0,5.7,0l33.6,0C42.4,0,45,2.6,45,5.7l0,33.6
			C45,42.4,42.4,45,39.3,45z"/>
	</g>
	<path fill="#FFFFFF" d="M6.1,33c2,0,3.9,0,6,0c0-2,0-4,0-6c2,0,3.9,0,5.9,0c0-2.1,0-4,0-6.1c2,0,4,0,6.1,0c0-2,0-4,0-6
		c2,0,4,0,5.9,0c0-2,0-4,0-6c3,0,6,0,8.9,0c0,1,0,2,0,3.1C37,12,35,12,33,12c0,2,0,3.9,0,5.9c-2,0-3.9,0-6,0c0,2.1,0,4,0,6.1
		c-2,0-4,0-6,0c0,2,0,4,0,6c-2,0-4,0-6,0c0,2.1,0,4.1,0,6.1c-3,0-5.9,0-8.9,0C6.1,35.1,6.1,34.1,6.1,33z"/>
</g>
</svg>
