<?xml version="1.0" encoding="utf-8"?>
<!-- Generator: Adobe Illustrator 19.2.1, SVG Export Plug-In . SVG Version: 6.00 Build 0)  -->
<svg version="1.1" id="Taxi_Waiting_Lounge" xmlns="http://www.w3.org/2000/svg" xmlns:xlink="http://www.w3.org/1999/xlink"
	 x="0px" y="0px" viewBox="0 0 45 45" enable-background="new 0 0 45 45" xml:space="preserve">
<g id="Taxi_Waiting_Lounge_1_">
	<g>
		<g>
			<path d="M39.3,45L5.7,45C2.6,45,0,42.4,0,39.3L0,5.7C0,2.6,2.6,0,5.7,0l33.6,0C42.4,0,45,2.6,45,5.7l0,33.6
				C45,42.4,42.4,45,39.3,45z"/>
		</g>
	</g>
	<g>
		<g>
			<path fill="#FFFFFF" d="M39.1,32.6c0,0.6,0,1.3,0,1.9c0,0.5-0.2,0.8-0.8,0.8c-2,0.1-2,0.1-2-1.9c0-0.3,0-0.5,0-0.9
				c-3.6,0-7.2,0-10.9,0c0,0.6,0,1.3,0,1.9c0,0.6-0.2,0.8-0.8,0.8c-2,0-2,0.1-2-1.9c0-0.5,0.1-1-0.7-1.1c-0.2,0-0.4-0.4-0.5-0.6
				c-0.2-1.3-0.4-2.6-0.6-4c-0.1-0.9,0.4-1.5,1.1-2c0.3-0.3,0.6-0.7,0.9-1.1c0.3-0.5,0.5-1.1,0.7-1.6c0.7-1.8,1.7-3.2,3.9-2.8
				c0.1-0.1,0.2-0.2,0.2-0.2c-0.1-1.8,0.2-1.8,1.9-1.8c1,0,1.9,0,2.9,0c1.2,0,1.4,0.1,1.4,1.4c0,0.2,0,0.3,0.1,0.5
				c0.2,0,0.4,0.1,0.6,0c1.5-0.1,2.4,0.7,2.9,1.9c0.3,0.6,0.6,1.3,0.8,1.9c0.3,0.8,0.7,1.5,1.4,2c0.8,0.5,1,1.3,0.9,2.2
				c-0.1,1.1-0.2,2.1-0.5,3.2c-0.1,0.5-0.6,0.9-0.9,1.3C39.3,32.7,39.2,32.7,39.1,32.6z M24.5,25c4.3,0,8.5,0,12.9,0
				c-0.4-0.9-0.7-1.8-1.2-2.6c-0.3-0.4-0.9-0.7-1.4-0.8c-1.9-0.1-3.8,0-5.6,0c-3.5,0-3.5,0-4.7,3.2C24.5,24.9,24.5,25,24.5,25z
				 M24.1,29.3c0.7,0,1.3-0.6,1.3-1.3c0-0.7-0.6-1.2-1.3-1.3c-0.7,0-1.3,0.6-1.4,1.2C22.8,28.7,23.4,29.3,24.1,29.3z M37.6,29.3
				c0.8,0,1.3-0.5,1.3-1.3c0-0.7-0.6-1.3-1.3-1.3c-0.7,0-1.2,0.5-1.2,1.2C36.4,28.7,36.9,29.3,37.6,29.3z"/>
		</g>
	</g>
	<g>
		<path fill="#FFFFFF" d="M23.7,9H22V7.9h4.7V9H25v4.9h-1.4V9z"/>
		<path fill="#FFFFFF" d="M28.2,12.4l-0.4,1.6h-1.4l1.8-6.1H30l1.9,6.1h-1.5l-0.5-1.6H28.2z M29.7,11.3l-0.4-1.3
			c-0.1-0.4-0.2-0.8-0.3-1.2h0c-0.1,0.4-0.2,0.8-0.3,1.2l-0.4,1.3H29.7z"/>
		<path fill="#FFFFFF" d="M35.6,13.9l-0.5-1.1c-0.2-0.4-0.4-0.7-0.5-1.1h0c-0.1,0.4-0.3,0.7-0.5,1.1l-0.5,1.1H32l1.8-3.1l-1.7-3h1.6
			L34.2,9c0.2,0.4,0.3,0.7,0.5,1h0c0.1-0.4,0.3-0.7,0.4-1l0.5-1.1h1.6l-1.7,3l1.8,3.1H35.6z"/>
		<path fill="#FFFFFF" d="M39.3,7.9v6.1H38V7.9H39.3z"/>
	</g>
	<g>
		<g>
			<path fill="#FFFFFF" d="M8,20.5c0.7,0,1.3,0.4,1.5,1.1c0.1,0.2,0.1,0.4,0.1,0.5c0.1,0.5,0.2,1,0.3,1.5c0.2,0.9,0.4,1.9,0.5,2.8
				c0,0.2,0.1,0.5,0.1,0.7c0,0.1,0,0.1,0.1,0.1c0.1,0,0.1,0,0.2,0c1.6,0,3.1,0,4.7,0c0.5,0,0.9,0.3,1,0.9c0.1,0.7,0.3,1.5,0.4,2.2
				c0.2,0.8,0.3,1.6,0.4,2.4c0.1,0.5,0.2,1,0.3,1.5c0.1,0.4-0.1,0.8-0.5,1c-0.5,0.3-1.1,0.2-1.4-0.3c-0.1-0.1-0.1-0.3-0.2-0.4
				c-0.1-0.7-0.2-1.3-0.4-2c-0.1-0.7-0.3-1.5-0.4-2.2c0-0.3-0.1-0.5-0.1-0.8c0-0.1,0-0.1,0-0.2c0,0,0,0-0.1,0c0,0,0,0-0.1,0
				c-1.6,0-3.2,0-4.8,0c-0.3,0-0.5,0-0.8,0c-0.8,0-1.5-0.6-1.6-1.4c-0.1-0.7-0.2-1.3-0.4-2c-0.1-0.6-0.2-1.1-0.3-1.7
				c-0.1-0.6-0.2-1.2-0.3-1.9c-0.1-0.8,0.2-1.5,1-1.8C7.6,20.6,7.8,20.5,8,20.5z"/>
		</g>
		<g>
			<path fill="#FFFFFF" d="M9,32.3c-0.3,0-0.6,0-0.9,0c-0.8,0-1.5-0.2-2.2-0.7c-0.6-0.4-1-1-1.3-1.7c-0.1-0.4-0.2-0.8-0.3-1.2
				c-0.1-0.6-0.2-1.2-0.3-1.8C4,26.5,3.9,26,3.8,25.5c-0.1-0.6-0.2-1.1-0.3-1.7C3.4,23.4,3.7,23,4,22.9c0.5-0.1,0.9,0.2,1,0.6
				c0.1,0.7,0.3,1.3,0.4,2c0.1,0.5,0.2,1,0.3,1.4c0.1,0.5,0.2,0.9,0.3,1.4C6,28.7,6,28.9,6.1,29.2c0.2,0.6,0.6,1.1,1.2,1.4
				c0.3,0.1,0.7,0.2,1,0.2c0,0,0.1,0,0.1,0c1.4,0,2.9,0,4.3,0c0.5,0,0.9,0.4,0.8,0.9c-0.1,0.4-0.4,0.6-0.8,0.6c-0.7,0-1.4,0-2,0
				c0,0-0.1,0-0.1,0c0,0,0,0.1,0,0.1c0,1.1,0,2.2,0,3.2c0,0.4-0.3,0.7-0.6,0.8C9.4,36.6,9,36.2,9,35.7c0-1.1,0-2.2,0-3.3
				C9,32.4,9,32.4,9,32.3z"/>
		</g>
		<g>
			<path fill="#FFFFFF" d="M5.8,18.6c0-0.9,0.7-1.6,1.6-1.6c0.9,0,1.6,0.8,1.6,1.6c0,0.9-0.7,1.6-1.6,1.6
				C6.5,20.1,5.8,19.4,5.8,18.6z"/>
		</g>
	</g>
	<g>
		<g>
			<path fill="#FFFFFF" d="M6.7,11.4c0-2.7,2.2-4.8,4.8-4.8c2.7,0,4.8,2.2,4.8,4.9c0,2.6-2.2,4.7-4.8,4.7C8.8,16.2,6.7,14,6.7,11.4z
				 M15.4,11.4c0-2.2-1.8-3.9-4-3.8c-2.1,0.1-3.8,1.8-3.7,4c0.1,2.1,1.8,3.7,3.9,3.7C13.7,15.2,15.4,13.4,15.4,11.4z"/>
		</g>
		<g>
			<path fill="#FFFFFF" d="M12,11.9C12,11.9,11.9,11.9,12,11.9c-0.8,0-1.5,0-2.3,0c-0.3,0-0.5-0.2-0.5-0.6c0-0.2,0.2-0.4,0.5-0.4
				c0.4,0,0.8,0,1.2,0c0.1,0,0.1,0,0.2,0c0-0.1,0-0.1,0-0.2c0-0.6,0-1.1,0-1.7c0-0.3,0.2-0.5,0.4-0.5C11.8,8.5,12,8.7,12,9
				C12,9.9,12,10.9,12,11.9C12,11.8,12,11.8,12,11.9z"/>
		</g>
	</g>
</g>
</svg>
