<?xml version="1.0" encoding="utf-8"?>
<!-- Generator: Adobe Illustrator 19.2.1, SVG Export Plug-In . SVG Version: 6.00 Build 0)  -->
<svg version="1.1" id="Public_Telephone" xmlns="http://www.w3.org/2000/svg" xmlns:xlink="http://www.w3.org/1999/xlink" x="0px"
	 y="0px" viewBox="0 0 45 45" enable-background="new 0 0 45 45" xml:space="preserve">
<g id="Public_Telephone_1_">
	<g>
		<path d="M39.3,45L5.7,45C2.6,45,0,42.4,0,39.3L0,5.7C0,2.6,2.6,0,5.7,0l33.6,0C42.4,0,45,2.6,45,5.7l0,33.6
			C45,42.4,42.4,45,39.3,45z"/>
	</g>
	<g id="TS1qlh_5_">
		<g>
			<g>
				<path fill="#FFFFFF" d="M37.6,31.3C37.6,31.3,37.6,31.3,37.6,31.3c-0.4,3-2.6,4-5,4.8c-1.6,0.5-3.1,0.1-4.6-0.3
					c-6.7-2-11.5-6.4-15.2-12c-1.5-2.2-2.3-4.8-2.9-7.4c0-0.1-0.1-0.2-0.1-0.3c0-0.6,0-1.1,0-1.7c0.3-1.4,0.8-2.6,1.6-3.8
					c1-1.6,2.6-1.9,4.3-2c0.3,0,0.7,0.3,0.9,0.6c0.7,1.1,1.2,2.2,1.9,3.3c0.4,0.6,0.8,1.2,1.1,1.8c0.5,0.8,0.5,1.2-0.2,1.9
					c-0.7,0.7-1.4,1.2-2.2,1.9c-1.1,0.9-1.1,1.2-0.4,2.5c2.1,3.8,5,6.8,8.9,8.8c1.1,0.6,1.5,0.6,2.3-0.3c0.6-0.7,1.2-1.5,1.9-2.2
					c0.8-0.8,1.2-0.8,2.1-0.2c1.5,0.9,3,1.7,4.5,2.6c0.4,0.2,0.8,0.5,1.1,0.8C37.6,30.5,37.6,30.9,37.6,31.3z"/>
			</g>
		</g>
	</g>
</g>
</svg>
