<?xml version="1.0" encoding="utf-8"?>
<!-- Generator: Adobe Illustrator 19.2.1, SVG Export Plug-In . SVG Version: 6.00 Build 0)  -->
<svg version="1.1" id="Toilet" xmlns="http://www.w3.org/2000/svg" xmlns:xlink="http://www.w3.org/1999/xlink" x="0px" y="0px"
	 viewBox="0 0 45 45" enable-background="new 0 0 45 45" xml:space="preserve">
<g id="Toilet_1_">
	<g>
		<path d="M39.3,45L5.7,45C2.6,45,0,42.4,0,39.3L0,5.7C0,2.6,2.6,0,5.7,0l33.6,0C42.4,0,45,2.6,45,5.7l0,33.6
			C45,42.4,42.4,45,39.3,45z"/>
	</g>
	<g>
		<g>
			<path fill="#FFFFFF" d="M22.3,6.7c0,1.7-0.1,3.4-0.1,5.1c0,8.3,0,16.6,0,24.9c0,0.4,0,0.9,0,1.4c-0.6,0-1.2,0-1.9,0
				c0-0.3-0.1-0.5-0.1-0.8c0-9.9,0-19.9,0-29.8c0-0.3,0-0.6,0.1-0.9C20.9,6.7,21.6,6.7,22.3,6.7z"/>
		</g>
		<g>
			<path fill="#FFFFFF" d="M33,6.7c1.1,0.5,2.2,1.1,2.2,2.6c0.1,1.5-0.8,2.8-2.2,3.1c-1.5,0.3-2.8-0.5-3.2-1.9C29.4,9,30,7.6,31.5,7
				c0.2-0.1,0.4-0.2,0.5-0.3C32.4,6.7,32.7,6.7,33,6.7z"/>
		</g>
		<g>
			<path fill="#FFFFFF" d="M11.5,6.7c1.2,0.5,2.2,1.2,2.3,2.7c0.1,1.4-0.9,2.7-2.2,2.9c-1.4,0.2-2.8-0.5-3.2-1.8
				C7.8,9.2,8.4,7.7,9.7,7.1c0.3-0.1,0.5-0.2,0.8-0.3C10.8,6.7,11.2,6.7,11.5,6.7z"/>
		</g>
		<g>
			<path fill="#FFFFFF" d="M29.3,28.5c-1,0-1.9,0-2.9,0c1.2-4.2,2.3-8.3,3.4-12.3c-0.2-0.1-0.3-0.1-0.5-0.2
				c-0.1,0.4-0.3,0.8-0.4,1.1c-0.6,2.1-1.2,4.1-1.8,6.2c-0.2,0.8-0.6,1.5-1.6,1.3c-1-0.3-0.9-1.1-0.7-1.9c0.7-2.4,1.4-4.8,2.1-7.3
				c0.4-1.5,1.4-2.3,2.9-2.3c1.8-0.1,3.6-0.1,5.4,0c1.5,0,2.5,0.9,2.9,2.3c0.7,2.5,1.4,5,2.1,7.5c0.2,0.8,0.1,1.4-0.7,1.6
				c-0.8,0.2-1.3-0.2-1.5-1c-0.6-2.2-1.2-4.3-1.8-6.5c-0.1-0.4-0.3-0.8-0.4-1.2c-0.2,0.1-0.3,0.1-0.5,0.2c1.1,4.1,2.3,8.1,3.4,12.3
				c-1,0-1.9,0-2.9,0c0,2.3,0,4.5,0,6.8c0,0.5,0,1.1,0,1.6c0,1-0.5,1.5-1.4,1.5c-1,0-1.5-0.6-1.5-1.6c0-2.2,0-4.4,0-6.6
				c0-0.5,0-1.1,0-1.6c-0.2,0-0.3,0-0.5,0c-0.1,0.4-0.1,0.8-0.1,1.2c0,2.3,0,4.6,0,7c0,1-0.5,1.6-1.4,1.6c-1,0-1.5-0.6-1.5-1.6
				c0-0.4,0-0.8,0-1.2C29.3,33.2,29.3,30.9,29.3,28.5z"/>
		</g>
		<g>
			<path fill="#FFFFFF" d="M7.1,17.2c0,1.9,0,3.9,0,5.8c0,0.4,0.1,0.8,0,1.1c-0.3,0.5-0.6,1.1-1.1,1.2c-0.7,0.2-1.2-0.4-1.3-1.1
				c0-2.8-0.1-5.6,0-8.4c0.1-1.6,1.3-2.6,3-2.6c2.2,0,4.3,0,6.5,0c1.8,0,3,1.2,3,3c0,2.6,0,5.1,0,7.7c0,0.8-0.1,1.5-1.1,1.5
				c-1,0-1.2-0.6-1.2-1.5c0-1.9,0-3.8,0-5.6c0-0.4-0.1-0.7-0.1-1.1c-0.1,0-0.3,0-0.4,0c-0.1,0.4-0.2,0.8-0.2,1.3
				c0,5.9,0,11.8,0,17.7c0,0.5,0.1,1.1-0.2,1.4c-0.4,0.4-1,0.7-1.5,0.7c-0.9-0.1-1.2-0.8-1.2-1.7c0-3.3,0-6.6,0-9.9
				c0-0.4,0-0.8-0.1-1.3c-0.1,0-0.3,0-0.4,0c-0.1,0.4-0.2,0.8-0.2,1.2c0,3.4,0,6.8,0,10.2c0,0.9-0.4,1.5-1.2,1.5
				c-0.5,0-1.1-0.4-1.5-0.8c-0.2-0.3-0.1-0.9-0.1-1.3c0-5.9,0-11.8,0-17.7c0-0.4-0.1-0.8-0.2-1.3C7.4,17.2,7.2,17.2,7.1,17.2z"/>
		</g>
	</g>
</g>
</svg>
