<?xml version="1.0" encoding="utf-8"?>
<!-- Generator: Adobe Illustrator 16.0.0, SVG Export Plug-In . SVG Version: 6.00 Build 0)  -->
<!DOCTYPE svg PUBLIC "-//W3C//DTD SVG 1.1//EN" "http://www.w3.org/Graphics/SVG/1.1/DTD/svg11.dtd">
<svg version="1.1" id="Isolation_Mode" xmlns="http://www.w3.org/2000/svg" xmlns:xlink="http://www.w3.org/1999/xlink" x="0px"
	 y="0px" width="1000px" height="1000px" viewBox="0 0 1000 1000" enable-background="new 0 0 1000 1000" xml:space="preserve">
<g id="Tourist_Lounge">
	<g>
		<path fill="#D01C1F" d="M873.333,1000H126.667C57.778,1000,0,942.223,0,873.333V126.667C0,57.778,57.778,0,126.667,0h746.667
			C942.223,0,1000,57.778,1000,126.667v746.667C1000,942.223,942.223,1000,873.333,1000z"/>
	</g>
	<g>
		<path fill="#FFFFFF" d="M580,348.889c22.223,0,40,13.333,46.667,33.333c2.222,4.444,2.222,11.111,4.444,17.778
			c2.222,15.556,6.666,31.111,8.889,46.667c4.444,28.889,11.111,57.777,15.556,86.666c2.223,6.667,2.223,13.334,4.444,22.223
			c0,2.223,0,2.223,2.223,2.223s4.444,0,6.666,0c48.89,0,95.557,0,144.444,0c15.556,0,28.89,11.11,31.11,26.667
			c4.444,22.223,8.891,44.443,13.334,68.889c4.444,24.444,8.89,48.89,13.334,73.334c2.222,15.556,6.666,31.11,8.889,46.666
			c2.223,11.111-4.444,26.667-13.333,31.111c-15.556,8.889-33.334,6.667-44.444-8.89c-2.223-4.443-4.444-8.889-4.444-13.333
			c-4.444-20-6.666-40-11.11-62.223s-8.89-44.444-13.333-68.889c-2.223-8.89-2.223-15.557-4.445-24.444c0-2.223,0-4.444-2.222-6.667
			c0,0,0,0-2.223-2.223h-2.223c-48.889,0-97.777,0-146.667,0c-8.889,0-15.556,0-24.443,0c-24.444,0-44.444-17.777-48.89-42.223
			c-4.443-20-6.667-40-11.11-60c-2.224-17.777-6.667-35.556-8.89-51.11c-4.443-20-6.667-37.777-11.11-57.778
			c-4.444-24.444,6.667-46.667,31.11-55.555C566.667,348.889,573.333,348.889,580,348.889z"/>
		<path fill="#FFFFFF" d="M608.889,711.111c-8.889,0-17.776,0-26.666,0c-24.444,0-46.667-6.667-66.667-22.224
			c-17.777-13.333-31.11-31.11-40-53.333c-4.443-11.11-6.667-24.443-8.889-37.777C462.223,580,460,562.223,455.556,544.444
			c-2.223-15.557-4.443-28.89-8.889-44.444c-2.223-17.777-6.667-35.556-8.89-51.111c-2.223-13.333,6.667-26.666,17.777-28.889
			c13.333-4.444,26.667,4.444,31.111,20c4.444,20,8.889,42.223,11.11,62.223c2.223,15.556,4.444,28.89,8.89,44.444
			c2.222,13.333,4.444,28.889,8.889,42.222c2.223,8.89,2.223,17.778,4.444,26.667c4.444,20,17.777,33.333,35.556,42.223
			c11.111,4.444,20,6.667,31.111,4.444h2.222c44.444,0,88.89,0,131.111,0c15.556,0,26.667,13.333,24.444,28.89
			c-2.223,11.11-11.111,20-24.444,20c-20,0-42.224,0-62.224,0c0,0-2.222,0-4.443,0c0,2.222,0,2.222,0,4.443c0,33.333,0,66.667,0,100
			c0,11.111-6.666,22.223-17.777,24.444c-15.556,2.223-28.889-8.889-28.889-24.444c0-33.333,0-66.667,0-100
			C608.889,713.333,608.889,711.111,608.889,711.111z"/>
		<path fill="#FFFFFF" d="M511.111,286.667c0-26.667,22.222-48.889,48.889-48.889c28.889,0,48.889,22.222,48.889,48.889
			S586.667,335.556,560,335.556C531.111,335.556,508.889,313.333,511.111,286.667z"/>
	</g>
	<g>
		<path fill="#FFFFFF" d="M308.889,640c13.334,0,26.667,0,40,0c0,66.667,0,133.333,0,197.777c-53.333,0-108.889,0-162.222,0
			c0-66.666,0-133.333,0-197.777c4.445,0,8.889,0,13.333,0s8.889,0,13.333,0s8.889,0,13.333,0c0,0,0,0,0-2.223
			c0-8.89,0-17.777,0-26.666c0-2.224,0-4.444,0-4.444c2.222-4.445,4.445-8.89,8.889-11.111c2.222-2.223,6.667-2.223,11.111-2.223
			c13.333,0,28.889,0,42.222,0c4.445,0,6.667,0,11.111,2.223c4.444,2.223,6.667,6.666,8.889,11.111c0,2.222,0,2.222,0,4.444
			C308.889,620,308.889,628.889,308.889,640C308.889,637.777,308.889,637.777,308.889,640z M293.333,611.111
			c-2.222,0-53.333,0-53.333,0c0,8.889,0,20,0,28.889c17.778,0,35.556,0,53.333,0C293.333,628.889,293.333,620,293.333,611.111z"/>
		<path fill="#FFFFFF" d="M171.111,640c0,66.667,0,133.333,0,197.777l0,0c-6.667,0-15.556,0-22.223,0
			c-11.111,0-20-6.666-24.444-15.557c-2.222-4.443-2.222-8.889-4.444-13.333v-2.222c0-46.667,0-91.111,0-137.778
			c0-13.333,6.667-22.222,15.556-26.666C140,640,144.444,640,148.889,640C155.556,640,164.444,640,171.111,640L171.111,640z"/>
		<path fill="#FFFFFF" d="M364.444,640L364.444,640c8.889,0,15.556,0,22.223,0c13.333,0,26.666,11.111,28.889,24.444
			c0,2.223,0,4.443,0,6.667c0,46.666,0,91.11,0,137.776c0,4.444,0,8.89-2.223,13.333c-4.444,8.891-11.11,13.334-20,15.557
			c-2.222,0-4.444,0-6.666,0c-6.667,0-13.334,0-20,0l0,0C364.444,771.111,364.444,704.444,364.444,640z"/>
	</g>
</g>
</svg>
