<?xml version="1.0" encoding="utf-8"?>
<!-- Generator: Adobe Illustrator 19.2.1, SVG Export Plug-In . SVG Version: 6.00 Build 0)  -->
<svg version="1.1" id="Isolation_Mode" xmlns="http://www.w3.org/2000/svg" xmlns:xlink="http://www.w3.org/1999/xlink" x="0px"
	 y="0px" viewBox="0 0 45 45" style="enable-background:new 0 0 45 45;" xml:space="preserve">
<style type="text/css">
	.st0{fill:#FFFFFF;}
</style>
<g id="Tourist_Lounge">
	<g>
		<path d="M39.3,45L5.7,45C2.6,45,0,42.4,0,39.3L0,5.7C0,2.6,2.6,0,5.7,0l33.6,0C42.4,0,45,2.6,45,5.7l0,33.6
			C45,42.4,42.4,45,39.3,45z"/>
	</g>
	<g>
		<path class="st0" d="M26.1,15.7c1,0,1.8,0.6,2.1,1.5c0.1,0.2,0.1,0.5,0.2,0.8c0.1,0.7,0.3,1.4,0.4,2.1c0.2,1.3,0.5,2.6,0.7,3.9
			c0.1,0.3,0.1,0.6,0.2,1c0,0.1,0,0.1,0.1,0.1c0.1,0,0.2,0,0.3,0c2.2,0,4.3,0,6.5,0c0.7,0,1.3,0.5,1.4,1.2c0.2,1,0.4,2,0.6,3.1
			c0.2,1.1,0.4,2.2,0.6,3.3c0.1,0.7,0.3,1.4,0.4,2.1c0.1,0.5-0.2,1.2-0.6,1.4c-0.7,0.4-1.5,0.3-2-0.4c-0.1-0.2-0.2-0.4-0.2-0.6
			c-0.2-0.9-0.3-1.8-0.5-2.8c-0.2-1-0.4-2-0.6-3.1c-0.1-0.4-0.1-0.7-0.2-1.1c0-0.1,0-0.2-0.1-0.3c0,0,0,0-0.1-0.1c0,0-0.1,0-0.1,0
			c-2.2,0-4.4,0-6.6,0c-0.4,0-0.7,0-1.1,0c-1.1,0-2-0.8-2.2-1.9c-0.2-0.9-0.3-1.8-0.5-2.7c-0.1-0.8-0.3-1.6-0.4-2.3
			c-0.2-0.9-0.3-1.7-0.5-2.6c-0.2-1.1,0.3-2.1,1.4-2.5C25.5,15.7,25.8,15.7,26.1,15.7z"/>
		<path class="st0" d="M27.4,32c-0.4,0-0.8,0-1.2,0c-1.1,0-2.1-0.3-3-1c-0.8-0.6-1.4-1.4-1.8-2.4c-0.2-0.5-0.3-1.1-0.4-1.7
			c-0.2-0.8-0.3-1.6-0.5-2.4c-0.1-0.7-0.2-1.3-0.4-2c-0.1-0.8-0.3-1.6-0.4-2.3c-0.1-0.6,0.3-1.2,0.8-1.3c0.6-0.2,1.2,0.2,1.4,0.9
			c0.2,0.9,0.4,1.9,0.5,2.8c0.1,0.7,0.2,1.3,0.4,2c0.1,0.6,0.2,1.3,0.4,1.9c0.1,0.4,0.1,0.8,0.2,1.2c0.2,0.9,0.8,1.5,1.6,1.9
			c0.5,0.2,0.9,0.3,1.4,0.2c0,0,0.1,0,0.1,0c2,0,4,0,5.9,0c0.7,0,1.2,0.6,1.1,1.3c-0.1,0.5-0.5,0.9-1.1,0.9c-0.9,0-1.9,0-2.8,0
			c0,0-0.1,0-0.2,0c0,0.1,0,0.1,0,0.2c0,1.5,0,3,0,4.5c0,0.5-0.3,1-0.8,1.1c-0.7,0.1-1.3-0.4-1.3-1.1c0-1.5,0-3,0-4.5
			C27.4,32.1,27.4,32,27.4,32z"/>
		<path class="st0" d="M23,12.9c0-1.2,1-2.2,2.2-2.2c1.3,0,2.2,1,2.2,2.2c0,1.2-1,2.2-2.2,2.2C23.9,15.1,22.9,14.1,23,12.9z"/>
	</g>
	<g>
		<path class="st0" d="M13.9,28.8c0.6,0,1.2,0,1.8,0c0,3,0,6,0,8.9c-2.4,0-4.9,0-7.3,0c0-3,0-6,0-8.9c0.2,0,0.4,0,0.6,0
			c0.2,0,0.4,0,0.6,0c0.2,0,0.4,0,0.6,0c0,0,0,0,0-0.1c0-0.4,0-0.8,0-1.2c0-0.1,0-0.2,0-0.2c0.1-0.2,0.2-0.4,0.4-0.5
			c0.1-0.1,0.3-0.1,0.5-0.1c0.6,0,1.3,0,1.9,0c0.2,0,0.3,0,0.5,0.1c0.2,0.1,0.3,0.3,0.4,0.5c0,0.1,0,0.1,0,0.2
			C13.9,27.9,13.9,28.3,13.9,28.8C13.9,28.7,13.9,28.7,13.9,28.8z M13.2,27.5c-0.1,0-2.4,0-2.4,0c0,0.4,0,0.9,0,1.3
			c0.8,0,1.6,0,2.4,0C13.2,28.3,13.2,27.9,13.2,27.5z"/>
		<path class="st0" d="M7.7,28.8c0,3,0,6,0,8.9c0,0,0,0,0,0c-0.3,0-0.7,0-1,0c-0.5,0-0.9-0.3-1.1-0.7c-0.1-0.2-0.1-0.4-0.2-0.6
			c0,0,0-0.1,0-0.1c0-2.1,0-4.1,0-6.2c0-0.6,0.3-1,0.7-1.2c0.2-0.1,0.4-0.1,0.6-0.1C7,28.8,7.4,28.8,7.7,28.8
			C7.7,28.8,7.7,28.8,7.7,28.8z"/>
		<path class="st0" d="M16.4,28.8C16.4,28.8,16.4,28.8,16.4,28.8c0.4,0,0.7,0,1,0c0.6,0,1.2,0.5,1.3,1.1c0,0.1,0,0.2,0,0.3
			c0,2.1,0,4.1,0,6.2c0,0.2,0,0.4-0.1,0.6c-0.2,0.4-0.5,0.6-0.9,0.7c-0.1,0-0.2,0-0.3,0c-0.3,0-0.6,0-0.9,0c0,0,0,0,0,0
			C16.4,34.7,16.4,31.7,16.4,28.8z"/>
	</g>
</g>
</svg>
