<?xml version="1.0" encoding="utf-8"?>
<!-- Generator: Adobe Illustrator 19.2.1, SVG Export Plug-In . SVG Version: 6.00 Build 0)  -->
<svg version="1.1" id="Isolation_Mode" xmlns="http://www.w3.org/2000/svg" xmlns:xlink="http://www.w3.org/1999/xlink" x="0px"
	 y="0px" viewBox="0 0 45 45" style="enable-background:new 0 0 45 45;" xml:space="preserve">
<style type="text/css">
	.st0{fill:#FFFFFF;}
</style>
<g id="Breastfeeding_Room_1_">
	<g>
		<path d="M39.3,45H5.7C2.6,45,0,42.4,0,39.3V5.7C0,2.6,2.6,0,5.7,0h33.6C42.4,0,45,2.6,45,5.7v33.6C45,42.4,42.4,45,39.3,45z"/>
	</g>
	<path class="st0" d="M22.2,13.9c0-1.6,0-3.2,0-4.9c0.8,0,1.6,0,2.4,0c0,1.8,0,3.5,0,5.3c-0.5,0-0.9,0-1.5,0c0.5,0.9-0.1,1.4-0.5,2
		c-0.8,1-1.6,1.9-2.4,2.9s-1.7,0.8-2.1-0.4c-0.2-0.7-0.5-1.4-0.7-2.1c-0.1-0.4-0.3-0.5-0.7-0.4c0.5,1.7,1,3.4,1.5,5.1
		c-2.8,0-5.6,0-8.4,0c0.5-1.7,0.9-3.4,1.4-5.2c-0.4-0.1-0.6-0.1-0.7,0.3c-0.4,1.5-0.8,2.9-1.2,4.4c-0.1,0.3-0.2,0.4-0.6,0.4
		c-0.6,0-1.2,0-1.9,0c0.1-0.5,0.3-1,0.4-1.5c0.4-1.5,0.8-3.1,1.3-4.6c0.5-1.8,2-2.9,3.8-2.9c1,0,2.1,0,3.1,0c2.2,0,3.5,1,4.1,3.1
		c0.1,0.2,0.1,0.5,0.2,0.7C20.6,15.6,21,14.3,22.2,13.9z"/>
	<path class="st0" d="M26.3,25.1H5.6c-0.5,0-0.9-0.4-0.9-0.9v-0.5c0-0.5,0.4-0.9,0.9-0.9h20.7c0.5,0,0.9,0.4,0.9,0.9v0.5
		C27.2,24.7,26.8,25.1,26.3,25.1z"/>
	<path class="st0" d="M40,23.6c0-1.8,0-1.9,0-2c0-2.3,0-4.5,0-6.8c0-1.5-0.7-2.3-2.2-2.3c-2.2,0-6.1,0-8.3,0c-0.7,0-1.3,0.3-1.8,0.8
		c-1.7,2.1-3.5,4.2-5.2,6.3c-0.7,0.8-0.4,1.8,0.6,2.1c0.6,0.2,1-0.1,1.3-0.5c1.5-1.8,3-3.5,4.5-5.3c0.1-0.2,0.3-0.3,0.5-0.6
		c0,0.3,0,0.5,0,0.6c0,1.9,0,17.7,0,21.4c0,1,0.3,1.8,1.3,2.1c0.2,0,0.4,0,0.6,0c1-0.3,1.2-1.1,1.2-2.1c0-3.8,0-7.6,0-11.3
		c0,0,0-0.1,0-1H34c0,0.9,0,0.9,0,0.9c0,3.8,0,7.5,0,11.3c0,0.3,0,0.6,0.1,0.9c0.2,0.8,0.8,1.3,1.6,1.2c0.8,0,1.3-0.6,1.4-1.4
		c0-0.2,0-0.4,0-0.6c0-3.8,0-7.5,0-11.3c0,0,0-0.1,0-1V14.9h0.6v8.8c0,0-0.2,1.5,1.2,1.5C40.1,25.1,40,24,40,23.6z"/>
	<path class="st0" d="M22.5,29.7c0.6,0,1.2,0,1.8,0c0,3,0,6,0,8.9c-2.4,0-4.9,0-7.3,0c0-3,0-6,0-8.9c0.2,0,0.4,0,0.6,0s0.4,0,0.6,0
		s0.4,0,0.6,0c0,0,0,0,0-0.1c0-0.4,0-0.8,0-1.2c0-0.1,0-0.2,0-0.2c0.1-0.2,0.2-0.4,0.4-0.5c0.1-0.1,0.3-0.1,0.5-0.1
		c0.6,0,1.3,0,1.9,0c0.2,0,0.3,0,0.5,0.1s0.3,0.3,0.4,0.5c0,0.1,0,0.1,0,0.2C22.5,28.8,22.5,29.3,22.5,29.7L22.5,29.7z M21.8,28.4
		c-0.1,0-2.4,0-2.4,0c0,0.4,0,0.9,0,1.3c0.8,0,1.6,0,2.4,0C21.8,29.3,21.8,28.8,21.8,28.4z"/>
	<path class="st0" d="M16.3,29.7c0,3,0,6,0,8.9l0,0c-0.3,0-0.7,0-1,0c-0.5,0-0.9-0.3-1.1-0.7C14,37.8,14,37.6,14,37.4v-0.1
		c0-2.1,0-4.1,0-6.2c0-0.6,0.3-1,0.7-1.2c0.2-0.1,0.4-0.1,0.6-0.1C15.6,29.7,15.9,29.7,16.3,29.7L16.3,29.7z"/>
	<path class="st0" d="M25,29.7L25,29.7c0.4,0,0.7,0,1,0c0.6,0,1.2,0.5,1.3,1.1c0,0.1,0,0.2,0,0.3c0,2.1,0,4.1,0,6.2
		c0,0.2,0,0.4-0.1,0.6c-0.2,0.4-0.5,0.6-0.9,0.7c-0.1,0-0.2,0-0.3,0c-0.3,0-0.6,0-0.9,0l0,0C25,35.7,25,32.7,25,29.7z"/>
</g>
<circle class="st0" cx="13.9" cy="9.1" r="2.7"/>
<circle class="st0" cx="32.9" cy="9.2" r="2.7"/>
</svg>
