<?xml version="1.0" encoding="utf-8"?>
<!-- Generator: Adobe Illustrator 16.0.0, SVG Export Plug-In . SVG Version: 6.00 Build 0)  -->
<!DOCTYPE svg PUBLIC "-//W3C//DTD SVG 1.1//EN" "http://www.w3.org/Graphics/SVG/1.1/DTD/svg11.dtd">
<svg version="1.1" id="Isolation_Mode" xmlns="http://www.w3.org/2000/svg" xmlns:xlink="http://www.w3.org/1999/xlink" x="0px"
	 y="0px" width="1000px" height="1000px" viewBox="0 0 1000 1000" enable-background="new 0 0 1000 1000" xml:space="preserve">
<g id="Breastfeeding_Room_1_">
	<g>
		<path fill="#D01C1F" d="M873.333,1000H126.667C57.778,1000,0,942.223,0,873.333V126.667C0,57.778,57.778,0,126.667,0h746.667
			C942.223,0,1000,57.778,1000,126.667v746.667C1000,942.223,942.223,1000,873.333,1000z"/>
	</g>
	<path fill="#FFFFFF" d="M493.333,308.889c0-35.555,0-71.111,0-108.889c17.778,0,35.556,0,53.334,0c0,40,0,77.778,0,117.778
		c-11.111,0-20,0-33.334,0c11.111,20-2.222,31.111-11.11,44.444c-17.778,22.222-35.556,42.222-53.334,64.445
		c-17.777,22.222-37.777,17.777-46.666-8.889c-4.445-15.556-11.111-31.111-15.556-46.667c-2.223-8.889-6.667-11.111-15.556-8.889
		c11.111,37.778,22.222,75.555,33.333,113.333c-62.222,0-124.444,0-186.667,0c11.111-37.778,20-75.556,31.111-115.556
		c-8.889-2.222-13.333-2.222-15.555,6.667c-8.889,33.333-17.778,64.445-26.667,97.778c-2.222,6.667-4.444,8.889-13.333,8.889
		c-13.333,0-26.667,0-42.222,0c2.222-11.11,6.667-22.222,8.889-33.333c8.889-33.333,17.778-68.889,28.889-102.222
		c11.111-40,44.445-64.444,84.445-64.444c22.222,0,46.667,0,68.889,0c48.889,0,77.777,22.222,91.11,68.889
		c2.223,4.444,2.223,11.111,4.444,15.556C457.777,346.667,466.667,317.778,493.333,308.889z"/>
	<path fill="#FFFFFF" d="M584.444,557.777h-460c-11.111,0-20-8.889-20-20v-11.11c0-11.111,8.889-20,20-20h460
		c11.111,0,20,8.889,20,20v11.11C604.444,548.889,595.556,557.777,584.444,557.777z"/>
	<path fill="#FFFFFF" d="M888.889,524.444c0-40,0-42.222,0-44.444c0-51.111,0-100,0-151.111c0-33.333-15.556-51.111-48.889-51.111
		c-48.889,0-135.556,0-184.444,0c-15.556,0-28.889,6.667-40,17.778c-37.778,46.667-77.778,93.333-115.556,140
		c-15.556,17.777-8.889,40,13.333,46.667c13.334,4.444,22.223-2.223,28.89-11.111c33.333-40,66.666-77.778,100-117.778
		c2.222-4.445,6.666-6.667,11.11-13.333c0,6.667,0,11.111,0,13.333c0,42.222,0,393.333,0,475.555c0,22.223,6.667,40,28.89,46.667
		c4.444,0,8.889,0,13.333,0c22.222-6.667,26.667-24.444,26.667-46.667c0-84.444,0-168.889,0-251.111c0,0,0-2.222,0-22.222h33.333
		c0,20,0,20,0,20c0,84.444,0,166.667,0,251.111c0,6.666,0,13.333,2.222,20c4.445,17.777,17.778,28.889,35.556,26.666
		c17.778,0,28.89-13.333,31.111-31.11c0-4.445,0-8.89,0-13.334c0-84.444,0-166.666,0-251.111c0,0,0-2.222,0-22.222V331.111h13.333
		v195.556c0,0-4.444,33.333,26.667,33.333C891.111,557.777,888.889,533.333,888.889,524.444z"/>
	<path fill="#FFFFFF" d="M500,660c13.333,0,26.667,0,40,0c0,66.667,0,133.333,0,197.777c-53.333,0-108.889,0-162.223,0
		c0-66.666,0-133.333,0-197.777c4.445,0,8.89,0,13.334,0s8.889,0,13.333,0s8.889,0,13.333,0c0,0,0,0,0-2.223
		c0-8.889,0-17.777,0-26.666c0-2.223,0-4.444,0-4.444c2.223-4.445,4.445-8.89,8.89-11.111c2.222-2.223,6.666-2.223,11.11-2.223
		c13.334,0,28.89,0,42.223,0c4.444,0,6.667,0,11.111,2.223c4.444,2.222,6.666,6.666,8.889,11.111c0,2.222,0,2.222,0,4.444
		C500,640,500,651.111,500,660L500,660z M484.444,631.111c-2.222,0-53.333,0-53.333,0c0,8.889,0,20,0,28.889
		c17.777,0,35.556,0,53.333,0C484.444,651.111,484.444,640,484.444,631.111z"/>
	<path fill="#FFFFFF" d="M362.223,660c0,66.667,0,133.333,0,197.777l0,0c-6.667,0-15.556,0-22.223,0
		c-11.111,0-20-6.666-24.444-15.555c-4.444-2.223-4.444-6.667-4.444-11.111v-2.223c0-46.666,0-91.111,0-137.777
		c0-13.334,6.666-22.223,15.556-26.667c4.444-2.222,8.889-2.222,13.333-2.222C346.667,660,353.333,660,362.223,660L362.223,660z"/>
	<path fill="#FFFFFF" d="M555.556,660L555.556,660c8.889,0,15.556,0,22.222,0c13.334,0,26.667,11.111,28.89,24.444
		c0,2.223,0,4.444,0,6.667c0,46.666,0,91.111,0,137.777c0,4.444,0,8.889-2.223,13.334c-4.444,8.889-11.111,13.333-20,15.555
		c-2.222,0-4.444,0-6.667,0c-6.666,0-13.333,0-20,0l0,0C555.556,793.333,555.556,726.667,555.556,660z"/>
</g>
<circle fill="#FFFFFF" cx="308.889" cy="202.222" r="60"/>
<circle fill="#FFFFFF" cx="731.111" cy="204.444" r="60"/>
</svg>
