<?xml version="1.0" encoding="utf-8"?>
<!-- Generator: Adobe Illustrator 19.2.1, SVG Export Plug-In . SVG Version: 6.00 Build 0)  -->
<svg version="1.1" id="Golf_Car_1_" xmlns="http://www.w3.org/2000/svg" xmlns:xlink="http://www.w3.org/1999/xlink" x="0px"
	 y="0px" viewBox="0 0 45 45" enable-background="new 0 0 45 45" xml:space="preserve">
<g id="Golf_Car">
	<g>
		<g>
			<path d="M39.3,45L5.7,45C2.6,45,0,42.4,0,39.3L0,5.7C0,2.6,2.6,0,5.7,0l33.6,0C42.4,0,45,2.6,45,5.7l0,33.6
				C45,42.4,42.4,45,39.3,45z"/>
		</g>
	</g>
	<g>
		<g>
			<path fill="#FFFFFF" d="M12.8,26.2c2.2,0,3.9,1.8,3.9,3.9c0,2.2-1.8,4-3.9,3.9c-2.2,0-4-1.8-3.9-3.9C8.8,28,10.6,26.2,12.8,26.2z
				 M12.7,31.9c1,0,1.8-0.8,1.8-1.8c0-1-0.8-1.8-1.8-1.8c-0.9,0-1.7,0.8-1.7,1.7C11,31.1,11.7,31.9,12.7,31.9z"/>
			<path fill="#FFFFFF" d="M26.8,30.3c0-2.2,1.7-3.9,4-3.9c2.2,0,3.9,1.8,3.9,4c0,2.1-1.8,3.8-4,3.8C28.5,34.3,26.8,32.5,26.8,30.3z
				 M29,30.3c0,1,0.8,1.8,1.8,1.8c1,0,1.8-0.8,1.8-1.8c0-0.9-0.8-1.8-1.7-1.8C29.8,28.5,29,29.3,29,30.3z"/>
		</g>
		<path fill="#FFFFFF" d="M36.7,27.9c0-0.9,0-1.8,0-2.7c-0.1-1.9-0.6-3.5-3.4-3.6c-0.7,0-1.3,0-2,0c0-0.2-0.1-0.3-0.1-0.4
			c0-2.7,0-5.5,0-8.2c0-0.2,0.2-0.4,0.3-0.6c0.1-0.3,0.3-0.7,0.3-0.9c-0.1-0.3-0.5-0.5-0.7-0.7c-0.1-0.1-0.4,0-0.5,0
			c-4.4,0-8.7,0-13.1,0c-0.2,0-0.3,0-0.5,0c-0.8,0.2-1.1,1-0.6,1.6c0.1,0.1,0.2,0.2,0.3,0.3c-0.1,0.1-0.1,0.3-0.2,0.4
			c-1.5,2.6-3,5.3-4.5,7.9c-0.4,0.8-0.9,1.2-1.9,1.1c-1.1-0.1-2.6,0.4-2.9,1.4c-0.1,0.5-0.2,0.9-0.3,1.4c-0.4,1.8-0.7,3.6-1,5.4
			c0.3,0,1.5,0,1.7,0c0-0.1,0-0.3,0-0.4c0-2.9,2.3-5.2,5.2-5.2c2.9,0,5.2,2.3,5.2,5.2c0,0.1,0,0.3,0,0.4c2.6,0,5.1,0,7.7,0
			c0-0.1,0-0.3,0-0.4c0-2.9,2.3-5.2,5.2-5.2s5.2,2.3,5.2,5.2c0,0.2,0,0.3,0,0.5c0.5,0,0.9,0,1.4,0c0.2,0,0.4-0.1,0.4-0.2
			C38.4,29.1,38,28.2,36.7,27.9z M30.4,21.5c-0.3,0-0.6,0-0.9,0c0-0.5,0-0.9,0-1.4c0-0.6-0.4-1.2-0.9-1.2c-0.7,0-0.8,0.5-0.9,1
			c-0.1,1.2-0.3,2.3-0.4,3.5c-1,0-2,0-3,0c-0.5,0-1,0-1.1,0.6C23,24.4,23.4,25,24,25.2c0.2,0.1,0.4,0.1,0.7,0.2
			c-0.1,0.6-0.2,1.3-0.3,2c-0.4,0-0.8,0-1.2,0c-1.2,0-2.5,0-3.7,0c-0.3,0-0.5-0.1-0.7-0.4c-0.4-0.9-0.7-1.8-1.1-2.8
			c0.4-0.2,0.8-0.3,1.2-0.5c0.1,0.3,0.2,0.6,0.4,1c0.3-0.1,0.6-0.2,0.9-0.3c-0.3-1-0.6-2-0.9-3c-0.3,0.1-0.6,0.2-0.9,0.3
			c0.1,0.4,0.2,0.7,0.3,1.1c-0.4,0.2-0.8,0.3-1.1,0.4c-0.1-0.1-0.2-0.1-0.2-0.2c-0.2-1.2-1-1.3-2.1-1.2c-0.8,0.1-1.7,0-2.6,0
			c0.2-0.4,0.4-0.8,0.6-1.2c1.4-2.4,2.8-4.9,4.2-7.3c0.2-0.3,0.4-0.5,0.8-0.5c4,0,8,0,12,0c0.1,0,0.1,0,0.3,0
			C30.4,15.9,30.4,18.6,30.4,21.5z"/>
	</g>
</g>
</svg>
