<?xml version="1.0" encoding="utf-8"?>
<!-- Generator: Adobe Illustrator 16.0.0, SVG Export Plug-In . SVG Version: 6.00 Build 0)  -->
<!DOCTYPE svg PUBLIC "-//W3C//DTD SVG 1.1//EN" "http://www.w3.org/Graphics/SVG/1.1/DTD/svg11.dtd">
<svg version="1.1" id="Golf_Car_1_" xmlns="http://www.w3.org/2000/svg" xmlns:xlink="http://www.w3.org/1999/xlink" x="0px"
	 y="0px" width="1000px" height="1000px" viewBox="0 0 1000 1000" enable-background="new 0 0 1000 1000" xml:space="preserve">
<g id="Golf_Car">
	<g>
		<g>
			<path fill="#D01C1F" d="M873.333,1000H126.667C57.778,1000,0,942.223,0,873.333V126.667C0,57.778,57.778,0,126.667,0h746.667
				C942.223,0,1000,57.778,1000,126.667v746.667C1000,942.223,942.223,1000,873.333,1000z"/>
		</g>
	</g>
	<g>
		<g>
			<path fill="#FFFFFF" d="M284.444,582.223c48.889,0,86.667,40,86.667,86.666c0,48.889-40,88.889-86.667,86.667
				c-48.889,0-88.889-40-86.667-86.667C195.556,622.223,235.556,582.223,284.444,582.223z M282.222,708.889
				c22.222,0,40-17.777,40-40c0-22.222-17.778-40-40-40c-20,0-37.778,17.778-37.778,37.778
				C244.444,691.111,260,708.889,282.222,708.889z"/>
			<path fill="#FFFFFF" d="M595.556,673.333c0-48.889,37.777-86.666,88.889-86.666c48.889,0,86.667,40,86.667,88.889
				c0,46.667-40,84.444-88.889,84.444C633.333,762.223,595.556,722.223,595.556,673.333z M644.444,673.333c0,22.223,17.778,40,40,40
				c22.223,0,40-17.777,40-40c0-20-17.777-40-37.777-40C662.223,633.333,644.444,651.111,644.444,673.333z"/>
		</g>
		<path fill="#FFFFFF" d="M815.556,620c0-20,0-40,0-60c-2.223-42.223-13.333-77.777-75.556-80c-15.556,0-28.889,0-44.444,0
			c0-4.444-2.223-6.667-2.223-8.889c0-60,0-122.223,0-182.223c0-4.444,4.444-8.889,6.667-13.333c2.223-6.667,6.667-15.556,6.667-20
			c-2.223-6.667-11.111-11.111-15.556-15.556c-2.223-2.222-8.889,0-11.111,0c-97.777,0-193.333,0-291.111,0
			c-4.444,0-6.666,0-11.111,0c-17.777,4.444-24.444,22.222-13.333,35.556c2.223,2.222,4.444,4.444,6.667,6.667
			c-2.223,2.222-2.223,6.667-4.444,8.889c-33.334,57.777-66.667,117.777-100,175.556c-8.889,17.777-20,26.666-42.222,24.444
			C200,488.889,166.667,500,160,522.223c-2.222,11.11-4.444,20-6.667,31.11c-8.889,40-15.555,80-22.222,120
			c6.667,0,33.333,0,37.778,0c0-2.222,0-6.666,0-8.889c0-64.444,51.111-115.556,115.556-115.556S400,600,400,664.444
			c0,2.223,0,6.667,0,8.889c57.777,0,113.333,0,171.111,0c0-2.222,0-6.666,0-8.889c0-64.444,51.11-115.556,115.555-115.556
			c64.445,0,115.556,51.111,115.556,115.556c0,4.444,0,6.667,0,11.111c11.111,0,20.001,0,31.111,0c4.444,0,8.89-2.223,8.89-4.444
			C853.333,646.667,844.444,626.667,815.556,620z M675.556,477.777c-6.667,0-13.333,0-20,0c0-11.11,0-20,0-31.11
			c0-13.334-8.889-26.667-20-26.667c-15.556,0-17.778,11.111-20,22.223c-2.223,26.666-6.667,51.11-8.889,77.777
			c-22.223,0-44.444,0-66.667,0c-11.111,0-22.223,0-24.444,13.333c-4.444,8.89,4.444,22.223,17.777,26.667
			c4.444,2.223,8.89,2.223,15.556,4.444c-2.222,13.333-4.444,28.889-6.666,44.444c-8.89,0-17.778,0-26.667,0
			c-26.667,0-55.556,0-82.223,0c-6.666,0-11.11-2.222-15.556-8.889c-8.889-20-15.555-40-24.444-62.223
			c8.89-4.444,17.778-6.666,26.667-11.11c2.223,6.666,4.444,13.333,8.889,22.222c6.667-2.222,13.334-4.444,20-6.666
			c-6.666-22.223-13.333-44.445-20-66.667c-6.666,2.222-13.333,4.444-20,6.667c2.223,8.889,4.444,15.555,6.667,24.444
			c-8.889,4.444-17.778,6.666-24.444,8.889c-2.223-2.223-4.444-2.223-4.444-4.444c-4.444-26.667-22.223-28.889-46.667-26.667
			c-17.777,2.223-37.777,0-57.778,0c4.444-8.889,8.889-17.777,13.333-26.667c31.111-53.333,62.222-108.889,93.333-162.222
			c4.444-6.667,8.889-11.111,17.778-11.111c88.889,0,177.777,0,266.666,0c2.223,0,2.223,0,6.667,0
			C675.556,353.333,675.556,413.333,675.556,477.777z"/>
	</g>
</g>
</svg>
