<?xml version="1.0" encoding="utf-8"?>
<!-- Generator: Adobe Illustrator 16.0.0, SVG Export Plug-In . SVG Version: 6.00 Build 0)  -->
<!DOCTYPE svg PUBLIC "-//W3C//DTD SVG 1.1//EN" "http://www.w3.org/Graphics/SVG/1.1/DTD/svg11.dtd">
<svg version="1.1" id="Transportation_Hub_1_" xmlns="http://www.w3.org/2000/svg" xmlns:xlink="http://www.w3.org/1999/xlink"
	 x="0px" y="0px" width="1000px" height="1000px" viewBox="0 0 1000 1000" enable-background="new 0 0 1000 1000"
	 xml:space="preserve">
<g id="Transportation_Hub">
	<g>
		<path fill="#D01C1F" d="M873.333,1000H126.667C57.778,1000,0,942.223,0,873.333V126.667C0,57.778,57.778,0,126.667,0h746.667
			C942.223,0,1000,57.778,1000,126.667v746.667C1000,942.223,942.223,1000,873.333,1000z"/>
	</g>
	<g>
		<path fill="#FFFFFF" d="M877.777,768.889c0,11.111,0,20,0,31.111c0,8.889-4.444,13.333-13.333,13.333
			c-33.333,2.223-33.333,2.223-33.333-31.111c0-4.444,0-8.889,0-15.555c-60,0-120,0-182.223,0c0,11.11,0,22.222,0,33.333
			c0,8.889-4.444,13.333-13.333,13.333c-33.333,0-33.333,2.223-33.333-31.111c0-8.889,2.222-17.777-11.111-17.777
			c-2.223,0-6.667-6.667-8.889-8.889c-4.445-22.223-6.667-44.444-8.89-66.667c-2.222-15.556,6.667-24.444,17.778-33.333
			c6.666-4.444,11.111-11.111,15.556-17.778c4.444-8.889,8.889-17.777,11.11-26.666c11.111-31.111,28.89-53.334,64.445-46.667
			c2.222-2.223,2.222-2.223,2.222-4.444c0-28.889,2.223-31.111,31.111-28.889c15.556,0,31.111,0,48.889,0
			c20,0,22.223,2.222,24.444,22.222c0,2.223,0,6.667,0,8.889c4.444,0,6.667,0,11.111,0c24.444-2.222,40,11.111,48.889,31.111
			c4.444,11.111,8.889,20,13.334,31.111c4.444,13.333,11.11,24.444,24.444,33.333C900,666.666,902.223,680,902.223,695.556
			c-2.223,17.777-4.445,35.556-8.89,53.333c-2.222,8.889-8.889,15.556-15.556,22.223C882.223,771.111,880,771.111,877.777,768.889z
			 M633.333,642.223c71.111,0,142.223,0,215.556,0c-6.666-15.556-11.111-31.111-20-42.223c-4.444-6.667-15.556-13.333-22.222-13.333
			c-31.111-2.223-62.223,0-93.334,0C653.333,586.667,653.333,586.667,633.333,642.223C633.333,640,633.333,642.223,633.333,642.223z
			 M626.667,713.333c11.11,0,22.222-8.889,22.222-22.222c0-11.111-8.889-20-20-20s-22.222,8.889-22.222,20
			C604.444,702.223,615.556,713.333,626.667,713.333z M853.333,713.333c13.334,0,22.223-8.889,22.223-22.222
			c0-11.111-8.889-22.223-22.223-22.223c-11.11,0-20,8.889-20,20C833.333,704.444,842.223,713.333,853.333,713.333z"/>
	</g>
	<g>
		<path fill="#FFFFFF" d="M440,760c-84.444,0-164.444,0-248.889,0c0,11.111,0,22.223,0,33.333c0,15.556-6.667,22.223-22.223,22.223
			c-6.667,0-13.333,0-20,0c-13.333,0-20-6.667-20-20c0-17.778,4.445-35.556-15.555-46.667c-4.445-2.222-6.667-15.556-6.667-24.444
			c0-117.777,2.222-233.333,6.667-346.667c0-35.556,17.778-51.111,60-55.556c95.555-8.889,188.889-11.111,284.444,0
			c46.667,4.444,60,22.222,60,68.889C520,500,522.223,608.889,524.444,715.556c0,17.777-2.222,31.111-17.777,42.222
			c-4.444,4.445-4.444,17.778-6.667,24.445c-2.223,8.889-4.444,26.666-8.889,26.666c-13.334,2.223-31.111,0-46.667,0
			c-2.222,0-6.667-11.111-6.667-15.556C437.777,784.444,440,771.111,440,760z M313.333,566.667c48.89,0,100,0,148.89,0
			c15.555,0,24.444-4.444,24.444-20c0-37.778,0-77.778,0-115.556c0-13.333-6.667-20-20-20c-100,0-200,0-300,0
			c-15.555,0-20,6.667-20,20c0,37.777,0,73.333,0,111.111c0,17.777,6.667,24.444,24.445,24.444
			C217.778,564.444,264.444,566.667,313.333,566.667z M428.889,382.222c-4.444-15.556,11.111-35.556-13.333-35.556
			c-66.667-2.222-133.333,0-200,0c-13.333,0-13.333,8.889-13.333,17.778c0,8.889-2.222,17.778,11.111,17.778
			C284.444,382.222,353.333,382.222,428.889,382.222z M451.111,713.333c15.556-2.222,24.444-8.889,24.444-24.444
			s-8.889-24.444-24.444-24.444c-13.334,0-22.223,8.889-24.444,22.223C426.667,702.223,435.556,711.111,451.111,713.333z
			 M202.222,688.889c-2.222-15.556-11.111-24.444-24.444-24.444c-15.556,0-24.444,11.111-24.444,24.444
			c0,13.334,8.889,22.223,24.444,22.223C193.333,713.333,200,704.444,202.222,688.889z"/>
	</g>
	<g>
		<path fill="#FFFFFF" d="M862.223,135.556V60h-31.111v77.778H606.667V60h-31.111v77.778h-51.111V260h382.223V135.556H862.223z
			 M602.223,202.222c-6.667,6.667-15.556,8.889-26.667,8.889c-2.223,0-4.444,0-6.667,0V240h-17.777v-80
			c6.666,0,13.333-2.222,24.444-2.222s20,2.222,24.444,6.667s8.889,11.111,8.889,17.778
			C608.889,191.111,606.667,197.778,602.223,202.222z"/>
		<path fill="#FFFFFF" d="M577.777,173.333c-4.444,0-6.666,0-6.666,0v24.444c2.222,0,4.444,0,6.666,0
			c8.89,0,15.556-4.444,15.556-13.333C591.111,177.778,586.667,173.333,577.777,173.333z"/>
	</g>
</g>
</svg>
