<?xml version="1.0" encoding="utf-8"?>
<!-- Generator: Adobe Illustrator 19.2.1, SVG Export Plug-In . SVG Version: 6.00 Build 0)  -->
<svg version="1.1" id="Transportation_Hub_1_" xmlns="http://www.w3.org/2000/svg" xmlns:xlink="http://www.w3.org/1999/xlink"
	 x="0px" y="0px" viewBox="0 0 45 45" enable-background="new 0 0 45 45" xml:space="preserve">
<g id="Transportation_Hub">
	<g>
		<path d="M39.3,45L5.7,45C2.6,45,0,42.4,0,39.3L0,5.7C0,2.6,2.6,0,5.7,0l33.6,0C42.4,0,45,2.6,45,5.7l0,33.6
			C45,42.4,42.4,45,39.3,45z"/>
	</g>
	<g>
		<path fill="#FFFFFF" d="M39.5,34.6c0,0.5,0,0.9,0,1.4c0,0.4-0.2,0.6-0.6,0.6c-1.5,0.1-1.5,0.1-1.5-1.4c0-0.2,0-0.4,0-0.7
			c-2.7,0-5.4,0-8.2,0c0,0.5,0,1,0,1.5c0,0.4-0.2,0.6-0.6,0.6c-1.5,0-1.5,0.1-1.5-1.4c0-0.4,0.1-0.8-0.5-0.8c-0.1,0-0.3-0.3-0.4-0.4
			c-0.2-1-0.3-2-0.4-3c-0.1-0.7,0.3-1.1,0.8-1.5c0.3-0.2,0.5-0.5,0.7-0.8c0.2-0.4,0.4-0.8,0.5-1.2c0.5-1.4,1.3-2.4,2.9-2.1
			c0.1-0.1,0.1-0.1,0.1-0.2c0-1.3,0.1-1.4,1.4-1.3c0.7,0,1.4,0,2.2,0c0.9,0,1,0.1,1.1,1c0,0.1,0,0.3,0,0.4c0.2,0,0.3,0,0.5,0
			c1.1-0.1,1.8,0.5,2.2,1.4c0.2,0.5,0.4,0.9,0.6,1.4c0.2,0.6,0.5,1.1,1.1,1.5c0.6,0.4,0.7,1,0.7,1.7c-0.1,0.8-0.2,1.6-0.4,2.4
			c-0.1,0.4-0.4,0.7-0.7,1C39.7,34.7,39.6,34.7,39.5,34.6z M28.5,28.9c3.2,0,6.4,0,9.7,0c-0.3-0.7-0.5-1.4-0.9-1.9
			c-0.2-0.3-0.7-0.6-1-0.6c-1.4-0.1-2.8,0-4.2,0C29.4,26.4,29.4,26.4,28.5,28.9C28.5,28.8,28.5,28.9,28.5,28.9z M28.2,32.1
			c0.5,0,1-0.4,1-1c0-0.5-0.4-0.9-0.9-0.9c-0.5,0-1,0.4-1,0.9C27.2,31.6,27.7,32.1,28.2,32.1z M38.4,32.1c0.6,0,1-0.4,1-1
			c0-0.5-0.4-1-1-1c-0.5,0-0.9,0.4-0.9,0.9C37.5,31.7,37.9,32.1,38.4,32.1z"/>
	</g>
	<g>
		<path fill="#FFFFFF" d="M19.8,34.2c-3.8,0-7.4,0-11.2,0c0,0.5,0,1,0,1.5c0,0.7-0.3,1-1,1c-0.3,0-0.6,0-0.9,0
			c-0.6,0-0.9-0.3-0.9-0.9c0-0.8,0.2-1.6-0.7-2.1c-0.2-0.1-0.3-0.7-0.3-1.1C4.8,27.3,4.9,22.1,5.1,17c0-1.6,0.8-2.3,2.7-2.5
			c4.3-0.4,8.5-0.5,12.8,0c2.1,0.2,2.7,1,2.7,3.1c0.1,4.9,0.2,9.8,0.3,14.6c0,0.8-0.1,1.4-0.8,1.9c-0.2,0.2-0.2,0.8-0.3,1.1
			c-0.1,0.4-0.2,1.2-0.4,1.2c-0.6,0.1-1.4,0-2.1,0c-0.1,0-0.3-0.5-0.3-0.7C19.7,35.3,19.8,34.7,19.8,34.2z M14.1,25.5
			c2.2,0,4.5,0,6.7,0c0.7,0,1.1-0.2,1.1-0.9c0-1.7,0-3.5,0-5.2c0-0.6-0.3-0.9-0.9-0.9c-4.5,0-9,0-13.5,0c-0.7,0-0.9,0.3-0.9,0.9
			c0,1.7,0,3.3,0,5c0,0.8,0.3,1.1,1.1,1.1C9.8,25.4,11.9,25.5,14.1,25.5z M19.3,17.2c-0.2-0.7,0.5-1.6-0.6-1.6c-3-0.1-6,0-9,0
			c-0.6,0-0.6,0.4-0.6,0.8c0,0.4-0.1,0.8,0.5,0.8C12.8,17.2,15.9,17.2,19.3,17.2z M20.3,32.1c0.7-0.1,1.1-0.4,1.1-1.1
			c0-0.7-0.4-1.1-1.1-1.1c-0.6,0-1,0.4-1.1,1C19.2,31.6,19.6,32,20.3,32.1z M9.1,31C9,30.3,8.6,29.9,8,29.9c-0.7,0-1.1,0.5-1.1,1.1
			c0,0.6,0.4,1,1.1,1C8.7,32.1,9,31.7,9.1,31z"/>
	</g>
	<g>
		<path fill="#FFFFFF" d="M38.8,6.1V2.7h-1.4v3.5H27.3V2.7h-1.4v3.5h-2.3v5.5h17.2V6.1H38.8z M27.1,9.1c-0.3,0.3-0.7,0.4-1.2,0.4
			c-0.1,0-0.2,0-0.3,0v1.3h-0.8V7.2c0.3,0,0.6-0.1,1.1-0.1c0.5,0,0.9,0.1,1.1,0.3c0.2,0.2,0.4,0.5,0.4,0.8
			C27.4,8.6,27.3,8.9,27.1,9.1z"/>
		<path fill="#FFFFFF" d="M26,7.8c-0.2,0-0.3,0-0.3,0v1.1c0.1,0,0.2,0,0.3,0c0.4,0,0.7-0.2,0.7-0.6C26.6,8,26.4,7.8,26,7.8z"/>
	</g>
</g>
</svg>
