<?xml version="1.0" encoding="utf-8"?>
<!-- Generator: Adobe Illustrator 19.2.1, SVG Export Plug-In . SVG Version: 6.00 Build 0)  -->
<svg version="1.1" id="Valet_Parking" xmlns="http://www.w3.org/2000/svg" xmlns:xlink="http://www.w3.org/1999/xlink" x="0px"
	 y="0px" viewBox="0 0 45 45" enable-background="new 0 0 45 45" xml:space="preserve">
<g id="Valet_Parking_1_">
	<g>
		<path d="M39.3,45L5.7,45C2.6,45,0,42.4,0,39.3L0,5.7C0,2.6,2.6,0,5.7,0l33.6,0C42.4,0,45,2.6,45,5.7l0,33.6
			C45,42.4,42.4,45,39.3,45z"/>
	</g>
	<g>
		<g>
			<path fill="#FFFFFF" d="M33.7,36.3c0,0.9,0,1.7,0,2.6c0,0.7-0.3,1.1-1.1,1.1c-2.7,0.1-2.7,0.1-2.7-2.5c0-0.4,0-0.7,0-1.2
				c-4.9,0-9.8,0-14.8,0c0,0.9,0,1.8,0,2.6c0,0.8-0.3,1.1-1.1,1.1c-2.7,0.1-2.7,0.1-2.7-2.6c0-0.7,0.1-1.4-0.9-1.5
				c-0.3,0-0.6-0.5-0.7-0.8c-0.3-1.8-0.6-3.6-0.8-5.4c-0.1-1.2,0.6-2,1.5-2.8c0.5-0.4,0.9-0.9,1.2-1.4c0.4-0.7,0.7-1.5,1-2.2
				c0.8-2.2,2-3.9,4.3-3.9c0.3,0,10.2,0,10.7,0.1c2-0.1,3.2,0.9,4,2.6c0.4,0.8,0.8,1.7,1.1,2.6c0.5,1,0.9,2,2,2.7
				c1.1,0.6,1.3,1.8,1.2,3c-0.2,1.5-0.3,2.9-0.7,4.3c-0.2,0.7-0.8,1.2-1.2,1.8C34,36.3,33.8,36.3,33.7,36.3z M13.7,25.9
				c5.8,0,11.7,0,17.6,0c-0.6-1.2-1-2.5-1.6-3.5c-0.4-0.5-1.2-1-1.9-1c-2.6-0.1-5.1,0-7.7,0c-4.7,0-4.7,0-6.4,4.4
				C13.7,25.8,13.7,25.8,13.7,25.9z M13.2,31.7c1,0,1.8-0.8,1.8-1.8c0-0.9-0.8-1.7-1.7-1.7c-1,0-1.8,0.8-1.9,1.7
				C11.4,30.8,12.2,31.7,13.2,31.7z M31.7,31.7c1,0,1.8-0.7,1.8-1.7c0-1-0.8-1.8-1.8-1.7c-1,0-1.7,0.7-1.7,1.7
				C30,30.9,30.7,31.7,31.7,31.7z"/>
		</g>
		<path fill="#FFFFFF" d="M32.9,9.5c-0.3-0.4-1.3-2-2.8-1.9c-2.6,0.1-5.2,0.1-7.8,0c-0.5,0-1.2-0.3-1.5-0.7
			c-2.1-2.2-5.1-2.4-7.2-0.4c-2.1,2-2.1,5.3,0,7.3c2.1,2,5.2,1.8,7.2-0.4c0.1-0.1,1.3-0.7,2.4-1.2c0.9-0.4,1.7-2,1.7-2l1.2,2.1
			l1.2-2l1.2,2l1.2-2.1l1.3,2.2l1.8-2C32.7,10.4,33.2,9.9,32.9,9.5z M15,11.6c-1,0-1.8-0.8-1.8-1.8S14,8,15,8s1.8,0.8,1.8,1.8
			S15.9,11.6,15,11.6z"/>
	</g>
</g>
</svg>
