<?xml version="1.0" encoding="utf-8"?>
<!-- Generator: Adobe Illustrator 16.0.0, SVG Export Plug-In . SVG Version: 6.00 Build 0)  -->
<!DOCTYPE svg PUBLIC "-//W3C//DTD SVG 1.1//EN" "http://www.w3.org/Graphics/SVG/1.1/DTD/svg11.dtd">
<svg version="1.1" id="Valet_Parking" xmlns="http://www.w3.org/2000/svg" xmlns:xlink="http://www.w3.org/1999/xlink" x="0px"
	 y="0px" width="1000px" height="1000px" viewBox="0 0 1000 1000" enable-background="new 0 0 1000 1000" xml:space="preserve">
<g id="Valet_Parking_1_">
	<g>
		<path fill="#D01C1F" d="M873.333,1000H126.667C57.778,1000,0,942.223,0,873.333V126.667C0,57.778,57.778,0,126.667,0h746.667
			C942.223,0,1000,57.778,1000,126.667v746.667C1000,942.223,942.223,1000,873.333,1000z"/>
	</g>
	<g>
		<g>
			<path fill="#FFFFFF" d="M748.889,806.667c0,20,0,37.777,0,57.777c0,15.556-6.666,24.444-24.444,24.444
				c-60,2.223-60,2.223-60-55.556c0-8.889,0-15.556,0-26.667c-108.889,0-217.777,0-328.889,0c0,20.001,0,40,0,57.778
				c0,17.777-6.667,24.444-24.444,24.444c-60,2.223-60,2.223-60-57.777c0-15.556,2.222-31.111-20-33.334
				c-6.667,0-13.333-11.111-15.556-17.777c-6.667-40-13.333-80-17.778-120c-2.222-26.667,13.333-44.444,33.333-62.223
				c11.111-8.889,20-20,26.667-31.11c8.889-15.556,15.556-33.334,22.222-48.89c17.777-48.889,44.444-86.666,95.556-86.666
				c6.667,0,226.667,0,237.777,2.222c44.444-2.222,71.111,20,88.89,57.778c8.889,17.777,17.777,37.777,24.444,57.777
				c11.11,22.223,20,44.444,44.444,60c24.444,13.334,28.889,40,26.666,66.667c-4.444,33.333-6.666,64.444-15.555,95.556
				c-4.445,15.556-17.778,26.666-26.667,40C755.556,806.667,751.111,806.667,748.889,806.667z M304.444,575.556
				c128.889,0,260,0,391.111,0C682.223,548.889,673.333,520,660,497.777c-8.889-11.11-26.667-22.222-42.223-22.222
				c-57.777-2.223-113.333,0-171.11,0c-104.444,0-104.444,0-142.223,97.777C304.444,573.333,304.444,573.333,304.444,575.556z
				 M293.333,704.444c22.222,0,40-17.777,40-40c0-20-17.777-37.777-37.777-37.777c-22.222,0-40,17.777-42.222,37.777
				C253.333,684.444,271.111,704.444,293.333,704.444z M704.444,704.444c22.223,0,40-15.556,40-37.777c0-22.223-17.777-40-40-37.778
				c-22.222,0-37.777,15.556-37.777,37.778C666.667,686.667,682.223,704.444,704.444,704.444z"/>
		</g>
		<path fill="#FFFFFF" d="M731.111,211.111c-6.667-8.889-28.889-44.445-62.223-42.223c-57.777,2.223-115.556,2.223-173.333,0
			c-11.111,0-26.667-6.667-33.333-15.555c-46.667-48.889-113.334-53.333-160-8.889c-46.667,44.444-46.667,117.778,0,162.222
			c46.666,44.445,115.555,40,160-8.889c2.222-2.222,28.889-15.556,53.333-26.667c20-8.889,37.777-44.445,37.777-44.445L580,273.333
			l26.667-44.445l26.667,44.445L660,226.667l28.889,48.889l40-44.444C726.667,231.111,737.777,220,731.111,211.111z
			 M333.333,257.778c-22.222,0-40-17.778-40-40s17.778-40,40-40c22.223,0,40,17.778,40,40S353.333,257.778,333.333,257.778z"/>
	</g>
</g>
</svg>
