<?xml version="1.0" encoding="utf-8"?>
<!-- Generator: Adobe Illustrator 16.0.0, SVG Export Plug-In . SVG Version: 6.00 Build 0)  -->
<!DOCTYPE svg PUBLIC "-//W3C//DTD SVG 1.1//EN" "http://www.w3.org/Graphics/SVG/1.1/DTD/svg11.dtd">
<svg version="1.1" id="VAT_Refund" xmlns="http://www.w3.org/2000/svg" xmlns:xlink="http://www.w3.org/1999/xlink" x="0px" y="0px"
	 width="1000px" height="1000px" viewBox="0 0 1000 1000" enable-background="new 0 0 1000 1000" xml:space="preserve">
<g id="VAT_Refund_1_">
	<g>
		<g>
			<path fill="#D01C1F" d="M873.333,1000H126.667C57.778,1000,0,942.223,0,873.333V126.667C0,57.778,57.778,0,126.667,0h746.667
				C942.223,0,1000,57.778,1000,126.667v746.667C1000,942.223,942.223,1000,873.333,1000z"/>
		</g>
	</g>
	<g>
		<path fill="#FFFFFF" d="M235.556,533.333l-91.111-284.444h71.111l35.556,120c8.889,33.333,17.777,66.667,24.444,102.223h2.222
			c6.667-33.334,15.556-68.889,26.667-100L340,248.889h68.889l-97.777,284.444H235.556z"/>
		<path fill="#FFFFFF" d="M480,460l-20,73.333h-66.667L480,248.889h84.444l88.889,284.444h-68.889L562.223,460H480z
			 M553.333,413.333l-17.777-60c-4.444-17.778-11.111-37.778-13.333-55.556l0,0c-4.445,17.778-8.89,37.778-13.334,55.556l-20,60
			H553.333z"/>
		<path fill="#FFFFFF" d="M711.111,302.222h-77.778v-53.333h217.778v53.333h-77.778v231.111h-62.222V302.222z"/>
		<path fill="#FFFFFF" d="M62.222,637.777c11.111-2.222,28.889-4.444,48.889-4.444c24.444,0,42.222,4.444,53.333,13.334
			c11.111,8.889,15.556,20,15.556,35.556c0,20-15.556,35.555-28.889,40l0,0c11.111,4.444,17.777,15.555,22.222,31.11
			c4.444,20,11.111,40,13.333,46.667h-37.778c-2.222-4.444-6.667-17.777-11.111-37.777s-11.111-26.667-26.667-26.667H100V800H62.222
			V637.777z M100,708.889h15.556c17.778,0,28.889-8.889,28.889-24.444s-11.111-22.222-26.667-22.222c-8.889,0-13.333,0-17.778,2.222
			V708.889z"/>
		<path fill="#FFFFFF" d="M304.444,731.111h-60v40h66.667V800H206.667V635.556h102.222v31.111h-64.444V700h60V731.111z"/>
		<path fill="#FFFFFF" d="M337.777,635.556h100v31.111h-62.222v37.777h60v28.889h-60V800h-37.778V635.556z"/>
		<path fill="#FFFFFF" d="M502.223,635.556v93.333c0,28.889,11.11,42.223,28.889,42.223c20,0,31.111-13.334,31.111-42.223v-93.333
			H600v91.111c0,51.11-26.667,75.556-68.889,75.556c-42.223,0-66.667-22.223-66.667-75.556v-91.111H502.223L502.223,635.556z"/>
		<path fill="#FFFFFF" d="M631.111,800V635.556h44.444l33.333,60c8.889,17.777,20,37.777,26.667,55.556l0,0
			c-2.223-22.223-2.223-44.444-2.223-68.889v-48.89h33.334V800h-40l-35.556-64.444c-8.889-17.778-20-37.778-28.889-57.778l0,0
			c2.222,22.223,2.222,44.445,2.222,71.111V800H631.111z"/>
		<path fill="#FFFFFF" d="M800,637.777c13.333-2.222,31.111-4.444,48.889-4.444c31.111,0,51.111,6.667,66.667,17.778
			c17.777,13.333,28.889,33.333,28.889,62.222c0,31.111-11.111,53.334-26.667,66.667c-17.777,13.333-44.444,22.223-75.555,22.223
			c-20,0-33.334-2.223-42.223-2.223V637.777z M837.777,773.333c2.223,0,8.89,0,13.334,0c33.333,0,55.556-17.777,55.556-57.777
			c0-33.333-20-51.111-51.111-51.111c-8.889,0-13.333,0-17.778,2.223V773.333z"/>
	</g>
</g>
</svg>
