<?xml version="1.0" encoding="utf-8"?>
<!-- Generator: Adobe Illustrator 19.2.1, SVG Export Plug-In . SVG Version: 6.00 Build 0)  -->
<svg version="1.1" id="VAT_Refund" xmlns="http://www.w3.org/2000/svg" xmlns:xlink="http://www.w3.org/1999/xlink" x="0px" y="0px"
	 viewBox="0 0 45 45" enable-background="new 0 0 45 45" xml:space="preserve">
<g id="VAT_Refund_1_">
	<g>
		<g>
			<path d="M39.3,45L5.7,45C2.6,45,0,42.4,0,39.3L0,5.7C0,2.6,2.6,0,5.7,0l33.6,0C42.4,0,45,2.6,45,5.7l0,33.6
				C45,42.4,42.4,45,39.3,45z"/>
		</g>
	</g>
	<g>
		<path fill="#FFFFFF" d="M10.6,24L6.5,11.2h3.2l1.6,5.4c0.4,1.5,0.8,3,1.1,4.6h0.1c0.3-1.5,0.7-3.1,1.2-4.5l1.6-5.5h3.1L14,24H10.6
			z"/>
		<path fill="#FFFFFF" d="M21.6,20.7L20.7,24h-3l3.9-12.8h3.8l4,12.8h-3.1l-1-3.3H21.6z M24.9,18.6l-0.8-2.7
			c-0.2-0.8-0.5-1.7-0.6-2.5h0c-0.2,0.8-0.4,1.7-0.6,2.5L22,18.6H24.9z"/>
		<path fill="#FFFFFF" d="M32,13.6h-3.5v-2.4h9.8v2.4h-3.5V24H32V13.6z"/>
		<path fill="#FFFFFF" d="M2.8,28.7c0.5-0.1,1.3-0.2,2.2-0.2c1.1,0,1.9,0.2,2.4,0.6c0.5,0.4,0.7,0.9,0.7,1.6c0,0.9-0.7,1.6-1.3,1.8
			v0c0.5,0.2,0.8,0.7,1,1.4C8,34.8,8.3,35.7,8.4,36H6.7c-0.1-0.2-0.3-0.8-0.5-1.7C6,33.4,5.7,33.1,5,33.1H4.5V36H2.8V28.7z
			 M4.5,31.9h0.7c0.8,0,1.3-0.4,1.3-1.1c0-0.7-0.5-1-1.2-1c-0.4,0-0.6,0-0.8,0.1V31.9z"/>
		<path fill="#FFFFFF" d="M13.7,32.9H11v1.8h3V36H9.3v-7.4h4.6V30H11v1.5h2.7V32.9z"/>
		<path fill="#FFFFFF" d="M15.2,28.6h4.5V30h-2.8v1.7h2.7V33h-2.7v3h-1.7V28.6z"/>
		<path fill="#FFFFFF" d="M22.6,28.6v4.2c0,1.3,0.5,1.9,1.3,1.9c0.9,0,1.4-0.6,1.4-1.9v-4.2H27v4.1c0,2.3-1.2,3.4-3.1,3.4
			c-1.9,0-3-1-3-3.4v-4.1H22.6z"/>
		<path fill="#FFFFFF" d="M28.4,36v-7.4h2l1.5,2.7c0.4,0.8,0.9,1.7,1.2,2.5h0c-0.1-1-0.1-2-0.1-3.1v-2.2h1.5V36h-1.8l-1.6-2.9
			c-0.4-0.8-0.9-1.7-1.3-2.6h0c0.1,1,0.1,2,0.1,3.2V36H28.4z"/>
		<path fill="#FFFFFF" d="M36,28.7c0.6-0.1,1.4-0.2,2.2-0.2c1.4,0,2.3,0.3,3,0.8c0.8,0.6,1.3,1.5,1.3,2.8c0,1.4-0.5,2.4-1.2,3
			c-0.8,0.6-2,1-3.4,1C37,36.1,36.4,36,36,36V28.7z M37.7,34.8c0.1,0,0.4,0,0.6,0c1.5,0,2.5-0.8,2.5-2.6c0-1.5-0.9-2.3-2.3-2.3
			c-0.4,0-0.6,0-0.8,0.1V34.8z"/>
	</g>
</g>
</svg>
