<?xml version="1.0" encoding="utf-8"?>
<!-- Generator: Adobe Illustrator 19.2.1, SVG Export Plug-In . SVG Version: 6.00 Build 0)  -->
<svg version="1.1" id="stair" xmlns="http://www.w3.org/2000/svg" xmlns:xlink="http://www.w3.org/1999/xlink" x="0px" y="0px"
	 viewBox="0 0 45 45" enable-background="new 0 0 45 45" xml:space="preserve">
<g id="stair_3_">
	<g>
		<path d="M39.3,45H5.7C2.6,45,0,42.4,0,39.3V5.7C0,2.6,2.6,0,5.7,0h33.6C42.4,0,45,2.6,45,5.7v33.6C45,42.4,42.5,45,39.3,45z"/>
	</g>
	<path fill="#FFFFFF" d="M38.4,29.3c-0.7,0-1.4,0-2.1,0c-0.2,0-0.5-0.2-0.7-0.3c-0.5-0.4-1.1-0.8-1.6-1.2c-0.1-0.1-0.3-0.3-0.4-0.5
		c-0.6-1.8-1.1-3.7-1.7-5.5c-0.3-0.9-0.6-1.1-1.5-1.1c-2.6,0-5.2-0.1-7.7,0c-1.6,0.1-2.7-1-4.1-1.4c1.6-0.1,3.3-0.1,4.9-0.1
		c2,0,3.9,0,5.9,0c0.8,0,1.3-0.5,1.3-1.2s-0.5-1.2-1.3-1.2c-3.3,0-6.6,0-9.9,0c-0.7,0-1.3,0-1.9,0c0-0.2-0.1-0.3-0.1-0.5
		c-0.6-2.1-1.2-4.3-1.8-6.4c-0.2-0.8-0.6-1.1-1.4-1.1c-1.3,0-2.5,0-3.8,0c-0.8,0-1.3,0.5-1.3,1.2s0.5,1.2,1.3,1.2c0.7,0,1.4,0,2.2,0
		c0.7,2.7,1.5,5.3,2.2,7.9c-4.6,1-7.2,5.4-6.4,9.6c0.7,3.7,4.1,6.5,8,6.5c1.8,0,3.5-0.6,5-1.8c2.1-1.7,3.1-3.9,3.1-6.6
		c0.3,0,0.4,0,0.6,0c1.7,0,3.4,0,5.1,0c0.8,0,0.8,0,1,0.9c-2.1,1-2.6,2.9-2.4,4.6c0.3,1.7,1.7,2.9,3.5,3c0.9,0.1,1.7-0.1,2.4-0.6
		c1.1-0.7,1.6-1.8,1.8-3h0.1c0.5,0,1.1,0,1.7,0c0.8,0,1.3-0.5,1.3-1.2S39.2,29.3,38.4,29.3z M20.9,23.3c0.8,0.9,1.3,2.1,1.5,3.4
		h-4.2c0-0.2-0.1-0.3-0.2-0.5L20.9,23.3z M20.3,22.7l-2.9,2.9c-0.1-0.1-0.3-0.1-0.5-0.2v-4C18.2,21.4,19.4,21.9,20.3,22.7z
		 M15.1,26.2c-0.1,0.1-0.1,0.3-0.2,0.4h-4c0.1-1.3,0.6-2.4,1.3-3.3L15.1,26.2z M14.9,27.4c0,0.2,0.1,0.3,0.2,0.4l-2.9,2.9
		c-0.7-0.9-1.2-2.1-1.3-3.3H14.9z M15.6,28.5c0.1,0.1,0.3,0.2,0.5,0.2v4.2c-1.3-0.1-2.5-0.7-3.3-1.5L15.6,28.5z M16.9,28.7
		c0.2,0,0.3-0.1,0.5-0.2l3,3c-0.9,0.8-2.2,1.3-3.5,1.4V28.7z M16.1,21.4v4c-0.1,0-0.3,0.1-0.4,0.2l-2.9-2.9
		C13.7,22,14.8,21.5,16.1,21.4z M21,30.9l-3-3c0.1-0.2,0.2-0.3,0.2-0.5h4.2C22.3,28.8,21.8,30,21,30.9z M32.8,33
		c-0.9,0-1.7-0.8-1.7-1.7s0.8-1.7,1.7-1.7c0.9,0,1.7,0.8,1.7,1.7S33.7,33,32.8,33z"/>
</g>
</svg>
