<?xml version="1.0" encoding="utf-8"?>
<!-- Generator: Adobe Illustrator 16.0.0, SVG Export Plug-In . SVG Version: 6.00 Build 0)  -->
<!DOCTYPE svg PUBLIC "-//W3C//DTD SVG 1.1//EN" "http://www.w3.org/Graphics/SVG/1.1/DTD/svg11.dtd">
<svg version="1.1" id="stair" xmlns="http://www.w3.org/2000/svg" xmlns:xlink="http://www.w3.org/1999/xlink" x="0px" y="0px"
	 width="1000px" height="1000px" viewBox="0 0 1000 1000" enable-background="new 0 0 1000 1000" xml:space="preserve">
<g id="stair_3_">
	<g>
		<path fill="#D01C1F" d="M873.333,1000H126.667C57.778,1000,0,942.223,0,873.333V126.667C0,57.778,57.778,0,126.667,0h746.667
			C942.223,0,1000,57.778,1000,126.667v746.667C1000,942.223,944.444,1000,873.333,1000z"/>
	</g>
	<path fill="#FFFFFF" d="M853.333,651.111c-15.556,0-31.11,0-46.666,0c-4.444,0-11.111-4.444-15.556-6.667
		c-11.111-8.889-24.444-17.777-35.556-26.667c-2.222-2.222-6.667-6.666-8.889-11.11c-13.334-40-24.444-82.223-37.778-122.223
		c-6.666-20-13.333-24.444-33.333-24.444c-57.778,0-115.556-2.223-171.111,0c-35.556,2.223-60-22.223-91.111-31.111
		c35.556-2.222,73.334-2.222,108.89-2.222c44.444,0,86.666,0,131.11,0c17.778,0,28.89-11.111,28.89-26.667
		s-11.111-26.667-28.89-26.667c-73.333,0-146.666,0-220,0c-15.556,0-28.889,0-42.222,0c0-4.444-2.223-6.667-2.223-11.111
		c-13.333-46.667-26.666-95.556-40-142.222c-4.444-17.778-13.333-24.444-31.111-24.444c-28.889,0-55.555,0-84.444,0
		c-17.778,0-28.889,11.111-28.889,26.667s11.111,26.667,28.889,26.667c15.555,0,31.111,0,48.889,0
		c15.555,60,33.333,117.778,48.889,175.556c-102.223,22.223-160,120-142.223,213.333C204.444,720,280,782.222,366.667,782.222
		c40,0,77.777-13.333,111.11-39.999c46.667-37.778,68.89-86.667,68.89-146.667c6.666,0,8.889,0,13.333,0
		c37.777,0,75.556,0,113.333,0c17.778,0,17.778,0,22.223,20c-46.667,22.222-57.778,64.444-53.333,102.222
		C648.889,755.556,680,782.222,720,784.444c20,2.222,37.777-2.223,53.333-13.333c24.444-15.556,35.556-40,40-66.667h2.223
		c11.111,0,24.444,0,37.777,0c17.778,0,28.89-11.111,28.89-26.667S871.111,651.111,853.333,651.111z M464.444,517.777
		c17.778,20,28.889,46.667,33.333,75.556h-93.333c0-4.444-2.222-6.666-4.444-11.11L464.444,517.777z M451.111,504.444
		l-64.444,64.444c-2.223-2.222-6.667-2.222-11.111-4.444v-88.889C404.444,475.556,431.111,486.667,451.111,504.444z
		 M335.556,582.223c-2.223,2.222-2.223,6.666-4.444,8.889h-88.889c2.222-28.889,13.333-53.334,28.889-73.334L335.556,582.223z
		 M331.111,608.889c0,4.444,2.222,6.667,4.444,8.889l-64.444,64.445c-15.556-20-26.667-46.667-28.889-73.334H331.111z
		 M346.667,633.333c2.222,2.223,6.666,4.444,11.11,4.444v93.334c-28.889-2.223-55.555-15.556-73.333-33.334L346.667,633.333z
		 M375.556,637.777c4.444,0,6.667-2.222,11.111-4.444L453.333,700c-20,17.777-48.889,28.889-77.777,31.111V637.777z
		 M357.777,475.556v88.889c-2.222,0-6.666,2.223-8.889,4.444l-64.444-64.444C304.444,488.889,328.889,477.777,357.777,475.556z
		 M466.667,686.667L400,620c2.223-4.444,4.444-6.667,4.444-11.111h93.333C495.556,640,484.444,666.667,466.667,686.667z
		 M728.889,733.333c-20,0-37.777-17.777-37.777-37.777s17.777-37.778,37.777-37.778s37.778,17.778,37.778,37.778
		S748.889,733.333,728.889,733.333z"/>
</g>
</svg>
