<?xml version="1.0" encoding="utf-8"?>
<!-- Generator: Adobe Illustrator 16.0.0, SVG Export Plug-In . SVG Version: 6.00 Build 0)  -->
<!DOCTYPE svg PUBLIC "-//W3C//DTD SVG 1.1//EN" "http://www.w3.org/Graphics/SVG/1.1/DTD/svg11.dtd">
<svg version="1.1" id="WiFi_1_" xmlns="http://www.w3.org/2000/svg" xmlns:xlink="http://www.w3.org/1999/xlink" x="0px" y="0px"
	 width="1000px" height="1000px" viewBox="0 0 1000 1000" enable-background="new 0 0 1000 1000" xml:space="preserve">
<g id="WiFi">
	<g>
		<g>
			<path fill="#D01C1F" d="M873.333,1000H126.667C57.778,1000,0,942.223,0,873.333V126.667C0,57.778,57.778,0,126.667,0h746.667
				C942.223,0,1000,57.778,1000,126.667v746.667C1000,942.223,942.223,1000,873.333,1000z"/>
		</g>
	</g>
	<g>
		<g>
			<path fill="#FFFFFF" d="M788.889,246.667c-17.777,17.778-35.556,35.556-53.333,53.333
				C671.111,237.778,591.111,204.444,500,204.444S331.111,237.778,264.444,300c-17.778-17.778-35.556-35.556-53.333-53.333
				C355.556,93.333,626.667,82.222,788.889,246.667z"/>
		</g>
		<g>
			<path fill="#FFFFFF" d="M680,353.333c-2.223,2.222-4.444,4.444-4.444,4.444c-15.556,15.556-31.111,31.111-48.889,48.889
				c-35.556-35.555-77.778-53.333-128.89-53.333c-48.889,0-91.11,17.778-126.666,53.333c-17.778-17.778-35.556-35.555-53.334-53.333
				C411.111,253.333,584.444,253.333,680,353.333z"/>
		</g>
		<g>
			<ellipse fill="#FFFFFF" cx="497.19" cy="469.201" rx="48.888" ry="48.888"/>
		</g>
	</g>
	<g>
		<g enable-background="new    ">
			<path fill="#FFFFFF" d="M231.111,837.777l-53.333-224.444h53.333l17.777,93.334c4.445,26.666,8.889,55.556,13.333,77.777l0,0
				c4.444-24.444,8.889-51.111,15.556-80l20-91.111h53.334l17.777,95.556c4.444,26.667,8.889,51.111,11.111,75.556l0,0
				c2.223-24.444,8.889-51.111,13.333-77.777l17.778-91.111h51.111L404.444,840h-55.556l-15.556-100
				c-4.444-22.223-8.889-44.444-11.11-68.889l0,0c-4.445,24.444-6.667,46.666-13.334,68.889l-22.222,95.556h-55.555V837.777z"/>
			<path fill="#FFFFFF" d="M533.333,628.889c0,13.334-11.11,24.444-26.666,24.444S480,642.223,480,628.889
				c0-13.333,11.111-24.444,26.667-24.444S531.111,613.333,533.333,628.889z M480,837.777V675.556h51.111v162.222H480z"/>
			<path fill="#FFFFFF" d="M573.333,613.333h137.778v42.223h-86.667v51.111h80v42.222h-80V840h-51.111V613.333z"/>
			<path fill="#FFFFFF" d="M793.333,628.889c0,13.334-11.11,24.444-26.666,24.444S740,642.223,740,628.889
				c0-13.333,11.111-24.444,26.667-24.444S793.333,613.333,793.333,628.889z M740,837.777V675.556h51.111v162.222H740z"/>
		</g>
	</g>
</g>
</svg>
