<?xml version="1.0" encoding="utf-8"?>
<!-- Generator: Adobe Illustrator 19.2.1, SVG Export Plug-In . SVG Version: 6.00 Build 0)  -->
<svg version="1.1" id="WiFi_1_" xmlns="http://www.w3.org/2000/svg" xmlns:xlink="http://www.w3.org/1999/xlink" x="0px" y="0px"
	 viewBox="0 0 45 45" enable-background="new 0 0 45 45" xml:space="preserve">
<g id="WiFi">
	<g>
		<g>
			<path d="M39.3,45H5.7C2.6,45,0,42.4,0,39.3V5.7C0,2.6,2.6,0,5.7,0h33.6C42.4,0,45,2.6,45,5.7v33.6C45,42.4,42.4,45,39.3,45z"/>
		</g>
	</g>
	<g>
		<g>
			<path fill="#FFFFFF" d="M35.5,11.1c-0.8,0.8-1.6,1.6-2.4,2.4c-2.9-2.8-6.5-4.3-10.6-4.3s-7.6,1.5-10.6,4.3
				c-0.8-0.8-1.6-1.6-2.4-2.4C16,4.2,28.2,3.7,35.5,11.1z"/>
		</g>
		<g>
			<path fill="#FFFFFF" d="M30.6,15.9c-0.1,0.1-0.2,0.2-0.2,0.2c-0.7,0.7-1.4,1.4-2.2,2.2c-1.6-1.6-3.5-2.4-5.8-2.4
				c-2.2,0-4.1,0.8-5.7,2.4c-0.8-0.8-1.6-1.6-2.4-2.4C18.5,11.4,26.3,11.4,30.6,15.9z"/>
		</g>
		<g>
			
				<ellipse transform="matrix(0.7071 -0.7071 0.7071 0.7071 -8.3853 22.0333)" fill="#FFFFFF" cx="22.4" cy="21.1" rx="2.2" ry="2.2"/>
		</g>
	</g>
	<g>
		<g enable-background="new    ">
			<path fill="#FFFFFF" d="M10.4,37.7L8,27.6h2.4l0.8,4.2c0.2,1.2,0.4,2.5,0.6,3.5h0c0.2-1.1,0.4-2.3,0.7-3.6l0.9-4.1h2.4l0.8,4.3
				c0.2,1.2,0.4,2.3,0.5,3.4h0c0.1-1.1,0.4-2.3,0.6-3.5l0.8-4.1h2.3l-2.6,10.1h-2.5L15,33.3c-0.2-1-0.4-2-0.5-3.1h0
				c-0.2,1.1-0.3,2.1-0.6,3.1l-1,4.3H10.4z"/>
			<path fill="#FFFFFF" d="M24,28.3c0,0.6-0.5,1.1-1.2,1.1c-0.7,0-1.2-0.5-1.2-1.1c0-0.6,0.5-1.1,1.2-1.1S23.9,27.6,24,28.3z
				 M21.6,37.7v-7.3h2.3v7.3H21.6z"/>
			<path fill="#FFFFFF" d="M25.8,27.6H32v1.9h-3.9v2.3h3.6v1.9h-3.6v4.1h-2.3V27.6z"/>
			<path fill="#FFFFFF" d="M35.7,28.3c0,0.6-0.5,1.1-1.2,1.1c-0.7,0-1.2-0.5-1.2-1.1c0-0.6,0.5-1.1,1.2-1.1
				C35.2,27.2,35.7,27.6,35.7,28.3z M33.3,37.7v-7.3h2.3v7.3H33.3z"/>
		</g>
	</g>
</g>
</svg>
