<?xml version="1.0" encoding="utf-8"?>
<!-- Generator: Adobe Illustrator 16.0.0, SVG Export Plug-In . SVG Version: 6.00 Build 0)  -->
<!DOCTYPE svg PUBLIC "-//W3C//DTD SVG 1.1//EN" "http://www.w3.org/Graphics/SVG/1.1/DTD/svg11.dtd">
<svg version="1.1" id="Layer_1" xmlns="http://www.w3.org/2000/svg" xmlns:xlink="http://www.w3.org/1999/xlink" x="0px" y="0px"
	 width="1000px" height="663px" viewBox="0 0 1000 663" enable-background="new 0 0 1000 663" xml:space="preserve">
<g id="Original">
</g>
<g id="Background" display="none">
</g>
<g id="ETC">
	<path fill="#BFBFBF" stroke="#231F20" stroke-width="0.5" stroke-miterlimit="10" d="M872.986,90.155v475.243H57.058l17.128-24.604
		c0,0-1.312-11.096-12.525-15.15l79.568-114.761l-2.744-2.505l50.104-70.86l2.624,1.55l165.46-235.843
		c0,0,10.273-6.562,27.862-5.488l5.183-7.582H872.986L872.986,90.155z"/>
	<path fill="#BFBFBF" stroke="#231F20" stroke-width="0.5" stroke-miterlimit="10" d="M238.975,289.124
		c-5.86,7.024-11.299,13.923-15.683,20.13c-1.49,2.109-2.965,4.307-4.419,6.561l36.373,25.515
		c8.977-13.346,17.609-24.186,17.609-24.186l3.48-4.595L238.975,289.124z"/>
	<path fill="#BFBFBF" stroke="#231F20" stroke-width="0.5" stroke-miterlimit="10" d="M252.46,362.295
		c-2.222,4.385-4.08,8.486-5.527,12.205c-3.935,10.105-4.845,17.356-1.82,19.599c0.131,0.097,0.284,0.161,0.428,0.238
		c3.919,2.095,12.468-3.233,22.861-13.471c3.219-3.171,6.614-6.813,10.102-10.847c0.784-0.907,1.574-1.838,2.367-2.783
		l-22.385-15.958C256.261,355.093,254.237,358.785,252.46,362.295z"/>
	<path fill="#BFBFBF" stroke="#231F20" stroke-width="0.5" stroke-miterlimit="10" d="M279.064,320.786
		c-2.532,3.282-5.073,6.725-7.597,10.31c-3.203,4.548-6.185,9.052-8.926,13.441l23.283,16.6c1.021-1.297,2.045-2.613,3.071-3.964
		l-0.008-0.002c2.085-2.748,4.173-5.6,6.249-8.547c3.388-4.813,6.519-9.567,9.39-14.198l-23.195-16.534
		C280.578,318.844,279.822,319.805,279.064,320.786z"/>
	<path fill="#BFBFBF" stroke="#231F20" stroke-width="0.5" stroke-miterlimit="10" d="M321.507,285.611
		c-5.296-3.923-21.012,8.718-38.009,29.587l22.838,16.279c9.575-15.904,15.704-29.947,16.793-38.354
		C323.609,289.419,323.117,286.804,321.507,285.611z"/>
	
		<rect x="611.438" y="284.752" fill="#BFBFBF" stroke="#231F20" stroke-width="0.5" stroke-miterlimit="10" width="33.043" height="21.902"/>
	<path fill="#BFBFBF" stroke="#231F20" stroke-width="0.5" stroke-miterlimit="10" d="M476.858,197.322v57.289h38.425
		c0,0,7.704-6.799,7.704-27.96c0-21.162-8.263-29.329-8.263-29.329H476.858z"/>
	<circle fill="#BFBFBF" stroke="#231F20" stroke-width="0.5" stroke-miterlimit="10" cx="544.682" cy="387.52" r="16.498"/>
	
		<rect x="530.411" y="427.127" fill="#BFBFBF" stroke="#231F20" stroke-width="0.5" stroke-miterlimit="10" width="27.287" height="41.767"/>
	<polygon fill="#BFBFBF" stroke="#231F20" stroke-width="0.5" stroke-miterlimit="10" points="577.003,507.597 577.003,490.89 
		580.345,487.454 585.45,487.454 585.45,483.788 667.313,483.788 667.313,487.825 672.138,487.825 675.2,490.702 675.2,508.154 
		671.767,510.938 667.59,510.938 667.59,514.697 585.45,514.697 585.45,510.938 580.623,510.938 	"/>
	<polygon fill="#BFBFBF" stroke="#231F20" stroke-width="0.5" stroke-miterlimit="10" points="337.87,484.205 337.87,487.688 
		335.364,487.688 335.364,510.799 338.566,510.799 338.566,514 414.719,514 414.719,484.205 	"/>
	<polygon fill="#BFBFBF" stroke="#231F20" stroke-width="0.5" stroke-miterlimit="10" points="502.567,487.688 502.567,484.205 
		433.146,484.205 440.854,514 502.706,514 502.706,511.216 505.491,511.216 505.491,487.688 	"/>
	<path fill="#BFBFBF" stroke="#231F20" stroke-width="0.5" stroke-miterlimit="10" d="M195.169,492.561l14.479,11.834l84.924-1.393
		c0,0,26.452-37.313,30.281-42.74s5.639-9.467,1.184-14.34s-12.112-0.355-18.934-1.361s-18.099-5.461-22.275-13.953
		c-4.177-8.492-9.606-17.531-21.579-17.955c-11.973-0.423-17.681,3.479-27.983,18.512c-10.302,15.036-14.896,21.721-14.896,21.721
		l-3.759-2.784l-10.859,14.896l6.125,4.733L195.169,492.561z"/>
	<circle fill="#BFBFBF" stroke="#231F20" stroke-width="0.5" stroke-miterlimit="10" cx="544.682" cy="499.241" r="16.498"/>
	
		<rect x="725.319" y="129.475" fill="#BFBFBF" stroke="#231F20" stroke-width="0.5" stroke-miterlimit="10" width="25.985" height="14.665"/>
	<polygon fill="#BFBFBF" stroke="#231F20" stroke-width="0.5" stroke-miterlimit="10" points="557.327,108.778 514.958,108.778 
		514.958,123.767 522.986,123.767 557.327,123.767 	"/>
	<path fill="#BFBFBF" stroke="#231F20" stroke-width="0.5" stroke-miterlimit="10" d="M680.908,463.046
		c0,6.049,4.949,10.998,10.998,10.998c4.12,0,7.726-2.3,9.607-5.675l-20.605-35.831V463.046L680.908,463.046z"/>
	<path fill="#BFBFBF" stroke="#231F20" stroke-width="0.5" stroke-miterlimit="10" d="M702.905,407.776
		c0-6.049-4.95-10.998-10.999-10.998c-4.891,0-9.058,3.234-10.478,7.668l21.477,37.339V407.776L702.905,407.776z"/>
	
		<rect x="640.952" y="522.354" fill="#BFBFBF" stroke="#231F20" stroke-width="0.5" stroke-miterlimit="10" width="13.644" height="39.678"/>
	
		<rect x="612.922" y="396.36" fill="#BFBFBF" stroke="#231F20" stroke-width="0.5" stroke-miterlimit="10" width="26.916" height="38.401"/>
</g>
<g id="Rooms">
	<polygon id="r109" fill="#959595" stroke="#231F20" stroke-width="0.5" stroke-miterlimit="10" points="136.916,452.149 
		177.581,480.676 208.078,436.671 167.843,408.447 	"/>
	<polygon id="r108" fill="#959595" stroke="#231F20" stroke-width="0.5" stroke-miterlimit="10" points="167.843,408.447 
		208.078,436.671 224.14,413.49 184.132,385.427 	"/>
	<path id="r107" fill="#959595" stroke="#231F20" stroke-width="0.5" stroke-miterlimit="10" d="M184.31,385.175l-0.178,0.252
		l40.008,28.063l1.936-2.793l-3.898-2.646c0,0,10.163-27.009,21.162-47.335c3.489-6.448,7.734-13.188,11.905-19.392l-36.373-25.515
		C199.849,345.289,184.31,385.175,184.31,385.175z"/>
	<path id="r105" fill="#959595" stroke="#231F20" stroke-width="0.5" stroke-miterlimit="10" d="M334.297,271.758l-2.414-8.354
		l-42.509-29.327c0,0-28.222,28.454-50.4,55.049l37.36,23.425l-3.48,4.595l6.21,3.645c18.635-24.157,36.688-39.438,42.443-35.177
		c1.609,1.192,2.102,3.811,1.622,7.515l0.03-0.021L334.297,271.758z"/>
	<polygon id="r110" fill="#959595" stroke="#231F20" stroke-width="0.5" stroke-miterlimit="10" points="136.916,452.149 
		111.852,487.569 116.788,490.89 125.42,478.497 142.039,490.19 158.378,467.203 	"/>
	<polygon id="r111" fill="#959595" stroke="#231F20" stroke-width="0.5" stroke-miterlimit="10" points="158.378,467.203 
		142.039,490.19 158.276,501.61 163.845,500.494 177.581,480.676 	"/>
	<polygon id="r112" fill="#959595" stroke="#231F20" stroke-width="0.5" stroke-miterlimit="10" points="137.903,546.717 
		137.903,522.354 134.608,522.354 102.649,500.573 74.187,540.793 59.401,562.031 124.027,562.031 124.027,546.717 	"/>
	
		<rect x="124.027" y="546.717" fill="#959595" stroke="#231F20" stroke-width="0.5" stroke-miterlimit="10" width="13.875" height="15.313"/>
	
		<rect id="r122" x="380.193" y="522.354" fill="#959595" stroke="#231F20" stroke-width="0.5" stroke-miterlimit="10" width="13.922" height="39.678"/>
	
		<rect id="r121" x="366.549" y="522.354" fill="#959595" stroke="#231F20" stroke-width="0.5" stroke-miterlimit="10" width="13.644" height="39.678"/>
	
		<rect id="r120" x="338.566" y="522.354" fill="#959595" stroke="#231F20" stroke-width="0.5" stroke-miterlimit="10" width="27.983" height="39.678"/>
	<polygon id="r113" fill="#959595" stroke="#231F20" stroke-width="0.5" stroke-miterlimit="10" points="153.603,522.354 
		146.999,527.923 146.999,562.031 200.877,562.031 200.877,522.354 	"/>
	
		<rect id="r125" x="434.628" y="522.354" fill="#959595" stroke="#231F20" stroke-width="0.5" stroke-miterlimit="10" width="13.922" height="39.678"/>
	
		<rect id="r124" x="407.758" y="522.354" fill="#959595" stroke="#231F20" stroke-width="0.5" stroke-miterlimit="10" width="26.87" height="39.678"/>
	
		<rect id="r123" x="394.115" y="522.354" fill="#959595" stroke="#231F20" stroke-width="0.5" stroke-miterlimit="10" width="13.644" height="39.678"/>
	
		<rect id="r126" x="448.55" y="522.354" fill="#959595" stroke="#231F20" stroke-width="0.5" stroke-miterlimit="10" width="27.705" height="39.678"/>
	
		<rect id="r114" x="200.877" y="522.354" fill="#959595" stroke="#231F20" stroke-width="0.5" stroke-miterlimit="10" width="14.618" height="39.678"/>
	
		<rect id="r115" x="215.495" y="522.354" fill="#959595" stroke="#231F20" stroke-width="0.5" stroke-miterlimit="10" width="13.504" height="39.678"/>
	
		<rect id="r117" x="256.426" y="522.354" fill="#959595" stroke="#231F20" stroke-width="0.5" stroke-miterlimit="10" width="24.445" height="39.678"/>
	
		<rect id="r116" x="229" y="522.354" fill="#959595" stroke="#231F20" stroke-width="0.5" stroke-miterlimit="10" width="27.426" height="39.678"/>
	
		<rect id="r136" x="627.03" y="522.354" fill="#959595" stroke="#231F20" stroke-width="0.5" stroke-miterlimit="10" width="13.922" height="39.678"/>
	
		<rect id="r135" x="613.387" y="522.354" fill="#959595" stroke="#231F20" stroke-width="0.5" stroke-miterlimit="10" width="13.646" height="39.678"/>
	
		<rect id="r139" x="668.379" y="522.354" fill="#959595" stroke="#231F20" stroke-width="0.5" stroke-miterlimit="10" width="28.262" height="39.678"/>
	
		<rect id="r134" x="599.186" y="522.354" fill="#959595" stroke="#231F20" stroke-width="0.5" stroke-miterlimit="10" width="14.201" height="39.678"/>
	
		<rect id="r129" x="503.82" y="522.354" fill="#959595" stroke="#231F20" stroke-width="0.5" stroke-miterlimit="10" width="13.226" height="39.678"/>
	
		<rect id="r127" x="476.255" y="522.354" fill="#959595" stroke="#231F20" stroke-width="0.5" stroke-miterlimit="10" width="13.504" height="39.678"/>
	
		<rect id="r130" x="517.046" y="522.354" fill="#959595" stroke="#231F20" stroke-width="0.5" stroke-miterlimit="10" width="14.479" height="39.678"/>
	
		<rect id="r133" x="586.238" y="522.354" fill="#959595" stroke="#231F20" stroke-width="0.5" stroke-miterlimit="10" width="12.945" height="39.678"/>
	
		<rect id="r128" x="489.759" y="522.354" fill="#959595" stroke="#231F20" stroke-width="0.5" stroke-miterlimit="10" width="14.063" height="39.678"/>
	
		<rect id="r132" x="558.255" y="522.354" fill="#959595" stroke="#231F20" stroke-width="0.5" stroke-miterlimit="10" width="27.983" height="39.678"/>
	
		<rect id="r131" x="531.525" y="522.354" fill="#959595" stroke="#231F20" stroke-width="0.5" stroke-miterlimit="10" width="26.729" height="39.678"/>
	<polygon id="r140" fill="#959595" stroke="#231F20" stroke-width="0.5" stroke-miterlimit="10" points="714.09,537.019 
		714.09,522.354 696.641,522.354 696.641,562.031 721.7,562.031 721.7,537.019 	"/>
	
		<rect x="721.7" y="537.019" fill="#BFBFBF" stroke="#231F20" stroke-width="0.5" stroke-miterlimit="10" width="28.398" height="25.013"/>
	
		<rect x="714.09" y="528.109" fill="#959595" stroke="#231F20" stroke-width="0.5" stroke-miterlimit="10" width="7.61" height="8.91"/>
	<polygon id="r144" fill="#959595" stroke="#231F20" stroke-width="0.5" stroke-miterlimit="10" points="750.101,428.52 712,428.52 
		711.928,453.577 750.101,453.577 	"/>
	<polygon id="r141" fill="#959595" stroke="#231F20" stroke-width="0.5" stroke-miterlimit="10" points="721.7,510.657 
		721.7,522.354 721.7,537.019 750.101,537.019 750.101,508.014 724.902,508.014 	"/>
	<polygon id="r145" fill="#959595" stroke="#231F20" stroke-width="0.5" stroke-miterlimit="10" points="750.101,393.854 
		714.46,393.854 712.094,396.22 712,428.52 750.101,428.52 	"/>
	<polygon id="r143" fill="#959595" stroke="#231F20" stroke-width="0.5" stroke-miterlimit="10" points="750.101,453.577 
		711.928,453.577 711.871,473.16 750.101,473.16 	"/>
	<polygon id="r142" fill="#959595" stroke="#231F20" stroke-width="0.5" stroke-miterlimit="10" points="750.101,473.16 
		711.871,473.16 711.815,492.281 750.101,492.281 	"/>
	
		<rect id="r102" x="710.654" y="238.902" fill="#959595" stroke="#231F20" stroke-width="0.5" stroke-miterlimit="10" width="41.952" height="82.696"/>
	<polygon id="r104" fill="#959595" stroke="#231F20" stroke-width="0.5" stroke-miterlimit="10" points="522.986,145.206 
		522.986,123.767 514.958,123.767 514.958,108.778 470.825,108.778 470.825,90.155 389.719,90.155 384.536,97.737 293.366,227.95 
		338.951,259.693 414.998,145.206 	"/>
	<polygon id="r106" fill="#959595" stroke="#231F20" stroke-width="0.5" stroke-miterlimit="10" points="440.475,328.838 
		361.955,272.733 356.851,280.297 339.215,306.746 338.951,312.037 435.649,379.979 513.705,379.979 517.277,376.405 
		517.277,357.888 517.277,328.838 	"/>
	<path id="r101" fill="#959595" stroke="#231F20" stroke-width="0.5" stroke-miterlimit="10" d="M752.606,321.598h-41.952v-82.696
		h40.65v-47.193h-42.972v11.692H606.286v-34.248h-83.3v-23.944H414.998l-76.046,114.484l-3.634,5.661l21.532,14.943l5.104-7.564
		l78.52,56.105h76.805v29.05c0,0,10.721,6.126,26.221,6.126s27.38-5.755,27.38-5.755l-0.093-18.472h97.919h25.338h58.564
		L752.606,321.598L752.606,321.598z"/>
	<polygon id="r103" fill="#959595" stroke="#231F20" stroke-width="0.5" stroke-miterlimit="10" points="725.319,144.14 
		666.661,144.14 666.661,128.547 557.327,128.547 557.327,123.767 522.986,123.767 522.986,169.153 606.286,169.153 
		606.286,203.401 708.335,203.401 708.335,191.706 751.307,191.706 751.307,144.14 	"/>
	
		<rect id="r149" x="599.372" y="339.787" fill="#959595" stroke="#231F20" stroke-width="0.5" stroke-miterlimit="10" width="27.101" height="39.539"/>
	<polygon id="r148" fill="#959595" stroke="#231F20" stroke-width="0.5" stroke-miterlimit="10" points="626.473,379.326 
		665.269,379.326 668.703,376.913 668.703,339.787 626.473,339.787 	"/>
	<polygon id="r150" fill="#959595" stroke="#231F20" stroke-width="0.5" stroke-miterlimit="10" points="570.785,339.787 
		570.878,358.26 570.878,376.823 573.569,379.326 599.372,379.326 599.372,339.787 	"/>
	
		<rect id="r147" x="694.042" y="339.787" fill="#959595" stroke="#231F20" stroke-width="0.5" stroke-miterlimit="10" width="28.03" height="39.817"/>
	
		<rect id="r146" x="722.07" y="339.787" fill="#959595" stroke="#231F20" stroke-width="0.5" stroke-miterlimit="10" width="30.536" height="39.817"/>
	
		<rect x="620.161" y="207.716" fill="#959595" stroke="#231F20" stroke-width="0.5" stroke-miterlimit="10" width="40.467" height="33.97"/>
	<polygon id="r167" fill="#959595" stroke="#231F20" stroke-width="0.5" stroke-miterlimit="10" points="397.248,373.18 
		329.308,325.428 324.157,327.376 304.94,354.738 377.649,405.864 397.874,377.217 	"/>
	<polygon id="r168" fill="#959595" stroke="#231F20" stroke-width="0.5" stroke-miterlimit="10" points="344.844,382.795 
		318.011,421.496 348.172,442.512 352.07,442.094 377.649,405.864 	"/>
	<polygon id="r157" fill="#959595" stroke="#231F20" stroke-width="0.5" stroke-miterlimit="10" points="512.73,396.36 
		476.951,396.36 476.951,472.931 512.869,472.931 516.071,470.147 516.071,399.562 	"/>
	
		<rect id="r165" x="420.566" y="434.088" fill="#959595" stroke="#231F20" stroke-width="0.5" stroke-miterlimit="10" width="14.062" height="38.843"/>
	<polygon id="r161" fill="#959595" stroke="#231F20" stroke-width="0.5" stroke-miterlimit="10" points="434.628,434.088 
		434.628,396.36 430.869,396.36 420.566,389.454 420.566,434.088 	"/>
	
		<rect id="r160" x="434.628" y="396.36" fill="#959595" stroke="#231F20" stroke-width="0.5" stroke-miterlimit="10" width="14.757" height="37.729"/>
	
		<rect id="r164" x="434.628" y="434.088" fill="#959595" stroke="#231F20" stroke-width="0.5" stroke-miterlimit="10" width="14.757" height="38.843"/>
	<polygon id="r162" fill="#959595" stroke="#231F20" stroke-width="0.5" stroke-miterlimit="10" points="420.566,389.454 
		417.364,387.311 413.605,388.842 381.375,434.088 420.566,434.088 	"/>
	<polygon id="r166" fill="#959595" stroke="#231F20" stroke-width="0.5" stroke-miterlimit="10" points="381.375,434.088 
		355.69,470.147 357.5,472.931 420.566,472.931 420.566,434.088 	"/>
	
		<rect id="r163" x="449.385" y="434.088" fill="#959595" stroke="#231F20" stroke-width="0.5" stroke-miterlimit="10" width="27.566" height="38.843"/>
	
		<rect id="r158" x="462.193" y="396.36" fill="#959595" stroke="#231F20" stroke-width="0.5" stroke-miterlimit="10" width="14.758" height="37.729"/>
	
		<rect id="r159" x="449.385" y="396.36" fill="#959595" stroke="#231F20" stroke-width="0.5" stroke-miterlimit="10" width="12.811" height="37.729"/>
	<polygon id="r153" fill="#959595" stroke="#231F20" stroke-width="0.5" stroke-miterlimit="10" points="612.922,396.36 
		574.684,396.36 571.76,399.005 571.76,434.761 612.922,434.761 	"/>
	<polygon id="r156" fill="#959595" stroke="#231F20" stroke-width="0.5" stroke-miterlimit="10" points="571.76,434.761 
		571.76,470.842 574.126,473.16 612.922,473.16 612.922,434.761 	"/>
	<polygon id="r151" fill="#959595" stroke="#231F20" stroke-width="0.5" stroke-miterlimit="10" points="672.694,399.005 
		670.188,396.36 639.838,396.36 639.838,434.761 672.694,434.761 	"/>
	
		<rect id="k107" x="328.959" y="487.688" fill="#959595" stroke="#231F20" stroke-width="0.5" stroke-miterlimit="10" width="6.404" height="23.111"/>
	<polygon id="k109" fill="#959595" stroke="#231F20" stroke-width="0.5" stroke-miterlimit="10" points="414.719,484.205 
		414.719,514 440.854,514 433.146,484.205 	"/>
	<path id="k101" fill="#959595" stroke="#231F20" stroke-width="0.5" stroke-miterlimit="10" d="M235.265,431.162
		c8.626-12.59,14.033-17.365,22.592-18.342c0.455-7.576-2.736-6.414-4.494-5.604c-1.81,0.835-5.012,3.619-12.53,8.072
		c-7.518,4.455-10.581,7.657-12.53,13.646c-0.948,2.912-0.512,7.828,0.185,12.113C230.391,438.278,232.639,434.993,235.265,431.162z
		"/>
	<path id="k103" fill="#959595" stroke="#231F20" stroke-width="0.5" stroke-miterlimit="10" d="M324.531,460.717
		c-3.043,4.31-14.436,20.387-22.265,31.433l6.228,4.449l22.832-31.604L324.531,460.717z"/>
	<path id="k105" fill="#959595" stroke="#231F20" stroke-width="0.5" stroke-miterlimit="10" d="M209.648,504.395l-7.709-6.302
		c-1.859,2.057-3.633,4.751-3.428,7.415c0.417,5.43,3.341,7.797,9.567,7.797s27.604,0,30.389,0c2.785,0,4.247-1.114,4.247-1.949
		c0-0.525,0-4.57,0-7.504L209.648,504.395z"/>
	<polygon id="k106" fill="#959595" stroke="#231F20" stroke-width="0.5" stroke-miterlimit="10" points="211.875,469.729 
		205.75,464.993 204.636,463.881 190.296,481.98 198.361,488.198 	"/>
	<path id="k102" fill="#959595" stroke="#231F20" stroke-width="0.5" stroke-miterlimit="10" d="M284.827,430.608
		c4.177,8.492,15.454,12.947,22.275,13.953s14.479-3.512,18.934,1.361c0.095,0.104,0.171,0.205,0.261,0.309
		c0.667-1.008,1.303-2,1.688-2.676c1.114-1.949,1.532-1.949-0.696-3.619c-2.228-1.671-38.425-26.591-45.664-31.489
		c-7.24-4.896-10.581-5.961-14.479-5.544c-2.888,0.313-3.254,6.575-3.25,9.804C275.408,413.434,280.728,422.274,284.827,430.608z"/>
	<path id="k104" fill="#959595" stroke="#231F20" stroke-width="0.5" stroke-miterlimit="10" d="M284.828,503.159l-36.895,0.604
		c0,2.626,0,6.749,0,7.033c0,0.417-0.418,2.506,2.923,2.506c3.341,0,30.489,0,32.299,0c1.81,0,1.67-1.671,1.67-4.038
		C284.827,507.865,284.828,505.148,284.828,503.159z"/>
	
		<rect id="r118-119" x="280.871" y="522.354" fill="#959595" stroke="#231F20" stroke-width="0.5" stroke-miterlimit="10" width="57.695" height="39.678"/>
	<polygon id="k108" fill="#959595" stroke="#231F20" stroke-width="0.5" stroke-miterlimit="10" points="677.567,483.788 
		677.567,499.241 677.567,503 677.567,514.697 685.92,514.697 685.92,503 685.92,499.241 685.92,483.788 	"/>
	<polygon id="r170" fill="#959595" stroke="#231F20" stroke-width="0.5" stroke-miterlimit="10" points="304.94,354.738 
		279.815,390.512 280.232,395.177 298.523,407.921 325.667,369.322 	"/>
	<polygon id="r169" fill="#959595" stroke="#231F20" stroke-width="0.5" stroke-miterlimit="10" points="318.011,421.496 
		344.844,382.795 325.667,369.322 298.523,407.921 	"/>
	
		<rect id="r138" x="654.596" y="522.354" fill="#959595" stroke="#231F20" stroke-width="0.5" stroke-miterlimit="10" width="13.783" height="39.678"/>
	
		<rect id="r155" x="612.922" y="434.761" fill="#959595" stroke="#231F20" stroke-width="0.5" stroke-miterlimit="10" width="26.916" height="38.399"/>
	<polygon id="r154" fill="#959595" stroke="#231F20" stroke-width="0.5" stroke-miterlimit="10" points="669.91,473.16 
		672.694,471.119 672.694,434.761 639.838,434.762 639.838,473.16 	"/>
</g>
<g id="Signs">
	
		<rect id="toilet" x="728.23" y="540.689" opacity="0.8" fill="#231F20" enable-background="new    " width="16.492" height="16.496"/>
	<g id="entrance">
		
			<rect id="entrance-6" x="759.439" y="323.252" opacity="0.8" fill="#231F20" enable-background="new    " width="16.493" height="16.494"/>
		
			<rect id="entrance-5" x="759.439" y="180.825" opacity="0.8" fill="#231F20" enable-background="new    " width="16.493" height="16.494"/>
		
			<rect id="entrance-4" x="759.439" y="381.206" opacity="0.8" fill="#231F20" enable-background="new    " width="16.493" height="16.496"/>
		
			<rect id="entrance-3" x="759.439" y="490.857" opacity="0.8" fill="#231F20" enable-background="new    " width="16.493" height="16.496"/>
		
			<rect id="entrance-2" x="263.896" y="220.689" opacity="0.8" fill="#231F20" enable-background="new    " width="16.495" height="16.496"/>
		
			<rect id="entrance-1" x="82.157" y="484.033" opacity="0.8" fill="#231F20" enable-background="new    " width="16.495" height="16.495"/>
	</g>
	<g id="escalator">
		
			<rect id="escalator-13" x="199.938" y="459.135" opacity="0.8" fill="#231F20" enable-background="new    " width="16.495" height="16.495"/>
		
			<rect id="escalator-12" x="304.082" y="467.382" opacity="0.8" fill="#231F20" enable-background="new    " width="16.495" height="16.496"/>
		
			<rect id="escalator-11" x="251.612" y="364.783" opacity="0.8" fill="#231F20" enable-background="new    " width="16.495" height="16.496"/>
		
			<rect id="escalator-10" x="275.25" y="331.266" opacity="0.8" fill="#231F20" enable-background="new    " width="16.495" height="16.496"/>
		
			<rect id="escalator-9" x="416.651" y="251.444" opacity="0.8" fill="#231F20" enable-background="new    " width="16.496" height="16.496"/>
		
			<rect id="escalator-8" x="426.38" y="189.073" opacity="0.8" fill="#231F20" enable-background="new    " width="16.495" height="16.496"/>
		
			<rect id="escalator-7" x="491.675" y="186.905" opacity="0.8" fill="#231F20" enable-background="new    " width="16.495" height="16.496"/>
		
			<rect id="escalator-6" x="615.069" y="216.454" opacity="0.8" fill="#231F20" enable-background="new    " width="16.495" height="16.493"/>
		
			<rect id="escalator-5" x="650.71" y="216.454" opacity="0.8" fill="#231F20" enable-background="new    " width="16.495" height="16.493"/>
		
			<rect id="escalator-4" x="619.711" y="287.456" opacity="0.8" fill="#231F20" enable-background="new    " width="16.494" height="16.494"/>
		
			<rect id="escalator-3" x="536.434" y="379.271" opacity="0.8" fill="#231F20" enable-background="new    " width="16.494" height="16.496"/>
		
			<rect id="escalator-2" x="536.434" y="490.994" opacity="0.8" fill="#231F20" enable-background="new    " width="16.494" height="16.495"/>
		
			<rect id="escalator-1" x="682.964" y="426.514" opacity="0.8" fill="#231F20" enable-background="new    " width="16.495" height="16.496"/>
	</g>
	<g id="atm">
		
			<rect id="atm-2" x="747.409" y="353.356" opacity="0.8" fill="#231F20" enable-background="new    " width="16.494" height="16.496"/>
		
			<rect id="atm-1" x="115.78" y="502.552" opacity="0.8" fill="#231F20" enable-background="new    " width="16.494" height="16.495"/>
	</g>
	
		<rect id="parking" x="832.948" y="326.356" opacity="0.8" fill="#231F20" enable-background="new    " width="16.494" height="16.495"/>
</g>
</svg>
