<?xml version="1.0" encoding="utf-8"?>
<!-- Generator: Adobe Illustrator 19.2.0, SVG Export Plug-In . SVG Version: 6.00 Build 0)  -->
<svg version="1.1" id="Layer_1" xmlns="http://www.w3.org/2000/svg" xmlns:xlink="http://www.w3.org/1999/xlink" x="0px" y="0px"
	 viewBox="0 0 841.9 595.3" style="enable-background:new 0 0 841.9 595.3;" xml:space="preserve">
<style type="text/css">
	.st0{display:none;}
	.st1{fill:#BFBFBF;stroke:#231F20;stroke-width:0.5;stroke-miterlimit:10;}
	.st2{fill:#BFBFBF;}
	.st3{fill:#959595;stroke:#231F20;stroke-width:0.5;stroke-miterlimit:10;}
	.st4{opacity:0.8;fill:#231F20;enable-background:new    ;}
</style>
<g id="Original">
</g>
<g id="Background" class="st0">
</g>
<g id="ETC">
	<path class="st1" d="M755.8,80.9v426.7H23.2l15.4-22.1c0,0-1.2-10-11.2-13.6l71.4-103l-2.5-2.2l45-63.6l2.4,1.4L292.3,92.7
		c0,0,9.2-5.9,25-4.9l4.7-6.8L755.8,80.9L755.8,80.9z"/>
	<path class="st1" d="M346.4,172.1l28.2,28.8v8.9l-28.2,27.5c0,0-14.1-11.1-14.1-32.6S346.4,172.1,346.4,172.1z"/>
	<path class="st1" d="M523.1,187.8h48.2v35.6h-4.5c0,0-3.9,17.5-19.6,17.5s-20.5-18.5-20.5-18.5l-3.6,0.1V187.8z"/>
	<polygon class="st1" points="282.1,441.1 279.5,444.1 279.5,456 281.8,458.8 320.9,458.8 320.9,441.1 	"/>
	<polygon class="st1" points="394.6,441.1 344.2,441.1 344.2,445.9 340.2,458.8 394.6,458.8 	"/>
	<path class="st1" d="M262,420.2l3.5-5.2c5.2-7.5,1.7-10-3.2-14.2c-4.8-4.2-10.2-5.3-17.5-6.3s-16,2-22.3,0.5s-8-5-11.2-10
		c-3.2-5-3.7-6.7-8.7-7.7s-8.7,2.5-10.3,3.8c-1.7,1.3-19.5,28.2-19.5,28.2l-5-2.8L148,433l4.5,4.3c0,0-0.2,1.2-1.5,2.7
		s-1.7,3.7-0.8,4.7c0.8,1,12.8,11.7,12.8,11.7h12.7l2.5-2.5h24.7l0.1-1.1c0,0,4-9.8,12.4-9.8s11.4,9.5,11.4,9.5v1.3h10.5l4.7-6.2
		l5.5,3.8l20.7-27.3L262,420.2z"/>
	<path class="st1" d="M194.5,357c4.2,3,17-7.3,31.6-24.5L208,318.2C196,338,190.2,353.9,194.5,357z"/>
	<path class="st1" d="M266.7,256.1c-4.2-3-17,7.2-31.5,24.3l18.1,14.2C265.1,275,270.9,259.2,266.7,256.1z"/>
	<path class="st1" d="M220.5,299.3c-2.9,4.1-5.7,8.2-8.2,12.1l19,14.9c3.1-3.9,6.3-8.1,9.5-12.6c3.1-4.3,6-8.6,8.6-12.7l-18.9-14.9
		C227.1,290.3,223.8,294.7,220.5,299.3z"/>
	<path class="st1" d="M585.4,416.8c0,5.4,4.4,9.9,9.9,9.9c3.7,0,6.9-2.1,8.6-5.1l-18.5-32.2V416.8z"/>
	<path class="st1" d="M605.1,367.1c0-5.4-4.4-9.9-9.9-9.9c-4.4,0-8.1,2.9-9.4,6.9l19.3,33.5V367.1z"/>
	<polygon class="st1" points="495.6,443.6 495.6,455.7 497.7,458.1 571.5,458.1 574.6,456.2 574.6,443.6 571.8,441.6 498.3,441.6 	
		"/>
	<circle class="st1" cx="461.5" cy="449.5" r="14.3"/>
	<circle class="st1" cx="461.5" cy="350.2" r="14.3"/>
	<path class="st2" d="M450.5,344l-1.4-0.9c-1.2,2.1-1.9,4.5-1.9,7.1c0,2.8,0.8,5.3,2.2,7.5l1.4-1h20.6l2,1.3c1.5-2.3,2.4-5,2.4-7.9
		c0-2.7-0.8-5.2-2-7.3l-2,1.1H450.5z"/>
	<rect x="621.5" y="133.8" class="st1" width="24.2" height="10.5"/>
	<rect x="618.2" y="157" class="st1" width="27.4" height="11.5"/>
	<rect x="67.4" y="488.1" class="st1" width="18.3" height="17.6"/>
	<rect x="444.6" y="371.1" class="st1" width="33.8" height="56.5"/>
	<rect x="396.1" y="441.1" class="st1" width="40.7" height="17.6"/>
	<path class="st1" d="M211.3,385c3.2,5,4.8,8.5,11.2,10c4.2,1,9.3,0,14.4-0.5c0.8-1.9,1.4-4,1.7-6c0.9-6.8-2.2-10.6-13.4-14.6
		c-7.7-2.8-14.5,2.2-17.9,5.5C208.7,380.5,209.6,382.2,211.3,385z"/>
</g>
<g id="Rooms">
	<path id="r204" class="st3" d="M515.2,300.3v-26.6h-54.4v-123H482v-16.9h-9v-17.3H352.3v10H343v-3l-3.7-2.7l-45.8,66.4l10.3,7.3
		L268.7,245c0,0,9.7,5.7,12.7,11.7s3.5,11.5-2.7,21L366,339h70.7c0,0,2.3-18.8,24.5-18.8s25.2,18.8,25.2,18.8H510v-38.7H515.2z"/>
	<polygon id="r203" class="st3" points="613.5,244.8 613.5,273.8 515.2,273.8 515.2,300.3 510,300.3 510,339 510,343.3 621,343.3 
		621,289 645.7,289 645.7,244.8 	"/>
	<rect x="621" y="289" class="st3" width="24.7" height="54.3"/>
	<path id="k203" class="st3" d="M179.5,453.8h-1.3l-2.5,2.5H163c0,0-5.1-4.5-8.9-8c-1.2,1.6-2.7,3.7-3.7,5.1
		c-1.9,2.6-1.5,8.5,3.5,8.9s30.9,0,33.1,0s3.5-0.5,3.5-2.5s0-3.5,0-3.5h-10.4L179.5,453.8z"/>
	<path id="k204" class="st3" d="M202.4,462.5h24.3v-10c0,0-3-9.5-11.4-9.5s-12.4,9.8-12.4,9.8L202.4,462.5z"/>
	<polygon class="st3" points="248,450.7 252.9,454.3 272.5,427.6 268.1,424.2 	"/>
	<path id="k201" class="st3" d="M192.3,381.2c1.3-1,3.7-3.3,7.1-3.9c-3.4-3.1-9.6-6.1-16.8,2.2c-6.3,7.3-4.1,13-1,16.7
		C186.4,389.2,191.5,381.8,192.3,381.2z"/>
	<path id="k202" class="st3" d="M244.8,394.5c7.3,1,12.7,2.2,17.5,6.3c2,1.8,3.8,3.2,4.8,4.9c2-3.8,3.8-10.8-6.9-15.7
		c-10.9-5-16.7,0.7-19,4.3C242.4,394.3,243.7,394.3,244.8,394.5z"/>
	<path class="st3" d="M461.5,364.5c-5.1,0-9.6-2.7-12.1-6.7l-4.5,3.2c3.5,5.4,9.6,9,16.6,9c6.9,0,13-3.6,16.5-8.9l-4.6-3
		C470.9,361.9,466.5,364.5,461.5,364.5z"/>
	<path class="st3" d="M461.5,335.9c5.2,0,9.7,2.8,12.2,6.9l4.8-2.7c-3.4-5.8-9.8-9.7-17-9.7c-7.3,0-13.6,3.9-17,9.8l4.6,3
		C451.6,338.8,456.2,335.9,461.5,335.9z"/>
	<rect x="608.5" y="133.8" class="st3" width="13" height="16.8"/>
	<polygon id="r201" class="st3" points="621.5,144.4 621.5,150.6 608.5,150.6 608.5,133.8 482,133.8 482,150.8 460.8,150.8 
		460.8,273.8 613.5,273.8 613.5,244.8 645.7,244.8 645.7,168.5 618.2,168.5 618.2,157 624.8,157 624.8,144.4 	"/>
	<polygon id="r245" class="st3" points="613.6,440.5 616.6,445.6 645.7,445.6 645.7,419.1 613.6,419.1 	"/>
	<polygon id="r247" class="st3" points="645.7,358.6 616,358.6 613.6,361.2 613.6,405.5 645.7,405.5 	"/>
	<rect id="r246" x="613.6" y="405.5" class="st3" width="32" height="13.6"/>
	<rect id="r224" x="277.5" y="471.9" class="st3" width="12.7" height="33.7"/>
	<rect id="r223" x="253.1" y="471.9" class="st3" width="24.4" height="33.7"/>
	<rect id="r225" x="290.2" y="471.9" class="st3" width="12.1" height="33.7"/>
	<rect id="r227" x="314.4" y="472" class="st3" width="12.3" height="33.7"/>
	<rect id="r222" x="240.3" y="471.9" class="st3" width="12.8" height="33.7"/>
	<rect id="r228" x="326.7" y="472" class="st3" width="12.1" height="33.7"/>
	<rect id="r226" x="302.3" y="472" class="st3" width="12.1" height="33.7"/>
	<rect id="r216" x="166.7" y="471.9" class="st3" width="12.5" height="33.7"/>
	<rect id="r215" x="153.8" y="471.9" class="st3" width="12.9" height="33.7"/>
	<rect id="r217" x="179.2" y="471.9" class="st3" width="12.6" height="33.7"/>
	<rect id="r219" x="204.6" y="471.9" class="st3" width="11.8" height="33.7"/>
	<rect id="r218" x="191.8" y="471.9" class="st3" width="12.8" height="33.7"/>
	<rect id="r220" x="216.4" y="471.9" class="st3" width="11.9" height="33.7"/>
	<rect id="r221" x="228.3" y="471.9" class="st3" width="12" height="33.7"/>
	<polygon id="r214" class="st3" points="106.6,471.9 104,474.9 104,505.7 153.8,505.7 153.8,471.9 	"/>
	<rect id="r241" x="572.5" y="472" class="st3" width="12.1" height="33.7"/>
	<rect id="r242" x="584.6" y="472" class="st3" width="12.4" height="33.7"/>
	<rect id="r240" x="548.1" y="472" class="st3" width="24.4" height="33.7"/>
	<rect id="r239" x="535.6" y="472" class="st3" width="12.5" height="33.7"/>
	<rect id="r238" x="523.5" y="472" class="st3" width="12.1" height="33.7"/>
	<polygon id="r244" class="st3" points="645.7,458.1 622.5,458.1 620.3,460.4 620.3,486.1 622.5,486.1 645.7,486.1 	"/>
	<polygon id="r243" class="st3" points="613.7,491.6 613.7,472 597,472 597,505.7 622.5,505.7 622.5,491.6 	"/>
	<rect id="r233" x="424.8" y="472" class="st3" width="36.8" height="33.7"/>
	<polygon id="r229-232" class="st3" points="338.8,472 338.8,505.7 424.8,505.7 424.8,472 	"/>
	<rect id="r237" x="511.1" y="472" class="st3" width="12.4" height="33.7"/>
	<rect id="r236" x="494.5" y="472" class="st3" width="16.6" height="33.7"/>
	<rect id="r235" x="474.1" y="472" class="st3" width="20.4" height="33.7"/>
	<rect id="r234" x="461.5" y="472" class="st3" width="12.6" height="33.7"/>
	<rect id="r256" x="523.5" y="391.9" class="st3" width="12" height="33.8"/>
	<polygon id="r258" class="st3" points="486.2,391.9 486.2,422.9 488.8,425.8 510.6,425.8 510.6,391.9 	"/>
	<rect id="r257" x="510.6" y="391.9" class="st3" width="12.9" height="33.8"/>
	<rect id="r255" x="535.5" y="391.9" class="st3" width="15.4" height="33.8"/>
	<rect id="r251" x="522.3" y="358.1" class="st3" width="12.7" height="33.8"/>
	<rect id="r252" x="498.9" y="358.1" class="st3" width="23.5" height="33.8"/>
	<polygon id="r253" class="st3" points="488.5,358.1 486.2,360.5 486.2,391.9 498.9,391.9 498.9,358.1 	"/>
	<rect id="r250" x="535" y="358.1" class="st3" width="11.8" height="33.8"/>
	<rect id="r249" x="546.8" y="358.1" class="st3" width="10.8" height="33.8"/>
	<polygon id="r248" class="st3" points="577.2,360.5 575,358.1 557.7,358.1 557.7,381.4 577.2,381.4 	"/>
	<rect id="big-mac" x="557.7" y="381.4" class="st3" width="19.6" height="10.5"/>
	<polygon id="r254" class="st3" points="550.9,391.9 550.9,425.8 574.3,425.8 577.2,423.2 577.2,391.9 	"/>
	<polygon id="r259" class="st3" points="436.8,360.7 434.9,358.3 417.1,358.3 417.1,392.6 436.8,392.6 	"/>
	<rect id="r270" x="313.3" y="392.6" class="st3" width="13.2" height="35.6"/>
	<rect id="r273" x="351" y="392.6" class="st3" width="11.9" height="35.6"/>
	<rect id="r272" x="338.8" y="392.6" class="st3" width="12.2" height="35.6"/>
	<rect id="r274" x="362.9" y="392.6" class="st3" width="12.8" height="35.6"/>
	<rect id="r275" x="375.7" y="392.6" class="st3" width="12.6" height="35.6"/>
	<polygon id="r277" class="st3" points="400.2,392.6 400.2,428.2 434.1,428.2 436.8,425.8 436.8,392.6 	"/>
	<rect id="r276" x="388.2" y="392.6" class="st3" width="12" height="35.6"/>
	<rect id="r271" x="326.5" y="392.6" class="st3" width="12.3" height="35.6"/>
	<polygon id="r268" class="st3" points="313.3,392.6 311.5,392.6 295.5,415.6 313.3,415.6 	"/>
	<polygon id="r269" class="st3" points="295.5,415.6 289,424.8 289.6,428.2 313.3,428.2 313.3,415.6 	"/>
	<polygon id="r264" class="st3" points="358.6,358.3 351,352.8 351,392.6 362.9,392.6 362.9,358.3 	"/>
	<rect id="r263" x="362.9" y="358.3" class="st3" width="12.8" height="34.3"/>
	<polygon id="r267" class="st3" points="311.5,392.6 351,392.6 351,377.8 322,377.8 	"/>
	<polygon id="r265" class="st3" points="351,352.8 345.3,348.8 342.2,348.8 330.1,366.2 351,366.2 	"/>
	<polygon id="r266" class="st3" points="330.1,366.2 322,377.8 351,377.8 351,366.2 	"/>
	<rect id="r260" x="400.2" y="358.3" class="st3" width="16.8" height="34.3"/>
	<rect id="r262" x="375.7" y="358.3" class="st3" width="12.6" height="34.3"/>
	<rect id="r261" x="388.2" y="358.3" class="st3" width="12" height="34.3"/>
	<polygon id="r283" class="st3" points="295.2,354.1 273.2,385.6 288.2,396.2 291.8,396.2 312.4,366.3 	"/>
	<polygon id="r282" class="st3" points="247.4,320.4 226.7,349.8 227.2,353.2 273.2,385.6 295.2,354.1 	"/>
	<polygon id="r280" class="st3" points="289.5,308.7 270.1,336.4 289.6,350.2 309.1,322.4 	"/>
	<polygon id="r281" class="st3" points="269,294.3 265.5,294.8 247.4,320.4 270.1,336.4 289.5,308.7 	"/>
	<polygon id="r279" class="st3" points="309.1,322.4 289.6,350.2 297.4,355.6 316.9,327.8 	"/>
	<polygon id="r278" class="st3" points="330.3,340.4 329.8,336.8 316.9,327.8 297.4,355.6 312.4,366.3 	"/>
	<polygon id="r211" class="st3" points="100.8,402.6 136.8,427.5 153.7,403.5 117.7,378.6 	"/>
	<polygon id="r212" class="st3" points="85.5,424.4 121.5,449.3 136.8,427.5 100.8,402.6 	"/>
	<polygon id="r210" class="st3" points="117.7,378.6 153.7,403.5 170.8,379.2 134.8,354.3 	"/>
	<path id="r213" class="st3" d="M28.3,505.7h39v-17.6h18.3h10.9v-16.3c0,0-6.9-9.2,3.4-18.1c10.3-8.8,18.7-0.4,18.7-0.4l2.8-4
		l-36-24.9L28.3,505.7z"/>
	<path id="r208" class="st3" d="M145.5,330.8l29.7,21c3-8,6.4-15.7,9.9-22.9l-30.3-20.9C151.1,316.4,148,324.3,145.5,330.8z"/>
	<path id="r209" class="st3" d="M139.8,347.2l-5,7.1l36,24.9l12.9-18.3l-0.3-3.8l-8.1-5.4l-29.7-21
		C141.8,340.7,139.8,347.2,139.8,347.2z"/>
	<path id="r206" class="st3" d="M178,266c-4.4,6.2-8.4,12.9-12.1,19.7l31.2,21.6c6.9-11.3,14.1-21.2,20.9-29.5l-32-22.1
		C183.2,258.9,180.5,262.4,178,266z"/>
	<path id="r205" class="st3" d="M293.5,187.2L283.3,202l-28.8-19.8L233.7,212c0,0-25.7,16.5-47.8,43.6l32,22.1
		c13.7-16.9,25.9-27.6,30.8-31.2c10.2-7.5,19.9-1.5,19.9-1.5l35.2-50.5L293.5,187.2z"/>
	<path id="r207" class="st3" d="M154.9,307.9l30.3,20.9c3.8-7.7,7.8-14.9,11.9-21.6l-31.2-21.6C161.8,293.2,158.1,300.8,154.9,307.9
		z"/>
	<rect id="k205" x="269.7" y="441.1" class="st3" width="8.9" height="17.6"/>
	<rect id="k206" x="322" y="441.1" class="st3" width="8.9" height="17.6"/>
</g>
<g id="Signs">
	<polygon id="toilet" class="st3" points="645.7,486.1 622.5,486.1 622.5,491.6 622.5,505.7 645.7,505.7 	"/>
	<rect id="parking" x="721.8" y="288.8" class="st4" width="14.8" height="14.8"/>
	<g id="escalator">
		<rect id="escalator11" x="585.7" y="388.4" class="st4" width="14.8" height="14.8"/>
		<rect id="escalator10" x="453.7" y="442.4" class="st4" width="14.8" height="14.8"/>
		<rect id="escalator09" x="453.7" y="343.4" class="st4" width="14.8" height="14.8"/>
		<rect id="escalator08" x="522.6" y="199.9" class="st4" width="14.8" height="14.8"/>
		<rect id="escalator07" x="346.9" y="226.6" class="st4" width="14.8" height="14.8"/>
		<rect id="escalator06" x="354.3" y="169.9" class="st4" width="14.8" height="14.8"/>
		<rect id="escalator05" x="244.3" y="267.9" class="st4" width="14.8" height="14.8"/>
		<rect id="escalator04" x="224" y="297.6" class="st4" width="14.8" height="14.8"/>
		<rect id="escalator03" x="248.3" y="427.6" class="st4" width="14.8" height="14.8"/>
		<rect id="escalator02" x="151.3" y="415.9" class="st4" width="14.8" height="14.8"/>
		<rect id="escalator01" x="554.3" y="199.9" class="st4" width="14.8" height="14.8"/>
	</g>
	<g id="entrance">
		<rect id="entrance04" x="663.3" y="281.4" class="st4" width="14.8" height="14.8"/>
		<rect id="entrance03" x="663.3" y="173" class="st4" width="14.8" height="14.8"/>
		<rect id="entrance02" x="663.3" y="343.4" class="st4" width="14.8" height="14.8"/>
		<rect id="entrance01" x="663.3" y="444" class="st4" width="14.8" height="14.8"/>
	</g>
</g>
</svg>
