<?xml version="1.0" encoding="utf-8"?>
<!-- Generator: Adobe Illustrator 16.0.0, SVG Export Plug-In . SVG Version: 6.00 Build 0)  -->
<!DOCTYPE svg PUBLIC "-//W3C//DTD SVG 1.1//EN" "http://www.w3.org/Graphics/SVG/1.1/DTD/svg11.dtd">
<svg version="1.1" id="Layer_1" xmlns="http://www.w3.org/2000/svg" xmlns:xlink="http://www.w3.org/1999/xlink" x="0px" y="0px"
	 width="1000px" height="1000px" viewBox="0 0 1000 1000" enable-background="new 0 0 1000 1000" xml:space="preserve">
<g id="original">
</g>
<g id="background" display="none">
</g>
<g id="etc">
	<path fill="#BFBFBF" stroke="#231F20" stroke-width="0.5" stroke-miterlimit="10" d="M897.731,242.547v506.829H27.557l18.292-26.25
		c0,0-1.425-11.878-13.303-16.153l84.808-122.343l-2.969-2.613l53.45-75.543l2.851,1.663L347.19,256.562
		c0,0,10.928-7.008,29.695-5.82l5.583-8.077L897.731,242.547L897.731,242.547z"/>
	
		<rect x="623.59" y="371.897" fill="#BFBFBF" stroke="#231F20" stroke-width="0.5" stroke-miterlimit="10" width="47.512" height="49.293"/>
	<circle fill="#BFBFBF" stroke="#231F20" stroke-width="0.5" stroke-miterlimit="10" cx="545.789" cy="681.672" r="17.341"/>
	<circle fill="#BFBFBF" stroke="#231F20" stroke-width="0.5" stroke-miterlimit="10" cx="545.789" cy="563.844" r="17.342"/>
	<path fill="#BFBFBF" stroke="#231F20" stroke-width="0.5" stroke-miterlimit="10" d="M176.149,675.614l14.016,10.097h90.272
		l34.802-48.462c0,0,3.563-4.157,1.782-7.364c-1.782-3.207-9.146,0.356-17.817,0s-16.629,1.426-25.775-13.304
		c-9.146-14.609-11.046-17.579-21.143-20.786s-18.648-5.107-29.695,9.859c-11.046,15.084-21.974,31.832-21.974,31.832l-2.138-1.781
		l-17.698,26.725l2.257,1.426L176.149,675.614z"/>
	<path fill="#BFBFBF" stroke="#231F20" stroke-width="0.5" stroke-miterlimit="10" d="M428.079,669.319
		c-20.073,0-38.128,1.188-51.55,3.088l-1.9,15.68c13.541,2.019,32.545,3.325,53.45,3.325c9.858,0,19.124-0.237,27.676-0.831
		l-3.088-20.668C444.946,669.557,436.632,669.319,428.079,669.319z"/>
	<path fill="#BFBFBF" stroke="#231F20" stroke-width="0.5" stroke-miterlimit="10" d="M502.673,680.366
		c0-4.396-17.104-8.077-41.93-9.859l2.97,19.599C486.994,688.086,502.673,684.523,502.673,680.366z"/>
	<polygon fill="#BFBFBF" stroke="#231F20" stroke-width="0.5" stroke-miterlimit="10" points="586.53,674.427 586.53,687.611 
		588.906,691.056 676.327,691.056 679.297,688.799 679.297,674.427 677.277,671.22 589.737,671.22 	"/>
	<path fill="#BFBFBF" stroke="#231F20" stroke-width="0.5" stroke-miterlimit="10" d="M691.412,647.82
		c0,6.414,5.227,11.759,11.76,11.759c4.395,0,8.195-2.494,10.215-6.058l-21.975-38.246V647.82z"/>
	<path fill="#BFBFBF" stroke="#231F20" stroke-width="0.5" stroke-miterlimit="10" d="M714.931,588.906
		c0-6.414-5.227-11.76-11.759-11.76c-5.227,0-9.621,3.445-11.166,8.196l22.925,39.791V588.906L714.931,588.906z"/>
	<path fill="#BFBFBF" stroke="#231F20" stroke-width="0.5" stroke-miterlimit="10" d="M262.026,501.128
		c-22.924,31.596-36.703,60.578-30.882,64.854c5.82,4.276,29.219-17.816,52.144-49.412c5.108-7.008,9.74-13.896,13.779-20.311
		l-19.48-15.085C272.479,487.112,267.252,493.883,262.026,501.128z"/>
	<path fill="#BFBFBF" stroke="#231F20" stroke-width="0.5" stroke-miterlimit="10" d="M314.17,451.717
		c-4.038-2.97-16.629,6.77-31.595,23.637l18.529,14.372C312.745,469.89,318.328,454.686,314.17,451.717z"/>
	
		<rect x="528.447" y="602.565" fill="#BFBFBF" stroke="#231F20" stroke-width="0.5" stroke-miterlimit="10" width="32.902" height="46.442"/>
	<polygon fill="#BFBFBF" stroke="#231F20" stroke-width="0.5" stroke-miterlimit="10" points="761.373,320.466 761.373,283.288 
		734.647,283.288 734.647,304.431 734.647,320.466 	"/>
	<polygon fill="#BFBFBF" stroke="#231F20" stroke-width="0.5" stroke-miterlimit="10" points="558.855,285.664 540.325,285.664 
		522.865,304.431 558.855,304.431 	"/>
	
		<rect x="353.367" y="669.319" fill="#BFBFBF" stroke="#231F20" stroke-width="0.5" stroke-miterlimit="10" width="12.234" height="10.928"/>
	
		<rect x="293.497" y="621.681" transform="matrix(-0.9947 0.1026 -0.1026 -0.9947 667.2377 1215.5624)" fill="#BFBFBF" stroke="#231F20" stroke-width="0.5" stroke-miterlimit="10" width="17.697" height="6.533"/>
	<path fill="#BFBFBF" stroke="#231F20" stroke-width="0.5" stroke-miterlimit="10" d="M524.29,598.765v55.113h42.048v-55.113H524.29
		z M561.35,649.008h-32.902v-46.442h32.902V649.008z"/>
	<path fill="#BFBFBF" stroke="#231F20" stroke-width="0.5" stroke-miterlimit="10" d="M561.587,570.971
		c-2.731,6.058-8.79,10.215-15.798,10.215s-13.065-4.157-15.797-10.215h-5.702v21.38h40.86v-21.38H561.587z"/>
	<path fill="#BFBFBF" stroke="#231F20" stroke-width="0.5" stroke-miterlimit="10" d="M524.766,534.98v23.399h4.632
		c2.376-6.89,8.79-11.759,16.392-11.759s14.016,4.869,16.392,11.759h4.157V534.98H524.766z"/>
	
		<rect x="73.287" y="727.046" fill="#BFBFBF" stroke="#231F20" stroke-width="0.5" stroke-miterlimit="10" width="29.932" height="19.242"/>
	<polygon fill="#BFBFBF" stroke="#231F20" stroke-width="0.5" stroke-miterlimit="10" points="735.123,500.891 735.123,512.531 
		735.123,558.38 766.718,558.38 766.718,502.554 766.243,500.891 	"/>
	<polygon fill="#BFBFBF" stroke="#231F20" stroke-width="0.5" stroke-miterlimit="10" points="515.382,285.664 515.382,268.203 
		479.511,268.203 479.511,273.786 479.511,294.928 513.244,314.17 522.865,304.431 540.325,285.664 	"/>
</g>
<g id="rooms">
	<path id="r304" fill="#959595" stroke="#231F20" stroke-width="0.5" stroke-miterlimit="10" d="M513.362,507.187l-0.118-91.935
		h-29.933v-52.976l-3.801-4.989v-83.264c0,0-23.637-10.453-55.707-3.801s-46.562,22.331-46.562,22.331l2.851,2.969
		c0,0-20.786,18.055-25.062,31.595l3.683,4.632l-26.251,0.119l-37.415,52.976l5.345,22.331l49.294,34.208l94.904,66.16h68.772
		V507.187z"/>
	<polygon id="r346" fill="#959595" stroke="#231F20" stroke-width="0.5" stroke-miterlimit="10" points="349.447,441.026 
		326.88,474.047 327.83,479.273 350.873,495.189 376.529,459.793 	"/>
	<polygon id="r345" fill="#959595" stroke="#231F20" stroke-width="0.5" stroke-miterlimit="10" points="376.529,459.793 
		350.873,495.189 418.458,541.869 443.877,506.711 	"/>
	<polygon id="r344" fill="#959595" stroke="#231F20" stroke-width="0.5" stroke-miterlimit="10" points="444.471,507.187 
		443.877,506.711 418.458,541.869 431.405,550.896 472.978,550.896 472.978,507.187 	"/>
	<polygon id="r343" fill="#959595" stroke="#231F20" stroke-width="0.5" stroke-miterlimit="10" points="513.362,507.187 
		472.978,507.187 472.978,550.896 509.562,550.896 513.362,546.978 513.362,518.113 	"/>
	
		<rect id="r337" x="618.838" y="512.531" fill="#959595" stroke="#231F20" stroke-width="0.5" stroke-miterlimit="10" width="14.848" height="42.285"/>
	<polygon id="r338" fill="#959595" stroke="#231F20" stroke-width="0.5" stroke-miterlimit="10" points="574.296,512.531 
		574.296,517.639 574.296,550.896 577.503,554.816 618.838,554.816 618.838,512.531 	"/>
	<polygon id="r335" fill="#959595" stroke="#231F20" stroke-width="0.5" stroke-miterlimit="10" points="653.521,512.531 
		653.521,554.816 677.634,554.816 679.653,550.896 679.653,512.531 	"/>
	
		<rect id="r336" x="633.686" y="512.531" fill="#959595" stroke="#231F20" stroke-width="0.5" stroke-miterlimit="10" width="19.955" height="42.285"/>
	<polygon id="r334" fill="#959595" stroke="#231F20" stroke-width="0.5" stroke-miterlimit="10" points="704.597,512.531 
		704.597,554.816 708.16,558.38 735.123,558.38 735.123,512.531 	"/>
	<path id="r302" fill="#959595" stroke="#231F20" stroke-width="0.5" stroke-miterlimit="10" d="M513.244,421.071l0.118,96.924
		v-0.713c0,0,10.453,6.533,30.883,6.533s29.933-6.177,29.933-6.177v-5.107h105.356v38.365l-1.9,3.801h26.963v-42.285h30.407v-21.736
		h20.192l6.058-9.027v-60.577H513.244L513.244,421.071z"/>
	<polygon id="r301" fill="#959595" stroke="#231F20" stroke-width="0.5" stroke-miterlimit="10" points="734.647,320.466 
		734.647,304.431 558.855,304.431 522.865,304.431 513.244,314.17 513.244,415.132 513.244,421.071 623.59,421.071 623.59,371.897 
		671.102,371.897 671.102,421.071 761.373,421.071 761.373,320.466 	"/>
	<polygon id="r303" fill="#959595" stroke="#231F20" stroke-width="0.5" stroke-miterlimit="10" points="479.511,357.168 
		483.312,362.157 483.312,415.132 513.244,415.132 513.244,314.17 479.511,294.928 	"/>
	
		<rect id="k305" x="338.52" y="682.741" fill="#959595" stroke="#231F20" stroke-width="0.5" stroke-miterlimit="10" width="27.082" height="10.69"/>
	
		<rect id="k304" x="338.52" y="669.319" fill="#959595" stroke="#231F20" stroke-width="0.5" stroke-miterlimit="10" width="10.928" height="10.928"/>
	<polygon id="r339" fill="#959595" stroke="#231F20" stroke-width="0.5" stroke-miterlimit="10" points="618.838,612.662 
		618.838,571.445 578.216,571.445 575.128,575.128 575.246,649.721 577.979,652.453 634.161,652.453 634.398,612.662 	"/>
	<polygon id="r342" fill="#959595" stroke="#231F20" stroke-width="0.5" stroke-miterlimit="10" points="634.398,612.662 
		634.161,652.453 679.653,652.453 682.267,649.483 682.267,612.662 	"/>
	<polygon id="r341" fill="#959595" stroke="#231F20" stroke-width="0.5" stroke-miterlimit="10" points="682.267,575.128 
		679.653,571.445 647.939,571.445 647.939,612.662 682.267,612.662 	"/>
	
		<rect id="r340" x="618.838" y="571.445" fill="#959595" stroke="#231F20" stroke-width="0.5" stroke-miterlimit="10" width="29.102" height="41.335"/>
	
		<rect id="r318" x="371.541" y="708.041" fill="#959595" stroke="#231F20" stroke-width="0.5" stroke-miterlimit="10" width="69.485" height="38.247"/>
	
		<rect id="r319" x="440.907" y="708.041" fill="#959595" stroke="#231F20" stroke-width="0.5" stroke-miterlimit="10" width="32.308" height="38.247"/>
	
		<rect id="r320" x="473.334" y="708.041" fill="#959595" stroke="#231F20" stroke-width="0.5" stroke-miterlimit="10" width="29.457" height="38.247"/>
	
		<rect id="r321" x="502.673" y="707.923" fill="#959595" stroke="#231F20" stroke-width="0.5" stroke-miterlimit="10" width="29.457" height="38.246"/>
	
		<rect id="r322" x="532.13" y="707.923" fill="#959595" stroke="#231F20" stroke-width="0.5" stroke-miterlimit="10" width="29.457" height="38.246"/>
	<polygon id="r323" fill="#959595" stroke="#231F20" stroke-width="0.5" stroke-miterlimit="10" points="561.587,707.923 
		589.737,708.041 589.737,746.288 561.587,746.169 	"/>
	
		<rect id="r317" x="289.939" y="708.041" fill="#959595" stroke="#231F20" stroke-width="0.5" stroke-miterlimit="10" width="81.482" height="38.247"/>
	<polygon id="r314" fill="#959595" stroke="#231F20" stroke-width="0.5" stroke-miterlimit="10" points="139.209,708.041 
		123.53,729.065 123.53,746.288 181.851,746.288 181.851,708.041 	"/>
	
		<rect id="r316" x="265.59" y="708.041" fill="#959595" stroke="#231F20" stroke-width="0.5" stroke-miterlimit="10" width="24.35" height="38.247"/>
	
		<rect id="r315" x="181.851" y="708.041" fill="#959595" stroke="#231F20" stroke-width="0.5" stroke-miterlimit="10" width="83.739" height="38.247"/>
	<polygon id="r332" fill="#959595" stroke="#231F20" stroke-width="0.5" stroke-miterlimit="10" points="764.699,624.896 
		725.977,624.896 725.858,660.648 764.699,660.648 	"/>
	<polygon id="r331" fill="#959595" stroke="#231F20" stroke-width="0.5" stroke-miterlimit="10" points="764.699,660.648 
		725.858,660.648 725.739,670.27 728.709,672.883 764.699,672.883 	"/>
	<polygon id="r333" fill="#959595" stroke="#231F20" stroke-width="0.5" stroke-miterlimit="10" points="764.699,573.108 
		728.709,573.108 726.333,576.672 725.977,624.896 764.699,624.896 	"/>
	<polygon id="r330" fill="#959595" stroke="#231F20" stroke-width="0.5" stroke-miterlimit="10" points="733.816,693.432 
		733.816,708.041 733.816,721.582 737.38,727.046 764.699,727.046 764.699,691.056 736.667,691.056 	"/>
	
		<rect id="r327" x="662.312" y="708.041" fill="#959595" stroke="#231F20" stroke-width="0.5" stroke-miterlimit="10" width="29.813" height="38.247"/>
	
		<rect id="r328" x="692.244" y="708.041" fill="#959595" stroke="#231F20" stroke-width="0.5" stroke-miterlimit="10" width="13.659" height="38.247"/>
	<polygon id="r329" fill="#959595" stroke="#231F20" stroke-width="0.5" stroke-miterlimit="10" points="734.529,734.529 
		725.977,720.038 725.977,708.041 705.784,708.041 705.784,746.288 737.736,746.288 737.736,734.529 	"/>
	
		<rect id="r326" x="647.464" y="708.041" fill="#959595" stroke="#231F20" stroke-width="0.5" stroke-miterlimit="10" width="14.848" height="38.247"/>
	
		<rect id="r234" x="589.737" y="708.041" fill="#959595" stroke="#231F20" stroke-width="0.5" stroke-miterlimit="10" width="43.235" height="38.247"/>
	
		<rect id="r325" x="632.973" y="708.041" fill="#959595" stroke="#231F20" stroke-width="0.5" stroke-miterlimit="10" width="14.491" height="38.247"/>
	<polygon id="r351" fill="#959595" stroke="#231F20" stroke-width="0.5" stroke-miterlimit="10" points="408.6,561.23 
		404.086,561.23 341.727,651.265 343.984,655.066 414.895,655.066 414.895,565.625 	"/>
	
		<rect id="r356" x="414.895" y="613.256" fill="#959595" stroke="#231F20" stroke-width="0.5" stroke-miterlimit="10" width="28.982" height="41.811"/>
	<polygon id="r352" fill="#959595" stroke="#231F20" stroke-width="0.5" stroke-miterlimit="10" points="443.877,571.445 
		423.209,571.445 414.895,565.625 414.895,613.256 443.877,613.256 	"/>
	
		<rect id="r357" x="443.877" y="613.256" fill="#959595" stroke="#231F20" stroke-width="0.5" stroke-miterlimit="10" width="29.101" height="41.811"/>
	
		<rect id="r353" x="443.877" y="571.445" fill="#959595" stroke="#231F20" stroke-width="0.5" stroke-miterlimit="10" width="29.101" height="41.811"/>
	
		<rect id="r355" x="472.978" y="599.596" fill="#959595" stroke="#231F20" stroke-width="0.5" stroke-miterlimit="10" width="42.998" height="13.66"/>
	<polygon id="r354" fill="#959595" stroke="#231F20" stroke-width="0.5" stroke-miterlimit="10" points="515.857,574.891 
		513.244,571.445 472.978,571.445 472.978,599.596 515.857,599.596 	"/>
	
		<rect id="r358" x="472.978" y="613.256" fill="#959595" stroke="#231F20" stroke-width="0.5" stroke-miterlimit="10" width="18.768" height="41.811"/>
	<polygon id="r359" fill="#959595" stroke="#231F20" stroke-width="0.5" stroke-miterlimit="10" points="491.745,613.256 
		491.745,655.066 513.244,655.066 515.857,652.453 515.857,613.256 	"/>
	<polygon id="r347" fill="#959595" stroke="#231F20" stroke-width="0.5" stroke-miterlimit="10" points="328.898,553.153 
		351.586,520.37 317.259,496.733 312.982,496.733 264.758,565.625 265.946,570.377 275.092,576.791 304.074,535.812 	"/>
	<polygon id="r349" fill="#959595" stroke="#231F20" stroke-width="0.5" stroke-miterlimit="10" points="304.074,535.812 
		275.092,576.791 300.392,594.488 328.898,553.153 	"/>
	<polygon id="r348" fill="#959595" stroke="#231F20" stroke-width="0.5" stroke-miterlimit="10" points="391.733,548.165 
		351.586,520.37 328.898,553.153 370.709,582.492 391.733,552.44 	"/>
	<polygon id="r350" fill="#959595" stroke="#231F20" stroke-width="0.5" stroke-miterlimit="10" points="300.392,594.488 
		339.708,622.045 343.746,621.333 370.709,582.492 328.898,553.153 	"/>
	
		<rect id="k301" x="257.006" y="584.71" transform="matrix(-0.5 0.866 -0.866 -0.5 904.4414 664.9697)" fill="#959595" stroke="#231F20" stroke-width="0.5" stroke-miterlimit="10" width="6.533" height="17.698"/>
	<path id="k310" fill="#959595" stroke="#231F20" stroke-width="0.5" stroke-miterlimit="10" d="M703.172,577.146
		c4.988,0,9.146,3.089,10.927,7.483l3.92-2.851c0,0-3.682-9.384-15.085-9.384c-10.452,0-15.085,8.79-15.085,8.79l4.514,3.207
		C694.025,580.116,698.302,577.146,703.172,577.146z"/>
	<polygon id="r310" fill="#959595" stroke="#231F20" stroke-width="0.5" stroke-miterlimit="10" points="129.588,607.198 
		173.298,638.08 191.353,612.068 147.761,581.186 	"/>
	<polygon id="r313" fill="#959595" stroke="#231F20" stroke-width="0.5" stroke-miterlimit="10" points="98.23,696.758 
		77.207,682.267 50.125,721.107 53.688,724.314 113.078,724.314 137.309,689.631 114.384,673.596 	"/>
	<path id="r309" fill="#959595" stroke="#231F20" stroke-width="0.5" stroke-miterlimit="10" d="M147.761,581.186l43.71,30.883
		l10.571-15.085c0.475-4.396,1.069-8.671,1.782-13.066l-38.722-27.438L147.761,581.186z"/>
	<polygon id="r312" fill="#959595" stroke="#231F20" stroke-width="0.5" stroke-miterlimit="10" points="103.932,643.9 
		77.207,682.267 98.23,696.758 114.384,673.596 137.309,689.631 144.792,678.94 142.772,670.507 	"/>
	<polygon id="r311" fill="#959595" stroke="#231F20" stroke-width="0.5" stroke-miterlimit="10" points="111.177,633.567 
		149.899,661.361 157.857,660.174 173.298,638.08 129.588,607.198 	"/>
	<path id="r305" fill="#959595" stroke="#231F20" stroke-width="0.5" stroke-miterlimit="10" d="M311.438,422.972l-34.921-24.706
		c0,0-20.905,12.709-44.542,37.416l37.297,26.368C291.84,437.226,311.438,422.972,311.438,422.972z"/>
	<polygon id="k303" fill="#959595" stroke="#231F20" stroke-width="0.5" stroke-miterlimit="10" points="250.98,685.711 
		250.98,696.758 280.2,696.758 280.556,685.711 	"/>
	<path id="r306" fill="#959595" stroke="#231F20" stroke-width="0.5" stroke-miterlimit="10" d="M208.813,463.356
		c-5.227,7.246-9.978,14.61-14.253,21.975l37.296,26.368c11.521-19.242,24.944-35.989,37.416-49.53L231.975,435.8
		C224.255,443.64,216.415,452.904,208.813,463.356z"/>
	<polygon id="k302" fill="#959595" stroke="#231F20" stroke-width="0.5" stroke-miterlimit="10" points="176.149,675.614 
		170.329,684.998 189.215,696.758 229.837,696.758 229.837,685.711 190.284,685.711 	"/>
	<path id="r307" fill="#959595" stroke="#231F20" stroke-width="0.5" stroke-miterlimit="10" d="M180.9,512.175l36.94,26.132
		c4.157-9.384,8.908-18.292,13.897-26.726l-37.296-26.369C189.215,494.596,184.701,503.741,180.9,512.175z"/>
	<path id="r308" fill="#959595" stroke="#231F20" stroke-width="0.5" stroke-miterlimit="10" d="M170.329,539.138l37.534,26.606
		c2.732-9.502,6.058-18.648,9.978-27.319l-36.94-26.131C176.387,522.39,172.823,531.773,170.329,539.138z"/>
	<polygon id="k307" fill="#959595" stroke="#231F20" stroke-width="0.5" stroke-miterlimit="10" points="667.895,671.22 
		667.895,668.963 682.267,669.319 682.267,678.94 679.297,678.94 679.297,674.427 677.277,671.22 	"/>
	<polygon id="k308" fill="#959595" stroke="#231F20" stroke-width="0.5" stroke-miterlimit="10" points="682.267,679.297 
		682.267,689.631 678.109,693.312 663.381,693.312 663.381,691.056 676.327,691.056 679.297,688.799 679.297,678.94 682.267,678.94 
			"/>
</g>
<g id="signs">
	
		<rect id="parking" x="857.347" y="489.488" opacity="0.8" fill="#231F20" enable-background="new    " width="17.579" height="17.579"/>
	<g id="entrance">
		
			<rect id="entrance05" x="777.765" y="410.619" opacity="0.8" fill="#231F20" enable-background="new    " width="17.579" height="17.58"/>
		
			<rect id="entrance04" x="777.765" y="480.698" opacity="0.8" fill="#231F20" enable-background="new    " width="17.579" height="17.579"/>
		
			<rect id="entrance03" x="777.765" y="558.38" opacity="0.8" fill="#231F20" enable-background="new    " width="17.579" height="17.579"/>
		
			<rect id="entrance02" x="777.765" y="673.952" opacity="0.8" fill="#231F20" enable-background="new    " width="17.579" height="17.579"/>
		
			<rect id="entrance01" x="88.134" y="628.578" opacity="0.8" fill="#231F20" enable-background="new    " width="17.58" height="17.579"/>
	</g>
	<g id="escalator">
		
			<rect id="escalator11" x="178.881" y="637.368" opacity="0.8" fill="#231F20" enable-background="new    " width="17.579" height="17.579"/>
		
			<rect id="escalator10" x="293.978" y="655.422" opacity="0.8" fill="#231F20" enable-background="new    " width="17.58" height="17.58"/>
		
			<rect id="escalator09" x="291.483" y="464.9" opacity="0.8" fill="#231F20" enable-background="new    " width="17.579" height="17.58"/>
		
			<rect id="escalator08" x="411.807" y="412.282" opacity="0.8" fill="#231F20" enable-background="new    " width="17.579" height="17.58"/>
		
			<rect id="escalator07" x="411.807" y="350.636" opacity="0.8" fill="#231F20" enable-background="new    " width="17.579" height="17.579"/>
		
			<rect id="escalator06" x="614.8" y="385.082" opacity="0.8" fill="#231F20" enable-background="new    " width="17.579" height="17.579"/>
		
			<rect id="escalator05" x="656.254" y="383.894" opacity="0.8" fill="#231F20" enable-background="new    " width="17.579" height="17.579"/>
		
			<rect id="escalator04" x="537" y="556.36" opacity="0.8" fill="#231F20" enable-background="new    " width="17.579" height="17.579"/>
		
			<rect id="escalator03" x="537.475" y="673.952" opacity="0.8" fill="#231F20" enable-background="new    " width="17.579" height="17.579"/>
		
			<rect id="escalator02" x="693.669" y="606.485" opacity="0.8" fill="#231F20" enable-background="new    " width="17.579" height="17.579"/>
		
			<rect id="escalator01" x="278.976" y="660.1" transform="matrix(-0.5874 0.8093 -0.8093 -0.5874 1018.4558 807.4904)" fill="#959595" stroke="#231F20" stroke-width="0.5" stroke-miterlimit="10" width="48.818" height="6.533"/>
	</g>
	<polygon id="toilet" fill="#959595" stroke="#231F20" stroke-width="0.5" stroke-miterlimit="10" points="737.38,727.046 
		737.736,727.521 737.736,746.288 764.699,746.288 764.699,727.046 	"/>
</g>
</svg>
