<?xml version="1.0" encoding="utf-8"?>
<!-- Generator: Adobe Illustrator 19.2.0, SVG Export Plug-In . SVG Version: 6.00 Build 0)  -->
<svg version="1.1" id="Layer_1" xmlns="http://www.w3.org/2000/svg" xmlns:xlink="http://www.w3.org/1999/xlink" x="0px" y="0px"
	 viewBox="0 0 841.9 595.3" style="enable-background:new 0 0 841.9 595.3;" xml:space="preserve">
<style type="text/css">
	.st0{display:none;}
	.st1{fill:#BFBFBF;stroke:#231F20;stroke-width:0.5;stroke-miterlimit:10;}
	.st2{fill:#959595;stroke:#231F20;stroke-width:0.5;stroke-miterlimit:10;}
	.st3{opacity:0.8;fill:#231F20;enable-background:new    ;}
</style>
<g id="Original">
</g>
<g id="Background" class="st0">
</g>
<g id="ETC">
	<path class="st1" d="M755.8,80.9v426.7H23.2l15.4-22.1c0,0-1.2-10-11.2-13.6l71.4-103l-2.5-2.2l45-63.6l2.4,1.4L292.3,92.7
		c0,0,9.2-5.9,25-4.9l4.7-6.8L755.8,80.9L755.8,80.9z"/>
	<rect x="525" y="189.8" class="st1" width="40" height="41.5"/>
	<circle class="st1" cx="459.5" cy="450.6" r="14.6"/>
	<circle class="st1" cx="459.5" cy="351.4" r="14.6"/>
	<path class="st1" d="M148.3,445.5l11.8,8.5h76l29.3-40.8c0,0,3-3.5,1.5-6.2s-7.7,0.3-15,0s-14,1.2-21.7-11.2
		c-7.7-12.3-9.3-14.8-17.8-17.5s-15.7-4.3-25,8.3c-9.3,12.7-18.5,26.8-18.5,26.8l-1.8-1.5l-14.9,22.5l1.9,1.2L148.3,445.5z"/>
	<path class="st1" d="M360.4,440.2c-16.9,0-32.1,1-43.4,2.6l-1.6,13.2c11.4,1.7,27.4,2.8,45,2.8c8.3,0,16.1-0.2,23.3-0.7l-2.6-17.4
		C374.6,440.4,367.6,440.2,360.4,440.2z"/>
	<path class="st1" d="M423.2,449.5c0-3.7-14.4-6.8-35.3-8.3l2.5,16.5C410,456,423.2,453,423.2,449.5z"/>
	<polygon class="st1" points="493.8,444.5 493.8,455.6 495.8,458.5 569.4,458.5 571.9,456.6 571.9,444.5 570.2,441.8 496.5,441.8 	
		"/>
	<path class="st1" d="M582.1,422.1c0,5.4,4.4,9.9,9.9,9.9c3.7,0,6.9-2.1,8.6-5.1l-18.5-32.2V422.1z"/>
	<path class="st1" d="M601.9,372.5c0-5.4-4.4-9.9-9.9-9.9c-4.4,0-8.1,2.9-9.4,6.9l19.3,33.5V372.5z"/>
	<path class="st1" d="M220.6,298.6c-19.3,26.6-30.9,51-26,54.6s24.6-15,43.9-41.6c4.3-5.9,8.2-11.7,11.6-17.1l-16.4-12.7
		C229.4,286.8,225,292.5,220.6,298.6z"/>
	<path class="st1" d="M264.5,257c-3.4-2.5-14,5.7-26.6,19.9l15.6,12.1C263.3,272.3,268,259.5,264.5,257z"/>
	<rect x="444.9" y="384" class="st1" width="27.7" height="39.1"/>
	<polygon class="st1" points="641,146.5 641,115.2 618.5,115.2 618.5,133 618.5,146.5 	"/>
	<polygon class="st1" points="470.5,117.2 454.9,117.2 440.2,133 470.5,133 	"/>
	<rect x="297.5" y="440.2" class="st1" width="10.3" height="9.2"/>
	
		<rect x="247.1" y="400.1" transform="matrix(0.9947 -0.1026 0.1026 0.9947 -39.9884 28.2451)" class="st1" width="14.9" height="5.5"/>
	<path class="st1" d="M441.4,380.8v46.4h35.4v-46.4H441.4z M472.6,423.1h-27.7V384h27.7V423.1z"/>
	<path class="st1" d="M472.8,357.4c-2.3,5.1-7.4,8.6-13.3,8.6c-5.9,0-11-3.5-13.3-8.6h-4.8v18h34.4v-18H472.8z"/>
	<path class="st1" d="M441.8,327.1v19.7h3.9c2-5.8,7.4-9.9,13.8-9.9s11.8,4.1,13.8,9.9h3.5v-19.7H441.8z"/>
	<rect x="61.7" y="488.8" class="st1" width="25.2" height="16.2"/>
	<polygon class="st1" points="618.9,298.4 618.9,308.2 618.9,346.8 645.5,346.8 645.5,299.8 645.1,298.4 	"/>
	<polygon class="st1" points="433.9,117.2 433.9,102.5 403.7,102.5 403.7,107.2 403.7,125 432.1,141.2 440.2,133 454.9,117.2 	"/>
</g>
<g id="Rooms">
	<path id="r304" class="st2" d="M432.2,303.7l-0.1-77.4h-25.2v-44.6l-3.2-4.2v-70.1c0,0-19.9-8.8-46.9-3.2s-39.2,18.8-39.2,18.8
		l2.4,2.5c0,0-17.5,15.2-21.1,26.6l3.1,3.9l-22.1,0.1l-31.5,44.6l4.5,18.8l41.5,28.8l79.9,55.7H432.2z"/>
	<polygon id="r346" class="st2" points="294.2,248 275.2,275.8 276,280.2 295.4,293.6 317,263.8 	"/>
	<polygon id="r345" class="st2" points="317,263.8 295.4,293.6 352.3,332.9 373.7,303.3 	"/>
	<polygon id="r344" class="st2" points="374.2,303.7 373.7,303.3 352.3,332.9 363.2,340.5 398.2,340.5 398.2,303.7 	"/>
	<polygon id="r343" class="st2" points="432.2,303.7 398.2,303.7 398.2,340.5 429,340.5 432.2,337.2 432.2,312.9 	"/>
	<rect id="r337" x="521" y="308.2" class="st2" width="12.5" height="35.6"/>
	<polygon id="r338" class="st2" points="483.5,308.2 483.5,312.5 483.5,340.5 486.2,343.8 521,343.8 521,308.2 	"/>
	<polygon id="r335" class="st2" points="550.2,308.2 550.2,343.8 570.5,343.8 572.2,340.5 572.2,308.2 	"/>
	<rect id="r336" x="533.5" y="308.2" class="st2" width="16.8" height="35.6"/>
	<polygon id="r334" class="st2" points="593.2,308.2 593.2,343.8 596.2,346.8 618.9,346.8 618.9,308.2 	"/>
	<path id="r302" class="st2" d="M432.1,231.2l0.1,81.6v-0.6c0,0,8.8,5.5,26,5.5s25.2-5.2,25.2-5.2v-4.3h88.7v32.3l-1.6,3.2h22.7
		v-35.6h25.6v-18.3h17l5.1-7.6v-51H432.1z"/>
	<polygon id="r301" class="st2" points="618.5,146.5 618.5,133 470.5,133 440.2,133 432.1,141.2 432.1,226.2 432.1,231.2 525,231.2 
		525,189.8 565,189.8 565,231.2 641,231.2 641,146.5 	"/>
	<polygon id="r303" class="st2" points="403.7,177.4 406.9,181.6 406.9,226.2 432.1,226.2 432.1,141.2 403.7,125 	"/>
	<rect id="k305" x="285" y="451.5" class="st2" width="22.8" height="9"/>
	<rect id="k304" x="285" y="440.2" class="st2" width="9.2" height="9.2"/>
	<polygon id="r339" class="st2" points="521,392.5 521,357.8 486.8,357.8 484.2,360.9 484.3,423.7 486.6,426 533.9,426 534.1,392.5 
			"/>
	<polygon id="r342" class="st2" points="534.1,392.5 533.9,426 572.2,426 574.4,423.5 574.4,392.5 	"/>
	<polygon id="r341" class="st2" points="574.4,360.9 572.2,357.8 545.5,357.8 545.5,392.5 574.4,392.5 	"/>
	<rect id="r340" x="521" y="357.8" class="st2" width="24.5" height="34.8"/>
	<rect id="r318" x="312.8" y="472.8" class="st2" width="58.5" height="32.2"/>
	<rect id="r319" x="371.2" y="472.8" class="st2" width="27.2" height="32.2"/>
	<rect id="r320" x="398.5" y="472.8" class="st2" width="24.8" height="32.2"/>
	<rect id="r321" x="423.2" y="472.7" class="st2" width="24.8" height="32.2"/>
	<rect id="r322" x="448" y="472.7" class="st2" width="24.8" height="32.2"/>
	<polygon id="r323" class="st2" points="472.8,472.7 496.5,472.8 496.5,505 472.8,504.9 	"/>
	<rect id="r317" x="244.1" y="472.8" class="st2" width="68.6" height="32.2"/>
	<polygon id="r314" class="st2" points="117.2,472.8 104,490.5 104,505 153.1,505 153.1,472.8 	"/>
	<rect id="r316" x="223.6" y="472.8" class="st2" width="20.5" height="32.2"/>
	<rect id="r315" x="153.1" y="472.8" class="st2" width="70.5" height="32.2"/>
	<polygon id="r332" class="st2" points="643.8,402.8 611.2,402.8 611.1,432.9 643.8,432.9 	"/>
	<polygon id="r331" class="st2" points="643.8,432.9 611.1,432.9 611,441 613.5,443.2 643.8,443.2 	"/>
	<polygon id="r333" class="st2" points="643.8,359.2 613.5,359.2 611.5,362.2 611.2,402.8 643.8,402.8 	"/>
	<polygon id="r330" class="st2" points="617.8,460.5 617.8,472.8 617.8,484.2 620.8,488.8 643.8,488.8 643.8,458.5 620.2,458.5 	"/>
	<rect id="r327" x="557.6" y="472.8" class="st2" width="25.1" height="32.2"/>
	<rect id="r328" x="582.8" y="472.8" class="st2" width="11.5" height="32.2"/>
	<polygon id="r329" class="st2" points="618.4,495.1 611.2,482.9 611.2,472.8 594.2,472.8 594.2,505 621.1,505 621.1,495.1 	"/>
	<rect id="r326" x="545.1" y="472.8" class="st2" width="12.5" height="32.2"/>
	<rect id="r234" x="496.5" y="472.8" class="st2" width="36.4" height="32.2"/>
	<rect id="r325" x="532.9" y="472.8" class="st2" width="12.2" height="32.2"/>
	<polygon id="r351" class="st2" points="344,349.2 340.2,349.2 287.7,425 289.6,428.2 349.3,428.2 349.3,352.9 	"/>
	<rect id="r356" x="349.3" y="393" class="st2" width="24.4" height="35.2"/>
	<polygon id="r352" class="st2" points="373.7,357.8 356.3,357.8 349.3,352.9 349.3,393 373.7,393 	"/>
	<rect id="r357" x="373.7" y="393" class="st2" width="24.5" height="35.2"/>
	<rect id="r353" x="373.7" y="357.8" class="st2" width="24.5" height="35.2"/>
	<rect id="r355" x="398.2" y="381.5" class="st2" width="36.2" height="11.5"/>
	<polygon id="r354" class="st2" points="434.3,360.7 432.1,357.8 398.2,357.8 398.2,381.5 434.3,381.5 	"/>
	<rect id="r358" x="398.2" y="393" class="st2" width="15.8" height="35.2"/>
	<polygon id="r359" class="st2" points="414,393 414,428.2 432.1,428.2 434.3,426 434.3,393 	"/>
	<polygon id="r347" class="st2" points="276.9,342.4 296,314.8 267.1,294.9 263.5,294.9 222.9,352.9 223.9,356.9 231.6,362.3 
		256,327.8 	"/>
	<polygon id="r349" class="st2" points="256,327.8 231.6,362.3 252.9,377.2 276.9,342.4 	"/>
	<polygon id="r348" class="st2" points="329.8,338.2 296,314.8 276.9,342.4 312.1,367.1 329.8,341.8 	"/>
	<polygon id="r350" class="st2" points="252.9,377.2 286,400.4 289.4,399.8 312.1,367.1 276.9,342.4 	"/>
	
		<rect id="k301" x="216.4" y="369" transform="matrix(0.5 -0.866 0.866 0.5 -216.4575 377.9761)" class="st2" width="5.5" height="14.9"/>
	<path id="k310" class="st2" d="M592,362.6c4.2,0,7.7,2.6,9.2,6.3l3.3-2.4c0,0-3.1-7.9-12.7-7.9c-8.8,0-12.7,7.4-12.7,7.4l3.8,2.7
		C584.3,365.1,587.9,362.6,592,362.6z"/>
	<polygon id="r310" class="st2" points="109.1,387.9 145.9,413.9 161.1,392 124.4,366 	"/>
	<polygon id="r313" class="st2" points="82.7,463.3 65,451.1 42.2,483.8 45.2,486.5 95.2,486.5 115.6,457.3 96.3,443.8 	"/>
	<path id="r309" class="st2" d="M124.4,366l36.8,26l8.9-12.7c0.4-3.7,0.9-7.3,1.5-11l-32.6-23.1L124.4,366z"/>
	<polygon id="r312" class="st2" points="87.5,418.8 65,451.1 82.7,463.3 96.3,443.8 115.6,457.3 121.9,448.3 120.2,441.2 	"/>
	<polygon id="r311" class="st2" points="93.6,410.1 126.2,433.5 132.9,432.5 145.9,413.9 109.1,387.9 	"/>
	<path id="r305" class="st2" d="M262.2,232.8L232.8,212c0,0-17.6,10.7-37.5,31.5l31.4,22.2C245.7,244.8,262.2,232.8,262.2,232.8z"/>
	<polygon id="k303" class="st2" points="211.3,454 211.3,463.3 235.9,463.3 236.2,454 	"/>
	<path id="r306" class="st2" d="M175.8,266.8c-4.4,6.1-8.4,12.3-12,18.5l31.4,22.2c9.7-16.2,21-30.3,31.5-41.7l-31.4-22.2
		C188.8,250.2,182.2,258,175.8,266.8z"/>
	<polygon id="k302" class="st2" points="148.3,445.5 143.4,453.4 159.3,463.3 193.5,463.3 193.5,454 160.2,454 	"/>
	<path id="r307" class="st2" d="M152.3,307.9l31.1,22c3.5-7.9,7.5-15.4,11.7-22.5l-31.4-22.2C159.3,293.1,155.5,300.8,152.3,307.9z"
		/>
	<path id="r308" class="st2" d="M143.4,330.6l31.6,22.4c2.3-8,5.1-15.7,8.4-23l-31.1-22C148.5,316.5,145.5,324.4,143.4,330.6z"/>
	<polygon id="k307" class="st2" points="562.3,441.8 562.3,439.9 574.4,440.2 574.4,448.3 571.9,448.3 571.9,444.5 570.2,441.8 	"/>
	<polygon id="k308" class="st2" points="574.4,448.6 574.4,457.3 570.9,460.4 558.5,460.4 558.5,458.5 569.4,458.5 571.9,456.6 
		571.9,448.3 574.4,448.3 	"/>
</g>
<g id="Signs">
	<rect id="parking" x="721.8" y="288.8" class="st3" width="14.8" height="14.8"/>
	<g id="entrance">
		<rect id="entrance05" x="654.8" y="222.4" class="st3" width="14.8" height="14.8"/>
		<rect id="entrance04" x="654.8" y="281.4" class="st3" width="14.8" height="14.8"/>
		<rect id="entrance03" x="654.8" y="346.8" class="st3" width="14.8" height="14.8"/>
		<rect id="entrance02" x="654.8" y="444.1" class="st3" width="14.8" height="14.8"/>
		<rect id="entrance01" x="74.2" y="405.9" class="st3" width="14.8" height="14.8"/>
	</g>
	<g id="escalator">
		<rect id="escalator11" x="150.6" y="413.3" class="st3" width="14.8" height="14.8"/>
		<rect id="escalator10" x="247.5" y="428.5" class="st3" width="14.8" height="14.8"/>
		<rect id="escalator09" x="245.4" y="268.1" class="st3" width="14.8" height="14.8"/>
		<rect id="escalator08" x="346.7" y="223.8" class="st3" width="14.8" height="14.8"/>
		<rect id="escalator07" x="346.7" y="171.9" class="st3" width="14.8" height="14.8"/>
		<rect id="escalator06" x="517.6" y="200.9" class="st3" width="14.8" height="14.8"/>
		<rect id="escalator05" x="552.5" y="199.9" class="st3" width="14.8" height="14.8"/>
		<rect id="escalator04" x="452.1" y="345.1" class="st3" width="14.8" height="14.8"/>
		<rect id="escalator03" x="452.5" y="444.1" class="st3" width="14.8" height="14.8"/>
		<rect id="escalator02" x="584" y="387.3" class="st3" width="14.8" height="14.8"/>
		
			<rect id="escalator01" x="234.9" y="432.4" transform="matrix(0.5874 -0.8093 0.8093 0.5874 -246.7984 386.3167)" class="st2" width="41.1" height="5.5"/>
	</g>
	<polygon id="toilet" class="st2" points="620.8,488.8 621.1,489.2 621.1,505 643.8,505 643.8,488.8 	"/>
</g>
</svg>
