<?xml version="1.0" encoding="utf-8"?>
<!-- Generator: Adobe Illustrator 16.0.0, SVG Export Plug-In . SVG Version: 6.00 Build 0)  -->
<!DOCTYPE svg PUBLIC "-//W3C//DTD SVG 1.1//EN" "http://www.w3.org/Graphics/SVG/1.1/DTD/svg11.dtd">
<svg version="1.1" id="Layer_1" xmlns="http://www.w3.org/2000/svg" xmlns:xlink="http://www.w3.org/1999/xlink" x="0px" y="0px"
	 width="1000px" height="663px" viewBox="0 0 1000 663" enable-background="new 0 0 1000 663" xml:space="preserve">
<g id="Original">
</g>
<g id="Background" display="none">
</g>
<g id="ETC">
	<path fill="#BFBFBF" stroke="#231F20" stroke-width="0.5" stroke-miterlimit="10" d="M951.878,90.155v475.243H57.058l17.128-24.604
		c0,0-1.312-11.095-12.525-15.15l79.568-114.761l-2.744-2.505l50.104-70.86l2.624,1.55l165.46-235.843
		c0,0,10.273-6.562,27.862-5.488l5.183-7.582H951.878L951.878,90.155z"/>
	<path fill="#BFBFBF" stroke="#231F20" stroke-width="0.5" stroke-miterlimit="10" d="M691.142,452.257L691.142,452.257
		c-5.818,0-10.581-4.763-10.581-10.581v-22.137c0-5.818,4.763-10.58,10.581-10.58l0,0c5.819,0,10.581,4.762,10.581,10.58v22.137
		C701.723,447.494,696.96,452.257,691.142,452.257z"/>
	<circle fill="#BFBFBF" stroke="#231F20" stroke-width="0.5" stroke-miterlimit="10" cx="376.573" cy="425.039" r="19.073"/>
	<path fill="#BFBFBF" stroke="#231F20" stroke-width="0.5" stroke-miterlimit="10" d="M710.005,341.366v32.979
		c11.088,0.173,20.466-0.214,20.466-0.214v-32.767L710.005,341.366L710.005,341.366z"/>
	<path fill="#BFBFBF" stroke="#231F20" stroke-width="0.5" stroke-miterlimit="10" d="M647.773,422.882
		c-0.836,3.896,2.158,8.908,2.158,8.908c2.326,2.782,5.46,5.854,8.284,7.781v-18.641C651.946,418.852,648.6,419.028,647.773,422.882
		z"/>
	<path fill="#BFBFBF" stroke="#231F20" stroke-width="0.5" stroke-miterlimit="10" d="M666.778,435.063
		c-0.906-7.866-1.932-11.903-8.346-14.063c-0.073-0.024-0.144-0.045-0.219-0.068v18.641c1.063,0.726,2.081,1.293,2.994,1.617
		C664.551,442.371,667.683,442.929,666.778,435.063z"/>
	<polygon fill="#BFBFBF" stroke="#231F20" stroke-width="0.5" stroke-miterlimit="10" points="710.005,341.366 678.331,341.366 
		664.619,362.668 710.005,362.668 	"/>
	<polygon fill="#BFBFBF" stroke="#231F20" stroke-width="0.5" stroke-miterlimit="10" points="358.984,548.528 358.984,518.872 
		340.236,518.872 340.236,533.073 340.236,548.528 	"/>
	<path fill="#BFBFBF" stroke="#231F20" stroke-width="0.5" stroke-miterlimit="10" d="M796.5,352.018h155.378v213.38H726.92v-89.543
		c0,0,23.915-8.214,48.581-52.52C796.049,386.427,796.5,352.018,796.5,352.018z"/>
	<polygon fill="#BFBFBF" stroke="#231F20" stroke-width="0.5" stroke-miterlimit="10" points="524.355,440.073 470.148,440.073 
		470.148,462.072 514.54,462.072 	"/>
	
		<rect x="447.993" y="440.073" fill="#BFBFBF" stroke="#231F20" stroke-width="0.5" stroke-miterlimit="10" width="22.155" height="21.997"/>
</g>
<g id="Rooms">
	<path id="r410" fill="#959595" stroke="#231F20" stroke-width="0.5" stroke-miterlimit="10" d="M680.561,432.587v-4.207v-8.841
		c0-3.077,1.342-5.853,3.457-7.791c-4.04,0.246-10.539,2.828-11.373,16.632c-0.006,0.095-0.015,0.183-0.02,0.277
		c-0.732,13.505,4.855,16.593,8.77,17.123c-0.535-1.264-0.834-2.65-0.834-4.105V432.587z"/>
	<path id="r411" fill="#959595" stroke="#231F20" stroke-width="0.5" stroke-miterlimit="10" d="M664.619,362.668
		c0,0,2.367,15.731,17.96,20.325c7.19,2.119,17.935,2.875,27.426,3.074v-23.399H664.619z"/>
	
		<rect x="721.282" y="436.316" fill="#959595" stroke="#231F20" stroke-width="0.5" stroke-miterlimit="10" width="11.275" height="11.277"/>
	<path fill="#959595" d="M386.814,94.406L386.814,94.406l-2.347,3.329c0.024,0.001,0.045,0.001,0.07,0.002L386.814,94.406z"/>
	<path id="r402" fill="#959595" stroke="#231F20" stroke-width="0.5" stroke-miterlimit="10" d="M386.814,94.406l-2.276,3.331
		c-0.025-0.001-0.047-0.001-0.07-0.002l-98.619,139.868c0,0-38.644,21.66-66.155,60.874c-27.512,39.215-37.054,87.627-37.054,87.627
		l-50.914,72.621l21.956,17.13l15.592-18.099h159.66c7.396-84.158,112.84-96.342,112.84-96.342v-81.117H553.15V94.406H386.814z"/>
	<path id="r406" fill="#959595" stroke="#231F20" stroke-width="0.5" stroke-miterlimit="10" d="M340.236,533.073v-14.2h18.748
		v-54.435h-30.442c0.057-2.281,0.2-4.5,0.392-6.683h-159.66l-15.592,18.099l-21.956-17.131l-57.538,82.068l-17.129,24.604h245.728
		v-32.324L340.236,533.073L340.236,533.073z"/>
	
		<rect id="r413" x="812.657" y="138.483" fill="#959595" stroke="#231F20" stroke-width="0.5" stroke-miterlimit="10" width="95.041" height="192.725"/>
	<path id="r409" fill="#959595" stroke="#231F20" stroke-width="0.5" stroke-miterlimit="10" d="M652.925,468.336l16.843-0.143
		c0.104-7.897-8.209-14.715-12.295-18.979c-4.27-4.454-11.138-9.837-18.377-10.396c-7.239-0.557-10.023,3.155-14.665,8.91
		c-2.143,2.656-4.441,6.618-6.299,10.114L652.925,468.336z"/>
	<path id="r405" fill="#959595" stroke="#231F20" stroke-width="0.5" stroke-miterlimit="10" d="M441.774,361.414v76.571H605.59
		l51.389-80.965C563.205,332.581,441.774,361.414,441.774,361.414z"/>
	<g id="r404">
		<path fill="#959595" stroke="#231F20" stroke-width="0.5" stroke-miterlimit="10" d="M638.354,309.812H528.001
			c-0.125,4.044-0.277,8.373-0.467,12.994c-0.676,16.504-13.646,24.625-25.941,28.621c43.533-5.156,103.662-7.886,155.386,5.595
			l14.7-23.161C649.742,329.295,638.354,309.812,638.354,309.812z"/>
		<path fill="#959595" stroke="#231F20" stroke-width="0.5" stroke-miterlimit="10" d="M553.15,285.68v-5.383H528.51
			c-0.006,6.327-0.104,16.361-0.51,29.515h45.012V285.68H553.15z"/>
		<path fill="#959595" stroke="#231F20" stroke-width="0.5" stroke-miterlimit="10" d="M687.359,285.68h-74.065v24.132h25.06
			c0,0,11.39,19.483,33.325,24.049l23.714-37.362C692.206,293.695,689.342,290.152,687.359,285.68z"/>
		
			<rect x="573.013" y="285.68" fill="#959595" stroke="#231F20" stroke-width="0.5" stroke-miterlimit="10" width="40.281" height="24.132"/>
	</g>
	
		<rect id="r412" x="710.005" y="374.347" fill="#959595" stroke="#231F20" stroke-width="0.5" stroke-miterlimit="10" width="20.466" height="11.722"/>
	<g id="r403-407">
		<path id="r403" fill="#959595" stroke="#231F20" stroke-width="0.5" stroke-miterlimit="10" d="M527.534,322.805
			c0.805-19.647,0.968-34.236,0.977-42.509h-86.735v81.118c0,0,24.427-5.797,59.817-9.988
			C513.89,347.43,526.858,339.308,527.534,322.805z"/>
		<polygon id="r407" fill="#959595" stroke="#231F20" stroke-width="0.5" stroke-miterlimit="10" points="402.746,468.198 
			393.14,457.756 379.775,457.756 379.775,507.038 366.967,518.872 362.512,518.872 362.512,565.398 436,565.397 436,468.336 		"/>
	</g>
	<g id="r401-408">
		<path id="r401" fill="#959595" stroke="#231F20" stroke-width="0.5" stroke-miterlimit="10" d="M553.15,94.406v185.893v5.383
			h134.209c7.981,18.006,30.258,20.976,30.258,20.976v-14.479h90.956V94.406H553.15z"/>
		<polygon id="r408" fill="#959595" stroke="#231F20" stroke-width="0.5" stroke-miterlimit="10" points="686.198,565.398 
			686.198,468.058 652.925,468.336 597.516,451.63 578.303,493.257 587.909,498.965 578.442,514.697 578.442,525.834 
			516.35,525.834 516.35,468.198 436,468.198 436,565.397 		"/>
	</g>
	
		<rect id="dp12" x="858.178" y="352.018" fill="#959595" stroke="#231F20" stroke-width="0.5" stroke-miterlimit="10" width="42.989" height="30.482"/>
	
		<rect id="dp11" x="917.167" y="352.018" fill="#959595" stroke="#231F20" stroke-width="0.5" stroke-miterlimit="10" width="34.711" height="22.852"/>
	
		<rect id="dp10" x="917.167" y="374.868" fill="#959595" stroke="#231F20" stroke-width="0.5" stroke-miterlimit="10" width="34.711" height="22.851"/>
	
		<rect id="dp09" x="917.167" y="397.39" fill="#959595" stroke="#231F20" stroke-width="0.5" stroke-miterlimit="10" width="34.711" height="22.852"/>
	
		<rect id="dp08" x="917.167" y="420.24" fill="#959595" stroke="#231F20" stroke-width="0.5" stroke-miterlimit="10" width="34.711" height="22.851"/>
	
		<rect id="dp07" x="917.167" y="443.091" fill="#959595" stroke="#231F20" stroke-width="0.5" stroke-miterlimit="10" width="34.711" height="63.491"/>
	<polygon id="dp06" fill="#959595" stroke="#231F20" stroke-width="0.5" stroke-miterlimit="10" points="917.167,506.582 
		917.167,523.956 881.834,523.956 881.834,565.398 951.878,565.398 951.878,506.582 	"/>
	<polygon id="dp04" fill="#959595" stroke="#231F20" stroke-width="0.5" stroke-miterlimit="10" points="772.167,523.956 
		822.501,523.956 822.501,565.398 726.92,565.398 	"/>
	<path id="dp03" fill="#959595" stroke="#231F20" stroke-width="0.5" stroke-miterlimit="10" d="M772.167,523.956l-45.247,41.44
		l-0.125-90.561c0,0,7.205-2.088,29.87-26.158l43.668,26.158c0,0-11.833,14.496-28.092,24.911L772.167,523.956z"/>
	<path id="dp02" fill="#959595" stroke="#231F20" stroke-width="0.5" stroke-miterlimit="10" d="M784.893,401.306
		c0,0-9.563,25.552-28.228,47.373l43.668,26.158c0,0,16.834-17.008,31.713-55.394L784.893,401.306z"/>
	<path id="dp03" fill="#959595" stroke="#231F20" stroke-width="0.5" stroke-miterlimit="10" d="M796.375,352.018h47.5
		c0,0,0.063,33.713-11.829,67.427l-47.153-18.139C784.893,401.306,791,390,796.375,352.018z"/>
	
		<rect id="dp13" x="853.532" y="397.498" fill="#959595" stroke="#231F20" stroke-width="0.5" stroke-miterlimit="10" width="52.28" height="22.5"/>
	
		<ellipse id="dp18" fill="#959595" stroke="#231F20" stroke-width="0.5" stroke-miterlimit="10" cx="901.167" cy="473.694" rx="8.702" ry="22.062"/>
	<path id="dp14" fill="#959595" stroke="#231F20" stroke-width="0.5" stroke-miterlimit="10" d="M839.624,426.926
		c0,0-13.119,37.146-34.051,59.812l12.561,7.771c0,0,17.304-16.351,33.491-63.028L839.624,426.926z"/>
	<path id="dp15" fill="#959595" stroke="#231F20" stroke-width="0.5" stroke-miterlimit="10" d="M851.625,431.479
		c0,0-12.832,40.222-33.765,62.885l11.605,7.182c0,0,18.949-21.12,33.568-65.053L851.625,431.479z"/>
	<path id="dp16" fill="#959595" stroke="#231F20" stroke-width="0.5" stroke-miterlimit="10" d="M859.178,510
		c0,0,5.212-51.646,13.185-63.407V510H859.178z"/>
	<path id="dp17" fill="#959595" stroke="#231F20" stroke-width="0.5" stroke-miterlimit="10" d="M885.544,510
		c0,0-5.211-51.646-13.183-63.407V510H885.544z"/>
	
		<rect id="dp05" x="822.501" y="523.956" fill="#959595" stroke="#231F20" stroke-width="0.5" stroke-miterlimit="10" width="59.333" height="41.44"/>
</g>
<g id="Signs">
	<g id="escalator">
		
			<rect id="escalator-4" x="658.321" y="216.175" opacity="0.8" fill="#231F20" enable-background="new    " width="16.495" height="16.496"/>
		
			<rect id="escalator-3" x="685.608" y="423.335" opacity="0.8" fill="#231F20" enable-background="new    " width="16.494" height="16.495"/>
		
			<rect id="escalator-2" x="534.137" y="497.956" opacity="0.8" fill="#231F20" enable-background="new    " width="16.495" height="16.496"/>
		
			<rect id="escalator-1" x="368.743" y="417.766" opacity="0.8" fill="#231F20" enable-background="new    " width="16.495" height="16.496"/>
	</g>
	
		<rect id="atm" x="730.471" y="349.631" opacity="0.8" fill="#231F20" enable-background="new    " width="16.495" height="16.496"/>
</g>
</svg>
