<?xml version="1.0" encoding="utf-8"?>
<!-- Generator: Adobe Illustrator 16.0.0, SVG Export Plug-In . SVG Version: 6.00 Build 0)  -->
<!DOCTYPE svg PUBLIC "-//W3C//DTD SVG 1.1//EN" "http://www.w3.org/Graphics/SVG/1.1/DTD/svg11.dtd">
<svg version="1.1" id="Layer_1" xmlns="http://www.w3.org/2000/svg" xmlns:xlink="http://www.w3.org/1999/xlink" x="0px" y="0px"
	 width="841.89px" height="595.281px" viewBox="0 0 841.89 595.281" enable-background="new 0 0 841.89 595.281"
	 xml:space="preserve">
<g id="background">
	<rect fill="#FFFFFF" stroke="#494949" stroke-width="0.66" stroke-miterlimit="10" width="841.89" height="595.281"/>
</g>
<g id="etc">
	<path fill="#BFBFBF" stroke="#494949" stroke-width="0.66" stroke-miterlimit="10" d="M767.57,186.306
		c12.76,0,8.688-13.088,8.688-13.088s-13.748-46.861-15.949-55.33c-2.199-8.469-8.029-9.02-8.029-9.02H613.13l-433.4-0.936
		c-37.42,0-94.082,0-105.27,0c-16.996,0-15.512,16.666-15.512,16.666s0,77.053,0,110.549c0,6.205,0,10.916,0,13.365v16.664
		l1.101,235.511L78.5,522.908h383.929V383h-24.596V266.993H613.13v18.096h158.84c0,0-0.221-56.322-0.221-67.871
		c0-11.551-8.359-11.221-8.359-11.221h-13.42v-19.58C749.97,186.417,754.808,186.306,767.57,186.306z"/>
	<circle fill="#BFBFBF" stroke="#494949" stroke-width="0.66" stroke-miterlimit="10" cx="343.621" cy="325.448" r="26.069"/>
	<polygon fill="#BFBFBF" stroke="#494949" stroke-width="0.66" stroke-miterlimit="10" points="264.87,203.247 268.6,207.866 
		285.879,208.058 285.879,177.177 264.87,177.177 	"/>
	
		<rect x="600.15" y="108.868" fill="#BFBFBF" stroke="#494949" stroke-width="0.66" stroke-miterlimit="10" width="12.979" height="32.889"/>
	<path fill="#BFBFBF" stroke="#494949" stroke-width="0.66" stroke-miterlimit="10" d="M202.829,152.647h3.083
		c6.658-5.436,15.637-8.773,25.521-8.773c0.645,0,1.285,0.014,1.921,0.041v-35.047h-27.006h-3.52h-3.631v24.475h3.631
		L202.829,152.647L202.829,152.647z"/>
	<path fill="#BFBFBF" stroke="#494949" stroke-width="0.66" stroke-miterlimit="10" d="M243.072,172.515
		c0-7.938-6.436-14.374-14.374-14.374c-4.195,0-7.958,1.808-10.586,4.674v9.993h24.945
		C243.059,172.709,243.072,172.614,243.072,172.515z"/>
	
		<rect x="282.526" y="234.146" fill="#BFBFBF" stroke="#494949" stroke-width="0.66" stroke-miterlimit="10" width="9.919" height="18.204"/>
	<path fill="#BFBFBF" stroke="#494949" stroke-width="0.66" stroke-miterlimit="10" d="M494,171.98c0,0-27.5-8.361-39.381,0.19
		c-17.188,12.371-14.299,27.172-14.299,27.172h65.958v-27.489L494,171.98z"/>
	<path fill="#BFBFBF" stroke="#494949" stroke-width="0.66" stroke-miterlimit="10" d="M560.285,170.472
		c-3.434,0.003-19.285,5.055-22.506,3.132l-11.741-1.728v27.467h17.405l39.065-21.529v-3.901
		C582.508,173.913,576.651,170.457,560.285,170.472z"/>
	<path id="k401" fill="#BFBFBF" stroke="#494949" stroke-width="0.66" stroke-miterlimit="10" d="M522.025,171.764v27.579h4.013
		v-27.579C525.175,171.764,522.025,171.764,522.025,171.764z"/>
	<path fill="#BFBFBF" stroke="#494949" stroke-width="0.66" stroke-miterlimit="10" d="M60.049,289.927v143.881v16.721v50.16
		l17.159,20.02h82.722h12.293c4.918,0,10.416,0,14.685,0c10.065,0,9.487-8.689,9.487-8.689v-49.664h37.291c0,0,0-159.775,0-170.667
		c0-10.889-8.525-11.219-8.525-11.219s-144.431,0-155.1,0C59.391,280.468,60.049,289.927,60.049,289.927z"/>
</g>
<g id="rooms">
	<path id="zen" fill="#939598" stroke="#494949" stroke-width="0.66" stroke-miterlimit="10" d="M771.97,285.089H613.13V108.868
		h139.148c0,0,5.83,0.551,8.029,9.02c2.201,8.469,15.949,55.33,15.949,55.33s4.07,13.088-8.688,13.088
		c-12.762,0-17.602,0.111-17.602,0.111v19.58h13.42c0,0,8.359-0.33,8.359,11.221C771.75,228.767,771.97,285.089,771.97,285.089z"/>
	<path id="isetan" fill="#939598" stroke="#494949" stroke-width="0.66" stroke-miterlimit="10" d="M58.948,124.599
		c0,0,0,108.24,0,123.914c0,15.676,13.2,16.664,13.2,16.664h124.081v-29.369v-97.35h-16.5v-30.525c-37.42,0-94.082,0-105.27,0
		C57.464,107.933,58.948,124.599,58.948,124.599z"/>
	<path id="c510" fill="#939598" stroke="#494949" stroke-width="0.66" stroke-miterlimit="10" d="M358.247,361.184
		c1.364,6.198,2.542,13.313,3.487,21.146h35.795v-38.061h-20.197C373.089,351.854,366.362,357.858,358.247,361.184z"/>
	<polygon id="c508" fill="#939598" stroke="#494949" stroke-width="0.66" stroke-miterlimit="10" points="413.92,432.048 
		413.92,402.128 402.698,390.138 374.099,390.138 374.099,432.048 	"/>
	<g id="c501-c507">
		<path fill="#939598" stroke="#494949" stroke-width="0.66" stroke-miterlimit="10" d="M388.785,228.052h-42.24v-0.001h-40.591
			l-3.3,3.301v35.145l21.646,25.529c5.686-3.295,12.28-5.188,19.323-5.188c0.983,0,1.955,0.047,2.922,0.121v0.001
			c6.677,0.5,12.882,2.695,18.18,6.162l27.854-32.07v-29.533L388.785,228.052z"/>
		<path fill="#939598" stroke="#494949" stroke-width="0.66" stroke-miterlimit="10" d="M290.17,520.708h51.427h6.06h38.874
			l71.5-0.002v-20.678h-17.602v-67.98h-21.78h-4.729h-39.821v-41.91h-11.521c0.777,8.124,0.777,8.124,0.777,8.124l-37.445-0.102
			c0,0,0,0,0.767-8.022h-75.887l-0.222,130.57H290.17z"/>
	</g>
	
		<rect id="a515" x="526.724" y="215.019" fill="#939598" stroke="#494949" stroke-width="0.66" stroke-miterlimit="10" width="16.996" height="51.15"/>
	
		<rect id="a514" x="509.728" y="215.019" fill="#939598" stroke="#494949" stroke-width="0.66" stroke-miterlimit="10" width="16.996" height="51.15"/>
	
		<rect id="a513" x="480.689" y="215.019" fill="#939598" stroke="#494949" stroke-width="0.66" stroke-miterlimit="10" width="29.039" height="51.15"/>
	<polygon id="a516" fill="#939598" stroke="#494949" stroke-width="0.66" stroke-miterlimit="10" points="560.714,215.019 
		543.72,215.019 543.72,266.169 560.714,266.169 560.714,226.789 579.25,226.789 579.25,215.019 	"/>
	<polygon id="a518" fill="#939598" stroke="#494949" stroke-width="0.66" stroke-miterlimit="10" points="595.97,239.438 
		595.97,247.579 590.14,247.579 590.14,265.397 613.13,265.397 613.13,215.019 586.179,215.019 586.179,239.438 590.14,239.438 	"/>
	
		<rect id="a511" x="440.429" y="226.788" fill="#939598" stroke="#494949" stroke-width="0.66" stroke-miterlimit="10" width="16.83" height="39.381"/>
	<polygon id="a512" fill="#939598" stroke="#494949" stroke-width="0.66" stroke-miterlimit="10" points="474.666,226.788 
		440.429,226.788 440.429,222.526 446.535,215.019 474.666,215.019 	"/>
	<polygon id="a510" fill="#939598" stroke="#494949" stroke-width="0.66" stroke-miterlimit="10" points="430.75,199.616 
		422.279,207.866 402.148,207.866 402.148,168.108 430.75,168.108 	"/>
	<polygon id="b510" fill="#939598" stroke="#494949" stroke-width="0.66" stroke-miterlimit="10" points="392.139,208.28 
		315.029,208.28 315.029,172.888 320.529,168.108 388.289,168.108 392.579,172.669 	"/>
	<polygon id="b509" fill="#939598" stroke="#494949" stroke-width="0.66" stroke-miterlimit="10" points="306.01,208.28 
		306.01,177.177 285.879,177.177 285.879,208.058 	"/>
	
		<rect id="a501" x="585.41" y="141.757" fill="#939598" stroke="#494949" stroke-width="0.66" stroke-miterlimit="10" width="27.721" height="16.281"/>
	
		<rect id="a502" x="543.609" y="108.868" fill="#939598" stroke="#494949" stroke-width="0.66" stroke-miterlimit="10" width="35.199" height="49.17"/>
	
		<rect id="a504" x="526.365" y="108.868" fill="#939598" stroke="#494949" stroke-width="0.66" stroke-miterlimit="10" width="17.244" height="49.17"/>
	
		<rect id="a505" x="509.119" y="108.868" fill="#939598" stroke="#494949" stroke-width="0.66" stroke-miterlimit="10" width="17.246" height="49.17"/>
	
		<rect id="a506" x="491.873" y="108.868" fill="#939598" stroke="#494949" stroke-width="0.66" stroke-miterlimit="10" width="17.246" height="49.17"/>
	
		<rect id="a507" x="474.199" y="108.868" fill="#939598" stroke="#494949" stroke-width="0.66" stroke-miterlimit="10" width="17.244" height="49.17"/>
	<polygon id="a508" fill="#939598" stroke="#494949" stroke-width="0.66" stroke-miterlimit="10" points="474.199,158.038 
		474.199,108.868 457.039,108.868 457.039,140.106 447.14,140.106 447.14,158.038 	"/>
	
		<rect id="a509" x="422.72" y="108.868" fill="#939598" stroke="#494949" stroke-width="0.66" stroke-miterlimit="10" width="17.818" height="49.17"/>
	
		<rect id="b501" x="390.764" y="108.868" fill="#939598" stroke="#494949" stroke-width="0.66" stroke-miterlimit="10" width="23.267" height="43.779"/>
	
		<rect id="b502" x="373.936" y="108.868" fill="#939598" stroke="#494949" stroke-width="0.66" stroke-miterlimit="10" width="16.828" height="43.779"/>
	
		<rect id="b504" x="321.299" y="108.868" fill="#939598" stroke="#494949" stroke-width="0.66" stroke-miterlimit="10" width="18.149" height="43.779"/>
	
		<rect id="b505-1" x="302.489" y="108.868" fill="#939598" stroke="#494949" stroke-width="0.66" stroke-miterlimit="10" width="18.81" height="43.779"/>
	<polygon id="b505-2" fill="#939598" stroke="#494949" stroke-width="0.66" stroke-miterlimit="10" points="302.489,152.647 
		302.489,108.868 284.998,108.868 284.998,143.573 272.623,143.573 272.623,152.647 	"/>
	<polygon id="b502-1" fill="#939598" stroke="#494949" stroke-width="0.66" stroke-miterlimit="10" points="356.691,152.647 
		373.936,152.647 373.936,108.868 339.448,108.868 339.448,124.763 356.691,124.763 	"/>
	
		<rect id="b503" x="339.448" y="124.763" fill="#939598" stroke="#494949" stroke-width="0.66" stroke-miterlimit="10" width="17.243" height="27.885"/>
	<path id="b506-1" fill="#939598" stroke="#494949" stroke-width="0.66" stroke-miterlimit="10" d="M256.955,152.647h10.555v-43.779
		h-34.155v35.047C242.48,144.315,250.73,147.567,256.955,152.647z"/>
	<polygon id="c511" fill="#939598" stroke="#494949" stroke-width="0.66" stroke-miterlimit="10" points="406.936,384.144 
		417.66,396.354 440.429,396.354 440.429,363.298 406.936,363.298 	"/>
	
		<rect id="c512" x="406.936" y="344.269" fill="#939598" stroke="#494949" stroke-width="0.66" stroke-miterlimit="10" width="33.494" height="19.029"/>
	<path id="c514" fill="#939598" stroke="#494949" stroke-width="0.66" stroke-miterlimit="10" d="M440.429,306.328v-40.159h-33.166
		l-33.165,35.59c1.121,1.439,2.125,2.976,3.035,4.568H440.429z"/>
	<path id="c513" fill="#939598" stroke="#494949" stroke-width="0.66" stroke-miterlimit="10" d="M382.23,325.449
		c0,3.467-0.465,6.822-1.319,10.02h26.023v8.801h33.493V306.33h-63.294C380.363,311.968,382.23,318.484,382.23,325.449z"/>
	<path id="c503" fill="#939598" stroke="#494949" stroke-width="0.66" stroke-miterlimit="10" d="M250.567,306.328h59.522
		c1.267-2.211,2.735-4.289,4.396-6.197l-13.199-15.042h-50.719V306.328L250.567,306.328z"/>
	<path id="c506" fill="#939598" stroke="#494949" stroke-width="0.66" stroke-miterlimit="10" d="M250.567,353.507v28.82h76.951
		c0.908-7.539,2.032-14.42,3.332-20.451c-8.188-2.869-15.1-8.431-19.717-15.605l-8.479,7.236H250.567z"/>
	<path id="c505" fill="#939598" stroke="#494949" stroke-width="0.66" stroke-miterlimit="10" d="M250.567,353.507h52.087
		l8.479-7.236c-3.861-6.008-6.123-13.145-6.123-20.822c0-6.961,1.854-13.482,5.079-19.119h-59.522V353.507z"/>
	<polygon id="b507" fill="#939598" stroke="#494949" stroke-width="0.66" stroke-miterlimit="10" points="233.686,237.347 
		233.686,265.177 245.729,265.177 250.567,265.177 283.814,265.177 272.376,252.144 272.376,228.052 255.548,208.28 209.045,208.28 
		206.349,210.976 206.349,237.347 	"/>
	<polygon id="c502" fill="#939598" stroke="#494949" stroke-width="0.66" stroke-miterlimit="10" points="250.567,285.089 
		301.286,285.089 283.814,265.177 250.567,265.177 	"/>
	
		<rect id="k505" x="224.445" y="183.063" fill="#939598" stroke="#494949" stroke-width="0.66" stroke-miterlimit="10" width="12.054" height="6.984"/>
	<path id="k507" fill="#939598" stroke="#494949" stroke-width="0.66" stroke-miterlimit="10" d="M450.017,175.97h-12.905v23.373
		h3.208C440.32,199.343,437.994,187.376,450.017,175.97z"/>
	<polygon id="k506" fill="#939598" stroke="#494949" stroke-width="0.66" stroke-miterlimit="10" points="515.112,171.764 
		506.278,171.854 506.278,199.343 515.112,199.343 	"/>
	<path id="k503" fill="#939598" stroke="#494949" stroke-width="0.66" stroke-miterlimit="10" d="M422.542,228.142l-1.598,0.027
		v-0.027h-17.667v0.017l-0.956-0.017c0,0-4.333,2.197-4.333,7.666c0,5.104,4.333,7.666,4.333,7.666h0.956h2.254h13.8h1.613h1.598
		c0,0,4.332-2.562,4.332-7.666C426.875,230.339,422.542,228.142,422.542,228.142z"/>
</g>
<g id="signs">
	<rect id="parking" x="124.595" y="454.117" opacity="0.8" enable-background="new    " width="14.811" height="14.811"/>
	<g id="lift">
		<rect id="lift-11" x="146.863" y="454.118" opacity="0.8" enable-background="new    " width="14.811" height="14.811"/>
		<rect id="lift-10" x="268.959" y="126.047" opacity="0.8" enable-background="new    " width="14.811" height="14.813"/>
		<rect id="lift-9" x="441.603" y="124.219" opacity="0.8" enable-background="new    " width="14.813" height="14.813"/>
		<rect id="lift-8" x="459.617" y="229.985" opacity="0.8" enable-background="new    " width="14.811" height="14.811"/>
		<rect id="lift-7" x="181.233" y="108.075" opacity="0.8" enable-background="new    " width="14.811" height="14.811"/>
		<rect id="lift-6" x="234.979" y="389.948" opacity="0.8" enable-background="new    " width="14.811" height="14.813"/>
		<rect id="lift-5" x="563.511" y="229.985" opacity="0.8" enable-background="new    " width="14.813" height="14.811"/>
		<rect id="lift-4" x="228.261" y="468.929" opacity="0.8" enable-background="new    " width="14.811" height="14.811"/>
		<rect id="lift-3" x="585.541" y="108.075" opacity="0.8" enable-background="new    " width="14.813" height="14.811"/>
		<rect id="lift-2" x="207.119" y="239.538" opacity="0.8" enable-background="new    " width="14.811" height="14.812"/>
		<rect id="lift-1" x="337.873" y="306.408" opacity="0.8" enable-background="new    " width="14.811" height="14.811"/>
	</g>
	<g id="escalator">
		<rect id="escalator-8" x="404.292" y="228.741" opacity="0.8" enable-background="new    " width="14.811" height="14.811"/>
		<rect id="escalator-6" x="570.963" y="189.572" opacity="0.8" enable-background="new    " width="14.812" height="14.813"/>
		<rect id="escalator-5" x="337.873" y="330.621" opacity="0.8" enable-background="new    " width="14.811" height="14.811"/>
		<rect id="escalator-4" x="351.423" y="496.509" opacity="0.8" enable-background="new    " width="14.813" height="14.813"/>
		<rect id="escalator-3" x="459.617" y="84.525" opacity="0.8" enable-background="new    " width="14.811" height="14.811"/>
		<rect id="escalator-2" x="476.349" y="314.58" opacity="0.8" enable-background="new    " width="14.813" height="14.813"/>
		<rect id="escalator-1" x="220.856" y="166.199" opacity="0.8" enable-background="new    " width="14.811" height="14.811"/>
	</g>
	<g id="entrance">
		<rect id="entrance-3" x="188.638" y="176.42" opacity="0.8" enable-background="new    " width="14.813" height="14.812"/>
		<rect id="entrance-2" x="605.724" y="173.604" opacity="0.8" enable-background="new    " width="14.813" height="14.812"/>
		<rect id="entrance-1" x="234.978" y="446.712" opacity="0.8" enable-background="new    " width="14.813" height="14.811"/>
	</g>
	<g id="toilet">
		<rect id="toilet-7" x="459.617" y="249.015" opacity="0.8" enable-background="new    " width="14.811" height="14.812"/>
		<rect id="toilet-5" x="420.945" y="407.525" opacity="0.8" enable-background="new    " width="14.812" height="14.811"/>
		<rect id="toilet-4" x="563.511" y="249.015" opacity="0.8" enable-background="new    " width="14.813" height="14.811"/>
		<rect id="toilet-3" x="268.959" y="108.075" opacity="0.8" enable-background="new    " width="14.811" height="14.811"/>
		<rect id="toilet-2" x="441.603" y="106.741" opacity="0.8" enable-background="new    " width="14.813" height="14.811"/>
		<rect id="toilet-1" x="206.919" y="255.263" opacity="0.8" enable-background="new    " width="14.81" height="14.812"/>
	</g>
</g>
</svg>
