<?xml version="1.0" encoding="utf-8"?>
<!-- Generator: Adobe Illustrator 16.0.0, SVG Export Plug-In . SVG Version: 6.00 Build 0)  -->
<!DOCTYPE svg PUBLIC "-//W3C//DTD SVG 1.1//EN" "http://www.w3.org/Graphics/SVG/1.1/DTD/svg11.dtd">
<svg version="1.1" id="Layer_1" xmlns="http://www.w3.org/2000/svg" xmlns:xlink="http://www.w3.org/1999/xlink" x="0px" y="0px"
	 width="841.89px" height="595.281px" viewBox="0 0 841.89 595.281" enable-background="new 0 0 841.89 595.281"
	 xml:space="preserve">
<g id="background">
	<rect fill="#FFFFFF" width="841.89" height="595.281"/>
</g>
<g id="etc">
	<path fill="#BFBFBF" stroke="#494949" stroke-width="0.66" stroke-miterlimit="10" d="M767.57,186.306
		c12.76,0,8.688-13.088,8.688-13.088s-13.748-46.861-15.949-55.33c-2.199-8.469-8.029-9.02-8.029-9.02H613.13l-433.4-0.936
		c-37.42,0-94.082,0-105.27,0c-16.996,0-15.512,16.666-15.512,16.666s0,77.053,0,110.549c0,6.205,0,10.916,0,13.365v16.664
		l1.101,235.511L78.5,522.908h383.929V383h-24.596V266.993H613.13v18.096h158.84c0,0-0.221-56.322-0.221-67.871
		c0-11.551-8.359-11.221-8.359-11.221h-13.42v-19.58C749.97,186.417,754.808,186.306,767.57,186.306z"/>
	<path fill="#BFBFBF" stroke="#494949" stroke-width="0.66" stroke-miterlimit="10" d="M233.686,462.355c0,0,0-48.602,0-94.021
		H60.049v65.475v16.721v50.16l17.159,20.02h82.722h12.293c4.918,0,10.416,0,14.685,0c10.065,0,9.487-8.688,9.487-8.688v-49.666
		H233.686L233.686,462.355z"/>
	
		<rect x="196.395" y="462.355" fill="#BFBFBF" stroke="#494949" stroke-width="0.66" stroke-miterlimit="10" width="55.272" height="60.553"/>
	
		<rect x="361.75" y="266.993" fill="#BFBFBF" stroke="#494949" stroke-width="0.66" stroke-miterlimit="10" width="76.5" height="144.006"/>
	<path fill="#BFBFBF" stroke="#494949" stroke-width="0.66" stroke-miterlimit="10" d="M162.958,107.933
		c-35.327,0-78.052,0-87.563,0c-16.816,0-15.348,16.666-15.348,16.666s0,77.053,0,110.549c0,6.205,0,10.916,0,13.365v16.664h13.061
		h89.85V107.933L162.958,107.933z"/>
</g>
<g id="rooms">
	
		<rect id="d802" x="251.667" y="426" fill="#939598" stroke="#494949" stroke-width="0.66" stroke-miterlimit="10" width="189" height="96.908"/>
	<polygon id="sf-world-cinema" fill="#939598" stroke="#494949" stroke-width="0.66" stroke-miterlimit="10" points="
		273.667,280.333 60.049,280.333 60.049,368.333 252,368.333 252,368.39 273.667,368.39 	"/>
	<g id="d801-d803-m">
		
			<rect x="239.695" y="368.39" fill="#939598" stroke="#494949" stroke-width="0.66" stroke-miterlimit="10" width="33.972" height="42.609"/>
		
			<rect x="251.667" y="426" fill="#939598" stroke="#494949" stroke-width="0.66" stroke-miterlimit="10" width="34.166" height="64"/>
	</g>
	<path id="a801" fill="#939598" stroke="#494949" stroke-width="0.66" stroke-miterlimit="10" d="M767.57,186.306
		c12.76,0,8.688-13.088,8.688-13.088s-13.748-46.861-15.949-55.33c-2.199-8.469-8.029-9.02-8.029-9.02H613.13l-450.171-0.936
		v157.244H60.049v15.157h213.618V411h88.083V266.993h251.38v18.096h158.84c0,0-0.221-56.322-0.221-67.871
		c0-11.551-8.359-11.221-8.359-11.221h-13.42v-19.58C749.97,186.417,754.808,186.306,767.57,186.306z"/>
</g>
<g id="signs">
	<rect id="parking" x="124.595" y="454.117" opacity="0.8" enable-background="new    " width="14.811" height="14.811"/>
	<g id="lift">
		<rect id="lift-3" x="146.863" y="454.118" opacity="0.8" enable-background="new    " width="14.811" height="14.811"/>
		<rect id="lift-2" x="234.979" y="444.521" opacity="0.8" enable-background="new    " width="14.811" height="14.813"/>
		<rect id="lift-1" x="234.979" y="468.929" opacity="0.8" enable-background="new    " width="14.811" height="14.811"/>
	</g>
	<g id="escalator">
		<rect id="escalator-3" x="233.686" y="322.453" opacity="0.8" enable-background="new    " width="14.813" height="14.813"/>
		<rect id="escalator-2" x="334.039" y="379.707" opacity="0.8" enable-background="new    " width="14.813" height="14.813"/>
		<rect id="escalator-1" x="117.19" y="175.728" opacity="0.8" enable-background="new    " width="14.811" height="14.811"/>
	</g>
	<rect id="entrance" x="226.279" y="418.594" opacity="0.8" enable-background="new    " width="14.813" height="14.811"/>
	<g id="toilet">
		<rect id="toilet-1" x="257.196" y="501.611" opacity="0.8" enable-background="new    " width="14.812" height="14.811"/>
	</g>
</g>
</svg>
