<?xml version="1.0" encoding="utf-8"?>
<!-- Generator: Adobe Illustrator 16.0.0, SVG Export Plug-In . SVG Version: 6.00 Build 0)  -->
<!DOCTYPE svg PUBLIC "-//W3C//DTD SVG 1.1//EN" "http://www.w3.org/Graphics/SVG/1.1/DTD/svg11.dtd">
<svg version="1.1" id="Layer_1" xmlns="http://www.w3.org/2000/svg" xmlns:xlink="http://www.w3.org/1999/xlink" x="0px" y="0px"
	 width="841.89px" height="595.281px" viewBox="0 0 841.89 595.281" enable-background="new 0 0 841.89 595.281"
	 xml:space="preserve">
<g id="background">
	<rect fill="#FFFFFF" width="841.89" height="595.281"/>
</g>
<g id="etc">
	<path fill="#BFBFBF" stroke="#494949" stroke-width="0.66" stroke-miterlimit="10" d="M767.57,186.306
		c12.76,0,8.688-13.088,8.688-13.088s-13.748-46.861-15.949-55.33c-0.76-2.919-1.947-4.881-3.182-6.221h7.539V98.333H174.402v9.599
		c-37.253,0-89.274,0-99.942,0c-16.996,0-15.512,16.666-15.512,16.666s0,77.053,0,110.549c0,6.205,0,10.916,0,13.365v16.664
		l1.101,235.511L78.5,522.908h383.929V387.113h55.221v0.002v6.26v118.32l11,10.11h109.34V393.375v-6.262V370.25v-85.161h133.98
		c0,0-0.221-56.322-0.221-67.871c0-11.551-8.359-11.221-8.359-11.221h-13.42v-19.58C749.97,186.417,754.808,186.306,767.57,186.306z
		"/>
	<circle fill="#BFBFBF" stroke="#494949" stroke-width="0.66" stroke-miterlimit="10" cx="343.621" cy="325.448" r="26.069"/>
	<path fill="#BFBFBF" stroke="#494949" stroke-width="0.66" stroke-miterlimit="10" d="M235.79,183.826h10.321
		c0-0.931,0-1.926,0-3.01c0-24.503-22.077-17.492-22.077-17.492l-3.071,2.353v15.149h12.363l0,0l0,0L235.79,183.826"/>
	<path fill="#BFBFBF" stroke="#494949" stroke-width="0.66" stroke-miterlimit="10" d="M462.595,174.48
		c-11.99,8.029-12.375,16.445-12.375,16.445v11.221h8.631v0.001c7.074-2.809,11.357-10.375,15.844-14.684
		c2.336-2.245,5.432-2.806,8.25-2.702v-11.589C477.964,171.179,470.017,169.509,462.595,174.48z"/>
	
		<rect x="504.66" y="223.465" fill="#BFBFBF" stroke="#494949" stroke-width="0.66" stroke-miterlimit="10" width="10.785" height="71.677"/>
	<path id="k205-3" fill="#BFBFBF" stroke="#494949" stroke-width="0.66" stroke-miterlimit="10" d="M551.375,174.757
		c-2.988,0.003-16.688,6.252-19.49,4.614l-10.313-3.418v23.391h15.146l33.996-18.334v-3.322
		C570.714,177.687,565.617,174.744,551.375,174.757z"/>
	
		<rect x="476.445" y="317.984" fill="#BFBFBF" stroke="#494949" stroke-width="0.66" stroke-miterlimit="10" width="53" height="19.268"/>
	<path fill="#BFBFBF" stroke="#494949" stroke-width="0.66" stroke-miterlimit="10" d="M172.223,520.708H77.208l-17.159-20.021
		v-66.881c0,0,0-11.879,11.659-11.879s99.879,0,99.879,0s8.802,0.881,8.802,12.98c0,12.099,0,75.459,0,75.459
		S180.224,519.828,172.223,520.708z"/>
	<polygon fill="#939598" stroke="#494949" stroke-width="0.66" stroke-miterlimit="10" points="637.99,387.113 517.65,387.115 
		517.65,511.695 528.65,521.806 637.99,521.806 	"/>
	<polygon fill="#BFBFBF" stroke="#494949" stroke-width="0.66" stroke-miterlimit="10" points="157.729,387.115 157.729,340.089 
		136.608,340.089 136.608,315.007 157.729,315.007 157.729,274.747 61.811,274.747 61.811,387.115 	"/>
	
		<rect x="163.889" y="268.147" fill="#BFBFBF" stroke="#494949" stroke-width="0.66" stroke-miterlimit="10" width="17.49" height="39.16"/>
	
		<rect x="578.369" y="361.098" fill="#BFBFBF" stroke="#494949" stroke-width="0.66" stroke-miterlimit="10" width="19.031" height="26.016"/>
	<polygon fill="#BFBFBF" stroke="#494949" stroke-width="0.66" stroke-miterlimit="10" points="597.4,361.098 597.4,387.113 
		614.119,387.113 614.119,342.729 597.4,342.729 597.4,352.078 587.169,352.078 587.169,361.098 	"/>
	<path fill="#BFBFBF" stroke="#494949" stroke-width="0.66" stroke-miterlimit="10" d="M280.242,235.808
		c0,0.027-0.004,0.051-0.004,0.078c0,5.104,4.333,7.666,4.333,7.666h3.21v-7.744H280.242z"/>
	
		<rect x="251.339" y="268.148" fill="#BFBFBF" stroke="#494949" stroke-width="0.66" stroke-miterlimit="10" width="7.106" height="19.58"/>
	
		<rect x="280.214" y="149.349" fill="#BFBFBF" stroke="#494949" stroke-width="0.66" stroke-miterlimit="10" width="9.24" height="8.414"/>
	
		<rect x="271.964" y="149.349" fill="#BFBFBF" stroke="#494949" stroke-width="0.66" stroke-miterlimit="10" width="8.25" height="8.414"/>
</g>
<g id="rooms">
	<path id="zen" fill="#939598" stroke="#494949" stroke-width="0.66" stroke-miterlimit="10" d="M771.97,285.089H613.13V108.868
		h139.148c0,0,5.83,0.551,8.027,9.02c2.201,8.469,15.949,55.33,15.949,55.33s4.07,13.088-8.688,13.088
		c-12.762,0-17.602,0.111-17.602,0.111v19.58h13.42c0,0,8.359-0.33,8.359,11.221C771.75,228.767,771.97,285.089,771.97,285.089z"/>
	<path id="isetan" fill="#939598" stroke="#494949" stroke-width="0.66" stroke-miterlimit="10" d="M58.948,124.599
		c0,0,0,108.24,0,123.914c0,15.676,13.2,16.664,13.2,16.664h124.081v-29.369v-97.35h-16.5v-30.525c-37.42,0-94.082,0-105.27,0
		C57.464,107.933,58.948,124.599,58.948,124.599z"/>
	
		<rect id="kc302" x="384.658" y="321.984" fill="#939598" stroke="#494949" stroke-width="0.66" stroke-miterlimit="10" width="6.931" height="6.93"/>
	
		<rect id="kc301" x="396.092" y="321.984" fill="#939598" stroke="#494949" stroke-width="0.66" stroke-miterlimit="10" width="6.933" height="6.93"/>
	
		<rect id="k305" x="529.445" y="315.096" fill="#939598" stroke="#494949" stroke-width="0.66" stroke-miterlimit="10" width="6.928" height="8.817"/>
	
		<rect id="k304" x="529.445" y="323.914" fill="#939598" stroke="#494949" stroke-width="0.66" stroke-miterlimit="10" width="6.928" height="15.587"/>
	
		<rect id="k303" x="621.421" y="321.982" fill="#939598" stroke="#494949" stroke-width="0.66" stroke-miterlimit="10" width="16.902" height="14.27"/>
	
		<rect id="kc303" x="374.144" y="321.984" fill="#939598" stroke="#494949" stroke-width="0.66" stroke-miterlimit="10" width="6.933" height="6.93"/>
	
		<rect id="kc304" x="292.081" y="321.984" fill="#939598" stroke="#494949" stroke-width="0.66" stroke-miterlimit="10" width="6.931" height="6.93"/>
	
		<rect id="kc305" x="279.234" y="321.984" fill="#939598" stroke="#494949" stroke-width="0.66" stroke-miterlimit="10" width="6.931" height="6.93"/>
	
		<rect id="kf-302" x="203.015" y="316.475" fill="#939598" stroke="#494949" stroke-width="0.66" stroke-miterlimit="10" width="25.577" height="8.539"/>
	
		<rect id="f316" x="233.188" y="347.35" fill="#939598" stroke="#494949" stroke-width="0.66" stroke-miterlimit="10" width="11.881" height="59.618"/>
	
		<rect id="f315" x="215.808" y="347.35" fill="#939598" stroke="#494949" stroke-width="0.66" stroke-miterlimit="10" width="17.381" height="59.618"/>
	
		<rect id="f314" x="198.43" y="347.35" fill="#939598" stroke="#494949" stroke-width="0.66" stroke-miterlimit="10" width="17.378" height="59.618"/>
	
		<rect id="f302" x="181.379" y="268.147" fill="#939598" stroke="#494949" stroke-width="0.66" stroke-miterlimit="10" width="63.69" height="39.16"/>
	
		<rect id="f317" x="251.339" y="347.35" fill="#939598" stroke="#494949" stroke-width="0.66" stroke-miterlimit="10" width="16.831" height="39.766"/>
	
		<rect id="c318" x="268.17" y="347.35" fill="#939598" stroke="#494949" stroke-width="0.66" stroke-miterlimit="10" width="17.325" height="39.766"/>
	<path id="c319" fill="#939598" stroke="#494949" stroke-width="0.66" stroke-miterlimit="10" d="M312.608,523.24h31.013v-1.554
		V387.115h-16.646c0.988-9.424,2.303-17.945,3.874-25.229c-7.78-2.729-14.423-7.872-19.021-14.538h-26.333v39.768H268.17h-16.831
		V523.24H312.608z"/>
	<path id="c320" fill="#939598" stroke="#494949" stroke-width="0.66" stroke-miterlimit="10" d="M397.529,523.24l66-0.002v-17.49
		h-23.102v-76.119H414.47V406.97l-12.54-13.642V347.35h-26.515c-4.232,6.129-10.188,10.975-17.172,13.836
		c1.642,7.438,3.01,16.201,4.032,25.93h-18.654v134.573v1.552H397.529L397.529,523.24z"/>
	
		<rect id="c322" x="401.93" y="347.35" fill="#939598" stroke="#494949" stroke-width="0.66" stroke-miterlimit="10" width="19.691" height="39.766"/>
	
		<rect id="c323" x="421.621" y="347.35" fill="#939598" stroke="#494949" stroke-width="0.66" stroke-miterlimit="10" width="18.975" height="39.766"/>
	
		<rect id="e308" x="446.699" y="347.35" fill="#939598" stroke="#494949" stroke-width="0.66" stroke-miterlimit="10" width="10.561" height="39.766"/>
	
		<rect id="e309" x="457.259" y="347.35" fill="#939598" stroke="#494949" stroke-width="0.66" stroke-miterlimit="10" width="35.807" height="39.766"/>
	
		<rect id="e311" x="493.064" y="347.35" fill="#939598" stroke="#494949" stroke-width="0.66" stroke-miterlimit="10" width="34.32" height="39.766"/>
	
		<rect id="e313" x="527.384" y="347.35" fill="#939598" stroke="#494949" stroke-width="0.66" stroke-miterlimit="10" width="16.83" height="39.766"/>
	
		<rect id="e314" x="544.214" y="347.35" fill="#939598" stroke="#494949" stroke-width="0.66" stroke-miterlimit="10" width="17.324" height="39.766"/>
	<g id="f313-e315">
		
			<rect x="181.379" y="347.35" fill="#939598" stroke="#494949" stroke-width="0.66" stroke-miterlimit="10" width="17.051" height="39.766"/>
		
			<rect x="561.539" y="347.35" fill="#939598" stroke="#494949" stroke-width="0.66" stroke-miterlimit="10" width="16.83" height="39.766"/>
	</g>
	
		<rect id="e306" x="475.162" y="268.147" fill="#939598" stroke="#494949" stroke-width="0.66" stroke-miterlimit="10" width="17.902" height="40.259"/>
	
		<rect id="e307" x="450" y="268.147" fill="#939598" stroke="#494949" stroke-width="0.66" stroke-miterlimit="10" width="25.162" height="40.259"/>
	
		<rect id="e305" x="526.394" y="268.147" fill="#939598" stroke="#494949" stroke-width="0.66" stroke-miterlimit="10" width="30.525" height="40.259"/>
	
		<rect id="e304" x="556.919" y="268.147" fill="#939598" stroke="#494949" stroke-width="0.66" stroke-miterlimit="10" width="21.449" height="40.259"/>
	
		<rect id="e303" x="587.169" y="268.147" fill="#939598" stroke="#494949" stroke-width="0.66" stroke-miterlimit="10" width="12.98" height="40.259"/>
	
		<rect id="e302" x="600.15" y="268.147" fill="#939598" stroke="#494949" stroke-width="0.66" stroke-miterlimit="10" width="12.98" height="40.26"/>
	
		<rect id="e301" x="613.13" y="285.089" fill="#939598" stroke="#494949" stroke-width="0.66" stroke-miterlimit="10" width="25.193" height="23.317"/>
	<polygon id="a320" fill="#939598" stroke="#494949" stroke-width="0.66" stroke-miterlimit="10" points="595.695,216.833 
		589.947,216.833 589.978,235.607 600.15,235.607 600.15,268.147 613.13,268.147 613.13,216.833 	"/>
	
		<rect id="a319" x="561.044" y="216.833" fill="#939598" stroke="#494949" stroke-width="0.66" stroke-miterlimit="10" width="22.4" height="11.055"/>
	
		<rect id="a318" x="526.394" y="216.833" fill="#939598" stroke="#494949" stroke-width="0.66" stroke-miterlimit="10" width="34.65" height="31.02"/>
	
		<rect id="a317" x="526.394" y="247.853" fill="#939598" stroke="#494949" stroke-width="0.66" stroke-miterlimit="10" width="34.65" height="20.295"/>
	
		<rect id="a315" x="480.525" y="216.833" fill="#939598" stroke="#494949" stroke-width="0.66" stroke-miterlimit="10" width="12.539" height="51.314"/>
	<polygon id="a301" fill="#939598" stroke="#494949" stroke-width="0.66" stroke-miterlimit="10" points="613.13,157.763 
		613.13,108.868 601.359,108.868 601.359,142.253 589.589,142.253 589.589,157.763 	"/>
	
		<rect id="a303" x="561.044" y="108.868" fill="#939598" stroke="#494949" stroke-width="0.66" stroke-miterlimit="10" width="23.266" height="48.895"/>
	
		<rect id="a304" x="543.72" y="108.868" fill="#939598" stroke="#494949" stroke-width="0.66" stroke-miterlimit="10" width="17.324" height="48.895"/>
	
		<rect id="a305" x="527.384" y="108.868" fill="#939598" stroke="#494949" stroke-width="0.66" stroke-miterlimit="10" width="16.336" height="48.895"/>
	
		<rect id="a306" x="474.914" y="108.868" fill="#939598" stroke="#494949" stroke-width="0.66" stroke-miterlimit="10" width="34.32" height="48.895"/>
	
		<rect id="a308" x="458.414" y="108.868" fill="#939598" stroke="#494949" stroke-width="0.66" stroke-miterlimit="10" width="16.5" height="48.895"/>
	
		<rect id="a309" x="447.853" y="139.612" fill="#939598" stroke="#494949" stroke-width="0.66" stroke-miterlimit="10" width="10.563" height="18.15"/>
	
		<rect id="a310" x="422.775" y="108.868" fill="#939598" stroke="#494949" stroke-width="0.66" stroke-miterlimit="10" width="17.488" height="48.895"/>
	
		<rect id="b301" x="405.944" y="108.868" fill="#939598" stroke="#494949" stroke-width="0.66" stroke-miterlimit="10" width="16.831" height="48.895"/>
	
		<rect id="b302" x="388.289" y="108.868" fill="#939598" stroke="#494949" stroke-width="0.66" stroke-miterlimit="10" width="17.655" height="48.895"/>
	
		<rect id="b303" x="353.97" y="108.868" fill="#939598" stroke="#494949" stroke-width="0.66" stroke-miterlimit="10" width="34.319" height="48.895"/>
	
		<rect id="b305" x="304.139" y="108.868" fill="#939598" stroke="#494949" stroke-width="0.66" stroke-miterlimit="10" width="32.506" height="48.895"/>
	
		<rect id="b307" x="289.454" y="108.868" fill="#939598" stroke="#494949" stroke-width="0.66" stroke-miterlimit="10" width="14.685" height="48.895"/>
	<path id="b311" fill="#939598" stroke="#494949" stroke-width="0.66" stroke-miterlimit="10" d="M203.16,108.868v48.895
		c0,0,13.284-8.415,29.699-8.415c2.708,0,5.355,0.26,7.919,0.754v-41.234H203.16z"/>
	<path id="b310-1" fill="#939598" stroke="#494949" stroke-width="0.66" stroke-miterlimit="10" d="M248.204,108.868h-7.426v41.234
		c2.565,0.494,5.048,1.222,7.426,2.159c1.812,0.714,3.562,1.551,5.241,2.498v-45.89L248.204,108.868L248.204,108.868z"/>
	<path id="b310" fill="#939598" stroke="#494949" stroke-width="0.66" stroke-miterlimit="10" d="M253.445,108.868v45.89
		c1.602,0.903,3.141,1.904,4.601,3.005h7.648v-48.895H253.445z"/>
	<polygon id="c317" fill="#939598" stroke="#494949" stroke-width="0.66" stroke-miterlimit="10" points="284.67,287.728 
		261.675,287.728 251.339,287.728 251.339,307.309 261.675,307.309 284.67,307.307 	"/>
	<polygon id="b313" fill="#939598" stroke="#494949" stroke-width="0.66" stroke-miterlimit="10" points="223.289,237.622 
		223.289,208.253 210.089,208.253 205.799,212.378 205.799,237.622 	"/>
	<polygon id="b314" fill="#939598" stroke="#494949" stroke-width="0.66" stroke-miterlimit="10" points="233.188,237.622 
		233.188,247.522 250.02,247.522 250.02,208.253 223.289,208.253 223.289,237.622 	"/>
	<polygon id="b318" fill="#939598" stroke="#494949" stroke-width="0.66" stroke-miterlimit="10" points="272.748,247.522 
		272.623,228.052 255.299,208.253 250.02,208.253 250.02,247.522 	"/>
	<polygon id="b316" fill="#939598" stroke="#494949" stroke-width="0.66" stroke-miterlimit="10" points="233.188,247.522 
		233.188,268.147 251.339,268.147 284.983,268.147 272.789,254.122 272.748,247.522 250.02,247.522 	"/>
	
		<rect id="c311" x="323.829" y="227.888" fill="#939598" stroke="#494949" stroke-width="0.66" stroke-miterlimit="10" width="16.5" height="19.635"/>
	<polygon id="c312-1" fill="#939598" stroke="#494949" stroke-width="0.66" stroke-miterlimit="10" points="340.422,247.677 
		323.924,247.528 306.137,267.993 340.234,268.302 	"/>
	<polygon id="c308" fill="#939598" stroke="#494949" stroke-width="0.66" stroke-miterlimit="10" points="388.123,247.522 
		388.123,227.888 353.764,227.888 353.764,247.522 370.944,247.522 	"/>
	
		<rect id="c309" x="353.764" y="247.522" fill="#939598" stroke="#494949" stroke-width="0.66" stroke-miterlimit="10" width="25.701" height="20.625"/>
	<path id="c313" fill="#939598" stroke="#494949" stroke-width="0.66" stroke-miterlimit="10" d="M340.329,286.987v-18.84h-34.102
		l20.401,22.627C330.824,288.714,335.448,287.399,340.329,286.987z"/>
	<path id="c306" fill="#939598" stroke="#494949" stroke-width="0.66" stroke-miterlimit="10" d="M388.123,247.522h-8.659v20.626
		h-8.519h-17.183v20.15c4.245,1.232,8.894,3.211,12.381,5.789l21.979-25.939V247.522z"/>
	<path id="c301" fill="#939598" stroke="#494949" stroke-width="0.66" stroke-miterlimit="10" d="M423.103,308.406h17.326v-40.104
		l16.83-0.154l-0.164-40.26h17.818v-11.055h-26.068l-10.984,12.965c0.375,1.691,0.59,3.443,0.59,5.248
		c0,10.215-6.369,18.924-15.348,22.428v26.35V308.406L423.103,308.406z"/>
	
		<rect id="c302" x="405.614" y="283.823" fill="#939598" stroke="#494949" stroke-width="0.66" stroke-miterlimit="10" width="17.489" height="24.583"/>
	<path id="c303" fill="#939598" stroke="#494949" stroke-width="0.66" stroke-miterlimit="10" d="M423.103,283.823v-26.35
		c-2.712,1.061-5.655,1.662-8.742,1.662c-0.44,0-0.87-0.043-1.307-0.064l-7.439,8.781v15.971H423.103z"/>
	<path id="c304" fill="#939598" stroke="#494949" stroke-width="0.66" stroke-miterlimit="10" d="M378.269,308.406h27.348v-24.583
		v-15.971l-30.222,35.667C376.466,305.07,377.429,306.703,378.269,308.406z"/>
	<polygon id="b327" fill="#939598" stroke="#494949" stroke-width="0.66" stroke-miterlimit="10" points="353.97,188.388 
		353.97,208.253 371.129,208.253 371.129,188.337 	"/>
	<polygon id="b329" fill="#939598" stroke="#494949" stroke-width="0.66" stroke-miterlimit="10" points="371.129,188.337 
		371.129,208.253 388.289,208.253 388.289,188.288 	"/>
	<polygon id="b332" fill="#939598" stroke="#494949" stroke-width="0.66" stroke-miterlimit="10" points="405.944,188.782 
		405.944,208.253 422.775,208.253 422.775,188.626 	"/>
	<polygon id="b325" fill="#939598" stroke="#494949" stroke-width="0.66" stroke-miterlimit="10" points="336.645,178.47 
		320.392,178.47 320.392,188.485 336.645,188.438 	"/>
	<polygon id="b320" fill="#939598" stroke="#494949" stroke-width="0.66" stroke-miterlimit="10" points="284.983,188.589 
		284.983,208.253 302.819,208.253 302.819,188.538 	"/>
	<polygon id="b324" fill="#939598" stroke="#494949" stroke-width="0.66" stroke-miterlimit="10" points="320.392,188.485 
		320.392,208.253 336.645,208.253 336.645,188.438 	"/>
	<polygon id="b322" fill="#939598" stroke="#494949" stroke-width="0.66" stroke-miterlimit="10" points="302.819,188.538 
		302.819,208.253 320.392,208.253 320.392,188.485 	"/>
	<polygon id="a311" fill="#939598" stroke="#494949" stroke-width="0.66" stroke-miterlimit="10" points="422.775,208.253 
		440.265,208.253 440.265,188.462 422.775,188.626 	"/>
	<polygon id="b323" fill="#939598" stroke="#494949" stroke-width="0.66" stroke-miterlimit="10" points="320.392,188.485 
		320.392,178.47 320.392,168.927 302.819,168.927 302.819,188.538 	"/>
	
		<rect id="b326" x="320.392" y="168.927" fill="#939598" stroke="#494949" stroke-width="0.66" stroke-miterlimit="10" width="16.253" height="9.543"/>
	<polygon id="b321" fill="#939598" stroke="#494949" stroke-width="0.66" stroke-miterlimit="10" points="302.819,188.538 
		302.819,168.927 284.983,168.927 284.983,188.589 	"/>
	<polygon id="k315-1" fill="#939598" stroke="#494949" stroke-width="0.66" stroke-miterlimit="10" points="267.067,188.807 
		267.067,192.687 280.214,208.253 284.983,208.253 284.983,188.807 	"/>
	<polygon id="k315-2" fill="#939598" stroke="#494949" stroke-width="0.66" stroke-miterlimit="10" points="284.983,188.589 
		284.983,168.927 267.067,168.927 267.067,188.807 284.983,188.807 	"/>
	<polygon id="b328" fill="#939598" stroke="#494949" stroke-width="0.66" stroke-miterlimit="10" points="388.289,188.288 
		388.289,168.927 371.129,168.927 371.129,188.337 	"/>
	<polygon id="b331" fill="#939598" stroke="#494949" stroke-width="0.66" stroke-miterlimit="10" points="388.289,208.253 
		405.944,208.253 405.944,188.782 422.775,188.626 422.775,168.927 388.289,168.927 388.289,188.288 	"/>
	<polygon id="a312" fill="#939598" stroke="#494949" stroke-width="0.66" stroke-miterlimit="10" points="440.265,188.462 
		440.265,179.214 429.869,168.927 422.775,168.927 422.775,188.626 	"/>
	<polygon id="b330" fill="#939598" stroke="#494949" stroke-width="0.66" stroke-miterlimit="10" points="371.129,188.337 
		371.129,168.927 353.97,168.927 353.97,188.388 	"/>
	<path id="k310" fill="#939598" stroke="#494949" stroke-width="0.66" stroke-miterlimit="10" d="M235.79,183.826L235.79,183.826
		L235.79,183.826l-2.464-3h-12.362v14.798h25.148c0,0,0-0.009,0-11.798H235.79z"/>
	<path id="k309" fill="#939598" stroke="#494949" stroke-width="0.66" stroke-miterlimit="10" d="M302.365,228.275l3.21-0.055
		c0,0,4.333,2.197,4.333,7.666c0,5.104-4.333,7.666-4.333,7.666h-3.21V228.275z"/>
	<path id="k310-2" fill="#939598" stroke="#494949" stroke-width="0.66" stroke-miterlimit="10" d="M287.782,228.275l-3.21-0.055
		c0,0-4.287,2.178-4.33,7.588h7.54V228.275L287.782,228.275z"/>
	<path id="k307" fill="#939598" stroke="#494949" stroke-width="0.66" stroke-miterlimit="10" d="M419.332,228.197l3.21-0.055
		c0,0,4.332,2.197,4.332,7.666c0,5.104-4.332,7.666-4.332,7.666h-3.21V228.197z"/>
	<path id="k308" fill="#939598" stroke="#494949" stroke-width="0.66" stroke-miterlimit="10" d="M405.532,243.813h-3.21
		c0,0-4.333-2.562-4.333-7.666c0-5.469,4.333-7.666,4.333-7.666l3.21,0.055V243.813z"/>
	<path id="k302-2" fill="#939598" stroke="#494949" stroke-width="0.66" stroke-miterlimit="10" d="M543.718,168.64v8.319
		c3.363-1.136,6.422-2.201,7.656-2.202c2.256-0.002,4.256,0.076,6.07,0.199v-6.315L543.718,168.64L543.718,168.64z"/>
	<path id="k302-1" fill="#939598" stroke="#494949" stroke-width="0.66" stroke-miterlimit="10" d="M570.714,168.64h-13.27v6.315
		c9.633,0.653,13.27,2.731,13.27,2.732V168.64z"/>
	<path id="k301" fill="#939598" stroke="#494949" stroke-width="0.66" stroke-miterlimit="10" d="M487.949,167.89h-5.004v16.871
		c1.898,0.07,3.676,0.439,5.006,0.809L487.949,167.89z"/>
	<path id="k302" fill="#939598" stroke="#494949" stroke-width="0.66" stroke-miterlimit="10" d="M474.695,187.464
		c-4.486,4.309-8.77,11.875-15.844,14.684h29.098v-16.576C484.644,184.651,478.603,183.706,474.695,187.464z"/>
	<path id="k314" fill="#939598" stroke="#494949" stroke-width="0.66" stroke-miterlimit="10" d="M462.595,174.48
		c0.619-0.416,1.244-0.769,1.871-1.095c-1.406-1.338-3.365-2.172-5.537-2.172c-4.271,0-7.734,3.214-7.734,7.179
		c0,1.917,0.814,3.655,2.135,4.942C455.15,180.65,458.029,177.538,462.595,174.48z"/>
	
		<rect id="k313" x="504.66" y="216.535" fill="#939598" stroke="#494949" stroke-width="0.66" stroke-miterlimit="10" width="10.785" height="6.93"/>
	
		<rect id="k312" x="504.66" y="295.142" fill="#939598" stroke="#494949" stroke-width="0.66" stroke-miterlimit="10" width="10.785" height="7.624"/>
	
		<rect id="k306" x="451.195" y="317.984" fill="#939598" stroke="#494949" stroke-width="0.66" stroke-miterlimit="10" width="25.25" height="19.268"/>
	<path id="c314" fill="#939598" stroke="#494949" stroke-width="0.66" stroke-miterlimit="10" d="M284.984,268.148h-26.539v19.58
		h3.23h22.995v19.579l24.867,0.002c1.173-2.199,2.552-4.271,4.111-6.191L284.984,268.148z"/>
</g>
<g id="signs">
	<rect id="bts" x="806.855" y="45.594" opacity="0.8" enable-background="new    " width="14.813" height="14.813"/>
	<rect id="information" x="510.833" y="152.481" opacity="0.8" enable-background="new    " width="14.811" height="14.811"/>
	<rect id="parking" x="124.595" y="454.117" opacity="0.8" enable-background="new    " width="14.811" height="14.811"/>
	<g id="lift">
		<rect id="lift-12" x="217.595" y="251.504" opacity="0.8" enable-background="new    " width="14.811" height="14.812"/>
		<rect id="lift-11" x="459.617" y="229.985" opacity="0.8" enable-background="new    " width="14.811" height="14.811"/>
		<rect id="lift-10" x="268.959" y="125.553" opacity="0.8" enable-background="new    " width="14.811" height="14.813"/>
		<rect id="lift-9" x="441.603" y="124.219" opacity="0.8" enable-background="new    " width="14.813" height="14.813"/>
		<rect id="lift-7" x="181.233" y="108.075" opacity="0.8" enable-background="new    " width="14.811" height="14.811"/>
		<rect id="lift-6" x="228.261" y="430.177" opacity="0.8" enable-background="new    " width="14.811" height="14.813"/>
		<rect id="lift-5" x="563.511" y="229.985" opacity="0.8" enable-background="new    " width="14.813" height="14.811"/>
		<rect id="lift-4" x="228.261" y="468.929" opacity="0.8" enable-background="new    " width="14.811" height="14.812"/>
		<rect id="lift-3" x="585.541" y="125.91" opacity="0.8" enable-background="new    " width="14.813" height="14.811"/>
		<rect id="lift-2" x="89.988" y="454.117" opacity="0.8" enable-background="new    " width="14.812" height="14.813"/>
		<rect id="lift-1" x="337.873" y="306.408" opacity="0.8" enable-background="new    " width="14.811" height="14.811"/>
	</g>
	<g id="escalator">
		<rect id="escalator-10" x="570.963" y="189.572" opacity="0.8" enable-background="new    " width="14.812" height="14.813"/>
		<rect id="escalator-9" x="89.988" y="314.578" opacity="0.8" enable-background="new    " width="14.811" height="14.813"/>
		<rect id="escalator-8" x="404.292" y="228.741" opacity="0.8" enable-background="new    " width="14.811" height="14.811"/>
		<rect id="escalator-7" x="287.54" y="228.741" opacity="0.8" enable-background="new    " width="14.811" height="14.811"/>
		<rect id="escalator-6" x="557.89" y="319.057" opacity="0.8" enable-background="new    " width="14.813" height="14.813"/>
		<rect id="escalator-5" x="337.873" y="330.621" opacity="0.8" enable-background="new    " width="14.811" height="14.811"/>
		<rect id="escalator-4" x="351.423" y="496.509" opacity="0.8" enable-background="new    " width="14.813" height="14.813"/>
		<rect id="escalator-3" x="618.322" y="353.691" opacity="0.8" enable-background="new    " width="14.813" height="14.813"/>
		<rect id="escalator-2" x="414.214" y="318.042" opacity="0.8" enable-background="new    " width="14.813" height="14.813"/>
		<rect id="escalator-1" x="756.541" y="99.336" opacity="0.8" enable-background="new    " width="14.811" height="14.811"/>
	</g>
	<g id="entrance">
		<rect id="entrance-6" x="618.322" y="376.667" opacity="0.8" enable-background="new    " width="14.813" height="14.812"/>
		<rect id="entrance-5" x="188.638" y="176.42" opacity="0.8" enable-background="new    " width="14.813" height="14.812"/>
		<rect id="entrance-4" x="605.724" y="173.604" opacity="0.8" enable-background="new    " width="14.813" height="14.812"/>
		<rect id="entrance-3" x="687.595" y="99.335" opacity="0.8" enable-background="new    " width="14.814" height="14.812"/>
		<rect id="entrance-2" x="337.872" y="99.335" opacity="0.8" enable-background="new    " width="14.813" height="14.812"/>
		<rect id="entrance-1" x="164.073" y="376.667" opacity="0.8" enable-background="new    " width="14.813" height="14.812"/>
	</g>
	<g id="toilet">
		<rect id="toilet-7" x="459.617" y="249.015" opacity="0.8" enable-background="new    " width="14.811" height="14.812"/>
		<rect id="toilet-6" x="164.074" y="348.333" opacity="0.8" enable-background="new    " width="14.811" height="14.812"/>
		<rect id="toilet-5" x="420.945" y="407.525" opacity="0.8" enable-background="new    " width="14.812" height="14.811"/>
		<rect id="toilet-4" x="563.511" y="249.015" opacity="0.8" enable-background="new    " width="14.813" height="14.811"/>
		<rect id="toilet-3" x="268.959" y="108.075" opacity="0.8" enable-background="new    " width="14.811" height="14.811"/>
		<rect id="toilet-2" x="441.603" y="106.741" opacity="0.8" enable-background="new    " width="14.813" height="14.811"/>
		<rect id="toilet-1" x="199.714" y="251.897" opacity="0.8" enable-background="new    " width="14.81" height="14.812"/>
	</g>
</g>
</svg>
