<?xml version="1.0" encoding="utf-8"?>
<!-- Generator: Adobe Illustrator 16.0.0, SVG Export Plug-In . SVG Version: 6.00 Build 0)  -->
<!DOCTYPE svg PUBLIC "-//W3C//DTD SVG 1.1//EN" "http://www.w3.org/Graphics/SVG/1.1/DTD/svg11.dtd">
<svg version="1.1" id="Layer_1" xmlns="http://www.w3.org/2000/svg" xmlns:xlink="http://www.w3.org/1999/xlink" x="0px" y="0px"
	 width="612px" height="229.41px" viewBox="0 281.295 612 229.41" enable-background="new 0 281.295 612 229.41"
	 xml:space="preserve">
<g id="background">
	<g id="BG">
		<rect y="281.295" fill="#DDDDDD" width="612" height="229.41"/>
	</g>
</g>
<g id="etc_1_">
	<g id="etc">
		<rect x="64.606" y="315.945" fill="#FFFFFF" stroke="#FFFFFF" stroke-miterlimit="10" width="480.304" height="159.417"/>
		<rect x="107.942" y="385.677" fill="#999999" stroke="#FFFFFF" stroke-miterlimit="10" width="15.414" height="15.413"/>
		<rect x="165.605" y="396" fill="#999999" stroke="#FFFFFF" stroke-miterlimit="10" width="25.952" height="32.428"/>
		<rect x="290.132" y="398.652" fill="#999999" stroke="#FFFFFF" stroke-miterlimit="10" width="26.526" height="29.394"/>
		<path fill="#999999" stroke="#FFFFFF" stroke-miterlimit="10" d="M470.076,331.311v-15.366c-2.15,0-18.95,0-18.95,0v15.366
			H470.076z"/>
	</g>
	<rect x="415.591" y="397.518" fill="#999999" stroke="#FFFFFF" stroke-miterlimit="10" width="26.526" height="29.395"/>
	<polygon fill="#999999" stroke="#FFFFFF" stroke-miterlimit="10" points="123.093,333.629 144.242,333.629 144.242,350.118 
		151.052,350.118 151.052,333.056 151.052,315.945 123.093,315.945 	"/>
	<rect x="191.558" y="315.945" fill="#999999" stroke="#FFFFFF" stroke-miterlimit="10" width="14.338" height="27.864"/>
	<polygon fill="#999999" stroke="#FFFFFF" stroke-miterlimit="10" points="298.735,315.945 298.735,322.302 290.132,322.302 
		290.132,315.945 270.417,315.945 270.417,330.188 276.153,330.188 276.153,344.359 290.132,344.359 290.132,330.188 
		290.132,325.528 298.735,325.528 304.471,325.528 304.471,331.096 309.489,331.096 309.489,344.359 317.184,344.359 
		332.43,331.096 332.43,315.945 	"/>
	<polygon fill="#999999" stroke="#FFFFFF" stroke-miterlimit="10" points="456.67,452.421 456.67,471.75 462,471.75 
		461.984,475.361 477.365,475.361 497.318,475.361 497.318,468.875 503.75,468.875 503.75,463.532 497.318,463.532 497.318,452.421 
			"/>
</g>
<g id="rooms_1_">
	
		<rect id="r430-431" x="63.231" y="315.945" fill="#CCCCCC" stroke="#FFFFFF" stroke-miterlimit="10" width="31.902" height="43.922"/>
	
		<rect id="r412-2" x="151.052" y="315.945" fill="#CCCCCC" stroke="#FFFFFF" stroke-miterlimit="10" width="33.336" height="29.656"/>
	<rect id="h408" x="163.24" y="351.337" fill="#CCCCCC" stroke="#FFFFFF" stroke-miterlimit="10" width="30.11" height="13.979"/>
	<rect id="r414" x="205.896" y="315.945" fill="#CCCCCC" stroke="#FFFFFF" stroke-miterlimit="10" width="42.656" height="56.182"/>
	<rect id="r413" x="248.552" y="315.945" fill="#CCCCCC" stroke="#FFFFFF" stroke-miterlimit="10" width="27.601" height="56.182"/>
	<polygon id="r432" fill="#CCCCCC" stroke="#FFFFFF" stroke-miterlimit="10" points="144.242,333.629 123.093,333.629 
		123.093,315.945 95.134,315.945 95.134,359.868 151.052,359.868 151.052,350.118 144.242,350.118 	"/>
	<polygon id="r407" fill="#CCCCCC" stroke="#FFFFFF" stroke-miterlimit="10" points="443.192,365.316 414.874,365.316 
		414.874,315.945 332.43,315.945 332.43,344.359 309.489,344.359 309.489,354.826 287.265,354.826 287.265,383.239 316.658,383.239 
		316.658,430.555 332.43,430.555 376.878,430.555 414.874,430.555 414.874,383.239 443.192,383.239 	"/>
	<path id="r405" fill="#CCCCCC" stroke="#FFFFFF" stroke-miterlimit="10" d="M543.535,329.734h-18.281l-4.659-4.206
		c0,0-22.225,19.356-29.035,47.316h51.977L543.535,329.734L543.535,329.734z"/>
	<rect id="r404" x="474.378" y="372.844" fill="#CCCCCC" stroke="#FFFFFF" stroke-miterlimit="10" width="69.182" height="27.602"/>
	<rect id="r403" x="474.378" y="400.445" fill="#CCCCCC" stroke="#FFFFFF" stroke-miterlimit="10" width="69.182" height="27.601"/>
	<polygon id="r402" fill="#CCCCCC" stroke="#FFFFFF" stroke-miterlimit="10" points="474.378,428.046 474.378,452.421 
		497.318,452.421 497.318,463.532 503.75,463.532 503.75,468.875 497.318,468.875 497.318,475.361 543.535,475.361 543.535,452.421 
		543.535,428.046 	"/>
	<polygon id="r401" fill="#CCCCCC" stroke="#FFFFFF" stroke-miterlimit="10" points="456.67,475.361 415.09,475.361 415.09,442.24 
		439.822,442.24 456.67,442.24 456.67,471.75 462,471.75 462,475.361 	"/>
	<polygon id="r423-1" fill="#CCCCCC" stroke="#FFFFFF" stroke-miterlimit="10" points="316.515,442.24 316.515,475.361 
		365.623,475.361 365.623,442.24 331.569,442.24 331.569,457.296 	"/>
	<polygon id="r423-2" fill="#CCCCCC" stroke="#FFFFFF" stroke-miterlimit="10" points="415.09,442.24 400.393,456.938 
		400.751,442.24 365.623,442.24 365.623,475.361 415.09,475.361 	"/>
	<polygon id="r419" fill="#CCCCCC" stroke="#FFFFFF" stroke-miterlimit="10" points="240.522,442.24 233.354,442.24 205.896,442.24 
		205.896,456.938 191.558,442.24 191.558,475.361 240.522,475.361 240.522,456.938 	"/>
	<polygon id="r420" fill="#CCCCCC" stroke="#FFFFFF" stroke-miterlimit="10" points="248.552,442.24 240.522,442.24 
		240.522,456.938 240.522,475.361 290.132,475.361 290.132,442.24 276.153,456.938 276.153,442.24 	"/>
	<rect id="r424" x="178.295" y="442.24" fill="#CCCCCC" stroke="#FFFFFF" stroke-miterlimit="10" width="13.263" height="33.121"/>
	<polygon id="r425-427" fill="#CCCCCC" stroke="#FFFFFF" stroke-miterlimit="10" points="178.295,475.361 95.134,475.361 
		95.134,442.24 149.117,442.24 149.117,458.801 164.889,442.24 178.295,442.24 	"/>
	<polygon id="r428" fill="#CCCCCC" stroke="#FFFFFF" stroke-miterlimit="10" points="151.052,414.641 95.134,414.641 95.134,442.24 
		135.496,442.24 135.496,430.555 151.052,430.555 	"/>
	<path id="r429" fill="#CCCCCC" stroke="#FFFFFF" stroke-miterlimit="10" d="M63.231,372.127v15.27v27.244v60.722h31.902v-60.722
		h55.918v-42.514H63.231z M123.356,401.09h-15.414v-15.413h15.414V401.09z"/>
	
		<rect id="r415-417" x="233.354" y="386.632" fill="#CCCCCC" stroke="#FFFFFF" stroke-miterlimit="10" width="43.898" height="43.899"/>
	<g id="r421">
		<rect x="290.132" y="442.24" fill="#CCCCCC" stroke="#FFFFFF" stroke-miterlimit="10" width="26.382" height="33.121"/>
		<rect x="290.132" y="428.046" fill="#CCCCCC" stroke="#FFFFFF" stroke-miterlimit="10" width="26.526" height="5.711"/>
	</g>
	<rect id="h401" x="443.192" y="398.652" fill="#CCCCCC" stroke="#FFFFFF" stroke-miterlimit="10" width="15.866" height="31.901"/>
	
		<ellipse id="h402" transform="matrix(-0.1529 0.9882 -0.9882 -0.1529 905.4165 -18.4244)" fill="#CCCCCC" stroke="#FFFFFF" stroke-miterlimit="10" cx="460.604" cy="378.827" rx="11.947" ry="9.463"/>
	<polygon id="r411" fill="#CCCCCC" stroke="#FFFFFF" stroke-miterlimit="10" points="451.126,315.945 449.645,315.945 
		443.192,315.945 423.479,315.945 423.479,358.864 451.126,358.864 	"/>
	<path id="r406" fill="#CCCCCC" stroke="#FFFFFF" stroke-miterlimit="10" d="M470.076,315.945v15.366H456v10.347h0.097v17.206
		h28.317c2.39-6.094,5.998-13.621,11.471-21.507c7.099-10.228,14.792-16.608,20.79-21.412
		C501.118,315.945,485.609,315.945,470.076,315.945z"/>
	<rect id="h404" x="159.895" y="413.661" fill="#CCCCCC" stroke="#FFFFFF" stroke-miterlimit="10" width="5.711" height="14.779"/>
	<g id="r418-h-407">
		<path fill="#CCCCCC" stroke="#FFFFFF" stroke-miterlimit="10" d="M233.354,430.555c-1.219,1.053-6.428,5.307-14.219,5.114
			c-7.169-0.167-11.925-3.991-13.239-5.114c0-14.625,0-29.272,0-43.897c1.386-1.147,6.141-4.827,13.239-4.971
			c7.719-0.167,12.928,3.896,14.219,4.971C233.354,401.281,233.354,415.906,233.354,430.555z"/>
		<rect x="191.558" y="413.661" fill="#CCCCCC" stroke="#FFFFFF" stroke-miterlimit="10" width="5.711" height="14.779"/>
	</g>
	
		<rect id="h409" x="429.977" y="423.171" transform="matrix(0.0018 1 -1 0.0018 862.1174 -3.8279)" fill="#CCCCCC" stroke="#FFFFFF" stroke-miterlimit="10" width="5.998" height="13.492"/>
</g>
<g id="signs_1_">
	<g id="escalator">
		<rect id="escalator-3" x="170.457" y="385.247" width="10.754" height="10.753"/>
		<rect id="escalator-2" x="298.377" y="376.763" width="10.754" height="10.753"/>
		<rect id="escalator-1" x="423.479" y="376.763" width="10.752" height="10.753"/>
	</g>
	<rect id="stair" x="293" y="332.028" width="10.754" height="10.754"/>
	<rect id="handicapped-toilet" x="494.212" y="335.899" width="10.754" height="10.753"/>
	<rect id="atm" x="310.281" y="339.699" width="10.754" height="10.754"/>
	<g id="toilet">
		<rect id="toilet-3" x="469.001" y="461.692" width="10.754" height="10.754"/>
		<rect id="toilet-2" x="276.153" y="316.671" width="10.753" height="10.754"/>
		<rect id="toilet-1" x="309.131" y="316.671" width="10.754" height="10.754"/>
	</g>
	<g id="parking">
		<rect id="parking-3" x="302.081" y="302.921" width="10.753" height="10.754"/>
		<rect id="parking-2" x="400.13" y="302.921" width="10.754" height="10.754"/>
		<rect id="parking-1" x="167.732" y="302.921" width="10.753" height="10.754"/>
	</g>
	<g id="entrance">
		<rect id="entrance-4" x="289.129" y="304.921" width="10.754" height="10.754"/>
		<rect id="entrance-3" x="414.349" y="302.921" width="10.755" height="10.754"/>
		<rect id="entrance-2" x="49.825" y="359.939" width="10.753" height="10.754"/>
		<rect id="entrance-1" x="182.716" y="302.921" width="10.753" height="10.754"/>
	</g>
	<g id="elevator">
		<rect id="elevator-3" x="276.153" y="332.53" width="10.753" height="10.753"/>
		<rect id="elevator-2" x="447.972" y="330.881" width="10.754" height="10.754"/>
		<rect id="elevator-1" x="151.052" y="334.322" width="10.754" height="10.753"/>
	</g>
</g>
</svg>
