<?xml version="1.0" encoding="utf-8"?>
<!-- Generator: Adobe Illustrator 17.0.0, SVG Export Plug-In . SVG Version: 6.00 Build 0)  -->
<!DOCTYPE svg PUBLIC "-//W3C//DTD SVG 1.1//EN" "http://www.w3.org/Graphics/SVG/1.1/DTD/svg11.dtd">
<svg version="1.1" id="Layer_1" xmlns="http://www.w3.org/2000/svg" xmlns:xlink="http://www.w3.org/1999/xlink" x="0px" y="0px"
	 width="612px" height="229.41px" viewBox="0 0 612 229.41" enable-background="new 0 0 612 229.41" xml:space="preserve">
<g id="background">
	<g id="BG">
		<rect y="0" fill="#DDDDDD" width="612" height="229.41"/>
	</g>
</g>
<g id="etc">
	<path fill="#FFFFFF" stroke="#FFFFFF" stroke-miterlimit="10" d="M478.655,34.889v-3.822H386.89v3.822h-44.926v-3.822h-81.728
		v3.822h-39.669v-3.822H134.06v3.822H66.194v11.949h-2.868v23.419h2.031v77.546h15.414v42.417h27.481h42.298v-12.642h54.724v11.446
		h28.796h13.979h27.601v-11.446h55.68v12.642h69.301v-12.642h56.277v11.563h69.659v-69.657h-1.075V77.423h14.577l-0.048-42.537
		L478.655,34.889L478.655,34.889z"/>
	<g>
		<polygon fill="#999999" stroke="#FFFFFF" stroke-miterlimit="10" points="297.994,47.555 297.994,61.225 309.465,61.225 
			309.465,47.555 303.969,47.555 		"/>
		<polygon fill="#999999" stroke="#FFFFFF" stroke-miterlimit="10" points="329.658,63.948 329.658,51.378 318.235,63.948 		"/>
		<polygon fill="#999999" stroke="#FFFFFF" stroke-miterlimit="10" points="275.651,51.378 275.651,63.948 290.132,63.948 
			280.072,51.378 		"/>
		<polygon fill="#999999" stroke="#FFFFFF" stroke-miterlimit="10" points="400.632,48.033 400.632,63.327 413.417,63.327 		"/>
	</g>
	<polygon fill="#999999" points="150.551,176.143 162.881,161.543 150.551,161.543 	"/>
	<polygon fill="#999999" points="205.274,176.143 191.295,161.543 205.274,161.543 	"/>
	<polygon fill="#999999" points="275.651,176.143 275.651,161.543 289.822,161.543 	"/>
	<polygon fill="#999999" points="331.331,176.143 331.331,162.164 316.873,162.164 	"/>
	<polygon fill="#999999" points="400.632,176.143 400.632,160.874 414.109,160.874 	"/>
	<polygon fill="#999999" points="456.909,176.143 456.909,161.543 441.52,161.543 	"/>
	<polygon fill="#999999" points="191.868,63.327 205.752,63.327 205.752,50.59 	"/>
	<polygon fill="#999999" stroke="#FFFFFF" stroke-miterlimit="10" points="540.07,47.555 540.021,34.889 478.655,34.889 
		478.655,31.066 386.891,31.066 386.891,34.889 341.965,34.889 341.965,31.066 260.237,31.066 260.237,34.889 220.568,34.889 
		220.568,31.066 134.062,31.066 134.062,34.889 66.194,34.889 66.194,46.838 63.327,46.838 63.327,70.257 70.735,70.257 
		70.735,48.749 81.25,48.749 81.25,44.209 145.532,44.209 145.532,67.867 149.833,67.867 149.857,63.255 163.694,63.255 
		149.857,49.394 149.857,42.848 205.752,42.848 205.752,44.209 275.651,44.209 275.651,39.43 329.658,39.43 329.658,44.209 
		400.632,44.209 400.632,39.43 449.979,39.43 449.979,41.747 457.148,41.747 457.148,48.033 444.77,61.225 457.148,61.225 
		457.148,68.346 461.928,68.346 461.928,42.775 525.493,42.775 525.493,47.555 	"/>
	<path fill="#999999" stroke="#FFFFFF" stroke-miterlimit="10" d="M238.778,116.498L238.778,116.498
		c-3.704,0-6.739-3.036-6.739-6.74l0,0c0-3.703,3.035-6.738,6.739-6.738l0,0c3.704,0,6.739,3.035,6.739,6.738l0,0
		C245.541,113.462,242.506,116.498,238.778,116.498z"/>
	<rect x="71.691" y="118.887" fill="#999999" stroke="#FFFFFF" stroke-miterlimit="10" width="9.081" height="28.916"/>
	<polyline fill="none" stroke="#5E5E5E" stroke-miterlimit="10" points="167,101.869 161.065,101.869 161.065,211.49 
		175.833,211.49 	"/>
	<polygon id="r116-2" fill="#999999" points="108.253,119.725 108.253,147.922 108.253,190.22 150.551,190.22 150.551,147.922 
		150.551,119.725 	"/>
	<rect id="h2" x="164.411" y="76.23" fill="#999999" width="28.676" height="14.578"/>
</g>
<g id="rooms">
	<polygon id="r107-1" fill="#CCCCCC" stroke="#FFFFFF" stroke-miterlimit="10" points="205.274,132.747 205.274,189.024 
		229,189.024 229,132.747 	"/>
	<rect id="r107-2" x="229" y="132.747" fill="#CCCCCC" stroke="#FFFFFF" stroke-miterlimit="10" width="23.333" height="56.277"/>
	<rect id="r107" x="252.333" y="132.747" fill="#CCCCCC" stroke="#FFFFFF" stroke-miterlimit="10" width="23.317" height="56.277"/>
	<polygon id="r108-109" fill="#CCCCCC" stroke="#FFFFFF" stroke-miterlimit="10" points="358.932,118.887 331.331,118.887 
		331.331,138.601 331.331,190.22 400.632,190.22 400.632,118.887 	"/>
	<rect id="h6" x="414.109" y="117.932" fill="#CCCCCC" stroke="#FFFFFF" stroke-miterlimit="10" width="29.513" height="36.609"/>
	<polygon id="r101" fill="#CCCCCC" stroke="#FFFFFF" stroke-miterlimit="10" points="484.151,119.484 456.909,119.484 
		456.909,161.543 484.151,161.543 	"/>
	<polygon id="r102" fill="#CCCCCC" stroke="#FFFFFF" stroke-miterlimit="10" points="484.151,119.484 484.151,161.543 
		456.909,161.543 456.909,189.143 526.568,189.143 526.568,119.484 	"/>
	<polyline id="r118" fill="#CCCCCC" stroke="#FFFFFF" stroke-miterlimit="10" points="484.151,97.499 510.199,97.499 
		510.199,90.569 525.493,90.569 525.493,77.426 540.07,77.426 540.07,47.555 525.493,47.555 525.493,42.775 484.151,42.775 
		484.151,97.499 	"/>
	<rect id="h5" x="409.109" y="75.992" fill="#CCCCCC" stroke="#FFFFFF" stroke-miterlimit="10" width="29.513" height="15.294"/>
	<path id="r111" fill="#CCCCCC" stroke="#FFFFFF" stroke-miterlimit="10" d="M400.632,39.43v8.604l12.776,15.294h11.718
		c0,0,0-15.938,0-23.897h-24.494V39.43z"/>
	<path id="r110" fill="#CCCCCC" stroke="#FFFFFF" stroke-miterlimit="10" d="M425.126,39.43c0,7.959,0,15.939,0,23.897h8.603
		l16.25-15.294v-8.604h-24.853V39.43z"/>
	<polygon id="r114-115" fill="#CCCCCC" stroke="#FFFFFF" stroke-miterlimit="10" points="205.752,44.209 208.118,44.209 
		208.118,39.43 158.771,39.43 158.771,48.033 171.078,63.327 191.868,63.327 205.752,50.279 	"/>
	<polygon id="r105" fill="#CCCCCC" stroke="#FFFFFF" stroke-miterlimit="10" points="360.127,78.143 360.127,44.209 329.658,44.209 
		329.658,97.499 360.127,97.499 373.509,97.499 373.509,78.143 	"/>
	<polygon id="r104" fill="#CCCCCC" stroke="#FFFFFF" stroke-miterlimit="10" points="400.632,63.327 400.632,44.209 373.509,44.209 
		360.127,44.209 360.127,78.143 373.509,78.143 373.509,97.499 402.424,97.499 402.424,65.955 	"/>
	<g id="r112-h4">
		
			<ellipse transform="matrix(0.8234 -0.5674 0.5674 0.8234 10.1954 193.4745)" fill="#CCCCCC" stroke="#FFFFFF" stroke-miterlimit="10" cx="315.967" cy="80.355" rx="9.582" ry="7.765"/>
		<polygon fill="#CCCCCC" stroke="#FFFFFF" stroke-miterlimit="10" points="303.969,39.43 303.969,47.555 309.465,47.555 
			309.465,63.327 318.785,63.327 329.658,51.378 329.658,39.43 		"/>
	</g>
	<g id="r113-h3">
		
			<ellipse transform="matrix(0.5674 -0.8234 0.8234 0.5674 59.8131 274.5643)" fill="#CCCCCC" stroke="#FFFFFF" stroke-miterlimit="10" cx="291.227" cy="80.354" rx="7.766" ry="9.582"/>
		<polygon fill="#CCCCCC" stroke="#FFFFFF" stroke-miterlimit="10" points="275.651,39.43 275.651,51.378 280.072,51.378 
			289.631,63.327 297.994,63.327 297.994,47.555 303.969,47.555 303.969,39.43 		"/>
	</g>
	<rect id="r106" x="205.752" y="44.209" fill="#CCCCCC" stroke="#FFFFFF" stroke-miterlimit="10" width="69.898" height="53.291"/>
	<polygon id="r124" fill="#CCCCCC" stroke="#FFFFFF" stroke-miterlimit="10" points="151.746,69.062 145.532,69.062 145.532,44.209 
		81.25,44.209 81.25,48.749 70.735,48.749 70.735,77.187 81.25,77.187 81.25,84.954 151.746,84.954 	"/>
	<polygon id="r116-1" fill="#CCCCCC" stroke="#FFFFFF" stroke-miterlimit="10" points="108.253,105.385 80.771,105.385 
		80.771,190.22 108.253,190.22 108.253,119.725 150.551,119.725 150.551,105.385 	"/>
	<rect id="h10" x="291.542" y="99.889" fill="#CCCCCC" stroke="#FFFFFF" stroke-miterlimit="10" width="25.331" height="11.471"/>
	<rect id="h17" x="438.622" y="83.293" fill="#CCCCCC" stroke="#FFFFFF" stroke-miterlimit="10" width="11.091" height="25.331"/>
	<rect id="h19" x="205.752" y="101.869" fill="#CCCCCC" stroke="#FFFFFF" stroke-miterlimit="10" width="21.415" height="18.34"/>
	<polygon id="_x31_19" fill="#CCCCCC" stroke="#FFFFFF" stroke-miterlimit="10" points="484.151,42.775 484.151,97.499 
		455.714,97.499 455.714,68.346 461.928,68.346 461.928,42.775 	"/>
</g>
<g id="signs">
	<rect id="atm" x="180.613" y="206.113" width="10.753" height="10.754"/>
	<rect id="toilet" x="193.685" y="206.113" width="10.754" height="10.754"/>
	<rect id="information" x="233.401" y="104.382" width="10.753" height="10.753"/>
	<g id="entrance">
		<rect id="entrance-4" x="170.457" y="181.162" width="10.754" height="10.754"/>
		<rect id="entrance-3" x="423.479" y="181.162" width="10.753" height="10.754"/>
		<rect id="entrance-2" x="298.377" y="181.162" width="10.754" height="10.754"/>
		<rect id="entrance-1" x="532.806" y="100.846" width="10.755" height="10.754"/>
	</g>
	<rect id="parking" x="449.62" y="20.551" width="10.754" height="10.754"/>
	<g id="lift">
		<rect id="elevator-3" x="150.312" y="51.617" width="10.754" height="10.753"/>
		<rect id="elevator-2" x="275.603" y="51.617" width="10.754" height="10.753"/>
		<rect id="elevator-1" x="449.62" y="56.396" width="10.754" height="10.754"/>
	</g>
	<g id="escalator">
		<rect id="escalator-4" x="170.457" y="94.99" width="10.754" height="10.753"/>
		<rect id="escalator-3" x="298.377" y="95.469" width="10.754" height="10.752"/>
		<rect id="escalator-2" x="423.479" y="95.469" width="10.753" height="10.752"/>
		<rect id="escalator-1" x="68.942" y="116.378" width="10.754" height="10.753"/>
	</g>
	<rect id="currency-exchange" x="206.737" y="206.113" width="10.754" height="10.754"/>
	<rect id="stairs" x="299.129" y="47.626" width="10.754" height="10.754"/>
</g>
</svg>
