<?xml version="1.0" encoding="utf-8"?>
<!-- Generator: Adobe Illustrator 17.0.0, SVG Export Plug-In . SVG Version: 6.00 Build 0)  -->
<!DOCTYPE svg PUBLIC "-//W3C//DTD SVG 1.1//EN" "http://www.w3.org/Graphics/SVG/1.1/DTD/svg11.dtd">
<svg version="1.1" id="Layer_1" xmlns="http://www.w3.org/2000/svg" xmlns:xlink="http://www.w3.org/1999/xlink" x="0px" y="0px"
	 width="612px" height="229.41px" viewBox="0 0 612 229.41" enable-background="new 0 0 612 229.41" xml:space="preserve">
<g id="background">
	<g id="BG">
		<rect y="0" fill="#DDDDDD" width="612" height="229.41"/>
	</g>
</g>
<g id="etc_1_">
	<g id="etc">
		<rect x="64.606" y="34.65" fill="#FFFFFF" stroke="#FFFFFF" stroke-miterlimit="10" width="480.304" height="159.417"/>
		<rect x="107.942" y="104.382" fill="#999999" stroke="#FFFFFF" stroke-miterlimit="10" width="15.414" height="15.413"/>
		<rect x="165.605" y="114.705" fill="#999999" stroke="#FFFFFF" stroke-miterlimit="10" width="25.952" height="32.428"/>
		<rect x="290.132" y="117.357" fill="#999999" stroke="#FFFFFF" stroke-miterlimit="10" width="26.526" height="29.394"/>
		<path fill="#999999" stroke="#FFFFFF" stroke-miterlimit="10" d="M470.076,50.016V34.65c-2.15,0-18.95,0-18.95,0v15.366
			C451.126,50.016,470.076,50.016,470.076,50.016z"/>
	</g>
	<rect x="415.591" y="116.223" fill="#999999" stroke="#FFFFFF" stroke-miterlimit="10" width="26.526" height="29.395"/>
	<polygon fill="#999999" stroke="#FFFFFF" stroke-miterlimit="10" points="123.093,52.334 144.242,52.334 144.242,68.823 
		151.052,68.823 151.052,51.761 151.052,34.65 123.093,34.65 	"/>
	<rect x="191.558" y="34.65" fill="#999999" stroke="#FFFFFF" stroke-miterlimit="10" width="14.338" height="27.864"/>
	<polygon fill="#999999" stroke="#FFFFFF" stroke-miterlimit="10" points="298.735,34.65 298.735,41.007 290.132,41.007 
		290.132,34.65 270.417,34.65 270.417,48.893 276.153,48.893 276.153,63.064 290.132,63.064 290.132,48.893 290.132,44.233 
		298.735,44.233 304.471,44.233 304.471,49.801 309.489,49.801 309.489,63.064 317.184,63.064 332.43,49.801 332.43,34.65 	"/>
	<polygon fill="#999999" stroke="#FFFFFF" stroke-miterlimit="10" points="456.67,171.126 456.67,190.455 462,190.455 
		461.984,194.066 477.365,194.066 497.318,194.066 497.318,187.58 503.75,187.58 503.75,182.237 497.318,182.237 497.318,171.126 	
		"/>
</g>
<g id="rooms_1_">
	
		<rect id="r430-431" x="63.231" y="34.648" fill="#CCCCCC" stroke="#FFFFFF" stroke-miterlimit="10" width="31.902" height="43.922"/>
	
		<rect id="r412-2" x="151.052" y="34.648" fill="#CCCCCC" stroke="#FFFFFF" stroke-miterlimit="10" width="33.336" height="29.656"/>
	<rect id="h408" x="163.24" y="70.04" fill="#CCCCCC" stroke="#FFFFFF" stroke-miterlimit="10" width="30.11" height="13.979"/>
	<rect id="r414" x="205.896" y="34.648" fill="#CCCCCC" stroke="#FFFFFF" stroke-miterlimit="10" width="42.656" height="56.182"/>
	<rect id="r413" x="248.552" y="34.648" fill="#CCCCCC" stroke="#FFFFFF" stroke-miterlimit="10" width="27.601" height="56.182"/>
	<polygon id="r432" fill="#CCCCCC" stroke="#FFFFFF" stroke-miterlimit="10" points="144.242,52.332 123.093,52.332 123.093,34.648 
		95.134,34.648 95.134,78.571 151.052,78.571 151.052,68.821 144.242,68.821 	"/>
	<polygon id="r407" fill="#CCCCCC" stroke="#FFFFFF" stroke-miterlimit="10" points="443.192,84.019 414.874,84.019 414.874,34.648 
		332.43,34.648 332.43,63.062 309.489,63.062 309.489,73.529 287.265,73.529 287.265,101.942 316.658,101.942 316.658,149.258 
		332.43,149.258 376.878,149.258 414.874,149.258 414.874,101.942 443.192,101.942 	"/>
	<path id="r405" fill="#CCCCCC" stroke="#FFFFFF" stroke-miterlimit="10" d="M543.535,48.437h-18.281l-4.659-4.206
		c0,0-22.225,19.356-29.035,47.316h51.977L543.535,48.437L543.535,48.437z"/>
	<rect id="r404" x="474.378" y="91.547" fill="#CCCCCC" stroke="#FFFFFF" stroke-miterlimit="10" width="69.182" height="27.602"/>
	<rect id="r403" x="474.378" y="119.148" fill="#CCCCCC" stroke="#FFFFFF" stroke-miterlimit="10" width="69.182" height="27.601"/>
	<polygon id="r402" fill="#CCCCCC" stroke="#FFFFFF" stroke-miterlimit="10" points="474.378,146.749 474.378,171.124 
		497.318,171.124 497.318,182.235 503.75,182.235 503.75,187.578 497.318,187.578 497.318,194.064 543.535,194.064 543.535,171.124 
		543.535,146.749 	"/>
	<polygon id="r401" fill="#CCCCCC" stroke="#FFFFFF" stroke-miterlimit="10" points="456.67,194.064 415.09,194.064 415.09,160.943 
		439.822,160.943 456.67,160.943 456.67,190.453 462,190.453 462,194.064 	"/>
	<polygon id="r423-1" fill="#CCCCCC" stroke="#FFFFFF" stroke-miterlimit="10" points="316.515,160.943 316.515,194.064 
		365.623,194.064 365.623,160.943 331.569,160.943 331.569,175.999 	"/>
	<polygon id="r423-2" fill="#CCCCCC" stroke="#FFFFFF" stroke-miterlimit="10" points="415.09,160.943 400.393,175.641 
		400.751,160.943 365.623,160.943 365.623,194.064 415.09,194.064 	"/>
	<polygon id="r419" fill="#CCCCCC" stroke="#FFFFFF" stroke-miterlimit="10" points="240.522,160.943 233.354,160.943 
		205.896,160.943 205.896,175.641 191.558,160.943 191.558,194.064 240.522,194.064 240.522,175.641 	"/>
	<polygon id="r420" fill="#CCCCCC" stroke="#FFFFFF" stroke-miterlimit="10" points="248.552,160.943 240.522,160.943 
		240.522,175.641 240.522,194.064 290.132,194.064 290.132,160.943 276.153,175.641 276.153,160.943 	"/>
	<rect id="r424" x="178.295" y="160.943" fill="#CCCCCC" stroke="#FFFFFF" stroke-miterlimit="10" width="13.263" height="33.121"/>
	<polygon id="r425-427" fill="#CCCCCC" stroke="#FFFFFF" stroke-miterlimit="10" points="178.295,194.064 95.134,194.064 
		95.134,160.943 149.117,160.943 149.117,177.504 164.889,160.943 178.295,160.943 	"/>
	<polygon id="r428" fill="#CCCCCC" stroke="#FFFFFF" stroke-miterlimit="10" points="151.052,133.344 95.134,133.344 
		95.134,160.943 135.496,160.943 135.496,149.258 151.052,149.258 	"/>
	<path id="r429" fill="#CCCCCC" stroke="#FFFFFF" stroke-miterlimit="10" d="M63.231,90.83v15.27v27.244v60.722h31.902v-60.722
		h55.918V90.83H63.231L63.231,90.83z M123.356,119.793h-15.414V104.38h15.414V119.793z"/>
	
		<rect id="r415-417" x="233.354" y="105.335" fill="#CCCCCC" stroke="#FFFFFF" stroke-miterlimit="10" width="43.898" height="43.899"/>
	<g id="r421">
		<rect x="290.132" y="160.943" fill="#CCCCCC" stroke="#FFFFFF" stroke-miterlimit="10" width="26.382" height="33.121"/>
		<rect x="290.132" y="146.749" fill="#CCCCCC" stroke="#FFFFFF" stroke-miterlimit="10" width="26.526" height="5.711"/>
	</g>
	<rect id="h401" x="443.192" y="117.355" fill="#CCCCCC" stroke="#FFFFFF" stroke-miterlimit="10" width="15.866" height="31.901"/>
	<polygon id="r411" fill="#CCCCCC" stroke="#FFFFFF" stroke-miterlimit="10" points="451.126,34.648 449.645,34.648 443.192,34.648 
		423.479,34.648 423.479,77.567 451.126,77.567 	"/>
	<path id="r406" fill="#CCCCCC" stroke="#FFFFFF" stroke-miterlimit="10" d="M470.076,34.648v15.366H456v10.347h0.097v17.206h28.317
		c2.39-6.094,5.998-13.621,11.471-21.507c7.099-10.228,14.792-16.608,20.79-21.412C501.118,34.648,485.609,34.648,470.076,34.648z"
		/>
	<rect id="h404" x="159.895" y="132.364" fill="#CCCCCC" stroke="#FFFFFF" stroke-miterlimit="10" width="5.711" height="14.779"/>
	<g id="mr.shake">
		<path fill="#CCCCCC" stroke="#FFFFFF" stroke-miterlimit="10" d="M233.354,149.258c-1.219,1.053-6.428,5.307-14.219,5.114
			c-7.169-0.167-11.925-3.991-13.239-5.114c0-14.625,0-29.272,0-43.897c1.386-1.147,6.141-4.827,13.239-4.971
			c7.719-0.167,12.928,3.896,14.219,4.971C233.354,119.984,233.354,134.609,233.354,149.258z"/>
		<rect x="171.191" y="147.679" fill="#CCCCCC" stroke="#FFFFFF" stroke-miterlimit="10" width="14.779" height="5.711"/>
	</g>
	
		<rect id="h409" x="429.981" y="141.878" transform="matrix(0.0018 1 -1 0.0018 580.8245 -284.6228)" fill="#CCCCCC" stroke="#FFFFFF" stroke-miterlimit="10" width="5.998" height="13.492"/>
</g>
<g id="signs">
	<g id="escalator">
		<rect id="escalator-3" x="170.457" y="103.952" width="10.754" height="10.753"/>
		<rect id="escalator-2" x="298.377" y="95.468" width="10.754" height="10.753"/>
		<rect id="escalator-1" x="423.479" y="95.468" width="10.752" height="10.753"/>
	</g>
	<rect id="stairs" x="293" y="50.733" width="10.754" height="10.754"/>
	<rect id="handicapped-toilet" x="494.212" y="54.604" width="10.754" height="10.753"/>
	<rect id="atm" x="310.281" y="58.404" width="10.754" height="10.754"/>
	<g id="toilet">
		<rect id="toilet-3" x="469.001" y="180.397" width="10.754" height="10.754"/>
		<rect id="toilet-2" x="276.153" y="35.376" width="10.753" height="10.754"/>
		<rect id="toilet-1" x="309.131" y="35.376" width="10.754" height="10.754"/>
	</g>
	<g id="parking">
		<rect id="parking-3" x="302.081" y="21.626" width="10.753" height="10.754"/>
		<rect id="parking-2" x="400.13" y="21.626" width="10.754" height="10.754"/>
		<rect id="parking-1" x="167.732" y="21.626" width="10.753" height="10.754"/>
	</g>
	<g id="entrance">
		<rect id="entrance-4" x="289.129" y="23.626" width="10.754" height="10.754"/>
		<rect id="entrance-3" x="414.349" y="21.626" width="10.755" height="10.754"/>
		<rect id="entrance-2" x="49.825" y="78.644" width="10.753" height="10.754"/>
		<rect id="entrance-1" x="182.716" y="21.626" width="10.753" height="10.754"/>
	</g>
	<g id="lift">
		<rect id="elevator-3" x="276.153" y="51.235" width="10.753" height="10.753"/>
		<rect id="elevator-2" x="447.972" y="49.586" width="10.754" height="10.754"/>
		<rect id="elevator-1" x="151.052" y="53.027" width="10.754" height="10.753"/>
	</g>
</g>
</svg>
