<?xml version="1.0" encoding="utf-8"?>
<!-- Generator: Adobe Illustrator 16.0.0, SVG Export Plug-In . SVG Version: 6.00 Build 0)  -->
<!DOCTYPE svg PUBLIC "-//W3C//DTD SVG 1.1//EN" "http://www.w3.org/Graphics/SVG/1.1/DTD/svg11.dtd">
<svg version="1.1" id="Layer_1" xmlns="http://www.w3.org/2000/svg" xmlns:xlink="http://www.w3.org/1999/xlink" x="0px" y="0px"
	 width="612px" height="229.41px" viewBox="0 281.295 612 229.41" enable-background="new 0 281.295 612 229.41"
	 xml:space="preserve">
<g id="background">
	<g id="BG_1_">
		<rect y="281.295" fill="#DDDDDD" width="612" height="229.41"/>
	</g>
</g>
<g id="etc_1_">
	<path fill="#FFFFFF" stroke="#FFFFFF" stroke-miterlimit="10" d="M478.655,316.184v-3.823H386.89v3.823h-44.926v-3.823h-81.728
		v3.823h-39.669v-3.823H134.06v3.823H66.194v11.949h-2.868v23.419h2.031v77.546h15.414v42.417h27.481h42.298v-12.642h54.724v11.446
		h28.796h13.979h27.601v-11.446h55.68v12.642h69.301v-12.642h56.277v11.564h69.659v-69.658h-1.075v-42.06h14.577l-0.048-42.537
		L478.655,316.184L478.655,316.184z"/>
	<g>
		<polygon fill="#999999" stroke="#FFFFFF" stroke-miterlimit="10" points="297.994,328.85 297.994,342.519 309.465,342.519 
			309.465,328.85 303.969,328.85 		"/>
		<polygon fill="#999999" stroke="#FFFFFF" stroke-miterlimit="10" points="329.658,345.243 329.658,332.673 318.235,345.243 		"/>
		<polygon fill="#999999" stroke="#FFFFFF" stroke-miterlimit="10" points="275.651,332.673 275.651,345.243 290.132,345.243 
			280.072,332.673 		"/>
		<polygon fill="#999999" stroke="#FFFFFF" stroke-miterlimit="10" points="400.632,329.328 400.632,344.622 413.417,344.622 		"/>
	</g>
	<polygon fill="#999999" points="150.551,457.438 162.881,442.838 150.551,442.838 	"/>
	<polygon fill="#999999" points="205.274,457.438 191.295,442.838 205.274,442.838 	"/>
	<polygon fill="#999999" points="275.651,457.438 275.651,442.838 289.822,442.838 	"/>
	<polygon fill="#999999" points="331.331,457.438 331.331,443.459 316.873,443.459 	"/>
	<polygon fill="#999999" points="400.632,457.438 400.632,442.169 414.109,442.169 	"/>
	<polygon fill="#999999" points="456.909,457.438 456.909,442.838 441.52,442.838 	"/>
	<polygon fill="#999999" points="191.868,344.622 205.752,344.622 205.752,331.885 	"/>
	<polygon fill="#999999" stroke="#FFFFFF" stroke-miterlimit="10" points="540.07,328.85 540.021,316.184 478.655,316.184 
		478.655,312.361 386.891,312.361 386.891,316.184 341.965,316.184 341.965,312.361 260.237,312.361 260.237,316.184 
		220.568,316.184 220.568,312.361 134.062,312.361 134.062,316.184 66.194,316.184 66.194,328.133 63.327,328.133 63.327,351.552 
		70.735,351.552 70.735,330.044 81.25,330.044 81.25,325.504 145.532,325.504 145.532,349.162 149.833,349.162 149.857,344.55 
		163.694,344.55 149.857,330.69 149.857,324.142 205.752,324.142 205.752,325.504 275.651,325.504 275.651,320.725 329.658,320.725 
		329.658,325.504 400.632,325.504 400.632,320.725 449.979,320.725 449.979,323.042 457.148,323.042 457.148,329.328 
		444.77,342.519 457.148,342.519 457.148,349.64 461.928,349.64 461.928,324.07 525.493,324.07 525.493,328.85 	"/>
	<path fill="#999999" stroke="#FFFFFF" stroke-miterlimit="10" d="M238.778,397.793L238.778,397.793
		c-3.704,0-6.739-3.036-6.739-6.74l0,0c0-3.704,3.035-6.739,6.739-6.739l0,0c3.704,0,6.739,3.035,6.739,6.739l0,0
		C245.541,394.757,242.506,397.793,238.778,397.793z"/>
	<rect x="71.691" y="400.182" fill="#999999" stroke="#FFFFFF" stroke-miterlimit="10" width="9.081" height="28.916"/>
	<polyline fill="none" stroke="#5E5E5E" stroke-miterlimit="10" points="167,383.164 161.065,383.164 161.065,492.785 
		175.833,492.785 	"/>
</g>
<g id="rooms">
	<polygon id="r107-1" fill="#CCCCCC" stroke="#FFFFFF" stroke-miterlimit="10" points="205.274,414.042 205.274,470.319 
		229,470.319 229,414.042 	"/>
	<rect id="r107-2" x="229" y="414.042" fill="#CCCCCC" stroke="#FFFFFF" stroke-miterlimit="10" width="23.333" height="56.277"/>
	<rect id="r107" x="252.333" y="414.042" fill="#CCCCCC" stroke="#FFFFFF" stroke-miterlimit="10" width="23.317" height="56.277"/>
	<polygon id="r108-109" fill="#CCCCCC" stroke="#FFFFFF" stroke-miterlimit="10" points="358.932,400.182 331.331,400.182 
		331.331,419.896 331.331,471.515 400.632,471.515 400.632,400.182 	"/>
	<rect id="h6" x="414.109" y="399.227" fill="#CCCCCC" stroke="#FFFFFF" stroke-miterlimit="10" width="29.513" height="36.609"/>
	<polygon id="r101" fill="#CCCCCC" stroke="#FFFFFF" stroke-miterlimit="10" points="484.151,400.779 456.909,400.779 
		456.909,442.838 484.151,442.838 	"/>
	<polygon id="r102" fill="#CCCCCC" stroke="#FFFFFF" stroke-miterlimit="10" points="484.151,400.779 484.151,442.838 
		456.909,442.838 456.909,470.438 526.568,470.438 526.568,400.779 	"/>
	<polygon id="r118-119" fill="#CCCCCC" stroke="#FFFFFF" stroke-miterlimit="10" points="525.493,328.85 525.493,324.07 
		461.928,324.07 461.928,349.64 455.714,349.64 455.714,378.794 510.199,378.794 510.199,371.864 525.493,371.864 525.493,358.721 
		540.07,358.721 540.07,328.85 	"/>
	<rect id="h5" x="409.109" y="357.287" fill="#CCCCCC" stroke="#FFFFFF" stroke-miterlimit="10" width="29.513" height="15.294"/>
	<path id="r111" fill="#CCCCCC" stroke="#FFFFFF" stroke-miterlimit="10" d="M400.632,320.725v8.603l12.776,15.294h11.718
		c0,0,0-15.939,0-23.897H400.632z"/>
	<path id="r110" fill="#CCCCCC" stroke="#FFFFFF" stroke-miterlimit="10" d="M425.126,320.725c0,7.958,0,15.939,0,23.897h8.603
		l16.25-15.294v-8.603H425.126z"/>
	<polygon id="r114-115" fill="#CCCCCC" stroke="#FFFFFF" stroke-miterlimit="10" points="205.752,325.504 208.118,325.504 
		208.118,320.725 158.771,320.725 158.771,329.328 171.078,344.622 191.868,344.622 205.752,331.574 	"/>
	<polygon id="r105" fill="#CCCCCC" stroke="#FFFFFF" stroke-miterlimit="10" points="360.127,359.438 360.127,325.504 
		329.658,325.504 329.658,378.794 360.127,378.794 373.509,378.794 373.509,359.438 	"/>
	<polygon id="r104" fill="#CCCCCC" stroke="#FFFFFF" stroke-miterlimit="10" points="400.632,344.622 400.632,325.504 
		373.509,325.504 360.127,325.504 360.127,359.438 373.509,359.438 373.509,378.794 402.424,378.794 402.424,347.25 	"/>
	<g id="r112-h4">
		
			<ellipse transform="matrix(-0.8234 0.5674 -0.5674 -0.8234 781.3194 480.1863)" fill="#CCCCCC" stroke="#FFFFFF" stroke-miterlimit="10" cx="315.948" cy="361.657" rx="9.583" ry="7.765"/>
		<polygon fill="#CCCCCC" stroke="#FFFFFF" stroke-miterlimit="10" points="303.969,320.725 303.969,328.85 309.465,328.85 
			309.465,344.622 318.785,344.622 329.658,332.673 329.658,320.725 		"/>
	</g>
	<g id="r113-h3">
		
			<ellipse transform="matrix(-0.5674 0.8234 -0.8234 -0.5674 754.2416 327.0892)" fill="#CCCCCC" stroke="#FFFFFF" stroke-miterlimit="10" cx="291.207" cy="361.656" rx="7.766" ry="9.582"/>
		<polygon fill="#CCCCCC" stroke="#FFFFFF" stroke-miterlimit="10" points="275.651,320.725 275.651,332.673 280.072,332.673 
			289.631,344.622 297.994,344.622 297.994,328.85 303.969,328.85 303.969,320.725 		"/>
	</g>
	<rect id="r106" x="205.752" y="325.504" fill="#CCCCCC" stroke="#FFFFFF" stroke-miterlimit="10" width="69.898" height="53.291"/>
	<polygon id="r124" fill="#CCCCCC" stroke="#FFFFFF" stroke-miterlimit="10" points="151.746,350.357 145.532,350.357 
		145.532,325.504 81.25,325.504 81.25,330.044 70.735,330.044 70.735,358.482 81.25,358.482 81.25,366.249 151.746,366.249 	"/>
	<polygon id="r116-1" fill="#CCCCCC" stroke="#FFFFFF" stroke-miterlimit="10" points="108.253,386.68 80.771,386.68 
		80.771,471.515 108.253,471.515 108.253,401.02 150.551,401.02 150.551,386.68 	"/>
	<polygon id="r116-2" fill="#CCCCCC" stroke="#FFFFFF" stroke-miterlimit="10" points="108.253,401.02 108.253,429.217 
		108.253,471.515 150.551,471.515 150.551,429.217 150.551,401.02 	"/>
	<rect id="h2" x="164.411" y="357.526" fill="#CCCCCC" stroke="#FFFFFF" stroke-miterlimit="10" width="28.676" height="14.577"/>
	<rect id="h10" x="291.542" y="381.184" fill="#CCCCCC" stroke="#FFFFFF" stroke-miterlimit="10" width="25.331" height="11.47"/>
	<rect id="h17" x="438.622" y="364.588" fill="#CCCCCC" stroke="#FFFFFF" stroke-miterlimit="10" width="11.091" height="25.331"/>
	<rect id="h19" x="205.752" y="383.164" fill="#CCCCCC" stroke="#FFFFFF" stroke-miterlimit="10" width="21.415" height="18.34"/>
</g>
<g id="signs">
	<rect id="atm" x="180.613" y="487.408" width="10.753" height="10.754"/>
	<rect id="toilet" x="193.685" y="487.408" width="10.754" height="10.754"/>
	<rect id="information" x="233.401" y="385.677" width="10.753" height="10.753"/>
	<g id="entrance">
		<rect id="entrance-4" x="170.457" y="462.457" width="10.754" height="10.754"/>
		<rect id="entrance-3" x="423.479" y="462.457" width="10.752" height="10.754"/>
		<rect id="entrance-2" x="298.377" y="462.457" width="10.754" height="10.754"/>
		<rect id="entrance-1" x="532.806" y="382.14" width="10.755" height="10.754"/>
	</g>
	<rect id="parking" x="449.62" y="301.846" width="10.754" height="10.753"/>
	<g id="lift">
		<rect id="elevator-3" x="150.312" y="332.912" width="10.754" height="10.753"/>
		<rect id="elevator-2" x="275.603" y="332.912" width="10.754" height="10.753"/>
		<rect id="elevator-1" x="449.62" y="337.691" width="10.754" height="10.754"/>
	</g>
	<g id="escalator">
		<rect id="escalator-4" x="170.457" y="376.285" width="10.754" height="10.753"/>
		<rect id="escalator-3" x="298.377" y="376.763" width="10.754" height="10.753"/>
		<rect id="escalator-2" x="423.479" y="376.763" width="10.752" height="10.753"/>
		<rect id="escalator-1" x="68.942" y="397.673" width="10.754" height="10.753"/>
	</g>
	<rect id="currency-exchange" x="206.737" y="487.408" width="10.754" height="10.754"/>
	<rect id="stairs" x="299.129" y="328.921" width="10.754" height="10.754"/>
</g>
</svg>
