<?xml version="1.0" encoding="utf-8"?>
<!-- Generator: Adobe Illustrator 16.0.0, SVG Export Plug-In . SVG Version: 6.00 Build 0)  -->
<!DOCTYPE svg PUBLIC "-//W3C//DTD SVG 1.1//EN" "http://www.w3.org/Graphics/SVG/1.1/DTD/svg11.dtd">
<svg version="1.1" id="Layer_1" xmlns="http://www.w3.org/2000/svg" xmlns:xlink="http://www.w3.org/1999/xlink" x="0px" y="0px"
	 width="612px" height="229.41px" viewBox="0 281.295 612 229.41" enable-background="new 0 281.295 612 229.41"
	 xml:space="preserve">
<g id="background">
	<rect y="281.295" fill="#DDDDDD" width="612" height="229.41"/>
</g>
<g id="etc_1_">
	<g>
		<path fill="#FFFFFF" stroke="#FFFFFF" stroke-miterlimit="10" d="M544.568,323.954H530.23v-8.914h-3.201h-71.213v4.373h-54.318
			v-4.301h-28.031v8.842h-13.215v-8.842h-29.32v4.301h-54.725v-4.301h-69.779v4.301h-55.441v-4.301H76.453h-0.024v6.858H62.808
			v37.59h19.356v25.092h-2.868v42.705H66.631v51.449h7.265v11.471h5.401v-14.625h71.69v-17.971h53.649v17.205h70.615v-17.157v-0.048
			h0.048l-0.048,0.048h54.964v17.157h72.287v-17.182c7.887,0.072,53.338-0.023,53.338-0.023v17.205h21.363v-5.018h7.791v-13.454
			l54.963-0.168v-28.7h-12.928V413.59h-28.008v-42.56h27.291v-12.355h0.739h12.904v-2.079h4.637v-32.643L544.568,323.954
			L544.568,323.954z"/>
	</g>
	<g>
		<path fill="#999999" stroke="#FFFFFF" stroke-miterlimit="10" d="M455.714,458.515c-0.048,0-0.096,0-0.144,0
			C455.618,458.515,455.666,458.515,455.714,458.515z"/>
		<rect x="108.492" y="315.945" fill="#999999" stroke="#FFFFFF" stroke-miterlimit="10" width="13.86" height="6.858"/>
		<polygon fill="#999999" stroke="#FFFFFF" stroke-miterlimit="10" points="544.61,324.787 530.271,324.787 530.271,315.874 
			527.094,315.874 527.094,329.566 539.999,329.566 539.999,357.43 544.61,357.43 		"/>
		<g>
			<polygon fill="#999999" points="308.987,345.625 316.873,345.625 330.973,330.212 308.987,330.212 			"/>
			<g>
				<polygon fill="#999999" points="308.987,330.212 308.987,345.578 316.873,345.578 330.973,330.212 				"/>
				<polygon fill="#999999" stroke="#FFFFFF" stroke-miterlimit="10" points="330.973,330.212 330.973,320.247 276.249,320.247 
					276.249,345.578 291.136,345.578 276.965,330.212 298.473,330.212 298.473,345.578 308.987,345.578 308.987,330.212 				"/>
				<polygon fill="#999999" stroke="#FFFFFF" stroke-miterlimit="10" points="316.873,345.578 330.973,345.578 330.973,330.212 				
					"/>
			</g>
			<polygon fill="#999999" stroke="#FFFFFF" stroke-miterlimit="10" points="455.882,315.874 455.882,320.247 401.562,320.247 
				401.562,345.578 414.157,345.578 414.157,343.833 402.567,330.618 455.905,330.618 443.79,343.833 443.79,345.578 
				462.883,345.578 462.883,324.309 470.363,324.309 470.363,318.625 485.036,318.68 485.036,324.309 498.083,324.309 
				498.107,315.874 			"/>
		</g>
		<polygon fill="#999999" stroke="#FFFFFF" stroke-miterlimit="10" points="149.355,326.221 206.469,326.221 206.469,320.247 
			151.028,320.247 151.028,315.945 137.168,315.945 137.168,322.804 145.293,322.804 145.293,344.86 145.293,345.578 
			165.653,345.578 		"/>
		<g>
			<polygon fill="#999999" stroke="#FFFFFF" stroke-miterlimit="10" points="151.028,458.515 164.65,443.053 151.028,443.053 			"/>
			<polygon fill="#999999" stroke="#FFFFFF" stroke-miterlimit="10" points="204.677,458.515 204.677,443.053 192.131,443.053 			
				"/>
			<polygon fill="#999999" stroke="#FFFFFF" stroke-miterlimit="10" points="275.292,458.515 275.34,458.515 290.348,443.053 
				275.292,443.053 			"/>
			<g>
				<polygon fill="#999999" stroke="#FFFFFF" stroke-miterlimit="10" points="402.544,458.538 415.257,443.053 402.544,443.053 				
					"/>
				<polygon fill="#999999" stroke="#FFFFFF" stroke-miterlimit="10" points="330.256,458.562 330.256,443.053 316.419,443.053 				
					"/>
				<polygon fill="#999999" stroke="#FFFFFF" stroke-miterlimit="10" points="441.257,443.053 455.882,458.515 455.882,443.053 				
					"/>
			</g>
		</g>
		<polygon fill="#999999" stroke="#FFFFFF" stroke-miterlimit="10" points="206.469,345.578 206.469,326.221 187.973,345.578 		"/>
		<path fill="#999999" stroke="#FFFFFF" stroke-miterlimit="10" d="M446.466,345.625h11.781v-0.048h-11.733
			C446.49,345.602,446.49,345.625,446.466,345.625z"/>
	</g>
	<polygon fill="#999999" stroke="#FFFFFF" stroke-miterlimit="10" points="129,395.5 129,379.5 105.863,379.5 105.863,395.5 
		117.5,395.5 	"/>
	<rect x="164.65" y="388.114" fill="#999999" stroke="#FFFFFF" stroke-miterlimit="10" width="27.481" height="40.386"/>
	<rect x="291.057" y="386.207" fill="#999999" stroke="#FFFFFF" stroke-miterlimit="10" width="27.482" height="40.386"/>
	<rect x="415.472" y="388.324" fill="#999999" stroke="#FFFFFF" stroke-miterlimit="10" width="27.482" height="40.386"/>
</g>
<g id="rooms_1_">
	<polygon id="r363-365" fill="#CCCCCC" stroke="#FFFFFF" stroke-miterlimit="10" points="137.168,322.804 137.168,315.945 
		122.352,315.945 122.352,322.804 108.492,322.804 108.492,315.945 76.47,315.945 76.47,322.804 62.849,322.804 62.849,324.309 
		62.849,344.86 62.849,360.394 80.293,360.394 80.293,344.86 108.492,344.86 108.492,351.074 145.293,351.074 145.293,344.86 
		145.293,322.804 	"/>
	<rect id="r359" x="79.338" y="385.485" fill="#CCCCCC" stroke="#FFFFFF" stroke-miterlimit="10" width="19.595" height="32.515"/>
	<polygon id="r359-2" fill="#CCCCCC" stroke="#FFFFFF" stroke-miterlimit="10" points="79.338,418 79.338,428.189 66.672,428.189 
		66.672,433.207 79.338,433.207 79.338,433.279 98.933,433.279 98.933,418 	"/>
	<path id="r358" fill="#CCCCCC" stroke="#FFFFFF" stroke-miterlimit="10" d="M153.418,389.548c0.717-4.301-4.063-5.114-4.063-5.114
		c-7.051-0.197-14.797,0.609-19.814-4.934H129v16l0,0l0,0h-11.5h-11.637v35.629c0,1.704,1.673,2.15,1.673,2.15s22.938,0,31.783,0
		c10.681,0,12.311-0.733,12.666-3.823C152.562,424.424,152.701,393.849,153.418,389.548z"/>
	<path id="r360-361" fill="#CCCCCC" stroke="#FFFFFF" stroke-miterlimit="10" d="M128.231,377.838
		c-2.079-3.13-1.816-7.05-1.816-10.634c0-3.537,0-7.097,0-10.634c0-0.526-0.43-0.956-0.956-0.956h-18.64
		c-0.526,0-0.956,0.43-0.956,0.956v22.93H129v-0.634C128.735,378.543,128.476,378.208,128.231,377.838z"/>
	<circle id="r366" fill="#CCCCCC" stroke="#FFFFFF" stroke-miterlimit="10" cx="143.429" cy="366.177" r="11.757"/>
	<ellipse id="r366-1" fill="#CCCCCC" stroke="#FFFFFF" stroke-miterlimit="10" cx="165.647" cy="359.267" rx="4.827" ry="4.827"/>
	<ellipse id="r353" fill="#CCCCCC" stroke="#FFFFFF" stroke-miterlimit="10" cx="168.473" cy="375.831" rx="8.842" ry="9.654"/>
	<path id="r351" fill="#CCCCCC" stroke="#FFFFFF" stroke-miterlimit="10" d="M197.221,364.36c0,6.5-4.134,11.973-9.248,12.211
		c-5.114,0.238-9.224-4.827-9.224-11.327s4.134-11.972,9.248-12.211C193.111,352.794,197.221,357.86,197.221,364.36z"/>
	<polygon id="r367-368" fill="#CCCCCC" stroke="#FFFFFF" stroke-miterlimit="10" points="187.973,345.578 165.653,345.578 
		149.355,326.221 206.469,326.221 	"/>
	<rect id="r323" x="206.469" y="315.945" fill="#CCCCCC" stroke="#FFFFFF" stroke-miterlimit="10" width="13.622" height="29.632"/>
	<polygon id="r321" fill="#CCCCCC" stroke="#FFFFFF" stroke-miterlimit="10" points="262.149,315.945 248.289,315.945 
		248.289,324.309 248.289,324.548 248.289,345.578 262.149,345.578 	"/>
	<rect id="r320" x="262.149" y="315.945" fill="#CCCCCC" stroke="#FFFFFF" stroke-miterlimit="10" width="14.1" height="29.632"/>
	<rect id="r322" x="220.091" y="315.945" fill="#CCCCCC" stroke="#FFFFFF" stroke-miterlimit="10" width="15.533" height="29.632"/>
	
		<rect id="r321-1" x="235.624" y="324.548" fill="#CCCCCC" stroke="#FFFFFF" stroke-miterlimit="10" width="12.666" height="21.029"/>
	<path id="r324-325" fill="#CCCCCC" stroke="#FFFFFF" stroke-miterlimit="10" d="M204.319,368.519c-0.239-1.673-0.478-7.527,0-9.248
		c1.744-6.333,9.654-7.026,15.103-6.715c4.541,0.239,9.606,0.55,13.765,2.557c5.998,2.892,3.919,9.081,4.278,14.601
		c0.549,8.316,1.481,16.608,1.72,24.948c0.311,10.013-1.84,19.834-2.318,29.799c-0.191,3.919,0.382,8.579-4.827,8.866
		c-4.206,0.238-8.77,0.884-13.144,1.051c-3.537,0.12-9.391,0.526-12.426-1.792c0,0-4.063-3.105-3.584-9.319
		c0.478-6.214,1.912-29.394,1.673-33.456C204.32,385.749,204.319,368.519,204.319,368.519z"/>
	<path id="r326" fill="#CCCCCC" stroke="#FFFFFF" stroke-miterlimit="10" d="M279.092,358.769c-0.191-0.43-0.98-2.031-3.441-3.561
		c-1.673-1.028-3.967-1.959-11.59-2.223c-4.779-0.167-7.169-0.263-9.081,0.239c-1.983,0.525-7.001,1.816-9.248,6.166
		c-1.051,2.055-0.621,3.943-1.027,6.882c-0.406,2.772-0.502,5.854,1.792,7.886c1.721,1.529,4.015,2.175,6.261,2.652
		c6.978,1.434,14.242,1.386,21.196-0.143c1.41-0.311,2.916-0.741,3.848-1.864c0.813-1.003,1.003-2.366,1.147-3.656
		c0.287-2.485,0.502-4.947,0.669-7.456C279.713,362.042,279.785,360.298,279.092,358.769z"/>
	<path id="r327-330" fill="#CCCCCC" stroke="#FFFFFF" stroke-miterlimit="10" d="M277.802,385.151
		c-2.271-2.916-6.62-2.438-9.87-2.653c-6.07-0.382-13.621-1.888-19.595-0.501c-5.21,1.195-4.086,8.053-4.397,12.235
		c-0.191,2.413-0.287,5.091,1.219,7.002c1.697,2.127,4.756,2.461,7.456,2.604c7.289,0.383,14.649,0.621,21.842-0.549
		c0.932-0.145,1.912-0.359,2.581-0.98c0.956-0.884,1.051-2.342,1.099-3.656c0.096-3.512,1.41-7.216,0.789-10.8
		C278.71,386.704,278.327,385.82,277.802,385.151z"/>
	<path id="r331" fill="#CCCCCC" stroke="#FFFFFF" stroke-miterlimit="10" d="M278.28,413.541c-0.359-1.076-0.836-2.176-1.673-2.939
		c-1.171-1.076-2.868-1.313-4.445-1.481c-5.521-0.599-11.064-0.813-16.608-0.669c-2.82,0.07-7.456,0.144-9.081,2.986
		c-1.72,3.012-0.645,8.795-0.454,12.067c0.12,1.96,0.335,4.039,1.625,5.545c0.741,0.86,1.792,1.435,2.82,1.937
		c6.834,3.201,14.888,3.68,22.033,1.313c1.243-0.406,2.509-0.933,3.465-1.815c1.004-0.933,1.625-2.198,2.103-3.489
		C279.642,422.669,279.713,417.865,278.28,413.541z"/>
	<path id="r352" fill="#CCCCCC" stroke="#FFFFFF" stroke-miterlimit="10" d="M286.07,379.702c0.406,1.41,0.932,2.82,1.864,3.824
		c1.314,1.386,3.202,1.697,4.97,1.936c6.167,0.765,12.354,1.075,18.544,0.884c3.153-0.096,8.34-0.191,10.155-3.896
		c1.912-3.919,0.718-11.446,0.503-15.724c-0.119-2.557-0.383-5.281-1.816-7.217c-0.836-1.123-1.983-1.864-3.154-2.509
		c-7.623-4.158-16.632-4.803-24.614-1.72c-1.41,0.549-2.796,1.219-3.871,2.39c-1.123,1.219-1.816,2.868-2.342,4.541
		C284.541,367.778,284.469,374.063,286.07,379.702z"/>
	<rect id="r350" x="330.256" y="357.287" fill="#CCCCCC" stroke="#FFFFFF" stroke-miterlimit="10" width="43.253" height="29.154"/>
	<rect id="r342" x="373.509" y="357.287" fill="#CCCCCC" stroke="#FFFFFF" stroke-miterlimit="10" width="29.035" height="15.294"/>
	<rect id="r343" x="373.509" y="372.581" fill="#CCCCCC" stroke="#FFFFFF" stroke-miterlimit="10" width="29.035" height="13.86"/>
	<rect id="r344" x="373.509" y="386.441" fill="#CCCCCC" stroke="#FFFFFF" stroke-miterlimit="10" width="29.035" height="13.382"/>
	<polygon id="r345-346" fill="#CCCCCC" stroke="#FFFFFF" stroke-miterlimit="10" points="402.544,399.823 373.509,399.823 
		373.509,386.441 358.692,386.441 358.692,429.575 402.544,429.575 	"/>
	
		<rect id="r347-349" x="330.256" y="386.441" fill="#CCCCCC" stroke="#FFFFFF" stroke-miterlimit="10" width="28.438" height="43.134"/>
	<polygon id="r320-1" fill="#CCCCCC" stroke="#FFFFFF" stroke-miterlimit="10" points="276.965,330.212 291.136,345.578 
		298.473,345.578 298.473,330.212 	"/>
	<polygon id="r319-1" fill="#CCCCCC" stroke="#FFFFFF" stroke-miterlimit="10" points="308.987,345.625 316.873,345.625 
		330.973,330.212 308.987,330.212 	"/>
	<rect id="r319" x="330.973" y="315.945" fill="#CCCCCC" stroke="#FFFFFF" stroke-miterlimit="10" width="14.171" height="29.345"/>
	<rect id="r318" x="344.021" y="316.089" fill="#CCCCCC" stroke="#FFFFFF" stroke-miterlimit="10" width="15.125" height="29.345"/>
	
		<rect id="r317-1" x="360.294" y="324.787" fill="#CCCCCC" stroke="#FFFFFF" stroke-miterlimit="10" width="13.215" height="20.503"/>
	<rect id="r317" x="373.509" y="315.945" fill="#CCCCCC" stroke="#FFFFFF" stroke-miterlimit="10" width="14.529" height="29.345"/>
	<rect id="r316" x="388.038" y="315.945" fill="#CCCCCC" stroke="#FFFFFF" stroke-miterlimit="10" width="13.524" height="29.345"/>
	<polygon id="r315" fill="#CCCCCC" stroke="#FFFFFF" stroke-miterlimit="10" points="455.882,330.618 402.544,330.618 
		414.134,343.833 414.134,360.633 443.766,360.633 443.766,343.833 	"/>
	<polygon id="r306" fill="#CCCCCC" stroke="#FFFFFF" stroke-miterlimit="10" points="470.363,318.688 470.363,324.309 
		462.883,324.309 462.883,359.509 485.036,359.509 485.036,325.576 485.036,318.688 	"/>
	<polygon id="r305" fill="#CCCCCC" stroke="#FFFFFF" stroke-miterlimit="10" points="527.094,329.566 527.094,315.874 
		498.083,315.874 498.083,359.509 524.537,359.509 527.094,359.509 539.999,359.509 539.999,329.566 	"/>
	<g id="r303-307">
		<rect x="485.036" y="324.309" fill="#CCCCCC" stroke="#FFFFFF" stroke-miterlimit="10" width="13.071" height="35.2"/>
		<rect x="482.98" y="371.864" fill="#CCCCCC" stroke="#FFFFFF" stroke-miterlimit="10" width="16.059" height="42.386"/>
	</g>
	<polygon id="r300" fill="#CCCCCC" stroke="#FFFFFF" stroke-miterlimit="10" points="495.168,443.053 455.882,443.053 
		455.882,475.72 477.245,475.72 477.245,470.702 485.036,470.702 485.036,457.224 495.168,457.224 	"/>
	<path id="r339-1" fill="#CCCCCC" stroke="#FFFFFF" stroke-miterlimit="10" d="M402.544,458.538
		c0.646,0.096,53.338-0.023,53.338-0.023l-14.602-15.462h-26.023L402.544,458.538z"/>
	<polygon id="r337" fill="#CCCCCC" stroke="#FFFFFF" stroke-miterlimit="10" points="330.256,443.053 344.475,443.053 
		344.474,475.72 330.256,475.69 	"/>
	<rect id="r338" x="344.475" y="443.053" fill="#CCCCCC" stroke="#FFFFFF" stroke-miterlimit="10" width="14.219" height="32.667"/>
	<polygon id="r339" fill="#CCCCCC" stroke="#FFFFFF" stroke-miterlimit="10" points="358.692,443.053 358.692,457.773 
		358.692,475.72 372.553,475.72 402.544,475.72 402.544,443.053 	"/>
	<polygon id="r336-1" fill="#CCCCCC" stroke="#FFFFFF" stroke-miterlimit="10" points="275.292,458.562 330.256,458.562 
		316.419,443.053 290.348,443.053 	"/>
	<rect id="r336" x="261.432" y="443.053" fill="#CCCCCC" stroke="#FFFFFF" stroke-miterlimit="10" width="13.86" height="32.667"/>
	
		<rect id="r333-334" x="204.677" y="443.053" fill="#CCCCCC" stroke="#FFFFFF" stroke-miterlimit="10" width="29.273" height="32.667"/>
	<polygon id="r335-335-1" fill="#CCCCCC" stroke="#FFFFFF" stroke-miterlimit="10" points="233.951,443.053 233.951,457.773 
		233.951,475.72 247.691,475.72 261.432,475.72 261.432,443.053 	"/>
	<path id="r354-1" fill="#CCCCCC" stroke="#FFFFFF" stroke-miterlimit="10" d="M164.65,443.053l-13.622,15.462
		c0.357-0.06,13.933-0.015,27.472,0v-15.462H164.65z"/>
	<path id="r354" fill="#CCCCCC" stroke="#FFFFFF" stroke-miterlimit="10" d="M192.131,443.053H178.5v15.462
		c14.125,0,26.177,0,26.177,0L192.131,443.053z"/>
	
		<rect id="r355-1" x="109.209" y="443.053" fill="#CCCCCC" stroke="#FFFFFF" stroke-miterlimit="10" width="21.041" height="33.433"/>
	<rect id="r355" x="130.25" y="443.053" fill="#CCCCCC" stroke="#FFFFFF" stroke-miterlimit="10" width="20.778" height="33.433"/>
	<rect id="r357" x="79.338" y="443.053" fill="#CCCCCC" stroke="#FFFFFF" stroke-miterlimit="10" width="29.871" height="33.433"/>
	<g id="r301-302-304">
		<circle fill="#CCCCCC" stroke="#FFFFFF" stroke-miterlimit="10" cx="466.324" cy="382.331" r="10.467"/>
		<path fill="#CCCCCC" stroke="#FFFFFF" stroke-miterlimit="10" d="M451.651,409.979c1.146-6.188,5.306-12.498,12.067-9.869
			c7.36,2.845,11.877,8.508,10.944,16.586c-0.908,7.86-6.38,14.099-14.769,12.855c-1.648-0.239-3.346-0.598-4.731-1.506
			c-2.246-1.506-3.345-4.277-3.68-6.954C451.055,417.531,451.007,413.541,451.651,409.979z"/>
		<polygon fill="#CCCCCC" stroke="#FFFFFF" stroke-miterlimit="10" points="527.047,428.38 527.047,414.424 499.039,414.424 
			499.039,414.25 482.98,414.25 482.98,414.424 482.98,429.575 498.083,429.575 511.274,429.575 511.274,457.08 539.999,457.08 
			539.999,428.38 		"/>
	</g>
	<path id="r340-341" fill="#CCCCCC" stroke="#FFFFFF" stroke-miterlimit="10" d="M412.27,382.474
		c0.358,0.741,0.813,1.386,1.41,1.912c4.277,3.775,15.819,2.079,21.125,1.959c2.796-0.048,7.36-0.12,8.961-2.318
		c1.696-2.318,0.621-6.811,0.454-9.344c-0.859-11.495-27.553-11.471-31.614-2.677C411.312,374.779,410.764,379.368,412.27,382.474z"
		/>
	<rect id="n308" x="173.25" y="428.5" fill="#CCCCCC" stroke="#FFFFFF" stroke-miterlimit="10" width="10" height="4.75"/>
	<rect id="n309" x="159.9" y="416.096" fill="#CCCCCC" stroke="#FFFFFF" stroke-miterlimit="10" width="4.75" height="10"/>
	<rect id="n307" x="192.131" y="416.096" fill="#CCCCCC" stroke="#FFFFFF" stroke-miterlimit="10" width="4.75" height="10"/>
	<rect id="h301" x="181.211" y="383.364" fill="#CCCCCC" stroke="#FFFFFF" stroke-miterlimit="10" width="10.921" height="4.75"/>
	<rect id="n306" x="286.307" y="414.188" fill="#CCCCCC" stroke="#FFFFFF" stroke-miterlimit="10" width="4.75" height="10"/>
	<rect id="n304" x="318.539" y="414.188" fill="#CCCCCC" stroke="#FFFFFF" stroke-miterlimit="10" width="4.75" height="10"/>
	<rect id="n303" x="410.723" y="401.398" fill="#CCCCCC" stroke="#FFFFFF" stroke-miterlimit="10" width="4.75" height="10"/>
</g>
<g id="signs_1_">
	<g id="entrance_2_">
		<rect id="entrance-2" x="71.678" y="484.899" width="10.754" height="10.753"/>
		<rect id="entrance-1" x="526.425" y="360.872" width="10.754" height="10.753"/>
	</g>
	<g id="escalator">
		<rect id="escalator-4_1_" x="82.432" y="366.727" width="10.754" height="10.753"/>
		<rect id="escalator-3" x="170.457" y="385.247" width="10.754" height="10.753"/>
		<rect id="escalator-2" x="298.377" y="376.763" width="10.754" height="10.753"/>
		<rect id="escalator-1" x="423.479" y="376.763" width="10.752" height="10.753"/>
	</g>
	<g id="lift">
		<rect id="elevator-3" x="150.312" y="332.912" width="10.754" height="10.753"/>
		<rect id="elevator-2" x="275.603" y="332.912" width="10.754" height="10.753"/>
		<rect id="elevator-1" x="449.62" y="337.691" width="10.754" height="10.754"/>
	</g>
	<rect id="stairs" x="298.421" y="332.532" width="10.754" height="10.754"/>
	<rect id="bts" x="498.107" y="451.704" width="10.754" height="10.753"/>
</g>
</svg>
