<?xml version="1.0" encoding="utf-8"?>
<!-- Generator: Adobe Illustrator 19.2.0, SVG Export Plug-In . SVG Version: 6.00 Build 0)  -->
<svg version="1.1" id="Layer_1" xmlns="http://www.w3.org/2000/svg" xmlns:xlink="http://www.w3.org/1999/xlink" x="0px" y="0px"
	 viewBox="0 0 3797.2 2105.6" style="enable-background:new 0 0 3797.2 2105.6;" xml:space="preserve">
<style type="text/css">
	.st0{fill:#BFBFBF;stroke:#494949;stroke-miterlimit:10;}
	.st1{fill:#DDDDDD;stroke:#494949;stroke-miterlimit:10;}
	.st2{fill:#939598;stroke:#494949;stroke-miterlimit:10;}
</style>
<g id="background">
</g>
<g id="etc">
	<path class="st0" d="M589.4,763.4l-56.7-8.8c-5.8-64.9-59.7-115.8-125.3-115.8c-52.3,0-97.1,32.3-116.1,78.3l-49.9-7.7l-102,740
		l50,7.4c-0.3,3.4-0.4,6.8-0.4,10.2c0,70.4,56.3,127.5,125.8,127.5c60.5,0,110.9-43.2,123.1-100.8l51.5,7.6L589.4,763.4z
		 M355.4,1502.1c-12,12-40.7,42-81.3,0c-22.7-28.7,4.7-33.3,4.7-33.3l72,10.7C350.7,1479.4,367.4,1490.1,355.4,1502.1z M443.7,769.7
		L372.1,757c0,0-16.4-11.7-4.2-24.1c12.2-12.5,41.5-43.7,81.1,1.7C471,765.3,443.7,769.7,443.7,769.7z"/>
	<path class="st0" d="M3634.7,585.8h20v-42h-22v-65l-53-4v-18l-144-6.5l-92-4.1l-76-3.4v20l-26-1.4l-4.5-0.2l-45.5-2.4v-36
		l-34.2-1.9l-1.8-0.1v-60l-93.3-4l-0.7,0v-16l-94-2.4l-5-0.1l-451-11.5v-30l-206-8v-82l-696-20v136l-72-2v0.6l-10.2-0.3l-6.4-0.2
		c0.9-7,1.4-14.1,1.4-21.3c0-95.6-81.9-173.1-183-173.1c-101.1,0-183,77.5-183,173.1c0,3.7,0.1,7.4,0.4,11.1l-187.5-5.3l-204,698
		l4.7,394.5c-105.2,7.9-188,92.6-188,195.9c0,94.6,59.1,155.2,124.3,190.6c93.8,51.1,290,160,290,160h502.6v-0.6h400.3h25.4
		c0,0,12.2-12.2,13-13c1.3,0.6,2.7,1.2,4,1.8c0.1,0,0.2,0.1,0.2,0.1c1.3,0.6,2.6,1.1,3.8,1.6c0,0,0,0,0,0c0,0,0,0,0,0
		c4,1.6,8,3,11.9,4.1c0.1,0,0.2,0,0.2,0.1c0.9,0.3,1.8,0.5,2.6,0.7c0.2,0.1,0.4,0.1,0.6,0.2c0.8,0.2,1.7,0.4,2.5,0.6
		c0.2,0.1,0.5,0.1,0.7,0.2c0.8,0.2,1.6,0.4,2.4,0.6c0.2,0,0.4,0.1,0.6,0.1c2.6,0.5,5.1,1,7.6,1.4c0.3,0,0.6,0.1,0.8,0.1
		c0.6,0.1,1.2,0.2,1.8,0.2c0.5,0.1,0.9,0.1,1.4,0.2c0.5,0.1,1.1,0.1,1.6,0.2c0.5,0.1,1.1,0.1,1.6,0.2c0.5,0,1,0.1,1.5,0.1
		c0.6,0.1,1.2,0.1,1.7,0.1c0.4,0,0.9,0.1,1.3,0.1c0.7,0,1.3,0.1,2,0.1c0.3,0,0.7,0,1,0.1c1,0,2,0.1,3,0.1c0.4,0,0.7,0,1.1,0
		c0,0,0,0,0.1,0c32.5,0.7,56.9-9.1,56.9-9.1l8,11h655c0,0,0.2-4.3,0.4-8.6c0-0.6,0.1-1.1,0.1-1.7v0c0.2-3.9,0.4-7.4,0.6-7.4
		c14,4.8,27.7,8.7,41,12c17.4,4.2,34.4,7,51,8.5c72.6,6.7,136.8-9.7,180.7-26.3c37.9-14.4,60.8-28.9,60.8-28.9s80.2,5.2,118.5-33
		c0.7-0.7,1.5-1.5,2.2-2.3c38.5-41.9,23.3-120.7,23.3-120.7s54-81,54-177.1c0-9.8-0.2-19.3-0.5-28.4l-7-79.5c-7.5-50.9-18-78-18-78
		l61,1.4v-127v-102v-92v-114v-82h-33v-69.4v-0.6h17v32.4h140l26-4.2l148,2.8v-20h53v-58h22v-40h-20v-63L3634.7,585.8L3634.7,585.8z
		 M783.4,1698.4c-32-1-93-36-91-105c0,0-8-66,81-92c2,1,35-10,35,9s0,166,0,166S815.4,1699.4,783.4,1698.4z M1414.9,313.7
		c-16.3-0.4-142.4-3.5-142.4-3.5s-19.9,5.1-18.4-20.4s32.7-73.3,91.8-70.3c0,0,56.8-5,77.3,66.4
		C1422.4,287.6,1431.2,314.1,1414.9,313.7z"/>
	<path class="st1" d="M3033.4,734.4c0,38.1-30.9,69-69,69h-37.9c-38.1,0-69-30.9-69-69v-28c0-38.1,30.9-69,69-69h37.9
		c38.1,0,69,30.9,69,69V734.4z"/>
	<path class="st1" d="M2094.5,1586.6l32.2-30l-56.9-61.1l-32.2,30c0,0-27.6-3.6-43.9-3.6c-54.8,0-99.2,20.6-99.2,46.1v107.5
		c0,25.4,44.4,46.1,99.2,46.1c15,0,40.1-2.5,40.1-2.5l30.4,31.8l60.3-57.7l-30.4-31.8L2094.5,1586.6z"/>
	<path class="st1" d="M2495.9,1525.4h-276.5h-36v58h18c0,0,9,9,9,35.3c0,26.7-9,35.3-9,35.3h-18v58h36h276.5c26,0,47-30.7,47-68.5
		V1594C2542.9,1556.1,2521.9,1525.4,2495.9,1525.4z"/>
	<polygon class="st1" points="2883.6,1705.4 2795.2,1709 2713.9,1673.9 2656,1607 2632.8,1521.6 2648.9,1434.5 2701.3,1363.2 
		2779.4,1321.5 2867.8,1318 2949.1,1353.1 3007,1420 3030.2,1505.4 3014,1592.4 2961.7,1663.8 	"/>
	<polyline class="st1" points="2845.4,929.4 2845.4,1159.4 2891.9,1217.4 2971.4,1217.4 3026.4,1162.4 3026.4,930.9 2968.9,930.9 
		2931.1,968.7 2891.9,929.4 2845.4,929.4 	"/>
	<path class="st0" d="M2079.4,1281.4l-48,48l-42.5-45.5l-81.1,81.1c40.6,28.4,89.4,38.8,105.6,41.4c39.5,6.2,160,0,160,0l13-18
		L2079.4,1281.4z"/>
	<path class="st0" d="M1988.8,1818.7c0,0-2.7,0.2-7.5,0.3V1943c0.3,0,0.6,0.1,0.9,0.1c0.5,0.1,1,0.1,1.5,0.1
		c0.6,0.1,1.2,0.1,1.7,0.1c0.4,0,0.9,0.1,1.3,0.1c0.7,0,1.3,0.1,2,0.1c0.3,0,0.7,0,1,0.1c1,0,2,0.1,3,0.1c0.4,0,0.7,0,1.1,0
		c0,0,0,0,0.1,0c32.5,0.7,56.9-9.1,56.9-9.1l8,11h6.6v-127.1L1988.8,1818.7L1988.8,1818.7z"/>
	<polygon id="_x3C_Path_x3E_" class="st0" points="2457.4,629.6 2457.4,788.1 2509.4,840.1 2539.6,840.1 2553.4,826.4 2553.4,629.6 
			"/>
	<rect id="_x3C_Path_x3E__1_" x="2561.4" y="386.7" class="st0" width="50" height="151.2"/>
	<rect id="_x3C_path_x3E__1_" x="1760.4" y="1172.5" class="st0" width="37.3" height="172.8"/>
</g>
<g id="rooms">
	<polygon id="sb-furniture" class="st2" points="1715.2,1580.3 1715.2,1439.9 1520.9,1439.9 1520.9,1274.3 1463.2,1274.3 
		1463.2,1135.9 1070.1,1135.9 1070.1,1580.3 	"/>
	<path id="fitness-first" class="st2" d="M1070.1,1580.3L1070.1,1580.3L1070.1,1580.3v-444.4H766.9l3.1,262
		c-105.2,7.9-188,92.6-188,195.9c0,94.6,59.1,155.2,124.3,190.6c93.8,51.1,290,160,290,160h502v-251c0,0,63.8,0,129.4,0
		s87.5-87.5,87.5-87.5v-25.6L1070.1,1580.3L1070.1,1580.3z M783.4,1698.4c-32-1-93-36-91-105c0,0-8-66,81-92c2,1,35-10,35,9
		s0,166,0,166S815.4,1699.4,783.4,1698.4z"/>
	<polygon id="major-cineplex" class="st2" points="2640.4,739.4 2539.6,840.1 2509.4,840.1 2379.8,710.6 2076.2,1014.2 
		2010.5,1014.2 1871.4,1158.4 2031.4,1329.4 2079.4,1281.4 2247.4,1449.4 2571.4,1449.4 2790.4,1230.4 2790.4,889.4 	"/>
	<polygon id="food-park" class="st2" points="2679.4,627.4 2679.4,778.4 2790.4,889.4 2790.4,929.4 2891.9,929.4 2931.1,968.7 
		2968.9,930.9 3023.4,930.9 3023.4,1186.4 3285.4,1186.4 3285.4,1179.4 3285.4,859.4 3249.4,859.4 3249.4,787.4 3263.4,787.4 
		3263.4,627.4 3043.4,627.4 3043.4,773.4 3077.4,803.4 3015.4,871.4 2982.4,835.4 2914.4,837.4 2879.4,867.4 2809.4,799.4 
		2841.4,771.4 2841.4,627.4 	"/>
	<polygon id="r522" class="st2" points="2267.2,629.6 2364,726.4 2379.8,710.6 2381.4,712.1 2381.4,629.6 	"/>
	<polygon id="r519" class="st2" points="2553.4,629.6 2553.4,826.4 2640.4,739.4 2679.4,778.4 2679.4,629.6 	"/>
	<polygon id="r521" class="st2" points="2381.4,629.6 2381.4,712.1 2457.4,788.1 2457.4,629.6 	"/>
	<path id="r523-524" class="st2" d="M2151.4,883.4c0,0-28,22.4-28.1,23.5c0.1,0,0.1,0,0.1,0c-0.1,0-0.1,0-0.1,0
		c-2.8-0.3-66.9-0.3-113.9,5.8c-16.3,2.1-30.6,4.9-39.5,8.7c-33.7,14.3-60,41.2-79.6,76.4l65.5,73.2l53.6-55.6l1.2-1.2h65.7
		l107.3-107.3L2151.4,883.4z"/>
	<rect id="r504" x="1621.4" y="1217.4" class="st2" width="93.9" height="140"/>
	<polygon id="r503" class="st2" points="1621.4,1357.4 1621.4,1358.1 1567.4,1358.1 1567.4,1394.9 1520.9,1394.9 1520.9,1439.9 
		1715.2,1439.9 1715.2,1357.4 	"/>
	<path id="r532-533" class="st2" d="M1827.4,1757.4c-7.3-15.9-16.8-27.7-27.6-36.5c-49.5-40.2-125-15.5-125-15.5l-56.7,18v95.3h83.3
		h30v125.1h66v-117.3l42-50.7C1834.6,1770.4,1830.5,1764.3,1827.4,1757.4z"/>
	<path id="r530" class="st2" d="M1891.4,1807.2v136.6h7.9h25.4c0,0,12.2-12.2,13-13c1.3,0.6,2.7,1.2,4,1.8c0.1,0,0.2,0.1,0.2,0.1
		c1.3,0.6,2.6,1.1,3.8,1.6c0,0,0,0,0,0c0,0,0,0,0,0c4,1.6,8,3,11.9,4.1c0.1,0,0.2,0,0.2,0.1c0.9,0.3,1.8,0.5,2.6,0.7
		c0.2,0.1,0.4,0.1,0.6,0.2c0.8,0.2,1.7,0.4,2.5,0.6c0.2,0.1,0.5,0.1,0.7,0.2c0.8,0.2,1.6,0.4,2.4,0.6c0.2,0,0.4,0.1,0.6,0.1
		c2.6,0.5,5.1,1,7.6,1.4c0.3,0,0.6,0.1,0.8,0.1c0.6,0.1,1.2,0.2,1.8,0.2c0.5,0.1,0.9,0.1,1.4,0.2c0.5,0.1,1.1,0.1,1.6,0.2
		c0.2,0,0.5,0.1,0.7,0.1V1819C1965.5,1819.3,1926.8,1818.7,1891.4,1807.2z"/>
	<path id="r531" class="st2" d="M1839.4,1775.8l-42,50.7v117.3h94v-136.6C1871.5,1800.7,1852.7,1790.9,1839.4,1775.8z"/>
	<polygon id="b2s" class="st2" points="1641.4,187.7 1641.4,395.4 1603.4,395.4 1603.4,645.4 2047.1,645.4 2145.4,560.4 
		2295.4,529.4 2295.4,337.4 2096.4,243.4 2096.4,200.8 	"/>
	<polygon id="r510-512" class="st2" points="2512,386.7 2511.7,296.8 2511.4,296.8 2393.3,292.2 2393.4,331.4 2392.7,331.4 
		2324.3,331.4 2324.3,537.9 2392.7,537.9 2511.4,537.9 2561.4,537.9 2561.4,386.7 	"/>
	<rect id="r514" x="2648.7" y="392.1" class="st2" width="119.3" height="145.8"/>
	<polygon id="r516" class="st2" points="3014.7,376.1 2860.7,376.1 2860.7,335.7 2860,335.6 2860,537.9 3014.7,537.9 	"/>
	<polygon id="r515" class="st2" points="2770.7,333.4 2770,392.1 2768,392.1 2768,537.9 2860,537.9 2860,335.6 	"/>
	<polygon id="r517" class="st2" points="3191.7,458.8 3191.7,422.8 3155.7,420.8 3155.7,360.8 3062.4,356.8 3062.4,537.9 
		3198,537.9 3198,459.1 	"/>
	<polygon id="r518" class="st2" points="3267.7,442.8 3267.7,462.8 3198,459.1 3198,537.9 3201.4,537.9 3216,562.9 3330.7,562.9 
		3330.7,445.5 	"/>
	<rect id="umm-milk" x="2708.4" y="562.9" class="st2" width="102.6" height="45"/>
	
		<rect id="fuku-matcha" x="1733.5" y="1031.2" transform="matrix(0.2935 -0.956 0.956 0.2935 272.3296 2468.844)" class="st2" width="145.8" height="37.9"/>
	
		<rect id="hello-yogurt" x="1798.4" y="821.2" transform="matrix(0.2935 -0.956 0.956 0.2935 518.9885 2382.522)" class="st2" width="145.8" height="37.9"/>
	<rect id="r529" x="2065.4" y="1818.7" class="st2" width="84" height="127.1"/>
	<g id="hongmin">
		<polygon id="dream-cones" class="st2" points="1769.4,1388.5 1769.4,1490.5 1806.7,1490.5 1854.9,1451.2 1854.9,1424.1 
			1803.6,1388.5 		"/>
		<path id="_x3C_path_x3E_" class="st2" d="M1847,1159.4c-2.7,34.3-2.5,70.1,0.3,106c3.7,46.4,29.7,78.1,60.4,99.6l81.1-81.1
			l-116.5-124.5L1847,1159.4L1847,1159.4z"/>
	</g>
	<path id="lord-of-shrimp" class="st2" d="M1847,1159.4h25.2l-0.9-1l84.4-87.4l-65.5-73.2C1865.9,1041.5,1851.9,1098,1847,1159.4z"
		/>
	<polygon id="k56" class="st2" points="1637.4,1072.2 1731.7,1073 1715.2,1136.6 1637.4,1136.6 	"/>
	<polygon id="k51" class="st2" points="1806.9,781.8 1637.4,781.8 1637.4,710.6 1825.4,710.6 	"/>
	<polygon id="k52" class="st2" points="1788.7,852.9 1637.4,852.9 1637.4,781.8 1806.9,782.6 	"/>
	<polygon id="k53" class="st2" points="1770.3,924.1 1637.4,924.1 1637.4,852.9 1788.7,852.9 	"/>
	<polygon id="k54" class="st2" points="1749.6,1003.7 1637.4,1003.7 1637.4,924.1 1770.3,924.1 	"/>
	<polygon id="k55" class="st2" points="1731.7,1073 1637.4,1072.2 1637.4,1003.7 1749.6,1003.7 	"/>
</g>
<g id="signs">
	<g id="escalator">
		<rect x="1924.9" y="1592.4" width="45" height="45"/>
		<rect x="1986.9" y="712.4" width="45" height="45"/>
		<rect x="2926.4" y="681.4" width="45" height="45"/>
		<rect x="2181.4" y="465" width="45" height="45"/>
	</g>
	<g id="lift">
		<rect x="1498.4" y="1113.4" width="45" height="45"/>
		<rect x="1292.9" y="480.4" width="45" height="45"/>
		<rect x="1498.4" y="1205.9" width="45" height="45"/>
		<rect x="3403.3" y="562.9" width="45" height="45"/>
		<rect x="3403.3" y="664" width="45" height="45"/>
	</g>
	<g id="toilet">
		<rect x="1535.4" y="1753.3" width="45" height="45"/>
		<rect x="2646.8" y="337.3" width="45" height="45"/>
		<rect x="1453.4" y="442.5" width="45" height="45"/>
	</g>
	<rect id="parking" x="364.4" y="1102.9" width="45" height="45"/>
	<g id="wifi">
		<rect x="1498.4" y="1158.9" width="45" height="45"/>
		<rect x="1848.9" y="1592.4" width="45" height="45"/>
		<rect x="3010.9" y="585.4" width="45" height="45"/>
	</g>
</g>
</svg>
