<?xml version="1.0" encoding="utf-8"?>
<!-- Generator: Adobe Illustrator 16.0.0, SVG Export Plug-In . SVG Version: 6.00 Build 0)  -->
<!DOCTYPE svg PUBLIC "-//W3C//DTD SVG 1.1//EN" "http://www.w3.org/Graphics/SVG/1.1/DTD/svg11.dtd">
<svg version="1.1" id="Layer_1" xmlns="http://www.w3.org/2000/svg" xmlns:xlink="http://www.w3.org/1999/xlink" x="0px" y="0px"
	 width="3797.242px" height="2105.579px" viewBox="0 0 3797.242 2105.579" enable-background="new 0 0 3797.242 2105.579"
	 xml:space="preserve">
<g id="background">
</g>
<g id="etc">
	<path fill="#BFBFBF" stroke="#494949" stroke-miterlimit="10" d="M1498.944,1625.483L1498.944,1625.483h98.995v-62.998h-97.495l0,0
		l0,0v-457.477l0,0l0,0h68.752V673.419h-29.837l0,0l0,0V321.401l-11.872-0.333l-6.364-0.18c0.906-6.982,1.381-14.093,1.381-21.308
		c0-95.599-81.928-173.097-182.991-173.097c-101.062,0-182.991,77.498-182.991,173.097c0,3.729,0.141,7.426,0.387,11.096
		l-187.547-5.258l-204,698v155h-234l58-395l-56.697-8.798c-5.847-64.911-59.704-115.76-125.29-115.76
		c-52.282,0-97.113,32.312-116.113,78.301l-49.9-7.743l-102,740l50.044,7.438c-0.264,3.371-0.403,6.779-0.403,10.221
		c0,70.414,56.334,127.494,125.826,127.494c60.454,0,110.941-43.203,123.055-100.799l51.479,7.646l17-131h264l-0.312,27.455
		c-105.165,7.895-187.951,92.59-187.951,195.914c0,94.631,59.088,155.166,124.263,190.631c93.817,51.055,290,160,290,160h502.585
		v-318.938h-0.003V1625.483z M355.358,1502.088c-12,12-40.667,42-81.333,0c-22.667-28.668,4.667-33.334,4.667-33.334l72,10.666
		C350.691,1479.42,367.358,1490.088,355.358,1502.088z M443.673,769.729l-71.595-12.775c0,0-16.396-11.65-4.164-24.129
		c12.23-12.479,41.478-43.705,81.136,1.656C471.041,765.336,443.673,769.729,443.673,769.729z M783.359,1698.418c-32-1-93-36-91-105
		c0,0-8-66,81-92c2,1,35-10,35,9s0,166,0,166S815.359,1699.418,783.359,1698.418z M1414.938,313.725
		c-16.295-0.396-142.361-3.467-142.361-3.467s-19.861,5.096-18.382-20.374c1.479-25.47,32.678-73.329,91.812-70.294
		c0,0,56.757-4.993,77.328,66.443C1422.439,287.606,1431.233,314.123,1414.938,313.725z"/>
	<path fill="#BFBFBF" stroke="#494949" stroke-miterlimit="10" d="M3634.712,585.773h20v-42h-22v-65l-53-4v-18l-144-6.464l-92-4.128
		l-76-3.408v20l-26-1.369l-4.502-0.237l-45.498-2.395v-36l-34.176-1.898l-1.824-0.102v-60l-90-3.83l-3.291-0.141l-0.709-0.029v-16
		l-94.006-2.394l-4.982-0.127l-451.012-11.479v-30l-206-8v-82l-696-20v136l-72-2.02v352.02h29.837v431.59h-68.752v457.477h97.495
		v62.996h-98.995v318.938h401.98h25.435c0,0,12.158-12.158,13-13c1.328,0.641,2.656,1.246,3.983,1.83
		c0.078,0.035,0.156,0.066,0.234,0.102c1.279,0.562,2.559,1.092,3.836,1.605c0.002,0,0.006,0.002,0.01,0.004
		c0.013,0.006,0.021,0.01,0.035,0.016c3.998,1.596,7.988,2.955,11.947,4.104c0.078,0.021,0.156,0.045,0.234,0.068
		c0.879,0.254,1.756,0.494,2.631,0.727c0.191,0.053,0.385,0.104,0.576,0.152c0.828,0.217,1.652,0.424,2.477,0.623
		c0.23,0.055,0.457,0.107,0.688,0.16c0.812,0.191,1.621,0.377,2.428,0.553c0.203,0.043,0.406,0.084,0.611,0.127
		c2.559,0.539,5.096,0.998,7.606,1.383c0.279,0.043,0.563,0.092,0.842,0.133c0.603,0.09,1.195,0.168,1.793,0.248
		c0.468,0.062,0.935,0.125,1.396,0.184c0.537,0.066,1.07,0.127,1.604,0.188c0.527,0.061,1.054,0.117,1.574,0.17
		c0.49,0.049,0.979,0.098,1.463,0.141c0.58,0.053,1.156,0.102,1.73,0.146c0.436,0.035,0.871,0.068,1.303,0.1
		c0.66,0.047,1.314,0.086,1.967,0.123c0.351,0.02,0.699,0.043,1.045,0.061c1.002,0.049,1.996,0.094,2.982,0.121
		c0.357,0.01,0.707,0.012,1.063,0.021c0.018,0,0.032,0,0.053,0c32.517,0.736,56.887-9.082,56.887-9.082l8,11h655
		c0,0,0.236-4.266,0.363-8.645c0.024-0.559,0.053-1.115,0.08-1.664v0.01c0.19-3.906,0.406-7.418,0.557-7.367
		c13.99,4.76,27.668,8.715,41,11.969c17.353,4.236,34.406,6.986,51.023,8.525c72.584,6.719,136.78-9.684,180.711-26.33
		c37.946-14.383,60.771-28.947,60.771-28.947s80.246,5.248,118.494-33c0.74-0.74,1.457-1.498,2.162-2.264
		c38.521-41.896,23.338-120.729,23.338-120.729s53.996-80.996,53.996-177.061c0-9.846-0.174-19.318-0.49-28.436l-7.041-79.494
		c-7.52-50.936-17.967-77.994-17.967-77.994l61,1.424v-127v-102v-92v-114v-82h-33v-69.396v-0.604h17v32.423h139.977l26.023-4.232
		l148,2.811v-20h53v-58h22v-40h-20v-63v-53h0.003V585.773z"/>
	<path fill="#DDDDDD" stroke="#000000" stroke-miterlimit="10" d="M2857.458,962.518c0,111,0,285.444,0,285.444s1.897,0,67.356,0
		c60.49,0,80.541-68.209,80.541-80.541c0-52.5-0.606-62.242-0.606-132C3004.75,944.519,2857.458,962.518,2857.458,962.518z"/>
	<path fill="#DDDDDD" stroke="#000000" stroke-miterlimit="10" d="M2219.359,1653.418h276.545c25.957,0,47-21.043,47-47v-34
		c0-25.957-21.043-47-47-47h-276.545V1653.418z"/>
	<rect x="2145.359" y="1525.418" fill="#BFBFBF" stroke="#494949" stroke-miterlimit="10" width="74" height="128"/>
	<path fill="#DDDDDD" stroke="#000000" stroke-miterlimit="10" d="M3033.359,734.419c0,38.107-30.894,69-69,69h-37.898
		c-38.107,0-69-30.893-69-69v-28c0-38.106,30.893-69,69-69h37.898c38.106,0,69,30.894,69,69V734.419z"/>
	<path fill="#DDDDDD" stroke="#000000" stroke-miterlimit="10" d="M2757.361,1504.086c58.666,0,60-84.666,78-119.334
		c4.158-8.012,13.176-15.221,24.83-20.27c40.996-17.764,114.639-8.797,124.502,85.936c6.399,88.336-38.498,142.053-70.334,177.668
		c-19.666,22.002-134.998,82.67-224.332,20.668C2618.218,1574.086,2687.361,1504.086,2757.361,1504.086z"/>
	<path fill="#DDDDDD" stroke="#000000" stroke-miterlimit="10" d="M2092.859,1675.397c0,25.449-44.437,46.082-99.244,46.082l0,0
		c-54.813,0-99.247-20.633-99.247-46.082v-107.5c0-25.451,44.434-46.082,99.247-46.082l0,0c54.811,0,99.244,20.631,99.244,46.082
		V1675.397z"/>
	<path fill="#BFBFBF" stroke="#494949" stroke-miterlimit="10" d="M2708.359,1444.918v32.5c0,0,26,33,47,0c0,0,49,18,38-34
		c0,0,35-26-3-42h-28v16l-26,26.5L2708.359,1444.918z"/>
	<rect x="2230.41" y="1653.418" fill="#BFBFBF" stroke="#494949" stroke-miterlimit="10" width="73.496" height="43.98"/>
	<rect x="2156.412" y="1653.889" fill="#BFBFBF" stroke="#494949" stroke-miterlimit="10" width="45.004" height="43.979"/>
	<path fill="#BFBFBF" stroke="#494949" stroke-miterlimit="10" d="M2690.025,1648.754v66.725c0,0,10.912,16.885,16.887,16.885
		c5.973,0,50.447,0,50.447,0s25.202-9.521,25.202-25.201c0-15.682,0-31.754,0-31.754S2748.166,1682.526,2690.025,1648.754z"/>
	<path id="kane-mochi" fill="#BFBFBF" stroke="#494949" stroke-miterlimit="10" d="M2897.138,622.07
		c5.459,6.229,4.834,15.708-1.396,21.167l-48.887,42.838c-6.229,5.459-15.707,4.835-21.168-1.396l-7.906-9.023
		c-5.461-6.23-4.836-15.708,1.395-21.167l48.887-42.839c6.23-5.459,15.707-4.836,21.168,1.396L2897.138,622.07z"/>
	<rect x="1520.859" y="1377.418" fill="#BFBFBF" stroke="#494949" stroke-miterlimit="10" width="35.582" height="105.191"/>
	<path fill="#BFBFBF" stroke="#494949" stroke-miterlimit="10" d="M2781.359,435.419v202c2.059,0,4.062,0,6,0
		c14.059-18.14,28.164-32.361,42-43.525V435.419H2781.359z"/>
	<polygon fill="#BFBFBF" stroke="#494949" stroke-miterlimit="10" points="3638.359,702.419 3638.359,640.419 3567.359,640.419 
		3567.359,664.031 3509.359,664.031 3509.359,694.021 3489.359,694.021 3489.359,735.419 3440.359,735.419 3440.359,817.704 
		3583.359,820.419 3583.359,800.419 3636.359,800.419 3636.359,742.419 3658.359,742.419 3658.359,702.419 	"/>
	<path fill="#BFBFBF" stroke="#494949" stroke-miterlimit="10" d="M3268.359,664.031c-19.586,0-39.007,0-55,0
		c-43.992,0-57.125,61.328-61.017,95.389h116.017V664.031z"/>
	<path fill="#BFBFBF" stroke="#494949" stroke-miterlimit="10" d="M3367.359,735.419V664.03c0,0-50.015,0-99,0v125.389h1v32.423
		h139.977l26.023-4.231l5,0.095V735.42L3367.359,735.419L3367.359,735.419z"/>
	<rect x="2421.898" y="1653.418" fill="#BFBFBF" stroke="#494949" stroke-miterlimit="10" width="73.496" height="43.98"/>
	<path fill="#BFBFBF" stroke="#494949" stroke-miterlimit="10" d="M2536.701,1629.774c0,0,22.658,12.209,22.658,31.709
		c0,19.498,0,35.916,0,35.916h-41.468v-49.434C2517.893,1647.965,2531.296,1635.174,2536.701,1629.774z"/>
	<path fill="#BFBFBF" stroke="#494949" stroke-miterlimit="10" d="M3033.917,1440.993h-49.733
		c3.771,25.613,0.672,48.029,0.672,48.029s0,0,25.033,0c25.032,0,24.028-24.029,24.028-24.029S3033.917,1453.959,3033.917,1440.993z
		"/>
</g>
<g id="rooms">
	<polygon id="central-department-store" fill="#939598" stroke="#494949" stroke-miterlimit="10" points="2490.559,1201.418 
		2559.359,1135.655 2559.359,453.419 2515.359,453.419 2515.359,453.419 2515.359,453.419 2515.359,297.419 2309.359,289.419 
		2309.359,207.419 1613.359,187.419 1613.359,1201.418 2383.359,1201.418 2383.359,1314.418 2490.559,1314.418 	"/>
	<path id="r411" fill="#939598" stroke="#494949" stroke-miterlimit="10" d="M2803.359,929.419h-244v106h244
		C2803.359,983.264,2803.359,950.208,2803.359,929.419z"/>
	<path id="r410-1" fill="#939598" stroke="#494949" stroke-miterlimit="10" d="M2803.359,1077.418h-244v52h244
		C2803.359,1110.635,2803.359,1093.34,2803.359,1077.418z"/>
	<path id="r409" fill="#939598" stroke="#494949" stroke-miterlimit="10" d="M2559.359,1129.418v6.236l-68.802,65.764v8h84.802l0,0
		h84.979l0,0l0,0l90.773,115.771c30.602-46.162,52.248-107.652,52.248-189.271c0-2.189,0-4.348,0-6.5H2559.359z"/>
	<path id="r403-404" fill="#939598" stroke="#494949" stroke-miterlimit="10" d="M2086.359,1201.418v227.5
		c0,0,8.5,29.75,29.75,29.75c8.666,0,82.657,0,167.25,0v-257.25H2086.359z"/>
	<path id="r405" fill="#939598" stroke="#494949" stroke-miterlimit="10" d="M2283.359,1201.418v257.25c32.805,0,67.198,0,100,0
		v-144.25v-113H2283.359z"/>
	<path id="r406" fill="#939598" stroke="#494949" stroke-miterlimit="10" d="M2475.359,1314.418h-92v144.25c33.457,0,65.254,0,92,0
		V1314.418z"/>
	<path id="r407" fill="#939598" stroke="#494949" stroke-miterlimit="10" d="M2490.559,1209.418v105h-15.199v144.25
		c45.213,0,76,0,76,0s9.172-1.615,24-6.15v-243.1H2490.559z"/>
	<path id="r408" fill="#939598" stroke="#494949" stroke-miterlimit="10" d="M2751.111,1325.19l-90.773-115.771h-84.979v243.1
		C2615.509,1440.241,2697.203,1406.512,2751.111,1325.19z"/>
	<path id="r410-2" fill="#939598" stroke="#494949" stroke-miterlimit="10" d="M2803.359,1035.419h-244v42h244
		C2803.359,1062.206,2803.359,1048.229,2803.359,1035.419z"/>
	<path id="r412" fill="#939598" stroke="#494949" stroke-miterlimit="10" d="M2803.359,897.419c0-1.447,0-1.96,0-1.99
		C2803.359,895.459,2803.359,895.973,2803.359,897.419c0,0,8-61.021-42-61.021s-202,0-202,0v93.021h244
		C2803.359,909.512,2803.359,900.844,2803.359,897.419z"/>
	<g id="r402-436">
		<polygon fill="#939598" stroke="#494949" stroke-miterlimit="10" points="1713.359,1210.229 1713.359,1323.229 1603.359,1323.229 
			1603.359,1282.229 1559.359,1282.229 1559.359,1386.229 1556.441,1386.229 1556.441,1491.418 1560.168,1491.418 1613.359,1544.61 
			1669.74,1544.61 1709.74,1504.61 1831.74,1504.61 1898.621,1437.729 1898.621,1210.229 		"/>
		<path fill="#939598" stroke="#494949" stroke-miterlimit="10" d="M2131.359,1925.418v-84h29.002v-45.246h-275.002l-100-102.414
			v-39.332h-152l-71,67.053v35.939l37.579,2l13.421,14.254h118v106.746h-42v64h44.041h169.523h25.436c0,0,12.158-12.158,13-13
			c1.326,0.641,2.654,1.246,3.982,1.83c0.08,0.035,0.158,0.066,0.236,0.102c1.277,0.561,2.557,1.094,3.836,1.604
			c0.002,0.002,0.006,0.004,0.008,0.004c0.012,0.006,0.023,0.01,0.037,0.014c3.998,1.6,7.988,2.957,11.947,4.105
			c0.078,0.021,0.156,0.047,0.234,0.068c0.879,0.254,1.754,0.494,2.631,0.727c0.19,0.053,0.385,0.105,0.573,0.152
			c0.828,0.217,1.654,0.424,2.479,0.623c0.229,0.055,0.457,0.107,0.686,0.162c0.813,0.189,1.621,0.377,2.43,0.551
			c0.203,0.045,0.406,0.084,0.609,0.127c2.559,0.541,5.096,1,7.609,1.385c0.279,0.043,0.561,0.09,0.842,0.131
			c0.6,0.088,1.195,0.166,1.793,0.246c0.467,0.064,0.934,0.127,1.396,0.184c0.537,0.066,1.069,0.127,1.604,0.189
			c0.525,0.061,1.051,0.117,1.574,0.17c0.488,0.049,0.977,0.098,1.463,0.141c0.58,0.055,1.154,0.102,1.73,0.146
			c0.436,0.035,0.869,0.07,1.303,0.1c0.658,0.047,1.312,0.086,1.967,0.123c0.348,0.021,0.697,0.043,1.045,0.061
			c1.002,0.051,1.996,0.092,2.982,0.121c0.354,0.012,0.705,0.014,1.061,0.021c0.018,0,0.035,0,0.053,0
			c32.519,0.736,56.888-9.082,56.888-9.082l8,11h31.057h79.943v-21h-41.998L2131.359,1925.418L2131.359,1925.418z"/>
	</g>
	
		<rect id="r435" x="2173.359" y="1796.172" fill="#939598" stroke="#494949" stroke-miterlimit="10" width="390.936" height="150.246"/>
	<polygon id="r434" fill="#939598" stroke="#494949" stroke-miterlimit="10" points="2718.359,1925.418 2646.958,1925.418 
		2646.958,1761.069 2614.755,1761.069 2579.652,1796.172 2564.294,1796.172 2564.294,1946.418 2718.359,1946.418 	"/>
	<path id="r428" fill="#939598" stroke="#494949" stroke-miterlimit="10" d="M3242.326,1452.991
		c-5.488-37.178-12.533-61.619-15.939-72.119l-2.027-1.451h-101v76h119.185L3242.326,1452.991z"/>
	<path id="r429" fill="#939598" stroke="#494949" stroke-miterlimit="10" d="M3249.367,1532.487l-6.826-77.066h-119.182v3.25
		l-71.189,74.75h197.228C3249.384,1533.112,3249.376,1532.793,3249.367,1532.487z"/>
	<path id="r430" fill="#939598" stroke="#494949" stroke-miterlimit="10" d="M3170.361,1860.969c0.74-0.738,1.457-1.498,2.162-2.264
		c38.521-41.896,23.338-120.73,23.338-120.73s53.996-80.994,53.996-177.059c0-9.512-0.166-18.672-0.461-27.5h-197.229
		l-101.879,106.973l219.652,220.984C3170.08,1861.239,3170.222,1861.108,3170.361,1860.969z"/>
	<path id="r431" fill="#939598" stroke="#494949" stroke-miterlimit="10" d="M2950.291,1640.391l-114.932,120.678v189.607
		c62.27,1.457,116.918-13.051,155.733-27.76c37.949-14.383,60.773-28.947,60.773-28.947s79.664,5.205,118.071-32.594
		L2950.291,1640.391z"/>
	<path id="r433" fill="#939598" stroke="#494949" stroke-miterlimit="10" d="M2663.236,1761.069v92.676h52.123v79.676l1.301,13
		h0.699c0,0,0.236-4.268,0.363-8.645c0.024-0.559,0.053-1.115,0.08-1.666v0.01c0.19-3.904,0.405-7.418,0.557-7.367
		c13.295,4.523,26.301,8.314,39,11.471v-179.15h-94.123V1761.069z"/>
	<path id="r432" fill="#939598" stroke="#494949" stroke-miterlimit="10" d="M2757.359,1761.069v179.152
		c0.666,0.166,1.336,0.338,2,0.5c17.352,4.236,34.405,6.986,51.022,8.525c8.447,0.781,16.772,1.238,24.978,1.43v-189.607H2757.359
		L2757.359,1761.069z"/>
	<path id="r424" fill="#939598" stroke="#494949" stroke-miterlimit="10" d="M3285.359,955.905h-58v45.515h-34v-19h-106
		c0,0,0,32.396,0,77h198V955.905z"/>
	<path id="r425" fill="#939598" stroke="#494949" stroke-miterlimit="10" d="M3285.359,1059.418h-198c0,29.303,0,63.877,0,98h198
		V1059.418z"/>
	<path id="r427" fill="#939598" stroke="#494949" stroke-miterlimit="10" d="M3087.359,1314.418c0,27,44,29,44,29h51.592v-94
		h-95.592C3087.359,1282.678,3087.359,1307.549,3087.359,1314.418z"/>
	<path id="r426" fill="#939598" stroke="#494949" stroke-miterlimit="10" d="M3285.359,1249.418v-92h-198c0,32.771,0,65.125,0,92
		h95.592v-1.459L3285.359,1249.418z"/>
	<path id="r413-414" fill="#939598" stroke="#494949" stroke-miterlimit="10" d="M2681.359,435.419v32h-82v170c0,0,37.696,0,82,0
		c15.961,0,32.776,0,49,0v-202H2681.359z"/>
	<path id="r415" fill="#939598" stroke="#494949" stroke-miterlimit="10" d="M2730.359,435.419v202c18.493,0,36.211,0,51,0v-202
		H2730.359z"/>
	<path id="r417" fill="#939598" stroke="#494949" stroke-miterlimit="10" d="M2829.359,435.419v158.476
		c16.936-13.664,33.459-22.718,49-28.729V435.419H2829.359z"/>
	<path id="r419" fill="#939598" stroke="#494949" stroke-miterlimit="10" d="M2971.352,339.027v96.393h-0.992v118
		c35.867,0,86.309,0,94,0V341.394L2971.352,339.027z"/>
	<path id="r421-1" fill="#939598" stroke="#494949" stroke-miterlimit="10" d="M3245.359,462.051l-4.502-0.235l-45.498-2.396v-36
		l-34.179-1.896l-1.821-0.104v161.713c35.063,8.892,66.672,14.632,92,18.325v-139.09L3245.359,462.051z"/>
	<path id="r421-2" fill="#939598" stroke="#494949" stroke-miterlimit="10" d="M3439.359,450.958l-92-4.128l-76-3.41v20l-20-1.053
		v139.09c38.11,5.557,62,6.473,62,6.473v-36.511h58v-32h74v-88.192L3439.359,450.958z"/>
	<polygon id="r421-3" fill="#939598" stroke="#494949" stroke-miterlimit="10" points="3638.359,639.419 3638.359,586.419 
		3658.359,586.419 3658.359,544.419 3636.359,544.419 3636.359,479.419 3583.359,475.419 3583.359,457.419 3445.359,451.227 
		3445.359,539.419 3491.359,539.419 3491.359,577.419 3511.359,577.419 3511.359,609.704 3567.359,609.704 3567.359,640.419 
		3638.359,640.419 	"/>
	<path id="r422-1" fill="#939598" stroke="#494949" stroke-miterlimit="10" d="M3252.359,790.025v-0.606h16v-30h-116.017
		c-1.063,9.297-1.438,16.569-1.563,20c-0.575,16-55.424,68-55.424,68v10h157v-67.394H3252.359z"/>
	<polygon id="r423-1" fill="#939598" stroke="#494949" stroke-miterlimit="10" points="3285.359,859.419 3252.359,859.419 
		3252.359,857.419 3095.359,857.419 3095.359,881.419 3285.359,881.419 	"/>
	<rect id="r423-2" x="3095.359" y="881.419" fill="#939598" stroke="#494949" stroke-miterlimit="10" width="190" height="24"/>
	<rect id="r423-3" x="3095.359" y="905.419" fill="#939598" stroke="#494949" stroke-miterlimit="10" width="190" height="24"/>
	<polygon id="r423-4" fill="#939598" stroke="#494949" stroke-miterlimit="10" points="3095.359,929.419 3095.359,955.905 
		3285.359,955.905 3285.359,941.419 3285.359,929.419 	"/>
	<path id="r420" fill="#939598" stroke="#494949" stroke-miterlimit="10" d="M3159.359,361.419l-90-3.83l-3.291-0.14l-0.709-0.03
		v-16l-1-0.025v212.025c0.653,0,1,0,1,0c32.649,12.558,64.543,22.245,94,29.713V421.419V361.419z"/>
	<path id="r418" fill="#939598" stroke="#494949" stroke-miterlimit="10" d="M2878.359,435.419v129.745
		c27.76-10.74,52.368-11.745,70.491-11.745c5.972,0,13.363,0,21.509,0v-118H2878.359z"/>
	
		<rect id="superrich" x="2327.404" y="1653.418" fill="#939598" stroke="#494949" stroke-miterlimit="10" width="73.496" height="43.98"/>
	<path id="naihua-roti-chachuk" fill="#939598" stroke="#494949" stroke-miterlimit="10" d="M2629.037,1634.418
		c-7.555,0-13.676-6.715-13.676-15v-72c0-8.283,6.121-15,13.676-15h17.318c7.553,0,13.676,6.717,13.676,15v72
		c0,8.285-6.123,15-13.676,15H2629.037z"/>
	<path id="amazon" fill="#939598" stroke="#494949" stroke-miterlimit="10" d="M2944.695,1342.086c0,8.283-6.717,15-15,15h-72
		c-8.285,0-15-6.717-15-15v-18.998c0-8.285,6.715-15,15-15h72c8.283,0,15,6.715,15,15V1342.086z"/>
	<path id="bkk-insurance" fill="#939598" stroke="#494949" stroke-miterlimit="10" d="M3033.917,1414.372
		c0-19.123-22.549-22.547-22.549-22.547h-46.338c11.233,14.141,16.674,32.344,19.149,49.168h49.734
		C3033.917,1432.045,3033.917,1422.176,3033.917,1414.372z"/>
	
		<rect id="squeeze" x="2849.376" y="1035.419" fill="#939598" stroke="#494949" stroke-miterlimit="10" width="31.5" height="108.589"/>
	<path id="coffee-planet" fill="#939598" stroke="#494949" stroke-miterlimit="10" d="M2971.352,899.521
		c0,0,33.801,4.603,33.801,33.8c0,40.767-24.101,51.821-24.101,51.821s-24.825-28.861-123.594-22.626v-36.43
		c0,0,0-26.564,15.897-26.564C2892.025,899.521,2971.352,899.521,2971.352,899.521z"/>
	<path id="milkkan" fill="#939598" stroke="#494949" stroke-miterlimit="10" d="M3067.154,689.591
		c-5.838,5.878-15.336,5.911-21.213,0.073l-46.121-45.803c-5.877-5.838-5.91-15.336-0.072-21.214l8.457-8.516
		c5.836-5.878,15.334-5.911,21.211-0.072l46.121,45.804c5.877,5.837,5.91,15.335,0.072,21.214L3067.154,689.591z"/>
</g>
<g id="signs">
	<g id="escalator">
		<rect x="1924.859" y="1592.418" width="45" height="45"/>
		<rect x="2725.359" y="1560.918" width="45" height="45"/>
		<rect x="2869.359" y="1406.418" width="45" height="45"/>
		<rect x="2926.352" y="681.428" width="45" height="45"/>
	</g>
	<g id="lift">
		<rect x="1498.359" y="1113.418" width="45" height="45"/>
		<rect x="1547.359" y="515.419" width="45" height="45"/>
		<rect x="1498.359" y="1186.418" width="45" height="45"/>
		<rect x="3403.328" y="562.93" width="45" height="45"/>
		<rect x="3403.328" y="664.031" width="45" height="45"/>
	</g>
	<g id="toilet">
		<rect x="1529.359" y="1880.418" width="45" height="45"/>
		<rect x="2611.341" y="364.17" width="45" height="45"/>
	</g>
	<g id="parking">
		<rect x="1160.29" y="791.398" width="45" height="45"/>
		<rect x="341.208" y="1068.418" width="45" height="45"/>
	</g>
	<rect id="handicapped-parking" x="1178.79" y="1773.672" width="45" height="45"/>
	<g id="wifi">
		<rect x="2738.794" y="707.919" width="45" height="45"/>
		<rect x="2707.859" y="1394.918" width="45" height="45"/>
		<rect x="2891.859" y="1605.586" width="45" height="45"/>
	</g>
</g>
</svg>
