<?xml version="1.0" encoding="utf-8"?>
<!-- Generator: Adobe Illustrator 16.0.0, SVG Export Plug-In . SVG Version: 6.00 Build 0)  -->
<!DOCTYPE svg PUBLIC "-//W3C//DTD SVG 1.1//EN" "http://www.w3.org/Graphics/SVG/1.1/DTD/svg11.dtd">
<svg version="1.1" id="Layer_1" xmlns="http://www.w3.org/2000/svg" xmlns:xlink="http://www.w3.org/1999/xlink" x="0px" y="0px"
	 width="1000px" height="1000px" viewBox="0 0 1000 1000" enable-background="new 0 0 1000 1000" xml:space="preserve">
<g id="background">
</g>
<g id="etc">
	<path fill="#BFBFBF" stroke="#494949" stroke-miterlimit="10" d="M155.22,423.786l-14.932-2.317
		c-1.527-17.092-15.722-30.497-32.998-30.497c-13.773,0-25.571,8.506-30.575,20.621l-13.141-2.028l-26.862,194.88l13.167,1.949
		c-0.079,0.896-0.105,1.79-0.105,2.686c0,18.54,14.827,33.578,33.13,33.578c15.933,0,29.206-11.377,32.418-26.546l13.562,2.001
		L155.22,423.786z M93.595,618.324c-3.16,3.16-10.718,11.061-21.411,0c-5.978-7.559,1.238-8.77,1.238-8.77l18.961,2.817
		C92.357,612.346,96.755,615.164,93.595,618.324z M116.849,425.445l-18.856-3.345c0,0-4.319-3.082-1.106-6.347
		c3.213-3.292,10.929-11.509,21.358,0.447C124.039,424.286,116.849,425.445,116.849,425.445z"/>
	<path fill="#BFBFBF" stroke="#494949" stroke-miterlimit="10" d="M957.205,377.015h5.268v-11.061h-5.794v-17.118l-13.958-1.053
		v-4.741l-37.922-1.711l-24.229-1.08l-20.016-0.895v5.267l-6.847-0.368l-1.185-0.053l-11.983-0.632v-9.48l-9.007-0.5l-0.474-0.026
		V317.76l-24.57-1.053h-0.185v-4.214l-24.755-0.632l-1.317-0.026l-118.771-3.028v-7.901l-54.25-2.107v-21.595l-183.293-5.267v35.816
		l-18.962-0.526v0.158l-2.686-0.079l-1.686-0.052c0.236-1.844,0.368-3.713,0.368-5.609c0-25.177-21.568-45.586-48.193-45.586
		s-48.193,20.41-48.193,45.586c0,0.974,0.026,1.949,0.105,2.923l-49.378-1.396L201.569,486.99l1.238,103.893
		c-27.705,2.08-49.51,24.387-49.51,51.591c0,24.913,15.564,40.872,32.734,50.194c24.703,13.458,76.372,42.137,76.372,42.137h132.361
		v-0.158h105.42h6.688c0,0,3.213-3.213,3.424-3.424c0.343,0.158,0.711,0.316,1.054,0.475c0.026,0,0.053,0.026,0.053,0.026
		c0.342,0.158,0.685,0.289,1.001,0.421l0,0l0,0c1.053,0.422,2.106,0.79,3.134,1.08c0.026,0,0.053,0,0.053,0.026
		c0.236,0.079,0.474,0.132,0.685,0.185c0.053,0.026,0.105,0.026,0.158,0.053c0.21,0.052,0.447,0.104,0.658,0.157
		c0.053,0.026,0.132,0.026,0.184,0.053c0.211,0.053,0.422,0.105,0.633,0.158c0.053,0,0.105,0.026,0.158,0.026
		c0.685,0.132,1.343,0.264,2.001,0.369c0.079,0,0.158,0.025,0.211,0.025c0.158,0.026,0.315,0.053,0.474,0.053
		c0.132,0.026,0.237,0.026,0.369,0.053s0.289,0.026,0.421,0.053s0.29,0.026,0.422,0.053c0.132,0,0.263,0.026,0.395,0.026
		c0.158,0.026,0.316,0.026,0.448,0.026c0.105,0,0.236,0.026,0.342,0.026c0.185,0,0.343,0.026,0.527,0.026
		c0.078,0,0.184,0,0.263,0.026c0.264,0,0.527,0.026,0.79,0.026c0.105,0,0.185,0,0.29,0c0,0,0,0,0.026,0
		c8.559,0.185,14.984-2.396,14.984-2.396l2.107,2.896h172.495c0,0,0.053-1.132,0.105-2.265c0-0.158,0.026-0.29,0.026-0.447l0,0
		c0.053-1.027,0.105-1.949,0.158-1.949c3.687,1.265,7.295,2.291,10.797,3.16c4.582,1.106,9.06,1.844,13.432,2.238
		c19.119,1.765,36.026-2.554,47.587-6.926c9.981-3.792,16.012-7.611,16.012-7.611s21.121,1.37,31.208-8.69
		c0.184-0.184,0.395-0.395,0.579-0.605c10.139-11.034,6.136-31.786,6.136-31.786s14.221-21.332,14.221-46.64
		c0-2.581-0.053-5.083-0.131-7.479l-1.844-20.937c-1.975-13.404-4.74-20.541-4.74-20.541l16.064,0.368v-33.445v-26.862V500.5
		v-30.021v-21.596h-8.69v-18.276v-0.158h4.477v8.533h36.869l6.848-1.106l38.976,0.737v-5.267h13.958v-15.274h5.794v-10.534h-5.268
		v-16.591V377.015L957.205,377.015z M206.31,670.02c-8.427-0.263-24.492-9.48-23.965-27.651c0,0-2.106-17.382,21.332-24.229
		c0.527,0.264,9.217-2.634,9.217,2.37s0,43.717,0,43.717S214.737,670.283,206.31,670.02z M372.617,305.356
		c-4.293-0.105-37.502-0.922-37.502-0.922s-5.24,1.343-4.846-5.372c0.396-6.715,8.611-19.304,24.176-18.514
		c0,0,14.959-1.317,20.357,17.486C374.592,298.483,376.909,305.462,372.617,305.356z"/>
	<g>
		<polygon fill="#BFBFBF" stroke="#494949" stroke-miterlimit="10" points="762.035,384.178 784.763,384.178 800.827,401.559 
			800.827,426.445 784.895,443.326 761.693,443.326 745.971,426.104 745.971,401.559 		"/>
		<polygon fill="#BFBFBF" stroke="#494949" stroke-miterlimit="10" points="760.666,419.309 760.666,408.064 768.066,399.874 
			778.39,399.874 785.947,407.774 785.947,419.52 778.731,427.262 767.697,427.262 		"/>
		<polygon fill="#BFBFBF" stroke="#494949" stroke-miterlimit="10" points="762.088,418.888 762.088,408.749 768.698,401.375 
			777.941,401.375 784.684,408.485 784.684,419.072 778.231,426.024 768.355,426.024 		"/>
		<polygon fill="#BFBFBF" stroke="#494949" stroke-miterlimit="10" points="800.827,426.445 800.827,523.518 784.763,546.087 
			762.035,546.087 745.971,523.518 745.971,426.104 761.693,443.326 784.895,443.326 		"/>
		<line fill="none" stroke="#494949" stroke-miterlimit="10" x1="745.971" y1="401.559" x2="800.511" y2="425.945"/>
		<line fill="none" stroke="#494949" stroke-miterlimit="10" x1="745.971" y1="426.104" x2="800.827" y2="401.559"/>
		<polygon fill="#BFBFBF" stroke="#494949" stroke-miterlimit="10" points="761.771,443.143 761.693,443.326 761.693,521.753 
			768.883,528.837 777.915,528.837 784.895,521.305 784.895,443.326 784.815,443.143 		"/>
		<polygon fill="#BFBFBF" stroke="#494949" stroke-miterlimit="10" points="762.035,384.178 773.359,413.436 784.763,384.178 		"/>
		<polygon fill="#BFBFBF" stroke="#494949" stroke-miterlimit="10" points="773.359,413.436 761.771,443.143 784.815,443.143 		"/>
		<polyline fill="#BFBFBF" stroke="#494949" stroke-miterlimit="10" points="767.671,443.326 767.407,519.356 770.884,522.464 
			775.703,522.464 779.39,519.356 779.39,443.326 		"/>
		<line fill="none" stroke="#494949" stroke-miterlimit="10" x1="773.359" y1="516.96" x2="762.035" y2="546.087"/>
		<line fill="none" stroke="#494949" stroke-miterlimit="10" x1="773.359" y1="516.96" x2="784.288" y2="546.087"/>
		<line fill="none" stroke="#494949" stroke-miterlimit="10" x1="772.965" y1="516.96" x2="748.552" y2="527.178"/>
		<line fill="none" stroke="#494949" stroke-miterlimit="10" x1="773.754" y1="516.96" x2="798.035" y2="527.468"/>
		<line fill="none" stroke="#494949" stroke-miterlimit="10" x1="772.965" y1="516.96" x2="773.754" y2="516.96"/>
		<line fill="none" stroke="#494949" stroke-miterlimit="10" x1="773.359" y1="516.96" x2="773.359" y2="443.326"/>
		<line fill="none" stroke="#494949" stroke-miterlimit="10" x1="761.509" y1="445.881" x2="784.895" y2="445.881"/>
		<line fill="none" stroke="#494949" stroke-miterlimit="10" x1="761.509" y1="452.097" x2="784.895" y2="452.097"/>
		<line fill="none" stroke="#494949" stroke-miterlimit="10" x1="761.509" y1="458.522" x2="784.895" y2="458.522"/>
		<line fill="none" stroke="#494949" stroke-miterlimit="10" x1="761.509" y1="464.896" x2="784.895" y2="464.896"/>
		<line fill="none" stroke="#494949" stroke-miterlimit="10" x1="761.509" y1="471.348" x2="784.895" y2="471.348"/>
		<line fill="none" stroke="#494949" stroke-miterlimit="10" x1="761.509" y1="477.721" x2="784.895" y2="477.721"/>
		<line fill="none" stroke="#494949" stroke-miterlimit="10" x1="761.509" y1="484.173" x2="784.895" y2="484.173"/>
		<line fill="none" stroke="#494949" stroke-miterlimit="10" x1="761.509" y1="490.967" x2="784.895" y2="490.967"/>
		<line fill="none" stroke="#494949" stroke-miterlimit="10" x1="761.509" y1="496.972" x2="784.895" y2="496.972"/>
		<line fill="none" stroke="#494949" stroke-miterlimit="10" x1="761.509" y1="503.424" x2="784.895" y2="503.424"/>
		<line fill="none" stroke="#494949" stroke-miterlimit="10" x1="761.509" y1="509.797" x2="784.895" y2="509.797"/>
		<line fill="none" stroke="#494949" stroke-miterlimit="10" x1="761.509" y1="516.67" x2="784.895" y2="516.67"/>
	</g>
	<polygon id="_x3C_Path_x3E__4_" fill="#BFBFBF" stroke="#494949" stroke-miterlimit="10" points="519.699,469.636 508.322,457.601 
		494.681,472.585 505.478,484.173 	"/>
	<polygon id="_x3C_Path_x3E__3_" fill="#BFBFBF" stroke="#494949" stroke-miterlimit="10" points="500.526,449.357 486.569,464.236 
		486.911,464.236 494.681,472.585 508.322,457.601 	"/>
	<path id="_x3C_Path_x3E__2_" fill="#BFBFBF" stroke="#494949" stroke-miterlimit="10" d="M485.727,291.952v29.1l9.138,9.323
		c10.64-8.427,23.702-13.536,37.87-13.931v-24.492H485.727L485.727,291.952z"/>
	<path id="_x3C_Path_x3E__1_" fill="#BFBFBF" stroke="#494949" stroke-miterlimit="10" d="M580.401,311.888
		c0,0-11.166-9.981-24.466-11.903c0-5.083,0-8.032,0-8.032h-22.385h-0.79v24.492c0.579-0.026,1.159-0.026,1.738-0.026
		c24.018,0,45.06,13.589,56.805,33.972l12.536-13.589v-24.887h-23.438V311.888z"/>
	<path id="_x3C_Path_x3E_" fill="#BFBFBF" stroke="#494949" stroke-miterlimit="10" d="M467.739,388.128c0-0.079,0-0.158,0-0.263
		c0-12.852,3.187-24.939,8.717-35.368c4.636-8.691,10.93-16.249,18.408-22.174L485.727,321v-29.047h-32.709v43.637v0.395v52.144
		v5.53h-8.585v70.578h42.11l13.932-14.826C480.96,436.979,467.845,414.2,467.739,388.128z"/>
</g>
<g id="rooms">
	<polygon id="major-cineplex" fill="#939598" stroke="#494949" stroke-miterlimit="10" points="523.254,500 630.412,607.158 
		674.523,607.158 732.197,552.17 735.357,457.601 650.559,372.827 	"/>
</g>
<g id="signs">
	<g id="escalator">
		<rect x="494.575" y="410.355" width="11.851" height="11.851"/>
		<rect x="556.437" y="349.257" width="11.851" height="11.851"/>
	</g>
</g>
</svg>
