<?xml version="1.0" encoding="utf-8"?>
<!-- Generator: Adobe Illustrator 16.0.0, SVG Export Plug-In . SVG Version: 6.00 Build 0)  -->
<!DOCTYPE svg PUBLIC "-//W3C//DTD SVG 1.1//EN" "http://www.w3.org/Graphics/SVG/1.1/DTD/svg11.dtd">
<svg version="1.1" id="Layer_1" xmlns="http://www.w3.org/2000/svg" xmlns:xlink="http://www.w3.org/1999/xlink" x="0px" y="0px"
	 width="3797.242px" height="2105.579px" viewBox="0 0 3797.242 2105.579" enable-background="new 0 0 3797.242 2105.579"
	 xml:space="preserve">
<g id="background">
</g>
<g id="etc">
	<path fill="#BFBFBF" stroke="#494949" stroke-miterlimit="10" d="M1500.944,1625.483L1500.944,1625.483h98.995v-62.998h-97.495l0,0
		l0,0v-457.477l0,0l0,0h68.752V673.419h-29.837l0,0l0,0V321.401l-11.872-0.333l-6.364-0.18c0.906-6.982,1.381-14.093,1.381-21.308
		c0-95.599-81.928-173.097-182.991-173.097c-101.062,0-182.991,77.498-182.991,173.097c0,3.729,0.141,7.426,0.387,11.096
		l-187.547-5.258l-204,698v155h-234l58-395l-56.697-8.798c-5.847-64.911-59.704-115.76-125.29-115.76
		c-52.282,0-97.113,32.312-116.113,78.301l-49.9-7.743l-102,740l50.044,7.438c-0.264,3.371-0.403,6.779-0.403,10.221
		c0,70.414,56.334,127.494,125.826,127.494c60.454,0,110.941-43.203,123.055-100.799l51.479,7.646l17-131h264l-0.312,27.455
		c-105.165,7.895-187.951,92.59-187.951,195.914c0,94.631,59.088,155.166,124.263,190.631c93.817,51.055,290,160,290,160h502.585
		v-318.938h-0.003V1625.483z M357.358,1502.088c-12,12-40.667,42-81.333,0c-22.667-28.668,4.667-33.334,4.667-33.334l72,10.666
		C352.691,1479.42,369.358,1490.088,357.358,1502.088z M445.673,769.729l-71.595-12.775c0,0-16.396-11.65-4.164-24.129
		c12.23-12.479,41.478-43.705,81.136,1.656C473.041,765.336,445.673,769.729,445.673,769.729z M785.359,1698.418c-32-1-93-36-91-105
		c0,0-8-66,81-92c2,1,35-10,35,9s0,166,0,166S817.359,1699.418,785.359,1698.418z M1416.938,313.725
		c-16.295-0.396-142.361-3.467-142.361-3.467s-19.861,5.096-18.382-20.374c1.479-25.47,32.678-73.329,91.812-70.294
		c0,0,56.757-4.993,77.328,66.443C1424.439,287.606,1433.233,314.123,1416.938,313.725z"/>
	<path fill="#BFBFBF" stroke="#494949" stroke-miterlimit="10" d="M3509.359,607.93v-34.511h-24v-35.5h-176v61.5h-67.033
		l-186.967-50h-84.009c0,0-77.991-16.979-167.991,58.511c4-2.511-26,35.489-26,35.489h-166.019v-180h72.019v-28h287.991v-96.393
		l-4.979-0.127l-451.012-11.48v-30l-206-8v-82l-696-20v136l-72-2.019v352.019h29.837v431.589h-68.752v457.477h97.495v62.996h-98.995
		v318.939h427.415c0,0,12.158-12.158,13-13c18.971,9.145,38.055,12.551,55,13.059c33.074,0.992,58-9.059,58-9.059l8,11h655
		c0,0,0.205-5.461,0.442-10.312v-72.781h-36.414V1757.42c0,0,146.992,39.053,245.986-19.445
		c98.996-58.496,133.494-132.055,133.494-132.055s34.498-71.936,34.498-148.432c-3-58.496-10.5-85.494-10.5-85.494l139.489,3
		l61,1.426v-17.924V1249.42h-199.528v-292h107.528v28h92v-44h-199.528v-104l57.528-68c0,0-0.063-114,98.97-114
		c5.03,0,121.03,0,121.03,0v71.008h118V694.42h26v-30.39h52V607.93H3509.359z"/>
	<path fill="#BFBFBF" stroke="#494949" stroke-miterlimit="10" d="M2857.458,1013.419c0,111,0,234.541,0,234.541s1.897,0,67.356,0
		c60.49,0,80.541-68.207,80.541-80.541c0-52.5,0-125.3,0-210C3005.359,957.419,2857.458,941.419,2857.458,1013.419z"/>
	<path fill="#BFBFBF" stroke="#494949" stroke-miterlimit="10" d="M2219.359,1653.418h276.545c25.957,0,47-21.043,47-47v-34
		c0-25.957-21.043-47-47-47h-276.545V1653.418z"/>
	<rect x="2145.359" y="1525.418" fill="#BFBFBF" stroke="#494949" stroke-miterlimit="10" width="74" height="128"/>
	<path fill="#BFBFBF" stroke="#494949" stroke-miterlimit="10" d="M3033.359,734.419c0,38.107-30.894,69-69,69h-37.898
		c-38.107,0-69-30.893-69-69v-28c0-38.106,30.893-69,69-69h37.898c38.106,0,69,30.894,69,69V734.419z"/>
	<path fill="#BFBFBF" stroke="#494949" stroke-miterlimit="10" d="M2757.361,1504.086c58.666,0,60-84.666,78-119.334
		c4.158-8.012,13.176-15.221,24.83-20.27c40.996-17.764,114.639-8.797,124.502,85.936c6.399,88.336-38.498,142.053-70.334,177.668
		c-19.666,22.002-134.998,82.67-224.332,20.668C2618.218,1574.086,2687.361,1504.086,2757.361,1504.086z"/>
	<path fill="#BFBFBF" stroke="#494949" stroke-miterlimit="10" d="M2004.587,1721.196c21.009-23.668,36.771-47.928,36.771-67.775
		c0-17.5,0-44,0-70c0-17.957-25.758-45.93-41.692-61.518c0,0,0,0-6.053-0.088c-54.808-0.797-99.246,20.631-99.246,46.082v107.5
		c0,25.449,44.453,47.49,99.246,46.082C2004.587,1721.196,2004.587,1721.196,2004.587,1721.196z"/>
	<rect x="2160.361" y="1654.426" fill="#BFBFBF" stroke="#494949" stroke-miterlimit="10" width="57.998" height="39.332"/>
	<rect x="2482.027" y="1654.426" fill="#BFBFBF" stroke="#494949" stroke-miterlimit="10" width="57.998" height="39.332"/>
	<polygon fill="#BFBFBF" stroke="#494949" stroke-miterlimit="10" points="1502.444,1405.821 1502.444,1503.418 1562.359,1503.418 
		1562.359,1406.411 	"/>
	<polygon fill="#BFBFBF" stroke="#494949" stroke-miterlimit="10" points="3638.359,586.419 3658.359,586.419 3658.359,544.419 
		3636.359,544.419 3636.359,479.419 3583.359,475.419 3583.359,457.419 3439.359,450.958 3439.359,537.919 3485.359,537.919 
		3485.359,573.419 3509.359,573.419 3509.359,607.93 3559.359,607.93 3559.359,639.419 3638.359,639.419 	"/>
	<path fill="#BFBFBF" stroke="#494949" stroke-miterlimit="10" d="M3252.359,790.025v-0.606h13l2,25l2,0.038v-57.038h-125.197
		c-0.805,7.377-0.803,12-0.803,12l-32.148,38h141.148V790.025z"/>
	<path fill="#BFBFBF" stroke="#494949" stroke-miterlimit="10" d="M3363.359,726.428V655.42c0,0-58.267,0-94,0v102l0,0v57.038
		l80.991,1.538l85.009,1.614v-91.184L3363.359,726.428L3363.359,726.428z"/>
	<polygon fill="#BFBFBF" stroke="#494949" stroke-miterlimit="10" points="3638.359,702.419 3638.359,639.419 3559.359,639.419 
		3559.359,664.031 3507.359,664.031 3507.359,694.419 3481.359,694.419 3481.359,726.428 3435.359,726.428 3435.359,817.609 
		3583.359,820.419 3583.359,800.419 3636.359,800.419 3636.359,742.419 3658.359,742.419 3658.359,702.419 	"/>
	<polygon fill="#BFBFBF" stroke="#494949" stroke-miterlimit="10" points="3240.857,461.814 3195.359,459.419 3195.359,423.419 
		3161.181,421.521 3159.359,421.419 3159.359,577.232 3242.326,599.419 3245.359,599.419 3245.359,462.051 	"/>
	<path fill="#BFBFBF" stroke="#494949" stroke-miterlimit="10" d="M3067.154,689.591c-5.838,5.878-15.336,5.911-21.213,0.073
		l-46.121-45.803c-5.877-5.838-5.91-15.336-0.072-21.214l8.457-8.516c5.836-5.878,15.334-5.911,21.211-0.072l46.121,45.804
		c5.877,5.837,5.91,15.335,0.072,21.214L3067.154,689.591z"/>
</g>
<g id="rooms">
	<polygon id="central-department-store" fill="#939598" stroke="#494949" stroke-miterlimit="10" points="2490.559,1201.418 
		2559.359,1135.655 2559.359,453.419 2515.359,453.419 2515.359,453.419 2515.359,453.419 2515.359,297.419 2309.359,289.419 
		2309.359,207.419 1613.359,187.419 1613.359,1201.418 2383.359,1201.418 2383.359,1314.418 2490.559,1314.418 	"/>
	<rect id="r304-3" x="1721.359" y="1201.418" fill="#939598" stroke="#494949" stroke-miterlimit="10" width="184" height="57"/>
	<polygon id="r304-2" fill="#939598" stroke="#494949" stroke-miterlimit="10" points="1721.359,1258.418 1721.359,1314.418 
		1804.359,1314.418 1804.359,1314.418 1905.359,1314.418 1905.359,1258.418 	"/>
	<path id="r302-303" fill="#939598" stroke="#494949" stroke-miterlimit="10" d="M1804.359,1408.418L1804.359,1408.418v-94h-83v1
		h-108v-44h-50v135l-1-0.01v97.01h1v36.5c0,0,140,0,208.5,0c55.399,0,91.562-20.357,112.099-51.9L1804.359,1408.418
		L1804.359,1408.418z"/>
	<path id="r304-1" fill="#939598" stroke="#494949" stroke-miterlimit="10" d="M1905.359,1314.418h-101v94l79.599,79.6
		c14.704-22.586,21.401-50.9,21.401-81.6V1314.418z"/>
	<polygon id="r357-359" fill="#939598" stroke="#494949" stroke-miterlimit="10" points="1898.49,1802.549 1758.359,1662.418 
		1584.359,1662.418 1584.359,1810.418 1703.359,1810.418 1703.359,1790.418 1733.401,1790.475 1733.401,1944.418 1902.923,1944.418 
		1902.923,1802.549 	"/>
	<path id="r356-2" fill="#939598" stroke="#494949" stroke-miterlimit="10" d="M1902.923,1802.549v141.869h25.437
		c0,0,12.158-12.158,13-13c2.688,1.297,5.379,2.465,8.062,3.539v-132.408H1902.923z"/>
	<polygon id="r353" fill="#939598" stroke="#494949" stroke-miterlimit="10" points="2179.359,1757.418 2179.359,1922.418 
		2177.412,1922.418 2177.412,1946.418 2229.908,1946.418 2229.908,1757.418 	"/>
	<rect id="r352" x="2229.908" y="1757.418" fill="#939598" stroke="#494949" stroke-miterlimit="10" width="49.498" height="189"/>
	<rect id="r351" x="2279.406" y="1757.418" fill="#939598" stroke="#494949" stroke-miterlimit="10" width="92.996" height="189"/>
	<rect id="r350" x="2372.4" y="1757.418" fill="#939598" stroke="#494949" stroke-miterlimit="10" width="52.498" height="189"/>
	<rect id="r348" x="2474.396" y="1757.418" fill="#939598" stroke="#494949" stroke-miterlimit="10" width="80.996" height="189"/>
	<rect id="r347" x="2555.393" y="1757.418" fill="#939598" stroke="#494949" stroke-miterlimit="10" width="49.496" height="189"/>
	<path id="r346" fill="#939598" stroke="#494949" stroke-miterlimit="10" d="M2717.8,1932.418h-61.44v-175h-51.471v189h112.471
		C2717.359,1946.418,2717.841,1937.721,2717.8,1932.418z"/>
	<rect id="r349" x="2424.898" y="1757.418" fill="#939598" stroke="#494949" stroke-miterlimit="10" width="49.498" height="189"/>
	<path id="r354-355" fill="#939598" stroke="#494949" stroke-miterlimit="10" d="M2133.359,1922.418v-67h29v-97h-21l-47.943,21.814
		l-49.057,22.314h-46.939V1944.5c32.543,0.748,56.939-9.082,56.939-9.082l8,11h31.057h83.996v-24H2133.359L2133.359,1922.418z"/>
	<path id="r356-1" fill="#939598" stroke="#494949" stroke-miterlimit="10" d="M1949.421,1802.549v132.408
		c16.271,6.502,32.394,9.084,46.938,9.52c0.354,0.012,0.707,0.014,1.061,0.021v-141.949H1949.421L1949.421,1802.549z"/>
	<path id="r344-345" fill="#939598" stroke="#494949" stroke-miterlimit="10" d="M2681.388,1757.418v105.906h36.414v72.795
		c0.191-3.906,0.406-7.418,0.558-7.367c13.989,4.76,27.668,8.715,41,11.969c17.352,4.236,34.405,6.986,51.022,8.525v-179.625
		C2741.3,1773.333,2681.388,1757.418,2681.388,1757.418z"/>
	<path id="r341-343" fill="#939598" stroke="#494949" stroke-miterlimit="10" d="M2810.382,1769.622v179.625
		c72.584,6.721,136.781-9.682,180.711-26.33l-67.364-182.846C2888.742,1759.682,2848.191,1767.59,2810.382,1769.622z"/>
	<path id="r339-340" fill="#939598" stroke="#494949" stroke-miterlimit="10" d="M2927.375,1737.975
		c-1.207,0.715-2.424,1.41-3.646,2.096l67.365,182.846c37.949-14.381,60.773-28.947,60.773-28.947s80.246,5.25,118.492-32.998
		c0.739-0.74,1.457-1.498,2.162-2.264l-177.416-170.637C2977,1704.616,2954.638,1721.866,2927.375,1737.975z"/>
	<path id="r335" fill="#939598" stroke="#494949" stroke-miterlimit="10" d="M3095.123,1452.991c0.084,1.48,0.168,2.973,0.246,4.498
		c0,26.479-4.135,52.406-9.539,74.998h163.537c-1.066-30.822-3.779-57.402-7.041-79.496H3095.123L3095.123,1452.991z"/>
	<path id="r334" fill="#939598" stroke="#494949" stroke-miterlimit="10" d="M3224.357,1374.995l-139.488-3
		c0,0,7.111,25.621,10.254,80.996h147.203C3234.806,1402.055,3224.357,1374.995,3224.357,1374.995z"/>
	<path id="r336-338" fill="#939598" stroke="#494949" stroke-miterlimit="10" d="M3249.367,1532.487H3085.83
		c-10.211,42.676-24.961,73.434-24.961,73.434s-18.123,38.623-65.762,82.15l177.416,170.637
		c38.521-41.895,23.336-120.729,23.336-120.729s53.998-80.994,53.998-177.059
		C3249.857,1551.075,3249.681,1541.598,3249.367,1532.487z"/>
	<rect id="r316" x="2611.341" y="463.419" fill="#939598" stroke="#494949" stroke-miterlimit="10" width="72.019" height="180"/>
	<polygon id="r317" fill="#939598" stroke="#494949" stroke-miterlimit="10" points="2683.359,435.419 2683.359,463.419 
		2683.359,643.419 2733.359,643.419 2733.359,435.419 	"/>
	<path id="r318" fill="#939598" stroke="#494949" stroke-miterlimit="10" d="M2733.359,435.419v208h44c0,0,1.596-2.021,4-5.098
		V435.419H2733.359z"/>
	<path id="r319" fill="#939598" stroke="#494949" stroke-miterlimit="10" d="M2781.359,435.419v202.902
		c8.024-10.271,25.077-32.323,22-30.393c27.012-22.655,52.936-36.976,76-45.933V435.419H2781.359z"/>
	<path id="r320" fill="#939598" stroke="#494949" stroke-miterlimit="10" d="M2879.359,435.419v126.578
		c43.562-16.917,76.897-14.682,88-13.221V435.419H2879.359z"/>
	<path id="r321" fill="#939598" stroke="#494949" stroke-miterlimit="10" d="M3066.068,357.45l-0.709-0.03v-16l-94.008-2.393v96.393
		h-3.992v113.357c2.604,0.343,3.992,0.643,3.992,0.643h84.008l14,3.744V357.59L3066.068,357.45z"/>
	<polygon id="r322" fill="#939598" stroke="#494949" stroke-miterlimit="10" points="3159.359,361.419 3069.359,357.59 
		3069.359,553.164 3159.359,577.232 3159.359,421.419 	"/>
	<polygon id="r323-2" fill="#939598" stroke="#494949" stroke-miterlimit="10" points="3347.359,446.83 3271.359,443.419 
		3271.359,463.419 3245.359,462.051 3245.359,599.419 3269.359,599.419 3269.359,599.419 3309.359,599.419 3309.359,537.919 
		3439.359,537.919 3439.359,450.958 	"/>
	<path id="r324-3" fill="#939598" stroke="#494949" stroke-miterlimit="10" d="M3269.359,655.419c-14.685,0-25.566,0-27.033,0
		c-79.103,0-94.979,72.724-98.164,102h125.197V655.419z"/>
	<polygon id="r325-2" fill="#939598" stroke="#494949" stroke-miterlimit="10" points="3252.359,807.419 3111.208,807.419 
		3085.83,837.419 3085.83,855.419 3252.359,855.419 	"/>
	<polygon id="r326" fill="#939598" stroke="#494949" stroke-miterlimit="10" points="3285.359,859.419 3252.359,859.419 
		3252.359,857.521 3252.359,855.419 3085.83,855.419 3085.83,899.419 3285.359,899.419 	"/>
	<rect id="r327" x="3085.83" y="899.419" fill="#939598" stroke="#494949" stroke-miterlimit="10" width="199.529" height="42"/>
	<rect id="r329" x="3085.83" y="1013.419" fill="#939598" stroke="#494949" stroke-miterlimit="10" width="199.529" height="42"/>
	<rect id="r330" x="3085.83" y="1055.418" fill="#939598" stroke="#494949" stroke-miterlimit="10" width="199.529" height="92"/>
	<polygon id="r332" fill="#939598" stroke="#494949" stroke-miterlimit="10" points="3085.83,1195.418 3085.83,1249.418 
		3174.359,1249.418 3285.359,1249.418 3285.359,1195.418 	"/>
	<rect id="r331" x="3085.83" y="1147.418" fill="#939598" stroke="#494949" stroke-miterlimit="10" width="199.529" height="48"/>
	<polygon id="r328" fill="#939598" stroke="#494949" stroke-miterlimit="10" points="3285.359,985.419 3193.359,985.419 
		3193.359,985.419 3193.359,985.419 3193.359,957.419 3085.83,957.419 3085.83,1013.419 3285.359,1013.419 	"/>
	<rect id="r333" x="3085.83" y="1249.418" fill="#939598" stroke="#494949" stroke-miterlimit="10" width="88.529" height="94"/>
	<path id="r305-1" fill="#939598" stroke="#494949" stroke-miterlimit="10" d="M2093.416,1201.418v238c0,0,6.051,24,41.998,24
		c1.438,0,3.439,0,5.945,0v-262H2093.416z"/>
	<path id="r305-2-306-1-306-2" fill="#939598" stroke="#494949" stroke-miterlimit="10" d="M2141.359,1201.418v262
		c20.686,0,76.145,0,140,0v-262H2141.359z"/>
	<path id="r307" fill="#939598" stroke="#494949" stroke-miterlimit="10" d="M2383.359,1314.418v-113h-102v262
		c34.272,0,70.967,0,106,0v-149H2383.359z"/>
	<path id="r308-1" fill="#939598" stroke="#494949" stroke-miterlimit="10" d="M2387.359,1314.418v149c17.229,0,34.057,0,50,0v-149
		H2387.359z"/>
	<path id="r309" fill="#939598" stroke="#494949" stroke-miterlimit="10" d="M2581.359,1322.086L2581.359,1322.086l36.858-43.004
		l-99.924-104.176l-27.736,26.512v113h-5.199v149c41.828,0,70.033,0,70.033,0s10-2.365,25.967-8.197L2581.359,1322.086
		L2581.359,1322.086z"/>
	<path id="r310" fill="#939598" stroke="#494949" stroke-miterlimit="10" d="M2618.218,1279.083l-36.858,43.004v133.135
		c30.641-11.188,83.262-35.145,129.404-79.652L2618.218,1279.083z"/>
	<path id="r311" fill="#939598" stroke="#494949" stroke-miterlimit="10" d="M2801.359,1135.918c0-2.5-242-0.264-242-0.264
		l-41.063,39.252l99.924,104.176l0,0l92.545,96.482C2762.72,1325.45,2806.462,1249.278,2801.359,1135.918z"/>
	<path id="r308-2" fill="#939598" stroke="#494949" stroke-miterlimit="10" d="M2437.359,1314.418v149c17.241,0,33.442,0,48,0v-149
		H2437.359z"/>
	<path id="r314-315" fill="#939598" stroke="#494949" stroke-miterlimit="10" d="M2803.562,853.623
		c0-21.898-22.203-22.203-22.203-22.203h-222v95.099h243.711C2803.355,889.405,2803.562,860.329,2803.562,853.623z"/>
	<path id="r313-2" fill="#939598" stroke="#494949" stroke-miterlimit="10" d="M2803.07,926.518h-243.711v58.497h243.248
		C2802.77,964.711,2802.929,944.655,2803.07,926.518z"/>
	<path id="r313-1" fill="#939598" stroke="#494949" stroke-miterlimit="10" d="M2802.605,985.015h-243.246v47.998h242.854
		C2802.343,1017.416,2802.477,1001.138,2802.605,985.015z"/>
	<path id="r312-2" fill="#939598" stroke="#494949" stroke-miterlimit="10" d="M2802.214,1033.013h-242.854v49.498h242.447
		C2801.929,1067.729,2802.07,1050.816,2802.214,1033.013z"/>
	<path id="r312-1" fill="#939598" stroke="#494949" stroke-miterlimit="10" d="M2559.359,1082.51v53.145l242,0.266
		c0,0,0.186-21.846,0.446-53.41H2559.359L2559.359,1082.51z"/>
	<path id="kane-mochi" fill="#939598" stroke="#494949" stroke-miterlimit="10" d="M2897.138,622.07
		c5.459,6.229,4.834,15.708-1.396,21.167l-48.887,42.838c-6.229,5.459-15.707,4.835-21.168-1.396l-7.906-9.023
		c-5.461-6.23-4.836-15.708,1.395-21.167l48.887-42.839c6.23-5.459,15.707-4.836,21.168,1.396L2897.138,622.07z"/>
	<path id="auntie-s-anne" fill="#939598" stroke="#494949" stroke-miterlimit="10" d="M2885.91,891.97
		c-26.449,0-28.449,28.45-28.449,28.45v85.667c6.266-35.331,51.562-46.384,90.398-49.255V891.97
		C2921.977,891.97,2896.791,891.97,2885.91,891.97z"/>
	<path id="coffee-world" fill="#939598" stroke="#494949" stroke-miterlimit="10" d="M3023.359,891.97c0,0-38.463,0-75.5,0v64.862
		c30.778-2.275,57.5,0.588,57.5,0.588h48.272c0,0,0-9,0-35.176S3023.359,891.97,3023.359,891.97z"/>
	<path id="mezzo-coffee" fill="#939598" stroke="#494949" stroke-miterlimit="10" d="M2944.695,1342.086c0,8.283-6.717,15-15,15h-72
		c-8.285,0-15-6.717-15-15v-18.998c0-8.285,6.715-15,15-15h72c8.283,0,15,6.715,15,15V1342.086z"/>
	<path id="mr-donut" fill="#939598" stroke="#494949" stroke-miterlimit="10" d="M2629.037,1634.418
		c-7.555,0-13.676-6.715-13.676-15v-72c0-8.283,6.121-15,13.676-15h17.318c7.553,0,13.676,6.717,13.676,15v72
		c0,8.285-6.123,15-13.676,15H2629.037z"/>
	<g id="oppo">
		<rect x="2287.361" y="1516.483" fill="#939598" stroke="#494949" stroke-miterlimit="10" width="191.334" height="32.275"/>
		<rect x="2266.906" y="1654.426" fill="#939598" stroke="#494949" stroke-miterlimit="10" width="57.998" height="39.332"/>
	</g>
	
		<rect id="vivo" x="2375.482" y="1654.426" fill="#939598" stroke="#494949" stroke-miterlimit="10" width="57.998" height="39.332"/>
	<path id="gateaux-house" fill="#939598" stroke="#494949" stroke-miterlimit="10" d="M2092.859,1567.897
		c0-24.508-41.201-44.541-93.193-45.994c15.938,15.588,41.693,43.561,41.693,61.518c0,12.934,0,25.988,0,38h51.5V1567.897z"/>
	<path id="gelatoni" fill="#939598" stroke="#494949" stroke-miterlimit="10" d="M2041.359,1621.418c0,12.135,0,23.205,0,32
		c0,19.85-15.765,44.109-36.771,67.777c49.646-2.537,88.271-22.072,88.271-45.803v-53.977h-51.5V1621.418z"/>
</g>
<g id="signs">
	<g id="escalator">
		<rect x="1924.859" y="1592.418" width="45" height="45"/>
		<rect x="2725.359" y="1560.918" width="45" height="45"/>
		<rect x="2869.359" y="1406.418" width="45" height="45"/>
		<rect x="2926.352" y="681.428" width="45" height="45"/>
	</g>
	<g id="lift">
		<rect x="1498.359" y="1113.418" width="45" height="45"/>
		<rect x="1547.359" y="515.419" width="45" height="45"/>
		<rect x="1498.359" y="1186.418" width="45" height="45"/>
		<rect x="3403.328" y="562.93" width="45" height="45"/>
		<rect x="3403.328" y="664.031" width="45" height="45"/>
	</g>
	<g id="toilet">
		<rect x="1529.359" y="1880.418" width="45" height="45"/>
		<rect x="2611.341" y="364.17" width="45" height="45"/>
	</g>
	<g id="parking">
		<rect x="1160.29" y="791.398" width="45" height="45"/>
		<rect x="341.208" y="1068.418" width="45" height="45"/>
	</g>
	<rect id="handicapped-parking" x="1178.79" y="1773.672" width="45" height="45"/>
	<g id="wifi">
		<rect x="1776.359" y="1591.579" width="45" height="45"/>
		<rect x="2925.359" y="592.419" width="45" height="45"/>
	</g>
</g>
</svg>
