<?xml version="1.0" encoding="utf-8"?>
<!-- Generator: Adobe Illustrator 16.0.0, SVG Export Plug-In . SVG Version: 6.00 Build 0)  -->
<!DOCTYPE svg PUBLIC "-//W3C//DTD SVG 1.1//EN" "http://www.w3.org/Graphics/SVG/1.1/DTD/svg11.dtd">
<svg version="1.1" id="Layer_1" xmlns="http://www.w3.org/2000/svg" xmlns:xlink="http://www.w3.org/1999/xlink" x="0px" y="0px"
	 width="1000px" height="1000px" viewBox="0 0 1000 1000" enable-background="new 0 0 1000 1000" xml:space="preserve">
<g id="background">
</g>
<g id="etc">
	<path fill="#BFBFBF" stroke="#494949" stroke-miterlimit="10" d="M155.22,423.786l-14.932-2.317
		c-1.527-17.092-15.722-30.497-32.998-30.497c-13.773,0-25.571,8.506-30.575,20.621l-13.141-2.028l-26.862,194.88l13.167,1.949
		c-0.079,0.896-0.105,1.79-0.105,2.686c0,18.54,14.827,33.578,33.13,33.578c15.933,0,29.206-11.377,32.418-26.546l13.562,2.001
		L155.22,423.786z M93.595,618.324c-3.16,3.16-10.718,11.061-21.411,0c-5.978-7.559,1.238-8.77,1.238-8.77l18.961,2.817
		C92.357,612.346,96.755,615.164,93.595,618.324z M116.849,425.445l-18.856-3.345c0,0-4.319-3.082-1.106-6.347
		c3.213-3.292,10.929-11.509,21.358,0.447C124.039,424.286,116.849,425.445,116.849,425.445z"/>
	<path fill="#BFBFBF" stroke="#494949" stroke-miterlimit="10" d="M957.205,377.015h5.268v-11.061h-5.794v-17.118l-13.958-1.053
		v-4.741l-37.922-1.711l-24.229-1.08l-20.016-0.895v5.267l-6.847-0.368l-1.185-0.053l-11.983-0.632v-9.48l-9.007-0.5l-0.474-0.026
		V317.76l-24.57-1.053h-0.185v-4.214l-24.755-0.632l-1.317-0.026l-118.771-3.028v-7.901l-54.25-2.107v-21.595l-183.293-5.267v35.816
		l-18.962-0.526v0.158l-2.686-0.079l-1.686-0.052c0.236-1.844,0.368-3.713,0.368-5.609c0-25.177-21.568-45.586-48.193-45.586
		s-48.193,20.41-48.193,45.586c0,0.974,0.026,1.949,0.105,2.923l-49.378-1.396L201.569,486.99l1.238,103.893
		c-27.705,2.08-49.51,24.387-49.51,51.591c0,24.913,15.564,40.872,32.734,50.194c24.703,13.458,76.372,42.137,76.372,42.137h132.361
		v-0.158h105.42h6.688c0,0,3.213-3.213,3.424-3.424c0.343,0.158,0.711,0.316,1.054,0.475c0.026,0,0.053,0.026,0.053,0.026
		c0.342,0.158,0.685,0.289,1.001,0.421l0,0l0,0c1.053,0.422,2.106,0.79,3.134,1.08c0.026,0,0.053,0,0.053,0.026
		c0.236,0.079,0.474,0.132,0.685,0.185c0.053,0.026,0.105,0.026,0.158,0.053c0.21,0.052,0.447,0.104,0.658,0.157
		c0.053,0.026,0.132,0.026,0.184,0.053c0.211,0.053,0.422,0.105,0.633,0.158c0.053,0,0.105,0.026,0.158,0.026
		c0.685,0.132,1.343,0.264,2.001,0.369c0.079,0,0.158,0.025,0.211,0.025c0.158,0.026,0.315,0.053,0.474,0.053
		c0.132,0.026,0.237,0.026,0.369,0.053s0.289,0.026,0.421,0.053s0.29,0.026,0.422,0.053c0.132,0,0.263,0.026,0.395,0.026
		c0.158,0.026,0.316,0.026,0.448,0.026c0.105,0,0.236,0.026,0.342,0.026c0.185,0,0.343,0.026,0.527,0.026
		c0.078,0,0.184,0,0.263,0.026c0.264,0,0.527,0.026,0.79,0.026c0.105,0,0.185,0,0.29,0c0,0,0,0,0.026,0
		c8.559,0.185,14.984-2.396,14.984-2.396l2.107,2.896h172.495c0,0,0.053-1.132,0.105-2.265c0-0.158,0.026-0.29,0.026-0.447l0,0
		c0.053-1.027,0.105-1.949,0.158-1.949c3.687,1.265,7.295,2.291,10.797,3.16c4.582,1.106,9.06,1.844,13.432,2.238
		c19.119,1.765,36.026-2.554,47.587-6.926c9.981-3.792,16.012-7.611,16.012-7.611s21.121,1.37,31.208-8.69
		c0.184-0.184,0.395-0.395,0.579-0.605c10.139-11.034,6.136-31.786,6.136-31.786s14.221-21.332,14.221-46.64
		c0-2.581-0.053-5.083-0.131-7.479l-1.844-20.937c-1.975-13.404-4.74-20.541-4.74-20.541l16.064,0.368v-33.445v-26.862V500.5
		v-30.021v-21.596h-8.69v-18.276v-0.158h4.477v8.533h36.869l6.848-1.106l38.976,0.737v-5.267h13.958v-15.274h5.794v-10.534h-5.268
		v-16.591V377.015L957.205,377.015z M206.31,670.02c-8.427-0.263-24.492-9.48-23.965-27.651c0,0-2.106-17.382,21.332-24.229
		c0.527,0.264,9.217-2.634,9.217,2.37s0,43.717,0,43.717S214.737,670.283,206.31,670.02z M372.617,305.356
		c-4.293-0.105-37.502-0.922-37.502-0.922s-5.24,1.343-4.846-5.372c0.396-6.715,8.611-19.304,24.176-18.514
		c0,0,14.959-1.317,20.357,17.486C374.592,298.483,376.909,305.462,372.617,305.356z"/>
	<path fill="#DDDDDD" stroke="#494949" stroke-miterlimit="10" d="M798.852,416.149c0,10.034-8.138,18.171-18.171,18.171h-9.981
		c-10.033,0-18.171-8.138-18.171-18.171v-7.374c0-10.034,8.138-18.171,18.171-18.171h9.981c10.033,0,18.171,8.138,18.171,18.171
		V416.149z"/>
	<path fill="#DDDDDD" stroke="#494949" stroke-miterlimit="10" d="M551.591,640.577l8.479-7.9l-14.984-16.091l-8.48,7.9
		c0,0-7.268-0.948-11.561-0.948c-14.432,0-26.125,5.426-26.125,12.141v28.311c0,6.689,11.693,12.141,26.125,12.141
		c3.95,0,10.561-0.658,10.561-0.658l8.006,8.374l15.88-15.195l-8.006-8.374L551.591,640.577z"/>
	<path fill="#DDDDDD" stroke="#494949" stroke-miterlimit="10" d="M657.3,624.46h-72.816h-9.48v15.274h4.74
		c0,0,2.37,2.37,2.37,9.297c0,7.031-2.37,9.296-2.37,9.296h-4.74v15.274h9.48H657.3c6.848,0,12.378-8.085,12.378-18.039v-13.036
		C669.678,632.545,664.147,624.46,657.3,624.46z"/>
	<polygon fill="#DDDDDD" stroke="#494949" stroke-miterlimit="10" points="759.401,671.863 736.121,672.812 714.711,663.568 
		699.463,645.949 693.354,623.459 697.593,600.521 711.393,581.744 731.96,570.763 755.24,569.841 776.651,579.085 791.899,596.703 
		798.009,619.193 793.743,642.104 779.97,660.908 	"/>
	<polyline fill="#DDDDDD" stroke="#494949" stroke-miterlimit="10" points="749.342,467.502 749.342,528.073 761.588,543.348 
		782.523,543.348 797.008,528.863 797.008,467.897 781.865,467.897 771.911,477.853 761.588,467.502 749.342,467.502 	"/>
	<path fill="#BFBFBF" stroke="#494949" stroke-miterlimit="10" d="M547.614,560.202l-12.642,12.641L523.78,560.86l-21.357,21.358
		c10.692,7.479,23.544,10.218,27.81,10.902c10.402,1.633,42.137,0,42.137,0l3.424-4.74L547.614,560.202z"/>
	<path fill="#BFBFBF" stroke="#494949" stroke-miterlimit="10" d="M523.754,701.701c0,0-0.711,0.053-1.975,0.079v32.655
		c0.079,0,0.158,0.026,0.237,0.026c0.132,0.026,0.263,0.026,0.395,0.026c0.158,0.026,0.316,0.026,0.448,0.026
		c0.104,0,0.236,0.026,0.342,0.026c0.185,0,0.343,0.026,0.527,0.026c0.078,0,0.184,0,0.263,0.026c0.264,0,0.526,0.026,0.79,0.026
		c0.105,0,0.185,0,0.29,0c0,0,0,0,0.026,0c8.559,0.185,14.984-2.396,14.984-2.396l2.107,2.896h1.737v-33.472L523.754,701.701
		L523.754,701.701z"/>
	<polygon id="_x3C_Path_x3E_" fill="#BFBFBF" stroke="#494949" stroke-miterlimit="10" points="647.161,388.549 647.161,430.291 
		660.855,443.985 668.809,443.985 672.442,440.377 672.442,388.549 	"/>
	
		<rect id="_x3C_Path_x3E__1_" x="674.55" y="324.581" fill="#BFBFBF" stroke="#494949" stroke-miterlimit="10" width="13.167" height="39.819"/>
	
		<rect id="_x3C_path_x3E__1_" x="463.604" y="531.523" fill="#BFBFBF" stroke="#494949" stroke-miterlimit="10" width="9.823" height="45.507"/>
</g>
<g id="rooms">
	<polygon id="sb-furniture" fill="#939598" stroke="#494949" stroke-miterlimit="10" points="451.701,638.918 451.701,601.943 
		400.532,601.943 400.532,558.332 385.337,558.332 385.337,521.885 281.813,521.885 281.813,638.918 	"/>
	<path id="fitness-first" fill="#939598" stroke="#494949" stroke-miterlimit="10" d="M281.813,638.918L281.813,638.918
		L281.813,638.918V521.885h-79.848l0.816,68.998c-27.705,2.08-49.51,24.387-49.51,51.591c0,24.913,15.564,40.872,32.734,50.194
		c24.703,13.458,76.372,42.137,76.372,42.137H394.58v-66.102c0,0,16.802,0,34.078,0c17.275,0,23.043-23.043,23.043-23.043v-6.742
		H281.813L281.813,638.918z M206.31,670.02c-8.427-0.263-24.492-9.48-23.965-27.651c0,0-2.106-17.382,21.332-24.229
		c0.527,0.264,9.217-2.634,9.217,2.37s0,43.717,0,43.717S214.737,670.283,206.31,670.02z"/>
	<polygon id="major-cineplex" fill="#939598" stroke="#494949" stroke-miterlimit="10" points="695.354,417.465 668.809,443.985 
		660.855,443.985 626.725,409.881 546.771,489.835 529.469,489.835 492.837,527.81 534.973,572.843 547.614,560.202 
		591.857,604.445 677.184,604.445 734.857,546.771 734.857,456.969 	"/>
	<polygon id="food-park" fill="#939598" stroke="#494949" stroke-miterlimit="10" points="705.625,387.97 705.625,427.736 
		734.857,456.969 734.857,467.502 761.588,467.502 771.911,477.853 781.865,467.897 796.219,467.897 796.219,535.184 
		865.217,535.184 865.217,533.34 865.217,449.067 855.736,449.067 855.736,430.106 859.423,430.106 859.423,387.97 801.485,387.97 
		801.485,426.42 810.439,434.32 794.111,452.228 785.421,442.747 767.513,443.274 758.296,451.175 739.861,433.267 748.288,425.893 
		748.288,387.97 	"/>
	<polygon id="r522" fill="#939598" stroke="#494949" stroke-miterlimit="10" points="597.071,388.549 622.564,414.042 
		626.725,409.881 627.146,410.276 627.146,388.549 	"/>
	<polygon id="r519" fill="#939598" stroke="#494949" stroke-miterlimit="10" points="672.442,388.549 672.442,440.377 
		695.354,417.465 705.625,427.736 705.625,388.549 	"/>
	<polygon id="r521" fill="#939598" stroke="#494949" stroke-miterlimit="10" points="627.146,388.549 627.146,410.276 
		647.161,430.291 647.161,388.549 	"/>
	<path id="r523-524" fill="#939598" stroke="#494949" stroke-miterlimit="10" d="M566.575,455.388c0,0-7.374,5.899-7.4,6.189
		c0.026,0,0.026,0,0.026,0c-0.026,0-0.026,0-0.026,0c-0.737-0.079-17.618-0.079-29.995,1.527c-4.293,0.553-8.059,1.29-10.402,2.291
		c-8.875,3.766-15.802,10.851-20.963,20.12l17.249,19.277l14.116-14.643l0.315-0.315h17.303l28.258-28.258L566.575,455.388z"/>
	<rect id="r504" x="426.999" y="543.348" fill="#939598" stroke="#494949" stroke-miterlimit="10" width="24.729" height="36.869"/>
	<polygon id="r503" fill="#939598" stroke="#494949" stroke-miterlimit="10" points="426.999,580.217 426.999,580.401 
		412.777,580.401 412.777,590.093 400.532,590.093 400.532,601.943 451.701,601.943 451.701,580.217 	"/>
	<path id="r532-533" fill="#939598" stroke="#494949" stroke-miterlimit="10" d="M481.249,685.558
		c-1.922-4.188-4.424-7.295-7.269-9.612c-13.035-10.587-32.919-4.082-32.919-4.082l-14.932,4.74v25.098h21.938h7.9v32.945h17.381
		v-30.891l11.061-13.353C483.146,688.981,482.065,687.375,481.249,685.558z"/>
	<path id="r530" fill="#939598" stroke="#494949" stroke-miterlimit="10" d="M498.104,698.673v35.974h2.081h6.688
		c0,0,3.213-3.213,3.424-3.424c0.343,0.158,0.711,0.316,1.054,0.475c0.026,0,0.053,0.026,0.053,0.026
		c0.342,0.157,0.685,0.289,1.001,0.421l0,0l0,0c1.053,0.422,2.106,0.79,3.134,1.08c0.026,0,0.053,0,0.053,0.026
		c0.236,0.079,0.474,0.132,0.685,0.185c0.053,0.025,0.105,0.025,0.158,0.052c0.21,0.053,0.447,0.105,0.658,0.158
		c0.053,0.026,0.132,0.026,0.184,0.053c0.211,0.053,0.422,0.105,0.633,0.158c0.053,0,0.105,0.026,0.158,0.026
		c0.685,0.132,1.343,0.264,2.001,0.368c0.079,0,0.158,0.026,0.211,0.026c0.158,0.026,0.315,0.053,0.474,0.053
		c0.132,0.026,0.237,0.026,0.369,0.053s0.289,0.026,0.421,0.053c0.053,0,0.132,0.026,0.185,0.026V701.78
		C517.618,701.859,507.427,701.701,498.104,698.673z"/>
	<path id="r531" fill="#939598" stroke="#494949" stroke-miterlimit="10" d="M484.409,690.403l-11.061,13.353v30.891h24.755v-35.974
		C492.863,696.961,487.912,694.38,484.409,690.403z"/>
	<polygon id="b2s" fill="#939598" stroke="#494949" stroke-miterlimit="10" points="432.266,272.174 432.266,326.873 
		422.259,326.873 422.259,392.71 539.107,392.71 564.995,370.326 604.498,362.162 604.498,311.598 552.091,286.843 552.091,275.624 
			"/>
	<polygon id="r510-512" fill="#939598" stroke="#494949" stroke-miterlimit="10" points="661.54,324.581 661.461,300.906 
		661.382,300.906 630.28,299.694 630.307,310.018 630.122,310.018 612.109,310.018 612.109,364.4 630.122,364.4 661.382,364.4 
		674.55,364.4 674.55,324.581 	"/>
	<rect id="r514" x="697.54" y="326.003" fill="#939598" stroke="#494949" stroke-miterlimit="10" width="31.418" height="38.396"/>
	<polygon id="r516" fill="#939598" stroke="#494949" stroke-miterlimit="10" points="793.927,321.79 753.371,321.79 753.371,311.15 
		753.187,311.124 753.187,364.4 793.927,364.4 	"/>
	<polygon id="r515" fill="#939598" stroke="#494949" stroke-miterlimit="10" points="729.669,310.544 729.484,326.003 
		728.958,326.003 728.958,364.4 753.187,364.4 753.187,311.124 	"/>
	<polygon id="r517" fill="#939598" stroke="#494949" stroke-miterlimit="10" points="840.54,343.569 840.54,334.088 831.06,333.562 
		831.06,317.76 806.489,316.707 806.489,364.4 842.199,364.4 842.199,343.648 	"/>
	<polygon id="r518" fill="#939598" stroke="#494949" stroke-miterlimit="10" points="860.555,339.355 860.555,344.622 
		842.199,343.648 842.199,364.4 843.095,364.4 846.939,370.984 877.146,370.984 877.146,340.066 	"/>
	
		<rect id="umm-milk" x="713.263" y="370.984" fill="#939598" stroke="#494949" stroke-miterlimit="10" width="27.02" height="11.851"/>
	
		<rect id="fuku-matcha" x="456.534" y="494.31" transform="matrix(-0.2935 0.956 -0.956 -0.2935 1092.6692 191.0595)" fill="#939598" stroke="#494949" stroke-miterlimit="10" width="38.398" height="9.982"/>
	
		<rect id="hello-yogurt" x="473.637" y="439.006" transform="matrix(-0.2935 0.956 -0.956 -0.2935 1061.9213 103.1694)" fill="#939598" stroke="#494949" stroke-miterlimit="10" width="38.399" height="9.982"/>
	<rect id="r529" x="543.927" y="701.701" fill="#939598" stroke="#494949" stroke-miterlimit="10" width="22.122" height="33.472"/>
	<g id="hongmin">
		<polygon id="dream-cones" fill="#939598" stroke="#494949" stroke-miterlimit="10" points="465.975,588.407 465.975,615.27 
			475.798,615.27 488.491,604.919 488.491,597.782 474.981,588.407 		"/>
		<path id="_x3C_path_x3E_" fill="#939598" stroke="#494949" stroke-miterlimit="10" d="M486.411,528.073
			c-0.711,9.033-0.658,18.461,0.079,27.915c0.975,12.22,7.821,20.568,15.906,26.23l21.357-21.358l-30.68-32.787H486.411
			L486.411,528.073z"/>
	</g>
	<path id="lord-of-shrimp" fill="#939598" stroke="#494949" stroke-miterlimit="10" d="M486.411,528.073h6.637l-0.237-0.264
		l22.227-23.017l-17.249-19.277C491.389,497.024,487.701,511.903,486.411,528.073z"/>
	<polygon id="k56" fill="#939598" stroke="#494949" stroke-miterlimit="10" points="431.213,505.109 456.047,505.319 
		451.701,522.068 431.213,522.068 	"/>
	<polygon id="k51" fill="#939598" stroke="#494949" stroke-miterlimit="10" points="475.851,428.632 431.213,428.632 
		431.213,409.881 480.723,409.881 	"/>
	<polygon id="k52" fill="#939598" stroke="#494949" stroke-miterlimit="10" points="471.058,447.355 431.213,447.355 
		431.213,428.632 475.851,428.842 	"/>
	<polygon id="k53" fill="#939598" stroke="#494949" stroke-miterlimit="10" points="466.212,466.106 431.213,466.106 
		431.213,447.355 471.058,447.355 	"/>
	<polygon id="k54" fill="#939598" stroke="#494949" stroke-miterlimit="10" points="460.761,487.069 431.213,487.069 
		431.213,466.106 466.212,466.106 	"/>
	<polygon id="k55" fill="#939598" stroke="#494949" stroke-miterlimit="10" points="456.047,505.319 431.213,505.109 
		431.213,487.069 460.761,487.069 	"/>
</g>
<g id="signs">
	<g id="escalator">
		<rect x="506.926" y="642.104" width="11.852" height="11.851"/>
		<rect x="523.254" y="410.355" width="11.851" height="11.851"/>
		<rect x="770.673" y="402.191" width="11.851" height="11.851"/>
		<rect x="574.476" y="345.202" width="11.852" height="11.851"/>
	</g>
	<g id="lift">
		<rect x="394.606" y="515.959" width="11.851" height="11.851"/>
		<rect x="340.487" y="349.257" width="11.852" height="11.851"/>
		<rect x="394.606" y="540.319" width="11.851" height="11.851"/>
		<rect x="896.266" y="370.984" width="11.851" height="11.851"/>
		<rect x="896.266" y="397.609" width="11.851" height="11.851"/>
	</g>
	<g id="toilet">
		<rect x="404.351" y="684.479" width="11.851" height="11.851"/>
		<rect x="697.04" y="311.572" width="11.851" height="11.851"/>
		<rect x="382.756" y="339.276" width="11.851" height="11.851"/>
	</g>
	<rect id="parking" x="95.965" y="513.194" width="11.851" height="11.851"/>
	<g id="wifi">
		<rect x="394.606" y="527.941" width="11.851" height="11.851"/>
		<rect x="486.911" y="642.104" width="11.852" height="11.851"/>
		<rect x="792.927" y="376.909" width="11.851" height="11.851"/>
	</g>
</g>
</svg>
