<?xml version="1.0" encoding="utf-8"?>
<!-- Generator: Adobe Illustrator 16.0.0, SVG Export Plug-In . SVG Version: 6.00 Build 0)  -->
<!DOCTYPE svg PUBLIC "-//W3C//DTD SVG 1.1//EN" "http://www.w3.org/Graphics/SVG/1.1/DTD/svg11.dtd">
<svg version="1.1" id="Layer_1" xmlns="http://www.w3.org/2000/svg" xmlns:xlink="http://www.w3.org/1999/xlink" x="0px" y="0px"
	 width="3797.242px" height="2105.578px" viewBox="0 0 3797.242 2105.578" enable-background="new 0 0 3797.242 2105.578"
	 xml:space="preserve">
<g id="background">
</g>
<g id="etc">
	<path fill="#BFBFBF" stroke="#494949" stroke-miterlimit="10" d="M1500.944,1625.483L1500.944,1625.483h98.995v-62.998h-97.495l0,0
		l0,0v-457.477l0,0l0,0h68.752V673.419h-29.837l0,0l0,0V321.401l-11.872-0.333l-6.364-0.18c0.906-6.982,1.381-14.093,1.381-21.309
		c0-95.599-81.928-173.097-182.991-173.097c-101.062,0-182.991,77.498-182.991,173.097c0,3.729,0.142,7.427,0.388,11.097
		l-187.547-5.258l-204,698v155h-234l58-395l-56.697-8.799c-5.847-64.91-59.704-115.76-125.29-115.76
		c-52.282,0-97.113,32.313-116.113,78.301l-49.9-7.742l-102,740l50.044,7.438c-0.264,3.371-0.403,6.779-0.403,10.221
		c0,70.414,56.334,127.494,125.826,127.494c60.454,0,110.94-43.203,123.055-100.799l51.479,7.646l17-131h264l-0.313,27.454
		c-105.165,7.896-187.951,92.591-187.951,195.914c0,94.631,59.088,155.166,124.264,190.631c93.816,51.056,290,160,290,160h502.585
		V1625.48h-0.003L1500.944,1625.483L1500.944,1625.483z M357.358,1502.088c-12,12-40.667,42-81.333,0
		c-22.667-28.668,4.667-33.334,4.667-33.334l72,10.666C352.691,1479.42,369.358,1490.088,357.358,1502.088z M445.673,769.729
		l-71.595-12.775c0,0-16.396-11.649-4.164-24.129c12.23-12.479,41.478-43.705,81.136,1.656
		C473.041,765.336,445.673,769.729,445.673,769.729z M785.359,1698.418c-32-1-93-36-91-105c0,0-8-66,81-92c2,1,35-10,35,9
		s0,166,0,166S817.359,1699.418,785.359,1698.418z M1416.938,313.725c-16.295-0.396-142.36-3.467-142.36-3.467
		s-19.861,5.096-18.382-20.374c1.479-25.47,32.678-73.329,91.812-70.294c0,0,56.757-4.993,77.328,66.443
		C1424.439,287.606,1433.233,314.122,1416.938,313.725z"/>
	<path fill="#BFBFBF" stroke="#494949" stroke-miterlimit="10" d="M3509.359,607.93v-34.511h-24v-35.5h-176v61.5h-67.033
		l-186.967-50h-84.01c0,0-77.99-16.979-167.99,58.511c4-2.511-26,35.489-26,35.489h-166.02v-180h72.02v-28h287.99v-96.394
		l-4.979-0.127l-451.012-11.479v-30l-206-8v-82l-696-20v136l-72-2.02v352.019h29.837v431.59h-68.752v457.477h97.495v62.996h-98.995
		v318.938h427.415c0,0,12.157-12.157,13-13c18.971,9.146,38.055,12.552,55,13.06c33.074,0.992,58-9.06,58-9.06l8,11h655
		c0,0,0.205-5.461,0.441-10.312v-72.781h-36.414V1757.42c0,0,146.992,39.053,245.986-19.445
		c98.996-58.496,133.494-132.055,133.494-132.055s34.498-71.937,34.498-148.433c-3-58.495-10.5-85.493-10.5-85.493l139.488,3
		l61,1.426v-17.924V1249.42h-199.527v-292h107.527v28h92v-44h-199.527v-104l57.527-68c0,0-0.063-114,98.971-114
		c5.029,0,121.029,0,121.029,0v71.008h118V694.42h26V664.03h52v-56.1H3509.359z"/>
	<path fill="#BFBFBF" stroke="#494949" stroke-miterlimit="10" d="M2219.359,1653.418h276.545c25.957,0,47-21.043,47-47v-34
		c0-25.957-21.043-47-47-47h-276.545V1653.418z"/>
	<rect x="2145.359" y="1525.418" fill="#BFBFBF" stroke="#494949" stroke-miterlimit="10" width="74" height="128"/>
	<path fill="#BFBFBF" stroke="#494949" stroke-miterlimit="10" d="M3033.359,734.419c0,38.106-30.895,69-69,69h-37.898
		c-38.107,0-69-30.894-69-69v-28c0-38.106,30.893-69,69-69h37.898c38.105,0,69,30.894,69,69V734.419z"/>
	<path fill="#BFBFBF" stroke="#494949" stroke-miterlimit="10" d="M2757.361,1504.086c58.666,0,60-84.666,78-119.334
		c4.158-8.013,13.176-15.222,24.83-20.271c40.996-17.764,114.639-8.797,124.502,85.937c6.398,88.336-38.498,142.053-70.334,177.668
		c-19.666,22.002-134.998,82.67-224.332,20.668C2618.218,1574.086,2687.361,1504.086,2757.361,1504.086z"/>
	<path fill="#BFBFBF" stroke="#494949" stroke-miterlimit="10" d="M2004.587,1721.196c21.009-23.668,36.771-47.928,36.771-67.774
		c0-17.5,0-44,0-70c0-17.957-25.758-45.931-41.691-61.519c0,0,0,0-6.053-0.088c-54.809-0.797-99.246,20.631-99.246,46.082v107.5
		c0,25.449,44.453,47.49,99.246,46.082C2004.587,1721.196,2004.587,1721.196,2004.587,1721.196z"/>
	<rect x="2160.361" y="1654.426" fill="#BFBFBF" stroke="#494949" stroke-miterlimit="10" width="57.998" height="39.332"/>
	<rect x="2482.027" y="1654.426" fill="#BFBFBF" stroke="#494949" stroke-miterlimit="10" width="57.998" height="39.332"/>
	<polygon fill="#BFBFBF" stroke="#494949" stroke-miterlimit="10" points="1502.444,1405.821 1502.444,1503.418 1562.359,1503.418 
		1562.359,1406.41 	"/>
	<path fill="#BFBFBF" stroke="#494949" stroke-miterlimit="10" d="M3095.123,1452.99c0.084,1.48,0.168,2.974,0.246,4.498
		c0,26.479-4.135,52.406-9.539,74.998h163.537c-1.066-30.822-3.779-57.401-7.041-79.496H3095.123L3095.123,1452.99z"/>
	<polygon fill="#BFBFBF" stroke="#494949" stroke-miterlimit="10" points="3638.359,586.419 3658.359,586.419 3658.359,544.419 
		3636.359,544.419 3636.359,479.419 3583.359,475.419 3583.359,457.419 3439.359,450.957 3439.359,537.919 3485.359,537.919 
		3485.359,573.419 3509.359,573.419 3509.359,607.93 3559.359,607.93 3559.359,639.419 3638.359,639.419 	"/>
	<path fill="#BFBFBF" stroke="#494949" stroke-miterlimit="10" d="M3252.359,790.025v-0.605h13l2,25l2,0.038v-57.038h-125.197
		c-0.805,7.377-0.803,12-0.803,12l-32.148,38h141.148V790.025z"/>
	<path fill="#BFBFBF" stroke="#494949" stroke-miterlimit="10" d="M3363.359,726.428V655.42c0,0-58.268,0-94,0v102l0,0v57.037
		l80.99,1.538l85.01,1.614v-91.184L3363.359,726.428L3363.359,726.428z"/>
	<polygon fill="#BFBFBF" stroke="#494949" stroke-miterlimit="10" points="3638.359,702.419 3638.359,639.419 3559.359,639.419 
		3559.359,664.031 3507.359,664.031 3507.359,694.419 3481.359,694.419 3481.359,726.428 3435.359,726.428 3435.359,817.609 
		3583.359,820.419 3583.359,800.419 3636.359,800.419 3636.359,742.419 3658.359,742.419 3658.359,702.419 	"/>
	<rect x="3085.83" y="1147.418" fill="#BFBFBF" stroke="#494949" stroke-miterlimit="10" width="199.529" height="48"/>
	<polygon fill="#BFBFBF" stroke="#494949" stroke-miterlimit="10" points="3347.359,446.829 3271.359,443.419 3271.359,463.419 
		3245.359,462.051 3245.359,599.419 3269.359,599.419 3269.359,599.419 3309.359,599.419 3309.359,537.919 3439.359,537.919 
		3439.359,450.957 	"/>
</g>
<g id="rooms">
	<polygon id="central-department-store" fill="#939598" stroke="#494949" stroke-miterlimit="10" points="2490.559,1201.418 
		2559.359,1135.655 2559.359,453.419 2515.359,453.419 2515.359,453.419 2515.359,453.419 2515.359,297.419 2309.359,289.419 
		2309.359,207.419 1613.359,187.419 1613.359,1201.418 2383.359,1201.418 2383.359,1314.418 2490.559,1314.418 	"/>
	<rect id="r304-3" x="1721.359" y="1201.418" fill="#939598" stroke="#494949" stroke-miterlimit="10" width="184" height="57"/>
	<polygon id="r304-2" fill="#939598" stroke="#494949" stroke-miterlimit="10" points="1721.359,1258.418 1721.359,1314.418 
		1804.359,1314.418 1804.359,1314.418 1905.359,1314.418 1905.359,1258.418 	"/>
	<path id="r302-303" fill="#939598" stroke="#494949" stroke-miterlimit="10" d="M1804.359,1408.418L1804.359,1408.418v-94h-83v1
		h-108v-44h-50v135l-1-0.011v97.011h1v36.5c0,0,140,0,208.5,0c55.398,0,91.562-20.357,112.099-51.9L1804.359,1408.418
		L1804.359,1408.418z"/>
	<path id="r304-1" fill="#939598" stroke="#494949" stroke-miterlimit="10" d="M1905.359,1314.418h-101v94l79.599,79.6
		c14.704-22.586,21.401-50.9,21.401-81.6V1314.418z"/>
	<polygon id="r357-359" fill="#939598" stroke="#494949" stroke-miterlimit="10" points="1898.49,1802.549 1758.359,1662.418 
		1584.359,1662.418 1584.359,1810.418 1703.359,1810.418 1703.359,1790.418 1733.401,1790.475 1733.401,1944.418 1902.923,1944.418 
		1902.923,1802.549 	"/>
	<path id="r356-2" fill="#939598" stroke="#494949" stroke-miterlimit="10" d="M1902.923,1802.549v141.869h25.438
		c0,0,12.157-12.158,13-13c2.688,1.297,5.379,2.465,8.062,3.538v-132.407H1902.923z"/>
	<polygon id="r353" fill="#939598" stroke="#494949" stroke-miterlimit="10" points="2179.359,1757.418 2179.359,1922.418 
		2177.412,1922.418 2177.412,1946.418 2229.908,1946.418 2229.908,1757.418 	"/>
	<rect id="r352" x="2229.908" y="1757.418" fill="#939598" stroke="#494949" stroke-miterlimit="10" width="49.498" height="189"/>
	<rect id="r351" x="2279.406" y="1757.418" fill="#939598" stroke="#494949" stroke-miterlimit="10" width="92.996" height="189"/>
	<rect id="r350" x="2372.4" y="1757.418" fill="#939598" stroke="#494949" stroke-miterlimit="10" width="52.498" height="189"/>
	<rect id="r348" x="2474.396" y="1757.418" fill="#939598" stroke="#494949" stroke-miterlimit="10" width="80.996" height="189"/>
	<rect id="r347" x="2555.393" y="1757.418" fill="#939598" stroke="#494949" stroke-miterlimit="10" width="49.496" height="189"/>
	<path id="r346" fill="#939598" stroke="#494949" stroke-miterlimit="10" d="M2717.8,1932.418h-61.439v-175h-51.472v189h112.472
		C2717.359,1946.418,2717.841,1937.721,2717.8,1932.418z"/>
	<rect id="r349" x="2424.898" y="1757.418" fill="#939598" stroke="#494949" stroke-miterlimit="10" width="49.498" height="189"/>
	<path id="r354-355" fill="#939598" stroke="#494949" stroke-miterlimit="10" d="M2133.359,1922.418v-67h29v-97h-21l-47.943,21.813
		l-49.057,22.313h-46.939V1944.5c32.543,0.748,56.939-9.082,56.939-9.082l8,11h31.057h83.996v-24H2133.359L2133.359,1922.418z"/>
	<path id="r356-1" fill="#939598" stroke="#494949" stroke-miterlimit="10" d="M1949.421,1802.549v132.407
		c16.271,6.502,32.394,9.084,46.938,9.521c0.354,0.012,0.707,0.014,1.061,0.021v-141.948H1949.421L1949.421,1802.549z"/>
	<path id="r344-345" fill="#939598" stroke="#494949" stroke-miterlimit="10" d="M2681.388,1757.418v105.905h36.414v72.795
		c0.191-3.905,0.406-7.418,0.559-7.366c13.989,4.76,27.668,8.715,41,11.969c17.352,4.236,34.405,6.986,51.021,8.525v-179.625
		C2741.3,1773.332,2681.388,1757.418,2681.388,1757.418z"/>
	<path id="r341-343" fill="#939598" stroke="#494949" stroke-miterlimit="10" d="M2810.382,1769.621v179.625
		c72.584,6.722,136.781-9.682,180.711-26.33l-67.364-182.846C2888.742,1759.682,2848.191,1767.59,2810.382,1769.621z"/>
	<path id="r339-340" fill="#939598" stroke="#494949" stroke-miterlimit="10" d="M2927.375,1737.975
		c-1.207,0.715-2.424,1.41-3.646,2.096l67.365,182.846c37.949-14.381,60.773-28.946,60.773-28.946s80.246,5.25,118.492-32.998
		c0.738-0.74,1.457-1.498,2.162-2.265l-177.416-170.637C2977,1704.615,2954.638,1721.865,2927.375,1737.975z"/>
	<path id="r334" fill="#939598" stroke="#494949" stroke-miterlimit="10" d="M3224.357,1374.994l-139.488-3
		c0,0,7.111,25.621,10.254,80.996h147.203C3234.806,1402.055,3224.357,1374.994,3224.357,1374.994z"/>
	<path id="r336-338" fill="#939598" stroke="#494949" stroke-miterlimit="10" d="M3249.367,1532.487H3085.83
		c-10.211,42.676-24.961,73.435-24.961,73.435s-18.123,38.623-65.762,82.149l177.416,170.637
		c38.521-41.895,23.336-120.729,23.336-120.729s53.998-80.994,53.998-177.059
		C3249.857,1551.074,3249.681,1541.598,3249.367,1532.487z"/>
	<rect id="r316" x="2611.341" y="463.419" fill="#939598" stroke="#494949" stroke-miterlimit="10" width="72.02" height="180"/>
	<polygon id="r317" fill="#939598" stroke="#494949" stroke-miterlimit="10" points="2683.359,435.419 2683.359,463.419 
		2683.359,643.419 2733.359,643.419 2733.359,435.419 	"/>
	<path id="r318" fill="#939598" stroke="#494949" stroke-miterlimit="10" d="M2733.359,435.419v208h44c0,0,1.596-2.021,4-5.099
		V435.419H2733.359z"/>
	<path id="r319" fill="#939598" stroke="#494949" stroke-miterlimit="10" d="M2781.359,435.419v202.901
		c8.023-10.271,25.076-32.323,22-30.393c27.012-22.655,52.936-36.977,76-45.934V435.419H2781.359z"/>
	<path id="r320" fill="#939598" stroke="#494949" stroke-miterlimit="10" d="M2879.359,435.419v126.577
		c43.562-16.917,76.896-14.682,88-13.221V435.419H2879.359z"/>
	<path id="r321" fill="#939598" stroke="#494949" stroke-miterlimit="10" d="M3066.068,357.449l-0.709-0.029v-16l-94.008-2.394
		v96.394h-3.992v113.356c2.604,0.343,3.992,0.644,3.992,0.644h84.008l14,3.744V357.59L3066.068,357.449z"/>
	<polygon id="r322" fill="#939598" stroke="#494949" stroke-miterlimit="10" points="3159.359,361.419 3069.359,357.59 
		3069.359,553.163 3159.359,577.232 3159.359,421.419 	"/>
	<path id="r324-3" fill="#939598" stroke="#494949" stroke-miterlimit="10" d="M3269.359,655.419c-14.686,0-25.566,0-27.033,0
		c-79.104,0-94.979,72.724-98.164,102h125.197V655.419z"/>
	<polygon id="r325-2" fill="#939598" stroke="#494949" stroke-miterlimit="10" points="3252.359,807.419 3111.208,807.419 
		3085.83,837.419 3085.83,855.419 3252.359,855.419 	"/>
	<polygon id="r326" fill="#939598" stroke="#494949" stroke-miterlimit="10" points="3285.359,859.419 3252.359,859.419 
		3252.359,857.521 3252.359,855.419 3085.83,855.419 3085.83,899.419 3285.359,899.419 	"/>
	<rect id="r327" x="3085.83" y="899.419" fill="#939598" stroke="#494949" stroke-miterlimit="10" width="199.529" height="42"/>
	
		<rect id="r329-1" x="3085.83" y="1013.419" fill="#939598" stroke="#494949" stroke-miterlimit="10" width="199.529" height="39.37"/>
	
		<rect id="r330" x="3085.83" y="1093.957" fill="#939598" stroke="#494949" stroke-miterlimit="10" width="199.529" height="53.461"/>
	<polygon id="r332" fill="#939598" stroke="#494949" stroke-miterlimit="10" points="3085.83,1195.418 3085.83,1249.418 
		3174.359,1249.418 3285.359,1249.418 3285.359,1195.418 	"/>
	<polygon id="r328" fill="#939598" stroke="#494949" stroke-miterlimit="10" points="3285.359,985.419 3193.359,985.419 
		3193.359,985.419 3193.359,985.419 3193.359,957.419 3085.83,957.419 3085.83,1013.419 3285.359,1013.419 	"/>
	<rect id="r333" x="3085.83" y="1249.418" fill="#939598" stroke="#494949" stroke-miterlimit="10" width="88.529" height="94"/>
	<path id="r305-1" fill="#939598" stroke="#494949" stroke-miterlimit="10" d="M2093.416,1201.418v238c0,0,6.051,24,41.998,24
		c1.438,0,3.439,0,5.945,0v-262H2093.416z"/>
	<path id="r305-2-306-1-306-2" fill="#939598" stroke="#494949" stroke-miterlimit="10" d="M2141.359,1201.418v262
		c20.686,0,76.145,0,140,0v-262H2141.359z"/>
	<path id="r307" fill="#939598" stroke="#494949" stroke-miterlimit="10" d="M2383.359,1314.418v-113h-102v262
		c34.271,0,70.967,0,106,0v-149H2383.359z"/>
	<path id="r308-1" fill="#939598" stroke="#494949" stroke-miterlimit="10" d="M2387.359,1314.418v149c17.229,0,34.057,0,50,0v-149
		H2387.359z"/>
	<path id="r309" fill="#939598" stroke="#494949" stroke-miterlimit="10" d="M2581.359,1322.086L2581.359,1322.086l36.857-43.004
		l-99.924-104.177l-27.736,26.513v113h-5.199v149c41.828,0,70.033,0,70.033,0s10-2.365,25.967-8.197L2581.359,1322.086
		L2581.359,1322.086z"/>
	<path id="r310" fill="#939598" stroke="#494949" stroke-miterlimit="10" d="M2618.218,1279.082l-36.857,43.005v133.135
		c30.641-11.188,83.262-35.146,129.403-79.652L2618.218,1279.082z"/>
	<path id="r311" fill="#939598" stroke="#494949" stroke-miterlimit="10" d="M2801.359,1135.918c0-2.5-242-0.265-242-0.265
		l-41.063,39.252l99.924,104.176l0,0l92.545,96.482C2762.72,1325.449,2806.462,1249.278,2801.359,1135.918z"/>
	<path id="r308-2" fill="#939598" stroke="#494949" stroke-miterlimit="10" d="M2437.359,1314.418v149c17.24,0,33.441,0,48,0v-149
		H2437.359z"/>
	<path id="r314-315" fill="#939598" stroke="#494949" stroke-miterlimit="10" d="M2803.563,853.622
		c0-21.897-22.203-22.202-22.203-22.202h-222v95.099h243.711C2803.355,889.405,2803.563,860.328,2803.563,853.622z"/>
	<path id="r313-2" fill="#939598" stroke="#494949" stroke-miterlimit="10" d="M2803.07,926.518h-243.711v58.497h243.248
		C2802.77,964.711,2802.929,944.655,2803.07,926.518z"/>
	<path id="r313-1" fill="#939598" stroke="#494949" stroke-miterlimit="10" d="M2802.605,985.015h-243.246v47.998h242.854
		C2802.343,1017.416,2802.477,1001.138,2802.605,985.015z"/>
	<path id="r312-2" fill="#939598" stroke="#494949" stroke-miterlimit="10" d="M2802.214,1033.013H2559.36v49.498h242.446
		C2801.929,1067.729,2802.07,1050.816,2802.214,1033.013z"/>
	<path id="r312-1" fill="#939598" stroke="#494949" stroke-miterlimit="10" d="M2559.359,1082.51v53.145l242,0.267
		c0,0,0.186-21.847,0.445-53.41L2559.359,1082.51L2559.359,1082.51z"/>
	<path id="kane-mochi" fill="#939598" stroke="#494949" stroke-miterlimit="10" d="M2897.138,622.07
		c5.459,6.229,4.834,15.708-1.396,21.167l-48.887,42.838c-6.229,5.459-15.707,4.835-21.168-1.396l-7.906-9.023
		c-5.461-6.229-4.836-15.708,1.395-21.167l48.887-42.839c6.23-5.459,15.707-4.836,21.168,1.396L2897.138,622.07z"/>
	<path id="auntie-s-anne" fill="#939598" stroke="#494949" stroke-miterlimit="10" d="M2885.91,891.97
		c-26.449,0-28.449,28.45-28.449,28.45v85.667c6.266-35.331,51.563-46.385,90.398-49.256V891.97
		C2921.977,891.97,2896.791,891.97,2885.91,891.97z"/>
	<path id="coffee-world" fill="#939598" stroke="#494949" stroke-miterlimit="10" d="M3023.359,891.97c0,0-38.463,0-75.5,0v64.861
		c30.777-2.274,57.5,0.589,57.5,0.589h48.271c0,0,0-9,0-35.177C3053.631,896.068,3023.359,891.97,3023.359,891.97z"/>
	<path id="mezzo-coffee" fill="#939598" stroke="#494949" stroke-miterlimit="10" d="M2944.695,1342.086c0,8.282-6.717,15-15,15h-72
		c-8.285,0-15-6.718-15-15v-18.998c0-8.285,6.715-15,15-15h72c8.283,0,15,6.715,15,15V1342.086z"/>
	<path id="mr-donut" fill="#939598" stroke="#494949" stroke-miterlimit="10" d="M2629.037,1634.418
		c-7.555,0-13.676-6.716-13.676-15v-72c0-8.283,6.121-15,13.676-15h17.318c7.553,0,13.676,6.717,13.676,15v72
		c0,8.284-6.123,15-13.676,15H2629.037z"/>
	<path id="gateaux-house" fill="#939598" stroke="#494949" stroke-miterlimit="10" d="M2092.859,1567.897
		c0-24.508-41.201-44.541-93.193-45.994c15.938,15.588,41.693,43.562,41.693,61.518c0,12.935,0,25.988,0,38h51.5V1567.897z"/>
	<path id="gelatoni" fill="#939598" stroke="#494949" stroke-miterlimit="10" d="M2041.359,1621.418c0,12.135,0,23.204,0,32
		c0,19.85-15.766,44.108-36.771,67.776c49.646-2.537,88.271-22.072,88.271-45.803v-53.978h-51.5V1621.418L2041.359,1621.418z"/>
	<path id="dakasi" fill="#939598" stroke="#494949" stroke-miterlimit="10" d="M3067.154,689.591
		c-5.838,5.878-15.336,5.911-21.213,0.072l-46.121-45.803c-5.877-5.838-5.91-15.336-0.072-21.214l8.457-8.516
		c5.836-5.878,15.334-5.911,21.211-0.072l46.121,45.804c5.877,5.837,5.91,15.335,0.072,21.214L3067.154,689.591z"/>
	<polygon id="r323-1" fill="#939598" stroke="#494949" stroke-miterlimit="10" points="3240.857,461.814 3195.359,459.419 
		3195.359,423.419 3161.181,421.521 3159.359,421.419 3159.359,577.232 3242.326,599.419 3245.359,599.419 3245.359,462.051 	"/>
	<path id="dr-somchai" fill="#939598" stroke="#494949" stroke-miterlimit="10" d="M2857.461,1057.762v-54.392
		c0,0-1.529-55.023,147.898-46.007l-0.004,100.399H2857.461z"/>
	
		<rect id="lashes" x="2857.461" y="1057.762" fill="#939598" stroke="#494949" stroke-miterlimit="10" width="147.895" height="97.027"/>
	<path id="kiss-me-doll" fill="#939598" stroke="#494949" stroke-miterlimit="10" d="M2857.461,1154.789l-0.003,93.17l71.429-0.111
		c0,0,74.953-3.059,76.469-93.059H2857.461z"/>
	
		<rect id="r329-2" x="3085.83" y="1052.789" fill="#939598" stroke="#494949" stroke-miterlimit="10" width="199.529" height="41.168"/>
</g>
<g id="signs">
	<g id="escalator">
		<rect x="1924.859" y="1592.418" width="45" height="45"/>
		<rect x="2725.359" y="1560.918" width="45" height="45"/>
		<rect x="2869.359" y="1406.418" width="45" height="45"/>
		<rect x="2926.352" y="681.428" width="45" height="45"/>
	</g>
	<g id="lift">
		<rect x="1498.359" y="1113.418" width="45" height="45"/>
		<rect x="1547.359" y="515.419" width="45" height="45"/>
		<rect x="1498.359" y="1186.418" width="45" height="45"/>
		<rect x="3403.328" y="562.93" width="45" height="45"/>
		<rect x="3403.328" y="664.031" width="45" height="45"/>
	</g>
	<g id="toilet">
		<rect x="1529.359" y="1880.418" width="45" height="45"/>
		<rect x="2611.341" y="364.17" width="45" height="45"/>
	</g>
	<g id="parking">
		<rect x="1160.29" y="791.398" width="45" height="45"/>
		<rect x="341.208" y="1068.418" width="45" height="45"/>
	</g>
	<rect id="handicapped-parking" x="1178.79" y="1773.672" width="45" height="45"/>
	<g id="wifi">
		<rect x="1776.359" y="1591.578" width="45" height="45"/>
		<rect x="2925.359" y="592.419" width="45" height="45"/>
	</g>
</g>
</svg>
