<?xml version="1.0" encoding="utf-8"?>
<!-- Generator: Adobe Illustrator 16.0.3, SVG Export Plug-In . SVG Version: 6.00 Build 0)  -->
<!DOCTYPE svg PUBLIC "-//W3C//DTD SVG 1.1//EN" "http://www.w3.org/Graphics/SVG/1.1/DTD/svg11.dtd">
<svg version="1.1" xmlns="http://www.w3.org/2000/svg" xmlns:xlink="http://www.w3.org/1999/xlink" x="0px" y="0px"
	 width="841.89px" height="595.28px" viewBox="0 0 841.89 595.28" enable-background="new 0 0 841.89 595.28" xml:space="preserve">
<g id="ETC">
	<path fill="none" stroke="#FBB040" stroke-width="0.5" stroke-miterlimit="10" d="M812.792,142.715v-13.971h-13.371v-4.99H714.4
		v4.99h-19.559v-11.575h-10.378v-12.175h-26.145v-5.389H515.622v13.572h-12.973v-7.185h-17.763V93.419h-22.552V73.462H283.514
		v17.962h-23.351l0.2,132.12h11.176v72.38h-15.301v43.907h-3.193v168.177h359.24c0,0,45.237-0.532,75.306-32.198
		c30.07-31.667,31.002-80.829,31.002-80.829v-38.718V250v-2.506v-26.327h-10.378v-11.791v-2.995h6.586v5.788h84.421v-6.188h13.771
		v-13.371h5.588v-49.894H812.792z"/>
	
		<rect x="633.595" y="177.299" transform="matrix(0.7045 0.7097 -0.7097 0.7045 320.2077 -410.3715)" fill="none" stroke="#FBB040" stroke-width="0.5" stroke-miterlimit="10" width="38.588" height="4.058"/>
	
		<rect x="592.968" y="177.299" transform="matrix(-0.7072 0.707 -0.707 -0.7072 1172.0295 -126.7467)" fill="none" stroke="#FBB040" stroke-width="0.5" stroke-miterlimit="10" width="38.587" height="4.058"/>
	
		<rect x="345.023" y="399.96" transform="matrix(0.7097 -0.7045 0.7045 0.7097 -177.4409 373.3442)" fill="none" stroke="#FBB040" stroke-width="0.5" stroke-miterlimit="10" width="38.588" height="4.058"/>
	
		<rect x="345.024" y="440.156" transform="matrix(0.707 0.7072 -0.7072 0.707 419.4292 -128.0934)" fill="none" stroke="#FBB040" stroke-width="0.5" stroke-miterlimit="10" width="38.588" height="4.058"/>
	<polygon fill="none" stroke="#FBB040" stroke-width="0.5" stroke-miterlimit="10" points="272.667,398.666 253.044,398.666 
		253.044,445.5 273.333,445.5 283.167,436.5 283.167,408.833 272.667,398.833 	"/>
	<path fill="none" stroke="#FBB040" stroke-width="0.5" stroke-miterlimit="10" d="M681.584,225.25h0.25v-51.417h51.5v-12.167
		h-62.333l-11.75-11.75h-50.083l-25.375,25.375h-43.292v-51.125h93.333V99.606H515.622v13.572h-12.973v-7.185h-17.763V124.5h49.78
		v98.167h47.834l11,11v19.167l1.75,1.75v13.583l-2.625,2.625V277l3.104,3.104v12.562l-2.698,2.698v6.302l2.766,2.766v13.4
		l-2.565,2.565v15.769c0,0-33.899,3-46.565,46h-15.833L528,385h-13.166l-2.5-2.5h-6.333l-2.583,2.584h-13.584l-2.541-2.541h-5.459
		l-2.854,2.854h-13.646l-3.365-3.365h-4.802l-3.267,3.266h-13.733l-2.565-2.565h-18.268l-10.616-10.616v-49.781H361.5v49.333
		L337.167,398.5h-27.333l-9.667,10.333h-17V436.5H300l12,11.833V472.5h-24.833v-2.167h-13.833V445.5h-20.289v62.508h65.289v-61.675
		h16.333L359.334,471h51.5l8.25-8.25h18.583l2.875-2.875h13.291l2.563,2.563h5.938l2.47-2.469h13.864l2.683,2.682H487l2.658-2.658
		h13.676l2.67,2.67h5.83l2.831-2.831h13.502l2.917,2.917h4.729l3.301-3.301H553l2.693,2.693h21.974l3.597,3.597h19.237l4.798,4.798
		h46.035l9,15.631v9.469c9.393-4.646,18.909-11.034,27.256-19.825c7.514-7.913,13.209-16.919,17.523-25.977h-7.612l-16-9.166V394.5
		l-8.834-8.5v-16.334l-2.666-3.5v-62.359l3-2.974v-5.5l-3-2.667V279l3-2.833l-0.167-6.333l-2.833-2.5v-11.667l3.166-2.833h23.834
		v8.333h21.591V250h-45.591v-16.167L681.584,225.25z"/>
	<path fill="none" stroke="#FBB040" stroke-width="0.5" stroke-miterlimit="10" d="M641.75,246.438v4.313
		c0,0-4.563,4.063-8.375,4.063s-9-4.188-9-4.188v-3.938h-12.113v78.573l6.613,8.739H647.5l7.619-7.619v-79.943H641.75z"/>
	<polygon fill="none" stroke="#FBB040" stroke-width="0.5" stroke-miterlimit="10" points="600.667,215 617.917,231.917 
		623.083,226.833 642.417,226.917 647.417,231.917 664.75,215 659.333,209.75 659.5,190.25 660.105,189.479 643.044,172.29 
		642.333,173.25 623,173.25 622.17,172.29 604.895,189.562 605.5,190.333 605.75,210 	"/>
	<polygon fill="none" stroke="#FBB040" stroke-width="0.5" stroke-miterlimit="10" points="357.349,411.766 374.58,394.662 
		375.583,395.667 395.083,395.833 400.417,390.333 417.167,407.583 412.167,412.583 412.083,432.167 417.167,437.333 399.917,454.5 
		395.167,449.417 375.583,449.417 374.916,449.917 358.168,433.165 358.5,432.417 358.417,412.75 	"/>
	<polygon fill="none" stroke="#FBB040" stroke-width="0.5" stroke-miterlimit="10" points="261.917,409.75 268.583,409.75 
		273.542,414.709 273.542,429.917 268.604,434.854 262.25,434.854 	"/>
	<path fill="none" stroke="#FBB040" stroke-width="0.5" stroke-miterlimit="10" d="M655.975,392.901
		c-1.426-13.288-8.359-24.924-18.474-32.585c-7.923-6.001-17.794-9.566-28.499-9.566c-1.095,0-2.176,0.051-3.252,0.124v9.45h-2.575
		l-4.342,4.342v3.834h-4.749v8.166l-6.917,6.917H579v4.917h-3.75l-4.333,4.333v2.583h-9.093c-0.046,0.856-0.073,1.718-0.073,2.585
		c0,10.31,3.312,19.841,8.916,27.608c7.542,10.454,19.249,17.695,32.694,19.296c1.851,0.22,3.73,0.347,5.641,0.347
		c2.672,0,5.288-0.233,7.84-0.659l-5.301-5.301c0,0,4.208-16.875,12.875-25.542s26.084-13.167,26.084-13.167l5.244,4.337
		c0.331-2.259,0.509-4.568,0.509-6.919C656.253,396.277,656.154,394.577,655.975,392.901z"/>
	<path fill="none" stroke="#FBB040" stroke-width="0.5" stroke-miterlimit="10" d="M655.744,404.92l-5.244-4.337
		c0,0-17.417,4.5-26.084,13.167s-12.875,25.542-12.875,25.542l5.301,5.301C636.96,441.231,652.772,425.167,655.744,404.92z"/>
	
		<rect x="601.25" y="352.625" fill="none" stroke="#FBB040" stroke-width="0.5" stroke-miterlimit="10" width="38.125" height="3.875"/>
	<rect x="563" y="391.125" fill="none" stroke="#FBB040" stroke-width="0.5" stroke-miterlimit="10" width="5" height="37.625"/>
	<polygon fill="none" stroke="#FBB040" stroke-width="0.5" stroke-miterlimit="10" points="272.667,339.831 256.238,339.831 
		253.044,339.831 253.044,398.666 272.667,398.666 	"/>
	<polygon fill="none" stroke="#FBB040" stroke-width="0.5" stroke-miterlimit="10" points="285,322.334 285,246.833 
		271.539,246.833 271.539,295.924 256.238,295.924 256.238,339.831 284.667,339.831 	"/>
	<path fill="none" stroke="#FBB040" stroke-width="0.5" stroke-miterlimit="10" d="M536.625,401.375H433v12.375h3.667
		c0,0,4.458,2.75,4.333,8.563S436.667,431,436.667,431H433v12.25h104.242l6.133-6.625V408.5L536.625,401.375z"/>
	
		<rect x="559.5" y="462.141" fill="none" stroke="#FBB040" stroke-width="0.5" stroke-miterlimit="10" width="7.334" height="45.867"/>
</g>
<g id="Background">
	<rect fill="#FFFFFF" width="841.89" height="595.28"/>
</g>
<g id="Original">
	
		<image overflow="visible" width="3508" height="2479" xlink:href="FLOOR_PLAN_1.jpg"  transform="matrix(0.1933 0 0 0.1933 225.1045 49.0503)">
	</image>
</g>
<g id="Signs">
	<rect id="elevator" x="574.262" y="361.843" opacity="0.8" width="14.811" height="14.811"/>
	<g id="escalator">
		<rect x="586.439" y="376.653" opacity="0.8" width="14.811" height="14.811"/>
		<rect x="626.237" y="155.75" opacity="0.8" width="14.811" height="14.811"/>
		<rect x="338.904" y="414.678" opacity="0.8" width="14.811" height="14.811"/>
	</g>
	<g id="telephone">
		<rect x="523.595" y="148.345" opacity="0.8" width="14.811" height="14.811"/>
		<rect x="307.106" y="449.858" opacity="0.8" width="14.811" height="14.811"/>
	</g>
	<g id="toilet">
		<rect x="292.667" y="479.173" opacity="0.8" width="14.811" height="14.811"/>
		<rect x="552.429" y="103.845" opacity="0.8" width="14.811" height="14.811"/>
	</g>
</g>
<g id="Rooms">
	<polygon fill="#939598" stroke="#FFFFFF" stroke-width="0.5" stroke-miterlimit="10" points="285,322.334 509.777,322.334 
		534.667,299.833 534.667,124.5 484.887,124.5 484.887,105.993 484.887,93.419 462.335,93.419 462.335,73.462 283.514,73.462 
		283.514,91.424 260.163,91.424 260.362,223.544 271.539,223.544 271.539,246.833 285,246.833 	"/>
	<polygon fill="#939598" stroke="#FFFFFF" stroke-width="0.5" stroke-miterlimit="10" points="273.333,470.333 287.167,470.333 
		287.167,472.5 312,472.5 312,448.333 300,436.5 283.167,436.5 273.333,445.5 	"/>
	<polygon fill="#939598" stroke="#FFFFFF" stroke-width="0.5" stroke-miterlimit="10" points="456.396,462.438 453.833,459.875 
		440.542,459.875 437.667,462.75 419.083,462.75 410.834,471 410.834,508.008 460.667,508.008 460.667,462.438 	"/>
	<polygon fill="#939598" stroke="#FFFFFF" stroke-width="0.5" stroke-miterlimit="10" points="410.833,471 385.167,471 
		385.167,508.008 410.834,508.008 410.834,471 	"/>
	<polygon fill="#939598" stroke="#FFFFFF" stroke-width="0.5" stroke-miterlimit="10" points="506.004,462.662 503.334,459.992 
		489.658,459.992 487,462.65 485.334,462.65 485.334,508.008 510.334,508.008 510.334,462.662 	"/>
	<polygon fill="#939598" stroke="#FFFFFF" stroke-width="0.5" stroke-miterlimit="10" points="481.35,462.65 478.667,459.969 
		464.803,459.969 462.333,462.438 460.667,462.438 460.667,508.008 485.334,508.008 485.334,462.65 	"/>
	
		<rect x="361.5" y="471" fill="#939598" stroke="#FFFFFF" stroke-width="0.5" stroke-miterlimit="10" width="23.667" height="37.008"/>
	<polygon fill="#939598" stroke="#FFFFFF" stroke-width="0.5" stroke-miterlimit="10" points="334.667,446.333 318.333,446.333 
		318.333,508.008 334.667,508.008 334.667,446.334 	"/>
	<polygon fill="#939598" stroke="#FFFFFF" stroke-width="0.5" stroke-miterlimit="10" points="359.334,471 334.667,446.334 
		334.667,508.008 361.5,508.008 361.5,471 	"/>
	<polygon fill="#939598" stroke="#FFFFFF" stroke-width="0.5" stroke-miterlimit="10" points="581.264,465.737 577.667,462.141 
		566.834,462.141 566.834,508.008 587,508.008 587,465.737 	"/>
	<path fill="#939598" stroke="#FFFFFF" stroke-width="0.5" stroke-miterlimit="10" d="M608.5,470.535v37.473h3.784
		c0,0,5.334-0.066,13.549-1.429v-36.044H608.5z"/>
	<polygon fill="#939598" stroke="#FFFFFF" stroke-width="0.5" stroke-miterlimit="10" points="605.299,470.535 600.501,465.737 
		587,465.737 587,508.008 608.5,508.008 608.5,470.535 	"/>
	<path fill="#939598" stroke="#FFFFFF" stroke-width="0.5" stroke-miterlimit="10" d="M625.833,470.535v36.044
		c4.792-0.796,10.562-2.032,16.833-3.957v-32.087H625.833z"/>
	<polygon fill="#939598" stroke="#FFFFFF" stroke-width="0.5" stroke-miterlimit="10" points="555.693,462.141 553,459.447 
		539.113,459.447 535.813,462.748 534.834,462.748 534.834,508.008 559.5,508.008 559.5,462.141 	"/>
	<path fill="#939598" stroke="#FFFFFF" stroke-width="0.5" stroke-miterlimit="10" d="M660.334,486.166l-9-15.631h-8.668v32.087
		c5.607-1.722,11.611-3.991,17.668-6.987V486.166z"/>
	<polygon fill="#939598" stroke="#FFFFFF" stroke-width="0.5" stroke-miterlimit="10" points="531.084,462.748 528.167,459.831 
		514.665,459.831 511.834,462.662 510.334,462.662 510.334,508.008 534.834,508.008 534.834,462.748 	"/>
	<polygon fill="#939598" stroke="#FFFFFF" stroke-width="0.5" stroke-miterlimit="10" points="681.584,225.25 673.001,233.833 
		673.001,250 718.592,250 718.592,247.493 718.592,221.166 708.214,221.166 708.167,225.25 	"/>
	<polygon fill="#939598" stroke="#FFFFFF" stroke-width="0.5" stroke-miterlimit="10" points="812.792,142.715 812.792,128.745 
		799.421,128.745 799.421,123.755 733.501,123.755 733.501,161.833 733.334,162 733.334,173.833 732.334,173.833 732.834,174.333 
		732.834,212.168 799.221,212.168 799.221,205.98 812.992,205.98 812.992,192.609 818.58,192.609 818.58,142.715 	"/>
	<polygon fill="#939598" stroke="#FFFFFF" stroke-width="0.5" stroke-miterlimit="10" points="584.334,124.167 584.334,174.75 
		597.183,161.901 597.183,124.167 	"/>
	<polygon fill="#939598" stroke="#FFFFFF" stroke-width="0.5" stroke-miterlimit="10" points="559.834,124.167 559.834,175.291 
		583.793,175.291 584.334,174.75 584.334,124.167 	"/>
	
		<rect x="540.501" y="124.167" fill="#939598" stroke="#FFFFFF" stroke-width="0.5" stroke-miterlimit="10" width="19.333" height="51.125"/>
	<polygon fill="#939598" stroke="#FFFFFF" stroke-width="0.5" stroke-miterlimit="10" points="597.183,124.167 597.183,161.901 
		609.168,149.916 609.168,124.167 	"/>
	<polygon fill="#939598" stroke="#FFFFFF" stroke-width="0.5" stroke-miterlimit="10" points="714.4,123.755 714.4,128.745 
		694.842,128.745 694.842,117.169 684.464,117.169 684.501,150.833 670.822,161.488 671.001,161.666 733.334,161.666 733.334,162 
		733.501,161.833 733.501,123.755 	"/>
	
		<rect x="609.168" y="124.167" fill="#939598" stroke="#FFFFFF" stroke-width="0.5" stroke-miterlimit="10" width="24.666" height="25.75"/>
	<polygon fill="#939598" stroke="#FFFFFF" stroke-width="0.5" stroke-miterlimit="10" points="684.464,117.169 684.464,104.995 
		658.319,104.995 658.319,149.916 659.251,149.916 670.822,161.488 684.501,150.833 	"/>
	<polygon fill="#939598" stroke="#FFFFFF" stroke-width="0.5" stroke-miterlimit="10" points="658.319,99.606 633.834,99.606 
		633.834,124.167 633.834,149.916 658.319,149.916 658.319,104.995 	"/>
	<polygon fill="#939598" stroke="#FFFFFF" stroke-width="0.5" stroke-miterlimit="10" points="462,322.334 462,382.063 
		465.334,385.396 478.98,385.396 481.834,382.543 487,382.543 487,322.334 	"/>
	<polygon fill="#939598" stroke="#FFFFFF" stroke-width="0.5" stroke-miterlimit="10" points="445.667,322.334 445.667,385.297 
		453.9,385.297 457.167,382.031 461.969,382.031 462,382.063 462,322.334 	"/>
	<polygon fill="#939598" stroke="#FFFFFF" stroke-width="0.5" stroke-miterlimit="10" points="427.667,322.334 427.667,382.731 
		437.602,382.731 440.167,385.297 445.667,385.297 445.667,322.334 	"/>
	<polygon fill="#939598" stroke="#FFFFFF" stroke-width="0.5" stroke-miterlimit="10" points="408.718,322.334 408.718,372.115 
		419.334,382.731 427.667,382.731 427.667,322.334 	"/>
	<polygon fill="#939598" stroke="#FFFFFF" stroke-width="0.5" stroke-miterlimit="10" points="593.501,233.667 582.501,222.667 
		534.667,222.667 534.667,250 593.501,250 	"/>
	<polygon fill="#939598" stroke="#FFFFFF" stroke-width="0.5" stroke-miterlimit="10" points="593.032,295.365 595.73,292.667 
		595.73,280.104 592.626,277 592.626,275 534.667,275 534.667,299.5 593.032,299.5 	"/>
	<polygon fill="#939598" stroke="#FFFFFF" stroke-width="0.5" stroke-miterlimit="10" points="592.626,270.792 595.251,268.167 
		595.251,254.583 593.501,252.833 593.501,250 534.667,250 534.667,275 592.626,275 	"/>
	<polygon fill="#939598" stroke="#FFFFFF" stroke-width="0.5" stroke-miterlimit="10" points="510,322.133 509.777,322.334 
		487,322.334 487,344.5 510,344.5 	"/>
	<polygon fill="#939598" stroke="#FFFFFF" stroke-width="0.5" stroke-miterlimit="10" points="487,344.5 487,382.543 
		487.293,382.543 489.834,385.084 503.418,385.084 506.001,382.5 510,382.5 510,344.5 	"/>
	<path fill="#939598" stroke="#FFFFFF" stroke-width="0.5" stroke-miterlimit="10" d="M510,332.167V382.5h2.334l2.5,2.5H528
		l2.834-2.833h15.833c2.121-7.201,4.838-13.278,7.891-18.408l-31.592-31.592H510z"/>
	<path fill="#939598" stroke="#FFFFFF" stroke-width="0.5" stroke-miterlimit="10" d="M522.966,310.411L510,322.133v10.034h12.966
		l31.592,31.592c3.058-5.138,6.454-9.325,9.927-12.737L522.966,310.411z"/>
	<path fill="#939598" stroke="#FFFFFF" stroke-width="0.5" stroke-miterlimit="10" d="M546.666,299.5h-11.999v0.333l-11.701,10.578
		l41.519,40.61c4.226-4.151,8.564-7.15,12.551-9.318l-30.369-30.369V299.5z"/>
	<path fill="#939598" stroke="#FFFFFF" stroke-width="0.5" stroke-miterlimit="10" d="M593.032,301.667V299.5h-46.366v11.834
		l30.369,30.369c9-4.893,16.197-5.536,16.197-5.536v-15.769l2.565-2.565v-13.4L593.032,301.667z"/>
	<path fill="#939598" stroke="#FFFFFF" stroke-width="0.5" stroke-miterlimit="10" d="M624.375,250.625c0,0,5.188,4.188,9,4.188
		s8.375-4.063,8.375-4.063v-4.313h13.369V242.5h-42.857v4.188h12.113V250.625z"/>
	<polygon fill="#939598" stroke="#FFFFFF" stroke-width="0.5" stroke-miterlimit="10" points="600.667,215 599.583,221.166 
		611.667,233.417 617.917,231.917 	"/>
	<polygon fill="#939598" stroke="#FFFFFF" stroke-width="0.5" stroke-miterlimit="10" points="617.917,231.917 647.417,231.917 
		642.417,226.917 623.083,226.833 	"/>
	<polygon fill="#939598" stroke="#FFFFFF" stroke-width="0.5" stroke-miterlimit="10" points="647.417,231.917 664.75,215 
		666.083,221.166 653.333,233.417 	"/>
	<polygon fill="#939598" stroke="#FFFFFF" stroke-width="0.5" stroke-miterlimit="10" points="647.417,167.961 664.75,185.333 
		665.583,178.833 653.5,166.583 	"/>
	<path fill="#939598" stroke="#FFFFFF" stroke-width="0.5" stroke-miterlimit="10" d="M599.583,178.25l1.75,6.25
		c0,0,17.667-17,17.417-17.083s-6.488-1.667-6.488-1.667L599.583,178.25z"/>
	<polygon fill="#939598" stroke="#FFFFFF" stroke-width="0.5" stroke-miterlimit="10" points="732.334,173.833 681.834,173.833 
		681.834,209.375 708.214,209.375 708.214,206.38 714.8,206.38 714.8,212.168 732.834,212.168 732.834,174.333 	"/>
	<polygon fill="#939598" stroke="#FFFFFF" stroke-width="0.5" stroke-miterlimit="10" points="681.834,225.25 708.167,225.25 
		708.214,221.166 708.214,209.375 681.834,209.375 	"/>
	
		<line fill="#939598" stroke="#FFFFFF" stroke-width="0.5" stroke-miterlimit="10" x1="721.001" y1="310.411" x2="667.167" y2="310.411"/>
	<polygon fill="#939598" stroke="#FFFFFF" stroke-width="0.5" stroke-miterlimit="10" points="718.592,261.167 697.001,261.167 
		697.001,252.833 673.167,252.833 670.001,255.667 670.001,267.333 672.834,269.833 673.001,276.167 672.824,276.333 
		718.592,276.333 	"/>
	<polygon fill="#939598" stroke="#FFFFFF" stroke-width="0.5" stroke-miterlimit="10" points="718.592,276.333 672.824,276.333 
		670.001,279 670.001,292.666 673.001,295.333 673.001,300.833 670.001,303.807 670.001,330 718.592,330 	"/>
	<polygon fill="#939598" stroke="#FFFFFF" stroke-width="0.5" stroke-miterlimit="10" points="718.592,371.667 672.667,371.667 
		672.667,386 681.501,394.5 681.501,394.667 718.592,394.667 	"/>
	<path fill="#939598" stroke="#FFFFFF" stroke-width="0.5" stroke-miterlimit="10" d="M681.501,394.667v17.5h32.166l3.251-1.229
		c1.55-9.602,1.674-15.957,1.674-15.957v-0.313H681.501z"/>
	<path fill="#939598" stroke="#FFFFFF" stroke-width="0.5" stroke-miterlimit="10" d="M681.501,427.166v13.501l16,9.166h7.612
		c3.685-7.734,6.361-15.504,8.309-22.667H681.501z"/>
	<path fill="#939598" stroke="#FFFFFF" stroke-width="0.5" stroke-miterlimit="10" d="M716.918,410.938l-3.251,1.229h-32.166v14.999
		h31.921C715.041,421.209,716.153,415.68,716.918,410.938z"/>
	<polygon fill="#939598" stroke="#FFFFFF" stroke-width="0.5" stroke-miterlimit="10" points="696.501,353.834 696.501,348.967 
		670.001,348.967 670.001,366.166 672.667,369.666 672.667,371.667 718.592,371.667 718.592,356.263 718.592,353.834 	"/>
	<polygon fill="#939598" stroke="#FFFFFF" stroke-width="0.5" stroke-miterlimit="10" points="696.501,330 696.501,348.967 
		696.501,353.834 718.592,353.834 718.592,330 	"/>
	
		<rect x="670.001" y="330" fill="#939598" stroke="#FFFFFF" stroke-width="0.5" stroke-miterlimit="10" width="26.5" height="18.967"/>
	<polygon fill="#939598" stroke="#FFFFFF" stroke-width="0.5" stroke-miterlimit="10" points="309.5,322.334 285,322.334 
		284.667,339.831 272.667,339.831 272.667,398.833 283.167,408.833 300.167,408.833 309.575,398.776 309.5,398.5 	"/>
	<polygon fill="#939598" stroke="#FFFFFF" stroke-width="0.5" stroke-miterlimit="10" points="342.5,322.334 309.5,322.334 
		309.5,398.5 309.575,398.776 309.833,398.5 337.167,398.5 352.738,381.329 342.5,372.333 	"/>
	<polygon fill="#939598" stroke="#FFFFFF" stroke-width="0.5" stroke-miterlimit="10" points="361.5,322.334 342.5,322.334 
		342.5,372.333 352.738,381.329 361.5,371.667 	"/>
	<polygon fill="#939598" stroke="#FFFFFF" stroke-width="0.5" stroke-miterlimit="10" points="353.063,407.75 370.375,390.333 
		364.625,389.5 352.125,401.989 	"/>
	<polygon fill="#939598" stroke="#FFFFFF" stroke-width="0.5" stroke-miterlimit="10" points="374.58,394.662 377.977,391.29 
		399.489,391.29 395.083,395.833 375.583,395.667 	"/>
	<polygon fill="#939598" stroke="#FFFFFF" stroke-width="0.5" stroke-miterlimit="10" points="400.417,390.333 405.938,388.813 
		418.192,401.5 417.167,407.583 	"/>
	<polygon fill="#939598" stroke="#FFFFFF" stroke-width="0.5" stroke-miterlimit="10" points="412.167,412.583 417.167,407.583 
		417.167,437.333 412.083,432.167 	"/>
	<polygon fill="#939598" stroke="#FFFFFF" stroke-width="0.5" stroke-miterlimit="10" points="399.917,454.5 405.875,455.188 
		418.188,443.063 417.167,437.333 	"/>
	<polygon fill="#939598" stroke="#FFFFFF" stroke-width="0.5" stroke-miterlimit="10" points="363.438,454.813 369.188,453.625 
		352.5,436.5 351.313,442.186 	"/>
	<path fill="#939598" stroke="#FFFFFF" stroke-width="0.5" stroke-miterlimit="10" d="M436.667,431c0,0,4.208-2.875,4.333-8.688
		s-4.333-8.563-4.333-8.563H433v-12.375h-4.375v41.875H433V431H436.667z"/>
	<polygon fill="#939598" stroke="#FFFFFF" stroke-width="0.5" stroke-miterlimit="10" points="622.5,425.25 633.25,436 
		647.416,421.834 637.5,411.918 	"/>
	<path fill="#939598" stroke="#FFFFFF" stroke-width="0.5" stroke-miterlimit="10" d="M570.667,425.609v17.224l3.25,3.25
		l29.444-1.178C589.916,443.305,578.209,436.063,570.667,425.609z"/>
	<path fill="#939598" stroke="#FFFFFF" stroke-width="0.5" stroke-miterlimit="10" d="M655.975,392.901L657,362.833l-3.584-2.517
		h-15.915C647.615,367.978,654.549,379.613,655.975,392.901z"/>
</g>
</svg>
