<?xml version="1.0" encoding="utf-8"?>
<!-- Generator: Adobe Illustrator 16.0.3, SVG Export Plug-In . SVG Version: 6.00 Build 0)  -->
<!DOCTYPE svg PUBLIC "-//W3C//DTD SVG 1.1//EN" "http://www.w3.org/Graphics/SVG/1.1/DTD/svg11.dtd">
<svg version="1.1" xmlns="http://www.w3.org/2000/svg" xmlns:xlink="http://www.w3.org/1999/xlink" x="0px" y="0px"
	 width="841.89px" height="595.28px" viewBox="0 0 841.89 595.28" enable-background="new 0 0 841.89 595.28" xml:space="preserve">
<g id="ETC">
	
		<rect x="633.595" y="177.299" transform="matrix(0.7045 0.7097 -0.7097 0.7045 320.2077 -410.3715)" fill="none" stroke="#FBB040" stroke-width="0.5" stroke-miterlimit="10" width="38.588" height="4.058"/>
	
		<rect x="592.968" y="177.299" transform="matrix(-0.7072 0.707 -0.707 -0.7072 1172.0295 -126.7467)" fill="none" stroke="#FBB040" stroke-width="0.5" stroke-miterlimit="10" width="38.587" height="4.058"/>
	
		<rect x="345.023" y="399.96" transform="matrix(0.7097 -0.7045 0.7045 0.7097 -177.4409 373.3442)" fill="none" stroke="#FBB040" stroke-width="0.5" stroke-miterlimit="10" width="38.588" height="4.058"/>
	
		<rect x="345.024" y="440.156" transform="matrix(0.707 0.7072 -0.7072 0.707 419.4292 -128.0934)" fill="none" stroke="#FBB040" stroke-width="0.5" stroke-miterlimit="10" width="38.588" height="4.058"/>
	<polygon fill="none" stroke="#FBB040" stroke-width="0.5" stroke-miterlimit="10" points="357.349,411.766 374.58,394.662 
		375.583,395.667 395.083,395.833 400.417,390.333 417.167,407.583 412.167,412.583 412.083,432.167 417.167,437.333 399.917,454.5 
		395.167,449.417 375.583,449.417 374.916,449.917 358.168,433.165 358.5,432.417 358.417,412.75 	"/>
	<polygon fill="none" stroke="#FBB040" stroke-width="0.5" stroke-miterlimit="10" points="600.667,215 617.917,231.917 
		623.083,226.833 642.417,226.917 647.417,231.917 664.75,215 659.333,209.75 659.5,190.25 660.105,189.479 643.044,172.29 
		642.333,173.25 623,173.25 622.17,172.29 604.895,189.562 605.5,190.333 605.75,210 	"/>
	<path fill="none" stroke="#FBB040" stroke-width="0.5" stroke-miterlimit="10" d="M812.792,142.715v-13.971h-13.371v-4.99H714.4
		v4.99h-19.559v-11.575h-10.378v-12.175h-26.145v-5.389H515.622v13.572h-12.973v-7.185h-17.763V93.419h-22.552V73.462H283.514
		v17.962h-23.351l0.2,132.12h11.176v72.38h-15.301v43.907h-3.193v168.177h359.24c0,0,45.237-0.532,75.306-32.198
		c30.07-31.667,31.002-80.829,31.002-80.829v-38.718V250v-2.506v-26.327h-10.378v-11.791v-2.995h6.586v5.788h84.421v-6.188h13.771
		v-13.371h5.588v-49.894H812.792z"/>
	<path fill="none" stroke="#FBB040" stroke-width="0.5" stroke-miterlimit="10" d="M718.592,356.5H705h-34.834v-52.334l2.834-2.833
		v-5.499l-3-3v-13.5l3-3V271l-2.666-2.667v-12.5l2.5-2.5h23.834V261h21.924v-10.667h-46.05v-15.958l8.875-8.875v-51.249
		l-22.75-22.75h-49.333l-24.833,24.833h-44.167v-52.167h93.167V99.606H515.622v13.572h-12.973v-7.185h-17.763v18.882h49.863v98.602
		h47.211l10.648,10.648v18.391l2.547,2.547v13.094l-2.719,2.719l0.063,4.25l3.125,5.188v13l-3,3v5.438l2.688,2.688v13.25
		L592.5,320.5v15.75c-41.625,12.125-46.313,46.289-46.313,46.289h-15.336L528,385.391h-13.516l-2.797-2.797h-5.906l-2.531,2.531
		h-13.313l-2.625-2.625h-6.063l-2.75,2.749h-13.124l-2.708-2.708h-6.459l-2.708,2.709H440.25l-2.416-2.416h-18.666l-10.667-10.667
		V322.5h-44.184v49.25l-27.442,24.125v3.031h-26.969L300,408.813h-16.938L273,398.75h-19.956v0.016h19.94l10.047,10.047v27.344
		l-9.969,9.969h-20.018v61.883h64.789v-61.883H335l24.521,24.521H411l8.323-8.323h18.344l2.579-2.579h13.588l2.794,2.794h6.039
		l2.353-2.353h13.48l2.376,2.376h6.187l2.844-2.843h13.469l2.859,2.859h5.703l2.758-2.758h13.43l2.965,2.965h28.348v45.223h7.896
		v-22.611H565.5v-22.611h30.125c0,0,37.042,3.382,60.119-19.535s17.756-71,17.756-71H705h13.592h46.075V356.5H718.592z"/>
	<path fill="none" stroke="#FBB040" stroke-width="0.5" stroke-miterlimit="10" d="M655.744,404.92l-5.244-4.337
		c0,0-17.417,4.5-26.084,13.167s-12.875,25.542-12.875,25.542l5.301,5.301C636.96,441.231,652.772,425.167,655.744,404.92z"/>
	<path fill="none" stroke="#FBB040" stroke-width="0.5" stroke-miterlimit="10" d="M655.975,392.901
		c-1.426-13.288-8.359-24.924-18.474-32.585c-7.923-6.001-17.794-9.566-28.499-9.566c-1.095,0-2.176,0.051-3.252,0.124v9.45h-2.575
		l-4.342,4.342v3.834h-4.749v8.166l-6.917,6.917H579v4.917h-3.75l-4.333,4.333v2.583h-9.093c-0.046,0.856-0.073,1.718-0.073,2.585
		c0,10.31,3.312,19.841,8.916,27.608c7.542,10.454,19.249,17.695,32.694,19.296c1.851,0.22,3.73,0.347,5.641,0.347
		c2.672,0,5.288-0.233,7.84-0.659l-5.301-5.301c0,0,4.208-16.875,12.875-25.542s26.084-13.167,26.084-13.167l5.244,4.337
		c0.331-2.259,0.509-4.568,0.509-6.919C656.253,396.277,656.154,394.577,655.975,392.901z"/>
	
		<rect x="601.25" y="352.625" fill="none" stroke="#FBB040" stroke-width="0.5" stroke-miterlimit="10" width="38.125" height="3.875"/>
	<rect x="563" y="391.125" fill="none" stroke="#FBB040" stroke-width="0.5" stroke-miterlimit="10" width="5" height="37.625"/>
	<path fill="none" stroke="#FBB040" stroke-width="0.5" stroke-miterlimit="10" d="M611.5,246.75H624v4.375c0,0,3,4.125,9.125,4.125
		s8.125-4.25,8.125-4.25v-4.25H654v78.125l-7.125,8.875H618.5l-7-8.625V246.75z"/>
	<polygon fill="none" stroke="#FBB040" stroke-width="0.5" stroke-miterlimit="10" points="283.031,436.156 283.031,408.813 
		272.984,398.766 253.044,398.766 253.044,446.125 273.063,446.125 	"/>
	<polygon fill="none" stroke="#FBB040" stroke-width="0.5" stroke-miterlimit="10" points="261.917,409.75 268.583,409.75 
		273.542,414.709 273.542,429.917 268.604,434.854 262.25,434.854 	"/>
	<polygon fill="none" stroke="#FBB040" stroke-width="0.5" stroke-miterlimit="10" points="285.25,322.5 285.25,248 271.539,248 
		271.539,295.924 256.238,295.924 256.238,339.831 285.125,339.831 	"/>
</g>
<g id="Background">
	<rect fill="#FFFFFF" width="841.89" height="595.28"/>
</g>
<g id="Original">
	
		<image overflow="visible" width="3304" height="2408" xlink:href="FLOOR_PLAN_2.jpg"  transform="matrix(0.1921 0 0 0.1921 251.1655 63.2622)">
	</image>
</g>
<g id="Signs">
	<rect id="elevator" x="585.204" y="375.428" opacity="0.8" width="14.811" height="14.811"/>
	<g id="escalator">
		<rect x="625.345" y="155.095" opacity="0.8" width="14.811" height="14.811"/>
		<rect x="573.538" y="361.885" opacity="0.8" width="14.811" height="14.811"/>
		<rect x="340.834" y="414.897" opacity="0.8" width="14.811" height="14.811"/>
	</g>
	<g id="telephone">
		<rect x="521.493" y="155.095" opacity="0.8" width="14.811" height="14.811"/>
		<rect x="312.203" y="452.313" opacity="0.8" width="14.811" height="14.811"/>
	</g>
	<g id="toilet">
		<rect x="576.929" y="97.589" opacity="0.8" width="14.811" height="14.811"/>
		<rect x="292.633" y="479.783" opacity="0.8" width="14.811" height="14.811"/>
	</g>
</g>
<g id="Rooms">
	<path fill="#939598" stroke="#FFFFFF" stroke-width="0.5" stroke-miterlimit="10" d="M570.667,425.609v17.224l3.25,3.25
		l29.444-1.178C589.916,443.305,578.209,436.063,570.667,425.609z"/>
	<path fill="#939598" stroke="#FFFFFF" stroke-width="0.5" stroke-miterlimit="10" d="M655.975,392.901L657,362.833l-3.584-2.517
		h-15.915C647.615,367.978,654.549,379.613,655.975,392.901z"/>
	<polygon fill="#939598" stroke="#FFFFFF" stroke-width="0.5" stroke-miterlimit="10" points="812.792,142.715 812.792,128.745 
		799.421,128.745 799.421,123.755 732.334,123.755 732.334,212.168 799.221,212.168 799.221,205.98 812.992,205.98 812.992,192.609 
		818.58,192.609 818.58,142.715 	"/>
	<polygon fill="#939598" stroke="#FFFFFF" stroke-width="0.5" stroke-miterlimit="10" points="285.25,322.5 509.818,322.5 
		532.625,299.75 532.625,223.625 534.75,223.625 534.75,124.875 484.887,124.875 484.887,105.993 484.887,93.419 462.335,93.419 
		462.335,73.462 283.514,73.462 283.514,91.424 260.163,91.424 260.362,223.544 271.539,223.544 271.539,248 285.25,248 	"/>
	<polygon fill="#939598" stroke="#FFFFFF" stroke-width="0.5" stroke-miterlimit="10" points="256.238,339.831 253.044,339.831 
		253.044,398.75 273,398.75 273,339.831 	"/>
	<polygon fill="#939598" stroke="#FFFFFF" stroke-width="0.5" stroke-miterlimit="10" points="311.875,322.5 311.875,349.125 
		336.625,349.125 336.875,395.875 364.317,371.75 364.317,322.5 	"/>
	<polygon fill="#939598" stroke="#FFFFFF" stroke-width="0.5" stroke-miterlimit="10" points="311.875,349.125 311.875,322.5 
		285.25,322.5 285.125,339.831 285.125,349.125 	"/>
	<polygon fill="#939598" stroke="#FFFFFF" stroke-width="0.5" stroke-miterlimit="10" points="285.125,349.125 285.125,339.831 
		273,339.831 273,398.75 283.063,408.813 300,408.813 309.906,398.906 311.875,398.906 311.875,349.125 	"/>
	<polygon fill="#939598" stroke="#FFFFFF" stroke-width="0.5" stroke-miterlimit="10" points="311.875,349.125 311.875,398.906 
		336.875,398.906 336.875,395.875 336.625,349.125 	"/>
	<polygon fill="#939598" stroke="#FFFFFF" stroke-width="0.5" stroke-miterlimit="10" points="273.063,446.125 283.031,436.156 
		300.125,436.156 312.203,448.234 312.203,472.813 287.25,472.813 286.313,471.063 273.063,471.063 	"/>
	
		<rect x="385.334" y="470.646" fill="#939598" stroke="#FFFFFF" stroke-width="0.5" stroke-miterlimit="10" width="25.583" height="37.361"/>
	<polygon fill="#939598" stroke="#FFFFFF" stroke-width="0.5" stroke-miterlimit="10" points="419.323,462.323 411,470.646 
		410.918,470.646 410.918,508.008 433.501,508.008 433.501,462.323 	"/>
	<polygon fill="#939598" stroke="#FFFFFF" stroke-width="0.5" stroke-miterlimit="10" points="359.521,470.646 340.834,451.96 
		340.834,508.008 361.417,508.008 361.417,470.646 	"/>
	
		<rect x="361.417" y="470.646" fill="#939598" stroke="#FFFFFF" stroke-width="0.5" stroke-miterlimit="10" width="23.917" height="37.361"/>
	<polygon fill="#939598" stroke="#FFFFFF" stroke-width="0.5" stroke-miterlimit="10" points="335,446.125 317.833,446.125 
		317.833,508.008 340.834,508.008 340.834,451.96 	"/>
	<polygon fill="#939598" stroke="#FFFFFF" stroke-width="0.5" stroke-miterlimit="10" points="456.628,462.538 453.834,459.744 
		440.246,459.744 437.667,462.323 433.501,462.323 433.501,508.008 460.251,508.008 460.251,462.538 	"/>
	
		<rect x="534.667" y="462.785" fill="#939598" stroke="#FFFFFF" stroke-width="0.5" stroke-miterlimit="10" width="12.75" height="45.223"/>
	<polygon fill="#939598" stroke="#FFFFFF" stroke-width="0.5" stroke-miterlimit="10" points="480.876,462.562 478.5,460.186 
		465.02,460.186 462.667,462.538 460.251,462.538 460.251,508.008 485.084,508.008 485.084,462.562 	"/>
	
		<rect x="547.417" y="462.785" fill="#939598" stroke="#FFFFFF" stroke-width="0.5" stroke-miterlimit="10" width="12.021" height="45.223"/>
	<polygon fill="#939598" stroke="#FFFFFF" stroke-width="0.5" stroke-miterlimit="10" points="506.234,462.578 503.375,459.719 
		489.906,459.719 487.063,462.562 485.084,462.562 485.084,508.008 510.001,508.008 510.001,462.578 	"/>
	<polygon fill="#939598" stroke="#FFFFFF" stroke-width="0.5" stroke-miterlimit="10" points="531.09,462.785 528.125,459.82 
		514.695,459.82 511.938,462.578 510.001,462.578 510.001,508.008 534.667,508.008 534.667,462.785 	"/>
	<polygon fill="#939598" stroke="#FFFFFF" stroke-width="0.5" stroke-miterlimit="10" points="363.438,454.813 369.188,453.625 
		352.5,436.5 351.313,442.186 	"/>
	<path fill="#939598" stroke="#FFFFFF" stroke-width="0.5" stroke-miterlimit="10" d="M536.625,401.375H433v12.375h3.667
		c0,0,4.458,2.75,4.333,8.563S436.667,431,436.667,431H433v12.25h104.242l6.133-6.625V408.5L536.625,401.375z"/>
	<polygon fill="#939598" stroke="#FFFFFF" stroke-width="0.5" stroke-miterlimit="10" points="600.667,215 597.112,218.555 
		597.438,221.313 612.938,235.188 615.313,235.188 617.917,231.917 	"/>
	<polygon fill="#939598" stroke="#FFFFFF" stroke-width="0.5" stroke-miterlimit="10" points="615.406,235.188 617.917,231.917 
		623.083,226.833 642.417,226.917 647.328,231.828 664.75,215 667.578,217.828 667.438,220.438 652.344,235.188 	"/>
	<polygon fill="#939598" stroke="#FFFFFF" stroke-width="0.5" stroke-miterlimit="10" points="608.667,124.167 608.667,152.167 
		609.334,151.5 633.501,151.5 633.501,124.167 	"/>
	
		<rect x="570.334" y="124.167" fill="#939598" stroke="#FFFFFF" stroke-width="0.5" stroke-miterlimit="10" width="14" height="52.167"/>
	<polygon fill="#939598" stroke="#FFFFFF" stroke-width="0.5" stroke-miterlimit="10" points="584.334,124.167 584.334,176.333 
		584.501,176.333 608.667,152.167 608.667,124.167 	"/>
	
		<rect x="556.667" y="124.167" fill="#939598" stroke="#FFFFFF" stroke-width="0.5" stroke-miterlimit="10" width="13.667" height="52.167"/>
	
		<rect x="540.334" y="124.167" fill="#939598" stroke="#FFFFFF" stroke-width="0.5" stroke-miterlimit="10" width="16.333" height="52.167"/>
	<polygon fill="#939598" stroke="#FFFFFF" stroke-width="0.5" stroke-miterlimit="10" points="732.334,147.625 732.334,123.755 
		714.4,123.755 714.4,128.745 694.842,128.745 694.842,117.169 684.464,117.169 684.464,104.995 658.319,104.995 658.319,151.5 
		658.667,151.5 666.371,159.205 683,147.625 	"/>
	<polygon fill="#939598" stroke="#FFFFFF" stroke-width="0.5" stroke-miterlimit="10" points="658.319,99.606 633.501,99.606 
		633.501,124.167 633.501,151.5 658.319,151.5 658.319,104.995 	"/>
	<polygon fill="#939598" stroke="#FFFFFF" stroke-width="0.5" stroke-miterlimit="10" points="683,147.625 666.371,159.205 
		681.291,174.125 696.5,174.125 696.5,177.375 732.334,177.375 732.334,147.625 	"/>
	<polygon fill="#939598" stroke="#FFFFFF" stroke-width="0.5" stroke-miterlimit="10" points="696.5,174.125 681.291,174.125 
		681.417,174.251 681.417,200.25 706.375,200.25 706.375,206.281 708.214,206.38 714.8,206.38 714.8,212.168 732.334,212.168 
		732.334,177.375 696.5,177.375 	"/>
	<polygon fill="#939598" stroke="#FFFFFF" stroke-width="0.5" stroke-miterlimit="10" points="708.28,225.438 708.214,225.438 
		708.214,222.745 708.214,217.875 708.214,206.38 706.375,206.281 706.375,200.25 681.417,200.25 681.417,225.5 708.214,225.5 	"/>
	<polygon fill="#939598" stroke="#FFFFFF" stroke-width="0.5" stroke-miterlimit="10" points="718.625,225.438 708.28,225.438 
		708.214,225.5 681.417,225.5 672.542,234.375 672.542,237.583 718.606,237.583 	"/>
	<polygon fill="#939598" stroke="#FFFFFF" stroke-width="0.5" stroke-miterlimit="10" points="672.542,237.583 672.542,250.333 
		718.592,250.333 718.592,247.493 718.606,237.583 	"/>
	<polygon fill="#939598" stroke="#FFFFFF" stroke-width="0.5" stroke-miterlimit="10" points="718.592,261 696.668,261 
		696.668,253.333 672.834,253.333 670.334,255.833 670.334,268.333 673,271 673,275 718.592,275 	"/>
	<polygon fill="#939598" stroke="#FFFFFF" stroke-width="0.5" stroke-miterlimit="10" points="718.592,275 673,275 673,276.333 
		670,279.333 670,286.75 718.592,286.75 	"/>
	
		<rect x="670.166" y="310.5" fill="#939598" stroke="#FFFFFF" stroke-width="0.5" stroke-miterlimit="10" width="48.426" height="11"/>
	<polygon fill="#939598" stroke="#FFFFFF" stroke-width="0.5" stroke-miterlimit="10" points="718.592,297.64 673,297.64 
		673,301.333 670.166,304.166 670.166,310.5 718.592,310.5 	"/>
	<polygon fill="#939598" stroke="#FFFFFF" stroke-width="0.5" stroke-miterlimit="10" points="718.592,286.75 670,286.75 
		670,292.833 673,295.834 673,297.64 718.592,297.64 	"/>
	
		<rect x="670.166" y="321.5" fill="#939598" stroke="#FFFFFF" stroke-width="0.5" stroke-miterlimit="10" width="27.959" height="35"/>
	<polygon fill="#939598" stroke="#FFFFFF" stroke-width="0.5" stroke-miterlimit="10" points="698.125,321.5 698.125,356.5 
		718.592,356.5 718.592,356.263 718.592,321.5 	"/>
	<path fill="#939598" stroke="#FFFFFF" stroke-width="0.5" stroke-miterlimit="10" d="M601.834,462.954v36.898
		c5.499,0.185,11.381,0.082,17.464-0.463l-3.916-37.523C610.023,462.662,605.31,462.915,601.834,462.954z"/>
	<path fill="#939598" stroke="#FFFFFF" stroke-width="0.5" stroke-miterlimit="10" d="M595.625,462.785h-11.457v35.479
		c5.152,0.749,11.139,1.368,17.666,1.588v-36.898C597.966,462.998,595.625,462.785,595.625,462.785z"/>
	<path fill="#939598" stroke="#FFFFFF" stroke-width="0.5" stroke-miterlimit="10" d="M565.5,462.785v22.611h1.833v9.461
		c2.841,0.771,8.83,2.245,16.835,3.407v-35.479H565.5z"/>
	<path fill="#939598" stroke="#FFFFFF" stroke-width="0.5" stroke-miterlimit="10" d="M615.382,461.866l3.916,37.523
		c6.463-0.578,13.152-1.661,19.857-3.439l-10.125-37.173C624.267,460.266,619.624,461.235,615.382,461.866z"/>
	<path fill="#939598" stroke="#FFFFFF" stroke-width="0.5" stroke-miterlimit="10" d="M711.489,399.001h-38.198
		c-0.519,5.023-1.366,10.378-2.703,15.71l37.752,9.816C710.638,415.342,711.46,406.65,711.489,399.001z"/>
	<path fill="#939598" stroke="#FFFFFF" stroke-width="0.5" stroke-miterlimit="10" d="M708.292,372.25H673.5
		c0,0,1.32,11.938-0.209,26.751h38.198C711.537,386.479,709.469,376.752,708.292,372.25z"/>
	<path fill="#939598" stroke="#FFFFFF" stroke-width="0.5" stroke-miterlimit="10" d="M670.588,414.711
		c-1.416,5.646-3.381,11.268-6.09,16.443l33.137,19.671c5.193-8.896,8.581-17.806,10.705-26.298L670.588,414.711z"/>
	<path fill="#939598" stroke="#FFFFFF" stroke-width="0.5" stroke-miterlimit="10" d="M629.03,458.777l10.125,37.173
		c7.439-1.974,14.895-4.807,22.076-8.762l-19.691-33.582C637.411,455.794,633.178,457.48,629.03,458.777z"/>
	<path fill="#939598" stroke="#FFFFFF" stroke-width="0.5" stroke-miterlimit="10" d="M676.665,438.377l-12.167-7.223
		c-2.329,4.449-5.204,8.571-8.754,12.096c-4.352,4.321-9.201,7.706-14.204,10.356l7.008,11.951
		C655.473,461.418,670.982,451.057,676.665,438.377z"/>
	<path fill="#939598" stroke="#FFFFFF" stroke-width="0.5" stroke-miterlimit="10" d="M676.665,438.377
		c-5.683,12.68-21.192,23.041-28.117,27.181l12.684,21.631c7.375-4.063,14.461-9.302,20.937-16.021
		c6.396-6.638,11.465-13.484,15.467-20.342L676.665,438.377z"/>
	<polygon fill="#939598" stroke="#FFFFFF" stroke-width="0.5" stroke-miterlimit="10" points="460.333,322.5 460.333,382.541 
		462.668,382.541 465.376,385.249 478.5,385.249 481.25,382.5 485,382.5 485,322.5 	"/>
	<polygon fill="#939598" stroke="#FFFFFF" stroke-width="0.5" stroke-miterlimit="10" points="433.667,322.5 433.667,382.834 
		437.834,382.834 440.25,385.25 453.501,385.25 456.209,382.541 460.333,382.541 460.333,322.5 	"/>
	<polygon fill="#939598" stroke="#FFFFFF" stroke-width="0.5" stroke-miterlimit="10" points="408.501,322.5 408.501,372.167 
		419.168,382.834 433.667,382.834 433.667,322.5 	"/>
	<polygon fill="#939598" stroke="#FFFFFF" stroke-width="0.5" stroke-miterlimit="10" points="592.5,275.125 592.498,275 
		532.625,275 532.625,287.667 595.625,287.667 595.625,280.313 	"/>
	<polygon fill="#939598" stroke="#FFFFFF" stroke-width="0.5" stroke-miterlimit="10" points="592.438,270.875 595.156,268.156 
		595.156,262.625 532.625,262.625 532.625,275 592.498,275 	"/>
	<polygon fill="#939598" stroke="#FFFFFF" stroke-width="0.5" stroke-miterlimit="10" points="592.609,234.125 581.961,223.477 
		534.75,223.477 534.75,223.625 532.625,223.625 532.625,250.333 592.609,250.333 	"/>
	<polygon fill="#939598" stroke="#FFFFFF" stroke-width="0.5" stroke-miterlimit="10" points="595.156,255.063 592.609,252.516 
		592.609,250.333 532.625,250.333 532.625,262.625 595.156,262.625 	"/>
	<polygon fill="#939598" stroke="#FFFFFF" stroke-width="0.5" stroke-miterlimit="10" points="532.625,299.5 592.625,299.5 
		592.625,296.313 595.625,293.313 595.625,287.667 532.625,287.667 	"/>
	
		<rect x="485" y="322.5" fill="#939598" stroke="#FFFFFF" stroke-width="0.5" stroke-miterlimit="10" width="24.667" height="18.625"/>
	<polygon fill="#939598" stroke="#FFFFFF" stroke-width="0.5" stroke-miterlimit="10" points="485,341.125 485,382.5 487.313,382.5 
		489.938,385.125 503.25,385.125 505.781,382.594 509.667,382.594 509.667,341.125 	"/>
	<path fill="#939598" stroke="#FFFFFF" stroke-width="0.5" stroke-miterlimit="10" d="M509.667,341.125v41.469h2.021l2.797,2.797
		H528l2.852-2.852h15.336c0,0,1.271-9.151,8.26-19.661l-26.197-21.753H509.667z"/>
	<path fill="#939598" stroke="#FFFFFF" stroke-width="0.5" stroke-miterlimit="10" d="M568.53,347.983l-45.907-38.256L509.818,322.5
		h-0.151v18.625h18.583l26.197,21.753C557.729,357.943,562.265,352.711,568.53,347.983z"/>
	<path fill="#939598" stroke="#FFFFFF" stroke-width="0.5" stroke-miterlimit="10" d="M592.625,301.75v-2.25h-60v0.25l-10.002,9.978
		l45.907,38.256c6.174-4.658,14.004-8.83,23.97-11.733V320.5l2.813-2.813v-13.25L592.625,301.75z"/>
</g>
</svg>
