<?xml version="1.0" encoding="utf-8"?>
<!-- Generator: Adobe Illustrator 16.0.3, SVG Export Plug-In . SVG Version: 6.00 Build 0)  -->
<!DOCTYPE svg PUBLIC "-//W3C//DTD SVG 1.1//EN" "http://www.w3.org/Graphics/SVG/1.1/DTD/svg11.dtd">
<svg version="1.1" xmlns="http://www.w3.org/2000/svg" xmlns:xlink="http://www.w3.org/1999/xlink" x="0px" y="0px"
	 width="841.89px" height="595.28px" viewBox="0 0 841.89 595.28" enable-background="new 0 0 841.89 595.28" xml:space="preserve">
<g id="ETC">
	
		<rect x="633.595" y="177.299" transform="matrix(0.7045 0.7097 -0.7097 0.7045 320.2077 -410.3715)" fill="none" stroke="#FBB040" stroke-width="0.5" stroke-miterlimit="10" width="38.588" height="4.058"/>
	
		<rect x="592.968" y="177.299" transform="matrix(-0.7072 0.707 -0.707 -0.7072 1172.0295 -126.7467)" fill="none" stroke="#FBB040" stroke-width="0.5" stroke-miterlimit="10" width="38.587" height="4.058"/>
	
		<rect x="345.023" y="399.96" transform="matrix(0.7097 -0.7045 0.7045 0.7097 -177.4409 373.3442)" fill="none" stroke="#FBB040" stroke-width="0.5" stroke-miterlimit="10" width="38.588" height="4.058"/>
	
		<rect x="345.024" y="440.156" transform="matrix(0.707 0.7072 -0.7072 0.707 419.4292 -128.0934)" fill="none" stroke="#FBB040" stroke-width="0.5" stroke-miterlimit="10" width="38.588" height="4.058"/>
	<polygon fill="none" stroke="#FBB040" stroke-width="0.5" stroke-miterlimit="10" points="357.349,411.766 374.58,394.662 
		375.583,395.667 395.083,395.833 400.417,390.333 417.167,407.583 412.167,412.583 412.083,432.167 417.167,437.333 399.917,454.5 
		395.167,449.417 375.583,449.417 374.916,449.917 358.168,433.165 358.5,432.417 358.417,412.75 	"/>
	<polygon fill="none" stroke="#FBB040" stroke-width="0.5" stroke-miterlimit="10" points="600.667,215 617.917,231.917 
		623.083,226.833 642.417,226.917 647.417,231.917 664.75,215 659.333,209.75 659.5,190.25 660.105,189.479 643.044,172.29 
		642.333,173.25 623,173.25 622.17,172.29 604.895,189.562 605.5,190.333 605.75,210 	"/>
	<path fill="none" stroke="#FBB040" stroke-width="0.5" stroke-miterlimit="10" d="M812.792,142.715v-13.971h-13.371v-4.99H714.4
		v4.99h-19.559v-11.575h-10.378v-12.175h-26.145v-5.389H515.622v13.572h-12.973v-7.185h-17.763V93.419h-22.552V73.462H283.514
		v17.962h-23.351l0.2,132.12h11.176v72.38h-15.301v43.907h-3.193v168.177h359.24c0,0,45.237-0.532,75.306-32.198
		c30.07-31.667,31.002-80.829,31.002-80.829v-38.718V250v-2.506v-26.327h-10.378v-11.791v-2.995h6.586v5.788h84.421v-6.188h13.771
		v-13.371h5.588v-49.894H812.792z"/>
	<path fill="none" stroke="#FBB040" stroke-width="0.5" stroke-miterlimit="10" d="M731,212.168V157h-24.834l-11.833-6.333h-37.667
		v-45.672h1.653v-5.389h-49.653c0,4.214,0,11.728,0,11.728h42.167v39.606H550.166v-35.772h32.167V99.606h-66.711v15.561H543.5
		v35.772h-76.75V99h18.5v-5.581h-0.363h-22.552v57.52L414,161.833l-22.5,22.5h-98.833v14.023h80.83v6.144
		c-41.67,31.833-55.829,99.834-55.829,99.834H273V296.5h-24v32.167h8.167v-12.834H285l28.667,7.834c0,0-2,13.166-2.833,23.833
		S311,429.833,311,429.833l-27.833,7.667h-21.333v7.166h25.333L320,435.333l4.667,8l6.833-2.666c0,0,6,30.583,47.26,30.583
		S426.25,445,426.25,445h7v-11.999c0,0,8.583-0.833,8.583-13.333s-8.583-11.334-8.583-11.334l0.25-22.959h21.375l-44.75-44.75
		L398,352.75l-43.75-42.5l36.75-36.5l23.75-1.25l23.102-22.811l22.889-22.6l13.51-13.34l1.467-7l12.783-12.346L525,228.25h5
		l29.5-27.75l5,4.876l32.683,31.874v12.25h24.484c0,0,3.084,7.167,11.042,7.167s12.124-7.167,12.124-7.167H657.5v90.167h38.666
		v16.167h22.426V247.493l-0.259-24.748h-10.119V206.38h6.586v5.788H731z"/>
	
		<rect x="270.915" y="375.309" transform="matrix(1 0.0045 -0.0045 1 1.7027 -1.3035)" fill="none" stroke="#FBB040" stroke-width="0.5" stroke-miterlimit="10" width="38.588" height="4.058"/>
	
		<rect x="337.186" y="204.837" transform="matrix(1 0.0045 -0.0045 1 0.9355 -1.6038)" fill="none" stroke="#FBB040" stroke-width="0.5" stroke-miterlimit="10" width="38.588" height="4.058"/>
	
		<rect x="398.732" y="146.363" transform="matrix(-0.0045 1 -1 -0.0045 568.2993 -268.9623)" fill="none" stroke="#FBB040" stroke-width="0.5" stroke-miterlimit="10" width="38.588" height="4.058"/>
	
		<rect x="270.915" y="380.809" transform="matrix(1 0.0045 -0.0045 1 1.7275 -1.3034)" fill="none" stroke="#FBB040" stroke-width="0.5" stroke-miterlimit="10" width="38.588" height="4.058"/>
	<path fill="none" stroke="#FBB040" stroke-width="0.5" stroke-miterlimit="10" d="M696.166,339.667H657.5V249.5h-12.667
		c0,0-4.166,7.167-12.124,7.167s-11.042-7.167-11.042-7.167h-24.484v78L540,385.375h-85.125H433.5l-0.25,22.959
		c0,0,8.583-1.166,8.583,11.334s-8.583,13.333-8.583,13.333V445v63.008h179.034c0,0,45.237-0.532,75.306-32.198
		c30.07-31.667,31.002-80.829,31.002-80.829v-38.718v-0.429h-22.426V339.667z"/>
	<polygon fill="none" stroke="#FBB040" stroke-width="0.5" stroke-miterlimit="10" points="149.75,212.5 144.5,212.5 144.5,205.75 
		136.25,205.75 136.25,174 111.75,174 81.5,272.741 81.5,296.5 149.75,296.5 	"/>
	<path fill="none" stroke="#FBB040" stroke-width="0.5" stroke-miterlimit="10" d="M426.25,445c0,0-0.141,0.577-0.5,1.542v37.833h-1
		v11.5H261.833v-51.209V437.5h21.333L311,429.833c0,0-0.971-69.62-0.201-81.833h-48.965v-19.188l-4.667-0.146H249V296.5h24v7.834
		h19.667V198.356v-14.023v-66.667L301,117.5V73.462h-17.486v17.962h-22.298C256.994,79.735,242.75,50.085,208.333,56
		C165.667,63.333,171,112,171,112h-50L72,275.667v95.166c-16.5,0.166-43,17.5-45.333,47.167s24,46.333,24,46.333l79.667,43.675
		h122.711H433.25V445H426.25z"/>
	<path fill="none" stroke="#FBB040" stroke-width="0.5" stroke-miterlimit="10" d="M446.5,101.333h6.833v6h9.002V93.419V73.462
		h-53.668V86.5C408.667,86.5,428.5,87.833,446.5,101.333z"/>
</g>
<g id="Background">
	<rect fill="#FFFFFF" width="841.89" height="595.28"/>
</g>
<g id="Original">
	
		<image overflow="visible" width="3508" height="2470" xlink:href="FLOOR_PLAN_5.jpg"  transform="matrix(0.2452 0 0 0.2437 8.5059 -19.5391)">
	</image>
</g>
<g id="Signs">
	<g id="toilet">
		<rect x="558.845" y="99.606" opacity="0.8" width="14.811" height="14.811"/>
		<rect x="263.886" y="449.858" opacity="0.8" width="14.811" height="14.811"/>
	</g>
	<g id="escalator">
		<rect x="333.125" y="415.011" opacity="0.8" width="14.811" height="14.811"/>
		<rect x="311.595" y="373.316" opacity="0.8" width="14.811" height="14.811"/>
		<rect x="393.928" y="186.069" opacity="0.8" width="14.811" height="14.811"/>
		<rect x="625.304" y="150.709" opacity="0.8" width="14.811" height="14.811"/>
	</g>
</g>
<g id="Rooms">
	<polygon fill="#939598" stroke="#FFFFFF" stroke-width="0.5" stroke-miterlimit="10" points="812.792,142.715 812.792,128.745 
		799.421,128.745 799.421,123.755 731,123.755 731,212.168 799.221,212.168 799.221,205.98 812.992,205.98 812.992,192.609 
		818.58,192.609 818.58,142.715 	"/>
	<polygon fill="#939598" stroke="#FFFFFF" stroke-width="0.5" stroke-miterlimit="10" points="694.842,117.169 684.464,117.169 
		684.464,104.995 658.319,104.995 656.666,104.995 656.666,150.667 694.333,150.667 694.842,150.939 694.842,128.745 	"/>
	<polygon fill="#939598" stroke="#FFFFFF" stroke-width="0.5" stroke-miterlimit="10" points="714.4,123.755 714.4,128.745 
		694.842,128.745 694.842,150.939 706.166,157 731,157 731,123.755 	"/>
	
		<rect x="550.166" y="115.167" fill="#939598" stroke="#FFFFFF" stroke-width="0.5" stroke-miterlimit="10" width="32.167" height="35.772"/>
	
		<rect x="618" y="111.333" fill="#939598" stroke="#FFFFFF" stroke-width="0.5" stroke-miterlimit="10" width="32.833" height="39.606"/>
	<path fill="#939598" stroke="#FFFFFF" stroke-width="0.5" stroke-miterlimit="10" d="M608.666,111.333c0,0,0-7.513,0-11.728
		h-26.333v15.561v35.772H618v-39.606H608.666z"/>
	<polygon fill="#939598" stroke="#FFFFFF" stroke-width="0.5" stroke-miterlimit="10" points="543.5,124.375 527.375,124.375 
		523.375,128.375 523.375,150.939 543.5,150.939 	"/>
	<polygon fill="#939598" stroke="#FFFFFF" stroke-width="0.5" stroke-miterlimit="10" points="527.375,124.375 543.5,124.375 
		543.5,115.167 515.622,115.167 515.622,99.606 515.751,93.419 485.25,93.419 485.25,99 466.75,99 466.75,150.939 523.375,150.939 
		523.375,128.375 	"/>
	<polygon fill="#939598" stroke="#FFFFFF" stroke-miterlimit="10" points="320.333,107.167 353.333,107.167 353.333,73.462 
		301,73.462 301,114.5 320.333,114.5 	"/>
	<path fill="#939598" stroke="#FFFFFF" stroke-width="0.5" stroke-miterlimit="10" d="M453.333,107.333v-6H446.5
		c-18-13.5-37.833-14.833-37.833-14.833V73.462h-55.333v33.705h-33v7.333H301v3l-8.333,0.167v66.667H391.5l22.5-22.5l48.335-10.894
		v-43.606H453.333z"/>
	<polygon fill="#939598" stroke="#FFFFFF" stroke-width="0.5" stroke-miterlimit="10" points="564.5,205.376 559.5,200.5 
		530,228.25 525,228.25 488.5,194.404 475.717,206.75 474.25,213.75 460.74,227.09 437.852,249.689 414.75,272.5 391,273.75 
		354.25,310.25 398,352.75 410.125,340.625 454.875,385.375 540,385.375 597.183,327.5 597.183,237.25 	"/>
	<polygon fill="#939598" stroke="#FFFFFF" stroke-width="0.5" stroke-miterlimit="10" points="458.333,174 484.407,198.356 
		488.5,194.404 488.5,174 	"/>
	<polygon fill="#939598" stroke="#FFFFFF" stroke-width="0.5" stroke-miterlimit="10" points="432.5,186 432.5,199.167 
		460.74,227.09 474.25,213.75 475.717,206.75 484.407,198.356 458.333,174 	"/>
	<polygon fill="#939598" stroke="#FFFFFF" stroke-width="0.5" stroke-miterlimit="10" points="533.438,174 533.438,225.017 
		559.5,200.5 564.5,205.376 564.5,174 	"/>
	<polygon fill="#939598" stroke="#FFFFFF" stroke-width="0.5" stroke-miterlimit="10" points="488.5,174 488.5,194.404 
		508.5,212.95 508.5,174 	"/>
	<polygon fill="#939598" stroke="#FFFFFF" stroke-width="0.5" stroke-miterlimit="10" points="508.5,174 508.5,212.95 525,228.25 
		530,228.25 533.438,225.017 533.438,174 	"/>
	<path fill="#939598" stroke="#FFFFFF" stroke-width="0.5" stroke-miterlimit="10" d="M414.75,272.5l23.102-22.811l-28.518-26.356
		l-23.5-1.5c0,0-5.376,6-12.337,15.118l36.684,35.789L414.75,272.5z"/>
	<path fill="#939598" stroke="#FFFFFF" stroke-width="0.5" stroke-miterlimit="10" d="M410.125,340.625L398,352.75l-9.364-9.097
		L385,348.167v25.165c0.056,0.002,0.11,0,0.167,0.002C412.333,374.5,426,397.5,426,397.5h7.333l0.167-12.125h21.375L410.125,340.625
		z"/>
	<path fill="#939598" stroke="#FFFFFF" stroke-width="0.5" stroke-miterlimit="10" d="M391,273.75l19.18-1.009l-36.684-35.789
		c-6.285,8.232-13.86,19.007-19.944,30.213l22.231,21.699L391,273.75z"/>
	<path fill="#939598" stroke="#FFFFFF" stroke-width="0.5" stroke-miterlimit="10" d="M388.636,343.653l-24.373-23.676l-2.93,3.689
		l-17.833-0.585V397.5c0,0,14.442-25.223,41.5-24.168v-25.165L388.636,343.653z"/>
	<path fill="#939598" stroke="#FFFFFF" stroke-width="0.5" stroke-miterlimit="10" d="M364.263,319.978l-10.013-9.728l21.533-21.386
		l-22.231-21.699c-4.618,8.506-8.375,17.259-10.052,25.335v30.582l17.833,0.585L364.263,319.978z"/>
	<polygon fill="#939598" stroke="#FFFFFF" stroke-width="0.5" stroke-miterlimit="10" points="564.5,205.376 559.5,200.5 
		530,228.25 525,228.25 488.5,194.404 475.717,206.75 474.25,213.75 460.74,227.09 437.852,249.689 414.75,272.5 391,273.75 
		354.25,310.25 398,352.75 410.125,340.625 454.875,385.375 540,385.375 597.183,327.5 597.183,249.5 594.833,249.5 597.183,249.5 
		597.183,237.25 	"/>
	<polygon fill="#939598" stroke="#FFFFFF" stroke-width="0.5" stroke-miterlimit="10" points="564.5,205.376 559.5,200.5 
		530,228.25 525,228.25 488.5,194.404 475.717,206.75 474.25,213.75 460.74,227.09 437.852,249.689 414.75,272.5 391,273.75 
		354.25,310.25 398,352.75 410.125,340.625 454.875,385.375 540,385.375 597.183,327.5 597.183,249.5 597.183,237.25 	"/>
	<path fill="#939598" stroke="#FFFFFF" stroke-width="0.5" stroke-miterlimit="10" d="M378.76,471.25
		c-12.221,0-21.329-2.692-28.124-6.469l-3.262,5.469v25.625h39.883V470.84C384.601,471.101,381.781,471.25,378.76,471.25z"/>
	<path fill="#939598" stroke="#FFFFFF" stroke-width="0.5" stroke-miterlimit="10" d="M387.258,470.84v25.035h37.492v-11.5h1
		v-37.833C423.84,451.67,415.56,468.063,387.258,470.84z"/>
	
		<rect x="261.833" y="471.125" fill="#939598" stroke="#FFFFFF" stroke-width="0.5" stroke-miterlimit="10" width="57.167" height="24.75"/>
	<path fill="#939598" stroke="#FFFFFF" stroke-width="0.5" stroke-miterlimit="10" d="M331.5,440.667l-6.833,2.666v27.792H319v24.75
		h28.375V470.25l3.262-5.469C334.492,455.808,331.5,440.667,331.5,440.667z"/>
	
		<rect x="261.833" y="444.666" fill="#939598" stroke="#FFFFFF" stroke-width="0.5" stroke-miterlimit="10" width="24.542" height="26.459"/>
	<polygon fill="#939598" stroke="#FFFFFF" stroke-width="0.5" stroke-miterlimit="10" points="324.667,443.333 320,435.333 
		287.167,444.666 286.375,444.666 286.375,471.125 324.667,471.125 	"/>
	
		<rect x="261.833" y="348" fill="#939598" stroke="#FFFFFF" stroke-width="0.5" stroke-miterlimit="10" width="49" height="23.667"/>
	
		<rect x="261.833" y="371.667" fill="#939598" stroke="#FFFFFF" stroke-width="0.5" stroke-miterlimit="10" width="48.917" height="37.113"/>
	<polygon fill="#939598" stroke="#FFFFFF" stroke-width="0.5" stroke-miterlimit="10" points="285,315.833 257.167,315.833 
		257.167,328.667 261.833,328.813 261.833,348 285.417,348 285.417,315.947 	"/>
	<path fill="#939598" stroke="#FFFFFF" stroke-width="0.5" stroke-miterlimit="10" d="M285.417,315.947V348h25.382
		c0.011-0.178,0.022-0.347,0.035-0.5c0.833-10.667,2.833-23.833,2.833-23.833L285.417,315.947z"/>
	<polygon fill="#939598" stroke="#FFFFFF" stroke-width="0.5" stroke-miterlimit="10" points="249,328.667 249,296.5 149.75,296.5 
		139.5,296.5 139.5,408.78 261.833,408.78 261.833,328.667 	"/>
	<polygon fill="#939598" stroke="#FFFFFF" stroke-width="0.5" stroke-miterlimit="10" points="139.5,296.5 81.5,296.5 81.5,318 
		78.75,318 78.75,448.25 83.75,448.25 83.75,471.125 105.75,471.125 105.75,481.75 127,481.75 127,495.875 261.833,495.875 
		261.833,408.78 139.5,408.78 	"/>
	<polygon fill="#939598" stroke="#FFFFFF" stroke-width="0.5" stroke-miterlimit="10" points="597.183,327.5 597.183,249.5 
		597.183,237.25 564.5,205.376 559.5,200.5 530,228.25 525,228.25 488.5,194.404 475.717,206.75 474.25,213.75 460.74,227.09 
		437.852,249.689 414.75,272.5 391,273.75 354.25,310.25 398,352.75 410.125,340.625 454.875,385.375 454.875,385.375 
		454.875,385.375 540,385.375 	"/>
	<polygon fill="#939598" stroke="#FFFFFF" stroke-width="0.5" stroke-miterlimit="10" points="292.667,122.18 292.667,198.356 
		261.833,198.356 261.833,204.75 149.75,204.75 149.75,122.18 	"/>
	
		<rect x="323.75" y="369.063" fill="#939598" stroke="#FFFFFF" stroke-width="0.5" stroke-miterlimit="10" width="9.375" height="12.313"/>
	
		<rect x="323.75" y="381.375" fill="#939598" stroke="#FFFFFF" stroke-width="0.5" stroke-miterlimit="10" width="9.375" height="12.313"/>
	
		<rect x="323.75" y="321.188" fill="#939598" stroke="#FFFFFF" stroke-width="0.5" stroke-miterlimit="10" width="9.375" height="12.313"/>
	
		<rect x="330.804" y="279.767" transform="matrix(0.9705 0.2411 -0.2411 0.9705 78.9287 -72.1239)" fill="#939598" stroke="#FFFFFF" stroke-width="0.5" stroke-miterlimit="10" width="6.875" height="13.52"/>
	
		<rect x="353.7" y="231.345" transform="matrix(0.8103 0.586 -0.586 0.8103 207.2986 -164.1962)" fill="#939598" stroke="#FFFFFF" stroke-width="0.5" stroke-miterlimit="10" width="7.148" height="13.52"/>
	
		<rect x="500.07" y="154.999" transform="matrix(-0.0105 0.9999 -0.9999 -0.0105 670.6922 -340.1552)" fill="#939598" stroke="#FFFFFF" stroke-width="0.5" stroke-miterlimit="10" width="7.149" height="13.52"/>
	
		<rect x="557.446" y="154.999" transform="matrix(-0.0105 0.9999 -0.9999 -0.0105 728.6717 -397.528)" fill="#939598" stroke="#FFFFFF" stroke-width="0.5" stroke-miterlimit="10" width="7.149" height="13.52"/>
	
		<rect x="323.75" y="333.5" fill="#939598" stroke="#FFFFFF" stroke-width="0.5" stroke-miterlimit="10" width="9.375" height="12.313"/>
	<path fill="#939598" stroke="#FFFFFF" stroke-width="0.5" stroke-miterlimit="10" d="M292.667,248.5v55.834h25
		c0,0,4.454-21.382,15.711-45.778L309.667,248.5H292.667z"/>
	<path fill="#939598" stroke="#FFFFFF" stroke-width="0.5" stroke-miterlimit="10" d="M292.667,248.5h17l23.711,10.056
		c5.329-11.548,12.184-23.771,20.813-34.722h-61.525V248.5z"/>
	<path fill="#939598" stroke="#FFFFFF" stroke-width="0.5" stroke-miterlimit="10" d="M373.496,204.5v-6.144h-80.83v25.477h61.525
		C359.842,216.661,366.252,210.034,373.496,204.5z"/>
</g>
</svg>
