<?xml version="1.0" encoding="utf-8"?>
<!-- Generator: Adobe Illustrator 16.0.3, SVG Export Plug-In . SVG Version: 6.00 Build 0)  -->
<!DOCTYPE svg PUBLIC "-//W3C//DTD SVG 1.1//EN" "http://www.w3.org/Graphics/SVG/1.1/DTD/svg11.dtd">
<svg version="1.1" xmlns="http://www.w3.org/2000/svg" xmlns:xlink="http://www.w3.org/1999/xlink" x="0px" y="0px"
	 width="841.89px" height="595.28px" viewBox="0 0 841.89 595.28" enable-background="new 0 0 841.89 595.28" xml:space="preserve">
<g id="ETC">
	<path fill="none" stroke="#F7941E" stroke-width="0.5" stroke-miterlimit="10" d="M718.592,356.125V247.493h-35.724v-24.748
		h-24.535l22.501-22.412l0.167-27L658.333,151h-49.165l-24.834,24.833l-43.833-0.5v-51.579h93.833l-0.57-24.149H515.622v13.572
		h-12.973v-7.185h-17.763v17.762H535v51.799l2.301,22.177h11.449v10.936l-2.958,2.958V322h-8.459H285v-73.5h-13.461v47.424h-15.301
		v43.907h-3.193v168.177H433.5v-64.55h4.25l2.729-2.729h13.396l2.803,2.803h5.947l2.714-2.714h13.036l2.758,2.758h6.242l2.736-2.735
		h13.639l2.559,2.559h5.941l2.397-2.397h13.603l2.729,2.729h28.771v64.278h6.625V443.75h53.5l8.188,8.188h9.688l7.781,7.781
		l10.219,1.781l19.599,25.055c4.245-3.11,8.369-6.668,12.241-10.745c3.359-3.537,6.352-7.294,9.023-11.175L671.75,445l-1.875-10.75
		l-7.875-7.5V417l-8.375-8.25v-55.125H695.5l-0.25,2.5H718.592z"/>
	
		<rect x="601.25" y="352.625" fill="none" stroke="#F7941E" stroke-width="0.5" stroke-miterlimit="10" width="38.125" height="3.875"/>
	<rect x="563" y="391.125" fill="none" stroke="#F7941E" stroke-width="0.5" stroke-miterlimit="10" width="5" height="37.625"/>
	<path fill="none" stroke="#F7941E" stroke-width="0.5" stroke-miterlimit="10" d="M606.875,352.773v6.852h-4.25l-4.875,4.875v3.875
		H594v7.875l-6.875,7.625h-8.25v3.375h-3.5l-3.688,4.813v1.438h-7.526c0.758,21.113,18.103,38,39.401,38
		c21.781,0,39.438-17.657,39.438-39.438C643,371.398,627.104,354.458,606.875,352.773z"/>
	<g>
		<path fill="none" stroke="#F7941E" stroke-width="0.5" stroke-miterlimit="10" d="M260.163,91.424h23.351V73.462h178.821v19.958
			h22.552v12.573h17.763v7.185h12.973V99.606h142.697v5.389h26.145v12.175h10.378v11.575H714.4v-4.99h85.021v4.99h13.371v13.971
			h5.788v49.894h-5.588v13.371h-13.771v6.188H714.8v-5.788h-6.586v16.365h-25.346v24.748h35.724v108.77v38.718
			c0,0-0.932,49.162-31.002,80.829c-30.068,31.666-75.306,32.198-75.306,32.198h-359.24V339.831h3.193v-43.907h15.301v-72.38
			h-11.176L260.163,91.424z"/>
	</g>
	
		<rect x="402.594" y="414.539" fill="none" stroke="#F7941E" stroke-width="0.5" stroke-miterlimit="10" width="23.55" height="4.059"/>
	
		<rect x="402.594" y="424.396" fill="none" stroke="#F7941E" stroke-width="0.5" stroke-miterlimit="10" width="23.55" height="4.059"/>
	
		<rect x="635.169" y="217.291" fill="none" stroke="#F7941E" stroke-width="0.5" stroke-miterlimit="10" width="4.059" height="23.55"/>
	
		<rect x="633.595" y="177.299" transform="matrix(0.7045 0.7097 -0.7097 0.7045 320.2077 -410.3715)" fill="none" stroke="#F7941E" stroke-width="0.5" stroke-miterlimit="10" width="38.588" height="4.058"/>
	
		<rect x="592.968" y="177.299" transform="matrix(-0.7072 0.707 -0.707 -0.7072 1172.0295 -126.7467)" fill="none" stroke="#F7941E" stroke-width="0.5" stroke-miterlimit="10" width="38.587" height="4.058"/>
	
		<rect x="345.023" y="399.96" transform="matrix(0.7097 -0.7045 0.7045 0.7097 -177.4409 373.3442)" fill="none" stroke="#F7941E" stroke-width="0.5" stroke-miterlimit="10" width="38.588" height="4.058"/>
	
		<rect x="345.024" y="440.156" transform="matrix(0.707 0.7072 -0.7072 0.707 419.4292 -128.0934)" fill="none" stroke="#F7941E" stroke-width="0.5" stroke-miterlimit="10" width="38.588" height="4.058"/>
	
		<rect x="625.311" y="217.291" fill="none" stroke="#F7941E" stroke-width="0.5" stroke-miterlimit="10" width="4.059" height="23.55"/>
	<rect x="623.167" y="216.167" fill="none" stroke="#F7941E" stroke-width="0.5" stroke-miterlimit="10" width="18" height="21"/>
	<rect x="402" y="412.25" fill="none" stroke="#F7941E" stroke-width="0.5" stroke-miterlimit="10" width="20.125" height="18.5"/>
	<polygon fill="none" stroke="#F7941E" stroke-width="0.5" stroke-miterlimit="10" points="261.833,409.5 261.833,434.833 
		268.667,434.833 273.417,430.083 273.417,414.539 268.522,409.645 	"/>
	<polygon fill="none" stroke="#F7941E" stroke-width="0.5" stroke-miterlimit="10" points="253.044,445.833 272.833,445.833 
		283.25,435.416 283.25,408.334 273.208,398.292 253.044,398.292 	"/>
	<polygon fill="none" stroke="#F7941E" stroke-width="0.5" stroke-miterlimit="10" points="253.044,470.75 273,470.75 
		272.833,445.833 253.044,445.833 	"/>
	<path fill="none" stroke="#F7941E" stroke-width="0.5" stroke-miterlimit="10" d="M562.291,347.475
		c0,2.324-1.884,4.208-4.208,4.208l0,0c-2.324,0-4.208-1.884-4.208-4.208l0,0c0-2.324,1.884-4.208,4.208-4.208l0,0
		C560.407,343.267,562.291,345.15,562.291,347.475L562.291,347.475z"/>
</g>
<g id="Background">
	<rect fill="#FFFFFF" width="841.89" height="595.28"/>
</g>
<g id="Original">
	
		<image overflow="visible" width="3289" height="2323" xlink:href="FLOOR_PLAN_G.jpg"  transform="matrix(0.1916 0 0 0.1916 243.1992 67.2988)">
	</image>
</g>
<g id="Signs">
	<rect id="elevator" x="587.012" y="374.564" opacity="0.8" width="14.811" height="14.811"/>
	<rect id="information" x="550.678" y="340.069" opacity="0.8" width="14.811" height="14.811"/>
	<g id="telephone">
		<rect x="522.522" y="149.395" opacity="0.8" width="14.811" height="14.811"/>
		<rect x="309.678" y="452.069" opacity="0.8" width="14.811" height="14.811"/>
	</g>
	<g id="toilet">
		<rect x="584.417" y="103.645" opacity="0.8" width="14.811" height="14.811"/>
		<rect x="291.011" y="478.569" opacity="0.8" width="14.811" height="14.811"/>
	</g>
	<g id="escalator">
		<rect x="626.255" y="159.534" opacity="0.8" width="14.811" height="14.811"/>
		<rect x="624.762" y="235.501" opacity="0.8" width="14.811" height="14.811"/>
		<rect x="665.282" y="453.917" opacity="0.8" width="14.811" height="14.811"/>
		<rect x="570.47" y="364.563" opacity="0.8" width="14.811" height="14.811"/>
		<rect x="339.511" y="414.657" opacity="0.8" width="14.811" height="14.811"/>
	</g>
</g>
<g id="Rooms">
	
		<rect x="253.044" y="339.831" fill="#939598" stroke="#FFFFFF" stroke-width="0.5" stroke-miterlimit="10" width="19.789" height="58.836"/>
	<polygon fill="#939598" stroke="#FFFFFF" stroke-width="0.5" stroke-miterlimit="10" points="272.833,339.831 285,339.831 
		285,348.834 311.833,348.834 311.833,322.167 361.333,322.167 361.333,371.834 337,398.667 309.667,398.667 300.5,408.334 
		283.167,408.334 272.833,398.667 	"/>
	<polygon fill="#939598" stroke="#FFFFFF" stroke-width="0.5" stroke-miterlimit="10" points="272.833,445.833 283.25,435.416 
		300,435.416 312.292,447.708 312.292,472.417 287.333,472.417 287.333,470.75 273,470.75 	"/>
	<polygon fill="#939598" stroke="#FFFFFF" stroke-width="0.5" stroke-miterlimit="10" points="359.083,470.416 334.5,445.833 
		318.5,445.833 318.5,508.008 361.375,508.008 361.375,470.416 	"/>
	
		<rect x="361.375" y="470.416" fill="#939598" stroke="#FFFFFF" stroke-width="0.5" stroke-miterlimit="10" width="11.688" height="37.592"/>
	
		<rect x="373.063" y="470.416" fill="#939598" stroke="#FFFFFF" stroke-width="0.5" stroke-miterlimit="10" width="11.813" height="37.592"/>
	<polygon fill="#939598" stroke="#FFFFFF" stroke-width="0.5" stroke-miterlimit="10" points="427.625,443.458 412.708,443.458 
		385.75,470.416 384.875,470.416 384.875,508.008 427.625,508.008 	"/>
	<polygon fill="#939598" stroke="#FFFFFF" stroke-width="0.5" stroke-miterlimit="10" points="559.75,443.729 530.979,443.729 
		528.25,441.001 514.647,441.001 512.25,443.398 509.875,443.398 509.875,508.008 559.75,508.008 	"/>
	<polygon fill="#939598" stroke="#FFFFFF" stroke-width="0.5" stroke-miterlimit="10" points="456.678,443.531 453.875,440.729 
		440.479,440.729 437.75,443.458 433.5,443.458 433.5,508.008 460.125,508.008 460.125,443.531 	"/>
	<polygon fill="#939598" stroke="#FFFFFF" stroke-width="0.5" stroke-miterlimit="10" points="481.133,443.575 478.375,440.817 
		465.339,440.817 462.625,443.531 460.125,443.531 460.125,508.008 485,508.008 485,443.575 	"/>
	<polygon fill="#939598" stroke="#FFFFFF" stroke-width="0.5" stroke-miterlimit="10" points="506.309,443.398 503.75,440.84 
		490.111,440.84 487.375,443.575 485,443.575 485,508.008 509.875,508.008 509.875,443.398 	"/>
	<path fill="#939598" stroke="#FFFFFF" stroke-width="0.5" stroke-miterlimit="10" d="M675.349,486.555L655.75,461.5l-10.219-1.781
		l-7.781-7.781h-9.688l-8.188-8.188h-8v64.258h0.409C612.284,508.008,646.621,507.601,675.349,486.555z"/>
	
		<rect x="566.375" y="443.75" fill="#939598" stroke="#FFFFFF" stroke-width="0.5" stroke-miterlimit="10" width="23" height="64.258"/>
	
		<rect x="589.375" y="443.75" fill="#939598" stroke="#FFFFFF" stroke-width="0.5" stroke-miterlimit="10" width="22.5" height="64.258"/>
	<polygon fill="#939598" stroke="#FFFFFF" stroke-width="0.5" stroke-miterlimit="10" points="718.592,356.263 718.592,356.125 
		695.25,356.125 695.5,353.625 653.625,353.625 653.625,373.375 718.592,373.375 	"/>
	<path fill="#939598" stroke="#FFFFFF" stroke-width="0.5" stroke-miterlimit="10" d="M653.625,408.75L662,417v9.75l7.875,7.5
		L671.75,445l24.863,19.635c19.641-28.538,21.751-63.85,21.957-69.01h-64.945V408.75z"/>
	<path fill="#939598" stroke="#FFFFFF" stroke-width="0.5" stroke-miterlimit="10" d="M718.592,373.375h-64.967v22.25h64.945
		c0.018-0.421,0.021-0.645,0.021-0.645V373.375z"/>
	
		<rect x="654.75" y="323.75" fill="#939598" stroke="#FFFFFF" stroke-width="0.5" stroke-miterlimit="10" width="35.875" height="25.125"/>
	
		<rect x="690.625" y="323.75" fill="#939598" stroke="#FFFFFF" stroke-width="0.5" stroke-miterlimit="10" width="27.967" height="25.125"/>
	<polygon fill="#939598" stroke="#FFFFFF" stroke-width="0.5" stroke-miterlimit="10" points="812.792,142.715 812.792,128.745 
		799.421,128.745 799.421,123.755 714.4,123.755 714.4,128.745 706.501,128.745 706.501,206.667 708.214,206.38 714.8,206.38 
		714.8,212.168 799.221,212.168 799.221,205.98 812.992,205.98 812.992,192.609 818.58,192.609 818.58,142.715 	"/>
	<polygon fill="#939598" stroke="#FFFFFF" stroke-width="0.5" stroke-miterlimit="10" points="658.319,99.606 633.764,99.606 
		634.334,123.755 609.001,123.755 609.001,151.167 609.168,151 658.319,151 658.319,104.995 	"/>
	<polygon fill="#939598" stroke="#FFFFFF" stroke-width="0.5" stroke-miterlimit="10" points="559.834,123.755 559.834,175.554 
		584.334,175.833 609.001,151.167 609.001,123.755 	"/>
	<polygon fill="#939598" stroke="#FFFFFF" stroke-width="0.5" stroke-miterlimit="10" points="540.501,123.755 540.501,175.333 
		559.834,175.554 559.834,123.755 	"/>
	<polygon fill="#939598" stroke="#FFFFFF" stroke-width="0.5" stroke-miterlimit="10" points="684.464,117.169 684.464,104.995 
		658.319,104.995 658.319,151 658.333,151 669.581,162.082 684.464,149.833 	"/>
	<polygon fill="#939598" stroke="#FFFFFF" stroke-width="0.5" stroke-miterlimit="10" points="706.501,173.333 681.001,173.333 
		680.834,200.333 658.333,222.745 682.868,222.745 708.214,222.745 708.214,206.38 706.501,206.667 	"/>
	<polygon fill="#939598" stroke="#FFFFFF" stroke-width="0.5" stroke-miterlimit="10" points="706.501,128.745 694.842,128.745 
		694.842,117.169 684.464,117.169 684.464,149.833 669.581,162.082 681.001,173.333 706.501,173.333 	"/>
	<polygon fill="#939598" stroke="#FFFFFF" stroke-width="0.5" stroke-miterlimit="10" points="285,322 537.333,322 537.333,198.039 
		535,175.554 535,123.755 484.887,123.755 484.887,105.993 484.887,93.419 462.335,93.419 462.335,73.462 283.514,73.462 
		283.514,91.424 260.163,91.424 260.362,223.544 271.539,223.544 271.539,248.5 285,248.5 	"/>
	
		<rect x="285" y="322.167" fill="#939598" stroke="#FFFFFF" stroke-width="0.5" stroke-miterlimit="10" width="26.833" height="26.667"/>
	<polygon fill="#939598" stroke="#FFFFFF" stroke-width="0.5" stroke-miterlimit="10" points="433.5,322 433.5,399.619 
		437.506,399.619 439.875,401.989 453.462,401.989 456,399.451 460.25,399.451 460.25,322 	"/>
	<polygon fill="#939598" stroke="#FFFFFF" stroke-width="0.5" stroke-miterlimit="10" points="460.25,322 460.25,399.451 
		462.049,399.451 465.125,402.527 478.324,402.527 481.375,399.477 485.818,399.477 485.818,322 	"/>
	<polygon fill="#939598" stroke="#FFFFFF" stroke-width="0.5" stroke-miterlimit="10" points="408.75,322 408.75,396.119 
		412.25,399.619 433.5,399.619 433.5,322 	"/>
	<polygon fill="#939598" stroke="#FFFFFF" stroke-width="0.5" stroke-miterlimit="10" points="485.818,322 485.818,399.477 
		486.773,399.477 489.5,402.203 503.266,402.203 505.75,399.719 508,399.719 508,322 	"/>
	<path fill="#939598" stroke="#FFFFFF" stroke-width="0.5" stroke-miterlimit="10" d="M548.188,351.688v-17.75L545.792,330v-8
		H530.25v77.5h13.875c4.125-16.75,17.75-34.938,17.75-34.938L548.188,351.688z"/>
	
		<rect x="383.628" y="322" fill="#939598" stroke="#FFFFFF" stroke-width="0.5" stroke-miterlimit="10" width="25.122" height="16.625"/>
	<polygon fill="#939598" stroke="#FFFFFF" stroke-width="0.5" stroke-miterlimit="10" points="383.628,338.625 383.628,370.997 
		408.75,396.119 408.75,338.625 	"/>
	<rect x="508" y="322" fill="#939598" stroke="#FFFFFF" stroke-width="0.5" stroke-miterlimit="10" width="22.25" height="19.875"/>
	<polygon fill="#939598" stroke="#FFFFFF" stroke-width="0.5" stroke-miterlimit="10" points="508,341.875 508,399.719 
		511.406,399.719 513.75,402.063 527.688,402.063 530.25,399.5 530.25,341.875 	"/>
	<polygon fill="#939598" stroke="#FFFFFF" stroke-width="0.5" stroke-miterlimit="10" points="548.75,208.667 548.75,197.731 
		537.301,197.731 537.333,198.039 537.333,211.125 546.292,211.125 	"/>
	<polygon fill="#939598" stroke="#FFFFFF" stroke-width="0.5" stroke-miterlimit="10" points="545.792,211.625 546.292,211.125 
		537.333,211.125 537.333,227.25 545.792,227.25 	"/>
	
		<rect x="537.333" y="302.5" fill="#939598" stroke="#FFFFFF" stroke-width="0.5" stroke-miterlimit="10" width="8.459" height="19.5"/>
	
		<rect x="537.333" y="262.625" fill="#939598" stroke="#FFFFFF" stroke-width="0.5" stroke-miterlimit="10" width="8.459" height="19.5"/>
	
		<rect x="537.333" y="282.125" fill="#939598" stroke="#FFFFFF" stroke-width="0.5" stroke-miterlimit="10" width="8.459" height="20.375"/>
	
		<rect x="537.333" y="227.25" fill="#939598" stroke="#FFFFFF" stroke-width="0.5" stroke-miterlimit="10" width="8.459" height="17.625"/>
	
		<rect x="537.333" y="244.875" fill="#939598" stroke="#FFFFFF" stroke-width="0.5" stroke-miterlimit="10" width="8.459" height="17.75"/>
	<polygon fill="#939598" stroke="#FFFFFF" stroke-width="0.5" stroke-miterlimit="10" points="575.375,213.5 572,211.125 
		568,211.125 568,233.875 575.375,233.875 	"/>
	<polygon fill="#939598" stroke="#FFFFFF" stroke-width="0.5" stroke-miterlimit="10" points="568,343.584 572.5,340.75 
		572.563,333.063 575.375,330.25 575.375,312.75 568,312.75 	"/>
	
		<rect x="568" y="286.375" fill="#939598" stroke="#FFFFFF" stroke-width="0.5" stroke-miterlimit="10" width="7.375" height="26.375"/>
	<rect x="568" y="259.375" fill="#939598" stroke="#FFFFFF" stroke-width="0.5" stroke-miterlimit="10" width="7.375" height="27"/>
	
		<rect x="568" y="233.875" fill="#939598" stroke="#FFFFFF" stroke-width="0.5" stroke-miterlimit="10" width="7.375" height="25.5"/>
	<polygon fill="#939598" stroke="#FFFFFF" stroke-width="0.5" stroke-miterlimit="10" points="610.063,226.833 605.975,222.745 
		575.375,222.745 575.375,236.063 610.063,236.063 	"/>
	<path fill="#939598" stroke="#FFFFFF" stroke-width="0.5" stroke-miterlimit="10" d="M575.375,330.25l-2.813,2.813l-0.063,7.688
		l-4.5,2.834l7.625,7.625c0,0,12.292-11.708,34.625-17.625V322h-34.875V330.25z"/>
	
		<rect x="575.375" y="236.063" fill="#939598" stroke="#FFFFFF" stroke-width="0.5" stroke-miterlimit="10" width="34.688" height="13.688"/>
	<polygon fill="#939598" stroke="#FFFFFF" stroke-width="0.5" stroke-miterlimit="10" points="583.531,200.302 583.531,197.731 
		568,197.731 568,211.125 572,211.125 575.375,213.5 575.375,222.745 605.975,222.745 	"/>
	<polygon fill="#939598" stroke="#FFFFFF" stroke-width="0.5" stroke-miterlimit="10" points="613.458,254.083 610.063,250.688 
		610.063,249.75 575.375,249.75 575.375,261.875 613.458,261.875 	"/>
	<polygon fill="#939598" stroke="#FFFFFF" stroke-width="0.5" stroke-miterlimit="10" points="613,316.834 613,303.807 
		610.139,300.945 610.139,299.563 575.375,299.563 575.375,322 610.25,322 610.25,319.584 	"/>
	<polygon fill="#939598" stroke="#FFFFFF" stroke-width="0.5" stroke-miterlimit="10" points="610.555,270.583 613.458,267.681 
		613.458,261.875 575.375,261.875 575.375,274.47 610.555,274.47 	"/>
	<polygon fill="#939598" stroke="#FFFFFF" stroke-width="0.5" stroke-miterlimit="10" points="610.139,295.75 613.277,292.611 
		613.277,278.417 610.555,275.694 610.555,274.47 575.375,274.47 575.375,299.563 610.139,299.563 	"/>
	<polygon fill="#939598" stroke="#FFFFFF" stroke-width="0.5" stroke-miterlimit="10" points="682.851,274.47 654.688,274.47 
		654.688,276 651.511,279.177 651.511,287.016 682.846,287.016 	"/>
	<polygon fill="#939598" stroke="#FFFFFF" stroke-width="0.5" stroke-miterlimit="10" points="682.859,247.5 654.333,247.5 
		654.333,251.667 651.958,254.042 651.958,267.917 654.688,270.646 654.688,274.47 682.851,274.47 	"/>
	<polygon fill="#939598" stroke="#FFFFFF" stroke-width="0.5" stroke-miterlimit="10" points="682.868,222.745 658.333,222.745 
		654.333,226.75 654.333,247.5 682.859,247.5 	"/>
	<polygon fill="#939598" stroke="#FFFFFF" stroke-width="0.5" stroke-miterlimit="10" points="682.846,287.016 651.511,287.016 
		651.511,292.417 654.464,295.37 654.464,299.563 682.842,299.563 	"/>
	<polygon fill="#939598" stroke="#FFFFFF" stroke-width="0.5" stroke-miterlimit="10" points="651.612,310.781 651.612,317.167 
		654.89,320.444 654.75,323.75 682.833,323.75 682.838,310.781 	"/>
	<polygon fill="#939598" stroke="#FFFFFF" stroke-width="0.5" stroke-miterlimit="10" points="682.842,299.563 654.464,299.563 
		654.464,301.167 651.612,304.019 651.612,310.781 682.838,310.781 	"/>
	
		<rect x="552.5" y="407.875" fill="#939598" stroke="#FFFFFF" stroke-width="0.5" stroke-miterlimit="10" width="6.375" height="8.75"/>
	<polygon fill="#939598" stroke="#FFFFFF" stroke-width="0.5" stroke-miterlimit="10" points="268.875,438.688 271.875,441.688 
		279.188,434.5 276.125,431.625 	"/>
	<polygon fill="#939598" stroke="#FFFFFF" stroke-width="0.5" stroke-miterlimit="10" points="352.625,436.656 369.75,453.25 
		363.5,453.916 351.5,442.186 	"/>
	<polygon fill="#939598" stroke="#FFFFFF" stroke-width="0.5" stroke-miterlimit="10" points="351.5,401 353,406.875 
		370.625,389.875 364.317,389.375 	"/>
	<polygon fill="#939598" stroke="#FFFFFF" stroke-width="0.5" stroke-miterlimit="10" points="608.125,350.125 632.875,350.125 
		632.875,346.25 630,343.584 610.25,343.584 608.125,345.5 	"/>
	<polygon fill="#939598" stroke="#FFFFFF" stroke-width="0.5" stroke-miterlimit="10" points="647.625,167.961 665,185.125 
		667.921,181.875 667.408,179.328 652.889,164.875 650.375,164.875 	"/>
	<polygon fill="#939598" stroke="#FFFFFF" stroke-width="0.5" stroke-miterlimit="10" points="597.625,178.188 597.625,180.938 
		601.375,184.438 618.438,167.188 615.563,164.252 612.262,164.252 	"/>
</g>
</svg>
