<?xml version="1.0" encoding="utf-8"?>
<!-- Generator: Adobe Illustrator 16.0.3, SVG Export Plug-In . SVG Version: 6.00 Build 0)  -->
<!DOCTYPE svg PUBLIC "-//W3C//DTD SVG 1.1//EN" "http://www.w3.org/Graphics/SVG/1.1/DTD/svg11.dtd">
<svg version="1.1" xmlns="http://www.w3.org/2000/svg" xmlns:xlink="http://www.w3.org/1999/xlink" x="0px" y="0px"
	 width="841.89px" height="595.28px" viewBox="0 0 841.89 595.28" enable-background="new 0 0 841.89 595.28" xml:space="preserve">
<g id="ETC">
	
		<rect x="633.595" y="177.299" transform="matrix(0.7045 0.7097 -0.7097 0.7045 320.2077 -410.3715)" fill="none" stroke="#FBB040" stroke-width="0.5" stroke-miterlimit="10" width="38.588" height="4.058"/>
	
		<rect x="592.968" y="177.299" transform="matrix(-0.7072 0.707 -0.707 -0.7072 1172.0295 -126.7467)" fill="none" stroke="#FBB040" stroke-width="0.5" stroke-miterlimit="10" width="38.587" height="4.058"/>
	
		<rect x="345.023" y="399.96" transform="matrix(0.7097 -0.7045 0.7045 0.7097 -177.4409 373.3442)" fill="none" stroke="#FBB040" stroke-width="0.5" stroke-miterlimit="10" width="38.588" height="4.058"/>
	
		<rect x="345.024" y="440.156" transform="matrix(0.707 0.7072 -0.7072 0.707 419.4292 -128.0934)" fill="none" stroke="#FBB040" stroke-width="0.5" stroke-miterlimit="10" width="38.588" height="4.058"/>
	
		<rect x="601.25" y="352.625" fill="none" stroke="#FBB040" stroke-width="0.5" stroke-miterlimit="10" width="38.125" height="3.875"/>
	<rect x="563" y="391.125" fill="none" stroke="#FBB040" stroke-width="0.5" stroke-miterlimit="10" width="5" height="37.625"/>
	<path fill="none" stroke="#FBB040" stroke-width="0.5" stroke-miterlimit="10" d="M655.744,404.92l-5.244-4.337
		c0,0-17.417,4.5-26.084,13.167s-12.875,25.542-12.875,25.542l5.301,5.301C636.96,441.231,652.772,425.167,655.744,404.92z"/>
	<polygon fill="none" stroke="#FBB040" stroke-width="0.5" stroke-miterlimit="10" points="357.349,411.766 374.58,394.662 
		375.583,395.667 395.083,395.833 400.417,390.333 417.167,407.583 412.167,412.583 412.083,432.167 417.167,437.333 399.917,454.5 
		395.167,449.417 375.583,449.417 374.916,449.917 358.168,433.165 358.5,432.417 358.417,412.75 	"/>
	<polygon fill="none" stroke="#FBB040" stroke-width="0.5" stroke-miterlimit="10" points="600.667,215 617.917,231.917 
		623.083,226.833 642.417,226.917 647.417,231.917 664.75,215 659.333,209.75 659.5,190.25 660.105,189.479 643.044,172.29 
		642.333,173.25 623,173.25 622.17,172.29 604.895,189.562 605.5,190.333 605.75,210 	"/>
	<polygon fill="none" stroke="#FBB040" stroke-width="0.5" stroke-miterlimit="10" points="645.5,246.75 641.25,246.75 624,246.75 
		617.75,246.75 611.5,246.75 611.5,325.125 618.5,333.75 646.875,333.75 654,324.875 654,246.75 	"/>
	<polygon fill="none" stroke="#FBB040" stroke-width="0.5" stroke-miterlimit="10" points="262.583,409.334 268.606,409.334 
		273.762,414.49 273.762,429.334 268.684,434.412 262.583,434.412 	"/>
	<path fill="none" stroke="#FBB040" stroke-width="0.5" stroke-miterlimit="10" d="M656.219,396.77
		c-0.035-1.302-0.107-2.594-0.244-3.868c-1.426-13.288-8.359-24.924-18.474-32.585c-0.293-0.223-0.595-0.434-0.894-0.649
		c-7.767-5.604-17.297-8.917-27.605-8.917c-1.095,0-2.176,0.051-3.252,0.124v9.45h-2.575l-4.342,4.342v3.834h-4.749v8.166
		l-6.917,6.917H579v4.917h-3.75l-4.333,4.333v2.583h-9.093c-0.046,0.856-0.073,1.718-0.073,2.585c0,10.31,3.312,19.841,8.916,27.608
		c7.542,10.454,19.249,17.695,32.694,19.296c1.851,0.22,3.73,0.347,5.641,0.347c2.672,0,5.288-0.233,7.84-0.659l-5.301-5.301
		c0,0,4.208-16.875,12.875-25.542s26.084-13.167,26.084-13.167l5.244,4.337c0.331-2.259,0.509-4.568,0.509-6.919
		C656.253,397.588,656.229,397.18,656.219,396.77z"/>
	<path fill="none" stroke="#FBB040" stroke-width="0.5" stroke-miterlimit="10" d="M718.592,261v-11.333h-45.32v-16.063l8.771-8.771
		v-51.375l-22.708-22.708h-49.75l-25.083,25.083h-43.834v-52.079h93.667V99.606H515.622v13.572h-12.973v-7.185h-17.763v18.174
		h49.947V175.5v47.334h47.332l11,10.667v37.667l-3.833,3.833v24.5l3.667,4.306v31.027c-36.5,8.166-46.166,46.896-46.166,46.896
		h-24.063l-9.271-9.271h-53.291l-9.709,9.709h-30.667l-10.667-10.834v-48.931h-47.333v48.93L337.5,398.084h-26.917L300.5,408.167
		h-16.333v28.25h16.417l11.083,11.083v25h-24.333v-2H273.5V446h-20.456v62.008h65.623V446H335.5l24.75,24.75h51.083l8.708-8.708
		h4.625v45.966h9.5v-46.064h3.776l3.057-3.057h12.697l2.803,2.803h6.023l2.811-2.81h13.036l3.13,3.13h6.012l2.822-2.822h12.896
		l2.771,2.771h5.959l3.208-3.208h12.749l3.084,3.083h29.167v46.175H568v-23.175h-1.832v-22.5h31.166c0,0,31.5,7.5,58.919-19.833
		c3.745-3.733,6.785-7.764,9.249-11.938l0,0c0.542-0.919,1.056-1.844,1.544-2.775c0.004-0.008,0.009-0.017,0.013-0.025
		c0.485-0.927,0.943-1.859,1.376-2.795c0.005-0.01,0.01-0.021,0.015-0.03c0.433-0.938,0.841-1.879,1.225-2.823
		c0.003-0.006,0.005-0.012,0.008-0.018c0.385-0.948,0.747-1.899,1.085-2.851c1.216-3.417,2.136-6.841,2.818-10.199
		c0.865-4.25,1.354-8.39,1.587-12.272c0-0.004,0-0.007,0-0.01c0.066-1.113,0.112-2.204,0.14-3.271c0-0.016,0.001-0.031,0.001-0.046
		c0.027-1.069,0.036-2.113,0.03-3.128c0-0.002,0-0.005,0-0.008c-0.013-2.037-0.086-3.959-0.197-5.736
		c-0.001-0.017-0.003-0.033-0.004-0.051c-0.029-0.46-0.061-0.912-0.094-1.353c-0.001-0.002-0.001-0.005-0.001-0.007
		c-0.451-5.89-1.277-9.938-1.493-10.929c-0.003-0.012-0.005-0.021-0.007-0.033c-0.013-0.057-0.023-0.105-0.031-0.138
		c-0.001-0.005-0.002-0.011-0.003-0.015c-0.007-0.029-0.012-0.051-0.012-0.051h35.676c-0.87-5.018-2.073-10.191-3.676-15.5h-32.138
		v-36.363l-3.637-3.637v-12.695l2.805-2.805v-5.864l-2.802-2.802v-13.354l3.146-3.146v-5.542l-2.625-2.625v-11.75l2.917-2.917
		h23.667v8H718.592z"/>
	<path fill="none" stroke="#FBB040" stroke-width="0.5" stroke-miterlimit="10" d="M812.792,142.715v-13.971h-13.371v-4.99H714.4
		v4.99h-19.559v-11.575h-10.378v-12.175h-26.145v-5.389H515.622v13.572h-12.973v-7.185h-17.763V93.419h-22.552V73.462H283.514
		v17.962h-23.351l0.2,132.12h11.176v72.38h-15.301v43.907h-3.193v168.177h359.24c0,0,45.237-0.532,75.306-32.198
		c30.07-31.667,31.002-80.829,31.002-80.829v-38.718V250v-2.506v-26.327h-10.378v-11.791v-2.995h6.586v5.788h84.421v-6.188h13.771
		v-13.371h5.588v-49.894H812.792z"/>
	<polygon fill="none" stroke="#FBB040" stroke-width="0.5" stroke-miterlimit="10" points="536.625,401.375 433,401.375 
		433,408.917 433,413.75 433,431 433,434.917 433,443.25 537.242,443.25 543.375,436.625 543.375,408.5 	"/>
	<polygon fill="none" stroke="#FBB040" stroke-width="0.5" stroke-miterlimit="10" points="285.5,322.403 285.5,248 271.539,248 
		271.539,295.924 256.238,295.924 256.238,339.5 285.5,339.5 	"/>
	<polygon fill="none" stroke="#FBB040" stroke-width="0.5" stroke-miterlimit="10" points="256.238,339.5 256.238,339.831 
		253.044,339.831 253.044,397.451 273,397.451 273.334,397.771 273.334,339.5 	"/>
	<polygon fill="none" stroke="#FBB040" stroke-width="0.5" stroke-miterlimit="10" points="284.167,408.167 273,397.451 
		253.044,397.451 253.044,446 273.5,446 284.167,436.417 	"/>
</g>
<g id="Background">
	<rect fill="#FFFFFF" width="841.89" height="595.28"/>
</g>
<g id="Original">
	
		<image overflow="visible" width="3320" height="2409" xlink:href="FLOOR_PLAN_3.jpg"  transform="matrix(0.1916 0 0 0.1916 251.1816 64.7378)">
	</image>
</g>
<g id="Signs">
	<rect id="elevator" x="585.762" y="375.767" opacity="0.8" width="14.811" height="14.811"/>
	<g id="escalator">
		<rect x="338.596" y="414.32" opacity="0.8" width="14.811" height="14.811"/>
		<rect x="572.346" y="361.23" opacity="0.8" width="14.811" height="14.811"/>
		<rect x="625.262" y="156.847" opacity="0.8" width="14.811" height="14.811"/>
	</g>
	<g id="telephone">
		<rect x="311.262" y="450.873" opacity="0.8" width="14.811" height="14.811"/>
		<rect x="521.827" y="154.597" opacity="0.8" width="14.811" height="14.811"/>
	</g>
	<g id="toilet">
		<rect x="584.375" y="96.345" opacity="0.8" width="14.811" height="14.811"/>
		<rect x="292.584" y="477.939" opacity="0.8" width="14.811" height="14.811"/>
	</g>
</g>
<g id="Rooms">
	<polygon fill="#939598" stroke="#FFFFFF" stroke-width="0.5" stroke-miterlimit="10" points="285.5,322.403 510.097,322.403 
		533,299.5 533,223 534.834,223 534.834,175.5 534.834,124.167 484.887,124.167 484.887,105.993 484.887,93.419 462.335,93.419 
		462.335,73.462 283.514,73.462 283.514,91.424 260.163,91.424 260.362,223.544 271.539,223.544 271.539,248 285.5,248 	"/>
	<polygon fill="#939598" stroke="#FFFFFF" stroke-width="0.5" stroke-miterlimit="10" points="812.792,142.715 812.792,128.745 
		799.421,128.745 799.421,123.755 714.4,123.755 714.4,128.745 703.834,128.745 703.834,149.833 733.167,149.833 733.167,212.168 
		799.221,212.168 799.221,205.98 812.992,205.98 812.992,192.609 818.58,192.609 818.58,142.715 	"/>
	<polygon fill="#939598" stroke="#FFFFFF" stroke-width="0.5" stroke-miterlimit="10" points="309.834,348 309.834,322.403 
		285.5,322.403 285.5,339.5 285.5,348 	"/>
	
		<rect x="309.834" y="322.403" fill="#939598" stroke="#FFFFFF" stroke-width="0.5" stroke-miterlimit="10" width="52" height="25.597"/>
	<polygon fill="#939598" stroke="#FFFFFF" stroke-width="0.5" stroke-miterlimit="10" points="309.834,348 309.834,398.834 
		310.584,398.084 337,398.084 337,348 	"/>
	<polygon fill="#939598" stroke="#FFFFFF" stroke-width="0.5" stroke-miterlimit="10" points="337,348 337,398.084 337.5,398.084 
		361.834,371.333 361.834,348 	"/>
	<polygon fill="#939598" stroke="#FFFFFF" stroke-width="0.5" stroke-miterlimit="10" points="285.5,348 285.5,339.5 273.334,339.5 
		273.334,397.771 284.167,408.167 300.5,408.167 309.834,398.834 309.834,348 	"/>
	<polygon fill="#939598" stroke="#FFFFFF" stroke-width="0.5" stroke-miterlimit="10" points="300.584,436.417 284.167,436.417 
		273.5,446 273.5,470.5 287.334,470.5 287.334,472.5 311.667,472.5 311.667,447.5 	"/>
	<polygon fill="#939598" stroke="#FFFFFF" stroke-width="0.5" stroke-miterlimit="10" points="354.083,407.584 371.083,390.333 
		369.083,388.001 366.583,388.001 351.667,402.667 351.333,405.001 	"/>
	<polygon fill="#939598" stroke="#FFFFFF" stroke-width="0.5" stroke-miterlimit="10" points="434,322.403 434,382.168 
		450.5,382.168 460.209,372.459 462,372.459 462,322.403 	"/>
	
		<rect x="462" y="322.403" fill="#939598" stroke="#FFFFFF" stroke-width="0.5" stroke-miterlimit="10" width="23.818" height="50.056"/>
	<polygon fill="#939598" stroke="#FFFFFF" stroke-width="0.5" stroke-miterlimit="10" points="589.333,275.167 533,275.167 
		533,299.5 532.999,299.501 589.333,299.501 	"/>
	<polygon fill="#939598" stroke="#FFFFFF" stroke-width="0.5" stroke-miterlimit="10" points="593.166,233.501 582.166,222.834 
		534.834,222.834 534.834,223 533,223 533,249.667 593.166,249.667 	"/>
	<polygon fill="#939598" stroke="#FFFFFF" stroke-width="0.5" stroke-miterlimit="10" points="589.333,275.001 593.166,271.167 
		593.166,262.834 533,262.834 533,275.167 589.333,275.167 	"/>
	
		<rect x="533" y="249.667" fill="#939598" stroke="#FFFFFF" stroke-width="0.5" stroke-miterlimit="10" width="60.166" height="13.168"/>
	<path fill="#939598" stroke="#FFFFFF" stroke-width="0.5" stroke-miterlimit="10" d="M510.333,322.167V330h8.167l35.55,34.906
		c2.341-4.059,5.352-8.415,9.146-12.565l-41.369-41.668L510.333,322.167z"/>
	<path fill="#939598" stroke="#FFFFFF" stroke-width="0.5" stroke-miterlimit="10" d="M593,303.807l-3.667-4.306h-46.165v10.666
		l32.123,31.965c5.047-3.194,10.911-5.777,17.709-7.298V303.807z"/>
	<path fill="#939598" stroke="#FFFFFF" stroke-width="0.5" stroke-miterlimit="10" d="M510.333,330v42.459h3.167l9.271,9.271h24.063
		c0,0,1.911-7.628,7.216-16.824L518.5,330H510.333z"/>
	<path fill="#939598" stroke="#FFFFFF" stroke-width="0.5" stroke-miterlimit="10" d="M543.168,299.501h-10.169l-11.172,11.172
		l41.369,41.668c3.379-3.694,7.371-7.221,12.095-10.209l-32.123-31.965V299.501z"/>
	<polygon fill="#939598" stroke="#FFFFFF" stroke-width="0.5" stroke-miterlimit="10" points="434,330.667 434,322.403 
		409.167,322.403 409.167,371.334 419.833,382.168 422.334,382.168 422.334,330.667 	"/>
	
		<rect x="422.334" y="330.667" fill="#939598" stroke="#FFFFFF" stroke-width="0.5" stroke-miterlimit="10" width="11.666" height="51.501"/>
	
		<rect x="485.818" y="337.789" fill="#939598" stroke="#FFFFFF" stroke-width="0.5" stroke-miterlimit="10" width="24.515" height="34.67"/>
	<polygon fill="#939598" stroke="#FFFFFF" stroke-width="0.5" stroke-miterlimit="10" points="510.333,322.167 510.097,322.403 
		485.818,322.403 485.818,337.789 510.333,337.789 	"/>
	<polygon fill="#939598" stroke="#FFFFFF" stroke-width="0.5" stroke-miterlimit="10" points="604.313,281.688 608.438,278.063 
		613.813,278.063 613.813,291.813 608.25,291.813 604.563,288.125 	"/>
	
		<rect x="462.688" y="390.688" fill="#939598" stroke="#FFFFFF" stroke-width="0.5" stroke-miterlimit="10" width="42.25" height="20.938"/>
	<polygon fill="#939598" stroke="#FFFFFF" stroke-width="0.5" stroke-miterlimit="10" points="360.25,470.75 349.241,459.74 
		349.241,508.008 361.208,508.008 361.208,470.75 	"/>
	<polygon fill="#939598" stroke="#FFFFFF" stroke-width="0.5" stroke-miterlimit="10" points="335.5,446 335,446 335,508.008 
		349.241,508.008 349.241,459.74 	"/>
	
		<rect x="361.208" y="470.75" fill="#939598" stroke="#FFFFFF" stroke-width="0.5" stroke-miterlimit="10" width="12.792" height="37.258"/>
	
		<rect x="318.667" y="446" fill="#939598" stroke="#FFFFFF" stroke-width="0.5" stroke-miterlimit="10" width="16.333" height="62.008"/>
	
		<rect x="398" y="470.75" fill="#939598" stroke="#FFFFFF" stroke-width="0.5" stroke-miterlimit="10" width="13.125" height="37.258"/>
	<polygon fill="#939598" stroke="#FFFFFF" stroke-width="0.5" stroke-miterlimit="10" points="424.667,462.042 420.042,462.042 
		411.334,470.75 411.125,470.75 411.125,508.008 424.667,508.008 	"/>
	
		<rect x="385.75" y="470.75" fill="#939598" stroke="#FFFFFF" stroke-width="0.5" stroke-miterlimit="10" width="12.25" height="37.258"/>
	
		<rect x="374" y="470.75" fill="#939598" stroke="#FFFFFF" stroke-width="0.5" stroke-miterlimit="10" width="11.75" height="37.258"/>
	<polygon fill="#939598" stroke="#FFFFFF" stroke-width="0.5" stroke-miterlimit="10" points="456.5,461.689 453.697,458.887 
		441,458.887 437.943,461.943 434.167,461.943 434.167,508.008 460.625,508.008 460.625,461.689 	"/>
	<polygon fill="#939598" stroke="#FFFFFF" stroke-width="0.5" stroke-miterlimit="10" points="506,461.958 503.229,459.188 
		490.334,459.188 487.512,462.01 485.818,462.01 485.818,508.008 510.25,508.008 510.25,461.958 	"/>
	<polygon fill="#939598" stroke="#FFFFFF" stroke-width="0.5" stroke-miterlimit="10" points="481.5,462.01 478.37,458.88 
		465.334,458.88 462.523,461.689 460.625,461.689 460.625,508.008 485.818,508.008 485.818,462.01 	"/>
	<polygon fill="#939598" stroke="#FFFFFF" stroke-width="0.5" stroke-miterlimit="10" points="531,461.833 527.916,458.75 
		522.25,458.75 522.25,508.008 533.125,508.008 533.125,461.833 	"/>
	
		<rect x="545.25" y="461.833" fill="#939598" stroke="#FFFFFF" stroke-width="0.5" stroke-miterlimit="10" width="14.917" height="46.175"/>
	<polygon fill="#939598" stroke="#FFFFFF" stroke-width="0.5" stroke-miterlimit="10" points="515.167,458.75 511.959,461.958 
		510.25,461.958 510.25,508.008 522.25,508.008 522.25,458.75 	"/>
	
		<rect x="533.125" y="461.833" fill="#939598" stroke="#FFFFFF" stroke-width="0.5" stroke-miterlimit="10" width="12.125" height="46.175"/>
	<polygon fill="#939598" stroke="#FFFFFF" stroke-width="0.5" stroke-miterlimit="10" points="718.592,261 696.834,261 696.834,253 
		673.167,253 670.25,255.917 670.25,267.667 672.875,270.292 672.875,275.833 672.709,276 718.592,276 	"/>
	<polygon fill="#939598" stroke="#FFFFFF" stroke-width="0.5" stroke-miterlimit="10" points="718.592,276 672.709,276 
		669.729,278.979 669.729,292.333 672.531,295.136 672.531,300.5 718.592,300.5 	"/>
	<polygon fill="#939598" stroke="#FFFFFF" stroke-width="0.5" stroke-miterlimit="10" points="672.531,300.5 672.531,301 
		669.727,303.805 669.727,316.5 673.363,320.137 673.363,329.167 718.592,329.167 718.592,300.5 	"/>
	
		<rect x="673.363" y="329.167" fill="#939598" stroke="#FFFFFF" stroke-width="0.5" stroke-miterlimit="10" width="21.47" height="27.333"/>
	<polygon fill="#939598" stroke="#FFFFFF" stroke-width="0.5" stroke-miterlimit="10" points="694.833,329.167 694.833,356.5 
		718.592,356.5 718.592,356.263 718.592,329.167 	"/>
	<polygon fill="#939598" stroke="#FFFFFF" stroke-width="0.5" stroke-miterlimit="10" points="584.375,123.755 584.375,175.833 
		584.501,175.833 609.125,151.209 609.125,123.755 	"/>
	<polygon fill="#939598" stroke="#FFFFFF" stroke-width="0.5" stroke-miterlimit="10" points="658.319,99.606 634.334,99.606 
		634.334,123.755 633.817,150.75 658.607,150.75 658.319,104.995 	"/>
	
		<rect x="561.625" y="123.755" fill="#939598" stroke="#FFFFFF" stroke-width="0.5" stroke-miterlimit="10" width="22.75" height="52.079"/>
	
		<rect x="540.667" y="123.755" fill="#939598" stroke="#FFFFFF" stroke-width="0.5" stroke-miterlimit="10" width="20.958" height="52.079"/>
	<polygon fill="#939598" stroke="#FFFFFF" stroke-width="0.5" stroke-miterlimit="10" points="673.271,233.604 673.271,249.667 
		718.592,249.667 718.592,247.574 718.667,247.493 718.667,225.167 708.214,225.167 708.214,225 681.875,225 	"/>
	<polygon fill="#939598" stroke="#FFFFFF" stroke-width="0.5" stroke-miterlimit="10" points="609.125,123.755 609.125,151.209 
		609.584,150.75 633.817,150.75 634.334,123.755 	"/>
	<polygon fill="#939598" stroke="#FFFFFF" stroke-width="0.5" stroke-miterlimit="10" points="708.125,189.625 682.042,189.625 
		682.042,224.833 681.875,225 708.214,225 708.214,222.745 708.214,206.453 708.125,206.38 	"/>
	<polygon fill="#939598" stroke="#FFFFFF" stroke-width="0.5" stroke-miterlimit="10" points="733.167,212.168 733.167,181.25 
		682.042,181.25 682.042,189.625 708.125,189.625 708.125,206.38 708.214,206.453 708.214,206.38 714.8,206.38 714.8,212.168 	"/>
	<polygon fill="#939598" stroke="#FFFFFF" stroke-width="0.5" stroke-miterlimit="10" points="682.625,124.75 694.842,124.75 
		694.842,117.169 684.464,117.169 684.464,104.995 658.319,104.995 658.607,150.75 659.334,150.75 668.584,160.001 682.625,144.5 	
		"/>
	<polygon fill="#939598" stroke="#FFFFFF" stroke-width="0.5" stroke-miterlimit="10" points="703.834,128.745 694.842,128.745 
		694.842,124.75 682.625,124.75 682.625,144.5 668.584,160.001 681.697,173.114 703.834,149.833 	"/>
	<polygon fill="#939598" stroke="#FFFFFF" stroke-width="0.5" stroke-miterlimit="10" points="733.167,149.833 703.834,149.833 
		681.697,173.114 682.042,173.459 682.042,181.25 733.167,181.25 	"/>
	<polygon fill="#939598" stroke="#FFFFFF" stroke-width="0.5" stroke-miterlimit="10" points="600.667,215 599.583,221.166 
		611.667,233.417 617.917,231.917 	"/>
	<polygon fill="#939598" stroke="#FFFFFF" stroke-width="0.5" stroke-miterlimit="10" points="617.917,231.917 647.417,231.917 
		642.417,226.917 623.083,226.833 	"/>
	<polygon fill="#939598" stroke="#FFFFFF" stroke-width="0.5" stroke-miterlimit="10" points="647.417,231.917 664.75,215 
		666.083,221.166 653.333,233.417 	"/>
	<path fill="#939598" stroke="#FFFFFF" stroke-width="0.5" stroke-miterlimit="10" d="M660.168,363.582l-3.915-3.915h-19.646
		c0.299,0.216,0.601,0.427,0.894,0.649c5.508,4.172,10.062,9.529,13.308,15.684h9.359V363.582z"/>
	<path fill="#939598" stroke="#FFFFFF" stroke-width="0.5" stroke-miterlimit="10" d="M650.809,376
		c2.714,5.147,4.517,10.85,5.166,16.901c0.137,1.274,0.209,2.566,0.244,3.868h3.949V376H650.809z"/>
	<path fill="#939598" stroke="#FFFFFF" stroke-width="0.5" stroke-miterlimit="10" d="M646.314,492.906l-13.477-34.628
		c-3.742,1.535-7.361,2.617-10.776,3.381l7.706,35.94C635.163,496.515,640.705,494.988,646.314,492.906z"/>
	<path fill="#939598" stroke="#FFFFFF" stroke-width="0.5" stroke-miterlimit="10" d="M614.286,499.623l-4.897-36.379
		c-7.346,0.201-12.055-0.911-12.055-0.911h-1.411l0.912,37.132C602.202,499.891,608.068,500.014,614.286,499.623z"/>
	<path fill="#939598" stroke="#FFFFFF" stroke-width="0.5" stroke-miterlimit="10" d="M629.768,497.6l-7.706-35.94
		c-4.713,1.053-9.019,1.485-12.673,1.585l4.897,36.379C619.25,499.313,624.438,498.67,629.768,497.6z"/>
	<path fill="#939598" stroke="#FFFFFF" stroke-width="0.5" stroke-miterlimit="10" d="M582.125,462.333h-15.957v22.5H568v8.886
		c2.746,0.938,7.642,2.434,14.125,3.717V462.333z"/>
	<path fill="#939598" stroke="#FFFFFF" stroke-width="0.5" stroke-miterlimit="10" d="M596.835,499.465l-0.912-37.132h-13.798
		v35.103C586.396,498.281,591.354,499.03,596.835,499.465z"/>
	<path fill="#939598" stroke="#FFFFFF" stroke-width="0.5" stroke-miterlimit="10" d="M632.838,458.278l13.477,34.628
		c5.038-1.869,10.13-4.182,15.217-7.024l-19.316-32.348C639.047,455.449,635.903,457.021,632.838,458.278z"/>
	<path fill="#939598" stroke="#FFFFFF" stroke-width="0.5" stroke-miterlimit="10" d="M673.516,372.065
		c-0.001-0.007-0.002-0.01-0.003-0.015C673.514,372.055,673.515,372.061,673.516,372.065z"/>
	<path fill="#939598" stroke="#FFFFFF" stroke-width="0.5" stroke-miterlimit="10" d="M675.142,384.524
		c0.001,0.018,0.003,0.034,0.004,0.051c-0.001-0.004-0.001-0.009-0.001-0.013C675.144,384.55,675.143,384.537,675.142,384.524z"/>
	<path fill="#939598" stroke="#FFFFFF" stroke-width="0.5" stroke-miterlimit="10" d="M675.343,390.312c0,0.003,0,0.006,0,0.008
		C675.343,390.317,675.343,390.314,675.343,390.312z"/>
	<path fill="#939598" stroke="#FFFFFF" stroke-width="0.5" stroke-miterlimit="10" d="M675.048,383.172
		c0-0.002-0.001-0.005-0.001-0.007C675.047,383.167,675.047,383.17,675.048,383.172z"/>
	<path fill="#939598" stroke="#FFFFFF" stroke-width="0.5" stroke-miterlimit="10" d="M669.674,422.113
		c0.003-0.006,0.005-0.012,0.008-0.018C669.679,422.102,669.677,422.107,669.674,422.113z"/>
	<path fill="#939598" stroke="#FFFFFF" stroke-width="0.5" stroke-miterlimit="10" d="M675.312,393.493
		c0-0.016,0.001-0.031,0.001-0.046C675.313,393.462,675.312,393.478,675.312,393.493z"/>
	<path fill="#939598" stroke="#FFFFFF" stroke-width="0.5" stroke-miterlimit="10" d="M667.046,427.787
		c0.004-0.008,0.009-0.017,0.013-0.025C667.055,427.771,667.05,427.779,667.046,427.787z"/>
	<path fill="#939598" stroke="#FFFFFF" stroke-width="0.5" stroke-miterlimit="10" d="M668.435,424.967
		c0.005-0.01,0.01-0.021,0.015-0.03C668.444,424.946,668.439,424.957,668.435,424.967z"/>
	<polygon fill="#939598" stroke="#FFFFFF" stroke-width="0.5" stroke-miterlimit="10" points="675.172,396.764 675.172,396.773 
		675.172,396.77 	"/>
	<path fill="#939598" stroke="#FFFFFF" stroke-width="0.5" stroke-miterlimit="10" d="M673.554,372.236
		c-0.003-0.013-0.005-0.021-0.007-0.033C673.549,372.215,673.551,372.225,673.554,372.236z"/>
	<path fill="#939598" stroke="#FFFFFF" stroke-width="0.5" stroke-miterlimit="10" d="M708.813,416.864
		c1-5.229,1.745-10.936,2.058-17.058l-35.699-3.037c0,0.001,0,0.002,0,0.004c-0.232,3.882-0.722,8.023-1.587,12.272L708.813,416.864
		z"/>
	<path fill="#939598" stroke="#FFFFFF" stroke-width="0.5" stroke-miterlimit="10" d="M675.172,396.773
		c-0.232,3.883-0.722,8.022-1.587,12.272l0,0C674.45,404.797,674.939,400.655,675.172,396.773z"/>
	<path fill="#939598" stroke="#FFFFFF" stroke-width="0.5" stroke-miterlimit="10" d="M710.758,385.266
		c-0.282-4.281-0.791-8.707-1.581-13.266h-35.676c0,0,0.005,0.021,0.012,0.051c0.001,0.005,0.002,0.008,0.003,0.015
		c0.008,0.032,0.018,0.079,0.031,0.138c0.002,0.013,0.004,0.021,0.007,0.033c0.215,0.982,1.041,5.031,1.493,10.929
		c0,0.002,0.001,0.005,0.001,0.007c0.033,0.44,0.065,0.892,0.094,1.353c0.001,0.013,0.002,0.025,0.003,0.038L710.758,385.266z"/>
	<path fill="#939598" stroke="#FFFFFF" stroke-width="0.5" stroke-miterlimit="10" d="M673.513,372.051
		c-0.007-0.03-0.012-0.051-0.012-0.051S673.506,372.021,673.513,372.051z"/>
	<path fill="#939598" stroke="#FFFFFF" stroke-width="0.5" stroke-miterlimit="10" d="M673.547,372.203
		c-0.014-0.059-0.023-0.105-0.031-0.138C673.523,372.098,673.534,372.146,673.547,372.203z"/>
	<path fill="#939598" stroke="#FFFFFF" stroke-width="0.5" stroke-miterlimit="10" d="M675.047,383.165
		c-0.452-5.897-1.278-9.946-1.493-10.929C673.77,373.227,674.596,377.275,675.047,383.165z"/>
	<path fill="#939598" stroke="#FFFFFF" stroke-width="0.5" stroke-miterlimit="10" d="M675.142,384.524
		c-0.028-0.461-0.061-0.912-0.094-1.353C675.081,383.612,675.112,384.064,675.142,384.524z"/>
	<path fill="#939598" stroke="#FFFFFF" stroke-width="0.5" stroke-miterlimit="10" d="M710.871,399.807
		c0.235-4.621,0.221-9.479-0.113-14.541l-35.613-0.703c0,0.004,0,0.009,0.001,0.013c0.111,1.777,0.185,3.698,0.197,5.736
		c0,0.003,0,0.006,0,0.008c0.006,1.016-0.003,2.059-0.03,3.128c0,0.015-0.001,0.03-0.001,0.046c-0.027,1.066-0.073,2.157-0.14,3.271
		c0,0.002,0,0.004,0,0.006L710.871,399.807z"/>
	<path fill="#939598" stroke="#FFFFFF" stroke-width="0.5" stroke-miterlimit="10" d="M675.343,390.319
		c0.006,1.015-0.003,2.059-0.03,3.128C675.34,392.378,675.349,391.335,675.343,390.319z"/>
	<path fill="#939598" stroke="#FFFFFF" stroke-width="0.5" stroke-miterlimit="10" d="M675.343,390.312
		c-0.013-2.038-0.086-3.959-0.197-5.736C675.257,386.353,675.33,388.274,675.343,390.312z"/>
	<path fill="#939598" stroke="#FFFFFF" stroke-width="0.5" stroke-miterlimit="10" d="M675.172,396.764
		c0.066-1.113,0.112-2.204,0.14-3.271C675.284,394.56,675.238,395.65,675.172,396.764z"/>
	<path fill="#939598" stroke="#FFFFFF" stroke-width="0.5" stroke-miterlimit="10" d="M670.767,419.245l33.936,13.423
		c1.525-4.588,2.98-9.888,4.111-15.804l-35.229-7.818C672.902,412.403,671.982,415.828,670.767,419.245z"/>
	<path fill="#939598" stroke="#FFFFFF" stroke-width="0.5" stroke-miterlimit="10" d="M673.585,409.046L673.585,409.046
		c-0.683,3.358-1.603,6.782-2.818,10.199l0,0C671.982,415.828,672.902,412.403,673.585,409.046z"/>
	<path fill="#939598" stroke="#FFFFFF" stroke-width="0.5" stroke-miterlimit="10" d="M670.767,419.245
		c-0.338,0.951-0.7,1.902-1.085,2.851c-0.003,0.006-0.005,0.012-0.008,0.018c-0.384,0.944-0.792,1.886-1.225,2.823
		c-0.005,0.01-0.01,0.021-0.015,0.03c-0.433,0.936-0.891,1.868-1.376,2.795c-0.004,0.009-0.009,0.018-0.013,0.025
		c-0.488,0.932-1.002,1.856-1.544,2.775l31.996,19.029c1.715-3.163,4.561-8.973,7.204-16.924L670.767,419.245z"/>
	<path fill="#939598" stroke="#FFFFFF" stroke-width="0.5" stroke-miterlimit="10" d="M665.502,430.563L665.502,430.563
		c0.542-0.919,1.056-1.844,1.544-2.775C666.558,428.719,666.044,429.644,665.502,430.563z"/>
	<path fill="#939598" stroke="#FFFFFF" stroke-width="0.5" stroke-miterlimit="10" d="M670.767,419.245
		c-0.338,0.951-0.7,1.902-1.085,2.851C670.066,421.147,670.429,420.196,670.767,419.245L670.767,419.245z"/>
	<path fill="#939598" stroke="#FFFFFF" stroke-width="0.5" stroke-miterlimit="10" d="M667.059,427.762
		c0.485-0.927,0.943-1.859,1.376-2.795C668.002,425.902,667.544,426.835,667.059,427.762z"/>
	<path fill="#939598" stroke="#FFFFFF" stroke-width="0.5" stroke-miterlimit="10" d="M668.449,424.937
		c0.433-0.938,0.841-1.879,1.225-2.823C669.29,423.058,668.882,423.999,668.449,424.937z"/>
	<path fill="#939598" stroke="#FFFFFF" stroke-width="0.5" stroke-miterlimit="10" d="M642.215,453.534l19.701,32.993
		c1.986,0.385,4.04,0.589,6.144,0.589c2.691,0,5.304-0.331,7.795-0.951c5.64-1.406,10.644-4.314,14.569-8.239l-34.233-35.365
		C651.589,447.137,646.877,450.717,642.215,453.534z"/>
	<path fill="#939598" stroke="#FFFFFF" stroke-width="0.5" stroke-miterlimit="10" d="M699.206,456.992
		c0-2.366-0.291-4.665-0.824-6.874l-32.88-19.556c-2.464,4.174-5.504,8.204-9.249,11.938c-0.021,0.021-0.042,0.04-0.063,0.061
		l34.233,35.365c4.486-4.486,7.56-10.305,8.482-16.795C699.099,459.777,699.206,458.397,699.206,456.992z"/>
</g>
</svg>
