<?xml version="1.0" encoding="utf-8"?>
<!-- Generator: Adobe Illustrator 16.0.0, SVG Export Plug-In . SVG Version: 6.00 Build 0)  -->
<!DOCTYPE svg PUBLIC "-//W3C//DTD SVG 1.1//EN" "http://www.w3.org/Graphics/SVG/1.1/DTD/svg11.dtd">
<svg version="1.1" id="Layer_1" xmlns="http://www.w3.org/2000/svg" xmlns:xlink="http://www.w3.org/1999/xlink" x="0px" y="0px"
	 width="3797.242px" height="2105.579px" viewBox="0 0 3797.242 2105.579" enable-background="new 0 0 3797.242 2105.579"
	 xml:space="preserve">
<g id="background">
</g>
<g id="etc">
	<path fill="#BFBFBF" stroke="#494949" stroke-miterlimit="10" d="M589.359,763.419l-56.697-8.798
		c-5.847-64.911-59.704-115.76-125.29-115.76c-52.282,0-97.113,32.312-116.113,78.301l-49.9-7.743l-102,740l50.044,7.439
		c-0.264,3.371-0.403,6.777-0.403,10.221c0,70.414,56.334,127.494,125.826,127.494c60.454,0,110.941-43.203,123.055-100.799
		l51.479,7.645L589.359,763.419z M355.358,1502.088c-12,12-40.667,42-81.333,0c-22.667-28.668,4.667-33.334,4.667-33.334l72,10.666
		C350.691,1479.42,367.358,1490.088,355.358,1502.088z M443.673,769.729l-71.595-12.775c0,0-16.396-11.65-4.164-24.129
		c12.23-12.479,41.478-43.705,81.136,1.656C471.041,765.336,443.673,769.729,443.673,769.729z"/>
	<path fill="#BFBFBF" stroke="#494949" stroke-miterlimit="10" d="M3634.712,585.773h20v-42h-22v-65l-53-4v-18l-144-6.464l-92-4.128
		l-76-3.408v20l-26-1.369l-4.502-0.237l-45.498-2.395v-36l-34.176-1.898l-1.824-0.102v-60l-93.291-3.971l-0.709-0.029v-16
		l-94.006-2.394l-4.982-0.127l-451.012-11.479v-30l-206-8v-82l-696-20v136l-72-2.02v0.6l-10.228-0.286l-6.363-0.18
		c0.904-6.981,1.381-14.093,1.381-21.308c0-95.599-81.928-173.097-182.991-173.097c-101.062,0-182.991,77.498-182.991,173.097
		c0,3.729,0.141,7.426,0.387,11.096l-187.547-5.258l-204,698l4.688,394.456c-105.165,7.895-187.951,92.59-187.951,195.914
		c0,94.631,59.088,155.166,124.263,190.631c93.817,51.055,290,160,290,160h502.584v-0.646h400.334h25.437c0,0,12.158-12.156,13-13
		c1.326,0.643,2.654,1.246,3.982,1.83c0.077,0.035,0.155,0.066,0.235,0.104c1.277,0.561,2.558,1.092,3.834,1.604
		c0.004,0,0.006,0.002,0.01,0.004c0.013,0.006,0.023,0.01,0.035,0.016c4,1.596,7.988,2.955,11.949,4.104
		c0.078,0.021,0.156,0.045,0.234,0.068c0.879,0.254,1.754,0.494,2.631,0.727c0.189,0.053,0.383,0.104,0.574,0.152
		c0.828,0.217,1.652,0.424,2.479,0.623c0.229,0.055,0.457,0.107,0.687,0.16c0.811,0.191,1.62,0.377,2.43,0.553
		c0.203,0.043,0.406,0.084,0.609,0.127c2.559,0.539,5.096,0.998,7.606,1.383c0.281,0.043,0.563,0.092,0.842,0.133
		c0.603,0.09,1.197,0.168,1.796,0.248c0.465,0.062,0.934,0.125,1.396,0.184c0.537,0.066,1.068,0.127,1.604,0.186
		c0.524,0.062,1.051,0.117,1.573,0.172c0.488,0.049,0.978,0.098,1.461,0.141c0.58,0.053,1.156,0.102,1.732,0.145
		c0.437,0.035,0.869,0.07,1.303,0.104c0.658,0.047,1.313,0.086,1.968,0.123c0.348,0.02,0.696,0.043,1.045,0.061
		c1,0.049,1.996,0.092,2.981,0.121c0.355,0.01,0.705,0.012,1.062,0.021c0.019,0,0.035,0,0.053,0
		c32.519,0.732,56.888-9.082,56.888-9.082l8,11h655c0,0,0.235-4.27,0.364-8.646c0.023-0.557,0.052-1.115,0.078-1.664v0.012
		c0.19-3.906,0.406-7.418,0.557-7.367c13.992,4.76,27.67,8.715,41,11.969c17.353,4.236,34.408,6.986,51.023,8.525
		c72.584,6.719,136.78-9.686,180.711-26.33c37.948-14.383,60.772-28.947,60.772-28.947s80.246,5.248,118.494-33
		c0.738-0.74,1.457-1.498,2.162-2.264c38.52-41.896,23.336-120.73,23.336-120.73s53.998-80.996,53.998-177.059
		c0-9.846-0.176-19.32-0.49-28.434l-7.041-79.496c-7.521-50.934-17.969-77.994-17.969-77.994l61.002,1.424v-127v-102v-92v-114v-82
		h-33v-69.396v-0.604h17v32.423h139.977l26.023-4.233l148,2.812v-20h53v-58h22v-40h-20v-63L3634.712,585.773L3634.712,585.773z
		 M783.359,1698.418c-32-1-93-36-91-105c0,0-8-66,81-92c2,1,35-10,35,9s0,166,0,166S815.359,1699.418,783.359,1698.418z
		 M1414.938,313.725c-16.295-0.396-142.361-3.467-142.361-3.467s-19.861,5.096-18.382-20.374
		c1.479-25.47,32.678-73.329,91.812-70.294c0,0,56.757-4.993,77.328,66.443C1422.439,287.606,1431.233,314.123,1414.938,313.725z"/>
	<path fill="#DDDDDD" stroke="#494949" stroke-miterlimit="10" d="M3033.359,734.419c0,38.107-30.894,69-69,69h-37.898
		c-38.107,0-69-30.893-69-69v-28c0-38.106,30.893-69,69-69h37.898c38.106,0,69,30.894,69,69V734.419z"/>
	<path fill="#DDDDDD" stroke="#494949" stroke-miterlimit="10" d="M2094.453,1586.571l32.197-29.977l-56.89-61.107l-32.196,29.977
		c0,0-27.646-3.646-43.949-3.646c-54.813,0-99.247,20.633-99.247,46.082v107.5c0,25.447,44.434,46.082,99.247,46.082
		c15.047,0,40.121-2.459,40.121-2.459l30.403,31.793l60.338-57.705l-30.405-31.791L2094.453,1586.571z"/>
	<path fill="#DDDDDD" stroke="#494949" stroke-miterlimit="10" d="M2495.904,1525.418h-276.545h-36.002v58h18.002c0,0,9,9,9,35.334
		c0,26.67-9,35.336-9,35.336h-18.002v58h36.002h276.545c25.957,0,47-30.688,47-68.543v-49.584
		C2542.904,1556.108,2521.861,1525.418,2495.904,1525.418z"/>
	<polygon fill="#DDDDDD" stroke="#494949" stroke-miterlimit="10" points="2883.591,1705.417 2795.156,1709.014 2713.916,1673.885 
		2655.962,1606.987 2632.777,1521.569 2648.949,1434.547 2701.273,1363.165 2779.39,1321.549 2867.828,1317.952 2949.066,1353.081 
		3007.018,1419.981 3030.205,1505.399 3014.035,1592.417 2961.708,1663.801 	"/>
	<polyline fill="#DDDDDD" stroke="#494949" stroke-miterlimit="10" points="2845.359,929.419 2845.359,1159.418 2891.859,1217.418 
		2971.352,1217.418 3026.355,1162.417 3026.355,930.919 2968.852,930.919 2931.105,968.667 2891.859,929.42 2845.359,929.419 	"/>
	<path fill="#BFBFBF" stroke="#494949" stroke-miterlimit="10" d="M2079.359,1281.418l-48,48l-42.537-45.461l-81.064,81.062
		c40.582,28.377,89.355,38.83,105.602,41.398c39.511,6.246,160,0,160,0l13-18L2079.359,1281.418z"/>
	<path fill="#BFBFBF" stroke="#494949" stroke-miterlimit="10" d="M1847.045,1159.418h25.249l-0.937-1l84.386-87.443l-65.501-73.167
		C1865.877,1041.504,1851.866,1098.036,1847.045,1159.418z"/>
	<path fill="#BFBFBF" stroke="#494949" stroke-miterlimit="10" d="M1847.045,1159.418c-2.691,34.287-2.521,70.084,0.312,106
		c3.662,46.383,29.686,78.123,60.399,99.602l81.063-81.062l-116.526-124.539H1847.045z"/>
	<path fill="#BFBFBF" stroke="#494949" stroke-miterlimit="10" d="M1988.822,1818.672c0,0-2.723,0.184-7.463,0.283v124.092
		c0.287,0.033,0.576,0.064,0.863,0.094c0.489,0.051,0.979,0.1,1.463,0.143c0.58,0.053,1.155,0.102,1.729,0.145
		c0.437,0.035,0.871,0.07,1.303,0.104c0.66,0.047,1.314,0.086,1.968,0.123c0.35,0.02,0.698,0.043,1.047,0.061
		c1,0.049,1.994,0.092,2.979,0.121c0.357,0.01,0.707,0.012,1.063,0.021c0.018,0,0.035,0,0.053,0
		c32.516,0.732,56.887-9.082,56.887-9.082l8,11h6.646v-127.104H1988.822L1988.822,1818.672z"/>
	<rect x="2065.359" y="1818.672" fill="#BFBFBF" stroke="#494949" stroke-miterlimit="10" width="84" height="127.102"/>
</g>
<g id="rooms">
	<polygon id="sb-furniture" fill="#939598" stroke="#494949" stroke-miterlimit="10" points="1715.21,1580.288 1715.21,1439.918 
		1520.859,1439.918 1520.859,1274.256 1463.186,1274.256 1463.186,1135.918 1070.145,1135.918 1070.145,1580.288 	"/>
	<path id="fitness-first" fill="#939598" stroke="#494949" stroke-miterlimit="10" d="M1070.145,1580.288L1070.145,1580.288
		L1070.145,1580.288V1135.92H766.934l3.115,261.955c-105.165,7.893-187.951,92.59-187.951,195.914
		c0,94.631,59.088,155.164,124.263,190.631c93.817,51.055,290,160,290,160h502v-251.016c0,0,63.837,0,129.366,0
		s87.483-87.484,87.483-87.484v-25.633H1070.145L1070.145,1580.288z M783.359,1698.418c-32-1-93-36-91-105c0,0-8-66,81-92
		c2,1,35-10,35,9s0,166,0,166S815.359,1699.418,783.359,1698.418z"/>
	<polygon id="major-cineplex" fill="#939598" stroke="#494949" stroke-miterlimit="10" points="2640.359,739.419 2539.63,840.146 
		2509.359,840.146 2379.8,710.589 2076.166,1014.225 2010.509,1014.225 1871.359,1158.418 2031.359,1329.418 2079.359,1281.418 
		2247.359,1449.418 2571.359,1449.418 2790.359,1230.418 2790.359,889.419 	"/>
	<polygon id="food-park" fill="#939598" stroke="#494949" stroke-miterlimit="10" points="2679.359,627.419 2679.359,778.419 
		2790.359,889.419 2790.359,929.419 2891.859,929.419 2931.105,968.666 2968.852,930.919 3023.359,930.919 3023.359,1186.418 
		3285.359,1186.418 3285.359,1179.418 3285.359,859.419 3249.359,859.419 3249.359,787.419 3263.359,787.419 3263.359,627.419 
		3043.359,627.419 3043.359,773.419 3077.359,803.419 3015.359,871.419 2982.359,835.419 2914.359,837.419 2879.359,867.419 
		2809.359,799.419 2841.359,771.419 2841.359,627.419 	"/>
	<polygon id="r522" fill="#939598" stroke="#494949" stroke-miterlimit="10" points="2267.156,629.623 2363.96,726.428 
		2379.8,710.588 2381.359,712.146 2381.359,629.623 	"/>
	<polygon id="r519" fill="#939598" stroke="#494949" stroke-miterlimit="10" points="2553.359,629.623 2553.359,826.419 
		2640.359,739.419 2679.359,778.419 2679.359,629.623 	"/>
	<polygon id="r520" fill="#939598" stroke="#494949" stroke-miterlimit="10" points="2457.359,629.623 2457.359,788.146 
		2509.359,840.146 2539.63,840.146 2553.359,826.419 2553.359,629.623 	"/>
	<polygon id="r521" fill="#939598" stroke="#494949" stroke-miterlimit="10" points="2381.359,629.623 2381.359,712.146 
		2457.359,788.146 2457.359,629.623 	"/>
	<path id="r523-524" fill="#939598" stroke="#494949" stroke-miterlimit="10" d="M2151.359,883.419c0,0-28.011,22.408-28.091,23.464
		c0.095,0.012,0.14,0.023,0.091,0.036c-0.066,0.017-0.093,0.001-0.091-0.036c-2.771-0.342-66.895-0.29-113.909,5.791
		c-16.32,2.11-30.587,4.945-39.5,8.745c-33.668,14.35-59.998,41.21-79.617,76.392l65.5,73.168l53.615-55.561l1.15-1.192h65.654
		l107.307-107.306L2151.359,883.419z"/>
	<rect id="r504" x="1621.359" y="1217.418" fill="#939598" stroke="#494949" stroke-miterlimit="10" width="93.852" height="140"/>
	<polygon id="r503" fill="#939598" stroke="#494949" stroke-miterlimit="10" points="1621.359,1357.418 1621.359,1358.104 
		1567.359,1358.104 1567.359,1394.918 1520.859,1394.918 1520.859,1439.918 1715.21,1439.918 1715.21,1357.418 	"/>
	<path id="r532-533" fill="#939598" stroke="#494949" stroke-miterlimit="10" d="M1827.359,1757.418
		c-7.263-15.881-16.822-27.727-27.617-36.498c-49.493-40.219-125.045-15.502-125.045-15.502l-56.662,18v95.254h83.324h30v125.102h66
		v-117.277l42.04-50.664C1834.593,1770.395,1830.5,1764.292,1827.359,1757.418z"/>
	<path id="r530" fill="#939598" stroke="#494949" stroke-miterlimit="10" d="M1891.359,1807.174v136.6h7.918h25.437
		c0,0,12.158-12.158,13-13c1.326,0.641,2.654,1.246,3.982,1.83c0.079,0.033,0.157,0.064,0.235,0.102
		c1.277,0.561,2.558,1.092,3.834,1.604c0.004,0,0.008,0.002,0.01,0.006c0.013,0.004,0.023,0.008,0.037,0.014
		c3.998,1.596,7.986,2.955,11.947,4.104c0.078,0.021,0.156,0.047,0.234,0.068c0.879,0.254,1.754,0.494,2.631,0.729
		c0.191,0.051,0.383,0.102,0.574,0.15c0.828,0.217,1.652,0.424,2.479,0.623c0.229,0.057,0.457,0.107,0.687,0.16
		c0.811,0.191,1.62,0.377,2.43,0.553c0.203,0.043,0.406,0.084,0.609,0.127c2.559,0.539,5.096,0.998,7.606,1.385
		c0.281,0.043,0.563,0.09,0.844,0.131c0.601,0.09,1.195,0.168,1.793,0.248c0.468,0.062,0.935,0.125,1.396,0.184
		c0.537,0.066,1.07,0.127,1.604,0.188c0.236,0.025,0.476,0.051,0.712,0.076v-124.094
		C1965.466,1819.292,1926.82,1818.7,1891.359,1807.174z"/>
	<path id="r531" fill="#939598" stroke="#494949" stroke-miterlimit="10" d="M1839.399,1775.833l-42.04,50.664v117.277h94v-136.6
		C1871.525,1800.731,1852.691,1790.87,1839.399,1775.833z"/>
	<polygon id="b2s" fill="#939598" stroke="#494949" stroke-miterlimit="10" points="1641.351,187.683 1641.351,395.419 
		1603.359,395.419 1603.359,645.419 2047.059,645.419 2145.359,560.419 2295.359,529.419 2295.359,337.419 2096.416,243.419 
		2096.416,200.759 	"/>
	<polygon id="r508" fill="#939598" stroke="#494949" stroke-miterlimit="10" points="1825.359,710.589 1637.359,710.589 
		1637.359,817.419 1797.693,817.419 	"/>
	<polygon id="r507" fill="#939598" stroke="#494949" stroke-miterlimit="10" points="1797.693,817.419 1637.359,817.419 
		1637.359,895.419 1777.493,895.419 	"/>
	<polygon id="r505-506" fill="#939598" stroke="#494949" stroke-miterlimit="10" points="1637.359,895.419 1637.359,1017.419 
		1637.359,1135.918 1715.21,1135.918 1745.898,1017.419 1777.493,895.419 	"/>
	
		<rect id="r513" x="2561.361" y="386.67" fill="#939598" stroke="#494949" stroke-miterlimit="10" width="49.979" height="151.249"/>
	<polygon id="r510-512" fill="#939598" stroke="#494949" stroke-miterlimit="10" points="2512.025,386.67 2511.712,296.773 
		2511.361,296.76 2393.33,292.176 2393.359,331.419 2392.693,331.419 2324.257,331.419 2324.257,537.919 2392.693,537.919 
		2511.361,537.919 2561.361,537.919 2561.361,386.67 	"/>
	
		<rect id="r514" x="2648.695" y="392.087" fill="#939598" stroke="#494949" stroke-miterlimit="10" width="119.334" height="145.832"/>
	<polygon id="r516" fill="#939598" stroke="#494949" stroke-miterlimit="10" points="3014.695,376.087 2860.695,376.087 
		2860.671,335.656 2860.029,335.64 2860.029,537.919 3014.695,537.919 	"/>
	<polygon id="r515" fill="#939598" stroke="#494949" stroke-miterlimit="10" points="2770.712,333.366 2770.029,392.087 
		2768.029,392.087 2768.029,537.919 2860.029,537.919 2860.029,335.64 	"/>
	<polygon id="r517" fill="#939598" stroke="#494949" stroke-miterlimit="10" points="3191.712,458.773 3191.712,422.773 
		3155.712,420.773 3155.712,360.773 3062.421,356.804 3062.421,537.919 3198.027,537.919 3198.027,459.106 	"/>
	<polygon id="r518" fill="#939598" stroke="#494949" stroke-miterlimit="10" points="3267.712,442.773 3267.712,462.773 
		3198.027,459.106 3198.027,537.919 3201.361,537.919 3216.027,562.93 3330.693,562.93 3330.693,445.479 	"/>
	
		<rect id="umm-milk" x="2392.693" y="562.93" fill="#939598" stroke="#494949" stroke-miterlimit="10" width="102.596" height="45"/>
	<polygon id="dream-cones" fill="#939598" stroke="#494949" stroke-miterlimit="10" points="1769.43,1388.497 1769.43,1490.491 
		1806.669,1490.491 1854.926,1451.155 1854.926,1424.083 1803.586,1388.497 	"/>
	
		<rect id="sfree" x="1760.431" y="1172.506" fill="#939598" stroke="#494949" stroke-miterlimit="10" width="37.264" height="172.801"/>
	
		<rect id="fuku-matcha" x="1787.413" y="977.205" transform="matrix(0.956 0.2935 -0.2935 0.956 387.74 -483.9023)" fill="#939598" stroke="#494949" stroke-miterlimit="10" width="37.933" height="145.822"/>
</g>
<g id="signs">
	<g id="escalator">
		<rect x="1924.859" y="1592.418" width="45" height="45"/>
		<rect x="1986.859" y="712.385" width="45" height="45"/>
		<rect x="2926.352" y="681.428" width="45" height="45"/>
		<rect x="2181.359" y="465.003" width="45" height="45"/>
	</g>
	<g id="lift">
		<rect x="1498.359" y="1113.418" width="45" height="45"/>
		<rect x="1292.859" y="480.352" width="45" height="45"/>
		<rect x="1498.359" y="1205.918" width="45" height="45"/>
		<rect x="3403.328" y="562.93" width="45" height="45"/>
		<rect x="3403.328" y="664.031" width="45" height="45"/>
	</g>
	<g id="toilet">
		<rect x="1535.359" y="1753.333" width="45" height="45"/>
		<rect x="2646.841" y="337.304" width="45" height="45"/>
		<rect x="1453.359" y="442.503" width="45" height="45"/>
	</g>
	<rect id="parking" x="364.359" y="1102.866" width="45" height="45"/>
	<g id="wifi">
		<rect x="1498.359" y="1158.918" width="45" height="45"/>
		<rect x="1848.859" y="1592.418" width="45" height="45"/>
		<rect x="3010.859" y="585.43" width="45" height="45"/>
	</g>
</g>
</svg>
