<?xml version="1.0" encoding="utf-8"?>
<!-- Generator: Adobe Illustrator 16.0.0, SVG Export Plug-In . SVG Version: 6.00 Build 0)  -->
<!DOCTYPE svg PUBLIC "-//W3C//DTD SVG 1.1//EN" "http://www.w3.org/Graphics/SVG/1.1/DTD/svg11.dtd">
<svg version="1.1" id="Layer_1" xmlns="http://www.w3.org/2000/svg" xmlns:xlink="http://www.w3.org/1999/xlink" x="0px" y="0px"
	 width="3797.242px" height="2105.579px" viewBox="0 0 3797.242 2105.579" enable-background="new 0 0 3797.242 2105.579"
	 xml:space="preserve">
<g id="background">
</g>
<g id="etc">
	<path fill="#BFBFBF" stroke="#494949" stroke-miterlimit="10" d="M1523.123,320.889c0.906-6.982,1.381-14.093,1.381-21.308
		c0-95.599-81.928-173.097-182.991-173.097c-101.062,0-182.988,77.498-182.988,173.097c0,3.729,0.139,7.426,0.385,11.096
		l-187.547-5.258l-204,698v155h-234l58-395l-56.697-8.798c-5.847-64.911-59.704-115.76-125.29-115.76
		c-52.282,0-97.113,32.312-116.113,78.301l-49.9-7.743l-102,740l50.044,7.439c-0.264,3.369-0.403,6.777-0.403,10.221
		c0,70.414,56.334,127.494,125.826,127.494c60.454,0,110.943-43.203,123.055-100.799l51.479,7.645l17-131h264l-0.312,27.455
		c-105.165,7.895-187.951,92.59-187.951,195.914c0,94.631,59.091,155.166,124.264,190.631c93.816,51.055,290,160,290,160h91v-777
		h350.334l89.794-846.352L1523.123,320.889z M357.358,1502.088c-12,12-40.667,42-81.333,0c-22.667-28.668,4.667-33.334,4.667-33.334
		l72,10.666C352.691,1479.42,369.358,1490.088,357.358,1502.088z M445.673,769.729l-71.595-12.774c0,0-16.396-11.65-4.164-24.129
		c12.23-12.479,41.478-43.705,81.136,1.655C473.041,765.336,445.673,769.729,445.673,769.729z M785.359,1698.418c-32-1-93-36-91-105
		c0,0-8-66,81-92c2,1,35-10,35,9s0,166,0,166S817.359,1699.418,785.359,1698.418z M1416.938,313.725
		c-16.295-0.396-142.36-3.467-142.36-3.467s-19.861,5.096-18.382-20.374c1.479-25.47,32.678-73.329,91.812-70.294
		c0,0,56.757-4.993,77.328,66.443C1424.439,287.606,1433.233,314.123,1416.938,313.725z"/>
	<path fill="#BFBFBF" stroke="#494949" stroke-miterlimit="10" d="M3658.359,586.419v-42h-22v-65l-53-4v-18l-236-10.59v100.59
		l-30,50h-232l-22-40h-180l-104,80h-166.973V446.542h71.996v-13.5h88.496h110.994h82.496V338.9l-451.012-11.48v126h44v184v498.235
		l-68.803,65.766h-877.198v-878l-83.872-2.352l-89.794,846.354h-12.245v66.584h187.491v85.496h86.995v35.604l-80.188,72.391h-68.305
		v296.984h76.967l68.525,74.949v144.992h50.998v-93.947h-20.999v-38.998h279.021l112.304-83.99h764.437
		c0,0,28.69-5.82,70.699,21.639c26.969,17.629,42.543,50.336,42.543,50.336l41.164,100.992l37.26-57.031l115-115l53.185-30.682
		l-150.679-93.561V979.015h133.494v53.997h40.496v-73.496h-173.99v-93.11l49.498-74.732v-130.64h184.49v29.999h22.498v124.965
		l233.008,4.424v-20h53v-58h22v-40h-20v-116L3658.359,586.419L3658.359,586.419z"/>
	
		<rect x="1473.946" y="1724.479" fill="#BFBFBF" stroke="#494949" stroke-width="0.66" stroke-miterlimit="10" width="79.496" height="86.994"/>
	<polygon fill="#BFBFBF" stroke="#494949" stroke-width="0.66" stroke-miterlimit="10" points="1611.939,1835.473 
		1611.939,1878.971 1611.939,1878.971 1611.939,1878.971 1473.946,1878.971 1473.946,1944.418 1698.934,1944.418 1698.934,1835.473 
			"/>
	<path fill="#BFBFBF" stroke="#494949" stroke-width="0.66" stroke-miterlimit="10" d="M2662.359,1872.418v74h55c0,0,1-18,0-18
		c0.334,0.115,0.666,0.219,1,0.334v-56.334H2662.359z"/>
	
		<rect x="2144.359" y="1868.418" fill="#BFBFBF" stroke="#494949" stroke-width="0.66" stroke-miterlimit="10" width="45" height="78"/>
	<path fill="#BFBFBF" stroke="#494949" stroke-miterlimit="10" d="M2219.359,1653.418h276.545c25.957,0,47-21.043,47-47v-34
		c0-25.957-21.043-47-47-47h-276.545V1653.418z"/>
	
		<rect x="2145.359" y="1525.418" fill="#BFBFBF" stroke="#494949" stroke-width="0.66" stroke-miterlimit="10" width="74" height="128"/>
	<path fill="#BFBFBF" stroke="#494949" stroke-miterlimit="10" d="M2092.859,1676.397c0,25.449-44.438,46.082-99.246,46.082l0,0
		c-54.812,0-99.245-20.633-99.245-46.082v-107.5c0-25.451,44.434-46.082,99.245-46.082l0,0c54.812,0,99.246,20.631,99.246,46.082
		V1676.397z"/>
	<polyline fill="#BFBFBF" stroke="#494949" stroke-miterlimit="10" points="3227.357,979.015 3227.357,979.015 3234.857,979.015 	
		"/>
	<polygon fill="#BFBFBF" stroke="#494949" stroke-width="0.66" stroke-miterlimit="10" points="3285.359,1358.497 3285.359,1244.5 
		3215.357,1244.5 3215.357,1331.497 3215.357,1331.497 3215.357,1358.497 	"/>
	<path fill="#BFBFBF" stroke="#494949" stroke-width="0.66" stroke-miterlimit="10" d="M2908.589,953.421L2908.589,953.421
		L2908.589,953.421h96.771c0-35.867,0-63.737,0-70.401c0-22.396-28-25.007-28-25.007s-68,0-92.992,0
		c-24.994,0-25.008,25.007-25.008,25.007l-0.539,103.734h15.967L2908.589,953.421z"/>
	<path fill="#BFBFBF" stroke="#494949" stroke-miterlimit="10" d="M2908.589,953.421l-33.803,33.333l0,0l0,0h-15.969l-1.359,261.208
		c0,0,1.9,0,67.359,0c73.541,0,80.541-80.541,80.541-80.541s0-129.298,0-214H2908.589z"/>
	<path fill="#BFBFBF" stroke="#494949" stroke-width="0.66" stroke-miterlimit="10" d="M2708.359,1444.918v32.5c0,0,26,33,47,0
		c0,0,49,18,38-34c0,0,35-26-3-42h-28v16l-26,26.5L2708.359,1444.918z"/>
	<polygon fill="#BFBFBF" stroke="#494949" stroke-width="0.66" stroke-miterlimit="10" points="3159.359,421.419 3159.359,361.419 
		3066.068,357.45 3061.363,557.419 3063.359,557.419 3085.359,597.419 3155.447,597.419 3161.181,421.521 	"/>
	<polygon fill="#BFBFBF" stroke="#494949" stroke-width="0.66" stroke-miterlimit="10" points="3195.359,459.419 3195.359,423.419 
		3161.181,421.521 3155.447,597.419 3240.857,597.419 3240.857,461.814 	"/>
	<polygon fill="#BFBFBF" stroke="#494949" stroke-width="0.66" stroke-miterlimit="10" points="3271.359,443.419 3271.359,463.419 
		3240.857,461.814 3240.857,597.419 3317.359,597.419 3347.359,547.419 3347.359,446.83 	"/>
	<path fill="#BFBFBF" stroke="#494949" stroke-miterlimit="10" d="M3033.359,734.419c0,38.107-30.895,69-69,69h-37.898
		c-38.107,0-69-30.893-69-69v-28c0-38.106,30.893-69,69-69h37.898c38.105,0,69,30.894,69,69V734.419z"/>
</g>
<g id="rooms">
	<polygon id="r102" fill="#939598" stroke="#494949" stroke-miterlimit="10" points="1614.939,1319.5 1614.939,1319.5 
		1614.939,1319.5 1614.939,1234.002 1427.448,1234.002 1427.448,1234.002 1427.448,1234.002 1427.448,1167.418 1338.952,1167.418 
		1338.952,1427.495 1553.442,1427.495 1553.442,1427.495 1621.747,1427.495 1701.934,1355.102 1701.934,1319.5 	"/>
	<polygon id="r144" fill="#939598" stroke="#494949" stroke-miterlimit="10" points="1473.946,1811.473 1473.946,1724.479 
		1473.946,1724.479 1473.946,1724.479 1553.442,1724.479 1553.442,1427.495 1338.952,1427.495 1338.952,1427.495 1338.952,1427.495 
		1338.952,1167.418 1089.359,1167.418 1089.359,1944.418 1473.946,1944.418 	"/>
	<polygon id="r143" fill="#939598" stroke="#494949" stroke-miterlimit="10" points="1611.939,1835.473 1611.939,1835.473 
		1611.939,1835.473 1698.934,1835.473 1698.934,1799.426 1630.409,1724.479 1553.442,1724.479 1553.442,1811.473 1473.946,1811.473 
		1473.946,1878.971 1611.939,1878.971 	"/>
	<polygon id="r142" fill="#939598" stroke="#494949" stroke-miterlimit="10" points="1728.933,1811.475 1728.933,1850.473 
		1749.932,1850.473 1749.932,1944.418 1803.359,1944.418 1803.359,1811.475 	"/>
	<rect id="r141" x="1803.359" y="1811.475" fill="#939598" stroke="#494949" stroke-miterlimit="10" width="96" height="132.943"/>
	<path id="r140" fill="#939598" stroke="#494949" stroke-miterlimit="10" d="M1899.359,1811.475v132.943h29c0,0,12.156-12.158,13-13
		c18.971,9.146,38.055,12.551,55,13.061v-133.004H1899.359z"/>
	<path id="r138-139" fill="#939598" stroke="#494949" stroke-miterlimit="10" d="M2144.359,1868.418L2144.359,1868.418h45v-140.936
		h-69.104l-112.303,83.986h-11.6v133.004c33.076,0.992,58-9.059,58-9.059l8,11h82v-78h0.004v0.004H2144.359z"/>
	<rect id="r136" x="2281.359" y="1727.483" fill="#939598" stroke="#494949" stroke-miterlimit="10" width="99" height="218.938"/>
	<rect id="r134" x="2481.359" y="1727.483" fill="#939598" stroke="#494949" stroke-miterlimit="10" width="95" height="218.938"/>
	<polygon id="r133" fill="#939598" stroke="#494949" stroke-miterlimit="10" points="2662.359,1872.418 2662.359,1727.483 
		2576.359,1727.483 2576.359,1946.418 2662.359,1946.418 	"/>
	
		<rect id="r132-2" x="2662.359" y="1727.483" fill="#939598" stroke="#494949" stroke-miterlimit="10" width="56" height="144.938"/>
	<path id="r132-1" fill="#939598" stroke="#494949" stroke-miterlimit="10" d="M2718.359,1727.483v144.938l0,0v56.332
		c13.988,4.76,27.668,8.717,41,11.971v-213.234h-41V1727.483z"/>
	<path id="r130-131" fill="#939598" stroke="#494949" stroke-miterlimit="10" d="M2997.703,1798.887
		c0,0-13.648-31.219-47.678-53.467c-34.666-22.668-72.666-17.938-72.666-17.938h-118v213.234c158.627,38.73,268-22.303,268-22.303
		l11.738-17.971L2997.703,1798.887z"/>
	<rect id="r135" x="2380.359" y="1727.483" fill="#939598" stroke="#494949" stroke-miterlimit="10" width="101" height="218.938"/>
	<polygon id="r137" fill="#939598" stroke="#494949" stroke-miterlimit="10" points="2189.359,1727.483 2189.359,1868.418 
		2189.359,1868.418 2189.359,1946.418 2281.359,1946.418 2281.359,1727.483 	"/>
	<path id="r103-1" fill="#939598" stroke="#494949" stroke-miterlimit="10" d="M1996.359,1201.418v142c0,0,19,114,133,114
		c0.656,0,1.33,0,2,0v-256H1996.359z"/>
	<path id="r103-2" fill="#939598" stroke="#494949" stroke-miterlimit="10" d="M2131.359,1201.418v256c22.209,0,50.613,0,82,0v-256
		H2131.359z"/>
	<path id="r104" fill="#939598" stroke="#494949" stroke-miterlimit="10" d="M2293.359,1355.418v102c33.283,0,66.939,0,98,0v-102
		H2293.359z"/>
	<path id="r103-3" fill="#939598" stroke="#494949" stroke-miterlimit="10" d="M2391.359,1281.418v-2V1281.418h100v-80.764
		l-0.803,0.764h-277.197v256c25.289,0,52.518,0,80,0v-102l0,0l0,0h98V1281.418L2391.359,1281.418z"/>
	<path id="r107-2" fill="#939598" stroke="#494949" stroke-miterlimit="10" d="M2801.359,1219.418c0-1.34,0-2.67,0-4h-152v92
		h114.646C2777.979,1282.446,2790.673,1253.344,2801.359,1219.418z"/>
	<path id="r107-1" fill="#939598" stroke="#494949" stroke-miterlimit="10" d="M2649.359,1307.418v118.889
		c38.797-21.592,80.533-57.92,114.646-118.889H2649.359z"/>
	<path id="r109-111" fill="#939598" stroke="#494949" stroke-miterlimit="10" d="M2801.359,893.419c0,0,12-49-49-49s-193,0-193,0
		v285h242C2801.359,956.169,2801.359,893.419,2801.359,893.419z"/>
	<path id="r106" fill="#939598" stroke="#494949" stroke-miterlimit="10" d="M2491.359,1281.418v176c23.311,0,37.5,0,37.5,0
		s56.207,4.668,120.5-31.111v-118.889v-92h-158V1281.418z"/>
	<path id="r108" fill="#939598" stroke="#494949" stroke-miterlimit="10" d="M2559.359,1129.418v6.236l-68,65v14.764h158h11.5h140.5
		c0-31.285,0-59.895,0-86H2559.359z"/>
	<path id="r105" fill="#939598" stroke="#494949" stroke-miterlimit="10" d="M2391.359,1281.418v74l0,0v102c39.646,0,75.051,0,100,0
		v-176H2391.359z"/>
	<polygon id="r122-1" fill="#939598" stroke="#494949" stroke-miterlimit="10" points="3285.359,859.419 3252.359,859.419 
		3252.359,857.521 3099.748,857.521 3093.865,866.403 3093.865,908.519 3285.359,908.519 	"/>
	<polygon id="r122-2" fill="#939598" stroke="#494949" stroke-miterlimit="10" points="3285.359,908.519 3093.865,908.519 
		3093.865,959.516 3267.855,959.516 3267.855,961.419 3285.359,961.419 	"/>
	
		<rect id="r123-1" x="3093.865" y="979.015" fill="#939598" stroke="#494949" stroke-miterlimit="10" width="133.492" height="35.999"/>
	<polygon id="r123-2" fill="#939598" stroke="#494949" stroke-miterlimit="10" points="3267.855,961.419 3267.855,1033.012 
		3227.357,1033.012 3227.357,1015.014 3093.865,1015.014 3093.865,1054.01 3285.359,1054.01 3285.359,961.419 	"/>
	
		<rect id="r124-2" x="3093.865" y="1099.008" fill="#939598" stroke="#494949" stroke-miterlimit="10" width="191.494" height="50.998"/>
	
		<rect id="r126" x="3093.865" y="1244.5" fill="#939598" stroke="#494949" stroke-miterlimit="10" width="121.492" height="86.996"/>
	<path id="r127" fill="#939598" stroke="#494949" stroke-miterlimit="10" d="M3285.359,1376.418v-17.924h-70.002l0,0l0,0v-26.998
		h-121.492v97.494h79.496l0,0h123.34C3291.484,1396.721,3285.359,1376.418,3285.359,1376.418z"/>
	
		<rect id="r128" x="3093.865" y="1428.993" fill="#939598" stroke="#494949" stroke-miterlimit="10" width="79.496" height="91.494"/>
	<path id="r129" fill="#939598" stroke="#494949" stroke-miterlimit="10" d="M3296.701,1428.993h-123.34v91.494l0,0l0,0h-79.496
		v83.691l150.678,93.559l24.814-14.316C3313.138,1593.245,3306.537,1489.836,3296.701,1428.993z"/>
	<polygon id="r125" fill="#939598" stroke="#494949" stroke-miterlimit="10" points="3285.359,1150.006 3093.865,1150.006 
		3093.865,1244.5 3215.357,1244.5 3215.357,1244.5 3285.359,1244.5 	"/>
	
		<rect id="r124-1" x="3093.865" y="1054.01" fill="#939598" stroke="#494949" stroke-miterlimit="10" width="191.494" height="44.998"/>
	<polygon id="r121" fill="#939598" stroke="#494949" stroke-miterlimit="10" points="3252.359,790.025 3143.363,790.025 
		3143.363,791.671 3099.748,857.521 3252.359,857.521 	"/>
	<polygon id="r120" fill="#939598" stroke="#494949" stroke-miterlimit="10" points="3265.359,789.419 3267.359,814.419 
		3350.352,815.995 3350.352,691.03 3327.852,691.03 3327.852,661.031 3143.363,661.031 3143.363,790.025 3252.359,790.025 
		3252.359,789.419 	"/>
	
		<rect id="r112" x="2612.388" y="446.542" fill="#939598" stroke="#494949" stroke-miterlimit="10" width="71.996" height="190.877"/>
	<polygon id="r113" fill="#939598" stroke="#494949" stroke-miterlimit="10" points="2684.384,433.043 2684.384,446.542 
		2684.384,446.542 2684.384,637.419 2772.88,637.419 2772.88,433.043 	"/>
	<polygon id="r114" fill="#939598" stroke="#494949" stroke-miterlimit="10" points="2772.88,433.043 2772.88,637.419 
		2779.359,637.419 2883.359,557.419 2883.875,557.419 2883.875,433.043 	"/>
	
		<rect id="r115" x="2883.875" y="433.043" fill="#939598" stroke="#494949" stroke-miterlimit="10" width="82.496" height="124.376"/>
	<polygon id="r116" fill="#939598" stroke="#494949" stroke-miterlimit="10" points="3065.359,357.419 3065.359,341.419 
		2966.371,338.9 2966.371,433.043 2966.371,433.043 2966.371,557.419 3061.363,557.419 3066.068,357.45 	"/>
	<polygon id="central-department-store" fill="#939598" stroke="#494949" stroke-miterlimit="10" points="2490.559,1201.418 
		2559.359,1135.655 2559.359,453.419 2515.359,453.419 2515.359,453.419 2515.359,453.419 2515.359,297.419 2309.359,289.419 
		2309.359,207.419 1613.359,187.419 1613.359,1201.418 	"/>
</g>
<g id="signs">
	<g id="escalator">
		<rect x="1924.859" y="1592.418" width="45" height="45"/>
		<rect x="2725.359" y="1560.918" width="45" height="45"/>
		<rect x="2869.359" y="1406.418" width="45" height="45"/>
		<rect x="2926.352" y="681.428" width="45" height="45"/>
	</g>
	<g id="lift">
		<rect x="1498.359" y="1113.418" width="45" height="45"/>
		<rect x="1547.359" y="515.419" width="45" height="45"/>
		<rect x="1498.359" y="1186.418" width="45" height="45"/>
		<rect x="2744.859" y="1427.918" width="45" height="45"/>
		<rect x="3403.328" y="562.93" width="45" height="45"/>
		<rect x="3403.328" y="664.031" width="45" height="45"/>
	</g>
	<g id="toilet">
		<rect x="1529.359" y="1880.418" width="45" height="45"/>
		<rect x="2611.341" y="364.17" width="45" height="45"/>
	</g>
	<g id="parking">
		<rect x="1160.29" y="791.398" width="45" height="45"/>
		<rect x="341.208" y="1068.418" width="45" height="45"/>
	</g>
</g>
</svg>
