<?xml version="1.0" encoding="utf-8"?>
<!-- Generator: Adobe Illustrator 16.0.0, SVG Export Plug-In . SVG Version: 6.00 Build 0)  -->
<!DOCTYPE svg PUBLIC "-//W3C//DTD SVG 1.1//EN" "http://www.w3.org/Graphics/SVG/1.1/DTD/svg11.dtd">
<svg version="1.1" id="Layer_1" xmlns="http://www.w3.org/2000/svg" xmlns:xlink="http://www.w3.org/1999/xlink" x="0px" y="0px"
	 width="3797.242px" height="2105.578px" viewBox="0 0 3797.242 2105.578" enable-background="new 0 0 3797.242 2105.578"
	 xml:space="preserve">
<g id="background">
</g>
<g id="etc">
	<path fill="#BFBFBF" stroke="#494949" stroke-miterlimit="10" d="M1523.623,320.889c0.906-6.982,1.381-14.093,1.381-21.309
		c0-95.599-81.928-173.097-182.991-173.097c-101.062,0-182.987,77.498-182.987,173.097c0,3.729,0.139,7.427,0.385,11.097
		l-187.547-5.258l-204,698v154.999h-234l58-395l-56.697-8.798c-5.847-64.911-59.704-115.76-125.29-115.76
		c-52.282,0-97.113,32.313-116.113,78.301l-49.9-7.742l-102,739.999l50.044,7.439c-0.264,3.369-0.403,6.777-0.403,10.221
		c0,70.414,56.334,127.494,125.826,127.494c60.454,0,110.943-43.203,123.055-100.799l51.479,7.645l17-131h264l-0.313,27.455
		c-105.165,7.896-187.951,92.59-187.951,195.914c0,94.631,59.092,155.166,124.265,190.631c93.815,51.056,290,160,290,160h91v-777
		h350.334l89.794-846.352L1523.623,320.889z M357.858,1502.088c-12,12-40.667,42-81.333,0c-22.667-28.668,4.667-33.334,4.667-33.334
		l72,10.666C353.191,1479.42,369.858,1490.088,357.858,1502.088z M446.173,769.729l-71.595-12.774c0,0-16.396-11.649-4.164-24.129
		c12.23-12.479,41.478-43.705,81.136,1.655C473.541,765.336,446.173,769.729,446.173,769.729z M785.859,1698.418c-32-1-93-36-91-105
		c0,0-8-66,81-92c2,1,35-10,35,9s0,166,0,166S817.859,1699.418,785.859,1698.418z M1417.438,313.725
		c-16.295-0.396-142.359-3.467-142.359-3.467s-19.861,5.096-18.382-20.374c1.479-25.47,32.678-73.329,91.812-70.294
		c0,0,56.757-4.993,77.328,66.443C1424.939,287.606,1433.733,314.122,1417.438,313.725z"/>
	<path fill="#BFBFBF" stroke="#494949" stroke-miterlimit="10" d="M3658.859,586.419v-42h-22v-65l-53-4v-18l-236-10.591v100.591
		l-30,50h-232l-22-40h-180l-104,80h-166.974V446.541h71.996v-13.5h88.496h110.994h82.496V338.9l-451.012-11.479v126h44v184v498.234
		l-68.804,65.767h-877.197v-878l-83.872-2.353l-89.794,846.354h-12.245v66.584h187.491v85.496h86.995v35.604l-80.188,72.392h-68.305
		v296.983h76.967l68.525,74.949v144.992h50.998v-93.947h-20.999v-38.998h279.021l112.305-83.99h764.437
		c0,0,28.69-5.819,70.699,21.64c26.969,17.629,42.543,50.336,42.543,50.336l41.164,100.992l37.26-57.031l115-115l53.185-30.683
		l-150.679-93.561V979.015h133.494v53.997h40.496v-73.496h-173.99v-93.11l49.498-74.731V661.033h184.49v29.999h22.498v124.966
		l233.008,4.424v-20h53v-58h22v-40h-20v-116L3658.859,586.419L3658.859,586.419z"/>
	
		<rect x="1474.446" y="1724.479" fill="#BFBFBF" stroke="#494949" stroke-width="0.66" stroke-miterlimit="10" width="79.496" height="86.994"/>
	<polygon fill="#BFBFBF" stroke="#494949" stroke-width="0.66" stroke-miterlimit="10" points="1612.439,1835.473 
		1612.439,1878.971 1612.439,1878.971 1612.439,1878.971 1474.446,1878.971 1474.446,1944.418 1699.434,1944.418 1699.434,1835.473 
			"/>
	<path fill="#BFBFBF" stroke="#494949" stroke-width="0.66" stroke-miterlimit="10" d="M2662.859,1872.418v74h55c0,0,1-18,0-18
		c0.334,0.114,0.666,0.219,1,0.334v-56.334H2662.859z"/>
	
		<rect x="2144.859" y="1868.418" fill="#BFBFBF" stroke="#494949" stroke-width="0.66" stroke-miterlimit="10" width="45" height="78"/>
	<path fill="#BFBFBF" stroke="#494949" stroke-miterlimit="10" d="M2219.859,1653.418h276.545c25.957,0,47-21.043,47-47v-34
		c0-25.957-21.043-47-47-47h-276.545V1653.418z"/>
	
		<rect x="2145.859" y="1525.418" fill="#BFBFBF" stroke="#494949" stroke-width="0.66" stroke-miterlimit="10" width="74" height="128"/>
	<path fill="#BFBFBF" stroke="#494949" stroke-miterlimit="10" d="M2093.359,1676.397c0,25.449-44.438,46.082-99.246,46.082l0,0
		c-54.813,0-99.245-20.633-99.245-46.082v-107.5c0-25.451,44.434-46.082,99.245-46.082l0,0c54.812,0,99.246,20.631,99.246,46.082
		V1676.397z"/>
	<polyline fill="#BFBFBF" stroke="#494949" stroke-miterlimit="10" points="3227.857,979.015 3227.857,979.015 3235.357,979.015 	
		"/>
	<polygon fill="#BFBFBF" stroke="#494949" stroke-width="0.66" stroke-miterlimit="10" points="3285.859,1358.496 3285.859,1244.5 
		3215.857,1244.5 3215.857,1331.496 3215.857,1331.496 3215.857,1358.496 	"/>
	<path fill="#BFBFBF" stroke="#494949" stroke-miterlimit="10" d="M2909.089,953.421l-33.803,33.333l0,0l0,0h-15.969l-1.359,261.208
		c0,0,1.9,0,67.359,0c73.541,0,80.541-80.541,80.541-80.541s0-129.298,0-214H2909.089z"/>
	<path fill="#BFBFBF" stroke="#494949" stroke-width="0.66" stroke-miterlimit="10" d="M2708.859,1444.918v32.5c0,0,26,33,47,0
		c0,0,49,18,38-34c0,0,35-26-3-42h-28v16l-26,26.5L2708.859,1444.918z"/>
	<polygon fill="#BFBFBF" stroke="#494949" stroke-width="0.66" stroke-miterlimit="10" points="3159.859,421.419 3159.859,361.419 
		3066.568,357.449 3061.863,557.419 3063.859,557.419 3085.859,597.419 3155.947,597.419 3161.681,421.521 	"/>
	<polygon id="r118-119" fill="#BFBFBF" stroke="#494949" stroke-width="0.66" stroke-miterlimit="10" points="3271.859,443.419 
		3271.859,463.419 3241.357,461.814 3241.357,461.814 3195.859,459.419 3195.859,423.419 3161.681,421.521 3155.947,597.419 
		3241.357,597.419 3252.359,597.419 3317.859,597.419 3347.859,547.419 3347.859,446.829 	"/>
	<path fill="#BFBFBF" stroke="#494949" stroke-miterlimit="10" d="M3033.859,734.419c0,38.106-30.896,69-69,69h-37.898
		c-38.107,0-69-30.894-69-69v-28c0-38.106,30.893-69,69-69h37.898c38.104,0,69,30.894,69,69V734.419z"/>
</g>
<g id="rooms">
	<polygon id="r102" fill="#939598" stroke="#494949" stroke-miterlimit="10" points="1614.939,1319.5 1614.939,1319.5 
		1614.939,1319.5 1614.939,1234.002 1427.448,1234.002 1427.448,1234.002 1427.448,1234.002 1427.448,1167.418 1338.952,1167.418 
		1338.952,1427.494 1553.442,1427.494 1553.442,1427.494 1621.747,1427.494 1701.934,1355.102 1701.934,1319.5 	"/>
	<polygon id="r144" fill="#939598" stroke="#494949" stroke-miterlimit="10" points="1473.946,1811.473 1473.946,1724.479 
		1473.946,1724.479 1473.946,1724.479 1553.442,1724.479 1553.442,1427.494 1338.952,1427.494 1338.952,1427.494 1338.952,1427.494 
		1338.952,1167.418 1089.359,1167.418 1089.359,1944.418 1473.946,1944.418 	"/>
	<polygon id="r143" fill="#939598" stroke="#494949" stroke-miterlimit="10" points="1611.939,1835.473 1611.939,1835.473 
		1611.939,1835.473 1698.934,1835.473 1698.934,1799.426 1630.409,1724.479 1553.442,1724.479 1553.442,1811.473 1473.946,1811.473 
		1473.946,1878.971 1611.939,1878.971 	"/>
	<polygon id="r142" fill="#939598" stroke="#494949" stroke-miterlimit="10" points="1728.933,1811.475 1728.933,1850.473 
		1749.932,1850.473 1749.932,1944.418 1803.359,1944.418 1803.359,1811.475 	"/>
	<rect id="r141" x="1803.359" y="1811.475" fill="#939598" stroke="#494949" stroke-miterlimit="10" width="96" height="132.943"/>
	<path id="r140" fill="#939598" stroke="#494949" stroke-miterlimit="10" d="M1899.359,1811.475v132.943h29c0,0,12.155-12.158,13-13
		c18.971,9.146,38.055,12.551,55,13.061v-133.004H1899.359z"/>
	<path id="r138-139" fill="#939598" stroke="#494949" stroke-miterlimit="10" d="M2144.359,1868.418L2144.359,1868.418h45v-140.937
		h-69.104l-112.303,83.986h-11.601v133.004c33.076,0.991,58-9.06,58-9.06l8,11h82v-78h0.004v0.004h0.004V1868.418z"/>
	<rect id="r136" x="2281.359" y="1727.483" fill="#939598" stroke="#494949" stroke-miterlimit="10" width="99" height="218.938"/>
	<rect id="r134" x="2481.359" y="1727.483" fill="#939598" stroke="#494949" stroke-miterlimit="10" width="95" height="218.938"/>
	<polygon id="r133" fill="#939598" stroke="#494949" stroke-miterlimit="10" points="2662.359,1872.418 2662.359,1727.483 
		2576.359,1727.483 2576.359,1946.418 2662.359,1946.418 	"/>
	
		<rect id="r132-2" x="2662.359" y="1727.483" fill="#939598" stroke="#494949" stroke-miterlimit="10" width="56" height="144.938"/>
	<path id="r132-1" fill="#939598" stroke="#494949" stroke-miterlimit="10" d="M2718.359,1727.483v144.938l0,0v56.332
		c13.987,4.76,27.668,8.717,41,11.971V1727.49h-41V1727.483z"/>
	<path id="r130-131" fill="#939598" stroke="#494949" stroke-miterlimit="10" d="M2997.703,1798.887
		c0,0-13.648-31.219-47.678-53.467c-34.666-22.668-72.666-17.938-72.666-17.938h-118v213.234c158.627,38.729,268-22.304,268-22.304
		l11.737-17.971L2997.703,1798.887z"/>
	<rect id="r135" x="2380.359" y="1727.483" fill="#939598" stroke="#494949" stroke-miterlimit="10" width="101" height="218.938"/>
	<polygon id="r137" fill="#939598" stroke="#494949" stroke-miterlimit="10" points="2189.359,1727.483 2189.359,1868.418 
		2189.359,1868.418 2189.359,1946.418 2281.359,1946.418 2281.359,1727.483 	"/>
	<path id="r103-1" fill="#939598" stroke="#494949" stroke-miterlimit="10" d="M1996.359,1201.418v142c0,0,19,114,133,114
		c0.655,0,1.33,0,2,0v-256H1996.359z"/>
	<path id="r103-2" fill="#939598" stroke="#494949" stroke-miterlimit="10" d="M2131.359,1201.418v256c22.209,0,50.612,0,82,0v-256
		H2131.359z"/>
	<path id="r104" fill="#939598" stroke="#494949" stroke-miterlimit="10" d="M2293.359,1355.418v102c33.282,0,66.938,0,98,0v-102
		H2293.359z"/>
	<path id="r103-3" fill="#939598" stroke="#494949" stroke-miterlimit="10" d="M2391.359,1281.418v-2V1281.418h100v-80.765
		l-0.804,0.765h-277.196v256c25.289,0,52.518,0,80,0v-102l0,0l0,0h98V1281.418L2391.359,1281.418z"/>
	<path id="r107-2" fill="#939598" stroke="#494949" stroke-miterlimit="10" d="M2801.359,1219.418c0-1.341,0-2.671,0-4h-152v92
		h114.646C2777.979,1282.446,2790.673,1253.344,2801.359,1219.418z"/>
	<path id="r107-1" fill="#939598" stroke="#494949" stroke-miterlimit="10" d="M2649.359,1307.418v118.889
		c38.797-21.592,80.532-57.92,114.646-118.889H2649.359z"/>
	<path id="r109-111" fill="#939598" stroke="#494949" stroke-miterlimit="10" d="M2801.359,893.419c0,0,12-49-49-49s-193,0-193,0
		v284.999h242C2801.359,956.169,2801.359,893.419,2801.359,893.419z"/>
	<path id="r106" fill="#939598" stroke="#494949" stroke-miterlimit="10" d="M2491.359,1281.418v176c23.311,0,37.5,0,37.5,0
		s56.207,4.668,120.5-31.111v-118.889v-92h-158V1281.418z"/>
	<path id="r108" fill="#939598" stroke="#494949" stroke-miterlimit="10" d="M2559.359,1129.418v6.235l-68,65v14.765h158h11.5h140.5
		c0-31.285,0-59.896,0-86H2559.359z"/>
	<path id="r105" fill="#939598" stroke="#494949" stroke-miterlimit="10" d="M2391.359,1281.418v74l0,0v102c39.646,0,75.051,0,100,0
		v-176H2391.359z"/>
	<polygon id="r122-1" fill="#939598" stroke="#494949" stroke-miterlimit="10" points="3285.359,859.419 3252.359,859.419 
		3252.359,857.521 3099.748,857.521 3093.865,866.403 3093.865,908.519 3285.359,908.519 	"/>
	<polygon id="r122-2" fill="#939598" stroke="#494949" stroke-miterlimit="10" points="3285.359,908.519 3093.865,908.519 
		3093.865,959.516 3267.855,959.516 3267.855,961.419 3285.359,961.419 	"/>
	
		<rect id="r123-1" x="3093.865" y="979.015" fill="#939598" stroke="#494949" stroke-miterlimit="10" width="133.492" height="35.999"/>
	<polygon id="r123-2" fill="#939598" stroke="#494949" stroke-miterlimit="10" points="3267.855,961.419 3267.855,1033.012 
		3227.357,1033.012 3227.357,1015.014 3093.865,1015.014 3093.865,1054.01 3285.359,1054.01 3285.359,961.419 	"/>
	
		<rect id="r124-2" x="3093.865" y="1099.008" fill="#939598" stroke="#494949" stroke-miterlimit="10" width="191.494" height="50.998"/>
	
		<rect id="r126" x="3093.865" y="1244.5" fill="#939598" stroke="#494949" stroke-miterlimit="10" width="121.492" height="86.995"/>
	<path id="r127" fill="#939598" stroke="#494949" stroke-miterlimit="10" d="M3285.359,1376.418v-17.925h-70.002l0,0l0,0v-26.998
		h-121.492v97.494h79.496l0,0h123.34C3291.484,1396.721,3285.359,1376.418,3285.359,1376.418z"/>
	
		<rect id="r128" x="3093.865" y="1428.992" fill="#939598" stroke="#494949" stroke-miterlimit="10" width="79.496" height="91.494"/>
	<path id="r129" fill="#939598" stroke="#494949" stroke-miterlimit="10" d="M3296.701,1428.992h-123.34v91.494l0,0l0,0h-79.496
		v83.691l150.678,93.559l24.813-14.315C3313.138,1593.244,3306.537,1489.836,3296.701,1428.992z"/>
	<polygon id="r125" fill="#939598" stroke="#494949" stroke-miterlimit="10" points="3285.359,1150.006 3093.865,1150.006 
		3093.865,1244.5 3215.357,1244.5 3215.357,1244.5 3285.359,1244.5 	"/>
	
		<rect id="r124-1" x="3093.865" y="1054.01" fill="#939598" stroke="#494949" stroke-miterlimit="10" width="191.494" height="44.998"/>
	<polygon id="r121" fill="#939598" stroke="#494949" stroke-miterlimit="10" points="3252.359,790.025 3143.363,790.025 
		3143.363,791.671 3099.748,857.521 3252.359,857.521 	"/>
	<polygon id="r120" fill="#939598" stroke="#494949" stroke-miterlimit="10" points="3265.359,789.419 3267.359,814.419 
		3350.352,815.994 3350.352,691.03 3327.852,691.03 3327.852,661.031 3143.363,661.031 3143.363,790.025 3252.359,790.025 
		3252.359,789.419 	"/>
	
		<rect id="r112" x="2612.388" y="446.541" fill="#939598" stroke="#494949" stroke-miterlimit="10" width="71.996" height="190.878"/>
	<polygon id="r113" fill="#939598" stroke="#494949" stroke-miterlimit="10" points="2684.384,433.043 2684.384,446.541 
		2684.384,446.541 2684.384,637.419 2772.88,637.419 2772.88,433.043 	"/>
	
		<rect id="r115" x="2883.875" y="433.043" fill="#939598" stroke="#494949" stroke-miterlimit="10" width="82.496" height="124.376"/>
	<polygon id="r116" fill="#939598" stroke="#494949" stroke-miterlimit="10" points="3065.359,357.419 3065.359,341.419 
		2966.371,338.9 2966.371,433.043 2966.371,433.043 2966.371,557.419 3061.363,557.419 3066.068,357.449 	"/>
	<polygon id="central-department-store" fill="#939598" stroke="#494949" stroke-miterlimit="10" points="2490.559,1201.418 
		2559.359,1135.655 2559.359,453.419 2515.359,453.419 2515.359,453.419 2515.359,453.419 2515.359,297.419 2309.359,289.419 
		2309.359,207.419 1613.359,187.419 1613.359,1201.418 	"/>
	
		<rect id="sulbing" x="1857.121" y="1563.289" fill="#939598" stroke="#494949" stroke-miterlimit="10" width="37.247" height="115.5"/>
	
		<rect id="jubilee" x="2814.455" y="1512.784" fill="#939598" stroke="#494949" stroke-miterlimit="10" width="70.633" height="70.633"/>
	
		<rect id="regent-diamond" x="2814.455" y="1583.417" fill="#939598" stroke="#494949" stroke-miterlimit="10" width="70.633" height="70.635"/>
	
		<rect id="rose-jewelry-studio" x="2936.591" y="1393.676" fill="#939598" stroke="#494949" stroke-miterlimit="10" width="70.633" height="70.633"/>
	<polyline id="r114-1" fill="#939598" stroke="#494949" stroke-miterlimit="10" points="2772.88,433.043 2828.377,433.041 
		2828.377,600.098 2779.359,637.419 2772.88,637.419 	"/>
	<polygon id="r114-2" fill="#939598" stroke="#494949" stroke-miterlimit="10" points="2883.875,433.043 2828.377,433.041 
		2828.377,600.098 2883.875,557.419 	"/>
	<path id="tea-story" fill="#939598" stroke="#494949" stroke-miterlimit="10" d="M2862.134,682.734c0,0,9.436-31.372,43.263-41.732
		c0,0-5.254-14.518-17.151-14.518c-11.898,0-40.026,32.913-40.675,36.667C2846.923,666.907,2842.872,673.018,2862.134,682.734z"/>
	<path id="pezzo" fill="#939598" stroke="#494949" stroke-miterlimit="10" d="M3030.186,682.71c0,0-9.455-31.366-43.289-41.706
		c0,0,5.245-14.521,17.144-14.528c11.896-0.007,40.046,32.889,40.696,36.643C3045.386,666.874,3049.439,672.982,3030.186,682.71z"/>
	<path id="mx-cakes-bakery" fill="#939598" stroke="#494949" stroke-miterlimit="10" d="M2875.288,986.754h-15.967l0.539-103.734
		c0,0,0.505-25.007,25.008-25.007s47.723,0,47.723,0v95.408h-23.502L2875.288,986.754z"/>
	<path id="segrafredo" fill="#939598" stroke="#494949" stroke-miterlimit="10" d="M2932.591,858.013l46.792,0.206
		c0,0,26.478,3.282,26.478,24.801s0,70.401,0,70.401h-73.27V858.013z"/>
</g>
<g id="signs">
	<g id="escalator">
		<rect x="1924.859" y="1592.418" width="45" height="45"/>
		<rect x="2725.359" y="1560.918" width="45" height="45"/>
		<rect x="2869.359" y="1406.418" width="45" height="45"/>
		<rect x="2926.352" y="681.428" width="45" height="45"/>
	</g>
	<g id="lift">
		<rect x="1498.359" y="1113.418" width="45" height="45"/>
		<rect x="1547.359" y="515.419" width="45" height="45"/>
		<rect x="1498.359" y="1186.418" width="45" height="45"/>
		<rect x="2744.859" y="1427.918" width="45" height="45"/>
		<rect x="3403.328" y="562.93" width="45" height="45"/>
		<rect x="3403.328" y="664.031" width="45" height="45"/>
	</g>
	<g id="toilet">
		<rect x="1529.359" y="1880.418" width="45" height="45"/>
		<rect x="2611.341" y="364.17" width="45" height="45"/>
	</g>
	<g id="parking">
		<rect x="1160.29" y="791.398" width="45" height="45"/>
		<rect x="341.208" y="1068.418" width="45" height="45"/>
	</g>
</g>
</svg>
