<?xml version="1.0" encoding="utf-8"?>
<!-- Generator: Adobe Illustrator 16.0.0, SVG Export Plug-In . SVG Version: 6.00 Build 0)  -->
<!DOCTYPE svg PUBLIC "-//W3C//DTD SVG 1.1//EN" "http://www.w3.org/Graphics/SVG/1.1/DTD/svg11.dtd">
<svg version="1.1" id="Layer_1" xmlns="http://www.w3.org/2000/svg" xmlns:xlink="http://www.w3.org/1999/xlink" x="0px" y="0px"
	 width="3797.242px" height="2105.579px" viewBox="0 0 3797.242 2105.579" enable-background="new 0 0 3797.242 2105.579"
	 xml:space="preserve">
<g id="background">
</g>
<g id="etc">
	<path fill="#BFBFBF" stroke="#494949" stroke-miterlimit="10" d="M589.359,763.419l-56.697-8.798
		c-5.847-64.911-59.704-115.76-125.29-115.76c-52.282,0-97.113,32.312-116.113,78.301l-49.9-7.743l-102,740l50.044,7.439
		c-0.264,3.371-0.403,6.777-0.403,10.221c0,70.414,56.334,127.494,125.826,127.494c60.454,0,110.941-43.203,123.055-100.799
		l51.479,7.645L589.359,763.419z M355.358,1502.088c-12,12-40.667,42-81.333,0c-22.667-28.668,4.667-33.334,4.667-33.334l72,10.666
		C350.691,1479.42,367.358,1490.088,355.358,1502.088z M443.673,769.729l-71.595-12.775c0,0-16.396-11.65-4.164-24.129
		c12.23-12.479,41.478-43.705,81.136,1.656C471.041,765.336,443.673,769.729,443.673,769.729z"/>
	<path fill="#BFBFBF" stroke="#494949" stroke-miterlimit="10" d="M3634.712,585.773h20v-42h-22v-65l-53-4v-18l-144-6.464l-92-4.128
		l-76-3.408v20l-26-1.369l-4.502-0.237l-45.498-2.395v-36l-34.176-1.898l-1.824-0.102v-60l-93.291-3.971l-0.709-0.029v-16
		l-94.006-2.394l-4.982-0.127l-451.012-11.479v-30l-206-8v-82l-696-20v136l-72-2.02v0.6l-10.228-0.286l-6.363-0.18
		c0.904-6.981,1.381-14.093,1.381-21.308c0-95.599-81.928-173.097-182.991-173.097c-101.062,0-182.991,77.498-182.991,173.097
		c0,3.729,0.141,7.426,0.387,11.096l-187.547-5.258l-204,698l4.688,394.456c-105.165,7.895-187.951,92.59-187.951,195.914
		c0,94.631,59.088,155.166,124.263,190.631c93.817,51.055,290,160,290,160h502.584v-0.646h400.334h25.437c0,0,12.158-12.156,13-13
		c1.326,0.643,2.654,1.246,3.982,1.83c0.077,0.035,0.155,0.066,0.235,0.104c1.277,0.561,2.558,1.092,3.834,1.604
		c0.004,0,0.006,0.002,0.01,0.004c0.013,0.006,0.023,0.01,0.035,0.016c4,1.596,7.988,2.955,11.949,4.104
		c0.078,0.021,0.156,0.045,0.234,0.068c0.879,0.254,1.754,0.494,2.631,0.727c0.189,0.053,0.383,0.104,0.574,0.152
		c0.828,0.217,1.652,0.424,2.479,0.623c0.229,0.055,0.457,0.107,0.687,0.16c0.811,0.191,1.62,0.377,2.43,0.553
		c0.203,0.043,0.406,0.084,0.609,0.127c2.559,0.539,5.096,0.998,7.606,1.383c0.281,0.043,0.563,0.092,0.842,0.133
		c0.603,0.09,1.197,0.168,1.796,0.248c0.465,0.062,0.934,0.125,1.396,0.184c0.537,0.066,1.068,0.127,1.604,0.186
		c0.524,0.062,1.051,0.117,1.573,0.172c0.488,0.049,0.978,0.098,1.461,0.141c0.58,0.053,1.156,0.102,1.732,0.145
		c0.437,0.035,0.869,0.07,1.303,0.104c0.658,0.047,1.313,0.086,1.968,0.123c0.348,0.02,0.696,0.043,1.045,0.061
		c1,0.049,1.996,0.092,2.981,0.121c0.355,0.01,0.705,0.012,1.062,0.021c0.019,0,0.035,0,0.053,0
		c32.519,0.732,56.888-9.082,56.888-9.082l8,11h655c0,0,0.235-4.27,0.364-8.646c0.023-0.557,0.052-1.115,0.078-1.664v0.012
		c0.19-3.906,0.406-7.418,0.557-7.367c13.992,4.76,27.67,8.715,41,11.969c17.353,4.236,34.408,6.986,51.023,8.525
		c72.584,6.719,136.78-9.686,180.711-26.33c37.948-14.383,60.772-28.947,60.772-28.947s80.246,5.248,118.494-33
		c0.738-0.74,1.457-1.498,2.162-2.264c38.52-41.896,23.336-120.73,23.336-120.73s53.998-80.996,53.998-177.059
		c0-9.846-0.176-19.32-0.49-28.434l-7.041-79.496c-7.521-50.934-17.969-77.994-17.969-77.994l61.002,1.424v-127v-102v-92v-114v-82
		h-33v-69.396v-0.604h17v32.423h139.977l26.023-4.233l148,2.812v-20h53v-58h22v-40h-20v-63L3634.712,585.773L3634.712,585.773z
		 M783.359,1698.418c-32-1-93-36-91-105c0,0-8-66,81-92c2,1,35-10,35,9s0,166,0,166S815.359,1699.418,783.359,1698.418z
		 M1414.938,313.725c-16.295-0.396-142.361-3.467-142.361-3.467s-19.861,5.096-18.382-20.374
		c1.479-25.47,32.678-73.329,91.812-70.294c0,0,56.757-4.993,77.328,66.443C1422.439,287.606,1431.233,314.123,1414.938,313.725z"/>
	<g>
		<polygon fill="#BFBFBF" stroke="#494949" stroke-miterlimit="10" points="2893.619,612.96 2979.869,612.96 3040.929,678.952 
			3040.929,773.537 2980.375,837.602 2892.345,837.602 2832.552,772.161 2832.552,678.952 		"/>
		<polygon fill="#BFBFBF" stroke="#494949" stroke-miterlimit="10" points="2888.417,746.406 2888.417,703.713 2916.475,672.626 
			2955.714,672.626 2984.376,702.622 2984.376,747.151 2956.98,776.56 2915.089,776.56 		"/>
		<polygon fill="#BFBFBF" stroke="#494949" stroke-miterlimit="10" points="2893.759,744.783 2893.759,706.331 2918.861,678.333 
			2953.977,678.333 2979.615,705.348 2979.615,745.456 2955.104,771.94 2917.623,771.94 		"/>
		<polygon fill="#BFBFBF" stroke="#494949" stroke-miterlimit="10" points="3040.929,773.537 3040.929,1142.139 2979.869,1227.764 
			2893.619,1227.764 2832.552,1142.139 2832.552,772.161 2892.345,837.602 2980.375,837.602 		"/>
		<line fill="none" stroke="#494949" stroke-miterlimit="10" x1="2832.552" y1="678.952" x2="3039.66" y2="771.595"/>
		<line fill="none" stroke="#494949" stroke-miterlimit="10" x1="2832.552" y1="772.161" x2="3040.929" y2="678.952"/>
		<polygon fill="#BFBFBF" stroke="#494949" stroke-miterlimit="10" points="2892.611,836.919 2892.345,837.602 2892.345,1135.374 
			2919.564,1162.323 2953.914,1162.323 2980.375,1133.727 2980.375,837.602 2980.113,836.919 		"/>
		<polygon fill="#BFBFBF" stroke="#494949" stroke-miterlimit="10" points="2893.619,612.96 2936.552,724.134 2979.869,612.96 		"/>
		<polygon fill="#BFBFBF" stroke="#494949" stroke-miterlimit="10" points="2936.552,724.134 2892.611,836.919 2980.113,836.919 		
			"/>
		<polyline fill="#BFBFBF" stroke="#494949" stroke-miterlimit="10" points="2914.986,837.602 2913.968,1126.305 2927.199,1138.127 
			2945.52,1138.127 2959.511,1126.305 2959.511,837.602 		"/>
		<line fill="none" stroke="#494949" stroke-miterlimit="10" x1="2936.615" y1="1117.231" x2="2893.619" y2="1227.764"/>
		<line fill="none" stroke="#494949" stroke-miterlimit="10" x1="2936.615" y1="1117.231" x2="2978.083" y2="1227.764"/>
		<line fill="none" stroke="#494949" stroke-miterlimit="10" x1="2935.13" y1="1117.231" x2="2842.431" y2="1155.993"/>
		<line fill="none" stroke="#494949" stroke-miterlimit="10" x1="2938.059" y1="1117.231" x2="3030.255" y2="1157.108"/>
		<line fill="none" stroke="#494949" stroke-miterlimit="10" x1="2935.13" y1="1117.231" x2="2938.059" y2="1117.231"/>
		<line fill="none" stroke="#494949" stroke-miterlimit="10" x1="2936.615" y1="1117.231" x2="2936.615" y2="837.602"/>
		<line fill="none" stroke="#494949" stroke-miterlimit="10" x1="2891.582" y1="847.312" x2="2980.375" y2="847.312"/>
		<line fill="none" stroke="#494949" stroke-miterlimit="10" x1="2891.582" y1="870.872" x2="2980.375" y2="870.872"/>
		<line fill="none" stroke="#494949" stroke-miterlimit="10" x1="2891.582" y1="895.34" x2="2980.375" y2="895.34"/>
		<line fill="none" stroke="#494949" stroke-miterlimit="10" x1="2891.582" y1="919.539" x2="2980.375" y2="919.539"/>
		<line fill="none" stroke="#494949" stroke-miterlimit="10" x1="2891.582" y1="944.008" x2="2980.375" y2="944.008"/>
		<line fill="none" stroke="#494949" stroke-miterlimit="10" x1="2891.582" y1="968.206" x2="2980.375" y2="968.206"/>
		<line fill="none" stroke="#494949" stroke-miterlimit="10" x1="2891.582" y1="992.677" x2="2980.375" y2="992.677"/>
		<line fill="none" stroke="#494949" stroke-miterlimit="10" x1="2891.582" y1="1018.519" x2="2980.375" y2="1018.519"/>
		<line fill="none" stroke="#494949" stroke-miterlimit="10" x1="2891.582" y1="1041.343" x2="2980.375" y2="1041.343"/>
		<line fill="none" stroke="#494949" stroke-miterlimit="10" x1="2891.582" y1="1065.815" x2="2980.375" y2="1065.815"/>
		<line fill="none" stroke="#494949" stroke-miterlimit="10" x1="2891.582" y1="1090.01" x2="2980.375" y2="1090.01"/>
		<line fill="none" stroke="#494949" stroke-miterlimit="10" x1="2891.582" y1="1116.127" x2="2980.375" y2="1116.127"/>
	</g>
</g>
<g id="rooms">
	<polygon id="r601c" fill="#939598" stroke="#494949" stroke-miterlimit="10" points="1973.419,937.457 1930.248,891.836 
		1878.429,948.718 1919.378,992.677 	"/>
	<polygon id="r601b" fill="#939598" stroke="#494949" stroke-miterlimit="10" points="1900.591,860.5 1847.576,916.974 
		1848.857,916.974 1878.429,948.718 1930.248,891.836 	"/>
	<path id="r602-3" fill="#939598" stroke="#494949" stroke-miterlimit="10" d="M1844.427,262.803v110.5l34.698,35.354
		c40.416-31.973,90.021-51.381,143.792-52.858v-92.994L1844.427,262.803L1844.427,262.803z"/>
	<path id="r603" fill="#939598" stroke="#494949" stroke-miterlimit="10" d="M2203.859,338.55c0,0-42.441-37.932-92.941-45.214
		c0-19.282,0-30.533,0-30.533h-85h-2.998v92.994c2.199-0.061,4.404-0.102,6.619-0.102c91.178,0,171.096,51.57,215.738,128.952
		l47.627-51.603V338.55H2203.859z"/>
	<path id="r601-602-1-602-2" fill="#939598" stroke="#494949" stroke-miterlimit="10" d="M1776.128,628.034
		c-0.001-0.324-0.012-0.646-0.012-0.97c0-48.843,12.057-94.663,33.146-134.256c17.584-33.011,41.455-61.683,69.862-84.153
		l-34.698-35.354v-110.5h-124.24v165.741v1.5v197.99v21h-32.559v267.938h159.947l52.896-56.346
		C1826.273,813.512,1776.453,727.023,1776.128,628.034z"/>
	<polygon id="major-cineplex" fill="#939598" stroke="#494949" stroke-miterlimit="10" points="1986.859,1052.79 2393.812,1459.743 
		2561.294,1459.743 2780.316,1250.918 2792.318,891.836 2470.347,569.865 	"/>
</g>
<g id="signs">
	<g id="escalator">
		<rect x="1877.971" y="712.385" width="45" height="45"/>
		<rect x="2112.912" y="480.352" width="45" height="45"/>
	</g>
</g>
</svg>
