<?xml version="1.0" encoding="utf-8"?>
<!-- Generator: Adobe Illustrator 16.0.0, SVG Export Plug-In . SVG Version: 6.00 Build 0)  -->
<!DOCTYPE svg PUBLIC "-//W3C//DTD SVG 1.1//EN" "http://www.w3.org/Graphics/SVG/1.1/DTD/svg11.dtd">
<svg version="1.1" id="Layer_1" xmlns="http://www.w3.org/2000/svg" xmlns:xlink="http://www.w3.org/1999/xlink" x="0px" y="0px"
	 width="3797.242px" height="2105.579px" viewBox="0 0 3797.242 2105.579" enable-background="new 0 0 3797.242 2105.579"
	 xml:space="preserve">
<g id="background">
</g>
<g id="etc">
	<path fill="#BFBFBF" stroke="#494949" stroke-miterlimit="10" d="M1341.512,126.484c-101.062,0-182.99,77.498-182.99,173.097
		c0,3.729,0.141,7.426,0.387,11.096l-187.547-5.258l-204,698v155h-234l58-395l-56.697-8.798
		c-5.847-64.911-59.704-115.76-125.29-115.76c-52.282,0-97.113,32.312-116.113,78.301l-49.9-7.743l-102,740l50.044,7.439
		c-0.264,3.369-0.403,6.777-0.403,10.221c0,70.414,56.334,127.494,125.826,127.494c60.454,0,110.94-43.203,123.055-100.799
		l51.479,7.645l17-131h264l-0.312,27.455c-105.165,7.895-187.951,92.59-187.951,195.914c0,94.631,59.089,155.166,124.264,190.631
		c93.816,51.055,290,160,290,160l446.575,9.053l77.922-1677.132C1510.85,191.731,1434.242,126.484,1341.512,126.484z
		 M357.358,1502.088c-12,12-40.667,42-81.333,0c-22.667-28.668,4.667-33.334,4.667-33.334l72,10.666
		C352.691,1479.42,369.358,1490.088,357.358,1502.088z M445.673,769.729l-71.595-12.774c0,0-16.396-11.65-4.164-24.129
		c12.23-12.479,41.478-43.705,81.136,1.655C473.041,765.336,445.673,769.729,445.673,769.729z M785.359,1698.418c-32-1-93-36-91-105
		c0,0-8-66,81-92c2,1,35-10,35,9s0,166,0,166S817.359,1699.418,785.359,1698.418z M1416.938,313.725
		c-16.295-0.396-142.36-3.467-142.36-3.467s-19.861,5.096-18.382-20.374c1.479-25.47,32.678-73.329,91.812-70.294
		c0,0,56.757-4.993,77.328,66.443C1424.439,287.606,1433.233,314.123,1416.938,313.725z"/>
	<path fill="#BFBFBF" stroke="#494949" stroke-miterlimit="10" d="M3485.359,614.088v-76h-175.334v69.842h-67.332
		c0,0-183.326-69.842-301.82-69.842s-158.992,99.666-158.992,99.666h-178.492V460.042h73.496v-40.498h46.498h49.498h106.494h85.496
		h1.5V338.9l-446.643-11.369l-4.334,127.889h55.625l-16.213,380.979c0.012,0,122.555,0,178.553,0c56,0,56.5,57.021,56.5,57.021
		s0,170,0,315.5c-59.5,243.5-271.5,264-271.5,264s-369,0-405,0s-46.883-36.023-46.883-36.023V1231.42h-504.543l29-908.629
		l-61.445-1.723l-6.364-0.18c0.906-6.982,1.381-14.093,1.381-21.308c0-7.883-0.565-15.64-1.646-23.244l-77.92,1677.133
		l441.423,8.947c0,0,7.167-12.158,8.009-13c18.97,9.146,36.039,12.98,52.992,13c40,0.057,62.105-11.988,62.105-11.988l8.895,12.043
		l147.094,2.85l521.906,10.1c0,0,1.666-48.115,2-48v-150h76l346-326h115c0,0,0.037-45,0-58l44-2l3.666-130h-106.666v110h-88v-110
		v-196v-54h201.713l1.58-56h-203.293v-50v-46h-0.223l0.223-0.286l54.223-69.714h118.777h13l0.666,25.126V664.031h89.334v73.389h126
		l21.332-66.667h54.668v-56.665H3485.359z"/>
	<path fill="#BFBFBF" stroke="#494949" stroke-miterlimit="10" d="M2857.458,965.516v282.444c0,0,1.897,0,67.356,0
		c73.541,0,80.541-80.541,80.541-80.541s0-84.207,0-168.905c0,0-16.483-15.095-49.481-22.499
		C2931.73,970.599,2857.458,965.516,2857.458,965.516z"/>
	<path fill="#BFBFBF" stroke="#494949" stroke-miterlimit="10" d="M2092.859,1675.397c0,25.449-44.438,46.082-99.246,46.082l0,0
		c-54.812,0-99.245-20.633-99.245-46.082v-107.5c0-25.451,44.434-46.082,99.245-46.082l0,0c54.812,0,99.246,20.631,99.246,46.082
		V1675.397z"/>
	<path fill="#BFBFBF" stroke="#494949" stroke-miterlimit="10" d="M2219.359,1653.418h276.545c25.957,0,47-21.043,47-47v-34
		c0-25.957-21.043-47-47-47h-276.545V1653.418z"/>
	<rect x="2145.359" y="1525.418" fill="#BFBFBF" stroke="#494949" stroke-miterlimit="10" width="74" height="128"/>
	<path fill="#BFBFBF" stroke="#494949" stroke-miterlimit="10" d="M3033.359,734.419c0,38.107-30.895,69-69,69h-37.898
		c-38.107,0-69-30.893-69-69v-28c0-38.106,30.893-69,69-69h37.898c38.105,0,69,30.894,69,69V734.419z"/>
	<path fill="#BFBFBF" stroke="#494949" stroke-miterlimit="10" d="M2708.359,1444.918v32.5c0,0,26,33,47,0c0,0,49,18,38-34
		c0,0,35-26-3-42h-28v16l-26,26.5L2708.359,1444.918z"/>
	<path fill="#BFBFBF" stroke="#494949" stroke-miterlimit="10" d="M1689.359,1231.418v91h80l0,0l0,0v208.277
		c74.934-40.059,104-124.277,104-124.277v-175H1689.359z"/>
	<rect x="2603.388" y="460.042" fill="#BFBFBF" stroke="#494949" stroke-miterlimit="10" width="73.496" height="177.712"/>
	<path fill="#BFBFBF" stroke="#494949" stroke-miterlimit="10" d="M3240.857,461.814l-45.498-2.396v-36l-34-1.889v158.958
		c47.729,14.641,81.334,27.438,81.334,27.438h1.162V461.972L3240.857,461.814z"/>
	<polygon fill="#BFBFBF" stroke="#494949" stroke-miterlimit="10" points="3355.359,737.42 3355.359,664.031 3266.025,664.031 
		3266.025,814.545 3341.404,815.825 3350.352,815.995 3431.35,817.533 3431.35,737.42 	"/>
	<polygon fill="#BFBFBF" stroke="#494949" stroke-miterlimit="10" points="3347.359,446.83 3271.359,443.419 3271.359,463.419 
		3243.855,461.972 3243.855,607.93 3310.025,607.93 3310.025,538.088 3434.345,538.088 3434.345,450.733 	"/>
	<path fill="#BFBFBF" stroke="#494949" stroke-miterlimit="10" d="M3133.582,789.419c0,0,2.445-125.389,91.777-125.389h40.666
		l-0.666,125.389H3133.582z"/>
</g>
<g id="rooms">
	<polygon id="r201" fill="#939598" stroke="#494949" stroke-miterlimit="10" points="1522.973,1466.418 1528.295,1307.215 
		1474.961,1307.215 1465.28,1511.418 1521.468,1511.418 	"/>
	<path id="r202-1" fill="#939598" stroke="#494949" stroke-miterlimit="10" d="M1522.973,1466.418l-1.505,45h1.388v40
		c0,0,13.312,0,75.506,0v-85H1522.973z"/>
	<path id="r202-2" fill="#939598" stroke="#494949" stroke-miterlimit="10" d="M1574.359,1285.418h-45v21.797h-1.063l-5.322,159.203
		h75.389l0,0l0,0v85c22.221,0,50.674,0,87,0c1.01,0,1.999-0.033,3-0.049v-227.951h-107L1574.359,1285.418z"/>
	<path id="r203" fill="#939598" stroke="#494949" stroke-miterlimit="10" d="M1689.359,1322.418v1h-1v227.951
		c31.505-0.484,58.346-8.564,81-20.674v-208.277H1689.359L1689.359,1322.418z"/>
	<polygon id="r243" fill="#939598" stroke="#494949" stroke-miterlimit="10" points="1634.359,1677.208 1515.359,1674.418 
		1515.359,1819.418 1634.359,1819.418 	"/>
	<polygon id="r242" fill="#939598" stroke="#494949" stroke-miterlimit="10" points="1728.859,1679.418 1666.359,1677.956 
		1666.359,1783.418 1706.359,1783.418 1706.359,1783.418 1706.359,1783.418 1706.359,1958.079 1767.359,1959.549 1767.359,1720.004 
			"/>
	<path id="r241" fill="#939598" stroke="#494949" stroke-miterlimit="10" d="M1830.359,1786.418l-63-66.414v239.545l100,2.412
		v-150.596C1842.101,1801.288,1830.359,1786.418,1830.359,1786.418z"/>
	<path id="r240" fill="#939598" stroke="#494949" stroke-miterlimit="10" d="M1914.359,1820.418c-19.06-0.328-34.641-4.119-47-9.053
		v150.596l19,0.457l8.009-13c25.313,12.033,49.43,14.25,68.991,12.732V1823.36
		C1946.158,1822.301,1914.359,1820.418,1914.359,1820.418z"/>
	<path id="r239" fill="#939598" stroke="#494949" stroke-miterlimit="10" d="M1963.359,1823.362v138.789
		c27.588-2.143,46.107-11.721,46.107-11.721l8.893,12.043l31,0.578v-146.824C2020.343,1825.317,1990.958,1825.061,1963.359,1823.362
		z"/>
	<path id="r238" fill="#939598" stroke="#494949" stroke-miterlimit="10" d="M2133.359,1777.418h-21
		c-20.213,20.213-41.508,32.074-63,38.809v146.824l84,1.57V1777.418z"/>
	<path id="r229-1" fill="#939598" stroke="#494949" stroke-miterlimit="10" d="M3226.359,1451.418h-115l-47.832,45.066h169.996
		C3230.556,1468.631,3226.359,1451.418,3226.359,1451.418z"/>
	<path id="r229-2" fill="#939598" stroke="#494949" stroke-miterlimit="10" d="M3063.529,1496.487l-50.943,47.998h223.773
		c-0.219-18.064-1.377-34.311-2.836-47.998H3063.529z"/>
	<path id="r230-232" fill="#939598" stroke="#494949" stroke-miterlimit="10" d="M3012.585,1544.485l-247.229,232.936h-76v150
		c0,0,88.875,28.043,88.516,28.002c141.527,16.004,253.484-52.002,253.484-52.002l-59-101c73-45,104-101,104-101l101,64
		c49.113-73.67,59.752-158.164,59-220.936H3012.585z"/>
	<polygon id="r237" fill="#939598" stroke="#494949" stroke-miterlimit="10" points="2162.412,1777.418 2162.412,1965.118 
		2249.404,1966.827 2249.404,1777.418 	"/>
	<polygon id="r236" fill="#939598" stroke="#494949" stroke-miterlimit="10" points="2338.359,1777.418 2249.404,1777.418 
		2249.404,1966.827 2338.359,1968.575 	"/>
	<polygon id="r235" fill="#939598" stroke="#494949" stroke-miterlimit="10" points="2338.359,1777.418 2338.359,1968.575 
		2442.359,1970.62 2442.359,1777.418 	"/>
	<polygon id="r234-2" fill="#939598" stroke="#494949" stroke-miterlimit="10" points="2442.359,1777.418 2442.359,1970.62 
		2493.359,1971.622 2493.359,1777.418 	"/>
	<polygon id="r233" fill="#939598" stroke="#494949" stroke-miterlimit="10" points="2636.339,1777.418 2543.359,1777.418 
		2543.359,1972.604 2636.339,1974.432 	"/>
	<polygon id="r234-1" fill="#939598" stroke="#494949" stroke-miterlimit="10" points="2493.359,1777.418 2493.359,1971.622 
		2543.359,1972.604 2543.359,1777.418 	"/>
	
		<rect id="r216-2" x="2723.382" y="419.544" fill="#939598" stroke="#494949" stroke-miterlimit="10" width="49.496" height="218.21"/>
	<path id="r217" fill="#939598" stroke="#494949" stroke-miterlimit="10" d="M2772.878,419.544v218.21h9.002
		c0,0,26.06-64.092,97.494-89.479v-128.73L2772.878,419.544L2772.878,419.544z"/>
	<path id="r218" fill="#939598" stroke="#494949" stroke-miterlimit="10" d="M2879.375,419.544v128.73
		c17.639-6.271,38.033-10.188,61.498-10.188c7.744,0,15.768,0.301,23.998,0.858v-119.4H2879.375L2879.375,419.544z"/>
	<path id="r219" fill="#939598" stroke="#494949" stroke-miterlimit="10" d="M3066.068,357.45l-0.709-0.03v-16l-7.484-0.189
		l-41.375-1.054l-50.129-1.275l0,0l-1.5,80.645v119.402c32.201,2.183,67.584,8.336,101.994,16.124V357.484L3066.068,357.45z"/>
	<path id="r220" fill="#939598" stroke="#494949" stroke-miterlimit="10" d="M3161.181,421.521l-1.821-0.104v-60l-92.493-3.936
		V555.07c33.737,7.636,66.539,16.842,94.496,25.418V421.531L3161.181,421.521z"/>
	<polygon id="r221-3-222-1" fill="#939598" stroke="#494949" stroke-miterlimit="10" points="3638.359,586.419 3658.359,586.419 
		3658.359,544.419 3636.359,544.419 3636.359,479.419 3583.359,475.419 3583.359,457.419 3434.345,450.733 3434.345,538.088 
		3485.359,538.088 3485.359,614.088 3557.359,614.088 3557.359,641.533 3557.359,670.753 3502.691,670.753 3481.359,737.42 
		3431.35,737.42 3431.35,817.533 3583.359,820.419 3583.359,800.419 3636.359,800.419 3636.359,742.419 3658.359,742.419 
		3658.359,702.419 3638.359,702.419 3638.359,641.533 	"/>
	<polygon id="r216-1" fill="#939598" stroke="#494949" stroke-miterlimit="10" points="2676.884,419.544 2676.884,460.042 
		2676.884,460.042 2676.884,637.754 2723.382,637.754 2723.382,419.544 	"/>
	<rect id="r228-1" x="3079.359" y="1261.418" fill="#939598" stroke="#494949" stroke-miterlimit="10" width="88" height="56.58"/>
	<rect id="r228-2" x="3079.359" y="1318" fill="#939598" stroke="#494949" stroke-miterlimit="10" width="88" height="53.42"/>
	<polygon id="r223" fill="#939598" stroke="#494949" stroke-miterlimit="10" points="3252.359,857.521 3252.359,790.025 
		3252.359,789.419 3133.582,789.419 3079.359,859.134 3079.359,859.419 3252.359,859.419 	"/>
	<polygon id="r224-1" fill="#939598" stroke="#494949" stroke-miterlimit="10" points="3285.359,859.419 3252.359,859.419 
		3079.359,859.419 3079.359,905.419 3284.062,905.419 	"/>
	<polygon id="r224-2" fill="#939598" stroke="#494949" stroke-miterlimit="10" points="3284.062,905.419 3079.359,905.419 
		3079.359,955.419 3282.652,955.419 	"/>
	<polygon id="r225" fill="#939598" stroke="#494949" stroke-miterlimit="10" points="3281.074,1011.419 3079.359,1011.419 
		3079.359,1065.418 3279.55,1065.418 	"/>
	<polygon id="r226-227" fill="#939598" stroke="#494949" stroke-miterlimit="10" points="3079.359,1065.418 3079.359,1261.418 
		3167.359,1261.418 3167.359,1261.418 3274.025,1261.418 3279.55,1065.418 	"/>
	<polygon id="central-department-store" fill="#939598" stroke="#494949" stroke-miterlimit="10" points="2515.393,455.419 
		2519.729,327.531 2515.359,327.419 2515.359,297.419 2309.359,289.419 2309.359,207.419 1613.359,187.419 1613.359,323.419 
		1590.932,322.791 1561.933,1231.418 2159.359,1231.418 2159.359,1231.418 2256.359,1231.418 2256.359,1231.418 2312.359,1231.418 
		2312.359,1231.418 2365.07,1231.418 2363.96,1323.418 2461.841,1323.418 2463.126,1211.659 2541.847,1140.92 2571.018,455.419 	"/>
	<path id="r205" fill="#939598" stroke="#494949" stroke-miterlimit="10" d="M2066.477,1231.418v205.477
		c0,0,10.884,36.023,46.884,36.023c6.321,0,22.932,0,46,0v-241.5H2066.477z"/>
	<path id="r206" fill="#939598" stroke="#494949" stroke-miterlimit="10" d="M2159.359,1231.418v241.5c25.949,0,60.092,0,97,0
		v-241.5H2159.359z"/>
	<path id="r207-1" fill="#939598" stroke="#494949" stroke-miterlimit="10" d="M2256.359,1231.418v241.5c18.209,0,37.094,0,56,0
		v-241.5H2256.359z"/>
	<path id="r207-2" fill="#939598" stroke="#494949" stroke-miterlimit="10" d="M2363.96,1323.418l1.106-92h-52.711v241.5
		c17.827,0,35.677,0,53,0v-149.5H2363.96z"/>
	<path id="r208" fill="#939598" stroke="#494949" stroke-miterlimit="10" d="M2365.359,1323.418v149.5c35.854,0,69.465,0,96,0
		v-149.5H2365.359z"/>
	<path id="r214-2" fill="#939598" stroke="#494949" stroke-miterlimit="10" d="M2733.359,836.398c-56,0-178.555,0-178.555,0
		l-2.256,53.021h237.035C2788.244,876.458,2780.3,836.398,2733.359,836.398z"/>
	<path id="r214-1" fill="#939598" stroke="#494949" stroke-miterlimit="10" d="M2552.55,889.419l-2.469,58h239.774
		c0-33.231,0-54,0-54s-0.015-1.499-0.271-4H2552.55z"/>
	<path id="r213-1" fill="#939598" stroke="#494949" stroke-miterlimit="10" d="M2548.037,995.516l-2.039,47.904h243.861
		c0-16.851,0-32.933,0-47.904H2548.037L2548.037,995.516z"/>
	<path id="r213-2" fill="#939598" stroke="#494949" stroke-miterlimit="10" d="M2789.859,947.419h-239.775l-2.047,48.096h241.822
		C2789.859,977.686,2789.859,961.438,2789.859,947.419z"/>
	<path id="r212" fill="#939598" stroke="#494949" stroke-miterlimit="10" d="M2545.998,1043.419l-4.148,97.501l-0.555,0.498h95.064
		h15h12h126.5c0-33.688,0-67.111,0-98L2545.998,1043.419L2545.998,1043.419z"/>
	<path id="r211-2" fill="#939598" stroke="#494949" stroke-miterlimit="10" d="M2651.359,1141.418v51h138.5c0-16.871,0-33.969,0-51
		H2651.359z"/>
	<path id="r211-1" fill="#939598" stroke="#494949" stroke-miterlimit="10" d="M2651.359,1192.418v61h125.125
		c5.025-13.939,9.523-28.746,13.375-44.5c0-5.469,0-10.973,0-16.5H2651.359z"/>
	<path id="r210-2" fill="#939598" stroke="#494949" stroke-miterlimit="10" d="M2651.359,1253.418v58h98.635
		c9.857-17.406,18.801-36.682,26.49-58H2651.359z"/>
	<path id="r210-1" fill="#939598" stroke="#494949" stroke-miterlimit="10" d="M2651.359,1311.418v108.344
		c34.809-23.969,70.438-58.559,98.635-108.344H2651.359z"/>
	<path id="r209" fill="#939598" stroke="#494949" stroke-miterlimit="10" d="M2541.294,1141.418l-78.168,70.238l-1.285,111.762
		h-0.48v149.5c34.467,0,57,0,57,0s64.926-6.281,133-53.156v-108.344l0,0v-58l0,0v-61l0,0v-51H2541.294z"/>
	<path id="baskin-robbins" fill="#939598" stroke="#494949" stroke-miterlimit="10" d="M2891.859,905.419
		c0,0-59.318,30.098-34.398,60.097c0,0,55.516,0.701,99.871,11.131v-78.476C2933.779,895.617,2909.451,896.396,2891.859,905.419z"/>
	<path id="au-bon-pain" fill="#939598" stroke="#494949" stroke-miterlimit="10" d="M3033.871,916.019
		c0,0-37.189-13.575-76.539-17.847v78.475c20.695,4.866,38.965,11.85,48.027,21.868l28.512-15.095
		C3033.871,983.419,3057.871,940.017,3033.871,916.019z"/>
	
		<rect id="coldstone" x="2636.359" y="1544.485" fill="#939598" stroke="#494949" stroke-miterlimit="10" width="46" height="116.936"/>
	
		<rect id="kamu" x="1811.875" y="1720.8" transform="matrix(-0.6834 -0.73 0.73 -0.6834 1859.1333 4274.4043)" fill="#939598" stroke="#494949" stroke-miterlimit="10" width="88.998" height="26.583"/>
	<path id="haagen-dazs" fill="#939598" stroke="#494949" stroke-miterlimit="10" d="M1995.307,1729.333
		c0,0-1.767-94.754,103.116-104.754C2097.306,1626.579,2120.261,1729.19,1995.307,1729.333z"/>
</g>
<g id="signs">
	<g id="escalator">
		<rect x="1924.859" y="1592.418" width="45" height="45"/>
		<rect x="2725.359" y="1560.918" width="45" height="45"/>
		<rect x="2869.359" y="1406.418" width="45" height="45"/>
		<rect x="2926.352" y="681.428" width="45" height="45"/>
	</g>
	<g id="lift">
		<rect x="1498.359" y="1113.418" width="45" height="45"/>
		<rect x="1547.359" y="515.419" width="45" height="45"/>
		<rect x="1498.359" y="1186.418" width="45" height="45"/>
		<rect x="2744.859" y="1427.918" width="45" height="45"/>
		<rect x="3403.328" y="562.93" width="45" height="45"/>
		<rect x="3403.328" y="664.031" width="45" height="45"/>
	</g>
	<g id="toilet">
		<rect x="1529.359" y="1880.418" width="45" height="45"/>
		<rect x="2611.341" y="364.17" width="45" height="45"/>
	</g>
	<g id="parking">
		<rect x="1137.79" y="1200.418" width="45" height="45"/>
		<rect x="341.208" y="1068.418" width="45" height="45"/>
	</g>
	<rect id="valet-parking" x="1178.79" y="882.919" width="45" height="45"/>
	<rect id="handicapped-parking" x="1178.79" y="1773.672" width="45" height="45"/>
	<rect id="lady-parking" x="1108.29" y="1570.918" width="45" height="45"/>
	<rect id="wifi" x="1776.359" y="1591.579" width="45" height="45"/>
</g>
</svg>
