<?xml version="1.0" encoding="utf-8"?>
<!-- Generator: Adobe Illustrator 16.0.3, SVG Export Plug-In . SVG Version: 6.00 Build 0)  -->
<!DOCTYPE svg PUBLIC "-//W3C//DTD SVG 1.1//EN" "http://www.w3.org/Graphics/SVG/1.1/DTD/svg11.dtd">
<svg version="1.1" id="Layer_1" xmlns="http://www.w3.org/2000/svg" xmlns:xlink="http://www.w3.org/1999/xlink" x="0px" y="0px"
	 width="3797.242px" height="2105.579px" viewBox="0 0 3797.242 2105.579" enable-background="new 0 0 3797.242 2105.579"
	 xml:space="preserve">
<g id="background">
</g>
<g id="etc">
	<path fill="#BFBFBF" stroke="#494949" stroke-miterlimit="10" d="M3658.359,586.419v-42h-22v-65l-53-4v-18l-236-10.59l-76-3.41v20
		l-30.502-1.604l-45.498-2.396v-36l-34.178-1.897l-1.822-0.103v-60l-93.291-3.97l-0.709-0.03v-16l-98.988-2.52l-451.012-11.48
		l-0.654-39.333h-204.012l0.586-94.667h-697.919v130l-83.872-2.352l-3.296-0.094l-3.068-0.086
		c0.906-6.982,1.381-14.093,1.381-21.308c0-95.599-81.928-173.097-182.991-173.097c-101.063,0-182.991,77.498-182.991,173.097
		c0,3.729,0.14,7.426,0.386,11.096l-187.547-5.258l-204,698v155h-234l58-395l-56.697-8.798
		c-5.847-64.911-59.704-115.76-125.29-115.76c-52.282,0-97.113,32.312-116.113,78.301l-49.9-7.743l-102,740l50.044,7.436
		c-0.264,3.371-0.403,6.779-0.403,10.223c0,70.412,56.334,127.494,125.826,127.494c60.454,0,110.942-43.203,123.055-100.801
		l51.479,7.648l17-131h264l-0.311,27.455c-105.165,7.893-187.951,92.59-187.951,195.914c0,94.631,59.088,155.164,124.262,190.631
		c93.818,51.055,290,160,290,160h91l379.826,0.689l720.173,1.311h473h42.871c0,0,336.533,15.93,471.127-146.971
		c119.002-144.029,109.002-440.953,109.002-440.953V859.419h-33v-1.896v-67.497v-0.606h13l2,25l82.992,1.576l233.008,4.424v-20h53
		v-58h22v-40h-20v-116H3658.359z M357.358,1502.088c-12,12-40.667,42-81.333,0c-22.667-28.668,4.667-33.334,4.667-33.334l72,10.666
		C352.691,1479.42,369.358,1490.088,357.358,1502.088z M445.673,769.729l-71.595-12.776c0,0-16.395-11.65-4.164-24.129
		c12.23-12.479,41.478-43.705,81.136,1.657C473.041,765.336,445.673,769.729,445.673,769.729z M785.359,1698.418c-32-1-93-36-91-105
		c0,0-8-66,81-92c2,1,35-10,35,9s0,166,0,166S817.359,1699.418,785.359,1698.418z M1416.938,313.725
		c-16.295-0.396-142.362-3.467-142.362-3.467s-19.861,5.096-18.382-20.374c1.479-25.47,32.678-73.329,91.813-70.294
		c0,0,56.757-4.993,77.328,66.443C1424.439,287.606,1433.233,314.123,1416.938,313.725z"/>
	<polygon fill="#BFBFBF" stroke="#494949" stroke-miterlimit="10" points="2974.025,855.419 2974.025,782.085 2878.693,782.085 
		2878.693,722.752 2828.693,722.752 2828.693,806.752 2747.474,806.752 2747.474,818.085 2812.693,818.085 2812.693,908.985 
		2861.269,908.985 2861.269,910.085 2861.269,974.558 3100.693,974.558 3100.693,855.419 	"/>
	<polygon fill="#BFBFBF" stroke="#494949" stroke-miterlimit="10" points="2180.025,1676.752 2180.025,1634.086 2180.025,1598.752 
		2180.025,1560.086 2180.025,1504.217 2141.361,1504.217 2102.025,1504.217 2102.025,1560.086 2102.025,1576.752 2036.027,1576.752 
		2036.027,1664.821 2010.859,1664.821 2010.859,1744.918 2058.693,1744.918 2058.693,1744.752 2101.361,1744.752 2139.361,1744.752 
		2179.361,1744.752 2221.814,1744.752 2221.814,1676.752 	"/>
	<polygon fill="#BFBFBF" stroke="#494949" stroke-miterlimit="10" points="2221.814,1504.217 2180.025,1504.217 2180.025,1560.086 
		2180.025,1560.086 2180.025,1598.752 2221.814,1598.752 	"/>
</g>
<g id="rooms_1_">
	
		<rect id="touchoforchid" x="2058.693" y="1744.752" fill="#939598" stroke="#494949" stroke-miterlimit="10" width="42.668" height="65.867"/>
	
		<rect id="mrs-laundry" x="2101.361" y="1744.752" fill="#939598" stroke="#494949" stroke-miterlimit="10" width="38" height="65.867"/>
	
		<rect id="fast-time" x="2139.361" y="1744.752" fill="#939598" stroke="#494949" stroke-miterlimit="10" width="40" height="65.867"/>
	
		<rect id="nam-bat-duan" x="2179.361" y="1744.752" fill="#939598" stroke="#494949" stroke-miterlimit="10" width="42.453" height="65.867"/>
	<polygon id="safina-jewelry-clinic" fill="#939598" stroke="#494949" stroke-miterlimit="10" points="2180.025,1598.752 
		2180.025,1634.086 2180.025,1676.752 2221.814,1676.752 2221.814,1634.086 2221.814,1598.752 	"/>
	
		<rect id="gl-graphic" x="2747.474" y="818.085" fill="#939598" stroke="#494949" stroke-miterlimit="10" width="65.219" height="33.334"/>
	
		<rect id="mr-bag" x="2747.474" y="851.419" fill="#939598" stroke="#494949" stroke-miterlimit="10" width="65.219" height="57.566"/>
	
		<rect id="balloon-art" x="2747.474" y="722.752" fill="#939598" stroke="#494949" stroke-miterlimit="10" width="81.219" height="84"/>
	<polygon id="i-love-pet" fill="#939598" stroke="#494949" stroke-miterlimit="10" points="3100.693,722.752 2974.025,722.752 
		2974.025,782.085 2974.025,855.419 3100.693,855.419 	"/>
	
		<rect id="expert" x="2878.693" y="722.752" fill="#939598" stroke="#494949" stroke-miterlimit="10" width="95.334" height="59.333"/>
	<polygon id="officemate" fill="#939598" stroke="#494949" stroke-miterlimit="10" points="1969.859,1504.217 1969.859,1664.821 
		1969.859,1744.752 1969.859,1810.622 2010.859,1810.622 2010.859,1744.918 2010.859,1664.821 2035.824,1664.821 2036.027,1576.752 
		2102.025,1576.752 2102.025,1560.086 2102.025,1504.217 	"/>
	
		<rect id="proman" x="2010.859" y="1744.918" fill="#939598" stroke="#494949" stroke-miterlimit="10" width="47.834" height="65.701"/>
</g>
<g id="signs">
	<g id="escalator">
		<rect x="2013.443" y="1605.918" width="45" height="45"/>
		<rect x="2888.824" y="812.252" width="45" height="45"/>
	</g>
	<g id="parking">
		<rect x="1160.29" y="1096.92" width="45" height="45"/>
		<rect x="341.208" y="1068.418" width="45" height="45"/>
	</g>
	<rect id="handicapped-parking" x="1115.29" y="1759.196" width="45" height="45"/>
</g>
</svg>
