<?xml version="1.0" encoding="utf-8"?>
<!-- Generator: Adobe Illustrator 16.0.3, SVG Export Plug-In . SVG Version: 6.00 Build 0)  -->
<!DOCTYPE svg PUBLIC "-//W3C//DTD SVG 1.1//EN" "http://www.w3.org/Graphics/SVG/1.1/DTD/svg11.dtd">
<svg version="1.1" xmlns="http://www.w3.org/2000/svg" xmlns:xlink="http://www.w3.org/1999/xlink" x="0px" y="0px"
	 width="841.89px" height="595.28px" viewBox="0 0 841.89 595.28" enable-background="new 0 0 841.89 595.28" xml:space="preserve">
<g id="ETC">
	<path fill="none" stroke="#FBB040" stroke-width="0.5" stroke-miterlimit="10" d="M655.744,404.92l-5.244-4.337
		c0,0-17.417,4.5-26.084,13.167s-12.875,25.542-12.875,25.542l5.301,5.301C636.96,441.231,652.772,425.167,655.744,404.92z"/>
	
		<rect x="633.595" y="177.299" transform="matrix(0.7045 0.7097 -0.7097 0.7045 320.2077 -410.3715)" fill="none" stroke="#FBB040" stroke-width="0.5" stroke-miterlimit="10" width="38.588" height="4.058"/>
	
		<rect x="592.968" y="177.299" transform="matrix(-0.7072 0.707 -0.707 -0.7072 1172.0295 -126.7467)" fill="none" stroke="#FBB040" stroke-width="0.5" stroke-miterlimit="10" width="38.587" height="4.058"/>
	
		<rect x="345.023" y="399.96" transform="matrix(0.7097 -0.7045 0.7045 0.7097 -177.4409 373.3442)" fill="none" stroke="#FBB040" stroke-width="0.5" stroke-miterlimit="10" width="38.588" height="4.058"/>
	
		<rect x="345.024" y="440.156" transform="matrix(0.707 0.7072 -0.7072 0.707 419.4292 -128.0934)" fill="none" stroke="#FBB040" stroke-width="0.5" stroke-miterlimit="10" width="38.588" height="4.058"/>
	
		<rect x="601.25" y="352.625" fill="none" stroke="#FBB040" stroke-width="0.5" stroke-miterlimit="10" width="38.125" height="3.875"/>
	<rect x="563" y="391.125" fill="none" stroke="#FBB040" stroke-width="0.5" stroke-miterlimit="10" width="5" height="37.625"/>
	<polygon fill="none" stroke="#FBB040" stroke-width="0.5" stroke-miterlimit="10" points="600.667,215 617.917,231.917 
		623.083,226.833 642.417,226.917 647.417,231.917 664.75,215 659.333,209.75 659.5,190.25 660.105,189.479 643.044,172.29 
		642.333,173.25 623,173.25 622.17,172.29 604.895,189.562 605.5,190.333 605.75,210 	"/>
	<path fill="none" stroke="#FBB040" stroke-width="0.5" stroke-miterlimit="10" d="M656.219,396.77
		c-0.035-1.302-0.107-2.594-0.244-3.868c-1.426-13.288-8.359-24.924-18.474-32.585c-0.293-0.223-0.595-0.434-0.894-0.649
		c-7.767-5.604-17.297-8.917-27.605-8.917c-1.095,0-2.176,0.051-3.252,0.124v9.45h-2.575l-4.342,4.342v3.834h-4.749v8.166
		l-6.917,6.917H579v4.917h-3.75l-4.333,4.333v2.583h-9.093c-0.046,0.856-0.073,1.718-0.073,2.585c0,10.31,3.312,19.841,8.916,27.608
		c7.542,10.454,19.249,17.695,32.694,19.296c1.851,0.22,3.73,0.347,5.641,0.347c2.672,0,5.288-0.233,7.84-0.659l-5.301-5.301
		c0,0,4.208-16.875,12.875-25.542s26.084-13.167,26.084-13.167l5.244,4.337c0.331-2.259,0.509-4.568,0.509-6.919
		C656.253,397.588,656.229,397.18,656.219,396.77z"/>
	<polygon fill="none" stroke="#FBB040" stroke-width="0.5" stroke-miterlimit="10" points="611.5,249.5 607.625,252.833 
		607.625,268.688 611.5,271.313 611.5,299.166 607.625,302.5 607.625,318.354 611.5,320.979 611.5,325.125 618.5,333.75 
		646.875,333.75 654,324.875 654,249.5 	"/>
	<path fill="none" stroke="#FBB040" stroke-width="0.5" stroke-miterlimit="10" d="M718.592,260.917v-10.583h-45.55v-16.792
		l8.542-8.542v-51.583l-22.751-22.75h-49.666l-24.5,24.5H540.5v-51.333H634V99.606H515.622v13.572h-12.973v-7.185h-17.763V124.5
		h49.863v98.75h50.375v50.625l4.75,3.25v11.125l-4.25,3.681v11.875l8.534,8.534V335.5c0,0-31.326,5.499-44.826,38.333h-92.999
		l-8.667,8.501h-27.833l-10.667-10.667V322.25H361.5v49.416l-24.667,26.5h-26.667l-9.833,10.334H283V436h47.667l3.833,10.5
		l24.833,24.667h68.833v33.166h6v-42h108.5l6.5-8.666h10.5v54.341H568V485.17h-2.5v-22.837c0,0,42.834,2.502,59.834-2.165
		s41.168-19.667,46.334-46.167s1.709-42.333,1.709-42.333h36.212c0,0-1.315-9.482-4.04-15.168h-32.172v-35.959l-3.207-3.207v-13.607
		l2.893-2.893v-5.521l-3.381-3.381v-13.228l3.037-3.037v-5.01L670.063,268v-12.188l2.979-2.979H697v8.083H718.592z"/>
	<polygon fill="none" stroke="#FBB040" stroke-width="0.5" stroke-miterlimit="10" points="262.25,409.667 268.583,409.667 
		273.667,414.75 273.667,429.75 268.75,434.667 262.25,434.667 	"/>
	<path fill="none" stroke="#FBB040" stroke-width="0.5" stroke-miterlimit="10" d="M812.792,142.715v-13.971h-13.371v-4.99H714.4
		v4.99h-19.559v-11.575h-10.378v-12.175h-26.145v-5.389H515.622v13.572h-12.973v-7.185h-17.763V93.419h-22.552V73.462H283.514
		v17.962h-23.351l0.2,132.12h11.176v72.38h-15.301v43.907h-3.193v168.177h359.24c0,0,45.237-0.532,75.306-32.198
		c30.07-31.667,31.002-80.829,31.002-80.829v-38.718V250v-2.506v-26.327h-10.378v-11.791v-2.995h6.586v5.788h84.421v-6.188h13.771
		v-13.371h5.588v-49.894H812.792z"/>
	<polygon fill="none" stroke="#FBB040" stroke-width="0.5" stroke-miterlimit="10" points="285,322.25 285,248.75 271.539,248.75 
		271.539,295.924 256.238,295.924 256.238,339.831 285,339.831 	"/>
	<polygon fill="none" stroke="#FBB040" stroke-width="0.5" stroke-miterlimit="10" points="256.238,339.831 253.044,339.831 
		253.044,398.667 273,398.667 273,339.831 	"/>
	<polygon fill="none" stroke="#FBB040" stroke-width="0.5" stroke-miterlimit="10" points="536.625,401.375 435.625,401.375 
		435.625,443.25 537.242,443.25 543.375,436.625 543.375,408.5 	"/>
	<path fill="none" stroke="#FBB040" stroke-width="0.5" stroke-miterlimit="10" d="M669.25,477.625l0.717,3.197
		c4.276-2.729,7.888-5.509,10.534-8.154c3.876-3.875,7.839-8.416,11.643-13.979l-2.394-0.563
		C682.75,461.125,669.25,477.625,669.25,477.625z"/>
</g>
<g id="Background">
	<rect fill="#FFFFFF" width="841.89" height="595.28"/>
</g>
<g id="Original">
	
		<image overflow="visible" width="3508" height="2479" xlink:href="FLOOR_PLAN_4.jpg"  transform="matrix(0.1916 0 0 0.1916 226.8184 54.4502)">
	</image>
</g>
<g id="Signs">
	<rect id="elevator" x="586.754" y="374.929" opacity="0.8" width="14.811" height="14.811"/>
	<g id="telephone">
		<rect x="309.345" y="457.264" opacity="0.8" width="14.811" height="14.811"/>
		<rect x="527.762" y="146.833" opacity="0.8" width="14.811" height="14.811"/>
	</g>
	<g id="escalator">
		<rect x="573.731" y="364.263" opacity="0.8" width="14.811" height="14.811"/>
		<rect x="625.303" y="154.239" opacity="0.8" width="14.811" height="14.811"/>
		<rect x="339.5" y="414.762" opacity="0.8" width="14.811" height="14.811"/>
	</g>
	<g id="toilet">
		<rect x="521.595" y="104.995" opacity="0.8" width="14.811" height="14.811"/>
		<rect x="293.095" y="477.766" opacity="0.8" width="14.811" height="14.811"/>
	</g>
</g>
<g id="Rooms">
	<polygon fill="#939598" stroke="#FFFFFF" stroke-width="0.5" stroke-miterlimit="10" points="285,322.25 508.25,322.25 
		532.75,297.64 532.75,223.25 534.75,223.25 534.75,124.5 484.887,124.5 484.887,105.993 484.887,93.419 462.335,93.419 
		462.335,73.462 283.514,73.462 283.514,91.424 260.163,91.424 260.362,223.544 271.539,223.544 271.539,248.75 285,248.75 	"/>
	<polygon fill="#939598" stroke="#FFFFFF" stroke-width="0.5" stroke-miterlimit="10" points="812.792,142.715 812.792,128.745 
		799.421,128.745 799.421,123.755 733,123.755 733,212.168 799.221,212.168 799.221,205.98 812.992,205.98 812.992,192.609 
		818.58,192.609 818.58,142.715 	"/>
	<polygon fill="#939598" stroke="#FFFFFF" stroke-width="0.5" stroke-miterlimit="10" points="658.319,150.667 658.319,151.262 
		658.919,150.753 658.833,150.667 	"/>
	<polygon fill="#939598" stroke="#FFFFFF" stroke-width="0.5" stroke-miterlimit="10" points="658.319,99.606 634,99.606 
		634,123.833 634,150.667 658.319,150.667 658.319,104.995 	"/>
	<polygon fill="#939598" stroke="#FFFFFF" stroke-width="0.5" stroke-miterlimit="10" points="584.166,123.833 584.166,175.167 
		584.667,175.167 609.167,150.667 634,150.667 634,123.833 	"/>
	<polygon fill="#939598" stroke="#FFFFFF" stroke-width="0.5" stroke-miterlimit="10" points="673.042,250.333 718.592,250.333 
		718.592,247.833 718.765,236.563 673.042,236.563 	"/>
	
		<rect x="540.5" y="123.833" fill="#939598" stroke="#FFFFFF" stroke-width="0.5" stroke-miterlimit="10" width="14.166" height="51.333"/>
	
		<rect x="570" y="123.833" fill="#939598" stroke="#FFFFFF" stroke-width="0.5" stroke-miterlimit="10" width="14.166" height="51.333"/>
	
		<rect x="554.666" y="123.833" fill="#939598" stroke="#FFFFFF" stroke-width="0.5" stroke-miterlimit="10" width="15.334" height="51.333"/>
	<polygon fill="#939598" stroke="#FFFFFF" stroke-width="0.5" stroke-miterlimit="10" points="707.167,199.833 681.584,199.833 
		681.584,224.938 708.214,224.938 708.214,221.083 708.214,206.38 707.167,206.375 	"/>
	<polygon fill="#939598" stroke="#FFFFFF" stroke-width="0.5" stroke-miterlimit="10" points="733,212.168 733,146.833 
		684.5,146.833 669.013,160.846 681.584,173.417 681.584,199.833 707.167,199.833 707.167,206.375 708.214,206.38 714.8,206.38 
		714.8,212.168 	"/>
	<polygon fill="#939598" stroke="#FFFFFF" stroke-width="0.5" stroke-miterlimit="10" points="694.842,128.745 694.842,117.169 
		684.464,117.169 684.464,104.995 658.319,104.995 658.319,150.667 658.833,150.667 658.919,150.753 684.833,128.745 	"/>
	<polygon fill="#939598" stroke="#FFFFFF" stroke-width="0.5" stroke-miterlimit="10" points="681.584,224.938 681.584,225 
		673.042,233.542 673.042,236.563 718.765,236.563 719.001,221.083 708.214,221.083 708.214,224.938 	"/>
	<polygon fill="#939598" stroke="#FFFFFF" stroke-width="0.5" stroke-miterlimit="10" points="733,146.833 733,123.755 
		714.4,123.755 714.4,128.745 694.842,128.745 684.833,128.745 658.919,150.753 669.013,160.846 684.5,146.833 	"/>
	
		<rect x="458.833" y="322.25" fill="#939598" stroke="#FFFFFF" stroke-width="0.5" stroke-miterlimit="10" width="26.985" height="51.583"/>
	<polygon fill="#939598" stroke="#FFFFFF" stroke-width="0.5" stroke-miterlimit="10" points="431.333,322.25 431.333,382.334 
		447.667,382.334 456.334,373.833 458.833,373.833 458.833,322.25 	"/>
	<polygon fill="#939598" stroke="#FFFFFF" stroke-width="0.5" stroke-miterlimit="10" points="409.167,322.25 409.167,371.667 
		419.833,382.334 431.333,382.334 431.333,322.25 	"/>
	<polygon fill="#939598" stroke="#FFFFFF" stroke-width="0.5" stroke-miterlimit="10" points="585.125,223.25 534.75,223.25 
		532.75,223.25 532.75,247.5 585.125,247.5 	"/>
	
		<rect x="532.75" y="291.931" fill="#939598" stroke="#FFFFFF" stroke-width="0.5" stroke-miterlimit="10" width="52.875" height="5.709"/>
	
		<rect x="532.75" y="247.5" fill="#939598" stroke="#FFFFFF" stroke-width="0.5" stroke-miterlimit="10" width="52.375" height="26"/>
	
		<rect x="532.75" y="273.5" fill="#939598" stroke="#FFFFFF" stroke-width="0.5" stroke-miterlimit="10" width="11.917" height="18.431"/>
	<polygon fill="#939598" stroke="#FFFFFF" stroke-width="0.5" stroke-miterlimit="10" points="585.125,273.875 585.125,273.5 
		544.667,273.5 544.667,291.931 585.625,291.931 589.875,288.25 589.875,277.125 	"/>
	
		<rect x="485.818" y="343.834" fill="#939598" stroke="#FFFFFF" stroke-width="0.5" stroke-miterlimit="10" width="22.849" height="29.999"/>
	<polygon fill="#939598" stroke="#FFFFFF" stroke-width="0.5" stroke-miterlimit="10" points="508.667,321.831 508.25,322.25 
		485.818,322.25 485.818,343.834 508.667,343.834 	"/>
	<polygon fill="#939598" stroke="#FFFFFF" stroke-width="0.5" stroke-miterlimit="10" points="508.667,343.834 508.667,373.833 
		549.333,373.833 517,343.834 	"/>
	<path fill="#939598" stroke="#FFFFFF" stroke-width="0.5" stroke-miterlimit="10" d="M594.159,335.5l-31.285-28.167v-9.693H532.75
		l-24.083,24.191v22.003H517l32.333,29.999C562.833,340.999,594.159,335.5,594.159,335.5z"/>
	<polygon fill="#939598" stroke="#FFFFFF" stroke-width="0.5" stroke-miterlimit="10" points="585.625,303.807 585.625,297.64 
		562.874,297.64 562.874,307.333 594.159,335.5 594.159,312.341 	"/>
	<polygon fill="#939598" stroke="#FFFFFF" stroke-width="0.5" stroke-miterlimit="10" points="718.592,260.917 697,260.917 
		697,252.833 673.042,252.833 670.063,255.813 670.063,268 672.719,270.656 672.719,274.667 718.592,274.667 	"/>
	<polygon fill="#939598" stroke="#FFFFFF" stroke-width="0.5" stroke-miterlimit="10" points="718.592,274.667 672.719,274.667 
		672.719,275.667 669.682,278.703 669.682,291.931 673.063,295.313 673.063,299.167 718.592,299.167 	"/>
	<polygon fill="#939598" stroke="#FFFFFF" stroke-width="0.5" stroke-miterlimit="10" points="718.592,299.167 673.063,299.167 
		673.063,300.834 670.17,303.727 670.17,317.334 673.377,320.541 673.377,324.334 718.592,324.334 	"/>
	
		<rect x="673.377" y="324.334" fill="#939598" stroke="#FFFFFF" stroke-width="0.5" stroke-miterlimit="10" width="19.874" height="32.166"/>
	<polygon fill="#939598" stroke="#FFFFFF" stroke-width="0.5" stroke-miterlimit="10" points="693.251,324.334 693.251,356.5 
		718.592,356.5 718.592,356.263 718.592,324.334 	"/>
	
		<rect x="611.5" y="274.667" fill="#939598" stroke="#FFFFFF" stroke-width="0.5" stroke-miterlimit="10" width="7.751" height="20.833"/>
	<polygon fill="#939598" stroke="#FFFFFF" stroke-width="0.5" stroke-miterlimit="10" points="600.667,181 601.667,184.75 
		619,167.583 615.083,166.5 	"/>
	<polygon fill="#939598" stroke="#FFFFFF" stroke-width="0.5" stroke-miterlimit="10" points="647.167,168.417 664.75,185.667 
		665.5,181.333 651,167 	"/>
	<polygon fill="#939598" stroke="#FFFFFF" stroke-width="0.5" stroke-miterlimit="10" points="647.167,238.167 650.75,238.167 
		664.75,223.667 664.75,215 647.417,231.917 	"/>
	<polygon fill="#939598" stroke="#FFFFFF" stroke-width="0.5" stroke-miterlimit="10" points="600.667,215 617.917,231.917 
		617.917,238.167 614.833,238.167 600.667,224 	"/>
	<polygon fill="#939598" stroke="#FFFFFF" stroke-width="0.5" stroke-miterlimit="10" points="617.917,231.917 647.417,231.917 
		642.417,226.917 623.083,226.833 	"/>
	
		<rect x="458.833" y="401.375" fill="#939598" stroke="#FFFFFF" stroke-width="0.5" stroke-miterlimit="10" width="51.167" height="11.875"/>
	<polygon fill="#939598" stroke="#FFFFFF" stroke-width="0.5" stroke-miterlimit="10" points="359.333,471.167 334.5,446.5 
		334.5,508.008 361.5,508.008 361.5,471.167 	"/>
	
		<rect x="385.333" y="471.167" fill="#939598" stroke="#FFFFFF" stroke-width="0.5" stroke-miterlimit="10" width="25.667" height="36.841"/>
	
		<rect x="361.5" y="471.167" fill="#939598" stroke="#FFFFFF" stroke-width="0.5" stroke-miterlimit="10" width="23.833" height="36.841"/>
	<polygon fill="#939598" stroke="#FFFFFF" stroke-width="0.5" stroke-miterlimit="10" points="559.667,453.667 549.167,453.667 
		542.667,462.333 535.167,462.333 535.167,508.008 559.667,508.008 	"/>
	
		<rect x="485.334" y="462.333" fill="#939598" stroke="#FFFFFF" stroke-width="0.5" stroke-miterlimit="10" width="24.666" height="45.675"/>
	
		<rect x="510" y="462.333" fill="#939598" stroke="#FFFFFF" stroke-width="0.5" stroke-miterlimit="10" width="25.167" height="45.675"/>
	<polygon fill="#939598" stroke="#FFFFFF" stroke-width="0.5" stroke-miterlimit="10" points="434.167,462.333 434.167,504.333 
		434.167,508.008 460.667,508.008 460.667,462.333 	"/>
	<polygon fill="#939598" stroke="#FFFFFF" stroke-width="0.5" stroke-miterlimit="10" points="428.167,504.333 428.167,471.167 
		411,471.167 411,508.008 434.167,508.008 434.167,504.333 	"/>
	
		<rect x="460.667" y="462.333" fill="#939598" stroke="#FFFFFF" stroke-width="0.5" stroke-miterlimit="10" width="24.667" height="45.675"/>
	<polygon fill="#939598" stroke="#FFFFFF" stroke-width="0.5" stroke-miterlimit="10" points="253.044,398.667 253.044,445.667 
		273.167,445.667 283,435.834 283,408.667 273,398.667 	"/>
	<polygon fill="#939598" stroke="#FFFFFF" stroke-width="0.5" stroke-miterlimit="10" points="336.667,322.25 336.667,398.166 
		336.833,398.166 361.5,371.666 361.5,322.25 	"/>
	<polygon fill="#939598" stroke="#FFFFFF" stroke-width="0.5" stroke-miterlimit="10" points="312.5,349.334 312.5,322.25 
		285,322.25 285,339.831 285,349.334 	"/>
	<polygon fill="#939598" stroke="#FFFFFF" stroke-width="0.5" stroke-miterlimit="10" points="312.5,322.25 312.5,349.334 
		285,349.334 285,339.831 273,339.831 273,398.667 283,408.667 283,408.5 300.333,408.5 310.167,398.166 336.667,398.166 
		336.667,322.25 	"/>
	<polygon fill="#939598" stroke="#FFFFFF" stroke-width="0.5" stroke-miterlimit="10" points="318,472.004 318,436 283,436 
		283,435.834 273.167,445.667 273,445.667 273,472.004 	"/>
	<polygon fill="#939598" stroke="#FFFFFF" stroke-width="0.5" stroke-miterlimit="10" points="273,472.004 273,445.667 
		253.044,445.667 253.044,508.008 318,508.008 318,472.004 	"/>
	
		<rect x="318" y="446.5" fill="#939598" stroke="#FFFFFF" stroke-width="0.5" stroke-miterlimit="10" width="16.5" height="61.508"/>
	<polygon fill="#939598" stroke="#FFFFFF" stroke-width="0.5" stroke-miterlimit="10" points="318,436 318,446.5 334.5,446.5 
		330.667,436 	"/>
	<path fill="#939598" stroke="#FFFFFF" stroke-width="0.5" stroke-miterlimit="10" d="M641.606,453.286l19.571,32.573
		c3.14-1.63,6.102-3.322,8.789-5.037l-0.717-3.197c0,0,3.158-3.858,7.21-8.183l-23.757-23.973
		C649.166,448.51,645.398,451.11,641.606,453.286z"/>
	<path fill="#939598" stroke="#FFFFFF" stroke-width="0.5" stroke-miterlimit="10" d="M588.813,463l-0.271,35.653
		c9.761,1.388,21.11,1.981,32.127,0.555l-6.379-37.187C606.462,462.817,597.176,463.031,588.813,463z"/>
	<path fill="#939598" stroke="#FFFFFF" stroke-width="0.5" stroke-miterlimit="10" d="M625.334,460.168
		c-3.001,0.824-6.81,1.424-11.044,1.854l6.379,37.187c0.11-0.015,0.222-0.026,0.332-0.041c13.411-1.788,28.172-7.073,40.177-13.308
		l-19.571-32.573C636.006,456.5,630.357,458.789,625.334,460.168z"/>
	<path fill="#939598" stroke="#FFFFFF" stroke-width="0.5" stroke-miterlimit="10" d="M565.5,462.333v22.837h2.5v8.888
		c4.81,1.594,12.078,3.392,20.542,4.596L588.813,463C576.082,462.951,565.5,462.333,565.5,462.333z"/>
	<path fill="#939598" stroke="#FFFFFF" stroke-width="0.5" stroke-miterlimit="10" d="M710.564,411.69l-37.666-4.822
		c-0.342,2.282-0.749,4.661-1.23,7.133c-0.082,0.423-0.184,0.835-0.275,1.252l36.06,9.84c0.658-2.274,1.288-4.631,1.882-7.092
		C709.834,415.929,710.237,413.819,710.564,411.69z"/>
	<path fill="#939598" stroke="#FFFFFF" stroke-width="0.5" stroke-miterlimit="10" d="M652.703,445.47l23.757,23.973
		c4.328-4.618,9.675-9.768,13.29-11.317l2.394,0.563c1.867-2.731,3.694-5.722,5.455-8.991L665.3,430.632
		C661.877,436.398,657.508,441.339,652.703,445.47z"/>
	<path fill="#939598" stroke="#FFFFFF" stroke-width="0.5" stroke-miterlimit="10" d="M709.589,371.668h-36.212
		c0,0,2.094,9.6,0.584,26.354l37.688,0.62C711.852,388.85,710.83,379.335,709.589,371.668z"/>
	<path fill="#939598" stroke="#FFFFFF" stroke-width="0.5" stroke-miterlimit="10" d="M711.648,398.643l-37.688-0.62
		c-0.248,2.759-0.594,5.71-1.063,8.846l37.666,4.822C711.229,407.376,711.558,402.983,711.648,398.643z"/>
	<path fill="#939598" stroke="#FFFFFF" stroke-width="0.5" stroke-miterlimit="10" d="M665.3,430.632l32.299,19.065
		c3.667-6.809,7.04-14.877,9.854-24.604l-36.06-9.84C670.144,420.914,668.026,426.036,665.3,430.632z"/>
	<polygon fill="#939598" stroke="#FFFFFF" stroke-width="0.5" stroke-miterlimit="10" points="379.44,389.837 408.583,389.837 
		417.124,398.377 417.124,444.001 407.146,453.979 379.394,453.979 358.168,433.165 358.168,410.645 	"/>
	<polygon fill="#939598" stroke="#FFFFFF" stroke-width="0.5" stroke-miterlimit="10" points="357.349,411.766 374.58,394.662 
		375.583,395.667 395.083,395.833 400.417,390.333 417.167,407.583 412.167,412.583 412.083,432.167 417.167,437.333 399.917,454.5 
		395.167,449.417 375.583,449.417 374.916,449.917 358.168,433.165 358.5,432.417 358.417,412.75 	"/>
</g>
</svg>
