<?xml version="1.0" encoding="utf-8"?>
<!-- Generator: Adobe Illustrator 19.2.0, SVG Export Plug-In . SVG Version: 6.00 Build 0)  -->
<svg version="1.1" id="Layer_1" xmlns="http://www.w3.org/2000/svg" xmlns:xlink="http://www.w3.org/1999/xlink" x="0px" y="0px"
	 viewBox="0 0 3797.2 2105.6" style="enable-background:new 0 0 3797.2 2105.6;" xml:space="preserve">
<style type="text/css">
	.st0{fill:#BFBFBF;stroke:#494949;stroke-miterlimit:10;}
	.st1{fill:none;stroke:#494949;stroke-miterlimit:10;}
	.st2{fill:#939598;stroke:#494949;stroke-miterlimit:10;}
</style>
<g id="background">
</g>
<g id="etc">
	<path class="st0" d="M589.4,763.4l-56.7-8.8c-5.8-64.9-59.7-115.8-125.3-115.8c-52.3,0-97.1,32.3-116.1,78.3l-49.9-7.7l-102,740
		l50,7.4c-0.3,3.4-0.4,6.8-0.4,10.2c0,70.4,56.3,127.5,125.8,127.5c60.5,0,110.9-43.2,123.1-100.8l51.5,7.6L589.4,763.4z
		 M355.4,1502.1c-12,12-40.7,42-81.3,0c-22.7-28.7,4.7-33.3,4.7-33.3l72,10.7C350.7,1479.4,367.4,1490.1,355.4,1502.1z M443.7,769.7
		L372.1,757c0,0-16.4-11.7-4.2-24.1c12.2-12.5,41.5-43.7,81.1,1.7C471,765.3,443.7,769.7,443.7,769.7z"/>
	<path class="st0" d="M3634.7,585.8h20v-42h-22v-65l-53-4v-18l-144-6.5l-92-4.1l-76-3.4v20l-26-1.4l-4.5-0.2l-45.5-2.4v-36
		l-34.2-1.9l-1.8-0.1v-60l-93.3-4l-0.7,0v-16l-94-2.4l-5-0.1l-451-11.5v-30l-206-8v-82l-696-20v136l-72-2v0.6l-10.2-0.3l-6.4-0.2
		c0.9-7,1.4-14.1,1.4-21.3c0-95.6-81.9-173.1-183-173.1c-101.1,0-183,77.5-183,173.1c0,3.7,0.1,7.4,0.4,11.1l-187.5-5.3l-204,698
		l4.7,394.5c-105.2,7.9-188,92.6-188,195.9c0,94.6,59.1,155.2,124.3,190.6c93.8,51.1,290,160,290,160h502.6v-0.6h400.3h25.4
		c0,0,12.2-12.2,13-13c1.3,0.6,2.7,1.2,4,1.8c0.1,0,0.2,0.1,0.2,0.1c1.3,0.6,2.6,1.1,3.8,1.6c0,0,0,0,0,0c0,0,0,0,0,0
		c4,1.6,8,3,11.9,4.1c0.1,0,0.2,0,0.2,0.1c0.9,0.3,1.8,0.5,2.6,0.7c0.2,0.1,0.4,0.1,0.6,0.2c0.8,0.2,1.7,0.4,2.5,0.6
		c0.2,0.1,0.5,0.1,0.7,0.2c0.8,0.2,1.6,0.4,2.4,0.6c0.2,0,0.4,0.1,0.6,0.1c2.6,0.5,5.1,1,7.6,1.4c0.3,0,0.6,0.1,0.8,0.1
		c0.6,0.1,1.2,0.2,1.8,0.2c0.5,0.1,0.9,0.1,1.4,0.2c0.5,0.1,1.1,0.1,1.6,0.2c0.5,0.1,1.1,0.1,1.6,0.2c0.5,0,1,0.1,1.5,0.1
		c0.6,0.1,1.2,0.1,1.7,0.1c0.4,0,0.9,0.1,1.3,0.1c0.7,0,1.3,0.1,2,0.1c0.3,0,0.7,0,1,0.1c1,0,2,0.1,3,0.1c0.4,0,0.7,0,1.1,0
		c0,0,0,0,0.1,0c32.5,0.7,56.9-9.1,56.9-9.1l8,11h655c0,0,0.2-4.3,0.4-8.6c0-0.6,0.1-1.1,0.1-1.7v0c0.2-3.9,0.4-7.4,0.6-7.4
		c14,4.8,27.7,8.7,41,12c17.4,4.2,34.4,7,51,8.5c72.6,6.7,136.8-9.7,180.7-26.3c37.9-14.4,60.8-28.9,60.8-28.9s80.2,5.2,118.5-33
		c0.7-0.7,1.5-1.5,2.2-2.3c38.5-41.9,23.3-120.7,23.3-120.7s54-81,54-177.1c0-9.8-0.2-19.3-0.5-28.4l-7-79.5c-7.5-50.9-18-78-18-78
		l61,1.4v-127v-102v-92v-114v-82h-33v-69.4v-0.6h17v32.4h140l26-4.2l148,2.8v-20h53v-58h22v-40h-20v-63L3634.7,585.8L3634.7,585.8z
		 M783.4,1698.4c-32-1-93-36-91-105c0,0-8-66,81-92c2,1,35-10,35,9s0,166,0,166S815.4,1699.4,783.4,1698.4z M1414.9,313.7
		c-16.3-0.4-142.4-3.5-142.4-3.5s-19.9,5.1-18.4-20.4s32.7-73.3,91.8-70.3c0,0,56.8-5,77.3,66.4
		C1422.4,287.6,1431.2,314.1,1414.9,313.7z"/>
	<g>
		<polygon class="st0" points="2893.6,613 2979.9,613 3040.9,679 3040.9,773.5 2980.4,837.6 2892.3,837.6 2832.6,772.2 2832.6,679 
					"/>
		<polygon class="st0" points="2888.4,746.4 2888.4,703.7 2916.5,672.6 2955.7,672.6 2984.4,702.6 2984.4,747.2 2957,776.6 
			2915.1,776.6 		"/>
		<polygon class="st0" points="2893.8,744.8 2893.8,706.3 2918.9,678.3 2954,678.3 2979.6,705.3 2979.6,745.5 2955.1,771.9 
			2917.6,771.9 		"/>
		<polygon class="st0" points="3040.9,773.5 3040.9,1142.1 2979.9,1227.8 2893.6,1227.8 2832.6,1142.1 2832.6,772.2 2892.3,837.6 
			2980.4,837.6 		"/>
		<line class="st1" x1="2832.6" y1="679" x2="3039.7" y2="771.6"/>
		<line class="st1" x1="2832.6" y1="772.2" x2="3040.9" y2="679"/>
		<polygon class="st0" points="2892.6,836.9 2892.3,837.6 2892.3,1135.4 2919.6,1162.3 2953.9,1162.3 2980.4,1133.7 2980.4,837.6 
			2980.1,836.9 		"/>
		<polygon class="st0" points="2893.6,613 2936.6,724.1 2979.9,613 		"/>
		<polygon class="st0" points="2936.6,724.1 2892.6,836.9 2980.1,836.9 		"/>
		<polyline class="st0" points="2915,837.6 2914,1126.3 2927.2,1138.1 2945.5,1138.1 2959.5,1126.3 2959.5,837.6 		"/>
		<line class="st1" x1="2936.6" y1="1117.2" x2="2893.6" y2="1227.8"/>
		<line class="st1" x1="2936.6" y1="1117.2" x2="2978.1" y2="1227.8"/>
		<line class="st1" x1="2935.1" y1="1117.2" x2="2842.4" y2="1156"/>
		<line class="st1" x1="2938.1" y1="1117.2" x2="3030.3" y2="1157.1"/>
		<line class="st1" x1="2935.1" y1="1117.2" x2="2938.1" y2="1117.2"/>
		<line class="st1" x1="2936.6" y1="1117.2" x2="2936.6" y2="837.6"/>
		<line class="st1" x1="2891.6" y1="847.3" x2="2980.4" y2="847.3"/>
		<line class="st1" x1="2891.6" y1="870.9" x2="2980.4" y2="870.9"/>
		<line class="st1" x1="2891.6" y1="895.3" x2="2980.4" y2="895.3"/>
		<line class="st1" x1="2891.6" y1="919.5" x2="2980.4" y2="919.5"/>
		<line class="st1" x1="2891.6" y1="944" x2="2980.4" y2="944"/>
		<line class="st1" x1="2891.6" y1="968.2" x2="2980.4" y2="968.2"/>
		<line class="st1" x1="2891.6" y1="992.7" x2="2980.4" y2="992.7"/>
		<line class="st1" x1="2891.6" y1="1018.5" x2="2980.4" y2="1018.5"/>
		<line class="st1" x1="2891.6" y1="1041.3" x2="2980.4" y2="1041.3"/>
		<line class="st1" x1="2891.6" y1="1065.8" x2="2980.4" y2="1065.8"/>
		<line class="st1" x1="2891.6" y1="1090" x2="2980.4" y2="1090"/>
		<line class="st1" x1="2891.6" y1="1116.1" x2="2980.4" y2="1116.1"/>
	</g>
	<polygon id="_x3C_Path_x3E__4_" class="st0" points="1973.4,937.5 1930.2,891.8 1878.4,948.7 1919.4,992.7 	"/>
	<polygon id="_x3C_Path_x3E__3_" class="st0" points="1900.6,860.5 1847.6,917 1848.9,917 1878.4,948.7 1930.2,891.8 	"/>
	<path id="_x3C_Path_x3E__2_" class="st0" d="M1844.4,262.8v110.5l34.7,35.4c40.4-32,90-51.4,143.8-52.9v-93L1844.4,262.8
		L1844.4,262.8z"/>
	<path id="_x3C_Path_x3E__1_" class="st0" d="M2203.9,338.5c0,0-42.4-37.9-92.9-45.2c0-19.3,0-30.5,0-30.5h-85h-3v93
		c2.2-0.1,4.4-0.1,6.6-0.1c91.2,0,171.1,51.6,215.7,129l47.6-51.6v-94.5H2203.9z"/>
	<path id="_x3C_Path_x3E_" class="st0" d="M1776.1,628c0-0.3,0-0.6,0-1c0-48.8,12.1-94.7,33.1-134.3c17.6-33,41.5-61.7,69.9-84.2
		l-34.7-35.4V262.8h-124.2v165.7v1.5v198v21h-32.6V917h159.9l52.9-56.3C1826.3,813.5,1776.5,727,1776.1,628z"/>
</g>
<g id="rooms_1_">
	<polygon id="major-cineplex" class="st2" points="1986.9,1052.8 2393.8,1459.7 2561.3,1459.7 2780.3,1250.9 2792.3,891.8 
		2470.3,569.9 	"/>
</g>
<g id="signs">
	<g id="escalator">
		<rect x="1878" y="712.4" width="45" height="45"/>
		<rect x="2112.9" y="480.4" width="45" height="45"/>
	</g>
</g>
</svg>
