<?xml version="1.0" encoding="utf-8"?>
<!-- Generator: Adobe Illustrator 16.0.0, SVG Export Plug-In . SVG Version: 6.00 Build 0)  -->
<!DOCTYPE svg PUBLIC "-//W3C//DTD SVG 1.1//EN" "http://www.w3.org/Graphics/SVG/1.1/DTD/svg11.dtd">
<svg version="1.1" id="Layer_1" xmlns="http://www.w3.org/2000/svg" xmlns:xlink="http://www.w3.org/1999/xlink" x="0px" y="0px"
	 width="841.89px" height="595.281px" viewBox="0 0 841.89 595.281" enable-background="new 0 0 841.89 595.281"
	 xml:space="preserve">
<g id="ETC">
	<path fill="none" stroke="#F7941E" stroke-width="0.5" stroke-miterlimit="10" d="M610.666,275.978
		c-1.5-2.189-14.332-21.226-14.332-21.226L568,252.556c0,0-8.334-17.889-17.281-34.628c-8.949-16.739-7.885-18.761-2.076-21.594
		c3.916-1.91,9.145-4.043,12.143-5.233l-9.08-14.433c4.037-2.167-2.744-11.975-2.744-11.977l-21.514,10.285L507,184.75L498.05,168
		l-10.389,5.5l7.588,16.5l-35.75,19.5l-13.25-3.75l-33.871-66.621c-14.355,6.281-84.391,39.415-122.63,103.371
		C247,314,243.875,324,233.438,407.5S224.25,506,215.5,512.75s-7.75,8.75-17.25,9s-26.221,3.428-24.981-8.773
		c0.798-7.855,7.272-71.586,11.963-117.764L184,395.125c0,0-3.119-0.203-5.951,2.893l-2.462,23.574
		c-0.119,0.551-0.207,1.176-0.254,1.908c-0.313,4.842-7.507,70.16-8.545,84.643l-0.138,0.025c0,0-2.317,22.166,12.517,24.832
		c14.834,2.668,19.167-2.832,19.167-2.832s22.451,1.166,37.059,17c0,0,2.274,28.998,33.274,29.166c0,0,10.805,14.662,26.152,11.914
		c0.002,0,0.005-0.002,0.007-0.002c2.238-0.428,4.498-1.365,6.674-2.912c4.904-3.49,19.57-14.875,31.806-24.527
		c1.041-3.225,1.561-8.068-1.806-12.973c-3.301-4.812-6.602-9.672-8.845-12.988c-5.902,4.291-24.952,18.08-41.055,28.965
		c-19.32,13.062-27.226,1.064-37.476-13.936s-10.875-24.25,0-35.75s44.125-42.971,44.125-42.971l37.841,55.512l3.911-2.5
		c0,0,11.998,18.834,13.832,21.168c1.834,2.332,3.167,4,7.833,0.666c2.333-2.332,1.333-4.166-1-7.5
		c-2.333-3.332-49.833-73.5-49.833-73.5l16.671-11.572l3.076-2.09l-5.33-7.17l-25.583,19.969c0,0-20.917-21.803,5.708-39.803
		c10.516-7.108,29.542-20.744,49.55-35.381l4.066,5.621l12.889,17.824l-11.313,7.977l5.328,6.963l15.634-10.625l-18.027-25.428
		l-4.02-5.67c-0.065,0.049-0.132,0.096-0.197,0.145c29.353-21.53,59.64-44.342,67.468-51.258c0.08-0.07,0.163-0.146,0.243-0.217
		c-0.067,0.061-0.138,0.123-0.204,0.182l7.044,4.63L454.125,359l-3.607,3.129l7.15,0.455l66.244,3.307l-56.494-5.199l-21.48-13.998
		l-19.082-12.436l-5.726-3.731c-0.004,0.005-0.009,0.009-0.013,0.013c14.971-14.086,40.729-44.354,41.633-108.538l59.5-30.135
		l27.875,55.018l-1.875,16.473l9,1.019l7.312,10.563l-0.75,8l-24.875-1.25c0,0-1.062,14.688-1.188,18.062
		c-0.125,3.375,1.562,6.758,8.656,7.316s40.219,3.059,40.219,3.059l0.875-12.484c0,0,2.451,0.118,5.834,0.298l1.166-17.888
		c0,0,7,0.45,13,0.95c0.596,0.05,1.229,0.072,1.883,0.064C610.435,279.495,611.562,277.286,610.666,275.978z"/>
	<path fill="none" stroke="#F7941E" stroke-width="0.5" stroke-miterlimit="10" d="M406.438,141.837
		c2.471-1.174,4.479-2.079,5.918-2.708l-19.965-39.267l-6.287,3.495l-12.147-24.668C391.117,70.036,406,62.5,406,62.5L377,7
		l-88.854,43.565c-5.09-6.064-12.724-9.922-21.26-9.922c-15.326,0-27.75,12.424-27.75,27.75c0,9.458,4.736,17.807,11.961,22.816
		L249.5,93l8.5,6l-10,14.75l-8.864-5.5l-0.882,1.288c-4.4-2.933-9.684-4.645-15.368-4.645c-15.326,0-27.75,12.424-27.75,27.75
		c0,9.373,4.652,17.655,11.768,22.679L199.25,166.5l-7.5,74.75l22.5,14.25l15.73-22.764l11.636,7.893l-9.145,13.172l-0.097-0.051
		c0,0-30.613,45.302-36.289,54.335c-5.321,8.102-7.92,15.937-9.181,21.303c-0.161,0.561-0.305,1.167-0.419,1.861
		c-0.014,0.088-0.033,0.207-0.049,0.311c-0.586,2.996-0.692,4.812-0.693,4.83c-1.423,10.355-4.235,32.318-6.054,47.295
		c0.674,1.029,1.739,1.846,3.435,2.064c0.922,0.121,1.952,0.254,3.028,0.394c2.145-21.11,3.75-36.917,3.964-39.019
		c0.683-6.722,6.258-24.324,9.883-31.537l-2-2.963l117.25-176.75l39.709-27.308l-2.209-2.692c0,0-33.993,23.875-37.122,26
		c-0.225,0.153-0.428,0.312-0.619,0.475c-0.001,0.001-0.003,0.001-0.004,0.002c-4.402,3.101-18.149,27.115-18.173,27.156
		c-10.376,15.254-34.524,51.018-41.825,61.832l-7.733,11.139l-11.677-7.873l49.652-71.856l7-9.625l-7.625-5.109l10.72-15.598
		L303,127.5c0,0,14.5-20.5,39-32.75c6.767-3.383,14.678-7.358,22.586-11.339l12.571,24.92l-0.306,0.169l-3.875-5.875l-16.034,8.018
		l6.909,13.982l16.901-7.875l8.819,16.094l3.023-1.594l7.398,13.756c1.077-0.547,2.109-1.063,3.088-1.545l-16.23-30.21l3.875-2
		L406.438,141.837z"/>
	<path fill="none" stroke="#F7941E" stroke-width="0.5" stroke-miterlimit="10" d="M203.548,357.875l0.929-9.562l0.04-0.156
		l-14.253-2.316c-0.072,0.461-0.129,0.894-0.169,1.285c-0.213,2.102-1.819,17.908-3.964,39.019
		c5.636,0.728,12.597,1.606,12.597,1.606l-0.688,8.375l-12.831-0.912c-0.364,3.588-0.74,7.281-1.122,11.047l14.773,0.15
		l2.818-29.277L203.548,357.875z"/>
	<path fill="none" stroke="#F7941E" stroke-width="0.5" stroke-miterlimit="10" d="M182.28,424.042l49.014,0.781
		c0.234-1.957,0.475-3.951,0.724-6l-49.103-1.033C182.704,419.865,182.492,421.951,182.28,424.042z"/>
	<path fill="none" stroke="#F7941E" stroke-width="0.5" stroke-miterlimit="10" d="M182.915,417.791l49.103,1.033
		c0.441-3.629,0.906-7.4,1.396-11.324c0.031-0.248,0.062-0.488,0.092-0.736l-49.42-0.504
		C183.702,410.042,183.311,413.897,182.915,417.791z"/>
	<path fill="none" stroke="#F7941E" stroke-width="0.5" stroke-miterlimit="10" d="M195.879,325.691
		c-2.506,7.117-4.875,15.381-5.616,20.148l14.253,2.316l4.738-18.617L195.879,325.691z"/>
	<path fill="none" stroke="#F7941E" stroke-width="0.5" stroke-miterlimit="10" d="M200.625,308.634l-2.648,3.99l1.167,1.729
		l42.208,12.708l-3.125,10.812l-28.972-8.336l-4.738,18.617l9.591,1.561L217.414,338l25.551,6.371
		c1.59-7.422,3.362-14.193,5.466-20.762L200.625,308.634z"/>
	<path fill="none" stroke="#F7941E" stroke-width="0.5" stroke-miterlimit="10" d="M241.352,327.063l-42.208-12.708l0.833,1.232
		c-1.23,2.449-2.685,6.095-4.097,10.104l42.347,12.185L241.352,327.063z"/>
	<path fill="none" stroke="#F7941E" stroke-width="0.5" stroke-miterlimit="10" d="M258.837,220.879l-23.692,35.714l15.782,7.525
		l8.216-13.729l18.918,11.82c3.526-6.049,7.395-12.568,11.664-19.709c0.116-0.193,0.235-0.383,0.351-0.576L258.837,220.879z"/>
	<polygon fill="none" stroke="#F7941E" stroke-width="0.5" stroke-miterlimit="10" points="264.693,212.052 258.837,220.879 
		273.106,230.492 278.166,223.171 	"/>
	<path fill="none" stroke="#F7941E" stroke-width="0.5" stroke-miterlimit="10" d="M332.655,149.165L332.655,149.165l-13.684-15.866
		l-3.746,2.576L304.51,152.03l31.655,35.907c5.9-5.161,11.828-9.908,17.642-14.246L332.655,149.165L332.655,149.165z"/>
	<polygon fill="none" stroke="#F7941E" stroke-width="0.5" stroke-miterlimit="10" points="339.145,145.125 327.771,127.249 
		318.972,133.299 332.655,149.165 	"/>
	<path fill="none" stroke="#F7941E" stroke-width="0.5" stroke-miterlimit="10" d="M629,293.333c-0.166-3.833-0.5-12-6.334-21.333
		C616.833,262.667,558,172.833,558,172.833l-6.105-9.546l-1.174,0.561l-1.762,0.842c0.002,0.001,6.783,9.81,2.746,11.977l20.129,32
		l3-1.667c0,0,34.998,52.917,41.832,62.625S613.5,281.5,607.5,281s-13-0.95-13-0.95l-1.166,17.888
		c5.756,0.308,14.215,0.793,17.916,1.187c5.875,0.625,13.125,4.625,11.625,20.875c-1.119,12.123-1.127,20.156-5.488,26.217
		c1.789-1.113,3.082-1.957,3.613-2.383c3.334-2.666,4.666-6.5,5.334-14.834C627,320.667,629.167,297.167,629,293.333z"/>
	<path fill="none" stroke="#F7941E" stroke-width="0.5" stroke-miterlimit="10" d="M560.783,191.1
		c-2.996,1.19-8.225,3.324-12.141,5.233c-5.811,2.833-6.873,4.855,2.074,21.594c0.119,0.222,0.236,0.444,0.355,0.666l20.662-10.082
		L560.783,191.1z"/>
	<path fill="none" stroke="#F7941E" stroke-width="0.5" stroke-miterlimit="10" d="M616.666,269.625
		C609.832,259.917,574.833,207,574.833,207l-3,1.667l-0.098-0.155l-20.664,10.082c3.605,6.771,7.096,13.683,9.959,19.493
		L594,241.619l2.5,4.512l-3.834,2.37l3.668,6.252c0,0,12.832,19.037,14.332,21.226c0.896,1.309-0.23,3.518-1.283,5.086
		C615.318,280.995,622.822,278.371,616.666,269.625z"/>
	<path fill="none" stroke="#F7941E" stroke-width="0.5" stroke-miterlimit="10" d="M596.5,246.13l-2.5-4.512l-32.969-3.532
		c4.135,8.386,6.969,14.469,6.969,14.469l28.334,2.196l-3.668-6.252L596.5,246.13z"/>
	<path fill="none" stroke="#F7941E" stroke-width="0.5" stroke-miterlimit="10" d="M615,260.103l4.666-2.976l13,19.513
		c0,0-12.82,29.499,6.5,37.527c12.834,5.332,14.84,16.641,5.709,22.207c-13.303,8.112-47.541,29.516-47.541,29.516H566.5"/>
	
		<rect x="359.387" y="352.296" transform="matrix(-0.6052 -0.796 0.796 -0.6052 287.6501 873.5699)" fill="none" stroke="#F7941E" stroke-width="0.5" stroke-miterlimit="10" width="2.083" height="26.332"/>
	
		<rect x="360.628" y="353.971" transform="matrix(-0.606 -0.7955 0.7955 -0.606 288.7871 877.318)" fill="none" stroke="#F7941E" stroke-width="0.5" stroke-miterlimit="10" width="2.082" height="26.334"/>
	
		<rect x="396.084" y="323.481" transform="matrix(-0.6055 -0.7958 0.7958 -0.6055 369.6891 856.5376)" fill="none" stroke="#F7941E" stroke-width="0.5" stroke-miterlimit="10" width="2.084" height="26.331"/>
	
		<rect x="397.35" y="325.169" transform="matrix(-0.606 -0.7955 0.7955 -0.606 370.6732 860.2731)" fill="none" stroke="#F7941E" stroke-width="0.5" stroke-miterlimit="10" width="2.082" height="26.334"/>
	<g>
		
			<rect x="238.14" y="457.034" transform="matrix(-0.9977 -0.0674 0.0674 -0.9977 446.5307 943.0664)" fill="none" stroke="#F7941E" stroke-width="0.5" stroke-miterlimit="10" width="2.085" height="13.924"/>
		
			<rect x="240.258" y="457.199" transform="matrix(-0.9977 -0.0685 0.0685 -0.9977 450.2459 943.7559)" fill="none" stroke="#F7941E" stroke-width="0.5" stroke-miterlimit="10" width="2.082" height="13.923"/>
	</g>
	<g>
		
			<rect x="236.06" y="480.882" transform="matrix(-0.9977 -0.0674 0.0674 -0.9977 440.7671 990.5671)" fill="none" stroke="#F7941E" stroke-width="0.5" stroke-miterlimit="10" width="2.085" height="13.924"/>
		
			<rect x="238.178" y="481.049" transform="matrix(-0.9977 -0.0685 0.0685 -0.9977 444.4568 991.2585)" fill="none" stroke="#F7941E" stroke-width="0.5" stroke-miterlimit="10" width="2.082" height="13.925"/>
	</g>
	<path fill="none" stroke="#F7941E" stroke-width="0.5" stroke-miterlimit="10" d="M373.503,341.417l9.028,11.5l6.386-5.166
		l-4.108-5.084c0,0-6.68,1.113-5.43-5.625L373.503,341.417z"/>
	<path fill="none" stroke="#F7941E" stroke-width="0.5" stroke-miterlimit="10" d="M319.833,530.666l6.257-4l-8.758-12.848
		l-11.357,7.668l3.691,5.348l-13.917,9.998l7.983,11.6c8.49-6.02,15.686-11.232,18.922-13.586
		C320.935,532.302,319.833,530.666,319.833,530.666z"/>
	<polygon fill="none" stroke="#F7941E" stroke-width="0.5" stroke-miterlimit="10" points="329.058,434.875 322.325,439.488 
		315.25,444.167 320.58,451.337 334.24,442.054 	"/>
	<polygon fill="none" stroke="#F7941E" stroke-width="0.5" stroke-miterlimit="10" points="414.508,376.68 420.744,383.264 
		431.304,376.087 424.5,369.729 	"/>
	<path fill="none" stroke="#F7941E" stroke-width="0.5" stroke-miterlimit="10" d="M765.167,199.333l-23.289,13.836l12.447,18.081
		c9.516-12.939,16.008-23.584,16.008-23.584L765.167,199.333z"/>
	<path fill="none" stroke="#F7941E" stroke-width="0.5" stroke-miterlimit="10" d="M796.195,57.173
		c-3.391-7.634-10.826-12.937-19.461-12.937c-1.443,0-2.855,0.15-4.219,0.433L772.001,43c0,0-13.166,1.167-16.5,2
		s-1.5,5.167-1.5,5.167l-14.334,5c0,0-1.5-3.667-2.334-5.833c-0.832-2.166-3.021-1.271-4.959-0.771
		c-0.787,0.204-16.42,5.446-34.688,11.593c-3.9-4.251-9.406-6.905-15.514-6.905c-10.871,0-19.844,8.403-21.225,19.286
		C648.175,76.845,638.833,80,638.833,80l10,20.833l5.834-2l9.5,28.333c0,0,3.666-1.667,5.5,3s1.834,5.5,1.834,5.5l110.332-36.5
		l0.068-0.194c1.902,0.575,3.914,0.889,5.998,0.889c11.826,0,21.416-9.943,21.416-22.208
		C809.316,68.438,803.902,60.535,796.195,57.173z"/>
	<polygon fill="none" stroke="#F7941E" stroke-width="0.5" stroke-miterlimit="10" points="621.646,96.717 641.994,86.583 
		645.794,94.5 625.826,104.877 	"/>
</g>
<g id="Background">
	<rect fill="#FFFFFF" width="841.89" height="595.281"/>
</g>
<g id="Original">
	
		<image overflow="visible" enable-background="new    " width="2825" height="2642" xlink:href="EC168620006FEB6.jpeg"  transform="matrix(0.24 0 0 0.24 145.5166 -13.3848)">
	</image>
</g>
<g id="Signs">
	<g id="parking">
		<rect x="316.344" y="58.43" opacity="0.8" enable-background="new    " width="14.812" height="14.811"/>
		<rect x="225.594" y="167.68" opacity="0.8" enable-background="new    " width="14.811" height="14.811"/>
		<rect x="707.75" y="80.47" opacity="0.8" enable-background="new    " width="14.811" height="14.812"/>
	</g>
	<rect x="383.322" y="96.189" opacity="0.8" enable-background="new    " width="14.811" height="14.811"/>
	<g id="escalator">
		<rect x="553.626" y="254.752" opacity="0.8" enable-background="new    " width="14.811" height="14.811"/>
		<rect x="355.095" y="344.261" opacity="0.8" enable-background="new    " width="14.812" height="14.812"/>
		<rect x="223.835" y="468.095" opacity="0.8" enable-background="new    " width="14.811" height="14.811"/>
		<rect x="262.611" y="287.711" opacity="0.8" enable-background="new    " width="14.811" height="14.811"/>
		<rect x="353.807" y="178.261" opacity="0.8" enable-background="new    " width="14.812" height="14.812"/>
	</g>
	<g id="telephone">
		<rect x="447.386" y="339.718" opacity="0.8" enable-background="new    " width="14.812" height="14.811"/>
		<rect x="232.071" y="250.428" opacity="0.8" enable-background="new    " width="14.811" height="14.812"/>
	</g>
	<g id="elevator">
		<rect x="364.095" y="101.189" opacity="0.8" enable-background="new    " width="14.812" height="14.811"/>
		<rect x="411.697" y="75.064" opacity="0.8" enable-background="new    " width="14.81" height="14.811"/>
		<rect x="588.947" y="55.939" opacity="0.8" enable-background="new    " width="14.811" height="14.811"/>
		<rect x="581.542" y="98.814" opacity="0.8" enable-background="new    " width="14.811" height="14.811"/>
		<rect x="634.292" y="73.064" opacity="0.8" enable-background="new    " width="14.811" height="14.811"/>
		<rect x="702.271" y="244.032" opacity="0.8" enable-background="new    " width="14.812" height="14.811"/>
		<rect x="479.263" y="178.261" opacity="0.8" enable-background="new    " width="14.811" height="14.812"/>
		<rect x="555.72" y="293.22" opacity="0.8" enable-background="new    " width="14.811" height="14.811"/>
		<rect x="437.886" y="352.917" opacity="0.8" enable-background="new    " width="14.812" height="14.811"/>
		<rect x="182.858" y="422.333" opacity="0.8" enable-background="new    " width="14.811" height="14.811"/>
		<rect x="240.404" y="237.595" opacity="0.8" enable-background="new    " width="14.811" height="14.812"/>
		<rect x="297.343" y="472.166" opacity="0.8" enable-background="new    " width="14.812" height="14.811"/>
	</g>
	<g id="toilet">
		<rect x="550.533" y="196.378" opacity="0.8" enable-background="new    " width="14.811" height="14.811"/>
		<rect x="371.214" y="255.93" opacity="0.8" enable-background="new    " width="14.812" height="14.811"/>
		<rect x="301.341" y="527.5" opacity="0.8" enable-background="new    " width="14.812" height="14.811"/>
	</g>
	<g id="fire-exit">
		<rect x="306.094" y="31.68" opacity="0.8" enable-background="new    " width="14.812" height="14.811"/>
		<rect x="194.844" y="153.213" opacity="0.8" enable-background="new    " width="14.811" height="14.811"/>
		<rect x="297.104" y="151.463" opacity="0.8" enable-background="new    " width="14.811" height="14.811"/>
		<rect x="318.972" y="130.802" opacity="0.8" enable-background="new    " width="14.812" height="14.812"/>
		<rect x="351.595" y="108.595" opacity="0.8" enable-background="new    " width="14.812" height="14.812"/>
		<rect x="461.072" y="50.189" opacity="0.8" enable-background="new    " width="14.811" height="14.811"/>
		<rect x="520.322" y="25.689" opacity="0.8" enable-background="new    " width="14.811" height="14.811"/>
		<rect x="596.353" y="69.814" opacity="0.8" enable-background="new    " width="14.811" height="14.811"/>
		<rect x="646.417" y="66.689" opacity="0.8" enable-background="new    " width="14.811" height="14.811"/>
		<rect x="775.261" y="57.595" opacity="0.8" enable-background="new    " width="14.812" height="14.812"/>
		<rect x="750.929" y="203.783" opacity="0.8" enable-background="new    " width="14.811" height="14.811"/>
		<rect x="692.939" y="233.783" opacity="0.8" enable-background="new    " width="14.811" height="14.811"/>
		<rect x="547.595" y="150.261" opacity="0.8" enable-background="new    " width="14.812" height="14.812"/>
		<rect x="463.638" y="185.667" opacity="0.8" enable-background="new    " width="14.811" height="14.811"/>
		<rect x="481.345" y="205.595" opacity="0.8" enable-background="new    " width="14.811" height="14.812"/>
		<rect x="550.22" y="358.484" opacity="0.8" enable-background="new    " width="14.811" height="14.811"/>
		<rect x="459.886" y="347.125" opacity="0.8" enable-background="new    " width="14.812" height="14.811"/>
		<rect x="353.007" y="413.095" opacity="0.8" enable-background="new    " width="14.812" height="14.811"/>
		<rect x="301.341" y="445.761" opacity="0.8" enable-background="new    " width="14.812" height="14.812"/>
		<rect x="291.008" y="356.455" opacity="0.8" enable-background="new    " width="14.812" height="14.812"/>
		<rect x="175.51" y="475.5" opacity="0.8" enable-background="new    " width="14.811" height="14.811"/>
		<rect x="184.948" y="395.833" opacity="0.8" enable-background="new    " width="14.811" height="14.811"/>
		<rect x="193.4" y="325.691" opacity="0.8" enable-background="new    " width="14.811" height="14.811"/>
		<rect x="201.849" y="299.544" opacity="0.8" enable-background="new    " width="14.811" height="14.811"/>
		<rect x="308.944" y="318.71" opacity="0.8" enable-background="new    " width="14.811" height="14.812"/>
		<rect x="337.611" y="260.544" opacity="0.8" enable-background="new    " width="14.811" height="14.811"/>
		<rect x="351.428" y="272.9" opacity="0.8" enable-background="new    " width="14.812" height="14.811"/>
		<rect x="390.989" y="210.43" opacity="0.8" enable-background="new    " width="14.811" height="14.811"/>
		<rect x="261.096" y="211.095" opacity="0.8" enable-background="new    " width="14.811" height="14.812"/>
		<rect x="336.928" y="527.5" opacity="0.8" enable-background="new    " width="14.812" height="14.811"/>
	</g>
</g>
<g id="Rooms">
	<polygon id="a-big-room" fill="#939598" stroke="#FFFFFF" stroke-width="0.5" stroke-miterlimit="10" points="588.75,32.5 
		542,22.25 515.25,36.5 524,53.25 514,58.5 500,33.75 444.595,63.125 457.5,87.875 447.375,93.5 434,68.625 395.25,89 
		392.415,99.862 446.25,205.75 459.5,209.5 495.25,190 487.662,173.5 498.05,168 507,184.75 532.566,172.528 564,157.5 
		554.75,139.25 564,135 573.75,152.25 622.775,128 630.5,114 	"/>
	<polygon fill="#939598" stroke="#FFFFFF" stroke-width="0.5" stroke-miterlimit="10" points="776.667,193.167 781.167,200.167 
		791.667,200.167 806,179.667 802.333,177.333 	"/>
	<path fill="#939598" stroke="#FFFFFF" stroke-width="0.5" stroke-miterlimit="10" d="M659.656,262.024l14.635,21.403
		c3.162-0.142,6.818-0.474,10.848-1.125l-16.943-25.351L659.656,262.024z"/>
	<path fill="#939598" stroke="#FFFFFF" stroke-width="0.5" stroke-miterlimit="10" d="M651,267.167L661.833,283
		c0,0,4.762,0.771,12.457,0.427l-14.635-21.403L651,267.167z"/>
	<path fill="#939598" stroke="#FFFFFF" stroke-width="0.5" stroke-miterlimit="10" d="M668.193,256.952l16.945,25.351
		c3.229-0.521,6.693-1.252,10.334-2.253l-18.805-28.134L668.193,256.952z"/>
	<path fill="#939598" stroke="#FFFFFF" stroke-width="0.5" stroke-miterlimit="10" d="M694,241.619l9.891,14.563l0,0l0,0
		l10.93,16.088c13.658-8.27,28.578-26.155,39.508-41.019L741.88,213.17L694,241.619z"/>
	<path fill="#939598" stroke="#FFFFFF" stroke-width="0.5" stroke-miterlimit="10" d="M703.89,256.182L694,241.619l-17.33,10.297
		l18.803,28.134c3.277-0.9,6.691-2.017,10.203-3.41l-10.508-14.974L703.89,256.182z"/>
	<path fill="#939598" stroke="#FFFFFF" stroke-width="0.5" stroke-miterlimit="10" d="M695.167,261.667l10.508,14.974
		c1.645-0.653,3.311-1.363,4.99-2.14c1.367-0.631,2.754-1.383,4.152-2.23l-10.928-16.088L695.167,261.667z"/>
	
		<rect x="259.803" y="302.744" transform="matrix(-0.9503 -0.3113 0.3113 -0.9503 410.385 697.3234)" fill="#939598" stroke="#FFFFFF" stroke-width="0.5" stroke-miterlimit="10" width="2.083" height="26.331"/>
	
		<rect x="261.798" y="303.414" transform="matrix(-0.9506 -0.3105 0.3105 -0.9506 414.3799 699.1289)" fill="#939598" stroke="#FFFFFF" stroke-width="0.5" stroke-miterlimit="10" width="2.082" height="26.333"/>
	
		<rect x="286.317" y="273.115" transform="matrix(-0.8975 -0.4409 0.4409 -0.8975 419.0499 669.9325)" fill="#939598" stroke="#FFFFFF" stroke-width="0.5" stroke-miterlimit="10" width="2.083" height="26.331"/>
	
		<rect x="288.203" y="274.066" transform="matrix(-0.898 -0.44 0.44 -0.898 422.6129 672.4307)" fill="#939598" stroke="#FFFFFF" stroke-width="0.5" stroke-miterlimit="10" width="2.082" height="26.333"/>
	
		<rect x="378.677" y="157.651" transform="matrix(-0.5147 -0.8574 0.8574 -0.5147 428.7076 584.2946)" fill="#939598" stroke="#FFFFFF" stroke-width="0.5" stroke-miterlimit="10" width="2.083" height="26.331"/>
	
		<rect x="379.739" y="159.422" transform="matrix(-0.5159 -0.8566 0.8566 -0.5159 429.3817 587.8208)" fill="#939598" stroke="#FFFFFF" stroke-width="0.5" stroke-miterlimit="10" width="2.082" height="26.332"/>
	<g>
		
			<rect x="550.401" y="249.355" transform="matrix(-0.9935 -0.1135 0.1135 -0.9935 1070.2195 573.5883)" fill="#939598" stroke="#FFFFFF" stroke-width="0.5" stroke-miterlimit="10" width="2.086" height="13.925"/>
		
			<rect x="552.474" y="249.574" transform="matrix(-0.9935 -0.1135 0.1135 -0.9935 1074.3302 574.249)" fill="#939598" stroke="#FFFFFF" stroke-width="0.5" stroke-miterlimit="10" width="2.082" height="13.924"/>
	</g>
	<path fill="#939598" stroke="#FFFFFF" stroke-width="0.5" stroke-miterlimit="10" d="M611.25,299.125
		c-5.875-0.625-23.75-1.484-23.75-1.484l-0.875,12.484l19.473,1.612l11.799-10.024C615.841,300.066,613.449,299.359,611.25,299.125z
		"/>
	<path fill="#939598" stroke="#FFFFFF" stroke-width="0.5" stroke-miterlimit="10" d="M617.896,301.712l-11.799,10.024l0.152,0.013
		l-3.07,42.979c5.381-3.163,10.736-6.351,14.207-8.513c4.361-6.061,4.369-14.094,5.488-26.217
		C623.812,309.833,621.328,304.462,617.896,301.712z"/>
	<path fill="#939598" stroke="#FFFFFF" stroke-width="0.5" stroke-miterlimit="10" d="M340.703,400.619l-4.063-5.623
		c-5.389,3.922-10.623,7.707-15.548,11.244l4.162,5.647L340.703,400.619z"/>
	<path fill="#939598" stroke="#FFFFFF" stroke-width="0.5" stroke-miterlimit="10" d="M281.924,443.904
		c-0.902,11.219,7.742,20.232,7.742,20.232l25.583-19.971l-12.125-16.416L281.924,443.904z"/>
	<path fill="#939598" stroke="#FFFFFF" stroke-width="0.5" stroke-miterlimit="10" d="M348.991,394.574l-4.066-5.621
		c-2.788,2.039-5.555,4.059-8.285,6.043l4.063,5.623L348.991,394.574z"/>
	<path fill="#939598" stroke="#FFFFFF" stroke-width="0.5" stroke-miterlimit="10" d="M316.875,418l8.379-6.111l-4.162-5.648
		c-5.332,3.83-10.296,7.365-14.702,10.465l15.935,22.785l6.732-4.613L316.875,418z"/>
	<path fill="#939598" stroke="#FFFFFF" stroke-width="0.5" stroke-miterlimit="10" d="M306.391,416.705
		c-4.255,2.994-7.99,5.584-11.016,7.629c-9.506,6.428-12.95,13.338-13.451,19.57l21.201-16.154l12.125,16.418l7.075-4.68
		L306.391,416.705z"/>
	<path fill="#939598" stroke="#FFFFFF" stroke-width="0.5" stroke-miterlimit="10" d="M387.929,366.173l-4.401-5.816
		c-2.741,2.061-5.572,4.18-8.471,6.342l4.322,5.713L387.929,366.173z"/>
	<path fill="#939598" stroke="#FFFFFF" stroke-width="0.5" stroke-miterlimit="10" d="M364.354,383.369l-4.029-5.734
		c-3.6,2.658-7.228,5.328-10.843,7.98l4.02,5.67L364.354,383.369z"/>
	<path fill="#939598" stroke="#FFFFFF" stroke-width="0.5" stroke-miterlimit="10" d="M379.378,372.41l-4.322-5.711
		c-4.772,3.561-9.724,7.234-14.731,10.936l4.029,5.734L379.378,372.41z"/>
	<polygon fill="#939598" stroke="#FFFFFF" stroke-width="0.5" stroke-miterlimit="10" points="379.378,372.41 398.852,398.143 
		407.615,392.188 387.929,366.173 	"/>
	<polygon fill="#939598" stroke="#FFFFFF" stroke-width="0.5" stroke-miterlimit="10" points="387.929,366.173 407.615,392.188 
		420.744,383.264 397.764,359 	"/>
	<polygon fill="#939598" stroke="#FFFFFF" stroke-width="0.5" stroke-miterlimit="10" points="316.875,418 334.24,442.054 
		343.062,436.058 325.254,411.888 	"/>
	<polygon fill="#939598" stroke="#FFFFFF" stroke-width="0.5" stroke-miterlimit="10" points="364.354,383.369 382.531,409.234 
		398.852,398.143 379.378,372.41 	"/>
	<polygon fill="#939598" stroke="#FFFFFF" stroke-width="0.5" stroke-miterlimit="10" points="361.88,412.398 348.991,394.574 
		340.703,400.619 353.487,418.315 340.703,400.619 325.254,411.888 343.062,436.058 355.895,427.337 350.566,420.375 	"/>
	<polygon fill="#939598" stroke="#FFFFFF" stroke-width="0.5" stroke-miterlimit="10" points="353.501,391.285 371.528,416.712 
		382.531,409.234 364.354,383.369 	"/>
	<path fill="#939598" stroke="#FFFFFF" stroke-width="0.5" stroke-miterlimit="10" d="M383.526,360.356l4.401,5.817l9.835-7.174
		l16.745,17.68l5.416-3.768l-22.007-23.461C393.562,352.785,388.714,356.458,383.526,360.356z"/>
	<path fill="#939598" stroke="#FFFFFF" stroke-width="0.5" stroke-miterlimit="10" d="M407.938,351.938l8.228-6.646l-6.313-5.112
		c-3.267,2.595-7.315,5.737-11.934,9.272l22.007,23.459l4.577-3.183L407.938,351.938z"/>
	<path fill="#939598" stroke="#FFFFFF" stroke-width="0.5" stroke-miterlimit="10" d="M423.835,339.096l-7.043-4.63
		c-0.013,0.012-0.026,0.023-0.039,0.035c-1.514,1.338-3.877,3.275-6.901,5.679l6.313,5.112L423.835,339.096z"/>
	<polygon fill="#939598" stroke="#FFFFFF" stroke-width="0.5" stroke-miterlimit="10" points="407.938,351.938 424.5,369.729 
		431.304,376.087 431.8,375.75 443.75,367.634 416.164,345.292 	"/>
	<polygon fill="#939598" stroke="#FFFFFF" stroke-width="0.5" stroke-miterlimit="10" points="423.835,339.096 416.164,345.292 
		443.75,367.634 445.667,366.333 454.125,359 	"/>
	<path fill="#939598" stroke="#FFFFFF" stroke-width="0.5" stroke-miterlimit="10" d="M438.634,309.994
		c-2.713,4.037-5.453,7.582-8.104,10.69l4.701,3.271l8.555-10.449L438.634,309.994z"/>
	<polygon fill="#939598" stroke="#FFFFFF" stroke-width="0.5" stroke-miterlimit="10" points="443.787,313.505 435.232,323.955 
		453.507,336.666 461.75,325.75 	"/>
	<polygon fill="#939598" stroke="#FFFFFF" stroke-width="0.5" stroke-miterlimit="10" points="426.853,334.257 445.937,346.692 
		453.507,336.666 435.232,323.955 	"/>
	<path fill="#939598" stroke="#FFFFFF" stroke-width="0.5" stroke-miterlimit="10" d="M435.232,323.955l-4.701-3.271
		c-3.359,3.938-6.572,7.179-9.402,9.841l5.726,3.73L435.232,323.955z"/>
	<polygon fill="#939598" stroke="#FFFFFF" stroke-width="0.5" stroke-miterlimit="10" points="548.304,263.362 548.958,257.127 
		548.958,257.127 548.25,263.356 	"/>
	<polygon fill="#939598" stroke="#FFFFFF" stroke-width="0.5" stroke-miterlimit="10" points="526.156,234 540.068,227.031 
		534.548,216.137 520.75,223.375 	"/>
	<polygon fill="#939598" stroke="#FFFFFF" stroke-width="0.5" stroke-miterlimit="10" points="511.457,219.625 531,209.132 
		526.931,201.105 507,211.75 	"/>
	<polygon fill="#939598" stroke="#FFFFFF" stroke-width="0.5" stroke-miterlimit="10" points="548.25,263.356 548.958,257.127 
		541.125,256.557 539.964,269.895 547.554,270.506 548.304,263.362 	"/>
	<polygon fill="#939598" stroke="#FFFFFF" stroke-width="0.5" stroke-miterlimit="10" points="538.937,281.688 546.341,282.06 
		547.554,270.506 539.964,269.895 	"/>
	<polygon fill="#939598" stroke="#FFFFFF" stroke-width="0.5" stroke-miterlimit="10" points="563.812,282.938 564.562,274.938 
		557.25,264.375 548.304,263.362 546.341,282.06 	"/>
	<polygon fill="#939598" stroke="#FFFFFF" stroke-width="0.5" stroke-miterlimit="10" points="531.625,244.75 549.744,246.13 
		540.068,227.031 526.156,234 	"/>
	<path fill="#939598" stroke="#FFFFFF" stroke-width="0.5" stroke-miterlimit="10" d="M461.23,278.877l-7.318-0.349
		c-0.936,2.799-1.922,5.476-2.953,8.038l6.959,0.685L461.23,278.877z"/>
	<path fill="#939598" stroke="#FFFFFF" stroke-width="0.5" stroke-miterlimit="10" d="M586.625,310.125c0,0-33.125-2.5-40.219-3.059
		s-8.781-3.941-8.656-7.316c0.125-3.375,1.188-18.062,1.188-18.062l2.189-25.131l7.834,0.571l1.166-10.245l-0.381-0.752
		l-18.119-1.38L526.156,234l0,0l0,0l-5.404-10.625l13.797-7.238L531,209.133l-19.541,10.493L507,211.75l19.932-10.645l-4.682-9.24
		l-51.459,26.062l7.459,13.447l-15.738-1.552c-0.375,7.937-1.146,15.311-2.227,22.177h10.633l-0.67,10.089l0,0l0,0l-0.873,13.161
		h-6.707l-1.436,3.627l0,0l0,0l-3.314,8.373l-6.959-0.685c-3.713,9.232-7.98,16.968-12.324,23.429l23.115,15.756l-8.242,10.916
		l-7.57,10.026l21.48,13.998l56.494,5.199l60.756-0.39c0,0,9.293-5.352,18.512-10.771l3.07-42.979L586.625,310.125z"/>
	<path fill="#939598" stroke="#FFFFFF" stroke-width="0.5" stroke-miterlimit="10" d="M470.917,252h-10.633
		c-0.551,3.496-1.184,6.856-1.885,10.089h11.848L470.917,252z"/>
	<path fill="#939598" stroke="#FFFFFF" stroke-width="0.5" stroke-miterlimit="10" d="M470.248,262.089H458.4
		c-0.562,2.591-1.166,5.108-1.814,7.536h13.162L470.248,262.089z"/>
	<path fill="#939598" stroke="#FFFFFF" stroke-width="0.5" stroke-miterlimit="10" d="M456.585,269.625
		c-0.828,3.098-1.725,6.06-2.674,8.903l7.318,0.349l1.438-3.627h6.707l0.373-5.625H456.585z"/>
	<path fill="#939598" stroke="#FFFFFF" stroke-width="0.5" stroke-miterlimit="10" d="M470.791,217.928L462.75,222
		c-0.037,2.666-0.117,5.273-0.238,7.823l15.738,1.552L470.791,217.928z"/>
	<path fill="#939598" stroke="#FFFFFF" stroke-width="0.5" stroke-miterlimit="10" d="M313.491,364.375
		c0,0,10.369-44.883,25.625-62.959l-4.107-4.742c-4.892,7.322-22.126,35.115-29.134,73.055L313.491,364.375z"/>
	<path fill="#939598" stroke="#FFFFFF" stroke-width="0.5" stroke-miterlimit="10" d="M390.417,242.167l17.929,8.333l9.404-8.25
		l-24.167-11.899L374.082,207.5l-9.582,7.333L384,237.75c-13.648,8.848-34.303,35.565-38.306,40.831l3.609,2.419l2.037,2.33
		C366.578,260.831,390.417,242.167,390.417,242.167z"/>
	<path fill="#939598" stroke="#FFFFFF" stroke-width="0.5" stroke-miterlimit="10" d="M408.346,250.5l-17.929-8.333
		c0,0-23.838,18.664-39.075,41.163l11.892,13.601l17.833-21.764l12.315-15.03l6.025,5.07l5.754-6.729l5.729-6.793L408.346,250.5z"/>
	<path fill="#939598" stroke="#FFFFFF" stroke-width="0.5" stroke-miterlimit="10" d="M410.893,251.686l-5.729,6.793l17.389,11.534
		c1.354-3.75,2.5-7.54,3.469-11.287L410.893,251.686z"/>
	<path fill="#939598" stroke="#FFFFFF" stroke-width="0.5" stroke-miterlimit="10" d="M399.408,265.208l18.543,15.603
		c1.753-3.507,3.275-7.133,4.601-10.798l-17.389-11.534L399.408,265.208z"/>
	<path fill="#939598" stroke="#FFFFFF" stroke-width="0.5" stroke-miterlimit="10" d="M399.408,265.208L399.408,265.208l-6.025-5.07
		l-12.315,15.03l25.316,22.205c3.148-3.383,5.667-6.461,7.366-9.122c1.53-2.396,2.926-4.886,4.201-7.439L399.408,265.208
		L399.408,265.208z"/>
	<path fill="#939598" stroke="#FFFFFF" stroke-width="0.5" stroke-miterlimit="10" d="M363.233,296.931l19.505,22.311
		c3.396-2.863,6.627-5.66,9.656-8.369l-23.61-20.715l23.61,20.715c5.426-4.85,10.177-9.402,13.988-13.5l-25.316-22.205
		L363.233,296.931z"/>
	<path fill="#939598" stroke="#FFFFFF" stroke-width="0.5" stroke-miterlimit="10" d="M409.32,228.199L409.32,228.199
		L409.32,228.199l-7.266-3.128L409.32,228.199l4.847-3.128l16.821,0.937c0.416-7.138,0.264-11.675,0.264-11.675
		s-1.154-2.318-2.852-5.68l-25.355,15.801l-9.46,5.896l24.167,11.899l10.875,4.35c0.576-3.307,1.029-6.494,1.385-9.493
		L409.32,228.199z"/>
	<path fill="#939598" stroke="#FFFFFF" stroke-width="0.5" stroke-miterlimit="10" d="M340.583,258.479l3.167-4.313l-13.23-11.131
		c-3.585,3.994-7.147,8.152-10.635,12.47l14.532,10.328L340.583,258.479z"/>
	<path fill="#939598" stroke="#FFFFFF" stroke-width="0.5" stroke-miterlimit="10" d="M409.32,228.199l20.689,8.908
		c0.486-4.114,0.791-7.872,0.979-11.099l-16.821-0.937L409.32,228.199z"/>
	<path fill="#939598" stroke="#FFFFFF" stroke-width="0.5" stroke-miterlimit="10" d="M330.52,243.036l13.23,11.131l-3.167,4.313
		l5.5,4.021l3.167-4.021l7.573,6.188c1.696-2.025,3.518-4.145,5.397-6.277l-25.315-22.277
		C334.775,238.357,332.645,240.668,330.52,243.036z"/>
	<path fill="#939598" stroke="#FFFFFF" stroke-width="0.5" stroke-miterlimit="10" d="M375.418,244.653L351.066,222
		c-4.623,4.362-9.383,9.076-14.161,14.112l25.315,22.277C366.457,253.586,371.03,248.711,375.418,244.653z"/>
	<path fill="#939598" stroke="#FFFFFF" stroke-width="0.5" stroke-miterlimit="10" d="M364.5,214.833l-2.467-2.779
		c-3.52,3.065-7.195,6.386-10.967,9.945l24.352,22.653c3.009-2.782,5.928-5.183,8.582-6.903L364.5,214.833z"/>
	<path fill="#939598" stroke="#FFFFFF" stroke-width="0.5" stroke-miterlimit="10" d="M393.537,209.821l-9.673-15.244
		c-2.384,1.722-5.099,3.76-8.08,6.096l11.3,13.327L393.537,209.821z"/>
	<path fill="#939598" stroke="#FFFFFF" stroke-width="0.5" stroke-miterlimit="10" d="M418.333,189.333
		c-4.917-8.917-15.583-6.333-25.737-0.583c-1.79,1.014-4.814,2.997-8.732,5.827l9.673,15.244l2.297-1.487l10.151,14.289
		l22.414-13.969C425.621,203.157,421.384,194.867,418.333,189.333z"/>
	<path fill="#939598" stroke="#FFFFFF" stroke-width="0.5" stroke-miterlimit="10" d="M270.594,368.025
		c-0.648,3.482-1.211,6.789-1.7,9.876l18.35,2.765l-18.35-2.765c-2.345,14.825-2.968,24.599-2.968,24.599l9.574-3.75
		c0,0,3.773-2.555,10.074-6.916l3.113-20.826L270.594,368.025z"/>
	<path fill="#939598" stroke="#FFFFFF" stroke-width="0.5" stroke-miterlimit="10" d="M285.574,391.833
		c6.159-4.264,14.736-10.256,24.588-17.289l-21.475-3.537L285.574,391.833z"/>
	<path fill="#939598" stroke="#FFFFFF" stroke-width="0.5" stroke-miterlimit="10" d="M290.583,358.322l-16.954-4.938
		c-1.176,5.125-2.179,10.035-3.036,14.642l18.094,2.981L290.583,358.322z"/>
	<path fill="#939598" stroke="#FFFFFF" stroke-width="0.5" stroke-miterlimit="10" d="M366.219,332.699l-27.103-31.283
		c-2.937,3.479-5.69,7.951-8.226,12.904l23.674,27.458C358.503,338.753,362.404,335.718,366.219,332.699z"/>
	<path fill="#939598" stroke="#FFFFFF" stroke-width="0.5" stroke-miterlimit="10" d="M330.891,314.32
		c-3.183,6.219-6.019,13.195-8.43,19.924l15.817,19.832c5.411-4.023,10.883-8.148,16.286-12.298L330.891,314.32z"/>
	<path fill="#939598" stroke="#FFFFFF" stroke-width="0.5" stroke-miterlimit="10" d="M322.382,334.244
		c-2.097,5.85-3.873,11.508-5.278,16.312l9.414,12.126c3.829-2.796,7.739-5.673,11.683-8.606L322.382,334.244z"/>
	<path fill="#939598" stroke="#FFFFFF" stroke-width="0.5" stroke-miterlimit="10" d="M285.791,312.931l32.796,14.613
		c1.216-2.865,2.438-5.582,3.641-8.117l-32.917-15.016C288.076,307.234,286.9,310.078,285.791,312.931z"/>
	<path fill="#939598" stroke="#FFFFFF" stroke-width="0.5" stroke-miterlimit="10" d="M282.33,322.396
		c-1.106,3.221-2.139,6.43-3.105,9.613l18.174,5.224l1.998-7.004L282.33,322.396z"/>
	<path fill="#939598" stroke="#FFFFFF" stroke-width="0.5" stroke-miterlimit="10" d="M299.396,330.229L299.396,330.229l6.479,2.974
		l4.135-9.479l-24.219-10.792c-1.226,3.151-2.377,6.312-3.461,9.465L299.396,330.229L299.396,330.229z"/>
	<path fill="#939598" stroke="#FFFFFF" stroke-width="0.5" stroke-miterlimit="10" d="M310.01,323.723l-4.135,9.479l-6.479-2.975
		l-1.999,7.004l15.756,4.527c1.734-5.082,3.574-9.834,5.433-14.215L310.01,323.723z"/>
	<path fill="#939598" stroke="#FFFFFF" stroke-width="0.5" stroke-miterlimit="10" d="M298.407,286.221
		c-1.663,2.902-3.244,5.862-4.745,8.868l33.102,15.345c1.606-3,3.103-5.612,4.409-7.796L298.407,286.221z"/>
	<path fill="#939598" stroke="#FFFFFF" stroke-width="0.5" stroke-miterlimit="10" d="M334.93,296.674l-0.259-0.299l-30.685-19.223
		c-0.781,1.192-1.557,2.389-2.315,3.598c-1.126,1.793-2.206,3.624-3.264,5.471l32.766,16.417
		C332.741,300.019,334.042,298.004,334.93,296.674z"/>
	<path fill="#939598" stroke="#FFFFFF" stroke-width="0.5" stroke-miterlimit="10" d="M289.309,304.412l32.917,15.016
		c1.564-3.301,3.095-6.299,4.537-8.993l-33.102-15.345C292.13,298.158,290.681,301.27,289.309,304.412z"/>
	<path fill="#939598" stroke="#FFFFFF" stroke-width="0.5" stroke-miterlimit="10" d="M317.104,350.557
		c-2.378,8.135-3.691,13.817-3.691,13.817l-7.616,5.354c0.753-4.076,1.629-8.026,2.59-11.854l-29.162-8.041l3.105-11.084
		l28.988,8.672c0.597-1.926,1.208-3.818,1.837-5.66l-15.756-4.528l-18.174-5.224c-2.229,7.343-4.107,14.548-5.674,21.375
		l16.954,4.938l-1.896,12.686l21.475,3.537c5.183-3.699,10.716-7.687,16.435-11.861L317.104,350.557z"/>
	<path fill="#939598" stroke="#FFFFFF" stroke-width="0.5" stroke-miterlimit="10" d="M279.224,349.833l29.162,8.041
		c0.905-3.604,1.891-7.09,2.932-10.453l-28.988-8.672L279.224,349.833z"/>
	<polygon fill="#939598" stroke="#FFFFFF" stroke-width="0.5" stroke-miterlimit="10" points="245.125,464.136 242.804,493.875 
		253.5,487.845 255.25,464.75 	"/>
	
		<ellipse transform="matrix(-0.2149 -0.9766 0.9766 -0.2149 -132.3788 831.0698)" fill="#939598" stroke="#FFFFFF" stroke-width="0.5" stroke-miterlimit="10" cx="267.853" cy="468.744" rx="6.999" ry="5.375"/>
	
		<ellipse transform="matrix(0.6409 -0.7676 0.7676 0.6409 -215.3904 365.8851)" fill="#939598" stroke="#FFFFFF" stroke-width="0.5" stroke-miterlimit="10" cx="283.381" cy="413.163" rx="7.001" ry="5.374"/>
	
		<ellipse transform="matrix(0.2734 -0.9619 0.9619 0.2734 -226.4378 577.6146)" fill="#939598" stroke="#FFFFFF" stroke-width="0.5" stroke-miterlimit="10" cx="269.115" cy="438.691" rx="11.263" ry="5.375"/>
	<path fill="#939598" stroke="#FFFFFF" stroke-width="0.5" stroke-miterlimit="10" d="M286.062,492.634l-8.079-11.707
		c-3.704,3.541-8.055,7.715-12.461,11.977l7.837,11.391C277.528,500.843,282.063,496.576,286.062,492.634z"/>
	<path fill="#939598" stroke="#FFFFFF" stroke-width="0.5" stroke-miterlimit="10" d="M295.969,482.478l-7.719-11.322
		c0,0-4.283,4.055-10.268,9.771l8.079,11.707C290.373,488.382,294.057,484.515,295.969,482.478z"/>
	<path fill="#939598" stroke="#FFFFFF" stroke-width="0.5" stroke-miterlimit="10" d="M273.358,504.292l22.392,32.539l13.917-9.998
		l-3.691-5.348l0,0l0,0l-19.915-28.854C282.063,496.576,277.528,500.843,273.358,504.292z"/>
	<path fill="#939598" stroke="#FFFFFF" stroke-width="0.5" stroke-miterlimit="10" d="M286.062,492.634l19.915,28.854l11.357-7.668
		l-21.364-31.342C294.057,484.515,290.373,488.382,286.062,492.634z"/>
	<path fill="#939598" stroke="#FFFFFF" stroke-width="0.5" stroke-miterlimit="10" d="M245.375,539.625
		c2.758,5.926,14.35,30.643,42.739,11.754l-26.133-38.496c-7.49,5.287-14.07,9.369-16.606,11.117
		C241.75,526.5,240.328,528.781,245.375,539.625z"/>
	<path fill="#939598" stroke="#FFFFFF" stroke-width="0.5" stroke-miterlimit="10" d="M288.114,551.378
		c-28.39,18.889-39.981-5.828-42.739-11.754c-5.047-10.844-3.625-13.125,0-15.625c2.537-1.748,9.117-5.83,16.606-11.117
		l-6.754-9.949c-4.489,4.416-8.459,8.396-11.103,11.191c-10.875,11.5-10.25,20.75,0,35.75s18.156,26.996,37.476,13.936
		c3.322-2.244,6.77-4.615,10.202-7L288.114,551.378z"/>
	<path fill="#939598" stroke="#FFFFFF" stroke-width="0.5" stroke-miterlimit="10" d="M271.875,505.5
		c0.487-0.387,0.984-0.793,1.483-1.207l-7.837-11.389c-3.505,3.389-7.034,6.822-10.293,10.029l6.754,9.949
		C265.195,510.615,268.573,508.126,271.875,505.5z"/>
	<path fill="#939598" stroke="#FFFFFF" stroke-width="0.5" stroke-miterlimit="10" d="M295.75,536.832L295.75,536.832
		l-22.392-32.539c-0.5,0.414-0.996,0.82-1.483,1.207c-3.302,2.627-6.68,5.115-9.894,7.383l29.821,43.928
		c4.079-2.834,8.133-5.686,11.931-8.379L295.75,536.832L295.75,536.832z"/>
	<path fill="#939598" stroke="#FFFFFF" stroke-width="0.5" stroke-miterlimit="10" d="M214.107,349.716L214.107,349.716
		l-9.591-1.561l-0.04,0.156l-0.929,9.562l35.881,5.682c0.528-3.285,1.063-6.436,1.616-9.463L214.107,349.716L214.107,349.716z"/>
	<path fill="#939598" stroke="#FFFFFF" stroke-width="0.5" stroke-miterlimit="10" d="M201.678,377.132l34.943,5.554
		c0.495-3.64,0.984-7.108,1.474-10.44l-35.446-5.113L201.678,377.132z"/>
	<path fill="#939598" stroke="#FFFFFF" stroke-width="0.5" stroke-miterlimit="10" d="M203.548,357.875l-0.899,9.256l35.446,5.115
		c0.442-3.01,0.885-5.9,1.333-8.689L203.548,357.875z"/>
	<path fill="#939598" stroke="#FFFFFF" stroke-width="0.5" stroke-miterlimit="10" d="M200.625,308.634l47.806,14.976
		c0.761-2.376,1.563-4.728,2.418-7.069l-43.003-18.792L200.625,308.634z"/>
	<path fill="#939598" stroke="#FFFFFF" stroke-width="0.5" stroke-miterlimit="10" d="M207.846,297.748l43.003,18.791
		c1.008-2.763,2.087-5.518,3.249-8.299l-40.692-18.873L207.846,297.748z"/>
	<path fill="#939598" stroke="#FFFFFF" stroke-width="0.5" stroke-miterlimit="10" d="M173.245,512.976
		c-1.239,12.201,15.481,9.023,24.981,8.773c0.017,0,0.032,0,0.048-0.002l3.952-37.623h22.217c1.624-12.818,3.521-31.516,6.85-59.301
		l-49.014-0.781C178.183,464.371,173.886,506.671,173.245,512.976z"/>
	<path fill="#939598" stroke="#FFFFFF" stroke-width="0.5" stroke-miterlimit="10" d="M198.275,521.748
		c9.447-0.256,8.467-2.26,17.202-8.998c4.81-3.711,6.599-9.918,8.967-28.625h-22.217L198.275,521.748z"/>
	<path fill="#939598" stroke="#FFFFFF" stroke-width="0.5" stroke-miterlimit="10" d="M236.621,382.686l-34.943-5.554l-2.818,29.277
		l34.646,0.354C234.606,397.974,235.626,389.998,236.621,382.686z"/>
	<path fill="#939598" stroke="#FFFFFF" stroke-width="0.5" stroke-miterlimit="10" d="M213.405,289.367l40.692,18.873
		c2.98-7.133,6.509-14.448,10.781-22.516l-37.521-17.392L213.405,289.367z"/>
	<path fill="#939598" stroke="#FFFFFF" stroke-width="0.5" stroke-miterlimit="10" d="M214.107,349.716l26.937,4.377
		c0.616-3.377,1.252-6.605,1.92-9.723L217.414,338L214.107,349.716z"/>
	<path fill="#939598" stroke="#FFFFFF" stroke-width="0.5" stroke-miterlimit="10" d="M356.138,148.625l-17.475-28.867l-10.892,7.49
		l11.372,17.876l-6.488,4.04l21.151,24.526c7.08-5.284,13.986-9.961,20.459-14.046L364.727,144L356.138,148.625z"/>
	<path fill="#939598" stroke="#FFFFFF" stroke-width="0.5" stroke-miterlimit="10" d="M363.852,124.625l-6.909-13.982l-0.216,0.107
		l-1.791-2.183l-16.272,11.191l17.475,28.867l8.589-4.625l9.54,15.645c8.565-5.405,16.367-9.773,22.798-13.13l-16.312-29.765
		L363.852,124.625z"/>
	<path fill="#939598" stroke="#FFFFFF" stroke-width="0.5" stroke-miterlimit="10" d="M389.572,132.844l7.49,13.671
		c1.014-0.528,1.989-1.031,2.932-1.509l-7.398-13.756L389.572,132.844z"/>
	<path fill="#939598" stroke="#FFFFFF" stroke-width="0.5" stroke-miterlimit="10" d="M390.727,111.25l-3.875,2l16.231,30.21
		c1.199-0.59,2.315-1.129,3.354-1.623L390.727,111.25z"/>
	<path fill="#939598" stroke="#FFFFFF" stroke-width="0.5" stroke-miterlimit="10" d="M270.815,202.823l28.863,24.637
		c1.777-2.445,3.596-4.839,5.45-7.179l-28.94-25.556L270.815,202.823z"/>
	<path fill="#939598" stroke="#FFFFFF" stroke-width="0.5" stroke-miterlimit="10" d="M264.693,212.052l29.071,23.992
		c1.91-2.93,3.884-5.792,5.914-8.584l-28.863-24.637L264.693,212.052z"/>
	<path fill="#939598" stroke="#FFFFFF" stroke-width="0.5" stroke-miterlimit="10" d="M250.928,264.119l20.444,9.748
		c2.08-3.693,4.306-7.567,6.689-11.657l-18.918-11.82L250.928,264.119z"/>
	<path fill="#939598" stroke="#FFFFFF" stroke-width="0.5" stroke-miterlimit="10" d="M227.358,268.333l37.521,17.392
		c1.995-3.767,4.152-7.701,6.493-11.858l-36.227-17.272L227.358,268.333z"/>
	<path fill="#939598" stroke="#FFFFFF" stroke-width="0.5" stroke-miterlimit="10" d="M276.188,194.724l28.94,25.556
		c2.063-2.601,4.169-5.137,6.313-7.609l-29.914-25.998L276.188,194.724z"/>
	<path fill="#939598" stroke="#FFFFFF" stroke-width="0.5" stroke-miterlimit="10" d="M281.528,186.673l29.914,25.998
		c7.895-9.108,16.276-17.345,24.724-24.734L304.51,152.03L281.528,186.673z"/>
	<polygon fill="#939598" stroke="#FFFFFF" stroke-width="0.5" stroke-miterlimit="10" points="376.875,179.408 381.722,186.673 
		394.783,178.5 390.625,171.323 	"/>
	<path fill="#939598" stroke="#FFFFFF" stroke-width="0.5" stroke-miterlimit="10" d="M260.844,330.75l-7.344-2.353L250.849,337
		l17.526,5.125c0,0,2.021-6.043,4.177-12.527l-10.115-3.133C261.508,328.962,260.844,330.75,260.844,330.75z"/>
	<path fill="#939598" stroke="#FFFFFF" stroke-width="0.5" stroke-miterlimit="10" d="M267.907,311.688
		c-0.886,2.431-3.673,9.94-5.47,14.776l10.115,3.133c1.749-5.26,3.587-10.811,4.51-13.668
		C279.125,309.544,269.25,308,267.907,311.688z"/>
	<polygon fill="#939598" stroke="#FFFFFF" stroke-width="0.5" stroke-miterlimit="10" points="548.958,164.69 548.958,164.69 
		550.72,163.848 	"/>
	<path fill="#939598" stroke="#FFFFFF" stroke-width="0.5" stroke-miterlimit="10" d="M551.894,163.287l-1.174,0.561
		L551.894,163.287z"/>
	<polygon fill="#939598" stroke="#FFFFFF" stroke-width="0.5" stroke-miterlimit="10" points="574.833,207 571.736,208.512 
		571.833,208.667 	"/>
	<polygon fill="#939598" stroke="#FFFFFF" stroke-width="0.5" stroke-miterlimit="10" points="579.625,303 580.125,296.688 
		565.625,295.875 565.25,301.712 	"/>
	<polygon fill="#939598" stroke="#FFFFFF" stroke-width="0.5" stroke-miterlimit="10" points="321.818,281.885 319.134,286.592 
		326.854,291.428 329.47,286.754 	"/>
	<polygon fill="#939598" stroke="#FFFFFF" stroke-width="0.5" stroke-miterlimit="10" points="329.47,286.754 326.854,291.428 
		333.922,295.856 336.767,291.397 	"/>
	<polygon fill="#939598" stroke="#FFFFFF" stroke-width="0.5" stroke-miterlimit="10" points="314.415,277.173 311.453,281.781 
		319.134,286.592 321.818,281.885 	"/>
	<path fill="#939598" stroke="#FFFFFF" stroke-width="0.5" stroke-miterlimit="10" d="M307.146,272.548
		c-1.045,1.52-2.069,3.057-3.082,4.604l7.388,4.628l2.962-4.607L307.146,272.548z"/>
	<polygon fill="#939598" stroke="#FFFFFF" stroke-width="0.5" stroke-miterlimit="10" points="337.125,291.625 336.767,291.397 
		333.922,295.856 334.75,296.375 339.116,301.416 342.126,297.35 	"/>
	<polygon fill="#939598" stroke="#FFFFFF" stroke-width="0.5" stroke-miterlimit="10" points="342.126,297.35 339.116,301.416 
		346.073,309.445 349.169,305.412 	"/>
	<polygon fill="#939598" stroke="#FFFFFF" stroke-width="0.5" stroke-miterlimit="10" points="356.088,313.333 352.765,317.169 
		359.479,324.919 362.923,321.158 	"/>
	<path fill="#939598" stroke="#FFFFFF" stroke-width="0.5" stroke-miterlimit="10" d="M370.221,329.513l-7.298-8.354l-3.444,3.762
		l6.74,7.779C367.564,331.634,368.899,330.572,370.221,329.513z"/>
	<polygon fill="#939598" stroke="#FFFFFF" stroke-width="0.5" stroke-miterlimit="10" points="349.169,305.412 346.073,309.445 
		352.765,317.169 356.088,313.333 	"/>
	<polygon fill="#939598" stroke="#FFFFFF" stroke-width="0.5" stroke-miterlimit="10" points="351.584,283.608 348.077,287.838 
		353.142,293.502 357.273,290.115 	"/>
	<polygon fill="#939598" stroke="#FFFFFF" stroke-width="0.5" stroke-miterlimit="10" points="349.305,281 345.69,278.578 
		342.784,282.338 343.65,282.889 348.077,287.838 351.584,283.608 	"/>
	<polygon fill="#939598" stroke="#FFFFFF" stroke-width="0.5" stroke-miterlimit="10" points="323.834,263.936 320.544,268.195 
		328.137,273.023 331.267,268.915 	"/>
	<path fill="#939598" stroke="#FFFFFF" stroke-width="0.5" stroke-miterlimit="10" d="M316.886,259.28
		c-1.141,1.462-2.274,2.936-3.395,4.43l7.054,4.486l3.29-4.26L316.886,259.28z"/>
	<polygon fill="#939598" stroke="#FFFFFF" stroke-width="0.5" stroke-miterlimit="10" points="331.267,268.915 328.137,273.023 
		342.784,282.338 345.69,278.578 	"/>
	<polygon fill="#939598" stroke="#FFFFFF" stroke-width="0.5" stroke-miterlimit="10" points="372.788,307.859 368.902,311.125 
		374.192,317.041 377.939,313.751 	"/>
	<path fill="#939598" stroke="#FFFFFF" stroke-width="0.5" stroke-miterlimit="10" d="M382.738,319.242l-4.799-5.49l-3.747,3.289
		l4.782,5.348C380.251,321.33,381.501,320.283,382.738,319.242z"/>
	<polygon fill="#939598" stroke="#FFFFFF" stroke-width="0.5" stroke-miterlimit="10" points="362.616,296.226 358.596,299.601 
		363.715,305.326 367.532,301.849 	"/>
	<polygon fill="#939598" stroke="#FFFFFF" stroke-width="0.5" stroke-miterlimit="10" points="367.532,301.849 363.715,305.326 
		368.902,311.125 372.788,307.859 	"/>
	<path fill="#939598" stroke="#FFFFFF" stroke-width="0.5" stroke-miterlimit="10" d="M293.764,236.043l-15.598-12.873l-5.06,7.321
		l16.971,11.433C291.276,239.934,292.506,237.974,293.764,236.043z"/>
</g>
</svg>
