<?xml version="1.0" encoding="utf-8"?>
<!-- Generator: Adobe Illustrator 16.0.3, SVG Export Plug-In . SVG Version: 6.00 Build 0)  -->
<!DOCTYPE svg PUBLIC "-//W3C//DTD SVG 1.1//EN" "http://www.w3.org/Graphics/SVG/1.1/DTD/svg11.dtd">
<svg version="1.1" id="Layer_1" xmlns="http://www.w3.org/2000/svg" xmlns:xlink="http://www.w3.org/1999/xlink" x="0px" y="0px"
	 width="841.89px" height="595.281px" viewBox="0 0 841.89 595.281" enable-background="new 0 0 841.89 595.281"
	 xml:space="preserve">
<g id="background">
	<rect fill="#FFFFFF" width="841.89" height="595.281"/>
</g>
<g id="etc">
	<path fill="#DEDEDE" stroke="#494949" stroke-width="0.5" stroke-miterlimit="10" d="M523.906,176.667L507,184.75L498.05,168
		l-10.389,5.5l7.588,16.5l-35.75,19.5l-13.25-3.75L392.415,99.862l-6.401,3.558l-12.895-24.309C390.63,70.282,406,62.5,406,62.5
		L377,7l-88.854,43.565c-5.09-6.064-12.724-9.922-21.26-9.922c-15.326,0-27.75,12.424-27.75,27.75
		c0,9.458,4.736,17.807,11.961,22.816L249.5,93l8.5,6l-10,14.75l-8.864-5.5l-0.882,1.288c-4.4-2.933-9.684-4.645-15.368-4.645
		c-15.326,0-27.75,12.424-27.75,27.75c0,9.373,4.652,17.655,11.768,22.679L199.25,166.5l-7.5,74.75l22.5,14.25l15.855-22.945
		l-0.125,0.181l14.395,9.764l30.83,19.434c-11.81,19.885-21.498,40.88-27.925,60.896l-24.305-6.877l3.152-9.467l-23.783-7.979
		c-2.38,3.591-4.342,6.58-5.609,8.561l0,0l-0.015,0.021c-0.292,0.457-0.56,0.877-0.772,1.218c-0.249,0.397-0.443,0.72-0.572,0.942
		c-0.044,0.075-0.075,0.142-0.116,0.215l-0.051,0.084l0.005,0.002c-2.581,4.699,0.099,5.021,2.912,6.037
		c2.875,1.037,42.125,12.81,42.125,12.81l-3,9.229c0,0-39.935-11.125-43.092-12.125c-2.969-0.938-6.153-0.992-7.447,4.612
		l54.776,14.625c-3.527,16.817-6.906,35.604-9.936,57.353l-53.659-1.041c-0.083,4.061,0.663,6.813,5.442,6.951
		c5.667,0.168,38.167,0,38.167,0l-0.667,10.668c0,0-36.572-1.002-39.786-0.834c-3.214,0.166-5.38,0.5-5.714,5.666
		s-8.5,79.166-8.667,86.834c-0.145,6.686,0.473,13.117,9.255,14.984l4.169-41.193h40.987l2.144,0.041
		c-0.322,4.635-0.634,9.348-0.926,14.188l19.645,6.455l6.393,9.521l41.067-27.984c-2.475-3.377-4.535-6.571-6.239-9.6
		c6.083-4.006,17.672-11.75,17.672-11.75L321,451l-6.685-9.195l-16.482,11.613l2.667,3.703l-20.1,14.219
		c-11.537-25.27,3.002-36.672,3.002-36.672s6.656-4.744,16.673-11.918l3.174,3.834l12-9l-2.556-3.883
		c10.017-7.191,20.771-14.938,31.82-22.951c-0.235,0.172,0.238-0.174,0,0l15.149,19.918l-16.605,11.021l9.968,13.621
		c6.172-4.232,14.005-9.625,22.117-15.216l-25.493-33.073c7.874-5.726,15.398-11.229,21.866-16.019
		c8.871-6.563,16.457-12.049,23.272-17.229l3.385,3.6l7.322-5.557l-3.41-3.729c5.027-4.028,9.717-8.09,14.312-12.541l40.426,29.134
		c1.422-1.155,3.436-2.912,5.709-5.248l-41.131-28.931c6.2-6.521,12.379-14.021,19.139-23.438
		c4.309-6.002,7.803-12.892,10.643-20.092c9.584-24.314,11.67-52.231,12.113-61.847c0-0.001,0-0.002,0-0.003
		c0.035-0.723,0.059-1.34,0.076-1.846c0-0.024,0.002-0.049,0.002-0.072c0.016-0.481,0.025-0.855,0.031-1.114
		c0.002-0.012,0.002-0.027,0.002-0.038c0.002-0.119,0.004-0.211,0.006-0.276c0-0.012,0-0.024,0-0.035
		c0-0.041,0.002-0.079,0.002-0.079l65.719-34.284L523.906,176.667z M223.596,478.853c0.014-0.194,0.028-0.396,0.042-0.598
		l-42.964,0.105l4.659-46.027h8.968l-0.676,8.166l13.332-0.48l1.533-15.19h20.158C226.746,441.169,225.04,459.072,223.596,478.853z
		 M316.068,207.5c-9.396,9.779-18.4,20.832-26.735,32.635L256.54,219.07c-2.288,3.388-3.666,5.43-3.666,5.43l16.042,10.588
		l-5.667,8.162l-27.652-18.644l49.652-71.856l7-9.625l-7.625-5.109l10.72-15.598L303,127.5c0,0,14.5-20.5,39-32.75
		c6.717-3.358,14.561-7.299,22.41-11.251l12.902,24.758l-0.438,0.243L373,102.625l-16.25,8.125l-0.698-0.851l9.399,17.349
		l15.022-9.987L396.645,148C396.645,148,351.137,171,316.068,207.5z"/>
	<path fill="#DEDEDE" stroke="#494949" stroke-width="0.5" stroke-miterlimit="10" d="M796.195,57.173
		c-3.391-7.634-10.826-12.937-19.461-12.937c-1.443,0-2.855,0.15-4.219,0.433L772.001,43c0,0-13.166,1.167-16.5,2
		s-1.5,5.167-1.5,5.167l-14.334,5c0,0-1.5-3.667-2.334-5.833c-0.832-2.166-3.021-1.271-4.959-0.771
		c-0.787,0.204-16.42,5.446-34.689,11.593c-3.898-4.251-9.404-6.905-15.514-6.905c-10.871,0-19.844,8.403-21.225,19.286
		C648.175,76.845,638.833,80,638.833,80l10,20.833l5.834-2l9.5,28.333c0,0,3.666-1.667,5.5,3s1.834,5.5,1.834,5.5l110.332-36.5
		l0.068-0.194c1.896,0.575,3.914,0.889,5.998,0.889c11.82,0,21.416-9.943,21.416-22.208
		C809.316,68.438,803.902,60.535,796.195,57.173z"/>
	<line fill="none" stroke="#494949" stroke-width="0.5" stroke-miterlimit="10" x1="621.613" y1="96.65" x2="641.914" y2="86.417"/>
	
		<line fill="none" stroke="#494949" stroke-width="0.5" stroke-miterlimit="10" x1="626.437" y1="106.072" x2="646.125" y2="95.19"/>
	<path fill="#DEDEDE" stroke="#494949" stroke-width="0.5" stroke-miterlimit="10" d="M489.648,290.115
		c-1.543,6.394-5.525,22.69-10.314,40.552c-6.166,23-24.666,35.666-24.666,35.666l130-0.834c0,0,33-19,36.332-21.666
		c3.334-2.666,4.666-6.5,5.334-14.834c0.461-5.767,1.641-18.789,2.268-27.537L489.648,290.115z"/>
	<path fill="#DEDEDE" stroke="#494949" stroke-width="0.5" stroke-miterlimit="10" d="M289.4,486.349l17.714-12.067
		c-3.821-5.646-6.281-9.277-6.281-9.277s-12.103,8.103-17.671,11.752C284.866,479.777,286.926,482.974,289.4,486.349z"/>
	<polygon fill="#DEDEDE" stroke="#494949" stroke-width="0.5" stroke-miterlimit="10" points="250.75,426 255.228,432.333 
		250.75,475.125 243.964,479.005 233.128,478.361 238.646,425.5 	"/>
	<path fill="#DEDEDE" stroke="#494949" stroke-width="0.5" stroke-miterlimit="10" d="M535.833,201.105l-7.006,3.742l30.672,58.685
		l61.199,5.381C608.894,250.544,558,172.833,558,172.833l-19.832,9.833l-9.033,4.712L535.833,201.105z"/>
	<polygon fill="#DEDEDE" stroke="#494949" stroke-width="0.5" stroke-miterlimit="10" points="538.167,182.667 532.566,172.528 
		523.906,176.667 529.134,187.379 	"/>
	<path fill="#DEDEDE" stroke="#494949" stroke-width="0.5" stroke-miterlimit="10" d="M558,172.833l-19.832,9.834l-5.602-10.139
		L564,157.5c0,0,11.854,15.657,3.053,29.162L558,172.833z"/>
	<path fill="#DEDEDE" stroke="#494949" stroke-width="0.5" stroke-miterlimit="10" d="M629,293.333
		c-0.166-3.833-0.5-12-6.334-21.333c-0.406-0.652-1.082-1.709-1.967-3.088l-61.199-5.381l-5.848-11.19
		c-13.295-0.667-53.387-2.681-60.318-3.056c-7.609-0.412-23.967,3.118-34.049,9.086c-0.406,2.08-0.859,4.2-1.35,6.339
		c6.113-3.676,20.145-10.763,36.398-9.958c21.832,1.082,42.166,3.181,42.166,3.181s10.645,1.234,9.906,13.567l-0.658,10.53
		l-90.463-7.137c-1.189,4.059-2.539,8.117-4.105,12.081l177.418,14.488C628.88,297.566,629.052,294.515,629,293.333z"/>
	<polygon fill="#DEDEDE" stroke="#494949" stroke-width="0.5" stroke-miterlimit="10" points="312.917,274.937 318.369,267.667 
		345.69,285.17 378.465,323.066 370.811,328.75 339.167,292.5 	"/>
	<path fill="#DEDEDE" stroke="#494949" stroke-width="0.5" stroke-miterlimit="10" d="M386.829,163.473
		c0,0-32.813,16.372-67.384,53.208h24.101c14.714-14.2,31.97-27.256,52.237-38.182L386.829,163.473z"/>
	<path fill="#DEDEDE" stroke="#494949" stroke-width="0.5" stroke-miterlimit="10" d="M304.967,233.31
		c-8.451,10.453-16.743,22.169-24.426,35.213c-3.155,5.355-6.203,10.937-9.119,16.743l10.635,23.498
		c2.111-5.082,4.417-10.259,6.935-15.495c9.46-19.666,21.929-40.122,38.316-59.322L304.967,233.31z"/>
	<path fill="#DEDEDE" stroke="#494949" stroke-width="0.5" stroke-miterlimit="10" d="M267.457,323.066
		c-4.578,0-8.29-3.714-8.29-8.291c0-0.791,0.118-1.554,0.324-2.275c-7.267,19.25-12.938,40.553-16.174,64.031l20.398-7.986
		c2.128-10.404,5.334-23.338,10.109-37.707l-4.38-8.021C268.806,322.975,268.143,323.066,267.457,323.066z"/>
	
		<rect x="237.528" y="457.754" transform="matrix(0.9951 0.0985 -0.0985 0.9951 47.5255 -21.2012)" fill="#DEDEDE" stroke="#494949" stroke-width="0.5" stroke-miterlimit="10" width="2.083" height="26.329"/>
	
		<rect x="239.559" y="457.955" transform="matrix(0.9951 0.0985 -0.0985 0.9951 47.5778 -21.4091)" fill="#DEDEDE" stroke="#494949" stroke-width="0.5" stroke-miterlimit="10" width="2.082" height="26.326"/>
	
		<rect x="283.827" y="279.708" transform="matrix(0.8663 0.4995 -0.4995 0.8663 184.3586 -103.1349)" fill="#DEDEDE" stroke="#494949" stroke-width="0.5" stroke-miterlimit="10" width="2.084" height="26.335"/>
	
		<rect x="285.651" y="280.761" transform="matrix(0.867 0.4984 -0.4984 0.867 184.6218 -103.7745)" fill="#DEDEDE" stroke="#494949" stroke-width="0.5" stroke-miterlimit="10" width="2.081" height="26.338"/>
	
		<rect x="278.604" y="273.002" transform="matrix(0.9489 -0.3155 0.3155 0.9489 -74.2758 102.5492)" fill="#DEDEDE" stroke="#494949" stroke-width="0.5" stroke-miterlimit="10" width="2.085" height="15.436"/>
	
		<rect x="280.581" y="272.34" transform="matrix(0.9488 -0.316 0.316 0.9488 -74.0719 103.3493)" fill="#DEDEDE" stroke="#494949" stroke-width="0.5" stroke-miterlimit="10" width="2.081" height="15.442"/>
	
		<rect x="337.964" y="193.392" transform="matrix(0.9989 0.0464 -0.0464 0.9989 9.6958 -15.512)" fill="#DEDEDE" stroke="#494949" stroke-width="0.5" stroke-miterlimit="10" width="2.084" height="15.438"/>
	
		<rect x="340.05" y="193.486" transform="matrix(0.999 0.0453 -0.0453 0.999 9.4674 -15.2487)" fill="#DEDEDE" stroke="#494949" stroke-width="0.5" stroke-miterlimit="10" width="2.08" height="15.443"/>
	
		<rect x="247.72" y="353.44" transform="matrix(0.822 -0.5695 0.5695 0.822 -161.403 205.973)" fill="#DEDEDE" stroke="#494949" stroke-width="0.5" stroke-miterlimit="10" width="2.085" height="15.437"/>
	
		<rect x="249.383" y="352.184" transform="matrix(0.8214 -0.5704 0.5704 0.8214 -160.559 207.1407)" fill="#DEDEDE" stroke="#494949" stroke-width="0.5" stroke-miterlimit="10" width="2.08" height="15.441"/>
	
		<rect x="378.451" y="158.106" transform="matrix(0.5243 0.8516 -0.8516 0.5243 326.3907 -241.6792)" fill="#DEDEDE" stroke="#494949" stroke-width="0.5" stroke-miterlimit="10" width="2.083" height="26.332"/>
	
		<rect x="379.508" y="159.846" transform="matrix(0.5247 0.8513 -0.8513 0.5247 328.1603 -241.7237)" fill="#DEDEDE" stroke="#494949" stroke-width="0.5" stroke-miterlimit="10" width="2.083" height="26.335"/>
	<path fill="#DEDEDE" stroke="#494949" stroke-width="0.5" stroke-miterlimit="10" d="M186.711,330.113
		c-0.083,0.356-0.158,0.731-0.225,1.137c-1.111,6.75-8.153,62.084-8.486,67.418c-0.052,0.834-0.093,1.629-0.108,2.381l20.038,0.392
		c-0.077-24.931,7.173-56.938,9.315-65.843L186.711,330.113z"/>
	<polygon fill="#DEDEDE" stroke="#494949" stroke-width="0.5" stroke-miterlimit="10" points="300.252,330.332 297.09,337.871 
		305.672,340.412 308.469,333.439 	"/>
	<polygon fill="#DEDEDE" stroke="#494949" stroke-width="0.5" stroke-miterlimit="10" points="291.25,326.93 288.127,335.214 
		297.09,337.871 300.252,330.332 	"/>
	<path fill="#DEDEDE" stroke="#494949" stroke-width="0.5" stroke-miterlimit="10" d="M314.276,335.634l-5.811-2.193l-2.796,6.976
		l5.781,1.713C311.453,342.125,312.535,339.589,314.276,335.634z"/>
	<path fill="#DEDEDE" stroke="#494949" stroke-width="0.5" stroke-miterlimit="10" d="M306,385.75
		c-1.625,1.25-3.75,2.125-4.625,13.25s1,13,8.875,7c4.886-3.723,35.705-26.209,60.996-44.744l-20.917-7.834
		C328.299,369.57,306,385.75,306,385.75z"/>
	<path fill="#DEDEDE" stroke="#494949" stroke-width="0.5" stroke-miterlimit="10" d="M456.167,224.333
		c-0.334-10.5-18.834-8.667-19.168,1.167c-0.125,3.724-0.707,10.796-1.986,19.113l19.498-0.626
		C455.777,235.683,456.306,228.71,456.167,224.333z"/>
	<path fill="#DEDEDE" stroke="#494949" stroke-width="0.5" stroke-miterlimit="10" d="M452.787,253.75H439.05l-4.828-4.379
		c-0.666,3.747-1.473,7.652-2.434,11.548l19.182,1.069C451.64,259.19,452.251,256.43,452.787,253.75z"/>
	<path fill="#DEDEDE" stroke="#494949" stroke-width="0.5" stroke-miterlimit="10" d="M422,286.333
		c-11.167,17.833-15.333,25-36.667,41.167c-6.357,4.816-15.972,11.938-26.336,19.561l21.122,7.688
		c11.532-8.47,20.819-15.322,24.131-17.873c10.875-8.375,32.083-30.625,40.417-53.625c0.768-2.121,1.486-4.263,2.174-6.411
		l-16.771-9.573C427.984,274.303,425.337,281.004,422,286.333z"/>
	<path fill="#DEDEDE" stroke="#494949" stroke-width="0.5" stroke-miterlimit="10" d="M337,181.75c0,0-24.125-29.125-26.875-31.875
		c-2.372-2.372-4.281-2.503-7.247,1.032l33.729,37.482c3.931-3.3,7.855-6.424,11.72-9.368L345.125,175L337,181.75z"/>
	<path fill="#DEDEDE" stroke="#494949" stroke-width="0.5" stroke-miterlimit="10" d="M322.649,126.986
		c-3.575,2.5-6.246,4.363-7.021,4.889c-3.128,2.125-3.003,5.25,1.247,10.25c2.49,2.93,11.758,13.709,19.009,22.137l9.923-7.519
		L322.649,126.986z"/>
	<polygon fill="#DEDEDE" stroke="#494949" stroke-width="0.5" stroke-miterlimit="10" points="244.375,242.5 235.702,255.5 
		234.274,254.749 251.293,263.736 259.255,251.88 	"/>
	<path fill="#DEDEDE" stroke="#494949" stroke-width="0.5" stroke-miterlimit="10" d="M659.656,262.024l14.635,21.403
		c3.162-0.142,6.818-0.474,10.848-1.125l-16.938-25.351L659.656,262.024z"/>
	<path fill="#DEDEDE" stroke="#494949" stroke-width="0.5" stroke-miterlimit="10" d="M651,267.167L661.833,283
		c0,0,4.762,0.771,12.457,0.427l-14.635-21.403L651,267.167z"/>
	<path fill="#DEDEDE" stroke="#494949" stroke-width="0.5" stroke-miterlimit="10" d="M668.193,256.952l16.945,25.351
		c3.229-0.521,6.693-1.252,10.334-2.253l-18.805-28.134L668.193,256.952z"/>
	<path fill="#DEDEDE" stroke="#494949" stroke-width="0.5" stroke-miterlimit="10" d="M703.89,256.182L694,241.619l-17.33,10.297
		l18.803,28.134c3.277-0.9,6.691-2.017,10.203-3.41l-10.508-14.974L703.89,256.182z"/>
	<path fill="#DEDEDE" stroke="#494949" stroke-width="0.5" stroke-miterlimit="10" d="M765.167,199.333l-23.289,13.836
		l12.447,18.081c9.516-12.939,16.008-23.584,16.008-23.584L765.167,199.333z"/>
	<path fill="#DEDEDE" stroke="#494949" stroke-width="0.5" stroke-miterlimit="10" d="M695.167,261.667l10.508,14.974
		c1.645-0.653,3.311-1.363,4.99-2.14c1.367-0.631,2.754-1.383,4.152-2.23l-10.934-16.088L695.167,261.667z"/>
	<path fill="#DEDEDE" stroke="#494949" stroke-width="0.5" stroke-miterlimit="10" d="M451.183,286.974L451.183,286.974
		c9.588-24.32,11.672-52.237,12.115-61.847C462.853,234.742,460.769,262.659,451.183,286.974z"/>
	<polygon fill="#DEDEDE" stroke="#494949" stroke-width="0.5" stroke-miterlimit="10" points="546.402,271.567 515.166,268.875 
		514.134,279.536 545.748,282.03 	"/>
	<path fill="#EA0C51" stroke="#494949" stroke-width="0.5" stroke-miterlimit="10" d="M405.5,351.833
		C405.5,351.833,404.703,350.971,405.5,351.833L405.5,351.833z"/>
	<path fill="#EA0C51" stroke="#494949" stroke-width="0.5" stroke-miterlimit="10" d="M463.298,225.126c0-0.001,0-0.002,0-0.003
		C463.298,225.124,463.298,225.125,463.298,225.126z"/>
	<path fill="#EA0C51" stroke="#494949" stroke-width="0.5" stroke-miterlimit="10" d="M463.373,223.277
		c0.002-0.025,0.002-0.048,0.002-0.072C463.375,223.228,463.375,223.252,463.373,223.277z"/>
	<path fill="#EA0C51" stroke="#494949" stroke-width="0.5" stroke-miterlimit="10" d="M463.408,222.09c0-0.013,0-0.025,0-0.038
		C463.408,222.063,463.408,222.078,463.408,222.09z"/>
	<path fill="#EA0C51" stroke="#494949" stroke-width="0.5" stroke-miterlimit="10" d="M463.414,221.776c0-0.019,0-0.021,0.002-0.035
		C463.416,221.752,463.414,221.764,463.414,221.776z"/>
	<path fill="#EA0C51" stroke="#494949" stroke-width="0.5" stroke-miterlimit="10" d="M344.518,390.75
		C344.756,390.576,344.28,390.921,344.518,390.75L344.518,390.75z"/>
	<path fill="#EA0C51" stroke="#494949" stroke-width="0.5" stroke-miterlimit="10" d="M463.298,225.123
		c0.033-0.723,0.059-1.34,0.074-1.846C463.355,223.783,463.332,224.4,463.298,225.123z"/>
	<path fill="#EA0C51" stroke="#494949" stroke-width="0.5" stroke-miterlimit="10" d="M463.416,221.742c0-0.047,0-0.079,0-0.079
		S463.416,221.701,463.416,221.742z"/>
	<path fill="#EA0C51" stroke="#494949" stroke-width="0.5" stroke-miterlimit="10" d="M463.408,222.052
		c0.004-0.122,0.006-0.211,0.006-0.276C463.414,221.841,463.412,221.934,463.408,222.052z"/>
	<path fill="#EA0C51" stroke="#494949" stroke-width="0.5" stroke-miterlimit="10" d="M463.375,223.205
		c0.018-0.481,0.027-0.856,0.033-1.114C463.402,222.349,463.392,222.724,463.375,223.205z"/>
	
		<rect x="396.097" y="323.491" transform="matrix(0.6057 0.7957 -0.7957 0.6057 424.4774 -183.2573)" fill="#DEDEDE" stroke="#494949" stroke-width="0.5" stroke-miterlimit="10" width="2.084" height="26.328"/>
	
		<rect x="397.353" y="325.152" transform="matrix(0.606 0.7955 -0.7955 0.606 426.0981 -183.6091)" fill="#DEDEDE" stroke="#494949" stroke-width="0.5" stroke-miterlimit="10" width="2.082" height="26.338"/>
	<path fill="#DEDEDE" stroke="#494949" stroke-width="0.5" stroke-miterlimit="10" d="M285.47,176.266l31.834,29.958
		c2.459-2.52,4.967-4.974,7.499-7.358l-33.7-30.921C289.35,170.535,287.451,173.338,285.47,176.266z"/>
	<path fill="#DEDEDE" stroke="#494949" stroke-width="0.5" stroke-miterlimit="10" d="M375.333,282.889l18.25-22.582l-2.882-3.262
		l8.855-10.251l-9.143-4.626c-14.417,9.167-34.583,37.369-34.583,37.369l8.104,9.698l7.582-9.153L375.333,282.889z"/>
	<path fill="#DEDEDE" stroke="#494949" stroke-width="0.5" stroke-miterlimit="10" d="M354.376,267.379l-20.284-15.328l-6.652,9.5
		l20.64,14.075C349.149,273.624,351.443,270.711,354.376,267.379z"/>
	<path fill="#DEDEDE" stroke="#494949" stroke-width="0.5" stroke-miterlimit="10" d="M261.694,211.437
		c-1.99,2.946-3.747,5.549-5.154,7.633l16.759,10.766l4.897-7.213L261.694,211.437z"/>
	<path fill="#DEDEDE" stroke="#494949" stroke-width="0.5" stroke-miterlimit="10" d="M431.789,260.919
		c-0.523,2.129-1.096,4.252-1.719,6.348l8.131,4.641l3.818-10.418L431.789,260.919z"/>
</g>
<g id="Rooms">
	<polygon id="central-department-store" fill="#939598" stroke="#494949" stroke-width="0.5" stroke-miterlimit="10" points="
		588.75,32.5 542,22.25 515.25,36.5 524,53.25 514,58.5 500,33.75 444.595,63.125 457.5,87.875 447.375,93.5 434,68.625 395.25,89 
		392.415,99.862 446.25,205.75 459.5,209.5 495.25,190 487.662,173.5 498.05,168 507,184.75 532.566,172.528 564,157.5 
		554.75,139.25 564,135 573.75,152.25 622.775,128 630.5,114 	"/>
	<path id="power-buy" fill="#939598" stroke="#494949" stroke-width="0.5" stroke-miterlimit="10" d="M239.866,520.833
		c0,0,33.634,53.166,38.301,60.166s14.666,10.5,23.333,4.334c8.667-6.168,47.834-37,50.167-39.334c2.333-2.332,1.333-4.166-1-7.5
		c-1.803-2.574-30.565-45.043-43.552-64.223l-58.781,40.057L239.866,520.833z"/>
	<path id="r215" fill="#939598" stroke="#494949" stroke-width="0.5" stroke-miterlimit="10" d="M343.063,421.689L343.063,421.689
		l-14.3-19.552c-5.622,4.056-11.108,8.002-16.219,11.67l2.706,3.771c0,0,15.25,22.084,17.75,25.25c2.5,3.168,4.5,2.834,7.5,1
		c0.726-0.443,5.57-3.746,12.527-8.521L343.063,421.689L343.063,421.689z"/>
	<path id="r214" fill="#939598" stroke="#494949" stroke-width="0.5" stroke-miterlimit="10" d="M359.667,410.667l-15.149-19.918
		c-5.23,3.795-10.55,7.637-15.754,11.392l14.302,19.551L359.667,410.667z"/>
	<path id="r216-217" fill="#939598" stroke="#494949" stroke-width="0.5" stroke-miterlimit="10" d="M283.403,434.667
		c0,0-14.505,11.375-3.045,36.58L300.5,457.12l-2.667-3.703l16.482-11.613l-11.065-15.221l-3.059-3.916
		C290.11,429.888,283.403,434.667,283.403,434.667z"/>
	<path id="r210" fill="#939598" stroke="#494949" stroke-width="0.5" stroke-miterlimit="10" d="M421.382,330.542l41.153,28.89
		c2.494-2.562,5.295-5.819,7.959-9.732l-40.361-29.052C427.173,324.23,424.279,327.498,421.382,330.542z"/>
	<path id="r213" fill="#939598" stroke="#494949" stroke-width="0.5" stroke-miterlimit="10" d="M386.75,382.375l-10.646-14.75
		c-1.49,1.102-3.013,2.221-4.58,3.383c-6.472,4.787-13.994,10.291-21.869,16.017l25.496,33.073
		c8.065-5.559,16.403-11.311,23.648-16.309l-15.271-19.187L386.75,382.375z"/>
	<path id="r208" fill="#939598" stroke="#494949" stroke-width="0.5" stroke-miterlimit="10" d="M480.693,325.563l-39.15-19.945
		c-0.332,0.484-0.658,0.977-1,1.45c-1.41,1.966-2.793,3.843-4.152,5.646l40.434,25.332c0.963-2.326,1.814-4.78,2.518-7.375
		C479.794,328.949,480.248,327.244,480.693,325.563z"/>
	<path id="r209" fill="#939598" stroke="#494949" stroke-width="0.5" stroke-miterlimit="10" d="M430.132,320.646l40.361,29.051
		c2.311-3.396,4.512-7.287,6.322-11.654L436.39,312.71C434.257,315.533,432.179,318.164,430.132,320.646z"/>
	<path id="r205-207" fill="#939598" stroke="#494949" stroke-width="0.5" stroke-miterlimit="10" d="M489.648,290.115l-38.465-3.141
		c-2.613,6.632-5.793,12.988-9.641,18.641l39.148,19.946C484.867,309.761,488.253,295.893,489.648,290.115z"/>
	<path id="r212" fill="#939598" stroke="#494949" stroke-width="0.5" stroke-miterlimit="10" d="M418,378.833
		c-4.079-4.326-12.897-13.961-17.186-18.656l-6.021-6.398c-5.609,4.265-11.75,8.739-18.689,13.851l10.646,14.75l-3.224,2.229
		l15.271,19.185c11.227-7.744,19.82-13.683,20.702-14.287C422.167,387.667,423.5,384.666,418,378.833z"/>
	<path id="r211" fill="#939598" stroke="#494949" stroke-width="0.5" stroke-miterlimit="10" d="M402.09,348.089l4.684,5.119
		c4.781,5.183,21.632,23.399,23.06,24.582c1.668,1.377,5.834,2.289,8.5,0c2.668-2.291,16.334-11.457,16.334-11.457
		s0.818-0.563,2.158-1.651l-40.419-29.116C411.827,339.994,407.142,344.041,402.09,348.089z"/>
	<path id="r241" fill="#939598" stroke="#494949" stroke-width="0.5" stroke-miterlimit="10" d="M291.25,359l-17.953-4.975
		c-1.149,4.635-2.181,9.414-3.109,14.309l18.251,3.334C289.85,364.439,291.25,359,291.25,359z"/>
	<path id="r243-1" fill="#939598" stroke="#494949" stroke-width="0.5" stroke-miterlimit="10" d="M286.812,381.117l-18.407-2.228
		c-0.473,3.197-0.89,6.452-1.252,9.761l17.613,2.153c0.34-0.229,0.671-0.45,1.017-0.688
		C285.999,387.205,286.367,384.141,286.812,381.117z"/>
	<path id="r242" fill="#939598" stroke="#494949" stroke-width="0.5" stroke-miterlimit="10" d="M288.44,371.667l-18.251-3.334
		c-0.655,3.455-1.255,6.972-1.784,10.558l18.407,2.229C287.294,377.835,287.867,374.604,288.44,371.667z"/>
	<path id="r222" fill="#939598" stroke="#494949" stroke-width="0.5" stroke-miterlimit="10" d="M370.811,331.182l-27.871-32.205
		c-3.951,6.194-7.313,12.102-10.197,17.682l22.456,25.743C360.802,338.432,366.081,334.645,370.811,331.182z"/>
	<path id="r221" fill="#939598" stroke="#494949" stroke-width="0.5" stroke-miterlimit="10" d="M332.741,316.654
		c-3.771,7.297-6.711,14.026-8.988,20.063l15.327,16.984c5.531-3.846,10.963-7.65,16.117-11.301L332.741,316.654z"/>
	<path id="r264" fill="#939598" stroke="#494949" stroke-width="0.5" stroke-miterlimit="10" d="M302.878,150.907
		c-0.473,0.564-0.97,1.212-1.503,1.968c-1.04,1.476-5.013,7.316-10.269,15.069l33.7,30.921c3.893-3.659,7.848-7.156,11.803-10.477
		L302.878,150.907z"/>
	<path id="r251-1" fill="#939598" stroke="#494949" stroke-width="0.5" stroke-miterlimit="10" d="M198.614,386.458l34.514,4.785
		c0.434-2.869,0.874-5.688,1.32-8.455l-34.866-5.52C199.206,380.32,198.877,383.396,198.614,386.458z"/>
	<path id="r252-1" fill="#939598" stroke="#494949" stroke-width="0.5" stroke-miterlimit="10" d="M202.5,358.255
		c-0.576,3.188-1.143,6.559-1.673,10.029l35.162,5.271c0.611-3.548,1.232-7.011,1.859-10.392L202.5,358.255z"/>
	<path id="r251-2" fill="#939598" stroke="#494949" stroke-width="0.5" stroke-miterlimit="10" d="M199.582,377.271l34.866,5.518
		c0.506-3.146,1.021-6.215,1.541-9.229l-35.162-5.273C200.378,371.221,199.957,374.23,199.582,377.271z"/>
	<path id="r250" fill="#939598" stroke="#494949" stroke-width="0.5" stroke-miterlimit="10" d="M197.93,401.438l33.621,0.651
		c0.516-3.7,1.042-7.312,1.577-10.846l-34.514-4.785C198.174,391.57,197.915,396.636,197.93,401.438z"/>
	<path id="r253" fill="#939598" stroke="#494949" stroke-width="0.5" stroke-miterlimit="10" d="M241.488,344.738l-15.361-4.103
		l-2.48,10.244l16.006,2.865C240.259,350.684,240.871,347.68,241.488,344.738z"/>
	<path id="r248" fill="#939598" stroke="#494949" stroke-width="0.5" stroke-miterlimit="10" d="M194.301,432.333h-8.968
		l-2.713,26.809l42.525,0.304c0.606-6.964,1.247-13.668,1.917-20.148l-33.438,1.207L194.301,432.333z"/>
	<path id="r245" fill="#939598" stroke="#494949" stroke-width="0.5" stroke-miterlimit="10" d="M222.653,498.474h-44.014
		l-2.717,26.847c1.288,0.271,2.749,0.448,4.412,0.516c13,0.5,23.167,3.332,35.167-3.668s26.441-17.354,26.441-17.354
		L222.653,498.474z"/>
	<path id="r246" fill="#939598" stroke="#494949" stroke-width="0.5" stroke-miterlimit="10" d="M222.296,498.357
		c0.293-4.854,0.602-9.593,0.925-14.232h-43.13l-1.452,14.35h44.014L222.296,498.357z"/>
	<path id="r249" fill="#939598" stroke="#494949" stroke-width="0.5" stroke-miterlimit="10" d="M228.649,424.824H208.49
		l-1.533,15.192l20.105-0.727C227.574,434.341,228.103,429.515,228.649,424.824z"/>
	<path id="r224" fill="#939598" stroke="#494949" stroke-width="0.5" stroke-miterlimit="10" d="M375.333,282.889l25.148,22.271
		c2.053-2.359,4.177-4.945,6.305-7.785l-25.855-21.413L375.333,282.889z"/>
	<path id="r223" fill="#939598" stroke="#494949" stroke-width="0.5" stroke-miterlimit="10" d="M371.521,280.081l-7.586,9.153
		l24.033,28.762c1.387-1.172,2.508-2.187,3.305-2.994c2.674-2.729,5.846-5.979,9.209-9.842l-25.148-22.271L371.521,280.081z"/>
	<path id="r227" fill="#939598" stroke="#494949" stroke-width="0.5" stroke-miterlimit="10" d="M425.572,259.956l-26.013-13.162
		l-8.855,10.251l2.882,3.262l-0.489,0.605l25.524,17.107C421.255,272.587,423.636,266.59,425.572,259.956z"/>
	<path id="r225-226" fill="#939598" stroke="#494949" stroke-width="0.5" stroke-miterlimit="10" d="M393.096,260.912l-12.164,15.05
		l25.855,21.413c3.638-4.853,7.282-10.441,10.59-16.866c0.42-0.815,0.834-1.647,1.243-2.49L393.096,260.912z"/>
	<path id="r234" fill="#939598" stroke="#494949" stroke-width="0.5" stroke-miterlimit="10" d="M325.958,245.905l28.418,21.474
		c2.352-2.672,5.117-5.613,7.995-8.576l-27.115-23.102C331.979,239.048,328.857,242.461,325.958,245.905z"/>
	<path id="r233" fill="#939598" stroke="#494949" stroke-width="0.5" stroke-miterlimit="10" d="M335.257,235.702l27.115,23.102
		c2.094-2.156,4.244-4.317,6.344-6.396l-26.677-23.346C339.731,231.239,337.459,233.453,335.257,235.702z"/>
	<path id="r231" fill="#939598" stroke="#494949" stroke-width="0.5" stroke-miterlimit="10" d="M384,237.75l-22.749-25.406
		c-3.798,3.076-7.684,6.334-11.542,9.729l26.36,23.172C380.689,240.812,384,237.75,384,237.75z"/>
	<path id="r232" fill="#939598" stroke="#494949" stroke-width="0.5" stroke-miterlimit="10" d="M349.709,222.072
		c-2.583,2.271-5.146,4.608-7.67,6.989l26.677,23.346c2.611-2.585,5.131-5.031,7.354-7.163L349.709,222.072z"/>
	<path id="r235" fill="#939598" stroke="#494949" stroke-width="0.5" stroke-miterlimit="10" d="M325.958,245.905
		c-2.679,3.184-5.17,6.394-7.38,9.604l8.859,6.041l6.652-9.5L325.958,245.905z"/>
	<path id="r239-240" fill="#939598" stroke="#494949" stroke-width="0.5" stroke-miterlimit="10" d="M279.548,332.673l8.579,2.541
		l3.123-8.284l23.026,8.704c1.847-4.189,4.435-9.979,7.267-16.049l-30.824-14.787C286.738,313.4,282.935,322.68,279.548,332.673z"/>
	<path id="r238" fill="#939598" stroke="#494949" stroke-width="0.5" stroke-miterlimit="10" d="M290.719,304.798l30.824,14.787
		c1.359-2.912,2.774-5.887,4.189-8.778l-31.087-14.182C293.322,299.275,292.012,302.003,290.719,304.798z"/>
	<path id="r236" fill="#939598" stroke="#494949" stroke-width="0.5" stroke-miterlimit="10" d="M336.069,292.127l-28.775-18.569
		c-2.631,4.425-5.318,9.134-7.998,14.114l30.646,14.822C332.225,298.162,334.355,294.476,336.069,292.127z"/>
	<path id="r237" fill="#939598" stroke="#494949" stroke-width="0.5" stroke-miterlimit="10" d="M299.296,287.672
		c-1.557,2.893-3.111,5.87-4.65,8.953l31.087,14.182c1.42-2.903,2.841-5.726,4.208-8.313L299.296,287.672z"/>
	<path id="supersports" fill="#939598" stroke="#494949" stroke-width="0.5" stroke-miterlimit="10" d="M396.645,148l-16.168-30.738
		l-15.022,9.987l-9.399-17.349l-3.302-4.024c0,0-19.239,13.512-30.101,21.111l35.099,45.101C379.283,156.78,396.645,148,396.645,148
		z"/>
	<path id="r259" fill="#939598" stroke="#494949" stroke-width="0.5" stroke-miterlimit="10" d="M298.458,227.876l-30.819-25.24
		c-2.127,3.149-4.132,6.117-5.945,8.801l16.502,11.186l-4.897,7.213l16.04,10.303C292.299,235.948,295.342,231.854,298.458,227.876z
		"/>
	<path id="r258" fill="#939598" stroke="#494949" stroke-width="0.5" stroke-miterlimit="10" d="M275.208,261.936l-15.953-10.056
		l-7.962,11.856l17.603,9.296C270.923,269.304,273.03,265.603,275.208,261.936z"/>
	<path id="r254-1-254-2" fill="#939598" stroke="#494949" stroke-width="0.5" stroke-miterlimit="10" d="M255.888,299.855
		l-40.896-20.292c-4.471,6.663-9.03,13.48-12.648,18.941l23.783,7.979l-3.152,9.468l24.305,6.877
		C249.706,315.273,252.593,307.58,255.888,299.855z"/>
	<path id="fitness-building" fill="#939598" stroke="#494949" stroke-width="0.5" stroke-miterlimit="10" d="M694,241.619
		l9.891,14.563l0,0l0,0l10.936,16.088c13.652-8.27,28.578-26.155,39.508-41.019L741.88,213.17L694,241.619z"/>
	<path id="r230" fill="#939598" stroke="#494949" stroke-width="0.5" stroke-miterlimit="10" d="M375.418,201.331l11.685,13.5
		l7.289-4.598l-10.142-15.386C381.583,196.769,378.61,198.94,375.418,201.331z"/>
	<path id="r229-3" fill="#939598" stroke="#494949" stroke-width="0.5" stroke-miterlimit="10" d="M410.083,200.333l-10.262-15.728
		c-1.938,0.845-4.028,2.026-6.285,3.63c-0.394,0.278-0.818,0.58-1.265,0.896l9.736,16.294L410.083,200.333z"/>
	<path id="r229-1" fill="#939598" stroke="#494949" stroke-width="0.5" stroke-miterlimit="10" d="M392.272,189.132
		c-2.122,1.502-4.853,3.429-8.022,5.715l10.142,15.386l7.62-4.807L392.272,189.132z"/>
	<path id="r228" fill="#939598" stroke="#494949" stroke-width="0.5" stroke-miterlimit="10" d="M427.298,209.682l-29.792,17.17
		l0.117,0.136l31.792,14.653c1.051-7.793,1.49-16.27,1.115-25.504C430.531,216.137,429.173,213.427,427.298,209.682z"/>
	<path id="r229-2" fill="#939598" stroke="#494949" stroke-width="0.5" stroke-miterlimit="10" d="M416.844,188.75
		c-2.145-4.341-7.77-8.182-17.021-4.145l10.262,15.728l-15.692,9.899l9.146,13.146l23.761-13.697
		C423.81,202.717,418.531,192.164,416.844,188.75z"/>
	<path id="ecenter" fill="#939598" stroke="#494949" stroke-width="0.5" stroke-miterlimit="10" d="M241.488,392.833l18.215,1.74
		c0,0,0.738-10.025,4.012-26.029l-20.398,7.985C242.583,381.855,241.962,387.285,241.488,392.833z"/>
	<g id="b2s">
		<path fill="#939598" stroke="#494949" stroke-width="0.5" stroke-miterlimit="10" d="M536.5,257.933c0,0-8.355-0.862-20.102-1.766
			c-6.582-0.506-14.225-1.026-22.064-1.415c-0.002,0-11.064,0.419-15.863,1.551c-9.16,2.162-16.543,6.006-20.535,8.407
			c-0.768,3.358-1.645,6.769-2.645,10.183l21.244,1.676l15.373,1.212l0.002,0.001l22.229,1.754l1.031-10.661l31.236,2.692
			l0.004-0.067C547.144,259.167,536.5,257.933,536.5,257.933z"/>
		<path fill="#939598" stroke="#494949" stroke-width="0.5" stroke-miterlimit="10" d="M535.833,201.105l-6.699-13.726
			l-52.703,27.494l-13.016,6.79c0,0,0,0.032,0,0.079c-0.002,0.014-0.002,0.016-0.002,0.035c0,0.064-0.002,0.154-0.006,0.276
			c0,0.013,0,0.025,0,0.038c-0.006,0.258-0.021,0.633-0.033,1.114c0,0.024,0,0.047-0.002,0.072
			c-0.021,0.506-0.041,1.124-0.074,1.846c0,0.001,0,0.002,0,0.003c-0.119,2.563-0.354,6.431-0.818,11.184v0.001
			c-0.604,6.165-1.588,13.819-3.195,22.06c10.082-5.968,26.439-9.498,34.049-9.086c6.932,0.375,47.023,2.389,60.318,3.056
			l-24.824-47.494L535.833,201.105z"/>
		<path fill="#939598" stroke="#494949" stroke-width="0.5" stroke-miterlimit="10" d="M603.179,276.5
			c-4.744-0.513-15.604-1.419-25.719-2.231c-11.232-0.901-21.545-1.686-21.545-1.686l-0.557,10.354c0,0,10.227,0.896,21.33,1.869
			c11.549,1.012,24.047,2.106,26.979,2.361c5.75,0.5,11.334-5.833,11.334-5.833S613.193,277.583,603.179,276.5z"/>
	</g>
	<path id="k201" fill="#939598" stroke="#494949" stroke-width="0.5" stroke-miterlimit="10" d="M435.013,244.613
		c-0.236,1.547-0.502,3.139-0.791,4.758l4.828,4.379h13.736c0.68-3.397,1.252-6.672,1.725-9.764L435.013,244.613z"/>
	<path id="k204" fill="#939598" stroke="#494949" stroke-width="0.5" stroke-miterlimit="10" d="M358.997,347.059
		c-2.85,2.097-5.756,4.229-8.668,6.362l10.791,4.041l8.83-6.416L358.997,347.059z"/>
	<path id="k202-2" fill="#939598" stroke="#494949" stroke-width="0.5" stroke-miterlimit="10" d="M450.97,261.988l-8.949-0.499
		l-3.82,10.418l8.641,4.932C448.429,271.868,449.804,266.866,450.97,261.988z"/>
	<path id="k203" fill="#939598" stroke="#494949" stroke-width="0.5" stroke-miterlimit="10" d="M380.119,354.748l-10.169-3.701
		l-8.83,6.416l10.126,3.793C374.303,359.014,377.278,356.832,380.119,354.748z"/>
	<path id="k206" fill="#939598" stroke="#494949" stroke-width="0.5" stroke-miterlimit="10" d="M301.375,399
		c0.875-11.125,3-12,4.625-13.25c0,0,0.89-0.646,2.469-1.793l-19.781,14.188l2.271,9.777l10.338-7.771
		C301.32,399.773,301.344,399.398,301.375,399z"/>
	<path id="k205" fill="#939598" stroke="#494949" stroke-width="0.5" stroke-miterlimit="10" d="M290.958,407.921l2.292,9.869
		l12.87-9.11c-4.19,2.032-5.333-0.605-4.824-8.528L290.958,407.921z"/>
	<path id="k207-1" fill="#939598" stroke="#494949" stroke-width="0.5" stroke-miterlimit="10" d="M275.5,417.041
		c-2.801,2.957-0.787,7.334,1.481,9.209s4.292,1.273,8.593-1.426c4.301-2.699,2.426-6.316-1.324-9.508
		C280.5,412.124,279.25,413.082,275.5,417.041z"/>
	<path id="r247-1" fill="#939598" stroke="#494949" stroke-width="0.5" stroke-miterlimit="10" d="M225.155,459.393l-25.569-0.146
		l-0.002,0.018l-16.963-0.12l-0.987,9.749h42.574C224.514,465.677,224.83,462.504,225.155,459.393z"/>
	<path id="r247-2" fill="#939598" stroke="#494949" stroke-width="0.5" stroke-miterlimit="10" d="M181.633,468.891l-0.959,9.473
		l21.335-0.056l0.006-0.059l21.33-0.043c0.252-2.856,0.511-5.669,0.777-8.45h0.001c0.027-0.291,0.056-0.575,0.084-0.865H181.633
		L181.633,468.891z"/>
	<path id="r252-2" fill="#939598" stroke="#494949" stroke-width="0.5" stroke-miterlimit="10" d="M223.646,350.885L223.646,350.885
		l2.481-10.248l-18.882-5.041c-0.585,2.438-1.554,6.604-2.649,11.879l0,0h-0.001c-0.67,3.229-1.387,6.863-2.095,10.781l35.348,4.912
		c0.595-3.208,1.197-6.348,1.805-9.418L223.646,350.885z"/>
	<path id="r255" fill="#939598" stroke="#494949" stroke-width="0.5" stroke-miterlimit="10" d="M214.992,279.566l40.896,20.291
		c1.266-2.965,2.591-5.938,3.973-8.904l-38.941-20.206C219.027,273.558,217.021,276.544,214.992,279.566z"/>
	<path id="r256-257" fill="#939598" stroke="#494949" stroke-width="0.5" stroke-miterlimit="10" d="M268.896,273.033
		l-34.622-18.284l-1.899-0.999c0,0-2.81,4.409-5.7,8.825l-0.19-0.094c-1.642,2.435-3.537,5.248-5.565,8.264l38.941,20.206
		c1.497-3.217,3.055-6.43,4.679-9.633l-0.006-0.003l0.006,0.002C265.946,278.545,267.401,275.783,268.896,273.033z"/>
	
		<circle id="k208" fill="#939598" stroke="#494949" stroke-width="0.5" stroke-miterlimit="10" cx="267.457" cy="314.776" r="8.29"/>
	<polygon id="k214" fill="#939598" stroke="#494949" stroke-width="0.5" stroke-miterlimit="10" points="271.422,285.266 
		265.333,298.977 272.552,302.494 275.746,294.82 	"/>
	<path id="r260" fill="#939598" stroke="#494949" stroke-width="0.5" stroke-miterlimit="10" d="M279.625,184.904l31.482,27.934
		c1.642-1.813,3.293-3.602,4.961-5.337c0.408-0.428,0.822-0.852,1.235-1.276l-31.837-29.958
		C283.578,179.06,281.612,181.965,279.625,184.904z"/>
	<path id="r262" fill="#939598" stroke="#494949" stroke-width="0.5" stroke-miterlimit="10" d="M267.639,202.636l30.819,25.24
		c2.006-2.561,4.042-5.072,6.104-7.529l-30.688-26.943C271.74,196.567,269.639,199.676,267.639,202.636z"/>
	<path id="r261" fill="#939598" stroke="#494949" stroke-width="0.5" stroke-miterlimit="10" d="M273.878,193.404l30.685,26.943
		c2.154-2.566,4.34-5.071,6.548-7.51l-31.482-27.934C277.712,187.731,275.782,190.587,273.878,193.404z"/>
	<path id="r265_1_" fill="#939598" stroke="#494949" stroke-width="0.5" stroke-miterlimit="10" d="M345.807,156.743l-9.923,7.519
		c5.124,5.956,9.241,10.738,9.241,10.738l3.201,4.021c3.201-2.44,6.353-4.752,9.422-6.934L345.807,156.743z"/>
	<path id="r219t-219-220" fill="#939598" stroke="#494949" stroke-width="0.5" stroke-miterlimit="10" d="M339.08,353.703
		l-15.327-16.984c-2.256,5.979-3.87,11.278-5.025,15.789l-0.001-0.001c-1.555,6.073-2.276,10.707-2.612,13.634
		c0-0.004-0.001-0.006,0-0.009l-11.443-1.972l-2.393,10.108l2.854,2.748c2.165-1.474,6.7-4.569,10.69-7.299c0,0.002,0,0.01,0,0.01
		c3.839-2.625,7.747-5.309,11.664-8.006l0.001,0.002C331.363,359.053,335.244,356.369,339.08,353.703z"/>
	<path id="r244" fill="#939598" stroke="#494949" stroke-width="0.5" stroke-miterlimit="10" d="M288.44,371.669
		c-1.1,5.642-2.207,12.369-2.658,18.451c5.687-3.834,12.29-8.302,19.353-13.104l-2.854-2.746L288.44,371.669z"/>
	<path id="r243-2" fill="#939598" stroke="#494949" stroke-width="0.5" stroke-miterlimit="10" d="M265.926,403.441
		c0,0,7.503-5,18.839-12.638l-17.613-2.153C266.622,393.471,266.2,398.393,265.926,403.441z"/>
	<polygon id="k209" fill="#939598" stroke="#494949" stroke-width="0.5" stroke-miterlimit="10" points="343.546,216.681 
		337.607,222.072 325.958,222.391 331.695,216.681 	"/>
</g>
<g id="signs">
	<g id="telephone">
		<rect x="232.684" y="250.641" opacity="0.8" enable-background="new    " width="14.811" height="14.811"/>
		<rect x="447.261" y="339.938" opacity="0.8" enable-background="new    " width="14.813" height="14.813"/>
	</g>
	<g id="toilet">
		<rect x="183.851" y="354.748" opacity="0.8" enable-background="new    " width="14.811" height="14.811"/>
		<rect x="371.06" y="256.332" opacity="0.8" enable-background="new    " width="14.813" height="14.811"/>
		<rect x="517.882" y="271.223" opacity="0.8" enable-background="new    " width="14.811" height="14.811"/>
	</g>
	<g id="escalator">
		<rect x="346.945" y="177.798" opacity="0.8" enable-background="new    " width="14.811" height="14.811"/>
		<rect x="243.033" y="336.08" opacity="0.8" enable-background="new    " width="14.811" height="14.813"/>
		<rect x="277.482" y="256.331" opacity="0.8" enable-background="new    " width="14.811" height="14.811"/>
		<rect x="382.25" y="321.346" opacity="0.8" enable-background="new    " width="14.811" height="14.813"/>
		<rect x="553.427" y="254.583" opacity="0.8" enable-background="new    " width="14.811" height="14.811"/>
	</g>
	<g id="lift">
		<rect x="363.76" y="100.847" opacity="0.8" enable-background="new    " width="14.813" height="14.811"/>
		<rect x="412.594" y="75.347" opacity="0.8" enable-background="new    " width="14.812" height="14.811"/>
		<rect x="240.089" y="238.308" opacity="0.8" enable-background="new    " width="14.811" height="14.811"/>
		<rect x="182.761" y="415.428" opacity="0.8" enable-background="new    " width="14.811" height="14.813"/>
		<rect x="297.284" y="473.404" opacity="0.8" enable-background="new    " width="14.811" height="14.811"/>
		<rect x="436.916" y="354.748" opacity="0.8" enable-background="new    " width="14.811" height="14.811"/>
		<rect x="555.787" y="294.057" opacity="0.8" enable-background="new    " width="14.811" height="14.812"/>
		<rect x="703.093" y="244.51" opacity="0.8" enable-background="new    " width="14.813" height="14.811"/>
		<rect x="478.109" y="179.256" opacity="0.8" enable-background="new    " width="14.811" height="14.811"/>
		<rect x="581.109" y="97.923" opacity="0.8" enable-background="new    " width="14.811" height="14.811"/>
		<rect x="588.515" y="56.59" opacity="0.8" enable-background="new    " width="14.813" height="14.811"/>
		<rect x="634.509" y="72.923" opacity="0.8" enable-background="new    " width="14.811" height="14.811"/>
	</g>
	<g id="parking">
		<rect x="315.594" y="58.68" opacity="0.8" enable-background="new    " width="14.813" height="14.811"/>
		<rect x="525.287" y="322.841" opacity="0.8" enable-background="new    " width="14.811" height="14.813"/>
		<rect x="708.458" y="81.928" opacity="0.8" enable-background="new    " width="14.811" height="14.813"/>
		<rect x="225.278" y="168.276" opacity="0.8" enable-background="new    " width="14.811" height="14.811"/>
	</g>
	<g id="fire-exit">
		<rect x="306.094" y="31.68" opacity="0.8" enable-background="new    " width="14.813" height="14.811"/>
		<rect x="351.26" y="109.513" opacity="0.8" enable-background="new    " width="14.813" height="14.811"/>
		<rect x="461.093" y="50.513" opacity="0.8" enable-background="new    " width="14.813" height="14.811"/>
		<rect x="319.445" y="130.813" opacity="0.8" enable-background="new    " width="14.811" height="14.811"/>
		<rect x="296.945" y="153.465" opacity="0.8" enable-background="new    " width="14.811" height="14.811"/>
		<rect x="260.445" y="211.965" opacity="0.8" enable-background="new    " width="14.811" height="14.811"/>
		<rect x="202.518" y="300.462" opacity="0.8" enable-background="new    " width="14.811" height="14.813"/>
		<rect x="193.684" y="326.035" opacity="0.8" enable-background="new    " width="14.811" height="14.811"/>
		<rect x="183.851" y="395.748" opacity="0.8" enable-background="new    " width="14.811" height="14.811"/>
		<rect x="167.951" y="458.593" opacity="0.8" enable-background="new    " width="14.811" height="14.813"/>
		<rect x="301.178" y="446.572" opacity="0.8" enable-background="new    " width="14.813" height="14.811"/>
		<rect x="316.928" y="495.927" opacity="0.8" enable-background="new    " width="14.813" height="14.813"/>
		<rect x="336.211" y="528.093" opacity="0.8" enable-background="new    " width="14.813" height="14.813"/>
		<rect x="351.711" y="413.427" opacity="0.8" enable-background="new    " width="14.813" height="14.813"/>
		<rect x="290.862" y="356.927" opacity="0.8" enable-background="new    " width="14.811" height="14.813"/>
		<rect x="308.583" y="319.523" opacity="0.8" enable-background="new    " width="14.811" height="14.811"/>
		<rect x="351.592" y="273.314" opacity="0.8" enable-background="new    " width="14.813" height="14.811"/>
		<rect x="389.656" y="209.845" opacity="0.8" enable-background="new    " width="14.811" height="14.813"/>
		<rect x="459.429" y="347.341" opacity="0.8" enable-background="new    " width="14.811" height="14.813"/>
		<rect x="549.453" y="358.225" opacity="0.8" enable-background="new    " width="14.811" height="14.813"/>
		<rect x="481.427" y="206.063" opacity="0.8" enable-background="new    " width="14.811" height="14.811"/>
		<rect x="463.298" y="186.662" opacity="0.8" enable-background="new    " width="14.811" height="14.811"/>
		<rect x="547.109" y="151.256" opacity="0.8" enable-background="new    " width="14.811" height="14.811"/>
		<rect x="596.777" y="69.923" opacity="0.8" enable-background="new    " width="14.811" height="14.811"/>
		<rect x="520.181" y="25.257" opacity="0.8" enable-background="new    " width="14.813" height="14.811"/>
		<rect x="646.125" y="67.256" opacity="0.8" enable-background="new    " width="14.811" height="14.811"/>
		<rect x="775.458" y="58.113" opacity="0.8" enable-background="new    " width="14.811" height="14.811"/>
		<rect x="195.112" y="153.465" opacity="0.8" enable-background="new    " width="14.811" height="14.811"/>
		<rect x="750.343" y="203.76" opacity="0.8" enable-background="new    " width="14.813" height="14.811"/>
		<rect x="693.843" y="233.094" opacity="0.8" enable-background="new    " width="14.813" height="14.813"/>
		<rect x="338.286" y="260.262" opacity="0.8" enable-background="new    " width="14.811" height="14.813"/>
	</g>
</g>
</svg>
