<?xml version="1.0" encoding="utf-8"?>
<!-- Generator: Adobe Illustrator 16.0.0, SVG Export Plug-In . SVG Version: 6.00 Build 0)  -->
<!DOCTYPE svg PUBLIC "-//W3C//DTD SVG 1.1//EN" "http://www.w3.org/Graphics/SVG/1.1/DTD/svg11.dtd">
<svg version="1.1" id="Layer_1" xmlns="http://www.w3.org/2000/svg" xmlns:xlink="http://www.w3.org/1999/xlink" x="0px" y="0px"
	 width="841.89px" height="595.281px" viewBox="0 0 841.89 595.281" enable-background="new 0 0 841.89 595.281"
	 xml:space="preserve">
<g id="background">
	<rect fill="#FFFFFF" width="841.89" height="595.281"/>
</g>
<g id="etc">
	<path fill="#DEDEDE" stroke="#494949" stroke-width="0.5" stroke-miterlimit="10" d="M377,7l-88.854,43.565
		c-5.09-6.064-12.724-9.922-21.26-9.922c-15.326,0-27.75,12.424-27.75,27.75c0,9.458,4.736,17.807,11.961,22.816L249.5,93l8.5,6
		l-10,14.75l-8.864-5.5l-0.882,1.288c-4.4-2.933-9.684-4.645-15.368-4.645c-15.326,0-27.75,12.424-27.75,27.75
		c0,9.373,4.652,17.655,11.768,22.679L199.25,166.5l-7.5,74.75l22.5,14.25l71-102.75l-28-19l16.75-25.5l29,19.25
		c0,0,14.5-20.5,39-32.75s64-32.25,64-32.25L377,7z"/>
	<path fill="#DEDEDE" stroke="#494949" stroke-width="0.5" stroke-miterlimit="10" d="M406,62.5c0,0-39.5,20-64,32.25
		s-39,32.75-39,32.75l-29-19.25l-16.75,25.5l28,19l-71,102.75l-32.5,49.75L195,315l124.5-182l94.25-55.25L406,62.5z"/>
	<path fill="#DEDEDE" stroke="#494949" stroke-width="0.5" stroke-miterlimit="10" d="M287.576,117.262
		c0,0,15.924-24.012,54.924-43.512s55.007-27.504,55.007-27.504"/>
	
		<rect x="236.586" y="469.648" transform="matrix(-0.9959 -0.091 0.091 -0.9959 430.3532 985.2427)" fill="#DEDEDE" stroke="#494949" stroke-width="0.5" stroke-miterlimit="10" width="2.083" height="26.333"/>
	
		<rect x="238.652" y="469.876" transform="matrix(-0.9959 -0.0909 0.0909 -0.9959 434.4684 985.8826)" fill="#DEDEDE" stroke="#494949" stroke-width="0.5" stroke-miterlimit="10" width="2.083" height="26.336"/>
	
		<rect x="359.388" y="352.296" transform="matrix(-0.6052 -0.796 0.796 -0.6052 287.6509 873.5703)" fill="#DEDEDE" stroke="#494949" stroke-width="0.5" stroke-miterlimit="10" width="2.083" height="26.331"/>
	
		<rect x="360.628" y="353.971" transform="matrix(-0.606 -0.7955 0.7955 -0.606 288.7871 877.318)" fill="#DEDEDE" stroke="#494949" stroke-width="0.5" stroke-miterlimit="10" width="2.082" height="26.334"/>
	
		<rect x="260.865" y="302.421" transform="matrix(-0.9475 -0.3197 0.3197 -0.9475 409.157 698.3484)" fill="#DEDEDE" stroke="#494949" stroke-width="0.5" stroke-miterlimit="10" width="2.083" height="26.331"/>
	
		<rect x="262.866" y="303.085" transform="matrix(-0.9479 -0.3186 0.3186 -0.9479 413.2945 700.1085)" fill="#DEDEDE" stroke="#494949" stroke-width="0.5" stroke-miterlimit="10" width="2.081" height="26.334"/>
	
		<rect x="378.639" y="156.423" transform="matrix(-0.5479 -0.8366 0.8366 -0.5479 445.8231 580.131)" fill="#DEDEDE" stroke="#494949" stroke-width="0.5" stroke-miterlimit="10" width="2.084" height="26.334"/>
	
		<rect x="379.796" y="158.163" transform="matrix(-0.5476 -0.8367 0.8367 -0.5476 446.0485 583.8068)" fill="#DEDEDE" stroke="#494949" stroke-width="0.5" stroke-miterlimit="10" width="2.083" height="26.333"/>
	
		<rect x="547.602" y="252.391" transform="matrix(-0.9958 -0.0914 0.0914 -0.9958 1070.7104 580.1605)" fill="#DEDEDE" stroke="#494949" stroke-width="0.5" stroke-miterlimit="10" width="2.083" height="26.332"/>
	
		<rect x="549.69" y="252.63" transform="matrix(-0.9959 -0.091 0.091 -0.9959 1075.0024 580.587)" fill="#DEDEDE" stroke="#494949" stroke-width="0.5" stroke-miterlimit="10" width="2.083" height="26.334"/>
	<path fill="#DEDEDE" stroke="#494949" stroke-width="0.5" stroke-miterlimit="10" d="M333.5,392.833c0,0,1.833-21.334,6-30.334
		l22.174-15.875l12.451,17L333.5,392.833z"/>
	<path fill="#DEDEDE" stroke="#494949" stroke-width="0.5" stroke-miterlimit="10" d="M295.375,381.125l2.375,4.375l9.125,0.875
		c0,0,4.875-24.75,6.25-28.875l-12-2.875L295.375,381.125z"/>
	<polygon fill="#DEDEDE" stroke="#494949" stroke-width="0.5" stroke-miterlimit="10" points="307.125,335 318.875,339.125 
		326.875,319.875 315.75,315 	"/>
	<path fill="#DEDEDE" stroke="#494949" stroke-width="0.5" stroke-miterlimit="10" d="M336.333,278.167L354.667,290l20.667-25.333
		L360.667,250C360.667,250,341,269.333,336.333,278.167z"/>
	<path fill="#DEDEDE" stroke="#494949" stroke-width="0.5" stroke-miterlimit="10" d="M388.5,224.333c0,0,26.89-17.5,32.445-20.167
		c5.554-2.667,7.388,1,7.554,6.5c0.168,5.5,0.666,12.333-3.166,15l-4.388-7.167L396.667,234L388.5,224.333z"/>
	<path fill="#DEDEDE" stroke="#494949" stroke-width="0.5" stroke-miterlimit="10" d="M444.833,195.833
		c-1-1.833-4.166-5.333-4.5,4.667S434.5,222,449.167,214c14.666-8,56.666-31.167,56.666-31.167l-3.834-7.5l-11.332,4.074l-5-9.828
		L462.5,182.167l5.668,10L448.5,202.5L444.833,195.833z"/>
	<polygon fill="#DEDEDE" stroke="#494949" stroke-width="0.5" stroke-miterlimit="10" points="548.642,166.01 542,153 
		558.167,145.167 565.117,157.563 	"/>
	<polygon fill="#DEDEDE" stroke="#494949" stroke-width="0.5" stroke-miterlimit="10" points="489.333,108 499.667,128 535.333,110 
		525.167,90.5 	"/>
	<polygon fill="#DEDEDE" stroke="#494949" stroke-width="0.5" stroke-miterlimit="10" points="569.333,105 577.5,119.333 
		598.5,108.333 590.833,94.5 	"/>
	<polygon fill="#DEDEDE" stroke="#494949" stroke-width="0.5" stroke-miterlimit="10" points="433.441,67.222 443.167,86.667 
		454.5,80.333 444.55,61.282 	"/>
	<polygon fill="#DEDEDE" stroke="#494949" stroke-width="0.5" stroke-miterlimit="10" points="551.503,23.382 542,21.5 
		505.25,39.25 500.25,31.5 444.595,61.258 451.568,74.719 	"/>
	<polygon fill="#DEDEDE" stroke="#494949" stroke-width="0.5" stroke-miterlimit="10" points="439.05,78.438 433.398,67.245 
		413.75,77.75 388.362,92.632 393.333,101.5 	"/>
	<polygon fill="#DEDEDE" stroke="#494949" stroke-width="0.5" stroke-miterlimit="10" points="198.667,418.5 218.833,419.333 
		220,404.833 200.833,403.833 201.333,397.5 185.076,396.748 181.047,436.406 196.833,437.333 	"/>
	<path fill="#DEDEDE" stroke="#494949" stroke-width="0.5" stroke-miterlimit="10" d="M195,315l-2,3.75l-1.59,15.647L207.833,337
		l14.833,3l2.5-7.5l-6.833-2.166l9.833-29.666l6.667,2.111c6.827-20.411,20.068-43.126,29.33-57.701l-14.189-10.441L195,315z"/>
	<path fill="#DEDEDE" stroke="#494949" stroke-width="0.5" stroke-miterlimit="10" d="M249.974,234.637l14.189,10.441
		c2.736-4.306,5.123-7.898,6.897-10.514l-14.563-9.466L249.974,234.637z"/>
	<polygon fill="#DEDEDE" stroke="#494949" stroke-width="0.5" stroke-miterlimit="10" points="186.486,382.867 202.667,384.5 
		207.833,337 191.41,334.397 	"/>
	<path fill="#DEDEDE" stroke="#494949" stroke-width="0.5" stroke-miterlimit="10" d="M256.498,225.099l14.563,9.466
		c2.043-3.014,3.273-4.731,3.273-4.731l-6.167-4.5c13.5-21.333,54.833-59,54.833-59l-14.558-17.168L256.498,225.099z"/>
	<polygon fill="#DEDEDE" stroke="#494949" stroke-width="0.5" stroke-miterlimit="10" points="308.442,149.165 323,166.333 
		329.833,173.5 339.167,165.5 338,163.238 316.068,138.016 	"/>
	<polygon fill="#DEDEDE" stroke="#494949" stroke-width="0.5" stroke-miterlimit="10" points="376,119.5 368.413,104.327 319.5,133 
		316.068,138.016 338,163.238 383,133.833 	"/>
	<polygon fill="#DEDEDE" stroke="#494949" stroke-width="0.5" stroke-miterlimit="10" points="390,112.5 382,96.362 
		368.413,104.327 376,119.5 	"/>
	<path fill="#DEDEDE" stroke="#494949" stroke-width="0.5" stroke-miterlimit="10" d="M242.833,354.625L260,358.322
		c0,0,8.667-37.988,15.5-50.488L260,302C260,302,244.833,337.75,242.833,354.625z"/>
	<polygon fill="#DEDEDE" stroke="#494949" stroke-width="0.5" stroke-miterlimit="10" points="222,451.001 231.5,451.833 
		226.75,498.001 218,498.001 217.375,502.939 237,504.814 243.375,499.689 249.5,441.939 223.938,440.5 	"/>
	<polygon fill="#DEDEDE" stroke="#494949" stroke-width="0.5" stroke-miterlimit="10" points="413.854,386.488 403,371.25 
		355.522,403.81 366.753,418.982 	"/>
	<polygon fill="#DEDEDE" stroke="#494949" stroke-width="0.5" stroke-miterlimit="10" points="355.522,403.81 344.917,411.083 
		349.305,417.041 313.125,440.5 309.417,435.251 293.25,447 293.25,469.615 342.705,540.939 351,535 301.5,464 366.753,418.982 	"/>
	<path fill="#DEDEDE" stroke="#494949" stroke-width="0.5" stroke-miterlimit="10" d="M450.333,350.5l-9.166-6.666
		c-6.666,7.666-24.833,20.5-24.833,20.5l10.128,13.457L452.25,360l20.75,1v-9L450.333,350.5z"/>
	<path fill="#DEDEDE" stroke="#494949" stroke-width="0.5" stroke-miterlimit="10" d="M355.833,323l-8.167-3.332l-8.5,18.332
		c26.177-16.32,42.764-31.109,52.979-42.167l-10.737-10.472C368.879,299.712,355.833,323,355.833,323z"/>
	<path fill="#DEDEDE" stroke="#494949" stroke-width="0.5" stroke-miterlimit="10" d="M406.171,249.453l17.612,8.479
		c3.1-11.935,3.551-22.099,3.551-22.099C419.644,239.842,412.49,244.632,406.171,249.453z"/>
	<polygon fill="#DEDEDE" stroke="#494949" stroke-width="0.5" stroke-miterlimit="10" points="600.25,53.25 585.75,59.25 
		601.001,89.167 605.333,87 624.492,125.769 630.5,111.75 	"/>
	<path fill="#DEDEDE" stroke="#494949" stroke-width="0.5" stroke-miterlimit="10" d="M601.001,89.167L585.75,59.25l-18.5-32.75
		l-15.746-3.118l-99.936,51.337l-6.973-13.461l-11.197,5.987l5.652,11.192L393.333,101.5l-4.971-8.868L382,96.362l8,16.138l-14,7
		l7,14.333l-45,29.405l1.167,2.262l-9.333,8L323,166.333c0,0-41.333,37.667-54.833,59l6.167,4.5c0,0-28.333,39.558-39.5,72.946
		l-6.667-2.111l-9.833,29.666l6.833,2.166l-2.5,7.5l-14.833-3l-5.167,47.5l-16.18-1.633l-1.41,13.881l16.257,0.752l-0.5,6.334
		l19.167,1l-1.167,14.5l-20.167-0.834l-1.833,18.834l-15.786-0.928L172.25,523l33.25,2l-0.75,11l37,54.75L322,536.5l8.75,13
		l11.955-8.561l-49.455-71.324V447l16.167-11.748l3.708,5.248l36.18-23.459l-4.388-5.957L403,371.25l10.854,15.238l12.609-8.697
		l-10.129-13.457c0,0,18.167-12.834,24.833-20.5l9.166,6.666L473,352v9l-1.5,31l1.07,0.08c-0.191,1.281-0.293,2.594-0.293,3.928
		c0,14.514,11.766,26.279,26.277,26.279c14.514,0,26.279-11.767,26.279-26.279c0-0.02-0.002-0.037-0.002-0.057L525.5,396l1.5-14
		l38,2.25l1.75-16L546.406,366l2.236-39h-8.477l6.24-74.443l10.084,0.767l4.76-54.072l-16-31.5l78.5-40.25l0.742-1.731L605.333,87
		L601.001,89.167z"/>
	<path fill="#DEDEDE" stroke="#494949" stroke-width="0.5" stroke-miterlimit="10" d="M351.625,181.75l11.125,13
		c0,0,32-22.34,38.25-25.17l-7.625-14.33C393.375,155.25,361.125,173.375,351.625,181.75z"/>
</g>
<g id="rooms">
	<path id="g01" fill="#939598" stroke="#494949" stroke-width="0.5" stroke-miterlimit="10" d="M379.167,274.5l6.667,6.167
		c-1.453,1.399-2.936,2.987-4.425,4.694l10.738,10.472c11.378-12.315,14.853-20,14.853-20l7.667,4
		c4.355-6.691,7.227-14.625,9.116-21.901l-17.612-8.479C389.893,261.873,379.167,274.5,379.167,274.5z"/>
	<polygon id="office-mate" fill="#939598" stroke="#494949" stroke-width="0.5" stroke-miterlimit="10" points="540.167,327 
		548.642,327 546.406,366 566.75,368.25 583.25,369.25 612.5,351 615,305.5 568.25,300.75 568.75,294.75 553,293 556.492,253.322 
		546.406,252.556 	"/>
</g>
<g id="signs">
	<g id="parking">
		<rect x="301.037" y="240.689" opacity="0.8" enable-background="new    " width="14.811" height="14.811"/>
		<rect x="464.371" y="288.427" opacity="0.8" enable-background="new    " width="14.811" height="14.811"/>
	</g>
	<g id="escalator">
		<rect x="354.269" y="344.99" opacity="0.8" enable-background="new    " width="14.812" height="14.811"/>
		<rect x="234.536" y="450.041" opacity="0.8" enable-background="new    " width="14.811" height="14.811"/>
	</g>
	<g id="fire-exit">
		<rect x="461.013" y="50.349" opacity="0.8" enable-background="new    " width="14.813" height="14.811"/>
		<rect x="519.681" y="25.515" opacity="0.8" enable-background="new    " width="14.811" height="14.811"/>
		<rect x="596.335" y="69.905" opacity="0.8" enable-background="new    " width="14.811" height="14.811"/>
		<rect x="547.525" y="150.405" opacity="0.8" enable-background="new    " width="14.811" height="14.811"/>
		<rect x="463.714" y="185.726" opacity="0.8" enable-background="new    " width="14.813" height="14.811"/>
		<rect x="481.214" y="205.059" opacity="0.8" enable-background="new    " width="14.813" height="14.811"/>
		<rect x="349.534" y="261.761" opacity="0.8" enable-background="new    " width="14.811" height="14.812"/>
		<rect x="456.964" y="353.406" opacity="0.8" enable-background="new    " width="14.813" height="14.811"/>
		<rect x="296.845" y="359.718" opacity="0.8" enable-background="new    " width="14.811" height="14.812"/>
		<rect x="309.595" y="318.884" opacity="0.8" enable-background="new    " width="14.812" height="14.812"/>
		<rect x="351.943" y="413.43" opacity="0.8" enable-background="new    " width="14.811" height="14.812"/>
		<rect x="300.943" y="445.263" opacity="0.8" enable-background="new    " width="14.811" height="14.811"/>
		<rect x="185.005" y="396.404" opacity="0.8" enable-background="new    " width="14.811" height="14.811"/>
		<rect x="194.005" y="321.655" opacity="0.8" enable-background="new    " width="14.811" height="14.812"/>
		<rect x="202.838" y="299.66" opacity="0.8" enable-background="new    " width="14.811" height="14.812"/>
		<rect x="260.517" y="211.233" opacity="0.8" enable-background="new    " width="14.811" height="14.811"/>
		<rect x="296.351" y="151.4" opacity="0.8" enable-background="new    " width="14.811" height="14.811"/>
		<rect x="319.184" y="130.611" opacity="0.8" enable-background="new    " width="14.812" height="14.811"/>
		<rect x="176.599" y="475.417" opacity="0.8" enable-background="new    " width="14.811" height="14.811"/>
		<rect x="336.266" y="527.417" opacity="0.8" enable-background="new    " width="14.812" height="14.811"/>
		<rect x="548.644" y="358.063" opacity="0.8" enable-background="new    " width="14.811" height="14.812"/>
		<rect x="397.382" y="212.464" opacity="0.8" enable-background="new    " width="14.812" height="14.811"/>
	</g>
	<g id="lift">
		<rect x="412.847" y="74.349" opacity="0.8" enable-background="new    " width="14.811" height="14.811"/>
		<rect x="588.931" y="55.095" opacity="0.8" enable-background="new    " width="14.811" height="14.812"/>
		<rect x="581.525" y="98.405" opacity="0.8" enable-background="new    " width="14.811" height="14.811"/>
		<rect x="478.525" y="177.572" opacity="0.8" enable-background="new    " width="14.811" height="14.811"/>
		<rect x="440.632" y="350.658" opacity="0.8" enable-background="new    " width="14.811" height="14.811"/>
		<rect x="296.844" y="472.375" opacity="0.8" enable-background="new    " width="14.812" height="14.811"/>
		<rect x="184.005" y="421.541" opacity="0.8" enable-background="new    " width="14.811" height="14.811"/>
		<rect x="237.429" y="248.095" opacity="0.8" enable-background="new    " width="14.811" height="14.812"/>
		<rect x="353.603" y="107.931" opacity="0.8" enable-background="new    " width="14.812" height="14.811"/>
		<rect x="554.931" y="292.255" opacity="0.8" enable-background="new    " width="14.811" height="14.811"/>
	</g>
</g>
</svg>
