<?xml version="1.0" encoding="utf-8"?>
<!-- Generator: Adobe Illustrator 16.0.0, SVG Export Plug-In . SVG Version: 6.00 Build 0)  -->
<!DOCTYPE svg PUBLIC "-//W3C//DTD SVG 1.1//EN" "http://www.w3.org/Graphics/SVG/1.1/DTD/svg11.dtd">
<svg version="1.1" id="Layer_1" xmlns="http://www.w3.org/2000/svg" xmlns:xlink="http://www.w3.org/1999/xlink" x="0px" y="0px"
	 width="841.89px" height="595.281px" viewBox="0 0 841.89 595.281" enable-background="new 0 0 841.89 595.281"
	 xml:space="preserve">
<g id="background">
	<rect y="0" fill="#FFFFFF" width="841.89" height="595.281"/>
</g>
<g id="etc">
	<path fill="#DEDEDE" stroke="#494949" stroke-width="0.5" stroke-miterlimit="10" d="M629,293.333
		c-0.166-3.833-0.5-12-6.334-21.333C616.833,262.667,558,172.833,558,172.833l-19.832,9.833l-5.602-10.139L507,184.75L498.05,168
		l-10.389,5.5l7.588,16.5l-35.75,19.5l-13.25-3.75L392.415,99.862l-5.615,3.121l-12.698-24.368C391.201,69.993,406,62.5,406,62.5
		L377,7l-88.854,43.565c-5.09-6.064-12.724-9.922-21.26-9.922c-15.326,0-27.75,12.424-27.75,27.75
		c0,9.458,4.736,17.807,11.961,22.815L249.5,93l8.5,6l-10,14.75l-8.864-5.5l-0.882,1.288c-4.4-2.933-9.684-4.645-15.368-4.645
		c-15.326,0-27.75,12.424-27.75,27.75c0,9.373,4.652,17.654,11.768,22.679L199.25,166.5l-7.5,74.75l22.5,14.25l15.73-22.764
		l14.395,9.764l-8.673,13l16.242,8.363l7.917-11.456l14.813,10.352c-39.281,66.608-40.925,129.117-40.925,129.117l-2.456,26.793
		h32.421l-1.302,12.733l28.17,40.43l10.25-6.831l20.168-14l-13.333-18l12.167-8.5c0,0,10.667,15.166,13.167,18.334
		c2.5,3.165,4.5,2.831,7.5,1c3-1.835,76.333-52.5,79-54.334c2.667-1.832,4-4.835-1.5-10.666c-5.5-5.835-19.63-21.334-19.63-21.334
		l7.129-5.666c0,0,22.666,24.579,24.333,25.957c1.666,1.377,5.832,2.288,8.5,0c2.666-2.291,16.334-11.457,16.334-11.457
		l58.111-0.373L519,292.512l109.57,9.389C628.869,297.795,629.054,294.559,629,293.333z M353.233,176.129
		c0.095-0.068,0.187-0.14,0.28-0.209l-36.947-44.69c-0.423,0.292-0.743,0.514-0.938,0.646c-3.128,2.125-3.003,5.25,1.247,10.25
		S345.125,175,345.125,175L337,181.75c0,0-24.125-29.125-26.875-31.875c-2.352-2.352-4.25-2.497-7.172,0.945l34.055,38.052
		c0.05-0.042,0.104-0.084,0.152-0.126c-16.592,13.989-30.53,28.907-42.229,44.067l-33.579-20.869
		c-5.043,7.467-8.478,12.557-8.478,12.557l16.042,10.588l-5.667,8.162l-27.652-18.644l49.652-71.856l7-9.625l-7.625-5.108
		l10.72-15.599L303,127.5c0,0,14.5-20.5,39-32.75c6.692-3.346,14.504-7.271,22.324-11.208l13.09,24.658l-0.539,0.3L373,102.625
		l-16.25,8.125l-4-4.875c0,0-17.066,11.987-28.127,19.729L341.125,147l35.188-20.5l-2.938-5.625l7.454-3.79l16.678,32.08
		C381.172,157.375,366.474,166.454,353.233,176.129z"/>
	<path fill="#DEDEDE" stroke="#494949" stroke-width="0.5" stroke-miterlimit="10" d="M519,292.512l-6.221,73.449l71.889-0.461
		c0,0,33-19,36.332-21.666c3.334-2.666,4.666-6.5,5.334-14.834c0.453-5.671,1.602-18.357,2.236-27.103L519,292.512z"/>
	<path fill="#DEDEDE" stroke="#494949" stroke-width="0.5" stroke-miterlimit="10" d="M198.86,385.264
		c0,0,2.078-14.087,4.385-27.455l-19.961-2.761c-2.339,18.166-5.079,40.341-5.284,43.619c-0.333,5.331-0.333,9.165,5.333,9.331
		c5.666,0.169,38.167,0,38.167,0l-0.667,10.669h10.46l2.456-26.794c0,0,0.014-0.511,0.066-1.479L198.86,385.264z"/>
	<path fill="#DEDEDE" stroke="#494949" stroke-width="0.5" stroke-miterlimit="10" d="M240.373,392.052l17.875,3.166
		c1.248-16.125,5.483-46.054,19.609-80.629l-22.203,6.854C248.072,342.729,242.595,366.242,240.373,392.052z"/>
	<path fill="#DEDEDE" stroke="#494949" stroke-width="0.5" stroke-miterlimit="10" d="M265.003,298.447l22.833-5.592
		c8.944-17.477,20.549-35.593,35.586-53.318l-13.458-10.945C293.741,247.566,277.699,270.798,265.003,298.447z"/>
	<path fill="#DEDEDE" stroke="#494949" stroke-width="0.5" stroke-miterlimit="10" d="M386.024,163.567
		c0,0-26.191,14.35-56.442,44.021l1.168,9.094l12.289,1.951c14.58-14.048,31.643-27.559,51.627-39.967L386.024,163.567z"/>
	
		<rect x="280.486" y="271.989" transform="matrix(-0.9166 0.3998 -0.3998 -0.9166 653.585 433.9619)" fill="#DEDEDE" stroke="#494949" stroke-width="0.5" stroke-miterlimit="10" width="2.083" height="26.33"/>
	
		<rect x="282.406" y="271.163" transform="matrix(-0.9162 0.4008 -0.4008 -0.9162 657.0925 431.2082)" fill="#DEDEDE" stroke="#494949" stroke-width="0.5" stroke-miterlimit="10" width="2.081" height="26.331"/>
	
		<rect x="336.898" y="194.771" transform="matrix(-0.9997 -0.0262 0.0262 -0.9997 670.3116 424.6621)" fill="#DEDEDE" stroke="#494949" stroke-width="0.5" stroke-miterlimit="10" width="2.085" height="26.33"/>
	
		<rect x="339" y="194.837" transform="matrix(-0.9997 -0.0249 0.0249 -0.9997 674.803 424.4005)" fill="#DEDEDE" stroke="#494949" stroke-width="0.5" stroke-miterlimit="10" width="2.081" height="26.334"/>
	
		<rect x="252.205" y="353.203" transform="matrix(-0.82 0.5724 -0.5724 -0.82 670.6158 521.8099)" fill="#DEDEDE" stroke="#494949" stroke-width="0.5" stroke-miterlimit="10" width="2.083" height="26.331"/>
	
		<rect x="253.897" y="351.994" transform="matrix(-0.8188 0.5741 -0.5741 -0.8188 673.3229 517.7686)" fill="#DEDEDE" stroke="#494949" stroke-width="0.5" stroke-miterlimit="10" width="2.082" height="26.334"/>
	<path fill="#DEDEDE" stroke="#494949" stroke-width="0.5" stroke-miterlimit="10" d="M346.37,285.361l-3.304-2.046
		c-0.027,0.039-0.055,0.079-0.079,0.118l-24.409-16.166l-6.285,8.694l24.62,16.697l0.01,0.013l4.567,5.538l10.496,11.342
		l7.491-8.963L346.37,285.361z"/>
	<path fill="#DEDEDE" stroke="#494949" stroke-width="0.5" stroke-miterlimit="10" d="M336.923,292.671
		c-9.858,15.794-18.79,34.205-25.665,55.524l-28.634-8.445l-3.077,10.75l28.457,8.582c-1.075,3.892-2.084,7.867-3.017,11.939
		l8.502-5.34c0,0,9.154-46.268,28-67.475L336.923,292.671z"/>
	<path fill="#DEDEDE" stroke="#494949" stroke-width="0.5" stroke-miterlimit="10" d="M394.601,231.555l-20.351-22.901l-9.061,7.079
		l18.843,22.238c-2.645,2.249-5.337,4.641-8.068,7.192c-4.468,4.177-9.026,8.773-13.585,13.801
		c-1.742,1.922-3.481,3.906-5.221,5.956c0,0-5.571,7.293-7.99,11.041l5.79,4.119c0,0,12.995-19.081,36.101-37.045l21.371,10.271
		l5.521-10.271L394.601,231.555z"/>
	<path fill="#DEDEDE" stroke="#494949" stroke-width="0.5" stroke-miterlimit="10" d="M217.785,302.953l-14.27-6.211
		c-4.175,6.287-7.348,11.129-8.141,12.509c-2.875,5-0.125,5.301,2.75,6.338s42.125,12.811,42.125,12.811l-3,9.229
		c0,0-39.935-11.125-43.092-12.125c-2.877-0.912-5.953-0.977-7.317,4.127l20.993,6.125l33.268,9.632
		c1.687-6.841,3.761-14.236,6.306-22.041l-33.3-9.591L217.785,302.953z"/>
	<path fill="#DEDEDE" stroke="#494949" stroke-width="0.5" stroke-miterlimit="10" d="M306,385.751
		c-1.625,1.25-3.75,2.125-4.625,13.25s1,13,8.875,7s83.125-60.75,94-69.125s32.083-30.625,40.417-53.626
		c8.332-23,11.832-48.417,11.5-58.917c-0.334-10.5-18.834-8.666-19.168,1.167c-0.332,9.833-3.834,43-15,60.833
		c-11.167,17.834-15.333,25-36.667,41.168C363.999,343.667,306,385.751,306,385.751z"/>
	<path fill="#DEDEDE" stroke="#494949" stroke-width="0.5" stroke-miterlimit="10" d="M207.833,335.754l-20.993-6.128
		c-0.133,0.496-0.255,1.024-0.354,1.623c-0.428,2.604-1.736,12.414-3.202,23.8l19.961,2.761
		C204.877,348.35,206.625,339.251,207.833,335.754z"/>
	<path fill="#DEDEDE" stroke="#494949" stroke-width="0.5" stroke-miterlimit="10" d="M354.959,280.081l8.756,9.814l8.66-10.083
		l3.043,2.524l20.082-24.774l-11.834-8.459C365.205,265.046,354.959,280.081,354.959,280.081z"/>
</g>
<g id="Rooms">
	<polygon id="central-department-store" fill="#939598" stroke="#494949" stroke-width="0.5" stroke-miterlimit="10" points="
		588.75,32.5 542,22.25 515.25,36.5 524,53.25 514,58.5 500,33.75 444.595,63.125 457.5,87.875 447.375,93.5 434,68.625 395.25,89 
		392.415,99.862 446.25,205.75 459.5,209.5 495.25,190 487.662,173.5 498.05,168 507,184.75 532.566,172.528 564,157.5 
		554.75,139.25 564,135 573.75,152.25 622.775,128 630.5,114 	"/>
	<path id="r321-322" fill="#939598" stroke="#494949" stroke-width="0.5" stroke-miterlimit="10" d="M216.204,338.176l-8.371-2.422
		c-1.679,4.855-4.398,20.525-6.404,32.952l34.137,4.951c0.796-5.567,1.941-12.25,3.574-19.796l-25.307-4.146L216.204,338.176z"/>
	<path id="r323" fill="#939598" stroke="#494949" stroke-width="0.5" stroke-miterlimit="10" d="M216.204,338.176l-2.371,11.541
		l25.307,4.146c0.589-2.719,1.237-5.543,1.961-8.479L216.204,338.176z"/>
	<path id="r307" fill="#939598" stroke="#494949" stroke-width="0.5" stroke-miterlimit="10" d="M336.669,236.817l25.71,22.146
		c4.559-5.026,9.117-9.624,13.585-13.801l-25.61-22.216C345.512,227.509,340.958,232.142,336.669,236.817z"/>
	<path id="r306" fill="#939598" stroke="#494949" stroke-width="0.5" stroke-miterlimit="10" d="M350.354,222.948l25.61,22.216
		c2.73-2.552,5.425-4.943,8.068-7.192l-21.721-25.633C358.146,215.821,354.162,219.362,350.354,222.948z"/>
	<path id="r308-309" fill="#939598" stroke="#494949" stroke-width="0.5" stroke-miterlimit="10" d="M320.212,256.579l15.045,9.837
		l6.869-8.294l7.043,5.322l2.607-2.901l5.383,4.378c1.737-2.05,3.479-4.034,5.221-5.956l-25.71-22.146
		C330.679,243.348,325.201,249.96,320.212,256.579z"/>
	<path id="r303" fill="#939598" stroke="#494949" stroke-width="0.5" stroke-miterlimit="10" d="M400.764,185.397
		c-2.621,1.531-5.192,3.084-7.713,4.662l18.041,28.183c2.942-1.805,5.567-3.31,7.81-4.532L400.764,185.397z"/>
	<path id="r313-314" fill="#939598" stroke="#494949" stroke-width="0.5" stroke-miterlimit="10" d="M283.325,323.229l25.146,10.211
		l2.849-6.377l6.722,2.52c1.318-3.219,2.685-6.354,4.09-9.424l-31.152-14.914C288.067,311.469,285.531,317.49,283.325,323.229z"/>
	<path id="r311" fill="#939598" stroke="#494949" stroke-width="0.5" stroke-miterlimit="10" d="M299.846,287.894
		c-1.622,2.913-3.158,5.8-4.617,8.655l31.369,14.358c1.449-2.842,2.936-5.604,4.447-8.309L299.846,287.894z"/>
	<path id="r312" fill="#939598" stroke="#494949" stroke-width="0.5" stroke-miterlimit="10" d="M290.977,305.244l31.152,14.914
		c1.449-3.16,2.938-6.248,4.469-9.25l-31.369-14.359C293.729,299.484,292.314,302.385,290.977,305.244z"/>
	<path id="r316" fill="#939598" stroke="#494949" stroke-width="0.5" stroke-miterlimit="10" d="M291.25,359.934l-17.8-5.525
		c-1.482,5.951-2.498,10.982-3.191,14.902l18.428,3.102L291.25,359.934z"/>
	<path id="r317" fill="#939598" stroke="#494949" stroke-width="0.5" stroke-miterlimit="10" d="M288.688,372.41l-18.428-3.102
		c-1.039,5.881-1.343,9.23-1.343,9.23l27.167,3.959l1.25-9.168L288.688,372.41z"/>
	<path id="r315" fill="#939598" stroke="#494949" stroke-width="0.5" stroke-miterlimit="10" d="M299.966,329.986l-16.641-6.758
		c-1.268,3.299-2.417,6.492-3.478,9.588l17.243,5.055L299.966,329.986z"/>
	<path id="r310" fill="#939598" stroke="#494949" stroke-width="0.5" stroke-miterlimit="10" d="M299.846,287.894l31.199,14.706
		c1.915-3.423,3.879-6.725,5.879-9.928l-0.001-0.001l-0.01-0.013l-24.62-16.697l-3.677-2.713
		C305.455,278.176,302.532,283.07,299.846,287.894z"/>
	<path id="r305" fill="#939598" stroke="#494949" stroke-width="0.5" stroke-miterlimit="10" d="M384.611,195.563
		c-2.854,1.932-5.641,3.892-8.355,5.878l10.784,14.016l7.56-5.1L384.611,195.563z"/>
	<path id="r328" fill="#939598" stroke="#494949" stroke-width="0.5" stroke-miterlimit="10" d="M235.702,255.5l-3.327-1.75
		c0,0-2.667,3.946-6.57,9.74l38.495,18.436c1.517-3.061,3.106-6.143,4.777-9.24l-16.974-8.739L235.702,255.5z"/>
	<path id="r326" fill="#939598" stroke="#494949" stroke-width="0.5" stroke-miterlimit="10" d="M214.609,280.138l41.521,19.703
		c1.227-2.938,2.523-5.909,3.888-8.906l-39.81-19.132C218.407,274.481,216.515,277.298,214.609,280.138z"/>
	<path id="r324" fill="#939598" stroke="#494949" stroke-width="0.5" stroke-miterlimit="10" d="M203.516,296.741l14.27,6.211
		l-3.678,10.8l33.3,9.592c1.529-4.688,3.229-9.526,5.119-14.481L209.01,288.5C207.073,291.395,205.212,294.186,203.516,296.741z"/>
	<path id="r325" fill="#939598" stroke="#494949" stroke-width="0.5" stroke-miterlimit="10" d="M209.01,288.498l43.517,20.361
		c1.131-2.965,2.333-5.976,3.604-9.019l-41.521-19.706C212.728,282.941,210.836,285.766,209.01,288.498z"/>
	<path id="r327" fill="#939598" stroke="#494949" stroke-width="0.5" stroke-miterlimit="10" d="M220.208,271.802l39.81,19.132
		c1.355-2.979,2.782-5.983,4.281-9.01l-38.495-18.436C224.129,265.975,222.227,268.802,220.208,271.802z"/>
	<path id="r337-338" fill="#939598" stroke="#494949" stroke-width="0.5" stroke-miterlimit="10" d="M397.507,149.165l-16.678-32.08
		l-7.454,3.79l2.938,5.625l-17.053,9.936l16.18,24.922C382.447,157.12,389.79,153.044,397.507,149.165z"/>
	<path id="r331" fill="#939598" stroke="#494949" stroke-width="0.5" stroke-miterlimit="10" d="M261.353,211.943l33.58,20.87
		c3.19-4.135,6.542-8.251,10.076-12.336l-31.11-27.104C269.337,200.121,264.938,206.633,261.353,211.943z"/>
	<path id="r335-336" fill="#939598" stroke="#494949" stroke-width="0.5" stroke-miterlimit="10" d="M359.26,136.435L341.125,147
		l-16.502-21.396c-3.572,2.5-6.514,4.556-8.056,5.625l36.947,44.69c6.902-5.03,14.205-9.896,21.926-14.563L359.26,136.435z"/>
	<path id="r332" fill="#939598" stroke="#494949" stroke-width="0.5" stroke-miterlimit="10" d="M273.898,193.374l31.11,27.104
		c2.146-2.483,4.361-4.953,6.641-7.409l-32.248-27.833C277.569,187.944,275.722,190.676,273.898,193.374z"/>
	<path id="r333" fill="#939598" stroke="#494949" stroke-width="0.5" stroke-miterlimit="10" d="M279.401,185.234l32.248,27.833
		c4.274-4.61,8.79-9.167,13.547-13.651l-35.204-29.825C286.758,174.36,283.114,179.745,279.401,185.234z"/>
	<path id="r334" fill="#939598" stroke="#494949" stroke-width="0.5" stroke-miterlimit="10" d="M301.375,152.875
		c-1.112,1.578-5.581,8.151-11.385,16.716l35.204,29.825c3.779-3.563,7.714-7.083,11.813-10.544l-34.055-38.052
		C302.458,151.404,301.938,152.078,301.375,152.875z"/>
	<path id="r329" fill="#939598" stroke="#494949" stroke-width="0.5" stroke-miterlimit="10" d="M251.944,263.863l0.159,0.082
		l16.974,8.739c1.776-3.293,3.641-6.604,5.599-9.925l-14.814-10.353L251.944,263.863z"/>
	<polygon id="r320-1" fill="#939598" stroke="#494949" stroke-width="0.5" stroke-miterlimit="10" points="198.095,402.391 
		198.86,385.264 233.817,390.395 232.57,402.391 	"/>
	<path id="fitness-building" fill="#939598" stroke="#494949" stroke-width="0.5" stroke-miterlimit="10" d="M765.167,199.333
		l-23.289,13.836L694,241.618l-17.33,10.297l-8.477,5.036l-8.537,5.072L651,267.167L661.833,283c0,0,4.762,0.771,12.457,0.428
		c3.162-0.143,6.818-0.475,10.848-1.125c3.23-0.521,6.695-1.253,10.334-2.254c3.277-0.899,6.691-2.017,10.203-3.409
		c1.645-0.653,3.311-1.363,4.99-2.141c1.367-0.631,2.754-1.383,4.152-2.229c13.656-8.271,28.574-26.155,39.508-41.02
		c9.516-12.938,16.008-23.584,16.008-23.584L765.167,199.333z"/>
	<path id="r302" fill="#939598" stroke="#494949" stroke-width="0.5" stroke-miterlimit="10" d="M427.333,209.5L411.5,179.408
		c-3.677,1.948-7.246,3.95-10.736,5.989l18.138,28.312C424.191,210.823,427.333,209.5,427.333,209.5z"/>
	<path id="r304" fill="#939598" stroke="#494949" stroke-width="0.5" stroke-miterlimit="10" d="M384.611,195.563l18.706,27.704
		c2.771-1.882,5.377-3.555,7.772-5.025l-18.041-28.183C390.169,191.864,387.362,193.701,384.611,195.563z"/>
	<path id="k306-k307" fill="#939598" stroke="#494949" stroke-width="0.5" stroke-miterlimit="10" d="M315.811,221.945
		c-1.946,2.157-3.896,4.367-5.847,6.646l13.459,10.946c1.879-2.217,3.817-4.426,5.805-6.627L315.811,221.945z"/>
	<path id="eastville-cineplex" fill="#939598" stroke="#494949" stroke-width="0.5" stroke-miterlimit="10" d="M262.413,431.402
		l1.302-12.733h-42.882c0,0-36.572-1.003-39.786-0.834c-3.214,0.165-5.38,0.5-5.714,5.665c-0.334,5.166-8.5,79.166-8.667,86.835
		c-0.167,7.666,0.667,15,13.667,15.5s23.167,3.331,35.167-3.669s26.441-17.354,26.441-17.354l6.393,9.521l-8.467,6.5
		c0,0,33.634,53.166,38.301,60.166s14.666,10.5,23.333,4.334c8.667-6.168,47.834-37,50.167-39.334c2.333-2.332,1.333-4.166-1-7.5
		c-2.333-3.332-49.835-73.5-49.835-73.5l-10.25,6.832L262.413,431.402z"/>
	<path id="k214" fill="#939598" stroke="#494949" stroke-width="0.5" stroke-miterlimit="10" d="M265.067,298.43
		c-0.727,1.635-1.491,3.395-1.72,4.063c-0.473,1.381-1.717,5.979,7.468,3.991c7.204-1.559,10.014-8.047,11.385-12.251
		L265.067,298.43z"/>
	<path id="r320-2" fill="#939598" stroke="#494949" stroke-width="0.5" stroke-miterlimit="10" d="M198.86,385.264l34.957,5.131
		c0.14-2.576,0.561-8.424,1.75-16.736l-34.137-4.948C199.951,377.867,198.86,385.264,198.86,385.264z"/>
	<path id="k301-k302" fill="#939598" stroke="#494949" stroke-width="0.5" stroke-miterlimit="10" d="M258.248,395.219l-8.888-1.573
		l-8.987-1.593c-0.448,5.196-0.769,10.483-0.944,15.869h5.427h3.892h8.993C257.741,407.922,257.624,403.291,258.248,395.219z"/>
	<polygon id="r318" fill="#939598" stroke="#494949" stroke-width="0.5" stroke-miterlimit="10" points="268.917,378.54 
		268.07,386.891 294.695,391.016 296.084,382.499 	"/>
	<polygon id="super-rich" fill="#939598" stroke="#494949" stroke-width="0.5" stroke-miterlimit="10" points="294.931,232.813 
		289.31,241.408 270.54,229.061 276.374,221.387 	"/>
</g>
<g id="signs">
	<g id="parking">
		<rect x="315.719" y="59.43" opacity="0.8" enable-background="new    " width="14.813" height="14.811"/>
		<rect x="225.562" y="168.514" opacity="0.8" enable-background="new    " width="14.811" height="14.811"/>
	</g>
	<rect id="telephone" x="232.967" y="251.56" opacity="0.8" enable-background="new    " width="14.811" height="14.811"/>
	<g id="lift">
		<rect x="479.369" y="178.814" opacity="0.8" enable-background="new    " width="14.811" height="14.811"/>
		<rect x="703.261" y="245.878" opacity="0.8" enable-background="new    " width="14.811" height="14.812"/>
		<rect x="581.869" y="99.439" opacity="0.8" enable-background="new    " width="14.811" height="14.811"/>
		<rect x="589.273" y="56.689" opacity="0.8" enable-background="new    " width="14.811" height="14.811"/>
		<rect x="364.648" y="101.064" opacity="0.8" enable-background="new    " width="14.811" height="14.811"/>
		<rect x="241.102" y="237.759" opacity="0.8" enable-background="new    " width="14.811" height="14.812"/>
		<rect x="183.284" y="415.395" opacity="0.8" enable-background="new    " width="14.811" height="14.813"/>
		<rect x="437.974" y="354.904" opacity="0.8" enable-background="new    " width="14.813" height="14.812"/>
	</g>
	<g id="escalator">
		<rect x="347.313" y="177.992" opacity="0.8" enable-background="new    " width="14.813" height="14.812"/>
		<rect x="277.236" y="257.027" opacity="0.8" enable-background="new    " width="14.811" height="14.811"/>
		<rect x="354.974" y="345.385" opacity="0.8" enable-background="new    " width="14.813" height="14.812"/>
		<rect x="243.438" y="336.313" opacity="0.8" enable-background="new    " width="14.811" height="14.811"/>
	</g>
	<g id="toilet">
		<rect x="188.705" y="339.895" opacity="0.8" enable-background="new    " width="14.811" height="14.813"/>
		<rect x="371.278" y="257.027" opacity="0.8" enable-background="new    " width="14.811" height="14.811"/>
	</g>
	<g id="fire-exit">
		<rect x="463.683" y="187.345" opacity="0.8" enable-background="new    " width="14.811" height="14.813"/>
		<rect x="547.994" y="151.439" opacity="0.8" enable-background="new    " width="14.811" height="14.811"/>
		<rect x="694.494" y="233.045" opacity="0.8" enable-background="new    " width="14.811" height="14.812"/>
		<rect x="751.093" y="205.045" opacity="0.8" enable-background="new    " width="14.813" height="14.812"/>
		<rect x="597.744" y="70.439" opacity="0.8" enable-background="new    " width="14.811" height="14.811"/>
		<rect x="520.648" y="26.189" opacity="0.8" enable-background="new    " width="14.811" height="14.811"/>
		<rect x="461.898" y="50.939" opacity="0.8" enable-background="new    " width="14.811" height="14.811"/>
		<rect x="412.523" y="75.814" opacity="0.8" enable-background="new    " width="14.811" height="14.811"/>
		<rect x="352.523" y="109.68" opacity="0.8" enable-background="new    " width="14.811" height="14.811"/>
		<rect x="306.094" y="31.68" opacity="0.8" enable-background="new    " width="14.813" height="14.811"/>
		<rect x="195.812" y="153.951" opacity="0.8" enable-background="new    " width="14.811" height="14.812"/>
		<rect x="320.898" y="131.816" opacity="0.8" enable-background="new    " width="14.811" height="14.811"/>
		<rect x="297.603" y="152.992" opacity="0.8" enable-background="new    " width="14.811" height="14.812"/>
		<rect x="261.103" y="212.338" opacity="0.8" enable-background="new    " width="14.811" height="14.812"/>
		<rect x="203.516" y="299.842" opacity="0.8" enable-background="new    " width="14.811" height="14.812"/>
		<rect x="192.266" y="325.092" opacity="0.8" enable-background="new    " width="14.811" height="14.812"/>
		<rect x="184.86" y="396.895" opacity="0.8" enable-background="new    " width="14.811" height="14.813"/>
		<rect x="301.97" y="447.095" opacity="0.8" enable-background="new    " width="14.813" height="14.812"/>
		<rect x="352.345" y="413.971" opacity="0.8" enable-background="new    " width="14.813" height="14.811"/>
		<rect x="454.474" y="349.777" opacity="0.8" enable-background="new    " width="14.813" height="14.812"/>
		<rect x="309.375" y="320.158" opacity="0.8" enable-background="new    " width="14.811" height="14.812"/>
		<rect x="292.441" y="357.184" opacity="0.8" enable-background="new    " width="14.811" height="14.811"/>
		<rect x="338.185" y="262.094" opacity="0.8" enable-background="new    " width="14.813" height="14.813"/>
		<rect x="352.345" y="274.521" opacity="0.8" enable-background="new    " width="14.813" height="14.811"/>
		<rect x="390.446" y="212.338" opacity="0.8" enable-background="new    " width="14.811" height="14.812"/>
	</g>
</g>
</svg>
