<?xml version="1.0" encoding="utf-8"?>
<!-- Generator: Adobe Illustrator 16.0.0, SVG Export Plug-In . SVG Version: 6.00 Build 0)  -->
<!DOCTYPE svg PUBLIC "-//W3C//DTD SVG 1.1//EN" "http://www.w3.org/Graphics/SVG/1.1/DTD/svg11.dtd">
<svg version="1.1" id="Layer_1" xmlns="http://www.w3.org/2000/svg" xmlns:xlink="http://www.w3.org/1999/xlink" x="0px" y="0px"
	 width="841.89px" height="595.281px" viewBox="0 0 841.89 595.281" enable-background="new 0 0 841.89 595.281"
	 xml:space="preserve">
<g id="background">
	<rect fill="#FFFFFF" width="841.89" height="595.281"/>
</g>
<g id="etc">
	<path fill="#DEDEDE" stroke="#494949" stroke-width="0.5" stroke-miterlimit="10" d="M610.666,275.978
		c-1.5-2.189-14.332-21.226-14.332-21.226L568,252.556c0,0-8.334-17.889-17.281-34.628c-8.949-16.739-7.885-18.761-2.076-21.594
		c3.916-1.91,9.146-4.043,12.146-5.233l-9.08-14.433c4.037-2.167-2.744-11.975-2.744-11.977l-21.514,10.285L507,184.75L498.05,168
		l-10.389,5.5l7.588,16.5l-35.75,19.5l-13.25-3.75l-33.875-66.621c-14.354,6.281-84.391,39.415-122.63,103.371
		C247,314,243.875,324,233.438,407.5S224.25,506,215.5,512.75s-7.75,8.75-17.25,9s-26.221,3.428-24.981-8.773
		c0.798-7.854,7.272-71.586,11.963-117.764L184,395.125c0,0-3.119-0.203-5.951,2.893l-2.462,23.574
		c-0.119,0.551-0.207,1.176-0.254,1.908c-0.313,4.842-7.507,70.16-8.545,84.643l-0.138,0.025c0,0-2.317,22.166,12.517,24.832
		c14.834,2.668,19.167-2.832,19.167-2.832s22.451,1.166,37.059,17c0,0,2.274,28.998,33.274,29.166c0,0,10.805,14.662,26.152,11.914
		c0.002,0,0.005-0.002,0.007-0.002c2.238-0.428,4.498-1.365,6.674-2.912c4.904-3.49,19.57-14.875,31.806-24.527
		c1.041-3.225,1.563-8.064-1.806-12.973c-3.301-4.811-6.601-9.672-8.845-12.988c-5.902,4.291-24.952,18.08-41.055,28.969
		c-19.32,13.063-27.226,1.063-37.476-13.938s-10.875-24.25,0-35.75s44.125-42.971,44.125-42.971l37.841,55.512l3.911-2.5
		c0,0,11.998,18.834,13.832,21.168c1.834,2.332,3.167,4,7.833,0.666c2.333-2.332,1.333-4.166-1-7.5
		c-2.333-3.332-49.833-73.5-49.833-73.5l16.671-11.572l3.076-2.09l-5.33-7.17l-25.583,19.969c0,0-20.917-21.803,5.708-39.803
		c10.516-7.106,29.542-20.743,49.55-35.381l4.066,5.621l12.889,17.823l-11.313,7.978l5.324,6.963l15.638-10.625l-18.027-25.428
		l-4.02-5.67c-0.065,0.049-0.136,0.096-0.197,0.146c29.353-21.529,59.64-44.343,67.468-51.259c0.013-0.012,0.026-0.022,0.039-0.034
		l7.043,4.631l30.289,19.9l-3.607,3.129l7.15,0.455l66.244,3.307l-56.494-5.199l-21.479-13.998l-19.084-12.436l-5.726-3.73
		c8.687-8.174,20.99-21.813,29.974-44.333c-0.049,0.123-0.096,0.253-0.145,0.375l6.959,0.685l3.314-8.374l-7.32-0.349
		c-0.068,0.205-0.146,0.396-0.211,0.603c5.139-15.176,8.721-33.926,9.049-57.128l59.5-30.135l27.875,55.018l-1.875,16.473l9,1.019
		l7.313,10.563l-0.75,8l-24.875-1.25c0,0-1.063,14.688-1.188,18.063s1.563,6.761,8.656,7.313c7.092,0.561,40.219,3.062,40.219,3.062
		l0.875-12.484c0,0,2.451,0.118,5.834,0.298l1.166-17.888c0,0,7,0.45,13,0.95c0.596,0.05,1.229,0.072,1.883,0.064
		C610.435,279.495,611.562,277.286,610.666,275.978z"/>
	<path fill="#DEDEDE" stroke="#494949" stroke-width="0.5" stroke-miterlimit="10" d="M615,260.103l4.666-2.976l13,19.513
		c0,0-12.82,29.499,6.5,37.527c12.834,5.332,14.84,16.642,5.709,22.207c-13.303,8.112-47.541,29.517-47.541,29.517H566.5"/>
	<path fill="#DEDEDE" stroke="#494949" stroke-width="0.5" stroke-miterlimit="10" d="M203.548,357.875l0.929-9.563l0.04-0.156
		l-14.253-2.316c-0.072,0.461-0.129,0.895-0.169,1.285c-0.213,2.102-1.819,17.908-3.964,39.02
		c5.636,0.729,12.597,1.605,12.597,1.605l-0.688,8.375l-12.831-0.912c-0.364,3.588-0.74,7.281-1.122,11.047l14.773,0.15
		l2.818-29.277L203.548,357.875z"/>
	<path fill="#DEDEDE" stroke="#494949" stroke-width="0.5" stroke-miterlimit="10" d="M182.28,424.042l49.014,0.781
		c0.234-1.957,0.475-3.951,0.724-6l-49.103-1.033C182.704,419.865,182.492,421.951,182.28,424.042z"/>
	<path fill="#DEDEDE" stroke="#494949" stroke-width="0.5" stroke-miterlimit="10" d="M182.915,417.791l49.103,1.033
		c0.441-3.629,0.906-7.4,1.396-11.324c0.031-0.248,0.062-0.488,0.092-0.736l-49.42-0.504
		C183.702,410.042,183.311,413.896,182.915,417.791z"/>
	<path fill="#DEDEDE" stroke="#494949" stroke-width="0.5" stroke-miterlimit="10" d="M195.879,325.691
		c-2.506,7.117-4.875,15.379-5.616,20.146l14.253,2.315l4.738-18.616L195.879,325.691z"/>
	<path fill="#DEDEDE" stroke="#494949" stroke-width="0.5" stroke-miterlimit="10" d="M200.625,308.634l-2.648,3.99l1.167,1.729
		l42.208,12.707l-3.125,10.813l-28.972-8.336l-4.738,18.615l9.591,1.563L217.414,338l25.551,6.371
		c1.59-7.422,3.362-14.191,5.466-20.762L200.625,308.634z"/>
	<path fill="#DEDEDE" stroke="#494949" stroke-width="0.5" stroke-miterlimit="10" d="M241.352,327.063l-42.208-12.707l0.833,1.231
		c-1.23,2.449-2.685,6.095-4.097,10.104l42.347,12.185L241.352,327.063z"/>
	<path fill="#DEDEDE" stroke="#494949" stroke-width="0.5" stroke-miterlimit="10" d="M258.837,220.879l-23.692,35.714l15.782,7.525
		l8.216-13.729l18.918,11.82c3.526-6.049,7.395-12.568,11.664-19.709c0.116-0.193,0.235-0.383,0.351-0.576L258.837,220.879z"/>
	<polygon fill="#DEDEDE" stroke="#494949" stroke-width="0.5" stroke-miterlimit="10" points="264.693,212.052 258.837,220.879 
		273.106,230.492 278.166,223.171 	"/>
	<path fill="#DEDEDE" stroke="#494949" stroke-width="0.5" stroke-miterlimit="10" d="M332.655,149.165L332.655,149.165
		l-13.688-15.866l-3.746,2.576L304.51,152.03l31.655,35.907c5.9-5.161,11.828-9.908,17.642-14.246L332.655,149.165L332.655,149.165z
		"/>
	<polygon fill="#DEDEDE" stroke="#494949" stroke-width="0.5" stroke-miterlimit="10" points="339.144,145.125 327.771,127.249 
		318.972,133.299 332.655,149.165 	"/>
	<path fill="#DEDEDE" stroke="#494949" stroke-width="0.5" stroke-miterlimit="10" d="M629,293.333
		c-0.166-3.833-0.5-12-6.334-21.333C616.833,262.667,558,172.833,558,172.833l-6.105-9.546l-1.174,0.561l-1.762,0.842
		c0.002,0.001,6.783,9.81,2.746,11.977l20.129,32l3-1.667c0,0,34.998,52.917,41.832,62.625S613.5,281.5,607.5,281s-13-0.95-13-0.95
		l-1.166,17.888c5.756,0.308,14.215,0.792,17.916,1.187c5.875,0.625,13.125,4.625,11.625,20.875
		c-1.119,12.123-1.127,20.154-5.488,26.217c1.789-1.113,3.082-1.957,3.613-2.383c3.334-2.666,4.666-6.5,5.334-14.834
		C627,320.667,629.167,297.167,629,293.333z"/>
	<path fill="#DEDEDE" stroke="#494949" stroke-width="0.5" stroke-miterlimit="10" d="M560.783,191.1
		c-2.996,1.19-8.225,3.324-12.141,5.233c-5.811,2.833-6.873,4.855,2.074,21.594c0.119,0.222,0.236,0.444,0.355,0.666l20.662-10.082
		L560.783,191.1z"/>
	<path fill="#DEDEDE" stroke="#494949" stroke-width="0.5" stroke-miterlimit="10" d="M616.666,269.625
		C609.832,259.917,574.833,207,574.833,207l-3,1.667l-0.098-0.155l-20.664,10.082c3.604,6.771,7.096,13.683,9.959,19.493
		L594,241.619l2.5,4.512l-3.834,2.37l3.668,6.252c0,0,12.832,19.037,14.332,21.226c0.896,1.309-0.23,3.518-1.283,5.086
		C615.318,280.995,622.822,278.371,616.666,269.625z"/>
	<path fill="#DEDEDE" stroke="#494949" stroke-width="0.5" stroke-miterlimit="10" d="M596.5,246.13l-2.5-4.512l-32.969-3.532
		c4.135,8.386,6.969,14.469,6.969,14.469l28.334,2.196l-3.668-6.252L596.5,246.13z"/>
	
		<rect x="359.387" y="352.301" transform="matrix(-0.6052 -0.796 0.796 -0.6052 287.6482 873.5718)" fill="#DEDEDE" stroke="#494949" stroke-width="0.5" stroke-miterlimit="10" width="2.083" height="26.324"/>
	
		<rect x="360.629" y="353.97" transform="matrix(-0.606 -0.7955 0.7955 -0.606 288.7875 877.3191)" fill="#DEDEDE" stroke="#494949" stroke-width="0.5" stroke-miterlimit="10" width="2.082" height="26.338"/>
	
		<rect x="396.083" y="323.484" transform="matrix(-0.6055 -0.7958 0.7958 -0.6055 369.6868 856.5384)" fill="#DEDEDE" stroke="#494949" stroke-width="0.5" stroke-miterlimit="10" width="2.084" height="26.327"/>
	
		<rect x="397.349" y="325.166" transform="matrix(-0.606 -0.7955 0.7955 -0.606 370.6716 860.2723)" fill="#DEDEDE" stroke="#494949" stroke-width="0.5" stroke-miterlimit="10" width="2.082" height="26.339"/>
	<g>
		
			<rect x="238.14" y="457.035" transform="matrix(-0.9977 -0.0674 0.0674 -0.9977 446.5307 943.0664)" fill="#DEDEDE" stroke="#494949" stroke-width="0.5" stroke-miterlimit="10" width="2.085" height="13.923"/>
		
			<rect x="240.295" y="457.178" transform="matrix(-0.9977 -0.0684 0.0684 -0.9977 450.3384 943.7098)" fill="#DEDEDE" stroke="#494949" stroke-width="0.5" stroke-miterlimit="10" width="2.083" height="13.923"/>
	</g>
	<g>
		
			<rect x="236.06" y="480.885" transform="matrix(-0.9977 -0.0675 0.0675 -0.9977 440.7592 990.5714)" fill="#DEDEDE" stroke="#494949" stroke-width="0.5" stroke-miterlimit="10" width="2.085" height="13.92"/>
		
			<rect x="238.178" y="481.046" transform="matrix(-0.9977 -0.0685 0.0685 -0.9977 444.4568 991.2576)" fill="#DEDEDE" stroke="#494949" stroke-width="0.5" stroke-miterlimit="10" width="2.082" height="13.929"/>
	</g>
	<path fill="#DEDEDE" stroke="#494949" stroke-width="0.5" stroke-miterlimit="10" d="M373.503,341.417l9.028,11.5l6.386-5.166
		l-4.108-5.084c0,0-6.68,1.112-5.43-5.625L373.503,341.417z"/>
	<path fill="#DEDEDE" stroke="#494949" stroke-width="0.5" stroke-miterlimit="10" d="M319.833,530.666l6.257-4l-8.758-12.848
		l-11.357,7.668l3.691,5.348l-13.917,9.998l7.983,11.6c8.486-6.02,15.686-11.229,18.922-13.586
		C320.935,532.302,319.833,530.666,319.833,530.666z"/>
	<polygon fill="#DEDEDE" stroke="#494949" stroke-width="0.5" stroke-miterlimit="10" points="329.058,434.875 322.325,439.488 
		315.25,444.167 320.58,451.337 334.24,442.054 	"/>
	<polygon fill="#DEDEDE" stroke="#494949" stroke-width="0.5" stroke-miterlimit="10" points="414.508,376.68 420.744,383.264 
		431.304,376.087 424.5,369.729 	"/>
	<path fill="#DEDEDE" stroke="#494949" stroke-width="0.5" stroke-miterlimit="10" d="M765.167,199.333l-23.289,13.836
		l12.447,18.081c9.516-12.939,16.008-23.584,16.008-23.584L765.167,199.333z"/>
	<path fill="#DEDEDE" stroke="#494949" stroke-width="0.5" stroke-miterlimit="10" d="M796.195,57.173
		c-3.391-7.634-10.826-12.937-19.461-12.937c-1.443,0-2.855,0.15-4.219,0.433L772.001,43c0,0-13.166,1.167-16.5,2
		s-1.5,5.167-1.5,5.167l-14.334,5c0,0-1.5-3.667-2.334-5.833c-0.832-2.166-3.021-1.271-4.959-0.771
		c-0.787,0.204-16.42,5.446-34.689,11.593c-3.898-4.251-9.404-6.905-15.514-6.905c-10.871,0-19.844,8.403-21.225,19.286
		C648.175,76.845,638.833,80,638.833,80l10,20.833l5.834-2l9.5,28.333c0,0,3.666-1.667,5.5,3s1.834,5.5,1.834,5.5l110.332-36.5
		l0.068-0.194c1.895,0.575,3.914,0.889,5.998,0.889c11.818,0,21.416-9.943,21.416-22.208
		C809.316,68.438,803.902,60.535,796.195,57.173z"/>
	<polygon fill="#DEDEDE" stroke="#494949" stroke-width="0.5" stroke-miterlimit="10" points="621.646,96.717 641.994,86.583 
		645.794,94.5 625.826,104.877 	"/>
	
		<rect x="259.803" y="302.744" transform="matrix(-0.9503 -0.3113 0.3113 -0.9503 410.386 697.3235)" fill="#DEDEDE" stroke="#494949" stroke-width="0.5" stroke-miterlimit="10" width="2.083" height="26.331"/>
	
		<rect x="261.798" y="303.412" transform="matrix(-0.9506 -0.3105 0.3105 -0.9506 414.4077 699.1158)" fill="#DEDEDE" stroke="#494949" stroke-width="0.5" stroke-miterlimit="10" width="2.082" height="26.336"/>
	
		<rect x="286.316" y="273.117" transform="matrix(-0.8975 -0.4409 0.4409 -0.8975 419.048 669.9316)" fill="#DEDEDE" stroke="#494949" stroke-width="0.5" stroke-miterlimit="10" width="2.082" height="26.328"/>
	
		<rect x="288.214" y="274.081" transform="matrix(-0.898 -0.44 0.44 -0.898 422.6271 672.4643)" fill="#DEDEDE" stroke="#494949" stroke-width="0.5" stroke-miterlimit="10" width="2.082" height="26.334"/>
	
		<rect x="378.67" y="157.667" transform="matrix(-0.5145 -0.8575 0.8575 -0.5145 428.586 584.3243)" fill="#DEDEDE" stroke="#494949" stroke-width="0.5" stroke-miterlimit="10" width="2.084" height="26.329"/>
	
		<rect x="379.738" y="159.422" transform="matrix(-0.516 -0.8566 0.8566 -0.516 429.4305 587.8141)" fill="#DEDEDE" stroke="#494949" stroke-width="0.5" stroke-miterlimit="10" width="2.082" height="26.332"/>
	<g>
		
			<rect x="550.393" y="249.357" transform="matrix(-0.9935 -0.1134 0.1134 -0.9935 1070.2395 573.5333)" fill="#DEDEDE" stroke="#494949" stroke-width="0.5" stroke-miterlimit="10" width="2.088" height="13.922"/>
		
			<rect x="552.474" y="249.576" transform="matrix(-0.9935 -0.1135 0.1135 -0.9935 1074.3301 574.2515)" fill="#DEDEDE" stroke="#494949" stroke-width="0.5" stroke-miterlimit="10" width="2.082" height="13.922"/>
	</g>
	<polygon fill="#DEDEDE" stroke="#494949" stroke-width="0.5" stroke-miterlimit="10" points="776.667,193.167 781.167,200.167 
		791.667,200.167 806,179.667 802.333,177.333 	"/>
	<path fill="#DEDEDE" stroke="#494949" stroke-width="0.5" stroke-miterlimit="10" d="M651,267.167L661.833,283
		c0,0,4.762,0.771,12.457,0.427l-14.635-21.403L651,267.167z"/>
	<path fill="#DEDEDE" stroke="#494949" stroke-width="0.5" stroke-miterlimit="10" d="M703.89,256.182L694,241.619l-17.33,10.297
		l18.803,28.134c3.277-0.9,6.691-2.017,10.203-3.41l-10.508-14.974L703.89,256.182z"/>
	<path fill="#DEDEDE" stroke="#494949" stroke-width="0.5" stroke-miterlimit="10" d="M695.167,261.667l10.508,14.974
		c1.645-0.653,3.311-1.363,4.99-2.14c1.367-0.631,2.754-1.383,4.152-2.23l-10.936-16.088L695.167,261.667z"/>
	<path fill="#DEDEDE" stroke="#494949" stroke-width="0.5" stroke-miterlimit="10" d="M611.25,299.125
		c-5.875-0.625-23.75-1.484-23.75-1.484l-0.875,12.484l19.473,1.611l11.807-10.023C615.841,300.066,613.449,299.359,611.25,299.125z
		"/>
	<path fill="#DEDEDE" stroke="#494949" stroke-width="0.5" stroke-miterlimit="10" d="M617.896,301.712l-11.799,10.024l0.152,0.013
		l-3.07,42.979c5.381-3.164,10.736-6.354,14.207-8.517c4.361-6.063,4.369-14.094,5.488-26.217
		C623.812,309.833,621.328,304.462,617.896,301.712z"/>
	<polygon fill="#EA1366" stroke="#494949" stroke-width="0.5" stroke-miterlimit="10" points="548.304,263.362 548.958,257.127 
		548.958,257.127 548.25,263.356 	"/>
	<polygon fill="#DEDEDE" stroke="#494949" stroke-width="0.5" stroke-miterlimit="10" points="526.156,234 540.068,227.031 
		534.548,216.137 520.75,223.375 	"/>
	<polygon fill="#DEDEDE" stroke="#494949" stroke-width="0.5" stroke-miterlimit="10" points="511.457,219.625 531,209.132 
		526.931,201.105 507,211.75 	"/>
	<polygon fill="#DEDEDE" stroke="#494949" stroke-width="0.5" stroke-miterlimit="10" points="548.25,263.356 548.958,257.127 
		541.125,256.557 539.964,269.895 547.554,270.506 548.304,263.362 	"/>
	<polygon fill="#DEDEDE" stroke="#494949" stroke-width="0.5" stroke-miterlimit="10" points="538.937,281.688 546.341,282.06 
		547.554,270.506 539.964,269.895 	"/>
	<polygon fill="#DEDEDE" stroke="#494949" stroke-width="0.5" stroke-miterlimit="10" points="563.812,282.938 564.562,274.938 
		557.25,264.375 548.304,263.362 546.341,282.06 	"/>
	<polygon fill="#DEDEDE" stroke="#494949" stroke-width="0.5" stroke-miterlimit="10" points="531.625,244.75 549.744,246.13 
		540.068,227.031 526.156,234 	"/>
	<path fill="#DEDEDE" stroke="#494949" stroke-width="0.5" stroke-miterlimit="10" d="M313.491,364.375
		c0,0,10.369-44.883,25.625-62.959l-4.107-4.742c-4.892,7.322-22.126,35.115-29.134,73.055L313.491,364.375z"/>
	<path fill="#DEDEDE" stroke="#494949" stroke-width="0.5" stroke-miterlimit="10" d="M390.417,242.167l17.929,8.333l9.404-8.25
		l-24.167-11.899L374.082,207.5l-9.582,7.333L384,237.75c-13.648,8.848-34.303,35.565-38.306,40.831L349.3,281l2.037,2.33
		C366.578,260.831,390.417,242.167,390.417,242.167z"/>
	<path fill="#DEDEDE" stroke="#494949" stroke-width="0.5" stroke-miterlimit="10" d="M408.346,250.5l-17.929-8.333
		c0,0-23.838,18.664-39.075,41.163l11.896,13.601l17.833-21.764l12.313-15.03l6.025,5.07l5.754-6.729l5.729-6.793L408.346,250.5z"/>
	<path fill="#DEDEDE" stroke="#494949" stroke-width="0.5" stroke-miterlimit="10" d="M288.687,371.007l-18.093-2.981
		c-0.648,3.481-1.211,6.789-1.7,9.875c-0.06,0.385-0.119,0.76-0.177,1.134l18.391,2.534L288.687,371.007z"/>
	<path fill="#DEDEDE" stroke="#494949" stroke-width="0.5" stroke-miterlimit="10" d="M310.01,323.723l-4.135,9.479l-6.479-2.976
		l-2,7.004l15.756,4.524c1.73-5.081,3.572-9.834,5.433-14.215L310.01,323.723z"/>
	<path fill="#DEDEDE" stroke="#494949" stroke-width="0.5" stroke-miterlimit="10" d="M305.799,369.729
		c0.753-4.076,1.629-8.025,2.59-11.854l-29.162-8.041l3.105-11.084l28.988,8.672c0.597-1.926,1.208-3.816,1.837-5.658l-15.756-4.529
		l-18.174-5.225c-2.229,7.344-4.107,14.549-5.674,21.375l16.954,4.938l-1.896,12.686l16,2.636l1.34-4.021L305.799,369.729z"/>
	<path fill="#DEDEDE" stroke="#494949" stroke-width="0.5" stroke-miterlimit="10" d="M279.224,349.833l29.162,8.041
		c0.905-3.604,1.895-7.09,2.936-10.453l-28.988-8.672L279.224,349.833z"/>
	
		<ellipse transform="matrix(0.2734 -0.9619 0.9619 0.2734 -226.3973 577.6411)" fill="#DEDEDE" stroke="#494949" stroke-width="0.5" stroke-miterlimit="10" cx="269.158" cy="438.679" rx="11.263" ry="5.375"/>
	<path fill="#DEDEDE" stroke="#494949" stroke-width="0.5" stroke-miterlimit="10" d="M356.138,148.625l-17.475-28.867l-10.892,7.49
		l11.368,17.876l-6.484,4.04l21.147,24.526c7.08-5.284,13.986-9.961,20.459-14.046L364.727,144L356.138,148.625z"/>
	<path fill="#DEDEDE" stroke="#494949" stroke-width="0.5" stroke-miterlimit="10" d="M412.356,139.129L392.39,99.862l-6.286,3.495
		l-12.146-24.668C391.117,70.036,406,62.5,406,62.5L377,7l-88.854,43.565c-5.09-6.064-12.724-9.922-21.26-9.922
		c-15.326,0-27.75,12.424-27.75,27.75c0,9.458,4.736,17.807,11.961,22.816L249.5,93l8.5,6l-10,14.75l-8.864-5.5l-0.882,1.288
		c-4.4-2.933-9.684-4.645-15.368-4.645c-15.326,0-27.75,12.424-27.75,27.75c0,9.373,4.652,17.655,11.768,22.679L199.25,166.5
		l-7.5,74.75l22.5,14.25l15.73-22.764l11.636,7.893l-9.145,13.172l-0.097-0.051c0,0-30.613,45.302-36.289,54.335
		c-5.321,8.103-7.92,15.937-9.181,21.304c-0.161,0.563-0.305,1.166-0.419,1.86c-0.014,0.088-0.033,0.207-0.049,0.312
		c-0.586,2.996-0.692,4.813-0.693,4.83c-1.423,10.354-4.235,32.317-6.054,47.295c0.674,1.028,1.739,1.844,3.435,2.063
		c0.922,0.121,1.952,0.254,3.028,0.394c2.145-21.106,3.75-36.916,3.964-39.019c0.683-6.722,6.258-24.324,9.883-31.537l-2-2.963
		l117.25-176.75l39.709-27.308l-2.209-2.692c0,0-33.993,23.875-37.122,26c-0.225,0.153-0.428,0.312-0.619,0.475
		c-0.001,0.001-0.003,0.001-0.004,0.002c-4.402,3.101-18.149,27.115-18.173,27.156c-10.376,15.254-34.524,51.018-41.825,61.832
		l-7.733,11.139l-11.677-7.873l49.652-71.856l7-9.625l-7.625-5.109l10.72-15.598L303,127.5c0,0,14.5-20.5,39-32.75
		c6.767-3.383,14.678-7.358,22.586-11.339l12.571,24.92l-0.31,0.169l-3.875-5.875l-16.03,8.018l6.905,13.982l16.901-7.875
		l8.819,16.094l3.021-1.594l7.398,13.756c1.077-0.547,2.105-1.063,3.088-1.545l0.003-0.001c1.199-0.59,2.313-1.129,3.354-1.623
		h0.001C408.909,140.663,410.917,139.758,412.356,139.129z"/>
	<polygon fill="#DEDEDE" stroke="#494949" stroke-width="0.5" stroke-miterlimit="10" points="376.875,179.408 381.722,186.673 
		394.783,178.5 390.625,171.323 	"/>
	<polygon fill="#EA1366" stroke="#494949" stroke-width="0.5" stroke-miterlimit="10" points="548.958,164.69 548.958,164.69 
		550.72,163.848 	"/>
	<path fill="#EA1366" stroke="#494949" stroke-width="0.5" stroke-miterlimit="10" d="M551.894,163.287l-1.174,0.561
		L551.894,163.287z"/>
	<polygon fill="#DEDEDE" stroke="#494949" stroke-width="0.5" stroke-miterlimit="10" points="321.818,281.885 319.134,286.592 
		326.853,291.428 329.47,286.754 	"/>
	<polygon fill="#DEDEDE" stroke="#494949" stroke-width="0.5" stroke-miterlimit="10" points="329.47,286.754 326.853,291.428 
		333.922,295.856 336.767,291.397 	"/>
	<polygon fill="#DEDEDE" stroke="#494949" stroke-width="0.5" stroke-miterlimit="10" points="314.415,277.173 311.453,281.781 
		319.134,286.592 321.818,281.885 	"/>
	<path fill="#DEDEDE" stroke="#494949" stroke-width="0.5" stroke-miterlimit="10" d="M307.146,272.548
		c-1.049,1.52-2.069,3.057-3.082,4.604l7.388,4.628l2.962-4.607L307.146,272.548z"/>
	<polygon fill="#DEDEDE" stroke="#494949" stroke-width="0.5" stroke-miterlimit="10" points="337.125,291.625 336.767,291.397 
		333.922,295.856 334.75,296.375 339.116,301.416 342.126,297.35 	"/>
	<polygon fill="#DEDEDE" stroke="#494949" stroke-width="0.5" stroke-miterlimit="10" points="342.126,297.35 339.116,301.416 
		346.073,309.445 349.169,305.412 	"/>
	<polygon fill="#DEDEDE" stroke="#494949" stroke-width="0.5" stroke-miterlimit="10" points="356.088,313.333 352.765,317.169 
		359.479,324.919 362.923,321.158 	"/>
	<path fill="#DEDEDE" stroke="#494949" stroke-width="0.5" stroke-miterlimit="10" d="M370.221,329.514l-7.298-8.354l-3.444,3.762
		l6.74,7.779C367.564,331.634,368.899,330.57,370.221,329.514z"/>
	<polygon fill="#DEDEDE" stroke="#494949" stroke-width="0.5" stroke-miterlimit="10" points="349.169,305.412 346.073,309.445 
		352.765,317.169 356.088,313.333 	"/>
	<polygon fill="#DEDEDE" stroke="#494949" stroke-width="0.5" stroke-miterlimit="10" points="351.584,283.608 348.077,287.838 
		353.142,293.502 357.273,290.115 	"/>
	<polygon fill="#DEDEDE" stroke="#494949" stroke-width="0.5" stroke-miterlimit="10" points="349.305,281 345.69,278.578 
		342.784,282.338 343.65,282.889 348.077,287.838 351.584,283.608 	"/>
	<polygon fill="#DEDEDE" stroke="#494949" stroke-width="0.5" stroke-miterlimit="10" points="323.834,263.936 320.544,268.195 
		328.137,273.023 331.267,268.915 	"/>
	<path fill="#DEDEDE" stroke="#494949" stroke-width="0.5" stroke-miterlimit="10" d="M316.886,259.28
		c-1.141,1.462-2.271,2.936-3.395,4.43l7.054,4.486l3.29-4.26L316.886,259.28z"/>
	<polygon fill="#DEDEDE" stroke="#494949" stroke-width="0.5" stroke-miterlimit="10" points="331.267,268.915 328.137,273.023 
		342.784,282.338 345.69,278.578 	"/>
	<polygon fill="#DEDEDE" stroke="#494949" stroke-width="0.5" stroke-miterlimit="10" points="372.788,307.859 368.902,311.125 
		374.192,317.041 377.939,313.751 	"/>
	<path fill="#DEDEDE" stroke="#494949" stroke-width="0.5" stroke-miterlimit="10" d="M382.738,319.242l-4.799-5.49l-3.747,3.289
		l4.778,5.348C380.251,321.33,381.501,320.283,382.738,319.242z"/>
	<polygon fill="#DEDEDE" stroke="#494949" stroke-width="0.5" stroke-miterlimit="10" points="362.616,296.226 358.596,299.602 
		363.715,305.326 367.532,301.85 	"/>
	<polygon fill="#DEDEDE" stroke="#494949" stroke-width="0.5" stroke-miterlimit="10" points="367.532,301.85 363.715,305.326 
		368.902,311.125 372.788,307.859 	"/>
	<path fill="#DEDEDE" stroke="#494949" stroke-width="0.5" stroke-miterlimit="10" d="M334.93,296.674l-0.259-0.299l-30.685-19.223
		c-0.781,1.192-1.561,2.389-2.315,3.598c-1.126,1.793-2.206,3.624-3.264,5.471l32.766,16.417
		C332.741,300.02,334.042,298.004,334.93,296.674z"/>
</g>
<g id="rooms">
	<path id="r177" fill="#939598" stroke="#494949" stroke-width="0.5" stroke-miterlimit="10" d="M659.656,262.024l14.635,21.403
		c3.162-0.142,6.818-0.474,10.848-1.125l-16.938-25.351L659.656,262.024z"/>
	<path id="r178" fill="#939598" stroke="#494949" stroke-width="0.5" stroke-miterlimit="10" d="M668.193,256.952l16.945,25.351
		c3.229-0.521,6.693-1.252,10.334-2.253l-18.805-28.134L668.193,256.952z"/>
	<path id="r120-120t" fill="#939598" stroke="#494949" stroke-width="0.5" stroke-miterlimit="10" d="M322.325,439.488
		l-15.938-22.783c-4.255,2.994-7.986,5.584-11.016,7.629c-9.506,6.428-12.95,13.338-13.451,19.57
		c-0.902,11.219,7.742,20.229,7.742,20.229l25.583-19.971l0.001,0.002L322.325,439.488z"/>
	<path id="r113-113t" fill="#939598" stroke="#494949" stroke-width="0.5" stroke-miterlimit="10" d="M407.615,392.188
		l-19.688-26.015l-4.397-5.815c-2.741,2.063-5.572,4.183-8.475,6.345l4.322,5.713l0,0l19.472,25.729L407.615,392.188z"/>
	<path id="r119-119t" fill="#939598" stroke="#494949" stroke-width="0.5" stroke-miterlimit="10" d="M343.063,436.058
		l-17.809-24.169l-4.162-5.646c-5.332,3.827-10.296,7.362-14.702,10.465l15.938,22.785l6.729-4.613l5.188,7.178L343.063,436.058z"/>
	<path id="r114-114t" fill="#939598" stroke="#494949" stroke-width="0.5" stroke-miterlimit="10" d="M379.378,372.41l-4.322-5.711
		c-4.771,3.561-9.724,7.234-14.729,10.936l4.025,5.734l18.182,25.865l16.316-11.092L379.378,372.41z"/>
	<path id="r116-116t" fill="#939598" stroke="#494949" stroke-width="0.5" stroke-miterlimit="10" d="M348.991,394.574
		L348.991,394.574l-4.066-5.621c-2.788,2.039-5.555,4.059-8.285,6.043l4.063,5.623l0.209-0.152l0,0l13.058,17.51l7.91-5.578
		L348.991,394.574z"/>
	<path id="r117-117t-118-118t" fill="#939598" stroke="#494949" stroke-width="0.5" stroke-miterlimit="10" d="M350.566,420.375
		l3.399-2.398l-13.058-17.51l-2.712-3.313l0,0l-1.563-2.158c-5.389,3.922-10.623,7.707-15.548,11.244l4.162,5.646l0.002-0.002
		l-0.002,0.005l17.809,24.168l12.832-8.721L350.566,420.375z"/>
	<path id="r112-112t" fill="#939598" stroke="#494949" stroke-width="0.5" stroke-miterlimit="10" d="M414.508,376.68l5.416-3.769
		l-22.007-23.461c-4.354,3.334-9.203,7.008-14.391,10.905l4.397,5.813h0.001l19.688,26.019l13.129-8.928L414.508,376.68z"/>
	<path id="r110-110t" fill="#939598" stroke="#494949" stroke-width="0.5" stroke-miterlimit="10" d="M423.835,339.096l-7.043-4.63
		c-0.013,0.013-0.026,0.023-0.039,0.035c-1.514,1.338-3.877,3.274-6.901,5.679l6.313,5.112l0,0l27.584,22.342l1.918-1.301
		l8.457-7.334L423.835,339.096z"/>
	<path id="r109-109t" fill="#939598" stroke="#494949" stroke-width="0.5" stroke-miterlimit="10" d="M435.232,323.955l-4.701-3.271
		c-3.359,3.938-6.572,7.178-9.402,9.842l5.726,3.729l-0.002,0.002l19.084,12.435l7.57-10.022L435.232,323.955z"/>
	<path id="foodville" fill="#939598" stroke="#494949" stroke-width="0.5" stroke-miterlimit="10" d="M586.625,310.125
		c0,0-33.125-2.5-40.219-3.059c-7.094-0.563-8.781-3.941-8.656-7.316s1.188-18.063,1.188-18.063l2.189-25.131l7.834,0.571
		l1.166-10.245l-0.381-0.752l-18.119-1.38L526.156,234l-5.404-10.625l13.797-7.238L531,209.133l-19.541,10.493L507,211.75
		l19.932-10.645l-4.682-9.24l-51.459,26.063l7.459,13.447l-15.738-1.552c-0.375,7.937-1.145,15.311-2.227,22.177h10.633
		l-0.67,10.089l-0.873,13.161h-6.707l-1.436,3.627l-3.314,8.373l-6.959-0.685c-3.713,9.232-7.98,16.968-12.324,23.429
		c-2.713,4.035-5.453,7.582-8.104,10.689l4.701,3.271l18.275,12.711l-7.57,10.024l21.48,13.998l112.707,9.039
		c0,0,13.836-9.58,23.055-15l3.07-42.979L586.625,310.125z"/>
	<path id="r137" fill="#939598" stroke="#494949" stroke-width="0.5" stroke-miterlimit="10" d="M410.893,251.686l-5.729,6.793
		l17.388,11.534c1.355-3.75,2.5-7.54,3.471-11.287L410.893,251.686z"/>
	<path id="r136" fill="#939598" stroke="#494949" stroke-width="0.5" stroke-miterlimit="10" d="M399.408,265.208l18.543,15.603
		c1.753-3.507,3.271-7.133,4.601-10.798l-17.389-11.534L399.408,265.208z"/>
	<path id="r134-135" fill="#939598" stroke="#494949" stroke-width="0.5" stroke-miterlimit="10" d="M399.408,265.208
		L399.408,265.208l-6.025-5.07l-12.313,15.03l25.313,22.205c3.148-3.383,5.667-6.461,7.366-9.122
		c1.53-2.396,2.926-4.886,4.201-7.439L399.408,265.208L399.408,265.208z"/>
	<path id="r132-133" fill="#939598" stroke="#494949" stroke-width="0.5" stroke-miterlimit="10" d="M406.383,297.372
		l-25.313-22.205L368.6,290.381l23.841,20.453C397.845,306,402.582,301.459,406.383,297.372z"/>
	<path id="r131" fill="#939598" stroke="#494949" stroke-width="0.5" stroke-miterlimit="10" d="M368.6,290.381l-5.363,6.55
		l19.505,22.311c3.396-2.863,6.627-5.66,9.652-8.369c0.018-0.014,0.028-0.025,0.042-0.038L368.6,290.381z"/>
	<path id="r148" fill="#939598" stroke="#494949" stroke-width="0.5" stroke-miterlimit="10" d="M340.583,258.479l3.167-4.313
		l-13.231-11.131c-3.584,3.994-7.146,8.152-10.634,12.47l14.532,10.328L340.583,258.479z"/>
	<path id="r140" fill="#939598" stroke="#494949" stroke-width="0.5" stroke-miterlimit="10" d="M413.326,224.838L413.326,224.838
		l17.718,0.14c0.344-6.539,0.207-10.646,0.207-10.646s-1.154-2.318-2.852-5.68l-25.359,15.801l-0.092,0.058l6.654,3.301
		L413.326,224.838L413.326,224.838z"/>
	<path id="r139" fill="#939598" stroke="#494949" stroke-width="0.5" stroke-miterlimit="10" d="M431.044,224.979l-17.718-0.14
		l-3.719,2.975l20.306,10.074c0.031-0.259,0.066-0.525,0.098-0.781l-0.002-0.001c0.486-4.113,0.791-7.871,0.979-11.097
		C431.007,225.657,431.027,225.317,431.044,224.979z"/>
	<path id="r138" fill="#939598" stroke="#494949" stroke-width="0.5" stroke-miterlimit="10" d="M409.607,227.813l-6.655-3.301
		l-9.368,5.838l24.167,11.899l10.875,4.35c0.527-3.024,0.945-5.94,1.287-8.712L409.607,227.813L409.607,227.813z"/>
	<path id="r147" fill="#939598" stroke="#494949" stroke-width="0.5" stroke-miterlimit="10" d="M330.519,243.036l13.231,11.131
		l-3.167,4.313l5.5,4.021l3.167-4.021l7.573,6.188c1.692-2.025,3.518-4.145,5.396-6.277l-25.313-22.277
		C334.775,238.357,332.644,240.668,330.519,243.036z"/>
	<path id="r145-146" fill="#939598" stroke="#494949" stroke-width="0.5" stroke-miterlimit="10" d="M375.418,244.653L351.066,222
		c-4.623,4.362-9.387,9.076-14.161,14.112l25.313,22.277C366.457,253.586,371.03,248.711,375.418,244.653z"/>
	<path id="r144" fill="#939598" stroke="#494949" stroke-width="0.5" stroke-miterlimit="10" d="M364.5,214.833l-2.467-2.779
		c-3.521,3.065-7.195,6.386-10.967,9.945l24.352,22.653c3.009-2.782,5.928-5.183,8.582-6.903L364.5,214.833z"/>
	<path id="r143" fill="#939598" stroke="#494949" stroke-width="0.5" stroke-miterlimit="10" d="M393.537,209.821l-9.673-15.244
		c-2.383,1.722-5.103,3.76-8.08,6.096l11.3,13.327L393.537,209.821z"/>
	<path id="r141-142" fill="#939598" stroke="#494949" stroke-width="0.5" stroke-miterlimit="10" d="M418.333,189.333
		c-4.917-8.917-15.583-6.333-25.737-0.583c-1.79,1.014-4.813,2.997-8.729,5.827l9.673,15.244l2.297-1.487l10.151,14.289
		l22.417-13.969C425.621,203.157,421.384,194.867,418.333,189.333z"/>
	<path id="r157" fill="#939598" stroke="#494949" stroke-width="0.5" stroke-miterlimit="10" d="M268.717,379.031
		c-2.199,14.188-2.792,23.469-2.792,23.469l9.574-3.75c0,0,3.773-2.555,10.074-6.916l1.534-10.266L268.717,379.031z"/>
	<path id="r158" fill="#939598" stroke="#494949" stroke-width="0.5" stroke-miterlimit="10" d="M285.574,391.833
		c6.159-4.265,14.732-10.256,24.588-17.289l-21.475-3.537L285.574,391.833z"/>
	<path id="r155" fill="#939598" stroke="#494949" stroke-width="0.5" stroke-miterlimit="10" d="M290.583,358.322l-16.954-4.938
		c-1.176,5.125-2.179,10.035-3.036,14.642l18.094,2.981L290.583,358.322z"/>
	<path id="r130" fill="#939598" stroke="#494949" stroke-width="0.5" stroke-miterlimit="10" d="M366.219,332.699l-27.103-31.283
		c-2.938,3.479-5.69,7.951-8.229,12.904l23.678,27.457C358.503,338.753,362.404,335.718,366.219,332.699z"/>
	<path id="r128-129" fill="#939598" stroke="#494949" stroke-width="0.5" stroke-miterlimit="10" d="M330.891,314.32
		c-3.183,6.219-6.019,13.195-8.43,19.924l15.817,19.832c5.412-4.023,10.883-8.148,16.286-12.299L330.891,314.32z"/>
	<path id="r127" fill="#939598" stroke="#494949" stroke-width="0.5" stroke-miterlimit="10" d="M322.382,334.244
		c-2.097,5.852-3.873,11.508-5.278,16.313l9.414,12.127c3.829-2.795,7.739-5.674,11.687-8.604L322.382,334.244z"/>
	<path id="r152" fill="#939598" stroke="#494949" stroke-width="0.5" stroke-miterlimit="10" d="M285.791,312.932l32.796,14.612
		c1.216-2.864,2.438-5.582,3.641-8.117l-32.917-15.016C288.076,307.234,286.9,310.078,285.791,312.932z"/>
	<path id="r154" fill="#939598" stroke="#494949" stroke-width="0.5" stroke-miterlimit="10" d="M282.33,322.396
		c-1.106,3.221-2.139,6.43-3.105,9.609l18.174,5.227l1.998-7.004L282.33,322.396z"/>
	<path id="r153" fill="#939598" stroke="#494949" stroke-width="0.5" stroke-miterlimit="10" d="M299.396,330.229L299.396,330.229
		l6.479,2.978l4.135-9.479l-24.219-10.793c-1.226,3.15-2.377,6.313-3.461,9.465L299.396,330.229L299.396,330.229z"/>
	<path id="r150" fill="#939598" stroke="#494949" stroke-width="0.5" stroke-miterlimit="10" d="M298.407,286.221
		c-1.663,2.902-3.244,5.862-4.745,8.868l33.102,15.345c1.606-3,3.104-5.608,4.409-7.795L298.407,286.221z"/>
	<path id="r151" fill="#939598" stroke="#494949" stroke-width="0.5" stroke-miterlimit="10" d="M289.309,304.412l32.917,15.016
		c1.564-3.301,3.099-6.299,4.537-8.992l-33.102-15.346C292.13,298.158,290.681,301.27,289.309,304.412z"/>
	<path id="r122-122t" fill="#939598" stroke="#494949" stroke-width="0.5" stroke-miterlimit="10" d="M309.667,526.833l-3.691-5.348
		l-19.915-28.854l0,0l-8.078-11.705c-3.704,3.541-8.055,7.715-12.461,11.979l7.837,11.391l0,0l22.391,32.537L309.667,526.833z"/>
	<path id="r121-121t" fill="#939598" stroke="#494949" stroke-width="0.5" stroke-miterlimit="10" d="M295.97,482.478
		c0,0-0.001,0.005-0.001,0.006l-7.719-11.324c0,0-4.283,4.055-10.268,9.771l27.995,40.563l11.357-7.668L295.97,482.478z"/>
	<path id="r124-124t" fill="#939598" stroke="#494949" stroke-width="0.5" stroke-miterlimit="10" d="M261.981,512.882l-6.754-9.949
		c-4.489,4.416-8.459,8.396-11.103,11.191c-10.664,11.277-10.263,20.395-0.579,34.888l29.793-19.396L261.981,512.882z"/>
	<path id="r125-125t" fill="#939598" stroke="#494949" stroke-width="0.5" stroke-miterlimit="10" d="M288.114,551.378
		l-14.776-21.767l-29.793,19.396c0.192,0.286,0.38,0.571,0.579,0.862c10.25,15,18.156,26.996,37.476,13.936
		c3.322-2.241,6.77-4.611,10.202-7L288.114,551.378z"/>
	<path id="r123-123t" fill="#939598" stroke="#494949" stroke-width="0.5" stroke-miterlimit="10" d="M295.75,536.832
		l-22.392-32.539l-7.837-11.389c-3.505,3.389-7.034,6.818-10.293,10.025l6.753,9.949l0,0l29.821,43.928
		c4.079-2.834,8.133-5.686,11.935-8.379L295.75,536.832z"/>
	<path id="r166" fill="#939598" stroke="#494949" stroke-width="0.5" stroke-miterlimit="10" d="M214.107,349.716L214.107,349.716
		l-9.591-1.562l-0.04,0.156l-0.929,9.563l35.881,5.684c0.528-3.285,1.063-6.438,1.616-9.465L214.107,349.716L214.107,349.716z"/>
	<path id="r165" fill="#939598" stroke="#494949" stroke-width="0.5" stroke-miterlimit="10" d="M203.548,357.875l-0.899,9.256
		l35.446,5.115c0.442-3.01,0.885-5.9,1.333-8.689L203.548,357.875z"/>
	<path id="r159-160" fill="#939598" stroke="#494949" stroke-width="0.5" stroke-miterlimit="10" d="M198.275,521.748
		c9.447-0.256,8.467-2.26,17.202-8.998c4.81-3.711,6.599-9.918,8.967-28.625h-22.217L198.275,521.748z"/>
	<path id="r162-163" fill="#939598" stroke="#494949" stroke-width="0.5" stroke-miterlimit="10" d="M236.621,382.686l-34.943-5.554
		l-2.818,29.277l34.646,0.354C234.606,397.975,235.626,389.998,236.621,382.686z"/>
	<path id="r167" fill="#939598" stroke="#494949" stroke-width="0.5" stroke-miterlimit="10" d="M214.107,349.716l26.937,4.377
		c0.616-3.377,1.252-6.604,1.92-9.723l-25.55-6.37L214.107,349.716z"/>
	<path id="r175-2-175-2t" fill="#939598" stroke="#494949" stroke-width="0.5" stroke-miterlimit="10" d="M399.994,145.006
		l-7.398-13.756l-3.021,1.594l-8.819-16.094l-16.899,7.875l-6.907-13.982l-0.218,0.107l-1.791-2.183l-16.271,11.191l17.475,28.867
		l8.592-4.625l9.54,15.645c8.563-5.405,16.364-9.773,22.799-13.13v-0.001C398.077,145.986,399.052,145.484,399.994,145.006z"/>
	<path id="r172" fill="#939598" stroke="#494949" stroke-width="0.5" stroke-miterlimit="10" d="M270.815,202.823l28.863,24.637
		c1.777-2.445,3.6-4.839,5.45-7.179l-28.94-25.556L270.815,202.823z"/>
	<path id="r171-2" fill="#939598" stroke="#494949" stroke-width="0.5" stroke-miterlimit="10" d="M264.693,212.052l29.071,23.992
		c1.91-2.93,3.884-5.792,5.914-8.584l-28.863-24.637L264.693,212.052z"/>
	<path id="r173" fill="#939598" stroke="#494949" stroke-width="0.5" stroke-miterlimit="10" d="M276.188,194.724l28.94,25.556
		c2.063-2.601,4.169-5.137,6.313-7.609l-29.917-25.998L276.188,194.724z"/>
	<path id="r174" fill="#939598" stroke="#494949" stroke-width="0.5" stroke-miterlimit="10" d="M281.528,186.673l29.917,25.998
		c7.895-9.108,16.272-17.345,24.724-24.734L304.51,152.03L281.528,186.673z"/>
	<polygon id="r106-1" fill="#939598" stroke="#494949" stroke-width="0.5" stroke-miterlimit="10" points="579.625,303 
		580.125,296.688 565.625,295.875 565.25,301.712 	"/>
	<path id="r171-1" fill="#939598" stroke="#494949" stroke-width="0.5" stroke-miterlimit="10" d="M293.764,236.043l-15.598-12.873
		l-5.06,7.321l16.971,11.433C291.276,239.934,292.506,237.974,293.764,236.043z"/>
	<polygon id="central-department-store" fill="#939598" stroke="#494949" stroke-width="0.5" stroke-miterlimit="10" points="
		588.75,32.5 542,22.25 515.25,36.5 524,53.25 514,58.5 500,33.75 444.595,63.125 457.5,87.875 447.375,93.5 434,68.625 395.25,89 
		392.415,99.862 446.25,205.75 459.5,209.5 495.25,190 487.662,173.5 498.05,168 507,184.75 532.566,172.528 564,157.5 
		554.75,139.25 564,135 573.75,152.25 622.775,128 630.5,114 	"/>
	<path id="r164" fill="#939598" stroke="#494949" stroke-width="0.5" stroke-miterlimit="10" d="M201.678,377.132l34.943,5.554
		c0.495-3.64,0.984-7.104,1.474-10.438l-35.446-5.113L201.678,377.132z"/>
	<path id="r168-1-168-2" fill="#939598" stroke="#494949" stroke-width="0.5" stroke-miterlimit="10" d="M254.098,308.24
		l-40.692-18.873l-5.56,8.381l0.023,0.011l-0.023-0.01l-7.221,10.885l47.806,14.976c0.649-2.023,1.336-4.032,2.053-6.033
		C251.498,314.813,253.001,310.865,254.098,308.24z"/>
	<path id="r169-1" fill="#939598" stroke="#494949" stroke-width="0.5" stroke-miterlimit="10" d="M213.405,289.367l40.692,18.873
		c2.98-7.133,6.509-14.448,10.781-22.516l-37.521-17.392L213.405,289.367z"/>
	<path id="r169-2-170" fill="#939598" stroke="#494949" stroke-width="0.5" stroke-miterlimit="10" d="M259.143,250.39
		l-8.215,13.729l-15.783-7.524l-7.787,11.738l37.521,17.392c1.995-3.767,4.152-7.701,6.493-11.858
		c2.08-3.693,4.306-7.567,6.689-11.657L259.143,250.39z"/>
	<path id="k107" fill="#939598" stroke="#494949" stroke-width="0.5" stroke-miterlimit="10" d="M260.844,330.75l-7.344-2.354
		L250.849,337l17.526,5.125c0,0,2.021-6.043,4.177-12.527l-10.115-3.133C261.508,328.962,260.844,330.75,260.844,330.75z"/>
	<path id="k108" fill="#939598" stroke="#494949" stroke-width="0.5" stroke-miterlimit="10" d="M267.907,311.688
		c-0.886,2.435-3.673,9.94-5.47,14.776l10.115,3.134c1.749-5.261,3.587-10.812,4.51-13.668
		C279.125,309.544,269.25,308,267.907,311.688z"/>
	<g id="k105-k106">
		<polygon fill="#939598" stroke="#494949" stroke-width="0.5" stroke-miterlimit="10" points="245.125,464.136 242.804,493.875 
			253.5,487.845 255.25,464.75 		"/>
		
			<ellipse transform="matrix(-0.2149 -0.9766 0.9766 -0.2149 -132.4378 831.0613)" fill="#939598" stroke="#494949" stroke-width="0.5" stroke-miterlimit="10" cx="267.812" cy="468.762" rx="6.998" ry="5.375"/>
	</g>
	<path id="k110" fill="#939598" stroke="#494949" stroke-width="0.5" stroke-miterlimit="10" d="M470.791,217.928L462.75,222
		c-0.037,2.666-0.117,5.273-0.238,7.823l15.738,1.552L470.791,217.928z"/>
	<path id="k114" fill="#939598" stroke="#494949" stroke-width="0.5" stroke-miterlimit="10" d="M470.917,252h-10.633
		c-0.551,3.496-1.189,6.856-1.885,10.089h11.848L470.917,252z"/>
	<path id="k115" fill="#939598" stroke="#494949" stroke-width="0.5" stroke-miterlimit="10" d="M470.248,262.089H458.4
		c-0.563,2.591-1.166,5.108-1.814,7.536h13.162L470.248,262.089z"/>
	<path id="k116" fill="#939598" stroke="#494949" stroke-width="0.5" stroke-miterlimit="10" d="M456.585,269.625
		c-0.828,3.098-1.725,6.06-2.674,8.903l7.32,0.349l1.436-3.627h6.707l0.373-5.625H456.585z"/>
	<path id="r111-111t" fill="#939598" stroke="#494949" stroke-width="0.5" stroke-miterlimit="10" d="M416.165,345.293
		L416.165,345.293l-6.313-5.113c-3.267,2.596-7.313,5.737-11.934,9.272l22.007,23.459l4.577-3.181l6.803,6.354l0.496-0.337
		l11.949-8.116L416.165,345.293z"/>
	<path id="r115-115t" fill="#939598" stroke="#494949" stroke-width="0.5" stroke-miterlimit="10" d="M364.354,383.369l-4.025-5.734
		c-3.604,2.658-7.229,5.328-10.843,7.98l4.019,5.67l0,0l18.027,25.427l11.003-7.478L364.354,383.369z"/>
	<path id="uniqlo" fill="#939598" stroke="#494949" stroke-width="0.5" stroke-miterlimit="10" d="M173.245,512.976
		c-1.239,12.201,15.481,9.023,24.981,8.773c0.017,0,0.032,0,0.048-0.002l3.952-37.623h22.217c1.624-12.818,3.521-31.516,6.85-59.301
		l-49.014-0.781C178.183,464.371,173.886,506.671,173.245,512.976z"/>
	<path id="fitness-building" fill="#939598" stroke="#494949" stroke-width="0.5" stroke-miterlimit="10" d="M694,241.619
		l9.891,14.563l0,0l0,0l10.938,16.088c13.65-8.27,28.578-26.155,39.508-41.019L741.88,213.17L694,241.619z"/>
	<path id="r126-126t" fill="#939598" stroke="#494949" stroke-width="0.5" stroke-miterlimit="10" d="M326.521,362.684
		l-9.419-12.127c-2.378,8.135-3.688,13.817-3.688,13.817l-7.464,5.247l-1.34,4.021l5.475,0.901
		C315.27,370.846,320.802,366.857,326.521,362.684z"/>
</g>
<g id="signs">
	<g id="parking">
		<rect x="316.344" y="58.43" opacity="0.8" enable-background="new    " width="14.813" height="14.811"/>
		<rect x="225.594" y="167.68" opacity="0.8" enable-background="new    " width="14.811" height="14.811"/>
		<rect x="707.75" y="80.47" opacity="0.8" enable-background="new    " width="14.811" height="14.813"/>
	</g>
	<rect x="383.322" y="96.189" opacity="0.8" enable-background="new    " width="14.811" height="14.811"/>
	<g id="escalator">
		<rect x="553.626" y="254.752" opacity="0.8" enable-background="new    " width="14.811" height="14.811"/>
		<rect x="355.095" y="344.262" opacity="0.8" enable-background="new    " width="14.813" height="14.813"/>
		<rect x="223.835" y="468.095" opacity="0.8" enable-background="new    " width="14.811" height="14.813"/>
		<rect x="262.611" y="287.711" opacity="0.8" enable-background="new    " width="14.811" height="14.811"/>
		<rect x="353.807" y="178.261" opacity="0.8" enable-background="new    " width="14.813" height="14.813"/>
	</g>
	<g id="telephone">
		<rect x="447.386" y="339.718" opacity="0.8" enable-background="new    " width="14.813" height="14.812"/>
		<rect x="232.071" y="250.428" opacity="0.8" enable-background="new    " width="14.811" height="14.813"/>
	</g>
	<g id="lift">
		<rect x="364.095" y="101.189" opacity="0.8" enable-background="new    " width="14.813" height="14.811"/>
		<rect x="411.697" y="75.064" opacity="0.8" enable-background="new    " width="14.81" height="14.811"/>
		<rect x="588.947" y="55.939" opacity="0.8" enable-background="new    " width="14.811" height="14.811"/>
		<rect x="581.542" y="98.814" opacity="0.8" enable-background="new    " width="14.811" height="14.811"/>
		<rect x="634.292" y="73.064" opacity="0.8" enable-background="new    " width="14.811" height="14.811"/>
		<rect x="702.271" y="244.032" opacity="0.8" enable-background="new    " width="14.813" height="14.811"/>
		<rect x="479.263" y="178.261" opacity="0.8" enable-background="new    " width="14.811" height="14.813"/>
		<rect x="555.72" y="293.22" opacity="0.8" enable-background="new    " width="14.811" height="14.813"/>
		<rect x="437.886" y="352.917" opacity="0.8" enable-background="new    " width="14.813" height="14.812"/>
		<rect x="182.858" y="422.333" opacity="0.8" enable-background="new    " width="14.811" height="14.811"/>
		<rect x="240.404" y="237.595" opacity="0.8" enable-background="new    " width="14.811" height="14.813"/>
		<rect x="297.343" y="472.166" opacity="0.8" enable-background="new    " width="14.813" height="14.811"/>
	</g>
	<g id="toilet">
		<rect x="550.533" y="196.378" opacity="0.8" enable-background="new    " width="14.811" height="14.811"/>
		<rect x="371.214" y="255.93" opacity="0.8" enable-background="new    " width="14.813" height="14.811"/>
		<rect x="301.341" y="527.5" opacity="0.8" enable-background="new    " width="14.813" height="14.811"/>
	</g>
	<g id="fire-exit">
		<rect x="306.094" y="31.68" opacity="0.8" enable-background="new    " width="14.813" height="14.811"/>
		<rect x="194.844" y="153.213" opacity="0.8" enable-background="new    " width="14.811" height="14.811"/>
		<rect x="297.104" y="151.463" opacity="0.8" enable-background="new    " width="14.811" height="14.811"/>
		<rect x="318.972" y="130.802" opacity="0.8" enable-background="new    " width="14.813" height="14.813"/>
		<rect x="351.595" y="108.595" opacity="0.8" enable-background="new    " width="14.813" height="14.813"/>
		<rect x="461.072" y="50.189" opacity="0.8" enable-background="new    " width="14.811" height="14.811"/>
		<rect x="520.322" y="25.689" opacity="0.8" enable-background="new    " width="14.811" height="14.811"/>
		<rect x="596.353" y="69.814" opacity="0.8" enable-background="new    " width="14.811" height="14.811"/>
		<rect x="646.417" y="66.689" opacity="0.8" enable-background="new    " width="14.811" height="14.811"/>
		<rect x="775.261" y="57.595" opacity="0.8" enable-background="new    " width="14.813" height="14.813"/>
		<rect x="750.929" y="203.783" opacity="0.8" enable-background="new    " width="14.811" height="14.811"/>
		<rect x="692.939" y="233.783" opacity="0.8" enable-background="new    " width="14.811" height="14.811"/>
		<rect x="547.595" y="150.261" opacity="0.8" enable-background="new    " width="14.813" height="14.813"/>
		<rect x="463.638" y="185.667" opacity="0.8" enable-background="new    " width="14.811" height="14.811"/>
		<rect x="481.345" y="205.595" opacity="0.8" enable-background="new    " width="14.811" height="14.813"/>
		<rect x="550.22" y="358.484" opacity="0.8" enable-background="new    " width="14.811" height="14.811"/>
		<rect x="459.886" y="347.125" opacity="0.8" enable-background="new    " width="14.813" height="14.811"/>
		<rect x="353.007" y="413.096" opacity="0.8" enable-background="new    " width="14.813" height="14.813"/>
		<rect x="301.341" y="445.761" opacity="0.8" enable-background="new    " width="14.813" height="14.813"/>
		<rect x="291.008" y="356.455" opacity="0.8" enable-background="new    " width="14.813" height="14.813"/>
		<rect x="175.51" y="475.5" opacity="0.8" enable-background="new    " width="14.811" height="14.811"/>
		<rect x="184.948" y="395.833" opacity="0.8" enable-background="new    " width="14.811" height="14.812"/>
		<rect x="193.4" y="325.691" opacity="0.8" enable-background="new    " width="14.811" height="14.811"/>
		<rect x="201.849" y="299.544" opacity="0.8" enable-background="new    " width="14.811" height="14.812"/>
		<rect x="308.944" y="318.71" opacity="0.8" enable-background="new    " width="14.811" height="14.812"/>
		<rect x="337.611" y="260.544" opacity="0.8" enable-background="new    " width="14.811" height="14.811"/>
		<rect x="351.428" y="272.9" opacity="0.8" enable-background="new    " width="14.813" height="14.811"/>
		<rect x="390.989" y="210.43" opacity="0.8" enable-background="new    " width="14.811" height="14.811"/>
		<rect x="261.096" y="211.095" opacity="0.8" enable-background="new    " width="14.811" height="14.813"/>
		<rect x="336.928" y="527.5" opacity="0.8" enable-background="new    " width="14.813" height="14.811"/>
	</g>
</g>
</svg>
