<?xml version="1.0" encoding="utf-8"?>
<!-- Generator: Adobe Illustrator 16.0.3, SVG Export Plug-In . SVG Version: 6.00 Build 0)  -->
<!DOCTYPE svg PUBLIC "-//W3C//DTD SVG 1.1//EN" "http://www.w3.org/Graphics/SVG/1.1/DTD/svg11.dtd">
<svg version="1.1" xmlns="http://www.w3.org/2000/svg" xmlns:xlink="http://www.w3.org/1999/xlink" x="0px" y="0px"
	 width="841.89px" height="595.28px" viewBox="0 0 841.89 595.28" enable-background="new 0 0 841.89 595.28" xml:space="preserve">
<g id="Original" display="none">
	
		<image display="inline" overflow="visible" width="4400" height="3350" xlink:href="Floorplan/B1.jpg"  transform="matrix(0.1879 0 0 0.1882 11.3086 -27.1138)">
	</image>
</g>
<g id="Background">
	<rect fill="#FFFFFF" width="841.89" height="595.28"/>
</g>
<g id="ETC">
	<polygon fill="none" stroke="#ED1C24" stroke-width="0.5" stroke-miterlimit="10" points="152.951,169.383 118.864,169.383 
		118.864,123.163 44.302,123.163 44.302,258.765 51.263,258.765 51.263,259.32 152.951,259.32 	"/>
	
		<rect x="130.612" y="150.382" fill="none" stroke="#ED1C24" stroke-width="0.5" stroke-miterlimit="10" width="22.339" height="19.001"/>
	
		<rect x="87.087" y="182.49" fill="none" stroke="#ED1C24" stroke-width="0.5" stroke-miterlimit="10" width="8.667" height="8.666"/>
	
		<rect x="95.754" y="182.49" fill="none" stroke="#ED1C24" stroke-width="0.5" stroke-miterlimit="10" width="8.666" height="8.666"/>
	
		<rect x="104.42" y="182.49" fill="none" stroke="#ED1C24" stroke-width="0.5" stroke-miterlimit="10" width="8.667" height="8.666"/>
	
		<rect x="87.087" y="158.791" fill="none" stroke="#ED1C24" stroke-width="0.5" stroke-miterlimit="10" width="8.667" height="8.667"/>
	
		<rect x="95.754" y="158.791" fill="none" stroke="#ED1C24" stroke-width="0.5" stroke-miterlimit="10" width="8.666" height="8.667"/>
	
		<rect x="104.42" y="158.791" fill="none" stroke="#ED1C24" stroke-width="0.5" stroke-miterlimit="10" width="8.667" height="8.667"/>
	
		<rect x="87.087" y="191.242" fill="none" stroke="#ED1C24" stroke-width="0.5" stroke-miterlimit="10" width="8.667" height="8.666"/>
	
		<rect x="95.754" y="191.242" fill="none" stroke="#ED1C24" stroke-width="0.5" stroke-miterlimit="10" width="8.666" height="8.666"/>
	
		<rect x="104.42" y="191.242" fill="none" stroke="#ED1C24" stroke-width="0.5" stroke-miterlimit="10" width="8.667" height="8.666"/>
	
		<rect x="87.087" y="213.356" fill="none" stroke="#ED1C24" stroke-width="0.5" stroke-miterlimit="10" width="8.667" height="8.666"/>
	
		<rect x="95.754" y="213.356" fill="none" stroke="#ED1C24" stroke-width="0.5" stroke-miterlimit="10" width="8.666" height="8.666"/>
	
		<rect x="104.42" y="213.356" fill="none" stroke="#ED1C24" stroke-width="0.5" stroke-miterlimit="10" width="8.667" height="8.666"/>
	
		<rect x="78.743" y="123.163" fill="none" stroke="#ED1C24" stroke-width="0.5" stroke-miterlimit="10" width="40.122" height="27.219"/>
	
		<rect x="44.302" y="123.163" fill="none" stroke="#ED1C24" stroke-width="0.5" stroke-miterlimit="10" width="34.44" height="109.259"/>
	
		<rect x="44.302" y="232.422" fill="none" stroke="#ED1C24" stroke-width="0.5" stroke-miterlimit="10" width="74.883" height="26.897"/>
	
		<rect x="119.185" y="213.356" fill="none" stroke="#ED1C24" stroke-width="0.5" stroke-miterlimit="10" width="33.766" height="45.963"/>
	<path fill="none" stroke="#ED1C24" stroke-width="0.5" stroke-miterlimit="10" d="M808.558,443.116v-23.863h-9.545V311.189h-62.918
		v-83.132h13.867v-14.508l7.868-10.947c-32.575-23.593-45.807-56.135-50.388-70.95c-1.529-4.944-2.098-7.92-2.098-7.92H580.853
		V84.157H44.302v39.006h74.562v46.22h34.087v89.937H51.263v51.612h95.911v-27.347h29.081v27.347h95.136v147.327h155.04v-15.535
		h31.189v88.364l-1.061-0.071v7.159h285.479c5.675,7.785,14.859,12.848,25.229,12.848c10.371,0,19.556-5.063,25.229-12.848h5.919
		v-16.498c0.037-0.615,0.061-1.238,0.061-1.862c0-0.626-0.023-1.248-0.061-1.864v-74.835H808.558z"/>
	<polygon fill="none" stroke="#ED1C24" stroke-width="0.5" stroke-miterlimit="10" points="457.619,442.724 426.43,442.724 
		426.43,458.259 271.39,458.259 271.39,484.257 209.378,484.257 209.378,511.726 252.254,511.726 252.254,516.764 310.059,516.764 
		310.059,511.726 393.716,511.726 393.716,531.017 456.559,531.017 457.619,531.088 	"/>
	
		<rect x="732.153" y="190.595" transform="matrix(0.7383 0.6745 -0.6745 0.7383 325.7823 -443.1666)" fill="none" stroke="#ED1C24" stroke-width="0.5" stroke-miterlimit="10" width="3.67" height="15.296"/>
	
		<rect x="735.438" y="193.791" transform="matrix(0.7385 0.6743 -0.6743 0.7385 328.6185 -444.4332)" fill="none" stroke="#ED1C24" stroke-width="0.5" stroke-miterlimit="10" width="3.671" height="15.296"/>
	
		<rect x="518.476" y="84.157" fill="none" stroke="#ED1C24" stroke-width="0.5" stroke-miterlimit="10" width="62.444" height="119.314"/>
	
		<rect x="798.367" y="422.696" fill="none" stroke="#ED1C24" stroke-width="0.5" stroke-miterlimit="10" width="8.602" height="8.602"/>
	
		<rect x="798.367" y="431.298" fill="none" stroke="#ED1C24" stroke-width="0.5" stroke-miterlimit="10" width="8.602" height="8.601"/>
	
		<rect x="580.92" y="123.732" fill="none" stroke="#ED1C24" stroke-width="0.5" stroke-miterlimit="10" width="32.05" height="29.346"/>
	
		<rect x="612.97" y="123.732" fill="none" stroke="#ED1C24" stroke-width="0.5" stroke-miterlimit="10" width="92.375" height="79.739"/>
	<polygon fill="none" stroke="#ED1C24" stroke-width="0.5" stroke-miterlimit="10" points="712.985,209.954 712.985,193.264 
		747.65,164.89 769.989,185.689 749.962,213.549 749.962,228.057 732.5,228.057 	"/>
	<path fill="none" stroke="#ED1C24" stroke-width="0.5" stroke-miterlimit="10" d="M749.962,228.057h-13.867v83.132h62.918v-88.42
		c-3.753-1.128-7.358-2.373-10.825-3.717c-11.629-4.51-21.678-10.164-30.357-16.45l-7.868,10.947V228.057z"/>
	
		<rect x="596.033" y="223.571" transform="matrix(0.9695 0.2452 -0.2452 0.9695 76.5957 -139.3123)" fill="none" stroke="#ED1C24" stroke-width="0.5" stroke-miterlimit="10" width="3.671" height="28.865"/>
	
		<rect x="600.408" y="224.956" transform="matrix(0.9695 0.2452 -0.2452 0.9695 77.069 -140.3427)" fill="none" stroke="#ED1C24" stroke-width="0.5" stroke-miterlimit="10" width="3.671" height="28.865"/>
	
		<rect x="585.55" y="220.427" transform="matrix(0.9695 0.2452 -0.2452 0.9695 73.8417 -137.0452)" fill="none" stroke="#ED1C24" stroke-width="0.5" stroke-miterlimit="10" width="3.671" height="15.296"/>
	
		<rect x="589.957" y="221.689" transform="matrix(0.9695 0.245 -0.245 0.9695 74.2383 -138.0203)" fill="none" stroke="#ED1C24" stroke-width="0.5" stroke-miterlimit="10" width="3.67" height="15.296"/>
	
		<rect x="563.086" y="222.561" transform="matrix(-0.2352 0.972 -0.972 -0.2352 920.3173 -271.5578)" fill="none" stroke="#ED1C24" stroke-width="0.5" stroke-miterlimit="10" width="7.831" height="7.51"/>
	
		<rect x="561.244" y="230.174" transform="matrix(-0.2352 0.972 -0.972 -0.2352 925.433 -260.3702)" fill="none" stroke="#ED1C24" stroke-width="0.5" stroke-miterlimit="10" width="7.832" height="7.509"/>
	<polygon fill="none" stroke="#ED1C24" stroke-width="0.5" stroke-miterlimit="10" points="543.896,203.471 616.789,203.471 
		616.789,260.957 602.243,260.957 572.784,253.831 572.302,255.372 543.896,248.247 	"/>
	
		<rect x="494.787" y="282.526" fill="none" stroke="#ED1C24" stroke-width="0.5" stroke-miterlimit="10" width="11.651" height="57.679"/>
	
		<rect x="635.566" y="321.074" fill="none" stroke="#ED1C24" stroke-width="0.5" stroke-miterlimit="10" width="8.602" height="8.603"/>
	
		<rect x="633.513" y="310.804" fill="none" stroke="#ED1C24" stroke-width="0.5" stroke-miterlimit="10" width="10.655" height="10.271"/>
	
		<rect x="635.566" y="329.677" fill="none" stroke="#ED1C24" stroke-width="0.5" stroke-miterlimit="10" width="8.602" height="8.601"/>
	
		<rect x="612.359" y="310.804" fill="none" stroke="#ED1C24" stroke-width="0.5" stroke-miterlimit="10" width="21.153" height="13.802"/>
	<polygon fill="none" stroke="#ED1C24" stroke-width="0.5" stroke-miterlimit="10" points="612.359,324.605 612.359,310.804 
		586.939,310.804 586.939,335.873 633.513,335.873 633.513,324.605 	"/>
	
		<rect x="510.868" y="282.526" fill="none" stroke="#ED1C24" stroke-width="0.5" stroke-miterlimit="10" width="70.968" height="28.277"/>
	
		<rect x="417.626" y="334.044" fill="none" stroke="#ED1C24" stroke-width="0.5" stroke-miterlimit="10" width="8.858" height="8.472"/>
	
		<rect x="417.626" y="342.516" fill="none" stroke="#ED1C24" stroke-width="0.5" stroke-miterlimit="10" width="8.858" height="8.475"/>
	
		<rect x="417.626" y="350.99" fill="none" stroke="#ED1C24" stroke-width="0.5" stroke-miterlimit="10" width="8.858" height="8.474"/>
	
		<rect x="417.626" y="359.464" fill="none" stroke="#ED1C24" stroke-width="0.5" stroke-miterlimit="10" width="8.858" height="8.475"/>
	
		<rect x="410.146" y="334.044" fill="none" stroke="#ED1C24" stroke-width="0.5" stroke-miterlimit="10" width="16.338" height="33.895"/>
	
		<rect x="246.692" y="224.549" transform="matrix(0.9689 -0.2476 0.2476 0.9689 -51.4283 68.968)" fill="none" stroke="#ED1C24" stroke-width="0.5" stroke-miterlimit="10" width="3.67" height="28.865"/>
	
		<rect x="251.198" y="223.677" transform="matrix(0.9689 -0.2476 0.2476 0.9689 -51.0778 70.0665)" fill="none" stroke="#ED1C24" stroke-width="0.5" stroke-miterlimit="10" width="3.67" height="28.866"/>
	
		<rect x="258.622" y="221.578" transform="matrix(0.9689 -0.2476 0.2476 0.9689 -48.9583 71.667)" fill="none" stroke="#ED1C24" stroke-width="0.5" stroke-miterlimit="10" width="3.67" height="17.811"/>
	
		<rect x="263.102" y="220.605" transform="matrix(0.9689 -0.2476 0.2476 0.9689 -48.5781 72.746)" fill="none" stroke="#ED1C24" stroke-width="0.5" stroke-miterlimit="10" width="3.67" height="17.812"/>
	
		<rect x="279.598" y="222.475" transform="matrix(0.2468 0.9691 -0.9691 0.2468 432.7895 -104.3408)" fill="none" stroke="#ED1C24" stroke-width="0.5" stroke-miterlimit="10" width="7.832" height="7.511"/>
	
		<rect x="281.532" y="230.064" transform="matrix(0.2469 0.969 -0.969 0.2469 441.5495 -100.5216)" fill="none" stroke="#ED1C24" stroke-width="0.5" stroke-miterlimit="10" width="7.831" height="7.511"/>
	<path fill="none" stroke="#ED1C24" stroke-width="0.5" stroke-miterlimit="10" d="M768.937,134.628l-36.052,22.044
		c-5.906-6.804-12.967-29.272-12.967-29.272l-12.476,4.252c5.801,18.762,25.469,65.96,80.745,87.399l5.041-12.05l-14.637-6.548
		l20.209-36.698C786.47,156.838,776.151,146.765,768.937,134.628z"/>
	<path fill="none" stroke="#ED1C24" stroke-width="0.5" stroke-miterlimit="10" d="M838.065,13.248
		c-44.389,0-80.372,35.983-80.372,80.371c0,14.982,4.104,29.003,11.243,41.01c7.215,12.137,17.533,22.209,29.864,29.127
		c11.611,6.515,25.002,10.234,39.265,10.234c44.388,0,80.371-35.983,80.371-80.371S882.453,13.248,838.065,13.248z"/>
	<polygon fill="#939598" stroke="#FFFFFF" stroke-width="0.5" stroke-miterlimit="10" points="722.277,185.658 728.625,192.458 
		738.083,183.708 732.958,176.916 	"/>
	<path fill="#939598" stroke="#FFFFFF" stroke-width="0.5" stroke-miterlimit="10" d="M736.533,173.99
		c0.129-0.106,7.134,7.302,7.134,7.302l10.822-10.034l-6.839-6.368L736.533,173.99z"/>
	<polygon fill="#939598" stroke="#FFFFFF" stroke-width="0.5" stroke-miterlimit="10" points="769.989,185.689 763.143,179.314 
		753.688,191.346 761.607,197.35 	"/>
	<polygon fill="#939598" stroke="#FFFFFF" stroke-width="0.5" stroke-miterlimit="10" points="740.042,208.708 748.791,215.292 
		749.962,213.549 753.125,209.149 744.771,202.692 	"/>
	
		<rect x="565.75" y="204.188" fill="#939598" stroke="#FFFFFF" stroke-width="0.5" stroke-miterlimit="10" width="12.188" height="5.438"/>
	
		<rect x="592.551" y="203.938" fill="#939598" stroke="#FFFFFF" stroke-width="0.5" stroke-miterlimit="10" width="12.012" height="5.688"/>
	<path fill="#939598" stroke="#FFFFFF" stroke-width="0.5" stroke-miterlimit="10" d="M271.39,484.257V310.932h-95.136v-27.347
		h-29.081v27.347H51.263v119.291c-14.196,6.732-24.017,21.19-24.017,37.948c0,16.757,9.82,31.216,24.017,37.949v5.605h158.116
		v-27.469H271.39z"/>
</g>
<g id="Rooms">
	<polygon id="b1102" fill="#939598" stroke="#FFFFFF" stroke-width="0.5" stroke-miterlimit="10" points="250.592,122.2 
		489.588,122.2 489.588,154.169 395.606,154.169 395.606,135.874 334.172,135.874 334.172,154.169 250.592,154.169 	"/>
	<polygon id="b1101" fill="#939598" stroke="#FFFFFF" stroke-width="0.5" stroke-miterlimit="10" points="63.208,267.023 
		63.208,292.733 63.208,310.932 147.174,310.932 147.174,292.733 147.174,267.023 	"/>
	
		<rect id="b1105" x="673.698" y="468.787" fill="#939598" stroke="#FFFFFF" stroke-width="0.5" stroke-miterlimit="10" width="62.782" height="57.39"/>
	<polygon id="b1103_1_" fill="#939598" stroke="#FFFFFF" stroke-width="0.5" stroke-miterlimit="10" points="753.688,191.346 
		744.771,202.692 753.125,209.149 761.607,197.35 	"/>
</g>
<g id="Signs">
	<g id="toilet_4_">
		<rect id="toilet" x="499.033" y="303.96" opacity="0.8" width="14.811" height="14.811"/>
		<rect id="toilet_3_" x="66.933" y="367.938" opacity="0.8" width="14.811" height="14.811"/>
	</g>
	<g id="parking">
		<rect id="toilet_1_" x="374.595" y="229.796" opacity="0.8" width="14.811" height="14.811"/>
		<rect id="toilet_2_" x="588.04" y="407.886" opacity="0.8" width="14.811" height="14.811"/>
	</g>
	<g id="lift">
		<rect x="118.864" y="183.836" opacity="0.8" width="14.811" height="14.811"/>
		<rect x="266.97" y="226.414" opacity="0.8" width="14.811" height="14.811"/>
		<rect x="570.531" y="226.414" opacity="0.8" width="14.811" height="14.811"/>
		<rect x="646.366" y="317.971" opacity="0.8" width="14.811" height="14.811"/>
	</g>
	<g id="entrance">
		<rect x="651.752" y="551.023" opacity="0.8" width="14.811" height="14.811"/>
		<rect x="464.595" y="536.213" opacity="0.8" width="14.811" height="14.811"/>
		<rect x="496.058" y="88.224" opacity="0.8" width="14.811" height="14.811"/>
		<rect x="27.246" y="343.585" opacity="0.8" width="14.811" height="14.811"/>
	</g>
	<g id="escalator">
		<rect x="244.223" y="208.67" opacity="0.8" width="14.811" height="14.811"/>
		<rect x="155.723" y="282.83" opacity="0.8" width="14.811" height="14.811"/>
		<rect x="592.551" y="210.563" opacity="0.8" width="14.811" height="14.811"/>
		<rect x="737.365" y="180.927" opacity="0.8" width="14.811" height="14.811"/>
	</g>
</g>
</svg>
