<?xml version="1.0" encoding="utf-8"?>
<!-- Generator: Adobe Illustrator 16.0.0, SVG Export Plug-In . SVG Version: 6.00 Build 0)  -->
<!DOCTYPE svg PUBLIC "-//W3C//DTD SVG 1.1//EN" "http://www.w3.org/Graphics/SVG/1.1/DTD/svg11.dtd">
<svg version="1.1" id="Layer_1" xmlns="http://www.w3.org/2000/svg" xmlns:xlink="http://www.w3.org/1999/xlink" x="0px" y="0px"
	 width="841.89px" height="595.281px" viewBox="0 0 841.89 595.281" enable-background="new 0 0 841.89 595.281"
	 xml:space="preserve">
<g id="background">
	<rect y="0" fill="#FFFFFF" width="841.89" height="595.281"/>
</g>
<g id="etc">
	<path fill="#BFBFBF" stroke="#49494A" stroke-width="0.66" stroke-miterlimit="10" d="M808.558,443.117v-23.862h-9.545V222.769
		c-79.35-23.864-93.668-99.037-93.668-99.037H580.853v-3.843H44.302v138.875h6.96v171.458
		c-14.196,6.731-24.017,21.188-24.017,37.947c0,16.758,9.82,31.217,24.017,37.948v5.605h200.991v5.037h57.805v-5.037h83.657v19.291
		h62.843v7.158h285.479c5.676,7.785,14.859,12.85,25.229,12.85c10.371,0,19.559-5.064,25.23-12.85h5.918v-16.498
		c0.037-0.615,0.061-1.236,0.061-1.861s-0.02-1.248-0.061-1.863v-74.836h10.145V443.117L808.558,443.117z"/>
	<path fill="#BFBFBF" stroke="#49494A" stroke-width="0.66" stroke-miterlimit="10" d="M595.833,429.167v61.5h-137.5v-50.834
		c0,0,78.998,0,91.832,0s19.666,1.498,23.5-17.668s4.668-24,4.668-24l-0.168-73.332c0,0,16.168,1.666,26.834-20.334h5.834V178.25
		h-273v0.083h-7.167V193L292,199.667c0,0-7.5,1.667-5,12.667s6.75,26.604,7.25,29.229s-0.563,4.063-3.25,4.75
		c-2.687,0.687-3.375,1.063-3.375,1.063s2,12.75,4.375,15.813c2.375,3.063,13.75,11.625,19.188,14.938
		c5.438,3.313,7.188,3.688,10.688,3.688v37.186H332.5v-50.668c0,0,54.833-0.833,73.5,2.5c18.667,3.333,34.333,9.667,49.667,18.167
		C471,297.5,499,316.333,499,316.333v111.5l-4.332,4.168H427v99.018h29.559v7.158h145.775V435.833h34.834v-6.665L595.833,429.167
		L595.833,429.167z"/>
	<path fill="#BFBFBF" stroke="#49494A" stroke-width="0.66" stroke-miterlimit="10" d="M442.833,391.333v-5.165h-15.166v-76.167
		h-28.333v-13.668h-2.667v-26.636c-2.289-0.196-4.753-0.367-7.333-0.516v13.984H332.5v35.835v179.834h62.167l-0.951,12.893v19.291
		H427v-99.018h21v-40.666h-5.166V391.333z"/>
	<polygon fill="#BFBFBF" stroke="#49494A" stroke-width="0.66" stroke-miterlimit="10" points="508.167,241 545.333,246.5 
		555.5,206.167 514.333,197.667 	"/>
	<polygon fill="#BFBFBF" stroke="#49494A" stroke-width="0.66" stroke-miterlimit="10" points="610.833,252.75 596.167,252.75 
		590.167,258.917 585.083,258.917 585.083,251.75 582.167,251.75 592.001,214.917 610.833,219.833 	"/>
	<polygon fill="#BFBFBF" stroke="#49494A" stroke-width="0.66" stroke-miterlimit="10" points="557.083,241.083 576.583,245.833 
		582.833,221.083 563.251,216.083 	"/>
	<polygon fill="#BFBFBF" stroke="#49494A" stroke-width="0.66" stroke-miterlimit="10" points="610.833,123.732 580.853,123.732 
		580.853,119.889 348.833,119.889 348.833,151.833 337.833,151.833 337.833,178.25 610.833,178.25 	"/>
	<path fill="#BFBFBF" stroke="#49494A" stroke-width="0.66" stroke-miterlimit="10" d="M349.333,196.667c-0.167,0.5,0,43,0,43
		h147.833l6.168-43l-77.037-4.333L349.333,196.667z"/>
	<polygon fill="#BFBFBF" stroke="#49494A" stroke-width="0.66" stroke-miterlimit="10" points="294.5,206.667 334.167,199.333 
		341.333,239.667 306.167,246.5 	"/>
	
		<rect x="313.662" y="204.356" transform="matrix(0.9788 -0.2046 0.2046 0.9788 -39.5213 69.3278)" fill="#BFBFBF" stroke="#49494A" stroke-width="0.66" stroke-miterlimit="10" width="3.67" height="42.853"/>
	
		<rect x="318.991" y="203.173" transform="matrix(0.9789 -0.2043 0.2043 0.9789 -39.118 70.2798)" fill="#BFBFBF" stroke="#49494A" stroke-width="0.66" stroke-miterlimit="10" width="3.671" height="42.852"/>
	
		<rect x="600.187" y="221.167" fill="#BFBFBF" stroke="#49494A" stroke-width="0.66" stroke-miterlimit="10" width="3.875" height="34.833"/>
	
		<rect x="604.687" y="221.167" fill="#BFBFBF" stroke="#49494A" stroke-width="0.66" stroke-miterlimit="10" width="3.875" height="34.833"/>
	<polygon fill="#BFBFBF" stroke="#49494A" stroke-width="0.66" stroke-miterlimit="10" points="556.416,393.771 511.333,393.771 
		511.333,412.333 515.625,416.626 515.625,427.416 510.916,427.416 510.916,429.167 556.416,429.167 556.416,423.501 
		551.416,420.083 551.333,408.666 556.416,405.667 	"/>
	
		<rect x="533.666" y="409.666" fill="#BFBFBF" stroke="#49494A" stroke-width="0.66" stroke-miterlimit="10" width="22.75" height="5.5"/>
	
		<rect x="510.916" y="420.083" fill="#BFBFBF" stroke="#49494A" stroke-width="0.66" stroke-miterlimit="10" width="23.668" height="5.25"/>
	<path fill="#BFBFBF" stroke="#49494A" stroke-width="0.66" stroke-miterlimit="10" d="M458.333,439.833v50.834H520v-50.834
		C492.884,439.833,458.333,439.833,458.333,439.833z"/>
	<path fill="#BFBFBF" stroke="#49494A" stroke-width="0.66" stroke-miterlimit="10" d="M550.166,439.833c-4.346,0-16.281,0-30.166,0
		v50.834h30.5v-50.834C550.388,439.833,550.279,439.833,550.166,439.833z"/>
	<path fill="#BFBFBF" stroke="#49494A" stroke-width="0.66" stroke-miterlimit="10" d="M550.5,439.833v50.834h45.334v-61.5
		l-23.723-0.834C568.103,440.855,561.552,439.855,550.5,439.833z"/>
	<path fill="#BFBFBF" stroke="#49494A" stroke-width="0.66" stroke-miterlimit="10" d="M505.421,271.604
		c-2.322,3.868-3.66,8.393-3.66,13.231c0,14.222,11.529,25.751,25.75,25.751c11.602,0,21.406-7.673,24.627-18.219L505.421,271.604z"
		/>
	<path fill="#BFBFBF" stroke="#49494A" stroke-width="0.66" stroke-miterlimit="10" d="M527.511,259.086
		c-9.383,0-17.59,5.02-22.09,12.518l23.371,10.388l9.289-20.634C534.855,259.903,531.279,259.086,527.511,259.086z"/>
	<polygon fill="#BFBFBF" stroke="#49494A" stroke-width="0.66" stroke-miterlimit="10" points="380.083,239.667 380.083,254.187 
		395.417,256.239 395.417,239.667 	"/>
	<polygon fill="#BFBFBF" stroke="#49494A" stroke-width="0.66" stroke-miterlimit="10" points="395.417,239.667 395.417,256.239 
		395.5,256.25 410.917,257.512 410.917,239.667 	"/>
	<polygon fill="#BFBFBF" stroke="#49494A" stroke-width="0.66" stroke-miterlimit="10" points="410.917,239.667 410.917,257.512 
		426.296,258.771 426.296,239.667 	"/>
	<polygon fill="#BFBFBF" stroke="#49494A" stroke-width="0.66" stroke-miterlimit="10" points="362,239.667 362,250.375 
		379.625,254.125 380.083,254.187 380.083,239.667 	"/>
	<path fill="#BFBFBF" stroke="#49494A" stroke-width="0.66" stroke-miterlimit="10" d="M475.833,239.667v20.009l0.541-0.051
		c0,0,10.625-3,14.75-4.875s6.043-15.083,6.043-15.083H475.833z"/>
	<polygon fill="#BFBFBF" stroke="#49494A" stroke-width="0.66" stroke-miterlimit="10" points="457.333,239.667 457.333,261.313 
		457.875,261.357 475.833,259.676 475.833,239.667 	"/>
	<polygon fill="#BFBFBF" stroke="#49494A" stroke-width="0.66" stroke-miterlimit="10" points="426.296,239.667 426.296,258.771 
		441.667,260.03 441.667,239.667 	"/>
	<polygon fill="#BFBFBF" stroke="#49494A" stroke-width="0.66" stroke-miterlimit="10" points="441.667,239.667 441.667,260.03 
		457.333,261.313 457.333,239.667 	"/>
	
		<rect x="534.083" y="358.376" fill="#BFBFBF" stroke="#49494A" stroke-width="0.66" stroke-miterlimit="10" width="22.332" height="35.396"/>
	
		<rect x="511.333" y="358.376" fill="#BFBFBF" stroke="#49494A" stroke-width="0.66" stroke-miterlimit="10" width="22.75" height="35.396"/>
	<path fill="#BFBFBF" stroke="#49494A" stroke-width="0.66" stroke-miterlimit="10" d="M406,270.833
		c-2.523-0.451-5.712-0.825-9.333-1.135v26.636h2.667v13.667h28.333l15.441-27.395C431.646,277.302,419.623,273.266,406,270.833z"/>
	<polygon fill="#BFBFBF" stroke="#49494A" stroke-width="0.66" stroke-miterlimit="10" points="473,405.667 499,405.667 
		499,364.333 427.667,364.333 427.667,386.167 442.833,386.167 442.833,391.333 448,391.333 473,391.333 	"/>
	<path fill="#BFBFBF" stroke="#49494A" stroke-width="0.66" stroke-miterlimit="10" d="M332.5,268.333v14.834h32.667v-14.791
		C347.908,268.1,332.5,268.333,332.5,268.333z"/>
	<path fill="#BFBFBF" stroke="#49494A" stroke-width="0.66" stroke-miterlimit="10" d="M332.5,498.833V319.001h-10.625v-37.188
		c-3.5,0-5.25-0.375-10.688-3.688c-5.438-3.313-16.812-11.874-19.188-14.936c-2.376-3.063-4.375-15.813-4.375-15.813
		s0.688-0.375,3.375-1.063c2.687-0.688,3.75-2.125,3.25-4.75s-4.75-18.229-7.25-29.229s5-12.667,5-12.667L330.667,193v-14.667h7.167
		v-26.5h11v-31.943H44.302v138.875h6.96v171.458c-14.196,6.731-24.017,21.188-24.017,37.947c0,16.758,9.82,31.217,24.017,37.948
		v5.605h200.991v5.037h57.805v-5.037h83.657l0.951-12.894H332.5V498.833z"/>
	<polygon fill="#BFBFBF" stroke="#49494A" stroke-width="0.66" stroke-miterlimit="10" points="473,405.667 473,391.333 
		448,391.333 448,432.001 494.667,432.001 499,427.833 499,405.667 	"/>
	<path fill="#BFBFBF" stroke="#49494A" stroke-width="0.66" stroke-miterlimit="10" d="M553.261,284.836
		c0-10.453-6.23-19.443-15.18-23.479l-9.289,20.634l23.346,10.376C552.867,289.984,553.261,287.457,553.261,284.836z"/>
</g>
<g id="rooms">
	<path id="major-cineplex" fill="#929497" stroke="#49494A" stroke-width="0.5" stroke-miterlimit="10" d="M808.558,443.117v-23.862
		h-9.545V222.769c-79.35-23.864-93.668-99.037-93.668-99.037h-94.512v180.769H605c-10.666,22-26.834,20.334-26.834,20.334
		l0.018,7.665h47.65v13.501h11.334v83.168v6.666h-34.834v102.342h139.703c5.676,7.785,14.859,12.85,25.229,12.85
		c10.371,0,19.559-5.064,25.23-12.85h5.918v-16.498c0.037-0.615,0.061-1.236,0.061-1.861s-0.02-1.248-0.061-1.863v-74.836
		L808.558,443.117L808.558,443.117z"/>
	<path id="r607" fill="#929497" stroke="#49494A" stroke-width="0.5" stroke-miterlimit="10" d="M637.167,384.251h-58.865
		l0.031,13.916c0,0-0.834,4.834-4.668,24c-0.471,2.354-0.988,4.395-1.555,6.168l23.723,0.834h41.334V384.251z"/>
	<polygon id="r606" fill="#929497" stroke="#49494A" stroke-width="0.5" stroke-miterlimit="10" points="637.167,346.001 
		625.833,346.001 625.833,332.501 578.183,332.501 578.302,384.251 637.167,384.251 	"/>
	<path id="r614" fill="#929497" stroke="#49494A" stroke-width="0.5" stroke-miterlimit="10" d="M499,316.333
		c0,0-28-18.833-43.332-27.333c-4.145-2.297-8.314-4.429-12.559-6.393l-15.441,27.394v28.563L499,337.458V316.333z"/>
	<polygon id="r613" fill="#929497" stroke="#49494A" stroke-width="0.5" stroke-miterlimit="10" points="499,337.458 
		427.667,338.563 427.667,364.333 499,364.333 	"/>
	<path id="r616" fill="#929497" stroke="#49494A" stroke-width="0.5" stroke-miterlimit="10" d="M389.333,269.182
		c-7.527-0.434-16.05-0.677-24.167-0.807v14.791h24.167V269.182z"/>
</g>
<g id="signs">
	<g id="escalator">
		<rect x="592.783" y="254.187" opacity="0.8" fill="#231F20" enable-background="new    " width="14.811" height="14.811"/>
		<rect x="317.917" y="246.781" opacity="0.8" fill="#231F20" enable-background="new    " width="14.812" height="14.811"/>
	</g>
	
		<rect id="toilet" x="438.417" y="439.833" opacity="0.8" fill="#231F20" enable-background="new    " width="14.811" height="14.812"/>
</g>
</svg>
