<?xml version="1.0" encoding="utf-8"?>
<!-- Generator: Adobe Illustrator 16.0.0, SVG Export Plug-In . SVG Version: 6.00 Build 0)  -->
<!DOCTYPE svg PUBLIC "-//W3C//DTD SVG 1.1//EN" "http://www.w3.org/Graphics/SVG/1.1/DTD/svg11.dtd">
<svg version="1.1" id="Layer_1" xmlns="http://www.w3.org/2000/svg" xmlns:xlink="http://www.w3.org/1999/xlink" x="0px" y="0px"
	 width="841.89px" height="595.281px" viewBox="0 0 841.89 595.281" enable-background="new 0 0 841.89 595.281"
	 xml:space="preserve">
<g id="background">
	<rect fill="#FFFFFF" width="841.89" height="595.281"/>
</g>
<g id="etc">
	<path fill="#BFBFBF" stroke="#494949" stroke-width="0.66" stroke-miterlimit="10" d="M808.558,443.117v-23.863h-9.545V222.769
		c-79.35-23.864-93.668-99.037-93.668-99.037H580.853v-3.843H44.302v138.875h6.96v171.458
		c-14.196,6.732-24.017,21.189-24.017,37.947s9.82,31.217,24.017,37.949v5.605h200.991v5.037h57.805v-5.037h83.657v19.291h62.843
		v7.158h285.479c5.676,7.785,14.859,12.85,25.229,12.85c10.371,0,19.557-5.064,25.23-12.85h5.918v-16.498
		c0.037-0.615,0.061-1.236,0.061-1.861s-0.021-1.248-0.061-1.863v-74.836h10.145V443.117z"/>
	<path fill="#BFBFBF" stroke="#494949" stroke-width="0.66" stroke-miterlimit="10" d="M51.263,311.583v118.639
		c-14.196,6.732-24.017,21.191-24.017,37.949c0,16.756,9.82,31.215,24.017,37.949v5.604h200.991v5.039h57.805v-5.039h83.657v19.291
		h32.77V311.583H51.263z"/>
	
		<rect x="279.909" y="222.796" transform="matrix(-0.2468 -0.9691 0.9691 -0.2468 134.3354 557.5125)" fill="#BFBFBF" stroke="#494949" stroke-width="0.66" stroke-miterlimit="10" width="7.832" height="7.511"/>
	
		<rect x="281.844" y="230.357" transform="matrix(-0.2469 -0.969 0.969 -0.2469 129.4565 568.8304)" fill="#BFBFBF" stroke="#494949" stroke-width="0.66" stroke-miterlimit="10" width="7.831" height="7.511"/>
	
		<rect x="529.822" y="221.75" transform="matrix(-0.9777 -0.2102 0.2102 -0.9777 1002.816 569.1035)" fill="#BFBFBF" stroke="#494949" stroke-width="0.66" stroke-miterlimit="10" width="3.672" height="18.998"/>
	
		<rect x="534.264" y="222.897" transform="matrix(-0.9775 -0.2107 0.2107 -0.9775 1011.1878 572.5427)" fill="#BFBFBF" stroke="#494949" stroke-width="0.66" stroke-miterlimit="10" width="3.67" height="18.997"/>
	
		<rect x="533.618" y="202.096" transform="matrix(-0.9776 -0.2103 0.2103 -0.9776 1014.4172 531.0862)" fill="#BFBFBF" stroke="#494949" stroke-width="0.66" stroke-miterlimit="10" width="3.67" height="18.998"/>
	
		<rect x="538.06" y="203.243" transform="matrix(-0.9775 -0.2108 0.2108 -0.9775 1022.798 534.5294)" fill="#BFBFBF" stroke="#494949" stroke-width="0.66" stroke-miterlimit="10" width="3.668" height="18.996"/>
	
		<rect x="656.171" y="241.451" transform="matrix(0.9119 0.4105 -0.4105 0.9119 164.8072 -247.1471)" fill="#BFBFBF" stroke="#494949" stroke-width="0.66" stroke-miterlimit="10" width="3.671" height="37.619"/>
	
		<rect x="661.628" y="240.518" transform="matrix(0.9119 0.4105 -0.4105 0.9119 165.4505 -249.3521)" fill="#BFBFBF" stroke="#494949" stroke-width="0.66" stroke-miterlimit="10" width="3.671" height="40.277"/>
	
		<rect x="187.146" y="241.061" transform="matrix(-0.9086 0.4177 -0.4177 -0.9086 469.5021 418.2468)" fill="#BFBFBF" stroke="#494949" stroke-width="0.66" stroke-miterlimit="10" width="3.672" height="38.882"/>
	
		<rect x="191.455" y="239.492" transform="matrix(-0.9086 0.4177 -0.4177 -0.9086 477.0652 413.4587)" fill="#BFBFBF" stroke="#494949" stroke-width="0.66" stroke-miterlimit="10" width="3.669" height="38.882"/>
	
		<rect x="383.474" y="222.642" transform="matrix(-1 0.0068 -0.0068 -1 772.1839 461.6148)" fill="#BFBFBF" stroke="#494949" stroke-width="0.66" stroke-miterlimit="10" width="3.671" height="18.951"/>
	
		<rect x="388.049" y="222.803" transform="matrix(-1 0.0068 -0.0068 -1 781.3341 461.9051)" fill="#BFBFBF" stroke="#494949" stroke-width="0.66" stroke-miterlimit="10" width="3.669" height="18.95"/>
	
		<rect x="383.081" y="202.58" transform="matrix(-1 0.0068 -0.0068 -1 771.2627 421.4948)" fill="#BFBFBF" stroke="#494949" stroke-width="0.66" stroke-miterlimit="10" width="3.671" height="18.951"/>
	
		<rect x="387.658" y="202.741" transform="matrix(-1 0.0068 -0.0068 -1 780.4167 421.7832)" fill="#BFBFBF" stroke="#494949" stroke-width="0.66" stroke-miterlimit="10" width="3.669" height="18.95"/>
	<path fill="#BFBFBF" stroke="#494949" stroke-width="0.66" stroke-miterlimit="10" d="M332.75,200.167l-11.917,2.098v3.902
		l-12.917,2.417L306.083,205l-4,0.667l-31.417,7.34l-4.248,1.174c0.593,1.856,1.499,4.652,1.499,4.652l9.167,1.125l6.43,24.708
		l-7.68,6l1.118,3.664l36.464-10.081l0.25-5.709l12.667-2.458l2.333,5.217l3.75-0.55l10.56,0.057l-5.543-41.243L332.75,200.167z"/>
	<path fill="#BFBFBF" stroke="#494949" stroke-width="0.66" stroke-miterlimit="10" d="M240.938,242.5
		c-2.813-9.313,6-11.125,6-11.125l-3.29-10.897l-3.73,1.031l-31.25,10.991l-16.333,6.583v2.69l-14.667,6.06v29.25h14.083
		l12.083-4.833l5.083,4.833l31-11.5l16.143-4.991l-3.747-11.655C252.313,248.938,243.75,251.813,240.938,242.5z"/>
	<polygon fill="#BFBFBF" stroke="#494949" stroke-width="0.66" stroke-miterlimit="10" points="659.75,242.087 659.75,239.167 
		643.5,232.917 612.583,221.627 608.421,220.475 605.583,230.265 612,242.667 599.251,249.667 595.96,260.568 612.416,265.583 
		643.416,277.083 648.308,271.761 660.25,277.083 674.166,277.083 674.166,248.333 	"/>
	<polygon fill="#BFBFBF" stroke="#494949" stroke-width="0.66" stroke-miterlimit="10" points="567.583,243.083 572.333,222 
		583.751,219.417 585.566,214.148 581.417,213 550.417,205.833 546.25,204.917 544.167,208.5 531.775,206.083 531.167,202.167 
		519.166,200.25 514.916,199.679 508.73,241.107 522.916,241.083 525.583,235.917 538.25,238.618 538.666,244.333 574.888,254.328 
		575.751,250.583 	"/>
	<path fill="#BFBFBF" stroke="#494949" stroke-width="0.66" stroke-miterlimit="10" d="M488.166,196.083L457.083,194l-31.209-0.833
		l-30.708,0.75L394.75,206l-14.25,2.25l-4.167-13.083l-12.5,1l-14.228,1.831c0.886,7.258,4.883,34.019,6.213,42.879L378.75,241
		l1.583-7.5H394.5l0.333,7.8l7.341-0.012c0.164-13.073,10.808-23.622,23.919-23.622c13.084,0,23.709,10.505,23.916,23.541
		l46.281-0.079l6.453-43.085L488.166,196.083z"/>
	
		<rect x="417.626" y="334.044" fill="#BFBFBF" stroke="#494949" stroke-width="0.66" stroke-miterlimit="10" width="8.858" height="8.472"/>
	
		<rect x="417.626" y="342.516" fill="#BFBFBF" stroke="#494949" stroke-width="0.66" stroke-miterlimit="10" width="8.858" height="8.476"/>
	
		<rect x="417.626" y="350.99" fill="#BFBFBF" stroke="#494949" stroke-width="0.66" stroke-miterlimit="10" width="8.858" height="8.475"/>
	
		<rect x="417.626" y="359.464" fill="#BFBFBF" stroke="#494949" stroke-width="0.66" stroke-miterlimit="10" width="8.858" height="8.475"/>
	
		<rect x="798.671" y="423.001" fill="#BFBFBF" stroke="#494949" stroke-width="0.66" stroke-miterlimit="10" width="8.604" height="8.602"/>
	
		<rect x="798.671" y="431.603" fill="#BFBFBF" stroke="#494949" stroke-width="0.66" stroke-miterlimit="10" width="8.604" height="8.602"/>
	
		<rect x="169.876" y="402.271" transform="matrix(-0.0045 1 -1 -0.0045 585.0477 242.7201)" fill="#BFBFBF" stroke="#494949" stroke-width="0.66" stroke-miterlimit="10" width="3.671" height="20.586"/>
	
		<rect x="149.579" y="402.576" transform="matrix(-0.0045 1 -1 -0.0045 564.9642 263.3233)" fill="#BFBFBF" stroke="#494949" stroke-width="0.66" stroke-miterlimit="10" width="3.671" height="20.586"/>
	
		<rect x="274.041" y="402.269" transform="matrix(-0.0045 1 -1 -0.0045 689.6829 138.5542)" fill="#BFBFBF" stroke="#494949" stroke-width="0.66" stroke-miterlimit="10" width="3.671" height="20.586"/>
	
		<rect x="295.124" y="402.269" transform="matrix(-0.0045 1 -1 -0.0045 710.8606 117.4719)" fill="#BFBFBF" stroke="#494949" stroke-width="0.66" stroke-miterlimit="10" width="3.67" height="20.586"/>
	
		<rect x="273.332" y="385.949" transform="matrix(-0.0045 1 -1 -0.0045 672.6503 122.8676)" fill="#BFBFBF" stroke="#494949" stroke-width="0.66" stroke-miterlimit="10" width="3.672" height="20.586"/>
	
		<rect x="294.644" y="386.373" transform="matrix(-0.0045 1 -1 -0.0045 694.4823 101.9845)" fill="#BFBFBF" stroke="#494949" stroke-width="0.66" stroke-miterlimit="10" width="3.671" height="20.586"/>
	
		<rect x="150.176" y="386.362" transform="matrix(-0.0048 1 -1 -0.0048 549.7349 246.8943)" fill="#BFBFBF" stroke="#494949" stroke-width="0.66" stroke-miterlimit="10" width="3.668" height="21.277"/>
	
		<rect x="171.47" y="386.361" transform="matrix(-0.0048 1 -1 -0.0048 571.1305 225.5986)" fill="#BFBFBF" stroke="#494949" stroke-width="0.66" stroke-miterlimit="10" width="3.67" height="21.277"/>
	
		<rect x="635.566" y="321.074" fill="#BFBFBF" stroke="#494949" stroke-width="0.66" stroke-miterlimit="10" width="8.602" height="8.604"/>
	
		<rect x="633.513" y="310.804" fill="#BFBFBF" stroke="#494949" stroke-width="0.66" stroke-miterlimit="10" width="10.654" height="10.271"/>
	
		<rect x="635.566" y="329.677" fill="#BFBFBF" stroke="#494949" stroke-width="0.66" stroke-miterlimit="10" width="8.602" height="8.601"/>
	
		<rect x="563.368" y="222.887" transform="matrix(0.2352 -0.972 0.972 0.2352 213.5844 724.714)" fill="#BFBFBF" stroke="#494949" stroke-width="0.66" stroke-miterlimit="10" width="7.831" height="7.511"/>
	
		<rect x="561.517" y="230.495" transform="matrix(0.2352 -0.972 0.972 0.2352 204.7834 728.738)" fill="#BFBFBF" stroke="#494949" stroke-width="0.66" stroke-miterlimit="10" width="7.832" height="7.509"/>
	<polygon fill="#BFBFBF" stroke="#494949" stroke-width="0.66" stroke-miterlimit="10" points="80.75,238.75 113,238.75 
		113,214.125 154.75,214.125 154.75,151.5 178.625,151.5 178.625,119.889 44.302,119.889 44.302,229.625 80.75,229.625 	"/>
	<polygon fill="#BFBFBF" stroke="#494949" stroke-width="0.66" stroke-miterlimit="10" points="80.75,229.625 68.167,229.625 
		68.167,250.22 80.75,250.22 80.75,238.75 	"/>
	
		<rect x="674.166" y="248.333" fill="#BFBFBF" stroke="#494949" stroke-width="0.66" stroke-miterlimit="10" width="6.502" height="28.75"/>
</g>
<g id="rooms">
	
		<rect id="r320-2" x="704.375" y="265.625" fill="#959595" stroke="#494949" stroke-width="0.5" stroke-miterlimit="10" width="94.639" height="12.271"/>
	<polygon id="r322" fill="#959595" stroke="#494949" stroke-width="0.5" stroke-miterlimit="10" points="704.5,299.25 
		673.75,299.25 673.667,311.583 673.667,324.833 737.25,324.833 737.25,311.583 737.5,299.25 	"/>
	<polygon id="_x33_21" fill="#959595" stroke="#494949" stroke-width="0.5" stroke-miterlimit="10" points="799.013,284.375 
		704.5,284.375 704.5,299.25 737.5,299.25 737.25,311.583 799.013,311.583 	"/>
	<path id="r318" fill="#959595" stroke="#494949" stroke-width="0.5" stroke-miterlimit="10" d="M732.32,178.289
		c-8.641-10.751-14.68-21.582-18.812-30.728L705,151.5h-31.902v67.268h18.152V232.5h13.25V200L732.32,178.289z"/>
	<path id="r309" fill="#959595" stroke="#494949" stroke-width="0.5" stroke-miterlimit="10" d="M365.125,119.889v62.697
		c9.536-0.986,19.439-1.797,29.625-2.365v-60.332H365.125z"/>
	<path id="r310" fill="#959595" stroke="#494949" stroke-width="0.5" stroke-miterlimit="10" d="M394.75,119.889v60.332
		c10.129-0.564,20.533-0.887,31.125-0.899v-59.433H394.75L394.75,119.889z"/>
	<path id="r306-3" fill="#959595" stroke="#494949" stroke-width="0.5" stroke-miterlimit="10" d="M287.75,119.889v75.228
		c4.682-1.035,9.732-2.099,15.125-3.164v-72.064H287.75z"/>
	<path id="r306-1-306-2" fill="#959595" stroke="#494949" stroke-width="0.5" stroke-miterlimit="10" d="M271.5,119.889V151.5
		v47.432c4.728-1.178,10.172-2.471,16.25-3.815v-75.228H271.5L271.5,119.889z"/>
	<path id="r305" fill="#959595" stroke="#494949" stroke-width="0.5" stroke-miterlimit="10" d="M250.5,151.5v53.167
		c0,0,7.644-2.406,21-5.734V151.5H250.5z"/>
	<path id="r307" fill="#959595" stroke="#494949" stroke-width="0.5" stroke-miterlimit="10" d="M302.875,119.889v72.064
		c9.347-1.845,19.709-3.687,30.875-5.374v-66.691L302.875,119.889L302.875,119.889z"/>
	<path id="r312" fill="#959595" stroke="#494949" stroke-width="0.5" stroke-miterlimit="10" d="M456.5,119.889v60.297
		c10.518,0.59,20.852,1.455,30.875,2.52v-62.817H456.5L456.5,119.889z"/>
	<polygon id="r317-1" fill="#959595" stroke="#494949" stroke-width="0.5" stroke-miterlimit="10" points="612,152 612,157 612,207 
		627.75,207 627.75,152 	"/>
	
		<rect id="r317-2" x="627.75" y="152" fill="#959595" stroke="#494949" stroke-width="0.5" stroke-miterlimit="10" width="16.125" height="55"/>
	
		<rect id="r317-3" x="643.875" y="152" fill="#959595" stroke="#494949" stroke-width="0.5" stroke-miterlimit="10" width="20.793" height="55"/>
	<path id="r314-315" fill="#959595" stroke="#494949" stroke-width="0.5" stroke-miterlimit="10" d="M580.667,119.889h-62.043
		v66.861c24.514,3.722,45.947,8.237,62.043,12.059V157V119.889z"/>
	<path id="r313" fill="#959595" stroke="#494949" stroke-width="0.5" stroke-miterlimit="10" d="M487.375,119.889v62.817
		c10.826,1.15,21.291,2.532,31.25,4.044v-66.861H487.375z"/>
	<path id="r311-1-311-2" fill="#959595" stroke="#494949" stroke-width="0.5" stroke-miterlimit="10" d="M441,119.889h-15.125
		v59.433c0.203,0,0.406-0.002,0.609-0.002c4.857,0,9.699,0.075,14.516,0.211c5.203,0.146,10.373,0.368,15.5,0.656V119.89
		L441,119.889L441,119.889z"/>
	<path id="r316" fill="#959595" stroke="#494949" stroke-width="0.5" stroke-miterlimit="10" d="M580.667,157v41.81
		c19.357,4.597,31,8.19,31,8.19H612v-50H580.667z"/>
	<path id="r328-2" fill="#959595" stroke="#494949" stroke-width="0.5" stroke-miterlimit="10" d="M426,270.455v41.128h0.484v1.334
		h15.578v-48.229C437.644,268.219,432.074,270.36,426,270.455z"/>
	
		<rect id="r331-1" x="331.875" y="258.5" fill="#959595" stroke="#494949" stroke-width="0.5" stroke-miterlimit="10" width="15.75" height="53.083"/>
	
		<rect id="r331-2" x="347.625" y="258.5" fill="#959595" stroke="#494949" stroke-width="0.5" stroke-miterlimit="10" width="15.5" height="53.083"/>
	
		<rect id="r330-1" x="378.75" y="258.5" fill="#959595" stroke="#494949" stroke-width="0.5" stroke-miterlimit="10" width="15.75" height="53.083"/>
	<path id="r329" fill="#959595" stroke="#494949" stroke-width="0.5" stroke-miterlimit="10" d="M425.582,270.468
		c-9.257,0-17.399-4.763-22.122-11.968h-8.96v53.083H426v-41.128C425.861,270.457,425.722,270.468,425.582,270.468z"/>
	
		<rect id="r330-2" x="363.125" y="258.5" fill="#959595" stroke="#494949" stroke-width="0.5" stroke-miterlimit="10" width="15.625" height="53.083"/>
	<path id="r334" fill="#959595" stroke="#494949" stroke-width="0.5" stroke-miterlimit="10" d="M254.5,274.333
		c0,0.508,0,25.439,0,37.25h15.333v-37.25C269.833,274.333,254.5,273.667,254.5,274.333z"/>
	<polygon id="r332-1" fill="#959595" stroke="#494949" stroke-width="0.5" stroke-miterlimit="10" points="316.833,258.5 
		316.833,262.167 316.833,311.583 331.875,311.583 331.875,258.5 	"/>
	<polygon id="r333" fill="#959595" stroke="#494949" stroke-width="0.5" stroke-miterlimit="10" points="269.833,270 
		269.833,274.333 269.833,311.583 301.166,311.583 301.166,270 	"/>
	<polygon id="r332-2" fill="#959595" stroke="#494949" stroke-width="0.5" stroke-miterlimit="10" points="301.166,262.167 
		301.166,270 301.166,311.583 316.833,311.583 316.833,262.167 	"/>
	<path id="r328-1" fill="#959595" stroke="#494949" stroke-width="0.5" stroke-miterlimit="10" d="M447.705,258.5
		c-1.541,2.352-3.453,4.437-5.643,6.188v48.229h15.521l0.395-54.417H447.705z"/>
	<polygon id="r324-1-324-2" fill="#959595" stroke="#494949" stroke-width="0.5" stroke-miterlimit="10" points="566.75,270.5 
		551.167,270.5 551.167,311.583 566.75,311.583 581.25,311.583 582.333,274.667 582.333,270.5 	"/>
	
		<rect id="r323-2" x="596.5" y="285.667" fill="#959595" stroke="#494949" stroke-width="0.5" stroke-miterlimit="10" width="16.875" height="39.5"/>
	<polygon id="r323-1" fill="#959595" stroke="#494949" stroke-width="0.5" stroke-miterlimit="10" points="627,299.167 627,285.667 
		613.375,285.667 613.375,325.167 633.666,325.167 633.666,311.583 644.167,311.583 644.167,299.167 	"/>
	<polygon id="r323-3" fill="#959595" stroke="#494949" stroke-width="0.5" stroke-miterlimit="10" points="596.5,274.667 
		582.333,274.667 581.25,311.583 581.25,325.167 596.5,325.167 596.5,285.667 	"/>
	<polygon id="r326" fill="#959595" stroke="#494949" stroke-width="0.5" stroke-miterlimit="10" points="520.167,258.5 
		488.75,258.5 488.75,325.167 518.917,325.167 518.917,311.583 520.167,262.167 	"/>
	<polygon id="r327-1-327-2" fill="#959595" stroke="#494949" stroke-width="0.5" stroke-miterlimit="10" points="457.978,258.5 
		457.583,312.917 457.583,325.167 488.75,325.167 488.75,258.5 	"/>
	<polygon id="r325-2" fill="#959595" stroke="#494949" stroke-width="0.5" stroke-miterlimit="10" points="520.167,262.167 
		518.917,311.583 535.962,311.583 535.962,262.167 	"/>
	<polygon id="r325-1" fill="#959595" stroke="#494949" stroke-width="0.5" stroke-miterlimit="10" points="551.167,262.167 
		535.962,262.167 535.962,311.583 551.167,311.583 551.167,270.5 	"/>
	<path id="r340-341-1" fill="#959595" stroke="#494949" stroke-width="0.5" stroke-miterlimit="10" d="M51.263,311.583h23.821V296
		h-6.917v-23.583c-5.522,0-11.754,0-16.904,0V311.583z"/>
	
		<rect id="r337" x="121.5" y="296" fill="#959595" stroke="#494949" stroke-width="0.5" stroke-miterlimit="10" width="24.917" height="15.583"/>
	<path id="r338" fill="#959595" stroke="#494949" stroke-width="0.5" stroke-miterlimit="10" d="M121.5,311.583V296H95.833
		c0,4.184,0,11.487,0,15.583H121.5z"/>
	<path id="r335" fill="#959595" stroke="#494949" stroke-width="0.5" stroke-miterlimit="10" d="M170.18,311.583h22.803V298.5
		h-22.748C170.259,302.089,170.206,308.694,170.18,311.583z"/>
	<path id="r336" fill="#959595" stroke="#494949" stroke-width="0.5" stroke-miterlimit="10" d="M170.18,311.583
		c0.026-2.89,0.079-9.494,0.055-13.084h-6.567V296h-17.25v15.583H170.18z"/>
	<path id="r339" fill="#959595" stroke="#494949" stroke-width="0.5" stroke-miterlimit="10" d="M95.833,311.583
		c0-4.097,0-11.399,0-15.583h-20.75v15.583H95.833z"/>
	<path id="r341-2" fill="#959595" stroke="#494949" stroke-width="0.5" stroke-miterlimit="10" d="M44.302,229.625v29.14h6.96
		v13.652c5.15,0,11.382,0,16.904,0V250.22v-20.595H44.302z"/>
	<polygon id="r344" fill="#959595" stroke="#494949" stroke-width="0.5" stroke-miterlimit="10" points="113,229.917 113,238.75 
		99.917,238.75 99.917,250.22 118.583,250.22 118.583,229.917 	"/>
	
		<rect id="r343" x="80.75" y="238.75" fill="#959595" stroke="#494949" stroke-width="0.5" stroke-miterlimit="10" width="19.167" height="11.47"/>
	<polygon id="r345" fill="#959595" stroke="#494949" stroke-width="0.5" stroke-miterlimit="10" points="113,214.125 113,229.917 
		118.583,229.917 118.583,250.22 146.387,250.22 154.833,241.773 154.833,230.952 154.75,214.125 	"/>
	<polygon id="r302" fill="#959595" stroke="#494949" stroke-width="0.5" stroke-miterlimit="10" points="154.75,151.5 
		154.75,214.125 154.833,230.952 162.5,230.952 162.5,218.125 178.625,218.125 178.625,151.5 	"/>
	
		<rect id="r303-1" x="178.625" y="151.5" fill="#959595" stroke="#494949" stroke-width="0.5" stroke-miterlimit="10" width="15" height="66.625"/>
	<polygon id="r304-3" fill="#959595" stroke="#494949" stroke-width="0.5" stroke-miterlimit="10" points="240.667,151.5 
		225.125,151.5 225.125,213.007 240.667,207.833 	"/>
	<polygon id="r304-2" fill="#959595" stroke="#494949" stroke-width="0.5" stroke-miterlimit="10" points="209.375,151.5 
		209.375,218.125 209.75,218.125 225.125,213.007 225.125,151.5 	"/>
	
		<rect id="r303-2" x="193.625" y="151.5" fill="#959595" stroke="#494949" stroke-width="0.5" stroke-miterlimit="10" width="15.75" height="66.625"/>
	<path id="k302" fill="#959595" stroke="#494949" stroke-width="0.5" stroke-miterlimit="10" d="M243.647,220.478l3.29,10.897
		c0,0-8.813,1.813-6,11.125s11.375,6.438,11.375,6.438l3.747,11.655l6.27-1.938l-12.217-39.964L243.647,220.478z"/>
	<polygon id="k304" fill="#959595" stroke="#494949" stroke-width="0.5" stroke-miterlimit="10" points="612,242.667 
		605.583,230.265 608.421,220.475 601.726,218.622 589.324,258.545 595.96,260.568 599.251,249.667 	"/>
	
		<rect x="170.241" y="247.833" fill="#959595" stroke="#494949" stroke-width="0.5" stroke-miterlimit="10" width="7.426" height="29.25"/>
	<circle fill="#959595" stroke="#494949" stroke-width="0.5" stroke-miterlimit="10" cx="426.175" cy="242.064" r="13.625"/>
	<path id="r308" fill="#959595" stroke="#494949" stroke-width="0.5" stroke-miterlimit="10" d="M333.75,119.889v66.691
		c5.068-0.765,10.305-1.497,15.688-2.183v-64.508H333.75z"/>
	<path id="r308a" fill="#959595" stroke="#494949" stroke-width="0.5" stroke-miterlimit="10" d="M365.125,119.889h-15.688v64.508
		c5.103-0.65,10.334-1.258,15.688-1.812V119.889z"/>
	<path id="r320-1" fill="#959595" stroke="#494949" stroke-width="0.5" stroke-miterlimit="10" d="M704.5,260.388h94.514v-17.996
		c-9.906,0-34.547,0-94.514,0V260.388z"/>
	<path id="r319" fill="#959595" stroke="#494949" stroke-width="0.5" stroke-miterlimit="10" d="M732.32,178.289L704.5,200v32.5
		v9.892c59.967,0,84.605,0,94.514,0v-19.623C767.679,213.346,746.494,195.924,732.32,178.289z"/>
</g>
<g id="signs">
	<g id="toilet">
		<rect x="620.755" y="127.201" opacity="0.8" fill="#231F20" enable-background="new    " width="14.812" height="14.811"/>
		<rect x="216.863" y="127.201" opacity="0.8" fill="#231F20" enable-background="new    " width="14.811" height="14.811"/>
		<rect x="54.53" y="315.201" opacity="0.8" fill="#231F20" enable-background="new    " width="14.811" height="14.811"/>
	</g>
	<g id="escalator">
		<rect x="377.891" y="185.762" opacity="0.8" fill="#231F20" enable-background="new    " width="14.812" height="14.812"/>
		<rect x="171.22" y="226.828" opacity="0.8" fill="#231F20" enable-background="new    " width="14.811" height="14.811"/>
		<rect x="195.667" y="277.36" opacity="0.8" fill="#231F20" enable-background="new    " width="14.811" height="14.811"/>
		<rect x="379.399" y="241.375" opacity="0.8" fill="#231F20" enable-background="new    " width="14.811" height="14.811"/>
		<rect x="532.509" y="188.255" opacity="0.8" fill="#231F20" enable-background="new    " width="14.811" height="14.811"/>
		<rect x="522.843" y="241.375" opacity="0.8" fill="#231F20" enable-background="new    " width="14.811" height="14.811"/>
		<rect x="663.462" y="223.905" opacity="0.8" fill="#231F20" enable-background="new    " width="14.812" height="14.811"/>
		<rect x="643.197" y="278.201" opacity="0.8" fill="#231F20" enable-background="new    " width="14.811" height="14.811"/>
		<rect x="155.241" y="398.869" opacity="0.8" fill="#231F20" enable-background="new    " width="14.811" height="14.811"/>
		<rect x="279.256" y="398.869" opacity="0.8" fill="#231F20" enable-background="new    " width="14.811" height="14.811"/>
	</g>
	<g id="entrance">
		<rect x="438.589" y="398.869" opacity="0.8" fill="#231F20" enable-background="new    " width="14.812" height="14.811"/>
		<rect x="652.589" y="347.822" opacity="0.8" fill="#231F20" enable-background="new    " width="14.812" height="14.811"/>
	</g>
	<g id="lift">
		<rect x="266.031" y="226.414" opacity="0.8" fill="#231F20" enable-background="new    " width="14.811" height="14.811"/>
		<rect x="574.595" y="226.828" opacity="0.8" fill="#231F20" enable-background="new    " width="14.811" height="14.811"/>
		<rect x="398.756" y="343.585" opacity="0.8" fill="#231F20" enable-background="new    " width="14.812" height="14.811"/>
		<rect x="47.125" y="468.595" opacity="0.8" fill="#231F20" enable-background="new    " width="14.811" height="14.811"/>
		<rect x="646.119" y="317.97" opacity="0.8" fill="#231F20" enable-background="new    " width="14.811" height="14.811"/>
	</g>
	
		<rect id="parking" x="604.119" y="419.896" opacity="0.8" fill="#231F20" enable-background="new    " width="14.811" height="14.811"/>
</g>
</svg>
