<?xml version="1.0" encoding="utf-8"?>
<!-- Generator: Adobe Illustrator 16.0.3, SVG Export Plug-In . SVG Version: 6.00 Build 0)  -->
<!DOCTYPE svg PUBLIC "-//W3C//DTD SVG 1.1//EN" "http://www.w3.org/Graphics/SVG/1.1/DTD/svg11.dtd">
<svg version="1.1" xmlns="http://www.w3.org/2000/svg" xmlns:xlink="http://www.w3.org/1999/xlink" x="0px" y="0px"
	 width="841.89px" height="595.28px" viewBox="0 0 841.89 595.28" enable-background="new 0 0 841.89 595.28" xml:space="preserve">
<g id="Original" display="none">
	
		<image display="inline" overflow="visible" width="4691" height="3310" xlink:href="Floorplan/BO.jpg"  transform="matrix(0.1816 0 0 0.1816 -18.9497 2.3281)">
	</image>
</g>
<g id="Background">
	<rect fill="#FFFFFF" width="841.89" height="595.28"/>
</g>
<g id="ETC">
	
		<rect x="594.581" y="235.13" transform="matrix(0.9695 0.2452 -0.2452 0.9695 77.9845 -138.8146)" fill="none" stroke="#ED1C24" stroke-width="0.5" stroke-miterlimit="10" width="3.67" height="17.233"/>
	
		<rect x="598.983" y="236.411" transform="matrix(0.9695 0.2452 -0.2452 0.9695 78.4078 -139.8212)" fill="none" stroke="#ED1C24" stroke-width="0.5" stroke-miterlimit="10" width="3.671" height="17.233"/>
	
		<rect x="583.936" y="220.226" transform="matrix(0.9694 0.2453 -0.2453 0.9694 75.4065 -136.5209)" fill="none" stroke="#ED1C24" stroke-width="0.5" stroke-miterlimit="10" width="3.669" height="28.47"/>
	
		<rect x="588.312" y="221.608" transform="matrix(0.9695 0.2452 -0.2452 0.9695 75.831 -137.4858)" fill="none" stroke="#ED1C24" stroke-width="0.5" stroke-miterlimit="10" width="3.669" height="28.469"/>
	
		<rect x="248.254" y="236.855" transform="matrix(0.9688 -0.2477 0.2477 0.9688 -52.9215 69.594)" fill="none" stroke="#ED1C24" stroke-width="0.5" stroke-miterlimit="10" width="3.67" height="16.479"/>
	
		<rect x="252.731" y="235.871" transform="matrix(0.9689 -0.2476 0.2476 0.9689 -52.5158 70.6329)" fill="none" stroke="#ED1C24" stroke-width="0.5" stroke-miterlimit="10" width="3.67" height="16.479"/>
	
		<rect x="260.123" y="221.389" transform="matrix(0.9689 -0.2475 0.2475 0.9689 -50.3565 72.2014)" fill="none" stroke="#ED1C24" stroke-width="0.5" stroke-miterlimit="10" width="3.671" height="29.947"/>
	
		<rect x="264.632" y="220.527" transform="matrix(0.9688 -0.2478 0.2478 0.9688 -50.0397 73.3626)" fill="none" stroke="#ED1C24" stroke-width="0.5" stroke-miterlimit="10" width="3.67" height="29.947"/>
	
		<rect x="563.086" y="222.561" transform="matrix(-0.2352 0.972 -0.972 -0.2352 920.3173 -271.5578)" fill="none" stroke="#ED1C24" stroke-width="0.5" stroke-miterlimit="10" width="7.831" height="7.51"/>
	
		<rect x="561.244" y="230.174" transform="matrix(-0.2352 0.972 -0.972 -0.2352 925.433 -260.3702)" fill="none" stroke="#ED1C24" stroke-width="0.5" stroke-miterlimit="10" width="7.832" height="7.509"/>
	
		<rect x="417.626" y="334.044" fill="none" stroke="#ED1C24" stroke-width="0.5" stroke-miterlimit="10" width="8.858" height="8.472"/>
	
		<rect x="417.626" y="342.516" fill="none" stroke="#ED1C24" stroke-width="0.5" stroke-miterlimit="10" width="8.858" height="8.475"/>
	
		<rect x="417.626" y="350.99" fill="none" stroke="#ED1C24" stroke-width="0.5" stroke-miterlimit="10" width="8.858" height="8.474"/>
	
		<rect x="417.626" y="359.464" fill="none" stroke="#ED1C24" stroke-width="0.5" stroke-miterlimit="10" width="8.858" height="8.475"/>
	
		<rect x="635.566" y="321.074" fill="none" stroke="#ED1C24" stroke-width="0.5" stroke-miterlimit="10" width="8.602" height="8.603"/>
	
		<rect x="633.513" y="310.804" fill="none" stroke="#ED1C24" stroke-width="0.5" stroke-miterlimit="10" width="10.655" height="10.271"/>
	
		<rect x="635.566" y="329.677" fill="none" stroke="#ED1C24" stroke-width="0.5" stroke-miterlimit="10" width="8.602" height="8.601"/>
	
		<rect x="798.367" y="422.696" fill="none" stroke="#ED1C24" stroke-width="0.5" stroke-miterlimit="10" width="8.602" height="8.602"/>
	
		<rect x="798.367" y="431.298" fill="none" stroke="#ED1C24" stroke-width="0.5" stroke-miterlimit="10" width="8.602" height="8.601"/>
	
		<rect x="496.393" y="282.495" fill="none" stroke="#ED1C24" stroke-width="0.5" stroke-miterlimit="10" width="12.453" height="58.417"/>
	
		<rect x="394.58" y="311.702" fill="none" stroke="#ED1C24" stroke-width="0.5" stroke-miterlimit="10" width="31.904" height="56.236"/>
	<path fill="none" stroke="#ED1C24" stroke-width="0.5" stroke-miterlimit="10" d="M705.667,218.428v15.407h30.428l22.362-30.777
		c-43.993-31.466-53.112-79.325-53.112-79.325h-60.92v30.501h-30.556v49.044h30.556v334.898h29.915V218.428H705.667z"/>
	<path fill="none" stroke="#ED1C24" stroke-width="0.5" stroke-miterlimit="10" d="M808.558,443.116v-23.863h-9.545V222.769
		c-16.036-4.823-29.414-11.742-40.556-19.712l-22.362,30.777h-30.428v-15.407H674.34v319.748h67.697
		c5.675,7.785,14.859,12.848,25.229,12.848c10.371,0,19.556-5.063,25.229-12.848h5.919v-16.498c0.037-0.615,0.061-1.238,0.061-1.862
		c0-0.626-0.023-1.248-0.061-1.864v-74.835H808.558z"/>
	<polygon fill="none" stroke="#ED1C24" stroke-width="0.5" stroke-miterlimit="10" points="644.425,154.233 644.425,123.732 
		580.853,123.732 240,123.732 240,138.185 208.127,138.185 208.127,151.858 167.203,151.858 167.203,176.701 171.825,176.701 
		171.825,285.8 176.318,285.8 176.318,311.167 426.484,311.167 426.484,442.594 457.747,442.594 457.747,469.428 488.047,469.428 
		488.047,538.176 644.425,538.176 644.425,203.278 613.869,203.278 613.869,154.233 	"/>
	<path fill="none" stroke="#ED1C24" stroke-width="0.5" stroke-miterlimit="10" d="M208.127,151.858v-13.674H240v-14.453h340.853
		V84.157H44.302v36.824v137.784h6.96v171.458c-14.196,6.732-24.017,21.19-24.017,37.948c0,16.757,9.82,31.216,24.017,37.949v5.605
		h200.991v5.038h57.805v-5.038h83.657v19.291h62.843v7.159h31.488v-68.748h-30.3v-26.834h-31.263V311.167H176.318V285.8h-4.494
		V176.701h-4.622v-24.843H208.127z"/>
	<polygon fill="none" stroke="#ED1C24" stroke-width="0.5" stroke-miterlimit="10" points="230.755,207.996 285.448,207.996 
		292.863,238.541 292.863,274.053 230.755,274.053 	"/>
	<polygon fill="none" stroke="#ED1C24" stroke-width="0.5" stroke-miterlimit="10" points="567.198,246.524 574.26,248.279 
		572.527,254.249 603.019,261.182 613.034,221.627 576.25,211.11 572.527,222.921 563.78,220.803 559.64,237.221 568.739,239.532 	
		"/>
	
		<rect x="279.598" y="222.475" transform="matrix(0.2468 0.9691 -0.9691 0.2468 432.7895 -104.3408)" fill="none" stroke="#ED1C24" stroke-width="0.5" stroke-miterlimit="10" width="7.832" height="7.511"/>
	
		<rect x="281.532" y="230.064" transform="matrix(0.2469 0.969 -0.969 0.2469 441.5495 -100.5216)" fill="none" stroke="#ED1C24" stroke-width="0.5" stroke-miterlimit="10" width="7.831" height="7.511"/>
	
		<rect x="573.662" y="251.382" transform="matrix(0.9746 0.2241 -0.2241 0.9746 71.5523 -123.7792)" fill="#939598" stroke="#FFFFFF" stroke-width="0.5" stroke-miterlimit="10" width="15.006" height="3.997"/>
	
		<rect x="588.286" y="254.746" transform="matrix(0.9745 0.2242 -0.2242 0.9745 72.7255 -127.0352)" fill="#939598" stroke="#FFFFFF" stroke-width="0.5" stroke-miterlimit="10" width="15.004" height="3.995"/>
</g>
<g id="Rooms">
</g>
<g id="Signs">
	<g id="lift">
		<rect x="569.729" y="226.415" opacity="0.8" width="14.811" height="14.811"/>
		<rect x="399.528" y="344.654" opacity="0.8" width="14.811" height="14.811"/>
	</g>
	<g id="escalator">
		<rect x="593.413" y="214.829" opacity="0.8" width="14.811" height="14.811"/>
	</g>
	<g id="parking">
		<rect x="403.127" y="229.252" opacity="0.8" width="14.811" height="14.811"/>
		<rect x="541.127" y="415.291" opacity="0.8" width="14.811" height="14.811"/>
	</g>
</g>
</svg>
