<?xml version="1.0" encoding="utf-8"?>
<!-- Generator: Adobe Illustrator 16.0.0, SVG Export Plug-In . SVG Version: 6.00 Build 0)  -->
<!DOCTYPE svg PUBLIC "-//W3C//DTD SVG 1.1//EN" "http://www.w3.org/Graphics/SVG/1.1/DTD/svg11.dtd">
<svg version="1.1" id="Layer_1" xmlns="http://www.w3.org/2000/svg" xmlns:xlink="http://www.w3.org/1999/xlink" x="0px" y="0px"
	 width="841.89px" height="595.281px" viewBox="0 0 841.89 595.281" enable-background="new 0 0 841.89 595.281"
	 xml:space="preserve">
<g id="background">
	<rect fill="#FFFFFF" width="841.89" height="595.281"/>
</g>
<g id="etc">
	<polygon fill="#BFBEBE" stroke="#494949" stroke-width="0.66" stroke-miterlimit="10" points="152.951,169.383 118.864,169.383 
		118.864,123.163 44.302,123.163 44.302,258.765 51.263,258.765 51.263,259.32 152.951,259.32 	"/>
	
		<rect x="130.612" y="150.382" fill="#BFBEBE" stroke="#494949" stroke-width="0.66" stroke-miterlimit="10" width="22.339" height="19.001"/>
	
		<rect x="87.087" y="182.49" fill="#BFBEBE" stroke="#494949" stroke-width="0.66" stroke-miterlimit="10" width="8.667" height="8.666"/>
	
		<rect x="95.754" y="182.49" fill="#BFBEBE" stroke="#494949" stroke-width="0.66" stroke-miterlimit="10" width="8.666" height="8.666"/>
	
		<rect x="104.42" y="182.49" fill="#BFBEBE" stroke="#494949" stroke-width="0.66" stroke-miterlimit="10" width="8.667" height="8.666"/>
	
		<rect x="87.087" y="158.791" fill="#BFBEBE" stroke="#494949" stroke-width="0.66" stroke-miterlimit="10" width="8.667" height="8.667"/>
	
		<rect x="95.754" y="158.791" fill="#BFBEBE" stroke="#494949" stroke-width="0.66" stroke-miterlimit="10" width="8.666" height="8.667"/>
	
		<rect x="104.42" y="158.791" fill="#BFBEBE" stroke="#494949" stroke-width="0.66" stroke-miterlimit="10" width="8.667" height="8.667"/>
	
		<rect x="87.087" y="191.242" fill="#BFBEBE" stroke="#494949" stroke-width="0.66" stroke-miterlimit="10" width="8.667" height="8.666"/>
	
		<rect x="95.754" y="191.242" fill="#BFBEBE" stroke="#494949" stroke-width="0.66" stroke-miterlimit="10" width="8.666" height="8.666"/>
	
		<rect x="104.42" y="191.242" fill="#BFBEBE" stroke="#494949" stroke-width="0.66" stroke-miterlimit="10" width="8.667" height="8.666"/>
	
		<rect x="87.087" y="213.356" fill="#BFBEBE" stroke="#494949" stroke-width="0.66" stroke-miterlimit="10" width="8.667" height="8.666"/>
	
		<rect x="95.754" y="213.356" fill="#BFBEBE" stroke="#494949" stroke-width="0.66" stroke-miterlimit="10" width="8.666" height="8.666"/>
	
		<rect x="104.42" y="213.356" fill="#BFBEBE" stroke="#494949" stroke-width="0.66" stroke-miterlimit="10" width="8.667" height="8.666"/>
	
		<rect x="78.743" y="123.163" fill="#BFBEBE" stroke="#494949" stroke-width="0.66" stroke-miterlimit="10" width="40.122" height="27.219"/>
	
		<rect x="44.302" y="123.163" fill="#BFBEBE" stroke="#494949" stroke-width="0.66" stroke-miterlimit="10" width="34.44" height="109.259"/>
	
		<rect x="44.302" y="232.422" fill="#BFBEBE" stroke="#494949" stroke-width="0.66" stroke-miterlimit="10" width="74.883" height="26.897"/>
	
		<rect x="119.185" y="213.356" fill="#BFBEBE" stroke="#494949" stroke-width="0.66" stroke-miterlimit="10" width="33.766" height="45.963"/>
	<path fill="#BFBEBE" stroke="#494949" stroke-width="0.66" stroke-miterlimit="10" d="M808.558,443.117v-23.863h-9.545V311.189
		h-62.918v-83.132h13.867v-14.508l7.867-10.947c-32.574-23.593-45.807-56.135-50.387-70.95c-1.529-4.944-2.1-7.92-2.1-7.92h-124.49
		V84.157H44.302v39.006h74.562v46.22h34.087v89.937H51.263v51.612h95.911v-27.347h29.081v27.347h95.136v147.327h155.04v-15.535
		h31.189v88.363l-1.062-0.07v7.158h285.48c5.674,7.785,14.857,12.85,25.229,12.85s19.557-5.064,25.229-12.85h5.92v-16.498
		c0.037-0.613,0.061-1.236,0.061-1.861s-0.023-1.248-0.061-1.863v-74.836H808.558L808.558,443.117z"/>
	<polygon fill="#BFBEBE" stroke="#494949" stroke-width="0.66" stroke-miterlimit="10" points="457.619,442.724 426.429,442.724 
		426.429,458.259 271.39,458.259 271.39,484.257 209.378,484.257 209.378,511.726 252.254,511.726 252.254,516.763 310.059,516.763 
		310.059,511.726 393.716,511.726 393.716,531.017 456.558,531.017 457.619,531.087 	"/>
	
		<rect x="732.136" y="190.623" transform="matrix(-0.7382 -0.6746 0.6746 -0.7382 1142.0306 839.7634)" fill="#BFBEBE" stroke="#494949" stroke-width="0.66" stroke-miterlimit="10" width="3.67" height="15.296"/>
	
		<rect x="735.429" y="193.825" transform="matrix(-0.7385 -0.6743 0.6743 -0.7385 1145.8896 847.364)" fill="#BFBEBE" stroke="#494949" stroke-width="0.66" stroke-miterlimit="10" width="3.671" height="15.297"/>
	
		<rect x="518.476" y="84.157" fill="#BFBEBE" stroke="#494949" stroke-width="0.66" stroke-miterlimit="10" width="62.443" height="119.314"/>
	
		<rect x="798.367" y="422.697" fill="#BFBEBE" stroke="#494949" stroke-width="0.66" stroke-miterlimit="10" width="8.602" height="8.602"/>
	
		<rect x="798.367" y="431.298" fill="#BFBEBE" stroke="#494949" stroke-width="0.66" stroke-miterlimit="10" width="8.602" height="8.602"/>
	
		<rect x="580.919" y="123.732" fill="#BFBEBE" stroke="#494949" stroke-width="0.66" stroke-miterlimit="10" width="32.051" height="29.346"/>
	
		<rect x="612.97" y="123.732" fill="#BFBEBE" stroke="#494949" stroke-width="0.66" stroke-miterlimit="10" width="92.375" height="79.739"/>
	<polygon fill="#BFBEBE" stroke="#494949" stroke-width="0.66" stroke-miterlimit="10" points="712.986,209.954 712.986,193.264 
		747.65,164.89 769.99,185.689 749.962,213.549 749.962,228.057 732.5,228.057 	"/>
	<path fill="#BFBEBE" stroke="#494949" stroke-width="0.66" stroke-miterlimit="10" d="M749.962,228.057h-13.867v83.132h62.918
		v-88.42c-3.754-1.128-7.357-2.373-10.826-3.717c-11.629-4.51-21.678-10.164-30.355-16.45l-7.869,10.947V228.057L749.962,228.057z"
		/>
	
		<rect x="596.035" y="223.596" transform="matrix(-0.9695 -0.2453 0.2453 -0.9695 1119.0903 615.4379)" fill="#BFBEBE" stroke="#494949" stroke-width="0.66" stroke-miterlimit="10" width="3.671" height="28.866"/>
	
		<rect x="600.41" y="224.982" transform="matrix(-0.9695 -0.2453 0.2453 -0.9695 1127.3669 619.2391)" fill="#BFBEBE" stroke="#494949" stroke-width="0.66" stroke-miterlimit="10" width="3.671" height="28.866"/>
	
		<rect x="585.553" y="220.452" transform="matrix(-0.9695 -0.2452 0.2452 -0.9695 1100.9282 593.2463)" fill="#BFBEBE" stroke="#494949" stroke-width="0.66" stroke-miterlimit="10" width="3.671" height="15.296"/>
	
		<rect x="589.958" y="221.663" transform="matrix(-0.9695 -0.2449 0.2449 -0.9695 1109.4023 596.5767)" fill="#BFBEBE" stroke="#494949" stroke-width="0.66" stroke-miterlimit="10" width="3.67" height="15.296"/>
	
		<rect x="563.063" y="222.582" transform="matrix(0.2352 -0.972 0.972 0.2352 213.6477 724.1846)" fill="#BFBEBE" stroke="#494949" stroke-width="0.66" stroke-miterlimit="10" width="7.831" height="7.511"/>
	
		<rect x="561.212" y="230.191" transform="matrix(0.2352 -0.972 0.972 0.2352 204.853 728.2147)" fill="#BFBEBE" stroke="#494949" stroke-width="0.66" stroke-miterlimit="10" width="7.832" height="7.509"/>
	<polygon fill="#BFBEBE" stroke="#494949" stroke-width="0.66" stroke-miterlimit="10" points="543.896,203.471 616.789,203.471 
		616.789,260.957 602.244,260.957 572.785,253.831 572.302,255.372 543.896,248.247 	"/>
	
		<rect x="494.787" y="282.526" fill="#BFBEBE" stroke="#494949" stroke-width="0.66" stroke-miterlimit="10" width="11.65" height="57.679"/>
	
		<rect x="635.566" y="321.074" fill="#BFBEBE" stroke="#494949" stroke-width="0.66" stroke-miterlimit="10" width="8.602" height="8.604"/>
	
		<rect x="633.513" y="310.804" fill="#BFBEBE" stroke="#494949" stroke-width="0.66" stroke-miterlimit="10" width="10.654" height="10.271"/>
	
		<rect x="635.566" y="329.677" fill="#BFBEBE" stroke="#494949" stroke-width="0.66" stroke-miterlimit="10" width="8.602" height="8.601"/>
	
		<rect x="612.359" y="310.804" fill="#BFBEBE" stroke="#494949" stroke-width="0.66" stroke-miterlimit="10" width="21.152" height="13.802"/>
	<polygon fill="#BFBEBE" stroke="#494949" stroke-width="0.66" stroke-miterlimit="10" points="612.359,324.605 612.359,310.804 
		586.939,310.804 586.939,335.873 633.513,335.873 633.513,324.605 	"/>
	
		<rect x="510.869" y="282.526" fill="#BFBEBE" stroke="#494949" stroke-width="0.66" stroke-miterlimit="10" width="70.967" height="28.276"/>
	
		<rect x="417.626" y="334.044" fill="#BFBEBE" stroke="#494949" stroke-width="0.66" stroke-miterlimit="10" width="8.858" height="8.472"/>
	
		<rect x="417.626" y="342.516" fill="#BFBEBE" stroke="#494949" stroke-width="0.66" stroke-miterlimit="10" width="8.858" height="8.476"/>
	
		<rect x="417.626" y="350.99" fill="#BFBEBE" stroke="#494949" stroke-width="0.66" stroke-miterlimit="10" width="8.858" height="8.475"/>
	
		<rect x="417.626" y="359.464" fill="#BFBEBE" stroke="#494949" stroke-width="0.66" stroke-miterlimit="10" width="8.858" height="8.475"/>
	
		<rect x="410.146" y="334.044" fill="#BFBEBE" stroke="#494949" stroke-width="0.66" stroke-miterlimit="10" width="16.337" height="33.895"/>
	
		<rect x="246.706" y="224.549" transform="matrix(-0.9689 0.2476 -0.2476 -0.9689 548.5161 408.9825)" fill="#BFBEBE" stroke="#494949" stroke-width="0.66" stroke-miterlimit="10" width="3.67" height="28.866"/>
	
		<rect x="251.207" y="223.687" transform="matrix(-0.9688 0.2477 -0.2477 -0.9688 557.1858 406.1331)" fill="#BFBEBE" stroke="#494949" stroke-width="0.66" stroke-miterlimit="10" width="3.67" height="28.868"/>
	
		<rect x="258.631" y="221.587" transform="matrix(-0.9688 0.2477 -0.2477 -0.9688 569.9136 389.2773)" fill="#BFBEBE" stroke="#494949" stroke-width="0.66" stroke-miterlimit="10" width="3.67" height="17.812"/>
	
		<rect x="263.111" y="220.615" transform="matrix(-0.9689 0.2476 -0.2476 -0.9689 578.4728 386.2928)" fill="#BFBEBE" stroke="#494949" stroke-width="0.66" stroke-miterlimit="10" width="3.67" height="17.812"/>
	
		<rect x="279.605" y="222.491" transform="matrix(-0.2468 -0.9691 0.9691 -0.2468 134.2316 556.8279)" fill="#BFBEBE" stroke="#494949" stroke-width="0.66" stroke-miterlimit="10" width="7.832" height="7.511"/>
	
		<rect x="281.54" y="230.052" transform="matrix(-0.2469 -0.969 0.969 -0.2469 129.3577 568.1484)" fill="#BFBEBE" stroke="#494949" stroke-width="0.66" stroke-miterlimit="10" width="7.83" height="7.51"/>
	<path fill="#BFBEBE" stroke="#494949" stroke-width="0.66" stroke-miterlimit="10" d="M768.937,134.628l-36.053,22.044
		c-5.906-6.804-12.967-29.272-12.967-29.272l-12.475,4.252c5.801,18.762,25.469,65.96,80.744,87.399l5.041-12.05l-14.637-6.548
		l20.209-36.698C786.47,156.838,776.152,146.765,768.937,134.628z"/>
	<path fill="#BFBEBE" stroke="#494949" stroke-width="0.66" stroke-miterlimit="10" d="M838.064,13.248
		c-44.389,0-80.371,35.983-80.371,80.371c0,14.982,4.104,29.003,11.242,41.01c7.217,12.137,17.533,22.209,29.865,29.127
		c11.611,6.515,25.002,10.234,39.264,10.234c44.389,0,80.371-35.983,80.371-80.371C918.435,49.231,882.453,13.248,838.064,13.248z"
		/>
	<polygon fill="#BFBEBE" stroke="#494949" stroke-width="0.66" stroke-miterlimit="10" points="722.277,185.658 728.625,192.458 
		738.083,183.708 732.958,176.916 	"/>
	<path fill="#BFBEBE" stroke="#494949" stroke-width="0.66" stroke-miterlimit="10" d="M736.533,173.99
		c0.129-0.106,7.135,7.302,7.135,7.302l10.822-10.034l-6.84-6.368L736.533,173.99z"/>
	<polygon fill="#BFBEBE" stroke="#494949" stroke-width="0.66" stroke-miterlimit="10" points="769.99,185.689 763.142,179.314 
		753.687,191.346 761.607,197.35 	"/>
	<polygon fill="#BFBEBE" stroke="#494949" stroke-width="0.66" stroke-miterlimit="10" points="740.042,208.708 748.791,215.292 
		749.962,213.549 753.125,209.149 744.771,202.692 	"/>
	
		<rect x="565.75" y="204.188" fill="#BFBEBE" stroke="#494949" stroke-width="0.66" stroke-miterlimit="10" width="12.188" height="5.438"/>
	
		<rect x="592.55" y="203.938" fill="#BFBEBE" stroke="#494949" stroke-width="0.66" stroke-miterlimit="10" width="12.014" height="5.688"/>
	<path fill="#BFBEBE" stroke="#494949" stroke-width="0.66" stroke-miterlimit="10" d="M271.39,484.257V310.932h-95.136v-27.347
		h-29.081v27.347h-95.91v119.29c-14.196,6.732-24.017,21.191-24.017,37.949c0,16.756,9.82,31.215,24.017,37.949v5.604h158.116
		v-27.469h62.011V484.257z"/>
</g>
<g id="rooms">
	<polygon id="b1102" fill="#929497" stroke="#49494A" stroke-width="0.5" stroke-miterlimit="10" points="250.592,122.2 
		489.587,122.2 489.587,154.169 395.605,154.169 395.605,135.874 334.172,135.874 334.172,154.169 250.592,154.169 	"/>
	<polygon id="b1101-2" fill="#929497" stroke="#49494A" stroke-width="0.5" stroke-miterlimit="10" points="63.208,267.023 
		63.208,292.733 63.208,310.932 147.174,310.932 147.174,292.733 147.174,267.023 	"/>
	
		<rect id="b1105" x="673.699" y="468.787" fill="#929497" stroke="#49494A" stroke-width="0.5" stroke-miterlimit="10" width="62.781" height="57.391"/>
	<polygon id="b1103" fill="#929497" stroke="#49494A" stroke-width="0.5" stroke-miterlimit="10" points="753.687,191.346 
		744.771,202.692 753.125,209.149 761.607,197.35 	"/>
</g>
<g id="signs">
	<g id="toilet_4_">
		
			<rect id="toilet" x="499.033" y="303.96" opacity="0.8" fill="#231F20" enable-background="new    " width="14.811" height="14.811"/>
		
			<rect id="toilet_3_" x="66.933" y="367.938" opacity="0.8" fill="#231F20" enable-background="new    " width="14.811" height="14.812"/>
	</g>
	<g id="parking">
		
			<rect id="toilet_1_" x="374.595" y="229.796" opacity="0.8" fill="#231F20" enable-background="new    " width="14.812" height="14.811"/>
		
			<rect id="toilet_2_" x="588.041" y="407.886" opacity="0.8" fill="#231F20" enable-background="new    " width="14.811" height="14.811"/>
	</g>
	<g id="lift">
		<rect x="118.864" y="183.836" opacity="0.8" fill="#231F20" enable-background="new    " width="14.811" height="14.811"/>
		<rect x="266.97" y="226.414" opacity="0.8" fill="#231F20" enable-background="new    " width="14.811" height="14.811"/>
		<rect x="570.531" y="226.414" opacity="0.8" fill="#231F20" enable-background="new    " width="14.811" height="14.811"/>
		<rect x="646.367" y="317.971" opacity="0.8" fill="#231F20" enable-background="new    " width="14.811" height="14.812"/>
	</g>
	<g id="entrance">
		<rect x="651.751" y="551.023" opacity="0.8" fill="#231F20" enable-background="new    " width="14.811" height="14.811"/>
		<rect x="464.595" y="536.212" opacity="0.8" fill="#231F20" enable-background="new    " width="14.811" height="14.812"/>
		<rect x="496.058" y="88.224" opacity="0.8" fill="#231F20" enable-background="new    " width="14.811" height="14.811"/>
		<rect x="27.246" y="343.585" opacity="0.8" fill="#231F20" enable-background="new    " width="14.811" height="14.811"/>
	</g>
	<g id="escalator">
		<rect x="244.223" y="208.67" opacity="0.8" fill="#231F20" enable-background="new    " width="14.811" height="14.811"/>
		<rect x="155.723" y="282.83" opacity="0.8" fill="#231F20" enable-background="new    " width="14.811" height="14.811"/>
		<rect x="592.55" y="210.563" opacity="0.8" fill="#231F20" enable-background="new    " width="14.812" height="14.811"/>
		<rect x="737.365" y="180.927" opacity="0.8" fill="#231F20" enable-background="new    " width="14.811" height="14.812"/>
	</g>
</g>
</svg>
