<?xml version="1.0" encoding="utf-8"?>
<!-- Generator: Adobe Illustrator 16.0.0, SVG Export Plug-In . SVG Version: 6.00 Build 0)  -->
<!DOCTYPE svg PUBLIC "-//W3C//DTD SVG 1.1//EN" "http://www.w3.org/Graphics/SVG/1.1/DTD/svg11.dtd">
<svg version="1.1" id="Layer_1" xmlns="http://www.w3.org/2000/svg" xmlns:xlink="http://www.w3.org/1999/xlink" x="0px" y="0px"
	 width="841.89px" height="595.281px" viewBox="0 0 841.89 595.281" enable-background="new 0 0 841.89 595.281"
	 xml:space="preserve">
<g id="background">
	<rect fill="#FFFFFF" width="841.89" height="595.281"/>
</g>
<g id="etc">
	
		<rect x="594.608" y="235.122" transform="matrix(-0.9695 -0.2452 0.2452 -0.9695 1114.9274 626.2653)" fill="#BFBFBF" stroke="#49494A" stroke-width="0.66" stroke-miterlimit="10" width="3.671" height="17.234"/>
	
		<rect x="598.985" y="236.437" transform="matrix(-0.9695 -0.2452 0.2452 -0.9695 1123.2273 629.9283)" fill="#BFBFBF" stroke="#49494A" stroke-width="0.66" stroke-miterlimit="10" width="3.671" height="17.233"/>
	
		<rect x="583.904" y="220.221" transform="matrix(-0.9694 -0.2453 0.2453 -0.9694 1096.0734 605.4236)" fill="#BFBFBF" stroke="#49494A" stroke-width="0.66" stroke-miterlimit="10" width="3.669" height="28.469"/>
	
		<rect x="588.315" y="221.632" transform="matrix(-0.9695 -0.2452 0.2452 -0.9695 1104.4607 609.2206)" fill="#BFBFBF" stroke="#49494A" stroke-width="0.66" stroke-miterlimit="10" width="3.669" height="28.47"/>
	
		<rect x="248.239" y="236.855" transform="matrix(-0.9689 0.2476 -0.2476 -0.9689 553.0483 420.6376)" fill="#BFBFBF" stroke="#49494A" stroke-width="0.66" stroke-miterlimit="10" width="3.67" height="16.478"/>
	
		<rect x="252.74" y="235.881" transform="matrix(-0.9689 0.2476 -0.2476 -0.9689 561.6624 417.617)" fill="#BFBFBF" stroke="#49494A" stroke-width="0.66" stroke-miterlimit="10" width="3.67" height="16.479"/>
	
		<rect x="260.119" y="221.405" transform="matrix(-0.9689 0.2475 -0.2475 -0.9689 574.27 400.5554)" fill="#BFBFBF" stroke="#49494A" stroke-width="0.66" stroke-miterlimit="10" width="3.671" height="29.947"/>
	
		<rect x="264.635" y="220.512" transform="matrix(-0.9688 0.2479 -0.2479 -0.9688 582.9922 397.5768)" fill="#BFBFBF" stroke="#49494A" stroke-width="0.66" stroke-miterlimit="10" width="3.67" height="29.947"/>
	
		<rect x="563.063" y="222.582" transform="matrix(0.2352 -0.972 0.972 0.2352 213.6477 724.1846)" fill="#BFBFBF" stroke="#49494A" stroke-width="0.66" stroke-miterlimit="10" width="7.831" height="7.511"/>
	
		<rect x="561.212" y="230.191" transform="matrix(0.2352 -0.972 0.972 0.2352 204.853 728.2147)" fill="#BFBFBF" stroke="#49494A" stroke-width="0.66" stroke-miterlimit="10" width="7.832" height="7.509"/>
	
		<rect x="417.626" y="334.044" fill="#BFBFBF" stroke="#49494A" stroke-width="0.66" stroke-miterlimit="10" width="8.858" height="8.472"/>
	
		<rect x="417.626" y="342.516" fill="#BFBFBF" stroke="#49494A" stroke-width="0.66" stroke-miterlimit="10" width="8.858" height="8.476"/>
	
		<rect x="417.626" y="350.99" fill="#BFBFBF" stroke="#49494A" stroke-width="0.66" stroke-miterlimit="10" width="8.858" height="8.475"/>
	
		<rect x="417.626" y="359.464" fill="#BFBFBF" stroke="#49494A" stroke-width="0.66" stroke-miterlimit="10" width="8.858" height="8.475"/>
	
		<rect x="635.566" y="321.074" fill="#BFBFBF" stroke="#49494A" stroke-width="0.66" stroke-miterlimit="10" width="8.602" height="8.604"/>
	
		<rect x="633.513" y="310.804" fill="#BFBFBF" stroke="#49494A" stroke-width="0.66" stroke-miterlimit="10" width="10.654" height="10.271"/>
	
		<rect x="635.566" y="329.677" fill="#BFBFBF" stroke="#49494A" stroke-width="0.66" stroke-miterlimit="10" width="8.602" height="8.601"/>
	
		<rect x="798.367" y="422.697" fill="#BFBFBF" stroke="#49494A" stroke-width="0.66" stroke-miterlimit="10" width="8.602" height="8.602"/>
	
		<rect x="798.367" y="431.298" fill="#BFBFBF" stroke="#49494A" stroke-width="0.66" stroke-miterlimit="10" width="8.602" height="8.602"/>
	
		<rect x="496.392" y="282.495" fill="#BFBFBF" stroke="#49494A" stroke-width="0.66" stroke-miterlimit="10" width="12.453" height="58.417"/>
	
		<rect x="394.58" y="311.703" fill="#BFBFBF" stroke="#49494A" stroke-width="0.66" stroke-miterlimit="10" width="31.904" height="56.235"/>
	<path fill="#BFBFBF" stroke="#49494A" stroke-width="0.66" stroke-miterlimit="10" d="M705.667,218.428v15.407h30.428
		l22.361-30.777c-43.992-31.466-53.111-79.325-53.111-79.325h-60.92v30.501h-30.557v49.044h30.557v334.897h29.914V218.428H705.667z"
		/>
	<path fill="#BFBFBF" stroke="#49494A" stroke-width="0.66" stroke-miterlimit="10" d="M808.558,443.117v-23.863h-9.545V222.769
		c-16.037-4.823-29.414-11.742-40.557-19.712l-22.361,30.777h-30.428v-15.407h-31.328v319.749h67.697
		c5.676,7.785,14.859,12.848,25.229,12.848c10.371,0,19.557-5.062,25.23-12.848h5.918v-16.498c0.037-0.615,0.061-1.238,0.061-1.861
		c0-0.627-0.021-1.248-0.061-1.865v-74.834H808.558z"/>
	<polygon fill="#BFBFBF" stroke="#49494A" stroke-width="0.66" stroke-miterlimit="10" points="644.425,154.233 644.425,123.732 
		580.853,123.732 240,123.732 240,138.185 208.127,138.185 208.127,151.858 167.203,151.858 167.203,176.701 171.825,176.701 
		171.825,285.8 176.318,285.8 176.318,311.167 426.484,311.167 426.484,442.593 457.748,442.593 457.748,469.427 488.046,469.427 
		488.046,538.175 644.425,538.175 644.425,203.278 613.869,203.278 613.869,154.233 	"/>
	<path fill="#BFBFBF" stroke="#49494A" stroke-width="0.66" stroke-miterlimit="10" d="M208.127,151.858v-13.674H240v-14.453
		h340.853V84.157H44.302v36.824v137.784h6.96v171.457c-14.196,6.732-24.017,21.191-24.017,37.949
		c0,16.756,9.82,31.215,24.017,37.949v5.604h200.991v5.039h57.805v-5.039h83.657v19.291h62.843v7.16h31.488v-68.748h-30.301v-26.834
		h-31.262V311.167H176.318V285.8h-4.494V176.701h-4.622v-24.843H208.127z"/>
	<polygon fill="#BFBFBF" stroke="#49494A" stroke-width="0.66" stroke-miterlimit="10" points="230.755,207.996 285.448,207.996 
		292.863,238.541 292.863,274.053 230.755,274.053 	"/>
	<polygon fill="#BFBFBF" stroke="#49494A" stroke-width="0.66" stroke-miterlimit="10" points="567.199,246.524 574.259,248.279 
		572.527,254.249 603.019,261.182 613.035,221.627 576.25,211.11 572.527,222.921 563.781,220.803 559.64,237.221 568.74,239.532 	
		"/>
	
		<rect x="279.605" y="222.491" transform="matrix(-0.2468 -0.9691 0.9691 -0.2468 134.2316 556.8279)" fill="#BFBFBF" stroke="#49494A" stroke-width="0.66" stroke-miterlimit="10" width="7.832" height="7.511"/>
	
		<rect x="281.54" y="230.052" transform="matrix(-0.2469 -0.969 0.969 -0.2469 129.3577 568.1484)" fill="#BFBFBF" stroke="#49494A" stroke-width="0.66" stroke-miterlimit="10" width="7.83" height="7.51"/>
	
		<rect x="573.67" y="251.406" transform="matrix(-0.9746 -0.2241 0.2241 -0.9746 1090.7822 630.5982)" fill="#BFBFBF" stroke="#49494A" stroke-width="0.66" stroke-miterlimit="10" width="15.007" height="3.997"/>
	
		<rect x="588.258" y="254.74" transform="matrix(-0.9745 -0.2242 0.2242 -0.9745 1118.7775 640.5273)" fill="#BFBFBF" stroke="#49494A" stroke-width="0.66" stroke-miterlimit="10" width="15.003" height="3.995"/>
</g>
<g id="rooms">
</g>
<g id="signs">
	<g id="lift">
		<rect x="569.728" y="226.415" opacity="0.8" fill="#231F20" enable-background="new    " width="14.812" height="14.811"/>
		<rect x="399.528" y="344.654" opacity="0.8" fill="#231F20" enable-background="new    " width="14.811" height="14.811"/>
	</g>
	<g id="escalator">
		<rect x="593.414" y="214.829" opacity="0.8" fill="#231F20" enable-background="new    " width="14.811" height="14.811"/>
	</g>
	<g id="parking">
		<rect x="403.127" y="229.252" opacity="0.8" fill="#231F20" enable-background="new    " width="14.811" height="14.811"/>
		<rect x="541.126" y="415.291" opacity="0.8" fill="#231F20" enable-background="new    " width="14.811" height="14.811"/>
	</g>
</g>
</svg>
