<?xml version="1.0" encoding="utf-8"?>
<!-- Generator: Adobe Illustrator 19.2.0, SVG Export Plug-In . SVG Version: 6.00 Build 0)  -->
<svg version="1.1" id="Layer_1" xmlns="http://www.w3.org/2000/svg" xmlns:xlink="http://www.w3.org/1999/xlink" x="0px" y="0px"
	 viewBox="0 0 841.9 595.3" style="enable-background:new 0 0 841.9 595.3;" xml:space="preserve">
<style type="text/css">
	.st0{fill:#FFFFFF;}
	.st1{fill:#BFBFBF;stroke:#494949;stroke-width:0.66;stroke-miterlimit:10;}
	.st2{fill:#959595;stroke:#494949;stroke-width:0.5;stroke-miterlimit:10;}
	.st3{opacity:0.8;fill:#231F20;enable-background:new    ;}
</style>
<g id="background">
	<rect class="st0" width="841.9" height="595.3"/>
</g>
<g id="etc">
	<path class="st1" d="M808.6,443.1v-23.9H799V222.8c-79.3-23.9-93.7-99-93.7-99H580.9v-3.8H44.3v138.9h7v171.5
		c-14.2,6.7-24,21.2-24,37.9s9.8,31.2,24,37.9v5.6h201v5h57.8v-5h83.7V531h62.8v7.2H742c5.7,7.8,14.9,12.8,25.2,12.8
		c10.4,0,19.6-5.1,25.2-12.8h5.9v-16.5c0-0.6,0.1-1.2,0.1-1.9s0-1.2-0.1-1.9v-74.8L808.6,443.1L808.6,443.1L808.6,443.1z"/>
	<path class="st1" d="M51.3,311.6v118.6c-14.2,6.7-24,21.2-24,37.9c0,16.8,9.8,31.2,24,37.9v5.6h201v5h57.8v-5h83.7V531h32.8V311.6
		H51.3z"/>
	
		<rect x="280.1" y="222.6" transform="matrix(0.9691 -0.2468 0.2468 0.9691 -47.1299 77.0564)" class="st1" width="7.5" height="7.8"/>
	<rect x="282" y="230.2" transform="matrix(0.969 -0.2469 0.2469 0.969 -48.9608 77.8053)" class="st1" width="7.5" height="7.8"/>
	
		<rect x="522.1" y="229.4" transform="matrix(0.2102 -0.9777 0.9777 0.2102 193.7893 702.3948)" class="st1" width="19" height="3.7"/>
	
		<rect x="526.6" y="230.6" transform="matrix(0.2107 -0.9775 0.9775 0.2107 195.9495 707.5269)" class="st1" width="19" height="3.7"/>
	
		<rect x="526" y="209.8" transform="matrix(0.2103 -0.9776 0.9776 0.2103 215.9539 690.6002)" class="st1" width="19" height="3.7"/>
	
		<rect x="530.4" y="210.9" transform="matrix(0.2108 -0.9775 0.9775 0.2108 218.0996 695.6779)" class="st1" width="19" height="3.7"/>
	
		<rect x="639.2" y="258.5" transform="matrix(0.4105 -0.9119 0.9119 0.4105 150.549 753.4629)" class="st1" width="37.6" height="3.7"/>
	
		<rect x="643.3" y="258.9" transform="matrix(0.4105 -0.9119 0.9119 0.4105 153.4046 758.6725)" class="st1" width="40.3" height="3.7"/>
	
		<rect x="187.1" y="241.1" transform="matrix(0.9086 -0.4177 0.4177 0.9086 -91.531 102.7487)" class="st1" width="3.7" height="38.9"/>
	
		<rect x="191.5" y="239.5" transform="matrix(0.9086 -0.4177 0.4177 0.9086 -90.4845 104.4038)" class="st1" width="3.7" height="38.9"/>
	
		<rect x="383.5" y="222.6" transform="matrix(1 -6.799843e-03 6.799843e-03 1 -1.5695 2.6253)" class="st1" width="3.7" height="19"/>
	<rect x="388" y="222.8" transform="matrix(1 -6.799843e-03 6.799843e-03 1 -1.5704 2.6564)" class="st1" width="3.7" height="19"/>
	
		<rect x="383.1" y="202.6" transform="matrix(1 -6.799843e-03 6.799843e-03 1 -1.4331 2.6222)" class="st1" width="3.7" height="19"/>
	
		<rect x="387.6" y="202.7" transform="matrix(1 -6.799843e-03 6.799843e-03 1 -1.434 2.6533)" class="st1" width="3.7" height="19"/>
	<path class="st1" d="M332.8,200.2l-11.9,2.1v3.9l-12.9,2.4l-1.8-3.6l-4,0.7l-31.4,7.3l-4.2,1.2c0.6,1.9,1.5,4.7,1.5,4.7l9.2,1.1
		l6.4,24.7l-7.7,6l1.1,3.7l36.5-10.1l0.2-5.7l12.7-2.5l2.3,5.2l3.8-0.6l10.6,0.1l-5.5-41.2L332.8,200.2z"/>
	<path class="st1" d="M240.9,242.5c-2.8-9.3,6-11.1,6-11.1l-3.3-10.9l-3.7,1l-31.2,11l-16.3,6.6v2.7l-14.7,6.1v29.2h14.1l12.1-4.8
		l5.1,4.8l31-11.5l16.1-5l-3.7-11.7C252.3,248.9,243.8,251.8,240.9,242.5z"/>
	<polygon class="st1" points="659.8,242.1 659.8,239.2 643.5,232.9 612.6,221.6 608.4,220.5 605.6,230.3 612,242.7 599.3,249.7 
		596,260.6 612.4,265.6 643.4,277.1 648.3,271.8 660.2,277.1 674.2,277.1 674.2,248.3 	"/>
	<rect x="170.2" y="247.8" class="st1" width="7.4" height="29.3"/>
	<polygon class="st1" points="567.6,243.1 572.3,222 583.8,219.4 585.6,214.1 581.4,213 550.4,205.8 546.2,204.9 544.2,208.5 
		531.8,206.1 531.2,202.2 519.2,200.2 514.9,199.7 508.7,241.1 522.9,241.1 525.6,235.9 538.2,238.6 538.7,244.3 574.9,254.3 
		575.8,250.6 	"/>
	<path class="st1" d="M488.2,196.1l-31.1-2.1l-31.2-0.8l-30.7,0.8l-0.4,12.1l-14.2,2.2l-4.2-13.1l-12.5,1l-14.2,1.8
		c0.9,7.3,4.9,34,6.2,42.9l22.9,0.1l1.6-7.5h14.2l0.3,7.8l7.3,0c0.2-13.1,10.8-23.6,23.9-23.6c13.1,0,23.7,10.5,23.9,23.5l46.3-0.1
		l6.5-43.1L488.2,196.1z"/>
	<rect x="417.6" y="334" class="st1" width="8.9" height="8.5"/>
	<rect x="417.6" y="342.5" class="st1" width="8.9" height="8.5"/>
	<rect x="417.6" y="351" class="st1" width="8.9" height="8.5"/>
	<rect x="417.6" y="359.5" class="st1" width="8.9" height="8.5"/>
	<rect x="798.7" y="423" class="st1" width="8.6" height="8.6"/>
	<rect x="798.7" y="431.6" class="st1" width="8.6" height="8.6"/>
	
		<rect x="169.9" y="402.3" transform="matrix(4.499954e-03 -1 1 4.499954e-03 -241.6326 582.4278)" class="st1" width="3.7" height="20.6"/>
	
		<rect x="149.6" y="402.6" transform="matrix(4.499954e-03 -1 1 4.499954e-03 -262.1432 562.4343)" class="st1" width="3.7" height="20.6"/>
	
		<rect x="274" y="402.3" transform="matrix(4.499954e-03 -1 1 4.499954e-03 -137.9319 686.5942)" class="st1" width="3.7" height="20.6"/>
	
		<rect x="295.1" y="402.3" transform="matrix(4.499954e-03 -1 1 4.499954e-03 -116.9442 707.6771)" class="st1" width="3.7" height="20.6"/>
	
		<rect x="273.3" y="386" transform="matrix(4.499954e-03 -1 1 4.499954e-03 -122.3167 669.6367)" class="st1" width="3.7" height="20.6"/>
	
		<rect x="294.6" y="386.4" transform="matrix(4.499954e-03 -1 1 4.499954e-03 -101.527 691.3731)" class="st1" width="3.7" height="20.6"/>
	
		<rect x="150.2" y="386.4" transform="matrix(4.799945e-03 -1 1 4.799945e-03 -245.719 547.0961)" class="st1" width="3.7" height="21.3"/>
	
		<rect x="171.5" y="386.4" transform="matrix(4.799945e-03 -1 1 4.799945e-03 -224.5261 568.3896)" class="st1" width="3.7" height="21.3"/>
	<rect x="635.6" y="321.1" class="st1" width="8.6" height="8.6"/>
	<rect x="633.5" y="310.8" class="st1" width="10.7" height="10.3"/>
	<rect x="635.6" y="329.7" class="st1" width="8.6" height="8.6"/>
	
		<rect x="563.4" y="222.9" transform="matrix(0.2352 -0.9719 0.9719 0.2352 213.6185 724.7153)" class="st1" width="7.8" height="7.5"/>
	
		<rect x="561.5" y="230.5" transform="matrix(0.2352 -0.9719 0.9719 0.2352 204.8112 728.7463)" class="st1" width="7.8" height="7.5"/>
	<polygon class="st1" points="80.8,238.8 113,238.8 113,214.1 154.8,214.1 154.8,151.5 178.6,151.5 178.6,119.9 44.3,119.9 
		44.3,229.6 80.8,229.6 	"/>
</g>
<g id="rooms">
	<rect id="k306" x="674.2" y="248.3" class="st2" width="6.5" height="28.8"/>
	<rect id="r320-2" x="704.4" y="265.6" class="st2" width="94.6" height="12.3"/>
	<polygon id="r322" class="st2" points="704.5,299.2 673.8,299.2 673.7,311.6 673.7,311.6 737.2,311.6 737.2,311.6 737.5,299.2 	"/>
	<polygon id="_x33_21" class="st2" points="799,284.4 704.5,284.4 704.5,299.2 737.5,299.2 737.2,311.6 799,311.6 	"/>
	<path id="r318" class="st2" d="M732.3,178.3c-8.6-10.8-14.7-21.6-18.8-30.7l-8.5,3.9h-31.9v67.3h18.2v13.7h13.2V200L732.3,178.3z"
		/>
	<path id="r309" class="st2" d="M365.1,119.9v62.7c9.5-1,19.4-1.8,29.6-2.4v-60.3C394.8,119.9,365.1,119.9,365.1,119.9z"/>
	<path id="r310" class="st2" d="M394.8,119.9v60.3l27.7-0.9l-0.3-23.4h3.7v-36L394.8,119.9L394.8,119.9z"/>
	<path id="r306-3" class="st2" d="M287.8,119.9v75.2c4.7-1,9.7-2.1,15.1-3.2v-72.1H287.8z"/>
	<path id="r306-1-306-2" class="st2" d="M271.5,119.9v31.6v47.4c4.7-1.2,10.2-2.5,16.2-3.8v-75.2L271.5,119.9L271.5,119.9z"/>
	<path id="r305" class="st2" d="M250.5,151.5v53.2c0,0,7.6-2.4,21-5.7v-47.4H250.5z"/>
	<path id="r307" class="st2" d="M302.9,119.9V192c9.3-1.8,19.7-3.7,30.9-5.4v-66.7L302.9,119.9L302.9,119.9z"/>
	<path id="r312" class="st2" d="M456.5,119.9v60.3c10.5,0.6,20.9,1.5,30.9,2.5v-62.8L456.5,119.9L456.5,119.9z"/>
	<polygon id="r317-1" class="st2" points="612,152 612,157 612,207 627.8,207 627.8,152 	"/>
	<rect id="r317-2" x="627.8" y="152" class="st2" width="16.1" height="55"/>
	<rect id="r317-3" x="643.9" y="152" class="st2" width="20.8" height="55"/>
	<path id="r314-315" class="st2" d="M580.7,119.9h-62v66.9c24.5,3.7,45.9,8.2,62,12.1V157V119.9z"/>
	<path id="r313" class="st2" d="M487.4,119.9v62.8c10.8,1.1,21.3,2.5,31.2,4v-66.9H487.4z"/>
	<path id="r311-1" class="st2" d="M442.8,119.9h-16.9v36c0.1,0,2.9,0,2.9,0l0.1,23.6h13.9V119.9L442.8,119.9z"/>
	<path id="r316" class="st2" d="M580.7,157v41.8c19.4,4.6,31,8.2,31,8.2h0.3v-50H580.7z"/>
	<path id="r328-2" class="st2" d="M426,270.5v41.1h0.5v1.3h15.6v-48.2C437.6,268.2,432.1,270.4,426,270.5z"/>
	<rect id="r331-2_1_" x="331.9" y="258.5" class="st2" width="15.8" height="53.1"/>
	<rect id="r331-1" x="347.6" y="258.5" class="st2" width="15.5" height="53.1"/>
	<rect id="r330-1" x="378.8" y="258.5" class="st2" width="15.8" height="53.1"/>
	<path id="r329" class="st2" d="M425.6,270.5c-9.3,0-17.4-4.8-22.1-12h-9v53.1H426v-41.1C425.9,270.5,425.7,270.5,425.6,270.5z"/>
	<rect id="r330-2" x="363.1" y="258.5" class="st2" width="15.6" height="53.1"/>
	<path id="r334" class="st2" d="M254.5,274.3c0,0.5,0,25.4,0,37.2h15.3v-37.2C269.8,274.3,254.5,273.7,254.5,274.3z"/>
	<polygon id="r332-1" class="st2" points="316.8,258.5 316.8,262.2 316.8,311.6 331.9,311.6 331.9,258.5 	"/>
	<polygon id="r333" class="st2" points="269.8,270 269.8,274.3 269.8,311.6 301.2,311.6 301.2,270 	"/>
	<polygon id="r332-2" class="st2" points="301.2,262.2 301.2,270 301.2,311.6 316.8,311.6 316.8,262.2 	"/>
	<path id="r328-1" class="st2" d="M447.7,258.5c-1.5,2.4-3.5,4.4-5.6,6.2v48.2h15.5l0.4-54.4H447.7z"/>
	<polygon id="r324-1" class="st2" points="566.8,271.8 551.2,271.8 551.2,312.9 566.8,312.9 566.8,312.9 566.8,271.8 	"/>
	<polygon id="r324-2_1_" class="st2" points="582.3,271.8 566.8,271.8 566.8,312.9 582.3,312.9 582.3,312.9 582.3,271.8 	"/>
	<rect id="r323-2" x="596.5" y="285.7" class="st2" width="16.9" height="27.2"/>
	<polygon id="r323-1" class="st2" points="627,299.2 627,285.7 613.4,285.7 613.4,312.9 633.7,312.9 633.7,311.6 644.2,311.6 
		644.2,299.2 	"/>
	<polygon id="r323-3" class="st2" points="596.5,274.7 582.3,274.7 582.3,312.9 596.5,312.9 596.5,285.7 	"/>
	<polygon id="r326" class="st2" points="518.9,258.5 488.8,258.5 488.8,312.9 518.9,312.9 	"/>
	<polygon id="r327-1-327-2" class="st2" points="458,258.5 457.6,312.9 457.6,312.9 488.8,312.9 488.8,258.5 	"/>
	<polygon id="r325-2" class="st2" points="518.9,263.5 518.9,312.9 536,312.9 536,263.5 	"/>
	<polygon id="r325-1" class="st2" points="551.2,263.5 536,263.5 536,312.9 551.2,312.9 551.2,271.8 	"/>
	<path id="r340-341-1" class="st2" d="M51.3,311.6h23.8V296h-6.9v-23.6c-5.5,0-11.8,0-16.9,0V311.6z"/>
	<rect id="r337" x="121.5" y="296" class="st2" width="24.9" height="15.6"/>
	<path id="r338" class="st2" d="M121.5,311.6V296H95.8c0,4.2,0,11.5,0,15.6H121.5z"/>
	<path id="r335" class="st2" d="M170.2,311.6H193v-13.1h-22.7C170.3,302.1,170.2,308.7,170.2,311.6z"/>
	<path id="r336" class="st2" d="M170.2,311.6c0-2.9,0.1-9.5,0.1-13.1h-6.6V296h-17.2v15.6H170.2z"/>
	<path id="r339" class="st2" d="M95.8,311.6c0-4.1,0-11.4,0-15.6H75.1v15.6H95.8z"/>
	<path id="r341-2" class="st2" d="M44.3,229.6v29.1h7v13.7c5.2,0,11.4,0,16.9,0v-22.2v-20.6H44.3z"/>
	<polygon id="r344" class="st2" points="113,229.9 113,238.8 99.9,238.8 99.9,250.2 118.6,250.2 118.6,229.9 	"/>
	<rect id="r343" x="80.8" y="238.8" class="st2" width="19.2" height="11.5"/>
	<polygon id="r345" class="st2" points="113,214.1 113,229.9 118.6,229.9 118.6,250.2 146.4,250.2 154.8,241.8 154.8,231 
		154.8,214.1 	"/>
	<polygon id="r302" class="st2" points="154.8,151.5 154.8,218.1 162.5,218.1 178.6,218.1 178.6,151.5 	"/>
	<polygon id="r303-1" class="st2" points="178.6,151.5 209.4,151.5 209.4,182.3 193.6,182.3 193.6,218.1 178.6,218.1 	"/>
	<polygon id="r304-3" class="st2" points="240.7,151.5 225.1,151.5 225.1,213 240.7,207.8 	"/>
	<polygon id="r304-2" class="st2" points="209.4,151.5 209.4,218.1 209.8,218.1 225.1,213 225.1,151.5 	"/>
	<rect id="r303-2" x="193.6" y="182.3" class="st2" width="15.8" height="35.9"/>
	<path id="k302" class="st2" d="M243.6,220.5l3.3,10.9c0,0-8.8,1.8-6,11.1s11.4,6.4,11.4,6.4l3.7,11.7l6.3-1.9l-3.6-11.9
		c7.7-10.9-2.2-17-4.3-17.4l-4.3-10.7L243.6,220.5z"/>
	<polygon id="k304" class="st2" points="612,242.7 605.6,230.3 608.4,220.5 601.7,218.6 589.3,258.5 596,260.6 599.3,249.7 	"/>
	<circle class="st2" cx="426.2" cy="242.1" r="13.6"/>
	<path id="r308-1" class="st2" d="M333.8,119.9v66.7c5.1-0.8,10.3-1.5,15.7-2.2l0-32.9h15.7v-31.6H333.8z"/>
	<path id="r308-2" class="st2" d="M365.1,151.5l-15.5-0.3l-0.2,33.2c5.1-0.6,10.3-1.3,15.7-1.8V151.5z"/>
	<path id="r320-1" class="st2" d="M704.5,260.4H799v-18c-9.9,0-34.5,0-94.5,0V260.4z"/>
	<path id="r319" class="st2" d="M732.3,178.3L704.5,200v32.5v9.9c60,0,84.6,0,94.5,0v-19.6C767.7,213.3,746.5,195.9,732.3,178.3z"/>
	<polygon id="r342" class="st2" points="80.8,229.6 68.2,229.6 68.2,250.2 80.8,250.2 80.8,238.8 	"/>
	<polygon id="r311-2" class="st2" points="456.5,180.2 442.8,179.5 442.8,119.9 456.5,119.9 	"/>
</g>
<g id="signs">
	<g id="toilet">
		<rect x="620.8" y="127.2" class="st3" width="14.8" height="14.8"/>
		<rect x="216.9" y="127.2" class="st3" width="14.8" height="14.8"/>
		<rect x="54.5" y="315.2" class="st3" width="14.8" height="14.8"/>
	</g>
	<g id="escalator">
		<rect x="377.9" y="185.8" class="st3" width="14.8" height="14.8"/>
		<rect x="171.2" y="226.8" class="st3" width="14.8" height="14.8"/>
		<rect x="195.7" y="277.4" class="st3" width="14.8" height="14.8"/>
		<rect x="379.4" y="241.4" class="st3" width="14.8" height="14.8"/>
		<rect x="532.5" y="188.3" class="st3" width="14.8" height="14.8"/>
		<rect x="522.8" y="241.4" class="st3" width="14.8" height="14.8"/>
		<rect x="663.5" y="223.9" class="st3" width="14.8" height="14.8"/>
		<rect x="643.2" y="278.2" class="st3" width="14.8" height="14.8"/>
		<rect x="155.2" y="398.9" class="st3" width="14.8" height="14.8"/>
		<rect x="279.3" y="398.9" class="st3" width="14.8" height="14.8"/>
	</g>
	<g id="entrance">
		<rect x="438.6" y="398.9" class="st3" width="14.8" height="14.8"/>
		<rect x="652.6" y="347.8" class="st3" width="14.8" height="14.8"/>
	</g>
	<g id="lift">
		<rect x="266" y="226.4" class="st3" width="14.8" height="14.8"/>
		<rect x="574.6" y="226.8" class="st3" width="14.8" height="14.8"/>
		<rect x="398.8" y="343.6" class="st3" width="14.8" height="14.8"/>
		<rect x="47.1" y="468.6" class="st3" width="14.8" height="14.8"/>
		<rect x="646.1" y="318" class="st3" width="14.8" height="14.8"/>
	</g>
	<rect id="parking" x="604.1" y="419.9" class="st3" width="14.8" height="14.8"/>
</g>
</svg>
