<?xml version="1.0" encoding="utf-8"?>
<!-- Generator: Adobe Illustrator 16.0.0, SVG Export Plug-In . SVG Version: 6.00 Build 0)  -->
<!DOCTYPE svg PUBLIC "-//W3C//DTD SVG 1.1//EN" "http://www.w3.org/Graphics/SVG/1.1/DTD/svg11.dtd">
<svg version="1.1" id="Layer_1" xmlns="http://www.w3.org/2000/svg" xmlns:xlink="http://www.w3.org/1999/xlink" x="0px" y="0px"
	 width="841.89px" height="595.281px" viewBox="0 0 841.89 595.281" enable-background="new 0 0 841.89 595.281"
	 xml:space="preserve">
<g id="background">
	<rect fill="#FFFFFF" width="841.89" height="595.281"/>
</g>
<g id="etc">
	<polygon fill="#BFBFBF" stroke="#49494A" stroke-width="0.66" stroke-miterlimit="10" points="705.333,287.333 705.333,153 
		580.853,153 580.853,123.732 580.853,84.157 301.333,84.157 301.333,100.667 179,100.667 179,125.333 168,125.333 168,258.765 
		51.263,258.765 51.263,511.726 252.254,511.726 252.254,516.763 310.059,516.763 310.059,511.726 393.716,511.726 393.716,531.017 
		456.558,531.017 456.558,538.175 765.333,538.175 765.333,287.333 	"/>
	<polygon fill="#BFBFBF" stroke="#49494A" stroke-width="0.66" stroke-miterlimit="10" points="543.253,202.636 616.693,202.636 
		616.693,261.182 602.57,261.182 572.271,252.708 571.757,254.891 543.253,247.701 	"/>
	
		<rect x="596.035" y="223.596" transform="matrix(-0.9695 -0.2453 0.2453 -0.9695 1119.0903 615.4379)" fill="#BFBFBF" stroke="#49494A" stroke-width="0.66" stroke-miterlimit="10" width="3.671" height="28.866"/>
	
		<rect x="600.41" y="224.982" transform="matrix(-0.9695 -0.2453 0.2453 -0.9695 1127.3669 619.2391)" fill="#BFBFBF" stroke="#49494A" stroke-width="0.66" stroke-miterlimit="10" width="3.671" height="28.866"/>
	
		<rect x="246.706" y="224.549" transform="matrix(-0.9689 0.2476 -0.2476 -0.9689 548.5161 408.9825)" fill="#BFBFBF" stroke="#49494A" stroke-width="0.66" stroke-miterlimit="10" width="3.67" height="28.866"/>
	
		<rect x="251.207" y="223.687" transform="matrix(-0.9688 0.2477 -0.2477 -0.9688 557.1858 406.1331)" fill="#BFBFBF" stroke="#49494A" stroke-width="0.66" stroke-miterlimit="10" width="3.67" height="28.868"/>
	<polygon fill="#BFBFBF" stroke="#49494A" stroke-width="0.66" stroke-miterlimit="10" points="229.311,207.418 283.716,207.418 
		291.13,237.847 291.13,273.475 229.311,273.475 	"/>
	
		<rect x="279.605" y="222.491" transform="matrix(-0.2468 -0.9691 0.9691 -0.2468 134.2316 556.8279)" fill="#BFBFBF" stroke="#49494A" stroke-width="0.66" stroke-miterlimit="10" width="7.832" height="7.511"/>
	
		<rect x="281.54" y="230.052" transform="matrix(-0.2469 -0.969 0.969 -0.2469 129.3577 568.1484)" fill="#BFBFBF" stroke="#49494A" stroke-width="0.66" stroke-miterlimit="10" width="7.83" height="7.51"/>
	
		<rect x="417.626" y="334.044" fill="#BFBFBF" stroke="#49494A" stroke-width="0.66" stroke-miterlimit="10" width="8.858" height="8.472"/>
	
		<rect x="417.626" y="342.516" fill="#BFBFBF" stroke="#49494A" stroke-width="0.66" stroke-miterlimit="10" width="8.858" height="8.476"/>
	
		<rect x="417.626" y="350.99" fill="#BFBFBF" stroke="#49494A" stroke-width="0.66" stroke-miterlimit="10" width="8.858" height="8.475"/>
	
		<rect x="417.626" y="359.464" fill="#BFBFBF" stroke="#49494A" stroke-width="0.66" stroke-miterlimit="10" width="8.858" height="8.475"/>
	
		<rect x="495" y="282.167" fill="#BFBFBF" stroke="#49494A" stroke-width="0.66" stroke-miterlimit="10" width="13.168" height="58.333"/>
	
		<rect x="477" y="313.333" fill="#BFBFBF" stroke="#49494A" stroke-width="0.66" stroke-miterlimit="10" width="18" height="21.834"/>
	
		<rect x="635.566" y="321.074" fill="#BFBFBF" stroke="#49494A" stroke-width="0.66" stroke-miterlimit="10" width="8.602" height="8.604"/>
	
		<rect x="633.513" y="310.804" fill="#BFBFBF" stroke="#49494A" stroke-width="0.66" stroke-miterlimit="10" width="10.654" height="10.271"/>
	
		<rect x="635.566" y="329.677" fill="#BFBFBF" stroke="#49494A" stroke-width="0.66" stroke-miterlimit="10" width="8.602" height="8.601"/>
	<polygon fill="#BFBFBF" stroke="#49494A" stroke-width="0.66" stroke-miterlimit="10" points="168,125.333 179,125.333 
		179,100.667 301.333,100.667 301.333,84.157 44.302,84.157 44.302,258.765 51.263,258.765 168,258.765 	"/>
	<path fill="#BFBFBF" stroke="#49494A" stroke-width="0.66" stroke-miterlimit="10" d="M799.013,419.253V222.769
		c-79.35-23.864-93.668-99.037-93.668-99.037H580.853V153h124.48v134.333h60v250.842h33.082v-95.061h10.143v-23.863h-9.545V419.253z
		"/>
	
		<rect x="563.063" y="222.582" transform="matrix(0.2352 -0.972 0.972 0.2352 213.6477 724.1846)" fill="#BFBFBF" stroke="#49494A" stroke-width="0.66" stroke-miterlimit="10" width="7.831" height="7.511"/>
	
		<rect x="561.212" y="230.191" transform="matrix(0.2352 -0.972 0.972 0.2352 204.853 728.2147)" fill="#BFBFBF" stroke="#49494A" stroke-width="0.66" stroke-miterlimit="10" width="7.832" height="7.509"/>
	
		<rect x="230.563" y="208.67" fill="#BFBFBF" stroke="#49494A" stroke-width="0.66" stroke-miterlimit="10" width="12.614" height="19.066"/>
	
		<rect x="236.437" y="260.283" fill="#BFBFBF" stroke="#49494A" stroke-width="0.66" stroke-miterlimit="10" width="25.325" height="12.037"/>
	
		<rect x="261.761" y="260.283" fill="#BFBFBF" stroke="#49494A" stroke-width="0.66" stroke-miterlimit="10" width="24.458" height="12.037"/>
</g>
<g id="rooms">
	<polygon id="b2202" fill="#929497" stroke="#49494A" stroke-width="0.5" stroke-miterlimit="10" points="580.486,246.16 
		591.849,249.434 596.214,233.706 584.853,230.432 	"/>
	<polygon id="b2201" fill="#929497" stroke="#49494A" stroke-width="0.5" stroke-miterlimit="10" points="273.38,208.67 
		283.074,208.67 285.642,219.391 276.462,220.354 	"/>
	
		<rect id="b2203" x="486.333" y="467.833" fill="#929497" stroke="#49494A" stroke-width="0.5" stroke-miterlimit="10" width="126" height="32.168"/>
</g>
<g id="signs">
	<g id="escalator">
		<rect x="244.223" y="208.67" opacity="0.8" fill="#231F20" enable-background="new    " width="14.811" height="14.811"/>
		<rect x="594.839" y="207.106" opacity="0.8" fill="#231F20" enable-background="new    " width="14.811" height="14.811"/>
	</g>
	<g id="lift">
		<rect x="569.728" y="224.504" opacity="0.8" fill="#231F20" enable-background="new    " width="14.812" height="14.811"/>
		<rect x="265.975" y="226.414" opacity="0.8" fill="#231F20" enable-background="new    " width="14.811" height="14.811"/>
		<rect x="398.095" y="343.585" opacity="0.8" fill="#231F20" enable-background="new    " width="14.812" height="14.811"/>
		<rect x="647.095" y="316.845" opacity="0.8" fill="#231F20" enable-background="new    " width="14.811" height="14.811"/>
	</g>
	
		<rect id="parking" x="393.487" y="310.565" opacity="0.8" fill="#231F20" enable-background="new    " width="14.811" height="14.812"/>
</g>
</svg>
