<?xml version="1.0" encoding="utf-8"?>
<!-- Generator: Adobe Illustrator 16.0.3, SVG Export Plug-In . SVG Version: 6.00 Build 0)  -->
<!DOCTYPE svg PUBLIC "-//W3C//DTD SVG 1.1//EN" "http://www.w3.org/Graphics/SVG/1.1/DTD/svg11.dtd">
<svg version="1.1" xmlns="http://www.w3.org/2000/svg" xmlns:xlink="http://www.w3.org/1999/xlink" x="0px" y="0px"
	 width="841.89px" height="595.28px" viewBox="0 0 841.89 595.28" enable-background="new 0 0 841.89 595.28" xml:space="preserve">
<g id="Original" display="none">
	
		<image display="inline" overflow="visible" width="4806" height="3455" xlink:href="Floorplan/6.jpg"  transform="matrix(0.1651 0 0 0.1655 27.7285 21.748)">
	</image>
</g>
<g id="Background">
	<rect fill="#FFFFFF" width="841.89" height="595.28"/>
</g>
<g id="ETC">
	<path fill="none" stroke="#ED1C24" stroke-width="0.5" stroke-miterlimit="10" d="M442.834,391.333v-5.166h-15.167V310h-28.333
		v-13.667h-2.667v-26.636c-2.289-0.196-4.753-0.367-7.333-0.516v13.985H332.5V319v179.833h62.167l-0.951,12.893v19.291H427V432h21
		v-40.667H442.834z"/>
	<polygon fill="none" stroke="#ED1C24" stroke-width="0.5" stroke-miterlimit="10" points="508.167,241 545.333,246.5 
		555.5,206.167 514.333,197.667 	"/>
	<polygon fill="none" stroke="#ED1C24" stroke-width="0.5" stroke-miterlimit="10" points="610.833,252.75 596.167,252.75 
		590.167,258.917 585.084,258.917 585.084,251.75 582.167,251.75 592.001,214.917 610.833,219.833 	"/>
	<polygon fill="none" stroke="#ED1C24" stroke-width="0.5" stroke-miterlimit="10" points="557.084,241.083 576.584,245.833 
		582.834,221.083 563.251,216.083 	"/>
	<polygon fill="none" stroke="#ED1C24" stroke-width="0.5" stroke-miterlimit="10" points="610.833,123.732 580.853,123.732 
		580.853,119.889 348.833,119.889 348.833,151.833 337.833,151.833 337.833,178.25 610.833,178.25 	"/>
	<path fill="none" stroke="#ED1C24" stroke-width="0.5" stroke-miterlimit="10" d="M349.333,196.667c-0.167,0.5,0,43,0,43h147.833
		l6.167-43l-77.037-4.333L349.333,196.667z"/>
	<polygon fill="none" stroke="#ED1C24" stroke-width="0.5" stroke-miterlimit="10" points="294.5,206.667 334.167,199.333 
		341.333,239.667 306.167,246.5 	"/>
	
		<rect x="313.68" y="204.336" transform="matrix(0.9789 -0.2044 0.2044 0.9789 -39.492 69.2752)" fill="none" stroke="#ED1C24" stroke-width="0.5" stroke-miterlimit="10" width="3.671" height="42.85"/>
	
		<rect x="318.995" y="203.165" transform="matrix(0.9789 -0.2044 0.2044 0.9789 -39.1403 70.3371)" fill="none" stroke="#ED1C24" stroke-width="0.5" stroke-miterlimit="10" width="3.671" height="42.85"/>
	
		<rect x="600.188" y="221.167" fill="none" stroke="#ED1C24" stroke-width="0.5" stroke-miterlimit="10" width="3.875" height="34.833"/>
	
		<rect x="604.688" y="221.167" fill="none" stroke="#ED1C24" stroke-width="0.5" stroke-miterlimit="10" width="3.875" height="34.833"/>
	<polygon fill="none" stroke="#ED1C24" stroke-width="0.5" stroke-miterlimit="10" points="556.416,393.771 511.333,393.771 
		511.333,412.333 515.625,416.625 515.625,427.416 510.916,427.416 510.916,429.167 556.416,429.167 556.416,423.5 551.416,420.083 
		551.333,408.666 556.416,405.667 	"/>
	
		<rect x="533.666" y="409.666" fill="none" stroke="#ED1C24" stroke-width="0.5" stroke-miterlimit="10" width="22.75" height="5.5"/>
	
		<rect x="510.916" y="420.083" fill="none" stroke="#ED1C24" stroke-width="0.5" stroke-miterlimit="10" width="23.667" height="5.25"/>
	<path fill="none" stroke="#ED1C24" stroke-width="0.5" stroke-miterlimit="10" d="M595.833,429.167v61.5H458.334v-50.834
		c0,0,78.998,0,91.832,0s19.666,1.499,23.5-17.667s4.667-24,4.667-24l-0.167-73.333c0,0,16.167,1.667,26.834-20.333h5.833V178.25
		h-273v0.083h-7.167V193L292,199.667c0,0-7.5,1.667-5,12.667s6.75,26.604,7.25,29.229s-0.563,4.063-3.25,4.75
		s-3.375,1.063-3.375,1.063s2,12.75,4.375,15.813s13.75,11.625,19.188,14.938s7.188,3.688,10.688,3.688V319H332.5v-50.667
		c0,0,54.833-0.833,73.5,2.5S440.334,280.5,455.667,289S499,316.333,499,316.333v111.5L494.667,432H427v99.017h29.559v7.159h145.774
		V435.833h34.834v-6.666H595.833z"/>
	<path fill="none" stroke="#ED1C24" stroke-width="0.5" stroke-miterlimit="10" d="M808.558,443.116v-23.863h-9.545V222.769
		c-79.35-23.864-93.668-99.037-93.668-99.037H580.853v-3.843H44.302v138.875h6.96v171.458c-14.196,6.732-24.017,21.19-24.017,37.948
		c0,16.757,9.82,31.216,24.017,37.949v5.605h200.991v5.038h57.805v-5.038h83.657v19.291h62.843v7.159h285.479
		c5.675,7.785,14.859,12.848,25.229,12.848c10.371,0,19.556-5.063,25.229-12.848h5.919v-16.498c0.037-0.615,0.061-1.238,0.061-1.862
		c0-0.626-0.023-1.248-0.061-1.864v-74.835H808.558z"/>
	<path fill="#939598" stroke="#FFFFFF" stroke-width="0.5" stroke-miterlimit="10" d="M458.334,439.833v50.834H520v-50.834
		C492.885,439.833,458.334,439.833,458.334,439.833z"/>
	<path fill="#939598" stroke="#FFFFFF" stroke-width="0.5" stroke-miterlimit="10" d="M550.166,439.833c-4.346,0-16.282,0-30.166,0
		v50.834h30.5v-50.833C550.388,439.834,550.279,439.833,550.166,439.833z"/>
	<path fill="#939598" stroke="#FFFFFF" stroke-width="0.5" stroke-miterlimit="10" d="M550.5,439.834v50.833h45.333v-61.5
		l-23.723-0.834C568.103,440.855,561.553,439.855,550.5,439.834z"/>
	<path fill="#939598" stroke="#FFFFFF" stroke-width="0.5" stroke-miterlimit="10" d="M505.421,271.604
		c-2.322,3.868-3.659,8.393-3.659,13.232c0,14.221,11.528,25.749,25.749,25.749c11.601,0,21.407-7.672,24.628-18.218
		L505.421,271.604z"/>
	<path fill="#939598" stroke="#FFFFFF" stroke-width="0.5" stroke-miterlimit="10" d="M527.511,259.086
		c-9.382,0-17.589,5.019-22.09,12.517l23.371,10.388l9.289-20.634C534.855,259.903,531.279,259.086,527.511,259.086z"/>
	<polygon fill="#939598" stroke="#FFFFFF" stroke-width="0.5" stroke-miterlimit="10" points="380.083,239.667 380.083,254.187 
		395.417,256.239 395.417,239.667 	"/>
	<polygon fill="#939598" stroke="#FFFFFF" stroke-width="0.5" stroke-miterlimit="10" points="395.417,239.667 395.417,256.239 
		395.5,256.25 410.917,257.512 410.917,239.667 	"/>
	<polygon fill="#939598" stroke="#FFFFFF" stroke-width="0.5" stroke-miterlimit="10" points="410.917,239.667 410.917,257.512 
		426.297,258.771 426.297,239.667 	"/>
	<polygon fill="#939598" stroke="#FFFFFF" stroke-width="0.5" stroke-miterlimit="10" points="362,239.667 362,250.375 
		379.625,254.125 380.083,254.187 380.083,239.667 	"/>
	<path fill="#939598" stroke="#FFFFFF" stroke-width="0.5" stroke-miterlimit="10" d="M475.834,239.667v20.009l0.541-0.051
		c0,0,10.625-3,14.75-4.875s6.042-15.083,6.042-15.083H475.834z"/>
	<polygon fill="#939598" stroke="#FFFFFF" stroke-width="0.5" stroke-miterlimit="10" points="457.334,239.667 457.334,261.313 
		457.875,261.357 475.834,259.676 475.834,239.667 	"/>
	<polygon fill="#939598" stroke="#FFFFFF" stroke-width="0.5" stroke-miterlimit="10" points="426.297,239.667 426.297,258.771 
		441.667,260.03 441.667,239.667 	"/>
	<polygon fill="#939598" stroke="#FFFFFF" stroke-width="0.5" stroke-miterlimit="10" points="441.667,239.667 441.667,260.03 
		457.334,261.313 457.334,239.667 	"/>
	
		<rect x="534.083" y="358.375" fill="#939598" stroke="#FFFFFF" stroke-width="0.5" stroke-miterlimit="10" width="22.333" height="35.396"/>
	
		<rect x="511.333" y="358.375" fill="#939598" stroke="#FFFFFF" stroke-width="0.5" stroke-miterlimit="10" width="22.75" height="35.396"/>
	<path fill="#939598" stroke="#FFFFFF" stroke-width="0.5" stroke-miterlimit="10" d="M406,270.833
		c-2.523-0.451-5.712-0.825-9.333-1.135v26.636h2.667V310h28.333l15.442-27.394C431.646,277.302,419.623,273.266,406,270.833z"/>
	<polygon fill="#939598" stroke="#FFFFFF" stroke-width="0.5" stroke-miterlimit="10" points="473,405.667 499,405.667 499,364.334 
		427.667,364.334 427.667,386.167 442.834,386.167 442.834,391.333 448,391.333 473,391.333 	"/>
	<path fill="#939598" stroke="#FFFFFF" stroke-width="0.5" stroke-miterlimit="10" d="M332.5,268.333v14.834h32.667v-14.791
		C347.908,268.1,332.5,268.333,332.5,268.333z"/>
	<path fill="#939598" stroke="#FFFFFF" stroke-width="0.5" stroke-miterlimit="10" d="M332.5,498.833V319h-10.625v-37.188
		c-3.5,0-5.25-0.375-10.688-3.688S294.375,266.25,292,263.188s-4.375-15.813-4.375-15.813s0.688-0.375,3.375-1.063
		s3.75-2.125,3.25-4.75s-4.75-18.229-7.25-29.229s5-12.667,5-12.667L330.667,193v-14.667h7.167v-26.5h11v-31.944H44.302v138.875
		h6.96v171.458c-14.196,6.732-24.017,21.19-24.017,37.948c0,16.757,9.82,31.216,24.017,37.949v5.605h200.991v5.038h57.805v-5.038
		h83.657l0.951-12.893H332.5z"/>
</g>
<g id="Rooms">
	<path id="major-cineplex" fill="#939598" stroke="#FFFFFF" stroke-width="0.5" stroke-miterlimit="10" d="M808.558,443.116v-23.863
		h-9.545V222.769c-79.35-23.864-93.668-99.037-93.668-99.037h-94.512V304.5H605c-10.667,22-26.834,20.333-26.834,20.333l0.018,7.667
		h47.649V346h11.334v83.167v6.666h-34.834v102.343h139.704c5.675,7.785,14.859,12.848,25.229,12.848
		c10.371,0,19.556-5.063,25.229-12.848h5.919v-16.498c0.037-0.615,0.061-1.238,0.061-1.862c0-0.626-0.023-1.248-0.061-1.864v-74.835
		H808.558z"/>
	<path id="r607" fill="#939598" stroke="#FFFFFF" stroke-width="0.5" stroke-miterlimit="10" d="M637.167,384.25h-58.865
		l0.031,13.916c0,0-0.833,4.834-4.667,24c-0.471,2.355-0.988,4.395-1.556,6.167l23.723,0.834h41.334V384.25z"/>
	<polygon id="r606" fill="#939598" stroke="#FFFFFF" stroke-width="0.5" stroke-miterlimit="10" points="637.167,346 625.833,346 
		625.833,332.5 578.184,332.5 578.302,384.25 637.167,384.25 	"/>
	<path id="r614" fill="#939598" stroke="#FFFFFF" stroke-width="0.5" stroke-miterlimit="10" d="M499,316.333
		c0,0-28-18.833-43.333-27.333c-4.144-2.297-8.313-4.429-12.558-6.393L427.667,310v28.563L499,337.458V316.333z"/>
	<polygon id="r611" fill="#939598" stroke="#FFFFFF" stroke-width="0.5" stroke-miterlimit="10" points="473,405.667 473,391.333 
		448,391.333 448,432 494.667,432 499,427.833 499,405.667 	"/>
	<polygon id="r613" fill="#939598" stroke="#FFFFFF" stroke-width="0.5" stroke-miterlimit="10" points="499,337.458 
		427.667,338.563 427.667,364.334 499,364.334 	"/>
	<path id="k601-2" fill="#939598" stroke="#FFFFFF" stroke-width="0.5" stroke-miterlimit="10" d="M553.261,284.836
		c0-10.453-6.231-19.444-15.18-23.479l-9.289,20.634l23.347,10.376C552.866,289.984,553.261,287.457,553.261,284.836z"/>
	<path id="r616" fill="#939598" stroke="#FFFFFF" stroke-width="0.5" stroke-miterlimit="10" d="M389.333,269.182
		c-7.527-0.433-16.05-0.676-24.167-0.806v14.791h24.167V269.182z"/>
</g>
<g id="Signs">
	<g id="escalator">
		<rect x="592.782" y="254.187" opacity="0.8" width="14.811" height="14.811"/>
		<rect x="317.917" y="246.781" opacity="0.8" width="14.811" height="14.811"/>
	</g>
	<rect id="toilet" x="438.417" y="439.833" opacity="0.8" width="14.811" height="14.811"/>
</g>
</svg>
