<?xml version="1.0" encoding="utf-8"?>
<!-- Generator: Adobe Illustrator 16.0.0, SVG Export Plug-In . SVG Version: 6.00 Build 0)  -->
<!DOCTYPE svg PUBLIC "-//W3C//DTD SVG 1.1//EN" "http://www.w3.org/Graphics/SVG/1.1/DTD/svg11.dtd">
<svg version="1.1" id="Layer_1" xmlns="http://www.w3.org/2000/svg" xmlns:xlink="http://www.w3.org/1999/xlink" x="0px" y="0px"
	 width="841.89px" height="595.281px" viewBox="0 0 841.89 595.281" enable-background="new 0 0 841.89 595.281"
	 xml:space="preserve">
<g id="background">
	<rect x="0.5" y="-0.167" fill="#FFFFFF" width="841.89" height="595.281"/>
</g>
<g id="etc">
	<path fill="#BFBFBF" stroke="#49494A" stroke-width="0.66" stroke-miterlimit="10" d="M808.558,443.117v-23.862h-9.545V222.769
		c-79.35-23.864-93.668-99.037-93.668-99.037H580.853v-3.843H44.302v138.875h6.96v171.458
		c-14.196,6.731-24.017,21.188-24.017,37.947c0,16.758,9.82,31.217,24.017,37.948v5.605h200.991v5.037h57.805v-5.037h83.657v19.291
		h62.843v7.158h285.479c5.676,7.785,14.859,12.85,25.229,12.85c10.371,0,19.559-5.064,25.23-12.85h5.918v-16.498
		c0.037-0.615,0.061-1.236,0.061-1.861s-0.02-1.248-0.061-1.863v-74.836h10.145V443.117L808.558,443.117z"/>
	<path fill="#BFBFBF" stroke="#49494A" stroke-width="0.66" stroke-miterlimit="10" d="M633.833,311.001h-115v1.501l0,0L458,312.503
		h-31.332v218.516h29.891v7.158h285.48c5.674,7.785,14.857,12.85,25.229,12.85c10.373,0,19.559-5.063,25.23-12.85h5.92v-16.498
		c0.037-0.615,0.061-1.236,0.061-1.861s-0.023-1.248-0.061-1.863v-74.836h10.143v-23.862h-9.545V311.001h-0.002h-62.012l0,0l0,0
		h-62.668H633.833"/>
	<path fill="#BFBFBF" stroke="#49494A" stroke-width="0.66" stroke-miterlimit="10" d="M51.263,311.001v119.223
		c-14.196,6.731-24.017,21.19-24.017,37.949c0,16.756,9.82,31.215,24.017,37.948v5.604h200.991v5.039h57.805v-5.039h83.657v19.291
		h32.952V311.001H51.263z"/>
	<polygon fill="#BFBFBF" stroke="#49494A" stroke-width="0.66" stroke-miterlimit="10" points="321.084,201.833 320.584,205.75 
		308.417,208.333 306.501,204.563 271.084,212.583 267.009,213.79 268.25,218.001 278.834,219.917 284.584,243.167 276,250.25 
		277.08,253.869 313.667,243.917 314.333,238.083 326.75,235.5 329.167,240.667 343.258,240.619 337.677,199.333 	"/>
	<path fill="#BFBFBF" stroke="#49494A" stroke-width="0.66" stroke-miterlimit="10" d="M241.084,241.583
		c-2.5-9.833,6.417-10.75,6.417-10.75l-3.133-10.345l-3.701,1.095l-31.666,10.75l-16.25,6.583l-0.417,2.583l-14.168,6.25v29.083h14
		l12-5.167l4.667,5.167l31.25-11.583l16.368-5.147l-3.785-12.187C252.667,247.917,243.584,251.417,241.084,241.583z"/>
	<polygon fill="#BFBFBF" stroke="#49494A" stroke-width="0.66" stroke-miterlimit="10" points="660.083,241.417 660.001,238.833 
		643.667,232.417 612.583,221.667 608.457,220.477 605.583,229.667 613.083,242.417 599.583,249.083 596.058,260.164 
		613.083,265.417 643.751,276.833 648.751,271.667 660.583,276.833 675.001,276.833 675.001,248 	"/>
	<path fill="#BFBFBF" stroke="#49494A" stroke-width="0.66" stroke-miterlimit="10" d="M568.083,243.083l5.668-22.833l10.416-1.25
		c0,0,1.061-3.328,1.604-5.065l-4.104-1.185l-31.166-7.417l-4.25-0.666l-1.75,3.5l-12.5-2.333l-0.418-3.917l-16.5-2.583
		l-0.021-0.003l-5.857,40.995l11.965,0.008l2.25,0.583l2.582-5.333l12.418,2.667l0.832,5.583l35.75,9.833l0.053,0.017l0.947-3.351
		L568.083,243.083z"/>
	
		<rect x="279.922" y="222.789" transform="matrix(0.2468 0.9691 -0.9691 0.2468 433.3182 -104.4274)" fill="#BFBFBF" stroke="#49494A" stroke-width="0.66" stroke-miterlimit="10" width="7.832" height="7.511"/>
	
		<rect x="281.842" y="230.372" transform="matrix(0.2469 0.969 -0.969 0.2469 442.0909 -100.5855)" fill="#BFBFBF" stroke="#49494A" stroke-width="0.66" stroke-miterlimit="10" width="7.83" height="7.51"/>
	
		<rect x="563.389" y="222.865" transform="matrix(-0.2352 0.972 -0.972 -0.2352 920.9807 -271.4813)" fill="#BFBFBF" stroke="#49494A" stroke-width="0.66" stroke-miterlimit="10" width="7.832" height="7.511"/>
	
		<rect x="561.548" y="230.478" transform="matrix(-0.2351 0.972 -0.972 -0.2351 926.0908 -260.3009)" fill="#BFBFBF" stroke="#49494A" stroke-width="0.66" stroke-miterlimit="10" width="7.833" height="7.51"/>
	
		<rect x="798.671" y="423.002" fill="#BFBFBF" stroke="#49494A" stroke-width="0.66" stroke-miterlimit="10" width="8.604" height="8.602"/>
	
		<rect x="798.671" y="431.603" fill="#BFBFBF" stroke="#49494A" stroke-width="0.66" stroke-miterlimit="10" width="8.604" height="8.602"/>
	
		<rect x="169.875" y="402.282" transform="matrix(0.0045 -1 1 0.0045 -241.6363 582.4183)" fill="#BFBFBF" stroke="#49494A" stroke-width="0.66" stroke-miterlimit="10" width="3.671" height="20.586"/>
	
		<rect x="149.578" y="402.587" transform="matrix(0.0044 -1 1 0.0044 -262.127 562.4804)" fill="#BFBFBF" stroke="#49494A" stroke-width="0.66" stroke-miterlimit="10" width="3.672" height="20.587"/>
	
		<rect x="274.044" y="402.281" transform="matrix(0.0045 -1 1 0.0045 -137.9384 686.5852)" fill="#BFBFBF" stroke="#49494A" stroke-width="0.66" stroke-miterlimit="10" width="3.671" height="20.586"/>
	
		<rect x="295.127" y="402.281" transform="matrix(0.0045 -1 1 0.0045 -116.9512 707.6675)" fill="#BFBFBF" stroke="#49494A" stroke-width="0.66" stroke-miterlimit="10" width="3.67" height="20.586"/>
	
		<rect x="273.333" y="385.96" transform="matrix(0.0045 -1 1 0.0045 -122.3225 669.6287)" fill="#BFBFBF" stroke="#49494A" stroke-width="0.66" stroke-miterlimit="10" width="3.673" height="20.586"/>
	
		<rect x="294.646" y="386.386" transform="matrix(0.0044 -1 1 0.0044 -101.4951 691.4173)" fill="#BFBFBF" stroke="#49494A" stroke-width="0.66" stroke-miterlimit="10" width="3.671" height="20.587"/>
	
		<rect x="150.171" y="386.36" transform="matrix(0.0048 -1 1 0.0048 -245.718 547.0991)" fill="#BFBFBF" stroke="#49494A" stroke-width="0.66" stroke-miterlimit="10" width="3.668" height="21.277"/>
	
		<rect x="171.464" y="386.36" transform="matrix(0.0048 -1 1 0.0048 -224.5247 568.3939)" fill="#BFBFBF" stroke="#49494A" stroke-width="0.66" stroke-miterlimit="10" width="3.67" height="21.277"/>
	
		<rect x="529.787" y="221.758" transform="matrix(0.9776 0.2104 -0.2104 0.9776 60.5444 -106.6597)" fill="#BFBFBF" stroke="#49494A" stroke-width="0.66" stroke-miterlimit="10" width="3.672" height="18.998"/>
	
		<rect x="534.282" y="222.922" transform="matrix(0.9775 0.2107 -0.2107 0.9775 61.0162 -107.7558)" fill="#BFBFBF" stroke="#49494A" stroke-width="0.66" stroke-miterlimit="10" width="3.67" height="18.996"/>
	
		<rect x="533.622" y="202.127" transform="matrix(0.9776 0.2105 -0.2105 0.9776 56.5361 -107.9591)" fill="#BFBFBF" stroke="#49494A" stroke-width="0.66" stroke-miterlimit="10" width="3.67" height="18.997"/>
	
		<rect x="538.064" y="203.268" transform="matrix(0.9775 0.2109 -0.2109 0.9775 57.0315 -109.1022)" fill="#BFBFBF" stroke="#49494A" stroke-width="0.66" stroke-miterlimit="10" width="3.666" height="18.995"/>
	
		<rect x="656.171" y="241.486" transform="matrix(-0.9119 -0.4105 0.4105 -0.9119 1151.1909 767.7362)" fill="#BFBFBF" stroke="#49494A" stroke-width="0.66" stroke-miterlimit="10" width="3.671" height="37.621"/>
	
		<rect x="661.628" y="240.554" transform="matrix(-0.9119 -0.4105 0.4105 -0.9119 1161.4614 770.7341)" fill="#BFBFBF" stroke="#49494A" stroke-width="0.66" stroke-miterlimit="10" width="3.671" height="40.278"/>
	
		<rect x="187.145" y="241.051" transform="matrix(0.9086 -0.4178 0.4178 0.9086 -91.5452 102.774)" fill="#BFBFBF" stroke="#49494A" stroke-width="0.66" stroke-miterlimit="10" width="3.672" height="38.882"/>
	
		<rect x="191.452" y="239.488" transform="matrix(0.9086 -0.4176 0.4176 0.9086 -90.4752 104.3867)" fill="#BFBFBF" stroke="#49494A" stroke-width="0.66" stroke-miterlimit="10" width="3.669" height="38.883"/>
	
		<rect x="383.46" y="222.642" transform="matrix(1 -0.0067 0.0067 1 -1.5352 2.5676)" fill="#BFBFBF" stroke="#49494A" stroke-width="0.66" stroke-miterlimit="10" width="3.671" height="18.952"/>
	
		<rect x="388.037" y="222.804" transform="matrix(1 -0.0067 0.0067 1 -1.537 2.5994)" fill="#BFBFBF" stroke="#49494A" stroke-width="0.66" stroke-miterlimit="10" width="3.669" height="18.95"/>
	
		<rect x="383.069" y="202.581" transform="matrix(1 -0.0067 0.0067 1 -1.4018 2.5645)" fill="#BFBFBF" stroke="#49494A" stroke-width="0.66" stroke-miterlimit="10" width="3.671" height="18.952"/>
	
		<rect x="387.646" y="202.741" transform="matrix(1 -0.0067 0.0067 1 -1.4035 2.5963)" fill="#BFBFBF" stroke="#49494A" stroke-width="0.66" stroke-miterlimit="10" width="3.669" height="18.95"/>
	
		<rect x="635.566" y="321.074" fill="#BFBFBF" stroke="#49494A" stroke-width="0.66" stroke-miterlimit="10" width="8.602" height="8.604"/>
	
		<rect x="633.513" y="310.804" fill="#BFBFBF" stroke="#49494A" stroke-width="0.66" stroke-miterlimit="10" width="10.654" height="10.271"/>
	
		<rect x="635.566" y="329.677" fill="#BFBFBF" stroke="#49494A" stroke-width="0.66" stroke-miterlimit="10" width="8.602" height="8.601"/>
	<path fill="#BFBFBF" stroke="#49494A" stroke-width="0.66" stroke-miterlimit="10" d="M488.501,195.75l-31.25-2.167l-31.184-0.833
		l-30.652,0.75l-0.25,12.583l-14.501,1.833l-4.166-12.833l-26.667,2.417l-0.348,0.054l6.802,43.022l22.628-0.076l2.083-7.417h13.667
		L395,240.25l8.388,0.005c-0.014-0.306-0.024-0.612-0.024-0.922c0-12.185,10.469-22.063,23.383-22.063
		c12.914,0,23.385,9.877,23.385,22.063c0,0.32-0.012,0.638-0.023,0.953l46.527,0.031l6.467-42.599L488.501,195.75z"/>
	
		<rect x="417.626" y="334.045" fill="#BFBFBF" stroke="#49494A" stroke-width="0.66" stroke-miterlimit="10" width="8.858" height="8.472"/>
	
		<rect x="417.626" y="342.516" fill="#BFBFBF" stroke="#49494A" stroke-width="0.66" stroke-miterlimit="10" width="8.858" height="8.476"/>
	
		<rect x="417.626" y="350.99" fill="#BFBFBF" stroke="#49494A" stroke-width="0.66" stroke-miterlimit="10" width="8.858" height="8.476"/>
	
		<rect x="417.626" y="359.465" fill="#BFBFBF" stroke="#49494A" stroke-width="0.66" stroke-miterlimit="10" width="8.858" height="8.475"/>
	<polygon fill="#BFBFBF" stroke="#49494A" stroke-width="0.66" stroke-miterlimit="10" points="121.75,213.625 121.75,150 
		125.75,150 131.141,145.125 86.875,145.125 86.875,167.5 81.125,173.25 81.125,239.875 103.125,239.875 113.125,239.875 
		113.125,213.625 	"/>
	<path fill="#BFBFBF" stroke="#49494A" stroke-width="0.66" stroke-miterlimit="10" d="M250.667,150v54.563
		c6.476-1.905,13.488-3.844,21-5.757V150H250.667z"/>
	<path fill="#BFBFBF" stroke="#49494A" stroke-width="0.66" stroke-miterlimit="10" d="M380.667,119.889c0,9.879,0,45.777,0,61.178
		c5.25-0.39,10.584-0.72,16-0.984v-60.193H380.667L380.667,119.889z"/>
	<path fill="#BFBFBF" stroke="#49494A" stroke-width="0.66" stroke-miterlimit="10" d="M364.667,119.889v62.57
		c5.24-0.522,10.574-0.989,16-1.393c0-15.4,0-51.299,0-61.178H364.667L364.667,119.889z"/>
	<path fill="#BFBFBF" stroke="#49494A" stroke-width="0.66" stroke-miterlimit="10" d="M580.853,123.732v-3.843h-31.186v71.132
		c12.451,2.461,22.93,4.971,31.186,7.156v-40.177V123.732z"/>
	<polygon fill="#BFBFBF" stroke="#49494A" stroke-width="0.66" stroke-miterlimit="10" points="582.501,274.5 582.501,270 
		566.625,270 566.625,311.001 581.501,311.001 582.501,311.001 	"/>
</g>
<g id="rooms">
	<path id="r408" fill="#929497" stroke="#49494A" stroke-width="0.5" stroke-miterlimit="10" d="M334,119.889v66.387
		c9.809-1.463,20.042-2.755,30.667-3.816v-62.57H334L334,119.889z"/>
	<path id="r407" fill="#929497" stroke="#49494A" stroke-width="0.5" stroke-miterlimit="10" d="M303.333,119.889
		c0,12.641,0,57.102,0,71.73c9.68-1.934,19.918-3.741,30.667-5.344v-66.387H303.333z"/>
	<path id="r414" fill="#929497" stroke="#49494A" stroke-width="0.5" stroke-miterlimit="10" d="M518.667,119.889v65.871
		c11.363,1.622,21.727,3.428,31,5.261v-71.132H518.667L518.667,119.889z"/>
	<path id="r416" fill="#929497" stroke="#49494A" stroke-width="0.5" stroke-miterlimit="10" d="M602.5,158.001h-21.646v40.177
		c14.025,3.714,21.646,6.489,21.646,6.489V158.001z"/>
	<path id="r413" fill="#929497" stroke="#49494A" stroke-width="0.5" stroke-miterlimit="10" d="M487.833,119.889v62.247
		c10.945,1.017,21.244,2.255,30.834,3.625V119.89L487.833,119.889L487.833,119.889z"/>
	<polygon id="r418" fill="#929497" stroke="#49494A" stroke-width="0.5" stroke-miterlimit="10" points="642.333,151.334 
		642.333,217.551 642.667,217.667 673.667,217.667 673.667,151.334 	"/>
	<path id="r421" fill="#929497" stroke="#49494A" stroke-width="0.5" stroke-miterlimit="10" d="M737.667,184.535v48.466h29.666
		v-24.138C755.349,201.679,745.587,193.251,737.667,184.535z"/>
	<polygon id="r419" fill="#929497" stroke="#49494A" stroke-width="0.5" stroke-miterlimit="10" points="673.667,151.334 
		673.667,217.667 705.333,217.667 706.167,218.077 706.167,151.334 	"/>
	<path id="r422-1-422-2" fill="#929497" stroke="#49494A" stroke-width="0.5" stroke-miterlimit="10" d="M767.333,208.863v24.138
		v15.167c0,0-0.332,10-12.332,23.5s-31.168,12-31.168,12v15.168l13.168,12.165h62.012v-88.23
		C787.021,219.163,776.529,214.376,767.333,208.863z"/>
	<path id="r420" fill="#929497" stroke="#49494A" stroke-width="0.5" stroke-miterlimit="10" d="M713.818,148.245l-7.65,3.089l0,0
		v66.743l30.334,14.924h1.166v-48.466C726.343,172.075,718.763,159.038,713.818,148.245z"/>
	<path id="r406" fill="#929497" stroke="#49494A" stroke-width="0.5" stroke-miterlimit="10" d="M303.333,119.889h-31.667V150
		v48.806c9.74-2.481,20.32-4.918,31.667-7.186C303.333,176.991,303.333,132.53,303.333,119.889z"/>
	<polygon id="r429-431" fill="#929497" stroke="#49494A" stroke-width="0.5" stroke-miterlimit="10" points="363.5,258.833 
		363.5,311.001 426.667,311.001 426.667,312.502 458,312.502 458.375,258.833 	"/>
	
		<rect id="r432" x="332.375" y="258.833" fill="#929497" stroke="#49494A" stroke-width="0.5" stroke-miterlimit="10" width="31.125" height="52.168"/>
	<polygon id="r433-1" fill="#929497" stroke="#49494A" stroke-width="0.5" stroke-miterlimit="10" points="317.167,258.833 
		317.167,261.333 317.167,311.001 332.375,311.001 332.375,258.833 	"/>
	<path id="r434-435" fill="#929497" stroke="#49494A" stroke-width="0.5" stroke-miterlimit="10" d="M271.667,269.167v5
		c0,0-16-0.667-16,0c0,0.479,0,23.767,0,36.834h45v-41.834H271.667z"/>
	<polygon id="r433-2" fill="#929497" stroke="#49494A" stroke-width="0.5" stroke-miterlimit="10" points="300.667,261.333 
		300.667,269.167 300.667,311.001 317.167,311.001 317.167,261.333 	"/>
	<polygon id="r428-2" fill="#929497" stroke="#49494A" stroke-width="0.5" stroke-miterlimit="10" points="458.375,258.833 
		458,302.474 458,312.502 474.125,312.502 474.125,258.833 	"/>
	
		<rect id="r425-2" x="551.667" y="270" fill="#929497" stroke="#49494A" stroke-width="0.5" stroke-miterlimit="10" width="14.957" height="41.001"/>
	<polygon id="r426" fill="#929497" stroke="#49494A" stroke-width="0.5" stroke-miterlimit="10" points="551.667,261.5 
		519.833,261.5 519.833,311.001 551.667,311.001 551.667,270 	"/>
	<polygon id="r427-2-428-1" fill="#929497" stroke="#49494A" stroke-width="0.5" stroke-miterlimit="10" points="489.25,258.833 
		474.125,258.833 474.125,312.502 489.25,312.502 504.875,312.502 504.875,258.833 	"/>
	<polygon id="r427-1" fill="#929497" stroke="#49494A" stroke-width="0.5" stroke-miterlimit="10" points="519.833,258.833 
		504.875,258.833 504.875,312.502 518.833,312.502 519.833,312.502 519.833,301.254 519.833,261.002 	"/>
	
		<rect id="k401-k402" x="675.001" y="248" fill="#929497" stroke="#49494A" stroke-width="0.5" stroke-miterlimit="10" width="10" height="28.833"/>
	
		<rect id="k404" x="700.333" y="247" fill="#929497" stroke="#49494A" stroke-width="0.5" stroke-miterlimit="10" width="17.668" height="23"/>
	<path id="k405" fill="#929497" stroke="#49494A" stroke-width="0.5" stroke-miterlimit="10" d="M244.368,220.488l2.452-0.973
		l12.375,39.414l-2.744,1.172l-3.785-12.187c0,0-9.068,3.985-11.582-6.332s6.417-10.75,6.417-10.75L244.368,220.488z"/>
	<polygon id="k407" fill="#929497" stroke="#49494A" stroke-width="0.5" stroke-miterlimit="10" points="608.457,220.477 
		604.612,219.14 591.676,258.833 596.058,260.164 599.583,249.083 613.083,242.417 605.583,229.667 	"/>
	<polygon id="r417-1" fill="#929497" stroke="#49494A" stroke-width="0.5" stroke-miterlimit="10" points="611.667,151.334 
		611.667,206.834 627,212.193 627,151.334 	"/>
	<polygon id="r417-2" fill="#929497" stroke="#49494A" stroke-width="0.5" stroke-miterlimit="10" points="642.333,151.334 
		627,151.334 627,212.193 642.333,217.551 	"/>
	<path id="r410" fill="#929497" stroke="#49494A" stroke-width="0.5" stroke-miterlimit="10" d="M396.666,119.889v60.193
		c0,0,13.789-0.595,20.617-0.666v-17.61h8.725l0.033-41.917H396.666z"/>
	<path id="r411-412" fill="#929497" stroke="#49494A" stroke-width="0.5" stroke-miterlimit="10" d="M487.833,119.889v62.247
		c0,0-41.066-2.78-54.227-2.771l0.171-17.726l-7.771,0.167v-41.917H487.833z"/>
	<polygon id="r423" fill="#929497" stroke="#49494A" stroke-width="0.5" stroke-miterlimit="10" points="674.333,298.833 
		723.833,298.833 737.001,311.001 674.333,311.001 	"/>
	<polygon id="r424" fill="#929497" stroke="#49494A" stroke-width="0.5" stroke-miterlimit="10" points="582.501,311.001 
		582.501,274.5 597.333,274.5 597.333,285 628.001,285 628.001,298.833 644.667,298.833 644.667,311.001 	"/>
	<polygon id="r400-401" fill="#929497" stroke="#49494A" stroke-width="0.5" stroke-miterlimit="10" points="44.302,119.889 
		44.302,311.001 154.834,311.001 154.834,218.001 139.778,218.001 139.778,150 154.834,150 154.834,119.889 	"/>
	
		<rect id="r402_1_" x="139.778" y="150" fill="#929497" stroke="#49494A" stroke-width="0.5" stroke-miterlimit="10" width="15.056" height="68.001"/>
	<polygon id="r403-404-1" fill="#929497" stroke="#49494A" stroke-width="0.5" stroke-miterlimit="10" points="154.834,150 
		154.834,218.001 210.834,218.001 210.834,171.765 240.638,161.64 240.667,150 	"/>
	<polygon id="r404-2" fill="#929497" stroke="#49494A" stroke-width="0.5" stroke-miterlimit="10" points="210.834,171.765 
		210.834,218.001 240.667,207.605 240.638,161.64 	"/>
</g>
<g id="signs">
	<g id="toilet">
		<rect x="617.613" y="125.424" opacity="0.8" fill="#231F20" enable-background="new    " width="14.811" height="14.812"/>
		<rect x="219.262" y="125.424" opacity="0.8" fill="#231F20" enable-background="new    " width="14.811" height="14.812"/>
		<rect x="53.241" y="315.326" opacity="0.8" fill="#231F20" enable-background="new    " width="14.811" height="14.812"/>
	</g>
	<g id="escalator">
		<rect x="281.02" y="398.563" opacity="0.8" fill="#231F20" enable-background="new    " width="14.811" height="14.813"/>
		<rect x="155.241" y="398.563" opacity="0.8" fill="#231F20" enable-background="new    " width="14.811" height="14.813"/>
		<rect x="195.667" y="277.36" opacity="0.8" fill="#231F20" enable-background="new    " width="14.811" height="14.811"/>
		<rect x="171.781" y="226.414" opacity="0.8" fill="#231F20" enable-background="new    " width="14.811" height="14.812"/>
		<rect x="379.399" y="187.758" opacity="0.8" fill="#231F20" enable-background="new    " width="14.811" height="14.812"/>
		<rect x="380.183" y="241.255" opacity="0.8" fill="#231F20" enable-background="new    " width="14.812" height="14.812"/>
		<rect x="532.511" y="187.758" opacity="0.8" fill="#231F20" enable-background="new    " width="14.811" height="14.812"/>
		<rect x="521.312" y="241.255" opacity="0.8" fill="#231F20" enable-background="new    " width="14.813" height="14.812"/>
		<rect x="641.207" y="278.201" opacity="0.8" fill="#231F20" enable-background="new    " width="14.811" height="14.812"/>
		<rect x="663.462" y="226.828" opacity="0.8" fill="#231F20" enable-background="new    " width="14.813" height="14.812"/>
	</g>
	<g id="lift">
		<rect x="570.531" y="226.414" opacity="0.8" fill="#231F20" enable-background="new    " width="14.811" height="14.812"/>
		<rect x="264.87" y="226.719" opacity="0.8" fill="#231F20" enable-background="new    " width="14.811" height="14.812"/>
		<rect x="400.262" y="344.652" opacity="0.8" fill="#231F20" enable-background="new    " width="14.812" height="14.812"/>
		<rect x="45.836" y="470.763" opacity="0.8" fill="#231F20" enable-background="new    " width="14.811" height="14.811"/>
		<rect x="646.119" y="315.939" opacity="0.8" fill="#231F20" enable-background="new    " width="14.811" height="14.812"/>
	</g>
	<g id="entrance">
		<rect x="650.601" y="344.653" opacity="0.8" fill="#231F20" enable-background="new    " width="14.811" height="14.813"/>
		<rect x="437.935" y="398.563" opacity="0.8" fill="#231F20" enable-background="new    " width="14.811" height="14.813"/>
	</g>
	
		<rect id="parking" x="617.613" y="423.607" opacity="0.8" fill="#231F20" enable-background="new    " width="14.811" height="14.812"/>
</g>
</svg>
