<?xml version="1.0" encoding="utf-8"?>
<!-- Generator: Adobe Illustrator 16.0.0, SVG Export Plug-In . SVG Version: 6.00 Build 0)  -->
<!DOCTYPE svg PUBLIC "-//W3C//DTD SVG 1.1//EN" "http://www.w3.org/Graphics/SVG/1.1/DTD/svg11.dtd">
<svg version="1.1" id="Layer_1" xmlns="http://www.w3.org/2000/svg" xmlns:xlink="http://www.w3.org/1999/xlink" x="0px" y="0px"
	 width="1000px" height="1000px" viewBox="0 0 1000 1000" enable-background="new 0 0 1000 1000" xml:space="preserve">
<g id="background">
	<rect y="146.455" fill="#FFFFFF" width="1000" height="707.091"/>
</g>
<g id="etc">
	<path fill="#BFBFBF" stroke="#494949" stroke-width="0.66" stroke-miterlimit="10" d="M960.446,672.764v-28.388h-11.402V411.094
		c-94.192-28.388-111.296-117.591-111.296-117.591H689.987v-4.514H52.619v164.983h8.314v203.706
		c-16.867,7.959-28.507,25.182-28.507,45.018s11.64,37.059,28.507,45.018v6.651H299.68v5.938h68.654v-5.938h99.418v22.806h74.593
		v8.552H881.34c6.771,9.265,17.698,15.204,29.933,15.204c12.353,0,23.28-6.058,29.932-15.204h7.009v-19.599
		c0-0.713,0.118-1.425,0.118-2.257c0-0.831,0-1.425-0.118-2.257v-88.847H960.446L960.446,672.764L960.446,672.764z"/>
	<path fill="#BFBFBF" stroke="#494949" stroke-width="0.66" stroke-miterlimit="10" d="M960.446,672.764v-28.388h-11.402V516.213
		h-73.405l0,0l-75.307-0.594l0,0h-47.749l0,0l-61.765,0.594l0,0h-73.524l0,0h-72.573l0,0h-37.772v260.958h35.396v8.552H881.34
		c6.771,9.265,17.698,15.204,29.933,15.204c12.233,0,23.28-6.058,29.932-15.204h7.009v-19.599c0-0.713,0.118-1.425,0.118-2.257
		c0-0.713,0-1.425-0.118-2.257v-88.847H960.446L960.446,672.764z"/>
	
		<rect x="496.021" y="543.176" fill="#BFBFBF" stroke="#494949" stroke-width="0.66" stroke-miterlimit="10" width="10.571" height="10.097"/>
	
		<rect x="496.021" y="553.272" fill="#BFBFBF" stroke="#494949" stroke-width="0.66" stroke-miterlimit="10" width="10.571" height="10.096"/>
	
		<rect x="496.021" y="563.368" fill="#BFBFBF" stroke="#494949" stroke-width="0.66" stroke-miterlimit="10" width="10.571" height="10.097"/>
	
		<rect x="496.021" y="573.465" fill="#BFBFBF" stroke="#494949" stroke-width="0.66" stroke-miterlimit="10" width="10.571" height="10.096"/>
	
		<rect x="948.331" y="648.533" fill="#BFBFBF" stroke="#494949" stroke-width="0.66" stroke-miterlimit="10" width="10.215" height="10.215"/>
	
		<rect x="948.331" y="658.748" fill="#BFBFBF" stroke="#494949" stroke-width="0.66" stroke-miterlimit="10" width="10.215" height="10.215"/>
	
		<rect x="201.794" y="624.224" transform="matrix(-0.0046 1 -1 -0.0046 841.3724 435.3688)" fill="#BFBFBF" stroke="#494949" stroke-width="0.66" stroke-miterlimit="10" width="4.395" height="24.469"/>
	
		<rect x="177.324" y="624.221" transform="matrix(-0.0044 1 -1 -0.0044 816.7686 459.7645)" fill="#BFBFBF" stroke="#494949" stroke-width="0.66" stroke-miterlimit="10" width="4.395" height="24.469"/>
	
		<rect x="325.525" y="624.303" transform="matrix(-0.0044 1 -1 -0.0044 965.71 311.6467)" fill="#BFBFBF" stroke="#494949" stroke-width="0.66" stroke-miterlimit="10" width="4.395" height="24.469"/>
	
		<rect x="350.566" y="624.283" transform="matrix(-0.0047 1 -1 -0.0047 990.92 286.7276)" fill="#BFBFBF" stroke="#494949" stroke-width="0.66" stroke-miterlimit="10" width="4.395" height="24.468"/>
	
		<rect x="324.708" y="604.905" transform="matrix(-0.0044 1 -1 -0.0044 945.4917 292.9804)" fill="#BFBFBF" stroke="#494949" stroke-width="0.66" stroke-miterlimit="10" width="4.395" height="24.469"/>
	
		<rect x="349.99" y="605.426" transform="matrix(-0.0047 1 -1 -0.0047 971.4844 268.3589)" fill="#BFBFBF" stroke="#494949" stroke-width="0.66" stroke-miterlimit="10" width="4.395" height="24.468"/>
	
		<rect x="177.953" y="604.909" transform="matrix(-0.0048 1 -1 -0.0048 798.5632 440.3604)" fill="#BFBFBF" stroke="#494949" stroke-width="0.66" stroke-miterlimit="10" width="4.396" height="25.3"/>
	
		<rect x="203.355" y="604.924" transform="matrix(-0.0048 1 -1 -0.0048 824.1017 414.9746)" fill="#BFBFBF" stroke="#494949" stroke-width="0.66" stroke-miterlimit="10" width="4.395" height="25.3"/>
	
		<rect x="754.959" y="527.854" fill="#BFBFBF" stroke="#494949" stroke-width="0.66" stroke-miterlimit="10" width="10.215" height="10.215"/>
	
		<rect x="752.465" y="515.619" fill="#BFBFBF" stroke="#494949" stroke-width="0.66" stroke-miterlimit="10" width="12.709" height="12.234"/>
	
		<rect x="754.959" y="538.068" fill="#BFBFBF" stroke="#494949" stroke-width="0.66" stroke-miterlimit="10" width="10.215" height="10.215"/>
	<path fill="#BFBFBF" stroke="#494949" stroke-width="0.66" stroke-miterlimit="10" d="M819.812,421.784v-16.273h-54.639
		c0,0-118.423-46.442-258.226-46.442s-256.681,45.967-256.681,45.967h-55.826v13.897h-9.74v5.582h-8.552l-5.345-5.938v-95.142
		l-10.453-10.928h-80.77l-8.671,10.096v11.521l-5.107,3.207v116.522h-4.87v29.101h133.745v18.529h35.634v14.848h74.118v-44.067
		l19.479-5.938l36.584-9.146l25.894-2.969h231.619v4.751h37.415v8.314h36.584v4.988h17.461v13.066h36.465v16.272h19.836v14.254
		h34.446v-15.68h36.702v-78.156L819.812,421.784L819.812,421.784z"/>
	
		<rect x="332.346" y="410.496" transform="matrix(-0.9691 0.2468 -0.2468 -0.9691 765.6409 734.287)" fill="#BFBFBF" stroke="#494949" stroke-width="0.66" stroke-miterlimit="10" width="8.908" height="9.265"/>
	
		<rect x="334.58" y="419.517" transform="matrix(-0.969 0.2469 -0.2469 -0.969 772.3086 751.4399)" fill="#BFBFBF" stroke="#494949" stroke-width="0.66" stroke-miterlimit="10" width="8.908" height="9.264"/>
	
		<rect x="668.879" y="410.864" transform="matrix(-0.2352 0.972 -0.972 -0.2352 1235.5735 -141.6312)" fill="#BFBFBF" stroke="#494949" stroke-width="0.66" stroke-miterlimit="10" width="9.264" height="8.908"/>
	
		<rect x="666.66" y="419.983" transform="matrix(-0.2352 0.972 -0.972 -0.2352 1241.6892 -128.2184)" fill="#BFBFBF" stroke="#494949" stroke-width="0.66" stroke-miterlimit="10" width="9.265" height="8.908"/>
	
		<rect x="418.332" y="390.414" transform="matrix(-0.9363 0.3512 -0.3512 -0.9363 974.0055 608.5613)" fill="#BFBFBF" stroke="#494949" stroke-width="0.66" stroke-miterlimit="10" width="26.963" height="4.395"/>
	
		<rect x="416.541" y="385.213" transform="matrix(-0.9362 0.3514 -0.3514 -0.9362 968.7595 598.9968)" fill="#BFBFBF" stroke="#494949" stroke-width="0.66" stroke-miterlimit="10" width="26.963" height="4.395"/>
	
		<rect x="577.919" y="378.454" transform="matrix(-0.3213 0.947 -0.947 -0.3213 1137.6713 -31.4799)" fill="#BFBFBF" stroke="#494949" stroke-width="0.66" stroke-miterlimit="10" width="4.395" height="26.962"/>
	
		<rect x="579.898" y="373.344" transform="matrix(-0.3215 0.9469 -0.9469 -0.3215 1135.5383 -39.9892)" fill="#BFBFBF" stroke="#494949" stroke-width="0.66" stroke-miterlimit="10" width="4.395" height="26.962"/>
	
		<rect x="618.157" y="416.437" transform="matrix(-0.2103 0.9776 -0.9776 -0.2103 1173.7405 -110.8422)" fill="#BFBFBF" stroke="#494949" stroke-width="0.66" stroke-miterlimit="10" width="26.962" height="4.395"/>
	
		<rect x="623.447" y="417.873" transform="matrix(-0.2108 0.9775 -0.9775 -0.2108 1181.8223 -113.9963)" fill="#BFBFBF" stroke="#494949" stroke-width="0.66" stroke-miterlimit="10" width="26.962" height="4.395"/>
	
		<rect x="758.956" y="453.078" transform="matrix(-0.4107 0.9118 -0.9118 -0.4107 1517.2681 -70.0981)" fill="#BFBFBF" stroke="#494949" stroke-width="0.66" stroke-miterlimit="10" width="44.662" height="4.394"/>
	
		<rect x="763.844" y="453.561" transform="matrix(-0.4105 0.9119 -0.9119 -0.4105 1526.7485 -75.498)" fill="#BFBFBF" stroke="#494949" stroke-width="0.66" stroke-miterlimit="10" width="47.87" height="4.395"/>
	
		<rect x="221.908" y="432.48" transform="matrix(-0.9086 0.4178 -0.4178 -0.9086 618.047 775.8776)" fill="#BFBFBF" stroke="#494949" stroke-width="0.66" stroke-miterlimit="10" width="4.395" height="46.206"/>
	
		<rect x="227.124" y="430.542" transform="matrix(-0.9087 0.4175 -0.4175 -0.9087 627.1142 770.0974)" fill="#BFBFBF" stroke="#494949" stroke-width="0.66" stroke-miterlimit="10" width="4.395" height="46.205"/>
	<polygon fill="#BFBFBF" stroke="#494949" stroke-width="0.66" stroke-miterlimit="10" points="135.289,429.742 135.289,400.167 
		144.91,400.167 144.91,322.366 96.805,322.366 96.805,429.742 	"/>
	<polygon fill="#BFBFBF" stroke="#494949" stroke-width="0.66" stroke-miterlimit="10" points="395.891,383.537 381.756,386.269 
		381.874,393.277 367.265,395.89 363.464,389.357 358.95,390.308 322.604,398.741 317.496,400.167 319.277,405.63 331.274,408.243 
		338.52,435.206 328.543,443.64 329.85,448.51 396.128,432.236 408.6,432.236 400.998,382.943 	"/>
	<polygon fill="#BFBFBF" stroke="#494949" stroke-width="0.66" stroke-miterlimit="10" points="784.179,433.068 784.06,430.573 
		764.699,422.497 727.877,409.668 723.482,408.362 719.444,419.646 727.521,434.85 712.793,442.451 707.923,455.755 
		764.699,475.947 770.044,468.82 782.991,474.284 798.907,439.363 	"/>
	<path fill="#BFBFBF" stroke="#494949" stroke-width="0.66" stroke-miterlimit="10" d="M287.208,434.137
		c-3.207-9.858,7.008-13.303,7.008-13.303l-4.157-12.591l-4.632,1.307l-36.465,13.065l-19.242,7.127l-0.476,3.801l-17.341,6.89
		v35.396h17.341l14.373-6.771l4.989,6.296l56.183-19.955l-4.87-14.848C299.798,440.67,290.296,443.996,287.208,434.137z"/>
	<path fill="#BFBFBF" stroke="#494949" stroke-width="0.66" stroke-miterlimit="10" d="M580.116,379.023h-4.514l-5.107,15.56
		l-27.081-3.444l-0.238-14.847l-36.702-1.069l-36.703,1.069l-0.237,14.609l-26.606,3.683l-5.464-16.273l-4.633,0.832l-17.342,2.019
		l7.721,50.957l56.064-0.119v-0.119c0-14.728,11.996-26.725,26.725-26.725s26.726,11.997,26.726,26.725v0.119l57.727-0.119
		l7.364-50.6L580.116,379.023z"/>
	<path fill="#BFBFBF" stroke="#494949" stroke-width="0.66" stroke-miterlimit="10" d="M694.382,406.818c0,0,1.188-3.682,1.9-6.176
		l-4.989-1.426l-36.939-8.552l-37.06-6.533l-5.107-0.713l-7.245,48.581h14.49l2.495,0.713l2.851-6.414l14.966,3.088l0.95,8.196
		l42.285,10.928l1.545-4.752l-9.979-8.433l6.296-26.963L694.382,406.818z"/>
	
		<rect x="454.697" y="386.749" transform="matrix(-1 0.0068 -0.0068 -1 916.4753 792.9616)" fill="#BFBFBF" stroke="#494949" stroke-width="0.66" stroke-miterlimit="10" width="4.395" height="22.568"/>
	
		<rect x="460.041" y="386.869" transform="matrix(-1 0.0069 -0.0069 -1 927.2097 793.1132)" fill="#BFBFBF" stroke="#494949" stroke-width="0.66" stroke-miterlimit="10" width="4.396" height="22.568"/>
	<polygon fill="#BFBFBF" stroke="#494949" stroke-width="0.66" stroke-miterlimit="10" points="157.738,328.899 152.274,322.366 
		144.91,322.366 144.91,400.167 157.738,400.167 	"/>
	<polygon id="_x3C_Path_x3E_" fill="#BFBFBF" stroke="#494949" stroke-width="0.66" stroke-miterlimit="10" points="
		170.804,325.573 170.804,418.577 176.149,424.516 184.701,424.516 184.701,418.934 184.701,325.573 	"/>
	<path id="_x3C_Path_x3E__1_" fill="#BFBFBF" stroke="#494949" stroke-width="0.66" stroke-miterlimit="10" d="M615.987,288.871
		v78.988c13.185,2.02,25.775,4.276,37.772,6.771v-85.64L615.987,288.871L615.987,288.871z"/>
	<path id="_x3C_Path_x3E__3_" fill="#BFBFBF" stroke="#494949" stroke-width="0.66" stroke-miterlimit="10" d="M523.815,432.236
		c-1.307-8.314-8.553-14.729-17.342-14.729c-8.79,0-15.917,6.414-17.342,14.729H523.815z"/>
	
		<rect id="_x3C_Path_x3E__2_" x="102.269" y="451.717" fill="#BFBFBF" stroke="#494949" stroke-width="0.66" stroke-miterlimit="10" width="28.032" height="9.739"/>
</g>
<g id="rooms">
	<path id="central-department-store" fill="#959595" stroke="#494949" stroke-miterlimit="10" d="M60.934,516.213v141.229
		c-16.867,7.958-28.507,25.182-28.507,45.018s11.64,37.059,28.507,45.017v6.652H299.68v5.938h68.654v-5.938h99.418v23.043h39.315
		V516.213H60.934z"/>
	<path id="r209-2" fill="#959595" stroke="#494949" stroke-miterlimit="10" d="M452.429,288.871v72.455
		c6.058-0.475,12.116-0.95,18.292-1.188v-71.267H452.429L452.429,288.871z"/>
	<path id="r209-1" fill="#959595" stroke="#494949" stroke-miterlimit="10" d="M433.781,288.871v74.237
		c6.058-0.594,12.233-1.188,18.529-1.782v-72.455H433.781L433.781,288.871z"/>
	<path id="r210" fill="#959595" stroke="#494949" stroke-miterlimit="10" d="M470.603,288.871v71.267l30.882-0.712V340.42h5.107
		l-0.118-51.55H470.603L470.603,288.871z"/>
	<path id="r211-1" fill="#959595" stroke="#494949" stroke-miterlimit="10" d="M506.592,288.871l0.119,51.55h4.395l0.119,18.767
		c0.119,0-4.276,0-4.157,0c6.177,0,12.353,0.119,18.529,0.238v-70.555H506.592L506.592,288.871z"/>
	<path id="r208-2" fill="#959595" stroke="#494949" stroke-miterlimit="10" d="M396.722,288.871v35.633h18.529v40.741
		c11.878-1.9,5.82-0.831,18.53-2.257v-74.237L396.722,288.871L396.722,288.871z"/>
	<path id="r211-2" fill="#959595" stroke="#494949" stroke-miterlimit="10" d="M525.479,288.871v70.555
		c5.701,0.119,11.402,0.356,17.104,0.712v-71.148L525.479,288.871L525.479,288.871z"/>
	<path id="r207" fill="#959595" stroke="#494949" stroke-miterlimit="10" d="M360.494,288.871v85.521
		c11.402-2.257,23.519-4.513,36.228-6.414v-79.106H360.494z"/>
	<path id="r206" fill="#959595" stroke="#494949" stroke-miterlimit="10" d="M322.96,288.871v93.954
		c11.521-2.851,23.993-5.82,37.534-8.434v-85.521H322.96L322.96,288.871z"/>
	<path id="r213-1" fill="#959595" stroke="#494949" stroke-miterlimit="10" d="M579.047,288.871v74.118
		c6.177,0.713,12.354,1.426,18.411,2.138v-76.256H579.047L579.047,288.871z"/>
	<path id="r212-1" fill="#959595" stroke="#494949" stroke-miterlimit="10" d="M542.582,288.871v71.267l18.292,1.188v-36.228h18.292
		v-36.228H542.582L542.582,288.871z"/>
	<path id="r220" fill="#959595" stroke="#494949" stroke-miterlimit="10" d="M900.106,387.101
		c-12.353-9.027-22.33-19.005-30.525-29.101l-32.427,25.894v38.01v15.44h27.2L900.106,387.101z"/>
	<polygon id="r223" fill="#959595" stroke="#494949" stroke-miterlimit="10" points="837.154,499.94 800.451,499.94 
		800.451,515.619 875.639,516.213 858.891,499.94 	"/>
	<polygon id="r222" fill="#959595" stroke="#494949" stroke-miterlimit="10" points="949.044,516.213 949.044,458.962 
		837.154,458.962 837.154,499.94 858.891,499.94 875.639,516.213 875.639,516.213 	"/>
	<path id="r213-2" fill="#959595" stroke="#494949" stroke-miterlimit="10" d="M597.458,288.871v76.256
		c6.296,0.832,12.472,1.663,18.529,2.613v-78.988C615.987,288.871,597.458,288.871,597.458,288.871z"/>
	<path id="r215" fill="#959595" stroke="#494949" stroke-miterlimit="10" d="M689.987,288.871H653.76v85.639
		c12.946,2.613,25.062,5.345,36.228,8.196v-89.322V288.871z"/>
	<path id="r204-1" fill="#959595" stroke="#494949" stroke-miterlimit="10" d="M249.555,325.573v79.463h0.712
		c0,0,6.295-2.494,17.817-6.295v-73.168H249.555z"/>
	<rect id="r203" x="213.327" y="325.573" fill="#959595" stroke="#494949" stroke-miterlimit="10" width="36.228" height="79.463"/>
	<path id="r204-2" fill="#959595" stroke="#494949" stroke-miterlimit="10" d="M287.208,325.573h-19.004v73.168
		c5.226-1.782,11.64-3.801,19.004-6.058V325.573z"/>
	<polygon id="r202" fill="#959595" stroke="#494949" stroke-miterlimit="10" points="184.701,325.573 184.701,418.934 
		194.56,418.934 194.56,405.036 213.327,405.036 213.327,325.573 	"/>
	<polygon id="r243-244" fill="#959595" stroke="#494949" stroke-miterlimit="10" points="96.805,322.366 83.739,322.366 
		80.294,326.286 80.294,363.701 96.805,363.701 	"/>
	<polygon id="r245-247" fill="#959595" stroke="#494949" stroke-miterlimit="10" points="96.805,429.742 96.805,363.701 
		80.294,363.701 80.294,424.516 96.686,439.363 119.967,439.363 119.967,429.742 	"/>
	<polygon id="r248" fill="#959595" stroke="#494949" stroke-miterlimit="10" points="144.91,400.167 135.289,400.167 
		135.289,429.742 119.967,429.742 119.967,439.363 151.443,439.363 157.738,431.762 157.738,400.167 	"/>
	<polygon id="r236-237" fill="#959595" stroke="#494949" stroke-miterlimit="10" points="52.619,453.854 60.934,453.854 
		65.685,453.854 65.685,390.189 52.619,390.189 	"/>
	<polygon id="r239" fill="#959595" stroke="#494949" stroke-miterlimit="10" points="52.619,358 65.685,358 65.685,337.332 
		70.911,334.125 70.911,326.286 52.619,326.286 	"/>
	<rect id="r238" x="52.619" y="358" fill="#959595" stroke="#494949" stroke-miterlimit="10" width="13.065" height="32.189"/>
	<rect id="r241" x="95.142" y="288.871" fill="#959595" stroke="#494949" stroke-miterlimit="10" width="49.768" height="23.637"/>
	<polygon id="r240" fill="#959595" stroke="#494949" stroke-miterlimit="10" points="52.619,288.871 52.619,326.286 70.911,326.286 
		70.911,322.604 79.582,312.507 95.142,312.507 95.142,288.871 	"/>
	<rect id="k202" x="130.301" y="451.717" fill="#959595" stroke="#494949" stroke-miterlimit="10" width="29.338" height="9.739"/>
	<rect id="r201-2" x="60.934" y="482.955" fill="#959595" stroke="#494949" stroke-miterlimit="10" width="75.9" height="33.377"/>
	<polygon id="r201-1" fill="#959595" stroke="#494949" stroke-miterlimit="10" points="230.194,501.366 194.679,501.366 
		194.679,482.955 136.715,482.955 136.715,516.213 230.194,516.213 	"/>
	<path id="r224-2" fill="#959595" stroke="#494949" stroke-miterlimit="10" d="M746.169,501.366v-16.273h-17.341
		c0.118,10.216,0,17.937-0.119,30.408h23.993l0,0h13.304v-14.254L746.169,501.366L746.169,501.366z"/>
	<polygon id="r231-232" fill="#959595" stroke="#494949" stroke-miterlimit="10" points="386.388,454.092 385.794,454.092 
		385.794,516.213 506.948,516.213 506.948,454.092 	"/>
	<polygon id="_x32_29" fill="#959595" stroke="#494949" stroke-miterlimit="10" points="544.721,454.092 544.721,500.891 
		544.721,516.213 562.894,516.213 562.894,454.092 	"/>
	<polygon id="r233-234" fill="#959595" stroke="#494949" stroke-miterlimit="10" points="360.851,457.062 360.494,457.062 
		323.91,466.207 323.673,466.207 323.673,516.213 360.851,516.213 385.794,516.213 385.794,454.092 	"/>
	<rect id="r230" x="506.948" y="454.092" fill="#959595" stroke="#494949" stroke-miterlimit="10" width="37.772" height="62.121"/>
	<polygon id="r225" fill="#959595" stroke="#494949" stroke-miterlimit="10" points="692.125,467.157 655.422,467.157 
		655.422,516.213 690.818,516.213 692.125,472.146 	"/>
	
		<rect id="r228-2" x="562.894" y="476.541" fill="#959595" stroke="#494949" stroke-miterlimit="10" width="9.384" height="39.672"/>
	
		<rect id="r228-1" x="572.277" y="476.541" fill="#959595" stroke="#494949" stroke-miterlimit="10" width="9.383" height="39.672"/>
	<path id="r224-1" fill="#959595" stroke="#494949" stroke-miterlimit="10" d="M728.709,485.212h-19.123v-13.065h-17.461
		l-1.188,44.066l0,0l37.771-0.594C728.709,503.147,728.828,495.427,728.709,485.212z"/>
	<polygon id="r226-1" fill="#959595" stroke="#494949" stroke-miterlimit="10" points="655.422,458.843 636.536,458.843 
		636.536,516.213 655.422,516.213 655.422,467.157 	"/>
	<polygon id="r226-2" fill="#959595" stroke="#494949" stroke-miterlimit="10" points="618.007,458.843 617.413,516.213 
		636.536,516.213 636.536,458.843 	"/>
	<polygon id="r227" fill="#959595" stroke="#494949" stroke-miterlimit="10" points="618.007,438.77 581.542,438.77 
		581.542,516.213 617.413,516.213 617.413,500.891 618.007,443.521 	"/>
	<polygon id="k206" fill="#959595" stroke="#494949" stroke-miterlimit="10" points="727.521,434.85 719.444,419.646 
		723.482,408.362 714.099,405.749 698.776,452.429 707.923,455.755 712.793,442.451 	"/>
	<path id="k204" fill="#959595" stroke="#494949" stroke-miterlimit="10" d="M313.22,452.548l-13.659-47.155l-9.384,2.732
		l4.158,12.59c0,0-10.215,3.445-7.008,13.304s12.71,6.651,12.71,6.651l4.869,14.848L313.22,452.548L313.22,452.548z"/>
	<path id="k203" fill="#959595" stroke="#494949" stroke-miterlimit="10" d="M211.902,440.907v35.04c0,0-14.373,1.426-25.3-10.215
		s-8.433-21.143-3.088-23.637C188.74,439.601,211.902,440.907,211.902,440.907z"/>
	<path id="r219-1" fill="#959595" stroke="#494949" stroke-miterlimit="10" d="M847.606,321.891l-7.958,3.801h-19.242v33.021
		h-18.886v46.917h18.292v16.272h17.46v-38.009L869.699,358C859.484,345.291,852.477,332.581,847.606,321.891z"/>
	<path id="r205" fill="#959595" stroke="#494949" stroke-miterlimit="10" d="M322.96,325.573h-25.062v64.021
		c7.602-2.138,16.035-4.395,25.062-6.651V325.573z"/>
	<polygon id="r242" fill="#959595" stroke="#494949" stroke-miterlimit="10" points="213.327,288.871 144.91,288.871 
		144.91,312.507 160.352,312.507 165.697,318.09 213.327,318.09 	"/>
	<path id="r216" fill="#959595" stroke="#494949" stroke-miterlimit="10" d="M689.987,334.006v48.7
		c9.265,2.256,17.936,4.632,25.656,6.889v-55.588H689.987L689.987,334.006z"/>
	<path id="r217" fill="#959595" stroke="#494949" stroke-miterlimit="10" d="M726.689,325.692v67.11
		c24.35,7.246,38.484,12.828,38.484,12.828h0.356v-79.938H726.689L726.689,325.692z"/>
	<polygon id="r218" fill="#959595" stroke="#494949" stroke-miterlimit="10" points="765.53,325.692 765.53,405.511 
		801.521,405.511 801.521,358.594 801.164,325.692 	"/>
	<polygon id="k207" fill="#959595" stroke="#494949" stroke-miterlimit="10" points="781.209,475.472 801.995,475.472 
		801.995,440.789 798.194,439.957 	"/>
	<polygon id="r235" fill="#959595" stroke="#494949" stroke-miterlimit="10" points="304.312,472.146 304.312,516.213 
		323.673,516.213 323.673,466.207 	"/>
	<path id="r221" fill="#959595" stroke="#494949" stroke-miterlimit="10" d="M949.044,411.094
		c-19.479-5.82-35.634-14.253-48.938-23.993l-35.634,50.243h-27.2v21.618h111.771V411.094L949.044,411.094z"/>
	<polygon id="r219-2" fill="#959595" stroke="#494949" stroke-miterlimit="10" points="820.644,359.188 801.521,359.188 
		801.164,325.692 820.287,325.692 	"/>
	<polygon id="r212-2" fill="#959595" stroke="#494949" stroke-miterlimit="10" points="560.756,325.098 579.047,325.098 
		579.047,362.988 560.756,361.326 	"/>
	<polygon id="r208-1" fill="#959595" stroke="#494949" stroke-miterlimit="10" points="415.251,365.245 396.722,367.858 
		396.722,324.504 415.251,324.504 	"/>
	<rect id="k205" x="537.712" y="431.999" fill="#959595" stroke="#494949" stroke-miterlimit="10" width="31.239" height="11.641"/>
</g>
<g id="signs">
	
		<rect id="parking" x="704.478" y="653.641" opacity="0.8" fill="#231F20" enable-background="new    " width="17.579" height="17.579"/>
	<g id="lift">
		<rect x="767.074" y="478.441" opacity="0.8" fill="#231F20" enable-background="new    " width="17.579" height="17.579"/>
		<rect x="679.771" y="415.489" opacity="0.8" fill="#231F20" enable-background="new    " width="17.58" height="17.58"/>
		<rect x="315.952" y="415.37" opacity="0.8" fill="#231F20" enable-background="new    " width="17.579" height="17.579"/>
		<rect x="478.441" y="554.579" opacity="0.8" fill="#231F20" enable-background="new    " width="17.579" height="17.579"/>
		<rect x="60.934" y="700.32" opacity="0.8" fill="#231F20" enable-background="new    " width="17.579" height="17.58"/>
		<rect x="770.044" y="524.172" opacity="0.8" fill="#231F20" enable-background="new    " width="17.579" height="17.579"/>
	</g>
	<g id="escalator">
		<rect x="792.374" y="412.044" opacity="0.8" fill="#231F20" enable-background="new    " width="17.579" height="17.579"/>
		<rect x="622.877" y="432.236" opacity="0.8" fill="#231F20" enable-background="new    " width="17.579" height="17.579"/>
		<rect x="549.828" y="374.154" opacity="0.8" fill="#231F20" enable-background="new    " width="17.579" height="17.579"/>
		<rect x="448.034" y="369.284" opacity="0.8" fill="#231F20" enable-background="new    " width="17.579" height="17.58"/>
		<rect x="232.094" y="475.591" opacity="0.8" fill="#231F20" enable-background="new    " width="17.579" height="17.579"/>
		<rect x="183.989" y="619.907" opacity="0.8" fill="#231F20" enable-background="new    " width="17.579" height="17.579"/>
		<rect x="333.294" y="619.907" opacity="0.8" fill="#231F20" enable-background="new    " width="17.579" height="17.579"/>
		<rect x="203.706" y="417.152" opacity="0.8" fill="#231F20" enable-background="new    " width="17.579" height="17.579"/>
	</g>
	<g id="toilet">
		<rect x="261.076" y="294.928" opacity="0.8" fill="#231F20" enable-background="new    " width="17.579" height="17.579"/>
		<rect x="65.685" y="520.965" opacity="0.8" fill="#231F20" enable-background="new    " width="17.58" height="17.579"/>
		<rect x="737.38" y="294.928" opacity="0.8" fill="#231F20" enable-background="new    " width="17.579" height="17.579"/>
	</g>
	<g id="entrance">
		<rect x="775.864" y="558.38" opacity="0.8" fill="#231F20" enable-background="new    " width="17.579" height="17.579"/>
		<rect x="520.133" y="619.313" opacity="0.8" fill="#231F20" enable-background="new    " width="17.579" height="17.579"/>
		<rect x="52.144" y="461.338" opacity="0.8" fill="#231F20" enable-background="new    " width="17.579" height="17.579"/>
	</g>
</g>
</svg>
