<?xml version="1.0" encoding="utf-8"?>
<!-- Generator: Adobe Illustrator 19.2.0, SVG Export Plug-In . SVG Version: 6.00 Build 0)  -->
<svg version="1.1" id="Layer_1" xmlns="http://www.w3.org/2000/svg" xmlns:xlink="http://www.w3.org/1999/xlink" x="0px" y="0px"
	 viewBox="0 0 841.9 595.3" style="enable-background:new 0 0 841.9 595.3;" xml:space="preserve">
<style type="text/css">
	.st0{fill:#FFFFFF;}
	.st1{fill:#BFBFBF;stroke:#49494A;stroke-width:0.66;stroke-miterlimit:10;}
	.st2{fill:none;stroke:#49494A;stroke-width:0.66;stroke-miterlimit:10;}
	.st3{fill:#929497;stroke:#49494A;stroke-width:0.5;stroke-miterlimit:10;}
	.st4{opacity:0.8;fill:#231F20;enable-background:new    ;}
</style>
<g id="background">
	<rect class="st0" width="841.9" height="595.3"/>
</g>
<g id="etc">
	<path class="st1" d="M808.6,443.1v-23.9H799V222.8c-79.3-23.9-93.7-99-93.7-99H580.9v-3.8H44.3v138.9h7v171.5
		c-14.2,6.7-24,21.2-24,37.9s9.8,31.2,24,37.9v5.6h201v5h57.8v-5h83.7V531h62.8v7.2H742c5.7,7.8,14.9,12.8,25.2,12.8
		c10.4,0,19.6-5.1,25.2-12.8h5.9v-16.5c0-0.6,0.1-1.2,0.1-1.9s0-1.2-0.1-1.9v-74.8L808.6,443.1L808.6,443.1L808.6,443.1z"/>
	<rect x="417.6" y="334" class="st1" width="8.9" height="8.5"/>
	<rect x="417.6" y="342.5" class="st1" width="8.9" height="8.5"/>
	<rect x="417.6" y="351" class="st1" width="8.9" height="8.5"/>
	<rect x="417.6" y="359.5" class="st1" width="8.9" height="8.5"/>
	
		<rect x="34.2" y="475.9" transform="matrix(0.8738 -0.4863 0.4863 0.8738 -228.6304 79.3877)" class="st1" width="8.9" height="8.5"/>
	
		<rect x="38.3" y="483.3" transform="matrix(0.8739 -0.4862 0.4862 0.8739 -231.6569 82.2884)" class="st1" width="8.9" height="8.5"/>
	<path class="st1" d="M808.6,443.1v-23.9H799V310.9h-61.8v13.3h-63.4v-13.3h-40.2l0,0h-52.8l0,0h-61.8l0,0l-92.8,0.4l0.5,219.7h29.8
		v7.2H742c5.7,7.8,14.9,12.8,25.2,12.8s19.6-5.1,25.2-12.8h5.9v-16.5c0-0.6,0.1-1.2,0.1-1.9s0-1.2-0.1-1.9v-74.8H808.6L808.6,443.1z
		"/>
	<path class="st1" d="M701.6,249.1l36.7-20.7l22.8-23.5c-13.1-8.9-23.2-19.2-31.1-29.5l-40.4,41.7h-47.2c0,0-79.7-33.1-215.7-38.1
		c-136-5-258.7,55.1-258.7,55.1l-7.4-47.4h-29.2l-2.2-19.1h-9v-14.2h-1.3v-33.6H108v18.5h-8.3v10.9H86.3v18.4H55.8l-11.5,10.5v24
		l11.4,12.8h22.1v14.2h9v3.2h25.8v-19.4h16.2l2.7-16.4h21.3l6.4,42l-5,2.7v17.6h-103v24.5h102.8v14.4l24.3,0.5v13.2h91.1v-39.1
		l31-25.7l30.6-7h187.1l31.6,5.9l95.1,49.2v16.4h29v-27L701.6,249.1z"/>
	<path class="st1" d="M706.2,150.5l7.2-3.2c-6.2-13.7-8.1-23.6-8.1-23.6H580.9v32.7h21.2v47.7c3.3,0.9,6.5,1.8,9.4,2.6v-56.3H706.2z
		"/>
	
		<rect x="563.1" y="222.6" transform="matrix(0.2352 -0.9719 0.9719 0.2352 213.6814 724.1859)" class="st1" width="7.8" height="7.5"/>
	
		<rect x="561.2" y="230.2" transform="matrix(0.2352 -0.9719 0.9719 0.2352 204.8734 728.2289)" class="st1" width="7.8" height="7.5"/>
	<rect x="635.6" y="321.1" class="st1" width="8.6" height="8.6"/>
	<rect x="633.5" y="310.8" class="st1" width="10.7" height="10.3"/>
	<rect x="635.6" y="329.7" class="st1" width="8.6" height="8.6"/>
	<rect x="798.4" y="422.7" class="st1" width="8.6" height="8.6"/>
	<rect x="798.4" y="431.3" class="st1" width="8.6" height="8.6"/>
	
		<rect x="248.2" y="225.9" transform="matrix(0.9554 -0.2954 0.2954 0.9554 -59.9813 84.6143)" class="st1" width="3.7" height="29.9"/>
	
		<rect x="252.7" y="224.8" transform="matrix(0.9554 -0.2954 0.2954 0.9554 -59.4659 85.8855)" class="st1" width="3.7" height="29.9"/>
	
		<rect x="144.1" y="325.2" transform="matrix(4.299961e-03 -1 1 4.299961e-03 -168.6082 484.7274)" class="st1" width="29.9" height="3.7"/>
	
		<rect x="148.9" y="325.2" transform="matrix(4.499954e-03 -1 1 4.499954e-03 -163.9264 489.4178)" class="st1" width="29.9" height="3.7"/>
	
		<rect x="169.9" y="402.3" transform="matrix(4.499954e-03 -1 1 4.499954e-03 -241.6326 582.4278)" class="st1" width="3.7" height="20.6"/>
	
		<rect x="274" y="402.3" transform="matrix(4.499954e-03 -1 1 4.499954e-03 -137.9319 686.5942)" class="st1" width="3.7" height="20.6"/>
	
		<rect x="294.6" y="386.4" transform="matrix(4.499954e-03 -1 1 4.499954e-03 -101.527 691.3731)" class="st1" width="3.7" height="20.6"/>
	
		<rect x="149.9" y="386" transform="matrix(4.699948e-03 -1 1 4.699948e-03 -245.6943 546.5087)" class="st1" width="3.7" height="21.3"/>
	
		<rect x="345.4" y="206.3" transform="matrix(0.9363 -0.3512 0.3512 0.9363 -50.3636 138.5525)" class="st1" width="22.7" height="3.7"/>
	
		<rect x="344" y="201.9" transform="matrix(0.9362 -0.3515 0.3515 0.9362 -48.9374 137.9032)" class="st1" width="22.7" height="3.7"/>
	
		<rect x="492.3" y="197" transform="matrix(0.3209 -0.9471 0.9471 0.3209 138.2288 609.4963)" class="st1" width="3.7" height="22.7"/>
	
		<rect x="494" y="192.7" transform="matrix(0.3215 -0.9469 0.9469 0.3215 143.1769 607.9558)" class="st1" width="3.7" height="22.7"/>
	
		<rect x="591.3" y="235.5" transform="matrix(0.3087 -0.9512 0.9512 0.3087 190.8853 737.3178)" class="st1" width="22.7" height="3.7"/>
	
		<rect x="649.4" y="251.4" transform="matrix(0.4105 -0.9119 0.9119 0.4105 158.6384 751.7908)" class="st1" width="22.7" height="3.7"/>
	
		<rect x="648.2" y="266.6" transform="matrix(0.4105 -0.9119 0.9119 0.4105 144.0858 759.6475)" class="st1" width="22.7" height="3.7"/>
	
		<rect x="587" y="233.9" transform="matrix(0.309 -0.9511 0.9511 0.309 189.3124 731.9655)" class="st1" width="22.7" height="3.7"/>
	
		<rect x="716.3" y="210.1" transform="matrix(0.6924 -0.7215 0.7215 0.6924 70.8934 590.2259)" class="st1" width="22.7" height="3.7"/>
	
		<rect x="713.2" y="206.8" transform="matrix(0.6927 -0.7213 0.7213 0.6927 72.1717 586.7319)" class="st1" width="22.7" height="3.7"/>
	
		<rect x="188.7" y="249.4" transform="matrix(0.9085 -0.4178 0.4178 0.9085 -93.0024 103.7846)" class="st1" width="3.7" height="29.9"/>
	
		<rect x="193" y="247.7" transform="matrix(0.9086 -0.4177 0.4177 0.9086 -91.9025 105.4012)" class="st1" width="3.7" height="29.9"/>
	<rect x="87.1" y="182.5" class="st1" width="8.7" height="8.7"/>
	<rect x="95.8" y="182.5" class="st1" width="8.7" height="8.7"/>
	<rect x="104.4" y="182.5" class="st1" width="8.7" height="8.7"/>
	<rect x="87.1" y="158.8" class="st1" width="8.7" height="8.7"/>
	<rect x="95.8" y="158.8" class="st1" width="8.7" height="8.7"/>
	<rect x="104.4" y="158.8" class="st1" width="8.7" height="8.7"/>
	<rect x="87.1" y="191.2" class="st1" width="8.7" height="8.7"/>
	<rect x="95.8" y="191.2" class="st1" width="8.7" height="8.7"/>
	<rect x="104.4" y="191.2" class="st1" width="8.7" height="8.7"/>
	<rect x="87.1" y="213.4" class="st1" width="8.7" height="8.7"/>
	<rect x="95.8" y="213.4" class="st1" width="8.7" height="8.7"/>
	<rect x="104.4" y="213.4" class="st1" width="8.7" height="8.7"/>
	<path class="st1" d="M271.5,150.4v-30.5h-93.1v30.5h61.8v56.2c3.2-1,6.6-2,10-3v-53.2L271.5,150.4L271.5,150.4z"/>
	<path class="st2" d="M51.3,311.3v118.9c-14.2,6.7-24,21.2-24,37.9s9.8,31.2,24,37.9v5.6h201v5h57.8v-5h83.7V531h33.1V335.5
		l-0.5-24.1L51.3,311.3L51.3,311.3z"/>
	<path id="_x3C_path_x3E_" class="st1" d="M160.7,119.9v66.8l7.4,47.4c0,0,3.6-1.8,10.3-4.7V119.9H160.7z"/>
	<path id="_x3C_Path_x3E_" class="st1" d="M364.6,119.9v61.1c5.6-0.5,11.2-1,16.9-1.3v-59.7C381.5,119.9,364.6,119.9,364.6,119.9z"
		/>
</g>
<g id="rooms">
	<polygon id="r100" class="st3" points="86.3,167.6 86.3,149.3 99.7,149.3 99.7,138.4 108,138.4 108,119.9 44.3,119.9 44.3,178.1 
		55.8,167.6 	"/>
	<path id="r121-123" class="st3" d="M761.2,204.9l-22.8,23.5l-36.7,20.7L673.9,284v27v13.3h63.4v-13.3H799v-88.2
		C784.2,218.3,771.7,212.1,761.2,204.9z"/>
	<path id="r106-108" class="st3" d="M271.5,119.9v30.5h-21.3v53.2l21.3-5.9c19-4.9,39.9-9.5,62.1-12.9v-64.9H271.5z"/>
	<path id="r109" class="st3" d="M333.6,119.9v64.9c10.1-1.5,20.4-2.8,31-3.8v-61.1C364.6,119.9,333.6,119.9,333.6,119.9z"/>
	<path id="r112-1_1_" class="st3" d="M425.6,119.9v30.6h6.5c0.2,0,0.3,28.7,0.3,28.7c5.5,0.2,5.3,0.2,10.6,0.5v-59.9L425.6,119.9
		L425.6,119.9z"/>
	<path id="r112-2" class="st3" d="M443,119.9v59.9c4.4,0.2,8.8,0.5,13.1,0.8v-60.7H443z"/>
	<path id="r115-1" class="st3" d="M517.9,119.9v67.2c11,1.6,5.8,0.8,15.5,2.5v-69.7H517.9z"/>
	<path id="r115-2" class="st3" d="M533.4,119.9v69.7c11,1.6,5.8,0.8,15.5,2.5l0-72.3H533.4z"/>
	<path id="r113" class="st3" d="M456.1,119.9v60.7c10.8,0.7,21.1,1.7,31,2.7v-63.4L456.1,119.9L456.1,119.9z"/>
	<path id="r114-1" class="st3" d="M487.1,119.9v63.4c5.4,0.6,10.7,1.2,15.8,1.8v-65.2L487.1,119.9L487.1,119.9z"/>
	<path id="r114-2" class="st3" d="M502.9,119.9v65.2c5.1,0.6,10.1,1.3,15,2v-67.2L502.9,119.9L502.9,119.9z"/>
	<polygon id="r132-133" class="st3" points="331.1,239.5 300.6,246.5 300.6,311.3 364,311.3 364,239.5 	"/>
	<polygon id="r134-2-134-3" class="st3" points="260.7,272.4 260.7,310.9 285.4,311.3 285.4,259 269.5,272.2 	"/>
	<polygon id="r134-1" class="st3" points="300.5,246.5 285.4,259 285.4,311.3 300.6,311.3 300.6,246.5 	"/>
	<polygon id="r128-1-129-130-131" class="st3" points="453.9,286 453.9,239.5 364,239.5 364,311.3 426.3,311.3 487.1,311.3 
		487.2,286 	"/>
	<polygon id="r125-126" class="st3" points="549.8,245.4 549.4,245.3 519.1,239.6 519.1,310.9 549.4,310.9 580.9,310.9 580.9,261.5 
			"/>
	<polygon id="r124-2" class="st3" points="580.9,261.5 580.9,310.9 580.9,310.9 611.5,310.8 611.5,277.3 	"/>
	<polygon id="r124-1" class="st3" points="611.5,277.3 611.5,310.8 633.6,310.9 633.6,310.9 644.9,310.9 644.9,294.6 	"/>
	<polygon class="st3" points="164.6,275 168.3,277.1 174.6,274.2 174.6,256.2 170,253.1 168.5,254.1 	"/>
	<polygon id="r101-1-101-2" class="st3" points="77.8,229.1 77.8,214.9 61.2,214.9 55.7,214.9 44.3,202.1 44.3,258.8 51.3,258.8 
		61.2,258.8 80,258.8 80,229.1 	"/>
	<polygon id="r102" class="st3" points="154.2,258.8 154.2,241.2 159.2,238.5 152.8,196.5 131.5,196.5 128.8,212.9 112.6,212.9 
		112.6,232.3 86.8,232.3 86.8,229.1 80,229.1 80,258.8 	"/>
	<rect id="r135-3" x="83.5" y="283.3" class="st3" width="29.6" height="28.1"/>
	<rect id="r135-4" x="51.3" y="283.3" class="st3" width="32.2" height="28.1"/>
	<path id="r118" class="st3" d="M611.5,150.5v56.3c20.3,5.9,31,10.3,31,10.3h0.2v-66.6H611.5z"/>
	<rect id="r119" x="642.8" y="150.5" class="st3" width="31.1" height="66.6"/>
	<path id="r120" class="st3" d="M730.1,175.4c-7.5-9.9-12.9-19.7-16.7-28.1l-7.2,3.2h-32.4v66.6h15.9L730.1,175.4z"/>
	<path id="r116-2" class="st3" d="M580.9,198.7v-74.9v-3.8h-31.9v36.6h16l0.3,38.9L580.9,198.7z"/>
	<path id="r117" class="st3" d="M602.1,156.5h-21.2v42.2l0,0.1c7.8,1.8,14.9,3.6,21.2,5.3V156.5L602.1,156.5z"/>
	<rect id="r128-2" x="453.9" y="239.5" class="st3" width="33.4" height="46.5"/>
	<polygon id="r127" class="st3" points="518.2,239.5 487.2,239.5 487.2,286 487.1,311.3 519.1,310.9 519.1,310.9 519.1,239.6 	"/>
	<rect id="r135-2b" x="113.1" y="283.3" class="st3" width="15.8" height="28.1"/>
	<polygon id="r135-2-a" class="st3" points="144.8,283.3 128.9,283.3 128.9,311.3 144.8,311.3 141,311.3 141,297.3 141,283.3 	"/>
	<polygon id="r135-1" class="st3" points="178.4,298.2 154.1,297.6 154.1,283.3 141,283.3 141,311.3 178.4,311.3 	"/>
	<path id="r104-3" class="st3" d="M178.4,150.4v79c7.1-3.1,17.6-7.4,30.9-12.3v-66.7L178.4,150.4L178.4,150.4z"/>
	<path id="r105" class="st3" d="M209.3,150.4v66.7c9.1-3.3,19.4-6.9,30.9-10.5v-56.2L209.3,150.4L209.3,150.4z"/>
	<polygon id="r104-1" class="st3" points="120.3,153.5 120.3,167.6 129.3,167.6 131.5,186.7 160.7,186.7 160.7,119.9 119.1,119.9 
		119.1,153.5 	"/>
	<polygon id="r110-2-111-1_1_" class="st3" points="409.5,178.7 381.5,179.6 381.5,150.5 409.5,150.5 	"/>
	<polygon id="r111-2" class="st3" points="381.5,119.9 425.6,119.9 425.6,150.5 417.9,150.5 417.9,178.8 409.5,178.7 409.5,150.5 
		381.5,150.5 	"/>
	<polygon id="r116-1" class="st3" points="548.9,192.2 548.9,156.5 564.9,156.5 565.2,195.4 	"/>
	<rect id="k113" x="664.7" y="301.6" class="st3" width="9.2" height="9.2"/>
	
		<rect id="k111" x="645.2" y="241.8" transform="matrix(0.8861 0.4635 -0.4635 0.8861 191.002 -271.9345)" class="st3" width="7.2" height="21.9"/>
	
		<rect id="k110" x="607.9" y="229.9" transform="matrix(0.9497 0.3131 -0.3131 0.9497 106.1576 -179.3538)" class="st3" width="7.2" height="21.9"/>
	
		<rect id="k115" x="279.8" y="222.3" transform="matrix(0.9691 -0.2468 0.2468 0.9691 -47.0622 76.9666)" class="st3" width="7.5" height="7.8"/>
	
		<rect id="k114" x="281.7" y="229.9" transform="matrix(0.969 -0.2469 0.2469 0.969 -48.8938 77.7167)" class="st3" width="7.5" height="7.8"/>
	
		<rect id="k112" x="218.7" y="235.7" transform="matrix(0.9268 -0.3755 0.3755 0.9268 -77.7538 102.5446)" class="st3" width="10.9" height="30.1"/>
</g>
<g id="signs">
	<rect id="information" x="149.8" y="262.7" class="st4" width="14.8" height="14.8"/>
	<g id="elevator">
		<rect x="92.7" y="183.8" class="st4" width="14.8" height="14.8"/>
		<rect x="264" y="226.4" class="st4" width="14.8" height="14.8"/>
		<rect x="569.7" y="226.4" class="st4" width="14.8" height="14.8"/>
		<rect x="647" y="316.8" class="st4" width="14.8" height="14.8"/>
		<rect x="399" y="343.6" class="st4" width="14.8" height="14.8"/>
		<rect x="48.2" y="466.9" class="st4" width="14.8" height="14.8"/>
	</g>
	<g id="toilet">
		<rect x="217.3" y="124.6" class="st4" width="14.8" height="14.8"/>
		<rect x="55.6" y="315.9" class="st4" width="14.8" height="14.8"/>
		<rect x="620.8" y="126.1" class="st4" width="14.8" height="14.8"/>
	</g>
	<g id="escalator">
		<rect x="190.8" y="268.1" class="st4" width="14.8" height="14.8"/>
		<rect x="236.5" y="214.6" class="st4" width="14.8" height="14.8"/>
		<rect x="154.5" y="398.6" class="st4" width="14.8" height="14.8"/>
		<rect x="154.5" y="339.3" class="st4" width="14.8" height="14.8"/>
		<rect x="278.8" y="398.6" class="st4" width="14.8" height="14.8"/>
		<rect x="332.4" y="204.1" class="st4" width="14.8" height="14.8"/>
		<rect x="504.2" y="204.1" class="st4" width="14.8" height="14.8"/>
		<rect x="598.4" y="210.7" class="st4" width="14.8" height="14.8"/>
		<rect x="663" y="233.4" class="st4" width="14.8" height="14.8"/>
		<rect x="645.8" y="275.5" class="st4" width="14.8" height="14.8"/>
		<rect x="708" y="214.1" class="st4" width="14.8" height="14.8"/>
	</g>
	<g id="lift">
		<rect x="30.8" y="262.7" class="st4" width="14.8" height="14.8"/>
		<rect x="29.5" y="182.5" class="st4" width="14.8" height="14.8"/>
		<rect x="29.4" y="343.6" class="st4" width="14.8" height="14.8"/>
		<rect x="29.4" y="394.8" class="st4" width="14.8" height="14.8"/>
		<rect x="748.6" y="172.2" class="st4" width="14.8" height="14.8"/>
		<rect x="652.2" y="339.5" class="st4" width="14.8" height="14.8"/>
		<rect x="431.3" y="398.6" class="st4" width="14.8" height="14.8"/>
	</g>
	<rect id="parking" x="593.1" y="427" class="st4" width="14.8" height="14.8"/>
</g>
</svg>
