<?xml version="1.0" encoding="utf-8"?>
<!-- Generator: Adobe Illustrator 16.0.0, SVG Export Plug-In . SVG Version: 6.00 Build 0)  -->
<!DOCTYPE svg PUBLIC "-//W3C//DTD SVG 1.1//EN" "http://www.w3.org/Graphics/SVG/1.1/DTD/svg11.dtd">
<svg version="1.1" id="Layer_1" xmlns="http://www.w3.org/2000/svg" xmlns:xlink="http://www.w3.org/1999/xlink" x="0px" y="0px"
	 width="1000px" height="1000px" viewBox="0 0 1000 1000" enable-background="new 0 0 1000 1000" xml:space="preserve">
<g id="background">
	<rect y="146.455" fill="#FFFFFF" width="1000" height="707.091"/>
</g>
<g id="etc">
	<path fill="#BFBFBF" stroke="#494949" stroke-width="0.66" stroke-miterlimit="10" d="M960.446,672.764v-28.388h-11.402V411.094
		c-94.192-28.388-111.296-117.591-111.296-117.591H689.987v-4.514H52.619v164.983h8.314v203.706
		c-16.867,7.959-28.507,25.182-28.507,45.018s11.64,37.059,28.507,45.018v6.651H299.68v5.938h68.654v-5.938h99.418v22.806h74.593
		v8.552H881.34c6.771,9.265,17.698,15.204,29.933,15.204c12.353,0,23.28-6.058,29.932-15.204h7.009v-19.599
		c0-0.713,0.118-1.425,0.118-2.257c0-0.831,0-1.425-0.118-2.257v-88.847H960.446L960.446,672.764L960.446,672.764z"/>
	<path fill="#BFBFBF" stroke="#494949" stroke-width="0.66" stroke-miterlimit="10" d="M60.934,516.569v140.872
		c-16.867,7.958-28.507,25.182-28.507,45.018c0,19.955,11.64,37.059,28.507,45.017v6.652H299.68v5.938h68.654v-5.938h99.418v23.043
		h38.959V516.569H60.934z"/>
	
		<rect x="332.699" y="410.86" transform="matrix(-0.9691 0.2468 -0.2468 -0.9691 766.4259 734.9171)" fill="#BFBFBF" stroke="#494949" stroke-width="0.66" stroke-miterlimit="10" width="8.908" height="9.265"/>
	
		<rect x="334.934" y="419.88" transform="matrix(-0.969 0.2469 -0.2469 -0.969 773.0952 752.0664)" fill="#BFBFBF" stroke="#494949" stroke-width="0.66" stroke-miterlimit="10" width="8.908" height="9.264"/>
	
		<rect x="620.174" y="418.943" transform="matrix(-0.2102 0.9777 -0.9777 -0.2102 1175.9269 -107.681)" fill="#BFBFBF" stroke="#494949" stroke-width="0.66" stroke-miterlimit="10" width="22.569" height="4.395"/>
	
		<rect x="625.521" y="420.378" transform="matrix(-0.2107 0.9775 -0.9775 -0.2107 1184.0706 -110.8945)" fill="#BFBFBF" stroke="#494949" stroke-width="0.66" stroke-miterlimit="10" width="22.567" height="4.395"/>
	
		<rect x="624.752" y="395.6" transform="matrix(-0.2103 0.9776 -0.9776 -0.2103 1158.7002 -140.3531)" fill="#BFBFBF" stroke="#494949" stroke-width="0.66" stroke-miterlimit="10" width="22.567" height="4.394"/>
	
		<rect x="629.972" y="396.987" transform="matrix(-0.2108 0.9775 -0.9775 -0.2108 1166.6606 -143.5016)" fill="#BFBFBF" stroke="#494949" stroke-width="0.66" stroke-miterlimit="10" width="22.568" height="4.395"/>
	
		<rect x="759.319" y="453.446" transform="matrix(-0.4105 0.9119 -0.9119 -0.4105 1517.9923 -70.0822)" fill="#BFBFBF" stroke="#494949" stroke-width="0.66" stroke-miterlimit="10" width="44.662" height="4.395"/>
	
		<rect x="764.198" y="453.926" transform="matrix(-0.4105 0.9119 -0.9119 -0.4105 1527.571 -75.3194)" fill="#BFBFBF" stroke="#494949" stroke-width="0.66" stroke-miterlimit="10" width="47.869" height="4.395"/>
	
		<rect x="222.272" y="432.842" transform="matrix(-0.9086 0.4177 -0.4177 -0.9086 618.8784 776.4343)" fill="#BFBFBF" stroke="#494949" stroke-width="0.66" stroke-miterlimit="10" width="4.395" height="46.205"/>
	
		<rect x="227.469" y="430.898" transform="matrix(-0.9086 0.4177 -0.4177 -0.9086 627.9867 770.553)" fill="#BFBFBF" stroke="#494949" stroke-width="0.66" stroke-miterlimit="10" width="4.395" height="46.206"/>
	
		<rect x="455.528" y="410.862" transform="matrix(-1 0.0069 -0.0069 -1 918.3474 841.1293)" fill="#BFBFBF" stroke="#494949" stroke-width="0.66" stroke-miterlimit="10" width="4.395" height="22.568"/>
	
		<rect x="460.873" y="411.1" transform="matrix(-1 0.0068 -0.0068 -1 928.9938 841.6204)" fill="#BFBFBF" stroke="#494949" stroke-width="0.66" stroke-miterlimit="10" width="4.395" height="22.568"/>
	
		<rect x="455.053" y="387.106" transform="matrix(-1 0.0068 -0.0068 -1 917.1906 793.6721)" fill="#BFBFBF" stroke="#494949" stroke-width="0.66" stroke-miterlimit="10" width="4.395" height="22.568"/>
	
		<rect x="460.398" y="387.225" transform="matrix(-1 0.0068 -0.0068 -1 927.8807 793.8741)" fill="#BFBFBF" stroke="#494949" stroke-width="0.66" stroke-miterlimit="10" width="4.395" height="22.568"/>
	<path fill="#BFBFBF" stroke="#494949" stroke-width="0.66" stroke-miterlimit="10" d="M395.297,384.25l-14.135,2.494v4.632
		l-15.323,2.851l-2.138-4.276l-4.751,0.832l-37.297,8.671l-4.988,1.425c0.712,2.257,1.781,5.583,1.781,5.583l10.928,1.307
		l7.602,29.338l-9.146,7.127l1.307,4.395l43.354-11.996l0.237-6.771l15.085-2.97l2.731,6.177l4.514-0.713l12.591,0.119
		l-6.533-48.938L395.297,384.25z"/>
	<path fill="#BFBFBF" stroke="#494949" stroke-width="0.66" stroke-miterlimit="10" d="M286.139,434.493
		c-3.326-11.046,7.126-13.185,7.126-13.185l-3.919-12.946l-4.395,1.188l-37.059,13.065l-19.361,7.84v3.207l-17.46,7.245v34.684
		h16.748l14.373-5.701l6.058,5.701l36.821-13.659l19.124-5.939l-4.396-13.896C299.68,442.096,289.583,445.54,286.139,434.493z"/>
	<polygon fill="#BFBFBF" stroke="#494949" stroke-width="0.66" stroke-miterlimit="10" points="783.703,434.019 783.703,430.573 
		764.343,423.091 727.64,409.668 722.651,408.362 719.325,420.002 726.927,434.73 711.842,443.046 707.923,455.992 727.402,461.932 
		764.224,475.591 770.044,469.296 784.179,475.591 800.808,475.591 800.808,441.383 	"/>
	
		<rect x="202.162" y="440.789" fill="#BFBFBF" stroke="#494949" stroke-width="0.66" stroke-miterlimit="10" width="8.79" height="34.802"/>
	<polygon fill="#BFBFBF" stroke="#494949" stroke-width="0.66" stroke-miterlimit="10" points="674.189,435.206 679.771,410.144 
		693.432,407.056 695.569,400.76 690.581,399.454 653.76,390.901 648.771,389.833 646.395,394.108 631.666,391.258 630.954,386.625 
		616.7,384.25 611.593,383.656 604.229,432.83 621.096,432.83 624.302,426.654 639.269,429.861 639.862,436.632 682.86,448.51 
		683.93,444.114 	"/>
	<path fill="#BFBFBF" stroke="#494949" stroke-width="0.66" stroke-miterlimit="10" d="M579.879,379.38l-36.94-2.494l-37.059-0.95
		l-36.466,0.95l-0.475,14.372l-16.867,2.613l-4.988-15.56l-14.848,1.188l-16.866,2.138c1.069,8.671,5.82,40.385,7.364,50.956
		l27.2,0.119l1.9-8.908h16.867l0.355,9.265h8.671c0.238-15.561,12.828-28.032,28.389-28.032c15.56,0,28.15,12.472,28.388,27.913
		l54.995-0.119l7.721-51.193L579.879,379.38z"/>
	
		<rect x="496.021" y="543.176" fill="#BFBFBF" stroke="#494949" stroke-width="0.66" stroke-miterlimit="10" width="10.571" height="10.097"/>
	
		<rect x="496.021" y="553.272" fill="#BFBFBF" stroke="#494949" stroke-width="0.66" stroke-miterlimit="10" width="10.571" height="10.096"/>
	
		<rect x="496.021" y="563.368" fill="#BFBFBF" stroke="#494949" stroke-width="0.66" stroke-miterlimit="10" width="10.571" height="10.097"/>
	
		<rect x="496.021" y="573.465" fill="#BFBFBF" stroke="#494949" stroke-width="0.66" stroke-miterlimit="10" width="10.571" height="10.096"/>
	
		<rect x="948.688" y="648.89" fill="#BFBFBF" stroke="#494949" stroke-width="0.66" stroke-miterlimit="10" width="10.215" height="10.215"/>
	
		<rect x="948.688" y="659.104" fill="#BFBFBF" stroke="#494949" stroke-width="0.66" stroke-miterlimit="10" width="10.215" height="10.215"/>
	
		<rect x="201.794" y="624.224" transform="matrix(-0.0046 1 -1 -0.0046 841.3724 435.3688)" fill="#BFBFBF" stroke="#494949" stroke-width="0.66" stroke-miterlimit="10" width="4.395" height="24.469"/>
	
		<rect x="177.68" y="624.59" transform="matrix(-0.0044 1 -1 -0.0044 817.4943 459.7794)" fill="#BFBFBF" stroke="#494949" stroke-width="0.66" stroke-miterlimit="10" width="4.395" height="24.469"/>
	
		<rect x="325.525" y="624.303" transform="matrix(-0.0044 1 -1 -0.0044 965.71 311.6467)" fill="#BFBFBF" stroke="#494949" stroke-width="0.66" stroke-miterlimit="10" width="4.395" height="24.469"/>
	
		<rect x="350.566" y="624.283" transform="matrix(-0.0047 1 -1 -0.0047 990.92 286.7276)" fill="#BFBFBF" stroke="#494949" stroke-width="0.66" stroke-miterlimit="10" width="4.395" height="24.468"/>
	
		<rect x="324.708" y="604.905" transform="matrix(-0.0044 1 -1 -0.0044 945.4917 292.9804)" fill="#BFBFBF" stroke="#494949" stroke-width="0.66" stroke-miterlimit="10" width="4.395" height="24.469"/>
	
		<rect x="349.99" y="605.426" transform="matrix(-0.0047 1 -1 -0.0047 971.4844 268.3589)" fill="#BFBFBF" stroke="#494949" stroke-width="0.66" stroke-miterlimit="10" width="4.395" height="24.468"/>
	
		<rect x="178.418" y="605.3" transform="matrix(-0.0049 1 -1 -0.0049 799.4418 440.3565)" fill="#BFBFBF" stroke="#494949" stroke-width="0.66" stroke-miterlimit="10" width="4.396" height="25.3"/>
	
		<rect x="203.713" y="605.292" transform="matrix(-0.0048 1 -1 -0.0048 824.8293 414.986)" fill="#BFBFBF" stroke="#494949" stroke-width="0.66" stroke-miterlimit="10" width="4.396" height="25.3"/>
	
		<rect x="754.959" y="527.854" fill="#BFBFBF" stroke="#494949" stroke-width="0.66" stroke-miterlimit="10" width="10.215" height="10.215"/>
	
		<rect x="752.465" y="515.619" fill="#BFBFBF" stroke="#494949" stroke-width="0.66" stroke-miterlimit="10" width="12.709" height="12.234"/>
	
		<rect x="754.959" y="538.068" fill="#BFBFBF" stroke="#494949" stroke-width="0.66" stroke-miterlimit="10" width="10.215" height="10.215"/>
	
		<rect x="669.235" y="411.23" transform="matrix(-0.2352 0.972 -0.972 -0.2352 1236.3684 -141.5244)" fill="#BFBFBF" stroke="#494949" stroke-width="0.66" stroke-miterlimit="10" width="9.264" height="8.908"/>
	
		<rect x="667.016" y="420.335" transform="matrix(-0.2353 0.9719 -0.9719 -0.2353 1242.5344 -128.0642)" fill="#BFBFBF" stroke="#494949" stroke-width="0.66" stroke-miterlimit="10" width="9.264" height="8.908"/>
	<polygon fill="#BFBFBF" stroke="#494949" stroke-width="0.66" stroke-miterlimit="10" points="95.974,430.099 134.22,430.099 
		134.22,400.76 183.87,400.76 183.87,326.404 212.139,326.404 212.139,288.871 52.619,288.871 52.619,419.171 95.974,419.171 	"/>
</g>
<g id="rooms">
	
		<rect id="k306" x="800.808" y="441.383" fill="#959595" stroke="#494949" stroke-width="0.5" stroke-miterlimit="10" width="7.721" height="34.208"/>
	
		<rect id="r320-2" x="836.679" y="461.932" fill="#959595" stroke="#494949" stroke-width="0.5" stroke-miterlimit="10" width="112.365" height="14.609"/>
	<polygon id="r322" fill="#959595" stroke="#494949" stroke-width="0.5" stroke-miterlimit="10" points="836.798,501.841 
		800.332,501.841 800.214,516.569 800.214,516.569 875.639,516.569 875.639,516.569 875.995,501.841 	"/>
	<polygon id="_x33_21" fill="#959595" stroke="#494949" stroke-width="0.5" stroke-miterlimit="10" points="949.044,484.262 
		836.798,484.262 836.798,501.841 875.995,501.841 875.639,516.569 949.044,516.569 	"/>
	<path id="r318" fill="#959595" stroke="#494949" stroke-width="0.5" stroke-miterlimit="10" d="M869.818,358.237
		c-10.215-12.828-17.461-25.656-22.33-36.465l-10.097,4.632h-37.891v79.938h21.618v16.272h15.679v-38.603L869.818,358.237z"/>
	<path id="r309" fill="#959595" stroke="#494949" stroke-width="0.5" stroke-miterlimit="10" d="M433.662,288.871v74.474
		c11.284-1.188,23.043-2.138,35.158-2.851v-71.624C468.939,288.871,433.662,288.871,433.662,288.871z"/>
	<path id="r310" fill="#959595" stroke="#494949" stroke-width="0.5" stroke-miterlimit="10" d="M468.939,288.871v71.624
		l32.901-1.069l-0.356-27.794h4.396v-42.76H468.939L468.939,288.871z"/>
	<path id="r306-3" fill="#959595" stroke="#494949" stroke-width="0.5" stroke-miterlimit="10" d="M341.846,288.871v89.322
		c5.583-1.188,11.521-2.495,17.936-3.801v-85.64h-17.936V288.871z"/>
	<path id="r306-1-306-2" fill="#959595" stroke="#494949" stroke-width="0.5" stroke-miterlimit="10" d="M322.484,288.871v37.534
		v56.302c5.583-1.426,12.116-2.97,19.242-4.514v-89.322H322.484L322.484,288.871z"/>
	<path id="r305" fill="#959595" stroke="#494949" stroke-width="0.5" stroke-miterlimit="10" d="M297.541,326.404v63.19
		c0,0,9.027-2.851,24.943-6.77v-56.301h-24.943V326.404z"/>
	<path id="r307" fill="#959595" stroke="#494949" stroke-width="0.5" stroke-miterlimit="10" d="M359.781,288.871v85.639
		c11.047-2.138,23.399-4.395,36.703-6.414v-79.225H359.781L359.781,288.871z"/>
	<path id="r312" fill="#959595" stroke="#494949" stroke-width="0.5" stroke-miterlimit="10" d="M542.226,288.871v71.624
		c12.472,0.713,24.825,1.782,36.703,2.97v-74.593H542.226L542.226,288.871z"/>
	<polygon id="r317-1" fill="#959595" stroke="#494949" stroke-width="0.5" stroke-miterlimit="10" points="726.927,326.999 
		726.927,332.938 726.927,392.327 745.694,392.327 745.694,326.999 	"/>
	
		<rect id="r317-2" x="745.694" y="326.999" fill="#959595" stroke="#494949" stroke-width="0.5" stroke-miterlimit="10" width="19.123" height="65.329"/>
	
		<rect id="r317-3" x="764.817" y="326.999" fill="#959595" stroke="#494949" stroke-width="0.5" stroke-miterlimit="10" width="24.706" height="65.329"/>
	<path id="r314-315" fill="#959595" stroke="#494949" stroke-width="0.5" stroke-miterlimit="10" d="M689.749,288.871h-73.643
		v79.463c29.101,4.395,54.52,9.74,73.643,14.373v-49.769V288.871z"/>
	<path id="r313" fill="#959595" stroke="#494949" stroke-width="0.5" stroke-miterlimit="10" d="M578.929,288.871v74.593
		c12.828,1.306,25.3,2.969,37.059,4.751v-79.463h-37.059V288.871z"/>
	<path id="r311-1" fill="#959595" stroke="#494949" stroke-width="0.5" stroke-miterlimit="10" d="M525.953,288.871H505.88v42.76
		c0.118,0,3.444,0,3.444,0l0.119,28.032h16.51V288.871L525.953,288.871z"/>
	<path id="r316" fill="#959595" stroke="#494949" stroke-width="0.5" stroke-miterlimit="10" d="M689.749,332.938v49.649
		c23.044,5.464,36.821,9.74,36.821,9.74h0.356v-59.39H689.749z"/>
	<path id="r328-2" fill="#959595" stroke="#494949" stroke-width="0.5" stroke-miterlimit="10" d="M505.998,467.752v48.817h0.594
		v1.544h18.53v-57.251C519.776,465.02,513.244,467.633,505.998,467.752z"/>
	
		<rect id="r331-2" x="394.228" y="453.498" fill="#959595" stroke="#494949" stroke-width="0.5" stroke-miterlimit="10" width="18.767" height="63.071"/>
	
		<rect id="r331-1" x="412.876" y="453.498" fill="#959595" stroke="#494949" stroke-width="0.5" stroke-miterlimit="10" width="18.41" height="63.071"/>
	
		<rect id="r330-1" x="449.935" y="453.498" fill="#959595" stroke="#494949" stroke-width="0.5" stroke-miterlimit="10" width="18.768" height="63.071"/>
	<path id="r329" fill="#959595" stroke="#494949" stroke-width="0.5" stroke-miterlimit="10" d="M505.523,467.752
		c-11.047,0-20.668-5.702-26.25-14.254h-10.69v63.071h37.415v-48.817C505.88,467.752,505.642,467.752,505.523,467.752z"/>
	
		<rect id="r330-2" x="431.286" y="453.498" fill="#959595" stroke="#494949" stroke-width="0.5" stroke-miterlimit="10" width="18.53" height="63.071"/>
	<path id="r334" fill="#959595" stroke="#494949" stroke-width="0.5" stroke-miterlimit="10" d="M302.292,472.265
		c0,0.595,0,30.17,0,44.187h18.174v-44.187C320.466,472.265,302.292,471.553,302.292,472.265z"/>
	<polygon id="r332-1" fill="#959595" stroke="#494949" stroke-width="0.5" stroke-miterlimit="10" points="376.292,453.498 
		376.292,457.893 376.292,516.569 394.228,516.569 394.228,453.498 	"/>
	<polygon id="r333" fill="#959595" stroke="#494949" stroke-width="0.5" stroke-miterlimit="10" points="320.466,467.157 
		320.466,472.265 320.466,516.569 357.762,516.569 357.762,467.157 	"/>
	<polygon id="r332-2" fill="#959595" stroke="#494949" stroke-width="0.5" stroke-miterlimit="10" points="357.762,457.893 
		357.762,467.157 357.762,516.569 376.292,516.569 376.292,457.893 	"/>
	<path id="r328-1" fill="#959595" stroke="#494949" stroke-width="0.5" stroke-miterlimit="10" d="M531.773,453.498
		c-1.781,2.851-4.157,5.227-6.651,7.364v57.252h18.41l0.476-64.616H531.773L531.773,453.498z"/>
	<polygon id="r324-1" fill="#959595" stroke="#494949" stroke-width="0.5" stroke-miterlimit="10" points="673.239,469.296 
		654.71,469.296 654.71,518.113 673.239,518.113 673.239,518.113 	"/>
	<polygon id="r324-2" fill="#959595" stroke="#494949" stroke-width="0.5" stroke-miterlimit="10" points="691.649,469.296 
		673.239,469.296 673.239,518.113 691.649,518.113 691.649,518.113 	"/>
	
		<rect id="r323-2" x="708.517" y="485.806" fill="#959595" stroke="#494949" stroke-width="0.5" stroke-miterlimit="10" width="20.073" height="32.309"/>
	<polygon id="r323-1" fill="#959595" stroke="#494949" stroke-width="0.5" stroke-miterlimit="10" points="744.744,501.841 
		744.744,485.806 728.59,485.806 728.59,518.113 752.702,518.113 752.702,516.569 765.174,516.569 765.174,501.841 	"/>
	<polygon id="r323-3" fill="#959595" stroke="#494949" stroke-width="0.5" stroke-miterlimit="10" points="708.517,472.74 
		691.649,472.74 691.649,518.113 708.517,518.113 708.517,485.806 	"/>
	<polygon id="r326" fill="#959595" stroke="#494949" stroke-width="0.5" stroke-miterlimit="10" points="616.344,453.498 
		580.592,453.498 580.592,518.113 616.344,518.113 	"/>
	<polygon id="r327-1-327-2" fill="#959595" stroke="#494949" stroke-width="0.5" stroke-miterlimit="10" points="544.008,453.498 
		543.532,518.113 543.532,518.113 580.592,518.113 580.592,453.498 	"/>
	<polygon id="r325-2" fill="#959595" stroke="#494949" stroke-width="0.5" stroke-miterlimit="10" points="616.344,459.437 
		616.344,518.113 636.655,518.113 636.655,459.437 	"/>
	<polygon id="r325-1" fill="#959595" stroke="#494949" stroke-width="0.5" stroke-miterlimit="10" points="654.71,459.437 
		636.655,459.437 636.655,518.113 654.71,518.113 654.71,469.296 	"/>
	<path id="r340-341-1" fill="#959595" stroke="#494949" stroke-width="0.5" stroke-miterlimit="10" d="M60.934,516.569h28.27V498.04
		h-8.196v-28.032c-6.533,0-14.016,0-20.074,0V516.569z"/>
	
		<rect id="r337" x="144.316" y="498.04" fill="#959595" stroke="#494949" stroke-width="0.5" stroke-miterlimit="10" width="29.576" height="18.529"/>
	<path id="r338" fill="#959595" stroke="#494949" stroke-width="0.5" stroke-miterlimit="10" d="M144.316,516.569V498.04H113.79
		c0,4.989,0,13.659,0,18.529H144.316z"/>
	<path id="r335" fill="#959595" stroke="#494949" stroke-width="0.5" stroke-miterlimit="10" d="M202.162,516.569h27.082v-15.56
		h-26.962C202.281,505.286,202.162,513.125,202.162,516.569z"/>
	<path id="r336" fill="#959595" stroke="#494949" stroke-width="0.5" stroke-miterlimit="10" d="M202.162,516.569
		c0-3.444,0.119-11.283,0.119-15.56h-7.839v-2.97h-20.43v18.529H202.162z"/>
	<path id="r339" fill="#959595" stroke="#494949" stroke-width="0.5" stroke-miterlimit="10" d="M113.79,516.569
		c0-4.87,0-13.54,0-18.529H89.203v18.529H113.79z"/>
	<path id="r341-2" fill="#959595" stroke="#494949" stroke-width="0.5" stroke-miterlimit="10" d="M52.619,419.171v34.564h8.314
		v16.273c6.177,0,13.541,0,20.074,0V443.64v-24.469H52.619L52.619,419.171z"/>
	<polygon id="r344" fill="#959595" stroke="#494949" stroke-width="0.5" stroke-miterlimit="10" points="134.22,419.527 
		134.22,430.099 118.66,430.099 118.66,443.64 140.872,443.64 140.872,419.527 	"/>
	
		<rect id="r343" x="95.974" y="430.099" fill="#959595" stroke="#494949" stroke-width="0.5" stroke-miterlimit="10" width="22.805" height="13.659"/>
	<polygon id="r345" fill="#959595" stroke="#494949" stroke-width="0.5" stroke-miterlimit="10" points="134.22,400.76 
		134.22,419.527 140.872,419.527 140.872,443.64 173.893,443.64 183.87,433.662 183.87,420.834 183.87,400.76 	"/>
	<polygon id="r302" fill="#959595" stroke="#494949" stroke-width="0.5" stroke-miterlimit="10" points="183.87,326.404 
		183.87,405.511 193.016,405.511 212.139,405.511 212.139,326.404 	"/>
	<polygon id="r303-1" fill="#959595" stroke="#494949" stroke-width="0.5" stroke-miterlimit="10" points="212.139,326.404 
		248.723,326.404 248.723,362.988 229.956,362.988 229.956,405.511 212.139,405.511 	"/>
	<polygon id="r304-3" fill="#959595" stroke="#494949" stroke-width="0.5" stroke-miterlimit="10" points="285.901,326.404 
		267.372,326.404 267.372,399.454 285.901,393.277 	"/>
	<polygon id="r304-2" fill="#959595" stroke="#494949" stroke-width="0.5" stroke-miterlimit="10" points="248.723,326.404 
		248.723,405.511 249.198,405.511 267.372,399.454 267.372,326.404 	"/>
	
		<rect id="r303-2" x="229.956" y="362.988" fill="#959595" stroke="#494949" stroke-width="0.5" stroke-miterlimit="10" width="18.767" height="42.642"/>
	<path id="k302" fill="#959595" stroke="#494949" stroke-width="0.5" stroke-miterlimit="10" d="M289.346,408.362l3.919,12.946
		c0,0-10.453,2.139-7.126,13.185c3.326,11.047,13.541,7.603,13.541,7.603l4.395,13.896l7.483-2.257l-4.276-14.135
		c9.146-12.946-2.613-20.192-5.107-20.667l-5.108-12.709L289.346,408.362z"/>
	<polygon id="k304" fill="#959595" stroke="#494949" stroke-width="0.5" stroke-miterlimit="10" points="726.927,434.73 
		719.325,420.002 722.651,408.362 714.693,406.105 699.965,453.498 707.923,455.992 711.842,443.046 	"/>
	<circle fill="#959595" stroke="#494949" stroke-width="0.5" stroke-miterlimit="10" cx="506.236" cy="434.018" r="16.154"/>
	<path id="r308-1" fill="#959595" stroke="#494949" stroke-width="0.5" stroke-miterlimit="10" d="M396.484,288.871v79.225
		c6.058-0.95,12.234-1.781,18.648-2.613v-39.079h18.648v-37.534H396.484z"/>
	<path id="r308-2" fill="#959595" stroke="#494949" stroke-width="0.5" stroke-miterlimit="10" d="M433.662,326.404l-18.411-0.356
		l-0.237,39.435c6.058-0.713,12.234-1.544,18.648-2.138V326.404z"/>
	<path id="r320-1" fill="#959595" stroke="#494949" stroke-width="0.5" stroke-miterlimit="10" d="M836.798,455.755h112.246v-21.38
		c-11.759,0-40.979,0-112.246,0V455.755z"/>
	<path id="r319" fill="#959595" stroke="#494949" stroke-width="0.5" stroke-miterlimit="10" d="M869.818,358.237l-33.021,25.775
		v38.603v11.76c71.268,0,100.487,0,112.246,0v-23.281C911.866,399.81,886.685,379.143,869.818,358.237z"/>
	<polygon id="r342" fill="#959595" stroke="#494949" stroke-width="0.5" stroke-miterlimit="10" points="95.974,419.171 
		81.007,419.171 81.007,443.64 95.974,443.64 95.974,430.099 	"/>
	<polygon id="r311-2" fill="#959595" stroke="#494949" stroke-width="0.5" stroke-miterlimit="10" points="542.226,360.494 
		525.953,359.663 525.953,288.871 542.226,288.871 	"/>
</g>
<g id="signs">
	<g id="toilet">
		<rect x="737.38" y="297.541" opacity="0.8" fill="#231F20" enable-background="new    " width="17.579" height="17.58"/>
		<rect x="257.631" y="297.541" opacity="0.8" fill="#231F20" enable-background="new    " width="17.58" height="17.58"/>
		<rect x="64.734" y="520.846" opacity="0.8" fill="#231F20" enable-background="new    " width="17.58" height="17.579"/>
	</g>
	<g id="escalator">
		<rect x="448.865" y="367.146" opacity="0.8" fill="#231F20" enable-background="new    " width="17.58" height="17.58"/>
		<rect x="203.35" y="415.845" opacity="0.8" fill="#231F20" enable-background="new    " width="17.579" height="17.58"/>
		<rect x="232.45" y="475.947" opacity="0.8" fill="#231F20" enable-background="new    " width="17.58" height="17.579"/>
		<rect x="450.647" y="433.187" opacity="0.8" fill="#231F20" enable-background="new    " width="17.579" height="17.579"/>
		<rect x="632.498" y="370.115" opacity="0.8" fill="#231F20" enable-background="new    " width="17.579" height="17.579"/>
		<rect x="620.977" y="433.187" opacity="0.8" fill="#231F20" enable-background="new    " width="17.579" height="17.579"/>
		<rect x="788.099" y="412.4" opacity="0.8" fill="#231F20" enable-background="new    " width="17.579" height="17.579"/>
		<rect x="763.986" y="476.897" opacity="0.8" fill="#231F20" enable-background="new    " width="17.579" height="17.579"/>
		<rect x="184.345" y="620.264" opacity="0.8" fill="#231F20" enable-background="new    " width="17.58" height="17.579"/>
		<rect x="331.75" y="620.264" opacity="0.8" fill="#231F20" enable-background="new    " width="17.579" height="17.579"/>
	</g>
	<g id="entrance">
		<rect x="520.965" y="620.264" opacity="0.8" fill="#231F20" enable-background="new    " width="17.579" height="17.579"/>
		<rect x="775.151" y="559.567" opacity="0.8" fill="#231F20" enable-background="new    " width="17.579" height="17.579"/>
	</g>
	<g id="lift">
		<rect x="315.952" y="415.37" opacity="0.8" fill="#231F20" enable-background="new    " width="17.579" height="17.579"/>
		<rect x="682.504" y="415.845" opacity="0.8" fill="#231F20" enable-background="new    " width="17.579" height="17.58"/>
		<rect x="473.69" y="554.579" opacity="0.8" fill="#231F20" enable-background="new    " width="17.579" height="17.579"/>
		<rect x="55.945" y="703.053" opacity="0.8" fill="#231F20" enable-background="new    " width="17.58" height="17.579"/>
		<rect x="767.431" y="524.172" opacity="0.8" fill="#231F20" enable-background="new    " width="17.579" height="17.579"/>
	</g>
	
		<rect id="parking" x="717.544" y="645.207" opacity="0.8" fill="#231F20" enable-background="new    " width="17.579" height="17.579"/>
</g>
</svg>
