<?xml version="1.0" encoding="utf-8"?>
<!-- Generator: Adobe Illustrator 16.0.0, SVG Export Plug-In . SVG Version: 6.00 Build 0)  -->
<!DOCTYPE svg PUBLIC "-//W3C//DTD SVG 1.1//EN" "http://www.w3.org/Graphics/SVG/1.1/DTD/svg11.dtd">
<svg version="1.1" id="Layer_1" xmlns="http://www.w3.org/2000/svg" xmlns:xlink="http://www.w3.org/1999/xlink" x="0px" y="0px"
	 width="1000px" height="1000px" viewBox="0 0 1000 1000" enable-background="new 0 0 1000 1000" xml:space="preserve">
<g id="background">
	<rect y="146.455" fill="#FFFFFF" width="1000" height="707.091"/>
</g>
<g id="etc">
	<path fill="#BFBFBF" stroke="#49494A" stroke-width="0.66" stroke-miterlimit="10" d="M960.446,672.764v-28.388h-11.402V411.094
		c-94.192-28.388-111.296-117.591-111.296-117.591H689.987v-4.514H52.619v164.983h8.314v203.706
		c-16.867,7.959-28.507,25.182-28.507,45.018s11.64,37.059,28.507,45.018v6.651H299.68v5.938h68.654v-5.938h99.418v22.806h74.593
		v8.552H881.34c6.771,9.265,17.698,15.204,29.933,15.204c12.353,0,23.28-6.058,29.932-15.204h7.009v-19.599
		c0-0.713,0.118-1.425,0.118-2.257c0-0.831,0-1.425-0.118-2.257v-88.847H960.446L960.446,672.764L960.446,672.764z"/>
	
		<rect x="496.021" y="543.176" fill="#BFBFBF" stroke="#49494A" stroke-width="0.66" stroke-miterlimit="10" width="10.571" height="10.097"/>
	
		<rect x="496.021" y="553.272" fill="#BFBFBF" stroke="#49494A" stroke-width="0.66" stroke-miterlimit="10" width="10.571" height="10.096"/>
	
		<rect x="496.021" y="563.368" fill="#BFBFBF" stroke="#49494A" stroke-width="0.66" stroke-miterlimit="10" width="10.571" height="10.097"/>
	
		<rect x="496.021" y="573.465" fill="#BFBFBF" stroke="#49494A" stroke-width="0.66" stroke-miterlimit="10" width="10.571" height="10.096"/>
	
		<rect x="40.609" y="711.72" transform="matrix(-0.8738 0.4863 -0.4863 -0.8738 434.5467 1320.7662)" fill="#BFBFBF" stroke="#49494A" stroke-width="0.66" stroke-miterlimit="10" width="10.571" height="10.096"/>
	
		<rect x="45.491" y="720.54" transform="matrix(-0.8739 0.4862 -0.4862 -0.8739 447.9078 1334.9695)" fill="#BFBFBF" stroke="#49494A" stroke-width="0.66" stroke-miterlimit="10" width="10.572" height="10.097"/>
	<path fill="#BFBFBF" stroke="#49494A" stroke-width="0.66" stroke-miterlimit="10" d="M960.446,672.764v-28.388h-11.402V515.738
		h-73.405v15.798h-75.307v-15.798h-47.749l0,0h-62.715l0,0h-73.405l0,0l-110.227,0.475l0.594,260.958h35.396v8.552H881.34
		c6.771,9.265,17.698,15.204,29.933,15.204c12.233,0,23.28-6.058,29.932-15.204h7.009v-19.599c0-0.713,0.118-1.425,0.118-2.257
		c0-0.831,0-1.425-0.118-2.257v-88.847H960.446L960.446,672.764z"/>
	<path fill="#BFBFBF" stroke="#49494A" stroke-width="0.66" stroke-miterlimit="10" d="M833.354,442.333l43.592-24.587
		l27.081-27.913c-15.56-10.571-27.557-22.806-36.94-35.04L819.1,404.324h-56.063c0,0-94.667-39.316-256.206-45.255
		c-161.54-5.939-307.281,65.447-307.281,65.447l-8.79-56.301h-34.683l-2.613-22.687h-10.69v-16.867h-1.544v-39.91h-12.947v21.974
		h-9.858v12.947h-15.917v21.855H66.279L52.619,358v28.507L66.16,401.71h26.25v16.867h10.69v3.801h30.645v-23.043h19.242l3.207-19.48
		h25.3l7.602,49.887l-5.939,3.207v20.905H60.815v29.101h122.104v17.104l28.863,0.594v15.679H319.99V469.89l36.822-30.526
		l36.346-8.314h222.235l37.534,7.008l112.959,58.439v19.479h34.445v-32.07L833.354,442.333z"/>
	<path fill="#BFBFBF" stroke="#49494A" stroke-width="0.66" stroke-miterlimit="10" d="M838.816,325.217l8.553-3.801
		c-7.364-16.273-9.621-28.032-9.621-28.032H689.987v38.841h25.181v56.658c3.92,1.069,7.721,2.138,11.165,3.088v-66.873h112.483
		V325.217z"/>
	
		<rect x="668.879" y="410.864" transform="matrix(-0.2352 0.972 -0.972 -0.2352 1235.5735 -141.6312)" fill="#BFBFBF" stroke="#49494A" stroke-width="0.66" stroke-miterlimit="10" width="9.264" height="8.908"/>
	
		<rect x="666.66" y="419.983" transform="matrix(-0.2352 0.972 -0.972 -0.2352 1241.6892 -128.2184)" fill="#BFBFBF" stroke="#49494A" stroke-width="0.66" stroke-miterlimit="10" width="9.265" height="8.908"/>
	
		<rect x="754.959" y="527.854" fill="#BFBFBF" stroke="#49494A" stroke-width="0.66" stroke-miterlimit="10" width="10.215" height="10.215"/>
	
		<rect x="752.465" y="515.619" fill="#BFBFBF" stroke="#49494A" stroke-width="0.66" stroke-miterlimit="10" width="12.709" height="12.234"/>
	
		<rect x="754.959" y="538.068" fill="#BFBFBF" stroke="#49494A" stroke-width="0.66" stroke-miterlimit="10" width="10.215" height="10.215"/>
	
		<rect x="948.331" y="648.533" fill="#BFBFBF" stroke="#49494A" stroke-width="0.66" stroke-miterlimit="10" width="10.215" height="10.215"/>
	
		<rect x="948.331" y="658.748" fill="#BFBFBF" stroke="#49494A" stroke-width="0.66" stroke-miterlimit="10" width="10.215" height="10.215"/>
	
		<rect x="294.825" y="414.785" transform="matrix(-0.9554 0.2953 -0.2953 -0.9554 708.5258 758.0905)" fill="#BFBFBF" stroke="#49494A" stroke-width="0.66" stroke-miterlimit="10" width="4.395" height="35.516"/>
	
		<rect x="300.158" y="413.468" transform="matrix(-0.9554 0.2954 -0.2954 -0.9554 718.5993 753.8959)" fill="#BFBFBF" stroke="#49494A" stroke-width="0.66" stroke-miterlimit="10" width="4.395" height="35.516"/>
	
		<rect x="171.251" y="532.763" transform="matrix(-0.0043 1 -1 -0.0043 724.7748 348.2494)" fill="#BFBFBF" stroke="#49494A" stroke-width="0.66" stroke-miterlimit="10" width="35.515" height="4.395"/>
	
		<rect x="176.875" y="532.711" transform="matrix(-0.0045 1 -1 -0.0045 730.4106 342.6832)" fill="#BFBFBF" stroke="#49494A" stroke-width="0.66" stroke-miterlimit="10" width="35.515" height="4.395"/>
	
		<rect x="201.794" y="624.224" transform="matrix(-0.0046 1 -1 -0.0046 841.3724 435.3688)" fill="#BFBFBF" stroke="#49494A" stroke-width="0.66" stroke-miterlimit="10" width="4.395" height="24.469"/>
	
		<rect x="325.525" y="624.303" transform="matrix(-0.0044 1 -1 -0.0044 965.71 311.6467)" fill="#BFBFBF" stroke="#49494A" stroke-width="0.66" stroke-miterlimit="10" width="4.395" height="24.469"/>
	
		<rect x="349.99" y="605.426" transform="matrix(-0.0047 1 -1 -0.0047 971.4844 268.3589)" fill="#BFBFBF" stroke="#49494A" stroke-width="0.66" stroke-miterlimit="10" width="4.395" height="24.468"/>
	
		<rect x="177.953" y="604.909" transform="matrix(-0.0048 1 -1 -0.0048 798.5632 440.3604)" fill="#BFBFBF" stroke="#49494A" stroke-width="0.66" stroke-miterlimit="10" width="4.396" height="25.3"/>
	
		<rect x="410.279" y="391.499" transform="matrix(-0.9363 0.3512 -0.3512 -0.9363 958.7928 613.4894)" fill="#BFBFBF" stroke="#49494A" stroke-width="0.66" stroke-miterlimit="10" width="26.963" height="4.395"/>
	
		<rect x="408.611" y="386.267" transform="matrix(-0.9362 0.3515 -0.3515 -0.9362 953.7899 603.7883)" fill="#BFBFBF" stroke="#49494A" stroke-width="0.66" stroke-miterlimit="10" width="26.964" height="4.395"/>
	
		<rect x="584.725" y="380.445" transform="matrix(-0.3209 0.9471 -0.9471 -0.3209 1148.3386 -35.5705)" fill="#BFBFBF" stroke="#49494A" stroke-width="0.66" stroke-miterlimit="10" width="4.395" height="26.962"/>
	
		<rect x="586.718" y="375.327" transform="matrix(-0.3215 0.9469 -0.9469 -0.3215 1146.4275 -43.8263)" fill="#BFBFBF" stroke="#49494A" stroke-width="0.66" stroke-miterlimit="10" width="4.395" height="26.962"/>
	
		<rect x="702.388" y="426.175" transform="matrix(-0.3087 0.9512 -0.9512 -0.3087 1344.3022 -120.3029)" fill="#BFBFBF" stroke="#49494A" stroke-width="0.66" stroke-miterlimit="10" width="26.963" height="4.394"/>
	
		<rect x="771.427" y="445.019" transform="matrix(-0.4105 0.9119 -0.9119 -0.4105 1514.9113 -84.9319)" fill="#BFBFBF" stroke="#49494A" stroke-width="0.66" stroke-miterlimit="10" width="26.963" height="4.395"/>
	
		<rect x="770.021" y="463.063" transform="matrix(-0.4105 0.9119 -0.9119 -0.4105 1529.3552 -58.2347)" fill="#BFBFBF" stroke="#49494A" stroke-width="0.66" stroke-miterlimit="10" width="26.964" height="4.395"/>
	
		<rect x="697.321" y="424.245" transform="matrix(-0.309 0.9511 -0.9511 -0.309 1335.9995 -117.8198)" fill="#BFBFBF" stroke="#49494A" stroke-width="0.66" stroke-miterlimit="10" width="26.963" height="4.395"/>
	
		<rect x="850.802" y="396.046" transform="matrix(-0.6924 0.7215 -0.7215 -0.6924 1750.0535 50.4013)" fill="#BFBFBF" stroke="#49494A" stroke-width="0.66" stroke-miterlimit="10" width="26.962" height="4.395"/>
	
		<rect x="847.151" y="392.084" transform="matrix(-0.6927 0.7212 -0.7212 -0.6927 1741.1473 46.6597)" fill="#BFBFBF" stroke="#49494A" stroke-width="0.66" stroke-miterlimit="10" width="26.965" height="4.395"/>
	
		<rect x="224.145" y="442.672" transform="matrix(-0.9086 0.4178 -0.4178 -0.9086 624.3417 784.1901)" fill="#BFBFBF" stroke="#49494A" stroke-width="0.66" stroke-miterlimit="10" width="4.395" height="35.513"/>
	
		<rect x="229.24" y="440.677" transform="matrix(-0.9087 0.4175 -0.4175 -0.9087 633.153 778.3564)" fill="#BFBFBF" stroke="#49494A" stroke-width="0.66" stroke-miterlimit="10" width="4.395" height="35.515"/>
	
		<rect x="103.457" y="363.226" fill="#BFBFBF" stroke="#49494A" stroke-width="0.66" stroke-miterlimit="10" width="10.333" height="10.333"/>
	
		<rect x="113.79" y="363.226" fill="#BFBFBF" stroke="#49494A" stroke-width="0.66" stroke-miterlimit="10" width="10.334" height="10.333"/>
	
		<rect x="124.005" y="363.226" fill="#BFBFBF" stroke="#49494A" stroke-width="0.66" stroke-miterlimit="10" width="10.333" height="10.333"/>
	
		<rect x="103.457" y="335.075" fill="#BFBFBF" stroke="#49494A" stroke-width="0.66" stroke-miterlimit="10" width="10.333" height="10.334"/>
	
		<rect x="113.79" y="335.075" fill="#BFBFBF" stroke="#49494A" stroke-width="0.66" stroke-miterlimit="10" width="10.334" height="10.334"/>
	
		<rect x="124.005" y="335.075" fill="#BFBFBF" stroke="#49494A" stroke-width="0.66" stroke-miterlimit="10" width="10.333" height="10.334"/>
	
		<rect x="103.457" y="373.56" fill="#BFBFBF" stroke="#49494A" stroke-width="0.66" stroke-miterlimit="10" width="10.333" height="10.334"/>
	
		<rect x="113.79" y="373.56" fill="#BFBFBF" stroke="#49494A" stroke-width="0.66" stroke-miterlimit="10" width="10.334" height="10.334"/>
	
		<rect x="124.005" y="373.56" fill="#BFBFBF" stroke="#49494A" stroke-width="0.66" stroke-miterlimit="10" width="10.333" height="10.334"/>
	
		<rect x="103.457" y="399.929" fill="#BFBFBF" stroke="#49494A" stroke-width="0.66" stroke-miterlimit="10" width="10.333" height="10.334"/>
	
		<rect x="113.79" y="399.929" fill="#BFBFBF" stroke="#49494A" stroke-width="0.66" stroke-miterlimit="10" width="10.334" height="10.334"/>
	
		<rect x="124.005" y="399.929" fill="#BFBFBF" stroke="#49494A" stroke-width="0.66" stroke-miterlimit="10" width="10.333" height="10.334"/>
	<path fill="#BFBFBF" stroke="#49494A" stroke-width="0.66" stroke-miterlimit="10" d="M322.484,325.098v-36.228H211.902v36.228
		h73.405v66.753c3.801-1.188,7.839-2.375,11.878-3.563v-63.19H322.484L322.484,325.098z"/>
	<path fill="none" stroke="#49494A" stroke-width="0.66" stroke-miterlimit="10" d="M60.934,516.213v141.229
		c-16.867,7.958-28.507,25.182-28.507,45.018s11.64,37.059,28.507,45.017v6.652H299.68v5.938h68.654v-5.938h99.418v23.043h39.315
		V544.958l-0.594-28.626L60.934,516.213L60.934,516.213z"/>
	<path id="_x3C_path_x3E_" fill="#BFBFBF" stroke="#49494A" stroke-width="0.66" stroke-miterlimit="10" d="M190.878,288.871v79.344
		l8.79,56.301c0,0,4.276-2.138,12.234-5.582V288.871H190.878z"/>
	<path id="_x3C_Path_x3E_" fill="#BFBFBF" stroke="#49494A" stroke-width="0.66" stroke-miterlimit="10" d="M433.068,288.871v72.574
		c6.651-0.594,13.303-1.188,20.073-1.544v-70.911C453.142,288.871,433.068,288.871,433.068,288.871z"/>
</g>
<g id="rooms">
	<polygon id="r100" fill="#929497" stroke="#49494A" stroke-width="0.5" stroke-miterlimit="10" points="102.506,345.528 
		102.506,323.792 118.423,323.792 118.423,310.845 128.281,310.845 128.281,288.871 52.619,288.871 52.619,358 66.279,345.528 	"/>
	<path id="r121-123" fill="#929497" stroke="#49494A" stroke-width="0.5" stroke-miterlimit="10" d="M904.146,389.833
		l-27.082,27.913l-43.592,24.587l-33.021,41.454v32.07v15.797h75.306v-15.797h73.287V411.094
		C931.465,405.749,916.617,398.385,904.146,389.833z"/>
	<path id="r106-108" fill="#929497" stroke="#49494A" stroke-width="0.5" stroke-miterlimit="10" d="M322.484,288.871v36.228
		h-25.299v63.19l25.299-7.008c22.568-5.82,47.394-11.284,73.762-15.322v-77.087H322.484z"/>
	<path id="r109" fill="#929497" stroke="#49494A" stroke-width="0.5" stroke-miterlimit="10" d="M396.246,288.871v77.087
		c11.997-1.782,24.231-3.326,36.822-4.514v-72.574H396.246z"/>
	<path id="r112-1" fill="#929497" stroke="#49494A" stroke-width="0.5" stroke-miterlimit="10" d="M505.523,288.871v36.346h7.721
		c0.237,0,0.356,34.089,0.356,34.089c6.532,0.238,6.295,0.238,12.59,0.594v-71.149L505.523,288.871L505.523,288.871z"/>
	<path id="r112-2" fill="#929497" stroke="#49494A" stroke-width="0.5" stroke-miterlimit="10" d="M526.19,288.871v71.148
		c5.227,0.238,10.453,0.594,15.561,0.95v-72.099H526.19z"/>
	<path id="r115-1" fill="#929497" stroke="#49494A" stroke-width="0.5" stroke-miterlimit="10" d="M615.156,288.871v79.819
		c13.065,1.9,6.889,0.95,18.41,2.969v-82.789H615.156z"/>
	<path id="r115-2" fill="#929497" stroke="#49494A" stroke-width="0.5" stroke-miterlimit="10" d="M633.566,288.871v82.789
		c13.066,1.9,6.89,0.95,18.411,2.97v-85.877h-18.411V288.871z"/>
	<path id="r113" fill="#929497" stroke="#49494A" stroke-width="0.5" stroke-miterlimit="10" d="M541.751,288.871v72.099
		c12.828,0.832,25.062,2.019,36.821,3.207v-75.306H541.751L541.751,288.871z"/>
	<path id="r114-1" fill="#929497" stroke="#49494A" stroke-width="0.5" stroke-miterlimit="10" d="M578.572,288.871v75.306
		c6.414,0.713,12.709,1.425,18.768,2.138v-77.444H578.572L578.572,288.871z"/>
	<path id="r114-2" fill="#929497" stroke="#49494A" stroke-width="0.5" stroke-miterlimit="10" d="M597.34,288.871v77.444
		c6.058,0.712,11.996,1.544,17.816,2.375v-79.819H597.34L597.34,288.871z"/>
	<polygon id="r132-133" fill="#929497" stroke="#49494A" stroke-width="0.5" stroke-miterlimit="10" points="393.277,430.93 
		357.05,439.244 357.05,516.213 432.355,516.213 432.355,430.93 	"/>
	<polygon id="r134-2-134-3" fill="#929497" stroke="#49494A" stroke-width="0.5" stroke-miterlimit="10" points="309.656,470.008 
		309.656,515.738 338.995,516.213 338.995,454.092 320.109,469.771 	"/>
	<polygon id="r134-1" fill="#929497" stroke="#49494A" stroke-width="0.5" stroke-miterlimit="10" points="356.931,439.244 
		338.995,454.092 338.995,516.213 357.05,516.213 357.05,439.244 	"/>
	<polygon id="r128-1-129-130-131" fill="#929497" stroke="#49494A" stroke-width="0.5" stroke-miterlimit="10" points="
		539.138,486.162 539.138,430.93 432.355,430.93 432.355,516.213 506.354,516.213 578.572,516.213 578.691,486.162 	"/>
	<polygon id="r125-126" fill="#929497" stroke="#49494A" stroke-width="0.5" stroke-miterlimit="10" points="653.047,437.938 
		652.571,437.819 616.582,431.049 616.582,515.738 652.571,515.738 689.987,515.738 689.987,457.062 	"/>
	<polygon id="r124-2" fill="#929497" stroke="#49494A" stroke-width="0.5" stroke-miterlimit="10" points="689.987,457.062 
		689.987,515.738 689.987,515.738 726.333,515.619 726.333,475.828 	"/>
	<polygon id="r124-1" fill="#929497" stroke="#49494A" stroke-width="0.5" stroke-miterlimit="10" points="726.333,475.828 
		726.333,515.619 752.583,515.738 752.583,515.738 766.006,515.738 766.006,496.377 	"/>
	<polygon fill="#929497" stroke="#49494A" stroke-width="0.5" stroke-miterlimit="10" points="195.51,473.097 199.905,475.591 
		207.388,472.146 207.388,450.767 201.924,447.084 200.143,448.271 	"/>
	<polygon id="r101-1-101-2" fill="#929497" stroke="#49494A" stroke-width="0.5" stroke-miterlimit="10" points="92.41,418.577 
		92.41,401.71 72.693,401.71 66.16,401.71 52.619,386.507 52.619,453.854 60.934,453.854 72.693,453.854 95.023,453.854 
		95.023,418.577 	"/>
	<polygon id="r102" fill="#929497" stroke="#49494A" stroke-width="0.5" stroke-miterlimit="10" points="183.157,453.854 
		183.157,432.949 189.096,429.742 181.494,379.855 156.194,379.855 152.987,399.335 133.745,399.335 133.745,422.378 103.1,422.378 
		103.1,418.577 95.023,418.577 95.023,453.854 	"/>
	
		<rect id="r135-3" x="99.181" y="482.955" fill="#929497" stroke="#49494A" stroke-width="0.5" stroke-miterlimit="10" width="35.158" height="33.377"/>
	
		<rect id="r135-4" x="60.934" y="482.955" fill="#929497" stroke="#49494A" stroke-width="0.5" stroke-miterlimit="10" width="38.247" height="33.377"/>
	<path id="r118" fill="#929497" stroke="#49494A" stroke-width="0.5" stroke-miterlimit="10" d="M726.333,325.217v66.873
		c24.112,7.008,36.821,12.234,36.821,12.234h0.238v-79.107H726.333z"/>
	
		<rect id="r119" x="763.511" y="325.217" fill="#929497" stroke="#49494A" stroke-width="0.5" stroke-miterlimit="10" width="36.94" height="79.107"/>
	<path id="r120" fill="#929497" stroke="#49494A" stroke-width="0.5" stroke-miterlimit="10" d="M867.205,354.793
		c-8.908-11.759-15.322-23.399-19.836-33.377l-8.553,3.801h-38.484v79.106h18.887L867.205,354.793z"/>
	<path id="r116-2" fill="#929497" stroke="#49494A" stroke-width="0.5" stroke-miterlimit="10" d="M689.987,382.468v-88.965v-4.514
		h-37.891v43.473h19.005l0.355,46.205L689.987,382.468z"/>
	<path id="r117" fill="#929497" stroke="#49494A" stroke-width="0.5" stroke-miterlimit="10" d="M715.168,332.344h-25.182v50.125
		v0.119c9.266,2.138,17.698,4.276,25.182,6.295V332.344L715.168,332.344z"/>
	
		<rect id="r128-2" x="539.138" y="430.93" fill="#929497" stroke="#49494A" stroke-width="0.5" stroke-miterlimit="10" width="39.672" height="55.232"/>
	<polygon id="r127" fill="#929497" stroke="#49494A" stroke-width="0.5" stroke-miterlimit="10" points="615.513,430.93 
		578.691,430.93 578.691,486.162 578.572,516.213 616.582,515.738 616.582,515.738 616.582,431.049 	"/>
	
		<rect id="r135-2b" x="134.339" y="482.955" fill="#929497" stroke="#49494A" stroke-width="0.5" stroke-miterlimit="10" width="18.767" height="33.377"/>
	<polygon id="r135-2-a" fill="#929497" stroke="#49494A" stroke-width="0.5" stroke-miterlimit="10" points="171.992,482.955 
		153.106,482.955 153.106,516.213 171.992,516.213 167.479,516.213 167.479,499.584 167.479,482.955 	"/>
	<polygon id="r135-1" fill="#929497" stroke="#49494A" stroke-width="0.5" stroke-miterlimit="10" points="211.902,500.653 
		183.039,499.94 183.039,482.955 167.479,482.955 167.479,516.213 211.902,516.213 	"/>
	<path id="r104-3" fill="#929497" stroke="#49494A" stroke-width="0.5" stroke-miterlimit="10" d="M211.902,325.098v93.835
		c8.433-3.683,20.905-8.79,36.703-14.61v-79.226H211.902L211.902,325.098z"/>
	<path id="r105" fill="#929497" stroke="#49494A" stroke-width="0.5" stroke-miterlimit="10" d="M248.604,325.098v79.226
		c10.809-3.92,23.043-8.196,36.703-12.472v-66.753H248.604L248.604,325.098z"/>
	<polygon id="r104-1" fill="#929497" stroke="#49494A" stroke-width="0.5" stroke-miterlimit="10" points="142.891,328.78 
		142.891,345.528 153.581,345.528 156.194,368.215 190.878,368.215 190.878,288.871 141.466,288.871 141.466,328.78 	"/>
	<polygon id="r110-2-111-1" fill="#929497" stroke="#49494A" stroke-width="0.5" stroke-miterlimit="10" points="486.399,358.712 
		453.142,359.781 453.142,325.217 486.399,325.217 	"/>
	<polygon id="r111-2" fill="#929497" stroke="#49494A" stroke-width="0.5" stroke-miterlimit="10" points="453.142,288.871 
		505.523,288.871 505.523,325.217 496.377,325.217 496.377,358.831 486.399,358.712 486.399,325.217 453.142,325.217 	"/>
	<polygon id="r116-1" fill="#929497" stroke="#49494A" stroke-width="0.5" stroke-miterlimit="10" points="651.978,374.748 
		651.978,332.344 670.982,332.344 671.339,378.548 	"/>
	
		<rect id="k113" x="789.523" y="504.691" fill="#929497" stroke="#49494A" stroke-width="0.5" stroke-miterlimit="10" width="10.928" height="10.928"/>
	
		<rect id="k111" x="766.307" y="433.657" transform="matrix(-0.8861 -0.4636 0.4636 -0.8861 1246.2976 1199.6582)" fill="#929497" stroke="#49494A" stroke-width="0.5" stroke-miterlimit="10" width="8.553" height="26.012"/>
	
		<rect id="k110" x="722.045" y="419.518" transform="matrix(-0.9497 -0.3131 0.3131 -0.9497 1280.6694 1070.7363)" fill="#929497" stroke="#49494A" stroke-width="0.5" stroke-miterlimit="10" width="8.551" height="26.012"/>
	
		<rect id="k115" x="332.346" y="410.496" transform="matrix(-0.9691 0.2468 -0.2468 -0.9691 765.6409 734.287)" fill="#929497" stroke="#49494A" stroke-width="0.5" stroke-miterlimit="10" width="8.908" height="9.265"/>
	
		<rect id="k114" x="334.58" y="419.517" transform="matrix(-0.969 0.2469 -0.2469 -0.969 772.3086 751.4399)" fill="#929497" stroke="#49494A" stroke-width="0.5" stroke-miterlimit="10" width="8.908" height="9.264"/>
	
		<rect id="k112" x="259.763" y="426.442" transform="matrix(-0.9268 0.3755 -0.3755 -0.9268 679.8494 756.1289)" fill="#929497" stroke="#49494A" stroke-width="0.5" stroke-miterlimit="10" width="12.947" height="35.752"/>
</g>
<g id="signs">
	
		<rect id="information" x="177.931" y="458.486" opacity="0.8" fill="#231F20" enable-background="new    " width="17.58" height="17.58"/>
	<g id="elevator">
		<rect x="110.108" y="364.77" opacity="0.8" fill="#231F20" enable-background="new    " width="17.58" height="17.58"/>
		<rect x="313.576" y="415.37" opacity="0.8" fill="#231F20" enable-background="new    " width="17.579" height="17.579"/>
		<rect x="676.684" y="415.37" opacity="0.8" fill="#231F20" enable-background="new    " width="17.579" height="17.579"/>
		<rect x="768.5" y="522.746" opacity="0.8" fill="#231F20" enable-background="new    " width="17.579" height="17.579"/>
		<rect x="473.928" y="554.579" opacity="0.8" fill="#231F20" enable-background="new    " width="17.58" height="17.579"/>
		<rect x="57.251" y="701.033" opacity="0.8" fill="#231F20" enable-background="new    " width="17.579" height="17.579"/>
	</g>
	<g id="toilet">
		<rect x="258.106" y="294.453" opacity="0.8" fill="#231F20" enable-background="new    " width="17.58" height="17.579"/>
		<rect x="66.041" y="521.677" opacity="0.8" fill="#231F20" enable-background="new    " width="17.58" height="17.58"/>
		<rect x="737.38" y="296.235" opacity="0.8" fill="#231F20" enable-background="new    " width="17.579" height="17.579"/>
	</g>
	<g id="escalator">
		<rect x="226.63" y="464.9" opacity="0.8" fill="#231F20" enable-background="new    " width="17.579" height="17.58"/>
		<rect x="280.912" y="401.354" opacity="0.8" fill="#231F20" enable-background="new    " width="17.579" height="17.58"/>
		<rect x="183.514" y="619.907" opacity="0.8" fill="#231F20" enable-background="new    " width="17.579" height="17.579"/>
		<rect x="183.514" y="549.472" opacity="0.8" fill="#231F20" enable-background="new    " width="17.579" height="17.579"/>
		<rect x="331.155" y="619.907" opacity="0.8" fill="#231F20" enable-background="new    " width="17.58" height="17.579"/>
		<rect x="394.821" y="388.882" opacity="0.8" fill="#231F20" enable-background="new    " width="17.579" height="17.579"/>
		<rect x="598.884" y="388.882" opacity="0.8" fill="#231F20" enable-background="new    " width="17.579" height="17.579"/>
		<rect x="710.773" y="396.722" opacity="0.8" fill="#231F20" enable-background="new    " width="17.579" height="17.579"/>
		<rect x="787.504" y="423.685" opacity="0.8" fill="#231F20" enable-background="new    " width="17.58" height="17.579"/>
		<rect x="767.074" y="473.69" opacity="0.8" fill="#231F20" enable-background="new    " width="17.579" height="17.579"/>
		<rect x="840.955" y="400.76" opacity="0.8" fill="#231F20" enable-background="new    " width="17.579" height="17.579"/>
	</g>
	<g id="lift">
		<rect x="36.584" y="458.486" opacity="0.8" fill="#231F20" enable-background="new    " width="17.579" height="17.58"/>
		<rect x="35.04" y="363.226" opacity="0.8" fill="#231F20" enable-background="new    " width="17.579" height="17.579"/>
		<rect x="34.921" y="554.579" opacity="0.8" fill="#231F20" enable-background="new    " width="17.58" height="17.579"/>
		<rect x="34.921" y="615.394" opacity="0.8" fill="#231F20" enable-background="new    " width="17.58" height="17.579"/>
		<rect x="889.18" y="350.992" opacity="0.8" fill="#231F20" enable-background="new    " width="17.579" height="17.58"/>
		<rect x="774.676" y="549.709" opacity="0.8" fill="#231F20" enable-background="new    " width="17.58" height="17.579"/>
		<rect x="512.294" y="619.907" opacity="0.8" fill="#231F20" enable-background="new    " width="17.579" height="17.579"/>
	</g>
	
		<rect id="parking" x="704.478" y="653.641" opacity="0.8" fill="#231F20" enable-background="new    " width="17.579" height="17.579"/>
</g>
</svg>
