<?xml version="1.0" encoding="utf-8"?>
<!-- Generator: Adobe Illustrator 16.0.0, SVG Export Plug-In . SVG Version: 6.00 Build 0)  -->
<!DOCTYPE svg PUBLIC "-//W3C//DTD SVG 1.1//EN" "http://www.w3.org/Graphics/SVG/1.1/DTD/svg11.dtd">
<svg version="1.1" id="Layer_1" xmlns="http://www.w3.org/2000/svg" xmlns:xlink="http://www.w3.org/1999/xlink" x="0px" y="0px"
	 width="841.89px" height="595.281px" viewBox="0 0 841.89 595.281" enable-background="new 0 0 841.89 595.281"
	 xml:space="preserve">
<g id="Background">
	<rect y="0" fill="#FFFFFF" width="841.89" height="595.281"/>
</g>
<g id="ETC">
	<path fill="#CECECE" stroke="#494949" stroke-miterlimit="10" d="M165.882,207.373h4.374c0,11.897,14.701,22.853,25.028,22.853
		c10.327,0,104.367-0.365,104.367-0.365v23.206h12.636v15.309h33.534v-62.936h50.355v45.563h41.25v17.252h25.52v-10.448h13.238
		v-21.87H462.46v-30.01h67.309v28.796h139.846v50.784l21.627,21.627h28.916v-2.319c-19.703-0.996-27.83-4.569-36.814-12.624
		c-11.666-10.449-5.59-46.413-4.375-61.479c1.021-12.615,0.33-71.572,0.082-90.417H120.667l-3.517,28.454h48.732V207.373z"/>
	<path fill="#CECECE" stroke="#494949" stroke-miterlimit="10" d="M729.693,305.09v2.425h30.615v21.549h40.4v70.392
		c0,0,4.979,0.509,9.9,12.171c0,0,0-97.143,0-101.238c0-4.097-5.021-5.422-6.834-5.422c-1.82,0-6.936-0.688-6.936,2.558
		c0,3.229,0,8.696,0,8.696h-23.688c0,0,0-7.502,0-9.079c0-1.578-0.73-2.275-2.459-2.275L729.693,305.09z"/>
	<path fill="#CECECE" stroke="#494949" stroke-miterlimit="10" d="M760.31,329.062v-21.549h-30.615v-2.425
		c-3.459-0.041-6.625-0.132-9.539-0.276v2.317H691.24l-21.627-21.627V234.72H561.935v51.878h8.93v13.852
		c-62.236-17.861-126.205-20.047-126.205-20.047v-12.15h-7.229v-17.252h-41.25v-45.563h-50.355v62.936H312.29v111.936h120.04v29.502
		c18.334,4.797,28.43,15.781,28.43,15.781v-6.217v-0.103c0-0.479,0-2.936,0.002-13.365c0-15.553,34.748-25.514,34.748-25.514
		s36.447-8.992,42.039-8.992c2.406,0,21.912,0,44.896,0h10.936c27.646,0,57.127,0,66.887,0c19.439,0,41.795,6.808,49.57,8.992
		c7.775,2.187,8.264,0.238,11.908,7.289c3.311,6.41,10.01,23.254,11.188,26.229l23.314-20.629l-7.773-7.309l12.148-10.689h40.094
		v-46.229L760.31,329.062L760.31,329.062z"/>
	<path fill="#CECECE" stroke="#494949" stroke-miterlimit="10" d="M415.682,321.771c0,0-29.398,0-35.563,0
		c-6.167,0-11.451,6.744-11.451,13.482c0,6.743,0,10.393,0,16.95c0,6.559,5.646,12.574,16.948,12.574c11.3,0,37.172,0,47.379,0
		c10.205,0,14.215-3.467,16.584-14.396c2.369-10.937,2.916-14.765,2.916-14.765l-5.467-4.92l-3.646,4.736l-8.748-7.652l-4.92,6.563
		L415.682,321.771z"/>
	<path fill="#CECECE" stroke="#494949" stroke-miterlimit="10" d="M563.484,343.277h26.426v16.584h26.789v-17.676h8.02
		c0,0-0.91-5.879-1.641-9.773c-0.729-3.896-0.729-4.807-5.467-5.897c-4.738-1.096-24.605-3.646-32.805-4.74
		C576.605,320.68,564.031,323.229,563.484,343.277z"/>
	<path id="r113" fill="#CECECE" stroke="#494949" stroke-miterlimit="10" d="M669.613,285.505v-8.075h-10.631v56.293
		c6.938,5.92,20.305,12.195,31.709,16.92V306.58L669.613,285.505z"/>
	<path fill="#CECECE" stroke="#494949" stroke-miterlimit="10" d="M495.507,380.396c0,0-34.748,9.961-34.748,25.514
		c-0.002,10.437-0.002,12.886-0.002,13.367c0.002,0,13.957,8.342,35.111,12.406v-51.377
		C495.634,380.365,495.507,380.396,495.507,380.396z"/>
</g>
<g id="Rooms">
	<polygon id="k104" fill="#939598" stroke="#494949" stroke-miterlimit="10" points="760.615,375.292 748.466,385.986 
		756.24,393.291 762.316,396.678 800.708,396.678 800.708,375.292 	"/>
	<path id="r121" fill="#939598" stroke="#494949" stroke-miterlimit="10" d="M495.869,380.309v51.384
		c6.342,1.219,13.326,2.055,20.777,2.17c4.012,0.06,8.088,0.08,12.211,0.063v-61.161
		C517.242,375.08,498.673,379.619,495.869,380.309z"/>
	<path id="r115" fill="#939598" stroke="#494949" stroke-miterlimit="10" d="M732.914,413.932l0.012-0.011
		c-1.178-2.979-7.873-19.821-11.188-26.233c-3.646-7.049-4.133-5.104-11.908-7.289c-3.352-0.938-9.406-2.739-16.768-4.48v51.129
		c0.85-0.006,1.66-0.004,2.432,0.01c12.148,0.244,26,1.459,39.607-8.019L732.914,413.932z"/>
	<path id="r117-2" fill="#939598" stroke="#494949" stroke-miterlimit="10" d="M627.089,371.406v56.088
		c6.572-0.727,11.963-1.248,16.355-1.629v-54.459C638.554,371.406,633.019,371.406,627.089,371.406z"/>
	<path id="r117-1" fill="#939598" stroke="#494949" stroke-miterlimit="10" d="M660.257,371.406c-3.451,0-9.381,0-16.813,0v54.459
		c12.768-1.106,17.057-0.998,17.057-0.998v-53.461C660.421,371.406,660.337,371.406,660.257,371.406z"/>
	<path id="r116" fill="#939598" stroke="#494949" stroke-miterlimit="10" d="M660.501,371.406v53.461v4.854
		c0,0,20.037-2.558,32.561-2.685V375.91C683.404,373.627,671.5,371.438,660.501,371.406z"/>
	<path id="r119-120" fill="#939598" stroke="#494949" stroke-miterlimit="10" d="M562.208,371.406v-0.002
		c-13.328,0.002-23.012,0.002-24.662,0.002c-1.371,0-4.6,0.539-8.689,1.354v61.163c10.869-0.037,22.076-0.328,33.352-0.853V400.56
		h20.229v-29.156C575.21,371.406,568.326,371.406,562.208,371.406z"/>
	<path id="r118" fill="#939598" stroke="#494949" stroke-miterlimit="10" d="M593.371,371.406v21.625h7.109v37.355
		c5.996-0.563,11.928-1.188,17.738-1.881c3.172-0.377,6.121-0.714,8.869-1.017V371.4
		C616.55,371.406,604.804,371.406,593.371,371.406z"/>
	<path id="r111" fill="#939598" stroke="#494949" stroke-miterlimit="10" d="M627.574,277.429v33.64
		c5.094,1.318,10.053,4.231,15.188,8.201v-41.841H627.574L627.574,277.429z"/>
	<path id="r112" fill="#939598" stroke="#494949" stroke-miterlimit="10" d="M642.761,277.429v41.841
		c4.785,3.701,9.723,8.315,15.066,13.416c0.354,0.342,0.746,0.688,1.145,1.037v-56.294H642.761L642.761,277.429z"/>
	<path id="r110" fill="#939598" stroke="#494949" stroke-miterlimit="10" d="M627.574,265.458h-43.617c0,0-0.242,27.701,0,34.993
		c0.242,7.289,28.918,8.748,40.096,9.963c1.189,0.13,2.355,0.354,3.521,0.654v-33.639V265.458z"/>
	<path id="r114" fill="#939598" stroke="#494949" stroke-miterlimit="10" d="M691.24,307.133l-0.549-0.547v44.058
		c10.889,4.508,19.986,7.601,19.986,7.601h9.479V307.14H691.24V307.133z"/>
	<path id="r109" fill="#939598" stroke="#494949" stroke-miterlimit="10" d="M570.865,286.599h-8.932v-51.878h-32.166v55.982
		c13.303,2.572,27.24,5.771,41.098,9.747V286.599z"/>
	<path id="r106-107" fill="#939598" stroke="#494949" stroke-miterlimit="10" d="M495.869,205.925h-5.09h-28.32v30.01h13.73v21.87
		h-13.244v10.448h-18.287v12.15c0,0,6.867,0.234,18.287,1.179c7.102,0.585,15.967,1.447,26.035,2.696
		c2.082,0.282,4.492,0.616,7.096,0.987v-79.341H495.869L495.869,205.925z"/>
	<path id="r108" fill="#939598" stroke="#494949" stroke-miterlimit="10" d="M496.076,205.925v79.341
		c10.428,1.485,24.1,3.583,33.693,5.438v-55.982v-28.797H496.076z"/>
	<path id="r101-103" fill="#939598" stroke="#494949" stroke-miterlimit="10" d="M363.802,205.438L363.802,205.438l-17.979,0.001
		v62.935v0.001h-25.09v26.244c8.438-2.873,16.854-5.221,25.09-7.134v-0.001c6.121-1.424,12.138-2.609,17.979-3.587v-0.001
		c11.667-1.958,22.646-3.107,32.379-3.749V251v-45.562H363.802z"/>
	<path id="r105" fill="#939598" stroke="#494949" stroke-miterlimit="10" d="M413.859,251.001v28.448
		c14.547-0.186,23.572,0.682,23.572,0.682v-29.13H413.859z"/>
	<path id="r104" fill="#939598" stroke="#494949" stroke-miterlimit="10" d="M396.181,251.001v29.147
		c6.499-0.43,12.445-0.633,17.683-0.699v-28.448H396.181z"/>
	<path id="r124" fill="#939598" stroke="#494949" stroke-miterlimit="10" d="M312.287,380.309v39.938h9.477v25.609
		c13.896-0.65,28.23-2.531,41.556-10.787v-9.963v-44.8L312.287,380.309L312.287,380.309z"/>
	<path id="r127" fill="#939598" stroke="#494949" stroke-miterlimit="10" d="M312.287,420.248v-39.938V268.375v-15.309h-12.636
		V229.86c0,0-94.042,0.365-104.367,0.365c-10.327,0-25.028-10.954-25.028-22.853h-4.374v-38.626H117.15L91.899,373.021
		c0.508,18.637,5.096,39.969,21.859,48.686c32.548,16.925,36.692,13.607,47.627,13.607c10.935,0,9.234-13.365,9.234-18.711h26.729
		c0,0,0,10.146,0,14.336c0,4.189,4.011,8.385,12.941,9.297c8.93,0.906,81.829,6.5,99.325,6.012
		c3.981-0.108,8.049-0.194,12.146-0.389v-25.611H312.287L312.287,420.248z"/>
	<path id="r123" fill="#939598" stroke="#494949" stroke-miterlimit="10" d="M363.315,380.309v44.804
		c0,0,13.729-10.632,33.595-15.315v-29.479L363.315,380.309L363.315,380.309z"/>
	<path id="r125" fill="#939598" stroke="#494949" stroke-miterlimit="10" d="M396.911,380.309v29.48
		c5.158-1.22,10.729-2.032,16.584-2.159v-27.321H396.911L396.911,380.309z"/>
	<path id="k101" fill="#939598" stroke="#494949" stroke-miterlimit="10" d="M413.495,380.309v27.321
		c0.521-0.013,1.05-0.021,1.58-0.021c6.367,0,12.131,0.854,17.252,2.199v-29.502L413.495,380.309L413.495,380.309z"/>
	
		<rect id="r104" x="720.156" y="333.723" fill="#939598" stroke="#494949" stroke-miterlimit="10" width="11.178" height="24.521"/>
	<polygon id="k102-k103" fill="#939598" stroke="#494949" stroke-miterlimit="10" points="744.82,307.514 729.693,307.514 
		729.693,326.512 744.82,326.512 760.308,326.512 760.308,307.514 	"/>
	<g id="jewelry-watches">
		
			<rect id="jubilee" x="342.236" y="352.756" fill="#939598" stroke="#494949" stroke-miterlimit="10" width="18.589" height="12.028"/>
		
			<rect id="regent-diamond-master" x="342.236" y="333.438" fill="#939598" stroke="#494949" stroke-miterlimit="10" width="18.589" height="12.756"/>
		<path id="grand-millennium-star" fill="#939598" stroke="#494949" stroke-miterlimit="10" d="M345.821,326.936
			c-3.159,0-5.351-0.851-3.584-7.289c1.761-6.438,6.257-11.123,12.575-4.285c6.313,6.841,5.709,11.453,0.481,11.574
			C350.073,327.061,345.821,326.936,345.821,326.936z"/>
		<path id="rose-jewelry" fill="#939598" stroke="#494949" stroke-miterlimit="10" d="M370.363,299.115c0,0,0,8.625,0,12.148
			c0,3.521-3.401,5.826-7.412,2.432c-4.009-3.401-7.412-6.928-6.075-10.692C358.213,299.237,365.382,299.115,370.363,299.115z"/>
		
			<rect id="phataramanee" x="376.681" y="296.26" fill="#939598" stroke="#494949" stroke-miterlimit="10" width="12.939" height="16.949"/>
		<rect id="asava" x="395.27" y="296.26" fill="#939598" stroke="#494949" stroke-miterlimit="10" width="12.575" height="15.854"/>
		<path id="calinan" fill="#939598" stroke="#494949" stroke-miterlimit="10" d="M415.803,298.143c0,3.037,0.121-6.928,8.263-1.883
			c8.139,5.041,8.625,7.594,3.645,13.063c-4.979,5.469-12.027,3.888-11.907-2.188C415.925,301.059,415.803,298.143,415.803,298.143z
			"/>
	</g>
</g>
<g id="Signs">
	<rect id="parking" x="390.209" y="168.747" opacity="0.8" enable-background="new    " width="14.811" height="14.812"/>
	
		<rect id="call-point-service" x="430.025" y="168.746" opacity="0.8" enable-background="new    " width="14.811" height="14.812"/>
	<rect id="first-aid" x="422.621" y="231.651" opacity="0.8" enable-background="new    " width="14.811" height="14.811"/>
	<rect id="telephone" x="582.437" y="238.142" opacity="0.8" enable-background="new    " width="14.813" height="14.811"/>
	<rect id="family-room" x="605.71" y="238.142" opacity="0.8" enable-background="new    " width="14.811" height="14.811"/>
	<rect id="toilet" x="630.093" y="248.314" opacity="0.8" enable-background="new    " width="14.813" height="14.811"/>
	
		<rect id="handicapped-toilet" x="650.871" y="248.314" opacity="0.8" enable-background="new    " width="14.811" height="14.811"/>
	<g id="escalator">
		<rect id="escalator-3" x="176.428" y="330.379" opacity="0.8" enable-background="new    " width="14.812" height="14.812"/>
		<rect id="escalator-2" x="582.437" y="341.762" opacity="0.8" enable-background="new    " width="14.813" height="14.813"/>
		<rect id="escalator-1" x="411.248" y="337.783" opacity="0.8" enable-background="new    " width="14.81" height="14.812"/>
	</g>
	<rect id="information" x="643.466" y="347.262" opacity="0.8" enable-background="new    " width="14.813" height="14.813"/>
	<rect id="baby-stroller" x="665.681" y="347.262" opacity="0.8" enable-background="new    " width="14.813" height="14.813"/>
	<rect id="smoking-room" x="693.062" y="288.264" opacity="0.8" enable-background="new    " width="14.811" height="14.812"/>
	<g id="lift">
		<rect id="lift-3" x="564.917" y="267.512" opacity="0.8" enable-background="new    " width="14.811" height="14.813"/>
		<rect id="lift-2" x="279.594" y="254.719" opacity="0.8" enable-background="new    " width="14.811" height="14.813"/>
		<rect id="lift-1" x="771.681" y="354.667" opacity="0.8" enable-background="new    " width="14.813" height="14.813"/>
	</g>
	<g id="entrance">
		<rect id="entrance-4" x="441.248" y="442.283" opacity="0.8" enable-background="new    " width="14.811" height="14.812"/>
		<rect id="entrance-3" x="757.931" y="412.684" opacity="0.8" enable-background="new    " width="14.813" height="14.813"/>
		<rect id="entrance-2" x="716.521" y="285.64" opacity="0.8" enable-background="new    " width="14.813" height="14.811"/>
		<rect id="entrance-1" x="177.747" y="442.283" opacity="0.8" enable-background="new    " width="14.811" height="14.812"/>
	</g>
	<rect id="taxi" x="733.656" y="453.183" opacity="0.8" enable-background="new    " width="14.811" height="14.813"/>
	<rect id="bus-stop" x="762.748" y="453.183" opacity="0.8" enable-background="new    " width="14.811" height="14.813"/>
	<rect id="mrt" x="791.804" y="453.183" opacity="0.8" enable-background="new    " width="14.811" height="14.813"/>
</g>
</svg>
