<?xml version="1.0" encoding="utf-8"?>
<!-- Generator: Adobe Illustrator 16.0.0, SVG Export Plug-In . SVG Version: 6.00 Build 0)  -->
<!DOCTYPE svg PUBLIC "-//W3C//DTD SVG 1.1//EN" "http://www.w3.org/Graphics/SVG/1.1/DTD/svg11.dtd">
<svg version="1.1" id="Layer_1" xmlns="http://www.w3.org/2000/svg" xmlns:xlink="http://www.w3.org/1999/xlink" x="0px" y="0px"
	 width="841.89px" height="595.281px" viewBox="0 0 841.89 595.281" enable-background="new 0 0 841.89 595.281"
	 xml:space="preserve">
<g id="Background">
	<rect fill="#FFFFFF" width="841.89" height="595.281"/>
</g>
<g id="ETC">
	<path fill="#CECECE" stroke="#494949" stroke-miterlimit="10" d="M690.083,442.892c1.656-7.627,8.203-29.268,29.221-29.268
		c21.107,0,71.9,0,88.816,0V327.18h-49.451c0,0-3.037-12.271-16.523-12.271s-135.287-3.705-141.666-4.07
		c-6.379-0.362-17.494-6.924-17.312-23.327c0.184-16.403-0.002-18.646-0.002-18.646h44.652v9.171l61.281,0.172l-0.297-0.475
		l3.1-42.646h-97.982v15.309H477.767V236.06h-96.955v9.263h-33.533v23.542h-33.676v17.496h18.363v108.62l-13.851,12.879h-51.272
		v37.938l61.171,2.461h2.916v-39.729l9.203-9.204c0,0,89.392,0,96.5,0c7.109,0,16.039,2.098,16.039,12.668h86.938l18.945-14.216
		h3.646v46.427l32.805-0.336v-46.091c0,0,30.801-0.362,42.828,3.824c11.756,4.099,31.512,20.938,32.404,41.498"/>
	<polygon fill="#CECECE" stroke="#494949" stroke-miterlimit="10" points="313.604,255.983 313.604,268.863 347.278,268.863 
		347.278,245.32 380.812,245.32 380.812,236.057 477.767,236.057 477.767,250.394 593.919,250.394 593.919,235.085 691.902,235.085 
		698.771,140.293 203.668,140.293 203.668,255.983 	"/>
	<path fill="#B5B5B5" stroke="#494949" stroke-miterlimit="10" d="M627.818,268.863h-17.861v42.328
		c4.676,0.156,10.803,0.354,17.861,0.576v-33.732V268.863z"/>
	<path fill="#B5B5B5" stroke="#494949" stroke-miterlimit="10" d="M413.86,399.318v48.936h16.401v-48.936
		C426.146,399.318,420.433,399.318,413.86,399.318z"/>
	<path fill="#B5B5B5" stroke="#494949" stroke-miterlimit="10" d="M436.64,399.318c-0.906,0-3.152,0-6.379,0v48.936h20.959
		l1.459-0.031v-36.236C452.679,401.416,443.748,399.318,436.64,399.318z"/>
	<rect x="362.709" y="245.32" fill="#B5B5B5" stroke="#494949" stroke-miterlimit="10" width="18.225" height="10.905"/>
	<rect x="362.709" y="256.226" fill="#B5B5B5" stroke="#494949" stroke-miterlimit="10" width="18.225" height="10.448"/>
	<rect x="758.669" y="377.359" fill="#B5B5B5" stroke="#494949" stroke-miterlimit="10" width="49.451" height="11.662"/>
</g>
<g id="Rooms">
	<polygon id="b29" fill="#939598" stroke="#494949" stroke-miterlimit="10" points="135.872,257.442 171.592,257.442 
		171.592,286.359 313.604,286.359 313.604,268.863 313.604,260.114 313.604,255.983 203.668,255.983 203.668,140.293 
		120.667,140.293 108.799,236.302 135.872,236.302 	"/>
	<polygon id="b28" fill="#939598" stroke="#494949" stroke-miterlimit="10" points="318.119,407.855 331.969,394.979 
		331.969,286.359 313.604,286.359 171.592,286.359 171.592,257.442 135.872,257.442 135.872,236.302 108.799,236.302 
		86.362,417.816 112.059,435.677 196.621,442.968 266.847,445.792 266.847,407.855 	"/>
	<path id="b11" fill="#939598" stroke="#494949" stroke-miterlimit="10" d="M340.141,399.318l-9.203,9.203v39.729h17.56v-48.936
		C343.307,399.318,340.141,399.318,340.141,399.318z"/>
	<path id="b09-b10" fill="#939598" stroke="#494949" stroke-miterlimit="10" d="M381.056,399.318
		c-3.877,0-10.608,0.002-16.041,0.005v-0.005c-6.468,0-12.195,0-16.521,0v48.936h16.521v-0.087l16.041,0.087V399.318z"/>
	<path id="b07-b08" fill="#939598" stroke="#494949" stroke-miterlimit="10" d="M397.7,399.318c-5.485,0-11.132,0-16.646,0v48.936
		H397.7h16.16v-48.936C408.861,399.318,403.367,399.318,397.7,399.318z"/>
	<path id="b26" fill="#939598" stroke="#494949" stroke-miterlimit="10" d="M595.013,397.771v46.09l14.943-0.152v-45.684
		C601.646,397.691,595.013,397.771,595.013,397.771z"/>
	<path id="b25" fill="#939598" stroke="#494949" stroke-miterlimit="10" d="M609.957,398.025v45.684l16.402-0.166V399.27
		C621.046,398.607,615.171,398.236,609.957,398.025z"/>
	<path id="b23-b24" fill="#939598" stroke="#494949" stroke-miterlimit="10" d="M670.246,443.096
		c-0.785-18.079-16.158-33.283-27.85-39.475v-0.001c-1.604-0.849-3.137-1.529-4.555-2.024c-2.945-1.021-7.016-1.777-11.48-2.328
		v44.274l16.035-0.162v0.001L670.246,443.096z"/>
	<path id="b22" fill="#939598" stroke="#494949" stroke-miterlimit="10" d="M690.083,442.892l118.037-1.194v-28.068
		c-16.916,0-67.709,0-88.816,0C698.287,413.625,691.74,435.265,690.083,442.892z"/>
	<rect id="b27" x="477.767" y="250.394" fill="#939598" stroke="#494949" stroke-miterlimit="10" width="84.168" height="18.469"/>
	<rect id="b30" x="561.935" y="250.394" fill="#939598" stroke="#494949" stroke-miterlimit="10" width="16.555" height="12.027"/>
	<rect id="b03" x="397.579" y="266.673" fill="#939598" stroke="#494949" stroke-miterlimit="10" width="22.963" height="41.188"/>
	<polygon id="b01-b02" fill="#939598" stroke="#494949" stroke-miterlimit="10" points="381.542,266.673 362.709,266.673 
		362.709,293.282 380.934,304.095 381.542,304.232 397.458,307.861 397.579,307.861 397.579,266.673 	"/>
	<path id="kb07" fill="#939598" stroke="#494949" stroke-miterlimit="10" d="M444.599,320.132c-0.789,0-4.256,0-8.627,0v25.271
		c4.414,0,7.947,0,8.869,0c2.795,0,3.768-2.062,3.768-4.735s0-14.459,0-16.892C448.609,321.35,446.908,320.132,444.599,320.132z"/>
	<path id="kb05" fill="#939598" stroke="#494949" stroke-miterlimit="10" d="M435.972,320.132c-8.434,0-20.239,0-22.72,0
		c-3.766,0-5.466,2.188-5.466,5.226c0,0,0,3.584,0,7.412h28.188v-12.638H435.972z"/>
	<path id="kb06" fill="#939598" stroke="#494949" stroke-miterlimit="10" d="M407.785,332.77c0,3.188,0,6.541,0,8.145
		c0,3.521,2.187,4.494,4.856,4.494c1.79,0,14.375,0,23.331,0V332.77H407.785L407.785,332.77z"/>
	<path id="kb03" fill="#939598" stroke="#494949" stroke-miterlimit="10" d="M378.018,329.246l20.776,28.064c0,0,0-27.459,0-30.859
		c0-3.402-2.065-6.318-6.561-6.318c-4.496,0-6.439,0-6.439,0L378.018,329.246z"/>
	<path id="kb02" fill="#939598" stroke="#494949" stroke-miterlimit="10" d="M365.747,334.227l20.412,25.028c0,0-24.664,0-28.917,0
		s-10.814-6.926-10.814-12.514c0-5.591,0-8.507,0-8.507L365.747,334.227z"/>
	<path id="kb04" fill="#939598" stroke="#494949" stroke-miterlimit="10" d="M352.26,372.621c0.192-2.666,2.556-4.012,4.981-4.012
		s35.841,0,38.146,0c2.312,0,3.402,2.432,3.402,4.012c0,1.578,0,7.533,0,9.6c0,2.064-1.701,3.766-4.009,3.766
		c-2.312,0-30.01,0-32.687,0C359.429,385.984,351.288,386.105,352.26,372.621z"/>
	<path id="kb08" fill="#939598" stroke="#494949" stroke-miterlimit="10" d="M448.609,360.303c0-2.886-1.701-4.328-4.012-4.328
		c-0.787,0-4.254,0-8.625,0c-8.434,0-20.24,0-22.721,0c-3.766,0-5.466,2.602-5.466,6.205c0,0,0,4.256,0,8.801h40.824
		C448.609,366.477,448.609,361.832,448.609,360.303z"/>
	<path id="kb09" fill="#939598" stroke="#494949" stroke-miterlimit="10" d="M407.785,370.98L407.785,370.98
		c0,3.783,0,7.766,0,9.666c0,4.186,2.187,5.338,4.856,5.338c1.79,0,14.375,0,23.331,0c4.414,0,7.947,0,8.869,0
		c2.795,0,3.768-2.451,3.768-5.627c0-1.492,0-5.379,0-9.377H407.785L407.785,370.98z"/>
	<g id="e-center-zone">
		<rect x="690.083" y="333.438" fill="#939598" stroke="#494949" stroke-miterlimit="10" width="13.912" height="14.944"/>
		<rect x="710.982" y="333.438" fill="#939598" stroke="#494949" stroke-miterlimit="10" width="13.912" height="14.944"/>
		<rect x="716.207" y="358.648" fill="#939598" stroke="#494949" stroke-miterlimit="10" width="13.912" height="14.94"/>
		<rect x="730.119" y="358.648" fill="#939598" stroke="#494949" stroke-miterlimit="10" width="15.307" height="7.473"/>
		<rect x="730.119" y="366.121" fill="#939598" stroke="#494949" stroke-miterlimit="10" width="15.307" height="7.473"/>
		<rect x="731.515" y="333.438" fill="#939598" stroke="#494949" stroke-miterlimit="10" width="13.91" height="14.944"/>
		<rect x="690.083" y="383.189" fill="#939598" stroke="#494949" stroke-miterlimit="10" width="13.912" height="14.942"/>
		<rect x="690.083" y="358.132" fill="#939598" stroke="#494949" stroke-miterlimit="10" width="18.652" height="14.943"/>
		<rect x="643.671" y="348.382" fill="#939598" stroke="#494949" stroke-miterlimit="10" width="15.492" height="12.938"/>
		<rect x="659.164" y="348.382" fill="#939598" stroke="#494949" stroke-miterlimit="10" width="15.492" height="12.938"/>
		<rect x="643.671" y="324.445" fill="#939598" stroke="#494949" stroke-miterlimit="10" width="15.492" height="12.938"/>
		<rect x="659.164" y="324.445" fill="#939598" stroke="#494949" stroke-miterlimit="10" width="15.492" height="12.938"/>
		<rect x="643.671" y="372.561" fill="#939598" stroke="#494949" stroke-miterlimit="10" width="15.492" height="15.733"/>
		<rect x="659.164" y="372.561" fill="#939598" stroke="#494949" stroke-miterlimit="10" width="15.492" height="15.733"/>
		<rect x="710.982" y="383.189" fill="#939598" stroke="#494949" stroke-miterlimit="10" width="13.912" height="14.942"/>
		<rect x="731.515" y="383.189" fill="#939598" stroke="#494949" stroke-miterlimit="10" width="13.91" height="14.942"/>
		<path fill="#939598" stroke="#494949" stroke-miterlimit="10" d="M591.611,323.171c-5.953,0-9.6,11.297-9.6,21.748h21.627v-21.748
			C595.273,323.171,596.919,323.171,591.611,323.171z"/>
		<path fill="#939598" stroke="#494949" stroke-miterlimit="10" d="M607.162,323.171c-1.342,0-2.506,0-3.523,0v17.738h15.465
			C618.496,334.625,616.158,323.171,607.162,323.171z"/>
	</g>
	<path id="kb11" fill="#939598" stroke="#494949" stroke-miterlimit="10" d="M582.011,358.132h45.078c0,0,4.371,2.507,4.371,9.916
		c0,7.412-4.131,9.916-4.131,9.916s-27.213,0-32.924,0S582.011,372.447,582.011,358.132z"/>
	<path id="b16-1-b16-2" fill="#939598" stroke="#494949" stroke-miterlimit="10" d="M642.396,278.075L642.396,278.075l-14.578-0.041
		v33.731c4.521,0.146,9.428,0.295,14.578,0.454v0.003c5.09,0.151,10.418,0.313,15.855,0.479v-34.58L642.396,278.075z"/>
	<path id="b14" fill="#939598" stroke="#494949" stroke-miterlimit="10" d="M583.164,268.863c0,0,0.186,2.246,0.004,18.646
		c-0.184,16.403,10.934,22.964,17.314,23.327c0.932,0.057,4.322,0.18,9.477,0.354v-42.328h-26.795V268.863L583.164,268.863z"/>
	<path id="b18" fill="#939598" stroke="#494949" stroke-miterlimit="10" d="M698.771,293.768l-1-1.61l-7.688,6.833v14.641
		c10.1,0.287,19.676,0.552,27.854,0.765V293.77L698.771,293.768L698.771,293.768z"/>
	<path id="b19-b20" fill="#939598" stroke="#494949" stroke-miterlimit="10" d="M741.906,293.768L741.906,293.768h-23.969v20.628
		c11.766,0.305,20.623,0.502,23.967,0.514l0,0c0.082,0,0.166,0,0.242,0c13.486,0,16.523,12.271,16.523,12.271h49.449V293.77
		L741.906,293.768z"/>
	<path id="b17-1-b17-2" fill="#939598" stroke="#494949" stroke-miterlimit="10" d="M689.103,278.206l-14.447-0.041l-16.404-0.045
		v34.581c5.404,0.162,10.916,0.326,16.404,0.486c5.199,0.149,10.379,0.301,15.428,0.44V298.99l7.688-6.834L689.103,278.206z"/>
	<g id="fashion-plus-zone">
		<g>
			<path fill="#939598" stroke="#494949" stroke-miterlimit="10" d="M519.281,344.068h2.553l0,0h12.393h12.24l0,0h4.039
				c2.416,0,4.375-1.957,4.375-4.373v-15.188c0-2.416-1.959-4.375-4.375-4.375h-4.039h-12.24h-12.393h-0.002h-2.551
				c-2.416,0-4.373,1.959-4.373,4.375v15.188C514.908,342.111,516.865,344.068,519.281,344.068z"/>
			<g>
				<path fill="#939598" stroke="#494949" stroke-miterlimit="10" d="M494.119,320.132h-3.041h-0.998h-11.24h-0.002h-12.393h-2.551
					c-2.416,0-4.375,1.959-4.375,4.375v15.188c0,2.414,1.959,4.373,4.375,4.373h2.551v-0.002h12.393h0.002h11.24v0.002h4.039
					c2.416,0,4.373-1.959,4.373-4.373v-15.188C498.492,322.091,496.535,320.132,494.119,320.132z"/>
				<path fill="#939598" stroke="#494949" stroke-miterlimit="10" d="M494.119,356.645h-3.041h-0.998h-11.24h-0.002h-12.393h-2.551
					c-2.416,0-4.375,2.261-4.375,5.049v17.539c0,2.791,1.959,5.055,4.375,5.055h2.551h12.393h0.002h11.24h0.998h3.041
					c2.416,0,4.373-2.264,4.373-5.055v-17.539C498.492,358.904,496.535,356.645,494.119,356.645z"/>
			</g>
			<path fill="#939598" stroke="#494949" stroke-miterlimit="10" d="M551.173,356.645h-4.039h-12.24h-12.393h-2.553
				c-2.416,0-4.373,2.261-4.373,5.049v17.539c0,2.791,1.957,5.055,4.373,5.055h2.553h12.393h12.24h4.039
				c2.416,0,4.375-2.264,4.375-5.055v-17.539C555.548,358.904,553.589,356.645,551.173,356.645z"/>
		</g>
		<g>
			<path fill="#939598" stroke="#494949" stroke-miterlimit="10" d="M468.783,293.889h10.967h10.965h10.965h10.965h10.971h10.963
				h10.967h12.117v-25.026h-12.117h-10.967h-10.963h-10.971h-10.965h-10.965H479.75h-10.967h-10.965h-5.869c0,0,0,16.764,0,25.026
				h5.869H468.783z"/>
			<rect x="470.455" y="303.001" fill="#939598" stroke="#494949" stroke-miterlimit="10" width="21.627" height="8.263"/>
			<rect x="470.455" y="395.136" fill="#939598" stroke="#494949" stroke-miterlimit="10" width="21.627" height="8.263"/>
			<rect x="515.576" y="395.136" fill="#939598" stroke="#494949" stroke-miterlimit="10" width="21.627" height="8.263"/>
			<rect x="521.726" y="303.001" fill="#939598" stroke="#494949" stroke-miterlimit="10" width="21.627" height="8.263"/>
			<polygon fill="#939598" stroke="#494949" stroke-miterlimit="10" points="558.562,397.771 539.609,411.984 539.062,411.984 
				524.4,411.984 512.917,411.984 501.89,411.984 491.322,411.984 480.66,411.984 469.361,411.984 458.972,411.984 452.679,411.984 
				452.679,411.986 452.679,448.134 458.972,448.005 469.361,447.791 480.66,447.556 491.322,447.335 501.89,447.117 
				512.917,446.888 517.474,446.794 539.062,444.431 562.208,444.195 562.208,397.771 			"/>
		</g>
	</g>
	<path id="b04" fill="#939598" stroke="#494949" stroke-miterlimit="10" d="M451.949,268.863h-23.268v39c0,0,8.385,0,12.393,0
		c4.012,0,10.875-5.713,10.875-13.974C451.949,285.627,451.949,268.863,451.949,268.863z"/>
</g>
<g id="Signs">
	<rect id="telephone" x="611.482" y="252.223" width="14.811" height="14.811"/>
	<g id="atm">
		<rect id="atm-2" x="577.521" y="265.59" width="14.812" height="14.811"/>
		<rect id="atm-1" x="330.938" y="267.034" width="14.813" height="14.811"/>
	</g>
	<g id="escalator">
		<rect id="escalator-3" x="595.08" y="344.068" width="14.811" height="14.811"/>
		<rect id="escalator-2" x="374.136" y="339.335" width="14.813" height="14.812"/>
		<rect id="escalator-1" x="226.928" y="259.628" width="14.812" height="14.811"/>
	</g>
	<g id="lift">
		<rect id="lift-3" x="560.896" y="265.59" width="14.812" height="14.811"/>
		<rect id="lift-2" x="281.928" y="259.628" width="14.811" height="14.811"/>
		<rect id="lift-1" x="771.83" y="340.977" width="14.811" height="14.813"/>
	</g>
	<g id="entrance">
		<rect id="entrance-3" x="330.938" y="231.095" width="14.813" height="14.813"/>
		<rect id="entrance-2" x="574.607" y="231.095" width="14.811" height="14.813"/>
		<rect id="entrance-1" x="672.857" y="446.888" opacity="0.8" enable-background="new    " width="14.811" height="14.813"/>
	</g>
	<rect id="mrt" x="672.857" y="465.138" opacity="0.8" enable-background="new    " width="14.811" height="14.813"/>
	<g id="toilet">
		<rect id="toilet-2" x="282.553" y="420.854" width="14.811" height="14.813"/>
		<rect id="toilet-1" x="636.267" y="247.611" width="14.811" height="14.811"/>
	</g>
	<rect id="baby-change-room" x="652.214" y="247.611" width="14.812" height="14.811"/>
	<rect id="parking" x="413.54" y="173.611" width="14.809" height="14.811"/>
	<rect id="call-point-service" x="456.595" y="173.611" width="14.811" height="14.811"/>
	<g id="handicapped-toilet">
		<rect id="handicapped-toilet-2" x="298.989" y="420.854" width="14.811" height="14.813"/>
		<rect id="handicapped-toilet-1" x="668.162" y="247.611" width="14.811" height="14.811"/>
	</g>
</g>
<rect x="758.669" y="389.021" fill="#B5B5B5" stroke="#494949" stroke-miterlimit="10" width="49.451" height="24.604"/>
<rect x="785.642" y="359.498" fill="#B5B5B5" stroke="#494949" stroke-miterlimit="10" width="17.133" height="11.301"/>
</svg>
