<?xml version="1.0" encoding="utf-8"?>
<!-- Generator: Adobe Illustrator 16.0.0, SVG Export Plug-In . SVG Version: 6.00 Build 0)  -->
<!DOCTYPE svg PUBLIC "-//W3C//DTD SVG 1.1//EN" "http://www.w3.org/Graphics/SVG/1.1/DTD/svg11.dtd">
<svg version="1.1" id="Layer_1" xmlns="http://www.w3.org/2000/svg" xmlns:xlink="http://www.w3.org/1999/xlink" x="0px" y="0px"
	 width="841.89px" height="595.281px" viewBox="0 0 841.89 595.281" enable-background="new 0 0 841.89 595.281"
	 xml:space="preserve">
<g id="Background">
	<rect y="0" fill="#FFFFFF" width="841.89" height="595.281"/>
</g>
<g id="ETC">
	<path fill="#CECECE" stroke="#494949" stroke-width="0.5" stroke-miterlimit="10" d="M311.255,266.37h32.986v-32.075h342.987
		v-94.002H120.667H50.095c0,0-8.64,61.414-15.212,112.044h276.373L311.255,266.37L311.255,266.37z"/>
	<path fill="#CECECE" stroke="#494949" stroke-width="0.5" stroke-miterlimit="10" d="M687.228,266.37v-32.075H561.357v49.146
		l9.477-0.486c0,0,0.486,4.618,0.486,11.421c0,6.805-4.131,9.962-10.207,9.962c-3.361,0-63.746,0-117.002,0v-39.063h18.771v-7.654
		h13.67v-23.327h-96.773v31.347h55.586v38.696c-39.285,0-72.539,0-72.539,0l-45.44,3.646c0,0-2.292,0.019-6.135,0.041V266.37
		v-14.033h-47.567v18.226h33.897v37.551c-22.327,0.146-56.756,0.354-66.216,0.354c-14.337,0-33.048-9.232-33.048-9.232
		s-19.69,0.271-38.556,0.482l0.406-47.383h-46.776v13.122h7.533v6.197h26.729v28.19c-7.292,0.069-13.66,0.119-17.618,0.119
		c-15.551,0-28.917,18.471-29.159,34.021c-0.243,15.553,12.636,34.021,31.589,34.021c3.927,0,12.176,0.021,22.782,0.055v23.697
		h-28.43v3.645H113.15c0,0,0.083,10.973,0.081,18.316c16.86,4.35,34.925,6.582,50.584,7.69v-53.324
		c41.725,0.142,107.161,0.404,107.161,0.404l13.851,5.104c0,0,5.08,0.057,13.607,0.139v17.725H230.7v30.687
		c21.668,0.049,47.202,0.235,47.202,0.235v12.209c0,0,13.262,7.736,37.725,6.41v-43.043h-9.294v-24.146
		c47.771,0.447,159.762,1.311,175.567-0.213c20.168-1.941,60.746-6.806,60.746-6.806h40.34v26.243h-20.777v44.716
		c9.967-0.539,18.295-0.771,25.238-0.771c2.088-0.118,4.188-0.243,6.291-0.375v-69.813h68.221v-58.073c0,0-24.301,0.241-32.561,0
		c-8.266-0.242-9.723,0-16.281-1.701c-6.564-1.699-15.066-1.941-20.412-2.43c-5.346-0.489-8.262-3.646-8.262-7.535
		c0-3.888,0-30.678,0-30.678L687.228,266.37L687.228,266.37z"/>
	<path fill="#CECECE" stroke="#494949" stroke-width="0.5" stroke-miterlimit="10" d="M311.255,350.934
		c0.377-9.472,1.64-9.658,10.57-13.213c8.93-3.557,47.749-15.947,51.938-16.13c4.192-0.185,54.125-3.28,63.061-3.28
		c8.93,0,14.578,2.369,14.578,11.117c0,8.747,0,14.579,0,19.316s0.184,10.205-14.578,10.205c-14.768,0-34.083,0-34.083,0
		l-15.491-13.121l-19.5,14.396c0,0-42.099,0-48.113,0C313.625,360.227,311.096,354.906,311.255,350.934z"/>
	<path fill="#CECECE" stroke="#494949" stroke-width="0.5" stroke-miterlimit="10" d="M336.951,319.404
		c-4.009,0.183-32.076,2.188-36.27,2.188c-4.188,0-6.196,1.096-7.654,4.01c-0.353,0.705-0.941,2.063-1.648,3.813
		c-2.22,5.496-5.63,14.897-6.736,20.427c-1.458,7.289,7.655,9.11,10.389,9.11c1.887,0,13.231,0,20.086,0
		c-2.778-1.817-3.979-5.244-3.866-8.019c0.256-6.425,0.923-8.578,4.111-10.408c1.511-0.866,3.586-1.662,6.458-2.806
		c4.025-1.604,14.133-5.002,24.396-8.271C344.229,322.975,340.518,319.242,336.951,319.404z"/>
	<path fill="#CECECE" stroke="#494949" stroke-width="0.5" stroke-miterlimit="10" d="M533.05,341.455
		c-0.01-10.389-0.729-11.299,9.84-11.299c10.57,0,26.607-2.916,35.537-6.563c8.932-3.646,27.521-4.918,33.535-1.64
		c6.014,3.28,6.926,5.832,7.107,10.752c0.182,4.923,0,21.323,0,21.323h-34.627v-16.313c0,0-6.564-0.272-10.572,0.91
		c-4.008,1.187-18.404,15.398-18.404,15.398s-12.395,0-17.861,0S533.052,346.011,533.05,341.455z"/>
</g>
<g id="Rooms">
	<path id="r631" fill="#939598" stroke="#494949" stroke-width="0.5" stroke-miterlimit="10" d="M116.257,304.854l-12.764-9.688
		H29.571c-0.555,4.849-1.012,9.099-1.346,12.574c-0.535,5.564-0.774,10.83-0.666,15.854h75.245
		C105.338,316.254,110.188,309.295,116.257,304.854z"/>
	<path id="r603" fill="#939598" stroke="#494949" stroke-width="0.5" stroke-miterlimit="10" d="M197.897,252.337v46.905
		c0.273-0.006,0.424-0.008,0.424-0.008s18.137,8.951,32.38,9.229v-56.126L197.897,252.337L197.897,252.337z"/>
	<path id="r602" fill="#939598" stroke="#494949" stroke-width="0.5" stroke-miterlimit="10" d="M160.172,252.337v47.378
		c17.131-0.192,34.813-0.433,37.725-0.474v-46.905L160.172,252.337L160.172,252.337z"/>
	<path id="r611" fill="#939598" stroke="#494949" stroke-width="0.5" stroke-miterlimit="10" d="M561.357,283.44v-49.146h-33.41
		v70.044c18.67,0,31.658,0,33.166,0c6.076,0,10.207-3.157,10.207-9.963c0-6.803-0.486-11.421-0.486-11.421L561.357,283.44z"/>
	<path id="r610" fill="#939598" stroke="#494949" stroke-width="0.5" stroke-miterlimit="10" d="M495.324,234.295v70.043
		c11.857,0,22.994,0,32.623,0v-70.043H495.324L495.324,234.295z"/>
	<path id="r606" fill="#939598" stroke="#494949" stroke-width="0.5" stroke-miterlimit="10" d="M344.241,234.295v32.075h-32.986
		v41.655c3.843-0.024,6.135-0.043,6.135-0.043l45.261-3.629v-70.062L344.241,234.295L344.241,234.295z"/>
	<path id="r630" fill="#939598" stroke="#494949" stroke-width="0.5" stroke-miterlimit="10" d="M100.88,333.984
		c0.053-3.396,0.732-6.938,1.924-10.393H27.56c0.226,10.473,1.969,19.896,5.748,28.797h72.951
		C102.721,346.674,100.785,340.102,100.88,333.984z"/>
	<path id="r629" fill="#939598" stroke="#494949" stroke-width="0.5" stroke-miterlimit="10" d="M113.152,395.398h13.669v-3.646
		h28.43v-23.695c-10.606-0.033-18.854-0.057-22.782-0.057c-11.496,0-20.757-6.796-26.211-15.611H33.307
		c6.764,15.93,20.044,30.186,42.789,45.744c3.63,2.483,7.616,4.717,11.868,6.727c7.724,3.646,16.328,6.549,25.269,8.854
		C113.234,406.369,113.152,395.398,113.152,395.398z"/>
	<path id="r628" fill="#939598" stroke="#494949" stroke-width="0.5" stroke-miterlimit="10" d="M163.817,368.083v53.324
		c14.271,1.015,26.541,1.092,34.08,0.994v-54.197C185.985,368.162,174.171,368.119,163.817,368.083z"/>
	<path id="r621" fill="#939598" stroke="#494949" stroke-width="0.5" stroke-miterlimit="10" d="M396.545,374.41v38.789
		c7.777-1.246,18.449-1.28,32.441,2.572v-41.32C418.771,374.465,407.764,374.449,396.545,374.41z"/>
	<path id="r618-619" fill="#939598" stroke="#494949" stroke-width="0.5" stroke-miterlimit="10" d="M495.324,372.207
		c-4.938,0.533-9.559,1.013-13.426,1.388c-3.119,0.301-9.992,0.508-19.379,0.643v54.734c12.67,4.938,23.393,7.533,32.805,8.856
		c12.744,1.793,23.09,1.248,32.623,0.99v-70.297C518.562,369.615,506.171,371.037,495.324,372.207z"/>
	<path id="r620" fill="#939598" stroke="#494949" stroke-width="0.5" stroke-miterlimit="10" d="M428.986,374.451v41.32
		c6.375,1.754,13.438,4.314,21.23,7.938c4.299,1.997,8.393,3.739,12.303,5.26v-54.732
		C453.355,374.371,441.796,374.436,428.986,374.451z"/>
	<path id="r622" fill="#939598" stroke="#494949" stroke-width="0.5" stroke-miterlimit="10" d="M363.559,374.252v53.249
		c6.509-3.402,12.274-6.882,18.228-9.724c2.503-1.067,7.301-3.381,14.762-4.578V374.41
		C385.57,374.376,374.395,374.316,363.559,374.252z"/>
	<path id="r623-624" fill="#939598" stroke="#494949" stroke-width="0.5" stroke-miterlimit="10" d="M330.208,374.016v0.349
		c-8.305-0.144-17.94-0.503-23.875-0.558v24.146h9.294v43.041c3.754-0.204,9.681-0.991,14.581-1.804v0.056
		c0.901-0.166,1.812-0.342,2.734-0.528c12.718-2.617,22.272-6.854,30.614-11.218v-53.247
		C351.806,374.18,340.456,374.098,330.208,374.016z"/>
	<path id="r617" fill="#939598" stroke="#494949" stroke-width="0.5" stroke-miterlimit="10" d="M582.984,393.031v-26.244h-40.338
		c0,0-6.078,0.729-14.699,1.734v70.297c2.125-0.062,4.211-0.104,6.271-0.104c3.998,0,9.582-0.076,16.201-0.24
		c4.168-0.286,8.088-0.527,11.787-0.729v-44.716h20.777V393.031L582.984,393.031z"/>
	<path id="r616" fill="#939598" stroke="#494949" stroke-width="0.5" stroke-miterlimit="10" d="M593.736,366.787V436.6
		c5.662-0.35,11.34-0.75,16.883-1.199c3.982-1.547,3.803-12.113,3.803-12.113h13.215V366.79L593.736,366.787L593.736,366.787z"/>
	<path id="r612-613" fill="#939598" stroke="#494949" stroke-width="0.5" stroke-miterlimit="10" d="M696.888,293.768h-9.658V266.37
		h-59.594h-43.193c0,0,0,26.79,0,30.678c0,3.889,2.916,7.046,8.26,7.534c5.348,0.484,13.852,0.729,20.414,2.433
		c6.063,1.57,7.771,1.481,14.52,1.649c0.557,0.017,1.133,0.029,1.766,0.05c8.262,0.241,32.561,0,32.561,0l34.932-0.05v-14.896
		H696.888z"/>
	<polygon id="r601" fill="#939598" stroke="#494949" stroke-width="0.5" stroke-miterlimit="10" points="812.373,293.768 
		799.978,293.768 780.296,293.768 731.697,293.768 698.771,293.768 696.888,293.768 696.888,308.664 661.957,308.713 
		661.957,366.787 681.214,366.787 681.214,423.285 812.373,423.285 	"/>
	<polygon id="r614-615" fill="#939598" stroke="#494949" stroke-width="0.5" stroke-miterlimit="10" points="661.957,366.787 
		627.636,366.787 627.636,423.285 661.957,423.285 681.214,423.285 681.214,366.787 	"/>
	<path id="r626-627" fill="#939598" stroke="#494949" stroke-width="0.5" stroke-miterlimit="10" d="M230.701,368.33
		c-10.261-0.039-21.576-0.082-32.804-0.125v54.197c5.033-0.065,7.958-0.211,7.958-0.211c5.435-0.068,14.719-0.076,24.846-0.055
		V391.45h33.868v-22.987C257.48,368.436,245.134,368.387,230.701,368.33z"/>
	<path id="r625" fill="#939598" stroke="#494949" stroke-width="0.5" stroke-miterlimit="10" d="M298.438,373.73
		c-8.528-0.084-13.607-0.141-13.607-0.141l-13.851-5.104c0,0-2.338-0.01-6.408-0.021v22.987h33.871V373.73H298.438z"/>
	<path id="r632" fill="#939598" stroke="#494949" stroke-width="0.5" stroke-miterlimit="10" d="M120.928,271.655v-6.197h-7.533
		v-13.122H34.882c-2.097,16.159-3.983,31.213-5.311,42.829h73.922l12.764,9.688c4.143-3.033,8.853-4.891,13.783-4.891
		c3.958,0,10.326-0.05,17.618-0.119v-28.188H120.928L120.928,271.655z"/>
	
		<rect x="130.83" y="254.25" fill="#939598" stroke="#494949" stroke-width="0.5" stroke-miterlimit="10" width="16.828" height="10.206"/>
	<path id="r604-605" fill="#939598" stroke="#494949" stroke-width="0.5" stroke-miterlimit="10" d="M263.688,270.562v-18.225
		h-32.987v56.126c0.224,0.004,0.446,0.008,0.668,0.008c5.229,0,18.091-0.063,32.319-0.146c11.511-0.067,23.913-0.146,33.897-0.211
		v-37.551L263.688,270.562L263.688,270.562z"/>
	<path id="r607" fill="#939598" stroke="#494949" stroke-width="0.5" stroke-miterlimit="10" d="M379.779,265.641v-31.347h-17.131
		v70.06l0.182-0.017c0,0,15.402,0,37.615,0v-38.696H379.779z"/>
	<path id="r608" fill="#939598" stroke="#494949" stroke-width="0.5" stroke-miterlimit="10" d="M435.365,265.641h-34.919v38.696
		c10.434,0,22.364,0,34.919,0V265.641z"/>
	<path id="r609" fill="#939598" stroke="#494949" stroke-width="0.5" stroke-miterlimit="10" d="M495.324,234.295h-18.771v23.327
		h-13.668v7.654h-18.77v39.063c17.041,0,34.813,0,51.213,0v-70.043L495.324,234.295L495.324,234.295z"/>
	<path id="k601" fill="#939598" stroke="#494949" stroke-width="0.5" stroke-miterlimit="10" d="M125.545,339.27
		c0.452-9.465-0.364-15.31,8.565-15.674c8.93-0.365,13.547,4.922,13.547,14.396c0,9.479-4.07,17.133-12.636,17.133
		C126.456,355.126,125.087,348.844,125.545,339.27z"/>
	<path id="k610" fill="#939598" stroke="#494949" stroke-width="0.5" stroke-miterlimit="10" d="M542.89,330.156
		c6.912,0,16.166-1.248,24.238-3.129c0-2.865,0-5.67,0-6.963c0-3.166-2.551-5.582-6.561-5.582c-4.016,0-11.854,0-17.859,0
		c-6.016,0-7.473,2.916-7.473,5.582c0,1.824,0,7.479,0,10.881C536.667,330.279,539.019,330.156,542.89,330.156z"/>
	<path id="k609" fill="#939598" stroke="#494949" stroke-width="0.5" stroke-miterlimit="10" d="M451.402,337.721
		c0,4.452,0,7.969,0,11.023c0,4.737,0.182,10.205-14.58,10.205h28.521c2.416,0,4.373-1.957,4.373-4.373v-16.855H451.402z"/>
	<path id="k608" fill="#939598" stroke="#494949" stroke-width="0.5" stroke-miterlimit="10" d="M469.718,322.686
		c0-2.416-1.959-4.375-4.375-4.375h-28.52c8.93,0,14.578,2.369,14.578,11.117c0,3.105,0,5.84,0,8.293h18.311v-15.035H469.718z"/>
	<path id="k602-k603" fill="#939598" stroke="#494949" stroke-width="0.5" stroke-miterlimit="10" d="M272.436,327.061
		c0-2.418-1.958-4.375-4.374-4.375h-46.108c-2.416,0-4.374,1.957-4.374,4.375v11.08h54.856V327.061z"/>
	<path id="k604-k605" fill="#939598" stroke="#494949" stroke-width="0.5" stroke-miterlimit="10" d="M217.58,338.141v11.881
		c0,2.414,1.958,4.373,4.374,4.373h46.108c2.416,0,4.374-1.959,4.374-4.373v-11.881H217.58z"/>
	
		<rect id="THE-WAFFLE" x="166.369" y="313.391" fill="#939598" stroke="#494949" stroke-width="0.5" stroke-miterlimit="10" width="29.888" height="10.205"/>
	<path id="k611" fill="#939598" stroke="#494949" stroke-width="0.5" stroke-miterlimit="10" d="M619.151,330.945v22.915h9.935
		c0,0,4.693-0.001,4.693-3.294c0-3.294,0-16.327,0-16.327s0.065-3.294-3.659-3.294C626.394,330.945,619.151,330.945,619.151,330.945
		z"/>
	
		<rect id="NAIHUAPLUS" x="166.369" y="343.098" fill="#939598" stroke="#494949" stroke-width="0.5" stroke-miterlimit="10" width="29.888" height="12.025"/>
</g>
<g id="Signs">
	<rect x="384.196" y="176.079" opacity="0.8" enable-background="new    " width="14.811" height="14.812"/>
	<rect id="parking" x="340.862" y="176.079" opacity="0.8" enable-background="new    " width="14.811" height="14.812"/>
	<g id="escalator">
		<rect x="173.452" y="325.715" opacity="0.8" enable-background="new    " width="14.811" height="14.812"/>
		<rect x="379.243" y="331.135" opacity="0.8" enable-background="new    " width="14.811" height="14.812"/>
		<rect x="593.736" y="333.121" opacity="0.8" enable-background="new    " width="14.811" height="14.812"/>
	</g>
	<rect id="telephone" x="586.666" y="254.12" opacity="0.8" enable-background="new    " width="14.811" height="14.812"/>
	<rect id="atm" x="586.666" y="278.495" opacity="0.8" enable-background="new    " width="14.811" height="14.812"/>
	<g id="toilet">
		<rect x="234.594" y="396.406" opacity="0.8" enable-background="new    " width="14.811" height="14.812"/>
		<rect x="627.636" y="242.495" opacity="0.8" enable-background="new    " width="14.811" height="14.812"/>
	</g>
	<rect id="baby-change-room" x="650.261" y="241.833" opacity="0.8" enable-background="new    " width="14.811" height="14.812"/>
	<g id="handicapped-toilet">
		<rect x="257.164" y="396.406" opacity="0.8" enable-background="new    " width="14.811" height="14.812"/>
		<rect x="671.886" y="241.833" opacity="0.8" enable-background="new    " width="14.811" height="14.812"/>
	</g>
	<g id="lift">
		<rect x="277.084" y="249.239" opacity="0.8" enable-background="new    " width="14.811" height="14.811"/>
		<rect x="563.916" y="258.204" opacity="0.8" enable-background="new    " width="14.811" height="14.812"/>
		<rect x="768.22" y="346.627" opacity="0.8" enable-background="new    " width="14.811" height="14.812"/>
	</g>
</g>
</svg>
