<?xml version="1.0" encoding="utf-8"?>
<!-- Generator: Adobe Illustrator 16.0.0, SVG Export Plug-In . SVG Version: 6.00 Build 0)  -->
<!DOCTYPE svg PUBLIC "-//W3C//DTD SVG 1.1//EN" "http://www.w3.org/Graphics/SVG/1.1/DTD/svg11.dtd">
<svg version="1.1" id="Layer_1" xmlns="http://www.w3.org/2000/svg" xmlns:xlink="http://www.w3.org/1999/xlink" x="0px" y="0px"
	 width="841.89px" height="595.281px" viewBox="0 0 841.89 595.281" enable-background="new 0 0 841.89 595.281"
	 xml:space="preserve">
<g id="Background">
	<rect fill="#FFFFFF" width="841.89" height="595.281"/>
</g>
<g id="etc">
	<path fill="#CECECE" stroke="#494949" stroke-width="0.5" stroke-miterlimit="10" d="M687.228,295.165L687.228,295.165v12.09
		h-56.861l-26.242-22.114h-11.422v-28.43h9.234v-19.136h-27.459v17.313h-14.822v32.684h8.264l-8.525,42.794l-3.139,52.702v17.252
		h8.504v11.421h17.254v-11.663h48.357c0,0,3.643,8.992,21.625,20.896l7.654,4.86h1.336v-16.037h18.406v-14.215h-11.48v-9.479
		c18.873,0,77.816,0,77.816,0v-21.319h13.854v10.754h33.838v-80.372L687.228,295.165L687.228,295.165z"/>
	<path fill="#939598" stroke="#494949" stroke-width="0.5" stroke-miterlimit="10" d="M612.988,364.546
		c-11.479,0.228-31.346-1.274-35.9-9.296c-4.557-8.02-4.191-27.701,8.383-28.43c12.574-0.73,24.422,14.94,33.355,20.41
		c8.93,5.469,10.566,6.928,10.566,6.928v6.742C629.392,360.9,631.394,364.18,612.988,364.546z"/>
	<path id="perfect-beauty" fill="#CECECE" stroke="#494949" stroke-width="0.5" stroke-miterlimit="10" d="M232.342,211.149
		c0,0,0,0-13.813,94.796c-13.813,94.799,51.963,106.771,72.86,110.414c20.898,3.646,87.625,8.608,125.387,10.446
		c37.758,1.839,43.495-17.735,65.608-17.735s28.916,11.664,64.152,16.278c35.229,4.615,105.459-4.376,105.459-4.376
		c-17.982-11.902-21.625-20.896-21.625-20.896h-48.357v11.664h-17.254v-11.42h-8.504v-17.252h-22.146v-57.096h25.547l-0.264,4.394
		l8.525-42.793h-8.264v-32.684h14.818v-17.313h27.459v19.136h-9.23v28.43h11.422l26.242,22.114h56.857v-12.089V211.15
		L232.342,211.149L232.342,211.149z"/>
	<path id="r809" fill="#CECECE" stroke="#494949" stroke-width="0.5" stroke-miterlimit="10" d="M604.125,285.141H588.21v18.954
		c0,0,19.076,18.253,37.42,30.277v-31.11L604.125,285.141z"/>
</g>
<g id="Rooms">
	<path id="r801" fill="#939598" stroke="#494949" stroke-width="0.5" stroke-miterlimit="10" d="M630.367,307.255l-4.736-3.994
		v31.111c3.344,2.19,6.664,4.178,9.84,5.81c8.936,4.582,15.906,7.108,22.965,8.5v-41.427H630.367z"/>
	<path id="r802-804" fill="#939598" stroke="#494949" stroke-width="0.5" stroke-miterlimit="10" d="M743.179,295.166h-25.334h-7.4
		h-23.217v12.089h-28.793v41.427c8.355,1.647,16.83,1.709,28.795,1.705v-0.001c1.236,0,2.512,0,3.826,0c9.078,0,18.496,0,26.789,0
		l25.334,0.001V295.166z"/>
	<path id="r808" fill="#939598" stroke="#494949" stroke-width="0.5" stroke-miterlimit="10" d="M630.187,375.537h-64.881v20.047
		h92.219v-10.332C643.23,382.74,630.187,375.537,630.187,375.537z"/>
	<path id="r807-1" fill="#939598" stroke="#494949" stroke-width="0.5" stroke-miterlimit="10" d="M667.912,386.105v9.479h11.48
		v14.215h-18.406v16.037h36.447v-39.729C685.544,386.105,674.376,386.105,667.912,386.105z"/>
	<path id="r807-2" fill="#939598" stroke="#494949" stroke-width="0.5" stroke-miterlimit="10" d="M697.435,386.105v39.729h21.506
		v-39.729C712.097,386.105,704.634,386.105,697.435,386.105z"/>
	<polygon id="r805" fill="#939598" stroke="#494949" stroke-width="0.5" stroke-miterlimit="10" points="759.582,375.537 
		759.582,364.785 745.728,364.785 745.728,386.105 745.728,428.994 772.886,428.994 772.886,425.47 778.109,425.47 782.726,416.968 
		782.726,394.732 793.419,394.732 793.419,375.537 	"/>
	<path id="r806" fill="#939598" stroke="#494949" stroke-width="0.5" stroke-miterlimit="10" d="M718.939,386.105v39.729h26.609
		v3.158h0.182v-42.891C745.728,386.105,733.792,386.105,718.939,386.105z"/>
	<polygon id="r810" fill="#939598" stroke="#494949" stroke-width="0.5" stroke-miterlimit="10" points="559.656,287.572 
		588.21,287.572 588.21,285.141 592.703,285.141 592.703,256.711 601.937,256.711 601.937,237.575 574.478,237.575 574.478,254.888 
		559.656,254.888 	"/>
	<polygon id="r811" fill="#939598" stroke="#494949" stroke-width="0.5" stroke-miterlimit="10" points="559.656,325.973 
		556.255,383.068 534.111,383.068 534.111,325.973 	"/>
</g>
<g id="Signs">
	<g id="escalator">
		<rect id="escalator-2" x="586.343" y="338.846" opacity="0.8" enable-background="new    " width="14.812" height="14.813"/>
		<rect id="escalator-1" x="693.376" y="364.785" opacity="0.8" enable-background="new    " width="14.811" height="14.811"/>
	</g>
	<g id="lift">
		<rect id="lift-2" x="538.025" y="257.496" opacity="0.8" enable-background="new    " width="14.811" height="14.811"/>
		<rect id="lift-1" x="767.343" y="351.596" opacity="0.8" enable-background="new    " width="14.812" height="14.813"/>
	</g>
	<rect id="toilet" x="750.593" y="304.229" opacity="0.8" enable-background="new    " width="14.812" height="14.813"/>
</g>
</svg>
