<?xml version="1.0" encoding="utf-8"?>
<!-- Generator: Adobe Illustrator 16.0.0, SVG Export Plug-In . SVG Version: 6.00 Build 0)  -->
<!DOCTYPE svg PUBLIC "-//W3C//DTD SVG 1.1//EN" "http://www.w3.org/Graphics/SVG/1.1/DTD/svg11.dtd">
<svg version="1.1" id="Layer_1" xmlns="http://www.w3.org/2000/svg" xmlns:xlink="http://www.w3.org/1999/xlink" x="0px" y="0px"
	 width="841.89px" height="595.281px" viewBox="0 0 841.89 595.281" enable-background="new 0 0 841.89 595.281"
	 xml:space="preserve">
<g id="Background">
	<rect fill="#FFFFFF" width="841.89" height="595.281"/>
</g>
<g id="ETC">
	<path fill="#CECECE" stroke="#494949" stroke-miterlimit="10" d="M592.279,237.393v20.047H474.183v-19.865h-92.945v18.954h-35.174
		v12.334h-33.172v-12.881h-12.756v153.086h-66.825v13.123v6.805c0,0,39.608,6.316,71.441,7.291
		c4.231,0.127,8.362-0.049,12.392-0.469v-19.459h-8.745V377.48l23.812-2.914c0,0,112.506,0.482,130,0
		c17.496-0.486,65.855-6.316,65.855-6.316h52.727v22.598l-18.861,0.484v46.797c9.812-0.342,20.865-0.846,31.984-1.537V368.25
		c0,0,21.383-0.975,32.076-1.461c10.688-0.482,22.354-10.447,22.109-30.859c-0.24-20.41-25.27-27.457-36.207-28.43
		c-10.934-0.975-27.699-3.16-27.699-3.16v-35.476h41.553v12.452h43.254v-12.452v-31.47L592.279,237.393L592.279,237.393z"/>
	<path fill="#CECECE" stroke="#494949" stroke-miterlimit="10" d="M344.484,353.423c-4.192-1.303-8.991-1.821-8.508-9.963
		c0.486-8.142,10.327-14.459,10.327-14.459l3.524,4.737l9.232-6.805l5.83,7.653l15.312-12.758c0,0,63.055,0,69.375,0
		c6.314,0,7.412,2.553,7.533,7.653c0.119,5.104,0,16.646,0,21.507s-4.252,7.774-8.869,8.264
		C443.625,359.743,375.709,363.143,344.484,353.423z"/>
	<path fill="#CECECE" stroke="#494949" stroke-miterlimit="10" d="M498.664,335.078c0,7.775-2.064,16.037,8.992,16.037
		s31.953,0.244,37.664,2.43c0,0,14.217-15.066,19.074-15.066c4.859,0,20.412,0,20.412,0v16.162h32.926c0,0,0-16.037,0-21.385
		s-7.047-8.748-13.363-9.721c-6.318-0.975-25.758-1.701-38.639-1.701c-12.879,0-51.395,0-57.225,0S498.664,319.039,498.664,335.078z
		"/>
	<path fill="#CECECE" stroke="#494949" stroke-miterlimit="10" d="M120.667,140.293H50.095c0,0-9.062,64.414-15.685,115.689h278.481
		v12.881h33.171v-12.334h35.175v-18.954h92.946v19.865h118.096v-20.047h76.727v31.47h18.953v-128.57H120.667z"/>
	<path fill="#CECECE" stroke="#494949" stroke-miterlimit="10" d="M481.169,326.207c0-2.414-1.959-4.373-4.375-4.373H449.58
		c6.318,0,7.412,2.551,7.533,7.654c0.051,2.168,0.059,5.504,0.051,8.988h24.006V326.207L481.169,326.207z"/>
	<path id="k302" fill="#CECECE" stroke="#494949" stroke-miterlimit="10" d="M457.164,338.479c-0.012,4.72-0.051,9.724-0.051,12.517
		c0,3.194-1.838,5.549-4.408,6.928h24.09c2.416,0,4.375-1.959,4.375-4.375V338.48L457.164,338.479L457.164,338.479z"/>
	<path fill="#CECECE" stroke="#494949" stroke-miterlimit="10" d="M444.599,268.863v36.933c6.205,0,12.428,0,18.588,0v-36.933
		H444.599z"/>
	<path fill="#CECECE" stroke="#494949" stroke-miterlimit="10" d="M413.616,268.863v36.933c7.525,0,15.27,0,23.084,0v-36.933
		H413.616z"/>
</g>
<g id="Rooms">
	<path id="r326" fill="#939598" stroke="#494949" stroke-miterlimit="10" d="M300.138,409.068V255.982H34.41
		c-2.768,21.439-5.11,40.583-6.185,51.758c-3.645,37.906,6.318,61.965,47.871,90.396c3.63,2.482,7.616,4.714,11.868,6.724
		c44.422,20.978,117.892,17.335,117.892,17.335h27.458v-13.126H300.138L300.138,409.068z"/>
	<path id="r327" fill="#939598" stroke="#494949" stroke-miterlimit="10" d="M799.978,293.768h-19.682h-73.992l-18.348,0.121
		v-25.026h-18.951v12.452H625.75v29.328c10.777,3.851,22.193,11.534,22.357,25.287c0.242,20.411-11.422,30.375-22.113,30.858
		c-0.08,0.004-0.162,0.01-0.244,0.014v67.174c7.486-0.807,14.371-1.734,20.172-2.793c18.42-3.361,33.939-2.682,46.762-2.344
		c15.309,0.758,33.227,4.234,45.574,3.801c13.855-0.484,74.115,0,74.115,0V293.768H799.978z"/>
	<path id="r312" fill="#939598" stroke="#494949" stroke-miterlimit="10" d="M593.919,368.25v68.342
		c10.924-0.68,21.906-1.543,31.832-2.615v-67.174C614.984,367.291,593.919,368.25,593.919,368.25z"/>
	<path id="r311" fill="#939598" stroke="#494949" stroke-miterlimit="10" d="M625.751,268.863h-41.553v35.476
		c0,0,16.768,2.188,27.701,3.16c3.564,0.317,8.635,1.28,13.852,3.144v-29.328V268.863z"/>
	<path id="r303" fill="#939598" stroke="#494949" stroke-miterlimit="10" d="M346.062,256.529v12.334v36.934
		c5.135,0,11.562,0,18.954,0v-49.268H346.062L346.062,256.529z"/>
	<path id="r304" fill="#939598" stroke="#494949" stroke-miterlimit="10" d="M381.237,268.863v-12.334h-16.223v49.268
		c9.221,0,19.941,0,31.538,0v-36.934H381.237L381.237,268.863z"/>
	<path id="r302" fill="#939598" stroke="#494949" stroke-miterlimit="10" d="M332.698,268.863v36.933l0,0c0,0,4.937,0,13.364,0
		v-36.933H332.698z"/>
	<polygon id="r301" fill="#939598" stroke="#494949" stroke-miterlimit="10" points="312.895,268.863 312.895,303.975 
		332.698,305.796 332.698,268.863 	"/>
	<path id="r308-2" fill="#939598" stroke="#494949" stroke-miterlimit="10" d="M479.226,257.44v48.356c5.209,0,10.328,0,15.309,0
		V257.44H479.226z"/>
	<path id="r309-2" fill="#939598" stroke="#494949" stroke-miterlimit="10" d="M511.056,257.44v48.356c5.945,0,11.568,0,16.77,0
		V257.44H511.056z"/>
	<path id="r310" fill="#939598" stroke="#494949" stroke-miterlimit="10" d="M560.021,287.45v-30.01h-32.195v48.356
		c20.492,0,34.395,0,35.477,0c4.496,0,6.688-4.858,6.688-8.991c0-4.13,0-9.354,0-9.354L560.021,287.45L560.021,287.45z"/>
	<path id="r309-1" fill="#939598" stroke="#494949" stroke-miterlimit="10" d="M494.535,257.44v48.356c5.713,0,11.244,0,16.521,0
		V257.44H494.535z"/>
	<path id="r308-1" fill="#939598" stroke="#494949" stroke-miterlimit="10" d="M474.183,257.44l-0.061,4.859h-10.939v6.563v36.933
		c5.406,0,10.771,0,16.037,0V257.44H474.183z"/>
	<path id="r320" fill="#939598" stroke="#494949" stroke-miterlimit="10" d="M413.616,374.779v33.664
		c4.807,0.404,10.209,1.348,16.278,3.061v-36.727C424.744,374.785,419.259,374.785,413.616,374.779z"/>
	<path id="r321" fill="#939598" stroke="#494949" stroke-miterlimit="10" d="M397.285,374.759v34.392
		c4.479-0.825,9.866-1.25,16.332-0.707v-33.661C408.263,374.775,402.77,374.77,397.285,374.759z"/>
	<path id="r322-323-324-2" fill="#939598" stroke="#494949" stroke-miterlimit="10" d="M381.784,374.727
		c-5.839-0.013-11.494-0.026-16.769-0.043c-6.232-0.021-11.933-0.037-16.769-0.058v53.426c5.937-2.227,11.534-4.66,16.769-6.98
		c6.092-2.703,11.69-5.255,16.769-7.142c0.332-0.123,0.662-0.229,0.991-0.326c3.197-1.114,7.85-3.226,14.51-4.453v-34.392
		C392.065,374.751,386.855,374.742,381.784,374.727z"/>
	<path id="r325" fill="#939598" stroke="#494949" stroke-miterlimit="10" d="M332.213,374.566L308.4,377.48v38.879h8.748v19.459
		c5.368-0.561,10.555-1.551,15.551-2.82v-58.43C332.379,374.566,332.213,374.566,332.213,374.566z"/>
	<path id="r324-1" fill="#939598" stroke="#494949" stroke-miterlimit="10" d="M332.698,374.568v58.43
		c5.413-1.381,10.6-3.088,15.551-4.945v-53.426C340.055,374.6,334.34,374.574,332.698,374.568z"/>
	<path id="r315" fill="#939598" stroke="#494949" stroke-miterlimit="10" d="M528.07,368.25c0,0-0.09,0.01-0.246,0.027v70.4
		c2.172,0.027,4.297,0.035,6.396,0.035c2.76,0,6.277-0.035,10.369-0.113v-70.354h-16.52V368.25L528.07,368.25z"/>
	<path id="r314" fill="#939598" stroke="#494949" stroke-miterlimit="10" d="M544.589,368.25v70.354
		c5.025-0.097,10.918-0.25,17.346-0.476v-46.797V368.25H544.589z"/>
	<polygon id="r313" fill="#939598" stroke="#494949" stroke-miterlimit="10" points="561.935,368.25 561.935,391.332 
		580.796,390.846 580.796,368.25 	"/>
	<path id="r316" fill="#939598" stroke="#494949" stroke-miterlimit="10" d="M494.535,371.973v62.983
		c13.041,2.941,23.615,3.584,33.289,3.723v-70.401C525.759,368.523,510.478,370.348,494.535,371.973z"/>
	<path id="r319" fill="#939598" stroke="#494949" stroke-miterlimit="10" d="M429.896,374.777v36.727
		c5.035,1.424,10.529,3.375,16.523,5.996v-42.766C441.566,374.757,435.962,374.77,429.896,374.777z"/>
	<path id="r318" fill="#939598" stroke="#494949" stroke-miterlimit="10" d="M462.216,374.566c-2.93,0.08-8.52,0.135-15.797,0.168
		V417.5c1.117,0.488,2.25,0.998,3.402,1.531c4.686,2.178,9.133,4.109,13.361,5.836v-50.332
		C462.855,374.546,462.529,374.559,462.216,374.566z"/>
	<path id="r317" fill="#939598" stroke="#494949" stroke-miterlimit="10" d="M463.187,374.535v50.332
		c11.994,4.881,22.27,8.043,31.348,10.09v-62.982C482.753,373.171,470.617,374.264,463.187,374.535z"/>
</g>
<g id="Signs">
	
		<rect id="call-point-service" x="390.275" y="180.746" opacity="0.8" enable-background="new    " width="14.811" height="14.811"/>
	<rect id="parking" x="348.135" y="180.745" opacity="0.8" enable-background="new    " width="14.813" height="14.811"/>
	<g id="escalator">
		<rect id="escalator-3" x="177.594" y="327.93" opacity="0.8" enable-background="new    " width="14.811" height="14.813"/>
		<rect id="escalator-2" x="365.996" y="335.333" opacity="0.8" enable-background="new    " width="14.811" height="14.812"/>
		<rect id="escalator-1" x="593.919" y="335.333" opacity="0.8" enable-background="new    " width="14.811" height="14.812"/>
	</g>
	<rect id="telephone" x="604.976" y="252.006" opacity="0.8" enable-background="new    " width="14.811" height="14.811"/>
	<rect id="atm" x="580.308" y="265.506" opacity="0.8" enable-background="new    " width="14.812" height="14.811"/>
	<g id="elevator">
		<rect id="elevator-2" x="273.469" y="259.412" opacity="0.8" enable-background="new    " width="14.811" height="14.811"/>
		<rect id="elevator-1" x="559.642" y="265.505" opacity="0.8" enable-background="new    " width="14.812" height="14.811"/>
	</g>
	<g id="toilet">
		<rect id="toilet-2" x="257.56" y="413.664" opacity="0.8" enable-background="new    " width="14.811" height="14.811"/>
		<rect id="toilet-1" x="625.751" y="247.339" opacity="0.8" enable-background="new    " width="14.811" height="14.811"/>
	</g>
	<rect id="baby-change-room" x="647.001" y="247.338" opacity="0.8" enable-background="new    " width="14.811" height="14.811"/>
	<g id="handicapped-toilet">
		<rect x="278.226" y="413.664" opacity="0.8" enable-background="new    " width="14.811" height="14.811"/>
		<rect x="668.251" y="247.337" opacity="0.8" enable-background="new    " width="14.811" height="14.811"/>
	</g>
</g>
<path fill="#CECECE" stroke="#494949" stroke-miterlimit="10" d="M396.556,268.863v36.933c5.516,0,11.224,0,17.063,0v-36.933
	H396.556z"/>
</svg>
