<?xml version="1.0" encoding="utf-8"?>
<!-- Generator: Adobe Illustrator 16.0.0, SVG Export Plug-In . SVG Version: 6.00 Build 0)  -->
<!DOCTYPE svg PUBLIC "-//W3C//DTD SVG 1.1//EN" "http://www.w3.org/Graphics/SVG/1.1/DTD/svg11.dtd">
<svg version="1.1"
	 id="Layer_1" inkscape:version="0.91 r13725" sodipodi:docname="Central_rama9_F1_nooriginal.svg" xmlns:inkscape="http://www.inkscape.org/namespaces/inkscape" xmlns:sodipodi="http://sodipodi.sourceforge.net/DTD/sodipodi-0.dtd" xmlns:svg="http://www.w3.org/2000/svg" xmlns:cc="http://creativecommons.org/ns#" xmlns:dc="http://purl.org/dc/elements/1.1/" xmlns:rdf="http://www.w3.org/1999/02/22-rdf-syntax-ns#"
	 xmlns="http://www.w3.org/2000/svg" xmlns:xlink="http://www.w3.org/1999/xlink" x="0px" y="0px" width="1000px" height="1000px"
	 viewBox="0 0 1000 1000" enable-background="new 0 0 1000 1000" xml:space="preserve">
<sodipodi:namedview  inkscape:window-height="480" inkscape:window-x="0" inkscape:window-y="46" inkscape:current-layer="Layer_1" inkscape:window-width="673" inkscape:pageshadow="2" inkscape:pageopacity="0" inkscape:window-maximized="0" pagecolor="#ffffff" objecttolerance="10" inkscape:cx="154.66102" inkscape:zoom="0.236" inkscape:cy="500" gridtolerance="10" showgrid="false" guidetolerance="10" borderopacity="1" id="namedview111" bordercolor="#666666">
	</sodipodi:namedview>
<g id="BG">
	<rect id="rect7" y="195.861" fill="#FFFFFF" width="1000" height="608.277"/>
</g>
<g id="etc">
	<path id="path10" fill="#999999" d="M651.301,578.691c0,1.108,37.466,0,37.466,0v21.116h32.235v-20.27h11.965l-1.961-13.927
		c0,0-1.504-6.996-11.966-7.192s-39.035-4.381-39.035-4.381s-13.858-0.853-22.229,5.229
		C652.413,563.26,651.17,572.545,651.301,578.691z"/>
	<path id="path12" fill="#999999" d="M388.453,566.922c0,0-1.962-11.439,13.077-12.881c15.038-1.504,48.712-1.831,48.712-1.831
		l20.923,17.327l7.847-8.631l11.899,9.938l4.12-5.885l6.865,5.885l-4.577,23.212c0,0-3.923,7.849-11.771,9.48
		c-7.846,1.635-68.979,1.635-68.979,1.635h-12.75c0,0-14.581,0-15.434-15.365C387.537,574.441,388.453,566.922,388.453,566.922z"/>
	<path id="path14" fill="#999999" d="M967.569,648.392c0,0,12.227,9.415,12.618,14.646V539.656c0,0,0.851-4.381-3.925-4.773
		c-4.771-0.458-10.92,0-10.92,0s-3.069,1.311-3.069,4.773s0,7.189,0,7.189H930.43v-9.808c0,0,0.522-4.773-4.381-4.773
		c-6.996,0-44.92,0-49.689,0c-4.773,0-5.689,4.773-5.689,4.773h44.92v24.389h51.854v86.962L967.569,648.392L967.569,648.392z"/>
	<path id="path16" fill="#999999" d="M490.911,491.794v-2.812h25.305v-12.946h16.869v-27.331h-18.438v-37.4h45.966h45.05v37.4
		h41.716v-1.373H793.19l-1.507,62.705l29.62,26.35h39.034c0,0,0.196-5.358-9.611-6.081c-9.808-0.719-36.612-0.192-45.112-22.034
		c-8.5-21.839-1.311-68.651-1.962-70.42c-0.654-1.766,1.962-17.458,1.962-17.458l-1.962-81.078h-746.7l-3.989,29.227h65.582v46.097
		h4.904c0,0,14.711,26.481,41.192,25.5c26.481-0.979,132.405,0,132.405,0v30.404h16.673v18.896h11.704l0,0H358.9v-76.828h26.021
		h41.324v56.885h24.388h28.771v22.296L490.911,491.794L490.911,491.794z"/>
	<g id="g18">
		<rect id="rect20" x="126.52" y="678.927" fill="#666666" width="35.112" height="1.438"/>
		<path id="path22" fill="#666666" d="M177.717,702.007c-0.523,0-49.3,0.196-55.643,0c-4.315-0.13-6.539-2.419-7.454-3.792h56.427
			v-1.438h-54.073c-2.223-0.722-4.25-1.504-3.335-1.962c1.438-0.722,5.166,0,6.997-0.853h45.377v-1.438h-44.135
			c1.242-1.7,4.708-2.877,4.904-6.276h34.916v-1.438h-34.981c0-0.395-0.065-0.853-0.065-1.311h35.046v-1.438h-35.112
			c-0.13-4.839,0.196-11.184,0.196-11.184h32.235v-2.223H123.97c0,0,1.111,11.05,0,16.673c-1.112,5.623-7.715,5.296-14.646,6.931
			c-5.427,1.242-12.096,1.569-21.773-0.85c-9.743-2.419-28.181-7.062-42.762-18.7l0,0c0.392,0.264-1.7,3.009,2.223,6.476
			c3.923,3.466,18.308,12.228,26.612,12.618c8.304,0.456,13.535,2.156,15.235,2.614c1.7,0.457,1.766,3.073,3.923,3.465
			c2.158,0.459,2.158-0.456,5.231,0c1.7,0.265,8.565,0.265,14.45,0.196c0.719,1.962,3.792,5.623,9.612,5.819
			c2.158,0.062,9.088,0.062,17.327,0.062c16.412,0,38.054-0.062,38.381-0.062L177.717,702.007z"/>
	</g>
	<path id="path24" fill="#666666" d="M972.604,674.088c-0.131-1.373-0.193-2.681-0.193-3.854c0-9.023-13.272-11.442-14.975-11.442
		l0,0c-0.327,0-2.225-0.327-4.25-0.654c-21.644-3.335-24.455-3.27-25.437-2.223c0,0-0.392,0.719,0,1.438
		c0.327,0.522,0.916,0.784,1.504,0.653c1.962-0.588,17.654,1.831,23.539,2.746c3.53,0.521,4.315,0.654,4.644,0.654l0,0
		c0.325,0,3.598,0.458,6.802,1.896c3.727,1.768,5.623,4.055,5.623,6.934c0,1.239,0.062,2.55,0.193,3.854h-86.831l-3.597-7.127
		l30.077-23.539l9.154,5.885c0,0,52.308,1.504,52.308,0s0-5.885,0-5.885h-54.073l-6.408-4.119l-33.409,26.481
		c1.372,2.681,2.286,4.381,2.286,4.381s-11.77,9.153-21.574,11.115c-3.988,0.781-17.784,1.239-32.692,1.635
		c-21.708,0.521-46.162,0.85-46.162,1.635c0-0.196,0-3.139,0-7.781l-42.762,5.888l-36.942,5.165v3.466l-50.478-19.027v15.562
		c0,0-22.561,1.309-45.312,1.635c-17.062,0.262-34.393,0.062-42.501-1.635c-18.961-3.923-48.385-17.653-48.385-17.653v10.331
		c-6.8-4.446-23.016-14.45-35.962-18.769v1.963c0,0-6.865-2.614-15.823-4.445c-8.369-0.395-15.689-4.772-33.869,1.373
		c-16.804,5.688-39.297,13.271-43.151,16.085l-0.654,13.077c0,0-19.419,14.385-55.839,13.143c0,0-140.185-4.708-151.039-4.904
		c0,0-3.465,6.803,1.765,7.65c5.231,0.85,83.235,11.312,83.235,11.312s18.308,0.85,28.77,0c10.459-0.853,23.015-2.615,23.473-3.073
		s6.604-0.458,6.146-2.615s0-3.661,0-3.661h7.584c0,0-1.503,4.513,2.42,4.969c3.924,0.459,30.535-0.85,30.535-0.85
		s10.657,0.85,17.98-5.688c7.32-6.539,53.939-42.438,53.939-42.438s26.612-5.36,40.081,0c10.789,4.315,32.17,13.862,40.343,17.523
		v3.727h-25.042c0,0-5.688,1.178-10.92-4.511c-5.229-5.689-5.229-8.696-5.229-8.696H437.82l-32.17,26.546H455.8h0.131h56.754h0.523
		c0.719,2.027,2.288,4.708,5.819,4.773c5.688,0.062,168.232,0,168.232,0s4.971-1.242,4.904-4.708
		c-0.065-2.093,3.923-2.746,7.192-3.008v3.008c0,0,2.285,5.165,7.52,4.771c5.23-0.393,157.773-5.622,157.773-5.622
		s4.839-5.166,8.694-9.283H964.1c2.812,0,4.971-0.784,6.406-2.354C973.258,683.046,972.931,678.534,972.604,674.088z
		 M512.685,697.169h-55.512l2.484-2.158h53.024L512.685,697.169L512.685,697.169z M512.685,693.899H460.9l1.766-1.507h50.085v1.507
		H512.685z M512.685,691.284h-48.843l1.831-1.635h46.946v1.635H512.685z M512.685,688.538H466.98l2.223-1.962h43.479
		L512.685,688.538L512.685,688.538z M970.054,675.396c0.065,0.782,0.132,1.566,0.132,2.285h-89.514
		c0.327-0.85,0.654-1.634,0.854-2.285H970.054z M970.186,678.927c0,0.784-0.063,1.569-0.194,2.288h-90.888
		c0.326-0.719,0.722-1.504,1.049-2.288H970.186z M964.169,685.596h-88.335c0.915-0.979,1.569-1.766,1.961-2.158
		c0.196-0.261,0.393-0.588,0.654-0.979h91.212c-0.196,0.654-0.522,1.177-0.915,1.635
		C967.766,685.138,966.326,685.596,964.169,685.596z"/>
	
		<text id="text26" transform="matrix(1.1214 0 0 1 847.293 490.7852)" fill="#666666" font-family="'MyriadPro-Regular'" font-size="186.9363">1</text>
	
		<text id="text28" transform="matrix(1 0 0 1 861.2676 352.3203)" fill="#CCCCCC" font-family="'MyriadPro-Regular'" font-size="32.0195">LEVEL</text>
</g>
<g id="rooms">
	<path id="r127" fill="#CCCCCC" stroke="#FFFFFF" stroke-width="2.6471" stroke-miterlimit="10" d="M52.831,368.543h65.712v46.097
		h4.904c0,0,14.711,26.481,41.192,25.5c26.481-0.979,132.405,0,132.405,0v30.404h16.673v201.06h13.73v31.388
		c0,0-140.185-4.708-151.039-4.904s-14.712-13.729-14.712-13.729v-15.692H123.97c0,0,1.111,11.05,0,16.673
		c-1.112,5.623-7.715,5.296-14.646,6.931c-5.427,1.242-12.096,1.569-21.773-0.85c-13.6-3.4-44.266-11.115-57.539-36.158
		c-10.658-20.139-8.696-48.843-8.696-48.843l0,0L52.831,368.543z"/>
	<path id="r124" fill="#CCCCCC" stroke="#FFFFFF" stroke-width="2.6471" stroke-miterlimit="10" d="M383.3,624.461h-0.078h-69.505
		v47.143h13.73v31.388c36.42,1.242,55.839-13.146,55.839-13.146l0.653-13.077c0.229-0.163,0.525-0.348,0.882-0.549H383.3V624.461z"
		/>
	<path id="r123" fill="#CCCCCC" stroke="#FFFFFF" stroke-width="2.6471" stroke-miterlimit="10" d="M427.096,624.461H383.3v51.759
		h1.522c5.603-3.188,26.221-10.923,42.271-15.536L427.096,624.461L427.096,624.461z"/>
	<path id="r125" fill="#CCCCCC" stroke="#FFFFFF" stroke-width="2.6471" stroke-miterlimit="10" d="M427.03,624.461v36.223
		c3.073-0.85,5.95-1.635,8.5-2.223c4.119-0.915,8.562-1.111,13.077-0.85v-33.15H427.03z"/>
	<path id="k101" fill="#CCCCCC" stroke="#FFFFFF" stroke-width="2.6471" stroke-miterlimit="10" d="M476.723,624.461H448.61v33.15
		c14.188,0.85,28.112,6.146,28.112,6.146V624.461z"/>
	<path id="r122" fill="#CCCCCC" stroke="#FFFFFF" stroke-width="2.6471" stroke-miterlimit="10" d="M523.8,637.537
		c-11.115,5.229-11.115,13.729-11.115,13.729s0,15.038,0,18.965c0,0,29.427,13.729,48.388,17.65V624.85
		C544.593,629.757,529.162,635.053,523.8,637.537z"/>
	<path id="r121" fill="#CCCCCC" stroke="#FFFFFF" stroke-width="2.6471" stroke-miterlimit="10" d="M561.069,624.854v63.03
		c8.105,1.7,25.436,1.896,42.501,1.636v-75.062C593.37,615.896,576.697,620.211,561.069,624.854z"/>
	<g id="r119-120">
		<path id="r120" fill="#CCCCCC" stroke="#FFFFFF" stroke-width="2.6471" stroke-miterlimit="10" d="M607.493,613.999
			c-1.177,0.065-2.484,0.262-3.923,0.458v75.062c22.754-0.395,45.312-1.638,45.312-1.638v-73.885L607.493,613.999L607.493,613.999z"
			/>
		
			<rect id="r119" x="648.882" y="613.999" fill="#CCCCCC" stroke="#FFFFFF" stroke-width="2.6471" stroke-miterlimit="10" width="27.269" height="34.654"/>
	</g>
	<polygon id="r117" fill="#CCCCCC" stroke="#FFFFFF" stroke-width="2.6471" stroke-miterlimit="10" points="736.302,613.999 
		736.302,682.719 779.062,676.834 779.062,613.999 	"/>
	<path id="r116" fill="#CCCCCC" stroke="#FFFFFF" stroke-width="2.6471" stroke-miterlimit="10" d="M779.062,613.999
		L779.062,613.999c0,0,0,69.635,0,70.616c0-0.785,24.452-1.112,46.16-1.635V620.93L779.062,613.999z"/>
	<path id="r115" fill="#CCCCCC" stroke="#FFFFFF" stroke-width="2.6471" stroke-miterlimit="10" d="M879.495,670.23
		c0,0-13.077-24.85-17.654-35.312c-4.576-10.461-13.077-10.461-13.077-10.461l-23.538-3.531v62.054
		c14.908-0.396,28.704-0.854,32.692-1.638C867.727,679.384,879.495,670.23,879.495,670.23z"/>
	<polygon id="r118" fill="#CCCCCC" stroke="#FFFFFF" stroke-width="2.6471" stroke-miterlimit="10" points="690.532,613.999 
		690.532,641.788 699.359,641.788 699.359,687.884 736.302,682.719 736.302,613.999 	"/>
	
		<rect id="k103" x="873.414" y="537.041" fill="#CCCCCC" stroke="#FFFFFF" stroke-width="2.6471" stroke-miterlimit="10" width="19.616" height="19.615"/>
	
		<rect id="k102" x="893.03" y="537.041" fill="#CCCCCC" stroke="#FFFFFF" stroke-width="2.6471" stroke-miterlimit="10" width="20.465" height="19.615"/>
	<polygon id="k104" fill="#CCCCCC" stroke="#FFFFFF" stroke-width="2.6471" stroke-miterlimit="10" points="917.026,643.422 
		967.569,643.422 967.569,618.118 917.026,618.118 897.411,630.803 	"/>
	<path id="r110" fill="#CCCCCC" stroke="#FFFFFF" stroke-width="2.6471" stroke-miterlimit="10" d="M737.282,500.033v-14.581
		h-58.911v45.312c3.923,2.812,26.808,7.192,30.271,7.192c3.271,0,22.431,2.093,28.642,2.55L737.282,500.033L737.282,500.033z"/>
	<path id="r111" fill="#CCCCCC" stroke="#FFFFFF" stroke-width="2.6471" stroke-miterlimit="10" d="M737.282,500.033v40.473
		c0.458,0-0.326,0.065,0,0.065c4.25,0.193,18.309,10.135,20.204,11.57v-52.108H737.282L737.282,500.033z"/>
	<path id="r113" fill="#CCCCCC" stroke="#FFFFFF" stroke-width="2.6471" stroke-miterlimit="10" d="M791.683,510.037v-10.004
		h-13.077v68v-68h-21.116v52.108c0.131,0.134,0.262,0.196,0.262,0.196l21.381,16.15c0,0,33.674,16.869,41.781,20.923V536.06
		L791.683,510.037z"/>
	<path id="r114" fill="#CCCCCC" stroke="#FFFFFF" stroke-width="2.6471" stroke-miterlimit="10" d="M821.303,536.387l-0.458-0.393
		v53.354c1.046,0.523,1.636,0.854,1.769,0.854c0.85,0.457,20.923,7.188,22.688,7.388c1.768,0.197,15.038,0,15.038,0v-61.266h-39.034
		L821.303,536.387L821.303,536.387z"/>
	<path id="r108" fill="#CCCCCC" stroke="#FFFFFF" stroke-width="2.6471" stroke-miterlimit="10" d="M605.662,448.705v-37.4h-45.05
		v98.601c22.816,2.877,45.05,6.015,45.05,6.015v0.262V448.705L605.662,448.705z"/>
	<polygon id="r109" fill="#CCCCCC" stroke="#FFFFFF" stroke-width="2.6471" stroke-miterlimit="10" points="661.566,485.387 
		647.64,485.387 647.64,448.705 605.662,448.705 605.662,516.183 661.566,528.541 	"/>
	<g id="r106-107">
		<path id="r107" fill="#CCCCCC" stroke="#FFFFFF" stroke-width="2.6471" stroke-miterlimit="10" d="M514.646,411.305v37.4h18.438
			v27.331h-16.869v12.946l0,0v15.758c2.026,0.062-1.7,0.193,0,0.262c4.381,0.196,25.438,2.484,44.462,4.904v-98.601H514.646z"/>
		<path id="r106" fill="#CCCCCC" stroke="#FFFFFF" stroke-width="2.6471" stroke-miterlimit="10" d="M490.911,488.982v14.905
			c0,0,15.562,0.457,25.305,0.853v-15.758H490.911L490.911,488.982z"/>
	</g>
	<path id="r126" fill="#CCCCCC" stroke="#FFFFFF" stroke-width="2.6471" stroke-miterlimit="10" d="M860.338,597.652
		c0,0,4.772,0.458,9.611,0c4.771-0.457,4.771-4.381,4.771-4.381v-25.307h-14.385L860.338,597.652L860.338,597.652z"/>
	
		<rect id="jw106" x="355.434" y="591.768" fill="#CCCCCC" stroke="#FFFFFF" stroke-width="2.6471" stroke-miterlimit="10" width="22.888" height="13.404"/>
	
		<rect id="jw105" x="355.434" y="568.557" fill="#CCCCCC" stroke="#FFFFFF" stroke-width="2.6471" stroke-miterlimit="10" width="20.599" height="13.403"/>
	<path id="jw104" fill="#CCCCCC" stroke="#FFFFFF" stroke-width="2.6471" stroke-miterlimit="10" d="M355.695,560.252
		c0.262,0.393,0.588,0.785,1.046,1.047c1.7,1.046,18.831,0.915,19.288-0.851c2.158-7.849-3.072-17.196-11.441-19.684
		c-4.316-1.239-6.474,3.271-7.716,6.539C355.695,550.706,353.406,556.787,355.695,560.252z"/>
	<path id="jw103" fill="#CCCCCC" stroke="#FFFFFF" stroke-width="2.6471" stroke-miterlimit="10" d="M385.511,545.606
		c-2.288-0.981-4.312-2.158-4.901-2.616c-5.103-3.988-10.268-9.811-3.011-14.711c4.577-3.073,15.171-5.035,15.171,3.334
		c0,4.381,1.83,10.135-0.263,14.254C391.265,548.287,387.211,546.325,385.511,545.606z"/>
	<path id="jw102" fill="#CCCCCC" stroke="#FFFFFF" stroke-width="2.6471" stroke-miterlimit="10" d="M417.223,535.799
		c-0.589-6.343,1.373-14.774-7.978-13.339c-10.919,1.7-10.657,23.996,1.438,19.942C413.169,541.553,417.549,538.938,417.223,535.799
		z"/>
	<path id="jw101" fill="#CCCCCC" stroke="#FFFFFF" stroke-width="2.6471" stroke-miterlimit="10" d="M441.35,521.218
		c-1.108-1.962-2.812-3.27-5.358-3.335c-3.466-0.062-10.396,1.7-11.312,5.754c-0.851,3.729,0.395,8.958,2.684,11.967
		c2.023,2.614,5.1,4.84,8.5,4.902c6.538,0.065,6.538-3.008,6.862-4.707C443.441,532.202,443.703,525.337,441.35,521.218z"/>
	<path id="jw107" fill="#CCCCCC" stroke="#FFFFFF" stroke-width="2.6471" stroke-miterlimit="10" d="M453.576,525.468
		c-0.653,1.177-1.111,2.684-1.242,4.645c-0.131,2.289-0.326,5.624,0.98,7.778c2.224,3.729,5.817,2.096,9.416,2.615
		c7.52,1.111,11.897-6.473,9.282-13.143C468.484,518.732,458.153,517.425,453.576,525.468z"/>
	<path id="r105" fill="#CCCCCC" stroke="#FFFFFF" stroke-width="2.6471" stroke-miterlimit="10" d="M450.568,469.498v32.3
		c10.135-0.196,19.878,0.065,28.77,1.047v-33.347H450.568z"/>
	<g id="r101-103">
		<path id="r101" fill="#CCCCCC" stroke="#FFFFFF" stroke-width="2.6471" stroke-miterlimit="10" d="M325.355,489.44v30.601
			c0,0,17.782-2.551,33.479-5.689V489.44H325.355z"/>
		<path id="r102" fill="#CCCCCC" stroke="#FFFFFF" stroke-width="2.6471" stroke-miterlimit="10" d="M358.834,412.613v76.831l0,0
			v24.908c9.546-1.896,13.469-4.116,26.022-6.077v-95.662H358.834L358.834,412.613z"/>
		<path id="r103" fill="#CCCCCC" stroke="#FFFFFF" stroke-width="2.6471" stroke-miterlimit="10" d="M426.18,469.498v-56.885h-41.32
			v95.724c14.122-2.224,26.089-4.25,41.32-5.428V469.498L426.18,469.498z"/>
	</g>
	<path id="r104" fill="#CCCCCC" stroke="#FFFFFF" stroke-width="2.6471" stroke-miterlimit="10" d="M450.568,469.498H426.18v33.347
		c7.062-0.589,17.589-0.916,24.392-1.109L450.568,469.498L450.568,469.498z"/>
</g>
<g id="signs">
	<g id="escalator">
		<rect id="escalator_2_" x="131.163" y="557.571" width="29.423" height="29.424"/>
		<rect id="escalator_1_" x="443.703" y="564.633" width="29.424" height="29.424"/>
		<rect id="rect3443" x="674.186" y="572.283" width="29.427" height="29.424"/>
	</g>
	<g id="toilet">
		<rect id="toilet_1_" x="736.629" y="455.897" width="29.423" height="29.424"/>
	</g>
	<g id="baby-change-room">
		<rect id="bady_change" x="703.938" y="448.248" width="29.425" height="29.423"/>
	</g>
	<g id="handicapped-toilet">
		<rect id="handicap_1_" x="769.321" y="455.897" width="29.423" height="29.424"/>
	</g>
	<g id="telephone">
		<rect id="public_phone_1_" x="671.244" y="448.248" width="29.423" height="29.423"/>
	</g>
	<g id="smoking">
		<rect id="smoke_area" x="820.321" y="498.137" width="29.424" height="29.423"/>
	</g>
	<g id="elevator">
		<rect id="elevator_3_" x="266.575" y="467.274" width="29.423" height="29.424"/>
		<rect id="elevator_2_" x="647.051" y="478.456" width="29.424" height="29.423"/>
		<rect id="elevator_1_" x="928.992" y="586.995" width="29.423" height="29.423"/>
	</g>
	<g id="parking">
		<rect id="rect3445" x="413.757" y="360.305" width="29.424" height="29.423"/>
	</g>
	<g id="call-point-service">
		<rect id="call_point_service_3_" x="466.262" y="360.305" width="29.423" height="29.423"/>
	</g>
	<g id="information">
		<rect id="infomation_1_" x="751.34" y="579.345" width="29.424" height="29.424"/>
	</g>
	<g id="baby-stroller">
		<rect id="wheelchair_1_" x="784.033" y="579.345" width="29.423" height="29.424"/>
	</g>
	<g id="first-aid">
		<rect id="infirmary_1_" x="457.107" y="437.917" width="29.423" height="29.423"/>
	</g>
	<g id="taxi">
		<rect id="taxi_1_" x="872.695" y="707.892" width="29.423" height="29.427"/>
	</g>
	<g id="bus-stop">
		<rect id="bus_1_" x="911.665" y="707.892" width="29.423" height="29.427"/>
	</g>
	<g id="mrt">
		<rect id="MRT_1_" x="949.457" y="707.892" width="29.424" height="29.427"/>
	</g>
	<g id="entrance">
		<rect id="entrance_2_" x="476.396" y="688.276" width="29.423" height="29.423"/>
		<rect id="entrance_3_" x="906.63" y="658.854" width="29.424" height="29.426"/>
		<rect id="entrance_4_" x="853.015" y="500.033" width="29.423" height="29.423"/>
		<rect id="entrance_1_" x="129.201" y="688.276" width="29.423" height="29.423"/>
	</g>
</g>
</svg>
