<?xml version="1.0" encoding="utf-8"?>
<!-- Generator: Adobe Illustrator 16.0.0, SVG Export Plug-In . SVG Version: 6.00 Build 0)  -->
<!DOCTYPE svg PUBLIC "-//W3C//DTD SVG 1.1//EN" "http://www.w3.org/Graphics/SVG/1.1/DTD/svg11.dtd">
<svg version="1.1" id="Layer_1" xmlns="http://www.w3.org/2000/svg" xmlns:xlink="http://www.w3.org/1999/xlink" x="0px" y="0px"
	 width="841.89px" height="595.281px" viewBox="0 0 841.89 595.281" enable-background="new 0 0 841.89 595.281"
	 xml:space="preserve">
<g id="Background">
	<rect fill="#FFFFFF" width="841.89" height="595.281"/>
</g>
<g id="ETC">
	<path fill="#CECECE" stroke="#494949" stroke-width="0.5" stroke-miterlimit="10" d="M687.228,268.739v-31.954h-98.654
		c0,0,0,0,0-7.958s-6.805-17.314-12.15-17.314c-5.344,0-15.309,0-15.309,0v-71.22H332.94v15.635h53.396v11.3h10.938v14.397h23.054
		v29.887l-24.695,0.366c0-6.47-3.645-10.935-10.206-10.935c-5.591,0-41.88,0-52.484,0v12.21h47.75c0,0,0,66.885,0,73.628
		c0,6.743-5.473,16.099-14.22,16.099c-5.333,0-13.98,0-19.927,0h-6.499H234.043v77.272c0-13.12,10.691-15.067,14.336-15.067
		s16.524,0,16.524,0h34.02c90.881,9.72,180.303,6.806,180.303,6.806s11.906-2.188,31.834-7.291
		c19.926-5.104,35.232-2.187,45.684-1.213c10.447,0.971,26.484,1.213,26.484,1.213v27.646h-19.684v27.646h29.645V364.6h94.039
		v-54.125h-38.09c0,0-46.291-5.285-51.027-6.197c-4.738-0.907-7.473-3.155-7.473-10.506c0-7.35,0-25.028,0-25.028L687.228,268.739
		L687.228,268.739z"/>
	<path fill="#CECECE" stroke="#494949" stroke-width="0.5" stroke-miterlimit="10" d="M499.757,329.367
		c0.123-6.926,1.094-9.842,9.113-9.842c8.018,0,73.264,0,78.604,0c5.352,0,20.291,2.555,25.029,3.766
		c4.738,1.217,5.832,3.523,5.832,9.355c0,5.83,0,19.562,0,19.562h-32.805v-15.674c0,0-10.205-1.457-13.855,0.123
		c-3.645,1.577-15.309,13.973-15.309,13.973s-14.215-3.889-22.602-3.889c-8.385,0-23.812-0.486-28.062-0.486
		c-4.252,0-5.955-1.942-5.955-5.709C499.757,336.779,499.757,329.367,499.757,329.367z"/>
	<path fill="#CECECE" stroke="#494949" stroke-width="0.5" stroke-miterlimit="10" d="M335.858,337.871
		c0-6.072-1.458-9.598,8.747-12.877l6.071,6.438l13.365-11.543c0,0,82.5,0,86.625,0c4.131,0,5.59-0.119,5.59,4.737
		c0,4.86,0,20.656,0,23.571c0,2.916-1.701,6.683-7.533,6.683c-5.83,0-65.727,1.336-69.736,1.336c-4.01,0-34.748-4.373-39.729-8.262
		C334.278,344.068,335.858,341.639,335.858,337.871z"/>
	<path fill="#CECECE" stroke="#494949" stroke-width="0.5" stroke-miterlimit="10" d="M332.445,368.145v3.496l0,0l0,0h-8v18l0,0l0,0
		h-25.5v5l0,0l0,0h-8.5v27.983l6.685,0.023v8.838c18.271,5.232,32.586,5.146,43.815,2.818v-65.538
		C338.125,368.568,335.292,368.363,332.445,368.145z"/>
	<path fill="#CECECE" stroke="#494949" stroke-width="0.5" stroke-miterlimit="10" d="M464.16,259.384h13.062
		c0-11.625,0-21.991,0-21.991h-81.586v29.767h68.528v-7.776H464.16z"/>
</g>
<g id="Rooms">
	<polygon id="r724" fill="#939598" stroke="#494949" stroke-width="0.5" stroke-miterlimit="10" points="812.373,293.768 
		799.978,293.768 780.296,293.768 731.333,293.768 698.771,293.768 687.228,293.768 687.228,419.884 812.373,419.884 	"/>
	
		<rect id="r713" x="593.191" y="364.6" fill="#939598" stroke="#494949" stroke-width="0.5" stroke-miterlimit="10" width="33.533" height="55.284"/>
	
		<rect id="r712" x="626.724" y="364.6" fill="#939598" stroke="#494949" stroke-width="0.5" stroke-miterlimit="10" width="33.045" height="55.284"/>
	
		<rect id="r711" x="659.769" y="364.6" fill="#939598" stroke="#494949" stroke-width="0.5" stroke-miterlimit="10" width="27.461" height="55.284"/>
	<path id="r717" fill="#939598" stroke="#494949" stroke-width="0.5" stroke-miterlimit="10" d="M430.945,372.225v39.582
		c5.697,1.67,11.971,4.019,18.877,7.228c4.779,2.222,9.312,4.188,13.623,5.938V372.2
		C455.23,372.297,444.142,372.354,430.945,372.225z"/>
	<path id="r716" fill="#939598" stroke="#494949" stroke-width="0.5" stroke-miterlimit="10" d="M479.226,371.893
		c0,0-5.744,0.188-15.781,0.31v52.771c13.184,5.353,24.279,8.614,34,10.611v-67.635
		C485.835,370.677,479.226,371.893,479.226,371.893z"/>
	<path id="r715" fill="#939598" stroke="#494949" stroke-width="0.5" stroke-miterlimit="10" d="M511.06,364.6
		c-5.084,1.303-9.641,2.414-13.615,3.352v67.635c12.684,2.605,23.02,3.048,32.566,3.118v-18.813h0.434V361.77
		C524.564,362.006,518.107,362.795,511.06,364.6z"/>
	<path id="r714" fill="#939598" stroke="#494949" stroke-width="0.5" stroke-miterlimit="10" d="M556.744,363.389
		c-6.754-0.631-15.549-2.06-26.299-1.621v58.116h33.1v-27.643h19.684V364.6C583.228,364.6,567.191,364.359,556.744,363.389z"/>
	<path id="r718" fill="#939598" stroke="#494949" stroke-width="0.5" stroke-miterlimit="10" d="M397.945,371.57v37.465
		c7.935-1.365,18.639-1.439,33,2.771v-39.582C421.02,372.129,409.912,371.932,397.945,371.57z"/>
	<path id="r719-720" fill="#939598" stroke="#494949" stroke-width="0.5" stroke-miterlimit="10" d="M363.945,370.17
		c-7.508-0.396-15.194-0.859-23-1.404v65.542c9.876-2.045,17.35-5.817,23-9.241c2.122-1.286,3.995-2.524,5.629-3.604
		c10.935-7.198,12.21-7.532,12.21-7.532l4.338-1.568c0.733-0.271,1.52-0.562,2.359-0.854l0.005-0.002
		c2.601-0.9,5.724-1.828,9.458-2.471V371.57C387.218,371.249,375.806,370.795,363.945,370.17z"/>
	<path id="r723" fill="#939598" stroke="#494949" stroke-width="0.5" stroke-miterlimit="10" d="M248.379,365.087
		c-3.645,0-14.336,1.945-14.336,15.065c0,8.947,0,29.873,0,42.274l30.402,0.104v-57.448
		C262.136,365.087,251.617,365.087,248.379,365.087z"/>
	<path id="r721-722" fill="#939598" stroke="#494949" stroke-width="0.5" stroke-miterlimit="10" d="M298.923,365.087h-34.02
		c0,0-0.168,0-0.458,0v57.448l26,0.089v-27.983l0,0l0,0h8.5v-5l0,0l0,0h25.5v-18l0,0l0,0h8v-3.496
		C321.404,367.299,310.175,366.291,298.923,365.087z"/>
	<path id="r701" fill="#939598" stroke="#494949" stroke-width="0.5" stroke-miterlimit="10" d="M35.579,246.991
		c-3.267,24.996-6.131,48.03-7.354,60.749c-3.645,37.906,6.318,61.965,47.871,90.396c3.63,2.482,7.616,4.714,11.868,6.724
		c44.422,20.979,117.892,17.479,117.892,17.479l28.188,0.094c0-12.405,0-33.329,0-42.273v-77.271v-55.892H35.579V246.991z"/>
	<path id="r703" fill="#939598" stroke="#494949" stroke-width="0.5" stroke-miterlimit="10" d="M232.342,211.271v-70.978H120.667
		H50.095c0,0-8.047,57.196-14.516,106.698h198.464v55.891h30.374v-91.611H232.342z"/>
	<polygon id="r702" fill="#939598" stroke="#494949" stroke-width="0.5" stroke-miterlimit="10" points="346.548,237.575 
		332.94,237.575 332.94,140.293 232.342,140.293 232.342,211.271 264.417,211.271 264.417,302.882 346.548,302.882 	"/>
	<polygon id="r705-708" fill="#939598" stroke="#494949" stroke-width="0.5" stroke-miterlimit="10" points="527.824,183.812 
		527.824,140.293 494.046,140.293 461.728,140.293 461.728,175.902 428.195,175.902 428.195,211.512 461.728,211.512 
		461.728,211.513 494.046,211.513 527.824,211.513 553.337,211.513 553.337,183.812 	"/>
	<path id="r726" fill="#939598" stroke="#494949" stroke-width="0.5" stroke-miterlimit="10" d="M380.69,286.782
		c0-6.743,0-73.628,0-73.628h-47.75v24.421h13.604v65.307c5.942,0,14.594,0,19.927,0C375.223,302.882,380.69,293.524,380.69,286.782
		z"/>
	<path id="r725" fill="#939598" stroke="#494949" stroke-width="0.5" stroke-miterlimit="10" d="M395.634,211.878l24.695-0.366
		v-29.887h-23.054v-14.397H386.34v-11.3H332.94v45.016c10.604,0,46.896,0,52.484,0C391.989,200.944,395.634,205.409,395.634,211.878
		z"/>
	
		<rect x="395.634" y="229.739" fill="#939598" stroke="#494949" stroke-width="0.5" stroke-miterlimit="10" width="40.278" height="7.654"/>
	<path fill="#939598" stroke="#494949" stroke-width="0.5" stroke-miterlimit="10" d="M444.962,237.393h32.26
		c0,0-2.855-7.654-6.137-7.654c-3.283,0-26.123,0-26.123,0V237.393L444.962,237.393z"/>
	<path id="r728" fill="#939598" stroke="#494949" stroke-width="0.5" stroke-miterlimit="10" d="M395.634,267.16v35.722
		c0,0,16.873,0,33.292,0V267.16H395.634z"/>
	<path id="r729" fill="#939598" stroke="#494949" stroke-width="0.5" stroke-miterlimit="10" d="M464.16,259.384v7.776h-35.234
		v35.722c13.049,0,25.814,0,29.584,0c8.525,0,18.713-4.19,18.713-18.711c0-6.288,0-15.904,0-24.786L464.16,259.384L464.16,259.384z"
		/>
	<path id="r730-733" fill="#939598" stroke="#494949" stroke-width="0.5" stroke-miterlimit="10" d="M528.978,228.827
		c-8.613,0-16.713,0-20.896,0c-9.479,0-14.033,3.645-14.033,13.851c0,6.067,0,16.452,0,23.874h-0.002c0,5.063,0,8.748,0,8.748
		c0,10.569,8.504,28.978,33.777,28.978c0.389,0,0.773,0,1.154,0v-37.726h0.002v-37.725H528.978L528.978,228.827z"/>
	<path id="r731-732" fill="#939598" stroke="#494949" stroke-width="0.5" stroke-miterlimit="10" d="M560.933,252.52h10.752
		c0,0,0-5.286,0-11.117c0-5.833-4.191-12.576-14.396-12.576c-5.699,0-17.418,0-28.311,0v37.725v37.726c24.154,0,25.309,0,31.406,0
		c6.197,0,11.301-5.647,11.301-14.486c0-3.015,0-4.598,0-5.376h-10.752v-17.86V252.52L560.933,252.52z"/>
	<path id="r709" fill="#939598" stroke="#494949" stroke-width="0.5" stroke-miterlimit="10" d="M590.64,268.739
		c0,0,0,17.678,0,25.028s2.73,9.6,7.471,10.51c4.738,0.91,51.029,6.195,51.029,6.195h0.789v-41.733H590.64z"/>
	<polygon id="r710" fill="#939598" stroke="#494949" stroke-width="0.5" stroke-miterlimit="10" points="649.929,268.739 
		649.929,310.475 687.228,310.475 687.228,293.768 687.228,268.739 	"/>
	<path id="r704" fill="#939598" stroke="#494949" stroke-width="0.5" stroke-miterlimit="10" d="M576.423,211.513
		c5.346,0,12.15,9.356,12.15,17.314s0,7.958,0,7.958h98.646v-96.493H561.115v71.22C561.115,211.513,571.078,211.513,576.423,211.513
		z"/>
	<path id="k703" fill="#939598" stroke="#494949" stroke-width="0.5" stroke-miterlimit="10" d="M663.658,320.74v23.812
		c0,0-14.215,0-17.129,0c-2.916,0-10.084-4.011-10.084-13c0-8.991,0-5.226,0-7.53c0-2.312,1.578-3.281,4.494-3.281
		S663.658,320.74,663.658,320.74z"/>
	<path id="k701-k702" fill="#939598" stroke="#494949" stroke-width="0.5" stroke-miterlimit="10" d="M481.898,337.021v-13.977
		c0-2.414-1.959-4.373-4.375-4.373h-24.178c-1.172,0-2.234,0.469-3.02,1.217c0.145,0,0.264,0,0.346,0c4.131,0,5.59-0.119,5.59,4.736
		c0,2.41,0,7.509,0,12.396v0.002c0,4.961,0,9.703,0,11.176c0,2.502-1.254,5.627-5.289,6.465c0.684,0.443,1.498,0.703,2.373,0.703
		h24.18c2.416,0,4.375-1.957,4.375-4.373v-13.973H481.898L481.898,337.021z"/>
</g>
<g id="Signs">
	<g id="escalator">
		<rect id="escalator-2" x="356.815" y="333.146" opacity="0.8" enable-background="new    " width="14.811" height="14.812"/>
		<rect id="escalator-1" x="595.146" y="333.146" opacity="0.8" enable-background="new    " width="14.811" height="14.811"/>
	</g>
	<rect id="telephone" x="605.474" y="247.689" opacity="0.8" enable-background="new    " width="14.811" height="14.811"/>
	<rect id="lift" x="565.761" y="261.334" opacity="0.8" enable-background="new    " width="14.812" height="14.811"/>
	<rect id="family-room" x="401.999" y="165.997" opacity="0.8" enable-background="new    " width="14.811" height="14.811"/>
	<g id="baby-change-room">
		
			<rect id="baby-change-room-2" x="647.927" y="247.688" opacity="0.8" enable-background="new    " width="14.812" height="14.811"/>
		
			<rect id="baby-change-room-1" x="419.374" y="144.497" opacity="0.8" enable-background="new    " width="14.811" height="14.811"/>
	</g>
	<g id="handicapped-toilet">
		
			<rect id="handicapped-toilet-3" x="441.125" y="144.496" opacity="0.8" enable-background="new    " width="14.811" height="14.811"/>
		
			<rect id="handicapped-toilet-2" x="322.482" y="404.955" opacity="0.8" enable-background="new    " width="14.811" height="14.812"/>
		
			<rect id="handicapped-toilet-1" x="668.58" y="247.688" opacity="0.8" enable-background="new    " width="14.811" height="14.811"/>
	</g>
	<g id="toilet">
		<rect id="toilet-3" x="626.095" y="247.689" opacity="0.8" enable-background="new    " width="14.811" height="14.811"/>
		<rect id="toilet-2" x="396.749" y="144.497" opacity="0.8" enable-background="new    " width="14.811" height="14.811"/>
		<rect id="toilet-1" x="300.594" y="404.955" opacity="0.8" enable-background="new    " width="14.813" height="14.812"/>
	</g>
</g>
</svg>
