<?xml version="1.0" encoding="utf-8"?>
<!-- Generator: Adobe Illustrator 16.0.0, SVG Export Plug-In . SVG Version: 6.00 Build 0)  -->
<!DOCTYPE svg PUBLIC "-//W3C//DTD SVG 1.1//EN" "http://www.w3.org/Graphics/SVG/1.1/DTD/svg11.dtd">
<svg version="1.1" id="Layer_1" xmlns="http://www.w3.org/2000/svg" xmlns:xlink="http://www.w3.org/1999/xlink" x="0px" y="0px"
	 width="841.89px" height="595.281px" viewBox="0 0 841.89 595.281" enable-background="new 0 0 841.89 595.281"
	 xml:space="preserve">
<g id="background">
	<rect y="0" fill="#FFFFFF" width="841.89" height="595.281"/>
</g>
<g id="etc">
	<path fill="#CECECE" stroke="#494949" stroke-miterlimit="10" d="M345.213,250.879h35.234v-17.495h92.46v18.226h120.283v-16.523
		h95.023l-0.018-94.792h-567.53H50.095c0,0-8.394,59.663-14.928,109.857h263.147v15.188h46.896L345.213,250.879L345.213,250.879z"/>
	<path fill="#CECECE" stroke="#494949" stroke-miterlimit="10" d="M792.205,348.199v-24.971h-34.082v24.971H688.23v-54.675
		l-0.01-58.439h-95.031v16.523H472.908v-18.226H380.45v17.495h-35.234v14.458H298.32V412.35h-65.976v24.357
		c17.061,2.115,45.09,4.912,75.085,7.593c3.682,0.332,7.268,0.444,10.752,0.393v-23.598h-13.304v-41.553l13.304-1.821h115.182
		v32.077c8.6,1.901,17.689,4.575,26.184,7.461V394.73c0,0,16.766-17.011,46.898-20.654c15.441-1.866,45.322-3.032,74.842-3.727
		v26.688h-20.41v34.765c6.061-0.187,12.303-0.373,18.709-0.504c4.686-0.097,9.318-0.271,13.852-0.504v-60.707
		c23.68-0.461,45.77-0.629,58.318-0.629c24.703,0,69.16,0,84.385,0c4.24-2.57,10.428-3.855,23.266-3.855v11.391h40.58v-28.795
		H792.205L792.205,348.199z"/>
	<path fill="#CECECE" stroke="#494949" stroke-miterlimit="10" d="M465.253,320.498v40.095c0,0,59.229-2.916,75.633-5.646
		l3.342-27.885C544.228,327.061,484.025,319.039,465.253,320.498z"/>
	<path fill="#CECECE" stroke="#494949" stroke-miterlimit="10" d="M439.738,361.686l5.832-41.364c0,0-61.053,0.905-70.895,2.364
		c-9.84,1.457-29.521,7.474-34.626,9.293c-5.103,1.823-5.832,3.832-5.832,9.022c0,5.189,0,7.017,0,12.663
		c0,5.649,0.364,8.021,5.65,8.021c5.285,0,28.249,0,28.249,0l17.857-14.94l17.496,14.94H439.738L439.738,361.686z"/>
	<path fill="#CECECE" stroke="#494949" stroke-miterlimit="10" d="M570.226,340.457h13.854v17.4h33.531v-17.4h5.285
		c0,0,5.469-21.602-23.145-21.78C571.138,318.494,570.226,340.457,570.226,340.457z"/>
	<path fill="#B5B5B5" stroke="#494949" stroke-miterlimit="10" d="M679.21,276.758h-20.17v35.302
		c10.615,1.76,20.17,3.578,20.17,3.578V276.758z"/>
</g>
<g id="rooms">
	<path id="r225" fill="#939598" stroke="#494949" stroke-miterlimit="10" d="M298.314,412.352V250.15H35.167
		c-3.094,23.766-5.771,45.41-6.942,57.59c-3.645,37.906,6.318,61.965,47.871,90.396c3.63,2.481,7.616,4.714,11.868,6.724
		c44.422,20.979,117.892,17.335,117.892,17.335c0,3.398,3.159,10.205,10.935,12.146c2.414,0.604,7.873,1.42,15.552,2.371v-24.357
		h65.972L298.314,412.352L298.314,412.352z"/>
	<polygon id="r222-1" fill="#939598" stroke="#494949" stroke-miterlimit="10" points="304.876,379.545 304.876,421.097 
		317.945,421.097 317.945,377.756 	"/>
	<path id="r222-2" fill="#939598" stroke="#494949" stroke-miterlimit="10" d="M318.18,377.723l-0.234,0.032v43.342h0.234v23.598
		c4.79-0.076,9.388-0.483,13.766-1.139v-65.833H318.18z"/>
	<path id="r221-1" fill="#939598" stroke="#494949" stroke-miterlimit="10" d="M331.945,377.723v65.833
		c4.774-0.713,9.285-1.72,13.5-2.906v-62.927H331.945z"/>
	<path id="r221-2" fill="#939598" stroke="#494949" stroke-miterlimit="10" d="M357.445,377.725l-12-0.002v62.927
		c4.326-1.219,8.342-2.628,12-4.109V377.725z"/>
	<path id="r219-220" fill="#939598" stroke="#494949" stroke-miterlimit="10" d="M357.445,377.725v58.813
		c15.255-6.183,24.339-13.616,24.339-13.616v-8.99c0.212-0.063,0.434-0.139,0.661-0.218v-35.989H357.445L357.445,377.725z"/>
	<path id="k203" fill="#939598" stroke="#494949" stroke-miterlimit="10" d="M382.445,377.725v35.989
		c3.78-1.321,9.69-4.623,18.75-5.645c1.576-0.32,3.341-0.553,5.25-0.702v-29.644L382.445,377.725L382.445,377.725z"/>
	<path id="k202" fill="#939598" stroke="#494949" stroke-miterlimit="10" d="M406.445,377.725v29.645
		c7.143-0.559,16.463,0.127,26.916,2.437v-32.078h-26.916V377.725z"/>
	<path id="r218" fill="#939598" stroke="#494949" stroke-miterlimit="10" d="M459.542,394.732v22.527
		c8.074,2.746,15.604,5.686,21.627,8.33c4.178,1.838,8.809,3.211,13.854,4.231V376.2
		C472.105,381.992,459.542,394.732,459.542,394.732z"/>
	<path id="r214" fill="#939598" stroke="#494949" stroke-miterlimit="10" d="M593.433,370.092v60.707
		c11.619-0.603,22.578-1.597,32.076-2.662v-58.521C615.765,369.715,604.783,369.869,593.433,370.092z"/>
	<path id="r213-1" fill="#939598" stroke="#494949" stroke-miterlimit="10" d="M651.751,369.463c-2.795,0-6.064,0.006-9.719,0.021
		v56.554c10.252-1.452,16.52-2.633,16.52-2.633v-53.942C656.164,369.463,653.882,369.463,651.751,369.463z"/>
	<path id="r224" fill="#939598" stroke="#494949" stroke-miterlimit="10" d="M734.048,413.781
		c-2.137-4.623-4.656-10.231-6.725-15.28c-4.563-11.117-0.912-19.685,4.01-24.97c1.488-1.6,2.963-2.957,4.803-4.067
		c-13.912,0-52.229,0-77.58,0v53.942v6.013c24.293-2.406,42.805,1.276,56.131-1.638c15.553-3.403,20.414-8.506,20.414-8.506
		l-1.217-5.346L734.048,413.781z"/>
	<path id="r213-2" fill="#939598" stroke="#494949" stroke-miterlimit="10" d="M625.509,369.615v58.521
		c6.207-0.695,11.789-1.426,16.523-2.097v-56.555C637.144,369.511,631.566,369.555,625.509,369.615z"/>
	<path id="r215-216" fill="#939598" stroke="#494949" stroke-miterlimit="10" d="M560.873,370.914
		c-11.979,0.382-23.424,0.855-33.291,1.438v60.111c10.293,0.063,21.438-0.295,33.291-0.656v-34.764h20.41v-26.689
		C574.437,370.512,567.574,370.699,560.873,370.914z"/>
	<polygon id="r223" fill="#939598" stroke="#494949" stroke-miterlimit="10" points="758.123,348.199 758.123,323.229 
		792.205,323.229 792.205,348.199 799.978,348.199 799.978,293.768 699.166,293.768 698.771,293.768 698.767,293.759 
		688.232,293.524 688.232,348.199 	"/>
	<path id="r204" fill="#939598" stroke="#494949" stroke-miterlimit="10" d="M380.569,265.458v-14.58h-17.013v53.46
		c9.57,0,20.669,0,32.622,0v-38.88H380.569z"/>
	<path id="r205-206" fill="#939598" stroke="#494949" stroke-miterlimit="10" d="M396.181,265.458v38.88c4.285,0,31.313,0,38.818,0
		v-38.88H396.181z"/>
	<path id="r201-202" fill="#939598" stroke="#494949" stroke-miterlimit="10" d="M330.146,265.392l-18.831,0.065v36.45l18.467,2.431
		c0,0,0.125,0,0.364,0c1.401,0,6.807,0,15.064,0v-39.001L330.146,265.392z"/>
	<path id="r209-210" fill="#939598" stroke="#494949" stroke-miterlimit="10" d="M559.414,284.048v-32.439h-31.832h-32.561v52.729
		c12.053,0,23.146,0,32.561,0c16.898,0,28.385,0,30.252,0c8.748,0,12.393-4.496,12.393-11.907c0-7.41,0-8.141,0-8.141
		L559.414,284.048z"/>
	<path id="r208" fill="#939598" stroke="#494949" stroke-miterlimit="10" d="M472.908,251.608v5.832h-9.479v8.019h-0.24v38.879
		c10.996,0,21.748,0,31.832,0v-52.729H472.908L472.908,251.608z"/>
	<path id="r207" fill="#939598" stroke="#494949" stroke-miterlimit="10" d="M444.597,265.458v38.88c6.227,0,12.445,0,18.592,0
		v-38.88H444.597z"/>
	<path id="r212" fill="#939598" stroke="#494949" stroke-miterlimit="10" d="M625.875,276.758v31.126
		c4.02,0.424,8.053,0.846,11.906,1.192c5.564,0.506,13.682,1.729,21.26,2.982v-35.304L625.875,276.758L625.875,276.758z"/>
	<path id="r211" fill="#939598" stroke="#494949" stroke-miterlimit="10" d="M625.875,267.402h-43.012c0,0,0,13.729,0,23.207
		s6.805,15.188,16.4,15.188c6.834,0,16.682,1.047,26.609,2.088V276.76v-9.357L625.875,267.402L625.875,267.402z"/>
	<path id="k204" fill="#939598" stroke="#494949" stroke-miterlimit="10" d="M555.83,323.049c-4.01-5.104-17.133-5.104-22.051-4.375
		v7.063c6.365,0.779,10.447,1.322,10.447,1.322l-3.342,27.885c0,0,12.211,0.908,14.945-10.392
		C558.562,333.256,559.839,328.152,555.83,323.049z"/>
	<path id="r217" fill="#939598" stroke="#494949" stroke-miterlimit="10" d="M495.021,376.201c0,0,10.157-2.119,16.28-2.644v58.349
		c0,0-8.476-0.096-16.28-2.082V376.201z"/>
	<path id="r203" fill="#939598" stroke="#494949" stroke-miterlimit="10" d="M345.213,250.879v14.458v39.001
		c5.11,0,11.315,0,18.346,0v-53.46L345.213,250.879L345.213,250.879z"/>
	<path id="r215-1" fill="#939598" stroke="#494949" stroke-miterlimit="10" d="M511.301,373.557c0,0,13.292-0.993,16.28-1.205
		v60.111c0,0-13.563-0.445-16.28-0.558V373.557z"/>
	
		<rect id="coffee-world" x="455.112" y="320.498" fill="#939598" stroke="#494949" stroke-miterlimit="10" width="10.142" height="40.095"/>
</g>
<g id="signs">
	
		<rect id="call-point-service" x="394.525" y="171.996" opacity="0.8" enable-background="new    " width="14.811" height="14.812"/>
	<rect id="lady-parking" x="352.025" y="171.996" opacity="0.8" enable-background="new    " width="14.811" height="14.812"/>
	<rect id="parking" x="309.775" y="171.996" opacity="0.8" enable-background="new    " width="14.811" height="14.812"/>
	<g id="escalator">
		<rect id="escalator-3" x="174.844" y="325.917" opacity="0.8" enable-background="new    " width="14.811" height="14.813"/>
		<rect id="escalator-2" x="378.344" y="337.417" opacity="0.8" enable-background="new    " width="14.813" height="14.813"/>
		<rect id="escalator-1" x="593.433" y="339.045" opacity="0.8" enable-background="new    " width="14.813" height="14.812"/>
	</g>
	<rect id="atm" x="581.283" y="248.845" opacity="0.8" enable-background="new    " width="14.811" height="14.813"/>
	<rect id="telephone" x="602.066" y="248.845" opacity="0.8" enable-background="new    " width="14.811" height="14.813"/>
	<rect id="baby-change-room" x="642.888" y="235.595" opacity="0.8" enable-background="new    " width="14.813" height="14.813"/>
	<g id="lift">
		<rect id="lift-3" x="274.594" y="254.595" opacity="0.8" enable-background="new    " width="14.811" height="14.813"/>
		<rect id="lift-2" x="562.822" y="265.337" opacity="0.8" enable-background="new    " width="14.811" height="14.812"/>
		<rect id="lift-1" x="766.9" y="345.779" opacity="0.8" enable-background="new    " width="14.811" height="14.813"/>
	</g>
	<g id="handicapped-toilet">
		
			<rect id="handicapped-toilet-2" x="664.4" y="235.595" opacity="0.8" enable-background="new    " width="14.811" height="14.813"/>
		
			<rect id="handicapped-toilet-1" x="274.595" y="417.417" opacity="0.8" enable-background="new    " width="14.811" height="14.813"/>
	</g>
	<g id="toilet">
		<rect id="toilet-2" x="618.96" y="235.595" opacity="0.8" enable-background="new    " width="14.811" height="14.813"/>
		<rect id="toilet-1" x="251.845" y="417.417" opacity="0.8" enable-background="new    " width="14.811" height="14.813"/>
	</g>
</g>
</svg>
