<?xml version="1.0" encoding="utf-8"?>
<!-- Generator: Adobe Illustrator 16.0.0, SVG Export Plug-In . SVG Version: 6.00 Build 0)  -->
<!DOCTYPE svg PUBLIC "-//W3C//DTD SVG 1.1//EN" "http://www.w3.org/Graphics/SVG/1.1/DTD/svg11.dtd">
<svg version="1.1" id="Layer_1" xmlns="http://www.w3.org/2000/svg" xmlns:xlink="http://www.w3.org/1999/xlink" x="0px" y="0px"
	 width="841.89px" height="595.281px" viewBox="0 0 841.89 595.281" enable-background="new 0 0 841.89 595.281"
	 xml:space="preserve">
<g id="Background">
	<rect fill="#FFFFFF" width="841.89" height="595.281"/>
</g>
<g id="ETC">
	<path fill="#CECECE" stroke="#494949" stroke-miterlimit="10" d="M433.785,305.311c-53.81,0-104.245,0-104.245,0l-19.439-1.942
		v-34.502h-14.062v138.2h-33.989l-0.304,15.129v9.965c0,0,41.395,6.277,67.796,3.633v-28.057h-25.272v-31.713l26.003-2.795h139.599
		l57.713-7.045h53.215v24.664h-21.141v47.359c10.146-0.334,21.793-0.848,33.535-1.568v-70.578c0,0,22.23,0,31.709,0
		s23.936-13.604,23.936-28.552c0-14.946-15.43-24.301-23.57-28.432c-8.139-4.132-33.412-3.646-36.689-4.011
		c-3.279-0.362-4.859-0.483-4.859-3.522c0-3.037,0-30.981,0-30.981h42.465v8.93h42.828v-10.629v-31.47h-76.729v20.047h-32.5v28.31
		h9.721c0,0,0,1.093,0,7.167s-2.066,12.393-8.383,12.393c-3.148,0-60.646,0-117.551,0"/>
	<path fill="#CECECE" stroke="#494949" stroke-miterlimit="10" d="M296.036,268.863h16.855h5.47h27.701v-12.334h35.175v-18.954
		h92.946v19.865h118.096v-20.047h76.727v31.47h18.771v-128.57h-567.11H50.095c0,0-0.002,0.016-0.006,0.048
		c-0.01,0.069-0.032,0.219-0.063,0.449c-0.014,0.101-0.03,0.217-0.049,0.347c-0.006,0.044-0.013,0.094-0.02,0.142
		c-0.029,0.205-0.062,0.44-0.1,0.706c-0.037,0.268-0.079,0.564-0.125,0.892c-0.053,0.381-0.112,0.802-0.176,1.261
		c-0.01,0.072-0.021,0.149-0.032,0.223c-0.032,0.235-0.067,0.48-0.102,0.734c-0.006,0.042-0.012,0.082-0.018,0.125
		c-0.011,0.08-0.023,0.161-0.034,0.242c-0.01,0.073-0.02,0.147-0.031,0.221c-0.056,0.4-0.115,0.822-0.177,1.263
		c-0.046,0.333-0.095,0.678-0.145,1.034c-0.052,0.374-0.105,0.759-0.161,1.156c-0.047,0.342-0.096,0.692-0.147,1.05
		c-0.299,2.152-0.642,4.61-1.02,7.335c-0.003,0.026-0.007,0.052-0.011,0.079c-0.137,0.986-0.278,2.008-0.425,3.062
		c-0.009,0.065-0.018,0.13-0.027,0.196c-2.238,16.147-5.5,39.87-8.724,64.016c-0.01,0.072-0.02,0.146-0.029,0.218
		c-0.386,2.888-0.771,5.781-1.154,8.669c-0.001,0.012-0.003,0.025-0.005,0.038c-0.217,1.641-0.434,3.282-0.649,4.917
		c-0.008,0.059-0.016,0.119-0.024,0.179c-0.155,1.18-0.311,2.357-0.465,3.532c-0.008,0.063-0.016,0.123-0.024,0.184
		c-0.153,1.166-0.305,2.33-0.457,3.488c-0.009,0.069-0.018,0.137-0.027,0.206c-0.048,0.365-0.095,0.729-0.143,1.092
		c-0.011,0.083-0.022,0.167-0.033,0.25c-0.092,0.707-0.184,1.411-0.276,2.114c-0.008,0.064-0.016,0.127-0.025,0.191
		c-0.044,0.338-0.088,0.676-0.132,1.014c-0.018,0.139-0.036,0.276-0.054,0.415c-0.137,1.052-0.273,2.1-0.407,3.142
		c-0.02,0.15-0.039,0.302-0.059,0.452c-0.04,0.309-0.08,0.619-0.119,0.927c-0.004,0.027-0.008,0.053-0.011,0.079h261.626
		L296.036,268.863L296.036,268.863z"/>
	<path fill="#CECECE" stroke="#494949" stroke-miterlimit="10" d="M438.646,320.314c-41.553,1.821-45.38,1.275-56.314,2.006
		c-10.936,0.729-44.287,8.562-51.576,11.664c-7.29,3.098-5.646,12.938-5.646,12.938c0,10.207,2.004,12.939,8.93,12.939
		s50.665,0,50.665,0l16.949-15.674l16.946,14.764c0,0,11.382-0.332,27.382-0.93l2.68-37.961
		C445.222,320.091,441.873,320.173,438.646,320.314z"/>
	<path fill="#CECECE" stroke="#494949" stroke-miterlimit="10" d="M542.343,326.512c0,0-29.396-3.794-61.27-5.568l-2.521,35.728
		c25.861-1.203,52.701-2.812,63.789-4.644v-25.516H542.343L542.343,326.512z"/>
	<path fill="#CECECE" stroke="#494949" stroke-miterlimit="10" d="M567.433,338.807h16.281V353.3h34.02c0,0,0-15.309,0-19.315
		c0-4.008-1.58-8.75-7.654-10.084c-6.074-1.338-24.666-4.737-31.711-2.31C571.32,324.021,567.554,331.479,567.433,338.807z"/>
	<path fill="#CECECE" stroke="#494949" stroke-miterlimit="10" d="M494.291,370.246V434.9c12.824,2.914,23.268,3.604,32.803,3.768
		v-72.429L494.291,370.246z"/>
</g>
<g id="Rooms">
	<path id="r426" fill="#939598" stroke="#494949" stroke-miterlimit="10" d="M296.036,407.062v-138.2v-12.881H34.41
		c-2.768,21.439-5.11,40.583-6.185,51.758c-3.645,37.906,6.318,61.965,47.871,90.396c3.63,2.482,7.616,4.714,11.868,6.724
		c44.422,20.978,117.892,17.335,117.892,17.335h55.888l0.304-15.13L296.036,407.062L296.036,407.062z"/>
	<path id="k401" fill="#939598" stroke="#494949" stroke-miterlimit="10" d="M448.66,320.062l-2.68,37.959
		c5.793-0.215,12.186-0.467,18.867-0.746l2.605-36.948C461.064,320.109,454.728,320.005,448.66,320.062z"/>
	<path id="r411" fill="#939598" stroke="#494949" stroke-miterlimit="10" d="M583.714,270.562c0,0,0,27.945,0,30.982
		s1.578,3.158,4.859,3.522c1.895,0.211,11.133,0.138,20.166,0.834v-35.339L583.714,270.562L583.714,270.562z"/>
	<path id="r413" fill="#939598" stroke="#494949" stroke-miterlimit="10" d="M624.9,366.059c-9.477,0-31.709,0-31.709,0v70.579
		c11.318-0.695,22.729-1.592,32.986-2.709V365.98C625.744,366.033,625.316,366.059,624.9,366.059z"/>
	<path id="r427" fill="#939598" stroke="#494949" stroke-miterlimit="10" d="M799.978,293.768h-19.682h-81.523h-10.996v-24.905
		h-18.771v10.629h-42.828v30.054c8.322,4.347,22.656,13.558,22.656,27.961c0,14.287-13.215,27.354-22.656,28.474v67.948
		c7.32-0.797,14.059-1.709,19.744-2.746c18.42-3.361,33.939-2.682,46.762-2.344c15.309,0.758,33.227,4.234,45.574,3.801
		c13.855-0.484,74.115,0,74.115,0V293.768H799.978z"/>
	<path id="r412" fill="#939598" stroke="#494949" stroke-miterlimit="10" d="M626.177,270.562H608.74v35.34
		c6.6,0.51,13.09,1.432,16.525,3.176c0.295,0.148,0.6,0.307,0.912,0.469v-30.054V270.562L626.177,270.562z"/>
	<path id="r420-423" fill="#939598" stroke="#494949" stroke-miterlimit="10" d="M411.671,373.227h-16.038h-17.01h-16.8v50.786
		c7.355-3.842,12.498-6.821,16.8-8.782c1.1-0.5,2.146-0.938,3.161-1.301c2.959-0.896,7.378-3.052,13.849-4.447
		c4.354-0.938,9.643-1.534,16.038-1.174c4.779,0.271,10.182,1.073,16.28,2.668v-37.75H411.671L411.671,373.227z"/>
	<polygon id="r425" fill="#939598" stroke="#494949" stroke-miterlimit="10" points="304.268,376.021 304.268,407.732 
		329.54,407.732 329.54,373.307 	"/>
	<path id="r424-1" fill="#939598" stroke="#494949" stroke-miterlimit="10" d="M330.27,373.227l-0.729,0.08v34.428v28.058
		c6.026-0.607,11.272-1.674,15.065-3.393c0.368-0.166,0.729-0.332,1.093-0.496v-58.677H330.27L330.27,373.227z"/>
	<path id="r424-2" fill="#939598" stroke="#494949" stroke-miterlimit="10" d="M345.699,373.227V431.9
		c6.393-2.918,11.667-5.562,16.124-7.889v-50.785H345.699L345.699,373.227z"/>
	<path id="r415" fill="#939598" stroke="#494949" stroke-miterlimit="10" d="M527.582,366.182l-0.488,0.06v72.428
		c2.428,0.041,4.793,0.049,7.127,0.049c5.746,0,14.771-0.158,25.439-0.51V390.85v-24.664L527.582,366.182L527.582,366.182z"/>
	<rect id="r414" x="559.656" y="366.182" fill="#939598" stroke="#494949" stroke-miterlimit="10" width="21.141" height="24.664"/>
	<path id="r418-419" fill="#939598" stroke="#494949" stroke-miterlimit="10" d="M444.474,373.227h-16.523v37.75
		c5.021,1.313,10.516,3.16,16.523,5.688c1.74,0.731,3.521,1.519,5.35,2.364c4.062,1.892,7.941,3.595,11.662,5.136v-50.938H444.474z"
		/>
	<path id="r417" fill="#939598" stroke="#494949" stroke-miterlimit="10" d="M469.869,373.227h-8.385v50.938
		c12.619,5.236,23.357,8.59,32.807,10.734v-64.654L469.869,373.227z"/>
	<path id="r404-1-404-2" fill="#939598" stroke="#494949" stroke-miterlimit="10" d="M381.237,268.01V256.53h-19.379v48.78
		c5.896,0,12.408,0,19.379,0l0,0c4.164,0,8.485,0,12.938,0V268.01H381.237z"/>
	<path id="r402-403" fill="#939598" stroke="#494949" stroke-miterlimit="10" d="M346.062,256.529v12.334l0,0H328.57v36.349
		l0.972,0.099c0,0,6.183,0,16.521,0c4.524,0,9.85,0,15.798,0v-48.782H346.062L346.062,256.529z"/>
	<polygon id="r401" fill="#939598" stroke="#494949" stroke-miterlimit="10" points="318.362,268.863 312.895,268.863 
		310.101,268.863 310.101,303.367 328.568,305.212 328.568,268.863 	"/>
	<path id="r405-406" fill="#939598" stroke="#494949" stroke-miterlimit="10" d="M411.671,268.01h-17.494v37.301
		c5.651,0,11.506,0,17.494,0c7.222,0,14.635,0,22.114,0V268.01H411.671z"/>
	<path id="r409-2-410" fill="#939598" stroke="#494949" stroke-miterlimit="10" d="M559.779,285.751L559.779,285.751V257.44h-32.686
		h-0.002h-16.645h-16.156v47.871c5.594,0,11.002,0,16.156,0c5.918,0,11.5,0,16.645,0c0,0,0,0,0.002,0c19.389,0,32.561,0,34.021,0
		c6.312,0,8.383-6.317,8.383-12.393s0-7.167,0-7.167H559.779z"/>
	<path id="r407-409-1" fill="#939598" stroke="#494949" stroke-miterlimit="10" d="M474.183,257.44v3.462h-12.697v7.108h-17.92
		v37.301c5.982,0,11.965,0,17.92,0c1.49,0,2.977,0,4.459,0c9.744,0,19.289,0,28.346,0V257.44H474.183z"/>
</g>
<g id="Signs">
	<rect id="baby-change-room" x="643.832" y="237.393" opacity="0.8" enable-background="new    " width="14.811" height="14.811"/>
	<rect id="telephone" x="607.392" y="254.052" opacity="0.8" enable-background="new    " width="14.812" height="14.813"/>
	<rect id="atm" x="579.142" y="264.802" opacity="0.8" enable-background="new    " width="14.812" height="14.813"/>
	
		<rect id="call-point-service" x="388.113" y="180.802" opacity="0.8" enable-background="new    " width="14.811" height="14.813"/>
	<rect id="parking" x="346.556" y="182.345" opacity="0.8" enable-background="new    " width="14.813" height="14.813"/>
	<g id="lift">
		<rect id="lift-2" x="557.142" y="264.802" opacity="0.8" enable-background="new    " width="14.812" height="14.813"/>
		<rect id="lift-1" x="270.056" y="259.345" opacity="0.8" enable-background="new    " width="14.811" height="14.813"/>
	</g>
	<g id="escalator">
		<rect id="escalator-3" x="394.177" y="336.585" opacity="0.8" enable-background="new    " width="14.813" height="14.812"/>
		<rect id="escalator-2" x="592.582" y="336.585" opacity="0.8" enable-background="new    " width="14.811" height="14.812"/>
		<rect id="escalator-1" x="172.556" y="325.15" opacity="0.8" enable-background="new    " width="14.811" height="14.811"/>
	</g>
	<g id="toilet">
		<rect id="toilet-2" x="619.832" y="237.393" opacity="0.8" enable-background="new    " width="14.811" height="14.811"/>
		<rect id="toilet-1" x="281.226" y="413.4" opacity="0.8" enable-background="new    " width="14.811" height="14.811"/>
	</g>
	<g id="handicapped-toilet">
		
			<rect id="handicapped-toilet-2" x="665.582" y="237.393" opacity="0.8" enable-background="new    " width="14.811" height="14.811"/>
		
			<rect id="handicapped-toilet-1" x="302.695" y="413.4" opacity="0.8" enable-background="new    " width="14.811" height="14.811"/>
	</g>
</g>
</svg>
