<?xml version="1.0" encoding="utf-8"?>
<!-- Generator: Adobe Illustrator 16.0.0, SVG Export Plug-In . SVG Version: 6.00 Build 0)  -->
<!DOCTYPE svg PUBLIC "-//W3C//DTD SVG 1.1//EN" "http://www.w3.org/Graphics/SVG/1.1/DTD/svg11.dtd">
<svg version="1.1" id="Layer_1" xmlns="http://www.w3.org/2000/svg" xmlns:xlink="http://www.w3.org/1999/xlink" x="0px" y="0px"
	 width="841.89px" height="595.281px" viewBox="0 0 841.89 595.281" enable-background="new 0 0 841.89 595.281"
	 xml:space="preserve">
<g id="Background">
	<rect fill="#FFFFFF" width="841.89" height="595.281"/>
</g>
<g id="ETC">
	<path fill="#CECECE" stroke="#494949" stroke-width="0.5" stroke-miterlimit="10" d="M296.036,268.863H310.1h2.795h5.469h27.702
		v-12.334h35.174v-18.954h92.944v19.865h118.1v-20.047h76.727v31.47h18.771v-128.57H120.668H50.095c0,0-0.002,0.016-0.006,0.048
		c-0.01,0.069-0.032,0.219-0.063,0.449c-0.014,0.101-0.03,0.217-0.049,0.347c-0.005,0.041-0.013,0.087-0.019,0.131
		c-0.094,0.671-0.235,1.677-0.419,2.989c-0.004,0.035-0.009,0.069-0.014,0.103c-0.032,0.235-0.067,0.48-0.102,0.734
		c-0.006,0.042-0.012,0.082-0.018,0.125c-0.011,0.08-0.023,0.161-0.034,0.242c-0.005,0.039-0.011,0.079-0.016,0.118
		c-0.013,0.089-0.025,0.177-0.038,0.269c-0.049,0.352-0.1,0.716-0.154,1.098c-0.034,0.249-0.071,0.51-0.107,0.771
		c-0.151,1.077-0.315,2.257-0.493,3.537c-0.263,1.886-0.555,3.981-0.872,6.268c-0.003,0.026-0.007,0.052-0.011,0.079
		c-0.137,0.986-0.278,2.008-0.425,3.062c-0.009,0.065-0.018,0.13-0.027,0.196c-2.238,16.147-5.5,39.87-8.724,64.016
		c-0.01,0.072-0.02,0.146-0.029,0.218c-0.386,2.888-0.771,5.781-1.154,8.669c0,0.006-0.001,0.013-0.002,0.019
		c-0.008,0.06-0.016,0.119-0.024,0.179c-0.209,1.581-0.418,3.16-0.626,4.734c-0.004,0.03-0.007,0.062-0.012,0.092
		c-0.005,0.036-0.01,0.072-0.015,0.108c-0.155,1.18-0.311,2.357-0.465,3.532c-0.008,0.061-0.016,0.123-0.024,0.184
		c-0.148,1.132-0.297,2.262-0.444,3.387c-0.038,0.296-0.077,0.592-0.116,0.886c-0.001,0.009-0.002,0.018-0.003,0.027
		c-0.047,0.358-0.093,0.716-0.141,1.074c-0.062,0.479-0.124,0.957-0.187,1.434c-0.034,0.262-0.069,0.524-0.103,0.785
		c-0.033,0.254-0.066,0.509-0.099,0.763c-0.008,0.059-0.015,0.118-0.023,0.177c-0.012,0.092-0.023,0.185-0.035,0.276
		c-0.136,1.039-0.27,2.074-0.402,3.104c-0.02,0.15-0.039,0.302-0.059,0.452c-0.04,0.309-0.08,0.619-0.119,0.927
		c-0.003,0.021-0.006,0.042-0.009,0.063c0,0.005-0.001,0.01-0.002,0.016h261.626L296.036,268.863L296.036,268.863z"/>
	<path fill="#CECECE" stroke="#494949" stroke-width="0.5" stroke-miterlimit="10" d="M799.978,293.768h-19.682h-29.889h-51.641
		h-10.992v-24.905h-18.771v-31.47h-76.727v20.047H474.183v-19.865h-92.945v18.954h-35.174v12.334h-27.702h-5.47H296.25v147.254
		h-34.992v6.074h-55.402c0,3.398,3.159,10.207,10.935,12.146c7.776,1.945,47.141,6.074,90.637,9.963
		c8.186,0.732,15.917,0.436,23.084-0.539v-27.891H303.54v-32.316l13.486-3.891h145.674l31.834-3.646l17.979-1.699l15.555-1.701
		h55.158v26.242h-21.867v43.445c11.33-0.404,22.396-1.107,32.803-1.955v-68.461c0,0,145.068,0,152.602,0
		c7.535,0,13.855-3.646,15.066-8.992v11.422h8.02v58.106c20.484,0.031,42.523,0.211,42.523,0.211v-138.87h-12.395V293.768z"/>
	<path fill="#CECECE" stroke="#494949" stroke-width="0.5" stroke-miterlimit="10" d="M344.788,325.236h68.341l23.785,18.59
		l6.287-9.297l1.273,1.277l2.371-3.279l10.205,8.521c0,0,0,9.883,0,14.438c0,4.559-0.91,6.746-6.926,7.477
		c-6.014,0.729-49.026,4.008-75.999,0c-26.972-4.012-31.833-4.375-36.693-6.928c-4.856-2.553-5.041-6.791-5.041-10.959
		c0-4.166,0.853-8.904,5.896-13.826C343.33,326.332,344.788,325.236,344.788,325.236z"/>
	<path fill="#CECECE" stroke="#494949" stroke-width="0.5" stroke-miterlimit="10" d="M498.787,346.376
		c0,4.373-1.094,8.201,11.299,8.201s37.543,2.188,44.469,3.463c0,0,12.396-13.485,16.402-14.765c4.008-1.272,14.215,0,14.215,0
		v16.222h34.17c0,0,0-19.683,0-23.873s-1.729-6.196-9.75-8.201c-8.018-2.006-31.523-3.28-41.004-3.28c-9.477,0-56.314,0-62.328,0
		c-6.016,0-7.498,2.938-7.498,7.119C498.761,335.441,498.787,346.376,498.787,346.376z"/>
	<path fill="#B5B5B5" stroke="#494949" stroke-width="0.5" stroke-miterlimit="10" d="M411.672,379.667v37.258
		c4.668,0.925,10.167,2.484,16.949,4.742v-42H411.672z"/>
	<path fill="#B5B5B5" stroke="#494949" stroke-width="0.5" stroke-miterlimit="10" d="M346.062,379.667v36.205h-15.552v27.891
		c12.581-1.703,23.41-5.469,31.832-9.338v-54.758H346.062L346.062,379.667z"/>
	<path fill="#B5B5B5" stroke="#494949" stroke-width="0.5" stroke-miterlimit="10" d="M362.344,379.667v54.758
		c7.979-3.666,13.792-7.422,16.892-9.605v-45.15L362.344,379.667L362.344,379.667z"/>
	<path fill="#CECECE" stroke="#494949" stroke-width="0.5" stroke-miterlimit="10" d="M457.052,341.05c0,0,0,9.884,0,14.438
		c0,2.475-0.271,4.244-1.477,5.467h14.223c0,0-0.172-15.854-0.172-19.902c0-4.048,0.912-6.154-1.457-7.887
		c-2.371-1.73-7.836-6.104-7.836-6.104l-8.062,9.998L457.052,341.05z"/>
</g>
<g id="Rooms">
	<path id="r533" fill="#939598" stroke="#494949" stroke-width="0.5" stroke-miterlimit="10" d="M261.258,416.117h34.992V268.863
		h-0.214v-12.881H34.41c-2.768,21.439-5.11,40.583-6.185,51.758c-3.645,37.906,6.318,61.965,47.871,90.396
		c3.63,2.481,7.616,4.714,11.868,6.724c44.422,20.977,117.892,17.334,117.892,17.334h55.402V416.117z"/>
	<path id="r503-2" fill="#939598" stroke="#494949" stroke-width="0.5" stroke-miterlimit="10" d="M381.237,268.375v40.093
		c4.466,0,9.118,0,13.911,0v-40.093H381.237z"/>
	<path id="r503-1" fill="#939598" stroke="#494949" stroke-width="0.5" stroke-miterlimit="10" d="M381.237,256.529h-18.896v51.942
		c5.772,0,12.121,0,18.896,0v-40.095V256.529z"/>
	<path id="r503-3" fill="#939598" stroke="#494949" stroke-width="0.5" stroke-miterlimit="10" d="M395.148,268.375v40.093
		c5.812,0,11.828,0,17.979,0v-40.093H395.148z"/>
	<path id="r502-1" fill="#939598" stroke="#494949" stroke-width="0.5" stroke-miterlimit="10" d="M328.81,268.863v39.548
		l0.487,0.06c0,0,6.282,0,16.77,0v-39.606L328.81,268.863L328.81,268.863z"/>
	<path id="r502-2" fill="#939598" stroke="#494949" stroke-width="0.5" stroke-miterlimit="10" d="M346.062,256.529v12.334v39.607
		c4.658,0,10.145,0,16.28,0v-51.941H346.062L346.062,256.529z"/>
	<polygon id="r501" fill="#939598" stroke="#494949" stroke-width="0.5" stroke-miterlimit="10" points="310.829,268.863 
		310.829,306.281 328.81,308.412 328.81,268.863 	"/>
	<path id="r504" fill="#939598" stroke="#494949" stroke-width="0.5" stroke-miterlimit="10" d="M413.129,268.375v40.093
		c7.391,0,14.966,0,22.599,0v-40.093H413.129z"/>
	<path id="r508-1" fill="#939598" stroke="#494949" stroke-width="0.5" stroke-miterlimit="10" d="M528.552,257.44v51.031
		c6.152,0,11.643,0,16.281,0V257.44H528.552z"/>
	<path id="r507-1" fill="#939598" stroke="#494949" stroke-width="0.5" stroke-miterlimit="10" d="M495.019,257.44v51.031
		c5.912,0,11.605,0,17.01,0V257.44H495.019z"/>
	<path id="r507-2" fill="#939598" stroke="#494949" stroke-width="0.5" stroke-miterlimit="10" d="M512.027,257.44v51.031
		c5.895,0,11.438,0,16.525,0V257.44H512.027z"/>
	<path id="r508-2" fill="#939598" stroke="#494949" stroke-width="0.5" stroke-miterlimit="10" d="M561.359,287.45v-30.01h-16.525
		v51.031c9.25,0,15.129,0,16.16,0c6.926,0,10.812-6.32,10.812-8.507c0-2.188,0-12.514,0-12.514H561.359L561.359,287.45z"/>
	<path id="r506-2" fill="#939598" stroke="#494949" stroke-width="0.5" stroke-miterlimit="10" d="M478.98,257.44v51.031
		c5.475,0,10.84,0,16.037,0V257.44H478.98z"/>
	<path id="r505" fill="#939598" stroke="#494949" stroke-width="0.5" stroke-miterlimit="10" d="M444.476,268.375v40.093
		c6.014,0,12.029,0,17.982,0v-40.093H444.476z"/>
	<path id="r506-1" fill="#939598" stroke="#494949" stroke-width="0.5" stroke-miterlimit="10" d="M474.183,257.44l0.062,3.888
		H462.46v7.047v40.093c5.58,0,11.105,0,16.52,0v-51.029L474.183,257.44L474.183,257.44z"/>
	<path id="r509" fill="#939598" stroke="#494949" stroke-width="0.5" stroke-miterlimit="10" d="M584.351,271.655
		c0,0,0,27.336,0,30.161c0,2.824,0.73,6.471,4.012,6.65c1.941,0.109,12.23,1.111,22.324,2.195v-39.01h-26.336V271.655z"/>
	<path id="r511" fill="#939598" stroke="#494949" stroke-width="0.5" stroke-miterlimit="10" d="M628,279.127v33.561
		c0.156,0.021,0.309,0.043,0.455,0.063c9.75,1.367,15.49,5.467,19.5,9.66c3.736,3.901,11.498,8.121,12.545,8.682v-51.966H628z"/>
	<path id="r510" fill="#939598" stroke="#494949" stroke-width="0.5" stroke-miterlimit="10" d="M628,271.655h-17.312v39.01
		c6.686,0.719,13.283,1.472,17.312,2.022v-33.562V271.655z"/>
	<path id="r512-513" fill="#939598" stroke="#494949" stroke-width="0.5" stroke-miterlimit="10" d="M693.304,293.767
		L693.304,293.767l-5.527,0.001v-14.64H660.5v51.965c0.078,0.041,0.121,0.066,0.121,0.066s15.609,0.053,32.684,0.102
		c9.371,0.025,19.186,0.054,27.1,0.064v-37.559L693.304,293.767L693.304,293.767z"/>
	<path id="r514-515" fill="#939598" stroke="#494949" stroke-width="0.5" stroke-miterlimit="10" d="M747.128,293.767
		L747.128,293.767l-26.729,0.001v37.558c4.531,0.012,8.447,0.018,11.299,0.018c3.443,0,6.758,0.85,9.838,2.193v-0.001
		c11.973,5.239,20.506,18.036,20.506,18.036v-32.168h10.02v-25.637H747.128z"/>
	<path id="r520" fill="#939598" stroke="#494949" stroke-width="0.5" stroke-miterlimit="10" d="M628,371.893v65.101
		c12.705-1.436,23.52-2.222,32.5-2.611v-62.485C649,371.893,637.812,371.893,628,371.893z"/>
	<path id="r521" fill="#939598" stroke="#494949" stroke-width="0.5" stroke-miterlimit="10" d="M594.162,371.893v68.466
		c11.918-0.969,22.973-2.117,32.562-3.225c0.432-0.049,0.854-0.096,1.275-0.145v-65.099
		C608.31,371.893,594.162,371.893,594.162,371.893z"/>
	<path id="r518" fill="#939598" stroke="#494949" stroke-width="0.5" stroke-miterlimit="10" d="M694.337,371.893v57.038
		c8.439,0.52,17.566,1.77,26.062,2.684v-59.722C712.687,371.893,703.781,371.893,694.337,371.893z"/>
	<path id="r516" fill="#939598" stroke="#494949" stroke-width="0.5" stroke-miterlimit="10" d="M761.83,374.32V362.9
		c-1.182,5.201-7.197,8.789-14.459,8.979v60.598c6.209-0.053,14.215-0.062,22.479-0.051V374.32H761.83L761.83,374.32z"/>
	<path id="r517" fill="#939598" stroke="#494949" stroke-width="0.5" stroke-miterlimit="10" d="M746.763,371.893
		c-1.855,0-12.053,0-26.363,0v59.722c6.527,0.705,12.684,1.211,17.859,1.025c2.096-0.07,5.26-0.127,9.111-0.158v-60.6
		C747.169,371.889,746.966,371.893,746.763,371.893z"/>
	<path id="r527-1" fill="#939598" stroke="#494949" stroke-width="0.5" stroke-miterlimit="10" d="M395.148,379.667v37.078
		c4.686-1.166,9.728-1.168,16.521,0.18v-37.258H395.148z"/>
	<path id="r528-2" fill="#939598" stroke="#494949" stroke-width="0.5" stroke-miterlimit="10" d="M379.232,379.667v45.15
		c1.669-1.18,2.551-1.898,2.551-1.898c4.91-2.974,8.98-5.082,13.363-6.174v-37.078H379.232L379.232,379.667z"/>
	<path id="r526-1-526-2" fill="#939598" stroke="#494949" stroke-width="0.5" stroke-miterlimit="10" d="M445.205,379.666v0.002
		h-16.584v42c4.826,1.607,10.297,3.563,16.584,5.898c2.684,0.992,5.514,2.057,8.506,3.188c2.811,1.064,5.73,2.041,8.748,2.943
		v-54.033L445.205,379.666L445.205,379.666z"/>
	
		<rect id="r522" x="561.359" y="372.621" fill="#939598" stroke="#494949" stroke-width="0.5" stroke-miterlimit="10" width="21.867" height="26.243"/>
	<path id="r523-1-523-2" fill="#939598" stroke="#494949" stroke-width="0.5" stroke-miterlimit="10" d="M544.833,372.621h-16.281
		v69.916c5.416,0.139,10.855,0.18,16.281,0.139c5.539-0.045,11.062-0.168,16.525-0.365v-43.443v-26.244L544.833,372.621
		L544.833,372.621z"/>
	<path id="r525" fill="#939598" stroke="#494949" stroke-width="0.5" stroke-miterlimit="10" d="M494.535,376.021l-31.834,3.646
		h-0.242v54.031c9.955,2.965,20.969,5.062,32.561,6.479v-64.2L494.535,376.021z"/>
	<path id="r524-2" fill="#939598" stroke="#494949" stroke-width="0.5" stroke-miterlimit="10" d="M528.068,372.621l-15.555,1.703
		l-0.486,0.043v67.412c5.453,0.365,10.977,0.611,16.525,0.758v-69.916H528.068L528.068,372.621z"/>
	<path id="r524-1" fill="#939598" stroke="#494949" stroke-width="0.5" stroke-miterlimit="10" d="M495.019,375.979v64.202
		c5.557,0.686,11.242,1.207,17.01,1.6v-67.41L495.019,375.979z"/>
	<polygon id="r530-2" fill="#939598" stroke="#494949" stroke-width="0.5" stroke-miterlimit="10" points="317.026,379.667 
		316.175,379.912 316.175,415.873 330.512,415.873 330.512,379.667 	"/>
	<polygon id="r530-1" fill="#939598" stroke="#494949" stroke-width="0.5" stroke-miterlimit="10" points="303.54,383.557 
		303.54,415.873 316.175,415.873 316.175,379.912 	"/>
	
		<rect id="r529-2" x="330.512" y="379.667" fill="#939598" stroke="#494949" stroke-width="0.5" stroke-miterlimit="10" width="15.555" height="36.205"/>
	<g id="k502-519">
		<path fill="#939598" stroke="#494949" stroke-width="0.5" stroke-miterlimit="10" d="M660.5,434.378
			c22.861-0.998,33.838,0.568,33.838,0.568v-6.018v-57.038c-10.904,0-22.52,0-33.838,0V434.378z"/>
		
			<rect x="669.005" y="344.188" fill="#939598" stroke="#494949" stroke-width="0.5" stroke-miterlimit="10" width="26.607" height="13.854"/>
	</g>
	
		<rect id="k503" x="706.851" y="344.188" fill="#939598" stroke="#494949" stroke-width="0.5" stroke-miterlimit="10" width="13.549" height="13.854"/>
	
		<rect id="k504" x="720.398" y="344.188" fill="#939598" stroke="#494949" stroke-width="0.5" stroke-miterlimit="10" width="13.363" height="13.854"/>
	<path id="k501" fill="#939598" stroke="#494949" stroke-width="0.5" stroke-miterlimit="10" d="M498.787,346.376
		c0,0-0.025-10.935-0.025-15.114c0-4.182,1.482-7.119,7.498-7.119c0.797,0,2.318,0,4.373,0c0,0-16.949-0.912-19.682-0.912
		c-2.736,0-7.656,2.009-7.656,6.929c0,4.922,0,0.547,0,13.852c0,13.304,6.928,11.847,11.725,12.027
		c2.48,0.092,5.008-1.222,6.869-2.517C498.281,352.085,498.787,349.359,498.787,346.376z"/>
</g>
<g id="Signs">
	<rect x="389.328" y="177.196" opacity="0.8" enable-background="new    " width="14.811" height="14.811"/>
	<rect id="parking" x="347.533" y="177.196" opacity="0.8" enable-background="new    " width="14.811" height="14.811"/>
	<rect id="vat-refund" x="54.7" y="288.423" opacity="0.8" enable-background="new    " width="14.811" height="14.812"/>
	<g id="escalator">
		<rect x="173.033" y="329.363" opacity="0.8" enable-background="new    " width="14.811" height="14.811"/>
		<rect x="409.618" y="337.671" opacity="0.8" enable-background="new    " width="14.811" height="14.812"/>
		<rect x="595.119" y="337.671" opacity="0.8" enable-background="new    " width="14.811" height="14.812"/>
	</g>
	<g id="lift">
		<rect x="565.859" y="268.863" opacity="0.8" enable-background="new    " width="14.811" height="14.811"/>
		<rect x="268.533" y="259.363" opacity="0.8" enable-background="new    " width="14.811" height="14.811"/>
		<rect x="776.787" y="350.634" opacity="0.8" enable-background="new    " width="14.811" height="14.812"/>
	</g>
	<rect id="telephone" x="602.525" y="254.052" opacity="0.8" enable-background="new    " width="14.811" height="14.813"/>
	<g id="toilet">
		<rect x="279.594" y="422.433" opacity="0.8" enable-background="new    " width="14.811" height="14.813"/>
		<rect x="624.525" y="250.035" opacity="0.8" enable-background="new    " width="14.811" height="14.811"/>
	</g>
	<rect id="baby-change-room" x="645.689" y="250.034" opacity="0.8" enable-background="new    " width="14.811" height="14.811"/>
	<g id="handicapped-toilet">
		<rect x="302.452" y="422.433" opacity="0.8" enable-background="new    " width="14.811" height="14.812"/>
		<rect x="665.689" y="250.034" opacity="0.8" enable-background="new    " width="14.811" height="14.811"/>
	</g>
</g>
</svg>
