<?xml version="1.0" encoding="utf-8"?>
<!-- Generator: Adobe Illustrator 16.0.0, SVG Export Plug-In . SVG Version: 6.00 Build 0)  -->
<!DOCTYPE svg PUBLIC "-//W3C//DTD SVG 1.1//EN" "http://www.w3.org/Graphics/SVG/1.1/DTD/svg11.dtd">
<svg version="1.1" id="Layer_1" xmlns="http://www.w3.org/2000/svg" xmlns:xlink="http://www.w3.org/1999/xlink" x="0px" y="0px"
	 width="1716px" height="1408px" viewBox="0 0 1716 1408" enable-background="new 0 0 1716 1408" xml:space="preserve">
<g id="background">
	<rect fill="#FFFFFF" width="1716" height="1408"/>
</g>
<g id="etc">
	
		<rect x="1308.167" y="296.208" transform="matrix(0.7071 -0.7071 0.7071 0.7071 123.5255 1068.5977)" fill="#83B7AD" stroke="#1D937D" stroke-miterlimit="10" width="86.999" height="177.967"/>
	<polygon fill="#83B7AD" stroke="#1D937D" stroke-miterlimit="10" points="1137.843,349.881 1116.094,371.629 1147.592,403.128 
		1158.092,413.627 1179.84,391.878 	"/>
	<polygon fill="#83B7AD" stroke="#1D937D" stroke-miterlimit="10" points="1256.337,409.877 1227.088,439.126 1179.84,391.878 
		1158.092,413.627 1147.592,403.128 1094.344,456.375 1062.846,424.877 1009.599,478.124 977.35,510.373 977.489,510.511 1028,460 
		977.489,510.511 1020.848,553.87 994.6,580.119 1135.24,720.76 1135.24,720.76 1137.093,722.612 1230.854,628.854 
		1353.082,506.623 	"/>
	
		<rect x="1082.939" y="376.354" transform="matrix(-0.7071 -0.7071 0.7071 -0.7071 1593.9683 1488.2531)" fill="#83B7AD" stroke="#1D937D" stroke-miterlimit="10" width="44.545" height="75.302"/>
	
		<rect x="945.729" y="523.448" transform="matrix(0.7071 -0.7071 0.7071 0.7071 -87.7637 835.2181)" fill="#83B7AD" stroke="#1D937D" stroke-miterlimit="10" width="37.121" height="0.196"/>
	
		<rect x="955.38" y="526.755" transform="matrix(-0.7071 -0.7071 0.7071 -0.7071 1297.6892 1628.1448)" fill="#83B7AD" stroke="#1D937D" stroke-miterlimit="10" width="61.319" height="37.122"/>
	<polygon fill="#83B7AD" stroke="#1D937D" stroke-miterlimit="10" points="216.5,546.5 137.997,625.003 229.211,716.789 
		308.002,637.999 	"/>
	<polygon fill="#83B7AD" stroke="#1D937D" stroke-miterlimit="10" points="1266.998,238.999 1179.998,325.999 1232.5,378.5 
		1257.98,353.019 1319.5,291.5 	"/>
	<polygon fill="#83B7AD" stroke="#1D937D" stroke-miterlimit="10" points="1256.5,228.5 1256.354,228.354 1189.665,161.665 
		1066.668,284.662 1099.503,317.498 1135.5,281.5 1179.998,325.999 1266.998,238.999 	"/>
	<polygon fill="#83B7AD" stroke="#1D937D" stroke-miterlimit="10" points="458,500.666 458,499.333 456.667,500.666 	"/>
	<polygon fill="#83B7AD" stroke="#1D937D" stroke-miterlimit="10" points="581.365,733.85 516.279,798.935 651.271,933.928 
		678.109,907.091 780.104,805.096 645.111,670.104 	"/>
	
		<rect x="860.06" y="1014.254" transform="matrix(-0.7071 -0.7071 0.7071 -0.7071 832.31 2389.1721)" fill="#83B7AD" stroke="#1D937D" stroke-miterlimit="10" width="101.818" height="15.91"/>
	
		<rect x="944.035" y="1011.745" transform="matrix(0.7071 -0.7071 0.7071 0.7071 -430.3485 1004.6807)" fill="#83B7AD" stroke="#1D937D" stroke-miterlimit="10" width="107.118" height="20.153"/>
	
		<rect x="903.571" y="925.153" transform="matrix(0.7071 0.7071 -0.7071 0.7071 971.6056 -388.2612)" fill="#83B7AD" stroke="#1D937D" stroke-miterlimit="10" width="101.817" height="107.119"/>
	
		<rect x="857.038" y="923.703" transform="matrix(0.7071 -0.7071 0.7071 0.7071 -394.3228 917.706)" fill="#83B7AD" stroke="#1D937D" stroke-miterlimit="10" width="107.119" height="22.271"/>
	<polygon fill="#83B7AD" stroke="#1D937D" stroke-miterlimit="10" points="767.673,1196.326 767.673,1196.326 767.673,1196.326 
		811.339,1152.66 755.339,1096.66 755.339,1096.66 755.339,1096.66 784.339,1067.66 741.006,1024.327 637.604,1127.73 
		764.705,1254.628 795.339,1223.993 	"/>
	<polygon fill="#83B7AD" stroke="#1D937D" stroke-miterlimit="10" points="556.617,150 421.624,150 333.128,150 236.667,150 
		234,150 234,304 261,304 261,376 323.5,438.5 385,500 457.333,500 458,499.333 502.667,454.667 580,532 594.333,546.333 
		785,355.667 864,434.667 864,150 	"/>
	<path fill="#83B7AD" stroke="#1D937D" stroke-miterlimit="10" d="M466.99,549.289c25.919,0,47.813,17.189,54.932,40.789L580,532
		l-77.333-77.333L458,499.333v1.333v49.329C460.93,549.534,463.931,549.289,466.99,549.289z"/>
	<path fill="#94BFAF" stroke="#679B8C" stroke-miterlimit="10" d="M1478.351,450.35l-33.007-33.006l-61.519,61.521L1257.98,353.019
		L1232.5,378.5l-52.502-52.501L1135.5,281.5l-35.997,35.998L1014.5,402.5l-91.333,91.333L922.5,494.5L864,436v-1.333l-79-79
		L594.333,546.333L580,532l-58.078,58.078c1.584,5.253,2.445,10.818,2.445,16.589c0,31.688-25.688,57.377-57.377,57.377
		c-31.689,0-57.377-25.688-57.377-57.377c0-28.63,20.97-52.356,48.388-56.671v-49.329h-1.333l0.666-0.666H385l-60.5-60.5L217,547
		l55.667,55.666l17.671-17.672l-20.333-20.333l6-6l172.333,172.333l67.941,67.939l65.085-65.085l-56.998-56.997l82.496-82.494
		l288.733,288.733l-120.744,120.744l-96.744-96.745l-26.839,26.837l133.067,133.732c0,0,25.362-30.34,80.511,0
		c55.149,30.34,85.149,47.006,139.816,31.673s77.333-75.006,77.333-75.006s25.089-204.232,74.586-250.73
		S1479.1,451.099,1479.1,451.099L1478.351,450.35z M966.846,1066.833l-14.25-14.25l-11.25,11.25l-71.997-71.997l11.25-11.249
		l-15.749-15.749l75.746-75.746l15.749,15.749l71.996,71.997l14.249,14.249L966.846,1066.833z M1352.334,507.371l-83.996,83.996
		l-37.484,37.483l-93.57,93.571l-0.188,0.188l0.188-0.188L1002,857h-87l0,0l0,0L625,567l0,0l0,0l145.5-145.5l0,0l0,0l148,148
		l32.74-32.74l-0.139-0.139l0.76-0.76l25.487-25.489l83.513-83.511l1.982-1.984l53.248-53.248l21.749-21.749l41.997,41.998
		l47.248,47.248l29.249-29.249l96.745,96.745L1352.334,507.371z"/>
	<circle fill="#83B7AD" stroke="#1D937D" stroke-miterlimit="10" cx="466.99" cy="606.666" r="57.377"/>
</g>
<g id="rooms">
	<polygon id="discovery-hubba" fill="#5F9E93" stroke="#3B7F72" stroke-miterlimit="10" points="968,356 968,356 968,278 968,278 
		968,278 1058,188 1056.61,186.61 1020,150 864,150 864,436 922.5,494.5 1014.5,402.5 	"/>
	<polygon id="strip-browhaus" fill="#5F9E93" stroke="#3B7F72" stroke-miterlimit="10" points="1066.668,284.662 1066.668,284.662 
		1189.665,161.665 1170,142 1104,142 1058,188 968,278 968,356 1014.5,402.5 1099.503,317.498 	"/>
	<polygon id="viz-lounge" fill="#5F9E93" stroke="#3B7F72" stroke-miterlimit="10" points="276.005,558.661 270.005,564.661 
		290.338,584.994 290.338,584.994 290.338,584.994 272.667,602.666 308.002,637.999 229.211,716.789 345.514,833.818 
		448.338,730.993 	"/>
	<polygon id="toys-station" fill="#5F9E93" stroke="#3B7F72" stroke-miterlimit="10" points="651.271,933.928 516.279,798.935 
		516.279,798.935 448.338,730.993 345.514,833.818 637.604,1127.73 741.006,1024.327 	"/>
	<polygon id="the-living-room" fill="#5F9E93" stroke="#3B7F72" stroke-miterlimit="10" points="606.863,594.356 524.367,676.854 
		581.365,733.85 645.111,670.104 645.111,670.104 645.111,670.104 780.104,805.096 780.104,805.096 780.104,805.096 
		678.109,907.091 774.855,1003.836 895.599,883.092 	"/>
	<path id="madame-tussauds" fill="#5F9E93" stroke="#3B7F72" stroke-miterlimit="10" d="M764.705,1254.628l30.635-30.635
		l-27.667-27.667l43.666-43.666l-56-56l29-29c0,0,25.362-30.34,80.511,0c55.149,30.34,85.149,47.006,139.816,31.673
		s77.333-75.006,77.333-75.006s25.089-204.232,74.586-250.73S1479.1,451.099,1479.1,451.099L1519,491l-0.331,56.332l-54.168,56.032
		l54.499,53.97V1267H777L764.705,1254.628z"/>
	<polygon id="outback-steak-house" fill="#5F9E93" stroke="#3B7F72" stroke-miterlimit="10" points="323.5,438.5 261,376 261,304 
		234,304 234,150 137,150 137,624 137.997,625.003 216.5,546.5 217,547 324.5,439.5 	"/>
	<polygon id="play-lab" fill="#5F9E93" stroke="#3B7F72" stroke-miterlimit="10" points="951.24,536.76 918.5,569.5 918.5,569.5 
		918.5,569.5 770.5,421.5 625,567 915,857 1002,857 1137.093,722.612 994.6,580.119 	"/>
</g>
<g id="signs">
	<rect id="toilet" x="1155.5" y="227.5" fill="#26665A" width="45" height="45"/>
	<g id="stairs">
		<rect id="stairs-1" x="1123" y="347.5" fill="#26665A" width="45" height="45"/>
		<rect id="stairs-2" x="964" y="516.5" fill="#26665A" width="45" height="45"/>
	</g>
	<g id="escalator_3_">
		<rect id="escalator-2" x="437.5" y="506.721" fill="#26665A" width="45" height="45"/>
		<rect id="escalator-1" x="964" y="917" fill="#26665A" width="45" height="45"/>
	</g>
	<rect id="information" x="437.5" y="594.987" fill="#26665A" width="45" height="45"/>
	<rect id="elevator" x="1081" y="385.5" fill="#26665A" width="45" height="45"/>
</g>
</svg>
