<?xml version="1.0" encoding="utf-8"?>
<!-- Generator: Adobe Illustrator 17.0.0, SVG Export Plug-In . SVG Version: 6.00 Build 0)  -->
<!DOCTYPE svg PUBLIC "-//W3C//DTD SVG 1.1//EN" "http://www.w3.org/Graphics/SVG/1.1/DTD/svg11.dtd">
<svg version="1.1" id="Layer_1" xmlns="http://www.w3.org/2000/svg" xmlns:xlink="http://www.w3.org/1999/xlink" x="0px" y="0px"
	 width="1716px" height="1408px" viewBox="0 0 1716 1408" enable-background="new 0 0 1716 1408" xml:space="preserve">
<g id="background">
	<rect fill="#FFFFFF" width="1716" height="1408"/>
</g>
<g id="etc">
	<polygon fill="#83B7AD" stroke="#1D937D" stroke-miterlimit="10" points="1178.667,150.667 1059.001,270.333 1097,308.333 
		1132,273.333 1132,273.333 1132,273.333 1168.833,310.167 1253.5,225.5 	"/>
	
		<rect x="1080.531" y="370.178" transform="matrix(0.7071 0.7071 -0.7071 0.7071 611.7155 -660.7983)" fill="#83B7AD" stroke="#1D937D" stroke-miterlimit="10" width="45.962" height="75.657"/>
	<polygon fill="#83B7AD" stroke="#1D937D" stroke-miterlimit="10" points="1184,385 1139,340 1114,365 1146.5,397.5 1146.5,397.5 
		1159,410 	"/>
	<polygon fill="#83B7AD" stroke="#1D937D" stroke-miterlimit="10" points="1253.5,225.5 1139,340 1184,385 1184,385 1184,385 
		1159,410 1159,410 1159,410 1146.5,397.5 1093,451 1093,451 1093,451 1060.5,418.5 976.5,502.5 1023,549 1023,549 1023,549 
		996.5,575.5 1089,668 1137.5,716.5 1165.5,688.5 1441,413 	"/>
	
		<rect x="967.752" y="506.124" transform="matrix(-0.7071 0.7071 -0.7071 -0.7071 2065.178 222.583)" fill="#83B7AD" stroke="#1D937D" stroke-miterlimit="10" width="37.477" height="65.759"/>
	<polygon fill="#83B7AD" stroke="#1D937D" stroke-miterlimit="10" points="1441,413 1165.5,688.5 1263,786 1349.5,699.5 
		1361.5,711.5 1519,554 1519,553 1526,546 1526,498 	"/>
	<polygon fill="#83B7AD" stroke="#1D937D" stroke-miterlimit="10" points="1361.5,711.5 1361.5,711.5 1354,719 1357,722 1357,722 
		1519,884 1519,554 	"/>
	
		<rect x="1416.28" y="1184.594" transform="matrix(-0.7071 0.7071 -0.7071 -0.7071 3356.5786 1022.6893)" fill="#83B7AD" stroke="#1D937D" stroke-miterlimit="10" width="100.406" height="43.841"/>
	<polygon fill="none" points="1519,1185 1517.5,1186.5 1519,1188 	"/>
	<polyline fill="none" points="825,1060 825,1060 814.5,1068.5 825,1079 	"/>
	<polygon fill="#83B7AD" stroke="#1D937D" stroke-miterlimit="10" points="268.5,656.5 268.5,656.5 275.5,663.5 339,600 315,576 
		201.797,689.203 218.744,706.256 	"/>
	<polygon fill="#83B7AD" stroke="#1D937D" stroke-miterlimit="10" points="800,1054 749.5,1104.5 749.5,1104.5 749.5,1104.5 
		726.75,1081.75 659.118,1149.382 731.642,1222.358 850,1104 	"/>
	<path fill="#94BFAF" stroke="#679B8C" stroke-miterlimit="10" d="M1357,722v138l-40,40h-184l-97-96H934L606.5,476.5L764,319
		l198,198l14.5-14.5l84-84L1114,365l25-25l29.833-29.833L1132,273.333l-35,35L946.167,459.167L714,227l-22,22l49,49L584.5,454.5
		L439,309h-73.5L256,199.5V150H137v126h42.5l98,98v85.5L478,660l347,347v51v2h132h126h113h126l90.5,90.5L1376,1187l39.5,39.5l71-71
		l31,31l1.5-1.5V884L1357,722z M1332.092,1028.597h-221.988v-91.495h221.988V1028.597z"/>
	<polygon fill="#83B7AD" stroke="#1D937D" stroke-miterlimit="10" points="465,483 555.403,573.403 600.912,528.782 
		510.961,437.039 	"/>
	<rect x="1110.104" y="937.102" fill="#83B7AD" stroke="#1D937D" stroke-miterlimit="10" width="221.988" height="91.495"/>
</g>
<g id="rooms">
	<polygon id="marimekko" fill="#5F9E93" stroke="#3B7F72" stroke-miterlimit="10" points="1000.5,404.5 763,167 708.5,221.5 
		715.5,228.5 717.5,226.5 715.5,228.5 946,459 	"/>
	<polygon id="jamie-s-italian" fill="#5F9E93" stroke="#3B7F72" stroke-miterlimit="10" points="478,660 277.5,459.5 277.5,459.5 
		277.5,459.5 277.5,374 179.5,276 137,276 137,624 201.797,689.203 315,576 315,576 315,576 339,600 339,600 339,600 275.5,663.5 
		275.5,663.5 275.5,663.5 268.5,656.5 218.744,706.256 324.913,813.087 	"/>
	<polygon id="her-lab-3" fill="#5F9E93" stroke="#3B7F72" stroke-miterlimit="10" points="726.75,1081.75 726.75,1081.75 
		749.5,1104.5 800,1054 800,1054 800,1054 814.5,1068.5 825,1060 825,1007 478,660 324.913,813.087 659.118,1149.382 	"/>
	<polygon id="comme-des-garcons" fill="#5F9E93" stroke="#3B7F72" stroke-miterlimit="10" points="825,1060 814.5,1068.5 850,1104 
		731.642,1222.358 777,1268 957,1268 957,1060 	"/>
	<polygon id="coach" fill="#5F9E93" stroke="#3B7F72" stroke-miterlimit="10" points="1196,1060 1083,1060 1083,1177 1096,1177 
		1096,1177 1196,1177 	"/>
	<polygon id="rag-bone" fill="#5F9E93" stroke="#3B7F72" stroke-miterlimit="10" points="1083,1177 1083,1177 1083,1177 1083,1060 
		957,1060 957,1268 1096,1268 1096,1177 	"/>
	<polygon id="diesel" fill="#5F9E93" stroke="#3B7F72" stroke-miterlimit="10" points="1519,1188 1517.5,1186.5 1446.5,1257.5 
		1446.5,1257.5 1446.5,1257.5 1415.5,1226.5 1415.5,1226.5 1376,1187 1376,1187 1376,1187 1412.5,1150.5 1322,1060 1196,1060 
		1196,1177 1196,1177 1196,1177 1096,1177 1096,1268 1519,1268 	"/>
	<polygon id="her-lab-2" fill="#5F9E93" stroke="#3B7F72" stroke-miterlimit="10" points="950,529 962,517 764,319 606.5,476.5 
		934,804 1036,804 1036,721 1089,668 	"/>
	<polygon id="issey-miyake" fill="#5F9E93" stroke="#3B7F72" stroke-miterlimit="10" points="1354,719 1361.5,711.5 1349.5,699.5 
		1263,786 1263,786 1263,786 1165.5,688.5 1137.5,716.5 1137.5,716.5 1137.5,716.5 1089,668 1036,721 1036.023,804.061 1133,900 
		1317,900 1357,860 1357,722 	"/>
	
		<rect id="discovery-atrium" x="537.546" y="710.69" transform="matrix(0.707 0.7072 -0.7072 0.707 769.4368 -302.7973)" fill="#5F9E93" stroke="#3B7F72" stroke-miterlimit="10" width="425.216" height="133.037"/>
	<polyline id="pandora" fill="#5F9E93" stroke="#3B7F72" stroke-miterlimit="10" points="409.345,430.235 457.128,383.213 
		422.64,349.855 324.343,446.235 358.827,480.839 409.345,430.235 	"/>
	<polygon id="her-lab-1" fill="#5F9E93" stroke="#3B7F72" stroke-miterlimit="10" points="1178.667,150.667 1170,142 1104,142 
		1058,188 1020,150 256,150 256,199.5 365.5,309 439,309 584.5,454.5 741,298 692,249 714,227 708.5,221.5 763,167 1000.5,404.5 
		946,459 946.167,459.167 1097,308.333 1059.001,270.333 	"/>
	<polygon id="sunglass-hut" fill="#5F9E93" stroke="#3B7F72" stroke-miterlimit="10" points="414.832,535.272 466.052,484.052 
		554.575,572.575 502.793,624.985 	"/>
	<polygon id="rebecca-mikoff" fill="#5F9E93" stroke="#3B7F72" stroke-miterlimit="10" points="409.682,427.682 455.634,381.73 
		545.668,471.182 499.231,517.231 	"/>
	<polygon id="jewelry" fill="#5F9E93" stroke="#3B7F72" stroke-miterlimit="10" points="357.782,479.79 414.832,535.272 
		466.052,484.238 409.743,427.743 	"/>
</g>
<g id="signs">
	<g id="entrance">
		<rect id="entrance-1" x="114.5" y="195.124" fill="#26665A" width="45" height="45"/>
		<rect id="entrance-2" x="1414" y="781.5" fill="#26665A" width="45" height="45"/>
	</g>
	<rect id="escalator" x="519.426" y="482.721" fill="#26665A" width="45" height="45"/>
	<rect id="toilet" x="1145" y="213.626" fill="#26665A" width="45" height="45"/>
	<rect id="atm" x="1167.5" y="317.5" fill="#26665A" width="45" height="45"/>
	<g id="lift">
		<rect id="lift-1" x="1081" y="385.5" fill="#26665A" width="45" height="45"/>
		<rect id="lift-2" x="1444" y="1184" fill="#26665A" width="45" height="45"/>
	</g>
	<g id="stairs">
		<rect id="stairs-1" x="1123" y="347.5" fill="#26665A" width="45" height="45"/>
		<rect id="stairs-2" x="964" y="516.5" fill="#26665A" width="45" height="45"/>
	</g>
	<g id="information">
		<rect id="information-1" x="1393" y="952.085" fill="#26665A" width="45" height="45"/>
		<rect id="information-2" x="171.535" y="342.5" fill="#26665A" width="45" height="45"/>
	</g>
</g>
</svg>
