<?xml version="1.0" encoding="utf-8"?>
<!-- Generator: Adobe Illustrator 16.0.0, SVG Export Plug-In . SVG Version: 6.00 Build 0)  -->
<!DOCTYPE svg PUBLIC "-//W3C//DTD SVG 1.1//EN" "http://www.w3.org/Graphics/SVG/1.1/DTD/svg11.dtd">
<svg version="1.1" id="Layer_1" xmlns="http://www.w3.org/2000/svg" xmlns:xlink="http://www.w3.org/1999/xlink" x="0px" y="0px"
	 width="1716px" height="1408px" viewBox="0 0 1716 1408" enable-background="new 0 0 1716 1408" xml:space="preserve">
<g id="background">
	<rect fill="#FFFFFF" width="1716" height="1408"/>
</g>
<g id="etc">
	<polygon fill="#83B7AD" stroke="#1D937D" stroke-miterlimit="10" points="1256.354,228.354 1164.088,320.621 1227.084,383.617 
		1257.832,352.869 1383.825,478.862 1445.344,417.344 	"/>
	<polygon fill="#83B7AD" stroke="#1D937D" stroke-miterlimit="10" points="1184.357,156.357 1181.355,153.356 1170,142 1104,142 
		1058,188 1056.61,186.61 1046.342,196.878 1095.09,245.625 1059.091,281.624 1099.589,322.122 1132.589,289.122 1164.088,320.621 
		1256.354,228.354 	"/>
	<polygon fill="#83B7AD" stroke="#1D937D" stroke-miterlimit="10" points="276.133,607.112 263.379,594.359 185.218,672.52 
		234.566,722.176 267.134,689.608 350.381,606.361 313.633,569.612 	"/>
	<polygon fill="#83B7AD" stroke="#1D937D" stroke-miterlimit="10" points="1359.077,1036.091 1358.327,1036.841 1359.077,1037.591 	
		"/>
	<path fill="#94BFAF" stroke="#679B8C" stroke-miterlimit="10" d="M1359.077,712.414v188.689h-235.483l-43.498-43.498
		l-49.498,49.498L805.609,682.114L526.623,403.128H364.631v-94.495h475.479l169.489,169.491l53.247-53.247l53.248-53.248
		l21.749-21.749l41.997,41.998l47.248,47.248l29.249-29.249l96.745,96.745l34.498,34.498l90.771-90.771l-33.009-33.006
		l-61.519,61.521L1257.831,352.87l-30.748,30.748l-62.996-62.996l-31.499-31.499l-33,33l-95.994,95.994L914.35,328.87
		l-57.748-57.747H556.617H421.624h-88.495v82.497v82.496v88.494l-69.749,69.749l12.753,12.753l37.5-37.5l20.997-20.997
		l36.749,36.749l-20.997,20.997l-83.248,83.248l30.749,30.749l116.994-116.994l379.48,379.479l-119.993,119.994l29.998,29.998
		l122.241-122.242l35.997,35.997l-62.247,62.246l26.25,26.25l65.997-65.997h152.992h280.485l32.249-32.249l0.75-0.75v1.5
		L1519,1197.514V873L1359.077,712.414z M519.123,617.617v-50.998l-32.998-32.998l-23.999,23.999l-74.997-74.996l29.999-29.999
		h94.495l188.991,188.991H543.122L519.123,617.617z M897.104,995.598L607.619,706.112h158.992l92.994,92.995v55.498l29.25,29.247
		l26.248-26.247l78.745,78.744l-28.497,28.499l30.747,30.748L897.104,995.598L897.104,995.598z M1314.083,1019.597h-215.988v-71.996
		h215.988V1019.597z"/>
	<polygon opacity="0.4" fill="#5F9E93" stroke="#3B7F72" stroke-miterlimit="10" enable-background="new    " points="
		486.125,533.621 486.125,533.621 486.125,533.621 519.123,566.619 519.123,566.619 519.123,566.619 519.123,617.617 
		543.122,641.616 700.614,641.616 511.624,452.625 417.128,452.625 387.13,482.624 462.126,557.62 	"/>
	<polygon fill="#83B7AD" stroke="#1D937D" stroke-miterlimit="10" points="996.099,995.598 965.352,964.85 965.352,964.85 
		965.352,964.85 993.85,936.351 915.104,857.604 888.854,883.854 888.854,883.854 888.854,883.854 859.605,854.605 859.605,854.605 
		859.605,854.605 859.605,799.107 766.611,706.112 607.619,706.112 897.104,995.598 	"/>
	<polygon fill="#83B7AD" stroke="#1D937D" stroke-miterlimit="10" points="1179.84,391.878 1137.843,349.881 1116.094,371.629 
		1147.592,403.128 1147.592,403.128 1158.092,413.627 	"/>
	<polygon fill="#83B7AD" stroke="#1D937D" stroke-miterlimit="10" points="1256.337,409.877 1227.088,439.126 1227.088,439.126 
		1227.088,439.126 1179.84,391.878 1158.092,413.627 1158.092,413.627 1158.092,413.627 1147.592,403.128 1094.344,456.375 
		1094.344,456.375 1094.344,456.375 1062.846,424.877 1009.599,478.124 1009.599,478.124 977.35,510.373 1020.848,553.87 
		1020.848,553.87 1020.848,553.87 994.6,580.119 1137.093,722.612 1353.082,506.623 	"/>
	
		<rect x="1082.962" y="376.344" transform="matrix(0.7071 0.7071 -0.7071 0.7071 616.4547 -660.2626)" fill="#83B7AD" stroke="#1D937D" stroke-miterlimit="10" width="44.545" height="75.303"/>
	
		<rect x="967.415" y="514.489" transform="matrix(0.7071 -0.7071 0.7071 0.7071 -96.7612 856.8888)" fill="#83B7AD" stroke="#1D937D" stroke-miterlimit="10" width="37.12" height="61.513"/>
	<polygon fill="#83B7AD" stroke="#1D937D" stroke-miterlimit="10" points="786.109,1051.09 704.362,1132.836 673.423,1163.775 
		735.475,1226.216 826.604,1135.087 800.355,1108.837 822.105,1087.086 	"/>
	<path fill="#83B7AD" stroke="#1D937D" stroke-miterlimit="10" d="M659.5,848l-75.744-75.757C531.013,768.986,540.5,817,540.5,817
		L494,865l72,72v68.5c0,0,31.5-1,24.5-44.5s23.5-39.5,23.5-39.5s39.987-9,27.5-56.5C656.5,851,659.5,848,659.5,848z"/>
	<polygon fill="#83B7AD" stroke="#1D937D" stroke-miterlimit="10" points="387.13,482.624 462.126,557.62 486.125,533.621 517,567 
		519.123,617.617 543.122,641.616 700.614,641.616 514.462,452.625 417.229,450.35 	"/>
	<polygon fill="#83B7AD" stroke="#1D937D" stroke-miterlimit="10" points="461,832 343.708,832 566,1055.682 566,937 	"/>
</g>
<g id="rooms">
	<polygon opacity="0.4" fill="#5F9E93" stroke="#3B7F72" stroke-miterlimit="10" enable-background="new    " points="
		794.357,982.844 414.876,603.363 297.882,720.357 267.134,689.608 234.566,722.176 343.708,832 461,832 461,832 461,832 566,937 
		566,937 566,937 566,1055.682 673.423,1163.775 704.362,1132.836 674.364,1102.838 	"/>
	<path id="oakley" fill="#5F9E93" stroke="#3B7F72" stroke-miterlimit="10" d="M414.876,603.363L297.882,720.357l-30.749-30.749
		l-32.568,32.566l79.877,80.377c0,0,33.557-31.053,38.557-36.053c-3-5.5,0.5-12,0.5-12l9,9.5c0,0,19-2.5,19.5-20.5
		c-2.5-47,32-37.388,32-37.388l51.256-52.369L414.876,603.363z"/>
	<path id="e-jeans" fill="#5F9E93" stroke="#3B7F72" stroke-miterlimit="10" d="M403,832h58l33,33l46.5-48
		c0,0-9.487-48.014,43.256-44.757c-28.75-28.75-63.743-63.743-63.743-63.743L403,832z"/>
	<path id="onitsuka-tiger-asics-tiger" fill="#5F9E93" stroke="#3B7F72" stroke-miterlimit="10" d="M794.357,982.844l-58.885-58.881
		C735.447,923.988,693.495,964.005,678,979c3,38-24,31.5-36,31.594S623.5,1021,623.5,1021s4.5,2.5,10.5,11.5
		c-1.5,15-23.5,15-23.5,15l-26.146,26.649l89.069,89.626l30.939-30.939l-29.998-29.998L794.357,982.844z"/>
	<path id="fred-perry" fill="#5F9E93" stroke="#3B7F72" stroke-miterlimit="10" d="M735.475,923.962L659.5,848c0,0-3,3-18,17
		c12.487,47.5-27.5,56.5-27.5,56.5s-30.5-4-23.5,39.5s-24.5,44.5-24.5,44.5v50.182l18.354,18.47l26.146-26.65c0,0,22,0,23.5-15
		c-6-9-10.5-11.5-10.5-11.5s6.5-10.312,18.5-10.406c12-0.093,39,6.406,36-31.594C693.5,964,735.475,923.962,735.475,923.962z"/>
	<path id="levi-s" fill="#5F9E93" stroke="#3B7F72" stroke-miterlimit="10" d="M465.256,653.744L414,706.112
		c0,0-34.5-9.612-32,37.388c-0.5,18-19.5,20.5-19.5,20.5l-9-9.5c0,0-3.5,6.5-0.5,12c-5,5-38.557,36.053-38.557,36.053L343.708,832
		H403l117.013-123.5L465.256,653.744z"/>
	<circle id="boost-juice" fill="#5F9E93" stroke="#3B7F72" stroke-miterlimit="10" cx="577.378" cy="811.375" r="24.622"/>
	
		<ellipse id="dressed" fill="#5F9E93" stroke="#3B7F72" stroke-miterlimit="10" cx="602.811" cy="881.188" rx="29.812" ry="28.813"/>
	<polygon id="lacoste" fill="#5F9E93" stroke="#3B7F72" stroke-miterlimit="10" points="333.128,271.123 333.128,271.123 
		333.128,150 137,150 137,353.62 333.128,353.62 	"/>
	<rect id="vans" x="137" y="353.62" fill="#5F9E93" stroke="#3B7F72" stroke-miterlimit="10" width="196.128" height="82.496"/>
	<polygon id="converse" fill="#5F9E93" stroke="#3B7F72" stroke-miterlimit="10" points="333.128,436.116 137,436.116 137,624 
		185.218,672.52 263.379,594.359 333.128,524.61 	"/>
	
		<rect id="palladium" x="333.128" y="150" fill="#5F9E93" stroke="#3B7F72" stroke-miterlimit="10" width="88.495" height="121.123"/>
	<polygon id="cazh" fill="#5F9E93" stroke="#3B7F72" stroke-miterlimit="10" points="1020,150 556.617,150 556.617,271.123 
		856.602,271.123 914.35,328.87 1046.342,196.878 1056.61,186.61 	"/>
	<polygon id="alpha-runner" fill="#5F9E93" stroke="#3B7F72" stroke-miterlimit="10" points="1059.091,281.624 1095.09,245.625 
		1046.342,196.878 914.35,328.87 1003.595,418.116 1099.589,322.122 	"/>
	<rect id="asics" x="421.624" y="150" fill="#5F9E93" stroke="#3B7F72" stroke-miterlimit="10" width="134.993" height="121.123"/>
	<polygon id="nike" fill="#5F9E93" stroke="#3B7F72" stroke-miterlimit="10" points="1359.077,1037.591 1358.327,1036.841 
		1326.078,1069.09 1045.593,1069.09 1045.593,1268 1519,1268 1519,1197.514 	"/>
	<polygon id="the-north-face-smart-travel" fill="#5F9E93" stroke="#3B7F72" stroke-miterlimit="10" points="892.602,1069.09 
		826.604,1135.087 826.604,1135.087 735.475,1226.216 777,1268 1045.593,1268 1045.593,1069.09 	"/>
	
		<rect id="discovery-lab-1" x="643.834" y="470.809" transform="matrix(0.7071 -0.7071 0.7071 0.7071 -166.3118 620.7113)" fill="#5F9E93" stroke="#3B7F72" stroke-miterlimit="10" width="44.549" height="80.605"/>
	<polygon id="street-lab-1" fill="#5F9E93" stroke="#3B7F72" stroke-miterlimit="10" points="840.107,308.633 364.631,308.633 
		364.631,403.128 526.623,403.128 621.859,498.364 653.361,466.863 653.361,466.863 653.361,466.863 710.358,523.86 710.358,523.86 
		710.358,523.86 678.856,555.362 805.609,682.114 951.102,536.621 977.35,510.373 1009.599,478.124 	"/>
	
		<rect id="street-lab-3" x="1098.095" y="947.601" fill="#5F9E93" stroke="#3B7F72" stroke-miterlimit="10" width="215.988" height="71.996"/>
	<polygon id="street-lab-2" fill="#5F9E93" stroke="#3B7F72" stroke-miterlimit="10" points="1041.097,818.607 1041.097,818.607 
		1137.093,722.612 994.6,580.119 994.6,580.119 951.102,536.621 805.609,682.114 1030.598,907.104 1080.096,857.605 	"/>
	<polygon id="adidas" fill="#5F9E93" stroke="#3B7F72" stroke-miterlimit="10" points="1519,491 1478.351,450.35 1387.58,541.121 
		1387.58,541.121 1387.58,541.121 1353.082,506.623 1137.093,722.612 1137.093,722.612 1041.097,818.607 1080.096,857.605 
		1080.096,857.605 1123.594,901.104 1359.077,901.104 1359.077,712.414 1359.077,712.414 1518.669,547.332 	"/>
	
		<rect id="discovery-lab-2" x="893.995" y="1000.666" fill="#5F9E93" stroke="#3B7F72" stroke-miterlimit="10" width="142.667" height="50.667"/>
	
		<rect id="komono" x="327.662" y="551.488" transform="matrix(0.7071 -0.7071 0.7071 0.7071 -308.0205 411.3434)" fill="#5F9E93" stroke="#3B7F72" stroke-miterlimit="10" width="29.694" height="51.97"/>
	
		<rect id="salomon" x="798.902" y="1020.205" transform="matrix(0.7071 0.7071 -0.7071 0.7071 983.0898 -275.7092)" fill="#5F9E93" stroke="#3B7F72" stroke-miterlimit="10" width="50.908" height="57.269"/>
</g>
<g id="signs">
	<rect id="toilet" x="1152.178" y="209.178" fill="#26665A" width="45" height="45"/>
	<g id="stairs">
		<rect id="stairs-2" x="1135.509" y="349.317" fill="#26665A" width="45" height="45"/>
		<rect id="stairs-1" x="961.546" y="516.5" fill="#26665A" width="45" height="45"/>
	</g>
	<rect id="elevator" x="1081.588" y="385.5" fill="#26665A" width="45" height="45"/>
	<g id="escalator">
		<rect id="escalator-2" x="380.5" y="444.363" fill="#26665A" width="45" height="45"/>
		<rect id="escalator-1" x="959.812" y="918.5" fill="#26665A" width="45" height="45"/>
	</g>
</g>
</svg>
