<?xml version="1.0" encoding="utf-8"?>
<!-- Generator: Adobe Illustrator 17.0.0, SVG Export Plug-In . SVG Version: 6.00 Build 0)  -->
<!DOCTYPE svg PUBLIC "-//W3C//DTD SVG 1.1//EN" "http://www.w3.org/Graphics/SVG/1.1/DTD/svg11.dtd">
<svg version="1.1" id="Layer_1" xmlns="http://www.w3.org/2000/svg" xmlns:xlink="http://www.w3.org/1999/xlink" x="0px" y="0px"
	 width="1716px" height="1408px" viewBox="0 0 1716 1408" enable-background="new 0 0 1716 1408" xml:space="preserve">
<g id="background">
	<rect fill="#FFFFFF" width="1716" height="1408"/>
</g>
<g id="etc">
	
		<rect x="1262.679" y="341.684" transform="matrix(0.7071 0.7071 -0.7071 0.7071 668.2572 -842.9507)" fill="#83B7AD" stroke="#1D937D" stroke-miterlimit="10" width="177.962" height="86.996"/>
	<polygon fill="#83B7AD" stroke="#1D937D" stroke-miterlimit="10" points="1256.5,228.5 1224,261 1224,261 1224,261 1193,230 
		1133.233,289.767 1164.088,320.621 1227.084,383.617 1257.832,352.869 1257.98,353.019 1319.5,291.5 	"/>
	<polygon fill="#83B7AD" stroke="#1D937D" stroke-miterlimit="10" points="1179.84,391.878 1137.843,349.881 1116.094,371.629 
		1147.592,403.128 1147.592,403.128 1158.092,413.627 	"/>
	
		<rect x="1082.97" y="376.34" transform="matrix(0.7071 0.7071 -0.7071 0.7071 616.454 -660.2695)" fill="#83B7AD" stroke="#1D937D" stroke-miterlimit="10" width="44.545" height="75.302"/>
	
		<rect x="955.218" y="526.685" transform="matrix(0.7071 0.7071 -0.7071 0.7071 674.3315 -537.4904)" fill="#83B7AD" stroke="#1D937D" stroke-miterlimit="10" width="61.511" height="37.12"/>
	<polygon fill="#83B7AD" stroke="#1D937D" stroke-miterlimit="10" points="1479,541 1479,541 1479,588.365 1518.669,547.332 
		1519,491 1479.1,451.099 1445.344,478.862 1445.344,507 1445.001,507.001 	"/>
	<polygon fill="#83B7AD" stroke="#1D937D" stroke-miterlimit="10" points="1256.354,228.354 1184.357,156.357 1182.859,154.86 
		1181.355,153.356 1177,149 1144.5,181.5 1150.748,187.748 1193,230 1224,261 1256.5,228.5 	"/>
	<polygon fill="#83B7AD" stroke="#1D937D" stroke-miterlimit="10" points="313.5,570.5 250.5,633.5 250.5,633.5 250.5,633.5 
		224,607 224,607 224,607 250.5,580.5 216.5,546.5 137.997,625.003 229.211,716.789 344.5,601.5 	"/>
	<polygon fill="#83B7AD" stroke="#1D937D" stroke-miterlimit="10" points="795,1160 795,1160 795,1160 826.5,1128.5 800,1102 
		800,1102 798,1100 800,1102 819,1083 789,1053 784,1053 673.324,1163.676 677.812,1168.192 753.075,1243.926 816,1181 	"/>
	
		<rect x="1429.816" y="1190.787" transform="matrix(-0.7071 0.7071 -0.7071 -0.7071 3363.0464 1030.9811)" fill="#83B7AD" stroke="#1D937D" stroke-miterlimit="10" width="76.367" height="42.426"/>
	<polygon fill="#83B7AD" stroke="#1D937D" stroke-miterlimit="10" points="1345,835 1340.6,830.6 1341.333,835 	"/>
	<polygon fill="#83B7AD" stroke="#1D937D" stroke-miterlimit="10" points="664.695,799.305 657.217,806.783 657.217,806.783 
		657.217,806.783 622.132,785.868 575,833 644,902 717,829 716.027,828.027 	"/>
	<polygon fill="#83B7AD" stroke="#1D937D" stroke-miterlimit="10" points="716.027,828.027 717,829 717.275,828.725 	"/>
	<polygon fill="#83B7AD" stroke="#1D937D" stroke-miterlimit="10" points="1340.6,830.6 1322.2,720.2 1230.854,628.854 
		1137.281,722.424 1137.093,722.612 994.6,580.119 951.24,536.76 951.102,536.621 951.861,535.861 902.5,486.5 899,490 900.812,490 
		1003.814,768.185 1005.361,772.361 1068,835 1341.333,835 	"/>
	<polygon fill="#83B7AD" stroke="#1D937D" stroke-miterlimit="10" points="1095,1015 1169,1015 1197,987 1067,987 	"/>
	<path fill="#94BFAF" stroke="#679B8C" stroke-miterlimit="10" d="M1345,835h-3.667H1068l-62.639-62.639l-2.861-2.861L850,922H694
		h-70L456.5,754.5L721,490h178l3.5-3.5l109-109l49.361,49.361l1.981-1.984l53.248-53.248l21.749-21.749l41.997,41.998l47.248,47.248
		l29.249-29.249l96.745,96.745l-0.748,0.749l93.01-0.371v-28.138l33.756-27.767l-0.749-0.749l-33.007-33.006l-61.519,61.521
		L1257.83,352.869l-30.748,30.748l-62.996-62.996l-30.854-30.854L1193,230l-15-15l-88.5,88.5L1058,272L883,447H666l-46,46h-59v62
		l-50.5,50.5l7,7l-50,50l-68-68L440,554h11v-56h-54l-51-51h-91v55v12l36.5,36.5L256,586l-5.5-5.5L224,607l26.5,26.5l63-63l31,31
		L436,693l-46,46l221.5,221.5L704,1053h80h5h524l99,99v58l14,14l54-54l-80.5-80.5l-57-57l-54-54L1388,879l54,54l57,57l20,20v-1
		L1345,835z M825,1015H721l-62-62h166V1015z M1288,896l-91,91l-28,28h-74l-28-28l-26-26v-43h-43l-22-22l-30-30h372L1288,896z"/>
	<line fill="none" stroke="#1D937D" stroke-miterlimit="10" x1="784" y1="1053" x2="789" y2="1053"/>
	<polygon fill="#83B7AD" stroke="#1D937D" stroke-miterlimit="10" points="976,896 998,918 1041,918 1041,918 1041,918 1041,961 
		1067,987 1197,987 1288,896 	"/>
	<polygon fill="#83B7AD" stroke="#1D937D" stroke-miterlimit="10" points="946,866 976,896 1288,896 1318,866 	"/>
	<polygon fill="#83B7AD" stroke="#1D937D" stroke-miterlimit="10" points="1002.5,769.5 1005.361,772.361 1003.814,768.185 	"/>
	<polygon fill="#83B7AD" stroke="#1D937D" stroke-miterlimit="10" points="451,498 451,498 451,554 459,554 459,554 459,554 
		510.5,605.5 561,555 561,493 561,493 561,492 561,493 620,493 666,447 346,447 397,498 	"/>
	<polygon fill="#83B7AD" stroke="#1D937D" stroke-miterlimit="10" points="1519,1190.782 1509.977,1199.977 1510,1200 
		1456.122,1253.878 1443.63,1268 1519,1268 	"/>
	<polygon id="discovery-lab" fill="#83B7AD" stroke="#1D937D" stroke-miterlimit="10" points="717,829 644,902 644,902 624,922 
		694,922 752,864 	"/>
</g>
<g id="rooms">
	<polygon id="boots" fill="#5F9E93" stroke="#3B7F72" stroke-miterlimit="10" points="137,349 137,353.62 137,436.116 
		136.647,521.333 136.66,521.346 137,624 137.997,625.003 216.5,546.5 250.5,580.5 256,586 291.5,550.5 255,514 255,502 255,447 
		255,349 	"/>
	<polygon id="habitat" fill="#5F9E93" stroke="#3B7F72" stroke-miterlimit="10" points="1144.5,181.5 1177,149 1170,142 1104,142 
		1058,188 1056.61,186.61 1020,150 556.617,150 421.624,150 333.128,150 137,150 137,349 255,349 255,447 346,447 346,447 666,447 
		666,447 883,447 1058,272 1058,272 1058,272 1089.5,303.5 1178,215 	"/>
	
		<rect id="thann-spa" x="1327.083" y="885.394" transform="matrix(-0.7071 -0.7071 0.7071 -0.7071 1654.8375 2596.9519)" fill="#5F9E93" stroke="#3B7F72" stroke-miterlimit="10" width="76.363" height="140.709"/>
	<polygon id="radee-nails-spa" fill="#5F9E93" stroke="#3B7F72" stroke-miterlimit="10" points="1464.501,603.363 1479,588.365 
		1479,541 1445.001,507.001 1352.334,507.371 1268.338,591.367 1230.854,628.854 1322.2,720.2 1322.2,720.2 1322.2,720.2 
		1340.6,830.6 1345,835 1345,835 1519,1009 1519,970 1519,873 1519,827.607 1519,778.105 1519,657.334 	"/>
	<polygon id="home-living" fill="#5F9E93" stroke="#3B7F72" stroke-miterlimit="10" points="900.812,490 721,490 456.5,754.5 
		624,922 644,902 575,833 575,833 575,833 622.132,785.868 622.132,785.868 622.132,785.868 657.217,806.783 664.695,799.305 
		664.695,799.305 664.695,799.305 716.027,828.027 716.027,828.027 717.275,828.725 717.275,828.725 717.275,828.725 717,829 
		752,864 752,864 752,864 694,922 850,922 1002.5,769.5 1000,767 1002.5,769.5 1003.814,768.185 	"/>
	<polygon id="proud-gems" fill="#5F9E93" stroke="#3B7F72" stroke-miterlimit="10" points="977.35,510.373 1009.599,478.124 
		1060.861,426.861 1011.5,377.5 902.5,486.5 951.861,535.861 	"/>
	<polygon id="hay" fill="#5F9E93" stroke="#3B7F72" stroke-miterlimit="10" points="921.287,566.341 951.839,535.856 
		902.478,486.495 871.013,517.893 	"/>
	<g id="ontime-restaurant">
		<polygon fill="#5F9E93" stroke="#3B7F72" stroke-miterlimit="10" points="704,1053 611.5,960.5 541.236,1030.764 566,1055.682 
			673.324,1163.676 784,1053 		"/>
		<polygon fill="#5F9E93" stroke="#3B7F72" stroke-miterlimit="10" points="659,953 721,1015 825,1015 825,953 		"/>
	</g>
	
		<rect id="shine-jewellery" x="1380.432" y="940.898" transform="matrix(-0.7071 -0.7071 0.7071 -0.7071 1710.2832 2730.926)" fill="#5F9E93" stroke="#3B7F72" stroke-miterlimit="10" width="80.606" height="140.708"/>
	<polygon id="room-concept-store" fill="#5F9E93" stroke="#3B7F72" stroke-miterlimit="10" points="320.426,808.574 343.708,832 
		541.236,1030.764 611.5,960.5 390,739 	"/>
	<polygon id="phu-fa" fill="#5F9E93" stroke="#3B7F72" stroke-miterlimit="10" points="229.211,716.789 234.566,722.176 
		270.449,758.284 314.443,802.553 320.426,808.574 390,739 436,693 344.5,601.5 	"/>
	<polygon id="k-a-jewelry" fill="#5F9E93" stroke="#3B7F72" stroke-miterlimit="10" points="1519,1010 1499,990 1399.5,1089.5 
		1480,1170 1509.977,1199.977 1519,1190.782 	"/>
	<polygon id="o-d-s" fill="#5F9E93" stroke="#3B7F72" stroke-miterlimit="10" points="1456,1254 1426,1224 1412,1210 1412,1152 
		1313,1053 789,1053 819,1083 800,1102 826.5,1128.5 795,1160 816,1181 753.075,1243.926 777,1268 949.605,1268 1042.601,1268 
		1045.593,1268 1126.597,1268 1443.63,1268 1456.122,1253.878 	"/>
	<polygon id="tom-dixon" fill="#5F9E93" stroke="#3B7F72" stroke-miterlimit="10" points="517.5,612.5 510.5,605.5 510.5,605.5 
		459,554 440,554 399.5,594.5 467.5,662.5 	"/>
	
		<rect id="i_x2B_d-style-cafe-x-brave-roosters" x="899" y="1229.391" fill="#5F9E93" stroke="#3B7F72" stroke-miterlimit="10" width="446" height="38.609"/>
	<polygon id="pinn-creative-space" fill="#5F9E93" stroke="#3B7F72" stroke-miterlimit="10" points="1256.337,409.877 
		1227.088,439.126 1179.84,391.878 1158.092,413.627 1147.592,403.128 1094.344,456.375 1062.846,424.877 1009.599,478.124 
		977.35,510.373 1020.848,553.87 994.6,580.119 1137.093,722.612 1230.854,628.854 1230.854,628.854 1353.082,506.623 	"/>
	<polygon id="paula-s-choice" fill="#5F9E93" stroke="#3B7F72" stroke-width="1.2716" stroke-miterlimit="10" points="
		1353.007,506.694 1268.296,591.412 1230.349,554.271 1315.482,469.069 	"/>
</g>
<g id="signs">
	<rect id="toilet" x="1178" y="182.5" fill="#26665A" width="45" height="45"/>
	<g id="stairs">
		<rect id="stairs-1" x="1123" y="347.5" fill="#26665A" width="45" height="45"/>
		<rect id="stairs-2" x="964" y="516.5" fill="#26665A" width="45" height="45"/>
	</g>
	<g id="escalator_3_">
		<rect id="escalator-2" x="437.5" y="506.721" fill="#26665A" width="45" height="45"/>
		<rect id="escalator-1" x="1036" y="917" fill="#26665A" width="45" height="45"/>
	</g>
	<rect id="parking" x="1504.426" y="338.5" fill="#26665A" width="45" height="45"/>
	<g id="lift_2_">
		<rect id="lift-2" x="1081" y="385.5" fill="#26665A" width="45" height="45"/>
		<rect id="lift-1" x="1445" y="1190.5" fill="#26665A" width="45" height="45"/>
	</g>
</g>
</svg>
