<?xml version="1.0" encoding="utf-8"?>
<!-- Generator: Adobe Illustrator 16.0.0, SVG Export Plug-In . SVG Version: 6.00 Build 0)  -->
<!DOCTYPE svg PUBLIC "-//W3C//DTD SVG 1.1//EN" "http://www.w3.org/Graphics/SVG/1.1/DTD/svg11.dtd">
<svg version="1.1" id="Layer_1" xmlns="http://www.w3.org/2000/svg" xmlns:xlink="http://www.w3.org/1999/xlink" x="0px" y="0px"
	 width="1716px" height="1408px" viewBox="0 0 1716 1408" enable-background="new 0 0 1716 1408" xml:space="preserve">
<g id="background">
	<rect fill="#FFFFFF" width="1716" height="1408"/>
</g>
<g id="etc">
	<polygon fill="#83B7AD" stroke="#1D937D" stroke-miterlimit="10" points="1256.354,228.354 1164.088,320.621 1227.084,383.617 
		1257.832,352.869 1383.825,478.862 1445.344,417.344 	"/>
	<polygon fill="#83B7AD" stroke="#1D937D" stroke-miterlimit="10" points="1184.357,156.357 1182.859,154.86 1059.091,281.624 
		1099.589,322.122 1132.589,289.122 1164.088,320.621 1256.354,228.354 	"/>
	<polygon fill="#83B7AD" stroke="#1D937D" stroke-miterlimit="10" points="350.381,606.361 312.23,569.252 282,597 260.205,576.538 
		225.647,610.689 136.66,521.346 137,624 234.566,722.176 267.134,689.608 	"/>
	<polygon fill="#83B7AD" stroke="#1D937D" stroke-miterlimit="10" points="1179.84,391.878 1137.843,349.881 1116.094,371.629 
		1147.592,403.128 1147.592,403.128 1158.092,413.627 	"/>
	<polygon fill="#83B7AD" stroke="#1D937D" stroke-miterlimit="10" points="1256.337,409.877 1227.088,439.126 1227.088,439.126 
		1227.088,439.126 1179.84,391.878 1158.092,413.627 1158.092,413.627 1158.092,413.627 1147.592,403.128 1094.344,456.375 
		1094.344,456.375 1094.344,456.375 1062.846,424.877 1009.599,478.124 1009.599,478.124 977.35,510.373 1020.848,553.87 
		1020.848,553.87 1020.848,553.87 994.6,580.119 1137.093,722.612 1353.082,506.623 	"/>
	
		<rect x="1082.962" y="376.344" transform="matrix(0.7071 0.7071 -0.7071 0.7071 616.4547 -660.2626)" fill="#83B7AD" stroke="#1D937D" stroke-miterlimit="10" width="44.545" height="75.303"/>
	
		<rect x="967.415" y="514.489" transform="matrix(0.7071 -0.7071 0.7071 0.7071 -96.7612 856.8888)" fill="#83B7AD" stroke="#1D937D" stroke-miterlimit="10" width="37.12" height="61.513"/>
	<polygon fill="#83B7AD" stroke="#1D937D" stroke-miterlimit="10" points="772.645,1037.627 772.645,1037.627 772.604,1037.591 
		744.667,1068 714.109,1039.333 679.334,1074 726.001,1118.667 677.812,1168.192 735.475,1226.216 851.759,1108.09 	"/>
	<polygon fill="#83B7AD" stroke="#1D937D" stroke-miterlimit="10" points="1041.088,995.598 917.695,862 907,862 882,885.355 
		860,862 764.421,862 897.104,995.598 	"/>
	<polygon fill="#83B7AD" stroke="#1D937D" stroke-miterlimit="10" points="859.605,799.107 662.938,603.363 620.236,560.012 
		556.611,561.5 556.222,495.021 514.462,452.625 417.229,450.35 387.13,482.624 462.126,557.62 710.791,808 867.819,808 	"/>
	<polygon fill="#83B7AD" stroke="#1D937D" stroke-miterlimit="10" points="486.17,832.048 486.17,832.048 486.12,832 343.708,832 
		566,1055.682 566,908 	"/>
	<polygon fill="#83B7AD" stroke="#1D937D" stroke-miterlimit="10" points="1387.58,542.618 1387.58,542.618 1352.334,507.371 
		1268.338,591.367 1455.076,778.105 1519,778.105 1519,657.334 1464.501,603.363 1518.669,547.332 1519,491 1479.1,451.099 	"/>
	
		<rect x="1356.387" y="784.179" transform="matrix(-0.7071 -0.7071 0.7071 -0.7071 1784.7076 2353.2129)" fill="#83B7AD" stroke="#1D937D" stroke-miterlimit="10" width="46.666" height="45.605"/>
	<polygon fill="#83B7AD" stroke="#1D937D" stroke-miterlimit="10" points="529.509,794.491 489.133,834.867 566,908 566,958 
		693.018,958 	"/>
	<polygon fill="#83B7AD" stroke="#1D937D" stroke-miterlimit="10" points="985.604,853.106 1050.101,917.604 1101.098,917.604 
		1101.098,853.106 	"/>
	<polygon fill="#83B7AD" stroke="#1D937D" stroke-miterlimit="10" points="556,764 600,808 710.792,808 556,652.141 	"/>
	<polygon fill="#83B7AD" stroke="#1D937D" stroke-miterlimit="10" points="859.605,799.107 867.819,808 888,808 642,562 
		622.195,562 662.938,603.363 	"/>
	<polygon fill="#83B7AD" stroke="#1D937D" stroke-miterlimit="10" points="917.695,862 1039.613,994 1074,994 942,862 	"/>
	<line fill="none" stroke="#1D937D" stroke-miterlimit="10" x1="654" y1="862" x2="764.421" y2="862"/>
	<polygon fill="#83B7AD" stroke="#1D937D" stroke-miterlimit="10" points="654,862 834,1042 888.782,987.219 764.421,862 	"/>
	<line fill="none" stroke="#1D937D" stroke-miterlimit="10" x1="917.695" y1="862" x2="942" y2="862"/>
	<line fill="none" stroke="#1D937D" stroke-miterlimit="10" x1="888" y1="808" x2="867.819" y2="808"/>
	<polygon fill="#83B7AD" stroke="#1D937D" stroke-miterlimit="10" points="554.612,493.388 565,483 512,430 422,430 422,450.462 
		514.462,452.625 	"/>
	<path fill="#94BFAF" stroke="#679B8C" stroke-miterlimit="10" d="M1455.076,778.105l-146.991-146.991l-0.6-0.602L1278,660l38,38
		l0,0l0,0v58l0,0l0,0l-52,52l0,0l0,0h-56l0,0l0,0l-36-36l-42,42l0,0l0,0H952l0,0l0,0L566,428l0,0l0,0h214l0,0l0,0l140,140
		l31.24-31.24l-0.139-0.139l26.247-26.249l32.25-32.249l53.246-53.247l53.248-53.248l21.749-21.749l41.997,41.998l47.248,47.248
		l29.249-29.249l96.745,96.745l-0.748,0.749l35.246,35.247l91.52-91.521l-0.748-0.749l-33.008-33.004l-61.519,61.519
		l-125.993-125.993l-30.748,30.748l-62.996-62.996l-31.499-31.499l-33,33l-6.748-6.748L909.85,498.365L795.105,383.621H327.129
		v125.994l-66.924,66.924L282,597l69.877-64.137l71.996,71.996l68.247,68.247v83.994l34.498,34.5l246.026,246.025l79.113,70.463
		l72.35-73.493h308.983l75.746-75.745l131.244-131.243H1519v-49.502H1455.076L1455.076,778.105z M556,764V652.141l-93.874-94.521
		l-74.997-74.996l30.1-32.273l4.771,0.112V430h90l53,53l-10.388,10.388l1.607,1.636l0.392,66.479l63.625-1.488l1.958,1.988H642
		l246,246h-20.181H710.792l0,0H600L556,764z M1041.088,995.598H897.104l-8.32-8.379L834,1042L654,862h110.421l0,0H860l22,23.355
		L907,862h10.694H942l132,132h-34.387L1041.088,995.598z M1224.092,917.604h-122.994h-50.996l-64.498-64.495h115.494h95.995
		l26.999,26.999V917.604z M1380.083,839.607l-32.998-32.999l32.249-32.249l32.998,32.999L1380.083,839.607z"/>
	<polygon fill="#83B7AD" stroke="#1D937D" stroke-miterlimit="10" points="1278,660 1278,660 1278,660 1307.485,630.515 
		1268.338,591.367 1137.281,722.424 1171.877,772.124 1172,772 1208,808 1264,808 1316,756 1316,698 	"/>
</g>
<g id="rooms">
	<polygon id="flight001" fill="#5F9E93" stroke="#3B7F72" stroke-miterlimit="10" points="351.877,532.863 312.23,569.252 
		350.381,606.361 267.134,689.608 234.566,722.176 270.449,758.284 423.873,604.859 	"/>
	<polygon id="pinn-creative" fill="#5F9E93" stroke="#3B7F72" stroke-miterlimit="10" points="693.018,958 566,958 566,1055.682 
		677.812,1168.192 726.001,1118.667 679.334,1074 714.109,1039.333 744.667,1068 772.604,1037.591 772.645,1037.627 	"/>
	<polygon id="starbucks" fill="#5F9E93" stroke="#3B7F72" stroke-miterlimit="10" points="526.618,791.601 492.12,757.102 
		492.12,673.106 423.873,604.859 270.449,758.284 314.443,802.553 343.708,832 403,832 486.17,832.048 489.133,834.867 
		529.509,794.491 	"/>
	<polygon id="must-love-mac" fill="#5F9E93" stroke="#3B7F72" stroke-miterlimit="10" points="1519,873 1519,827.607 
		1440.082,827.607 1308.838,958.852 1519,1169.014 	"/>
	<polygon id="moto-culture" fill="#5F9E93" stroke="#3B7F72" stroke-miterlimit="10" points="924.105,1034.597 735.475,1226.216 
		777,1268 949.605,1268 949.605,1034.597 	"/>
	
		<rect id="big-camera" x="949.605" y="1034.597" fill="#5F9E93" stroke="#3B7F72" stroke-miterlimit="10" width="92.994" height="233.403"/>
	<polygon id="dji-by-phantom-thailand" fill="#5F9E93" stroke="#3B7F72" stroke-miterlimit="10" points="1042.601,1034.597 
		1042.601,1268 1045.593,1268 1126.597,1268 1126.597,1034.597 	"/>
	<path id="billboard-cafe" fill="#5F9E93" stroke="#3B7F72" stroke-miterlimit="10" d="M1308.838,958.852l-75.746,75.745l0,0l0,0
		h-106.495V1268H1519v-70.486v-28.5L1308.838,958.852z"/>
	<polygon id="discovery-lab-1" fill="#5F9E93" stroke="#3B7F72" stroke-miterlimit="10" points="1224.092,880.105 1197.093,853.106 
		1101.098,853.106 1101.098,917.604 1224.092,917.604 	"/>
	<polygon id="loft" fill="#5F9E93" stroke="#3B7F72" stroke-miterlimit="10" points="1182.859,154.86 1181.355,153.356 1170,142 
		1104,142 1058,188 1056.61,186.61 1020,150 556.617,150 421.624,150 333.128,150 137,150 137,353.62 137,436.116 136.647,521.333 
		225.884,610.859 327.129,509.614 327.129,383.621 795.105,383.621 909.85,498.365 1092.841,315.374 1059.091,281.624 	"/>
	<polygon id="digital-lab-1" fill="#5F9E93" stroke="#3B7F72" stroke-miterlimit="10" points="1137.093,722.612 994.6,580.119 
		951.24,536.76 920,568 780,428 566,428 952,814 1130,814 1171.877,772.124 1137.281,722.424 	"/>
	
		<rect id="digital-lab-2" x="644" y="806.983" fill="#83B7AD" stroke="#1D937D" stroke-miterlimit="10" width="214" height="25.017"/>
</g>
<g id="signs">
	<rect id="toilet" x="1145" y="213.626" fill="#26665A" width="45" height="45"/>
	<rect id="elevator" x="1081" y="385.5" fill="#26665A" width="45" height="45"/>
	<g id="stairs">
		<rect id="stairs-1" x="1123" y="347.5" fill="#26665A" width="45" height="45"/>
		<rect id="stairs-2" x="964" y="516.5" fill="#26665A" width="45" height="45"/>
	</g>
	<g id="escalator_3_">
		<rect id="escalator-3" x="387.426" y="450.721" fill="#26665A" width="45" height="45"/>
		<rect id="escalator-2" x="534.426" y="506.721" fill="#26665A" width="45" height="45"/>
		<rect id="escalator-1" x="876.426" y="853" fill="#26665A" width="45" height="45"/>
	</g>
	<rect id="atm" x="1138" y="313" fill="#26665A" width="45" height="45"/>
	<rect id="parking" x="1504.426" y="338.5" fill="#26665A" width="45" height="45"/>
</g>
</svg>
