<?xml version="1.0" encoding="utf-8"?>
<!-- Generator: Adobe Illustrator 16.0.0, SVG Export Plug-In . SVG Version: 6.00 Build 0)  -->
<!DOCTYPE svg PUBLIC "-//W3C//DTD SVG 1.1//EN" "http://www.w3.org/Graphics/SVG/1.1/DTD/svg11.dtd">
<svg version="1.1" id="Layer_1" xmlns="http://www.w3.org/2000/svg" xmlns:xlink="http://www.w3.org/1999/xlink" x="0px" y="0px"
	 width="1000px" height="1000px" viewBox="0 0 1000 1000" enable-background="new 0 0 1000 1000" xml:space="preserve">
<g id="background">
	<rect y="146.455" fill="#FFFFFF" width="1000" height="707.091"/>
</g>
<g id="etc">
	<path fill="#DEDEDE" stroke="#494949" stroke-width="0.5" stroke-miterlimit="10" d="M363.107,286.614l-31.714-64.972
		l-87.541,16.629c0,0-7.483,67.704-35.633,152.394c-28.151,84.689-112.84,166.29-112.84,166.29l22.212,34.803
		c-28.863,11.878-48.7,35.99-48.7,63.784c0,39.554,39.91,71.624,89.084,71.624l655.303,1.663V286.614H363.107z"/>
	<path fill="#DEDEDE" stroke="#494949" stroke-width="0.5" stroke-miterlimit="10" d="M338.758,289.227l0.594,29.813l-74.593,8.552
		l-3.801,42.167c63.546,31.477,56.064,91.697,46.68,120.561s-72.693,84.927-72.693,84.927
		c-75.662-2.138-102.625,19.718-102.625,19.718l-1.307,4.751c-9.383,4.395-16.392,8.79-21.38,12.354
		c-3.682,2.612-6.176,4.751-7.483,5.938c-1.069,0.95-2.613,2.376-4.632,4.276c-4.751,4.751-11.403,12.353-15.085,22.33
		c-3.801,10.334-4.395,23.281,3.326,38.247c4.87,9.384,10.69,15.916,16.629,20.549l7.245,4.751
		c14.016,7.483,26.844,5.82,26.844,5.82h2.019l15.56-0.238l17.58-0.355l16.392-0.238l10.333-0.237l2.375,3.92h554.936V289.227
		H338.758L338.758,289.227z"/>
	<path fill="#DEDEDE" stroke="#494949" stroke-width="0.5" stroke-miterlimit="10" d="M132.795,595.795l-23.043-35.752
		c0,0,108.445-107.376,125.312-204.894l16.748-5.583l53.332,29.695l30.764,76.018l-30.764,69.486l-80.533,75.899L132.795,595.795z"
		/>
	
		<ellipse fill="#DEDEDE" stroke="#494949" stroke-width="0.5" stroke-miterlimit="10" cx="612.424" cy="456.705" rx="45.018" ry="67.941"/>
	
		<rect x="701.746" y="315.121" fill="#DEDEDE" stroke="#494949" stroke-width="0.5" stroke-miterlimit="10" width="40.147" height="73.643"/>
	
		<rect x="612.424" y="315.121" fill="#DEDEDE" stroke="#494949" stroke-width="0.5" stroke-miterlimit="10" width="67.348" height="43.71"/>
	<rect x="612.424" y="312.032" fill="#DEDEDE" stroke="#494949" stroke-miterlimit="10" width="129.351" height="1.663"/>
	
		<rect x="204.537" y="662.192" fill="#DEDEDE" stroke="#494949" stroke-width="0.5" stroke-miterlimit="10" width="35.872" height="26.963"/>
	
		<rect x="204.537" y="691.294" fill="#DEDEDE" stroke="#494949" stroke-width="0.5" stroke-miterlimit="10" width="35.872" height="21.38"/>
	
		<rect x="394.702" y="292.79" fill="#DEDEDE" stroke="#494949" stroke-width="0.5" stroke-miterlimit="10" width="48.344" height="26.369"/>
	
		<rect x="456.705" y="292.79" fill="#DEDEDE" stroke="#494949" stroke-width="0.5" stroke-miterlimit="10" width="47.512" height="26.369"/>
	
		<rect x="258.701" y="664.093" fill="#DEDEDE" stroke="#494949" stroke-width="0.5" stroke-miterlimit="10" width="82.551" height="46.562"/>
	<polyline fill="#DEDEDE" stroke="#494949" stroke-width="0.5" stroke-miterlimit="10" points="446.253,699.133 456.468,702.34 
		468.107,698.42 	"/>
	<rect x="452.429" y="521.321" fill="#DEDEDE" stroke="#494949" stroke-miterlimit="10" width="9.621" height="1.781"/>
	<path fill="#DEDEDE" stroke="#494949" stroke-width="0.5" stroke-miterlimit="10" d="M657.322,678.465v32.07
		c5.346,0.951,10.928,1.663,16.748,2.258v-34.328H657.322L657.322,678.465z"/>
	<polygon fill="#DEDEDE" stroke="#494949" stroke-width="0.5" stroke-miterlimit="10" points="368.215,594.845 347.547,570.852 
		342.796,573.821 359.188,601.853 363.82,609.93 355.861,613.137 353.249,619.789 364.889,623.59 381.993,610.762 	"/>
	<polygon fill="#DEDEDE" stroke="#494949" stroke-width="0.5" stroke-miterlimit="10" points="739.755,467.396 702.577,467.396 
		705.547,480.461 739.755,480.461 	"/>
	<path fill="#DEDEDE" stroke="#494949" stroke-width="0.5" stroke-miterlimit="10" d="M448.747,482.124l-17.936,14.253l4.87,5.464
		c11.165-0.831,13.303-0.95,23.28-1.307v-7.126L448.747,482.124z"/>
</g>
<g id="rooms">
	
		<rect id="r3201-3202" x="347.31" y="354.08" fill="#939598" stroke="#494949" stroke-width="0.5" stroke-miterlimit="10" width="19.242" height="36.94"/>
	<polygon id="r3200-3203" fill="#939598" stroke="#494949" stroke-width="0.5" stroke-miterlimit="10" points="366.552,354.08 
		366.552,372.491 366.552,391.021 383.894,391.021 383.894,372.491 383.894,354.08 	"/>
	
		<rect id="r3204" x="400.522" y="354.08" fill="#939598" stroke="#494949" stroke-width="0.5" stroke-miterlimit="10" width="17.224" height="18.529"/>
	
		<rect id="r3205" x="417.746" y="354.08" fill="#939598" stroke="#494949" stroke-width="0.5" stroke-miterlimit="10" width="18.767" height="18.529"/>
	
		<rect id="r3206" x="436.394" y="354.08" fill="#939598" stroke="#494949" stroke-width="0.5" stroke-miterlimit="10" width="17.817" height="18.529"/>
	<path id="r3124-3125" fill="#939598" stroke="#494949" stroke-width="0.5" stroke-miterlimit="10" d="M404.918,542.82v-2.376
		v-1.426v-11.996c-8.077,1.781-16.273,3.919-24.825,6.651v2.851l33.14,38.722l7.721-5.701L404.918,542.82z"/>
	
		<rect id="r3207" x="454.211" y="354.08" fill="#939598" stroke="#494949" stroke-width="0.5" stroke-miterlimit="10" width="19.479" height="18.529"/>
	
		<rect id="r3196" x="454.211" y="372.491" fill="#939598" stroke="#494949" stroke-width="0.5" stroke-miterlimit="10" width="19.479" height="17.698"/>
	
		<rect id="r3197" x="436.394" y="372.491" fill="#939598" stroke="#494949" stroke-width="0.5" stroke-miterlimit="10" width="17.817" height="17.698"/>
	
		<rect id="r3198-3199" x="400.522" y="372.491" fill="#939598" stroke="#494949" stroke-width="0.5" stroke-miterlimit="10" width="35.871" height="17.698"/>
	
		<rect id="r3195-3208" x="489.726" y="354.08" fill="#939598" stroke="#494949" stroke-width="0.5" stroke-miterlimit="10" width="16.866" height="36.109"/>
	
		<rect id="r3194-3209" x="506.711" y="354.08" fill="#939598" stroke="#494949" stroke-width="0.5" stroke-miterlimit="10" width="17.698" height="36.109"/>
	
		<rect id="r3211" x="543.295" y="354.08" fill="#939598" stroke="#494949" stroke-width="0.5" stroke-miterlimit="10" width="25.182" height="18.054"/>
	<polygon id="r3193-3210" fill="#939598" stroke="#494949" stroke-width="0.5" stroke-miterlimit="10" points="524.409,354.08 
		524.409,372.134 524.409,390.189 543.295,390.189 543.295,372.134 543.295,354.08 	"/>
	<polygon id="r3068-3069" fill="#939598" stroke="#494949" stroke-width="0.5" stroke-miterlimit="10" points="609.336,360.019 
		609.336,356.099 597.577,356.099 597.577,351.348 589.856,351.348 589.856,362.276 596.151,369.997 609.336,369.997 643.9,369.997 
		651.621,376.767 657.441,370.709 657.441,360.019 	"/>
	<polygon id="r3070" fill="#939598" stroke="#494949" stroke-width="0.5" stroke-miterlimit="10" points="657.441,360.019 
		657.441,370.709 651.621,376.767 665.399,388.764 679.653,375.936 679.653,360.019 	"/>
	<polygon id="r3128-3130" fill="#939598" stroke="#494949" stroke-width="0.5" stroke-miterlimit="10" points="394.346,601.972 
		407.887,591.281 367.502,544.482 353.961,554.342 	"/>
	<polygon id="r3031" fill="#939598" stroke="#494949" stroke-width="0.5" stroke-miterlimit="10" points="410.737,678.465 
		398.622,674.427 398.622,700.796 406.224,703.053 417.864,699.252 417.864,678.465 	"/>
	<polygon id="r3030" fill="#939598" stroke="#494949" stroke-width="0.5" stroke-miterlimit="10" points="417.864,678.465 
		417.864,699.252 432.83,694.5 445.184,699.252 434.493,678.465 	"/>
	<polygon id="r3029" fill="#939598" stroke="#494949" stroke-width="0.5" stroke-miterlimit="10" points="479.154,678.465 
		469.177,699.014 482.718,693.432 499.228,699.133 498.99,678.465 	"/>
	<polygon id="r3032" fill="#939598" stroke="#494949" stroke-width="0.5" stroke-miterlimit="10" points="379.38,667.895 
		379.38,672.883 379.38,673.714 379.38,694.856 398.622,700.796 398.622,674.427 	"/>
	<polygon id="r3034" fill="#939598" stroke="#494949" stroke-width="0.5" stroke-miterlimit="10" points="302.411,642 
		302.411,660.768 345.053,660.768 345.053,656.372 	"/>
	<polygon id="r3036" fill="#939598" stroke="#494949" stroke-width="0.5" stroke-miterlimit="10" points="268.44,630.479 
		268.44,660.768 283.05,660.768 283.05,635.468 	"/>
	<polygon id="r3035" fill="#939598" stroke="#494949" stroke-width="0.5" stroke-miterlimit="10" points="283.05,635.468 
		283.05,660.768 302.411,660.768 302.411,642 	"/>
	<polygon id="r3033" fill="#939598" stroke="#494949" stroke-width="0.5" stroke-miterlimit="10" points="345.053,656.372 
		345.053,660.768 345.053,661.836 345.053,672.883 379.38,672.883 379.38,667.895 	"/>
	<path id="r3021" fill="#939598" stroke="#494949" stroke-width="0.5" stroke-miterlimit="10" d="M623.352,678.465v23.281
		c5.227,1.781,10.928,3.563,17.104,5.107v-28.389H623.352L623.352,678.465z"/>
	<path id="r3020" fill="#939598" stroke="#494949" stroke-width="0.5" stroke-miterlimit="10" d="M640.575,678.465v28.389
		c5.226,1.307,10.928,2.613,16.866,3.682v-32.07H640.575L640.575,678.465z"/>
	<path id="r3017" fill="#939598" stroke="#494949" stroke-width="0.5" stroke-miterlimit="10" d="M692.838,678.465v35.396
		c3.207,0,6.532,0,9.858-0.119v-21.261h9.978v-14.135h-19.836V678.465z"/>
	<path id="r3018" fill="#939598" stroke="#494949" stroke-width="0.5" stroke-miterlimit="10" d="M674.07,678.465v34.328
		c6.058,0.594,12.234,0.949,18.768,1.068v-35.396H674.07z"/>
	<polygon id="r3026-3027-3028" fill="#939598" stroke="#494949" stroke-width="0.5" stroke-miterlimit="10" points="533.08,678.465 
		515.857,678.465 498.99,678.465 499.228,699.133 508.374,702.34 515.857,699.965 532.843,694.5 533.08,694.5 551.729,700.677 
		551.729,678.465 	"/>
	<path id="r3022" fill="#939598" stroke="#494949" stroke-width="0.5" stroke-miterlimit="10" d="M606.604,678.465v16.748
		c4.751,2.139,10.333,4.396,16.747,6.652v-23.281L606.604,678.465L606.604,678.465z"/>
	<polygon id="r3025" fill="#939598" stroke="#494949" stroke-width="0.5" stroke-miterlimit="10" points="551.729,678.465 
		551.729,700.677 558.261,702.815 567.407,699.727 567.407,678.465 	"/>
	<path id="r3023" fill="#939598" stroke="#494949" stroke-width="0.5" stroke-miterlimit="10" d="M583.323,678.465v15.917l4.87-8.79
		c0,0,6.533,4.276,18.411,9.621v-16.748H583.323z"/>
	<polygon id="r3024" fill="#939598" stroke="#494949" stroke-width="0.5" stroke-miterlimit="10" points="567.407,678.465 
		567.407,699.727 583.205,694.619 583.323,694.382 583.323,678.465 	"/>
	<polygon id="r3401" fill="#939598" stroke="#494949" stroke-width="0.5" stroke-miterlimit="10" points="447.797,668.488 
		457.655,662.905 467.396,668.488 467.396,679.771 457.655,685.354 447.797,679.771 	"/>
	<path id="r3074-3075" fill="#939598" stroke="#494949" stroke-width="0.5" stroke-miterlimit="10" d="M677.04,555.647"/>
	<polygon id="r3088" fill="#939598" stroke="#494949" stroke-width="0.5" stroke-miterlimit="10" points="581.186,561.23 
		566.575,571.089 538.425,602.803 550.422,613.375 574.296,577.146 586.887,582.967 595.795,574.178 	"/>
	<polygon id="r3091-3092" fill="#939598" stroke="#494949" stroke-width="0.5" stroke-miterlimit="10" points="646.87,619.194 
		636.18,609.812 636.18,609.812 624.064,599.121 603.041,619.551 609.692,625.49 614.443,629.647 625.965,639.743 648.414,620.501 	
		"/>
	<polygon id="r3093" fill="#939598" stroke="#494949" stroke-width="0.5" stroke-miterlimit="10" points="648.414,620.501 
		625.965,639.743 628.578,642 628.578,646.751 645.326,646.751 645.326,640.456 658.035,629.054 	"/>
	<polygon id="r3101" fill="#939598" stroke="#494949" stroke-width="0.5" stroke-miterlimit="10" points="589.856,608.742 
		589.856,608.742 577.741,598.646 562.774,624.302 575.484,635.468 575.484,635.468 594.607,612.662 	"/>
	<polygon id="r3100" fill="#939598" stroke="#494949" stroke-width="0.5" stroke-miterlimit="10" points="609.692,625.49 
		606.842,622.877 594.607,612.662 575.484,635.468 588.668,646.989 	"/>
	<polygon id="r3089" fill="#939598" stroke="#494949" stroke-width="0.5" stroke-miterlimit="10" points="610.523,587.243 
		595.795,574.178 586.887,582.967 577.741,598.646 589.856,608.742 	"/>
	<polygon id="r3090" fill="#939598" stroke="#494949" stroke-width="0.5" stroke-miterlimit="10" points="603.041,619.551 
		624.064,599.121 611.83,588.312 610.523,587.243 589.856,608.742 594.607,612.662 594.607,612.662 606.842,622.877 	"/>
	
		<rect id="r3096" x="645.326" y="646.751" fill="#939598" stroke="#494949" stroke-width="0.5" stroke-miterlimit="10" width="17.698" height="13.897"/>
	<polygon id="r3094" fill="#939598" stroke="#494949" stroke-width="0.5" stroke-miterlimit="10" points="658.035,629.054 
		645.326,640.456 645.326,646.751 663.024,646.751 670.507,639.981 	"/>
	<polygon id="r3095" fill="#939598" stroke="#494949" stroke-width="0.5" stroke-miterlimit="10" points="670.507,639.981 
		663.024,646.751 663.024,646.751 663.024,660.648 680.96,660.648 686.898,654.354 	"/>
	<polygon id="r3097-3098" fill="#939598" stroke="#494949" stroke-width="0.5" stroke-miterlimit="10" points="628.578,646.751 
		628.578,642 623.352,637.486 611.593,646.989 611.593,660.648 628.578,660.648 645.326,660.648 645.326,646.751 	"/>
	<polygon id="r3099" fill="#939598" stroke="#494949" stroke-width="0.5" stroke-miterlimit="10" points="623.352,637.486 
		609.692,625.49 588.668,646.989 604.109,660.648 611.593,660.648 611.593,646.989 	"/>
	<polygon id="r3109-3111" fill="#939598" stroke="#494949" stroke-width="0.5" stroke-miterlimit="10" points="547.333,544.482 
		535.218,558.143 521.796,573.465 508.492,588.431 520.846,597.814 533.555,583.323 547.215,567.764 559.211,554.342 	"/>
	<polygon id="r3104" fill="#939598" stroke="#494949" stroke-width="0.5" stroke-miterlimit="10" points="542.107,628.459 
		530.348,618.244 524.884,618.244 515.738,628.815 531.536,640.337 546.977,651.503 555.767,640.337 	"/>
	<polygon id="r3108" fill="#939598" stroke="#494949" stroke-width="0.5" stroke-miterlimit="10" points="531.536,640.337 
		515.738,628.815 503.504,642.832 519.302,653.878 	"/>
	<polygon id="r3107" fill="#939598" stroke="#494949" stroke-width="0.5" stroke-miterlimit="10" points="503.504,642.832 
		492.22,656.017 496.853,660.648 519.302,660.648 519.302,653.878 	"/>
	<polygon id="r3105" fill="#939598" stroke="#494949" stroke-width="0.5" stroke-miterlimit="10" points="576.553,658.272 
		555.767,640.337 546.977,651.503 546.977,660.648 574.296,660.648 	"/>
	<polygon id="r3106" fill="#939598" stroke="#494949" stroke-width="0.5" stroke-miterlimit="10" points="531.536,640.337 
		519.302,653.878 519.302,660.648 546.977,660.648 546.977,651.503 	"/>
	<path id="r3143" fill="#939598" stroke="#494949" stroke-width="0.5" stroke-miterlimit="10" d="M307.756,593.063L307.756,593.063
		l13.185,11.165l13.066-8.314l-7.364-12.115l-4.039,2.494l-11.759-15.204c-4.751,3.683-9.74,7.959-14.848,12.354L307.756,593.063
		L307.756,593.063z"/>
	<path id="r3142" fill="#939598" stroke="#494949" stroke-width="0.5" stroke-miterlimit="10" d="M307.756,593.063l-11.64-9.858
		c-4.276,3.682-8.433,7.602-12.472,11.64l17.342,15.798L307.756,593.063z"/>
	<path id="r3131-133-3144" fill="#939598" stroke="#494949" stroke-width="0.5" stroke-miterlimit="10" d="M326.643,583.68
		L326.643,583.68L326.643,583.68l16.153-9.858l0,0l0,0l4.751-2.851l-14.372-16.629c0,0-9.858,6.77-22.212,16.629l11.76,15.203
		L326.643,583.68z"/>
	<polygon id="r3134" fill="#939598" stroke="#494949" stroke-width="0.5" stroke-miterlimit="10" points="397.791,629.054 
		381.993,610.762 364.889,623.59 395.891,633.448 	"/>
	<polygon id="r3140" fill="#939598" stroke="#494949" stroke-width="0.5" stroke-miterlimit="10" points="307.756,593.063 
		301.104,610.643 301.104,610.643 301.104,610.643 296.829,621.57 313.22,626.915 321.06,604.109 	"/>
	<polygon id="r3138" fill="#939598" stroke="#494949" stroke-width="0.5" stroke-miterlimit="10" points="353.249,619.789 
		346.24,637.605 368.809,644.851 375.46,626.915 	"/>
	<polygon id="r3137" fill="#939598" stroke="#494949" stroke-width="0.5" stroke-miterlimit="10" points="375.46,626.915 
		368.809,644.851 388.288,651.146 395.891,633.448 	"/>
	<polygon id="r3136" fill="#939598" stroke="#494949" stroke-width="0.5" stroke-miterlimit="10" points="393.277,639.625 
		388.288,651.146 417.508,660.648 419.408,658.629 	"/>
	<polygon id="r3135" fill="#939598" stroke="#494949" stroke-width="0.5" stroke-miterlimit="10" points="421.547,656.491 
		397.791,629.054 395.891,633.448 393.277,639.625 419.408,658.629 	"/>
	<path id="r3141" fill="#939598" stroke="#494949" stroke-width="0.5" stroke-miterlimit="10" d="M283.763,594.845
		c-4.751,4.751-9.027,9.503-12.59,14.254v4.157l25.775,8.314l4.157-10.928L283.763,594.845z"/>
	<polygon id="r3139" fill="#939598" stroke="#494949" stroke-width="0.5" stroke-miterlimit="10" points="334.007,595.795 
		321.06,604.109 313.22,626.915 332.105,632.973 342.796,610.286 	"/>
	<path id="r3127" fill="#939598" stroke="#494949" stroke-width="0.5" stroke-miterlimit="10" d="M451.241,539.494v-18.292
		c-7.127,0.237-14.609,0.831-22.449,1.781v16.273L451.241,539.494z"/>
	<path id="r3126" fill="#939598" stroke="#494949" stroke-width="0.5" stroke-miterlimit="10" d="M428.792,539.257v-16.273
		c-7.721,0.95-15.679,2.257-23.874,4.039v11.996L428.792,539.257z"/>
	<path id="r3112-3113" fill="#939598" stroke="#494949" stroke-width="0.5" stroke-miterlimit="10" d="M485.688,522.509
		c-6.771-0.713-14.135-1.188-21.975-1.307v18.529l21.975,0.237l22.805,0.238v-14.135C501.96,524.646,494.239,523.34,485.688,522.509
		z"/>
	<path id="r3114-3116" fill="#939598" stroke="#494949" stroke-width="0.5" stroke-miterlimit="10" d="M508.492,526.072v14.135
		l2.139,3.325l-19.955,33.14h-0.237h-23.993l-0.238,12.591h19.48v0.118h3.207l7.008-8.076l25.774-29.695l13.541-15.56v-2.376
		C535.1,533.674,525.479,529.517,508.492,526.072z"/>
	<polygon id="r3122-3123" fill="#939598" stroke="#494949" stroke-width="0.5" stroke-miterlimit="10" points="428.792,613.375 
		428.792,589.144 448.51,589.144 448.51,613.375 466.207,613.375 466.207,589.144 466.445,576.553 425.229,576.553 420.953,569.545 
		413.232,575.246 426.535,590.688 413.113,601.378 423.922,613.375 	"/>
	<polygon id="r3121" fill="#939598" stroke="#494949" stroke-width="0.5" stroke-miterlimit="10" points="428.792,613.375 
		423.922,613.375 413.113,601.378 403.136,609.336 427.604,637.249 428.792,636.18 	"/>
	<polygon id="r3117-3118" fill="#939598" stroke="#494949" stroke-width="0.5" stroke-miterlimit="10" points="501.129,600.665 
		488.062,590.213 488.895,589.263 485.688,589.263 485.688,613.375 485.688,636.18 486.756,637.486 511.225,608.623 	"/>
	<polygon id="r3119" fill="#939598" stroke="#494949" stroke-width="0.5" stroke-miterlimit="10" points="486.756,637.486 
		485.688,636.18 485.688,636.299 466.207,636.299 466.207,613.375 457.062,613.375 457.062,649.603 476.422,649.603 	"/>
	<polygon id="r3120" fill="#939598" stroke="#494949" stroke-width="0.5" stroke-miterlimit="10" points="448.51,613.375 
		448.51,636.299 428.792,636.299 428.792,636.18 427.604,637.249 438.413,649.603 457.062,649.603 457.062,613.375 	"/>
	<path id="r3054-3055-3056-3057-3058" fill="#939598" stroke="#494949" stroke-width="0.5" stroke-miterlimit="10" d="
		M346.24,292.79c0,0-5.701-45.136-53.569-41.929c-47.868,3.207-40.979,58.439-40.979,58.439h-7.008l-9.74,45.967l26.131,14.61
		l23.518-27.676l22.806-10.809l41.216,4.989h26.606V292.79H346.24L346.24,292.79z"/>
	<polygon id="r3059" fill="#939598" stroke="#494949" stroke-width="0.5" stroke-miterlimit="10" points="394.702,316.783 
		394.702,292.79 375.223,292.79 375.223,336.263 394.702,336.263 394.702,319.04 	"/>
	
		<rect id="r3061" x="421.071" y="319.04" fill="#939598" stroke="#494949" stroke-width="0.5" stroke-miterlimit="10" width="21.975" height="17.223"/>
	
		<rect id="r3060" x="394.702" y="319.04" fill="#939598" stroke="#494949" stroke-width="0.5" stroke-miterlimit="10" width="26.369" height="17.223"/>
	<polygon id="r3064" fill="#939598" stroke="#494949" stroke-width="0.5" stroke-miterlimit="10" points="510.037,291.603 
		504.217,295.403 504.217,317.377 504.217,319.04 504.217,336.263 530.823,336.263 530.823,294.453 	"/>
	<polygon id="r3062-3063" fill="#939598" stroke="#494949" stroke-width="0.5" stroke-miterlimit="10" points="480.461,319.04 
		456.705,319.04 456.705,336.263 480.461,336.263 504.217,336.263 504.217,319.04 	"/>
	<polygon id="r3067" fill="#939598" stroke="#494949" stroke-width="0.5" stroke-miterlimit="10" points="595.32,295.76 
		573.939,292.315 573.939,336.263 595.32,336.263 	"/>
	<polygon id="r3066" fill="#939598" stroke="#494949" stroke-width="0.5" stroke-miterlimit="10" points="569.426,291.603 
		552.441,294.097 552.441,336.263 573.939,336.263 573.939,292.315 	"/>
	<polygon id="r3065" fill="#939598" stroke="#494949" stroke-width="0.5" stroke-miterlimit="10" points="540.919,295.878 
		530.823,294.453 530.823,336.263 552.441,336.263 552.441,294.097 	"/>
	<polygon id="r3001" fill="#939598" stroke="#494949" stroke-width="0.5" stroke-miterlimit="10" points="717.188,406.224 
		700.083,406.224 691.056,415.845 692.838,424.159 717.188,424.159 	"/>
	<polygon id="r3002" fill="#939598" stroke="#494949" stroke-width="0.5" stroke-miterlimit="10" points="739.755,434.493 
		729.303,424.159 717.188,424.159 692.838,424.159 696.401,439.601 739.755,439.601 	"/>
	<polygon id="r3003-3004" fill="#939598" stroke="#494949" stroke-width="0.5" stroke-miterlimit="10" points="739.755,439.601 
		696.401,439.601 702.577,467.396 739.755,467.396 	"/>
	<polygon id="r3007-3008" fill="#939598" stroke="#494949" stroke-width="0.5" stroke-miterlimit="10" points="709.11,496.496 
		709.11,496.615 709.11,513.956 709.11,528.686 739.755,528.686 739.755,513.956 739.755,496.496 	"/>
	<polygon id="r3176" fill="#939598" stroke="#494949" stroke-width="0.5" stroke-miterlimit="10" points="456.23,434.85 
		445.896,423.328 429.029,435.562 439.839,447.797 	"/>
	<polygon id="r3175" fill="#939598" stroke="#494949" stroke-width="0.5" stroke-miterlimit="10" points="435.087,411.213 
		418.934,424.159 429.029,435.562 445.896,423.328 	"/>
	<polygon id="r3174" fill="#939598" stroke="#494949" stroke-width="0.5" stroke-miterlimit="10" points="433.425,409.193 
		411.569,409.431 408.6,412.4 418.934,424.159 435.087,411.213 	"/>
	<polygon id="r3179" fill="#939598" stroke="#494949" stroke-width="0.5" stroke-miterlimit="10" points="477.254,458.486 
		460.981,471.671 471.434,483.431 487.944,470.603 	"/>
	<path id="r3181" fill="#939598" stroke="#494949" stroke-width="0.5" stroke-miterlimit="10" d="M498.634,482.599l-16.153,13.304
		l3.919,4.395c8.553,0.356,16.273,1.188,22.093,2.613l5.346-3.207L498.634,482.599z"/>
	<polygon id="r3180" fill="#939598" stroke="#494949" stroke-width="0.5" stroke-miterlimit="10" points="487.944,470.603 
		471.434,483.431 482.599,495.902 498.634,482.599 	"/>
	<polygon id="r3177-3178" fill="#939598" stroke="#494949" stroke-width="0.5" stroke-miterlimit="10" points="467.039,446.965 
		456.23,434.85 439.839,447.797 450.647,459.912 460.981,471.671 477.254,458.486 	"/>
	<polygon id="r3172" fill="#939598" stroke="#494949" stroke-width="0.5" stroke-miterlimit="10" points="387.22,448.034 
		405.273,433.78 395.178,422.734 376.767,436.513 	"/>
	<polygon id="r3173" fill="#939598" stroke="#494949" stroke-width="0.5" stroke-miterlimit="10" points="395.178,422.734 
		383.418,409.55 370.709,409.668 361.563,417.271 359.663,436.513 376.767,436.513 	"/>
	<polygon id="r3171" fill="#939598" stroke="#494949" stroke-width="0.5" stroke-miterlimit="10" points="398.622,460.743 
		416.677,446.49 405.273,433.78 387.22,448.034 	"/>
	<polygon id="r3169" fill="#939598" stroke="#494949" stroke-width="0.5" stroke-miterlimit="10" points="420.597,484.975 
		438.532,470.721 427.723,458.843 409.787,473.097 	"/>
	<polygon id="r3170" fill="#939598" stroke="#494949" stroke-width="0.5" stroke-miterlimit="10" points="409.787,473.097 
		427.723,458.843 416.677,446.49 398.622,460.743 	"/>
	<polygon id="r3168" fill="#939598" stroke="#494949" stroke-width="0.5" stroke-miterlimit="10" points="438.532,470.721 
		420.597,484.975 430.692,496.377 448.747,482.124 	"/>
	<path id="r3166" fill="#939598" stroke="#494949" stroke-width="0.5" stroke-miterlimit="10" d="M400.879,500.653l3.444,3.92
		c0,0,13.541-1.544,31.358-2.851l-15.085-16.748L400.879,500.653z"/>
	<polygon id="r3164" fill="#939598" stroke="#494949" stroke-width="0.5" stroke-miterlimit="10" points="398.622,460.743 
		379.38,476.066 390.308,488.538 409.787,473.097 	"/>
	<polygon id="r3163" fill="#939598" stroke="#494949" stroke-width="0.5" stroke-miterlimit="10" points="387.22,448.034 
		368.215,463.238 379.38,476.066 398.622,460.743 	"/>
	<polygon id="r3165" fill="#939598" stroke="#494949" stroke-width="0.5" stroke-miterlimit="10" points="409.787,473.097 
		390.308,488.538 400.879,500.653 420.597,484.975 	"/>
	<polygon id="r3189" fill="#939598" stroke="#494949" stroke-width="0.5" stroke-miterlimit="10" points="505.88,434.493 
		522.033,421.902 511.462,411.094 495.546,423.447 	"/>
	<polygon id="r3190" fill="#939598" stroke="#494949" stroke-width="0.5" stroke-miterlimit="10" points="517.639,447.203 
		534.268,434.137 522.033,421.902 505.88,434.493 	"/>
	<polygon id="r3187" fill="#939598" stroke="#494949" stroke-width="0.5" stroke-miterlimit="10" points="482.124,408.956 
		462.406,409.075 460.981,410.381 471.909,422.497 485.094,412.163 	"/>
	<polygon id="r3188" fill="#939598" stroke="#494949" stroke-width="0.5" stroke-miterlimit="10" points="485.094,412.163 
		485.094,412.163 495.546,423.447 511.462,411.094 509.087,408.718 482.124,408.956 	"/>
	<path id="r3182" fill="#939598" stroke="#494949" stroke-width="0.5" stroke-miterlimit="10" d="M541.751,482.837
		c0,0-3.089-10.571-3.683-24.351h-9.858l-13.659,11.641l16.985,19.005L541.751,482.837z"/>
	<polygon id="r3183" fill="#939598" stroke="#494949" stroke-width="0.5" stroke-miterlimit="10" points="517.639,447.203 
		503.741,458.131 514.432,470.127 528.21,458.486 	"/>
	<polygon id="r3185-3186" fill="#939598" stroke="#494949" stroke-width="0.5" stroke-miterlimit="10" points="495.546,423.447 
		485.094,412.163 471.909,422.497 482.124,433.899 492.22,445.184 505.88,434.493 	"/>
	<polygon id="r3184" fill="#939598" stroke="#494949" stroke-width="0.5" stroke-miterlimit="10" points="505.88,434.493 
		492.22,445.184 503.741,458.131 517.639,447.203 	"/>
	<path id="r3406" fill="#939598" stroke="#494949" stroke-width="0.5" stroke-miterlimit="10" d="M659.817,481.174
		c0,0,2.257-12.828,3.207-25.062h10.809c0,0,0.356,17.223-3.92,27.676L659.817,481.174z"/>
	<path id="r3405" fill="#939598" stroke="#494949" stroke-width="0.5" stroke-miterlimit="10" d="M662.549,450.054
		c0,0-1.307-12.947-3.682-24.944l10.334-2.851c0,0,5.819,16.63,4.513,27.913L662.549,450.054L662.549,450.054z"/>
	<polygon id="r3037" fill="#939598" stroke="#494949" stroke-width="0.5" stroke-miterlimit="10" points="268.44,660.768 
		256.444,660.768 256.444,645.683 251.336,645.683 251.336,640.932 268.44,630.479 	"/>
	<polygon id="r3043" fill="#939598" stroke="#494949" stroke-width="0.5" stroke-miterlimit="10" points="154.175,713.505 
		141.584,686.78 128.281,692.125 138.615,713.743 	"/>
	<polygon id="r3041-3042" fill="#939598" stroke="#494949" stroke-width="0.5" stroke-miterlimit="10" points="170.566,674.902 
		156.194,680.841 141.584,686.78 154.175,713.505 171.754,713.148 188.146,712.793 	"/>
	<g id="r3038-3040">
		<polygon fill="#939598" stroke="#494949" stroke-width="0.5" stroke-miterlimit="10" points="206.794,660.768 241.24,660.768 
			241.24,646.396 		"/>
		<polygon fill="#939598" stroke="#494949" stroke-width="0.5" stroke-miterlimit="10" points="170.566,674.902 188.146,712.793 
			198.955,712.674 198.955,691.294 202.162,691.294 202.162,662.192 185.295,668.963 		"/>
	</g>
	<path id="r3044" fill="#939598" stroke="#494949" stroke-width="0.5" stroke-miterlimit="10" d="M136.596,713.743h2.02
		l-10.334-21.618l-13.422,5.464l-5.107,10.452C123.768,715.405,136.596,713.743,136.596,713.743z"/>
	<path id="r3045-3052" fill="#939598" stroke="#494949" stroke-width="0.5" stroke-miterlimit="10" d="M208.101,581.186
		c-52.619,3.207-84.452,20.786-98.468,30.764c-3.682,2.613-6.176,4.751-7.483,5.938c-1.069,0.95-2.613,2.376-4.632,4.276l0,0
		c-4.751,4.751-11.403,12.354-15.085,22.33l4.989,2.02v-0.118l18.173-7.246l0,0l13.897-5.464l86.115-34.09l5.939-10.215
		L208.101,581.186z"/>
	<path id="r3402" fill="#939598" stroke="#494949" stroke-width="0.5" stroke-miterlimit="10" d="M85.758,682.741
		c4.87,9.384,10.69,15.917,16.629,20.549l5.583-10.215l-20.43-46.562l-4.989-2.02C78.75,654.828,78.038,667.775,85.758,682.741z"/>
	<polygon id="r3417-3420" fill="#939598" stroke="#494949" stroke-width="0.5" stroke-miterlimit="10" points="141.822,655.304 
		136.833,642.594 122.817,648.058 122.817,648.058 108.683,653.641 113.671,666.35 127.806,660.768 127.806,660.768 	"/>
	<polygon id="r3418-3419" fill="#939598" stroke="#494949" stroke-width="0.5" stroke-miterlimit="10" points="141.822,655.185 
		124.243,662.192 124.243,662.192 113.671,666.35 118.66,678.94 132.795,673.477 146.811,667.895 	"/>
	
		<rect id="r3413" x="168.316" y="627.515" transform="matrix(-0.9307 0.3658 -0.3658 -0.9307 571.5547 1160.4092)" fill="#939598" stroke="#494949" stroke-width="0.5" stroke-miterlimit="10" width="15.085" height="13.66"/>
	
		<rect id="r3416" x="154.174" y="633.107" transform="matrix(-0.9307 0.3658 -0.3658 -0.9307 546.3293 1176.3557)" fill="#939598" stroke="#494949" stroke-width="0.5" stroke-miterlimit="10" width="15.085" height="13.66"/>
	
		<rect id="r3415" x="159.163" y="645.687" transform="matrix(-0.9307 0.3658 -0.3658 -0.9307 560.5641 1198.8186)" fill="#939598" stroke="#494949" stroke-width="0.5" stroke-miterlimit="10" width="15.085" height="13.66"/>
	
		<rect id="r3414" x="173.174" y="640.234" transform="matrix(-0.9307 0.3658 -0.3658 -0.9307 585.587 1183.1882)" fill="#939598" stroke="#494949" stroke-width="0.5" stroke-miterlimit="10" width="15.085" height="13.66"/>
	
		<rect id="r3409" x="212.016" y="610.298" transform="matrix(-0.9307 0.3658 -0.3658 -0.9307 649.6286 1111.1847)" fill="#939598" stroke="#494949" stroke-width="0.5" stroke-miterlimit="10" width="15.085" height="13.66"/>
	
		<rect id="r3412" x="197.882" y="615.883" transform="matrix(-0.9307 0.3658 -0.3658 -0.9307 624.3842 1127.1371)" fill="#939598" stroke="#494949" stroke-width="0.5" stroke-miterlimit="10" width="15.085" height="13.66"/>
	<polygon id="r3410-3411" fill="#939598" stroke="#494949" stroke-width="0.5" stroke-miterlimit="10" points="234.113,633.211 
		229.125,620.62 215.109,626.084 214.99,626.202 200.974,631.666 205.963,644.376 212.021,641.882 	"/>
	<g id="r3159-3160">
		<path fill="#939598" stroke="#494949" stroke-width="0.5" stroke-miterlimit="10" d="M374.035,494.596H347.31l-5.345,14.372
			l7.008,8.434c0,0,29.933-8.79,34.564-9.503v-2.851L374.035,494.596z"/>
		
			<rect x="313.291" y="480.91" transform="matrix(-0.3671 0.9302 -0.9302 -0.3671 907.7634 356.1695)" fill="#939598" stroke="#494949" stroke-width="0.5" stroke-miterlimit="10" width="38.842" height="11.997"/>
	</g>
	<polygon id="r3161" fill="#939598" stroke="#494949" stroke-width="0.5" stroke-miterlimit="10" points="356.456,475.234 
		353.961,476.422 347.19,494.596 374.035,494.596 	"/>
	<polygon id="r3009-3016-3072-3086" fill="#939598" stroke="#494949" stroke-width="0.5" stroke-miterlimit="10" points="
		739.755,665.519 739.755,528.686 684.523,524.766 643.544,532.961 622.758,540.444 598.052,551.372 598.052,554.342 
		709.11,656.967 718.612,665.519 	"/>
	<path id="_x32_-spot-studio" fill="#939598" stroke="#494949" stroke-width="0.5" stroke-miterlimit="10" d="M528.21,458.486h9.858
		c-0.237-6.058,0-12.709,1.188-19.36l-4.989-4.989l-16.629,13.066L528.21,458.486z"/>
	<path id="nooyoo" fill="#939598" stroke="#494949" stroke-width="0.5" stroke-miterlimit="10" d="M574.415,420.478l-9.265-3.445
		c0,0-6.177,9.978-7.364,33.971h9.858C568.238,439.839,570.614,429.505,574.415,420.478z"/>
	<path id="glassaholic" fill="#939598" stroke="#494949" stroke-width="0.5" stroke-miterlimit="10" d="M567.525,457.299
		l-9.739-0.475c0.594,17.697,7.008,33.614,7.008,33.614l7.602-2.613C569.308,478.561,567.525,468.227,567.525,457.299z"/>
	<polygon id="r3092" fill="#939598" stroke="#494949" stroke-width="0.5" stroke-miterlimit="10" points="543.295,390.189 
		554.936,390.189 568.595,378.548 568.595,372.134 543.295,372.134 	"/>
	<polygon id="r3162" fill="#939598" stroke="#494949" stroke-width="0.5" stroke-miterlimit="10" points="376.767,436.513 
		359.663,436.513 358.237,451.835 368.215,463.238 387.22,448.034 	"/>
	<polygon id="r3006" fill="#939598" stroke="#494949" stroke-width="0.5" stroke-miterlimit="10" points="739.755,480.461 
		705.547,480.461 709.11,496.496 739.755,496.496 	"/>
</g>
<g id="signs">
	<rect id="elevator" x="717.188" y="341.133" opacity="0.8" enable-background="new    " width="17.579" height="17.579"/>
	<g id="handicapped-toilet">
		<rect x="649.246" y="324.86" opacity="0.8" enable-background="new    " width="17.579" height="17.579"/>
		<rect x="302.174" y="677.99" opacity="0.8" enable-background="new    " width="17.579" height="17.579"/>
	</g>
	<g id="toilet">
		<rect x="626.559" y="324.86" opacity="0.8" enable-background="new    " width="17.58" height="17.579"/>
		<rect x="278.537" y="678.465" opacity="0.8" enable-background="new    " width="17.579" height="17.58"/>
	</g>
	<g id="lift">
		<rect x="575.84" y="391.021" opacity="0.8" enable-background="new    " width="17.58" height="17.579"/>
		<rect x="581.186" y="496.733" opacity="0.8" enable-background="new    " width="17.579" height="17.579"/>
		<rect x="240.29" y="569.545" opacity="0.8" enable-background="new    " width="17.579" height="17.579"/>
		<rect x="320.466" y="442.214" opacity="0.8" enable-background="new    " width="17.579" height="17.579"/>
		<rect x="306.331" y="408.243" opacity="0.8" enable-background="new    " width="17.579" height="17.579"/>
	</g>
	<g id="fire-exit">
		<rect x="614.562" y="292.315" opacity="0.8" enable-background="new    " width="17.579" height="17.58"/>
		<rect x="217.841" y="695.569" opacity="0.8" enable-background="new    " width="17.579" height="17.579"/>
		<rect x="341.252" y="591.876" opacity="0.8" enable-background="new    " width="17.579" height="17.579"/>
		<rect x="425.822" y="292.315" opacity="0.8" enable-background="new    " width="17.58" height="17.58"/>
		<rect x="559.805" y="579.879" opacity="0.8" enable-background="new    " width="17.58" height="17.579"/>
	</g>
	<g id="entrance">
		<rect x="730.847" y="394.583" opacity="0.8" enable-background="new    " width="17.579" height="17.58"/>
		<rect x="731.797" y="675.733" opacity="0.8" enable-background="new    " width="17.579" height="17.579"/>
	</g>
	<rect id="parking" x="775.389" y="499.94" opacity="0.8" enable-background="new    " width="17.58" height="17.579"/>
	
		<rect id="handicapped-parking" x="775.389" y="474.047" opacity="0.8" enable-background="new    " width="17.58" height="17.579"/>
</g>
</svg>
