<?xml version="1.0" encoding="utf-8"?>
<!-- Generator: Adobe Illustrator 16.0.0, SVG Export Plug-In . SVG Version: 6.00 Build 0)  -->
<!DOCTYPE svg PUBLIC "-//W3C//DTD SVG 1.1//EN" "http://www.w3.org/Graphics/SVG/1.1/DTD/svg11.dtd">
<svg version="1.1" id="Layer_1" xmlns="http://www.w3.org/2000/svg" xmlns:xlink="http://www.w3.org/1999/xlink" x="0px" y="0px"
	 width="841.89px" height="595.281px" viewBox="0 0 841.89 595.281" enable-background="new 0 0 841.89 595.281"
	 xml:space="preserve">
<g id="background">
	<rect fill="#FFFFFF" width="841.89" height="595.281"/>
</g>
<g id="etc">
	<path fill="#DEDEDE" stroke="#494949" stroke-width="0.5" stroke-miterlimit="10" d="M305.667,118L279,63.333l-73.655,14
		c0,0-6.345,57-30.011,128.333s-95,140-95,140l18.655,29.199C74.667,384.835,58,405.145,58,428.593
		c0,33.297,33.579,60.291,75,60.291l670,1.449V118H305.667z"/>
	<path fill="#DEDEDE" stroke="#494949" stroke-width="0.5" stroke-miterlimit="10" d="M800.667,120.666H291.03
		c-0.94-4.177-3.559-12.851-10.12-20.251c-6.66-7.512-17.381-13.708-34.535-12.54c-40.375,2.75-34.542,49.208-34.542,49.208H206
		l-7.55,35.75l3.023,0.876l-22.135,56.873L125.408,333l-17.523,35l-0.893,7.486l-0.278-0.5c-6.403,3.139-12.259,6.69-17.471,10.565
		c-14.075,10.464-23.417,23.289-25.884,36.763c-0.72,3.93-0.867,7.913-0.363,11.911c0.881,6.982,3.647,13.443,7.954,19.238
		c3.27,4.4,7.444,8.406,12.352,11.967c6.611,4.8,14.58,8.773,23.546,11.771c17.502,5.85,38.815,7.963,61.325,5.121
		c1.707-0.215,3.399-0.457,5.077-0.726v-1.934h627.417V120.666z"/>
	
		<rect x="332.5" y="123.083" fill="#DEDEDE" stroke="#494949" stroke-width="0.5" stroke-miterlimit="10" width="45" height="24.083"/>
	
		<ellipse fill="#DEDEDE" stroke="#494949" stroke-width="0.5" stroke-miterlimit="10" cx="222.447" cy="339.541" rx="30.875" ry="27.75"/>
	<polygon fill="#DEDEDE" stroke="#494949" stroke-width="0.5" stroke-miterlimit="10" points="321.583,353.083 340.083,380.583 
		372,363.333 384.833,363.083 395.333,356.166 395.333,350.25 399.75,347.25 382.5,320.166 	"/>
	<polyline fill="#DEDEDE" stroke="#494949" stroke-width="0.5" stroke-miterlimit="10" points="183.333,220 199.833,226.333 
		216.333,181.667 201,176.833 183.333,220.667 	"/>
	
		<rect x="131.404" y="441.006" transform="matrix(-0.5063 -0.8623 0.8623 -0.5063 -178.7646 790.8134)" fill="#DEDEDE" stroke="#494949" stroke-width="0.5" stroke-miterlimit="10" width="11.138" height="11.137"/>
	
		<rect x="135.828" y="391.477" transform="matrix(0.8623 -0.5063 0.5063 0.8623 -181.5682 126.2476)" fill="#DEDEDE" stroke="#494949" stroke-width="0.5" stroke-miterlimit="10" width="11.137" height="11.134"/>
	
		<rect x="151.044" y="395.405" transform="matrix(-0.8623 0.5063 -0.5063 -0.8623 494.688 667.4546)" fill="#DEDEDE" stroke="#494949" stroke-width="0.5" stroke-miterlimit="10" width="11.137" height="11.137"/>
	
		<rect x="183.024" y="413.021" transform="matrix(-0.5064 -0.8623 0.8623 -0.5064 -76.8428 793.1956)" fill="#DEDEDE" stroke="#494949" stroke-width="0.5" stroke-miterlimit="10" width="11.136" height="11.138"/>
</g>
<g id="rooms">
	<path id="r6027-6029" fill="#939598" stroke="#494949" stroke-width="0.5" stroke-miterlimit="10" d="M246.375,87.875
		c-40.375,2.75-34.542,49.208-34.542,49.208H206l-7.55,35.75L218,178.5l1.5-3.333L249.667,148l22.519-0.185l-20.473-60.052
		C250.003,87.724,248.234,87.749,246.375,87.875z"/>
	<path id="r6030" fill="#939598" stroke="#494949" stroke-width="0.5" stroke-miterlimit="10" d="M315.938,123.167H291.5
		c0,0-1.574-12.583-10.59-22.752c-5.938-6.698-15.12-12.334-29.197-12.652l20.473,60.052l58.647-0.482v-2.5v-12.5V123
		L315.938,123.167z"/>
	<path id="sf-cinema" fill="#939598" stroke="#494949" stroke-width="0.5" stroke-miterlimit="10" d="M386.334,123v37.333H277.001
		v139.25h69v34.75l-43.265,23.699L326.5,395l45-24.334L428.333,369l90.916,48.75v58.418h279.252V123H386.334z M395.333,350.25v5.916
		l-10.5,6.918L372,363.333l-31.917,17.25l-18.5-27.5l60.917-32.918l17.25,27.084L395.333,350.25z"/>
	<polygon id="r6005-6006" fill="#939598" stroke="#494949" stroke-width="0.5" stroke-miterlimit="10" points="261.833,426.167 
		241.014,392.07 215.333,424.333 215.333,437 243,437 	"/>
	<polygon id="r6003-6004" fill="#939598" stroke="#494949" stroke-width="0.5" stroke-miterlimit="10" points="280.715,370.096 
		241.334,391.667 241.014,392.07 261.833,426.167 243,437 215.333,437 215.333,476.167 302.333,476.167 302.333,404 	"/>
	<polygon id="a6002-6m001" fill="#939598" stroke="#494949" stroke-width="0.5" stroke-miterlimit="10" points="428.333,369 
		371.5,370.666 326.5,395 302.736,358.033 280.715,370.096 302.333,404 302.333,476.167 519.25,476.167 519.25,417.75 	"/>
	<polygon id="r6007" fill="#939598" stroke="#494949" stroke-width="0.5" stroke-miterlimit="10" points="203.5,430.814 
		182.625,441.951 182.625,458.375 203.5,458.375 	"/>
	<path id="r6008-6009" fill="#939598" stroke="#494949" stroke-width="0.5" stroke-miterlimit="10" d="M168.596,449.439
		l-41.763,21.395l-2.719-4.365l-17.267,10.734c17.502,5.85,38.815,7.963,61.325,5.121c1.707-0.215,3.399-0.457,5.077-0.726v-23.225
		h9.375V441.95L168.596,449.439z"/>
	<path id="r6031" fill="#939598" stroke="#494949" stroke-width="0.5" stroke-miterlimit="10" d="M88.331,409.001l11.828-6.396
		L89.243,385.55c-14.075,10.468-23.417,23.293-25.884,36.765c-0.72,3.932-0.867,7.915-0.363,11.911
		c0.881,6.982,3.647,13.445,7.954,19.24c3.27,4.398,7.444,8.404,12.352,11.967c6.611,4.8,14.58,8.771,23.546,11.771l17.267-10.734
		L88.331,409.001z"/>
	<path id="r6018" fill="#939598" stroke="#494949" stroke-width="0.5" stroke-miterlimit="10" d="M106.714,374.986
		c-6.403,3.139-12.259,6.69-17.471,10.565l10.915,17.056L117,393.501L106.714,374.986z"/>
	
		<rect id="r6427" x="110.209" y="405.754" transform="matrix(0.8623 -0.5065 0.5065 0.8623 -192.3784 115.2986)" fill="#939598" stroke="#494949" stroke-width="0.5" stroke-miterlimit="10" width="11.139" height="11.138"/>
	<polygon id="r6421-6422" fill="#939598" stroke="#494949" stroke-width="0.5" stroke-miterlimit="10" points="138.697,417.275 
		133.055,407.67 123.453,413.352 123.428,413.309 113.824,418.949 119.465,428.554 124.115,425.823 124.115,425.823 	"/>
	
		<rect id="r6428" x="119.838" y="400.115" transform="matrix(-0.5064 -0.8623 0.8623 -0.5064 -160.9111 719.2598)" fill="#939598" stroke="#494949" stroke-width="0.5" stroke-miterlimit="10" width="11.135" height="11.138"/>
	
		<rect id="r6411" x="125.735" y="431.428" transform="matrix(0.8622 -0.5065 0.5065 0.8622 -203.2498 126.7061)" fill="#939598" stroke="#494949" stroke-width="0.5" stroke-miterlimit="10" width="11.138" height="11.138"/>
	
		<rect id="r6405" x="140.994" y="435.376" transform="matrix(-0.8623 0.5063 -0.5063 -0.8623 496.209 746.9825)" fill="#939598" stroke="#494949" stroke-width="0.5" stroke-miterlimit="10" width="11.137" height="11.137"/>
	
		<rect id="r6412" x="135.396" y="425.817" transform="matrix(-0.5064 -0.8623 0.8623 -0.5064 -159.6388 771.389)" fill="#939598" stroke="#494949" stroke-width="0.5" stroke-miterlimit="10" width="11.137" height="11.138"/>
	
		<rect id="r6413" x="151.059" y="416.694" transform="matrix(0.8623 -0.5064 0.5064 0.8623 -192.2617 137.4571)" fill="#939598" stroke="#494949" stroke-width="0.5" stroke-miterlimit="10" width="11.137" height="11.137"/>
	<polygon id="r6403-6404" fill="#939598" stroke="#494949" stroke-width="0.5" stroke-miterlimit="10" points="179.521,428.208 
		173.879,418.603 164.232,424.229 154.627,429.869 160.268,439.473 167.383,435.294 	"/>
	
		<rect id="r6414" x="160.691" y="411.074" transform="matrix(-0.5064 -0.8623 0.8623 -0.5064 -108.8225 770.9935)" fill="#939598" stroke="#494949" stroke-width="0.5" stroke-miterlimit="10" width="11.137" height="11.138"/>
	
		<rect id="r6420" x="141.455" y="401.061" transform="matrix(-0.5064 -0.8623 0.8623 -0.5064 -129.1669 739.3198)" fill="#939598" stroke="#494949" stroke-width="0.5" stroke-miterlimit="10" width="11.138" height="11.137"/>
	
		<rect id="r6430" x="145.446" y="385.84" transform="matrix(-0.5064 -0.8623 0.8623 -0.5064 -110.0286 719.8344)" fill="#939598" stroke="#494949" stroke-width="0.5" stroke-miterlimit="10" width="11.137" height="11.138"/>
	
		<rect id="r6418" x="167.42" y="387.284" transform="matrix(-0.5063 -0.8624 0.8624 -0.5063 -78.2008 740.9358)" fill="#939598" stroke="#494949" stroke-width="0.5" stroke-miterlimit="10" width="11.139" height="11.136"/>
	
		<rect id="r6417" x="177.031" y="381.665" transform="matrix(-0.8623 0.5065 -0.5065 -0.8623 536.1657 628.6539)" fill="#939598" stroke="#494949" stroke-width="0.5" stroke-miterlimit="10" width="11.138" height="11.137"/>
	<polygon id="r6431-6432" fill="#939598" stroke="#494949" stroke-width="0.5" stroke-miterlimit="10" points="184.579,379.645 
		178.939,370.043 169.349,375.676 169.348,375.674 159.745,381.313 165.383,390.914 174.974,385.282 174.975,385.285 	"/>
	
		<rect id="r6415" x="177.394" y="403.438" transform="matrix(0.8623 -0.5065 0.5065 0.8623 -181.9427 148.9957)" fill="#939598" stroke="#494949" stroke-width="0.5" stroke-miterlimit="10" width="11.138" height="11.137"/>
	
		<rect id="r6401" x="192.649" y="407.384" transform="matrix(-0.8623 0.5064 -0.5064 -0.8623 578.2551 668.6704)" fill="#939598" stroke="#494949" stroke-width="0.5" stroke-miterlimit="10" width="11.137" height="11.138"/>
	
		<rect id="r6416" x="187.018" y="397.8" transform="matrix(-0.5065 -0.8623 0.8623 -0.5065 -57.6857 773.7205)" fill="#939598" stroke="#494949" stroke-width="0.5" stroke-miterlimit="10" width="11.135" height="11.138"/>
	<path id="r6021" fill="#939598" stroke="#494949" stroke-width="0.5" stroke-miterlimit="10" d="M111.967,327.781l29.278,24.1
		L159,340l2.125,1c0,0,1.195-1.484,3.251-4.156l-42.25-20.508C118.869,320.15,115.482,323.975,111.967,327.781z"/>
	<path id="r6022" fill="#939598" stroke="#494949" stroke-width="0.5" stroke-miterlimit="10" d="M122.126,316.335l42.25,20.508
		c3.111-4.038,8.197-10.793,14.117-19.237l-41.373-19.892C132.467,303.837,127.47,310.076,122.126,316.335z"/>
	<path id="r6020" fill="#939598" stroke="#494949" stroke-width="0.5" stroke-miterlimit="10" d="M99.624,340.541l25.146,22.363
		l16.476-11.023l-29.278-24.1C108.014,332.064,103.902,336.33,99.624,340.541z"/>
	<path id="r6019" fill="#939598" stroke="#494949" stroke-width="0.5" stroke-miterlimit="10" d="M91,348.75l15.714,26.236
		l18.055-12.082l-25.146-22.363C96.819,343.303,93.945,346.042,91,348.75z"/>
	<path id="r6023" fill="#939598" stroke="#494949" stroke-width="0.5" stroke-miterlimit="10" d="M137.12,297.714l41.373,19.892
		c4.106-5.855,8.611-12.525,13.136-19.665l-40.897-19.146C146.581,284.891,142.043,291.236,137.12,297.714z"/>
	<path id="r6025" fill="#939598" stroke="#494949" stroke-width="0.5" stroke-miterlimit="10" d="M174.886,239.109
		c-2.806,5.212-6.243,11.32-10.312,18.08l39.254,20.194c3.672-6.681,7.093-13.477,10.017-20.165L174.886,239.109z"/>
	<path id="r6026" fill="#939598" stroke="#494949" stroke-width="0.5" stroke-miterlimit="10" d="M221.5,235.25l-37.25-14.898
		c0,0-3.122,7.161-9.364,18.757l38.959,18.109C217.154,249.649,219.828,242.218,221.5,235.25z"/>
	<path id="r6024" fill="#939598" stroke="#494949" stroke-width="0.5" stroke-miterlimit="10" d="M150.731,278.794l40.897,19.146
		c4.15-6.547,8.313-13.487,12.199-20.558l-39.254-20.194C160.572,263.839,155.958,271.118,150.731,278.794z"/>
</g>
<g id="signs">
	<rect id="toilet" x="351.387" y="345.107" opacity="0.8" enable-background="new    " width="14.813" height="14.813"/>
	<g id="fire-exit">
		<rect x="356.667" y="121.056" opacity="0.8" enable-background="new    " width="14.811" height="14.811"/>
		<rect x="185.167" y="461.357" opacity="0.8" enable-background="new    " width="14.811" height="14.811"/>
	</g>
	
		<rect id="handicapped-toilet" x="370.137" y="345.107" opacity="0.8" enable-background="new    " width="14.813" height="14.813"/>
</g>
</svg>
