<?xml version="1.0" encoding="utf-8"?>
<!-- Generator: Adobe Illustrator 16.0.0, SVG Export Plug-In . SVG Version: 6.00 Build 0)  -->
<!DOCTYPE svg PUBLIC "-//W3C//DTD SVG 1.1//EN" "http://www.w3.org/Graphics/SVG/1.1/DTD/svg11.dtd">
<svg version="1.1" id="Layer_1" xmlns="http://www.w3.org/2000/svg" xmlns:xlink="http://www.w3.org/1999/xlink" x="0px" y="0px"
	 width="1000px" height="1000px" viewBox="0 0 1000 1000" enable-background="new 0 0 1000 1000" xml:space="preserve">
<g id="background">
	<rect y="146.455" fill="#FFFFFF" width="1000" height="707.091"/>
</g>
<g id="etc">
	<path fill="#DEDEDE" stroke="#494949" stroke-width="0.5" stroke-miterlimit="10" d="M363.107,286.614l-31.714-64.972
		l-87.541,16.629c0,0-7.483,67.704-35.633,152.394c-28.151,84.689-112.84,166.29-112.84,166.29l22.212,34.803
		c-28.863,11.878-48.7,35.99-48.7,63.784c0,39.554,39.91,71.624,89.084,71.624l795.819,1.663V286.614H363.107z"/>
	<path fill="#DEDEDE" stroke="#494949" stroke-width="0.5" stroke-miterlimit="10" d="M949.875,311.795H775.271v-22.806H345.528
		c-1.307-5.227-4.396-14.966-11.878-23.281c-7.959-8.908-20.668-16.273-40.979-14.847c-47.987,3.326-40.979,58.439-40.979,58.439
		h-7.008l-9.027,42.523h0.119l-23.756,54.401c28.15,17.223,70.436,24.35,104.288,22.805c33.852-1.544,44.186,59.983-4.989,62.003
		c-49.174,2.02-32.664,36.821-32.664,36.821l-49.649,47.037c-25.181-2.613-48.818,1.188-48.818,1.188
		c-63.309,8.434-110.346,46.799-105.357,86.233c1.069,8.314,4.276,15.916,9.502,22.806c19.361,26.013,64.854,40.622,115.453,34.327
		c2.02-0.237,4.039-0.594,6.058-0.832v-2.375l744.031,5.938V311.795L949.875,311.795L949.875,311.795z"/>
	
		<ellipse fill="#DEDEDE" stroke="#494949" stroke-width="0.5" stroke-miterlimit="10" cx="612.424" cy="456.705" rx="45.018" ry="67.941"/>
	
		<rect x="705.784" y="316.071" fill="#DEDEDE" stroke="#494949" stroke-width="0.5" stroke-miterlimit="10" width="41.93" height="72.693"/>
	<polygon fill="#DEDEDE" stroke="#494949" stroke-width="0.5" stroke-miterlimit="10" points="614.443,359.069 682.147,359.069 
		682.147,316.071 615.275,316.071 	"/>
	
		<rect x="615.513" y="313.339" fill="#DEDEDE" stroke="#494949" stroke-width="0.5" stroke-miterlimit="10" width="132.913" height="0.95"/>
	
		<rect x="773.845" y="314.289" fill="#DEDEDE" stroke="#494949" stroke-width="0.5" stroke-miterlimit="10" width="105.714" height="22.331"/>
	
		<rect x="251.217" y="661.005" fill="#DEDEDE" stroke="#494949" stroke-width="0.5" stroke-miterlimit="10" width="116.166" height="52.025"/>
	
		<rect x="207.27" y="661.005" fill="#DEDEDE" stroke="#494949" stroke-width="0.5" stroke-miterlimit="10" width="27.913" height="26.013"/>
	<polygon fill="#DEDEDE" stroke="#494949" stroke-width="0.5" stroke-miterlimit="10" points="214.99,405.393 234.588,413.47 
		255.612,359.663 235.657,353.961 	"/>
	
		<rect x="456.349" y="290.771" fill="#DEDEDE" stroke="#494949" stroke-width="0.5" stroke-miterlimit="10" width="50.243" height="26.606"/>
	<polygon fill="#DEDEDE" stroke="#494949" stroke-width="0.5" stroke-miterlimit="10" points="373.56,713.03 373.56,661.005 
		402.66,661.005 402.66,577.859 382.469,577.859 372.016,559.806 404.086,543.414 540.682,543.414 579.166,563.25 570.614,577.146 
		604.348,596.745 747.714,598.289 746.645,717.544 	"/>
	<polygon fill="#DEDEDE" stroke="#494949" stroke-width="0.5" stroke-miterlimit="10" points="887.041,640.575 761.373,640.575 
		761.373,667.895 793.681,667.895 793.681,689.868 823.376,689.868 823.376,719.919 920.537,719.919 920.537,690.225 
		947.855,690.225 947.855,610.643 887.16,610.643 	"/>
	
		<rect x="761.373" y="667.895" fill="#DEDEDE" stroke="#494949" stroke-width="0.5" stroke-miterlimit="10" width="32.308" height="21.974"/>
</g>
<g id="rooms">
	<path id="r4013" fill="#939598" stroke="#494949" stroke-width="0.5" stroke-miterlimit="10" d="M195.748,618.244l-15.441-42.285
		c-63.31,8.434-110.346,46.799-105.357,86.233c1.069,8.314,4.276,15.917,9.502,22.806L195.748,618.244L195.748,618.244z"/>
	<path id="r4012" fill="#939598" stroke="#494949" stroke-width="0.5" stroke-miterlimit="10" d="M195.748,618.363L84.214,685.117
		c19.361,26.013,64.853,40.622,115.453,34.327c2.019-0.237,4.039-0.594,6.058-0.832v-59.508h32.665v-30.883L195.748,618.363z"/>
	<polygon id="cold-stone" fill="#939598" stroke="#494949" stroke-width="0.5" stroke-miterlimit="10" points="614.443,362.276 
		682.147,362.276 682.147,376.648 675.258,382.468 614.443,367.146 	"/>
	<polygon id="dak-galbi" fill="#939598" stroke="#494949" stroke-width="0.5" stroke-miterlimit="10" points="749.732,338.876 
		879.559,338.876 879.559,367.74 856.158,367.74 856.158,388.764 749.732,388.764 	"/>
	
		<rect id="r4025" x="721.345" y="416.914" fill="#939598" stroke="#494949" stroke-width="0.5" stroke-miterlimit="10" width="74.593" height="41.572"/>
	
		<rect id="r4023" x="795.938" y="416.914" fill="#939598" stroke="#494949" stroke-width="0.5" stroke-miterlimit="10" width="42.404" height="41.572"/>
	
		<rect id="r4024" x="721.345" y="494.715" fill="#939598" stroke="#494949" stroke-width="0.5" stroke-miterlimit="10" width="116.997" height="30.051"/>
	<polygon id="r4006" fill="#939598" stroke="#494949" stroke-width="0.5" stroke-miterlimit="10" points="747.714,554.816 
		738.567,545.552 658.511,545.552 658.511,594.845 747.714,595.677 	"/>
	<polygon id="r4010-2" fill="#939598" stroke="#494949" stroke-width="0.5" stroke-miterlimit="10" points="381.043,581.186 
		367.621,558.023 373.085,555.292 359.068,531.654 323.91,563.013 333.412,577.741 344.578,569.427 344.578,569.427 
		344.578,569.427 367.739,610.523 367.739,610.523 378.192,629.172 378.192,629.172 378.192,629.172 378.192,658.392 
		399.335,658.392 399.335,581.186 	"/>
	<polygon id="r4011" fill="#939598" stroke="#494949" stroke-width="0.5" stroke-miterlimit="10" points="367.739,610.523 
		336.976,631.666 336.976,631.666 336.976,631.666 302.53,582.136 251.217,628.104 251.217,658.392 378.192,658.392 
		378.192,629.172 	"/>
	<polygon id="r4009" fill="#939598" stroke="#494949" stroke-width="0.5" stroke-miterlimit="10" points="426.654,484.975 
		401.235,493.883 378.192,514.432 396.484,543.414 402.898,540.207 442.333,540.207 442.333,484.975 	"/>
	<polygon id="r4008" fill="#939598" stroke="#494949" stroke-width="0.5" stroke-miterlimit="10" points="485.806,484.975 
		461.338,484.975 461.338,540.207 542.582,540.207 556.479,547.809 569.664,526.072 	"/>
	<polygon id="r4007" fill="#939598" stroke="#494949" stroke-width="0.5" stroke-miterlimit="10" points="609.336,545.552 
		569.664,526.072 556.479,547.809 583.205,562.418 574.652,576.672 604.822,594.251 658.511,594.845 658.511,545.552 	"/>
	
		<rect id="r4027-4028" x="372.016" y="403.611" fill="#939598" stroke="#494949" stroke-width="0.5" stroke-miterlimit="10" width="88.49" height="54.875"/>
	
		<rect id="r4026" x="482.48" y="403.611" fill="#939598" stroke="#494949" stroke-width="0.5" stroke-miterlimit="10" width="59.389" height="54.875"/>
	<polygon id="r4001" fill="#939598" stroke="#494949" stroke-width="0.5" stroke-miterlimit="10" points="947.855,341.489 
		896.781,341.489 896.781,381.875 870.412,381.875 870.056,420.478 947.855,420.478 	"/>
	<polygon id="r4004-4005" fill="#939598" stroke="#494949" stroke-width="0.5" stroke-miterlimit="10" points="887.16,557.192 
		869.225,557.192 869.225,557.43 761.373,557.43 761.373,640.575 887.041,640.575 	"/>
	<polygon id="r4002" fill="#939598" stroke="#494949" stroke-width="0.5" stroke-miterlimit="10" points="947.855,420.478 
		870.056,420.478 869.699,469.771 947.855,469.771 	"/>
	<polygon id="r4003" fill="#939598" stroke="#494949" stroke-width="0.5" stroke-miterlimit="10" points="869.699,469.771 
		869.225,557.192 887.16,557.192 887.16,610.643 947.855,610.643 947.855,469.771 	"/>
	<path id="r4018" fill="#939598" stroke="#494949" stroke-width="0.5" stroke-miterlimit="10" d="M506.592,317.377h-50.243v66.753
		c0,0,25.062,0,55.945-2.969v-63.903h-5.702V317.377z"/>
	<path id="r4019" fill="#939598" stroke="#494949" stroke-width="0.5" stroke-miterlimit="10" d="M593.538,295.76l-21.38-4.989
		l-28.863,4.395l-36.228-4.395h-0.356v26.606h5.701v63.903c26.845-2.613,58.202-7.483,81.245-16.629L593.538,295.76L593.538,295.76z
		"/>
	<path id="r4015" fill="#939598" stroke="#494949" stroke-width="0.5" stroke-miterlimit="10" d="M312.389,274.973l21.262-9.265
		c-7.959-8.908-20.668-16.273-40.979-14.847c-47.987,3.326-40.979,58.439-40.979,58.439h-7.008l-9.027,42.523l23.281,6.771
		l1.782-3.92l11.046,2.851c0,0,36.584,8.909,82.433,16.511l0.594-14.135L312.389,274.973z"/>
	<path id="r4017" fill="#939598" stroke="#494949" stroke-width="0.5" stroke-miterlimit="10" d="M442.689,318.446h-40.741v62.122
		c13.778,1.663,27.557,2.851,40.741,3.563V318.446z"/>
	<path id="r4016" fill="#939598" stroke="#494949" stroke-width="0.5" stroke-miterlimit="10" d="M392.921,318.446v-25.894
		l-17.698,0.237H346.24c0,0-1.9-14.966-12.59-27.082l-21.262,9.265l42.522,84.571l-0.594,14.135
		c15.204,2.494,31.357,4.87,47.631,6.889v-62.122H392.921L392.921,318.446z"/>
	<path id="r4014" fill="#939598" stroke="#494949" stroke-width="0.5" stroke-miterlimit="10" d="M262.264,424.635
		c18.292,3.682,37.177,5.107,54.044,4.276c11.046-0.476,19.599,5.701,24.35,14.372c0.356-1.9,0.475-3.801,0.475-5.701
		c0-20.787-18.173-37.653-40.622-37.653C282.932,399.929,267.965,410.263,262.264,424.635z"/>
	
		<rect id="r4401" x="631.938" y="503.947" transform="matrix(-0.603 0.7977 -0.7977 -0.603 1449.9227 302.477)" fill="#939598" stroke="#494949" stroke-width="0.5" stroke-miterlimit="10" width="35.516" height="16.154"/>
	
		<rect id="r4402" x="658.511" y="431.049" fill="#939598" stroke="#494949" stroke-width="0.5" stroke-miterlimit="10" width="8.195" height="22.093"/>
	<polygon id="r4010-1" fill="#939598" stroke="#494949" stroke-width="0.5" stroke-miterlimit="10" points="373.085,555.292 
		359.068,531.654 378.192,514.432 396.484,543.414 	"/>
</g>
<g id="signs">
	<g id="elevator">
		<rect x="213.684" y="362.276" opacity="0.8" enable-background="new    " width="17.579" height="17.579"/>
		<rect x="719.682" y="341.489" display="none" opacity="0.8" enable-background="new    " width="17.579" height="17.58"/>
	</g>
	<g id="toilet">
		<rect x="280.2" y="676.327" opacity="0.8" enable-background="new    " width="17.58" height="17.579"/>
		<rect x="625.847" y="327.236" opacity="0.8" enable-background="new    " width="17.579" height="17.58"/>
	</g>
	<g id="handicapped-toilet">
		<rect x="305.975" y="678.228" opacity="0.8" enable-background="new    " width="17.579" height="17.579"/>
		<rect x="650.79" y="327.236" opacity="0.8" enable-background="new    " width="17.579" height="17.58"/>
	</g>
	<g id="lift">
		<rect x="280.2" y="527.616" opacity="0.8" enable-background="new    " width="17.58" height="17.579"/>
		<rect x="305.975" y="480.461" opacity="0.8" enable-background="new    " width="17.579" height="17.579"/>
		<rect x="580.71" y="498.516" opacity="0.8" enable-background="new    " width="17.579" height="17.579"/>
		<rect x="577.503" y="391.021" opacity="0.8" enable-background="new    " width="17.579" height="17.579"/>
	</g>
	<g id="fire-exit">
		<rect x="212.377" y="693.906" opacity="0.8" enable-background="new    " width="17.579" height="17.58"/>
		<rect x="798.907" y="695.095" opacity="0.8" enable-background="new    " width="17.579" height="17.579"/>
		<rect x="925.645" y="697.232" opacity="0.8" enable-background="new    " width="17.579" height="17.579"/>
		<rect x="926.238" y="319.159" opacity="0.8" enable-background="new    " width="17.579" height="17.579"/>
		<rect x="615.513" y="291.603" opacity="0.8" enable-background="new    " width="17.579" height="17.579"/>
		<rect x="418.34" y="291.603" opacity="0.8" enable-background="new    " width="17.579" height="17.579"/>
	</g>
</g>
</svg>
