<?xml version="1.0" encoding="utf-8"?>
<!-- Generator: Adobe Illustrator 19.2.0, SVG Export Plug-In . SVG Version: 6.00 Build 0)  -->
<svg version="1.1" id="Layer_1" xmlns="http://www.w3.org/2000/svg" xmlns:xlink="http://www.w3.org/1999/xlink" x="0px" y="0px"
	 viewBox="0 0 841.9 595.3" style="enable-background:new 0 0 841.9 595.3;" xml:space="preserve">
<style type="text/css">
	.st0{fill:#FFFFFF;}
	.st1{fill:#DEDEDE;stroke:#494949;stroke-width:0.5;stroke-miterlimit:10;}
	.st2{fill:#DEDEDE;stroke:#494949;stroke-miterlimit:10;}
	.st3{fill:#939598;stroke:#494949;stroke-width:0.5;stroke-miterlimit:10;}
	.st4{opacity:0.8;enable-background:new    ;}
</style>
<g id="background">
	<rect class="st0" width="841.9" height="595.3"/>
</g>
<g id="etc">
	<path class="st1" d="M305.7,118L279,63.3l-73.7,14c0,0-6.3,57-30,128.3s-95,140-95,140L99,374.9c-24.3,10-41,30.3-41,53.7
		c0,33.3,33.6,60.3,75,60.3l551.7,1.4V118H305.7z"/>
	<path class="st1" d="M289.6,124.8l-8.1-15.3c0,0-10.3-15.8-28.5-16.8c-10.5-0.6-22.5,2.4-30.9,12.7c-6.1,7.5-10.3,18.7-10.8,35.3
		l-5.5,0.3l-9.2,38.8l8,4.2c66.8,25.5,61.6,74.9,53.5,105.9c-8.4,32.2-61.2,73-61.2,73c-44.1-4.5-86.6,15-86.6,15l-1.3-2.4l0.7,6.6
		c-2.7,1.2-5.3,2.4-7.9,3.8c-3.8,2-7.3,4.2-10.7,6.6c-1.8,1.3-3.5,2.6-5.1,4s-3.1,2.7-4.4,4.1c-6.5,6.4-10.6,12.3-13,17.8
		c-6.5,14.7-0.7,25.5,1,30.6c1.5,4.4,6.5,12.7,14.9,19.1l6.1,3.9c4.8,2.5,10.5,4.3,16.9,4.7c2.5,0.1,5.1,0.3,7.8,0.3
		c9.1,0.3,19.2,0.3,27.9,0.2c5.4-0.1,10.2-0.2,14-0.3c5.1-0.1,8.2-0.3,8.2-0.3v-1l8.6,5.6h460V124.8H289.6L289.6,124.8z"/>
	<ellipse class="st1" cx="515.6" cy="261.2" rx="37.9" ry="57.2"/>
	<path class="st1" d="M450.7,249.1L450.7,249.1c-0.4-1.5-0.8-2.8-1.4-4.2c-0.1-0.3-0.2-0.5-0.3-0.8c0-0.1-0.1-0.1-0.1-0.2
		c-0.4-1-0.9-2-1.3-2.9c-0.1-0.1-0.1-0.3-0.2-0.4c-3.7-6.9-9.2-12.2-15.9-14.9c-3.2-1.3-6.6-2.1-10.2-2.1l0,0H395h-85.8
		c-13.6,0-25.2,10.4-29.2,24.9l0,0l0,0c-0.2,0.9-0.5,1.8-0.6,2.7c0,0,0,0,0,0.1c-0.2,0.9-0.3,1.8-0.5,2.7v0.1
		c-0.1,0.9-0.2,1.7-0.3,2.6c0,0.2,0,0.3,0,0.5c-0.1,0.9-0.1,1.8-0.1,2.6l0,0l0,0v4.2l0,0c0,20,13.8,36.1,30.8,36.1l0,0h26.2h85.8
		c13.6,0,25.2-10.4,29.2-24.9l0,0l0,0c0.2-0.9,0.5-1.8,0.6-2.7c0,0,0,0,0-0.1c0.2-0.9,0.3-1.8,0.5-2.7v-0.1c0.1-0.9,0.2-1.7,0.3-2.6
		c0-0.2,0-0.3,0-0.5c0.1-0.9,0.1-1.8,0.1-2.6l0,0l0,0v-4.2l0,0C452,256.1,451.6,252.5,450.7,249.1z"/>
	<rect x="171.2" y="436.2" class="st1" width="30.6" height="24"/>
	<rect x="589.3" y="147" class="st1" width="34.2" height="61"/>
	<rect x="514.4" y="147" class="st1" width="55.8" height="36.2"/>
	<rect x="514.4" y="144.8" class="st1" width="110.1" height="1.2"/>
	<rect x="299.9" y="126.4" class="st1" width="53" height="22.6"/>
	<rect x="215.8" y="437.8" class="st1" width="69.5" height="39.2"/>
	<rect x="378.9" y="317.6" class="st2" width="8.1" height="1.5"/>
	<polyline class="st1" points="373.7,467.3 382.3,470 392.1,466.8 	"/>
	<path class="st1" d="M110.3,378c0,0,42.6-19.6,86.6-15c0,0,52.8-40.7,61.2-73c8.4-32.2,13.7-84.2-61.4-108.8
		c0,0-33,109.3-102,167.4L110.3,378z"/>
	<path class="st1" d="M72.3,420.3l-3.7-2c-6.5,14.7-0.7,25.5,1,30.6c1.5,4.4,6.5,12.7,14.9,19.1l4.7-7.3L72.3,420.3z"/>
</g>
<g id="Rooms">
	<polygon id="r2056" class="st3" points="382,208.8 479.5,208.8 479.5,164.3 493.5,164.3 493.5,130.5 476.5,127.2 453.3,130 
		426.8,127.2 401.2,130.8 382,128.3 	"/>
	<polygon id="r2054" class="st3" points="337.8,155.2 337.8,150.8 308.2,150.8 308.2,208.8 338.1,208.8 338.1,155.2 	"/>
	<rect id="r2055" x="338.1" y="155.2" class="st3" width="34.3" height="53.7"/>
	<polygon id="r2063-2065" class="st3" points="496,175.9 511.6,175.9 511.6,185 570.1,185 570.1,198.4 558.5,208 542.5,194.8 
		500.6,194.8 496,186.1 	"/>
	<path id="r2048" class="st3" d="M123.2,400.4l-9.9-19.8c-3.9,1.6-7.8,3.4-11.5,5.3l9.2,19.3L123.2,400.4z"/>
	<path id="r2047" class="st3" d="M111,405.1l-9.2-19.3c-3.8,2-7.3,4.2-10.7,6.6l8.4,17.2L111,405.1z"/>
	<path id="r2046" class="st3" d="M99.5,409.7l-8.4-17.2c-1.8,1.3-3.5,2.6-5.1,4s-3.1,2.7-4.4,4.1l6.5,13.6L99.5,409.7z"/>
	<path id="r2052" class="st3" d="M173.6,380.6l3.5-8l-2.9-5.7c0,0-11.1,0.7-26.1,3.7l8.4,16.8L173.6,380.6z"/>
	<path id="r2045" class="st3" d="M88.1,414.1l-6.5-13.6c-6.5,6.4-10.6,12.3-13,17.8l3.7,2L88.1,414.1z"/>
	<path id="r2049" class="st3" d="M134.7,395.9l-9.7-19.5c-3.9,1.2-7.8,2.6-11.7,4.2l9.9,19.8L134.7,395.9z"/>
	<path id="r2050" class="st3" d="M125,376.4l9.7,19.5l10.9-4.3l-9-18.5C132.8,374.1,128.9,375.1,125,376.4z"/>
	<path id="r2051" class="st3" d="M148,370.5c-3.6,0.7-7.5,1.6-11.5,2.6l9,18.5l10.8-4.2L148,370.5z"/>
	<path id="r2043" class="st3" d="M107.6,459.2l8,17.8c4,0.1,8.3,0.2,12.5,0.2l-8.9-22.6L107.6,459.2z"/>
	<path id="r2042" class="st3" d="M143.4,477.2l-12.7-27.3l-11.6,4.7l8.9,22.6C133.3,477.3,138.6,477.3,143.4,477.2z"/>
	<path id="r2040" class="st3" d="M155.1,440.1l-12.5,5l14.8,31.8c5.1-0.1,8.2-0.3,8.2-0.3V458h4v-0.2h-6.3L155.1,440.1z"/>
	<polygon id="r2039" class="st3" points="163.3,457.8 169.7,457.8 169.3,434.4 155.1,440.1 	"/>
	<polygon id="r2038" class="st3" points="201.8,421.3 201.8,421.3 171.1,433.7 201.8,433.6 	"/>
	<path id="r2041" class="st3" d="M130.7,449.9l12.7,27.3c5.4-0.1,10.2-0.2,14-0.3l-14.8-31.8L130.7,449.9z"/>
	<path id="r2044" class="st3" d="M95.3,464.2l-4.6,7.8c4.8,2.5,10.5,4.3,16.9,4.7c2.5,0.1,5.1,0.3,7.8,0.3l-8-17.8L95.3,464.2z"/>
	<polygon id="r2143-2150" class="st3" points="130.7,423.1 130.7,423.1 135.2,433.1 147.2,428.5 137.9,409 126.4,413.6 	"/>
	<polygon id="r2146-2147" class="st3" points="106.2,433.2 106.2,433.2 102,423.4 91.1,427.8 99.5,446.8 110.3,442.6 	"/>
	<polygon id="r2144-2149" class="st3" points="130.7,423.1 126.4,413.6 114.2,418.5 118.6,428.1 123,437.8 135.2,433.1 	"/>
	<polygon id="r2145-2148" class="st3" points="118.6,428.1 114.2,418.5 102,423.4 106.2,433.2 110.3,442.6 123,437.8 	"/>
	<polygon id="r2151" class="st3" points="151.9,403.7 156.7,413.4 166.5,409.5 162.1,399.6 	"/>
	<polygon id="r2152-2153" class="st3" points="186.7,389.6 162.9,399.2 162.1,399.6 166.5,409.5 192,399.3 	"/>
	<polygon id="r2140-2141-2142" class="st3" points="196.9,408.2 192,399.3 156.7,413.4 161.2,422.5 	"/>
	<polygon id="r2037" class="st3" points="210.9,405.1 210.9,420.2 214.5,420.2 214.5,435 224,435 224,409.5 	"/>
	<polygon id="r2006" class="st3" points="620.3,287.3 591.8,287.3 594.3,298.8 594.3,300.1 620.3,300.1 	"/>
	<rect id="r2007" x="594.3" y="300.1" class="st3" width="26" height="12.5"/>
	<rect id="r2009" x="594.3" y="325.2" class="st3" width="26" height="12.8"/>
	<rect id="r2008" x="594.3" y="312.7" class="st3" width="26" height="12.5"/>
	<polygon id="r2004" class="st3" points="620.3,261.8 586.2,261.8 589.5,276.8 620.3,276.8 	"/>
	<polygon id="r2001-2002-2003" class="st3" points="620.3,246 611.9,238.2 601.3,238.2 601.3,223.2 587.4,223.2 579.5,230.8 
		586.2,261.8 620.3,261.8 	"/>
	<polygon id="r2016" class="st3" points="594.3,430.9 602.1,438.2 620.3,438.2 620.3,423.2 594.3,423.2 	"/>
	<rect id="r2014" x="594.3" y="391.6" class="st3" width="26" height="15.5"/>
	<rect id="r2010" x="594.3" y="337.9" class="st3" width="26" height="12.6"/>
	<rect id="r2013" x="594.3" y="375.9" class="st3" width="26" height="15.7"/>
	<rect id="r2015" x="594.3" y="407.1" class="st3" width="26" height="16.1"/>
	<polygon id="r2011-2012" class="st3" points="594.3,350.5 594.3,363.2 594.3,375.9 620.3,375.9 620.3,363.2 620.3,350.5 	"/>
	<polygon id="r2087" class="st3" points="542.6,400 534.2,392.6 515.8,409.3 525,417.3 543.3,400.6 	"/>
	<polygon id="r2088" class="st3" points="543.3,400.6 525,417.3 527.2,419.3 527.2,423.2 541.3,423.2 541.3,417.9 552,408.3 	"/>
	<polygon id="r2086" class="st3" points="533.6,392.1 523.4,383.1 505.7,400.3 511.3,405.3 515.8,409.3 534.2,392.6 	"/>
	<polygon id="r2096" class="st3" points="495.5,391.8 495.5,391.8 484.5,382.6 471.8,404.3 482.2,413.4 498.4,394.2 	"/>
	<polygon id="r2095" class="st3" points="505.7,400.3 505.7,400.3 498.4,394.2 482.2,413.4 482.5,413.7 493.6,423.4 511.3,405.3 	
		"/>
	<polygon id="r2084" class="st3" points="499.6,362.1 492.1,369.5 484.5,382.6 495.5,391.8 511.8,372.8 	"/>
	<polygon id="r2085" class="st3" points="523.4,383.1 513.1,374 511.8,372.8 495.5,391.8 498.4,394.2 498.4,394.2 505.7,400.3 	"/>
	<path id="r2053a-2053b" class="st3" d="M222.1,105.3c-6.1,7.5-10.3,18.7-10.8,35.3l-5.5,0.3l-9.2,38.8l41.7,22.2l26.8-21.5
		l-10.7-29.7L222.1,105.3z"/>
	<path id="r2053c" class="st3" d="M297.7,164.3V140l-16.2-30.5c0,0-10.3-15.8-28.5-16.8c-10.5-0.6-22.5,2.4-30.9,12.7l32.4,45.5
		l10.7,29.7l0.8-0.7L297.7,164.3z"/>
	<polygon id="r2123-2124-2125" class="st3" points="330,385.5 341.4,376.5 307.4,337.1 296,345.4 	"/>
	<polygon id="r2031" class="st3" points="343.8,449.9 333.6,446.5 333.6,468.7 340,470.6 349.8,467.4 349.8,449.9 	"/>
	<polygon id="r2030" class="st3" points="349.8,449.9 349.8,467.4 362.4,463.4 372.8,467.4 363.8,449.9 	"/>
	<polygon id="r2028" class="st3" points="418.1,449.9 418.3,467.3 426,470 432.3,468 432.3,449.9 	"/>
	<polygon id="r2029" class="st3" points="401.4,449.9 393,467.2 404.4,462.5 418.3,467.3 418.1,449.9 	"/>
	<polygon id="r2032" class="st3" points="317.4,441 317.4,445.2 317.4,445.9 317.4,463.8 333.6,468.7 333.6,446.5 	"/>
	<polygon id="r2034" class="st3" points="252.6,419.2 252.6,435 288.5,435 288.5,431.3 	"/>
	<polygon id="r2036" class="st3" points="224,409.5 224,435 236.3,435 236.3,413.7 	"/>
	<polygon id="r2035" class="st3" points="236.3,413.7 236.3,435 252.6,435 252.6,419.2 	"/>
	<polygon id="r2033" class="st3" points="288.5,431.3 288.5,435 288.5,435.9 288.5,445.2 317.4,445.2 317.4,441 	"/>
	<path id="r2021" class="st3" d="M522.8,449.9v19.6c4.4,1.5,9.2,3,14.4,4.3v-23.9H522.8L522.8,449.9z"/>
	<path id="r2019" class="st3" d="M551.4,449.9v27c4.5,0.8,9.2,1.4,14.1,1.9v-28.9H551.4L551.4,449.9z"/>
	<path id="r2020" class="st3" d="M537.3,449.9v23.9c4.4,1.1,9.2,2.2,14.2,3.1v-27H537.3L537.3,449.9z"/>
	<path id="r2017" class="st3" d="M581.3,449.9v29.8c2.7,0,5.5,0,8.3-0.1v-17.9h8.4v-11.9h-16.7V449.9z"/>
	<polygon id="r2027" class="st3" points="432.3,449.9 432.3,468 446.6,463.4 446.8,463.4 446.8,449.9 	"/>
	<path id="r2018" class="st3" d="M565.5,449.9v28.9c5.1,0.5,10.3,0.8,15.8,0.9v-29.8H565.5z"/>
	<polygon id="r2026" class="st3" points="446.8,449.9 446.8,463.4 462.5,468.6 462.5,449.9 	"/>
	<path id="r2022" class="st3" d="M508.7,449.9V464c4,1.8,8.7,3.7,14.1,5.6V450L508.7,449.9L508.7,449.9z"/>
	<polygon id="r2025" class="st3" points="462.5,449.9 462.5,468.6 468,470.4 475.7,467.9 475.7,449.9 	"/>
	<path id="r2023" class="st3" d="M489.1,449.9v13.4l4.1-7.4c0,0,5.5,3.6,15.5,8.1v-14.1H489.1z"/>
	<polygon id="r2024" class="st3" points="475.7,449.9 475.7,467.9 489,463.5 489.1,463.3 489.1,449.9 	"/>
	<polygon id="r2404" class="st3" points="375,441.5 383.3,436.8 391.5,441.5 391.5,451 383.3,455.7 375,451 	"/>
	<polygon id="r2067" class="st3" points="567.7,331.5 568,346.5 577,346.5 577,331.5 	"/>
	<polygon id="r2069-2070" class="st3" points="567.7,331.5 559.5,331.5 557.6,323.8 539.8,327.4 539.8,330.8 563.4,350.7 568,346.5 
			"/>
	<polygon id="r2066" class="st3" points="567.7,331.5 577,331.5 577,322.4 574.3,320.5 557.6,323.8 559.5,331.5 	"/>
	<polygon id="r2068" class="st3" points="563.4,350.7 575.3,360.8 577,358.8 577,346.5 568,346.5 	"/>
	<polygon id="r2073" class="st3" points="542.7,366.3 550.4,358.5 538.9,348.3 531.1,356.1 	"/>
	<polygon id="r2072" class="st3" points="531.1,356.1 538.9,348.3 527.5,338.3 519.7,346 	"/>
	<polygon id="r2076" class="st3" points="562.9,386.4 571.2,393.8 576.3,393.8 576.3,381.1 572.1,377.5 564.2,385.2 	"/>
	<polygon id="r2080" class="st3" points="531.1,356.1 523.1,364.2 534.7,374.3 542.7,366.3 	"/>
	<polygon id="r2077" class="st3" points="571.2,393.8 562.9,386.4 556.2,393.1 573.5,408.1 576.3,405.1 576.3,393.8 	"/>
	<polygon id="r2071-2082" class="st3" points="522.3,333.8 511.3,338.6 501.5,342.9 501.5,345.4 511.5,354.1 519.7,346 527.5,338.3 
			"/>
	<polygon id="r2075-2078" class="st3" points="562.4,369 554.5,376.7 546.4,384.5 556.2,393.1 562.9,386.4 564.2,385.2 572.1,377.5 
			"/>
	<polygon id="r2074-2079" class="st3" points="550.4,358.5 542.7,366.3 534.7,374.3 546.4,384.5 554.5,376.7 562.4,369 	"/>
	<polygon id="r2081" class="st3" points="519.7,346 511.5,354.1 523.1,364.2 531.1,356.1 	"/>
	<polygon id="r2097" class="st3" points="475.2,359.4 475,359.5 451.3,386.2 461.4,395.1 481.5,364.6 	"/>
	<polygon id="r2083" class="st3" points="492.1,369.5 499.6,362.1 487.3,351.2 475.2,359.4 481.5,364.6 	"/>
	<polygon id="r2090-2091" class="st3" points="562.2,417.3 556.2,423.2 541.3,423.2 541.3,434.9 556.2,434.9 556.2,434.9 
		571.3,434.9 576.3,429.6 	"/>
	<polygon id="r2089" class="st3" points="552,408.3 541.3,417.9 541.3,423.2 556.2,423.2 562.2,417.3 	"/>
	<rect id="r2092" x="527.2" y="423.2" class="st3" width="14.2" height="11.7"/>
	<polygon id="r2093" class="st3" points="522.8,415.4 512.9,423.4 512.9,434.9 527.2,434.9 527.2,423.2 527.2,419.3 	"/>
	<polygon id="r2094" class="st3" points="522.8,415.4 511.3,405.3 493.6,423.4 506.6,434.9 512.9,434.9 512.9,423.4 	"/>
	<polygon id="r2104" class="st3" points="468.8,345.4 458.8,337.1 448.6,348.6 458.7,356.7 	"/>
	<polygon id="r2106" class="st3" points="426.1,374.1 436.5,382 447.2,369.8 437.3,361.5 	"/>
	<polygon id="r2105" class="st3" points="448.6,348.6 437.3,361.5 447.2,369.8 458.7,356.7 	"/>
	<polygon id="r2098" class="st3" points="454.4,407.8 444.5,399.2 439.9,399.2 432.2,408.1 445.5,417.8 	"/>
	<polygon id="r2099" class="st3" points="458.5,427.2 465.9,417.8 454.4,407.8 445.5,417.8 	"/>
	<polygon id="r2102-2103" class="st3" points="432.2,408.1 421.9,420 412.4,431 416.3,434.9 435.2,434.9 435.2,429.2 445.5,417.8 	
		"/>
	<polygon id="r2100" class="st3" points="483.4,432.9 465.9,417.8 458.5,427.2 458.5,434.9 481.5,434.9 	"/>
	<polygon id="r2101" class="st3" points="445.5,417.8 435.2,429.2 435.2,434.9 458.5,434.9 458.5,427.2 	"/>
	<path id="r2138" class="st3" d="M257.1,378L257.1,378l11.1,9.4l11-7l-6.2-10.2l-3.4,2l-9.9-12.8c-4,3.1-8.2,6.7-12.5,10.4
		L257.1,378L257.1,378z"/>
	<path id="r2137" class="st3" d="M257.1,378l-9.8-8.3c-3.6,3.1-7.1,6.4-10.5,9.8l14.6,13.3L257.1,378z"/>
	<path id="r2126" class="st3" d="M290.6,359.3l-12.1-14c0,0-3.8,2.6-9.4,6.8l10.1,14.1l7.5-4.5L290.6,359.3z"/>
	<path id="r2139" class="st3" d="M259.8,359.3l9.9,12.8l3.4-2l6.2-3.8l-10.1-14.1C266.3,354.2,263.2,356.6,259.8,359.3z"/>
	<polygon id="r2127" class="st3" points="300.4,385.4 308,379.5 290.6,359.3 286.6,361.8 	"/>
	<polygon id="r2128" class="st3" points="319.6,392.9 308,379.5 300.4,385.4 304.3,392.2 297.6,394.9 295.4,400.5 309.8,405.1 
		319.8,393.1 	"/>
	<polygon id="r2129" class="st3" points="332.9,408.3 319.8,393.1 309.8,405.1 331.3,412.1 	"/>
	<polygon id="r2135" class="st3" points="257.1,378 251.5,392.8 251.5,392.8 251.5,392.8 247.9,402 261.7,406.5 268.2,387.3 	"/>
	<polygon id="r2133" class="st3" points="295.4,400.5 289.5,415.5 308.5,421.6 314.1,406.5 	"/>
	<polygon id="r2132" class="st3" points="314.1,406.5 308.5,421.6 324.9,426.9 331.3,412.1 	"/>
	<polygon id="r2130-2131" class="st3" points="352.9,431.4 332.9,408.3 331.3,412.1 331.3,412.1 331.3,412.1 324.9,426.9 
		349.5,434.9 	"/>
	<path id="r2136" class="st3" d="M236.9,379.5c-4,4-7.6,8-10.6,12v3.5l21.7,7l3.5-9.2L236.9,379.5z"/>
	<polygon id="r2134" class="st3" points="279.2,380.3 268.2,387.3 261.7,406.5 277.6,411.6 286.6,392.5 	"/>
	<path id="r2122" class="st3" d="M377.9,332.9v-15.4c-6,0.2-12.3,0.7-18.9,1.5v13.7L377.9,332.9z"/>
	<path id="r2121" class="st3" d="M359,332.7V319c-6.5,0.8-13.2,1.9-20.1,3.4v10.1L359,332.7z"/>
	<path id="r2108" class="st3" d="M426.1,333.5v-11.9c-5.5-1.2-12-2.2-19.2-3v14.7L426.1,333.5z"/>
	<path id="r2107" class="st3" d="M406.9,333.3v-14.7c-5.7-0.6-11.9-1-18.5-1.1v15.6L406.9,333.3z"/>
	<polygon id="r2112" class="st3" points="409.6,374.8 406.9,374.8 406.9,395.1 410.8,395.1 419.9,384.4 408.9,375.6 	"/>
	<path id="r2109-2110" class="st3" d="M448.5,328c0,0-8.1-3.5-22.4-6.4v11.9l1.8,2.8l-16.8,27.9l4.3,3.9l21.7-25l11.4-13.1V328z"/>
	<polygon id="r2117" class="st3" points="357.1,376 345.8,385 354.9,395.1 359,395.1 359,374.8 356.1,374.8 	"/>
	<polygon id="r2111-2118" class="st3" points="410.9,364.1 390.7,364.1 356,364.1 352.4,358.2 345.9,363 356.1,374.8 359,374.8 
		359,374.8 375.6,374.8 375.6,395.1 390.5,395.1 390.5,374.8 406.9,374.8 406.9,374.8 409.6,374.8 415.5,368 	"/>
	<polygon id="r2116" class="st3" points="359,395.1 354.9,395.1 345.8,385 337.4,391.8 358,415.2 359,414.3 	"/>
	<polygon id="r2113" class="st3" points="419.9,384.4 410.8,395.1 406.9,395.1 406.9,414.3 407.8,415.4 428.4,391.1 	"/>
	<polygon id="r2115" class="st3" points="375.6,395.1 375.6,414.4 359,414.4 359,414.3 358,415.2 367.1,425.6 382.9,425.6 
		382.9,395.1 	"/>
	<polygon id="r2114" class="st3" points="407.8,415.4 406.9,414.3 406.9,414.4 390.5,414.4 390.5,395.1 382.9,395.1 382.9,425.6 
		399.1,425.6 	"/>
	<rect id="r2405" x="554.2" y="248.8" class="st3" width="13.9" height="18"/>
	<polygon id="r2402-2403" class="st3" points="382,288.5 342.5,288.5 342.5,303 382,303 424,303 424,288.5 	"/>
	<path id="r2120" class="st3" d="M338.9,335.8v-2v-1.2v-10.1c-6.8,1.5-13.7,3.3-20.9,5.6v2.4l27.9,32.6l6.5-4.8L338.9,335.8z"/>
	<path id="annette-itimtuktuk" class="st3" d="M259.9,282.4h10.7v-47.3h-10.8C264.7,253.2,262.7,268.1,259.9,282.4z"/>
	<polygon id="r2005" class="st3" points="589.5,276.8 591.8,287.3 620.3,287.3 620.3,276.8 	"/>
</g>
<g id="signs">
	<rect id="parking" x="651.2" y="303" class="st4" width="14.8" height="14.8"/>
	<rect id="handicapped-parking" x="651.2" y="279.9" class="st4" width="14.8" height="14.8"/>
	<g id="escalator">
		<rect x="203.5" y="354.1" class="st4" width="14.8" height="14.8"/>
		<rect x="545.2" y="284.1" class="st4" width="14.8" height="14.8"/>
		<rect x="545.2" y="230.8" class="st4" width="14.8" height="14.8"/>
	</g>
	<g id="entrance">
		<rect x="612.8" y="447.4" class="st4" width="14.8" height="14.8"/>
		<rect x="612.8" y="213.8" class="st4" width="14.8" height="14.8"/>
	</g>
	<rect id="lift" x="601.6" y="168.5" class="st4" width="14.8" height="14.8"/>
	<g id="handicapped-toilet">
		<rect x="252.4" y="449.5" class="st4" width="14.8" height="14.8"/>
		<rect x="543.8" y="153.7" class="st4" width="14.8" height="14.8"/>
	</g>
	<g id="toilet">
		<rect x="233.1" y="449.9" class="st4" width="14.8" height="14.8"/>
		<rect x="524.9" y="153.7" class="st4" width="14.8" height="14.8"/>
	</g>
	<g id="fire-exit">
		<rect x="286.6" y="377" class="st4" width="14.8" height="14.8"/>
		<rect x="184.6" y="463.2" class="st4" width="14.8" height="14.8"/>
		<rect x="514.4" y="127.2" class="st4" width="14.8" height="14.8"/>
		<rect x="357.9" y="127.2" class="st4" width="14.8" height="14.8"/>
		<rect x="468.3" y="365.9" class="st4" width="14.8" height="14.8"/>
	</g>
</g>
</svg>
