<?xml version="1.0" encoding="utf-8"?>
<!-- Generator: Adobe Illustrator 16.0.0, SVG Export Plug-In . SVG Version: 6.00 Build 0)  -->
<!DOCTYPE svg PUBLIC "-//W3C//DTD SVG 1.1//EN" "http://www.w3.org/Graphics/SVG/1.1/DTD/svg11.dtd">
<svg version="1.1" id="Layer_1" xmlns="http://www.w3.org/2000/svg" xmlns:xlink="http://www.w3.org/1999/xlink" x="0px" y="0px"
	 width="841.89px" height="595.281px" viewBox="0 0 841.89 595.281" enable-background="new 0 0 841.89 595.281"
	 xml:space="preserve">
<g id="background">
	<rect fill="#FFFFFF" width="841.89" height="595.281"/>
</g>
<g id="etc">
	<path fill="#DEDEDE" stroke="#494949" stroke-width="0.5" stroke-miterlimit="10" d="M305.667,118L279,63.333l-73.655,14
		c0,0-6.345,57-30.011,128.333s-95,140-95,140l18.655,29.199C74.667,384.835,58,405.145,58,428.593
		c0,33.297,33.579,60.291,75,60.291l551.667,1.449V118H305.667z"/>
	<path fill="#DEDEDE" stroke="#494949" stroke-width="0.5" stroke-miterlimit="10" d="M285.25,120.25l0.5,25.083l-62.75,7.25
		l-3.167,35.5c53.458,26.458,47.167,77.25,39.293,101.5s-61.293,71.379-61.293,71.379c-63.667-1.785-86.437,16.556-86.437,16.556
		l-1.104,4.01c-7.875,3.703-13.831,7.414-17.965,10.352c-3.128,2.223-5.231,4.004-6.328,4.996c-0.868,0.785-2.245,1.992-3.869,3.592
		c-4.038,3.977-9.605,10.389-12.686,18.84c-3.177,8.711-3.71,19.588,2.805,32.193c4.065,7.867,8.971,13.383,13.986,17.266
		l6.133,3.982c11.838,6.301,22.631,4.877,22.631,4.877l1.706-0.031l13.142-0.237l14.782-0.271l13.75-0.25l8.667-0.16L169,480h467.25
		V120.25H285.25z"/>
	<path fill="#DEDEDE" stroke="#494949" stroke-width="0.5" stroke-miterlimit="10" d="M111.754,378.313L92.328,348.25
		c0,0,91.339-90.417,105.506-172.5L212,171l44.886,25l25.864,64l-25.864,58.5l-67.806,63.893L111.754,378.313z"/>
	
		<ellipse fill="#DEDEDE" stroke="#494949" stroke-width="0.5" stroke-miterlimit="10" cx="515.625" cy="261.25" rx="37.875" ry="57.25"/>
	
		<rect x="590.75" y="141.977" fill="#DEDEDE" stroke="#494949" stroke-width="0.5" stroke-miterlimit="10" width="33.75" height="62.023"/>
	
		<rect x="515.625" y="141.977" fill="#DEDEDE" stroke="#494949" stroke-width="0.5" stroke-miterlimit="10" width="56.729" height="36.773"/>
	<rect x="515.625" y="139.375" fill="#DEDEDE" stroke="#494949" stroke-miterlimit="10" width="108.875" height="1.375"/>
	
		<rect x="172.167" y="434.166" fill="#DEDEDE" stroke="#494949" stroke-width="0.5" stroke-miterlimit="10" width="30.167" height="22.668"/>
	
		<rect x="172.167" y="458.666" fill="#DEDEDE" stroke="#494949" stroke-width="0.5" stroke-miterlimit="10" width="30.167" height="18"/>
	
		<rect x="332.333" y="123.167" fill="#DEDEDE" stroke="#494949" stroke-width="0.5" stroke-miterlimit="10" width="40.667" height="22.167"/>
	
		<rect x="384.5" y="123.167" fill="#DEDEDE" stroke="#494949" stroke-width="0.5" stroke-miterlimit="10" width="40" height="22.167"/>
	
		<rect x="217.751" y="435.751" fill="#DEDEDE" stroke="#494949" stroke-width="0.5" stroke-miterlimit="10" width="69.5" height="39.166"/>
	<polyline fill="#DEDEDE" stroke="#494949" stroke-width="0.5" stroke-miterlimit="10" points="375.688,465.308 384.313,467.998 
		394.126,464.748 	"/>
	<rect x="380.918" y="315.568" fill="#DEDEDE" stroke="#494949" stroke-miterlimit="10" width="8.083" height="1.473"/>
	<polygon fill="#DEDEDE" stroke="#494949" stroke-width="0.5" stroke-miterlimit="10" points="457.417,205.167 467.25,205.167 
		478.667,195.417 478.667,189.958 457.417,189.958 	"/>
	<path fill="#DEDEDE" stroke="#494949" stroke-width="0.5" stroke-miterlimit="10" d="M553.419,447.873v26.984
		c4.498,0.791,9.211,1.446,14.123,1.934v-28.918H553.419L553.419,447.873z"/>
	<polygon fill="#DEDEDE" stroke="#494949" stroke-width="0.5" stroke-miterlimit="10" points="310.046,377.537 292.582,357.341 
		288.626,359.755 302.388,383.419 306.334,390.207 299.584,392.873 297.375,398.511 307.177,401.658 321.559,390.85 	"/>
	<path fill="#DEDEDE" stroke="#494949" stroke-width="0.5" stroke-miterlimit="10" d="M340.901,333.748v-2v-1.25v-10.064
		c-6.771,1.465-13.747,3.297-20.9,5.564v2.375l27.946,32.59l6.473-4.779L340.901,333.748z"/>
	<polygon fill="#DEDEDE" stroke="#494949" stroke-width="0.5" stroke-miterlimit="10" points="622.75,281.25 593.972,281.25 
		596.982,294.667 622.75,294.667 	"/>
	<polygon fill="#DEDEDE" stroke="#494949" stroke-width="0.5" stroke-miterlimit="10" points="622.75,270.25 591.505,270.25 
		593.972,281.25 622.75,281.25 	"/>
	<polygon fill="#DEDEDE" stroke="#494949" stroke-width="0.5" stroke-miterlimit="10" points="317.25,244.167 302.849,244.167 
		301.625,257.125 309.969,266.68 326.042,253.925 	"/>
	<path fill="#DEDEDE" stroke="#494949" stroke-width="0.5" stroke-miterlimit="10" d="M377.775,282.577l-15.126,11.979l4.104,4.553
		c9.403-0.67,11.195-0.771,19.581-1.075v-5.951L377.775,282.577z"/>
	<path fill="#DEDEDE" stroke="#494949" stroke-width="0.5" stroke-miterlimit="10" d="M444.667,262.704h8.328
		c-0.215-5.104-0.021-10.714,1.004-16.288l-4.209-4.236l-13.998,10.982L444.667,262.704z"/>
	<path fill="#DEDEDE" stroke="#494949" stroke-width="0.5" stroke-miterlimit="10" d="M477.757,261.674l-8.174-0.424
		c0.5,14.917,5.916,28.333,5.916,28.333l6.414-2.248C479.298,279.629,477.802,270.915,477.757,261.674z"/>
	<path fill="#DEDEDE" stroke="#494949" stroke-width="0.5" stroke-miterlimit="10" d="M483.593,230.715l-7.76-2.882
		c0,0-5.25,8.417-6.25,28.583h8.311C478.414,247.02,480.433,238.272,483.593,230.715z"/>
</g>
<g id="rooms">
	
		<rect id="r3201-3202" x="292.375" y="174.75" fill="#939598" stroke="#494949" stroke-width="0.5" stroke-miterlimit="10" width="16.25" height="31.125"/>
	<polygon id="r3200-3203" fill="#939598" stroke="#494949" stroke-width="0.5" stroke-miterlimit="10" points="308.625,174.75 
		308.625,190.313 308.625,205.876 323.25,205.876 323.25,190.313 323.25,174.75 	"/>
	
		<rect id="r3204" x="337.167" y="174.75" fill="#939598" stroke="#494949" stroke-width="0.5" stroke-miterlimit="10" width="14.5" height="15.563"/>
	
		<rect id="r3205" x="351.667" y="174.75" fill="#939598" stroke="#494949" stroke-width="0.5" stroke-miterlimit="10" width="15.75" height="15.563"/>
	
		<rect id="r3206" x="367.417" y="174.75" fill="#939598" stroke="#494949" stroke-width="0.5" stroke-miterlimit="10" width="15" height="15.563"/>
	
		<rect id="r3207" x="382.417" y="174.75" fill="#939598" stroke="#494949" stroke-width="0.5" stroke-miterlimit="10" width="16.417" height="15.563"/>
	
		<rect id="r3196" x="382.417" y="190.313" fill="#939598" stroke="#494949" stroke-width="0.5" stroke-miterlimit="10" width="16.417" height="14.854"/>
	
		<rect id="r3197" x="367.417" y="190.313" fill="#939598" stroke="#494949" stroke-width="0.5" stroke-miterlimit="10" width="15" height="14.854"/>
	
		<rect id="r3198-3199" x="337.167" y="190.313" fill="#939598" stroke="#494949" stroke-width="0.5" stroke-miterlimit="10" width="30.25" height="14.854"/>
	
		<rect id="r3195-3208" x="412.333" y="174.75" fill="#939598" stroke="#494949" stroke-width="0.5" stroke-miterlimit="10" width="14.25" height="30.417"/>
	
		<rect id="r3194-3209" x="426.583" y="174.75" fill="#939598" stroke="#494949" stroke-width="0.5" stroke-miterlimit="10" width="14.916" height="30.417"/>
	
		<rect id="r3211" x="457.417" y="174.75" fill="#939598" stroke="#494949" stroke-width="0.5" stroke-miterlimit="10" width="21.25" height="15.208"/>
	<polygon id="r3193-3210" fill="#939598" stroke="#494949" stroke-width="0.5" stroke-miterlimit="10" points="441.5,174.75 
		441.5,189.958 441.5,205.166 457.417,205.166 457.417,189.958 457.417,174.75 	"/>
	<polygon id="r3068-3069" fill="#939598" stroke="#494949" stroke-width="0.5" stroke-miterlimit="10" points="513,179.832 
		513,176.498 503.125,176.498 503.125,172.498 496.625,172.498 496.625,181.748 501.875,188.248 513,188.248 542.125,188.248 
		548.593,193.868 553.5,188.831 553.5,179.832 	"/>
	<polygon id="r3070" fill="#939598" stroke="#494949" stroke-width="0.5" stroke-miterlimit="10" points="553.5,179.832 
		553.5,188.831 548.593,193.868 560.25,203.998 572.167,193.248 572.167,179.832 	"/>
	<polygon id="r3128-3130" fill="#939598" stroke="#494949" stroke-width="0.5" stroke-miterlimit="10" points="332.001,383.498 
		343.376,374.498 309.376,335.123 298.001,343.373 	"/>
	<polygon id="r3031" fill="#939598" stroke="#494949" stroke-width="0.5" stroke-miterlimit="10" points="345.751,447.873 
		335.626,444.462 335.626,466.685 342.001,468.623 351.834,465.437 351.834,447.873 	"/>
	<polygon id="r3030" fill="#939598" stroke="#494949" stroke-width="0.5" stroke-miterlimit="10" points="351.834,447.873 
		351.834,465.437 364.376,461.373 374.756,465.4 365.809,447.873 	"/>
	<polygon id="r3029" fill="#939598" stroke="#494949" stroke-width="0.5" stroke-miterlimit="10" points="403.425,447.873 
		394.984,465.24 406.438,460.498 420.27,465.308 420.103,447.873 	"/>
	<polygon id="r3032" fill="#939598" stroke="#494949" stroke-width="0.5" stroke-miterlimit="10" points="319.376,438.99 
		319.376,443.248 319.376,443.916 319.376,461.748 335.626,466.685 335.626,444.462 	"/>
	<polygon id="r3034" fill="#939598" stroke="#494949" stroke-width="0.5" stroke-miterlimit="10" points="254.626,417.184 
		254.626,432.998 290.501,432.998 290.501,429.265 	"/>
	<polygon id="r3036" fill="#939598" stroke="#494949" stroke-width="0.5" stroke-miterlimit="10" points="226.001,407.542 
		226.001,432.998 238.334,432.998 238.334,411.697 	"/>
	<polygon id="r3035" fill="#939598" stroke="#494949" stroke-width="0.5" stroke-miterlimit="10" points="238.334,411.697 
		238.334,432.998 254.626,432.998 254.626,417.184 	"/>
	<polygon id="r3033" fill="#939598" stroke="#494949" stroke-width="0.5" stroke-miterlimit="10" points="290.501,429.265 
		290.501,432.998 290.501,433.875 290.501,443.248 319.376,443.248 319.376,438.99 	"/>
	<path id="r3021" fill="#939598" stroke="#494949" stroke-width="0.5" stroke-miterlimit="10" d="M524.835,447.873v19.613
		c4.383,1.51,9.203,2.981,14.416,4.319v-23.934L524.835,447.873L524.835,447.873z"/>
	<path id="r3020" fill="#939598" stroke="#494949" stroke-width="0.5" stroke-miterlimit="10" d="M539.251,447.873v23.934
		c4.441,1.142,9.176,2.172,14.168,3.054v-26.984h-14.168V447.873z"/>
	<path id="r3017" fill="#939598" stroke="#494949" stroke-width="0.5" stroke-miterlimit="10" d="M583.335,447.873v29.801
		c2.721,0.037,5.477,0.035,8.291-0.051v-17.875h8.375v-11.875H583.335z"/>
	<path id="r3018" fill="#939598" stroke="#494949" stroke-width="0.5" stroke-miterlimit="10" d="M567.542,447.873v28.918
		c5.061,0.498,10.33,0.807,15.793,0.883v-29.801H567.542z"/>
	<polygon id="r3026-3027-3028" fill="#939598" stroke="#494949" stroke-width="0.5" stroke-miterlimit="10" points="
		448.794,447.873 434.251,447.873 420.103,447.873 420.27,465.308 428.001,467.998 434.251,465.99 448.626,461.373 448.794,461.427 
		464.542,466.585 464.542,447.873 	"/>
	<path id="r3022" fill="#939598" stroke="#494949" stroke-width="0.5" stroke-miterlimit="10" d="M510.71,447.873v14.061
		c4.008,1.783,8.738,3.695,14.125,5.554v-19.611H510.71V447.873z"/>
	<polygon id="r3025" fill="#939598" stroke="#494949" stroke-width="0.5" stroke-miterlimit="10" points="464.542,447.873 
		464.542,466.585 470.001,468.373 477.71,465.849 477.71,447.873 	"/>
	<path id="r3023" fill="#939598" stroke="#494949" stroke-width="0.5" stroke-miterlimit="10" d="M491.126,447.873v13.4l4.125-7.4
		c0,0,5.506,3.633,15.459,8.061v-14.061H491.126z"/>
	<polygon id="r3024" fill="#939598" stroke="#494949" stroke-width="0.5" stroke-miterlimit="10" points="477.71,447.873 
		477.71,465.849 491.001,461.498 491.126,461.273 491.126,447.873 	"/>
	<polygon id="r3401" fill="#939598" stroke="#494949" stroke-width="0.5" stroke-miterlimit="10" points="377.046,439.531 
		385.251,434.794 393.456,439.531 393.456,449.005 385.251,453.744 377.046,449.005 	"/>
	<polygon id="r3074-3075" fill="#939598" stroke="#494949" stroke-width="0.5" stroke-miterlimit="10" points="569.71,329.541 
		561.501,329.541 559.582,321.82 541.751,325.373 541.751,328.748 565.378,348.714 570.001,344.5 	"/>
	<polygon fill="#939598" stroke="#494949" stroke-width="0.5" stroke-miterlimit="10" points="569.71,329.541 579.001,329.541 
		579.001,320.373 576.251,318.498 559.582,321.82 561.501,329.541 	"/>
	<polygon id="r3072-3073" fill="#939598" stroke="#494949" stroke-width="0.5" stroke-miterlimit="10" points="569.71,329.541 
		570.001,344.5 565.378,348.714 577.251,358.748 579.001,356.748 579.001,344.5 579.001,329.541 	"/>
	<polygon id="r3076-3077" fill="#939598" stroke="#494949" stroke-width="0.5" stroke-miterlimit="10" points="529.488,336.343 
		524.251,331.748 513.304,336.563 521.707,343.975 533.146,354.063 540.857,346.314 	"/>
	<polygon id="r3081" fill="#939598" stroke="#494949" stroke-width="0.5" stroke-miterlimit="10" points="564.941,384.436 
		573.169,391.832 578.251,391.832 578.251,379.123 574.068,375.451 566.189,383.207 	"/>
	<polygon id="r3078-3085" fill="#939598" stroke="#494949" stroke-width="0.5" stroke-miterlimit="10" points="540.857,346.314 
		533.146,354.063 525.074,362.173 536.738,372.339 544.724,364.275 552.443,356.48 	"/>
	<polygon id="r3082" fill="#939598" stroke="#494949" stroke-width="0.5" stroke-miterlimit="10" points="573.169,391.832 
		564.941,384.436 558.216,391.059 575.501,406.123 578.251,403.123 578.251,391.832 	"/>
	<polygon id="r3087" fill="#939598" stroke="#494949" stroke-width="0.5" stroke-miterlimit="10" points="513.304,336.563 
		503.501,340.873 503.501,343.373 513.464,352.055 521.707,343.975 	"/>
	<polygon id="r3079-3080-3083" fill="#939598" stroke="#494949" stroke-width="0.5" stroke-miterlimit="10" points="564.39,366.962 
		552.443,356.48 544.724,364.275 556.503,374.664 548.437,382.537 558.216,391.059 564.941,384.436 566.189,383.207 
		574.068,375.451 	"/>
	<polygon id="r3084" fill="#939598" stroke="#494949" stroke-width="0.5" stroke-miterlimit="10" points="544.724,364.275 
		536.738,372.339 548.437,382.537 556.503,374.664 	"/>
	<polygon id="r3086" fill="#939598" stroke="#494949" stroke-width="0.5" stroke-miterlimit="10" points="521.707,343.975 
		513.464,352.055 525.074,362.173 533.146,354.063 	"/>
	<polygon id="r3102" fill="#939598" stroke="#494949" stroke-width="0.5" stroke-miterlimit="10" points="477.187,357.373 
		477.001,357.498 453.251,384.248 463.371,393.134 483.501,362.582 	"/>
	<polygon id="r3091-3092" fill="#939598" stroke="#494949" stroke-width="0.5" stroke-miterlimit="10" points="544.558,397.953 
		535.609,390.07 535.59,390.054 525.386,381.068 507.667,398.333 513.289,403.277 517.261,406.772 526.981,415.324 545.884,399.121 
			"/>
	<polygon id="r3093" fill="#939598" stroke="#494949" stroke-width="0.5" stroke-miterlimit="10" points="545.884,399.121 
		526.981,415.324 529.169,417.25 529.169,421.166 543.335,421.166 543.335,415.916 554.048,406.311 	"/>
	<polygon id="r3088" fill="#939598" stroke="#494949" stroke-width="0.5" stroke-miterlimit="10" points="494.126,367.541 
		501.552,360.082 489.251,349.248 477.187,357.373 483.501,362.582 	"/>
	<polygon id="r3101" fill="#939598" stroke="#494949" stroke-width="0.5" stroke-miterlimit="10" points="496.629,389.239 
		496.629,389.239 486.417,380.697 473.775,402.27 484.5,411.686 484.509,411.694 500.557,392.524 	"/>
	<polygon id="r3100" fill="#939598" stroke="#494949" stroke-width="0.5" stroke-miterlimit="10" points="513.289,403.277 
		510.87,401.149 500.557,392.524 484.509,411.694 495.613,421.445 	"/>
	<polygon id="r3089" fill="#939598" stroke="#494949" stroke-width="0.5" stroke-miterlimit="10" points="514.037,371.074 
		501.552,360.082 494.126,367.541 486.417,380.697 496.629,389.239 	"/>
	<polygon id="r3090" fill="#939598" stroke="#494949" stroke-width="0.5" stroke-miterlimit="10" points="507.667,398.333 
		525.386,381.068 515.085,371.998 514.037,371.074 496.629,389.239 500.557,392.524 500.557,392.524 510.87,401.149 	"/>
	
		<rect id="r3096" x="543.335" y="421.166" fill="#939598" stroke="#494949" stroke-width="0.5" stroke-miterlimit="10" width="14.881" height="11.707"/>
	<polygon id="r3094" fill="#939598" stroke="#494949" stroke-width="0.5" stroke-miterlimit="10" points="554.048,406.311 
		543.335,415.916 543.335,421.166 558.204,421.166 564.519,415.53 	"/>
	<polygon id="r3095" fill="#939598" stroke="#494949" stroke-width="0.5" stroke-miterlimit="10" points="564.519,415.53 
		558.204,421.166 558.216,421.166 558.216,432.873 573.251,432.873 578.251,427.623 	"/>
	<polygon id="r3097-3098" fill="#939598" stroke="#494949" stroke-width="0.5" stroke-miterlimit="10" points="529.169,421.166 
		529.169,417.25 524.757,413.369 514.919,421.445 514.919,432.873 529.169,432.873 543.335,432.873 543.335,421.166 	"/>
	<polygon id="r3099" fill="#939598" stroke="#494949" stroke-width="0.5" stroke-miterlimit="10" points="524.757,413.369 
		513.289,403.277 495.613,421.445 508.626,432.873 514.919,432.873 514.919,421.445 	"/>
	<polygon id="r3109-3111" fill="#939598" stroke="#494949" stroke-width="0.5" stroke-miterlimit="10" points="460.751,335.123 
		450.621,346.613 439.253,359.503 428.126,372.123 438.501,379.998 449.242,367.802 460.746,354.736 470.751,343.373 	"/>
	<polygon id="r3104" fill="#939598" stroke="#494949" stroke-width="0.5" stroke-miterlimit="10" points="456.392,405.818 
		446.501,397.248 441.876,397.248 434.208,406.104 447.472,415.762 460.501,425.248 467.865,415.761 	"/>
	<polygon id="r3108" fill="#939598" stroke="#494949" stroke-width="0.5" stroke-miterlimit="10" points="447.472,415.762 
		434.208,406.104 423.947,417.949 437.169,427.248 	"/>
	<polygon id="r3107" fill="#939598" stroke="#494949" stroke-width="0.5" stroke-miterlimit="10" points="423.947,417.949 
		414.376,428.998 418.251,432.873 437.169,432.873 437.169,427.248 	"/>
	<polygon id="r3105" fill="#939598" stroke="#494949" stroke-width="0.5" stroke-miterlimit="10" points="485.376,430.935 
		467.865,415.761 460.501,425.248 460.501,432.873 483.501,432.873 	"/>
	<polygon id="r3106" fill="#939598" stroke="#494949" stroke-width="0.5" stroke-miterlimit="10" points="447.472,415.762 
		437.169,427.248 437.169,432.873 460.501,432.873 460.501,425.248 	"/>
	<path id="r3143" fill="#939598" stroke="#494949" stroke-width="0.5" stroke-miterlimit="10" d="M259.126,375.979L259.126,375.979
		l11.125,9.356l10.963-7.022l-6.228-10.238l-3.361,2.051l-9.862-12.789c-3.958,3.145-8.216,6.658-12.453,10.391L259.126,375.979
		L259.126,375.979z"/>
	<path id="r3142" fill="#939598" stroke="#494949" stroke-width="0.5" stroke-miterlimit="10" d="M259.126,375.979l-9.815-8.254
		c-3.574,3.147-7.125,6.442-10.457,9.793l14.607,13.256L259.126,375.979z"/>
	<path id="r3131-133-3144" fill="#939598" stroke="#494949" stroke-width="0.5" stroke-miterlimit="10" d="M274.987,368.074
		L274.987,368.074L274.987,368.074l13.639-8.318l0,0l0,0l3.956-2.414l-12.081-13.969c0,0-8.303,5.674-18.737,13.961l9.862,12.789
		L274.987,368.074z"/>
	<polygon id="r3134" fill="#939598" stroke="#494949" stroke-width="0.5" stroke-miterlimit="10" points="334.926,406.305 
		321.559,390.85 307.177,401.658 333.317,410.05 	"/>
	<polygon id="r3140" fill="#939598" stroke="#494949" stroke-width="0.5" stroke-miterlimit="10" points="259.126,375.979 
		253.46,390.773 253.46,390.773 253.46,390.773 249.923,400.009 263.661,404.455 270.251,385.335 	"/>
	<polygon id="r3138" fill="#939598" stroke="#494949" stroke-width="0.5" stroke-miterlimit="10" points="297.375,398.511 
		291.513,413.464 310.505,419.609 316.093,404.521 	"/>
	<polygon id="r3137" fill="#939598" stroke="#494949" stroke-width="0.5" stroke-miterlimit="10" points="316.093,404.521 
		310.505,419.609 326.927,424.923 333.317,410.05 	"/>
	<polygon id="r3136" fill="#939598" stroke="#494949" stroke-width="0.5" stroke-miterlimit="10" points="331.106,415.195 
		326.927,424.923 351.501,432.873 353.145,431.168 	"/>
	<polygon id="r3135" fill="#939598" stroke="#494949" stroke-width="0.5" stroke-miterlimit="10" points="354.876,429.373 
		334.926,406.305 333.317,410.05 331.106,415.195 353.145,431.168 	"/>
	<path id="r3141" fill="#939598" stroke="#494949" stroke-width="0.5" stroke-miterlimit="10" d="M238.854,377.518
		c-3.959,3.979-7.608,8.026-10.603,11.979v3.5l21.672,7.012l3.537-9.235L238.854,377.518z"/>
	<polygon id="r3139" fill="#939598" stroke="#494949" stroke-width="0.5" stroke-miterlimit="10" points="281.214,378.313 
		270.251,385.335 263.661,404.455 279.588,409.607 288.626,390.498 	"/>
	<path id="r3127" fill="#939598" stroke="#494949" stroke-width="0.5" stroke-miterlimit="10" d="M379.876,330.945v-15.377
		c-6.009,0.203-12.313,0.674-18.875,1.473v13.688L379.876,330.945z"/>
	<path id="r3126" fill="#939598" stroke="#494949" stroke-width="0.5" stroke-miterlimit="10" d="M361.001,330.729v-13.688
		c-6.461,0.787-13.17,1.895-20.1,3.393v10.064L361.001,330.729z"/>
	<path id="r3112-3113" fill="#939598" stroke="#494949" stroke-width="0.5" stroke-miterlimit="10" d="M408.876,316.574
		c-5.691-0.598-11.88-1-18.5-1.104v15.594l18.5,0.213l19.25,0.221v-11.934C422.589,318.412,416.138,317.337,408.876,316.574z"/>
	<path id="r3114-3116" fill="#939598" stroke="#494949" stroke-width="0.5" stroke-miterlimit="10" d="M428.126,319.564v11.934
		l1.75,2.75l-16.75,27.875h-0.221h-20.156l-0.248,10.625h16.375v0.06h2.706l5.893-6.805l21.669-25.019l11.357-13.111v-1.875
		C450.501,325.998,442.361,322.525,428.126,319.564z"/>
	<polygon id="r3122-3123" fill="#939598" stroke="#494949" stroke-width="0.5" stroke-miterlimit="10" points="361.001,393.134 
		361.001,372.748 377.626,372.748 377.626,393.134 392.501,393.134 392.501,372.748 392.749,362.123 358.001,362.123 
		354.42,356.182 347.947,360.962 359.126,373.998 347.779,383.046 356.918,393.134 	"/>
	<polygon id="r3121" fill="#939598" stroke="#494949" stroke-width="0.5" stroke-miterlimit="10" points="361.001,393.134 
		356.918,393.134 347.779,383.046 339.376,389.748 359.975,413.203 361.001,412.341 	"/>
	<polygon id="r3117-3118" fill="#939598" stroke="#494949" stroke-width="0.5" stroke-miterlimit="10" points="421.906,382.391 
		410.876,373.623 411.582,372.808 408.876,372.808 408.876,393.134 408.876,412.271 409.824,413.365 430.376,389.123 	"/>
	<polygon id="r3119" fill="#939598" stroke="#494949" stroke-width="0.5" stroke-miterlimit="10" points="409.824,413.365 
		408.876,412.271 408.876,412.373 392.501,412.373 392.501,393.134 384.778,393.134 384.778,423.623 401.126,423.623 	"/>
	<polygon id="r3120" fill="#939598" stroke="#494949" stroke-width="0.5" stroke-miterlimit="10" points="377.626,393.134 
		377.626,412.373 361.001,412.373 361.001,412.341 359.975,413.203 369.126,423.623 384.778,423.623 384.778,393.134 	"/>
	<path id="r3054-3055-3056-3057-3058" fill="#939598" stroke="#494949" stroke-width="0.5" stroke-miterlimit="10" d="
		M291.5,123.167c0,0-4.75-38.042-45.125-35.292s-34.542,49.208-34.542,49.208H206l-8.167,38.667l22,12.333l19.833-23.333
		l19.167-9.083l34.667,4.167h22.438v-36.667H291.5z"/>
	<polygon id="r3059" fill="#939598" stroke="#494949" stroke-width="0.5" stroke-miterlimit="10" points="332.333,143.375 
		332.333,123.167 315.938,123.167 315.938,159.833 332.333,159.833 332.333,145.333 	"/>
	
		<rect id="r3061" x="354.5" y="145.333" fill="#939598" stroke="#494949" stroke-width="0.5" stroke-miterlimit="10" width="18.5" height="14.5"/>
	
		<rect id="r3060" x="332.333" y="145.333" fill="#939598" stroke="#494949" stroke-width="0.5" stroke-miterlimit="10" width="22.167" height="14.5"/>
	<polygon id="r3064" fill="#939598" stroke="#494949" stroke-width="0.5" stroke-miterlimit="10" points="429.417,122.167 
		424.5,125.417 424.5,143.875 424.5,145.333 424.5,159.833 446.875,159.833 446.875,124.629 	"/>
	<polygon id="r3062-3063" fill="#939598" stroke="#494949" stroke-width="0.5" stroke-miterlimit="10" points="404.5,145.333 
		384.5,145.333 384.5,159.833 404.5,159.833 424.5,159.833 424.5,145.333 	"/>
	<polygon id="r3067" fill="#939598" stroke="#494949" stroke-width="0.5" stroke-miterlimit="10" points="501.167,125.667 
		483.25,122.783 483.25,159.833 501.167,159.833 	"/>
	<polygon id="r3066" fill="#939598" stroke="#494949" stroke-width="0.5" stroke-miterlimit="10" points="479.417,122.167 
		465.125,124.35 465.125,159.833 483.25,159.833 483.25,122.783 	"/>
	<polygon id="r3065" fill="#939598" stroke="#494949" stroke-width="0.5" stroke-miterlimit="10" points="455.417,125.833 
		446.875,124.629 446.875,159.833 465.125,159.833 465.125,124.35 	"/>
	
		<rect id="r3013" x="597" y="373.501" fill="#939598" stroke="#494949" stroke-width="0.5" stroke-miterlimit="10" width="25.75" height="16.166"/>
	<polygon id="r3001" fill="#939598" stroke="#494949" stroke-width="0.5" stroke-miterlimit="10" points="603.833,218.667 
		589.416,218.667 581.75,226.75 583.32,233.75 603.833,233.75 	"/>
	<polygon id="r3002" fill="#939598" stroke="#494949" stroke-width="0.5" stroke-miterlimit="10" points="622.75,242.5 614,233.75 
		603.833,233.75 583.32,233.75 586.253,246.833 622.75,246.833 	"/>
	<polygon id="r3016" fill="#939598" stroke="#494949" stroke-width="0.5" stroke-miterlimit="10" points="597,429.75 605,437 
		622.75,437 622.75,421.333 597,421.333 	"/>
	<polygon id="r3003-3004" fill="#939598" stroke="#494949" stroke-width="0.5" stroke-miterlimit="10" points="622.75,246.833 
		586.253,246.833 591.505,270.25 622.75,270.25 	"/>
	
		<rect id="r3014" x="597" y="389.667" fill="#939598" stroke="#494949" stroke-width="0.5" stroke-miterlimit="10" width="25.75" height="15.5"/>
	
		<rect id="r3015" x="597" y="405.167" fill="#939598" stroke="#494949" stroke-width="0.5" stroke-miterlimit="10" width="25.75" height="16.166"/>
	
		<rect id="r3011" x="597" y="348" fill="#939598" stroke="#494949" stroke-width="0.5" stroke-miterlimit="10" width="25.75" height="12.668"/>
	
		<rect id="r3010" x="597" y="335.268" fill="#939598" stroke="#494949" stroke-width="0.5" stroke-miterlimit="10" width="25.75" height="12.731"/>
	
		<rect id="r3012" x="597" y="360.667" fill="#939598" stroke="#494949" stroke-width="0.5" stroke-miterlimit="10" width="25.75" height="12.834"/>
	
		<rect id="r3009" x="597" y="321.82" fill="#939598" stroke="#494949" stroke-width="0.5" stroke-miterlimit="10" width="25.75" height="13.447"/>
	<polygon id="r3007-3008" fill="#939598" stroke="#494949" stroke-width="0.5" stroke-miterlimit="10" points="596.982,294.667 
		597,294.75 597,309.417 597,321.82 622.75,321.82 622.75,309.417 622.75,294.667 	"/>
	<polygon id="r3176" fill="#939598" stroke="#494949" stroke-width="0.5" stroke-miterlimit="10" points="384.06,242.802 
		375.427,233.096 361.208,243.353 370.339,253.664 	"/>
	<polygon id="r3175" fill="#939598" stroke="#494949" stroke-width="0.5" stroke-miterlimit="10" points="366.322,222.86 
		352.723,233.769 361.208,243.353 375.427,233.096 	"/>
	<polygon id="r3174" fill="#939598" stroke="#494949" stroke-width="0.5" stroke-miterlimit="10" points="364.884,221.244 
		346.451,221.362 344,223.917 352.723,233.769 366.322,222.86 	"/>
	<polygon id="r3179" fill="#939598" stroke="#494949" stroke-width="0.5" stroke-miterlimit="10" points="401.762,262.704 
		388.136,273.763 396.93,283.694 410.791,272.855 	"/>
	<path id="r3181" fill="#939598" stroke="#494949" stroke-width="0.5" stroke-miterlimit="10" d="M419.843,283.032l-13.586,11.197
		l3.302,3.729c7.231,0.292,13.703,0.958,18.568,2.167l4.494-2.727L419.843,283.032z"/>
	<polygon id="r3180" fill="#939598" stroke="#494949" stroke-width="0.5" stroke-miterlimit="10" points="410.791,272.855 
		396.93,283.694 406.257,294.229 419.843,283.032 	"/>
	<polygon id="r3177-3178" fill="#939598" stroke="#494949" stroke-width="0.5" stroke-miterlimit="10" points="393.155,253.028 
		384.06,242.802 370.339,253.664 379.446,263.948 388.136,273.763 401.762,262.704 	"/>
	<polygon id="r3172" fill="#939598" stroke="#494949" stroke-width="0.5" stroke-miterlimit="10" points="326.042,253.925 
		341.172,241.918 332.739,232.55 317.25,244.167 	"/>
	<polygon id="r3173" fill="#939598" stroke="#494949" stroke-width="0.5" stroke-miterlimit="10" points="332.739,232.55 
		322.805,221.515 312.083,221.583 304.375,228 302.849,244.167 317.25,244.167 	"/>
	<polygon id="r3171" fill="#939598" stroke="#494949" stroke-width="0.5" stroke-miterlimit="10" points="335.636,264.574 
		350.762,252.57 341.172,241.918 326.042,253.925 	"/>
	<polygon id="r3169" fill="#939598" stroke="#494949" stroke-width="0.5" stroke-miterlimit="10" points="354.066,285.029 
		369.183,273.033 360.116,262.96 344.994,274.96 	"/>
	<polygon id="r3170" fill="#939598" stroke="#494949" stroke-width="0.5" stroke-miterlimit="10" points="344.994,274.96 
		360.116,262.96 350.762,252.57 335.636,264.574 	"/>
	<polygon id="r3168" fill="#939598" stroke="#494949" stroke-width="0.5" stroke-miterlimit="10" points="369.183,273.033 
		354.066,285.029 362.649,294.556 377.775,282.577 	"/>
	<path id="r3166" fill="#939598" stroke="#494949" stroke-width="0.5" stroke-miterlimit="10" d="M337.483,298.188l2.892,3.313
		c0,0,11.402-1.318,26.378-2.391l-12.687-14.081L337.483,298.188z"/>
	<polygon id="r3164" fill="#939598" stroke="#494949" stroke-width="0.5" stroke-miterlimit="10" points="335.636,264.574 
		319.389,277.467 328.577,287.989 344.994,274.96 	"/>
	<polygon id="r3163" fill="#939598" stroke="#494949" stroke-width="0.5" stroke-miterlimit="10" points="326.042,253.925 
		309.969,266.68 319.389,277.467 335.636,264.574 	"/>
	<polygon id="r3165" fill="#939598" stroke="#494949" stroke-width="0.5" stroke-miterlimit="10" points="344.994,274.96 
		328.577,287.989 337.483,298.188 354.066,285.029 	"/>
	<polygon id="r3189" fill="#939598" stroke="#494949" stroke-width="0.5" stroke-miterlimit="10" points="425.898,242.521 
		439.535,231.856 430.572,222.835 417.221,233.191 	"/>
	<polygon id="r3190" fill="#939598" stroke="#494949" stroke-width="0.5" stroke-miterlimit="10" points="435.792,253.162 
		449.791,242.18 439.535,231.856 425.898,242.521 	"/>
	<polygon id="r3187" fill="#939598" stroke="#494949" stroke-width="0.5" stroke-miterlimit="10" points="405.865,220.98 
		389.26,221.087 388.083,222.167 397.283,232.437 408.387,223.692 	"/>
	<polygon id="r3188" fill="#939598" stroke="#494949" stroke-width="0.5" stroke-miterlimit="10" points="408.387,223.692 
		408.387,223.692 417.221,233.191 430.572,222.835 428.583,220.833 405.865,220.98 	"/>
	<path id="r3182" fill="#939598" stroke="#494949" stroke-width="0.5" stroke-miterlimit="10" d="M456.083,283.167
		c0,0-2.602-8.932-3.088-20.463h-8.328l-11.537,9.75l14.299,15.962L456.083,283.167z"/>
	<polygon id="r3183" fill="#939598" stroke="#494949" stroke-width="0.5" stroke-miterlimit="10" points="435.792,253.162 
		424.08,262.352 433.13,272.455 444.667,262.704 	"/>
	<polygon id="r3185-3186" fill="#939598" stroke="#494949" stroke-width="0.5" stroke-miterlimit="10" points="417.221,233.191 
		408.387,223.692 397.283,232.437 405.857,242.008 414.383,251.525 425.898,242.521 	"/>
	<polygon id="r3184" fill="#939598" stroke="#494949" stroke-width="0.5" stroke-miterlimit="10" points="425.898,242.521 
		414.383,251.525 424.08,262.352 435.792,253.162 	"/>
	<path id="r3406" fill="#939598" stroke="#494949" stroke-width="0.5" stroke-miterlimit="10" d="M555.5,281.75
		c0,0,1.916-10.75,2.666-21.083h9.084c0,0,0.252,14.5-3.332,23.333L555.5,281.75z"/>
	<path id="r3405" fill="#939598" stroke="#494949" stroke-width="0.5" stroke-miterlimit="10" d="M557.839,255.568
		c0,0-1.051-10.87-3.111-21.022l8.748-2.447c0,0,4.852,13.997,3.777,23.469H557.839z"/>
	<polygon id="r3037" fill="#939598" stroke="#494949" stroke-width="0.5" stroke-miterlimit="10" points="226.001,432.998 
		215.917,432.998 215.917,420.271 211.583,420.271 211.583,416.333 226.001,407.542 	"/>
	<polygon id="r3043" fill="#939598" stroke="#494949" stroke-width="0.5" stroke-miterlimit="10" points="129.848,477.355 
		119.155,454.876 107.983,459.412 116.706,477.593 	"/>
	<polygon id="r3041-3042" fill="#939598" stroke="#494949" stroke-width="0.5" stroke-miterlimit="10" points="143.612,444.947 
		131.475,449.875 119.155,454.876 129.848,477.355 144.63,477.083 158.38,476.833 	"/>
	<g id="r3038-3040">
		<polygon fill="#939598" stroke="#494949" stroke-width="0.5" stroke-miterlimit="10" points="174.083,432.998 203.083,432.998 
			203.083,420.917 		"/>
		<polygon fill="#939598" stroke="#494949" stroke-width="0.5" stroke-miterlimit="10" points="143.612,444.947 158.38,476.833 
			167.5,476.666 167.5,458.666 170.167,458.666 170.167,434.166 155.961,439.933 		"/>
	</g>
	<path id="r3044" fill="#939598" stroke="#494949" stroke-width="0.5" stroke-miterlimit="10" d="M115,477.625l1.706-0.031
		l-8.723-18.182L96.7,463.994l-4.331,8.754C104.207,479.048,115,477.625,115,477.625z"/>
	<path id="r3045-3052" fill="#939598" stroke="#494949" stroke-width="0.5" stroke-miterlimit="10" d="M175.25,366
		c-44.307,2.67-71.07,17.463-82.922,25.879c-3.128,2.221-5.232,4.003-6.328,4.996c-0.868,0.785-2.245,1.992-3.869,3.592
		l-0.001-0.003c-4.037,3.978-9.604,10.39-12.685,18.841l4.213,1.688l-0.034-0.076l15.287-6.058l0.001,0.004l11.724-4.646
		l72.489-28.717l5-8.625L175.25,366z"/>
	<path id="r3402" fill="#939598" stroke="#494949" stroke-width="0.5" stroke-miterlimit="10" d="M72.25,451.5
		c4.065,7.867,8.971,13.383,13.986,17.266l4.72-8.645l-17.298-39.127l-4.213-1.688C66.269,428.017,65.735,438.894,72.25,451.5z"/>
	<polygon id="r3417-3420" fill="#939598" stroke="#494949" stroke-width="0.5" stroke-miterlimit="10" points="119.428,428.352 
		115.237,417.689 103.383,422.348 103.378,422.335 91.523,426.994 95.713,437.654 107.566,432.996 107.572,433.011 	"/>
	<polygon id="r3418-3419" fill="#939598" stroke="#494949" stroke-width="0.5" stroke-miterlimit="10" points="119.42,428.341 
		104.589,434.166 104.59,434.167 95.709,437.657 99.9,448.319 111.754,443.66 123.61,439.001 	"/>
	
		<rect id="r3413" x="142.305" y="404.366" transform="matrix(-0.3658 -0.9307 0.9307 -0.3658 -180.0927 698.7453)" fill="#939598" stroke="#494949" stroke-width="0.5" stroke-miterlimit="10" width="11.455" height="12.738"/>
	
		<rect id="r3416" x="129.806" y="409.666" transform="matrix(0.9307 -0.3658 0.3658 0.9307 -142.5007 78.5923)" fill="#939598" stroke="#494949" stroke-width="0.5" stroke-miterlimit="10" width="12.738" height="11.454"/>
	
		<rect id="r3415" x="134.628" y="419.672" transform="matrix(-0.3658 -0.9307 0.9307 -0.3658 -204.8121 712.5206)" fill="#939598" stroke="#494949" stroke-width="0.5" stroke-miterlimit="10" width="11.455" height="12.738"/>
	
		<rect id="r3414" x="145.853" y="415.668" transform="matrix(-0.9307 0.3658 -0.3658 -0.9307 448.0331 757.9083)" fill="#939598" stroke="#494949" stroke-width="0.5" stroke-miterlimit="10" width="12.738" height="11.454"/>
	
		<rect id="r3409" x="179.162" y="389.834" transform="matrix(-0.3658 -0.9307 0.9307 -0.3658 -116.2077 713.223)" fill="#939598" stroke="#494949" stroke-width="0.5" stroke-miterlimit="10" width="11.454" height="12.738"/>
	
		<rect id="r3412" x="166.643" y="395.156" transform="matrix(0.9307 -0.3658 0.3658 0.9307 -134.6633 91.0824)" fill="#939598" stroke="#494949" stroke-width="0.5" stroke-miterlimit="10" width="12.738" height="11.456"/>
	<polygon id="r3410-3411" fill="#939598" stroke="#494949" stroke-width="0.5" stroke-miterlimit="10" points="197.121,409.847 
		192.931,399.187 181.076,403.846 181.044,403.85 169.189,408.51 173.379,419.172 178.537,417.145 	"/>
	<g id="r3159-3160">
		<path fill="#939598" stroke="#494949" stroke-width="0.5" stroke-miterlimit="10" d="M314.855,293.144h-22.532l-4.491,12.106
			l5.917,7.084c0,0,25.189-7.416,29.053-8v-2.416L314.855,293.144z"/>
		
			<rect x="263.741" y="281.533" transform="matrix(0.3671 -0.9302 0.9302 0.3671 -89.298 441.9064)" fill="#939598" stroke="#494949" stroke-width="0.5" stroke-miterlimit="10" width="32.689" height="10.082"/>
	</g>
	<polygon id="r3161" fill="#939598" stroke="#494949" stroke-width="0.5" stroke-miterlimit="10" points="300.084,276.835 
		298.002,277.835 292.324,293.144 314.855,293.144 	"/>
</g>
<g id="signs">
	<rect id="elevator" x="603.833" y="163.939" opacity="0.8" enable-background="new    " width="14.811" height="14.811"/>
	<g id="handicapped-toilet">
		<rect x="546.642" y="150.208" opacity="0.8" enable-background="new    " width="14.813" height="14.811"/>
		<rect x="254.359" y="447.498" opacity="0.8" enable-background="new    " width="14.811" height="14.811"/>
	</g>
	<g id="toilet">
		<rect x="527.494" y="150.208" opacity="0.8" enable-background="new    " width="14.811" height="14.811"/>
		<rect x="234.5" y="447.929" opacity="0.8" enable-background="new    " width="14.811" height="14.813"/>
	</g>
	<g id="lift">
		<rect x="484.804" y="205.875" opacity="0.8" enable-background="new    " width="14.811" height="14.811"/>
		<rect x="489.261" y="294.929" opacity="0.8" enable-background="new    " width="14.813" height="14.812"/>
		<rect x="202.333" y="356.184" opacity="0.8" enable-background="new    " width="14.811" height="14.811"/>
		<rect x="269.768" y="249.012" opacity="0.8" enable-background="new    " width="14.811" height="14.813"/>
		<rect x="257.857" y="220.428" opacity="0.8" enable-background="new    " width="14.811" height="14.813"/>
	</g>
	<g id="fire-exit">
		<rect x="517.351" y="122.783" opacity="0.8" enable-background="new    " width="14.813" height="14.811"/>
		<rect x="183.359" y="462.308" opacity="0.8" enable-background="new    " width="14.811" height="14.813"/>
		<rect x="287.251" y="374.986" opacity="0.8" enable-background="new    " width="14.813" height="14.811"/>
		<rect x="358.516" y="122.783" opacity="0.8" enable-background="new    " width="14.813" height="14.811"/>
		<rect x="471.261" y="364.936" opacity="0.8" enable-background="new    " width="14.813" height="14.811"/>
	</g>
	<g id="entrance">
		<rect x="615.345" y="208.881" opacity="0.8" enable-background="new    " width="14.811" height="14.811"/>
		<rect x="616.095" y="445.589" opacity="0.8" enable-background="new    " width="14.811" height="14.812"/>
	</g>
	<rect id="parking" x="652.845" y="297.64" opacity="0.8" enable-background="new    " width="14.811" height="14.811"/>
	
		<rect id="handicapped-parking" x="652.845" y="275.762" opacity="0.8" enable-background="new    " width="14.811" height="14.813"/>
</g>
</svg>
