<?xml version="1.0" encoding="utf-8"?>
<!-- Generator: Adobe Illustrator 16.0.0, SVG Export Plug-In . SVG Version: 6.00 Build 0)  -->
<!DOCTYPE svg PUBLIC "-//W3C//DTD SVG 1.1//EN" "http://www.w3.org/Graphics/SVG/1.1/DTD/svg11.dtd">
<svg version="1.1" id="Layer_1" xmlns="http://www.w3.org/2000/svg" xmlns:xlink="http://www.w3.org/1999/xlink" x="0px" y="0px"
	 width="841.891px" height="595.281px" viewBox="0 0 841.891 595.281" enable-background="new 0 0 841.891 595.281"
	 xml:space="preserve">
<g id="background">
	<rect x="0" fill="#FFFFFF" width="841.891" height="595.281"/>
</g>
<g id="etc">
	<path fill="#DEDEDE" stroke="#494949" stroke-width="0.5" stroke-miterlimit="10" d="M305.667,118L279,63.333l-73.654,14
		c0,0-6.346,57-30.012,128.333s-95,140-95,140l18.655,29.199C74.667,384.835,58,405.145,58,428.593
		c0,33.297,33.579,60.291,75,60.291l551.667,1.449V118H305.667z"/>
	<path fill="#DEDEDE" stroke="#494949" stroke-width="0.5" stroke-miterlimit="10" d="M289.628,124.834L281.5,109.5
		c0,0-10.333-15.833-28.5-16.833c-10.538-0.58-22.47,2.389-30.868,12.681c-6.078,7.451-10.309,18.732-10.799,35.319l-5.5,0.333
		l-9.167,38.833l7.955,4.232c66.803,25.485,61.568,74.87,53.464,105.934c-8.414,32.25-61.169,72.965-61.169,72.965
		c-44.083-4.535-86.648,15.017-86.648,15.017l-1.3-2.444l0.741,6.569c-2.679,1.172-5.316,2.426-7.88,3.78
		c-3.753,1.984-7.346,4.173-10.693,6.576c-1.786,1.283-3.506,2.625-5.136,4.037c-1.598,1.383-3.07,2.746-4.441,4.09
		c-6.525,6.397-10.576,12.347-12.959,17.761c-6.469,14.69-0.692,25.458,1.037,30.646c1.468,4.404,6.46,12.717,14.948,19.102
		l6.137,3.889c4.837,2.525,10.485,4.307,16.946,4.682c2.494,0.145,5.133,0.256,7.85,0.344c9.148,0.293,19.211,0.289,27.913,0.184
		c5.377-0.066,10.22-0.174,14.011-0.271c5.05-0.133,8.228-0.252,8.228-0.252v-1.033l8.583,5.556h459.749v-356.36H289.628z"/>
	
		<ellipse fill="#DEDEDE" stroke="#494949" stroke-width="0.5" stroke-miterlimit="10" cx="515.626" cy="261.25" rx="37.875" ry="57.25"/>
	<path fill="#DEDEDE" stroke="#494949" stroke-width="0.5" stroke-miterlimit="10" d="M450.674,249.132
		c-0.007-0.019-0.011-0.038-0.015-0.057c-0.375-1.416-0.83-2.788-1.344-4.123c-0.104-0.266-0.199-0.536-0.311-0.798
		c-0.021-0.062-0.054-0.121-0.078-0.182c-0.412-0.989-0.854-1.954-1.34-2.89c-0.07-0.136-0.146-0.266-0.22-0.4
		c-3.664-6.879-9.239-12.203-15.854-14.945c-3.195-1.326-6.64-2.055-10.223-2.055l0,0h-26.25h-85.789
		c-13.632,0-25.187,10.434-29.218,24.872l0,0c-0.001,0.003-0.002,0.007-0.003,0.011c-0.244,0.876-0.461,1.767-0.648,2.671
		c-0.004,0.021-0.008,0.042-0.013,0.063c-0.182,0.882-0.337,1.776-0.463,2.683c-0.004,0.028-0.009,0.057-0.013,0.085
		c-0.117,0.86-0.205,1.731-0.271,2.61c-0.012,0.167-0.021,0.335-0.032,0.503c-0.054,0.873-0.091,1.751-0.091,2.64c0,0,0,0,0,0.001
		l0,0v4.208l0,0c0,19.955,13.771,36.138,30.75,36.138l0,0h26.25h85.792c13.63,0,25.187-10.435,29.216-24.873h0.002
		c0-0.004,0.002-0.008,0.002-0.012c0.244-0.876,0.461-1.766,0.647-2.669c0.006-0.021,0.008-0.042,0.015-0.063
		c0.182-0.882,0.336-1.775,0.463-2.681c0.004-0.029,0.008-0.058,0.014-0.086c0.115-0.859,0.203-1.73,0.271-2.609
		c0.012-0.167,0.021-0.335,0.03-0.503c0.056-0.873,0.093-1.751,0.093-2.64c0,0,0,0,0-0.001l0,0v-4.208l0,0
		C452.042,256.1,451.562,252.511,450.674,249.132z"/>
	
		<rect x="171.25" y="436.25" fill="#DEDEDE" stroke="#494949" stroke-width="0.5" stroke-miterlimit="10" width="30.583" height="24"/>
	<rect x="589.251" y="147" fill="#DEDEDE" stroke="#494949" stroke-width="0.5" stroke-miterlimit="10" width="34.25" height="61"/>
	
		<rect x="514.376" y="147" fill="#DEDEDE" stroke="#494949" stroke-width="0.5" stroke-miterlimit="10" width="55.75" height="36.25"/>
	
		<rect x="514.376" y="144.75" fill="#DEDEDE" stroke="#494949" stroke-width="0.5" stroke-miterlimit="10" width="110.125" height="1.25"/>
	
		<rect x="299.876" y="126.375" fill="#DEDEDE" stroke="#494949" stroke-width="0.5" stroke-miterlimit="10" width="53" height="22.625"/>
	
		<rect x="215.75" y="437.753" fill="#DEDEDE" stroke="#494949" stroke-width="0.5" stroke-miterlimit="10" width="69.5" height="39.166"/>
	<rect x="378.917" y="317.57" fill="#DEDEDE" stroke="#494949" stroke-miterlimit="10" width="8.084" height="1.473"/>
	<polyline fill="#DEDEDE" stroke="#494949" stroke-width="0.5" stroke-miterlimit="10" points="373.688,467.31 382.313,470 
		392.126,466.75 	"/>
	<path fill="#DEDEDE" stroke="#494949" stroke-width="0.5" stroke-miterlimit="10" d="M110.268,377.98
		c0,0,42.565-19.551,86.648-15.018c0,0,52.755-40.715,61.169-72.965s13.748-84.25-61.419-108.75c0,0-33,109.313-102,167.366
		L110.268,377.98z"/>
	<path fill="#DEDEDE" stroke="#494949" stroke-width="0.5" stroke-miterlimit="10" d="M72.333,420.333l-3.734-1.983
		c-6.469,14.692-0.692,25.458,1.036,30.646c1.469,4.404,6.461,12.719,14.949,19.102l4.749-7.264L72.333,420.333z"/>
	<path fill="#DEDEDE" stroke="#494949" stroke-width="0.5" stroke-miterlimit="10" d="M338.9,335.75v-2v-1.25v-10.064
		c-6.771,1.465-13.747,3.297-20.899,5.564v2.375l27.945,32.59l6.474-4.779L338.9,335.75z"/>
</g>
<g id="Rooms">
	<polygon id="r2056" fill="#939598" stroke="#494949" stroke-width="0.5" stroke-miterlimit="10" points="382.001,208.833 
		479.501,208.833 479.501,164.333 493.501,164.333 493.501,130.5 476.501,127.167 453.333,130 426.833,127.167 401.167,130.833 
		382.001,128.333 	"/>
	<polygon id="r2054" fill="#939598" stroke="#494949" stroke-width="0.5" stroke-miterlimit="10" points="337.833,155.167 
		337.833,150.833 308.167,150.833 308.167,208.833 338.111,208.833 338.111,155.167 	"/>
	
		<rect id="r2055" x="338.111" y="155.167" fill="#939598" stroke="#494949" stroke-width="0.5" stroke-miterlimit="10" width="34.254" height="53.666"/>
	<polygon id="r2063-2065" fill="#939598" stroke="#494949" stroke-width="0.5" stroke-miterlimit="10" points="496.001,175.875 
		511.626,175.875 511.626,185 570.126,185 570.126,198.375 558.501,208 542.501,194.75 500.626,194.75 496.001,186.125 	"/>
	<path id="r2048" fill="#939598" stroke="#494949" stroke-width="0.5" stroke-miterlimit="10" d="M123.22,400.355l-9.892-19.781
		c-3.926,1.588-7.79,3.352-11.5,5.313l9.187,19.262L123.22,400.355z"/>
	<path id="r2047" fill="#939598" stroke="#494949" stroke-width="0.5" stroke-miterlimit="10" d="M111.015,405.146l-9.187-19.261
		c-3.753,1.983-7.346,4.173-10.694,6.575l8.383,17.199L111.015,405.146z"/>
	<path id="r2046" fill="#939598" stroke="#494949" stroke-width="0.5" stroke-miterlimit="10" d="M99.517,409.662l-8.383-17.197
		c-1.785,1.283-3.505,2.625-5.135,4.035c-1.598,1.385-3.07,2.746-4.441,4.092l6.537,13.557L99.517,409.662z"/>
	<path id="r2052" fill="#939598" stroke="#494949" stroke-width="0.5" stroke-miterlimit="10" d="M173.583,380.583l3.482-8.041
		l-2.899-5.709c0,0-11.128,0.729-26.147,3.707l8.361,16.797L173.583,380.583z"/>
	<path id="r2045" fill="#939598" stroke="#494949" stroke-width="0.5" stroke-miterlimit="10" d="M88.094,414.146l-6.537-13.559
		c-6.525,6.396-10.576,12.348-12.959,17.762l3.734,1.982L88.094,414.146z"/>
	<path id="r2049" fill="#939598" stroke="#494949" stroke-width="0.5" stroke-miterlimit="10" d="M134.68,395.855l-9.695-19.465
		c-3.889,1.232-7.802,2.625-11.656,4.184l9.892,19.781L134.68,395.855z"/>
	<path id="r2050" fill="#939598" stroke="#494949" stroke-width="0.5" stroke-miterlimit="10" d="M124.985,376.391l9.695,19.467
		l10.92-4.287l-9.041-18.459C132.785,374.063,128.898,375.148,124.985,376.391z"/>
	<path id="r2051" fill="#939598" stroke="#494949" stroke-width="0.5" stroke-miterlimit="10" d="M148.018,370.54
		c-3.625,0.718-7.48,1.569-11.458,2.571l9.041,18.457l10.778-4.231L148.018,370.54z"/>
	<path id="r2043" fill="#939598" stroke="#494949" stroke-width="0.5" stroke-miterlimit="10" d="M107.551,459.246l7.966,17.764
		c4.044,0.13,8.266,0.198,12.47,0.229l-8.906-22.636L107.551,459.246z"/>
	<path id="r2042" fill="#939598" stroke="#494949" stroke-width="0.5" stroke-miterlimit="10" d="M143.429,477.192l-12.722-27.271
		l-11.627,4.683l8.906,22.636C133.294,477.276,138.574,477.252,143.429,477.192z"/>
	<path id="r2040" fill="#939598" stroke="#494949" stroke-width="0.5" stroke-miterlimit="10" d="M155.13,440.083l-12.534,5.049
		l14.844,31.787c5.05-0.133,8.228-0.254,8.228-0.254V458h4v-0.166h-6.333L155.13,440.083z"/>
	<polygon id="r2039" fill="#939598" stroke="#494949" stroke-width="0.5" stroke-miterlimit="10" points="163.333,457.833 
		169.667,457.833 169.263,434.392 155.13,440.083 	"/>
	<polygon id="r2038" fill="#939598" stroke="#494949" stroke-width="0.5" stroke-miterlimit="10" points="201.833,421.333 
		201.809,421.285 171.069,433.666 201.833,433.625 	"/>
	<path id="r2040" fill="#939598" stroke="#494949" stroke-width="0.5" stroke-miterlimit="10" d="M130.707,449.919l12.722,27.271
		c5.377-0.066,10.22-0.174,14.011-0.271l-14.844-31.787L130.707,449.919z"/>
	<path id="r2044" fill="#939598" stroke="#494949" stroke-width="0.5" stroke-miterlimit="10" d="M95.333,464.167l-4.612,7.816
		c4.837,2.525,10.485,4.307,16.946,4.682c2.494,0.145,5.133,0.256,7.85,0.344l-7.966-17.764L95.333,464.167z"/>
	<polygon id="r2143-2150" fill="#939598" stroke="#494949" stroke-width="0.5" stroke-miterlimit="10" points="130.707,423.105 
		130.707,423.105 135.204,433.105 147.25,428.5 137.875,409 126.43,413.591 	"/>
	<polygon id="r2146-2147" fill="#939598" stroke="#494949" stroke-width="0.5" stroke-miterlimit="10" points="106.208,433.208 
		106.208,433.208 101.984,423.398 91.135,427.75 99.517,446.75 110.268,442.64 	"/>
	<polygon id="r2144-2149" fill="#939598" stroke="#494949" stroke-width="0.5" stroke-miterlimit="10" points="130.707,423.105 
		126.43,413.591 114.207,418.496 118.613,428.091 123.049,437.753 135.204,433.105 	"/>
	<polygon id="r2145-2148" fill="#939598" stroke="#494949" stroke-width="0.5" stroke-miterlimit="10" points="118.613,428.091 
		114.207,418.496 101.984,423.398 106.208,433.208 110.268,442.64 123.049,437.753 	"/>
	<polygon id="r2151" fill="#939598" stroke="#494949" stroke-width="0.5" stroke-miterlimit="10" points="151.917,403.667 
		156.687,413.378 166.525,409.46 162.054,399.559 	"/>
	<polygon id="r2152-2153" fill="#939598" stroke="#494949" stroke-width="0.5" stroke-miterlimit="10" points="186.667,389.583 
		162.935,399.201 162.054,399.559 166.525,409.46 192.008,399.311 	"/>
	<polygon id="r2140-2141-2142" fill="#939598" stroke="#494949" stroke-width="0.5" stroke-miterlimit="10" points="196.917,408.25 
		192.008,399.311 156.687,413.378 161.167,422.5 	"/>
	<polygon id="r2037" fill="#939598" stroke="#494949" stroke-width="0.5" stroke-miterlimit="10" points="210.875,405.125 
		210.875,420.25 214.5,420.25 214.5,435 224,435 224,409.544 	"/>
	<polygon id="r2006" fill="#939598" stroke="#494949" stroke-width="0.5" stroke-miterlimit="10" points="620.251,287.334 
		591.773,287.334 594.251,298.75 594.251,300.141 620.251,300.141 	"/>
	
		<rect id="r2007" x="594.251" y="300.141" fill="#939598" stroke="#494949" stroke-width="0.5" stroke-miterlimit="10" width="26" height="12.526"/>
	
		<rect id="r2009" x="594.251" y="325.167" fill="#939598" stroke="#494949" stroke-width="0.5" stroke-miterlimit="10" width="26" height="12.75"/>
	
		<rect id="r2008" x="594.251" y="312.667" fill="#939598" stroke="#494949" stroke-width="0.5" stroke-miterlimit="10" width="26" height="12.5"/>
	<polygon id="r2004-2005" fill="#939598" stroke="#494949" stroke-width="0.5" stroke-miterlimit="10" points="620.251,261.834 
		586.242,261.834 591.773,287.334 620.251,287.334 	"/>
	<polygon id="r2001-2002-2003" fill="#939598" stroke="#494949" stroke-width="0.5" stroke-miterlimit="10" points="620.251,246 
		611.876,238.25 601.251,238.25 601.251,223.25 587.376,223.25 579.501,230.75 586.242,261.834 620.251,261.834 	"/>
	<polygon id="r2016" fill="#939598" stroke="#494949" stroke-width="0.5" stroke-miterlimit="10" points="594.251,430.875 
		602.126,438.25 620.251,438.25 620.251,423.167 594.251,423.167 	"/>
	
		<rect id="r2014" x="594.251" y="391.583" fill="#939598" stroke="#494949" stroke-width="0.5" stroke-miterlimit="10" width="26" height="15.5"/>
	
		<rect id="r2010" x="594.251" y="337.917" fill="#939598" stroke="#494949" stroke-width="0.5" stroke-miterlimit="10" width="26" height="12.584"/>
	
		<rect id="r2013" x="594.251" y="375.917" fill="#939598" stroke="#494949" stroke-width="0.5" stroke-miterlimit="10" width="26" height="15.666"/>
	
		<rect id="r2015" x="594.251" y="407.083" fill="#939598" stroke="#494949" stroke-width="0.5" stroke-miterlimit="10" width="26" height="16.084"/>
	<polygon id="r2011-2012" fill="#939598" stroke="#494949" stroke-width="0.5" stroke-miterlimit="10" points="594.251,350.501 
		594.251,363.167 594.251,375.917 620.251,375.917 620.251,363.167 620.251,350.501 	"/>
	<polygon id="r2087" fill="#939598" stroke="#494949" stroke-width="0.5" stroke-miterlimit="10" points="542.556,399.955 
		534.228,392.621 515.829,409.275 524.996,417.341 543.323,400.63 	"/>
	<polygon id="r2088" fill="#939598" stroke="#494949" stroke-width="0.5" stroke-miterlimit="10" points="543.323,400.63 
		524.996,417.341 527.167,419.251 527.167,423.167 541.333,423.167 541.333,417.917 552.047,408.313 	"/>
	<polygon id="r2086" fill="#939598" stroke="#494949" stroke-width="0.5" stroke-miterlimit="10" points="533.607,392.074 
		523.385,383.07 505.667,400.335 511.287,405.279 515.829,409.275 534.228,392.621 	"/>
	<polygon id="r2096" fill="#939598" stroke="#494949" stroke-width="0.5" stroke-miterlimit="10" points="495.484,391.798 
		495.484,391.798 484.476,382.594 471.773,404.271 482.172,413.4 498.355,394.198 	"/>
	<polygon id="r2095" fill="#939598" stroke="#494949" stroke-width="0.5" stroke-miterlimit="10" points="505.667,400.335 
		505.679,400.322 498.355,394.198 482.172,413.4 482.498,413.688 493.611,423.447 511.287,405.279 	"/>
	<polygon id="r2084" fill="#939598" stroke="#494949" stroke-width="0.5" stroke-miterlimit="10" points="499.551,362.083 
		492.126,369.542 484.476,382.594 495.484,391.798 511.759,372.833 	"/>
	<polygon id="r2085" fill="#939598" stroke="#494949" stroke-width="0.5" stroke-miterlimit="10" points="523.385,383.07 
		513.083,374 511.759,372.833 495.484,391.798 498.355,394.198 498.355,394.198 505.679,400.322 	"/>
	<path id="r2053a-2053b" fill="#939598" stroke="#494949" stroke-width="0.5" stroke-miterlimit="10" d="M222.132,105.348
		c-6.078,7.451-10.309,18.732-10.799,35.319l-5.5,0.333l-9.167,38.833L238.333,202l26.831-21.497l-10.664-29.67L222.132,105.348z"/>
	<path id="r2053c" fill="#939598" stroke="#494949" stroke-width="0.5" stroke-miterlimit="10" d="M297.667,164.333V140L281.5,109.5
		c0,0-10.333-15.833-28.5-16.833c-10.538-0.58-22.47,2.389-30.868,12.681l32.368,45.486l10.665,29.669l0.835-0.669L297.667,164.333z
		"/>
	<polygon id="r2123-2124-2125" fill="#939598" stroke="#494949" stroke-width="0.5" stroke-miterlimit="10" points="330.001,385.5 
		341.376,376.5 307.376,337.125 296,345.375 	"/>
	<polygon id="r2031" fill="#939598" stroke="#494949" stroke-width="0.5" stroke-miterlimit="10" points="343.751,449.875 
		333.626,446.464 333.626,468.689 340.001,470.625 349.833,467.439 349.833,449.875 	"/>
	<polygon id="r2030" fill="#939598" stroke="#494949" stroke-width="0.5" stroke-miterlimit="10" points="349.833,449.875 
		349.833,467.439 362.376,463.375 372.756,467.402 363.808,449.875 	"/>
	<polygon id="r2028" fill="#939598" stroke="#494949" stroke-width="0.5" stroke-miterlimit="10" points="418.102,449.875 
		418.269,467.31 426.001,470 432.251,467.992 432.251,449.875 	"/>
	<polygon id="r2029" fill="#939598" stroke="#494949" stroke-width="0.5" stroke-miterlimit="10" points="401.425,449.875 
		392.983,467.242 404.438,462.5 418.269,467.31 418.102,449.875 	"/>
	<polygon id="r2032" fill="#939598" stroke="#494949" stroke-width="0.5" stroke-miterlimit="10" points="317.376,440.992 
		317.376,445.25 317.376,445.917 317.376,463.75 333.626,468.689 333.626,446.464 	"/>
	<polygon id="r2034" fill="#939598" stroke="#494949" stroke-width="0.5" stroke-miterlimit="10" points="252.625,419.186 
		252.625,435 288.5,435 288.5,431.267 	"/>
	<polygon id="r2036" fill="#939598" stroke="#494949" stroke-width="0.5" stroke-miterlimit="10" points="224,409.544 224,435 
		236.333,435 236.333,413.699 	"/>
	<polygon id="r2035" fill="#939598" stroke="#494949" stroke-width="0.5" stroke-miterlimit="10" points="236.333,413.699 
		236.333,435 252.625,435 252.625,419.186 	"/>
	<polygon id="r2033" fill="#939598" stroke="#494949" stroke-width="0.5" stroke-miterlimit="10" points="288.5,431.267 288.5,435 
		288.5,435.876 288.5,445.25 317.376,445.25 317.376,440.992 	"/>
	<path id="r2021" fill="#939598" stroke="#494949" stroke-width="0.5" stroke-miterlimit="10" d="M522.833,449.875v19.613
		c4.384,1.51,9.203,2.98,14.416,4.318v-23.934L522.833,449.875L522.833,449.875z"/>
	<path id="r2019" fill="#939598" stroke="#494949" stroke-width="0.5" stroke-miterlimit="10" d="M551.417,449.875v26.984
		c4.498,0.791,9.212,1.445,14.123,1.934v-28.918H551.417L551.417,449.875z"/>
	<path id="r2020" fill="#939598" stroke="#494949" stroke-width="0.5" stroke-miterlimit="10" d="M537.251,449.875v23.934
		c4.44,1.143,9.176,2.176,14.168,3.055v-26.984h-14.168V449.875z"/>
	<path id="r2017" fill="#939598" stroke="#494949" stroke-width="0.5" stroke-miterlimit="10" d="M581.333,449.875v29.801
		c2.722,0.037,5.478,0.035,8.291-0.051V461.75h8.377v-11.875H581.333z"/>
	<polygon id="r2027" fill="#939598" stroke="#494949" stroke-width="0.5" stroke-miterlimit="10" points="432.251,449.875 
		432.251,467.992 446.626,463.375 446.792,463.429 446.792,449.875 	"/>
	<path id="r2018" fill="#939598" stroke="#494949" stroke-width="0.5" stroke-miterlimit="10" d="M565.542,449.875v28.918
		c5.061,0.498,10.329,0.807,15.793,0.883v-29.801H565.542z"/>
	<polygon id="r2026" fill="#939598" stroke="#494949" stroke-width="0.5" stroke-miterlimit="10" points="446.792,449.875 
		446.792,463.429 462.541,468.587 462.541,449.875 	"/>
	<path id="r2022" fill="#939598" stroke="#494949" stroke-width="0.5" stroke-miterlimit="10" d="M508.708,449.875v14.061
		c4.009,1.783,8.738,3.695,14.125,5.555v-19.611h-14.125V449.875z"/>
	<polygon id="r2025" fill="#939598" stroke="#494949" stroke-width="0.5" stroke-miterlimit="10" points="462.541,449.875 
		462.541,468.587 468.001,470.375 475.708,467.851 475.708,449.875 	"/>
	<path id="r2023" fill="#939598" stroke="#494949" stroke-width="0.5" stroke-miterlimit="10" d="M489.126,449.875v13.4l4.125-7.4
		c0,0,5.506,3.633,15.459,8.061v-14.061H489.126z"/>
	<polygon id="r2024" fill="#939598" stroke="#494949" stroke-width="0.5" stroke-miterlimit="10" points="475.708,449.875 
		475.708,467.851 489.001,463.5 489.126,463.275 489.126,449.875 	"/>
	<polygon id="r2404" fill="#939598" stroke="#494949" stroke-width="0.5" stroke-miterlimit="10" points="375.046,441.533 
		383.251,436.796 391.455,441.533 391.455,451.007 383.251,455.746 375.046,451.007 	"/>
	<polygon id="r2067" fill="#939598" stroke="#494949" stroke-width="0.5" stroke-miterlimit="10" points="567.708,331.542 
		568.001,346.501 577.001,346.501 577.001,331.542 	"/>
	<polygon id="r2069-2070" fill="#939598" stroke="#494949" stroke-width="0.5" stroke-miterlimit="10" points="567.708,331.542 
		559.501,331.542 557.58,323.822 539.751,327.375 539.751,330.75 563.376,350.716 568.001,346.501 	"/>
	<polygon id="r2066" fill="#939598" stroke="#494949" stroke-width="0.5" stroke-miterlimit="10" points="567.708,331.542 
		577.001,331.542 577.001,322.375 574.251,320.5 557.58,323.822 559.501,331.542 	"/>
	<polygon id="r2068" fill="#939598" stroke="#494949" stroke-width="0.5" stroke-miterlimit="10" points="563.376,350.716 
		575.251,360.75 577.001,358.75 577.001,346.501 568.001,346.501 	"/>
	<polygon id="r2073" fill="#939598" stroke="#494949" stroke-width="0.5" stroke-miterlimit="10" points="542.722,366.277 
		550.441,358.482 538.853,348.316 531.144,356.064 	"/>
	<polygon id="r2072" fill="#939598" stroke="#494949" stroke-width="0.5" stroke-miterlimit="10" points="531.144,356.064 
		538.853,348.316 527.486,338.346 519.705,345.977 	"/>
	<polygon id="r2076" fill="#939598" stroke="#494949" stroke-width="0.5" stroke-miterlimit="10" points="562.939,386.438 
		571.167,393.833 576.251,393.833 576.251,381.125 572.066,377.453 564.187,385.208 	"/>
	<polygon id="r2080" fill="#939598" stroke="#494949" stroke-width="0.5" stroke-miterlimit="10" points="531.144,356.064 
		523.072,364.175 534.736,374.341 542.722,366.277 	"/>
	<polygon id="r2077" fill="#939598" stroke="#494949" stroke-width="0.5" stroke-miterlimit="10" points="571.167,393.833 
		562.939,386.438 556.215,393.061 573.501,408.125 576.251,405.125 576.251,393.833 	"/>
	<polygon id="r2071-2082" fill="#939598" stroke="#494949" stroke-width="0.5" stroke-miterlimit="10" points="522.251,333.75 
		511.302,338.564 501.501,342.875 501.501,345.375 511.463,354.057 519.705,345.977 527.486,338.346 	"/>
	<polygon id="r2075-2078" fill="#939598" stroke="#494949" stroke-width="0.5" stroke-miterlimit="10" points="562.388,368.964 
		554.501,376.666 546.437,384.539 556.215,393.061 562.939,386.438 564.187,385.208 572.066,377.453 	"/>
	<polygon id="r2074-2079" fill="#939598" stroke="#494949" stroke-width="0.5" stroke-miterlimit="10" points="550.441,358.482 
		542.722,366.277 534.736,374.341 546.437,384.539 554.501,376.666 562.388,368.964 	"/>
	<polygon id="r2081" fill="#939598" stroke="#494949" stroke-width="0.5" stroke-miterlimit="10" points="519.705,345.977 
		511.463,354.057 523.072,364.175 531.144,356.064 	"/>
	<polygon id="r2097" fill="#939598" stroke="#494949" stroke-width="0.5" stroke-miterlimit="10" points="475.185,359.375 
		475.001,359.5 451.251,386.25 461.369,395.136 481.501,364.583 	"/>
	<polygon id="r2083" fill="#939598" stroke="#494949" stroke-width="0.5" stroke-miterlimit="10" points="492.126,369.542 
		499.551,362.083 487.251,351.25 475.185,359.375 481.501,364.583 	"/>
	<polygon id="r2090-2091" fill="#939598" stroke="#494949" stroke-width="0.5" stroke-miterlimit="10" points="562.212,417.264 
		556.187,423.167 541.333,423.167 541.333,434.874 556.215,434.874 556.215,434.875 571.251,434.875 576.251,429.625 	"/>
	<polygon id="r2089" fill="#939598" stroke="#494949" stroke-width="0.5" stroke-miterlimit="10" points="552.047,408.313 
		541.333,417.917 541.333,423.167 556.187,423.167 562.212,417.264 	"/>
	
		<rect id="r2092" x="527.167" y="423.167" fill="#939598" stroke="#494949" stroke-width="0.5" stroke-miterlimit="10" width="14.166" height="11.707"/>
	<polygon id="r2093" fill="#939598" stroke="#494949" stroke-width="0.5" stroke-miterlimit="10" points="522.756,415.371 
		512.917,423.447 512.917,434.875 527.167,434.875 527.167,423.167 527.167,419.251 	"/>
	<polygon id="r2094" fill="#939598" stroke="#494949" stroke-width="0.5" stroke-miterlimit="10" points="522.756,415.371 
		511.287,405.279 493.611,423.447 506.626,434.875 512.917,434.875 512.917,423.447 	"/>
	<polygon id="r2104" fill="#939598" stroke="#494949" stroke-width="0.5" stroke-miterlimit="10" points="468.751,345.375 
		458.751,337.125 448.619,348.615 458.744,356.74 	"/>
	<polygon id="r2106" fill="#939598" stroke="#494949" stroke-width="0.5" stroke-miterlimit="10" points="426.126,374.125 
		436.501,382 447.24,369.805 437.252,361.505 	"/>
	<polygon id="r2105" fill="#939598" stroke="#494949" stroke-width="0.5" stroke-miterlimit="10" points="448.619,348.615 
		437.252,361.505 447.24,369.805 458.744,356.74 	"/>
	<polygon id="r2098" fill="#939598" stroke="#494949" stroke-width="0.5" stroke-miterlimit="10" points="454.39,407.82 
		444.501,399.25 439.876,399.25 432.207,408.104 445.47,417.764 	"/>
	<polygon id="r2099" fill="#939598" stroke="#494949" stroke-width="0.5" stroke-miterlimit="10" points="458.501,427.25 
		465.863,417.764 454.39,407.82 445.47,417.764 	"/>
	<polygon id="r2102-2103" fill="#939598" stroke="#494949" stroke-width="0.5" stroke-miterlimit="10" points="432.207,408.104 
		421.945,419.951 412.376,431 416.251,434.875 435.167,434.875 435.167,429.25 445.47,417.764 	"/>
	<polygon id="r2100" fill="#939598" stroke="#494949" stroke-width="0.5" stroke-miterlimit="10" points="483.376,432.939 
		465.863,417.764 458.501,427.25 458.501,434.875 481.501,434.875 	"/>
	<polygon id="r2101" fill="#939598" stroke="#494949" stroke-width="0.5" stroke-miterlimit="10" points="445.47,417.764 
		435.167,429.25 435.167,434.875 458.501,434.875 458.501,427.25 	"/>
	<path id="r2138" fill="#939598" stroke="#494949" stroke-width="0.5" stroke-miterlimit="10" d="M257.125,377.98L257.125,377.98
		l11.125,9.354l10.963-7.021l-6.228-10.237l-3.361,2.049l-9.861-12.789c-3.958,3.146-8.217,6.66-12.453,10.394L257.125,377.98
		L257.125,377.98z"/>
	<path id="r2137" fill="#939598" stroke="#494949" stroke-width="0.5" stroke-miterlimit="10" d="M257.125,377.98l-9.814-8.254
		c-3.574,3.146-7.125,6.441-10.457,9.791l14.606,13.258L257.125,377.98z"/>
	<path id="r2126" fill="#939598" stroke="#494949" stroke-width="0.5" stroke-miterlimit="10" d="M290.581,359.346L278.5,345.375
		c0,0-3.782,2.586-9.437,6.805l10.105,14.125l7.456-4.547L290.581,359.346z"/>
	<path id="r2139" fill="#939598" stroke="#494949" stroke-width="0.5" stroke-miterlimit="10" d="M259.763,359.336l9.861,12.789
		l3.361-2.049l6.184-3.771l-10.105-14.125C266.329,354.221,263.164,356.635,259.763,359.336z"/>
	<polygon id="r2127" fill="#939598" stroke="#494949" stroke-width="0.5" stroke-miterlimit="10" points="300.387,385.421 
		308.046,379.539 290.581,359.343 286.625,361.757 	"/>
	<polygon id="r2128" fill="#939598" stroke="#494949" stroke-width="0.5" stroke-miterlimit="10" points="319.558,392.852 
		308.046,379.539 300.387,385.421 304.333,392.208 297.583,394.875 295.374,400.514 309.822,405.15 319.773,393.102 	"/>
	<polygon id="r2129" fill="#939598" stroke="#494949" stroke-width="0.5" stroke-miterlimit="10" points="332.926,408.307 
		319.773,393.102 309.822,405.15 331.316,412.052 	"/>
	<polygon id="r2135" fill="#939598" stroke="#494949" stroke-width="0.5" stroke-miterlimit="10" points="257.125,377.98 
		251.459,392.775 251.459,392.775 251.459,392.775 247.922,402.012 261.66,406.457 268.25,387.337 	"/>
	<polygon id="r2133" fill="#939598" stroke="#494949" stroke-width="0.5" stroke-miterlimit="10" points="295.374,400.514 
		289.512,415.466 308.505,421.611 314.093,406.521 	"/>
	<polygon id="r2132" fill="#939598" stroke="#494949" stroke-width="0.5" stroke-miterlimit="10" points="314.093,406.521 
		308.505,421.611 324.927,426.925 331.316,412.052 	"/>
	<polygon id="r2130-2131" fill="#939598" stroke="#494949" stroke-width="0.5" stroke-miterlimit="10" points="352.876,431.375 
		332.926,408.307 331.316,412.052 331.316,412.052 331.316,412.052 324.927,426.925 349.501,434.875 	"/>
	<path id="r2136" fill="#939598" stroke="#494949" stroke-width="0.5" stroke-miterlimit="10" d="M236.853,379.52
		c-3.959,3.979-7.608,8.026-10.604,11.979v3.5l21.672,7.013l3.537-9.236L236.853,379.52z"/>
	<polygon id="r2134" fill="#939598" stroke="#494949" stroke-width="0.5" stroke-miterlimit="10" points="279.213,380.314 
		268.25,387.337 261.66,406.457 277.587,411.609 286.625,392.5 	"/>
	<path id="r2122" fill="#939598" stroke="#494949" stroke-width="0.5" stroke-miterlimit="10" d="M377.876,332.947V317.57
		c-6.01,0.203-12.313,0.674-18.875,1.473v13.688L377.876,332.947z"/>
	<path id="r2121" fill="#939598" stroke="#494949" stroke-width="0.5" stroke-miterlimit="10" d="M359.001,332.73v-13.688
		c-6.462,0.787-13.171,1.894-20.101,3.394V332.5L359.001,332.73z"/>
	<path id="r2108" fill="#939598" stroke="#494949" stroke-width="0.5" stroke-miterlimit="10" d="M426.126,333.5v-11.934
		c-5.536-1.152-11.988-2.229-19.25-2.99v14.703L426.126,333.5z"/>
	<path id="r2107" fill="#939598" stroke="#494949" stroke-width="0.5" stroke-miterlimit="10" d="M406.876,333.279v-14.703
		c-5.691-0.598-11.881-1-18.5-1.104v15.594L406.876,333.279z"/>
	<polygon id="r2110" fill="#939598" stroke="#494949" stroke-width="0.5" stroke-miterlimit="10" points="411.126,364.125 
		410.904,364.125 415.474,368.005 437.142,342.986 427.876,336.25 	"/>
	<polygon id="r2112" fill="#939598" stroke="#494949" stroke-width="0.5" stroke-miterlimit="10" points="409.588,374.803 
		406.876,374.803 406.876,395.136 410.751,395.136 419.905,384.393 408.876,375.625 	"/>
	<path id="r2109" fill="#939598" stroke="#494949" stroke-width="0.5" stroke-miterlimit="10" d="M448.501,328
		c0,0-8.142-3.473-22.375-6.434V333.5l1.75,2.75l9.268,6.736l11.357-13.111V328z"/>
	<polygon id="r2117" fill="#939598" stroke="#494949" stroke-width="0.5" stroke-miterlimit="10" points="357.126,376 
		345.778,385.048 354.917,395.136 359.001,395.136 359.001,374.803 356.098,374.803 	"/>
	<polygon id="r2111-2118" fill="#939598" stroke="#494949" stroke-width="0.5" stroke-miterlimit="10" points="410.904,364.125 
		390.748,364.125 356.001,364.125 352.42,358.184 345.946,362.964 356.098,374.803 359.001,374.803 359.001,374.75 375.626,374.75 
		375.626,395.136 390.501,395.136 390.501,374.75 406.876,374.75 406.876,374.803 409.588,374.803 415.474,368.005 	"/>
	<polygon id="r2116" fill="#939598" stroke="#494949" stroke-width="0.5" stroke-miterlimit="10" points="359.001,395.136 
		354.917,395.136 345.778,385.048 337.376,391.75 357.974,415.205 359.001,414.343 	"/>
	<polygon id="r2113" fill="#939598" stroke="#494949" stroke-width="0.5" stroke-miterlimit="10" points="419.905,384.393 
		410.751,395.136 406.876,395.136 406.876,414.273 407.823,415.367 428.376,391.125 	"/>
	<polygon id="r2115" fill="#939598" stroke="#494949" stroke-width="0.5" stroke-miterlimit="10" points="375.626,395.136 
		375.626,414.375 359.001,414.375 359.001,414.343 357.974,415.205 367.126,425.625 382.943,425.625 382.943,395.136 	"/>
	<polygon id="r2114" fill="#939598" stroke="#494949" stroke-width="0.5" stroke-miterlimit="10" points="407.823,415.367 
		406.876,414.273 406.876,414.375 390.501,414.375 390.501,395.136 382.943,395.136 382.943,425.625 399.126,425.625 	"/>
	
		<rect id="r2405" x="554.215" y="248.807" fill="#939598" stroke="#494949" stroke-width="0.5" stroke-miterlimit="10" width="13.909" height="18"/>
	<polygon id="r2402-2403" fill="#939598" stroke="#494949" stroke-width="0.5" stroke-miterlimit="10" points="382.001,288.47 
		342.501,288.47 342.501,303 382.001,303 424.001,303 424.001,288.47 	"/>
</g>
<g id="signs">
	<rect id="parking" x="651.177" y="303" opacity="0.8" enable-background="new    " width="14.813" height="14.813"/>
	
		<rect id="handicapped-parking" x="651.177" y="279.929" opacity="0.8" enable-background="new    " width="14.813" height="14.813"/>
	<g id="escalator">
		<rect x="203.47" y="354.102" opacity="0.8" enable-background="new    " width="14.811" height="14.812"/>
		<rect x="545.15" y="284.095" opacity="0.8" enable-background="new    " width="14.812" height="14.813"/>
		<rect x="545.15" y="230.845" opacity="0.8" enable-background="new    " width="14.812" height="14.813"/>
	</g>
	<g id="entrance">
		<rect x="612.845" y="447.435" opacity="0.8" enable-background="new    " width="14.811" height="14.813"/>
		<rect x="612.845" y="213.845" opacity="0.8" enable-background="new    " width="14.811" height="14.813"/>
	</g>
	<rect id="lift" x="601.595" y="168.47" opacity="0.8" enable-background="new    " width="14.811" height="14.813"/>
	<g id="handicapped-toilet">
		<rect x="252.357" y="449.5" opacity="0.8" enable-background="new    " width="14.811" height="14.811"/>
		<rect x="543.845" y="153.659" opacity="0.8" enable-background="new    " width="14.811" height="14.811"/>
	</g>
	<g id="toilet">
		<rect x="233.112" y="449.931" opacity="0.8" enable-background="new    " width="14.811" height="14.813"/>
		<rect x="524.939" y="153.659" opacity="0.8" enable-background="new    " width="14.812" height="14.811"/>
	</g>
	<g id="fire-exit">
		<rect x="286.625" y="376.986" opacity="0.8" enable-background="new    " width="14.812" height="14.813"/>
		<rect x="184.603" y="463.22" opacity="0.8" enable-background="new    " width="14.811" height="14.813"/>
		<rect x="514.376" y="127.167" opacity="0.8" enable-background="new    " width="14.811" height="14.811"/>
		<rect x="357.866" y="127.167" opacity="0.8" enable-background="new    " width="14.812" height="14.811"/>
		<rect x="468.302" y="365.932" opacity="0.8" enable-background="new    " width="14.813" height="14.812"/>
	</g>
</g>
</svg>
