<?xml version="1.0" encoding="utf-8"?>
<!-- Generator: Adobe Illustrator 16.0.0, SVG Export Plug-In . SVG Version: 6.00 Build 0)  -->
<!DOCTYPE svg PUBLIC "-//W3C//DTD SVG 1.1//EN" "http://www.w3.org/Graphics/SVG/1.1/DTD/svg11.dtd">
<svg version="1.1" id="Layer_1" xmlns="http://www.w3.org/2000/svg" xmlns:xlink="http://www.w3.org/1999/xlink" x="0px" y="0px"
	 width="1000px" height="1000px" viewBox="0 0 1000 1000" enable-background="new 0 0 1000 1000" xml:space="preserve">
<g id="background">
	<rect y="146.455" fill="#FFFFFF" width="1000" height="707.091"/>
</g>
<g id="etc">
	<path fill="#DEDEDE" stroke="#494949" stroke-width="0.5" stroke-miterlimit="10" d="M363.107,286.614l-31.714-64.972
		l-87.541,16.629c0,0-7.483,67.704-35.633,152.394c-28.151,84.689-112.84,166.29-112.84,166.29l22.212,34.803
		c-28.863,11.878-48.7,35.99-48.7,63.784c0,39.554,39.91,71.624,89.084,71.624l655.303,1.663V286.614H363.107z"/>
	<path fill="#DEDEDE" stroke="#494949" stroke-width="0.5" stroke-miterlimit="10" d="M343.984,294.69l-9.621-18.173
		c0,0-12.234-18.767-33.853-19.955c-12.472-0.713-26.725,2.851-36.703,15.085c-7.246,8.908-12.234,22.212-12.828,41.929
		l-6.533,0.356l-10.928,46.086l9.502,4.989c79.344,30.289,73.167,88.965,63.546,125.787c-9.978,38.246-72.692,86.708-72.692,86.708
		c-52.382-5.345-102.863,17.817-102.863,17.817l-1.544-2.851l0.832,7.839c-3.207,1.426-6.295,2.851-9.384,4.514
		c-4.514,2.376-8.671,4.989-12.709,7.84c-2.138,1.544-4.157,3.088-6.058,4.751s-3.682,3.207-5.226,4.87
		c-7.721,7.602-12.591,14.609-15.441,21.143c-7.721,17.46-0.832,30.288,1.188,36.346c1.782,5.227,7.721,15.085,17.698,22.688
		l7.246,4.632c5.701,2.97,12.472,5.107,20.074,5.583c2.969,0.119,6.058,0.356,9.265,0.356c10.809,0.356,22.806,0.356,33.139,0.237
		c6.414-0.119,12.116-0.237,16.629-0.356c6.058-0.118,9.74-0.356,9.74-0.356v-1.188l10.215,6.651h546.383V294.69H343.984
		L343.984,294.69z"/>
	
		<ellipse fill="#DEDEDE" stroke="#494949" stroke-width="0.5" stroke-miterlimit="10" cx="612.424" cy="456.705" rx="45.018" ry="67.941"/>
	<path fill="#DEDEDE" stroke="#494949" stroke-width="0.5" stroke-miterlimit="10" d="M535.337,442.333L535.337,442.333
		c-0.476-1.782-0.95-3.326-1.663-4.989c-0.119-0.356-0.237-0.594-0.356-0.95c0-0.118-0.118-0.118-0.118-0.237
		c-0.476-1.188-1.069-2.376-1.545-3.444c-0.118-0.119-0.118-0.356-0.237-0.476c-4.395-8.195-10.928-14.491-18.886-17.698
		c-3.801-1.544-7.84-2.494-12.115-2.494l0,0h-31.239H367.265c-16.154,0-29.933,12.353-34.684,29.576l0,0l0,0
		c-0.237,1.069-0.594,2.138-0.713,3.207c0,0,0,0,0,0.119c-0.237,1.068-0.356,2.138-0.594,3.207v0.118
		c-0.119,1.069-0.237,2.02-0.356,3.089c0,0.237,0,0.356,0,0.594c-0.118,1.068-0.118,2.138-0.118,3.088l0,0l0,0v4.989l0,0
		c0,23.756,16.391,42.879,36.583,42.879l0,0h31.121h101.912c16.153,0,29.932-12.354,34.684-29.576l0,0l0,0
		c0.237-1.068,0.594-2.138,0.712-3.207c0,0,0,0,0-0.118c0.238-1.069,0.356-2.139,0.595-3.207v-0.119
		c0.118-1.069,0.237-2.02,0.355-3.089c0-0.237,0-0.355,0-0.594c0.119-1.068,0.119-2.138,0.119-3.088l0,0l0,0v-4.988l0,0
		C536.881,450.647,536.406,446.371,535.337,442.333z"/>
	
		<rect x="203.35" y="664.568" fill="#DEDEDE" stroke="#494949" stroke-width="0.5" stroke-miterlimit="10" width="36.346" height="28.507"/>
	
		<rect x="699.965" y="321.06" fill="#DEDEDE" stroke="#494949" stroke-width="0.5" stroke-miterlimit="10" width="40.622" height="72.455"/>
	
		<rect x="610.999" y="321.06" fill="#DEDEDE" stroke="#494949" stroke-width="0.5" stroke-miterlimit="10" width="66.278" height="42.998"/>
	
		<rect x="610.999" y="318.446" fill="#DEDEDE" stroke="#494949" stroke-width="0.5" stroke-miterlimit="10" width="130.775" height="1.425"/>
	
		<rect x="356.218" y="296.591" fill="#DEDEDE" stroke="#494949" stroke-width="0.5" stroke-miterlimit="10" width="62.953" height="26.844"/>
	
		<rect x="256.325" y="666.469" fill="#DEDEDE" stroke="#494949" stroke-width="0.5" stroke-miterlimit="10" width="82.551" height="46.562"/>
	<rect x="450.054" y="523.696" fill="#DEDEDE" stroke="#494949" stroke-miterlimit="10" width="9.621" height="1.782"/>
	<polyline fill="#DEDEDE" stroke="#494949" stroke-width="0.5" stroke-miterlimit="10" points="443.877,701.509 454.092,704.716 
		465.732,700.914 	"/>
	<path fill="#DEDEDE" stroke="#494949" stroke-width="0.5" stroke-miterlimit="10" d="M131.013,595.438
		c0,0,50.6-23.28,102.863-17.816c0,0,62.715-48.343,72.692-86.709c9.978-38.246,16.272-100.012-72.93-129.231
		c0,0-39.197,129.825-121.154,198.836L131.013,595.438z"/>
	<path fill="#DEDEDE" stroke="#494949" stroke-width="0.5" stroke-miterlimit="10" d="M85.877,645.683l-4.395-2.376
		c-7.721,17.461-0.832,30.289,1.188,36.347c1.782,5.226,7.721,15.085,17.698,22.687l5.583-8.671L85.877,645.683z"/>
</g>
<g id="Rooms">
	<polygon id="r2056" fill="#939598" stroke="#494949" stroke-width="0.5" stroke-miterlimit="10" points="453.735,394.465 
		569.545,394.465 569.545,341.608 586.174,341.608 586.174,301.461 565.981,297.541 538.425,300.867 506.948,297.541 
		476.541,301.817 453.735,298.848 	"/>
	<polygon id="r2054" fill="#939598" stroke="#494949" stroke-width="0.5" stroke-miterlimit="10" points="401.235,330.799 
		401.235,325.573 366.077,325.573 366.077,394.465 401.592,394.465 401.592,330.799 	"/>
	
		<rect id="r2055" x="401.592" y="330.799" fill="#939598" stroke="#494949" stroke-width="0.5" stroke-miterlimit="10" width="40.741" height="63.784"/>
	<polygon id="r2063-2065" fill="#939598" stroke="#494949" stroke-width="0.5" stroke-miterlimit="10" points="589.144,355.387 
		607.673,355.387 607.673,366.195 677.159,366.195 677.159,382.112 663.381,393.515 644.376,377.836 594.607,377.836 
		589.144,367.502 	"/>
	<path id="r2048" fill="#939598" stroke="#494949" stroke-width="0.5" stroke-miterlimit="10" d="M146.336,622.045l-11.759-23.518
		c-4.632,1.9-9.265,4.038-13.66,6.295l10.928,22.925L146.336,622.045z"/>
	<path id="r2047" fill="#939598" stroke="#494949" stroke-width="0.5" stroke-miterlimit="10" d="M131.845,627.628l-10.928-22.924
		c-4.514,2.375-8.671,4.988-12.709,7.839l9.978,20.43L131.845,627.628z"/>
	<path id="r2046" fill="#939598" stroke="#494949" stroke-width="0.5" stroke-miterlimit="10" d="M118.185,633.092l-9.978-20.43
		c-2.138,1.544-4.157,3.088-6.058,4.751s-3.682,3.207-5.226,4.87l7.721,16.153L118.185,633.092z"/>
	<path id="r2052" fill="#939598" stroke="#494949" stroke-width="0.5" stroke-miterlimit="10" d="M206.2,598.527l4.157-9.503
		l-3.444-6.771c0,0-13.185,0.832-31.001,4.396l9.978,19.955L206.2,598.527z"/>
	<path id="r2045" fill="#939598" stroke="#494949" stroke-width="0.5" stroke-miterlimit="10" d="M104.645,638.318l-7.721-16.154
		c-7.721,7.602-12.591,14.609-15.441,21.143l4.395,2.376L104.645,638.318z"/>
	<path id="r2049" fill="#939598" stroke="#494949" stroke-width="0.5" stroke-miterlimit="10" d="M159.995,616.7l-11.521-23.162
		c-4.632,1.426-9.265,3.089-13.897,4.989l11.759,23.518L159.995,616.7z"/>
	<path id="r2050" fill="#939598" stroke="#494949" stroke-width="0.5" stroke-miterlimit="10" d="M148.474,593.538l11.521,23.162
		l12.947-5.107l-10.69-21.974C157.738,590.807,153.106,591.994,148.474,593.538z"/>
	<path id="r2051" fill="#939598" stroke="#494949" stroke-width="0.5" stroke-miterlimit="10" d="M175.793,586.53
		c-4.276,0.832-8.909,1.9-13.66,3.089l10.69,21.974l12.828-4.988L175.793,586.53z"/>
	<path id="r2043" fill="#939598" stroke="#494949" stroke-width="0.5" stroke-miterlimit="10" d="M127.806,691.888l9.502,21.143
		c4.751,0.118,9.858,0.237,14.847,0.237l-10.571-26.844L127.806,691.888z"/>
	<path id="r2042" fill="#939598" stroke="#494949" stroke-width="0.5" stroke-miterlimit="10" d="M170.329,713.268l-15.085-32.427
		l-13.778,5.583l10.571,26.844C158.333,713.387,164.627,713.387,170.329,713.268z"/>
	<path id="r2040" fill="#939598" stroke="#494949" stroke-width="0.5" stroke-miterlimit="10" d="M184.226,669.2l-14.847,5.939
		l17.579,37.771c6.058-0.118,9.74-0.356,9.74-0.356v-22.093h4.751v-0.237h-7.483L184.226,669.2z"/>
	<polygon id="r2039" fill="#939598" stroke="#494949" stroke-width="0.5" stroke-miterlimit="10" points="193.966,690.225 
		201.568,690.225 201.093,662.43 184.226,669.2 	"/>
	<polygon id="r2038" fill="#939598" stroke="#494949" stroke-width="0.5" stroke-miterlimit="10" points="239.696,646.87 
		239.696,646.87 203.231,661.599 239.696,661.48 	"/>
	<path id="r2041" fill="#939598" stroke="#494949" stroke-width="0.5" stroke-miterlimit="10" d="M155.244,680.841l15.085,32.427
		c6.414-0.119,12.115-0.237,16.629-0.356l-17.579-37.771L155.244,680.841z"/>
	<path id="r2044" fill="#939598" stroke="#494949" stroke-width="0.5" stroke-miterlimit="10" d="M113.196,697.826l-5.464,9.265
		c5.702,2.97,12.472,5.107,20.074,5.583c2.969,0.119,6.058,0.356,9.265,0.356l-9.502-21.143L113.196,697.826z"/>
	<polygon id="r2143-2150" fill="#939598" stroke="#494949" stroke-width="0.5" stroke-miterlimit="10" points="155.244,649.008 
		155.244,649.008 160.589,660.886 174.843,655.422 163.796,632.261 150.137,637.725 	"/>
	<polygon id="r2146-2147" fill="#939598" stroke="#494949" stroke-width="0.5" stroke-miterlimit="10" points="126.143,661.005 
		126.143,661.005 121.154,649.364 108.208,654.591 118.185,677.159 131.013,672.17 	"/>
	<polygon id="r2144-2149" fill="#939598" stroke="#494949" stroke-width="0.5" stroke-miterlimit="10" points="155.244,649.008 
		150.137,637.725 135.646,643.544 140.872,654.947 146.098,666.469 160.589,660.886 	"/>
	<polygon id="r2145-2148" fill="#939598" stroke="#494949" stroke-width="0.5" stroke-miterlimit="10" points="140.872,654.947 
		135.646,643.544 121.154,649.364 126.143,661.005 131.013,672.17 146.098,666.469 	"/>
	<polygon id="r2151" fill="#939598" stroke="#494949" stroke-width="0.5" stroke-miterlimit="10" points="180.425,625.965 
		186.126,637.486 197.767,632.854 192.541,621.095 	"/>
	<polygon id="r2152-2153" fill="#939598" stroke="#494949" stroke-width="0.5" stroke-miterlimit="10" points="221.76,609.217 
		193.491,620.62 192.541,621.095 197.767,632.854 228.056,620.738 	"/>
	<polygon id="r2140-2141-2142" fill="#939598" stroke="#494949" stroke-width="0.5" stroke-miterlimit="10" points="
		233.876,631.311 228.056,620.738 186.126,637.486 191.472,648.296 	"/>
	<polygon id="r2037" fill="#939598" stroke="#494949" stroke-width="0.5" stroke-miterlimit="10" points="250.505,627.628 
		250.505,645.563 254.781,645.563 254.781,663.143 266.065,663.143 266.065,632.854 	"/>
	<polygon id="r2006" fill="#939598" stroke="#494949" stroke-width="0.5" stroke-miterlimit="10" points="736.786,487.706 
		702.934,487.706 705.903,501.366 705.903,502.91 736.786,502.91 	"/>
	
		<rect id="r2007" x="705.903" y="502.91" fill="#939598" stroke="#494949" stroke-width="0.5" stroke-miterlimit="10" width="30.883" height="14.848"/>
	
		<rect id="r2009" x="705.903" y="532.724" fill="#939598" stroke="#494949" stroke-width="0.5" stroke-miterlimit="10" width="30.883" height="15.204"/>
	
		<rect id="r2008" x="705.903" y="517.876" fill="#939598" stroke="#494949" stroke-width="0.5" stroke-miterlimit="10" width="30.883" height="14.848"/>
	<polygon id="r2004" fill="#939598" stroke="#494949" stroke-width="0.5" stroke-miterlimit="10" points="736.786,457.418 
		696.282,457.418 700.202,475.234 736.786,475.234 	"/>
	<polygon id="r2001-2002-2003" fill="#939598" stroke="#494949" stroke-width="0.5" stroke-miterlimit="10" points="736.786,438.65 
		726.809,429.386 714.218,429.386 714.218,411.569 697.707,411.569 688.324,420.596 696.282,457.418 736.786,457.418 	"/>
	<polygon id="r2016" fill="#939598" stroke="#494949" stroke-width="0.5" stroke-miterlimit="10" points="705.903,658.272 
		715.168,666.943 736.786,666.943 736.786,649.127 705.903,649.127 	"/>
	
		<rect id="r2014" x="705.903" y="611.593" fill="#939598" stroke="#494949" stroke-width="0.5" stroke-miterlimit="10" width="30.883" height="18.411"/>
	
		<rect id="r2010" x="705.903" y="547.809" fill="#939598" stroke="#494949" stroke-width="0.5" stroke-miterlimit="10" width="30.883" height="14.966"/>
	
		<rect id="r2013" x="705.903" y="592.944" fill="#939598" stroke="#494949" stroke-width="0.5" stroke-miterlimit="10" width="30.883" height="18.648"/>
	
		<rect id="r2015" x="705.903" y="630.004" fill="#939598" stroke="#494949" stroke-width="0.5" stroke-miterlimit="10" width="30.883" height="19.123"/>
	<polygon id="r2011-2012" fill="#939598" stroke="#494949" stroke-width="0.5" stroke-miterlimit="10" points="705.903,562.774 
		705.903,577.859 705.903,592.944 736.786,592.944 736.786,577.859 736.786,562.774 	"/>
	<polygon id="r2087" fill="#939598" stroke="#494949" stroke-width="0.5" stroke-miterlimit="10" points="644.494,621.57 
		634.518,612.78 612.662,632.616 623.59,642.119 645.326,622.283 	"/>
	<polygon id="r2088" fill="#939598" stroke="#494949" stroke-width="0.5" stroke-miterlimit="10" points="645.326,622.283 
		623.59,642.119 626.203,644.494 626.203,649.127 642.95,649.127 642.95,642.832 655.66,631.429 	"/>
	<polygon id="r2086" fill="#939598" stroke="#494949" stroke-width="0.5" stroke-miterlimit="10" points="633.805,612.187 
		621.689,601.497 600.665,621.927 607.316,627.865 612.662,632.616 634.518,612.78 	"/>
	<polygon id="r2096" fill="#939598" stroke="#494949" stroke-width="0.5" stroke-miterlimit="10" points="588.55,611.83 
		588.55,611.83 575.484,600.902 560.399,626.678 572.752,637.486 591.994,614.681 	"/>
	<polygon id="r2095" fill="#939598" stroke="#494949" stroke-width="0.5" stroke-miterlimit="10" points="600.665,621.927 
		600.665,621.927 591.994,614.681 572.752,637.486 573.108,637.843 586.293,649.364 607.316,627.865 	"/>
	<polygon id="r2084" fill="#939598" stroke="#494949" stroke-width="0.5" stroke-miterlimit="10" points="593.42,576.553 
		584.512,585.343 575.484,600.902 588.55,611.83 607.91,589.263 	"/>
	<polygon id="r2085" fill="#939598" stroke="#494949" stroke-width="0.5" stroke-miterlimit="10" points="621.689,601.497 
		609.455,590.688 607.91,589.263 588.55,611.83 591.994,614.681 591.994,614.681 600.665,621.927 	"/>
	<path id="r2053a-2053b" fill="#939598" stroke="#494949" stroke-width="0.5" stroke-miterlimit="10" d="M263.808,271.529
		c-7.246,8.908-12.234,22.211-12.828,41.929l-6.533,0.356L233.52,359.9l49.531,26.369l31.833-25.538l-12.709-35.277L263.808,271.529
		z"/>
	<path id="r2053c" fill="#939598" stroke="#494949" stroke-width="0.5" stroke-miterlimit="10" d="M353.605,341.608v-28.863
		l-19.242-36.228c0,0-12.234-18.767-33.853-19.955c-12.472-0.713-26.725,2.851-36.703,15.085l38.484,54.044l12.71,35.277l0.95-0.832
		L353.605,341.608z"/>
	<polygon id="r2123-2124-2125" fill="#939598" stroke="#494949" stroke-width="0.5" stroke-miterlimit="10" points="
		391.971,604.348 405.512,593.657 365.127,546.858 351.586,556.717 	"/>
	<polygon id="r2031" fill="#939598" stroke="#494949" stroke-width="0.5" stroke-miterlimit="10" points="408.362,680.841 
		396.246,676.803 396.246,703.172 403.849,705.428 415.488,701.627 415.488,680.841 	"/>
	<polygon id="r2030" fill="#939598" stroke="#494949" stroke-width="0.5" stroke-miterlimit="10" points="415.488,680.841 
		415.488,701.627 430.455,696.876 442.808,701.627 432.118,680.841 	"/>
	<polygon id="r2028" fill="#939598" stroke="#494949" stroke-width="0.5" stroke-miterlimit="10" points="496.615,680.841 
		496.853,701.509 505.998,704.716 513.481,702.34 513.481,680.841 	"/>
	<polygon id="r2029" fill="#939598" stroke="#494949" stroke-width="0.5" stroke-miterlimit="10" points="476.778,680.841 
		466.801,701.39 480.342,695.807 496.853,701.509 496.615,680.841 	"/>
	<polygon id="r2032" fill="#939598" stroke="#494949" stroke-width="0.5" stroke-miterlimit="10" points="377.004,670.27 
		377.004,675.259 377.004,676.09 377.004,697.352 396.246,703.172 396.246,676.803 	"/>
	<polygon id="r2034" fill="#939598" stroke="#494949" stroke-width="0.5" stroke-miterlimit="10" points="300.035,644.376 
		300.035,663.143 342.678,663.143 342.678,658.748 	"/>
	<polygon id="r2036" fill="#939598" stroke="#494949" stroke-width="0.5" stroke-miterlimit="10" points="266.065,632.854 
		266.065,663.143 280.675,663.143 280.675,637.843 	"/>
	<polygon id="r2035" fill="#939598" stroke="#494949" stroke-width="0.5" stroke-miterlimit="10" points="280.675,637.843 
		280.675,663.143 300.035,663.143 300.035,644.376 	"/>
	<polygon id="r2033" fill="#939598" stroke="#494949" stroke-width="0.5" stroke-miterlimit="10" points="342.678,658.748 
		342.678,663.143 342.678,664.212 342.678,675.259 377.004,675.259 377.004,670.27 	"/>
	<path id="r2021" fill="#939598" stroke="#494949" stroke-width="0.5" stroke-miterlimit="10" d="M620.977,680.841v23.28
		c5.227,1.782,10.928,3.563,17.104,5.108v-28.389H620.977L620.977,680.841z"/>
	<path id="r2019" fill="#939598" stroke="#494949" stroke-width="0.5" stroke-miterlimit="10" d="M654.947,680.841v32.07
		c5.345,0.95,10.928,1.663,16.748,2.257v-34.327H654.947L654.947,680.841z"/>
	<path id="r2020" fill="#939598" stroke="#494949" stroke-width="0.5" stroke-miterlimit="10" d="M638.199,680.841v28.389
		c5.227,1.306,10.928,2.612,16.867,3.682v-32.07H638.199L638.199,680.841z"/>
	<path id="r2017" fill="#939598" stroke="#494949" stroke-width="0.5" stroke-miterlimit="10" d="M690.462,680.841v35.396
		c3.207,0,6.533,0,9.858-0.119v-21.262h9.978v-14.134h-19.836V680.841z"/>
	<polygon id="r2027" fill="#939598" stroke="#494949" stroke-width="0.5" stroke-miterlimit="10" points="513.481,680.841 
		513.481,702.34 530.467,696.876 530.704,696.876 530.704,680.841 	"/>
	<path id="r2018" fill="#939598" stroke="#494949" stroke-width="0.5" stroke-miterlimit="10" d="M671.695,680.841v34.327
		c6.058,0.594,12.234,0.95,18.767,1.069v-35.396H671.695z"/>
	<polygon id="r2026" fill="#939598" stroke="#494949" stroke-width="0.5" stroke-miterlimit="10" points="530.704,680.841 
		530.704,696.876 549.353,703.053 549.353,680.841 	"/>
	<path id="r2022" fill="#939598" stroke="#494949" stroke-width="0.5" stroke-miterlimit="10" d="M604.229,680.841v16.748
		c4.751,2.138,10.334,4.395,16.748,6.651v-23.28L604.229,680.841L604.229,680.841z"/>
	<polygon id="r2025" fill="#939598" stroke="#494949" stroke-width="0.5" stroke-miterlimit="10" points="549.353,680.841 
		549.353,703.053 555.886,705.19 565.031,702.221 565.031,680.841 	"/>
	<path id="r2023" fill="#939598" stroke="#494949" stroke-width="0.5" stroke-miterlimit="10" d="M580.948,680.841v15.917
		l4.869-8.79c0,0,6.533,4.276,18.411,9.621v-16.748H580.948z"/>
	<polygon id="r2024" fill="#939598" stroke="#494949" stroke-width="0.5" stroke-miterlimit="10" points="565.031,680.841 
		565.031,702.221 580.829,696.995 580.948,696.758 580.948,680.841 	"/>
	<polygon id="r2404" fill="#939598" stroke="#494949" stroke-width="0.5" stroke-miterlimit="10" points="445.421,670.863 
		455.279,665.281 465.02,670.863 465.02,682.147 455.279,687.73 445.421,682.147 	"/>
	<polygon id="r2067" fill="#939598" stroke="#494949" stroke-width="0.5" stroke-miterlimit="10" points="674.309,540.207 
		674.664,558.023 685.354,558.023 685.354,540.207 	"/>
	<polygon id="r2069-2070" fill="#939598" stroke="#494949" stroke-width="0.5" stroke-miterlimit="10" points="674.309,540.207 
		664.568,540.207 662.312,531.061 641.169,535.337 641.169,539.375 669.201,563.013 674.664,558.023 	"/>
	<polygon id="r2066" fill="#939598" stroke="#494949" stroke-width="0.5" stroke-miterlimit="10" points="674.309,540.207 
		685.354,540.207 685.354,529.397 682.147,527.141 662.312,531.061 664.568,540.207 	"/>
	<polygon id="r2068" fill="#939598" stroke="#494949" stroke-width="0.5" stroke-miterlimit="10" points="669.201,563.013 
		683.335,575.009 685.354,572.633 685.354,558.023 674.664,558.023 	"/>
	<polygon id="r2073" fill="#939598" stroke="#494949" stroke-width="0.5" stroke-miterlimit="10" points="644.613,581.542 
		653.76,572.277 640.1,560.161 630.835,569.427 	"/>
	<polygon id="r2072" fill="#939598" stroke="#494949" stroke-width="0.5" stroke-miterlimit="10" points="630.835,569.427 
		640.1,560.161 626.559,548.283 617.294,557.43 	"/>
	<polygon id="r2076" fill="#939598" stroke="#494949" stroke-width="0.5" stroke-miterlimit="10" points="668.606,605.416 
		678.465,614.206 684.523,614.206 684.523,599.121 679.534,594.845 670.15,603.991 	"/>
	<polygon id="r2080" fill="#939598" stroke="#494949" stroke-width="0.5" stroke-miterlimit="10" points="630.835,569.427 
		621.333,579.048 635.111,591.044 644.613,581.542 	"/>
	<polygon id="r2077" fill="#939598" stroke="#494949" stroke-width="0.5" stroke-miterlimit="10" points="678.465,614.206 
		668.606,605.416 660.648,613.375 681.197,631.191 684.523,627.628 684.523,614.206 	"/>
	<polygon id="r2071-2082" fill="#939598" stroke="#494949" stroke-width="0.5" stroke-miterlimit="10" points="620.383,542.938 
		607.316,548.64 595.677,553.747 595.677,556.717 607.555,567.051 617.294,557.43 626.559,548.283 	"/>
	<polygon id="r2075-2078" fill="#939598" stroke="#494949" stroke-width="0.5" stroke-miterlimit="10" points="668.013,584.749 
		658.629,593.895 649.008,603.159 660.648,613.375 668.606,605.416 670.15,603.991 679.534,594.845 	"/>
	<polygon id="r2074-2079" fill="#939598" stroke="#494949" stroke-width="0.5" stroke-miterlimit="10" points="653.76,572.277 
		644.613,581.542 635.111,591.044 649.008,603.159 658.629,593.895 668.013,584.749 	"/>
	<polygon id="r2081" fill="#939598" stroke="#494949" stroke-width="0.5" stroke-miterlimit="10" points="617.294,557.43 
		607.555,567.051 621.333,579.048 630.835,569.427 	"/>
	<polygon id="r2097" fill="#939598" stroke="#494949" stroke-width="0.5" stroke-miterlimit="10" points="564.438,573.346 
		564.2,573.465 536.05,605.179 548.046,615.75 571.921,579.522 	"/>
	<polygon id="r2083" fill="#939598" stroke="#494949" stroke-width="0.5" stroke-miterlimit="10" points="584.512,585.343 
		593.42,576.553 578.81,563.606 564.438,573.346 571.921,579.522 	"/>
	<polygon id="r2090-2091" fill="#939598" stroke="#494949" stroke-width="0.5" stroke-miterlimit="10" points="667.775,642.119 
		660.648,649.127 642.95,649.127 642.95,663.024 660.648,663.024 660.648,663.024 678.584,663.024 684.523,656.729 	"/>
	<polygon id="r2089" fill="#939598" stroke="#494949" stroke-width="0.5" stroke-miterlimit="10" points="655.66,631.429 
		642.95,642.832 642.95,649.127 660.648,649.127 667.775,642.119 	"/>
	
		<rect id="r2092" x="626.203" y="649.127" fill="#939598" stroke="#494949" stroke-width="0.5" stroke-miterlimit="10" width="16.866" height="13.897"/>
	<polygon id="r2093" fill="#939598" stroke="#494949" stroke-width="0.5" stroke-miterlimit="10" points="620.977,639.862 
		609.217,649.364 609.217,663.024 626.203,663.024 626.203,649.127 626.203,644.494 	"/>
	<polygon id="r2094" fill="#939598" stroke="#494949" stroke-width="0.5" stroke-miterlimit="10" points="620.977,639.862 
		607.316,627.865 586.293,649.364 601.734,663.024 609.217,663.024 609.217,649.364 	"/>
	<polygon id="r2104" fill="#939598" stroke="#494949" stroke-width="0.5" stroke-miterlimit="10" points="556.836,556.717 
		544.958,546.858 532.843,560.518 544.839,570.139 	"/>
	<polygon id="r2106" fill="#939598" stroke="#494949" stroke-width="0.5" stroke-miterlimit="10" points="506.117,590.807 
		518.47,600.19 531.18,585.699 519.42,575.841 	"/>
	<polygon id="r2105" fill="#939598" stroke="#494949" stroke-width="0.5" stroke-miterlimit="10" points="532.843,560.518 
		519.42,575.841 531.18,585.699 544.839,570.139 	"/>
	<polygon id="r2098" fill="#939598" stroke="#494949" stroke-width="0.5" stroke-miterlimit="10" points="539.731,630.835 
		527.973,620.62 522.509,620.62 513.362,631.191 529.16,642.713 	"/>
	<polygon id="r2099" fill="#939598" stroke="#494949" stroke-width="0.5" stroke-miterlimit="10" points="544.602,653.878 
		553.391,642.713 539.731,630.835 529.16,642.713 	"/>
	<polygon id="r2102-2103" fill="#939598" stroke="#494949" stroke-width="0.5" stroke-miterlimit="10" points="513.362,631.191 
		501.129,645.326 489.845,658.392 494.477,663.024 516.926,663.024 516.926,656.254 529.16,642.713 	"/>
	<polygon id="r2100" fill="#939598" stroke="#494949" stroke-width="0.5" stroke-miterlimit="10" points="574.178,660.648 
		553.391,642.713 544.602,653.878 544.602,663.024 571.921,663.024 	"/>
	<polygon id="r2101" fill="#939598" stroke="#494949" stroke-width="0.5" stroke-miterlimit="10" points="529.16,642.713 
		516.926,656.254 516.926,663.024 544.602,663.024 544.602,653.878 	"/>
	<path id="r2138" fill="#939598" stroke="#494949" stroke-width="0.5" stroke-miterlimit="10" d="M305.381,595.438L305.381,595.438
		l13.185,11.166l13.065-8.315l-7.364-12.115l-4.038,2.376l-11.76-15.204c-4.751,3.683-9.739,7.959-14.847,12.354L305.381,595.438
		L305.381,595.438z"/>
	<path id="r2137" fill="#939598" stroke="#494949" stroke-width="0.5" stroke-miterlimit="10" d="M305.381,595.438l-11.641-9.858
		c-4.276,3.683-8.433,7.602-12.472,11.641l17.342,15.798L305.381,595.438z"/>
	<path id="r2126" fill="#939598" stroke="#494949" stroke-width="0.5" stroke-miterlimit="10" d="M345.172,573.228l-14.372-16.63
		c0,0-4.514,3.089-11.166,8.077l11.997,16.748l8.908-5.345L345.172,573.228z"/>
	<path id="r2139" fill="#939598" stroke="#494949" stroke-width="0.5" stroke-miterlimit="10" d="M308.588,573.228l11.759,15.203
		l4.038-2.375l7.365-4.514l-11.997-16.748C316.309,567.17,312.626,570.021,308.588,573.228z"/>
	<polygon id="r2127" fill="#939598" stroke="#494949" stroke-width="0.5" stroke-miterlimit="10" points="356.812,604.229 
		365.839,597.221 345.172,573.228 340.421,576.196 	"/>
	<polygon id="r2128" fill="#939598" stroke="#494949" stroke-width="0.5" stroke-miterlimit="10" points="379.617,613.137 
		365.839,597.221 356.812,604.229 361.444,612.306 353.486,615.513 350.873,622.164 367.978,627.628 379.855,613.375 	"/>
	<polygon id="r2129" fill="#939598" stroke="#494949" stroke-width="0.5" stroke-miterlimit="10" points="395.415,631.429 
		379.855,613.375 367.978,627.628 393.515,635.942 	"/>
	<polygon id="r2135" fill="#939598" stroke="#494949" stroke-width="0.5" stroke-miterlimit="10" points="305.381,595.438 
		298.729,613.019 298.729,613.019 298.729,613.019 294.453,623.946 310.845,629.291 318.565,606.485 	"/>
	<polygon id="r2133" fill="#939598" stroke="#494949" stroke-width="0.5" stroke-miterlimit="10" points="350.873,622.164 
		343.865,639.981 366.434,647.227 373.085,629.291 	"/>
	<polygon id="r2132" fill="#939598" stroke="#494949" stroke-width="0.5" stroke-miterlimit="10" points="373.085,629.291 
		366.434,647.227 385.913,653.521 393.515,635.942 	"/>
	<polygon id="r2130-2131" fill="#939598" stroke="#494949" stroke-width="0.5" stroke-miterlimit="10" points="419.171,658.867 
		395.415,631.429 393.515,635.942 393.515,635.942 393.515,635.942 385.913,653.521 415.133,663.024 	"/>
	<path id="r2136" fill="#939598" stroke="#494949" stroke-width="0.5" stroke-miterlimit="10" d="M281.387,597.221
		c-4.751,4.751-9.027,9.502-12.59,14.253v4.157l25.775,8.315l4.158-10.928L281.387,597.221z"/>
	<polygon id="r2134" fill="#939598" stroke="#494949" stroke-width="0.5" stroke-miterlimit="10" points="331.631,598.171 
		318.565,606.485 310.845,629.291 329.73,635.349 340.421,612.662 	"/>
	<path id="r2122" fill="#939598" stroke="#494949" stroke-width="0.5" stroke-miterlimit="10" d="M448.865,541.869v-18.292
		c-7.126,0.238-14.609,0.832-22.449,1.782v16.272L448.865,541.869z"/>
	<path id="r2121" fill="#939598" stroke="#494949" stroke-width="0.5" stroke-miterlimit="10" d="M426.416,541.632v-16.272
		c-7.721,0.95-15.679,2.257-23.874,4.038v11.997L426.416,541.632z"/>
	<path id="r2108" fill="#939598" stroke="#494949" stroke-width="0.5" stroke-miterlimit="10" d="M506.117,542.582v-14.135
		c-6.533-1.425-14.254-2.613-22.806-3.563v17.461L506.117,542.582z"/>
	<path id="r2107" fill="#939598" stroke="#494949" stroke-width="0.5" stroke-miterlimit="10" d="M483.312,542.345v-17.461
		c-6.771-0.712-14.135-1.188-21.974-1.307v18.53L483.312,542.345z"/>
	<polygon id="r2112" fill="#939598" stroke="#494949" stroke-width="0.5" stroke-miterlimit="10" points="486.519,591.638 
		483.312,591.638 483.312,615.75 487.944,615.75 498.753,603.041 485.688,592.588 	"/>
	<path id="r2109-2110" fill="#939598" stroke="#494949" stroke-width="0.5" stroke-miterlimit="10" d="M532.724,536.05
		c0,0-9.621-4.157-26.606-7.603v14.135l2.138,3.326l-19.954,33.139l5.107,4.633l25.774-29.694l13.541-15.561V536.05z"/>
	<polygon id="r2117" fill="#939598" stroke="#494949" stroke-width="0.5" stroke-miterlimit="10" points="424.16,593.063 
		410.737,603.753 421.547,615.75 426.416,615.75 426.416,591.638 422.972,591.638 	"/>
	<polygon id="r2111-2118" fill="#939598" stroke="#494949" stroke-width="0.5" stroke-miterlimit="10" points="488.062,578.929 
		464.069,578.929 422.854,578.929 418.577,571.921 410.856,577.622 422.972,591.638 426.416,591.638 426.416,591.638 
		446.134,591.638 446.134,615.75 463.832,615.75 463.832,591.638 483.312,591.638 483.312,591.638 486.519,591.638 493.526,583.561 
			"/>
	<polygon id="r2116" fill="#939598" stroke="#494949" stroke-width="0.5" stroke-miterlimit="10" points="426.416,615.75 
		421.547,615.75 410.737,603.753 400.76,611.83 425.229,639.625 426.416,638.556 	"/>
	<polygon id="r2113" fill="#939598" stroke="#494949" stroke-width="0.5" stroke-miterlimit="10" points="498.753,603.041 
		487.944,615.75 483.312,615.75 483.312,638.556 484.381,639.862 508.849,610.999 	"/>
	<polygon id="r2115" fill="#939598" stroke="#494949" stroke-width="0.5" stroke-miterlimit="10" points="446.134,615.75 
		446.134,638.675 426.416,638.675 426.416,638.556 425.229,639.625 436.037,651.978 454.805,651.978 454.805,615.75 	"/>
	<polygon id="r2114" fill="#939598" stroke="#494949" stroke-width="0.5" stroke-miterlimit="10" points="484.381,639.862 
		483.312,638.556 483.312,638.675 463.832,638.675 463.832,615.75 454.805,615.75 454.805,651.978 474.047,651.978 	"/>
	
		<rect id="r2405" x="658.273" y="441.977" fill="#939598" stroke="#494949" stroke-width="0.5" stroke-miterlimit="10" width="16.51" height="21.38"/>
	<polygon id="r2402-2403" fill="#939598" stroke="#494949" stroke-width="0.5" stroke-miterlimit="10" points="453.735,489.132 
		406.818,489.132 406.818,506.354 453.735,506.354 503.623,506.354 503.623,489.132 	"/>
	<path id="r2120" fill="#939598" stroke="#494949" stroke-width="0.5" stroke-miterlimit="10" d="M402.542,545.314v-2.376v-1.425
		v-11.997c-8.077,1.781-16.272,3.92-24.825,6.651v2.851l33.14,38.723l7.721-5.702L402.542,545.314z"/>
	<path id="annette-itimtuktuk" fill="#939598" stroke="#494949" stroke-width="0.5" stroke-miterlimit="10" d="M308.706,481.886
		h12.71v-56.182h-12.828C314.408,447.203,312.032,464.9,308.706,481.886z"/>
	<polygon id="r2005" fill="#939598" stroke="#494949" stroke-width="0.5" stroke-miterlimit="10" points="700.202,475.234 
		702.934,487.706 736.786,487.706 736.786,475.234 	"/>
</g>
<g id="signs">
	<rect id="parking" x="773.488" y="506.354" opacity="0.8" enable-background="new    " width="17.579" height="17.579"/>
	
		<rect id="handicapped-parking" x="773.488" y="478.917" opacity="0.8" enable-background="new    " width="17.579" height="17.579"/>
	<g id="escalator">
		<rect x="241.715" y="567.051" opacity="0.8" enable-background="new    " width="17.579" height="17.579"/>
		<rect x="647.583" y="483.905" opacity="0.8" enable-background="new    " width="17.579" height="17.579"/>
		<rect x="647.583" y="420.596" opacity="0.8" enable-background="new    " width="17.579" height="17.58"/>
	</g>
	<g id="entrance">
		<rect x="727.877" y="677.871" opacity="0.8" enable-background="new    " width="17.58" height="17.58"/>
		<rect x="727.877" y="400.404" opacity="0.8" enable-background="new    " width="17.58" height="17.58"/>
	</g>
	<rect id="lift" x="714.574" y="346.597" opacity="0.8" enable-background="new    " width="17.579" height="17.579"/>
	<g id="handicapped-toilet">
		<rect x="299.798" y="680.366" opacity="0.8" enable-background="new    " width="17.579" height="17.579"/>
		<rect x="645.92" y="329.018" opacity="0.8" enable-background="new    " width="17.579" height="17.58"/>
	</g>
	<g id="toilet">
		<rect x="276.874" y="680.841" opacity="0.8" enable-background="new    " width="17.58" height="17.579"/>
		<rect x="623.471" y="329.018" opacity="0.8" enable-background="new    " width="17.579" height="17.58"/>
	</g>
	<g id="fire-exit">
		<rect x="340.421" y="594.251" opacity="0.8" enable-background="new    " width="17.579" height="17.579"/>
		<rect x="219.266" y="696.639" opacity="0.8" enable-background="new    " width="17.579" height="17.579"/>
		<rect x="610.999" y="297.541" opacity="0.8" enable-background="new    " width="17.579" height="17.58"/>
		<rect x="425.109" y="297.541" opacity="0.8" enable-background="new    " width="17.58" height="17.58"/>
		<rect x="556.242" y="581.066" opacity="0.8" enable-background="new    " width="17.579" height="17.579"/>
	</g>
</g>
</svg>
