<?xml version="1.0" encoding="utf-8"?>
<!-- Generator: Adobe Illustrator 19.2.0, SVG Export Plug-In . SVG Version: 6.00 Build 0)  -->
<svg version="1.1" id="Layer_1" xmlns="http://www.w3.org/2000/svg" xmlns:xlink="http://www.w3.org/1999/xlink" x="0px" y="0px"
	 viewBox="0 0 841.9 595.3" style="enable-background:new 0 0 841.9 595.3;" xml:space="preserve">
<style type="text/css">
	.st0{fill:#FFFFFF;}
	.st1{fill:#DEDEDE;stroke:#494949;stroke-width:0.5;stroke-miterlimit:10;}
	.st2{fill:#939598;stroke:#494949;stroke-width:0.5;stroke-miterlimit:10;}
	.st3{opacity:0.8;enable-background:new    ;}
</style>
<g id="background">
	<rect class="st0" width="841.9" height="595.3"/>
</g>
<g id="etc">
	<path class="st1" d="M305.7,118L279,63.3l-73.7,14c0,0-6.3,57-30,128.3s-95,140-95,140L99,374.9c-24.3,10-41,30.3-41,53.7
		c0,33.3,33.6,60.3,75,60.3l670,1.4V118H305.7z"/>
	<path class="st1" d="M800.7,120.7H291c-0.9-4.2-3.6-12.9-10.1-20.3c-6.7-7.5-17.4-13.7-34.5-12.5c-40.4,2.8-34.5,49.2-34.5,49.2
		H206l-7.6,35.8l3,0.9l-22.1,56.9L125.4,333l-17.5,35l-0.9,7.5l-0.3-0.5c-6.4,3.1-12.3,6.7-17.5,10.6
		c-14.1,10.5-23.4,23.3-25.9,36.8c-0.7,3.9-0.9,7.9-0.4,11.9c0.9,7,3.6,13.4,8,19.2c3.3,4.4,7.4,8.4,12.4,12
		c6.6,4.8,14.6,8.8,23.5,11.8c17.5,5.9,38.8,8,61.3,5.1c1.7-0.2,3.4-0.5,5.1-0.7v-1.9h627.4V120.7z"/>
	<rect x="332.5" y="123.1" class="st1" width="45" height="24.1"/>
	<ellipse class="st1" cx="222.4" cy="339.5" rx="30.9" ry="27.8"/>
	<polygon class="st1" points="321.6,353.1 340.1,380.6 372,363.3 384.8,363.1 395.3,356.2 395.3,350.2 399.8,347.2 382.5,320.2 	"/>
	<polyline class="st1" points="183.3,220 199.8,226.3 216.3,181.7 201,176.8 183.3,220.7 	"/>
	
		<rect x="131.4" y="441" transform="matrix(0.8623 -0.5063 0.5063 0.8623 -207.2707 130.8278)" class="st1" width="11.1" height="11.1"/>
	
		<rect x="135.8" y="391.5" transform="matrix(0.8623 -0.5063 0.5063 0.8623 -181.5638 126.2389)" class="st1" width="11.1" height="11.1"/>
	
		<rect x="151.1" y="395.4" transform="matrix(0.8623 -0.5063 0.5063 0.8623 -181.4693 134.5037)" class="st1" width="11.1" height="11.1"/>
	
		<rect x="183" y="413" transform="matrix(0.8623 -0.5064 0.5064 0.8623 -186.0072 153.1506)" class="st1" width="11.1" height="11.1"/>
	<polygon id="_x3C_Path_x3E_" class="st1" points="203.5,430.8 182.6,442 182.6,458.4 203.5,458.4 	"/>
</g>
<g id="rooms">
	<path id="r6027-6029" class="st2" d="M246.4,87.9c-40.4,2.8-34.5,49.2-34.5,49.2H206l-7.6,35.8l19.6,5.7l1.5-3.3l30.2-27.2
		l22.5-0.2l-20.5-60.1C250,87.7,248.2,87.7,246.4,87.9z"/>
	<path id="r6030" class="st2" d="M315.9,123.2h-24.4c0,0-1.6-12.6-10.6-22.8c-5.9-6.7-15.1-12.3-29.2-12.7l20.5,60.1l58.6-0.5v-2.5
		v-12.5V123L315.9,123.2z"/>
	<path id="sf-cinema" class="st2" d="M386.3,123v37.3H277v139.2h69v34.8L302.7,358l23.8,37l45-24.3l56.8-1.7l90.9,48.8v58.4h279.3
		V123H386.3z M395.3,350.2v5.9l-10.5,6.9l-12.8,0.2l-31.9,17.2l-18.5-27.5l60.9-32.9l17.2,27.1L395.3,350.2z"/>
	<polygon id="r6005-6006" class="st2" points="261.8,426.2 241,392.1 215.3,424.3 215.3,437 243,437 	"/>
	<polygon id="r6003-6004" class="st2" points="280.7,370.1 241.3,391.7 241,392.1 261.8,426.2 243,437 215.3,437 215.3,476.2 
		302.3,476.2 302.3,404 	"/>
	<polygon id="a6002-6m001" class="st2" points="428.3,369 371.5,370.7 326.5,395 302.7,358 280.7,370.1 302.3,404 302.3,476.2 
		519.2,476.2 519.2,417.8 	"/>
	<path id="r6008-6009" class="st2" d="M168.6,449.4l-41.8,21.4l-2.7-4.4l-17.3,10.7c17.5,5.9,38.8,8,61.3,5.1
		c1.7-0.2,3.4-0.5,5.1-0.7v-23.2h9.4V442L168.6,449.4z"/>
	<path id="r6031" class="st2" d="M88.3,409l11.8-6.4l-10.9-17.1c-14.1,10.5-23.4,23.3-25.9,36.8c-0.7,3.9-0.9,7.9-0.4,11.9
		c0.9,7,3.6,13.4,8,19.2c3.3,4.4,7.4,8.4,12.4,12c6.6,4.8,14.6,8.8,23.5,11.8l17.3-10.7L88.3,409z"/>
	<path id="r6018" class="st2" d="M106.7,375c-6.4,3.1-12.3,6.7-17.5,10.6l10.9,17.1l16.8-9.1L106.7,375z"/>
	
		<rect id="r6427" x="110.2" y="405.8" transform="matrix(0.8623 -0.5065 0.5065 0.8623 -192.3834 115.3058)" class="st2" width="11.1" height="11.1"/>
	<polygon id="r6421-6422" class="st2" points="138.7,417.3 133.1,407.7 123.5,413.4 123.4,413.3 113.8,418.9 119.5,428.6 
		124.1,425.8 124.1,425.8 	"/>
	
		<rect id="r6428" x="119.8" y="400.1" transform="matrix(0.8623 -0.5064 0.5064 0.8623 -188.1699 119.3681)" class="st2" width="11.1" height="11.1"/>
	
		<rect id="r6411" x="125.7" y="431.4" transform="matrix(0.8622 -0.5065 0.5065 0.8622 -203.2486 126.7083)" class="st2" width="11.1" height="11.1"/>
	
		<rect id="r6405" x="141" y="435.4" transform="matrix(0.8623 -0.5063 0.5063 0.8623 -203.0919 134.9176)" class="st2" width="11.1" height="11.1"/>
	
		<rect id="r6412" x="135.4" y="425.8" transform="matrix(0.8623 -0.5064 0.5064 0.8623 -199.0409 130.7842)" class="st2" width="11.1" height="11.1"/>
	
		<rect id="r6413" x="151.1" y="416.7" transform="matrix(0.8623 -0.5064 0.5064 0.8623 -192.2628 137.4636)" class="st2" width="11.1" height="11.1"/>
	<polygon id="r6403-6404" class="st2" points="179.5,428.2 173.9,418.6 164.2,424.2 154.6,429.9 160.3,439.5 167.4,435.3 	"/>
	
		<rect id="r6414" x="160.7" y="411.1" transform="matrix(0.8623 -0.5064 0.5064 0.8623 -188.0928 141.5631)" class="st2" width="11.1" height="11.1"/>
	
		<rect id="r6420" x="141.4" y="401.1" transform="matrix(0.8623 -0.5064 0.5064 0.8623 -185.6697 130.4417)" class="st2" width="11.1" height="11.1"/>
	
		<rect id="r6430" x="145.4" y="385.8" transform="matrix(0.8623 -0.5064 0.5064 0.8623 -177.4131 130.3681)" class="st2" width="11.1" height="11.1"/>
	
		<rect id="r6418" x="167.4" y="387.3" transform="matrix(0.8624 -0.5063 0.5063 0.8624 -175.0803 141.6602)" class="st2" width="11.1" height="11.1"/>
	
		<rect id="r6417" x="177" y="381.7" transform="matrix(0.8623 -0.5065 0.5065 0.8623 -170.9726 145.8087)" class="st2" width="11.1" height="11.1"/>
	<polygon id="r6431-6432" class="st2" points="184.6,379.6 178.9,370 169.3,375.7 169.3,375.7 159.7,381.3 165.4,390.9 175,385.3 
		175,385.3 	"/>
	
		<rect id="r6415" x="177.4" y="403.4" transform="matrix(0.8623 -0.5065 0.5065 0.8623 -181.9478 149.0178)" class="st2" width="11.1" height="11.1"/>
	
		<rect id="r6401" x="192.6" y="407.4" transform="matrix(0.8623 -0.5064 0.5064 0.8623 -181.8278 157.2396)" class="st2" width="11.1" height="11.1"/>
	
		<rect id="r6416" x="187" y="397.8" transform="matrix(0.8623 -0.5065 0.5065 0.8623 -177.7561 153.1032)" class="st2" width="11.1" height="11.1"/>
	<path id="r6021" class="st2" d="M112,327.8l29.3,24.1L159,340l2.1,1c0,0,1.2-1.5,3.3-4.2l-42.2-20.5
		C118.9,320.1,115.5,324,112,327.8z"/>
	<path id="r6022" class="st2" d="M122.1,316.3l42.3,20.5c3.1-4,8.2-10.8,14.1-19.2l-41.4-19.9C132.5,303.8,127.5,310.1,122.1,316.3z
		"/>
	<path id="r6020" class="st2" d="M99.6,340.5l25.1,22.4l16.5-11L112,327.8C108,332.1,103.9,336.3,99.6,340.5z"/>
	<path id="r6019" class="st2" d="M91,348.8l15.7,26.2l18.1-12.1l-25.1-22.4C96.8,343.3,93.9,346,91,348.8z"/>
	<path id="r6023" class="st2" d="M137.1,297.7l41.4,19.9c4.1-5.9,8.6-12.5,13.1-19.7l-40.9-19.1C146.6,284.9,142,291.2,137.1,297.7z
		"/>
	<path id="r6025" class="st2" d="M174.9,239.1c-2.8,5.2-6.2,11.3-10.3,18.1l39.3,20.2c3.7-6.7,7.1-13.5,10-20.2L174.9,239.1z"/>
	<path id="r6026" class="st2" d="M221.5,235.2l-37.2-14.9c0,0-3.1,7.2-9.4,18.8l39,18.1C217.2,249.6,219.8,242.2,221.5,235.2z"/>
	<path id="r6024" class="st2" d="M150.7,278.8l40.9,19.1c4.1-6.5,8.3-13.5,12.2-20.6l-39.3-20.2C160.6,263.8,156,271.1,150.7,278.8z
		"/>
</g>
<g id="signs">
	<rect id="toilet" x="351.4" y="345.1" class="st3" width="14.8" height="14.8"/>
	<g id="fire-exit">
		<rect x="356.7" y="121.1" class="st3" width="14.8" height="14.8"/>
		<rect x="185.2" y="461.4" class="st3" width="14.8" height="14.8"/>
	</g>
	<rect id="handicapped-toilet" x="370.1" y="345.1" class="st3" width="14.8" height="14.8"/>
</g>
</svg>
