<?xml version="1.0" encoding="utf-8"?>
<!-- Generator: Adobe Illustrator 19.2.0, SVG Export Plug-In . SVG Version: 6.00 Build 0)  -->
<svg version="1.1" id="Layer_1" xmlns="http://www.w3.org/2000/svg" xmlns:xlink="http://www.w3.org/1999/xlink" x="0px" y="0px"
	 viewBox="0 0 841.9 595.3" style="enable-background:new 0 0 841.9 595.3;" xml:space="preserve">
<style type="text/css">
	.st0{fill:#FFFFFF;}
	.st1{fill:#DEDEDE;stroke:#494949;stroke-width:0.5;stroke-miterlimit:10;}
	.st2{fill:#939598;stroke:#494949;stroke-width:0.5;stroke-miterlimit:10;}
	.st3{opacity:0.8;enable-background:new    ;}
	.st4{display:none;opacity:0.8;enable-background:new    ;}
</style>
<g id="background">
	<rect class="st0" width="841.9" height="595.3"/>
</g>
<g id="etc">
	<path class="st1" d="M305.7,118L279,63.3l-73.7,14c0,0-6.3,57-30,128.3s-95,140-95,140L99,374.9c-24.3,10-41,30.3-41,53.7
		c0,33.3,33.6,60.3,75,60.3l670,1.4V118H305.7z"/>
	<path class="st1" d="M799.7,139.2h-147V120H290.9c-1.1-4.4-3.7-12.6-10-19.6c-6.7-7.5-17.4-13.7-34.5-12.5
		c-40.4,2.8-34.5,49.2-34.5,49.2H206l-7.6,35.8l0.1,0l-20,45.8c23.7,14.5,59.3,20.5,87.8,19.2s37.2,50.5-4.2,52.2s-27.5,31-27.5,31
		l-41.8,39.6c-21.2-2.2-41.1,1-41.1,1c-53.3,7.1-92.9,39.4-88.7,72.6c0.9,7,3.6,13.4,8,19.2c16.3,21.9,54.6,34.2,97.2,28.9
		c1.7-0.2,3.4-0.5,5.1-0.7v-2l626.4,5L799.7,139.2L799.7,139.2L799.7,139.2z"/>
	<ellipse class="st1" cx="515.6" cy="261.2" rx="37.9" ry="57.2"/>
	<rect x="594.2" y="142.8" class="st1" width="35.3" height="61.2"/>
	<polygon class="st1" points="517.3,179 574.3,179 574.3,142.8 518,142.8 	"/>
	<rect x="518.2" y="140.5" class="st1" width="111.9" height="0.8"/>
	<rect x="651.5" y="141.3" class="st1" width="89" height="18.8"/>
	<rect x="211.5" y="433.2" class="st1" width="97.8" height="43.8"/>
	<rect x="174.5" y="433.2" class="st1" width="23.5" height="21.9"/>
	<polygon class="st1" points="181,218 197.5,224.8 215.2,179.5 198.4,174.7 	"/>
	<rect x="384.2" y="121.5" class="st1" width="42.3" height="22.4"/>
	<polygon class="st1" points="314.5,477 314.5,433.2 339,433.2 339,363.2 322,363.2 313.2,348 340.2,334.2 455.2,334.2 487.6,350.9 
		480.4,362.6 508.8,379.1 629.5,380.4 628.6,480.8 	"/>
	<polygon class="st1" points="746.8,416 641,416 641,439 668.2,439 668.2,457.5 693.2,457.5 693.2,482.8 775,482.8 775,457.8 
		798,457.8 798,390.8 746.9,390.8 	"/>
	<rect x="641" y="439" class="st1" width="27.2" height="18.5"/>
</g>
<g id="rooms">
	<path id="r4013" class="st2" d="M164.8,397.2l-13-35.6c-53.3,7.1-92.9,39.4-88.7,72.6c0.9,7,3.6,13.4,8,19.2L164.8,397.2
		L164.8,397.2z"/>
	<path id="r4012" class="st2" d="M164.8,397.3l-93.9,56.2c16.3,21.9,54.6,34.2,97.2,28.9c1.7-0.2,3.4-0.5,5.1-0.7v-50.1h27.5v-26
		L164.8,397.3z"/>
	<polygon id="cold-stone" class="st2" points="517.3,181.7 574.3,181.7 574.3,193.8 568.5,198.7 517.3,185.8 	"/>
	<polygon id="dak-galbi" class="st2" points="631.2,162 740.5,162 740.5,186.3 720.8,186.3 720.8,204 631.2,204 	"/>
	<rect id="r4025" x="607.3" y="227.7" class="st2" width="62.8" height="35"/>
	<rect id="r4023" x="670.1" y="227.7" class="st2" width="35.7" height="35"/>
	<rect id="r4024" x="607.3" y="293.2" class="st2" width="98.5" height="25.3"/>
	<polygon id="r4006" class="st2" points="629.5,343.8 621.8,336 554.4,336 554.4,377.5 629.5,378.2 	"/>
	<polygon id="r4010-2" class="st2" points="320.8,366 309.5,346.5 314.1,344.2 302.3,324.3 272.7,350.7 280.7,363.1 290.1,356.1 
		290.1,356.1 290.1,356.1 309.6,390.7 309.6,390.7 318.4,406.4 318.4,406.4 318.4,406.4 318.4,431 336.2,431 336.2,366 	"/>
	<polygon id="r4011" class="st2" points="309.6,390.7 283.7,408.5 283.7,408.5 283.7,408.5 254.7,366.8 211.5,405.5 211.5,431 
		318.4,431 318.4,406.4 	"/>
	<polygon id="r4009" class="st2" points="359.2,285 337.8,292.5 318.4,309.8 333.8,334.2 339.2,331.5 372.4,331.5 372.4,285 	"/>
	<polygon id="r4008" class="st2" points="409,285 388.4,285 388.4,331.5 456.8,331.5 468.5,337.9 479.6,319.6 	"/>
	<polygon id="r4007" class="st2" points="513,336 479.6,319.6 468.5,337.9 491,350.2 483.8,362.2 509.2,377 554.4,377.5 554.4,336 	
		"/>
	<rect id="r4027-4028" x="313.2" y="216.5" class="st2" width="74.5" height="46.2"/>
	<rect id="r4026" x="406.2" y="216.5" class="st2" width="50" height="46.2"/>
	<polygon id="r4001" class="st2" points="798,164.2 755,164.2 755,198.2 732.8,198.2 732.5,230.7 798,230.7 	"/>
	<polygon id="r4004-4005" class="st2" points="746.9,345.8 731.8,345.8 731.8,346 641,346 641,416 746.8,416 	"/>
	<polygon id="r4002" class="st2" points="798,230.7 732.5,230.7 732.2,272.2 798,272.2 	"/>
	<polygon id="r4003" class="st2" points="732.2,272.2 731.8,345.8 746.9,345.8 746.9,390.8 798,390.8 798,272.2 	"/>
	<path id="r4018" class="st2" d="M426.5,143.9h-42.3v56.2c0,0,21.1,0,47.1-2.5v-53.8H426.5z"/>
	<path id="r4019" class="st2" d="M499.7,125.7l-18-4.2l-24.3,3.7l-30.5-3.7h-0.3v22.4h4.8v53.8c22.6-2.2,49-6.3,68.4-14L499.7,125.7
		L499.7,125.7z"/>
	<path id="r4015" class="st2" d="M263,108.2l17.9-7.8c-6.7-7.5-17.4-13.7-34.5-12.5c-40.4,2.8-34.5,49.2-34.5,49.2H206l-7.6,35.8
		l19.6,5.7l1.5-3.3l9.3,2.4c0,0,30.8,7.5,69.4,13.9l0.5-11.9L263,108.2z"/>
	<path id="r4017" class="st2" d="M372.7,144.8h-34.3v52.3c11.6,1.4,23.2,2.4,34.3,3V144.8z"/>
	<path id="r4016" class="st2" d="M330.8,144.8V123l-14.9,0.2h-24.4c0,0-1.6-12.6-10.6-22.8l-17.9,7.8l35.8,71.2l-0.5,11.9
		c12.8,2.1,26.4,4.1,40.1,5.8v-52.3L330.8,144.8L330.8,144.8z"/>
	<path id="r4014" class="st2" d="M220.8,234.2c15.4,3.1,31.3,4.3,45.5,3.6c9.3-0.4,16.5,4.8,20.5,12.1c0.3-1.6,0.4-3.2,0.4-4.8
		c0-17.5-15.3-31.7-34.2-31.7C238.2,213.4,225.6,222.1,220.8,234.2z"/>
	
		<rect id="r4401" x="532" y="301" transform="matrix(0.603 -0.7978 0.7978 0.603 -28.3947 558.5266)" class="st2" width="29.9" height="13.6"/>
	<rect id="r4402" x="554.4" y="239.6" class="st2" width="6.9" height="18.6"/>
	<polygon id="r4010-1" class="st2" points="314.1,344.2 302.3,324.3 318.4,309.8 333.8,334.2 	"/>
</g>
<g id="signs">
	<g id="elevator">
		<rect x="179.9" y="181.7" class="st3" width="14.8" height="14.8"/>
		<rect x="605.9" y="164.2" class="st4" width="14.8" height="14.8"/>
	</g>
	<g id="toilet">
		<rect x="235.9" y="446.1" class="st3" width="14.8" height="14.8"/>
		<rect x="526.9" y="152.2" class="st3" width="14.8" height="14.8"/>
	</g>
	<g id="handicapped-toilet">
		<rect x="257.6" y="447.7" class="st3" width="14.8" height="14.8"/>
		<rect x="547.9" y="152.2" class="st3" width="14.8" height="14.8"/>
	</g>
	<g id="lift">
		<rect x="235.9" y="320.9" class="st3" width="14.8" height="14.8"/>
		<rect x="257.6" y="281.2" class="st3" width="14.8" height="14.8"/>
		<rect x="488.9" y="296.4" class="st3" width="14.8" height="14.8"/>
		<rect x="486.2" y="205.9" class="st3" width="14.8" height="14.8"/>
	</g>
	<g id="fire-exit">
		<rect x="178.8" y="460.9" class="st3" width="14.8" height="14.8"/>
		<rect x="672.6" y="461.9" class="st3" width="14.8" height="14.8"/>
		<rect x="779.3" y="463.7" class="st3" width="14.8" height="14.8"/>
		<rect x="779.8" y="145.4" class="st3" width="14.8" height="14.8"/>
		<rect x="518.2" y="122.2" class="st3" width="14.8" height="14.8"/>
		<rect x="352.2" y="122.2" class="st3" width="14.8" height="14.8"/>
	</g>
</g>
</svg>
