<?xml version="1.0" encoding="utf-8"?>
<!-- Generator: Adobe Illustrator 16.0.0, SVG Export Plug-In . SVG Version: 6.00 Build 0)  -->
<!DOCTYPE svg PUBLIC "-//W3C//DTD SVG 1.1//EN" "http://www.w3.org/Graphics/SVG/1.1/DTD/svg11.dtd">
<svg version="1.1" id="Layer_1" xmlns="http://www.w3.org/2000/svg" xmlns:xlink="http://www.w3.org/1999/xlink" x="0px" y="0px"
	 width="841.89px" height="595.281px" viewBox="0 0 841.89 595.281" enable-background="new 0 0 841.89 595.281"
	 xml:space="preserve">
<g id="background">
	<rect fill="#FFFFFF" width="841.89" height="595.281"/>
</g>
<g id="etc">
	<path fill="#DEDEDE" stroke="#494949" stroke-width="0.5" stroke-miterlimit="10" d="M305.667,118L279,63.333l-73.655,14
		c0,0-6.345,57-30.011,128.333s-95,140-95,140l18.655,29.199C74.667,384.835,58,405.144,58,428.593
		c0,33.297,33.579,60.291,75,60.291l551.667,1.449V118H305.667z"/>
	<path fill="#DEDEDE" stroke="#494949" stroke-width="0.5" stroke-miterlimit="10" d="M297.208,123.667l0.542,1.083v75.916h-40.875
		l-0.125-0.055l-58-25.611c0,0-25.083,100.333-104.75,172.5l18.586,29.857c20.764-10.857,44.171-15.279,62.414-2.023
		c23.167,16.834,22,31.166,22,47.666h-30.667v24.668l-75.5,23c0,0,1.266,13,43.383,14c42.117,1,502.118-1.361,502.118-1.361V123.667
		H297.208z"/>
	
		<rect x="509" y="139" fill="#DEDEDE" stroke="#494949" stroke-width="0.5" stroke-miterlimit="10" width="53.334" height="40.667"/>
	
		<rect x="590.667" y="139" fill="#DEDEDE" stroke="#494949" stroke-width="0.5" stroke-miterlimit="10" width="34" height="62.667"/>
	
		<ellipse fill="#DEDEDE" stroke="#494949" stroke-width="0.5" stroke-miterlimit="10" cx="514.5" cy="259.667" rx="40.166" ry="59"/>
	<path fill="#DEDEDE" stroke="#494949" stroke-width="0.5" stroke-miterlimit="10" d="M443.625,249.749v-0.004V249.749z"/>
	<path fill="#DEDEDE" stroke="#494949" stroke-width="0.5" stroke-miterlimit="10" d="M437.511,217.505l-0.002-0.015l-0.334-0.002
		c-0.086-0.001-0.172-0.013-0.26-0.013c-0.068,0-0.135,0.009-0.203,0.01l-138.374-0.837l0.002,0.006
		c-0.198-0.003-0.393-0.015-0.591-0.015c-22.368,0-40.5,18.132-40.5,40.5c0,22.368,18.132,40.5,40.5,40.5
		c7.786,0,15.055-2.202,21.229-6.009l0.002,0.003l4.891-1.644l8.754-9.615c0,0-4.5-20.125,16.875-26.875s33.25,4.875,33.25,4.875
		l38.88-1.235l21.994-7.395c5.957-2.593,10.125-8.524,10.125-15.436C453.75,225.213,446.531,217.821,437.511,217.505z"/>
	
		<rect x="300.75" y="125.75" fill="#DEDEDE" stroke="#494949" stroke-width="0.5" stroke-miterlimit="10" width="46.5" height="15.75"/>
	
		<rect x="376.875" y="322.75" fill="#DEDEDE" stroke="#494949" stroke-width="0.5" stroke-miterlimit="10" width="8.125" height="1.875"/>
	
		<rect x="454.118" y="402.878" transform="matrix(-0.8919 -0.4523 0.4523 -0.8919 685.9082 971.6172)" fill="#DEDEDE" stroke="#494949" stroke-width="0.5" stroke-miterlimit="10" width="9.964" height="1.876"/>
	
		<rect x="198.625" y="408.125" fill="#DEDEDE" stroke="#494949" stroke-width="0.5" stroke-miterlimit="10" width="11.875" height="1.875"/>
	<polygon fill="#DEDEDE" stroke="#494949" stroke-width="0.5" stroke-miterlimit="10" points="296,406.5 357,372.166 373.167,400 
		312.5,434.333 	"/>
</g>
<g id="rooms">
	
		<rect id="m414" x="168.904" y="264.875" opacity="0.8" fill="#939598" stroke="#494949" stroke-width="0.5" stroke-miterlimit="10" enable-background="new    " width="28.193" height="28.947"/>
	<polygon id="m037" fill="#939598" stroke="#494949" stroke-width="0.5" stroke-miterlimit="10" points="216,86 198.75,175 
		256.75,200.611 256.75,77.525 	"/>
	<polygon id="m038" fill="#939598" stroke="#494949" stroke-width="0.5" stroke-miterlimit="10" points="272.5,74.25 256.75,77.525 
		256.75,200.611 256.875,200.666 297.75,200.666 297.75,124.75 	"/>
	
		<rect id="m039-040" x="309.75" y="144" fill="#939598" stroke="#494949" stroke-width="0.5" stroke-miterlimit="10" width="57.25" height="56.611"/>
	<polygon id="m041-042-043" fill="#939598" stroke="#494949" stroke-width="0.5" stroke-miterlimit="10" points="380.75,201.667 
		466,201.667 506.5,182.75 506.5,139 380.75,139 	"/>
	<polyline id="m044" fill="#939598" stroke="#494949" stroke-width="0.5" stroke-miterlimit="10" points="529.917,181.917 
		563.25,181.917 563.25,200.083 529.917,187.75 529.917,182.333 	"/>
	<g id="m025-026">
		
			<rect x="336.917" y="322.167" fill="#939598" stroke="#494949" stroke-width="0.5" stroke-miterlimit="10" width="38.417" height="10.166"/>
		
			<rect x="386.5" y="322.167" fill="#939598" stroke="#494949" stroke-width="0.5" stroke-miterlimit="10" width="36.167" height="10.166"/>
	</g>
	<path id="m031-032" fill="#939598" stroke="#494949" stroke-width="0.5" stroke-miterlimit="10" d="M212.75,407v36.406
		c0,0,21.218-3.707,47.732-16.961l-23.287-42.067L212.75,407z"/>
	<path id="m029-030" fill="#939598" stroke="#494949" stroke-width="0.5" stroke-miterlimit="10" d="M273.667,371.25l11.84-8.761
		l-8.418-15.031l-39.894,36.92l23.287,42.067c10.976-5.486,22.856-12.606,34.518-21.779L273.667,371.25z"/>
	<polygon id="m027-028" fill="#939598" stroke="#494949" stroke-width="0.5" stroke-miterlimit="10" points="336.917,332.333 
		336.917,322.167 304.417,322.167 287.025,338.262 297.697,358.245 305.833,369.906 316.583,363.333 329.666,384.167 357,369.083 	
		"/>
	<polygon id="m408" fill="#939598" stroke="#494949" stroke-width="0.5" stroke-miterlimit="10" points="475.5,347.5 
		446.625,397.75 452.875,401.25 475.625,361.25 487.31,367.337 493,357.375 	"/>
	<polygon fill="#939598" stroke="#494949" stroke-width="0.5" stroke-miterlimit="10" points="183,229.166 198.75,235.166 
		216.5,187.166 199.75,181.666 	"/>
	<path id="m410-411-412" fill="#939598" stroke="#494949" stroke-width="0.5" stroke-miterlimit="10" d="M323.871,289.99
		l8.754-9.615c0,0-4.5-20.125,16.875-26.875s33.25,4.875,33.25,4.875l38.88-1.235l21.994-7.395c0,0,5.75,27.005-23.5,36.255
		c-29.25,9.25-35-8.875-47.375,1.625s-18.875,15.875-29,15.125S323.871,289.99,323.871,289.99z"/>
	<path id="m413" fill="#939598" stroke="#494949" stroke-width="0.5" stroke-miterlimit="10" d="M474.498,264.875h-16.373V285
		h20.092C476.21,278.811,474.923,272.025,474.498,264.875z"/>
	<polygon id="m023-024" fill="#939598" stroke="#494949" stroke-width="0.5" stroke-miterlimit="10" points="456.25,347 
		433.5,322.167 422.667,322.167 422.667,332.333 412.14,350.476 443.107,369.645 	"/>
	<path id="m019-020" fill="#939598" stroke="#494949" stroke-width="0.5" stroke-miterlimit="10" d="M423.75,403l2.433-4.192
		h-21.599V415c0,0,3.354,2.727,40.716,24.049l10.718-17.752L423.75,403z"/>
	<path id="m045" fill="#939598" stroke="#494949" stroke-width="0.5" stroke-miterlimit="10" d="M549.214,230
		c3.461,8.718,5.451,18.848,5.451,29.667c0,20.417-7.063,38.409-17.791,49L493,357.375l-28.223,49.414l2.001-3.314l-2.001,3.314
		l-8.402,14.711l-0.357-0.203l-10.718,17.752c7.914,4.517,17.349,9.865,28.606,16.201c64.404,36.25,153.344,27,153.344,27V230
		H549.214z"/>
	<polygon id="m021-022" fill="#939598" stroke="#494949" stroke-width="0.5" stroke-miterlimit="10" points="443.107,369.645 
		412.14,350.476 404.583,363.5 404.583,398.807 426.182,398.807 	"/>
	<path id="m033-034-035-036" fill="#939598" stroke="#494949" stroke-width="0.5" stroke-miterlimit="10" d="M166.333,447.667V423
		H197c0-16.5,1.167-30.832-22-47.666s-54.667-5.166-78.5,12S70.167,421.833,71.833,438c1.666,16.168,19,32.668,19,32.668
		L166.333,447.667z"/>
	
		<rect id="m415" x="220.156" y="336.142" transform="matrix(0.721 -0.6929 0.6929 0.721 -169.0282 263.8439)" fill="#939598" stroke="#494949" stroke-width="0.5" stroke-miterlimit="10" width="45.942" height="11.357"/>
	
		<rect id="m416" x="230.278" y="223.026" fill="#939598" stroke="#494949" stroke-width="0.5" stroke-miterlimit="10" width="24.445" height="24.28"/>
</g>
<g id="signs">
	<g id="toilet">
		<rect x="519.345" y="150.345" opacity="0.8" enable-background="new    " width="14.811" height="14.812"/>
		<rect x="315.178" y="395.845" opacity="0.8" enable-background="new    " width="14.812" height="14.811"/>
	</g>
	<g id="handicapped-toilet">
		<rect x="538.345" y="150.345" opacity="0.8" enable-background="new    " width="14.811" height="14.812"/>
		<rect x="334.178" y="395.845" opacity="0.8" enable-background="new    " width="14.812" height="14.811"/>
	</g>
	<rect id="information" x="229.79" y="277.594" opacity="0.8" enable-background="new    " width="14.811" height="14.812"/>
	<g id="lift">
		<rect x="604.345" y="159.595" opacity="0.8" enable-background="new    " width="14.811" height="14.812"/>
		<rect x="183" y="196.261" opacity="0.8" enable-background="new    " width="14.811" height="14.812"/>
	</g>
	
		<rect id="bts" x="139.962" y="226.464" transform="matrix(-0.418 0.9084 -0.9084 -0.418 421.4259 197.7503)" opacity="0.8" enable-background="new    " width="14.812" height="14.811"/>
	
		<rect id="mrt" x="71.106" y="362.483" transform="matrix(-0.5456 -0.838 0.838 -0.5456 -188.6381 637.4939)" opacity="0.8" enable-background="new    " width="14.81" height="14.811"/>
	<g id="escalator">
		<rect x="537.169" y="216.64" opacity="0.8" enable-background="new    " width="14.811" height="14.811"/>
		<rect x="160.75" y="306.012" opacity="0.8" enable-background="new    " width="14.811" height="14.812"/>
		<rect x="205.345" y="355.095" opacity="0.8" enable-background="new    " width="14.811" height="14.811"/>
		<rect x="537.169" y="282.83" opacity="0.8" enable-background="new    " width="14.811" height="14.811"/>
	</g>
	<g id="entrance">
		
			<rect x="159.61" y="234.596" transform="matrix(-0.418 0.9085 -0.9085 -0.418 456.6723 191.4274)" opacity="0.8" enable-background="new    " width="14.811" height="14.812"/>
		
			<rect x="91.599" y="354.284" transform="matrix(-0.5456 -0.838 0.838 -0.5456 -150.0929 641.9952)" opacity="0.8" enable-background="new    " width="14.81" height="14.81"/>
		<rect x="614.169" y="209.234" opacity="0.8" enable-background="new    " width="14.811" height="14.811"/>
	</g>
	
		<rect id="handicapped-parking" x="654.595" y="282.83" opacity="0.8" enable-background="new    " width="14.811" height="14.811"/>
	<rect id="parking" x="654.595" y="306.08" opacity="0.8" enable-background="new    " width="14.811" height="14.812"/>
	<g id="fire-exit">
		<rect x="350.095" y="121.095" opacity="0.8" enable-background="new    " width="14.812" height="14.812"/>
		<rect x="174.262" y="428.595" opacity="0.8" enable-background="new    " width="14.811" height="14.811"/>
		<rect x="282.345" y="363.845" opacity="0.8" enable-background="new    " width="14.811" height="14.811"/>
		<rect x="459.095" y="377.58" opacity="0.8" enable-background="new    " width="14.811" height="14.812"/>
		<rect x="619.156" y="121.095" opacity="0.8" enable-background="new    " width="14.811" height="14.812"/>
	</g>
</g>
</svg>
