<?xml version="1.0" encoding="utf-8"?>
<!-- Generator: Adobe Illustrator 19.2.0, SVG Export Plug-In . SVG Version: 6.00 Build 0)  -->
<svg version="1.1" id="Layer_1" xmlns="http://www.w3.org/2000/svg" xmlns:xlink="http://www.w3.org/1999/xlink" x="0px" y="0px"
	 viewBox="0 0 841.9 595.3" style="enable-background:new 0 0 841.9 595.3;" xml:space="preserve">
<style type="text/css">
	.st0{fill:#FFFFFF;}
	.st1{fill:#DEDEDE;stroke:#494949;stroke-width:0.5;stroke-miterlimit:10;}
	.st2{fill:#DEDEDE;stroke:#494949;stroke-miterlimit:10;}
	.st3{fill:#939598;stroke:#494949;stroke-width:0.5;stroke-miterlimit:10;}
	.st4{opacity:0.8;enable-background:new    ;}
</style>
<g id="background">
	<rect class="st0" width="841.9" height="595.3"/>
</g>
<g id="etc">
	<polygon class="st1" points="18.7,488.3 694.7,488.3 694.7,124.1 326.7,124.1 326.7,75.3 217.3,75.3 	"/>
	<polygon class="st1" points="223.7,84.1 317.8,84.1 317.8,133.8 676.5,133.8 676.5,207 582.7,207 582.7,475.1 34.3,477.1 	"/>
	<polygon class="st1" points="427.2,167.5 427.2,136 408.6,136 408.6,167.5 	"/>
	<rect x="350.5" y="163.7" class="st1" width="16.4" height="2.5"/>
	<rect x="638.2" y="140.5" class="st1" width="35.2" height="60.2"/>
	<rect x="202.5" y="455.6" class="st1" width="36.2" height="21.5"/>
	<rect x="251.2" y="417.8" class="st1" width="103.1" height="57.2"/>
	<polygon class="st2" points="239.9,399.3 231.6,403.6 230.5,401.6 238.8,397.4 	"/>
	<path class="st1" d="M285.6,340.8c5.5,8.8,0,21.8-12.3,28.9c-12.3,7.1-26.8,5.7-32.3-3.1c-5.5-8.8,0-21.8,12.3-28.9
		C265.7,330.6,280.1,332,285.6,340.8z"/>
	<rect x="615.5" y="137" class="st2" width="57.8" height="1.9"/>
</g>
<g id="rooms">
	<polygon id="lg021-022" class="st3" points="238.6,193.6 182.7,169.1 161.1,213.9 215,238.7 	"/>
	<polygon id="lg023-024" class="st3" points="256.6,159.3 199.2,134.9 182.7,169.1 238.6,193.6 	"/>
	<polygon id="lg025-026-027-028" class="st3" points="257,158.6 317,167.5 317.8,167.5 317.8,136.2 317.8,84.1 223.7,84.1 
		199.2,134.9 256.6,159.3 	"/>
	<polygon id="lg029" class="st3" points="349.2,167.5 349.2,136.1 317.8,136.2 317.8,167.5 	"/>
	<polygon id="lg030" class="st3" points="388,167.5 388,136.1 368.2,136.1 368.2,167.5 	"/>
	<polygon id="lg031" class="st3" points="408.6,167.5 408.6,136 388,136.1 388,167.5 	"/>
	<polygon id="lg009" class="st3" points="251.7,417.8 310.7,417.8 310.7,394.2 295.5,367.6 239.4,396.3 	"/>
	<polygon id="lg007-008" class="st3" points="335.6,333.1 335.2,333.2 309.4,359.9 313.5,366.3 322.6,361.5 357.2,417.8 400,417.8 
		400,371.3 362.1,371.3 	"/>
	<polygon id="lg006" class="st3" points="362.1,371.3 400,371.3 400,366.4 371.4,321.3 335.6,333.1 	"/>
	<polygon id="lg016-017" class="st3" points="173.5,317.9 122.5,294 102.2,336.3 150.8,361.2 	"/>
	<polygon id="lg013" class="st3" points="118,423.8 118.1,423.6 60.1,423.6 34.3,477.1 140.5,477.1 140.5,446.6 	"/>
	<polygon id="lg011-012" class="st3" points="140.8,446.9 140.5,446.6 140.5,477.1 202.5,477.1 202.5,415.3 	"/>
	<polygon id="lg014" class="st3" points="133.1,394.9 84.7,372.6 60.1,423.6 118.1,423.6 	"/>
	<polygon id="lg020b" class="st3" points="215,238.7 161.1,213.9 150.5,236 203.7,260.3 	"/>
	<polygon id="lg019" class="st3" points="193.4,280 141.1,255.6 131.1,276.1 182.8,300.1 	"/>
	<polygon id="lg020a" class="st3" points="203.7,260.3 150.5,236 141.1,255.6 193.4,280 	"/>
	<polygon id="lg018" class="st3" points="182.8,300.1 131.1,276.1 122.5,294 173.5,317.9 	"/>
	<polygon id="lg015" class="st3" points="150.8,361.2 102.2,336.3 84.7,372.6 133.1,394.9 	"/>
	<polygon id="gourmet-market" class="st3" points="371.4,321.3 378.9,333.1 447.2,333.1 447.2,479 582.7,479 582.7,228.8 
		550.3,228.8 550.3,163 494,163 494,136.1 427.2,136 427.2,179.8 372,179.8 	"/>
	<rect id="gm15" x="569.7" y="181.3" class="st3" width="22.7" height="20.2"/>
	<rect id="gm16" x="592.3" y="181.3" class="st3" width="32.8" height="20.2"/>
	<polygon id="lg010" class="st3" points="228.9,401.8 202.5,415.3 202.5,455.6 238.7,455.6 238.7,418.8 	"/>
	<polygon id="lg403" class="st3" points="226.1,315 200.8,337.6 190,326.4 215.3,303.8 	"/>
	<polygon id="lg402" class="st3" points="306.1,343.9 294.9,350.8 277.1,324 288.3,317.1 	"/>
	
		<rect id="cinnabon" x="268.2" y="366.4" transform="matrix(0.8831 -0.4693 0.4693 0.8831 -140.2728 174.5437)" class="st3" width="23.7" height="4.5"/>
	<rect id="gm05" x="512.4" y="136" class="st3" width="101.9" height="25"/>
	<polygon id="gm01" class="st3" points="447.9,167.5 447.9,136 427.2,136.1 427.2,167.5 	"/>
	<polygon id="gm02" class="st3" points="468.5,167.5 468.5,136 447.9,136.1 447.9,167.5 	"/>
	<polygon id="gm03" class="st3" points="489.1,167.5 489.1,136 468.5,136.1 468.5,167.5 	"/>
	<polygon id="gm04" class="st3" points="507.3,167.5 507.3,136 489.1,136.1 489.1,167.5 	"/>
	<rect id="gm15_1_" x="475.8" y="186.2" class="st3" width="33.4" height="10.4"/>
	<rect id="gm14" x="509.2" y="186.2" class="st3" width="33.4" height="10.4"/>
	<rect id="gm11" x="388" y="186.7" class="st3" width="35.3" height="11"/>
	<rect id="gm12" x="423.3" y="186.7" class="st3" width="35.3" height="11"/>
	<polygon id="gm51" class="st3" points="378.9,333.1 479.6,333.1 479.6,357.4 394.1,357 	"/>
	<rect id="gm21" x="388.4" y="218.8" class="st3" width="22" height="15"/>
	<rect id="gm22" x="410.3" y="218.8" class="st3" width="22" height="15"/>
	<rect id="gm23" x="432.3" y="218.8" class="st3" width="26.3" height="15"/>
	<rect id="gm26" x="388.4" y="233.9" class="st3" width="22" height="15"/>
	<rect id="gm27" x="410.3" y="233.9" class="st3" width="22" height="15"/>
	<rect id="gm28" x="432.3" y="233.9" class="st3" width="26.3" height="15"/>
	<rect id="gm24" x="476" y="218.8" class="st3" width="33" height="15"/>
	<rect id="gm29" x="476" y="233.9" class="st3" width="33" height="15"/>
	<rect id="gm30" x="509.4" y="233.9" class="st3" width="33" height="15"/>
	<rect id="gm25" x="509.4" y="218.8" class="st3" width="33" height="15"/>
	<rect id="gm31" x="388.4" y="266.8" class="st3" width="29.6" height="23.2"/>
	<rect id="gm36" x="516.5" y="266.8" class="st3" width="29.6" height="23.2"/>
	<rect id="gm32" x="417.9" y="266.9" class="st3" width="40.7" height="11.5"/>
	<rect id="gm33" x="417.9" y="278.4" class="st3" width="40.7" height="11.5"/>
	<rect id="gm41" x="388.4" y="307.5" class="st3" width="40.7" height="11.5"/>
	<rect id="gm42" x="429" y="307.5" class="st3" width="40.7" height="11.5"/>
	<rect id="gm43" x="475.8" y="307.5" class="st3" width="40.7" height="11.5"/>
	<rect id="gm44" x="516.5" y="307.5" class="st3" width="40.7" height="11.5"/>
	<rect id="gm34" x="475.8" y="266.9" class="st3" width="40.7" height="11.5"/>
	<rect id="gm35" x="475.8" y="278.4" class="st3" width="40.7" height="11.5"/>
</g>
<g id="signs">
	<g id="escalator">
		<rect x="238.7" y="356.4" class="st4" width="14.8" height="14.8"/>
		<rect x="215.7" y="334" class="st4" width="14.8" height="14.8"/>
	</g>
	<rect id="parking" x="595.1" y="321.3" class="st4" width="14.8" height="14.8"/>
	<rect id="handicapped-parking" x="595.1" y="296.4" class="st4" width="14.8" height="14.8"/>
	<rect id="entrance" x="561.5" y="207" class="st4" width="14.8" height="14.8"/>
	<rect id="lift" x="652.9" y="162.4" class="st4" width="14.8" height="14.8"/>
	<g id="toilet">
		<rect x="309.4" y="427.2" class="st4" width="14.8" height="14.8"/>
		<rect x="533.6" y="138.2" class="st4" width="14.8" height="14.8"/>
	</g>
	<g id="fire-exit">
		<rect x="215.7" y="458.9" class="st4" width="14.8" height="14.8"/>
		<rect x="343.9" y="393.1" class="st4" width="14.8" height="14.8"/>
		<rect x="351.3" y="131.3" class="st4" width="14.8" height="14.8"/>
	</g>
	<g id="handicapped-toilet">
		<rect x="331.6" y="427.2" class="st4" width="14.8" height="14.8"/>
		<rect x="556.2" y="138.2" class="st4" width="14.8" height="14.8"/>
	</g>
</g>
<rect x="479.6" y="333.1" class="st3" width="62.8" height="22"/>
</svg>
