<?xml version="1.0" encoding="utf-8"?>
<!-- Generator: Adobe Illustrator 19.2.0, SVG Export Plug-In . SVG Version: 6.00 Build 0)  -->
<svg version="1.1" id="Layer_1" xmlns="http://www.w3.org/2000/svg" xmlns:xlink="http://www.w3.org/1999/xlink" x="0px" y="0px"
	 viewBox="0 0 841.9 595.3" style="enable-background:new 0 0 841.9 595.3;" xml:space="preserve">
<style type="text/css">
	.st0{fill:#FFFFFF;}
	.st1{fill:#DEDEDE;stroke:#494949;stroke-width:0.5;stroke-miterlimit:10;}
	.st2{fill:#DEDEDE;stroke:#494949;stroke-miterlimit:10;}
	.st3{fill:#939598;stroke:#494949;stroke-width:0.5;stroke-miterlimit:10;}
	.st4{opacity:0.8;enable-background:new    ;}
</style>
<g id="background">
	<rect class="st0" width="841.9" height="595.3"/>
</g>
<g id="etc">
	<path class="st1" d="M305.7,118L279,63.3l-73.7,14c0,0-6.3,57-30,128.3s-95,140-95,140L99,374.9c-24.3,10-41,30.3-41,53.7
		c0,33.3,33.6,60.3,75,60.3l551.7,1.4V118H305.7z"/>
	<path class="st1" d="M285.2,120.2l0.5,25.1l-62.8,7.2l-3.2,35.5c53.5,26.5,47.2,77.2,39.3,101.5S197.8,361,197.8,361
		c-63.7-1.8-86.4,16.6-86.4,16.6l-1.1,4c-7.9,3.7-13.8,7.4-18,10.4c-3.1,2.2-5.2,4-6.3,5c-0.9,0.8-2.2,2-3.9,3.6
		c-4,4-9.6,10.4-12.7,18.8c-3.2,8.7-3.7,19.6,2.8,32.2c4.1,7.9,9,13.4,14,17.3l6.1,4c11.8,6.3,22.6,4.9,22.6,4.9h1.7l13.1-0.2
		l14.8-0.3l13.8-0.2l8.7-0.2l2,3.3h467.2v-360H285.2z"/>
	<path class="st1" d="M111.8,378.3l-19.4-30.1c0,0,91.3-90.4,105.5-172.5L212,171l44.9,25l25.9,64l-25.9,58.5l-67.8,63.9
		L111.8,378.3z"/>
	<ellipse class="st1" cx="515.6" cy="261.2" rx="37.9" ry="57.2"/>
	<rect x="590.8" y="142" class="st1" width="33.8" height="62"/>
	<rect x="515.6" y="142" class="st1" width="56.7" height="36.8"/>
	<rect x="515.6" y="139.4" class="st2" width="108.9" height="1.4"/>
	<rect x="172.2" y="434.2" class="st1" width="30.2" height="22.7"/>
	<rect x="172.2" y="458.7" class="st1" width="30.2" height="18"/>
	<rect x="332.3" y="123.2" class="st1" width="40.7" height="22.2"/>
	<rect x="384.5" y="123.2" class="st1" width="40" height="22.2"/>
	<rect x="217.8" y="435.8" class="st1" width="69.5" height="39.2"/>
	<polyline class="st1" points="375.7,465.3 384.3,468 394.1,464.7 	"/>
	<rect x="380.9" y="315.6" class="st2" width="8.1" height="1.5"/>
	<path class="st1" d="M553.4,447.9v27c4.5,0.8,9.2,1.4,14.1,1.9v-28.9H553.4L553.4,447.9z"/>
	<polygon class="st1" points="310,377.5 292.6,357.3 288.6,359.8 302.4,383.4 306.3,390.2 299.6,392.9 297.4,398.5 307.2,401.7 
		321.6,390.9 	"/>
	<polygon class="st1" points="622.8,270.2 591.5,270.2 594,281.2 622.8,281.2 	"/>
	<path class="st1" d="M377.8,282.6l-15.1,12l4.1,4.6c9.4-0.7,11.2-0.8,19.6-1.1v-6L377.8,282.6z"/>
</g>
<g id="rooms">
	<rect id="r3201-3202" x="292.4" y="174.8" class="st3" width="16.2" height="31.1"/>
	<polygon id="r3200-3203" class="st3" points="308.6,174.8 308.6,190.3 308.6,205.9 323.2,205.9 323.2,190.3 323.2,174.8 	"/>
	<rect id="r3204" x="337.2" y="174.8" class="st3" width="14.5" height="15.6"/>
	<rect id="r3205" x="351.7" y="174.8" class="st3" width="15.8" height="15.6"/>
	<rect id="r3206" x="367.4" y="174.8" class="st3" width="15" height="15.6"/>
	<path id="r3124-3125" class="st3" d="M340.9,333.7v-2v-1.2v-10.1c-6.8,1.5-13.7,3.3-20.9,5.6v2.4l27.9,32.6l6.5-4.8L340.9,333.7z"
		/>
	<rect id="r3207" x="382.4" y="174.8" class="st3" width="16.4" height="15.6"/>
	<rect id="r3196" x="382.4" y="190.3" class="st3" width="16.4" height="14.9"/>
	<rect id="r3197" x="367.4" y="190.3" class="st3" width="15" height="14.9"/>
	<rect id="r3198-3199" x="337.2" y="190.3" class="st3" width="30.2" height="14.9"/>
	<rect id="r3195-3208" x="412.3" y="174.8" class="st3" width="14.2" height="30.4"/>
	<rect id="r3194-3209" x="426.6" y="174.8" class="st3" width="14.9" height="30.4"/>
	<rect id="r3211" x="457.4" y="174.8" class="st3" width="21.2" height="15.2"/>
	<polygon id="r3193-3210" class="st3" points="441.5,174.8 441.5,190 441.5,205.2 457.4,205.2 457.4,190 457.4,174.8 	"/>
	<polygon id="r3068-3069" class="st3" points="513,179.8 513,176.5 503.1,176.5 503.1,172.5 496.6,172.5 496.6,181.7 501.9,188.2 
		513,188.2 542.1,188.2 548.6,193.9 553.5,188.8 553.5,179.8 	"/>
	<polygon id="r3070" class="st3" points="553.5,179.8 553.5,188.8 548.6,193.9 560.2,204 572.2,193.2 572.2,179.8 	"/>
	<polygon id="r3128-3130" class="st3" points="332,383.5 343.4,374.5 309.4,335.1 298,343.4 	"/>
	<polygon id="r3031" class="st3" points="345.8,447.9 335.6,444.5 335.6,466.7 342,468.6 351.8,465.4 351.8,447.9 	"/>
	<polygon id="r3030" class="st3" points="351.8,447.9 351.8,465.4 364.4,461.4 374.8,465.4 365.8,447.9 	"/>
	<polygon id="r3029" class="st3" points="403.4,447.9 395,465.2 406.4,460.5 420.3,465.3 420.1,447.9 	"/>
	<polygon id="r3032" class="st3" points="319.4,439 319.4,443.2 319.4,443.9 319.4,461.7 335.6,466.7 335.6,444.5 	"/>
	<polygon id="r3034" class="st3" points="254.6,417.2 254.6,433 290.5,433 290.5,429.3 	"/>
	<polygon id="r3036" class="st3" points="226,407.5 226,433 238.3,433 238.3,411.7 	"/>
	<polygon id="r3035" class="st3" points="238.3,411.7 238.3,433 254.6,433 254.6,417.2 	"/>
	<polygon id="r3033" class="st3" points="290.5,429.3 290.5,433 290.5,433.9 290.5,443.2 319.4,443.2 319.4,439 	"/>
	<path id="r3021" class="st3" d="M524.8,447.9v19.6c4.4,1.5,9.2,3,14.4,4.3v-23.9H524.8L524.8,447.9z"/>
	<path id="r3020" class="st3" d="M539.3,447.9v23.9c4.4,1.1,9.2,2.2,14.2,3.1v-27H539.3L539.3,447.9z"/>
	<path id="r3017" class="st3" d="M583.3,447.9v29.8c2.7,0,5.5,0,8.3-0.1v-17.9h8.4v-11.9h-16.7V447.9z"/>
	<path id="r3018" class="st3" d="M567.5,447.9v28.9c5.1,0.5,10.3,0.8,15.8,0.9v-29.8H567.5z"/>
	<polygon id="r3026-3027-3028" class="st3" points="448.8,447.9 434.3,447.9 420.1,447.9 420.3,465.3 428,468 434.3,466 
		448.6,461.4 448.8,461.4 464.5,466.6 464.5,447.9 	"/>
	<path id="r3022" class="st3" d="M510.7,447.9V462c4,1.8,8.7,3.7,14.1,5.6V448L510.7,447.9L510.7,447.9z"/>
	<polygon id="r3025" class="st3" points="464.5,447.9 464.5,466.6 470,468.4 477.7,465.8 477.7,447.9 	"/>
	<path id="r3023" class="st3" d="M491.1,447.9v13.4l4.1-7.4c0,0,5.5,3.6,15.5,8.1v-14.1H491.1z"/>
	<polygon id="r3024" class="st3" points="477.7,447.9 477.7,465.8 491,461.5 491.1,461.3 491.1,447.9 	"/>
	<polygon id="r3401" class="st3" points="377,439.5 385.3,434.8 393.5,439.5 393.5,449 385.3,453.7 377,449 	"/>
	<path id="r3074-3075_1_" class="st3" d="M570,344.5"/>
	<polygon id="r3088" class="st3" points="489.3,349.2 477,357.5 453.3,384.2 463.4,393.1 483.5,362.6 494.1,367.5 501.6,360.1 	"/>
	<polygon id="r3091-3092" class="st3" points="544.6,398 535.6,390.1 535.6,390.1 525.4,381.1 507.7,398.3 513.3,403.3 517.3,406.8 
		527,415.3 545.9,399.1 	"/>
	<polygon id="r3093" class="st3" points="545.9,399.1 527,415.3 529.2,417.2 529.2,421.2 543.3,421.2 543.3,415.9 554,406.3 	"/>
	<polygon id="r3101" class="st3" points="496.6,389.2 496.6,389.2 486.4,380.7 473.8,402.3 484.5,411.7 484.5,411.7 500.6,392.5 	
		"/>
	<polygon id="r3100" class="st3" points="513.3,403.3 510.9,401.1 500.6,392.5 484.5,411.7 495.6,421.4 	"/>
	<polygon id="r3089" class="st3" points="514,371.1 501.6,360.1 494.1,367.5 486.4,380.7 496.6,389.2 	"/>
	<polygon id="r3090" class="st3" points="507.7,398.3 525.4,381.1 515.1,372 514,371.1 496.6,389.2 500.6,392.5 500.6,392.5 
		510.9,401.1 	"/>
	<rect id="r3096" x="543.3" y="421.2" class="st3" width="14.9" height="11.7"/>
	<polygon id="r3094" class="st3" points="554,406.3 543.3,415.9 543.3,421.2 558.2,421.2 564.5,415.5 	"/>
	<polygon id="r3095" class="st3" points="564.5,415.5 558.2,421.2 558.2,421.2 558.2,432.9 573.3,432.9 578.3,427.6 	"/>
	<polygon id="r3097-3098" class="st3" points="529.2,421.2 529.2,417.2 524.8,413.4 514.9,421.4 514.9,432.9 529.2,432.9 
		543.3,432.9 543.3,421.2 	"/>
	<polygon id="r3099" class="st3" points="524.8,413.4 513.3,403.3 495.6,421.4 508.6,432.9 514.9,432.9 514.9,421.4 	"/>
	<polygon id="r3109-3111" class="st3" points="460.8,335.1 450.6,346.6 439.3,359.5 428.1,372.1 438.5,380 449.2,367.8 460.7,354.7 
		470.8,343.4 	"/>
	<polygon id="r3104" class="st3" points="456.4,405.8 446.5,397.2 441.9,397.2 434.2,406.1 447.5,415.8 460.5,425.2 467.9,415.8 	
		"/>
	<polygon id="r3108" class="st3" points="447.5,415.8 434.2,406.1 423.9,417.9 437.2,427.2 	"/>
	<polygon id="r3107" class="st3" points="423.9,417.9 414.4,429 418.3,432.9 437.2,432.9 437.2,427.2 	"/>
	<polygon id="r3105" class="st3" points="485.4,430.9 467.9,415.8 460.5,425.2 460.5,432.9 483.5,432.9 	"/>
	<polygon id="r3106" class="st3" points="447.5,415.8 437.2,427.2 437.2,432.9 460.5,432.9 460.5,425.2 	"/>
	<path id="r3143" class="st3" d="M259.1,376L259.1,376l11.1,9.4l11-7l-6.2-10.2l-3.4,2.1l-9.9-12.8c-4,3.1-8.2,6.7-12.5,10.4
		L259.1,376L259.1,376z"/>
	<path id="r3142" class="st3" d="M259.1,376l-9.8-8.3c-3.6,3.1-7.1,6.4-10.5,9.8l14.6,13.3L259.1,376z"/>
	<path id="r3131-133-3144" class="st3" d="M275,368.1L275,368.1L275,368.1l13.6-8.3l0,0l0,0l4-2.4l-12.1-14c0,0-8.3,5.7-18.7,14
		l9.9,12.8L275,368.1z"/>
	<polygon id="r3134" class="st3" points="334.9,406.3 321.6,390.9 307.2,401.7 333.3,410 	"/>
	<polygon id="r3140" class="st3" points="259.1,376 253.5,390.8 253.5,390.8 253.5,390.8 249.9,400 263.7,404.5 270.3,385.3 	"/>
	<polygon id="r3138" class="st3" points="297.4,398.5 291.5,413.5 310.5,419.6 316.1,404.5 	"/>
	<polygon id="r3137" class="st3" points="316.1,404.5 310.5,419.6 326.9,424.9 333.3,410 	"/>
	<polygon id="r3136" class="st3" points="331.1,415.2 326.9,424.9 351.5,432.9 353.1,431.2 	"/>
	<polygon id="r3135" class="st3" points="354.9,429.4 334.9,406.3 333.3,410 331.1,415.2 353.1,431.2 	"/>
	<path id="r3141" class="st3" d="M238.9,377.5c-4,4-7.6,8-10.6,12v3.5l21.7,7l3.5-9.2L238.9,377.5z"/>
	<polygon id="r3139" class="st3" points="281.2,378.3 270.3,385.3 263.7,404.5 279.6,409.6 288.6,390.5 	"/>
	<path id="r3127" class="st3" d="M379.9,330.9v-15.4c-6,0.2-12.3,0.7-18.9,1.5v13.7L379.9,330.9z"/>
	<path id="r3126" class="st3" d="M361,330.7V317c-6.5,0.8-13.2,1.9-20.1,3.4v10.1L361,330.7z"/>
	<path id="r3112-3113" class="st3" d="M408.9,316.6c-5.7-0.6-11.9-1-18.5-1.1v15.6l18.5,0.2l19.2,0.2v-11.9
		C422.6,318.4,416.1,317.3,408.9,316.6z"/>
	<path id="r3114-3116" class="st3" d="M428.1,319.6v11.9l1.8,2.8l-16.8,27.9h-0.2h-20.2l-0.2,10.6h16.4v0.1h2.7l5.9-6.8l21.7-25
		l11.4-13.1v-2C450.5,326,442.4,322.5,428.1,319.6z"/>
	<polygon id="r3122-3123" class="st3" points="361,393.1 361,372.7 377.6,372.7 377.6,393.1 392.5,393.1 392.5,372.7 392.7,362.1 
		358,362.1 354.4,356.2 347.9,361 359.1,374 347.8,383 356.9,393.1 	"/>
	<polygon id="r3121" class="st3" points="361,393.1 356.9,393.1 347.8,383 339.4,389.7 360,413.2 361,412.3 	"/>
	<polygon id="r3117-3118" class="st3" points="421.9,382.4 410.9,373.6 411.6,372.8 408.9,372.8 408.9,393.1 408.9,412.3 
		409.8,413.4 430.4,389.1 	"/>
	<polygon id="r3119" class="st3" points="409.8,413.4 408.9,412.3 408.9,412.4 392.5,412.4 392.5,393.1 384.8,393.1 384.8,423.6 
		401.1,423.6 	"/>
	<polygon id="r3120" class="st3" points="377.6,393.1 377.6,412.4 361,412.4 361,412.3 360,413.2 369.1,423.6 384.8,423.6 
		384.8,393.1 	"/>
	<path id="r3054-3055-3056-3057-3058" class="st3" d="M291.5,123.2c0,0-4.8-38-45.1-35.3s-34.5,49.2-34.5,49.2H206l-8.2,38.7
		l22,12.3l19.8-23.3l19.2-9.1l34.7,4.2h22.4v-36.7L291.5,123.2L291.5,123.2z"/>
	<polygon id="r3059" class="st3" points="332.3,143.4 332.3,123.2 315.9,123.2 315.9,159.8 332.3,159.8 332.3,145.3 	"/>
	<rect id="r3061" x="354.5" y="145.3" class="st3" width="18.5" height="14.5"/>
	<rect id="r3060" x="332.3" y="145.3" class="st3" width="22.2" height="14.5"/>
	<polygon id="r3064" class="st3" points="429.4,122.2 424.5,125.4 424.5,143.9 424.5,145.3 424.5,159.8 446.9,159.8 446.9,124.6 	
		"/>
	<polygon id="r3062-3063" class="st3" points="404.5,145.3 384.5,145.3 384.5,159.8 404.5,159.8 424.5,159.8 424.5,145.3 	"/>
	<polygon id="r3067" class="st3" points="501.2,125.7 483.2,122.8 483.2,159.8 501.2,159.8 	"/>
	<polygon id="r3066" class="st3" points="479.4,122.2 465.1,124.3 465.1,159.8 483.2,159.8 483.2,122.8 	"/>
	<polygon id="r3065" class="st3" points="455.4,125.8 446.9,124.6 446.9,159.8 465.1,159.8 465.1,124.3 	"/>
	<polygon id="r3001" class="st3" points="603.8,218.7 589.4,218.7 581.8,226.8 583.3,233.8 603.8,233.8 	"/>
	<polygon id="r3002" class="st3" points="622.8,242.5 614,233.8 603.8,233.8 583.3,233.8 586.3,246.8 622.8,246.8 	"/>
	<polygon id="r3003-3004" class="st3" points="622.8,246.8 586.3,246.8 591.5,270.2 622.8,270.2 	"/>
	<polygon id="r3007-3008" class="st3" points="597,294.7 597,294.8 597,309.4 597,321.8 622.8,321.8 622.8,309.4 622.8,294.7 	"/>
	<polygon id="r3176" class="st3" points="384.1,242.8 375.4,233.1 361.2,243.4 370.3,253.7 	"/>
	<polygon id="r3175" class="st3" points="366.3,222.9 352.7,233.8 361.2,243.4 375.4,233.1 	"/>
	<polygon id="r3174" class="st3" points="364.9,221.2 346.5,221.4 344,223.9 352.7,233.8 366.3,222.9 	"/>
	<polygon id="r3179" class="st3" points="401.8,262.7 388.1,273.8 396.9,283.7 410.8,272.9 	"/>
	<path id="r3181" class="st3" d="M419.8,283l-13.6,11.2l3.3,3.7c7.2,0.3,13.7,1,18.6,2.2l4.5-2.7L419.8,283z"/>
	<polygon id="r3180" class="st3" points="410.8,272.9 396.9,283.7 406.3,294.2 419.8,283 	"/>
	<polygon id="r3177-3178" class="st3" points="393.2,253 384.1,242.8 370.3,253.7 379.4,263.9 388.1,273.8 401.8,262.7 	"/>
	<polygon id="r3172" class="st3" points="326,253.9 341.2,241.9 332.7,232.6 317.2,244.2 	"/>
	<polygon id="r3173" class="st3" points="332.7,232.6 322.8,221.5 312.1,221.6 304.4,228 302.8,244.2 317.2,244.2 	"/>
	<polygon id="r3171" class="st3" points="335.6,264.6 350.8,252.6 341.2,241.9 326,253.9 	"/>
	<polygon id="r3169" class="st3" points="354.1,285 369.2,273 360.1,263 345,275 	"/>
	<polygon id="r3170" class="st3" points="345,275 360.1,263 350.8,252.6 335.6,264.6 	"/>
	<polygon id="r3168" class="st3" points="369.2,273 354.1,285 362.6,294.6 377.8,282.6 	"/>
	<path id="r3166" class="st3" d="M337.5,298.2l2.9,3.3c0,0,11.4-1.3,26.4-2.4L354.1,285L337.5,298.2z"/>
	<polygon id="r3164" class="st3" points="335.6,264.6 319.4,277.5 328.6,288 345,275 	"/>
	<polygon id="r3163" class="st3" points="326,253.9 310,266.7 319.4,277.5 335.6,264.6 	"/>
	<polygon id="r3165" class="st3" points="345,275 328.6,288 337.5,298.2 354.1,285 	"/>
	<polygon id="r3189" class="st3" points="425.9,242.5 439.5,231.9 430.6,222.8 417.2,233.2 	"/>
	<polygon id="r3190" class="st3" points="435.8,253.2 449.8,242.2 439.5,231.9 425.9,242.5 	"/>
	<polygon id="r3187" class="st3" points="405.9,221 389.3,221.1 388.1,222.2 397.3,232.4 408.4,223.7 	"/>
	<polygon id="r3188" class="st3" points="408.4,223.7 408.4,223.7 417.2,233.2 430.6,222.8 428.6,220.8 405.9,221 	"/>
	<path id="r3182" class="st3" d="M456.1,283.2c0,0-2.6-8.9-3.1-20.5h-8.3l-11.5,9.8l14.3,16L456.1,283.2z"/>
	<polygon id="r3183" class="st3" points="435.8,253.2 424.1,262.4 433.1,272.5 444.7,262.7 	"/>
	<polygon id="r3185-3186" class="st3" points="417.2,233.2 408.4,223.7 397.3,232.4 405.9,242 414.4,251.5 425.9,242.5 	"/>
	<polygon id="r3184" class="st3" points="425.9,242.5 414.4,251.5 424.1,262.4 435.8,253.2 	"/>
	<path id="r3406" class="st3" d="M555.5,281.8c0,0,1.9-10.8,2.7-21.1h9.1c0,0,0.3,14.5-3.3,23.3L555.5,281.8z"/>
	<path id="r3405" class="st3" d="M557.8,255.6c0,0-1.1-10.9-3.1-21l8.7-2.4c0,0,4.9,14,3.8,23.5L557.8,255.6L557.8,255.6z"/>
	<polygon id="r3037" class="st3" points="226,433 215.9,433 215.9,420.3 211.6,420.3 211.6,416.3 226,407.5 	"/>
	<polygon id="r3043" class="st3" points="129.8,477.4 119.2,454.9 108,459.4 116.7,477.6 	"/>
	<polygon id="r3041-3042" class="st3" points="143.6,444.9 131.5,449.9 119.2,454.9 129.8,477.4 144.6,477.1 158.4,476.8 	"/>
	<g id="r3038-3040">
		<polygon class="st3" points="174.1,433 203.1,433 203.1,420.9 		"/>
		<polygon class="st3" points="143.6,444.9 158.4,476.8 167.5,476.7 167.5,458.7 170.2,458.7 170.2,434.2 156,439.9 		"/>
	</g>
	<path id="r3044" class="st3" d="M115,477.6h1.7l-8.7-18.2L96.7,464l-4.3,8.8C104.2,479,115,477.6,115,477.6z"/>
	<path id="r3045-3052" class="st3" d="M175.2,366c-44.3,2.7-71.1,17.5-82.9,25.9c-3.1,2.2-5.2,4-6.3,5c-0.9,0.8-2.2,2-3.9,3.6l0,0
		c-4,4-9.6,10.4-12.7,18.8l4.2,1.7v-0.1l15.3-6.1l0,0l11.7-4.6l72.5-28.7l5-8.6L175.2,366z"/>
	<path id="r3402" class="st3" d="M72.2,451.5c4.1,7.9,9,13.4,14,17.3l4.7-8.6L73.7,421l-4.2-1.7C66.3,428,65.7,438.9,72.2,451.5z"/>
	<polygon id="r3417-3420" class="st3" points="119.4,428.4 115.2,417.7 103.4,422.3 103.4,422.3 91.5,427 95.7,437.7 107.6,433 
		107.6,433 	"/>
	<polygon id="r3418-3419" class="st3" points="119.4,428.3 104.6,434.2 104.6,434.2 95.7,437.7 99.9,448.3 111.8,443.7 123.6,439 	
		"/>
	
		<rect id="r3413" x="141.7" y="405" transform="matrix(0.9307 -0.3658 0.3658 0.9307 -139.9872 82.6266)" class="st3" width="12.7" height="11.5"/>
	
		<rect id="r3416" x="129.8" y="409.7" transform="matrix(0.9307 -0.3658 0.3658 0.9307 -142.537 78.6074)" class="st3" width="12.7" height="11.5"/>
	
		<rect id="r3415" x="134" y="420.3" transform="matrix(0.9307 -0.3658 0.3658 0.9307 -146.1231 80.8693)" class="st3" width="12.7" height="11.5"/>
	
		<rect id="r3414" x="145.8" y="415.7" transform="matrix(0.9307 -0.3658 0.3658 0.9307 -143.6269 84.8756)" class="st3" width="12.7" height="11.5"/>
	
		<rect id="r3409" x="178.5" y="390.5" transform="matrix(0.9307 -0.3658 0.3658 0.9307 -132.1422 95.0882)" class="st3" width="12.7" height="11.5"/>
	
		<rect id="r3412" x="166.6" y="395.2" transform="matrix(0.9307 -0.3658 0.3658 0.9307 -134.6848 91.0631)" class="st3" width="12.7" height="11.5"/>
	<polygon id="r3410-3411" class="st3" points="197.1,409.8 192.9,399.2 181.1,403.8 181,403.9 169.2,408.5 173.4,419.2 178.5,417.1 
			"/>
	<g id="r3159-3160">
		<path class="st3" d="M314.9,293.1h-22.5l-4.5,12.1l5.9,7.1c0,0,25.2-7.4,29.1-8v-2.4L314.9,293.1z"/>
		
			<rect x="263.7" y="281.6" transform="matrix(0.3671 -0.9302 0.9302 0.3671 -89.3381 441.9013)" class="st3" width="32.7" height="10.1"/>
	</g>
	<polygon id="r3161" class="st3" points="300.1,276.8 298,277.8 292.3,293.1 314.9,293.1 	"/>
	<polygon id="r3009-3016-3072-3086" class="st3" points="622.8,437 622.8,321.8 576.3,318.5 541.8,325.4 524.3,331.7 503.5,340.9 
		503.5,343.4 597,429.8 605,437 	"/>
	<path id="_x32_-spot-studio" class="st3" d="M444.7,262.7h8.3c-0.2-5.1,0-10.7,1-16.3l-4.2-4.2l-14,11L444.7,262.7z"/>
	<path id="nooyoo" class="st3" d="M483.6,230.7l-7.8-2.9c0,0-5.2,8.4-6.2,28.6h8.3C478.4,247,480.4,238.3,483.6,230.7z"/>
	<path id="glassaholic" class="st3" d="M477.8,261.7l-8.2-0.4c0.5,14.9,5.9,28.3,5.9,28.3l6.4-2.2
		C479.3,279.6,477.8,270.9,477.8,261.7z"/>
	<polygon id="r3092" class="st3" points="457.4,205.2 467.2,205.2 478.7,195.4 478.7,190 457.4,190 	"/>
	<polygon id="r3162" class="st3" points="317.2,244.2 302.8,244.2 301.6,257.1 310,266.7 326,253.9 	"/>
	<polygon id="r3006" class="st3" points="622.8,281.2 594,281.2 597,294.7 622.8,294.7 	"/>
</g>
<g id="signs">
	<rect id="elevator" x="603.8" y="163.9" class="st4" width="14.8" height="14.8"/>
	<g id="handicapped-toilet">
		<rect x="546.6" y="150.2" class="st4" width="14.8" height="14.8"/>
		<rect x="254.4" y="447.5" class="st4" width="14.8" height="14.8"/>
	</g>
	<g id="toilet">
		<rect x="527.5" y="150.2" class="st4" width="14.8" height="14.8"/>
		<rect x="234.5" y="447.9" class="st4" width="14.8" height="14.8"/>
	</g>
	<g id="lift">
		<rect x="484.8" y="205.9" class="st4" width="14.8" height="14.8"/>
		<rect x="489.3" y="294.9" class="st4" width="14.8" height="14.8"/>
		<rect x="202.3" y="356.2" class="st4" width="14.8" height="14.8"/>
		<rect x="269.8" y="249" class="st4" width="14.8" height="14.8"/>
		<rect x="257.9" y="220.4" class="st4" width="14.8" height="14.8"/>
	</g>
	<g id="fire-exit">
		<rect x="517.4" y="122.8" class="st4" width="14.8" height="14.8"/>
		<rect x="183.4" y="462.3" class="st4" width="14.8" height="14.8"/>
		<rect x="287.3" y="375" class="st4" width="14.8" height="14.8"/>
		<rect x="358.5" y="122.8" class="st4" width="14.8" height="14.8"/>
		<rect x="471.3" y="364.9" class="st4" width="14.8" height="14.8"/>
	</g>
	<g id="entrance">
		<rect x="615.3" y="208.9" class="st4" width="14.8" height="14.8"/>
		<rect x="616.1" y="445.6" class="st4" width="14.8" height="14.8"/>
	</g>
	<rect id="parking" x="652.8" y="297.6" class="st4" width="14.8" height="14.8"/>
	<rect id="handicapped-parking" x="652.8" y="275.8" class="st4" width="14.8" height="14.8"/>
</g>
</svg>
