<?xml version="1.0" encoding="utf-8"?>
<!-- Generator: Adobe Illustrator 16.0.0, SVG Export Plug-In . SVG Version: 6.00 Build 0)  -->
<!DOCTYPE svg PUBLIC "-//W3C//DTD SVG 1.1//EN" "http://www.w3.org/Graphics/SVG/1.1/DTD/svg11.dtd">
<svg version="1.1" id="Layer_1" xmlns="http://www.w3.org/2000/svg" xmlns:xlink="http://www.w3.org/1999/xlink" x="0px" y="0px"
	 width="841.89px" height="595.281px" viewBox="0 0 841.89 595.281" enable-background="new 0 0 841.89 595.281"
	 xml:space="preserve">
<g id="background">
	<rect fill="#FFFFFF" width="841.89" height="595.281"/>
</g>
<g id="etc">
	<polygon fill="#DEDEDE" stroke="#494949" stroke-width="0.5" stroke-miterlimit="10" points="18.667,488.318 694.667,488.318 
		694.667,124.116 326.667,124.116 326.667,75.299 217.333,75.299 	"/>
	<polygon fill="#DEDEDE" stroke="#494949" stroke-width="0.5" stroke-miterlimit="10" points="223.667,84.131 317.833,84.131 
		317.833,133.75 676.5,133.75 676.5,207.03 582.667,207.03 582.667,475.07 34.333,477.076 	"/>
	<polygon fill="#DEDEDE" stroke="#494949" stroke-width="0.5" stroke-miterlimit="10" points="427.25,167.473 427.25,136.011 
		408.625,136.037 408.625,167.473 	"/>
	
	<rect x="350.5" y="163.7" fill="#DEDEDE" stroke="#494949" stroke-width="0.5" stroke-miterlimit="10" width="16.417" height="2.489"/>

	<rect x="496.001" y="136.011" fill="#DEDEDE" stroke="#494949" stroke-width="0.5" stroke-miterlimit="10" width="118.332" height="25.04"/>

	<rect x="638.167" y="140.495" fill="#DEDEDE" stroke="#494949" stroke-width="0.5" stroke-miterlimit="10" width="35.166" height="60.219"/>

	<rect x="202.5" y="455.56" fill="#DEDEDE" stroke="#494949" stroke-width="0.5" stroke-miterlimit="10" width="36.167" height="21.519"/>

	<rect x="251.25" y="417.822" fill="#DEDEDE" stroke="#494949" stroke-width="0.5" stroke-miterlimit="10" width="103.101" height="57.248"/>
	<polygon fill="#DEDEDE" stroke="#494949" stroke-miterlimit="10" points="239.914,399.346 231.597,403.6 230.503,401.613 
		238.82,397.359 	"/>
	<path fill="#DEDEDE" stroke="#494949" stroke-width="0.5" stroke-miterlimit="10" d="M285.63,340.814
		c5.519,8.846,0.016,21.795-12.292,28.924c-12.309,7.131-26.761,5.74-32.28-3.104c-5.52-8.846-0.016-21.797,12.293-28.926
		C265.66,330.578,280.111,331.971,285.63,340.814z"/>
	<rect x="615.5" y="137" fill="#DEDEDE" stroke="#494949" stroke-miterlimit="10" width="57.834" height="1.875"/>
</g>
<g id="rooms">
	<polygon id="lg021-022" fill="#939598" stroke="#494949" stroke-width="0.5" stroke-miterlimit="10" points="238.615,193.639 
		182.711,169.129 161.119,213.943 215.019,238.659 	"/>
	<polygon id="lg023-024" fill="#939598" stroke="#494949" stroke-width="0.5" stroke-miterlimit="10" points="256.601,159.323 
		199.193,134.924 182.711,169.129 238.615,193.639 	"/>
	<polygon id="lg025-026-027-028" fill="#939598" stroke="#494949" stroke-width="0.5" stroke-miterlimit="10" points="257,158.561 
		317,167.473 317.833,167.473 317.833,136.16 317.833,84.131 223.667,84.131 199.193,134.924 256.601,159.323 	"/>
	<polygon id="lg029" fill="#939598" stroke="#494949" stroke-width="0.5" stroke-miterlimit="10" points="349.25,167.473 
		349.25,136.117 317.833,136.16 317.833,167.473 	"/>
	<polygon id="lg030" fill="#939598" stroke="#494949" stroke-width="0.5" stroke-miterlimit="10" points="388,167.473 388,136.064 
		368.25,136.091 368.25,167.473 	"/>
	<polygon id="lg031" fill="#939598" stroke="#494949" stroke-width="0.5" stroke-miterlimit="10" points="408.625,167.473 
		408.625,136.037 388,136.064 388,167.473 	"/>
	<polygon id="lg009" fill="#939598" stroke="#494949" stroke-width="0.5" stroke-miterlimit="10" points="251.667,417.822 
		310.667,417.822 310.667,394.216 295.501,367.625 239.423,396.348 	"/>
	<polygon id="lg007-008" fill="#939598" stroke="#494949" stroke-width="0.5" stroke-miterlimit="10" points="335.563,333.091 
		335.25,333.193 309.4,359.863 313.5,366.314 322.625,361.498 357.25,417.822 400,417.822 400,371.253 362.125,371.253 	"/>
	<polygon id="lg006" fill="#939598" stroke="#494949" stroke-width="0.5" stroke-miterlimit="10" points="362.125,371.253 
		400,371.253 400,366.436 371.44,321.253 335.563,333.091 	"/>
	<polygon id="lg016-017" fill="#939598" stroke="#494949" stroke-width="0.5" stroke-miterlimit="10" points="173.46,317.949 
		122.529,294.034 102.18,336.268 150.816,361.152 	"/>
	<polygon id="lg013" fill="#939598" stroke="#494949" stroke-width="0.5" stroke-miterlimit="10" points="118,423.763 
		118.084,423.605 60.099,423.605 34.333,477.076 140.5,477.076 140.5,446.634 	"/>
	<polygon id="lg011-012" fill="#939598" stroke="#494949" stroke-width="0.5" stroke-miterlimit="10" points="140.75,446.886 
		140.5,446.634 140.5,477.076 202.5,477.076 202.5,415.257 	"/>
	<polygon id="lg014" fill="#939598" stroke="#494949" stroke-width="0.5" stroke-miterlimit="10" points="133.137,394.882 
		84.657,372.632 60.099,423.605 118.084,423.605 	"/>
	<polygon id="lg020b" fill="#939598" stroke="#494949" stroke-width="0.5" stroke-miterlimit="10" points="215.019,238.659 
		161.119,213.943 150.478,236.029 203.688,260.276 	"/>
	<polygon id="lg019" fill="#939598" stroke="#494949" stroke-width="0.5" stroke-miterlimit="10" points="193.355,279.99 
		141.071,255.551 131.148,276.145 182.795,300.139 	"/>
	<polygon id="lg020a" fill="#939598" stroke="#494949" stroke-width="0.5" stroke-miterlimit="10" points="203.688,260.276 
		150.478,236.029 141.071,255.551 193.355,279.99 	"/>
	<polygon id="lg018" fill="#939598" stroke="#494949" stroke-width="0.5" stroke-miterlimit="10" points="182.795,300.139 
		131.148,276.145 122.529,294.034 173.46,317.949 	"/>
	<polygon id="lg015" fill="#939598" stroke="#494949" stroke-width="0.5" stroke-miterlimit="10" points="150.816,361.152 
		102.18,336.268 84.657,372.632 133.137,394.882 	"/>
	<polygon id="gourmet-market" fill="#939598" stroke="#494949" stroke-width="0.5" stroke-miterlimit="10" points="371.44,321.253 
		378.923,333.091 447.167,333.091 447.167,479.003 582.667,479.003 582.667,228.816 550.333,228.816 550.333,162.977 494,162.977 
		494,136.117 427.25,136.011 427.25,179.758 372,179.758 	"/>
	<rect id="lg401a" x="569.667" y="181.284" fill="#939598" stroke="#494949" stroke-width="0.5" stroke-miterlimit="10" width="22.666" height="20.233"/>
	<rect id="lg401b" x="592.333" y="181.284" fill="#939598" stroke="#494949" stroke-width="0.5" stroke-miterlimit="10" width="32.834" height="20.233"/>
	<polygon id="lg010" fill="#939598" stroke="#494949" stroke-width="0.5" stroke-miterlimit="10" points="228.851,401.762 
		202.5,415.257 202.5,455.56 238.667,455.56 238.667,418.787 	"/>
	<polygon id="lg403" fill="#939598" stroke="#494949" stroke-width="0.5" stroke-miterlimit="10" points="226.057,314.992 
		200.776,337.598 190.006,326.416 215.287,303.811 	"/>
	<polygon id="lg402" fill="#939598" stroke="#494949" stroke-width="0.5" stroke-miterlimit="10" points="306.1,343.891 
		294.866,350.809 277.1,324.031 288.333,317.111 	"/>
</g>
<g id="signs">
	<g id="escalator">
		<rect x="238.667" y="356.441" opacity="0.8" enable-background="new    " width="14.811" height="14.813"/>
		<rect x="215.692" y="333.96" opacity="0.8" enable-background="new    " width="14.811" height="14.812"/>
	</g>
	<rect id="parking" x="595.066" y="321.253" opacity="0.8" enable-background="new    " width="14.811" height="14.812"/>
	<rect id="handicapped-parking" x="595.066" y="296.405" opacity="0.8" enable-background="new    " width="14.811" height="14.811"/>
	<rect id="entrance" x="561.513" y="207.03" opacity="0.8" enable-background="new    " width="14.811" height="14.811"/>
	<rect id="lift" x="652.888" y="162.405" opacity="0.8" enable-background="new    " width="14.811" height="14.811"/>
	<g id="toilet">
		<rect x="309.4" y="427.246" opacity="0.8" enable-background="new    " width="14.811" height="14.811"/>
		<rect x="533.638" y="138.155" opacity="0.8" enable-background="new    " width="14.811" height="14.811"/>
	</g>
	<g id="fire-exit">
		<rect x="215.692" y="458.914" opacity="0.8" enable-background="new    " width="14.811" height="14.811"/>
		<rect x="343.898" y="393.074" opacity="0.8" enable-background="new    " width="14.811" height="14.811"/>
		<rect x="351.303" y="131.261" opacity="0.8" enable-background="new    " width="14.813" height="14.813"/>
	</g>
	<g id="handicapped-toilet">
		<rect x="331.595" y="427.246" opacity="0.8" enable-background="new    " width="14.813" height="14.811"/>
		<rect x="556.167" y="138.155" opacity="0.8" enable-background="new    " width="14.811" height="14.811"/>
	</g>
</g>
</svg>
