<?xml version="1.0" encoding="utf-8"?>
<!-- Generator: Adobe Illustrator 16.0.0, SVG Export Plug-In . SVG Version: 6.00 Build 0)  -->
<!DOCTYPE svg PUBLIC "-//W3C//DTD SVG 1.1//EN" "http://www.w3.org/Graphics/SVG/1.1/DTD/svg11.dtd">
<svg version="1.1" id="Layer_1" xmlns="http://www.w3.org/2000/svg" xmlns:xlink="http://www.w3.org/1999/xlink" x="0px" y="0px"
	 width="1000px" height="1000px" viewBox="0 0 1000 1000" enable-background="new 0 0 1000 1000" xml:space="preserve">
<g id="background">
	<rect y="146.455" fill="#FFFFFF" width="1000" height="707.091"/>
</g>
<g id="etc">
	<path fill="#DEDEDE" stroke="#494949" stroke-width="0.5" stroke-miterlimit="10" d="M363.107,286.614l-31.714-64.972
		l-87.541,16.629c0,0-7.483,67.704-35.633,152.394c-28.151,84.689-112.84,166.29-112.84,166.29l22.212,34.803
		c-28.863,11.878-48.7,35.99-48.7,63.784c0,39.554,39.91,71.624,89.084,71.624l795.819,1.663V286.614H363.107z"/>
	<path fill="#DEDEDE" stroke="#494949" stroke-width="0.5" stroke-miterlimit="10" d="M951.063,289.821H345.646
		c-1.068-4.989-4.275-15.323-11.996-24.112c-7.959-8.908-20.668-16.273-40.979-14.847c-47.987,3.326-40.979,58.439-40.979,58.439
		h-7.008l-9.027,42.523l3.563,1.069l-26.25,67.585l-64.022,121.511l-20.786,41.572l-1.069,8.909l-0.356-0.594
		c-7.602,3.682-14.61,7.958-20.787,12.59c-16.748,12.472-27.794,27.676-30.764,43.711c-0.832,4.632-1.069,9.384-0.475,14.135
		c1.069,8.314,4.276,15.916,9.502,22.806c3.919,5.227,8.79,9.978,14.729,14.253c7.839,5.702,17.342,10.453,27.913,14.017
		c20.786,7.008,46.086,9.502,72.812,6.058c2.019-0.237,4.039-0.594,6.058-0.832v-2.257h745.219V289.821H951.063z"/>
	
		<rect x="394.94" y="292.671" fill="#DEDEDE" stroke="#494949" stroke-width="0.5" stroke-miterlimit="10" width="53.45" height="28.625"/>
	
		<ellipse fill="#DEDEDE" stroke="#494949" stroke-width="0.5" stroke-miterlimit="10" cx="264.165" cy="549.709" rx="36.703" ry="33.021"/>
	<polygon fill="#DEDEDE" stroke="#494949" stroke-width="0.5" stroke-miterlimit="10" points="381.993,565.863 403.967,598.527 
		441.857,577.979 457.062,577.741 469.533,569.545 469.533,562.418 474.878,558.855 454.329,526.785 	"/>
	<polyline fill="#DEDEDE" stroke="#494949" stroke-width="0.5" stroke-miterlimit="10" points="217.722,407.768 237.32,415.251 
		256.919,362.276 238.746,356.456 217.722,408.6 	"/>
	
		<rect x="156.028" y="670.27" transform="matrix(-0.8624 0.5063 -0.5063 -0.8624 645.5465 1178.229)" fill="#DEDEDE" stroke="#494949" stroke-width="0.5" stroke-miterlimit="10" width="13.184" height="13.184"/>
	
		<rect x="161.301" y="611.474" transform="matrix(-0.8624 0.5063 -0.5063 -0.8624 625.6068 1066.0515)" fill="#DEDEDE" stroke="#494949" stroke-width="0.5" stroke-miterlimit="10" width="13.183" height="13.184"/>
	
		<rect x="179.429" y="616.084" transform="matrix(-0.8624 0.5063 -0.5063 -0.8624 661.7023 1065.4581)" fill="#DEDEDE" stroke="#494949" stroke-width="0.5" stroke-miterlimit="10" width="13.183" height="13.183"/>
	
		<rect x="217.345" y="637.053" transform="matrix(-0.8623 0.5064 -0.5064 -0.8623 742.9817 1085.2561)" fill="#DEDEDE" stroke="#494949" stroke-width="0.5" stroke-miterlimit="10" width="13.185" height="13.184"/>
	<polygon id="_x3C_Path_x3E_" fill="#DEDEDE" stroke="#494949" stroke-width="0.5" stroke-miterlimit="10" points="241.715,658.154 
		216.891,671.457 216.891,690.938 241.715,690.938 	"/>
</g>
<g id="rooms">
	<path id="r6027-6029" fill="#939598" stroke="#494949" stroke-width="0.5" stroke-miterlimit="10" d="M292.671,250.861
		c-47.987,3.326-40.979,58.439-40.979,58.439h-7.008l-9.027,42.523l23.281,6.771l1.782-3.92l35.871-32.308l26.726-0.238
		l-24.35-71.386C296.947,250.624,294.81,250.624,292.671,250.861z"/>
	<path id="r6030" fill="#939598" stroke="#494949" stroke-width="0.5" stroke-miterlimit="10" d="M375.223,292.79H346.24
		c0,0-1.9-14.966-12.59-27.082c-7.008-7.958-17.936-14.61-34.684-15.085l24.35,71.386l69.604-0.594v-2.97v-14.847v-11.046
		L375.223,292.79z"/>
	<path id="sf-cinema" fill="#939598" stroke="#494949" stroke-width="0.5" stroke-miterlimit="10" d="M458.843,292.553v44.304
		H329.018v165.34h81.958v41.335l-51.432,28.15l28.27,43.948l53.45-28.863l67.467-2.019l107.97,57.964v69.367h331.75V292.553H458.843
		z M469.533,562.418v7.009l-12.472,8.195l-15.204,0.237l-37.891,20.431l-21.974-32.665l72.336-39.078l20.431,32.189L469.533,562.418
		z"/>
	<polygon id="r6005-6006" fill="#939598" stroke="#494949" stroke-width="0.5" stroke-miterlimit="10" points="310.963,652.69 
		286.257,612.187 255.731,650.434 255.731,665.519 288.633,665.519 	"/>
	<polygon id="r6003-6004" fill="#939598" stroke="#494949" stroke-width="0.5" stroke-miterlimit="10" points="333.412,586.056 
		286.614,611.712 286.257,612.187 310.963,652.69 288.633,665.519 255.731,665.519 255.731,712.08 359.068,712.08 359.068,626.321 	
		"/>
	<polygon id="a6002-6m001" fill="#939598" stroke="#494949" stroke-width="0.5" stroke-miterlimit="10" points="508.73,584.749 
		441.264,586.768 387.813,615.631 359.544,571.683 333.412,586.056 359.068,626.321 359.068,712.08 616.7,712.08 616.7,642.713 	"/>
	<path id="r6008-6009" fill="#939598" stroke="#494949" stroke-width="0.5" stroke-miterlimit="10" d="M200.261,680.247
		l-49.649,25.419l-3.207-5.227l-20.549,12.709c20.786,7.008,46.086,9.503,72.812,6.059c2.019-0.238,4.039-0.595,6.058-0.832v-27.557
		h11.166v-19.361L200.261,680.247z"/>
	<path id="r6031" fill="#939598" stroke="#494949" stroke-width="0.5" stroke-miterlimit="10" d="M104.882,632.261l14.016-7.603
		l-12.947-20.311c-16.748,12.472-27.794,27.675-30.764,43.71c-0.832,4.633-1.069,9.384-0.475,14.135
		c1.069,8.314,4.276,15.917,9.502,22.806c3.919,5.227,8.79,9.978,14.729,14.254c7.839,5.701,17.342,10.452,27.913,14.016
		l20.549-12.709L104.882,632.261z"/>
	<path id="r6018" fill="#939598" stroke="#494949" stroke-width="0.5" stroke-miterlimit="10" d="M126.737,591.876
		c-7.602,3.682-14.61,7.958-20.787,12.59l12.947,20.312l19.955-10.809L126.737,591.876z"/>
	
		<rect id="r6427" x="130.925" y="628.501" transform="matrix(-0.8623 0.5065 -0.5065 -0.8623 577.7427 1113.0662)" fill="#939598" stroke="#494949" stroke-width="0.5" stroke-miterlimit="10" width="13.185" height="13.185"/>
	<polygon id="r6421-6422" fill="#939598" stroke="#494949" stroke-width="0.5" stroke-miterlimit="10" points="164.747,642.119 
		158.095,630.716 146.692,637.486 146.573,637.368 135.17,644.02 141.941,655.541 147.405,652.215 147.405,652.215 	"/>
	
		<rect id="r6428" x="142.286" y="621.729" transform="matrix(-0.8623 0.5064 -0.5064 -0.8623 595.438 1094.7273)" fill="#939598" stroke="#494949" stroke-width="0.5" stroke-miterlimit="10" width="13.185" height="13.184"/>
	
		<rect id="r6411" x="149.282" y="658.889" transform="matrix(-0.8622 0.5065 -0.5065 -0.8622 627.344 1160.3322)" fill="#939598" stroke="#494949" stroke-width="0.5" stroke-miterlimit="10" width="13.184" height="13.185"/>
	
		<rect id="r6405" x="167.456" y="663.619" transform="matrix(-0.8623 0.5063 -0.5063 -0.8623 663.494 1160.0254)" fill="#939598" stroke="#494949" stroke-width="0.5" stroke-miterlimit="10" width="13.184" height="13.184"/>
	
		<rect id="r6412" x="160.81" y="652.228" transform="matrix(-0.8623 0.5064 -0.5064 -0.8623 645.3801 1142.146)" fill="#939598" stroke="#494949" stroke-width="0.5" stroke-miterlimit="10" width="13.185" height="13.184"/>
	
		<rect id="r6413" x="179.468" y="641.397" transform="matrix(-0.8623 0.5064 -0.5064 -0.8623 674.6423 1112.5287)" fill="#939598" stroke="#494949" stroke-width="0.5" stroke-miterlimit="10" width="13.185" height="13.185"/>
	<polygon id="r6403-6404" fill="#939598" stroke="#494949" stroke-width="0.5" stroke-miterlimit="10" points="213.208,655.066 
		206.557,643.663 195.035,650.314 183.632,657.085 190.403,668.488 198.836,663.499 	"/>
	
		<rect id="r6414" x="190.885" y="634.756" transform="matrix(-0.8623 0.5064 -0.5064 -0.8623 692.5209 1094.4006)" fill="#939598" stroke="#494949" stroke-width="0.5" stroke-miterlimit="10" width="13.184" height="13.184"/>
	
		<rect id="r6420" x="167.98" y="622.913" transform="matrix(-0.8623 0.5064 -0.5064 -0.8623 643.889 1083.9225)" fill="#939598" stroke="#494949" stroke-width="0.5" stroke-miterlimit="10" width="13.185" height="13.185"/>
	
		<rect id="r6430" x="172.682" y="604.749" transform="matrix(-0.8623 0.5064 -0.5064 -0.8623 643.4457 1047.7148)" fill="#939598" stroke="#494949" stroke-width="0.5" stroke-miterlimit="10" width="13.185" height="13.185"/>
	
		<rect id="r6418" x="198.861" y="606.532" transform="matrix(-0.8624 0.5063 -0.5063 -0.8624 693.0525 1037.8368)" fill="#939598" stroke="#494949" stroke-width="0.5" stroke-miterlimit="10" width="13.185" height="13.185"/>
	
		<rect id="r6417" x="210.277" y="599.86" transform="matrix(-0.8623 0.5065 -0.5065 -0.8623 711.0189 1019.5322)" fill="#939598" stroke="#494949" stroke-width="0.5" stroke-miterlimit="10" width="13.185" height="13.185"/>
	<polygon id="r6431-6432" fill="#939598" stroke="#494949" stroke-width="0.5" stroke-miterlimit="10" points="219.266,597.34 
		212.496,585.937 201.093,592.707 201.093,592.707 189.69,599.358 196.46,610.762 207.863,604.109 207.863,604.109 	"/>
	
		<rect id="r6415" x="210.705" y="625.657" transform="matrix(-0.8623 0.5065 -0.5065 -0.8623 724.8735 1067.3652)" fill="#939598" stroke="#494949" stroke-width="0.5" stroke-miterlimit="10" width="13.185" height="13.185"/>
	
		<rect id="r6401" x="228.774" y="630.399" transform="matrix(-0.8623 0.5064 -0.5064 -0.8623 760.8956 1067.0784)" fill="#939598" stroke="#494949" stroke-width="0.5" stroke-miterlimit="10" width="13.185" height="13.185"/>
	
		<rect id="r6416" x="222.148" y="618.999" transform="matrix(-0.8623 0.5065 -0.5065 -0.8623 742.8099 1049.1699)" fill="#939598" stroke="#494949" stroke-width="0.5" stroke-miterlimit="10" width="13.185" height="13.184"/>
	<path id="r6021" fill="#939598" stroke="#494949" stroke-width="0.5" stroke-miterlimit="10" d="M133.032,535.812l34.802,28.626
		l21.024-14.135l2.495,1.188c0,0,1.425-1.781,3.919-4.988l-50.125-24.35C141.228,526.666,137.189,531.298,133.032,535.812z"/>
	<path id="r6022" fill="#939598" stroke="#494949" stroke-width="0.5" stroke-miterlimit="10" d="M145.029,522.152l50.243,24.35
		c3.682-4.751,9.74-12.828,16.748-22.806l-49.175-23.637C157.382,507.305,151.443,514.788,145.029,522.152z"/>
	<path id="r6020" fill="#939598" stroke="#494949" stroke-width="0.5" stroke-miterlimit="10" d="M118.304,550.896l29.813,26.606
		l19.599-13.065l-34.684-28.626C128.281,540.919,123.411,545.908,118.304,550.896z"/>
	<path id="r6019" fill="#939598" stroke="#494949" stroke-width="0.5" stroke-miterlimit="10" d="M108.089,560.756l18.648,31.12
		l21.499-14.373l-29.813-26.606C114.978,554.223,111.533,557.43,108.089,560.756z"/>
	<path id="r6023" fill="#939598" stroke="#494949" stroke-width="0.5" stroke-miterlimit="10" d="M162.846,500.06l49.175,23.637
		c4.87-7.008,10.215-14.848,15.56-23.399L179,477.61C174.13,484.855,168.666,492.339,162.846,500.06z"/>
	<path id="r6025" fill="#939598" stroke="#494949" stroke-width="0.5" stroke-miterlimit="10" d="M207.744,430.455
		c-3.326,6.177-7.364,13.422-12.234,21.499l46.68,23.993c4.395-7.958,8.433-16.035,11.878-23.993L207.744,430.455z"/>
	<path id="r6026" fill="#939598" stroke="#494949" stroke-width="0.5" stroke-miterlimit="10" d="M263.095,425.822l-44.186-17.698
		c0,0-3.682,8.552-11.165,22.331l46.324,21.499C257.988,442.927,261.076,434.137,263.095,425.822z"/>
	<path id="r6024" fill="#939598" stroke="#494949" stroke-width="0.5" stroke-miterlimit="10" d="M179,477.61l48.581,22.687
		c4.87-7.721,9.858-16.035,14.491-24.469l-46.68-23.993C190.759,459.793,185.295,468.464,179,477.61z"/>
</g>
<g id="signs">
	<rect id="toilet" x="417.39" y="556.36" opacity="0.8" enable-background="new    " width="17.579" height="17.579"/>
	<g id="fire-exit">
		<rect x="423.685" y="290.296" opacity="0.8" enable-background="new    " width="17.579" height="17.579"/>
		<rect x="219.979" y="694.5" opacity="0.8" enable-background="new    " width="17.58" height="17.58"/>
	</g>
	<rect id="handicapped-toilet" x="439.601" y="556.36" opacity="0.8" enable-background="new    " width="17.579" height="17.579"/>
</g>
</svg>
