<?xml version="1.0" encoding="utf-8"?>
<!-- Generator: Adobe Illustrator 16.0.0, SVG Export Plug-In . SVG Version: 6.00 Build 0)  -->
<!DOCTYPE svg PUBLIC "-//W3C//DTD SVG 1.1//EN" "http://www.w3.org/Graphics/SVG/1.1/DTD/svg11.dtd">
<svg version="1.1" id="Layer_1" xmlns="http://www.w3.org/2000/svg" xmlns:xlink="http://www.w3.org/1999/xlink" x="0px" y="0px"
	 width="1000px" height="1000px" viewBox="0 0 1000 1000" enable-background="new 0 0 1000 1000" xml:space="preserve">
<g id="background">
	<rect y="146.455" fill="#FFFFFF" width="1000" height="707.091"/>
</g>
<g id="etc">
	<path fill="#DEDEDE" stroke="#494949" stroke-width="0.5" stroke-miterlimit="10" d="M363.107,286.614l-31.714-64.972
		l-87.541,16.629c0,0-7.483,67.704-35.633,152.394c-28.151,84.689-112.84,166.29-112.84,166.29l22.212,34.803
		c-28.863,11.878-48.7,35.99-48.7,63.784c0,39.554,39.91,71.624,89.084,71.624l655.303,1.663V286.614H363.107z"/>
	<path fill="#DEDEDE" stroke="#494949" stroke-width="0.5" stroke-miterlimit="10" d="M344.934,295.403l9.266,17.936v27.676
		l-28.151,11.046l-0.237,0.119l-21.023,17.342l-19.243,15.916l0,0c-13.541-12.115-28.388-17.104-28.388-17.104l-15.204-5.464
		l-22.449,60.102c14.491,5.939,50.362,20.668,68.536,30.051c23.162,12.116,29.101,31.833,13.541,54.876
		c-15.679,22.925-63.903,67.704-63.903,67.704c-23.875-7.364-49.769-4.632-70.436,0.238l-4.039,11.046l13.185,37.297l0.119,0.237
		l27.319,22.806v16.035v48.462l5.464,5.701H787.86V295.403H344.934z"/>
	
		<ellipse fill="#DEDEDE" stroke="#494949" stroke-width="0.5" stroke-miterlimit="10" cx="615.156" cy="456.824" rx="45.018" ry="68.417"/>
	<path fill="#DEDEDE" stroke="#494949" stroke-width="0.5" stroke-miterlimit="10" d="M500.416,412.163H367.383
		c-20.192,0-36.583,19.242-36.583,42.879v4.989c0,23.756,16.391,42.879,36.583,42.879h31.121v-26.132
		c0,0,3.801-27.675,29.457-27.318c25.656,0.355,28.744,14.847,34.921,21.736c6.176,6.889,16.747,21.023,37.178,18.648
		c20.43-2.376,35.04-16.392,35.158-16.511c1.188-4.157,1.782-8.671,1.782-13.422v-4.988
		C536.881,431.405,520.608,412.163,500.416,412.163z"/>
	
		<rect x="701.39" y="321.653" fill="#DEDEDE" stroke="#494949" stroke-width="0.5" stroke-miterlimit="10" width="41.811" height="71.861"/>
	
		<rect x="612.899" y="315.714" fill="#DEDEDE" stroke="#494949" stroke-width="0.5" stroke-miterlimit="10" width="130.301" height="2.97"/>
	
		<rect x="612.899" y="321.653" fill="#DEDEDE" stroke="#494949" stroke-width="0.5" stroke-miterlimit="10" width="66.754" height="43.117"/>
	
		<rect x="356.574" y="297.897" fill="#DEDEDE" stroke="#494949" stroke-width="0.5" stroke-miterlimit="10" width="63.19" height="24.944"/>
	
		<rect x="205.488" y="665.281" fill="#DEDEDE" stroke="#494949" stroke-width="0.5" stroke-miterlimit="10" width="34.802" height="23.637"/>
	
		<rect x="257.038" y="665.281" fill="#DEDEDE" stroke="#494949" stroke-width="0.5" stroke-miterlimit="10" width="83.027" height="46.917"/>
	<path fill="#DEDEDE" stroke="#494949" stroke-width="0.5" stroke-miterlimit="10" d="M108.683,560.518l19.005,29.102
		c0,0,59.508-29.576,109.871-13.897c0,0,48.343-44.78,63.903-67.704c15.561-22.925,9.621-42.761-13.541-54.876
		c-23.162-12.115-74.95-32.664-74.95-32.664S174.249,517.639,108.683,560.518z"/>
	
		<rect id="r1013" x="707.328" y="593.42" fill="#DEDEDE" stroke="#494949" stroke-width="0.5" stroke-miterlimit="10" width="30.646" height="18.767"/>
	<polygon fill="#DEDEDE" stroke="#494949" stroke-width="0.5" stroke-miterlimit="10" points="378.549,669.2 378.549,675.259 
		378.549,696.401 398.266,702.934 398.266,675.853 	"/>
	<path fill="#DEDEDE" stroke="#494949" stroke-width="0.5" stroke-miterlimit="10" d="M656.61,679.534v33.259
		c6.176,1.306,11.878,2.138,16.985,2.731v-35.871L656.61,679.534L656.61,679.534z"/>
	<polygon fill="#DEDEDE" stroke="#494949" stroke-width="0.5" stroke-miterlimit="10" points="625.728,642.476 646.276,621.451 
		635.824,612.424 615.156,632.973 	"/>
	<polygon fill="#DEDEDE" stroke="#494949" stroke-width="0.5" stroke-miterlimit="10" points="628.222,644.732 628.222,649.127 
		645.207,649.246 645.207,643.9 658.035,631.666 646.276,621.451 625.728,642.476 	"/>
	<polygon fill="#DEDEDE" stroke="#494949" stroke-width="0.5" stroke-miterlimit="10" points="427.842,616.106 422.615,616.106 
		412.281,603.041 401.592,610.999 426.416,639.625 427.842,638.08 	"/>
	
		<rect x="384.725" y="376.648" fill="#DEDEDE" stroke="#494949" stroke-width="0.5" stroke-miterlimit="10" width="16.985" height="17.698"/>
</g>
<g id="rooms">
	<polygon id="r1001" fill="#A7A9AC" stroke="#494949" stroke-width="0.5" stroke-miterlimit="10" points="716.594,411.688 
		699.965,411.688 690.105,421.071 691.888,429.386 716.594,429.386 	"/>
	
		<rect id="r1136" x="367.502" y="359.663" fill="#A7A9AC" stroke="#494949" stroke-width="0.5" stroke-miterlimit="10" width="17.342" height="16.985"/>
	<polygon id="r1143-1148" fill="#A7A9AC" stroke="#494949" stroke-width="0.5" stroke-miterlimit="10" points="506.592,359.663 
		506.592,376.648 506.592,394.465 524.646,394.465 524.646,376.648 524.646,359.663 	"/>
	<polygon id="r1145-1146" fill="#A7A9AC" stroke="#494949" stroke-width="0.5" stroke-miterlimit="10" points="543.77,359.663 
		543.77,376.648 543.77,394.465 554.46,394.465 568.001,382.943 568.001,376.648 568.001,359.663 	"/>
	<polygon id="r1144-1147" fill="#A7A9AC" stroke="#494949" stroke-width="0.5" stroke-miterlimit="10" points="524.646,359.663 
		524.646,376.648 524.646,394.465 543.77,394.465 543.77,376.648 543.77,359.663 	"/>
	<polygon id="r1051-1052" fill="#A7A9AC" stroke="#494949" stroke-width="0.5" stroke-miterlimit="10" points="478.561,301.342 
		454.924,298.967 454.924,325.335 454.924,342.677 504.217,342.677 504.217,297.897 	"/>
	<polygon id="r1053" fill="#A7A9AC" stroke="#494949" stroke-width="0.5" stroke-miterlimit="10" points="506.711,297.541 
		504.217,297.897 504.217,342.677 525.953,342.677 525.953,299.798 	"/>
	<polygon id="r1056-1057" fill="#A7A9AC" stroke="#494949" stroke-width="0.5" stroke-miterlimit="10" points="596.151,301.58 
		569.188,297.541 560.28,298.848 560.28,342.677 596.151,342.677 	"/>
	<polygon id="r1054-1055" fill="#A7A9AC" stroke="#494949" stroke-width="0.5" stroke-miterlimit="10" points="539.969,301.461 
		525.953,299.798 525.953,342.677 560.28,342.677 560.28,298.848 	"/>
	<polygon id="r1141-1150" fill="#A7A9AC" stroke="#494949" stroke-width="0.5" stroke-miterlimit="10" points="454.092,359.663 
		454.092,376.648 454.092,394.465 472.146,394.465 472.146,376.648 472.146,359.663 	"/>
	<g id="r1048-1050-1137">
		<polygon fill="#A7A9AC" stroke="#494949" stroke-width="0.5" stroke-miterlimit="10" points="417.627,325.335 367.502,325.335 
			367.502,342.796 417.627,342.796 417.627,342.677 443.283,342.677 443.283,325.335 		"/>
		
			<rect x="384.725" y="359.663" fill="#A7A9AC" stroke="#494949" stroke-width="0.5" stroke-miterlimit="10" width="16.985" height="16.985"/>
	</g>
	<polygon id="r1139-1152" fill="#A7A9AC" stroke="#494949" stroke-width="0.5" stroke-miterlimit="10" points="417.508,359.663 
		417.508,376.648 417.508,394.465 436.869,394.465 436.869,376.648 436.869,359.663 	"/>
	
		<rect id="r1142-1149" x="488.775" y="359.663" fill="#A7A9AC" stroke="#494949" stroke-width="0.5" stroke-miterlimit="10" width="17.816" height="34.684"/>
	
		<rect id="r1011-1012" x="707.328" y="563.131" fill="#A7A9AC" stroke="#494949" stroke-width="0.5" stroke-miterlimit="10" width="30.646" height="30.289"/>
	
		<rect id="r1010" x="707.328" y="548.402" fill="#A7A9AC" stroke="#494949" stroke-width="0.5" stroke-miterlimit="10" width="30.646" height="14.729"/>
	
		<rect id="r1009" x="707.328" y="532.961" fill="#A7A9AC" stroke="#494949" stroke-width="0.5" stroke-miterlimit="10" width="30.646" height="15.441"/>
	<polygon id="r1016" fill="#A7A9AC" stroke="#494949" stroke-width="0.5" stroke-miterlimit="10" points="707.328,658.629 
		716.475,667.3 737.974,667.3 737.974,649.364 707.328,649.364 	"/>
	
		<rect id="r1014" x="707.328" y="612.187" fill="#A7A9AC" stroke="#494949" stroke-width="0.5" stroke-miterlimit="10" width="30.646" height="18.292"/>
	
		<rect id="r1015" x="707.328" y="630.479" fill="#A7A9AC" stroke="#494949" stroke-width="0.5" stroke-miterlimit="10" width="30.646" height="18.886"/>
	
		<rect id="r1008" x="707.328" y="517.995" fill="#A7A9AC" stroke="#494949" stroke-width="0.5" stroke-miterlimit="10" width="30.646" height="15.085"/>
	<polygon id="r1003" fill="#A7A9AC" stroke="#494949" stroke-width="0.5" stroke-miterlimit="10" points="737.974,444.827 
		695.213,444.827 697.826,457.536 737.974,457.536 	"/>
	<polygon id="r1006-1007" fill="#A7A9AC" stroke="#494949" stroke-width="0.5" stroke-miterlimit="10" points="704.359,488.062 
		707.328,501.96 707.328,517.995 737.974,517.995 737.974,488.062 	"/>
	<polygon id="r1004-1005" fill="#A7A9AC" stroke="#494949" stroke-width="0.5" stroke-miterlimit="10" points="737.974,457.536 
		697.826,457.536 704.359,488.062 737.974,488.062 	"/>
	<polygon id="r1002" fill="#A7A9AC" stroke="#494949" stroke-width="0.5" stroke-miterlimit="10" points="737.974,438.413 
		728.472,429.386 716.594,429.386 691.888,429.386 695.213,444.827 737.974,444.827 	"/>
	<polygon id="r1038" fill="#A7A9AC" stroke="#494949" stroke-width="0.5" stroke-miterlimit="10" points="282.337,636.655 
		282.337,663.381 301.461,663.381 301.461,643.188 	"/>
	<polygon id="r1036" fill="#A7A9AC" stroke="#494949" stroke-width="0.5" stroke-miterlimit="10" points="344.222,657.561 
		344.222,663.381 344.222,675.259 378.549,675.259 378.549,669.2 	"/>
	<polygon id="r1037" fill="#A7A9AC" stroke="#494949" stroke-width="0.5" stroke-miterlimit="10" points="301.461,643.188 
		301.461,663.381 344.222,663.381 344.222,657.561 	"/>
	<polygon id="r1033" fill="#A7A9AC" stroke="#494949" stroke-width="0.5" stroke-miterlimit="10" points="417.271,679.534 
		417.271,701.509 432.949,696.401 433.781,696.758 433.781,679.534 	"/>
	<polygon id="r1034" fill="#A7A9AC" stroke="#494949" stroke-width="0.5" stroke-miterlimit="10" points="409.431,679.534 
		398.266,675.853 398.266,702.934 405.393,705.31 417.271,701.509 417.271,679.534 	"/>
	<polygon id="r1040" fill="#A7A9AC" stroke="#494949" stroke-width="0.5" stroke-miterlimit="10" points="267.49,631.666 
		250.98,628.104 250.861,628.104 250.861,645.445 256.562,645.445 256.562,663.381 267.609,663.381 267.609,631.785 	"/>
	<path id="r1044" fill="#A7A9AC" stroke="#494949" stroke-width="0.5" stroke-miterlimit="10" d="M190.997,636.655L190.997,636.655
		l-61.884,68.654c11.403,6.532,74.712,6.771,74.712,6.771v-48.699v-16.035L190.997,636.655z"/>
	<path id="r1045" fill="#A7A9AC" stroke="#494949" stroke-width="0.5" stroke-miterlimit="10" d="M162.965,586.293
		c-30.526,7.364-59.746,26.963-72.693,44.305c-7.839,10.689-11.997,27.557-4.751,45.967c3.088,7.959,7.839,14.61,13.66,19.837
		l77.206-72.1L162.965,586.293z"/>
	<polygon id="r1032" fill="#A7A9AC" stroke="#494949" stroke-width="0.5" stroke-miterlimit="10" points="433.781,679.534 
		433.781,696.758 448.153,702.459 448.153,679.534 	"/>
	<polygon id="r1041-1042" fill="#A7A9AC" stroke="#494949" stroke-width="0.5" stroke-miterlimit="10" points="240.29,627.865 
		222.473,633.448 221.879,633.686 203.706,647.346 203.706,663.381 222.473,663.381 240.527,663.381 240.527,627.865 	"/>
	<polygon id="r1039" fill="#A7A9AC" stroke="#494949" stroke-width="0.5" stroke-miterlimit="10" points="267.609,631.785 
		267.609,663.381 282.337,663.381 282.337,636.655 	"/>
	<polygon id="r1030" fill="#A7A9AC" stroke="#494949" stroke-width="0.5" stroke-miterlimit="10" points="463.594,679.534 
		463.594,702.577 481.292,695.807 481.648,695.926 481.648,679.534 	"/>
	<path id="r1021" fill="#A7A9AC" stroke="#494949" stroke-width="0.5" stroke-miterlimit="10" d="M622.758,679.534v23.519
		c5.82,2.138,11.284,3.92,16.629,5.464v-28.982H622.758L622.758,679.534z"/>
	<path id="r1020" fill="#A7A9AC" stroke="#494949" stroke-width="0.5" stroke-miterlimit="10" d="M639.387,679.534v28.982
		c6.059,1.781,11.878,3.088,17.224,4.276v-33.259H639.387L639.387,679.534z"/>
	<path id="r1022" fill="#A7A9AC" stroke="#494949" stroke-width="0.5" stroke-miterlimit="10" d="M606.129,679.534v16.748
		c5.701,2.613,11.284,4.87,16.629,6.771v-23.519H606.129L606.129,679.534z"/>
	<polygon id="r1031" fill="#A7A9AC" stroke="#494949" stroke-width="0.5" stroke-miterlimit="10" points="448.153,679.534 
		448.153,702.459 455.874,705.547 463.594,702.577 463.594,679.534 	"/>
	<path id="r1023" fill="#A7A9AC" stroke="#494949" stroke-width="0.5" stroke-miterlimit="10" d="M582.61,679.534v16.985
		l5.583-9.146c6.177,3.325,12.234,6.176,18.055,8.789v-16.747L582.61,679.534L582.61,679.534z"/>
	<path id="r1018" fill="#A7A9AC" stroke="#494949" stroke-width="0.5" stroke-miterlimit="10" d="M673.714,679.534v35.871
		c7.84,0.832,14.135,1.069,19.005,0.95v-36.939h-19.005V679.534z"/>
	<path id="r1017" fill="#A7A9AC" stroke="#494949" stroke-width="0.5" stroke-miterlimit="10" d="M692.719,679.534v36.94
		c6.651-0.119,10.334-0.713,10.334-0.713v-20.549h8.908v-15.679H692.719z"/>
	<polygon id="r1028" fill="#A7A9AC" stroke="#494949" stroke-width="0.5" stroke-miterlimit="10" points="498.277,679.534 
		498.277,701.509 506.83,704.359 515.145,701.627 515.145,679.534 	"/>
	<polygon id="r1027" fill="#A7A9AC" stroke="#494949" stroke-width="0.5" stroke-miterlimit="10" points="515.145,679.534 
		515.145,701.627 532.367,696.045 532.724,696.163 532.724,679.534 	"/>
	<polygon id="r1029" fill="#A7A9AC" stroke="#494949" stroke-width="0.5" stroke-miterlimit="10" points="481.648,679.534 
		481.648,695.926 498.277,701.509 498.277,679.534 	"/>
	<polygon id="r1025" fill="#A7A9AC" stroke="#494949" stroke-width="0.5" stroke-miterlimit="10" points="551.135,679.534 
		551.135,702.577 557.667,704.953 566.932,701.865 566.932,679.534 	"/>
	<polygon id="r1026" fill="#A7A9AC" stroke="#494949" stroke-width="0.5" stroke-miterlimit="10" points="532.724,679.534 
		532.724,696.163 551.135,702.577 551.135,679.534 	"/>
	<polygon id="r1024" fill="#A7A9AC" stroke="#494949" stroke-width="0.5" stroke-miterlimit="10" points="566.932,679.534 
		566.932,701.865 582.61,696.639 582.61,679.534 	"/>
	<path id="r1104" fill="#A7A9AC" stroke="#494949" stroke-width="0.5" stroke-miterlimit="10" d="M508.374,545.433l-0.119,0.238
		l12.234,8.195l13.422-15.679v-2.376c0,0-9.384-3.682-25.537-7.008v13.185V545.433z"/>
	<path id="r1102-1103" fill="#A7A9AC" stroke="#494949" stroke-width="0.5" stroke-miterlimit="10" d="M485.212,525.359
		c-6.889-0.713-14.372-1.188-22.449-1.426v18.055h22.449h23.162v-13.185C501.723,527.497,494.002,526.19,485.212,525.359z"/>
	<path id="r1117" fill="#A7A9AC" stroke="#494949" stroke-width="0.5" stroke-miterlimit="10" d="M450.291,541.988v-17.936
		c-7.127,0.237-14.609,0.713-22.449,1.544v16.392H450.291z"/>
	<polygon id="r1105" fill="#A7A9AC" stroke="#494949" stroke-width="0.5" stroke-miterlimit="10" points="489.25,578.572 
		495.189,583.561 520.489,553.866 508.255,545.671 	"/>
	<polygon id="r1112-1113" fill="#A7A9AC" stroke="#494949" stroke-width="0.5" stroke-miterlimit="10" points="424.754,578.572 
		420.358,571.564 412.163,577.859 425.348,593.182 412.281,603.041 422.615,616.106 427.842,616.106 427.842,591.876 
		448.153,591.876 448.153,616.106 464.545,616.106 464.545,591.876 465.257,591.876 465.257,578.572 	"/>
	<polygon id="r1106" fill="#A7A9AC" stroke="#494949" stroke-width="0.5" stroke-miterlimit="10" points="487.112,592.944 
		495.189,583.561 489.25,578.572 465.257,578.572 465.257,591.876 484.143,591.876 484.143,592.944 	"/>
	<polygon id="r1107" fill="#A7A9AC" stroke="#494949" stroke-width="0.5" stroke-miterlimit="10" points="484.143,592.944 
		484.143,616.106 489.963,616.106 500.534,603.278 487.112,592.944 	"/>
	<polygon id="r1109-1110" fill="#A7A9AC" stroke="#494949" stroke-width="0.5" stroke-miterlimit="10" points="484.143,638.199 
		464.545,638.199 464.545,616.106 448.153,616.106 448.153,638.199 427.842,638.199 427.842,638.08 426.416,639.625 
		437.938,652.809 474.878,652.809 486.043,639.743 484.143,637.962 	"/>
	<path id="r1116" fill="#A7A9AC" stroke="#494949" stroke-width="0.5" stroke-miterlimit="10" d="M427.842,541.988v-16.392
		c-7.958,0.95-16.154,2.138-24.706,3.92v12.472H427.842z"/>
	<polygon id="r1108" fill="#A7A9AC" stroke="#494949" stroke-width="0.5" stroke-miterlimit="10" points="489.963,616.106 
		484.143,616.106 484.143,637.962 486.043,639.743 510.512,610.999 500.534,603.278 	"/>
	<polygon id="r1118" fill="#A7A9AC" stroke="#494949" stroke-width="0.5" stroke-miterlimit="10" points="366.552,546.978 
		353.605,555.886 366.077,570.258 378.311,560.518 	"/>
	<path id="r1114-1115" fill="#A7A9AC" stroke="#494949" stroke-width="0.5" stroke-miterlimit="10" d="M403.255,544.364v-2.376
		v-12.472c-7.958,1.663-16.154,3.683-24.588,6.295v2.732l-0.237,0.118l12.472,14.491l21.262,24.588l8.195-6.296L403.255,544.364z"/>
	<polygon id="r1120" fill="#A7A9AC" stroke="#494949" stroke-width="0.5" stroke-miterlimit="10" points="391.614,575.722 
		379.023,585.105 392.208,600.309 404.799,590.688 	"/>
	<polygon id="r1119" fill="#A7A9AC" stroke="#494949" stroke-width="0.5" stroke-miterlimit="10" points="378.311,560.518 
		366.077,570.258 379.023,585.105 391.614,575.722 	"/>
	<polygon id="r1069" fill="#A7A9AC" stroke="#494949" stroke-width="0.5" stroke-miterlimit="10" points="660.055,593.657 
		669.676,584.511 655.422,572.039 646.276,581.66 	"/>
	<polygon id="r1068" fill="#A7A9AC" stroke="#494949" stroke-width="0.5" stroke-miterlimit="10" points="646.276,581.66 
		655.422,572.039 641.525,560.043 632.261,569.308 	"/>
	<polygon id="r1066-1067" fill="#A7A9AC" stroke="#494949" stroke-width="0.5" stroke-miterlimit="10" points="628.222,548.402 
		621.927,542.938 608.623,548.759 618.838,557.667 632.261,569.308 641.525,560.043 	"/>
	<polygon id="r1077" fill="#A7A9AC" stroke="#494949" stroke-width="0.5" stroke-miterlimit="10" points="609.217,567.17 
		618.838,557.667 608.623,548.759 597.695,553.51 597.577,553.51 597.577,557.192 	"/>
	<polygon id="r1061" fill="#A7A9AC" stroke="#494949" stroke-width="0.5" stroke-miterlimit="10" points="676.564,539.851 
		687.849,539.851 687.968,530.348 684.523,527.379 668.488,530.704 668.488,539.851 	"/>
	<polygon id="r1076" fill="#A7A9AC" stroke="#494949" stroke-width="0.5" stroke-miterlimit="10" points="618.838,557.667 
		609.217,567.17 622.758,578.929 632.261,569.308 	"/>
	<polygon id="r1065" fill="#A7A9AC" stroke="#494949" stroke-width="0.5" stroke-miterlimit="10" points="656.729,550.896 
		668.488,539.851 668.488,530.704 642.832,535.931 642.832,538.9 	"/>
	<polygon id="r1064" fill="#A7A9AC" stroke="#494949" stroke-width="0.5" stroke-miterlimit="10" points="668.488,539.851 
		656.729,550.896 671.339,563.368 676.327,558.499 676.327,539.851 	"/>
	<polygon id="r1062" fill="#A7A9AC" stroke="#494949" stroke-width="0.5" stroke-miterlimit="10" points="676.564,539.851 
		676.327,539.851 676.327,558.499 676.921,558.023 687.611,558.023 687.849,539.851 	"/>
	<polygon id="r1075" fill="#A7A9AC" stroke="#494949" stroke-width="0.5" stroke-miterlimit="10" points="632.261,569.308 
		622.758,578.929 637.131,591.4 646.276,581.66 	"/>
	<polygon id="r1073" fill="#A7A9AC" stroke="#494949" stroke-width="0.5" stroke-miterlimit="10" points="650.434,602.922 
		662.549,613.493 672.051,604.109 660.055,593.657 	"/>
	<polygon id="r1070" fill="#A7A9AC" stroke="#494949" stroke-width="0.5" stroke-miterlimit="10" points="672.051,604.109 
		681.435,594.607 669.676,584.511 660.055,593.657 	"/>
	<polygon id="r1074" fill="#A7A9AC" stroke="#494949" stroke-width="0.5" stroke-miterlimit="10" points="646.276,581.66 
		637.131,591.4 650.434,602.922 660.055,593.657 	"/>
	<polygon id="r1093" fill="#A7A9AC" stroke="#494949" stroke-width="0.5" stroke-miterlimit="10" points="530.348,621.451 
		523.815,621.451 515.263,631.429 530.586,642.594 541.157,630.954 	"/>
	<polygon id="r1098" fill="#A7A9AC" stroke="#494949" stroke-width="0.5" stroke-miterlimit="10" points="503.86,644.732 
		518.47,656.017 530.586,642.594 515.263,631.429 	"/>
	<polygon id="r1086" fill="#A7A9AC" stroke="#494949" stroke-width="0.5" stroke-miterlimit="10" points="645.207,649.246 
		645.207,663.499 662.312,663.499 662.312,649.364 	"/>
	<polygon id="r1084-1085" fill="#A7A9AC" stroke="#494949" stroke-width="0.5" stroke-miterlimit="10" points="645.207,643.9 
		645.207,649.246 662.312,649.364 662.312,663.499 679.771,663.499 686.305,656.848 686.305,656.254 658.035,631.666 	"/>
	<polygon id="r1089" fill="#A7A9AC" stroke="#494949" stroke-width="0.5" stroke-miterlimit="10" points="612.78,652.215 
		612.78,652.215 623.471,640.456 615.156,632.973 609.692,628.104 588.787,650.434 603.872,663.499 610.999,663.499 612.78,663.499 
			"/>
	<polygon id="r1088" fill="#A7A9AC" stroke="#494949" stroke-width="0.5" stroke-miterlimit="10" points="625.728,642.476 
		623.471,640.456 612.78,652.215 612.78,663.499 628.222,663.499 628.222,649.127 628.222,644.732 	"/>
	<polygon id="r1087" fill="#A7A9AC" stroke="#494949" stroke-width="0.5" stroke-miterlimit="10" points="628.222,649.127 
		628.222,663.499 645.207,663.499 645.207,649.246 	"/>
	<polygon id="r1063" fill="#A7A9AC" stroke="#494949" stroke-width="0.5" stroke-miterlimit="10" points="676.921,558.023 
		671.339,563.368 685.117,575.365 687.374,572.633 687.611,558.023 	"/>
	<polygon id="r1072" fill="#A7A9AC" stroke="#494949" stroke-width="0.5" stroke-miterlimit="10" points="680.841,613.73 
		680.841,613.73 680.841,613.73 671.576,604.466 662.549,613.493 683.217,631.311 686.661,628.104 686.898,614.562 686.898,613.73 	
		"/>
	<polygon id="r1071" fill="#A7A9AC" stroke="#494949" stroke-width="0.5" stroke-miterlimit="10" points="686.898,613.73 
		687.018,599.596 681.435,594.607 672.051,604.109 671.576,604.466 680.841,613.73 	"/>
	<polygon id="r1092" fill="#A7A9AC" stroke="#494949" stroke-width="0.5" stroke-miterlimit="10" points="573.821,579.76 
		565.744,572.989 565.625,573.108 537.594,605.535 549.59,616.106 	"/>
	<polygon id="r1078" fill="#A7A9AC" stroke="#494949" stroke-width="0.5" stroke-miterlimit="10" points="586.53,585.343 
		595.082,577.028 580.235,564.081 565.744,572.989 573.821,579.76 	"/>
	<polygon id="r1090" fill="#A7A9AC" stroke="#494949" stroke-width="0.5" stroke-miterlimit="10" points="575.128,638.437 
		588.787,650.434 609.692,628.104 596.745,616.463 	"/>
	<polygon id="r1079" fill="#A7A9AC" stroke="#494949" stroke-width="0.5" stroke-miterlimit="10" points="610.999,590.807 
		595.082,577.028 586.53,585.343 577.979,599.715 590.569,610.88 	"/>
	<polygon id="r1091" fill="#A7A9AC" stroke="#494949" stroke-width="0.5" stroke-miterlimit="10" points="590.569,610.88 
		590.569,610.88 577.979,599.715 562.062,626.915 575.128,638.437 596.745,616.463 	"/>
	<polygon id="r1081" fill="#A7A9AC" stroke="#494949" stroke-width="0.5" stroke-miterlimit="10" points="623.471,601.734 
		602.803,621.927 609.692,628.104 615.156,632.973 635.824,612.424 	"/>
	<polygon id="r1080" fill="#A7A9AC" stroke="#494949" stroke-width="0.5" stroke-miterlimit="10" points="610.999,590.807 
		590.569,610.88 596.745,616.463 602.803,621.927 623.471,601.734 	"/>
	<polygon id="r1097" fill="#A7A9AC" stroke="#494949" stroke-width="0.5" stroke-miterlimit="10" points="503.86,644.732 
		491.508,658.985 496.853,663.499 518.47,663.499 518.47,656.017 	"/>
	<polygon id="r1095" fill="#A7A9AC" stroke="#494949" stroke-width="0.5" stroke-miterlimit="10" points="555.173,643.188 
		546.265,654.115 546.265,663.499 573.584,663.499 575.959,661.361 	"/>
	<polygon id="r1094-1096" fill="#A7A9AC" stroke="#494949" stroke-width="0.5" stroke-miterlimit="10" points="555.173,643.188 
		541.157,630.954 518.47,656.017 518.47,663.499 546.265,663.499 546.265,654.115 	"/>
	<polygon id="r1099-1101" fill="#A7A9AC" stroke="#494949" stroke-width="0.5" stroke-miterlimit="10" points="558.261,555.054 
		546.858,547.333 508.374,590.926 520.252,599.715 	"/>
	<polygon id="r1130" fill="#A7A9AC" stroke="#494949" stroke-width="0.5" stroke-miterlimit="10" points="306.568,594.964 
		295.641,624.064 311.676,629.172 319.99,606.01 	"/>
	<path id="r1132" fill="#A7A9AC" stroke="#494949" stroke-width="0.5" stroke-miterlimit="10" d="M306.568,594.964l-11.759-9.74
		c-4.514,3.801-8.79,7.721-12.709,11.521l18.173,14.848L306.568,594.964z"/>
	<path id="r1131" fill="#A7A9AC" stroke="#494949" stroke-width="0.5" stroke-miterlimit="10" d="M282.219,596.745l-0.119,0.119
		c-5.464,5.464-9.978,10.69-12.591,15.441v3.325l26.25,8.434l4.632-12.472L282.219,596.745z"/>
	<path id="r1133" fill="#A7A9AC" stroke="#494949" stroke-width="0.5" stroke-miterlimit="10" d="M306.568,594.964L306.568,594.964
		l13.422,11.165l13.304-7.84l-7.721-12.472l-4.276,2.495l-11.402-15.085c-4.87,3.682-10.097,7.839-15.085,12.115L306.568,594.964
		L306.568,594.964z"/>
	<path id="r1121-1134" fill="#A7A9AC" stroke="#494949" stroke-width="0.5" stroke-miterlimit="10" d="M325.573,585.817
		l16.392-9.739l0,0l0,0l4.751-2.851l-14.135-16.392c0,0-10.215,6.771-22.687,16.272l11.402,15.085L325.573,585.817z"/>
	<polygon id="r1122" fill="#A7A9AC" stroke="#494949" stroke-width="0.5" stroke-miterlimit="10" points="358.475,604.466 
		367.621,597.102 346.716,573.108 341.965,575.959 	"/>
	<polygon id="r1123" fill="#A7A9AC" stroke="#494949" stroke-width="0.5" stroke-miterlimit="10" points="367.621,597.102 
		358.475,604.466 362.751,611.83 354.911,615.156 352.061,622.401 364.176,626.202 381.28,612.78 	"/>
	<polygon id="r1124" fill="#A7A9AC" stroke="#494949" stroke-width="0.5" stroke-miterlimit="10" points="397.078,630.954 
		381.28,612.78 364.176,626.202 394.94,635.942 	"/>
	<polygon id="r1127-1128" fill="#A7A9AC" stroke="#494949" stroke-width="0.5" stroke-miterlimit="10" points="352.061,622.401 
		345.29,639.981 387.576,653.521 394.94,635.942 	"/>
	<polygon id="r1126" fill="#A7A9AC" stroke="#494949" stroke-width="0.5" stroke-miterlimit="10" points="397.078,630.954 
		387.576,653.521 401.116,657.917 407.293,642.832 	"/>
	<polygon id="r1129" fill="#A7A9AC" stroke="#494949" stroke-width="0.5" stroke-miterlimit="10" points="333.412,598.171 
		319.99,606.01 311.676,629.172 330.8,635.349 342.202,612.306 	"/>
	<polygon id="r1125" fill="#A7A9AC" stroke="#494949" stroke-width="0.5" stroke-miterlimit="10" points="420.715,658.154 
		407.293,642.832 401.116,657.917 416.32,662.786 	"/>
	<path id="r1155" fill="#A7A9AC" stroke="#494949" stroke-width="0.5" stroke-miterlimit="10" d="M257.156,368.452
		c0,0,64.734,21.974,47.155,84.689c0,0-19.836-17.579-63.19-32.308L257.156,368.452z"/>
	<path id="r1046" fill="#A7A9AC" stroke="#494949" stroke-width="0.5" stroke-miterlimit="10" d="M240.171,326.88l-7.126,32.783
		l24.112,8.79c0,0,14.848,4.989,28.388,17.104l0,0l19.243-15.917l-41.335-46.799L240.171,326.88z"/>
	<polygon id="r1047b" fill="#A7A9AC" stroke="#494949" stroke-width="0.5" stroke-miterlimit="10" points="354.199,341.015 
		354.199,313.339 321.653,250.03 288.871,256.206 305.499,329.611 325.811,352.298 326.048,352.18 	"/>
	<polygon id="r1047a" fill="#A7A9AC" stroke="#494949" stroke-width="0.5" stroke-miterlimit="10" points="288.871,256.206 
		253.949,262.858 240.171,326.88 263.452,322.841 304.787,369.64 325.811,352.298 305.499,329.611 	"/>
	<path id="r1401" fill="#A7A9AC" stroke="#494949" stroke-width="0.5" stroke-miterlimit="10" d="M535.1,473.453
		c0,0-14.61,14.135-35.159,16.51c-20.43,2.376-31.001-11.64-37.178-18.648c-1.663-1.9-3.207-4.395-4.988-7.008v43.592l50.362-0.118
		C537.95,507.78,535.1,473.453,535.1,473.453z"/>
	<path id="r1402" fill="#A7A9AC" stroke="#494949" stroke-width="0.5" stroke-miterlimit="10" d="M427.842,449.578
		c-25.656-0.356-29.457,27.319-29.457,27.319v31.12l59.271-0.119v-43.592C453.142,457.418,446.49,449.815,427.842,449.578z"/>
	<polygon id="r1058" fill="#A7A9AC" stroke="#494949" stroke-width="0.5" stroke-miterlimit="10" points="609.336,362.038 
		597.577,362.038 597.577,357.287 589.856,357.287 589.856,368.333 596.151,375.936 609.336,375.936 609.336,365.958 	"/>
	<polygon id="r1059" fill="#A7A9AC" stroke="#494949" stroke-width="0.5" stroke-miterlimit="10" points="657.441,365.958 
		609.336,365.958 609.336,375.936 643.9,375.936 651.621,382.706 657.441,376.648 	"/>
	<polygon id="r1060" fill="#A7A9AC" stroke="#494949" stroke-width="0.5" stroke-miterlimit="10" points="657.441,365.958 
		657.441,376.648 651.621,382.706 665.399,394.703 679.653,381.875 679.653,365.958 	"/>
	
		<rect id="r1140-1151" x="436.869" y="359.663" fill="#A7A9AC" stroke="#494949" stroke-width="0.5" stroke-miterlimit="10" width="17.223" height="34.684"/>
	
		<rect id="triumph" x="367.502" y="376.648" fill="#A7A9AC" stroke="#494949" stroke-width="0.5" stroke-miterlimit="10" width="17.342" height="17.698"/>
	<polygon id="r1043" fill="#A7A9AC" stroke="#494949" stroke-width="0.5" stroke-miterlimit="10" points="190.997,636.655 
		176.268,624.302 99.181,696.401 132.082,706.616 	"/>
</g>
<g id="signs">
	<g id="escalator">
		<rect x="289.702" y="518.113" opacity="0.8" enable-background="new    " width="17.58" height="17.58"/>
		<rect x="561.35" y="480.342" opacity="0.8" enable-background="new    " width="17.579" height="17.579"/>
		<rect x="562.062" y="417.983" opacity="0.8" enable-background="new    " width="17.579" height="17.579"/>
	</g>
	<rect id="parking" x="756.74" y="504.335" opacity="0.8" enable-background="new    " width="17.58" height="17.58"/>
	<rect id="handicapped-parking" x="756.74" y="478.68" opacity="0.8" enable-background="new    " width="17.58" height="17.579"/>
	<g id="entrance">
		<rect x="731.56" y="677.277" opacity="0.8" enable-background="new    " width="17.579" height="17.579"/>
		<rect x="731.203" y="400.404" opacity="0.8" enable-background="new    " width="17.579" height="17.58"/>
	</g>
	<rect id="lift" x="720.395" y="344.815" opacity="0.8" enable-background="new    " width="17.579" height="17.579"/>
	<g id="handicapped-toilet">
		<rect x="301.104" y="679.297" opacity="0.8" enable-background="new    " width="17.579" height="17.579"/>
		<rect x="651.265" y="334.481" opacity="0.8" enable-background="new    " width="17.579" height="17.579"/>
	</g>
	<g id="toilet">
		<rect x="274.973" y="678.821" opacity="0.8" enable-background="new    " width="17.58" height="17.58"/>
		<rect x="625.252" y="334.481" opacity="0.8" enable-background="new    " width="17.58" height="17.579"/>
	</g>
	<g id="fire-exit">
		<rect x="222.71" y="691.056" opacity="0.8" enable-background="new    " width="17.58" height="17.579"/>
		<rect x="600.547" y="295.403" opacity="0.8" enable-background="new    " width="17.579" height="17.579"/>
		<rect x="425.109" y="295.403" opacity="0.8" enable-background="new    " width="17.58" height="17.579"/>
		<rect x="552.322" y="595.677" opacity="0.8" enable-background="new    " width="17.579" height="17.579"/>
		<rect x="341.965" y="594.132" opacity="0.8" enable-background="new    " width="17.579" height="17.58"/>
	</g>
</g>
</svg>
