<?xml version="1.0" encoding="utf-8"?>
<!-- Generator: Adobe Illustrator 19.2.0, SVG Export Plug-In . SVG Version: 6.00 Build 0)  -->
<svg version="1.1" id="Layer_1" xmlns="http://www.w3.org/2000/svg" xmlns:xlink="http://www.w3.org/1999/xlink" x="0px" y="0px"
	 viewBox="0 0 841.9 595.3" style="enable-background:new 0 0 841.9 595.3;" xml:space="preserve">
<style type="text/css">
	.st0{fill:#FFFFFF;}
	.st1{fill:#DEDEDE;stroke:#494949;stroke-width:0.5;stroke-miterlimit:10;}
	.st2{fill:#A7A9AC;stroke:#494949;stroke-width:0.5;stroke-miterlimit:10;}
	.st3{opacity:0.8;enable-background:new    ;}
</style>
<g id="background">
	<rect class="st0" width="841.9" height="595.3"/>
</g>
<g id="etc">
	<path class="st1" d="M305.7,118L279,63.3l-73.7,14c0,0-6.3,57-30,128.3s-95,140-95,140L99,374.9c-24.3,10-41,30.3-41,53.7
		c0,33.3,33.6,60.3,75,60.3l551.7,1.4V118H305.7z"/>
	<path class="st1" d="M290.4,125.4l7.8,15.1v23.3l-23.7,9.3l-0.2,0.1l-17.7,14.6l-16.2,13.4h0c-11.4-10.2-23.9-14.4-23.9-14.4
		l-12.8-4.6l-18.9,50.6c12.2,5,42.4,17.4,57.7,25.3c19.5,10.2,24.5,26.8,11.4,46.2c-13.2,19.3-53.8,57-53.8,57
		c-20.1-6.2-41.9-3.9-59.3,0.2l-3.4,9.3l11.1,31.4l0.1,0.2l23,19.2v13.5v40.8l4.6,4.8h487.1V125.4H290.4z"/>
	<ellipse class="st1" cx="517.9" cy="261.3" rx="37.9" ry="57.6"/>
	<path class="st1" d="M421.3,223.7h-112c-17,0-30.8,16.2-30.8,36.1v4.2c0,20,13.8,36.1,30.8,36.1h26.2v-22c0,0,3.2-23.3,24.8-23
		s24.2,12.5,29.4,18.3s14.1,17.7,31.3,15.7c17.2-2,29.5-13.8,29.6-13.9c1-3.5,1.5-7.3,1.5-11.3v-4.2
		C452,239.9,438.3,223.7,421.3,223.7z"/>
	<rect x="590.5" y="147.5" class="st1" width="35.2" height="60.5"/>
	<rect x="516" y="142.5" class="st1" width="109.7" height="2.5"/>
	<rect x="516" y="147.5" class="st1" width="56.2" height="36.3"/>
	<rect x="300.2" y="127.5" class="st1" width="53.2" height="21"/>
	<rect x="173" y="436.8" class="st1" width="29.3" height="19.9"/>
	<rect x="216.4" y="436.8" class="st1" width="69.9" height="39.5"/>
	<path class="st1" d="M91.5,348.6l16,24.5c0,0,50.1-24.9,92.5-11.7c0,0,40.7-37.7,53.8-57s8.1-36-11.4-46.2s-63.1-27.5-63.1-27.5
		S146.7,312.5,91.5,348.6z"/>
	<rect id="r1013" x="595.5" y="376.3" class="st1" width="25.8" height="15.8"/>
	<polygon class="st1" points="318.7,440.1 318.7,445.2 318.7,463 335.3,468.5 335.3,445.7 	"/>
	<path class="st1" d="M552.8,448.8v28c5.2,1.1,10,1.8,14.3,2.3v-30.2L552.8,448.8L552.8,448.8z"/>
	<polygon class="st1" points="526.8,417.6 544.1,399.9 535.3,392.3 517.9,409.6 	"/>
	<polygon class="st1" points="528.9,419.5 528.9,423.2 543.2,423.3 543.2,418.8 554,408.5 544.1,399.9 526.8,417.6 	"/>
	<polygon class="st1" points="360.2,395.4 355.8,395.4 347.1,384.4 338.1,391.1 359,415.2 360.2,413.9 	"/>
	<rect x="323.9" y="193.8" class="st1" width="14.3" height="14.9"/>
</g>
<g id="rooms">
	<polygon id="r1001" class="st2" points="603.3,223.3 589.3,223.3 581,231.2 582.5,238.2 603.3,238.2 	"/>
	<rect id="r1136" x="309.4" y="179.5" class="st2" width="14.6" height="14.3"/>
	<polygon id="r1143-1148" class="st2" points="426.5,179.5 426.5,193.8 426.5,208.8 441.7,208.8 441.7,193.8 441.7,179.5 	"/>
	<polygon id="r1145-1146" class="st2" points="457.8,179.5 457.8,193.8 457.8,208.8 466.8,208.8 478.2,199.1 478.2,193.8 
		478.2,179.5 	"/>
	<polygon id="r1144-1147" class="st2" points="441.7,179.5 441.7,193.8 441.7,208.8 457.8,208.8 457.8,193.8 457.8,179.5 	"/>
	<polygon id="r1051-1052" class="st2" points="402.9,130.4 383,128.4 383,150.6 383,165.2 424.5,165.2 424.5,127.5 	"/>
	<polygon id="r1053" class="st2" points="426.6,127.2 424.5,127.5 424.5,165.2 442.8,165.2 442.8,129.1 	"/>
	<polygon id="r1056-1057" class="st2" points="501.9,130.6 479.2,127.2 471.7,128.3 471.7,165.2 501.9,165.2 	"/>
	<polygon id="r1054-1055" class="st2" points="454.6,130.5 442.8,129.1 442.8,165.2 471.7,165.2 471.7,128.3 	"/>
	<polygon id="r1141-1150" class="st2" points="382.3,179.5 382.3,193.8 382.3,208.8 397.5,208.8 397.5,193.8 397.5,179.5 	"/>
	<g id="r1048-1050-1137">
		<polygon class="st2" points="351.6,150.6 309.4,150.6 309.4,165.3 351.6,165.3 351.6,165.2 373.2,165.2 373.2,150.6 		"/>
		<rect x="323.9" y="179.5" class="st2" width="14.3" height="14.3"/>
	</g>
	<polygon id="r1139-1152" class="st2" points="351.5,179.5 351.5,193.8 351.5,208.8 367.8,208.8 367.8,193.8 367.8,179.5 	"/>
	<rect id="r1142-1149" x="411.5" y="179.5" class="st2" width="15" height="29.2"/>
	<rect id="r1011-1012" x="595.5" y="350.8" class="st2" width="25.8" height="25.5"/>
	<rect id="r1010" x="595.5" y="338.4" class="st2" width="25.8" height="12.4"/>
	<rect id="r1009" x="595.5" y="325.4" class="st2" width="25.8" height="13"/>
	<polygon id="r1016" class="st2" points="595.5,431.2 603.2,438.5 621.3,438.5 621.3,423.4 595.5,423.4 	"/>
	<rect id="r1014" x="595.5" y="392.1" class="st2" width="25.8" height="15.4"/>
	<rect id="r1015" x="595.5" y="407.5" class="st2" width="25.8" height="15.9"/>
	<rect id="r1008" x="595.5" y="312.8" class="st2" width="25.8" height="12.7"/>
	<polygon id="r1003" class="st2" points="621.3,251.2 585.3,251.2 587.5,261.9 621.3,261.9 	"/>
	<polygon id="r1006-1007" class="st2" points="593,287.6 595.5,299.3 595.5,312.8 621.3,312.8 621.3,287.6 	"/>
	<polygon id="r1004-1005" class="st2" points="621.3,261.9 587.5,261.9 593,287.6 621.3,287.6 	"/>
	<polygon id="r1002" class="st2" points="621.3,245.8 613.3,238.2 603.3,238.2 582.5,238.2 585.3,251.2 621.3,251.2 	"/>
	<polygon id="r1038" class="st2" points="237.7,412.7 237.7,435.2 253.8,435.2 253.8,418.2 	"/>
	<polygon id="r1036" class="st2" points="289.8,430.3 289.8,435.2 289.8,445.2 318.7,445.2 318.7,440.1 	"/>
	<polygon id="r1037" class="st2" points="253.8,418.2 253.8,435.2 289.8,435.2 289.8,430.3 	"/>
	<polygon id="r1033" class="st2" points="351.3,448.8 351.3,467.3 364.5,463 365.2,463.3 365.2,448.8 	"/>
	<polygon id="r1034" class="st2" points="344.7,448.8 335.3,445.7 335.3,468.5 341.3,470.5 351.3,467.3 351.3,448.8 	"/>
	<polygon id="r1040" class="st2" points="225.2,408.5 211.3,405.5 211.2,405.5 211.2,420.1 216,420.1 216,435.2 225.3,435.2 
		225.3,408.6 	"/>
	<path id="r1044" class="st2" d="M160.8,412.7L160.8,412.7l-52.1,57.8c9.6,5.5,62.9,5.7,62.9,5.7v-41v-13.5L160.8,412.7z"/>
	<path id="r1045" class="st2" d="M137.2,370.3c-25.7,6.2-50.3,22.7-61.2,37.3c-6.6,9-10.1,23.2-4,38.7c2.6,6.7,6.6,12.3,11.5,16.7
		l65-60.7L137.2,370.3z"/>
	<polygon id="r1032" class="st2" points="365.2,448.8 365.2,463.3 377.3,468.1 377.3,448.8 	"/>
	<polygon id="r1041-1042" class="st2" points="202.3,405.3 187.3,410 186.8,410.2 171.5,421.7 171.5,435.2 187.3,435.2 202.5,435.2 
		202.5,405.3 	"/>
	<polygon id="r1039" class="st2" points="225.3,408.6 225.3,435.2 237.7,435.2 237.7,412.7 	"/>
	<polygon id="r1030" class="st2" points="390.3,448.8 390.3,468.2 405.2,462.5 405.5,462.6 405.5,448.8 	"/>
	<path id="r1021" class="st2" d="M524.3,448.8v19.8c4.9,1.8,9.5,3.3,14,4.6v-24.4L524.3,448.8L524.3,448.8z"/>
	<path id="r1020" class="st2" d="M538.3,448.8v24.4c5.1,1.5,10,2.6,14.5,3.6v-28L538.3,448.8L538.3,448.8z"/>
	<path id="r1022" class="st2" d="M510.3,448.8v14.1c4.8,2.2,9.5,4.1,14,5.7v-19.8L510.3,448.8L510.3,448.8z"/>
	<polygon id="r1031" class="st2" points="377.3,448.8 377.3,468.1 383.8,470.7 390.3,468.2 390.3,448.8 	"/>
	<path id="r1023" class="st2" d="M490.5,448.8v14.3l4.7-7.7c5.2,2.8,10.3,5.2,15.2,7.4v-14.1L490.5,448.8L490.5,448.8z"/>
	<path id="r1018" class="st2" d="M567.2,448.8v30.2c6.6,0.7,11.9,0.9,16,0.8v-31.1H567.2z"/>
	<path id="r1017" class="st2" d="M583.2,448.8v31.1c5.6-0.1,8.7-0.6,8.7-0.6V462h7.5v-13.2H583.2z"/>
	<polygon id="r1028" class="st2" points="419.5,448.8 419.5,467.3 426.7,469.7 433.7,467.4 433.7,448.8 	"/>
	<polygon id="r1027" class="st2" points="433.7,448.8 433.7,467.4 448.2,462.7 448.5,462.8 448.5,448.8 	"/>
	<polygon id="r1029" class="st2" points="405.5,448.8 405.5,462.6 419.5,467.3 419.5,448.8 	"/>
	<polygon id="r1025" class="st2" points="464,448.8 464,468.2 469.5,470.2 477.3,467.6 477.3,448.8 	"/>
	<polygon id="r1026" class="st2" points="448.5,448.8 448.5,462.8 464,468.2 464,448.8 	"/>
	<polygon id="r1024" class="st2" points="477.3,448.8 477.3,467.6 490.5,463.2 490.5,448.8 	"/>
	<path id="r1104" class="st2" d="M428,335.9l-0.1,0.2l10.3,6.9l11.3-13.2v-2c0,0-7.9-3.1-21.5-5.9V333V335.9z"/>
	<path id="r1102-1103" class="st2" d="M408.5,319c-5.8-0.6-12.1-1-18.9-1.2V333h18.9H428v-11.1C422.4,320.8,415.9,319.7,408.5,319z"
		/>
	<path id="r1117" class="st2" d="M379.1,333v-15.1c-6,0.2-12.3,0.6-18.9,1.3V333H379.1z"/>
	<polygon id="r1105" class="st2" points="411.9,363.8 416.9,368 438.2,343 427.9,336.1 	"/>
	<polygon id="r1112-1113" class="st2" points="357.6,363.8 353.9,357.9 347,363.2 358.1,376.1 347.1,384.4 355.8,395.4 360.2,395.4 
		360.2,375 377.3,375 377.3,395.4 391.1,395.4 391.1,375 391.7,375 391.7,363.8 	"/>
	<polygon id="r1106" class="st2" points="410.1,375.9 416.9,368 411.9,363.8 391.7,363.8 391.7,375 407.6,375 407.6,375.9 
		410.1,375.9 	"/>
	<polygon id="r1107" class="st2" points="407.6,375.9 407.6,395.4 412.5,395.4 421.4,384.6 410.1,375.9 	"/>
	<polygon id="r1109-1110" class="st2" points="407.6,414 391.1,414 391.1,395.4 377.3,395.4 377.3,414 360.2,414 360.2,413.9 
		359,415.2 368.7,426.3 399.8,426.3 409.2,415.3 407.6,413.8 	"/>
	<path id="r1116" class="st2" d="M360.2,333v-13.8c-6.7,0.8-13.6,1.8-20.8,3.3V333H360.2z"/>
	<polygon id="r1108" class="st2" points="412.5,395.4 407.6,395.4 407.6,413.8 409.2,415.3 429.8,391.1 421.4,384.6 	"/>
	<polygon id="r1118" class="st2" points="308.6,337.2 297.7,344.7 308.2,356.8 318.5,348.6 	"/>
	<path id="r1114-1115" class="st2" d="M339.5,335v-2v-10.5c-6.7,1.4-13.6,3.1-20.7,5.3v2.3l-0.2,0.1l10.5,12.2l17.9,20.7l6.9-5.3
		L339.5,335z"/>
	<polygon id="r1120" class="st2" points="329.7,361.4 319.1,369.3 330.2,382.1 340.8,374 	"/>
	<polygon id="r1119" class="st2" points="318.5,348.6 308.2,356.8 319.1,369.3 329.7,361.4 	"/>
	<polygon id="r1069" class="st2" points="555.7,376.5 563.8,368.8 551.8,358.3 544.1,366.4 	"/>
	<polygon id="r1068" class="st2" points="544.1,366.4 551.8,358.3 540.1,348.2 532.3,356 	"/>
	<polygon id="r1066-1067" class="st2" points="528.9,338.4 523.6,333.8 512.4,338.7 521,346.2 532.3,356 540.1,348.2 	"/>
	<polygon id="r1077" class="st2" points="512.9,354.2 521,346.2 512.4,338.7 503.2,342.7 503.1,342.7 503.1,345.8 	"/>
	<polygon id="r1061" class="st2" points="569.6,331.2 579.1,331.2 579.2,323.2 576.3,320.7 562.8,323.5 562.8,331.2 	"/>
	<polygon id="r1076" class="st2" points="521,346.2 512.9,354.2 524.3,364.1 532.3,356 	"/>
	<polygon id="r1065" class="st2" points="552.9,340.5 562.8,331.2 562.8,323.5 541.2,327.9 541.2,330.4 	"/>
	<polygon id="r1064" class="st2" points="562.8,331.2 552.9,340.5 565.2,351 569.4,346.9 569.4,331.2 	"/>
	<polygon id="r1062" class="st2" points="569.6,331.2 569.4,331.2 569.4,346.9 569.9,346.5 578.9,346.5 579.1,331.2 	"/>
	<polygon id="r1075" class="st2" points="532.3,356 524.3,364.1 536.4,374.6 544.1,366.4 	"/>
	<polygon id="r1073" class="st2" points="547.6,384.3 557.8,393.2 565.8,385.3 555.7,376.5 	"/>
	<polygon id="r1070" class="st2" points="565.8,385.3 573.7,377.3 563.8,368.8 555.7,376.5 	"/>
	<polygon id="r1074" class="st2" points="544.1,366.4 536.4,374.6 547.6,384.3 555.7,376.5 	"/>
	<polygon id="r1093" class="st2" points="446.5,399.9 441,399.9 433.8,408.3 446.7,417.7 455.6,407.9 	"/>
	<polygon id="r1098" class="st2" points="424.2,419.5 436.5,429 446.7,417.7 433.8,408.3 	"/>
	<polygon id="r1086" class="st2" points="543.2,423.3 543.2,435.3 557.6,435.3 557.6,423.4 	"/>
	<polygon id="r1084-1085" class="st2" points="543.2,418.8 543.2,423.3 557.6,423.4 557.6,435.3 572.3,435.3 577.8,429.7 
		577.8,429.2 554,408.5 	"/>
	<polygon id="r1089" class="st2" points="515.9,425.8 515.9,425.8 524.9,415.9 517.9,409.6 513.3,405.5 495.7,424.3 508.4,435.3 
		514.4,435.3 515.9,435.3 	"/>
	<polygon id="r1088" class="st2" points="526.8,417.6 524.9,415.9 515.9,425.8 515.9,435.3 528.9,435.3 528.9,423.2 528.9,419.5 	
		"/>
	<polygon id="r1087" class="st2" points="528.9,423.2 528.9,435.3 543.2,435.3 543.2,423.3 	"/>
	<polygon id="r1063" class="st2" points="569.9,346.5 565.2,351 576.8,361.1 578.7,358.8 578.9,346.5 	"/>
	<polygon id="r1072" class="st2" points="573.2,393.4 573.2,393.4 573.2,393.4 565.4,385.6 557.8,393.2 575.2,408.2 578.1,405.5 
		578.3,394.1 578.3,393.4 	"/>
	<polygon id="r1071" class="st2" points="578.3,393.4 578.4,381.5 573.7,377.3 565.8,385.3 565.4,385.6 573.2,393.4 	"/>
	<polygon id="r1092" class="st2" points="483.1,364.8 476.3,359.1 476.2,359.2 452.6,386.5 462.7,395.4 	"/>
	<polygon id="r1078" class="st2" points="493.8,369.5 501,362.5 488.5,351.6 476.3,359.1 483.1,364.8 	"/>
	<polygon id="r1090" class="st2" points="484.2,414.2 495.7,424.3 513.3,405.5 502.4,395.7 	"/>
	<polygon id="r1079" class="st2" points="514.4,374.1 501,362.5 493.8,369.5 486.6,381.6 497.2,391 	"/>
	<polygon id="r1091" class="st2" points="497.2,391 497.2,391 486.6,381.6 473.2,404.5 484.2,414.2 502.4,395.7 	"/>
	<polygon id="r1081" class="st2" points="524.9,383.3 507.5,400.3 513.3,405.5 517.9,409.6 535.3,392.3 	"/>
	<polygon id="r1080" class="st2" points="514.4,374.1 497.2,391 502.4,395.7 507.5,400.3 524.9,383.3 	"/>
	<polygon id="r1097" class="st2" points="424.2,419.5 413.8,431.5 418.3,435.3 436.5,435.3 436.5,429 	"/>
	<polygon id="r1095" class="st2" points="467.4,418.2 459.9,427.4 459.9,435.3 482.9,435.3 484.9,433.5 	"/>
	<polygon id="r1094-1096" class="st2" points="467.4,418.2 455.6,407.9 436.5,429 436.5,435.3 459.9,435.3 459.9,427.4 	"/>
	<polygon id="r1099-1101" class="st2" points="470,344 460.4,337.5 428,374.2 438,381.6 	"/>
	<polygon id="r1130" class="st2" points="258.1,377.6 248.9,402.1 262.4,406.4 269.4,386.9 	"/>
	<path id="r1132" class="st2" d="M258.1,377.6l-9.9-8.2c-3.8,3.2-7.4,6.5-10.7,9.7l15.3,12.5L258.1,377.6z"/>
	<path id="r1131" class="st2" d="M237.6,379.1c0,0-0.1,0.1-0.1,0.1c-4.6,4.6-8.4,9-10.6,13v2.8l22.1,7.1l3.9-10.5L237.6,379.1z"/>
	<path id="r1133" class="st2" d="M258.1,377.6L258.1,377.6l11.3,9.4l11.2-6.6l-6.5-10.5l-3.6,2.1l-9.6-12.7
		c-4.1,3.1-8.5,6.6-12.7,10.2L258.1,377.6L258.1,377.6z"/>
	<path id="r1121-1134" class="st2" d="M274.1,369.9l13.8-8.2l0,0l0,0l4-2.4L280,345.5c0,0-8.6,5.7-19.1,13.7l9.6,12.7L274.1,369.9z"
		/>
	<polygon id="r1122" class="st2" points="301.8,385.6 309.5,379.4 291.9,359.2 287.9,361.6 	"/>
	<polygon id="r1123" class="st2" points="309.5,379.4 301.8,385.6 305.4,391.8 298.8,394.6 296.4,400.7 306.6,403.9 321,392.6 	"/>
	<polygon id="r1124" class="st2" points="334.3,407.9 321,392.6 306.6,403.9 332.5,412.1 	"/>
	<polygon id="r1127-1128" class="st2" points="296.4,400.7 290.7,415.5 326.3,426.9 332.5,412.1 	"/>
	<polygon id="r1126" class="st2" points="334.3,407.9 326.3,426.9 337.7,430.6 342.9,417.9 	"/>
	<polygon id="r1129" class="st2" points="280.7,380.3 269.4,386.9 262.4,406.4 278.5,411.6 288.1,392.2 	"/>
	<polygon id="r1125" class="st2" points="354.2,430.8 342.9,417.9 337.7,430.6 350.5,434.7 	"/>
	<path id="r1155" class="st2" d="M216.5,186.9c0,0,54.5,18.5,39.7,71.3c0,0-16.7-14.8-53.2-27.2L216.5,186.9z"/>
	<path id="r1046" class="st2" d="M202.2,151.9l-6,27.6l20.3,7.4c0,0,12.5,4.2,23.9,14.4h0l16.2-13.4l-34.8-39.4L202.2,151.9z"/>
	<polygon id="r1047b" class="st2" points="298.2,163.8 298.2,140.5 270.8,87.2 243.2,92.4 257.2,154.2 274.3,173.3 274.5,173.2 	"/>
	<polygon id="r1047a" class="st2" points="243.2,92.4 213.8,98 202.2,151.9 221.8,148.5 256.6,187.9 274.3,173.3 257.2,154.2 	"/>
	<path id="r1401" class="st2" d="M450.5,275.3c0,0-12.3,11.9-29.6,13.9c-17.2,2-26.1-9.8-31.3-15.7c-1.4-1.6-2.7-3.7-4.2-5.9v36.7
		l42.4-0.1C452.9,304.2,450.5,275.3,450.5,275.3z"/>
	<path id="r1402" class="st2" d="M360.2,255.2c-21.6-0.3-24.8,23-24.8,23v26.2l49.9-0.1v-36.7C381.5,261.8,375.9,255.4,360.2,255.2z
		"/>
	<polygon id="r1058" class="st2" points="513,181.5 503.1,181.5 503.1,177.5 496.6,177.5 496.6,186.8 501.9,193.2 513,193.2 
		513,184.8 	"/>
	<polygon id="r1059" class="st2" points="553.5,184.8 513,184.8 513,193.2 542.1,193.2 548.6,198.9 553.5,193.8 	"/>
	<polygon id="r1060" class="st2" points="553.5,184.8 553.5,193.8 548.6,198.9 560.2,209 572.2,198.2 572.2,184.8 	"/>
	<rect id="r1140-1151" x="367.8" y="179.5" class="st2" width="14.5" height="29.2"/>
	<rect id="triumph" x="309.4" y="193.8" class="st2" width="14.6" height="14.9"/>
	<polygon id="r1043" class="st2" points="160.8,412.7 148.4,402.3 83.5,463 111.2,471.6 	"/>
</g>
<g id="signs">
	<g id="escalator">
		<rect x="243.9" y="312.9" class="st3" width="14.8" height="14.8"/>
		<rect x="472.6" y="281.1" class="st3" width="14.8" height="14.8"/>
		<rect x="473.2" y="228.6" class="st3" width="14.8" height="14.8"/>
	</g>
	<rect id="parking" x="637.1" y="301.3" class="st3" width="14.8" height="14.8"/>
	<rect id="handicapped-parking" x="637.1" y="279.7" class="st3" width="14.8" height="14.8"/>
	<g id="entrance">
		<rect x="615.9" y="446.9" class="st3" width="14.8" height="14.8"/>
		<rect x="615.6" y="213.8" class="st3" width="14.8" height="14.8"/>
	</g>
	<rect id="lift" x="606.5" y="167" class="st3" width="14.8" height="14.8"/>
	<g id="handicapped-toilet">
		<rect x="253.5" y="448.6" class="st3" width="14.8" height="14.8"/>
		<rect x="548.3" y="158.3" class="st3" width="14.8" height="14.8"/>
	</g>
	<g id="toilet">
		<rect x="231.5" y="448.2" class="st3" width="14.8" height="14.8"/>
		<rect x="526.4" y="158.3" class="st3" width="14.8" height="14.8"/>
	</g>
	<g id="fire-exit">
		<rect x="187.5" y="458.5" class="st3" width="14.8" height="14.8"/>
		<rect x="505.6" y="125.4" class="st3" width="14.8" height="14.8"/>
		<rect x="357.9" y="125.4" class="st3" width="14.8" height="14.8"/>
		<rect x="465" y="378.2" class="st3" width="14.8" height="14.8"/>
		<rect x="287.9" y="376.9" class="st3" width="14.8" height="14.8"/>
	</g>
</g>
</svg>
