<?xml version="1.0" encoding="utf-8"?>
<!-- Generator: Adobe Illustrator 16.0.0, SVG Export Plug-In . SVG Version: 6.00 Build 0)  -->
<!DOCTYPE svg PUBLIC "-//W3C//DTD SVG 1.1//EN" "http://www.w3.org/Graphics/SVG/1.1/DTD/svg11.dtd">
<svg version="1.1" id="Layer_1" xmlns="http://www.w3.org/2000/svg" xmlns:xlink="http://www.w3.org/1999/xlink" x="0px" y="0px"
	 width="841.89px" height="595.281px" viewBox="0 0 841.89 595.281" enable-background="new 0 0 841.89 595.281"
	 xml:space="preserve">
<g id="background">
	<rect fill="#FFFFFF" width="841.89" height="595.281"/>
</g>
<g id="etc">
	<path fill="#DEDEDE" stroke="#494949" stroke-width="0.5" stroke-miterlimit="10" d="M305.667,118L279,63.333l-73.655,14
		c0,0-6.345,57-30.011,128.333s-95,140-95,140l18.655,29.199C74.667,384.835,58,405.145,58,428.593
		c0,33.297,33.579,60.291,75,60.291l670,1.449V118H305.667z"/>
	<path fill="#DEDEDE" stroke="#494949" stroke-width="0.5" stroke-miterlimit="10" d="M799.667,139.167h-147V120H290.875
		c-1.06-4.385-3.736-12.56-9.965-19.585c-6.66-7.512-17.381-13.708-34.535-12.54c-40.375,2.75-34.542,49.208-34.542,49.208H206
		l-7.55,35.75l0.075,0.022L178.5,218.667c23.667,14.5,59.333,20.5,87.833,19.167s37.167,50.5-4.167,52.167s-27.5,31-27.5,31
		l-41.792,39.625c-21.25-2.25-41.145,1.037-41.145,1.037c-53.275,7.129-92.914,39.446-88.734,72.563
		c0.881,6.982,3.647,13.445,7.954,19.24c16.271,21.896,54.622,34.234,97.223,28.857c1.707-0.215,3.399-0.457,5.077-0.727v-1.963
		l626.417,5.031v-345.5L799.667,139.167L799.667,139.167z"/>
	
		<ellipse fill="#DEDEDE" stroke="#494949" stroke-width="0.5" stroke-miterlimit="10" cx="515.625" cy="261.25" rx="37.875" ry="57.25"/>
	
		<rect x="594.167" y="142.833" fill="#DEDEDE" stroke="#494949" stroke-width="0.5" stroke-miterlimit="10" width="35.332" height="61.167"/>
	<polygon fill="#DEDEDE" stroke="#494949" stroke-width="0.5" stroke-miterlimit="10" points="517.333,179 574.333,179 
		574.333,142.833 518,142.833 	"/>
	
		<rect x="518.25" y="140.5" fill="#DEDEDE" stroke="#494949" stroke-width="0.5" stroke-miterlimit="10" width="111.918" height="0.833"/>
	
		<rect x="651.501" y="141.333" fill="#DEDEDE" stroke="#494949" stroke-width="0.5" stroke-miterlimit="10" width="88.998" height="18.833"/>
	
		<rect x="211.5" y="433.25" fill="#DEDEDE" stroke="#494949" stroke-width="0.5" stroke-miterlimit="10" width="97.75" height="43.75"/>
	
		<rect x="174.5" y="433.25" fill="#DEDEDE" stroke="#494949" stroke-width="0.5" stroke-miterlimit="10" width="23.5" height="21.875"/>
	<polygon fill="#DEDEDE" stroke="#494949" stroke-width="0.5" stroke-miterlimit="10" points="181,218 197.5,224.833 215.167,179.5 
		198.45,174.667 	"/>
	
		<rect x="384.167" y="121.5" fill="#DEDEDE" stroke="#494949" stroke-width="0.5" stroke-miterlimit="10" width="42.333" height="22.45"/>
	<polygon fill="#DEDEDE" stroke="#494949" stroke-width="0.5" stroke-miterlimit="10" points="314.5,477 314.5,433.25 339,433.25 
		339,363.25 322,363.25 313.25,348 340.25,334.25 455.25,334.25 487.625,350.875 480.375,362.625 508.75,379.125 629.5,380.375 
		628.625,480.75 	"/>
	<polygon fill="#DEDEDE" stroke="#494949" stroke-width="0.5" stroke-miterlimit="10" points="746.833,416 641,416 641,439 
		668.167,439 668.167,457.5 693.25,457.5 693.25,482.75 775,482.75 775,457.75 798,457.75 798,390.833 746.865,390.833 	"/>
	<rect x="641" y="439" fill="#DEDEDE" stroke="#494949" stroke-width="0.5" stroke-miterlimit="10" width="27.168" height="18.5"/>
</g>
<g id="rooms">
	<path id="r4013" fill="#939598" stroke="#494949" stroke-width="0.5" stroke-miterlimit="10" d="M164.75,397.25l-13.02-35.586
		c-53.275,7.127-92.914,39.445-88.734,72.563c0.881,6.982,3.647,13.443,7.954,19.238l93.875-56.197L164.75,397.25z"/>
	<path id="r4012" fill="#939598" stroke="#494949" stroke-width="0.5" stroke-miterlimit="10" d="M164.825,397.268L70.95,453.466
		c16.271,21.896,54.622,34.234,97.223,28.857c1.707-0.215,3.399-0.457,5.077-0.727v-50.1h27.5v-26L164.825,397.268z"/>
	<polygon id="cold-stone" fill="#939598" stroke="#494949" stroke-width="0.5" stroke-miterlimit="10" points="517.333,181.667 
		574.333,181.667 574.333,193.833 568.5,198.667 517.333,185.833 	"/>
	<polygon id="dak-galbi" fill="#939598" stroke="#494949" stroke-width="0.5" stroke-miterlimit="10" points="631.167,162 
		740.5,162 740.5,186.333 720.833,186.333 720.833,204 631.167,204 	"/>
	
		<rect id="r4025" x="607.333" y="227.667" fill="#939598" stroke="#494949" stroke-width="0.5" stroke-miterlimit="10" width="62.777" height="35"/>
	
		<rect id="r4023" x="670.113" y="227.667" fill="#939598" stroke="#494949" stroke-width="0.5" stroke-miterlimit="10" width="35.721" height="35"/>
	
		<rect id="r4024" x="607.333" y="293.167" fill="#939598" stroke="#494949" stroke-width="0.5" stroke-miterlimit="10" width="98.5" height="25.333"/>
	<polygon id="r4006" fill="#939598" stroke="#494949" stroke-width="0.5" stroke-miterlimit="10" points="629.5,343.75 621.75,336 
		554.445,336 554.445,377.471 629.5,378.25 	"/>
	<polygon id="r4010" fill="#939598" stroke="#494949" stroke-width="0.5" stroke-miterlimit="10" points="320.75,366 309.5,346.5 
		314.113,344.174 302.27,324.256 272.687,350.734 280.695,363.141 290.113,356.102 290.113,356.102 290.113,356.102 
		309.642,390.748 309.642,390.748 318.445,406.366 318.445,406.366 318.445,406.366 318.445,431 336.25,431 336.25,366 	"/>
	<polygon id="r4011" fill="#939598" stroke="#494949" stroke-width="0.5" stroke-miterlimit="10" points="309.642,390.748 
		283.738,408.511 283.738,408.511 283.738,408.511 254.708,366.826 211.5,405.5 211.5,431 318.445,431 318.445,406.366 	"/>
	<polygon id="r4009" fill="#939598" stroke="#494949" stroke-width="0.5" stroke-miterlimit="10" points="359.25,285 337.75,292.5 
		302.27,324.256 314.113,344.174 339.25,331.5 372.445,331.5 372.445,285 	"/>
	<polygon id="r4008" fill="#939598" stroke="#494949" stroke-width="0.5" stroke-miterlimit="10" points="409,285 388.445,285 
		388.445,331.5 456.75,331.5 468.457,337.908 479.589,319.616 	"/>
	<polygon id="r4007" fill="#939598" stroke="#494949" stroke-width="0.5" stroke-miterlimit="10" points="513,336 479.589,319.616 
		468.457,337.908 491,350.25 483.75,362.25 509.25,377 554.445,377.471 554.445,336 	"/>
	
		<rect id="r4027-4028" x="313.25" y="216.5" fill="#939598" stroke="#494949" stroke-width="0.5" stroke-miterlimit="10" width="74.5" height="46.167"/>
	
		<rect id="r4026" x="406.25" y="216.5" fill="#939598" stroke="#494949" stroke-width="0.5" stroke-miterlimit="10" width="50" height="46.167"/>
	<polygon id="r4001" fill="#939598" stroke="#494949" stroke-width="0.5" stroke-miterlimit="10" points="798,164.25 755,164.25 
		755,198.25 732.75,198.25 732.531,230.667 798,230.667 	"/>
	<polygon id="r4004-4005" fill="#939598" stroke="#494949" stroke-width="0.5" stroke-miterlimit="10" points="746.917,345.751 
		731.751,345.751 731.75,346 641,346 641,416 746.833,416 	"/>
	<polygon id="r4002" fill="#939598" stroke="#494949" stroke-width="0.5" stroke-miterlimit="10" points="798,230.667 
		732.531,230.667 732.25,272.167 798,272.167 	"/>
	<polygon id="r4003" fill="#939598" stroke="#494949" stroke-width="0.5" stroke-miterlimit="10" points="732.25,272.167 
		731.751,345.751 746.917,345.751 746.865,390.833 798,390.833 798,272.167 	"/>
	<path id="r4018" fill="#939598" stroke="#494949" stroke-width="0.5" stroke-miterlimit="10" d="M426.5,143.95h-42.333v56.217
		c0,0,21.077,0.046,47.083-2.459V143.95H426.5z"/>
	<path id="r4019" fill="#939598" stroke="#494949" stroke-width="0.5" stroke-miterlimit="10" d="M499.667,125.667l-18-4.167
		l-24.334,3.667l-30.5-3.667H426.5v22.45h4.75v53.757c22.617-2.179,48.959-6.288,68.418-14.041V125.667L499.667,125.667z"/>
	<path id="r4015" fill="#939598" stroke="#494949" stroke-width="0.5" stroke-miterlimit="10" d="M263,108.25l17.91-7.835
		c-6.66-7.512-17.381-13.708-34.535-12.54c-40.375,2.75-34.542,49.208-34.542,49.208H206l-7.55,35.75L218,178.5l1.5-3.333
		l9.309,2.356c0,0,30.753,7.451,69.432,13.895l0.509-11.918L263,108.25z"/>
	<path id="r4017" fill="#939598" stroke="#494949" stroke-width="0.5" stroke-miterlimit="10" d="M372.667,144.833h-34.292v52.34
		c11.566,1.355,23.162,2.415,34.292,2.993V144.833z"/>
	<path id="r4016" fill="#939598" stroke="#494949" stroke-width="0.5" stroke-miterlimit="10" d="M330.833,144.833V123
		l-14.896,0.167H291.5c0,0-1.574-12.583-10.59-22.752L263,108.25l35.75,71.25l-0.509,11.918c12.788,2.13,26.438,4.15,40.134,5.755
		v-52.34H330.833z"/>
	<path id="r4014" fill="#939598" stroke="#494949" stroke-width="0.5" stroke-miterlimit="10" d="M220.836,234.233
		c15.366,3.11,31.318,4.264,45.497,3.601c9.288-0.435,16.467,4.78,20.498,12.062c0.256-1.566,0.39-3.17,0.39-4.803
		c0-17.529-15.321-31.74-34.221-31.74C238.213,213.354,225.618,222.052,220.836,234.233z"/>
	
		<rect id="r4401" x="540.142" y="292.876" transform="matrix(-0.7978 -0.603 0.603 -0.7978 797.6688 883.1738)" fill="#939598" stroke="#494949" stroke-width="0.5" stroke-miterlimit="10" width="13.595" height="29.888"/>
	
		<rect id="r4402" x="554.445" y="239.583" fill="#939598" stroke="#494949" stroke-width="0.5" stroke-miterlimit="10" width="6.918" height="18.559"/>
</g>
<g id="signs">
	<g id="elevator">
		<rect x="179.928" y="181.667" opacity="0.8" enable-background="new    " width="14.811" height="14.811"/>
		<rect x="605.929" y="164.189" display="none" opacity="0.8" enable-background="new    " width="14.811" height="14.811"/>
	</g>
	<g id="toilet">
		<rect x="235.928" y="446.06" opacity="0.8" enable-background="new    " width="14.811" height="14.813"/>
		<rect x="526.929" y="152.198" opacity="0.8" enable-background="new    " width="14.811" height="14.811"/>
	</g>
	<g id="handicapped-toilet">
		<rect x="257.595" y="447.72" opacity="0.8" enable-background="new    " width="14.811" height="14.813"/>
		<rect x="547.929" y="152.198" opacity="0.8" enable-background="new    " width="14.811" height="14.811"/>
	</g>
	<g id="lift">
		<rect x="235.928" y="320.871" opacity="0.8" enable-background="new    " width="14.811" height="14.813"/>
		<rect x="257.595" y="281.205" opacity="0.8" enable-background="new    " width="14.811" height="14.811"/>
		<rect x="488.929" y="296.448" opacity="0.8" enable-background="new    " width="14.811" height="14.811"/>
		<rect x="486.179" y="205.948" opacity="0.8" enable-background="new    " width="14.811" height="14.811"/>
	</g>
	<g id="fire-exit">
		<rect x="178.845" y="460.871" opacity="0.8" enable-background="new    " width="14.811" height="14.811"/>
		<rect x="672.595" y="461.949" opacity="0.8" enable-background="new    " width="14.813" height="14.811"/>
		<rect x="779.345" y="463.699" opacity="0.8" enable-background="new    " width="14.813" height="14.811"/>
		<rect x="779.763" y="145.356" opacity="0.8" enable-background="new    " width="14.811" height="14.811"/>
		<rect x="518.25" y="122.167" opacity="0.8" enable-background="new    " width="14.811" height="14.811"/>
		<rect x="352.25" y="122.167" opacity="0.8" enable-background="new    " width="14.811" height="14.811"/>
	</g>
</g>
</svg>
