<?xml version="1.0" encoding="utf-8"?>
<!-- Generator: Adobe Illustrator 16.0.0, SVG Export Plug-In . SVG Version: 6.00 Build 0)  -->
<!DOCTYPE svg PUBLIC "-//W3C//DTD SVG 1.1//EN" "http://www.w3.org/Graphics/SVG/1.1/DTD/svg11.dtd">
<svg version="1.1" id="Layer_1" xmlns="http://www.w3.org/2000/svg" xmlns:xlink="http://www.w3.org/1999/xlink" x="0px" y="0px"
	 width="841.89px" height="595.281px" viewBox="0 0 841.89 595.281" enable-background="new 0 0 841.89 595.281"
	 xml:space="preserve">
<g id="background">
	<rect fill="#FFFFFF" width="841.89" height="595.281"/>
</g>
<g id="etc">
	
		<rect x="590.75" y="141.977" fill="#DEDEDE" stroke="#494949" stroke-width="0.5" stroke-miterlimit="10" width="33.75" height="62.023"/>
	<path fill="#DEDEDE" stroke="#494949" stroke-width="0.5" stroke-miterlimit="10" d="M653.875,135.417v-14.322h-362.75
		c-0.853-3.988-3.421-13.018-10.214-20.68c-6.66-7.512-17.381-13.708-34.535-12.54c-1.414,0.096-2.766,0.251-4.068,0.451
		c-35.899,5.501-30.473,48.757-30.473,48.757H206l-7.55,35.75l4.012,1.163L181.938,223l0,0c0.259-0.542,0.395-0.833,0.395-0.833
		l16.116,6.333c4.783,63-42.2,109.625-42.2,109.625l-20.875,17.125l-26.958,18.908c-29.743,14.027-48.351,36.852-45.42,60.067
		c0.881,6.982,3.647,13.443,7.954,19.238c3.27,4.4,7.444,8.406,12.352,11.967c19.517,14.164,50.83,21.189,84.871,16.894
		c1.707-0.215,3.399-0.457,5.077-0.726v-2.088l627.251,1.988V135.417H653.875z"/>
	
		<rect x="488.875" y="137" fill="#DEDEDE" stroke="#494949" stroke-width="0.5" stroke-miterlimit="10" width="83.479" height="41.75"/>
	
		<ellipse transform="matrix(-0.9959 0.0906 -0.0906 -0.9959 466.6072 651.4542)" fill="#DEDEDE" stroke="#494949" stroke-width="0.5" stroke-miterlimit="10" cx="218.517" cy="336.318" rx="29.98" ry="32.836"/>
	
		<ellipse transform="matrix(-0.9747 -0.2237 0.2237 -0.9747 400.377 566.4327)" fill="#DEDEDE" stroke="#494949" stroke-width="0.5" stroke-miterlimit="10" cx="232.271" cy="260.539" rx="19.826" ry="27.172"/>
	
		<rect x="385.25" y="124.25" fill="#DEDEDE" stroke="#494949" stroke-width="0.5" stroke-miterlimit="10" width="41.75" height="22.5"/>
	<path fill="#DEDEDE" stroke="#494949" stroke-width="0.5" stroke-miterlimit="10" d="M305.667,118L279,63.333l-73.655,14
		c0,0-6.345,57-30.011,128.333s-95,140-95,140l18.655,29.199C74.667,384.835,58,405.145,58,428.593
		c0,33.297,33.579,60.291,75,60.291l670,1.449V118H305.667z"/>
	<polygon fill="#DEDEDE" stroke="#494949" stroke-width="0.5" stroke-miterlimit="10" points="216,477.75 321.125,477.75 
		321.125,413.5 307.482,391.781 259.125,417.125 259.125,432 216,432 	"/>
	
		<rect x="176" y="433.375" fill="#DEDEDE" stroke="#494949" stroke-width="0.5" stroke-miterlimit="10" width="25.625" height="22"/>
	
		<rect x="574.125" y="138.875" fill="#DEDEDE" stroke="#494949" stroke-width="0.5" stroke-miterlimit="10" width="50.375" height="1.313"/>
	<polyline fill="#DEDEDE" stroke="#494949" stroke-width="0.5" stroke-miterlimit="10" points="183.333,220 199.833,226.333 
		216.333,181.667 201,176.833 183.333,220.667 	"/>
	
		<ellipse fill="#DEDEDE" stroke="#494949" stroke-width="0.5" stroke-miterlimit="10" cx="520.306" cy="258.677" rx="37.027" ry="56.177"/>
	<path fill="#DEDEDE" stroke="#494949" stroke-width="0.5" stroke-miterlimit="10" d="M156.25,338.125
		c0,0,46.982-46.625,42.2-109.625l-16.116-6.333c0,0-37,79.499-91,124.833l17.083,27.158l26.958-18.908L156.25,338.125z"/>
	
		<rect x="374.875" y="286.563" fill="#DEDEDE" stroke="#494949" stroke-width="0.5" stroke-miterlimit="10" width="8.583" height="2.625"/>
</g>
<g id="rooms">
	
		<rect id="r5025-5026" x="341" y="224.5" fill="#939598" stroke="#494949" stroke-width="0.5" stroke-miterlimit="10" width="104.5" height="51"/>
	
		<rect id="r5027-5029" x="273.667" y="224.5" fill="#939598" stroke="#494949" stroke-width="0.5" stroke-miterlimit="10" width="52.167" height="51"/>
	<polygon id="r5021-5022" fill="#939598" stroke="#494949" stroke-width="0.5" stroke-miterlimit="10" points="427,124.25 
		427,146.75 385.25,146.75 385.25,197.174 464.75,197.174 464.75,124.25 	"/>
	
		<rect id="r5023" x="514.75" y="181.75" fill="#939598" stroke="#494949" stroke-width="0.5" stroke-miterlimit="10" width="57.604" height="11.75"/>
	<path id="pier-21" fill="#939598" stroke="#494949" stroke-width="0.5" stroke-miterlimit="10" d="M774.25,138.5H653.5V169h-23v38
		h-95.656c13.227,8.573,22.49,28.481,22.49,51.677c0,31.026-16.578,56.177-37.027,56.177c-3.676,0-7.223-0.824-10.57-2.336
		L508.5,318c60.5,84.5,136.75,81.5,136.75,81.5h154V215.25h-25v-30.125h25v-22h-25V138.5z"/>
	<polygon id="r5013" fill="#939598" stroke="#494949" stroke-width="0.5" stroke-miterlimit="10" points="259.125,417.125 
		284.162,403.979 257.368,361.199 216,399.25 216,432 259.125,432 	"/>
	<polygon id="r5010-5011" fill="#939598" stroke="#494949" stroke-width="0.5" stroke-miterlimit="10" points="359,362.125 
		341,331.02 373.125,331.02 373.125,286 372.75,286 322,301.75 299.994,321.992 333.5,375.625 	"/>
	<path id="r5006-5007" fill="#939598" stroke="#494949" stroke-width="0.5" stroke-miterlimit="10" d="M574.134,398.648
		c-3.891-2.188-7.859-4.64-11.885-7.398c-14.346-9.836-31.354-22.629-47.73-35.383l-44.023,68.289l33.672,18.262L497.5,454.75
		c0,0,22.754,15.736,62.25,21.67V420L574.134,398.648z"/>
	
		<rect id="r5003" x="643.25" y="415.5" fill="#939598" stroke="#494949" stroke-width="0.5" stroke-miterlimit="10" width="56" height="43.25"/>
	<path id="r5008" fill="#939598" stroke="#494949" stroke-width="0.5" stroke-miterlimit="10" d="M433.5,331.02L433.5,331.02
		l-19.25,31.229l36,21.25l14.375,8.875l20.5-31.5l7.125,3.875l11.088-17.653c-27.49-21.724-50.84-41.253-53.137-43.177L433.5,331.02
		L433.5,331.02z"/>
	<path id="r5009" fill="#939598" stroke="#494949" stroke-width="0.5" stroke-miterlimit="10" d="M450.201,303.919
		c-0.121-0.104-0.201-0.17-0.201-0.17L404.75,286h-19.875v45.02H433.5L450.201,303.919z"/>
	<polygon id="r5012" fill="#939598" stroke="#494949" stroke-width="0.5" stroke-miterlimit="10" points="470.494,424.156 
		437.25,406.125 450.25,383.5 414.25,362.25 414.277,362.205 359,362.125 333.5,375.625 299.994,321.992 267.229,352.128 
		277.5,365.75 287.125,359.375 321.125,413.5 321.125,477.75 497.5,477.75 497.5,454.75 504.167,442.417 	"/>
	<polygon id="r5002" fill="#939598" stroke="#494949" stroke-width="0.5" stroke-miterlimit="10" points="699.25,415.5 
		699.25,458.75 699.25,460.75 699.25,478.65 772.75,478.65 772.75,415.5 	"/>
	<path id="r5004-5005" fill="#939598" stroke="#494949" stroke-width="0.5" stroke-miterlimit="10" d="M574.134,398.648L559.75,420
		v56.42c18.768,2.82,41.313,3.43,67-0.92v-16.75h16.5V415.5C643.25,415.5,612.537,420.234,574.134,398.648z"/>
	<path id="r5016a" fill="#939598" stroke="#494949" stroke-width="0.5" stroke-miterlimit="10" d="M156.25,338.125
		c0,0,46.982-46.625,42.2-109.625l-16.116-6.333c0,0-37,79.499-91,124.833l17.083,27.158l26.958-18.908L156.25,338.125z"/>
	<path id="r5014" fill="#939598" stroke="#494949" stroke-width="0.5" stroke-miterlimit="10" d="M162.783,385.486l-79.48,79.944
		c19.517,14.164,50.83,21.189,84.871,16.894c1.707-0.215,3.399-0.457,5.077-0.726v-50.1h18.375h9.125h3.375v-34.75L162.783,385.486z
		"/>
	<path id="r5015" fill="#939598" stroke="#494949" stroke-width="0.5" stroke-miterlimit="10" d="M162.375,385.375l-3.328-3.713
		l-16.564-18.48l-7.107-7.932l-26.958,18.908c-29.743,14.027-48.351,36.852-45.42,60.067c0.881,6.982,3.647,13.443,7.954,19.238
		c3.27,4.4,7.444,8.406,12.352,11.967l79.48-79.944L162.375,385.375z"/>
	<path id="r5017" fill="#939598" stroke="#494949" stroke-width="0.5" stroke-miterlimit="10" d="M242.307,88.326
		c-35.899,5.501-30.473,48.757-30.473,48.757H206l-7.55,35.75L218,178.5l1.5-3.333l3.73,0.944l34.02,15.706v-49.364L242.307,88.326z
		"/>
	<polygon id="r5019-5020" fill="#939598" stroke="#494949" stroke-width="0.5" stroke-miterlimit="10" points="374.125,147.333 
		338.375,147.333 333.875,147.333 330.833,147.333 330.833,144.833 330.833,132.333 330.833,123 315.938,123.167 300.833,123.167 
		300.833,197.174 374.125,197.174 	"/>
	<path id="r5018" fill="#939598" stroke="#494949" stroke-width="0.5" stroke-miterlimit="10" d="M291.5,123.167
		c0,0-1.574-12.583-10.59-22.752c-6.66-7.512-17.381-13.708-34.535-12.54c-1.414,0.096-2.766,0.251-4.068,0.451l14.943,54.127
		v49.364l0.125,0.058l43,5.299h0.458v-74.007H291.5z"/>
</g>
<g id="signs">
	<g id="elevator">
		<rect x="185.023" y="186.095" opacity="0.8" enable-background="new    " width="14.811" height="14.813"/>
		<rect x="604.927" y="165.583" opacity="0.8" enable-background="new    " width="14.813" height="14.811"/>
	</g>
	<g id="lift">
		<rect x="486.205" y="206.261" opacity="0.8" enable-background="new    " width="14.811" height="14.813"/>
		<rect x="489.357" y="296.514" opacity="0.8" enable-background="new    " width="14.811" height="14.812"/>
		<rect x="198.792" y="355.867" opacity="0.8" enable-background="new    " width="14.811" height="14.811"/>
	</g>
	<g id="toilet">
		<rect x="514.91" y="146.75" opacity="0.8" enable-background="new    " width="14.811" height="14.811"/>
		<rect x="239.125" y="447.97" opacity="0.8" enable-background="new    " width="14.811" height="14.812"/>
	</g>
	<g id="handicapped-toilet">
		<rect x="536.146" y="146.75" opacity="0.8" enable-background="new    " width="14.811" height="14.811"/>
		<rect x="259.824" y="447.97" opacity="0.8" enable-background="new    " width="14.811" height="14.812"/>
	</g>
	<g id="fire-exit">
		<rect x="353.419" y="124.25" opacity="0.8" enable-background="new    " width="14.813" height="14.811"/>
		<rect x="468.466" y="124.25" opacity="0.8" enable-background="new    " width="14.813" height="14.811"/>
		<rect x="778.132" y="139.345" opacity="0.8" enable-background="new    " width="14.813" height="14.813"/>
		<rect x="778.132" y="187.625" opacity="0.8" enable-background="new    " width="14.813" height="14.811"/>
		<rect x="634.132" y="462.939" opacity="0.8" enable-background="new    " width="14.813" height="14.811"/>
		<rect x="778.132" y="416.143" opacity="0.8" enable-background="new    " width="14.813" height="14.813"/>
		<rect x="478.798" y="371.605" opacity="0.8" enable-background="new    " width="14.813" height="14.813"/>
		<rect x="281.132" y="375.625" opacity="0.8" enable-background="new    " width="14.811" height="14.813"/>
		<rect x="181.407" y="460.291" opacity="0.8" enable-background="new    " width="14.811" height="14.811"/>
	</g>
</g>
</svg>
